<?xml version="1.0" standalone="no"?>
 <!DOCTYPE svg PUBLIC "-//W3C//DTD SVG 1.1//EN" 
 "http://www.w3.org/Graphics/SVG/1.1/DTD/svg11.dtd"> 
<svg
  xmlns:svg="http://www.w3.org/2000/svg"
  xmlns="http://www.w3.org/2000/svg"
  xmlns:xlink="http://www.w3.org/1999/xlink"
  version="1.1"
  width="297.0022mm" height="210.0072mm" viewBox="0.0000 0.0000 297.0022 210.0072">
<title>SVG Image created as shutter-B_Silkscreen.svg date 2024/09/30 11:50:28 </title>
  <desc>Image generated by PCBNEW </desc>
<g style="fill:#000000; fill-opacity:1.0000;stroke:#000000; stroke-opacity:1.0000;
stroke-linecap:round; stroke-linejoin:round;"
 transform="translate(0 0) scale(1 1)">
</g>
<g style="fill:none; 
stroke:#000000; stroke-width:0.1500; stroke-opacity:1; 
stroke-linecap:round; stroke-linejoin:round;">
<text x="167.8432" y="107.1880"
textLength="1.4881" font-size="1.3333" lengthAdjust="spacingAndGlyphs"
text-anchor="start" opacity="0" stroke-opacity="0">-</text>
<g class="stroked-text"><desc>-</desc>
<path d="M168.1800 106.6769
L168.9419 106.6769
" />
</g><g transform="rotate(90.000000 154.4964 76.2762)">
<text x="154.4964" y="76.2762"
textLength="3.2995" font-size="1.0667" lengthAdjust="spacingAndGlyphs"
text-anchor="start" opacity="0" stroke-opacity="0">NRST</text>
</g>
<g class="stroked-text"><desc>NRST</desc>
<path d="M154.6021 76.5654
L155.4021 76.5654
" />
<path d="M155.4021 76.5654
L154.6021 77.0225
" />
<path d="M154.6021 77.0225
L155.4021 77.0225
" />
<path d="M154.6021 77.8606
L154.9830 77.5939
" />
<path d="M154.6021 77.4035
L155.4021 77.4035
" />
<path d="M155.4021 77.4035
L155.4021 77.7082
" />
<path d="M155.4021 77.7082
L155.3640 77.7844
" />
<path d="M155.3640 77.7844
L155.3259 77.8225
" />
<path d="M155.3259 77.8225
L155.2497 77.8606
" />
<path d="M155.2497 77.8606
L155.1354 77.8606
" />
<path d="M155.1354 77.8606
L155.0592 77.8225
" />
<path d="M155.0592 77.8225
L155.0211 77.7844
" />
<path d="M155.0211 77.7844
L154.9830 77.7082
" />
<path d="M154.9830 77.7082
L154.9830 77.4035
" />
<path d="M154.6402 78.1654
L154.6021 78.2796
" />
<path d="M154.6021 78.2796
L154.6021 78.4701
" />
<path d="M154.6021 78.4701
L154.6402 78.5463
" />
<path d="M154.6402 78.5463
L154.6783 78.5844
" />
<path d="M154.6783 78.5844
L154.7545 78.6225
" />
<path d="M154.7545 78.6225
L154.8307 78.6225
" />
<path d="M154.8307 78.6225
L154.9068 78.5844
" />
<path d="M154.9068 78.5844
L154.9449 78.5463
" />
<path d="M154.9449 78.5463
L154.9830 78.4701
" />
<path d="M154.9830 78.4701
L155.0211 78.3177
" />
<path d="M155.0211 78.3177
L155.0592 78.2415
" />
<path d="M155.0592 78.2415
L155.0973 78.2035
" />
<path d="M155.0973 78.2035
L155.1735 78.1654
" />
<path d="M155.1735 78.1654
L155.2497 78.1654
" />
<path d="M155.2497 78.1654
L155.3259 78.2035
" />
<path d="M155.3259 78.2035
L155.3640 78.2415
" />
<path d="M155.3640 78.2415
L155.4021 78.3177
" />
<path d="M155.4021 78.3177
L155.4021 78.5082
" />
<path d="M155.4021 78.5082
L155.3640 78.6225
" />
<path d="M155.4021 78.8511
L155.4021 79.3082
" />
<path d="M154.6021 79.0796
L155.4021 79.0796
" />
</g><g transform="rotate(90.000000 153.2084 76.2762)">
<text x="153.2084" y="76.2762"
textLength="3.7567" font-size="1.0667" lengthAdjust="spacingAndGlyphs"
text-anchor="start" opacity="0" stroke-opacity="0">Boot0</text>
</g>
<g class="stroked-text"><desc>Boot0</desc>
<path d="M153.7332 76.8320
L153.6951 76.9463
" />
<path d="M153.6951 76.9463
L153.6570 76.9844
" />
<path d="M153.6570 76.9844
L153.5808 77.0225
" />
<path d="M153.5808 77.0225
L153.4665 77.0225
" />
<path d="M153.4665 77.0225
L153.3903 76.9844
" />
<path d="M153.3903 76.9844
L153.3522 76.9463
" />
<path d="M153.3522 76.9463
L153.3141 76.8701
" />
<path d="M153.3141 76.8701
L153.3141 76.5654
" />
<path d="M153.3141 76.5654
L154.1141 76.5654
" />
<path d="M154.1141 76.5654
L154.1141 76.8320
" />
<path d="M154.1141 76.8320
L154.0760 76.9082
" />
<path d="M154.0760 76.9082
L154.0379 76.9463
" />
<path d="M154.0379 76.9463
L153.9617 76.9844
" />
<path d="M153.9617 76.9844
L153.8856 76.9844
" />
<path d="M153.8856 76.9844
L153.8094 76.9463
" />
<path d="M153.8094 76.9463
L153.7713 76.9082
" />
<path d="M153.7713 76.9082
L153.7332 76.8320
" />
<path d="M153.7332 76.8320
L153.7332 76.5654
" />
<path d="M153.3141 77.4796
L153.3522 77.4035
" />
<path d="M153.3522 77.4035
L153.3903 77.3654
" />
<path d="M153.3903 77.3654
L153.4665 77.3273
" />
<path d="M153.4665 77.3273
L153.6951 77.3273
" />
<path d="M153.6951 77.3273
L153.7713 77.3654
" />
<path d="M153.7713 77.3654
L153.8094 77.4035
" />
<path d="M153.8094 77.4035
L153.8475 77.4796
" />
<path d="M153.8475 77.4796
L153.8475 77.5939
" />
<path d="M153.8475 77.5939
L153.8094 77.6701
" />
<path d="M153.8094 77.6701
L153.7713 77.7082
" />
<path d="M153.7713 77.7082
L153.6951 77.7463
" />
<path d="M153.6951 77.7463
L153.4665 77.7463
" />
<path d="M153.4665 77.7463
L153.3903 77.7082
" />
<path d="M153.3903 77.7082
L153.3522 77.6701
" />
<path d="M153.3522 77.6701
L153.3141 77.5939
" />
<path d="M153.3141 77.5939
L153.3141 77.4796
" />
<path d="M153.3141 78.2035
L153.3522 78.1273
" />
<path d="M153.3522 78.1273
L153.3903 78.0892
" />
<path d="M153.3903 78.0892
L153.4665 78.0511
" />
<path d="M153.4665 78.0511
L153.6951 78.0511
" />
<path d="M153.6951 78.0511
L153.7713 78.0892
" />
<path d="M153.7713 78.0892
L153.8094 78.1273
" />
<path d="M153.8094 78.1273
L153.8475 78.2035
" />
<path d="M153.8475 78.2035
L153.8475 78.3177
" />
<path d="M153.8475 78.3177
L153.8094 78.3939
" />
<path d="M153.8094 78.3939
L153.7713 78.4320
" />
<path d="M153.7713 78.4320
L153.6951 78.4701
" />
<path d="M153.6951 78.4701
L153.4665 78.4701
" />
<path d="M153.4665 78.4701
L153.3903 78.4320
" />
<path d="M153.3903 78.4320
L153.3522 78.3939
" />
<path d="M153.3522 78.3939
L153.3141 78.3177
" />
<path d="M153.3141 78.3177
L153.3141 78.2035
" />
<path d="M153.8475 78.6987
L153.8475 79.0035
" />
<path d="M154.1141 78.8130
L153.4284 78.8130
" />
<path d="M153.4284 78.8130
L153.3522 78.8511
" />
<path d="M153.3522 78.8511
L153.3141 78.9273
" />
<path d="M153.3141 78.9273
L153.3141 79.0035
" />
<path d="M154.1141 79.4225
L154.1141 79.4987
" />
<path d="M154.1141 79.4987
L154.0760 79.5749
" />
<path d="M154.0760 79.5749
L154.0379 79.6130
" />
<path d="M154.0379 79.6130
L153.9617 79.6511
" />
<path d="M153.9617 79.6511
L153.8094 79.6892
" />
<path d="M153.8094 79.6892
L153.6189 79.6892
" />
<path d="M153.6189 79.6892
L153.4665 79.6511
" />
<path d="M153.4665 79.6511
L153.3903 79.6130
" />
<path d="M153.3903 79.6130
L153.3522 79.5749
" />
<path d="M153.3522 79.5749
L153.3141 79.4987
" />
<path d="M153.3141 79.4987
L153.3141 79.4225
" />
<path d="M153.3141 79.4225
L153.3522 79.3463
" />
<path d="M153.3522 79.3463
L153.3903 79.3082
" />
<path d="M153.3903 79.3082
L153.4665 79.2701
" />
<path d="M153.4665 79.2701
L153.6189 79.2320
" />
<path d="M153.6189 79.2320
L153.8094 79.2320
" />
<path d="M153.8094 79.2320
L153.9617 79.2701
" />
<path d="M153.9617 79.2701
L154.0379 79.3082
" />
<path d="M154.0379 79.3082
L154.0760 79.3463
" />
<path d="M154.0760 79.3463
L154.1141 79.4225
" />
</g><g transform="rotate(90.000000 151.9205 76.2762)">
<text x="151.9205" y="76.2762"
textLength="2.4233" font-size="1.0667" lengthAdjust="spacingAndGlyphs"
text-anchor="start" opacity="0" stroke-opacity="0">3v3</text>
</g>
<g class="stroked-text"><desc>3v3</desc>
<path d="M152.8262 76.4892
L152.8262 76.9844
" />
<path d="M152.8262 76.9844
L152.5214 76.7177
" />
<path d="M152.5214 76.7177
L152.5214 76.8320
" />
<path d="M152.5214 76.8320
L152.4833 76.9082
" />
<path d="M152.4833 76.9082
L152.4452 76.9463
" />
<path d="M152.4452 76.9463
L152.3690 76.9844
" />
<path d="M152.3690 76.9844
L152.1786 76.9844
" />
<path d="M152.1786 76.9844
L152.1024 76.9463
" />
<path d="M152.1024 76.9463
L152.0643 76.9082
" />
<path d="M152.0643 76.9082
L152.0262 76.8320
" />
<path d="M152.0262 76.8320
L152.0262 76.6035
" />
<path d="M152.0262 76.6035
L152.0643 76.5273
" />
<path d="M152.0643 76.5273
L152.1024 76.4892
" />
<path d="M152.5595 77.2511
L152.0262 77.4415
" />
<path d="M152.0262 77.4415
L152.5595 77.6320
" />
<path d="M152.8262 77.8606
L152.8262 78.3558
" />
<path d="M152.8262 78.3558
L152.5214 78.0892
" />
<path d="M152.5214 78.0892
L152.5214 78.2035
" />
<path d="M152.5214 78.2035
L152.4833 78.2796
" />
<path d="M152.4833 78.2796
L152.4452 78.3177
" />
<path d="M152.4452 78.3177
L152.3690 78.3558
" />
<path d="M152.3690 78.3558
L152.1786 78.3558
" />
<path d="M152.1786 78.3558
L152.1024 78.3177
" />
<path d="M152.1024 78.3177
L152.0643 78.2796
" />
<path d="M152.0643 78.2796
L152.0262 78.2035
" />
<path d="M152.0262 78.2035
L152.0262 77.9749
" />
<path d="M152.0262 77.9749
L152.0643 77.8987
" />
<path d="M152.0643 77.8987
L152.1024 77.8606
" />
</g><g transform="rotate(90.000000 150.6325 76.2762)">
<text x="150.6325" y="76.2762"
textLength="2.5376" font-size="1.0667" lengthAdjust="spacingAndGlyphs"
text-anchor="start" opacity="0" stroke-opacity="0">Gnd</text>
</g>
<g class="stroked-text"><desc>Gnd</desc>
<path d="M151.5001 76.9844
L151.5382 76.9082
" />
<path d="M151.5382 76.9082
L151.5382 76.7939
" />
<path d="M151.5382 76.7939
L151.5001 76.6796
" />
<path d="M151.5001 76.6796
L151.4239 76.6035
" />
<path d="M151.4239 76.6035
L151.3477 76.5654
" />
<path d="M151.3477 76.5654
L151.1954 76.5273
" />
<path d="M151.1954 76.5273
L151.0811 76.5273
" />
<path d="M151.0811 76.5273
L150.9287 76.5654
" />
<path d="M150.9287 76.5654
L150.8525 76.6035
" />
<path d="M150.8525 76.6035
L150.7763 76.6796
" />
<path d="M150.7763 76.6796
L150.7382 76.7939
" />
<path d="M150.7382 76.7939
L150.7382 76.8701
" />
<path d="M150.7382 76.8701
L150.7763 76.9844
" />
<path d="M150.7763 76.9844
L150.8144 77.0225
" />
<path d="M150.8144 77.0225
L151.0811 77.0225
" />
<path d="M151.0811 77.0225
L151.0811 76.8701
" />
<path d="M151.2715 77.3654
L150.7382 77.3654
" />
<path d="M151.1954 77.3654
L151.2335 77.4035
" />
<path d="M151.2335 77.4035
L151.2715 77.4796
" />
<path d="M151.2715 77.4796
L151.2715 77.5939
" />
<path d="M151.2715 77.5939
L151.2335 77.6701
" />
<path d="M151.2335 77.6701
L151.1573 77.7082
" />
<path d="M151.1573 77.7082
L150.7382 77.7082
" />
<path d="M150.7382 78.4320
L151.5382 78.4320
" />
<path d="M150.7763 78.4320
L150.7382 78.3558
" />
<path d="M150.7382 78.3558
L150.7382 78.2035
" />
<path d="M150.7382 78.2035
L150.7763 78.1273
" />
<path d="M150.7763 78.1273
L150.8144 78.0892
" />
<path d="M150.8144 78.0892
L150.8906 78.0511
" />
<path d="M150.8906 78.0511
L151.1192 78.0511
" />
<path d="M151.1192 78.0511
L151.1954 78.0892
" />
<path d="M151.1954 78.0892
L151.2335 78.1273
" />
<path d="M151.2335 78.1273
L151.2715 78.2035
" />
<path d="M151.2715 78.2035
L151.2715 78.3558
" />
<path d="M151.2715 78.3558
L151.2335 78.4320
" />
</g><g transform="rotate(90.000000 149.3446 76.2762)">
<text x="149.3446" y="76.2762"
textLength="3.9852" font-size="1.0667" lengthAdjust="spacingAndGlyphs"
text-anchor="start" opacity="0" stroke-opacity="0">SWDIO</text>
</g>
<g class="stroked-text"><desc>SWDIO</desc>
<path d="M149.4884 76.5273
L149.4503 76.6415
" />
<path d="M149.4503 76.6415
L149.4503 76.8320
" />
<path d="M149.4503 76.8320
L149.4884 76.9082
" />
<path d="M149.4884 76.9082
L149.5265 76.9463
" />
<path d="M149.5265 76.9463
L149.6026 76.9844
" />
<path d="M149.6026 76.9844
L149.6788 76.9844
" />
<path d="M149.6788 76.9844
L149.7550 76.9463
" />
<path d="M149.7550 76.9463
L149.7931 76.9082
" />
<path d="M149.7931 76.9082
L149.8312 76.8320
" />
<path d="M149.8312 76.8320
L149.8693 76.6796
" />
<path d="M149.8693 76.6796
L149.9074 76.6035
" />
<path d="M149.9074 76.6035
L149.9455 76.5654
" />
<path d="M149.9455 76.5654
L150.0217 76.5273
" />
<path d="M150.0217 76.5273
L150.0979 76.5273
" />
<path d="M150.0979 76.5273
L150.1741 76.5654
" />
<path d="M150.1741 76.5654
L150.2122 76.6035
" />
<path d="M150.2122 76.6035
L150.2503 76.6796
" />
<path d="M150.2503 76.6796
L150.2503 76.8701
" />
<path d="M150.2503 76.8701
L150.2122 76.9844
" />
<path d="M150.2503 77.2511
L149.4503 77.4415
" />
<path d="M149.4503 77.4415
L150.0217 77.5939
" />
<path d="M150.0217 77.5939
L149.4503 77.7463
" />
<path d="M149.4503 77.7463
L150.2503 77.9368
" />
<path d="M149.4503 78.2416
L150.2503 78.2416
" />
<path d="M150.2503 78.2416
L150.2503 78.4320
" />
<path d="M150.2503 78.4320
L150.2122 78.5463
" />
<path d="M150.2122 78.5463
L150.1360 78.6225
" />
<path d="M150.1360 78.6225
L150.0598 78.6606
" />
<path d="M150.0598 78.6606
L149.9074 78.6987
" />
<path d="M149.9074 78.6987
L149.7931 78.6987
" />
<path d="M149.7931 78.6987
L149.6407 78.6606
" />
<path d="M149.6407 78.6606
L149.5645 78.6225
" />
<path d="M149.5645 78.6225
L149.4884 78.5463
" />
<path d="M149.4884 78.5463
L149.4503 78.4320
" />
<path d="M149.4503 78.4320
L149.4503 78.2416
" />
<path d="M149.4503 79.0416
L150.2503 79.0416
" />
<path d="M150.2503 79.5749
L150.2503 79.7273
" />
<path d="M150.2503 79.7273
L150.2122 79.8035
" />
<path d="M150.2122 79.8035
L150.1360 79.8796
" />
<path d="M150.1360 79.8796
L149.9836 79.9177
" />
<path d="M149.9836 79.9177
L149.7169 79.9177
" />
<path d="M149.7169 79.9177
L149.5645 79.8796
" />
<path d="M149.5645 79.8796
L149.4884 79.8035
" />
<path d="M149.4884 79.8035
L149.4503 79.7273
" />
<path d="M149.4503 79.7273
L149.4503 79.5749
" />
<path d="M149.4503 79.5749
L149.4884 79.4987
" />
<path d="M149.4884 79.4987
L149.5645 79.4225
" />
<path d="M149.5645 79.4225
L149.7169 79.3844
" />
<path d="M149.7169 79.3844
L149.9836 79.3844
" />
<path d="M149.9836 79.3844
L150.1360 79.4225
" />
<path d="M150.1360 79.4225
L150.2122 79.4987
" />
<path d="M150.2122 79.4987
L150.2503 79.5749
" />
</g><g transform="rotate(90.000000 148.0566 76.2762)">
<text x="148.0566" y="76.2762"
textLength="4.2138" font-size="1.0667" lengthAdjust="spacingAndGlyphs"
text-anchor="start" opacity="0" stroke-opacity="0">SWCLK</text>
</g>
<g class="stroked-text"><desc>SWCLK</desc>
<path d="M148.2004 76.5273
L148.1623 76.6415
" />
<path d="M148.1623 76.6415
L148.1623 76.8320
" />
<path d="M148.1623 76.8320
L148.2004 76.9082
" />
<path d="M148.2004 76.9082
L148.2385 76.9463
" />
<path d="M148.2385 76.9463
L148.3147 76.9844
" />
<path d="M148.3147 76.9844
L148.3909 76.9844
" />
<path d="M148.3909 76.9844
L148.4671 76.9463
" />
<path d="M148.4671 76.9463
L148.5052 76.9082
" />
<path d="M148.5052 76.9082
L148.5433 76.8320
" />
<path d="M148.5433 76.8320
L148.5814 76.6796
" />
<path d="M148.5814 76.6796
L148.6194 76.6035
" />
<path d="M148.6194 76.6035
L148.6575 76.5654
" />
<path d="M148.6575 76.5654
L148.7337 76.5273
" />
<path d="M148.7337 76.5273
L148.8099 76.5273
" />
<path d="M148.8099 76.5273
L148.8861 76.5654
" />
<path d="M148.8861 76.5654
L148.9242 76.6035
" />
<path d="M148.9242 76.6035
L148.9623 76.6796
" />
<path d="M148.9623 76.6796
L148.9623 76.8701
" />
<path d="M148.9623 76.8701
L148.9242 76.9844
" />
<path d="M148.9623 77.2511
L148.1623 77.4415
" />
<path d="M148.1623 77.4415
L148.7337 77.5939
" />
<path d="M148.7337 77.5939
L148.1623 77.7463
" />
<path d="M148.1623 77.7463
L148.9623 77.9368
" />
<path d="M148.2385 78.6987
L148.2004 78.6606
" />
<path d="M148.2004 78.6606
L148.1623 78.5463
" />
<path d="M148.1623 78.5463
L148.1623 78.4701
" />
<path d="M148.1623 78.4701
L148.2004 78.3558
" />
<path d="M148.2004 78.3558
L148.2766 78.2796
" />
<path d="M148.2766 78.2796
L148.3528 78.2416
" />
<path d="M148.3528 78.2416
L148.5052 78.2035
" />
<path d="M148.5052 78.2035
L148.6194 78.2035
" />
<path d="M148.6194 78.2035
L148.7718 78.2416
" />
<path d="M148.7718 78.2416
L148.8480 78.2796
" />
<path d="M148.8480 78.2796
L148.9242 78.3558
" />
<path d="M148.9242 78.3558
L148.9623 78.4701
" />
<path d="M148.9623 78.4701
L148.9623 78.5463
" />
<path d="M148.9623 78.5463
L148.9242 78.6606
" />
<path d="M148.9242 78.6606
L148.8861 78.6987
" />
<path d="M148.1623 79.4225
L148.1623 79.0416
" />
<path d="M148.1623 79.0416
L148.9623 79.0416
" />
<path d="M148.1623 79.6892
L148.9623 79.6892
" />
<path d="M148.1623 80.1463
L148.6194 79.8035
" />
<path d="M148.9623 80.1463
L148.5052 79.6892
" />
</g><text x="174.8790" y="107.0864"
textLength="1.4881" font-size="1.3333" lengthAdjust="spacingAndGlyphs"
text-anchor="start" opacity="0" stroke-opacity="0">+</text>
<g class="stroked-text"><desc>+</desc>
<path d="M175.2158 106.5753
L175.9777 106.5753
" />
<path d="M175.5967 106.9562
L175.5967 106.1943
" />
</g><text x="167.4522" y="98.5000"
textLength="2.2024" font-size="1.3333" lengthAdjust="spacingAndGlyphs"
text-anchor="middle" opacity="0" stroke-opacity="0">R4</text>
<g class="stroked-text"><desc>R4</desc>
<path d="M167.2855 98.4548
L166.9522 97.9786
" />
<path d="M166.7141 98.4548
L166.7141 97.4548
" />
<path d="M166.7141 97.4548
L167.0951 97.4548
" />
<path d="M167.0951 97.4548
L167.1903 97.5024
" />
<path d="M167.1903 97.5024
L167.2379 97.5501
" />
<path d="M167.2379 97.5501
L167.2855 97.6453
" />
<path d="M167.2855 97.6453
L167.2855 97.7882
" />
<path d="M167.2855 97.7882
L167.2379 97.8834
" />
<path d="M167.2379 97.8834
L167.1903 97.9310
" />
<path d="M167.1903 97.9310
L167.0951 97.9786
" />
<path d="M167.0951 97.9786
L166.7141 97.9786
" />
<path d="M168.1427 97.7882
L168.1427 98.4548
" />
<path d="M167.9046 97.4072
L167.6665 98.1215
" />
<path d="M167.6665 98.1215
L168.2855 98.1215
" />
</g><text x="173.0022" y="76.0000"
textLength="2.2024" font-size="1.3333" lengthAdjust="spacingAndGlyphs"
text-anchor="middle" opacity="0" stroke-opacity="0">C1</text>
<g class="stroked-text"><desc>C1</desc>
<path d="M172.8355 75.8596
L172.7879 75.9072
" />
<path d="M172.7879 75.9072
L172.6451 75.9548
" />
<path d="M172.6451 75.9548
L172.5498 75.9548
" />
<path d="M172.5498 75.9548
L172.4070 75.9072
" />
<path d="M172.4070 75.9072
L172.3117 75.8120
" />
<path d="M172.3117 75.8120
L172.2641 75.7167
" />
<path d="M172.2641 75.7167
L172.2165 75.5262
" />
<path d="M172.2165 75.5262
L172.2165 75.3834
" />
<path d="M172.2165 75.3834
L172.2641 75.1929
" />
<path d="M172.2641 75.1929
L172.3117 75.0977
" />
<path d="M172.3117 75.0977
L172.4070 75.0024
" />
<path d="M172.4070 75.0024
L172.5498 74.9548
" />
<path d="M172.5498 74.9548
L172.6451 74.9548
" />
<path d="M172.6451 74.9548
L172.7879 75.0024
" />
<path d="M172.7879 75.0024
L172.8355 75.0501
" />
<path d="M173.7879 75.9548
L173.2165 75.9548
" />
<path d="M173.5022 75.9548
L173.5022 74.9548
" />
<path d="M173.5022 74.9548
L173.4070 75.0977
" />
<path d="M173.4070 75.0977
L173.3117 75.1929
" />
<path d="M173.3117 75.1929
L173.2165 75.2405
" />
</g><text x="147.8280" y="94.7848"
textLength="3.0595" font-size="1.3333" lengthAdjust="spacingAndGlyphs"
text-anchor="middle" opacity="0" stroke-opacity="0">DA1</text>
<g class="stroked-text"><desc>DA1</desc>
<path d="M146.6613 94.7396
L146.6613 93.7396
" />
<path d="M146.6613 93.7396
L146.8994 93.7396
" />
<path d="M146.8994 93.7396
L147.0423 93.7872
" />
<path d="M147.0423 93.7872
L147.1375 93.8825
" />
<path d="M147.1375 93.8825
L147.1851 93.9777
" />
<path d="M147.1851 93.9777
L147.2328 94.1682
" />
<path d="M147.2328 94.1682
L147.2328 94.3110
" />
<path d="M147.2328 94.3110
L147.1851 94.5015
" />
<path d="M147.1851 94.5015
L147.1375 94.5968
" />
<path d="M147.1375 94.5968
L147.0423 94.6920
" />
<path d="M147.0423 94.6920
L146.8994 94.7396
" />
<path d="M146.8994 94.7396
L146.6613 94.7396
" />
<path d="M147.6137 94.4539
L148.0899 94.4539
" />
<path d="M147.5185 94.7396
L147.8518 93.7396
" />
<path d="M147.8518 93.7396
L148.1851 94.7396
" />
<path d="M149.0423 94.7396
L148.4709 94.7396
" />
<path d="M148.7566 94.7396
L148.7566 93.7396
" />
<path d="M148.7566 93.7396
L148.6613 93.8825
" />
<path d="M148.6613 93.8825
L148.5661 93.9777
" />
<path d="M148.5661 93.9777
L148.4709 94.0253
" />
</g><text x="139.2108" y="113.7274"
textLength="3.1071" font-size="1.3333" lengthAdjust="spacingAndGlyphs"
text-anchor="middle" opacity="0" stroke-opacity="0">hall</text>
<g class="stroked-text"><desc>hall</desc>
<path d="M138.0203 113.6822
L138.0203 112.6822
" />
<path d="M138.4489 113.6822
L138.4489 113.1584
" />
<path d="M138.4489 113.1584
L138.4013 113.0632
" />
<path d="M138.4013 113.0632
L138.3060 113.0156
" />
<path d="M138.3060 113.0156
L138.1632 113.0156
" />
<path d="M138.1632 113.0156
L138.0679 113.0632
" />
<path d="M138.0679 113.0632
L138.0203 113.1108
" />
<path d="M139.3537 113.6822
L139.3537 113.1584
" />
<path d="M139.3537 113.1584
L139.3060 113.0632
" />
<path d="M139.3060 113.0632
L139.2108 113.0156
" />
<path d="M139.2108 113.0156
L139.0203 113.0156
" />
<path d="M139.0203 113.0156
L138.9251 113.0632
" />
<path d="M139.3537 113.6346
L139.2584 113.6822
" />
<path d="M139.2584 113.6822
L139.0203 113.6822
" />
<path d="M139.0203 113.6822
L138.9251 113.6346
" />
<path d="M138.9251 113.6346
L138.8775 113.5394
" />
<path d="M138.8775 113.5394
L138.8775 113.4441
" />
<path d="M138.8775 113.4441
L138.9251 113.3489
" />
<path d="M138.9251 113.3489
L139.0203 113.3013
" />
<path d="M139.0203 113.3013
L139.2584 113.3013
" />
<path d="M139.2584 113.3013
L139.3537 113.2536
" />
<path d="M139.9727 113.6822
L139.8775 113.6346
" />
<path d="M139.8775 113.6346
L139.8298 113.5394
" />
<path d="M139.8298 113.5394
L139.8298 112.6822
" />
<path d="M140.4965 113.6822
L140.4013 113.6346
" />
<path d="M140.4013 113.6346
L140.3537 113.5394
" />
<path d="M140.3537 113.5394
L140.3537 112.6822
" />
</g><text x="129.5022" y="77.5000"
textLength="1.9643" font-size="1.3333" lengthAdjust="spacingAndGlyphs"
text-anchor="middle" opacity="0" stroke-opacity="0">J7</text>
<g class="stroked-text"><desc>J7</desc>
<path d="M129.1689 76.4548
L129.1689 77.1691
" />
<path d="M129.1689 77.1691
L129.1212 77.3120
" />
<path d="M129.1212 77.3120
L129.0260 77.4072
" />
<path d="M129.0260 77.4072
L128.8832 77.4548
" />
<path d="M128.8832 77.4548
L128.7879 77.4548
" />
<path d="M129.5498 76.4548
L130.2165 76.4548
" />
<path d="M130.2165 76.4548
L129.7879 77.4548
" />
</g><text x="158.8262" y="107.0276"
textLength="5.4881" font-size="1.3333" lengthAdjust="spacingAndGlyphs"
text-anchor="middle" opacity="0" stroke-opacity="0">shutter</text>
<g class="stroked-text"><desc>shutter</desc>
<path d="M156.3976 106.9348
L156.4929 106.9824
" />
<path d="M156.4929 106.9824
L156.6833 106.9824
" />
<path d="M156.6833 106.9824
L156.7786 106.9348
" />
<path d="M156.7786 106.9348
L156.8262 106.8396
" />
<path d="M156.8262 106.8396
L156.8262 106.7919
" />
<path d="M156.8262 106.7919
L156.7786 106.6967
" />
<path d="M156.7786 106.6967
L156.6833 106.6491
" />
<path d="M156.6833 106.6491
L156.5405 106.6491
" />
<path d="M156.5405 106.6491
L156.4452 106.6015
" />
<path d="M156.4452 106.6015
L156.3976 106.5062
" />
<path d="M156.3976 106.5062
L156.3976 106.4586
" />
<path d="M156.3976 106.4586
L156.4452 106.3634
" />
<path d="M156.4452 106.3634
L156.5405 106.3158
" />
<path d="M156.5405 106.3158
L156.6833 106.3158
" />
<path d="M156.6833 106.3158
L156.7786 106.3634
" />
<path d="M157.2548 106.9824
L157.2548 105.9824
" />
<path d="M157.6833 106.9824
L157.6833 106.4586
" />
<path d="M157.6833 106.4586
L157.6357 106.3634
" />
<path d="M157.6357 106.3634
L157.5405 106.3158
" />
<path d="M157.5405 106.3158
L157.3976 106.3158
" />
<path d="M157.3976 106.3158
L157.3024 106.3634
" />
<path d="M157.3024 106.3634
L157.2548 106.4110
" />
<path d="M158.5881 106.3158
L158.5881 106.9824
" />
<path d="M158.1595 106.3158
L158.1595 106.8396
" />
<path d="M158.1595 106.8396
L158.2072 106.9348
" />
<path d="M158.2072 106.9348
L158.3024 106.9824
" />
<path d="M158.3024 106.9824
L158.4452 106.9824
" />
<path d="M158.4452 106.9824
L158.5405 106.9348
" />
<path d="M158.5405 106.9348
L158.5881 106.8872
" />
<path d="M158.9214 106.3158
L159.3024 106.3158
" />
<path d="M159.0643 105.9824
L159.0643 106.8396
" />
<path d="M159.0643 106.8396
L159.1119 106.9348
" />
<path d="M159.1119 106.9348
L159.2072 106.9824
" />
<path d="M159.2072 106.9824
L159.3024 106.9824
" />
<path d="M159.4929 106.3158
L159.8738 106.3158
" />
<path d="M159.6357 105.9824
L159.6357 106.8396
" />
<path d="M159.6357 106.8396
L159.6833 106.9348
" />
<path d="M159.6833 106.9348
L159.7786 106.9824
" />
<path d="M159.7786 106.9824
L159.8738 106.9824
" />
<path d="M160.5881 106.9348
L160.4929 106.9824
" />
<path d="M160.4929 106.9824
L160.3024 106.9824
" />
<path d="M160.3024 106.9824
L160.2072 106.9348
" />
<path d="M160.2072 106.9348
L160.1595 106.8396
" />
<path d="M160.1595 106.8396
L160.1595 106.4586
" />
<path d="M160.1595 106.4586
L160.2072 106.3634
" />
<path d="M160.2072 106.3634
L160.3024 106.3158
" />
<path d="M160.3024 106.3158
L160.4929 106.3158
" />
<path d="M160.4929 106.3158
L160.5881 106.3634
" />
<path d="M160.5881 106.3634
L160.6357 106.4586
" />
<path d="M160.6357 106.4586
L160.6357 106.5538
" />
<path d="M160.6357 106.5538
L160.1595 106.6491
" />
<path d="M161.0643 106.9824
L161.0643 106.3158
" />
<path d="M161.0643 106.5062
L161.1119 106.4110
" />
<path d="M161.1119 106.4110
L161.1595 106.3634
" />
<path d="M161.1595 106.3634
L161.2548 106.3158
" />
<path d="M161.2548 106.3158
L161.3500 106.3158
" />
</g><text x="172.0022" y="107.0000"
textLength="4.5833" font-size="1.3333" lengthAdjust="spacingAndGlyphs"
text-anchor="middle" opacity="0" stroke-opacity="0">power</text>
<g class="stroked-text"><desc>power</desc>
<path d="M170.0736 106.2882
L170.0736 107.2882
" />
<path d="M170.0736 106.3358
L170.1689 106.2882
" />
<path d="M170.1689 106.2882
L170.3593 106.2882
" />
<path d="M170.3593 106.2882
L170.4546 106.3358
" />
<path d="M170.4546 106.3358
L170.5022 106.3834
" />
<path d="M170.5022 106.3834
L170.5498 106.4786
" />
<path d="M170.5498 106.4786
L170.5498 106.7643
" />
<path d="M170.5498 106.7643
L170.5022 106.8596
" />
<path d="M170.5022 106.8596
L170.4546 106.9072
" />
<path d="M170.4546 106.9072
L170.3593 106.9548
" />
<path d="M170.3593 106.9548
L170.1689 106.9548
" />
<path d="M170.1689 106.9548
L170.0736 106.9072
" />
<path d="M171.1212 106.9548
L171.0260 106.9072
" />
<path d="M171.0260 106.9072
L170.9784 106.8596
" />
<path d="M170.9784 106.8596
L170.9308 106.7643
" />
<path d="M170.9308 106.7643
L170.9308 106.4786
" />
<path d="M170.9308 106.4786
L170.9784 106.3834
" />
<path d="M170.9784 106.3834
L171.0260 106.3358
" />
<path d="M171.0260 106.3358
L171.1212 106.2882
" />
<path d="M171.1212 106.2882
L171.2641 106.2882
" />
<path d="M171.2641 106.2882
L171.3593 106.3358
" />
<path d="M171.3593 106.3358
L171.4070 106.3834
" />
<path d="M171.4070 106.3834
L171.4546 106.4786
" />
<path d="M171.4546 106.4786
L171.4546 106.7643
" />
<path d="M171.4546 106.7643
L171.4070 106.8596
" />
<path d="M171.4070 106.8596
L171.3593 106.9072
" />
<path d="M171.3593 106.9072
L171.2641 106.9548
" />
<path d="M171.2641 106.9548
L171.1212 106.9548
" />
<path d="M171.7879 106.2882
L171.9784 106.9548
" />
<path d="M171.9784 106.9548
L172.1689 106.4786
" />
<path d="M172.1689 106.4786
L172.3593 106.9548
" />
<path d="M172.3593 106.9548
L172.5498 106.2882
" />
<path d="M173.3117 106.9072
L173.2165 106.9548
" />
<path d="M173.2165 106.9548
L173.0260 106.9548
" />
<path d="M173.0260 106.9548
L172.9308 106.9072
" />
<path d="M172.9308 106.9072
L172.8832 106.8120
" />
<path d="M172.8832 106.8120
L172.8832 106.4310
" />
<path d="M172.8832 106.4310
L172.9308 106.3358
" />
<path d="M172.9308 106.3358
L173.0260 106.2882
" />
<path d="M173.0260 106.2882
L173.2165 106.2882
" />
<path d="M173.2165 106.2882
L173.3117 106.3358
" />
<path d="M173.3117 106.3358
L173.3593 106.4310
" />
<path d="M173.3593 106.4310
L173.3593 106.5262
" />
<path d="M173.3593 106.5262
L172.8832 106.6215
" />
<path d="M173.7879 106.9548
L173.7879 106.2882
" />
<path d="M173.7879 106.4786
L173.8355 106.3834
" />
<path d="M173.8355 106.3834
L173.8832 106.3358
" />
<path d="M173.8832 106.3358
L173.9784 106.2882
" />
<path d="M173.9784 106.2882
L174.0736 106.2882
" />
</g><g transform="rotate(90.000000 130.2522 109.2500)">
<text x="130.2522" y="109.7500"
textLength="2.8690" font-size="1.3333" lengthAdjust="spacingAndGlyphs"
text-anchor="middle" opacity="0" stroke-opacity="0">ccd</text>
</g>
<g class="stroked-text"><desc>ccd</desc>
<path d="M129.8450 108.6071
L129.7974 108.5119
" />
<path d="M129.7974 108.5119
L129.7974 108.3214
" />
<path d="M129.7974 108.3214
L129.8450 108.2262
" />
<path d="M129.8450 108.2262
L129.8926 108.1786
" />
<path d="M129.8926 108.1786
L129.9879 108.1310
" />
<path d="M129.9879 108.1310
L130.2736 108.1310
" />
<path d="M130.2736 108.1310
L130.3688 108.1786
" />
<path d="M130.3688 108.1786
L130.4164 108.2262
" />
<path d="M130.4164 108.2262
L130.4640 108.3214
" />
<path d="M130.4640 108.3214
L130.4640 108.5119
" />
<path d="M130.4640 108.5119
L130.4164 108.6071
" />
<path d="M129.8450 109.4643
L129.7974 109.3690
" />
<path d="M129.7974 109.3690
L129.7974 109.1786
" />
<path d="M129.7974 109.1786
L129.8450 109.0833
" />
<path d="M129.8450 109.0833
L129.8926 109.0357
" />
<path d="M129.8926 109.0357
L129.9879 108.9881
" />
<path d="M129.9879 108.9881
L130.2736 108.9881
" />
<path d="M130.2736 108.9881
L130.3688 109.0357
" />
<path d="M130.3688 109.0357
L130.4164 109.0833
" />
<path d="M130.4164 109.0833
L130.4640 109.1786
" />
<path d="M130.4640 109.1786
L130.4640 109.3690
" />
<path d="M130.4640 109.3690
L130.4164 109.4643
" />
<path d="M129.7974 110.3214
L130.7974 110.3214
" />
<path d="M129.8450 110.3214
L129.7974 110.2262
" />
<path d="M129.7974 110.2262
L129.7974 110.0357
" />
<path d="M129.7974 110.0357
L129.8450 109.9405
" />
<path d="M129.8450 109.9405
L129.8926 109.8929
" />
<path d="M129.8926 109.8929
L129.9879 109.8452
" />
<path d="M129.9879 109.8452
L130.2736 109.8452
" />
<path d="M130.2736 109.8452
L130.3688 109.8929
" />
<path d="M130.3688 109.8929
L130.4164 109.9405
" />
<path d="M130.4164 109.9405
L130.4640 110.0357
" />
<path d="M130.4640 110.0357
L130.4640 110.2262
" />
<path d="M130.4640 110.2262
L130.4164 110.3214
" />
</g></g>
<g style="fill:none; 
stroke:#000000; stroke-width:0.1200; stroke-opacity:1; 
stroke-linecap:round; stroke-linejoin:round;">
<path d="M177.5722 98.9300
L157.3322 98.9300
" />
<path d="M177.5722 100.8100
L177.5722 98.9300
" />
<path d="M177.5722 103.6900
L177.5722 105.5700
" />
<path d="M177.5722 105.5700
L157.3322 105.5700
" />
<path d="M157.3322 98.9300
L157.3322 100.8100
" />
<path d="M157.3322 105.5700
L157.3322 103.6900
" />
<path d="M181.6022 84.7030
L181.6022 85.7970
" />
<path d="M181.5622 84.2740
L181.5622 86.2260
" />
<path d="M181.5222 83.9800
L181.5222 86.5200
" />
<path d="M181.4822 83.7420
L181.4822 86.7580
" />
<path d="M181.4422 83.5370
L181.4422 86.9630
" />
<path d="M181.4022 83.3540
L181.4022 87.1460
" />
<path d="M181.3622 83.1880
L181.3622 87.3120
" />
<path d="M181.3222 83.0350
L181.3222 87.4650
" />
<path d="M181.2822 82.8920
L181.2822 87.6080
" />
<path d="M181.2422 82.7580
L181.2422 87.7420
" />
<path d="M181.2022 82.6320
L181.2022 87.8680
" />
<path d="M181.1632 82.5110
L181.1632 87.9890
" />
<path d="M181.1232 82.3960
L181.1232 88.1040
" />
<path d="M181.0832 82.2870
L181.0832 88.2130
" />
<path d="M181.0432 82.1810
L181.0432 88.3190
" />
<path d="M181.0032 82.0790
L181.0032 88.4210
" />
<path d="M180.9632 81.9820
L180.9632 88.5180
" />
<path d="M180.9232 81.8870
L180.9232 88.6130
" />
<path d="M180.8832 81.7950
L180.8832 88.7050
" />
<path d="M180.8432 81.7060
L180.8432 88.7940
" />
<path d="M180.8032 81.6200
L180.8032 88.8800
" />
<path d="M180.7632 81.5360
L180.7632 88.9640
" />
<path d="M180.7232 81.4550
L180.7232 89.0450
" />
<path d="M180.6832 81.3750
L180.6832 89.1250
" />
<path d="M180.6432 81.2980
L180.6432 89.2020
" />
<path d="M180.6032 81.2220
L180.6032 89.2780
" />
<path d="M180.5632 81.1480
L180.5632 89.3520
" />
<path d="M180.5232 81.0760
L180.5232 89.4240
" />
<path d="M180.4832 81.0050
L180.4832 89.4950
" />
<path d="M180.4432 80.9360
L180.4432 89.5640
" />
<path d="M180.4032 80.8690
L180.4032 89.6310
" />
<path d="M180.3632 80.8020
L180.3632 89.6980
" />
<path d="M180.3232 80.7370
L180.3232 89.7630
" />
<path d="M180.2832 80.6740
L180.2832 89.8260
" />
<path d="M180.2432 80.6110
L180.2432 89.8890
" />
<path d="M180.2032 80.5500
L180.2032 89.9500
" />
<path d="M180.1632 80.4900
L180.1632 90.0100
" />
<path d="M180.1232 80.4300
L180.1232 90.0700
" />
<path d="M180.0832 80.3720
L180.0832 90.1280
" />
<path d="M180.0432 80.3150
L180.0432 90.1850
" />
<path d="M180.0032 80.2590
L180.0032 90.2410
" />
<path d="M179.9632 80.2040
L179.9632 90.2960
" />
<path d="M179.9232 80.1500
L179.9232 90.3500
" />
<path d="M179.8832 80.0960
L179.8832 90.4040
" />
<path d="M179.8432 80.0440
L179.8432 90.4560
" />
<path d="M179.8032 79.9920
L179.8032 90.5080
" />
<path d="M179.7632 79.9410
L179.7632 90.5590
" />
<path d="M179.7232 79.8910
L179.7232 90.6090
" />
<path d="M179.6832 79.8410
L179.6832 90.6590
" />
<path d="M179.6432 79.7930
L179.6432 90.7070
" />
<path d="M179.6032 79.7450
L179.6032 90.7550
" />
<path d="M179.5632 79.6970
L179.5632 90.8030
" />
<path d="M179.5232 79.6510
L179.5232 90.8490
" />
<path d="M179.4832 79.6050
L179.4832 90.8950
" />
<path d="M179.4432 79.5600
L179.4432 90.9400
" />
<path d="M179.4032 79.5150
L179.4032 90.9850
" />
<path d="M179.3632 79.4710
L179.3632 91.0290
" />
<path d="M179.3232 79.4280
L179.3232 91.0720
" />
<path d="M179.2832 79.3850
L179.2832 91.1150
" />
<path d="M179.2432 79.3430
L179.2432 91.1570
" />
<path d="M179.2032 79.3010
L179.2032 91.1990
" />
<path d="M179.1632 79.2600
L179.1632 91.2400
" />
<path d="M179.1232 79.2190
L179.1232 91.2810
" />
<path d="M179.0832 79.1790
L179.0832 91.3210
" />
<path d="M179.0432 79.1390
L179.0432 91.3610
" />
<path d="M179.0032 79.1000
L179.0032 91.4000
" />
<path d="M178.9632 79.0620
L178.9632 91.4380
" />
<path d="M178.9232 79.0240
L178.9232 91.4760
" />
<path d="M178.8832 78.9860
L178.8832 91.5140
" />
<path d="M178.8432 78.9490
L178.8432 91.5510
" />
<path d="M178.8032 78.9130
L178.8032 91.5870
" />
<path d="M178.7632 78.8760
L178.7632 91.6240
" />
<path d="M178.7232 78.8410
L178.7232 91.6590
" />
<path d="M178.6832 78.8060
L178.6832 91.6940
" />
<path d="M178.6432 78.7710
L178.6432 91.7290
" />
<path d="M178.6032 78.7360
L178.6032 91.7640
" />
<path d="M178.5632 78.7020
L178.5632 91.7980
" />
<path d="M178.5232 78.6690
L178.5232 91.8310
" />
<path d="M178.4832 78.6360
L178.4832 91.8640
" />
<path d="M178.4432 78.6030
L178.4432 91.8970
" />
<path d="M178.4032 78.5710
L178.4032 91.9290
" />
<path d="M178.3632 78.5390
L178.3632 91.9610
" />
<path d="M178.3232 78.5070
L178.3232 91.9930
" />
<path d="M178.2832 78.4760
L178.2832 92.0240
" />
<path d="M178.2432 78.4450
L178.2432 92.0550
" />
<path d="M178.2032 78.4150
L178.2032 92.0850
" />
<path d="M178.1632 78.3850
L178.1632 83.8100
" />
<path d="M178.1632 86.6900
L178.1632 92.1150
" />
<path d="M178.1232 78.3550
L178.1232 83.8100
" />
<path d="M178.1232 86.6900
L178.1232 92.1450
" />
<path d="M178.0832 78.3250
L178.0832 83.8100
" />
<path d="M178.0832 86.6900
L178.0832 92.1750
" />
<path d="M178.0432 78.2960
L178.0432 83.8100
" />
<path d="M178.0432 86.6900
L178.0432 92.2040
" />
<path d="M178.0032 78.2680
L178.0032 83.8100
" />
<path d="M178.0032 86.6900
L178.0032 92.2320
" />
<path d="M177.9632 78.2390
L177.9632 83.8100
" />
<path d="M177.9632 86.6900
L177.9632 92.2610
" />
<path d="M177.9232 78.2120
L177.9232 83.8100
" />
<path d="M177.9232 86.6900
L177.9232 92.2880
" />
<path d="M177.8832 78.1840
L177.8832 83.8100
" />
<path d="M177.8832 86.6900
L177.8832 92.3160
" />
<path d="M177.8432 78.1570
L177.8432 83.8100
" />
<path d="M177.8432 86.6900
L177.8432 92.3430
" />
<path d="M177.8032 78.1300
L177.8032 83.8100
" />
<path d="M177.8032 86.6900
L177.8032 92.3700
" />
<path d="M177.7632 78.1030
L177.7632 83.8100
" />
<path d="M177.7632 86.6900
L177.7632 92.3970
" />
<path d="M177.7232 78.0770
L177.7232 83.8100
" />
<path d="M177.7232 86.6900
L177.7232 92.4230
" />
<path d="M177.6832 78.0510
L177.6832 83.8100
" />
<path d="M177.6832 86.6900
L177.6832 92.4490
" />
<path d="M177.6432 78.0250
L177.6432 83.8100
" />
<path d="M177.6432 86.6900
L177.6432 92.4750
" />
<path d="M177.6032 77.9990
L177.6032 83.8100
" />
<path d="M177.6032 86.6900
L177.6032 92.5010
" />
<path d="M177.5632 77.9740
L177.5632 83.8100
" />
<path d="M177.5632 86.6900
L177.5632 92.5260
" />
<path d="M177.5232 77.9500
L177.5232 83.8100
" />
<path d="M177.5232 86.6900
L177.5232 92.5500
" />
<path d="M177.4832 77.9250
L177.4832 83.8100
" />
<path d="M177.4832 86.6900
L177.4832 92.5750
" />
<path d="M177.4432 77.9010
L177.4432 83.8100
" />
<path d="M177.4432 86.6900
L177.4432 92.5990
" />
<path d="M177.4032 77.8770
L177.4032 83.8100
" />
<path d="M177.4032 86.6900
L177.4032 92.6230
" />
<path d="M177.3632 77.8530
L177.3632 83.8100
" />
<path d="M177.3632 86.6900
L177.3632 92.6470
" />
<path d="M177.3232 77.8300
L177.3232 83.8100
" />
<path d="M177.3232 86.6900
L177.3232 92.6700
" />
<path d="M177.2832 77.8070
L177.2832 83.8100
" />
<path d="M177.2832 86.6900
L177.2832 92.6930
" />
<path d="M177.2432 77.7840
L177.2432 83.8100
" />
<path d="M177.2432 86.6900
L177.2432 92.7160
" />
<path d="M177.2032 77.7620
L177.2032 83.8100
" />
<path d="M177.2032 86.6900
L177.2032 92.7380
" />
<path d="M177.1632 77.7400
L177.1632 83.8100
" />
<path d="M177.1632 86.6900
L177.1632 92.7600
" />
<path d="M177.1232 77.7180
L177.1232 83.8100
" />
<path d="M177.1232 86.6900
L177.1232 92.7820
" />
<path d="M177.0832 77.6960
L177.0832 83.8100
" />
<path d="M177.0832 86.6900
L177.0832 92.8040
" />
<path d="M177.0432 77.6750
L177.0432 83.8100
" />
<path d="M177.0432 86.6900
L177.0432 92.8250
" />
<path d="M177.0032 77.6540
L177.0032 83.8100
" />
<path d="M177.0032 86.6900
L177.0032 92.8460
" />
<path d="M176.9632 77.6330
L176.9632 83.8100
" />
<path d="M176.9632 86.6900
L176.9632 92.8670
" />
<path d="M176.9232 77.6120
L176.9232 83.8100
" />
<path d="M176.9232 86.6900
L176.9232 92.8880
" />
<path d="M176.8832 77.5920
L176.8832 83.8100
" />
<path d="M176.8832 86.6900
L176.8832 92.9080
" />
<path d="M176.8432 77.5720
L176.8432 83.8100
" />
<path d="M176.8432 86.6900
L176.8432 92.9280
" />
<path d="M176.8032 77.5520
L176.8032 83.8100
" />
<path d="M176.8032 86.6900
L176.8032 92.9480
" />
<path d="M176.7632 77.5330
L176.7632 83.8100
" />
<path d="M176.7632 86.6900
L176.7632 92.9670
" />
<path d="M176.7232 77.5140
L176.7232 83.8100
" />
<path d="M176.7232 86.6900
L176.7232 92.9860
" />
<path d="M176.6832 77.4950
L176.6832 83.8100
" />
<path d="M176.6832 86.6900
L176.6832 93.0050
" />
<path d="M176.6432 77.4760
L176.6432 83.8100
" />
<path d="M176.6432 86.6900
L176.6432 93.0240
" />
<path d="M176.6032 77.4570
L176.6032 83.8100
" />
<path d="M176.6032 86.6900
L176.6032 93.0430
" />
<path d="M176.5632 77.4390
L176.5632 83.8100
" />
<path d="M176.5632 86.6900
L176.5632 93.0610
" />
<path d="M176.5232 77.4210
L176.5232 83.8100
" />
<path d="M176.5232 86.6900
L176.5232 93.0790
" />
<path d="M176.4832 77.4030
L176.4832 83.8100
" />
<path d="M176.4832 86.6900
L176.4832 93.0970
" />
<path d="M176.4432 77.3860
L176.4432 83.8100
" />
<path d="M176.4432 86.6900
L176.4432 93.1140
" />
<path d="M176.4032 77.3680
L176.4032 83.8100
" />
<path d="M176.4032 86.6900
L176.4032 93.1320
" />
<path d="M176.3632 77.3510
L176.3632 83.8100
" />
<path d="M176.3632 86.6900
L176.3632 93.1490
" />
<path d="M176.3232 77.3350
L176.3232 83.8100
" />
<path d="M176.3232 86.6900
L176.3232 93.1650
" />
<path d="M176.2832 77.3180
L176.2832 83.8100
" />
<path d="M176.2832 86.6900
L176.2832 93.1820
" />
<path d="M176.2432 77.3020
L176.2432 83.8100
" />
<path d="M176.2432 86.6900
L176.2432 93.1980
" />
<path d="M176.2032 77.2850
L176.2032 83.8100
" />
<path d="M176.2032 86.6900
L176.2032 93.2150
" />
<path d="M176.1632 77.2700
L176.1632 83.8100
" />
<path d="M176.1632 86.6900
L176.1632 93.2300
" />
<path d="M176.1232 77.2540
L176.1232 83.8100
" />
<path d="M176.1232 86.6900
L176.1232 93.2460
" />
<path d="M176.0832 77.2390
L176.0832 83.8100
" />
<path d="M176.0832 86.6900
L176.0832 93.2610
" />
<path d="M176.0432 77.2230
L176.0432 83.8100
" />
<path d="M176.0432 86.6900
L176.0432 93.2770
" />
<path d="M176.0032 77.2080
L176.0032 83.8100
" />
<path d="M176.0032 86.6900
L176.0032 93.2920
" />
<path d="M175.9632 77.1940
L175.9632 83.8100
" />
<path d="M175.9632 86.6900
L175.9632 93.3060
" />
<path d="M175.9232 77.1790
L175.9232 83.8100
" />
<path d="M175.9232 86.6900
L175.9232 93.3210
" />
<path d="M175.8832 77.1650
L175.8832 83.8100
" />
<path d="M175.8832 86.6900
L175.8832 93.3350
" />
<path d="M175.8432 77.1510
L175.8432 83.8100
" />
<path d="M175.8432 86.6900
L175.8432 93.3490
" />
<path d="M175.8032 77.1370
L175.8032 83.8100
" />
<path d="M175.8032 86.6900
L175.8032 93.3630
" />
<path d="M175.7632 77.1230
L175.7632 83.8100
" />
<path d="M175.7632 86.6900
L175.7632 93.3770
" />
<path d="M175.7232 77.1100
L175.7232 83.8100
" />
<path d="M175.7232 86.6900
L175.7232 93.3900
" />
<path d="M175.6832 77.0970
L175.6832 83.8100
" />
<path d="M175.6832 86.6900
L175.6832 93.4030
" />
<path d="M175.6432 77.0840
L175.6432 83.8100
" />
<path d="M175.6432 86.6900
L175.6432 93.4160
" />
<path d="M175.6032 77.0710
L175.6032 83.8100
" />
<path d="M175.6032 86.6900
L175.6032 93.4290
" />
<path d="M175.5632 77.0580
L175.5632 83.8100
" />
<path d="M175.5632 86.6900
L175.5632 93.4420
" />
<path d="M175.5232 77.0460
L175.5232 83.8100
" />
<path d="M175.5232 86.6900
L175.5232 93.4540
" />
<path d="M175.4832 77.0340
L175.4832 83.8100
" />
<path d="M175.4832 86.6900
L175.4832 93.4660
" />
<path d="M175.4432 77.0220
L175.4432 83.8100
" />
<path d="M175.4432 86.6900
L175.4432 93.4780
" />
<path d="M175.4032 77.0100
L175.4032 83.8100
" />
<path d="M175.4032 86.6900
L175.4032 93.4900
" />
<path d="M175.3632 76.9990
L175.3632 83.8100
" />
<path d="M175.3632 86.6900
L175.3632 93.5010
" />
<path d="M175.3232 76.9880
L175.3232 83.8100
" />
<path d="M175.3232 86.6900
L175.3232 93.5120
" />
<path d="M175.2832 76.9760
L175.2832 93.5240
" />
<path d="M175.2432 76.9660
L175.2432 93.5340
" />
<path d="M175.2032 76.9550
L175.2032 93.5450
" />
<path d="M175.1632 76.9450
L175.1632 93.5550
" />
<path d="M175.1232 76.9340
L175.1232 93.5660
" />
<path d="M175.0832 76.9240
L175.0832 93.5760
" />
<path d="M175.0432 76.9140
L175.0432 93.5860
" />
<path d="M175.0032 76.9050
L175.0032 93.5950
" />
<path d="M174.9632 76.8950
L174.9632 93.6050
" />
<path d="M174.9232 76.8860
L174.9232 93.6140
" />
<path d="M174.8832 76.8770
L174.8832 93.6230
" />
<path d="M174.8432 76.8680
L174.8432 93.6320
" />
<path d="M174.8032 76.8600
L174.8032 93.6400
" />
<path d="M174.7632 76.8510
L174.7632 93.6490
" />
<path d="M174.7232 76.8430
L174.7232 93.6570
" />
<path d="M174.6832 76.8350
L174.6832 93.6650
" />
<path d="M174.6432 76.8270
L174.6432 93.6730
" />
<path d="M174.6032 76.8190
L174.6032 93.6810
" />
<path d="M174.5632 76.8120
L174.5632 93.6880
" />
<path d="M174.5232 76.8050
L174.5232 93.6950
" />
<path d="M174.4832 76.7980
L174.4832 93.7020
" />
<path d="M174.4432 76.7910
L174.4432 93.7090
" />
<path d="M174.4032 76.7840
L174.4032 93.7160
" />
<path d="M174.3632 76.7770
L174.3632 93.7230
" />
<path d="M174.3232 76.7710
L174.3232 93.7290
" />
<path d="M174.2832 76.7650
L174.2832 93.7350
" />
<path d="M174.2432 76.7590
L174.2432 93.7410
" />
<path d="M174.2032 76.7530
L174.2032 93.7470
" />
<path d="M174.1632 76.7480
L174.1632 93.7520
" />
<path d="M174.1232 76.7430
L174.1232 93.7570
" />
<path d="M174.0832 76.7370
L174.0832 93.7630
" />
<path d="M174.0432 76.7320
L174.0432 93.7680
" />
<path d="M174.0032 76.7280
L174.0032 93.7720
" />
<path d="M173.9632 76.7230
L173.9632 93.7770
" />
<path d="M173.9232 76.7190
L173.9232 93.7810
" />
<path d="M173.8832 76.7150
L173.8832 93.7850
" />
<path d="M173.8432 76.7110
L173.8432 93.7890
" />
<path d="M173.8032 76.7070
L173.8032 93.7930
" />
<path d="M173.7632 76.7030
L173.7632 93.7970
" />
<path d="M173.7232 76.7000
L173.7232 93.8000
" />
<path d="M173.6822 76.6960
L173.6822 93.8040
" />
<path d="M173.6422 76.6930
L173.6422 93.8070
" />
<path d="M173.6022 76.6900
L173.6022 93.8100
" />
<path d="M173.5622 76.6880
L173.5622 93.8120
" />
<path d="M173.5222 76.6850
L173.5222 93.8150
" />
<path d="M173.4822 76.6830
L173.4822 93.8170
" />
<path d="M173.4422 76.6810
L173.4422 93.8190
" />
<path d="M173.4022 76.6790
L173.4022 93.8210
" />
<path d="M173.3622 76.6770
L173.3622 93.8230
" />
<path d="M173.3222 76.6750
L173.3222 93.8250
" />
<path d="M173.2822 76.6740
L173.2822 93.8260
" />
<path d="M173.2422 76.6730
L173.2422 93.8270
" />
<path d="M173.2022 76.6720
L173.2022 93.8280
" />
<path d="M173.1622 76.6710
L173.1622 93.8290
" />
<path d="M173.1222 76.6700
L173.1222 93.8300
" />
<path d="M173.0822 76.6700
L173.0822 93.8300
" />
<path d="M173.0422 76.6700
L173.0422 93.8300
" />
<path d="M173.0022 76.6690
L173.0022 93.8310
" />
<path d="M164.6277 79.5650
L164.6277 81.2650
" />
<path d="M163.7777 80.4150
L165.4777 80.4150
" />
<circle cx="173.0022" cy="85.2500" r="8.6200" /> 
<path d="M154.3722 95.4300
L154.3722 111.3200
" />
<path d="M153.0622 111.3200
L153.0622 112.1840
" />
<path d="M151.7922 111.3200
L151.7922 115.9850
" />
<path d="M150.5222 111.3200
L150.5222 112.1840
" />
<path d="M149.2522 111.3200
L149.2522 115.9850
" />
<path d="M147.9822 111.3200
L147.9822 112.1840
" />
<path d="M146.7122 111.3200
L146.7122 115.9850
" />
<path d="M145.4422 111.3200
L145.4422 112.2000
" />
<path d="M144.1322 95.4300
L154.3722 95.4300
" />
<path d="M144.1322 95.4300
L144.1322 111.3200
" />
<path d="M144.1322 111.3200
L154.3722 111.3200
" />
<path d="M142.3122 114.4400
L136.1922 114.4400
" />
<path d="M142.3122 115.7500
L141.7022 115.7500
" />
<path d="M142.3122 117.0500
L141.7022 117.0500
" />
<path d="M142.3122 119.1600
L142.3122 114.4400
" />
<path d="M141.7022 115.0500
L139.7522 115.0500
" />
<path d="M141.7022 118.5500
L141.7022 115.0500
" />
<path d="M139.7522 115.0500
L139.7522 114.4400
" />
<path d="M139.3522 118.0500
L139.3522 118.5500
" />
<path d="M139.2522 118.5500
L139.2522 118.0500
" />
<path d="M139.1522 118.0500
L139.3522 118.0500
" />
<path d="M139.1522 118.5500
L139.1522 118.0500
" />
<path d="M138.7522 114.4400
L138.7522 115.0500
" />
<path d="M138.7522 115.0500
L136.8022 115.0500
" />
<path d="M137.9522 114.2400
L137.6522 114.2400
" />
<path d="M137.9522 114.3400
L137.6522 114.3400
" />
<path d="M137.9522 114.4400
L137.9522 114.2400
" />
<path d="M137.6522 114.2400
L137.6522 114.4400
" />
<path d="M137.1422 114.1400
L135.8922 114.1400
" />
<path d="M136.8022 115.0500
L136.8022 118.5500
" />
<path d="M136.8022 118.5500
L141.7022 118.5500
" />
<path d="M136.1922 114.4400
L136.1922 119.1600
" />
<path d="M136.1922 115.7500
L136.8022 115.7500
" />
<path d="M136.1922 117.0500
L136.8022 117.0500
" />
<path d="M136.1922 119.1600
L142.3122 119.1600
" />
<path d="M135.8922 114.1400
L135.8922 115.3900
" />
<path d="M133.5897 87.0000
L133.0897 87.5000
" />
<path d="M133.5897 88.0000
L133.5897 87.0000
" />
<path d="M133.0897 87.5000
L133.5897 88.0000
" />
<path d="M132.8897 80.1400
L132.8897 92.3600
" />
<path d="M132.8897 80.1400
L129.1397 80.1400
" />
<path d="M132.8897 92.3600
L129.1397 92.3600
" />
<path d="M116.2697 80.1400
L124.2397 80.1400
" />
<path d="M116.2697 80.1400
L116.2697 92.3600
" />
<path d="M116.2697 92.3600
L124.2397 92.3600
" />
<path d="M165.4322 107.9890
L165.4322 117.9100
" />
<path d="M164.1072 112.1810
L164.0602 112.2270
" />
<path d="M163.9022 111.9750
L163.8672 112.0110
" />
<path d="M161.7982 114.4890
L161.7632 114.5240
" />
<path d="M161.6052 114.2730
L161.5582 114.3190
" />
<path d="M155.1522 107.9890
L165.4322 107.9890
" />
<path d="M155.1522 107.9890
L155.1522 117.9100
" />
<path d="M155.1522 110.9490
L165.4322 110.9490
" />
<path d="M155.1522 115.8500
L165.4322 115.8500
" />
<path d="M155.1522 117.3500
L165.4322 117.3500
" />
<path d="M155.1522 117.9100
L165.4322 117.9100
" />
<path d="M154.9122 117.4100
L154.9122 118.1500
" />
<path d="M154.9122 118.1500
L155.4122 118.1500
" />
<path d="M159.2872 113.9340 A1.6805 1.6805 0.0 0 0 159.2876 112.5670" />
<path d="M158.4362 111.7150 A1.6805 1.6805 0.0 0 0 157.0692 111.7146" />
<path d="M157.7522 114.9300 A1.6800 1.6800 0.0 0 0 158.4355 114.7848" />
<path d="M157.0682 114.7850 A1.6805 1.6805 0.0 0 0 157.7810 114.9303" />
<path d="M156.2172 112.5660 A1.6805 1.6805 0.0 0 0 156.2168 113.9330" />
<circle cx="162.8322" cy="113.2500" r="1.6800" /> 
<path d="M176.9322 107.9890
L176.9322 117.9100
" />
<path d="M175.6072 112.1810
L175.5602 112.2270
" />
<path d="M175.4022 111.9750
L175.3672 112.0110
" />
<path d="M173.2982 114.4890
L173.2632 114.5240
" />
<path d="M173.1052 114.2730
L173.0582 114.3190
" />
<path d="M166.6522 107.9890
L176.9322 107.9890
" />
<path d="M166.6522 107.9890
L166.6522 117.9100
" />
<path d="M166.6522 110.9490
L176.9322 110.9490
" />
<path d="M166.6522 115.8500
L176.9322 115.8500
" />
<path d="M166.6522 117.3500
L176.9322 117.3500
" />
<path d="M166.6522 117.9100
L176.9322 117.9100
" />
<path d="M166.4122 117.4100
L166.4122 118.1500
" />
<path d="M166.4122 118.1500
L166.9122 118.1500
" />
<path d="M170.7872 113.9340 A1.6805 1.6805 0.0 0 0 170.7876 112.5670" />
<path d="M169.9362 111.7150 A1.6805 1.6805 0.0 0 0 168.5692 111.7146" />
<path d="M169.2522 114.9300 A1.6800 1.6800 0.0 0 0 169.9355 114.7848" />
<path d="M168.5682 114.7850 A1.6805 1.6805 0.0 0 0 169.2810 114.9303" />
<path d="M167.7172 112.5660 A1.6805 1.6805 0.0 0 0 167.7168 113.9330" />
<circle cx="174.3322" cy="113.2500" r="1.6800" /> 
<path d="M129.3622 105.8900
L128.1122 105.8900
" />
<path d="M129.3622 107.1400
L129.3622 105.8900
" />
<path d="M129.2622 107.6500
L129.0622 107.6500
" />
<path d="M129.2622 107.9500
L129.2622 107.6500
" />
<path d="M129.1622 107.9500
L129.1622 107.6500
" />
<path d="M129.0622 106.1900
L124.3422 106.1900
" />
<path d="M129.0622 107.9500
L129.2622 107.9500
" />
<path d="M129.0622 108.7500
L128.4522 108.7500
" />
<path d="M129.0622 112.3100
L129.0622 106.1900
" />
<path d="M128.4522 106.8000
L124.9522 106.8000
" />
<path d="M128.4522 108.7500
L128.4522 106.8000
" />
<path d="M128.4522 109.7500
L129.0622 109.7500
" />
<path d="M128.4522 111.7000
L128.4522 109.7500
" />
<path d="M127.7522 106.1900
L127.7522 106.8000
" />
<path d="M127.7522 112.3100
L127.7522 111.7000
" />
<path d="M126.4522 106.1900
L126.4522 106.8000
" />
<path d="M126.4522 112.3100
L126.4522 111.7000
" />
<path d="M125.4522 109.1500
L125.4522 109.3500
" />
<path d="M125.4522 109.3500
L124.9522 109.3500
" />
<path d="M124.9522 106.8000
L124.9522 111.7000
" />
<path d="M124.9522 109.1500
L125.4522 109.1500
" />
<path d="M124.9522 109.2500
L125.4522 109.2500
" />
<path d="M124.9522 111.7000
L128.4522 111.7000
" />
<path d="M124.3422 106.1900
L124.3422 112.3100
" />
<path d="M124.3422 112.3100
L129.0622 112.3100
" />
</g>
<g style="fill:#000000; fill-opacity:1.0000; stroke:none;">
<circle cx="141.5022" cy="100.2500" r="0.5000" /> 
</g>
<g style="fill:#000000; fill-opacity:1.0000; stroke:none;">
<circle cx="127.2540" cy="97.4090" r="0.5000" /> 
</g>
<g style="fill:#000000; fill-opacity:1.0000; stroke:none;">
<circle cx="181.0022" cy="74.0000" r="1.6000" /> 
</g>
<g style="fill:#000000; fill-opacity:1.0000; stroke:none;">
<circle cx="148.4872" cy="74.0000" r="0.3250" /> 
</g>
<g style="fill:#000000; fill-opacity:1.0000; stroke:none;">
<circle cx="149.7572" cy="74.0000" r="0.3250" /> 
</g>
<g style="fill:#000000; fill-opacity:1.0000; stroke:none;">
<circle cx="151.0272" cy="74.0000" r="0.3250" /> 
</g>
<g style="fill:#000000; fill-opacity:1.0000; stroke:none;">
<circle cx="152.2972" cy="74.0000" r="0.3250" /> 
</g>
<g style="fill:#000000; fill-opacity:1.0000; stroke:none;">
<circle cx="153.5672" cy="74.0000" r="0.3250" /> 
</g>
<g style="fill:#000000; fill-opacity:1.0000; stroke:none;">
<circle cx="154.8372" cy="74.0000" r="0.3250" /> 
</g>
<g style="fill:#000000; fill-opacity:1.0000; stroke:none;">
<circle cx="127.2032" cy="102.4128" r="0.5000" /> 
</g>
<g style="fill:#000000; fill-opacity:1.0000; stroke:none;">
<circle cx="127.0022" cy="116.5000" r="1.6000" /> 
</g>
<g style="fill:#000000; fill-opacity:1.0000; stroke:none;">
<circle cx="181.0022" cy="116.5000" r="1.6000" /> 
</g>
<g style="fill:#000000; fill-opacity:1.0000; stroke:none;">
<circle cx="127.0022" cy="74.0000" r="1.6000" /> 
</g>
<g style="fill:#000000; fill-opacity:1.0000; stroke:none;">
<circle cx="178.6522" cy="102.2500" r="0.6000" /> 
</g>
<g style="fill:#000000; fill-opacity:1.0000; stroke:none;">
<circle cx="156.2522" cy="102.2500" r="0.6000" /> 
</g>
<g style="fill:#000000; fill-opacity:1.0000; stroke:none;">
<circle cx="169.2522" cy="85.2500" r="0.6000" /> 
</g>
<g style="fill:#000000; fill-opacity:1.0000; stroke:none;">
<circle cx="176.7522" cy="85.2500" r="0.6000" /> 
</g>
<g style="fill:#000000; fill-opacity:1.0000; stroke:none;">
<circle cx="149.2522" cy="98.3500" r="1.7500" /> 
</g>
<g style="fill:#000000; fill-opacity:1.0000; stroke:none;">
<circle cx="145.4422" cy="113.2500" r="0.5500" /> 
</g>
<g style="fill:#000000; fill-opacity:1.0000; stroke:none;">
<circle cx="146.7122" cy="117.0500" r="0.5500" /> 
</g>
<g style="fill:#000000; fill-opacity:1.0000; stroke:none;">
<circle cx="147.9822" cy="113.2500" r="0.5500" /> 
</g>
<g style="fill:#000000; fill-opacity:1.0000; stroke:none;">
<circle cx="149.2522" cy="117.0500" r="0.5500" /> 
</g>
<g style="fill:#000000; fill-opacity:1.0000; stroke:none;">
<circle cx="150.5222" cy="113.2500" r="0.5500" /> 
</g>
<g style="fill:#000000; fill-opacity:1.0000; stroke:none;">
<circle cx="151.7922" cy="117.0500" r="0.5500" /> 
</g>
<g style="fill:#000000; fill-opacity:1.0000; stroke:none;">
<circle cx="153.0622" cy="113.2500" r="0.5500" /> 
</g>
<g style="fill:#000000; fill-opacity:1.0000; stroke:none;">
<circle cx="138.2522" cy="116.2500" r="0.3750" /> 
</g>
<g style="fill:#000000; fill-opacity:1.0000; stroke:none;">
<circle cx="140.2522" cy="116.2500" r="0.3750" /> 
</g>
<g style="fill:#000000; fill-opacity:1.0000; stroke:none;">
<circle cx="131.5397" cy="87.5000" r="0.4750" /> 
</g>
<g style="fill:#000000; fill-opacity:1.0000; stroke:none;">
<circle cx="131.5397" cy="85.0000" r="0.4750" /> 
</g>
<g style="fill:#000000; fill-opacity:1.0000; stroke:none;">
<circle cx="129.5397" cy="85.0000" r="0.4750" /> 
</g>
<g style="fill:#000000; fill-opacity:1.0000; stroke:none;">
<circle cx="129.5397" cy="87.5000" r="0.4750" /> 
</g>
<g style="fill:#000000; fill-opacity:1.0000; stroke:none;">
<circle cx="126.6797" cy="80.2500" r="1.1500" /> 
</g>
<g style="fill:#000000; fill-opacity:1.0000; stroke:none;">
<circle cx="126.6797" cy="92.2500" r="1.1500" /> 
</g>
<g style="fill:#000000; fill-opacity:1.0000; stroke:none;">
<circle cx="157.7522" cy="113.2500" r="0.6500" /> 
</g>
<g style="fill:#000000; fill-opacity:1.0000; stroke:none;">
<circle cx="162.8322" cy="113.2500" r="0.6500" /> 
</g>
<g style="fill:#000000; fill-opacity:1.0000; stroke:none;">
<circle cx="169.2522" cy="113.2500" r="0.6500" /> 
</g>
<g style="fill:#000000; fill-opacity:1.0000; stroke:none;">
<circle cx="174.3322" cy="113.2500" r="0.6500" /> 
</g>
<g style="fill:#000000; fill-opacity:1.0000; stroke:none;">
<circle cx="127.2522" cy="108.2500" r="0.3750" /> 
</g>
<g style="fill:#000000; fill-opacity:1.0000; stroke:none;">
<circle cx="127.2522" cy="110.2500" r="0.3750" /> 
<path style="fill:#000000; fill-opacity:1.0000; stroke:none;fill-rule:evenodd;"
d="M 142.3522,101.1000
142.3522,99.4000
140.6522,99.4000
140.6522,101.1000
Z" /> 
<path style="fill:#000000; fill-opacity:1.0000; stroke:none;fill-rule:evenodd;"
d="M 128.1040,98.2590
128.1040,96.5590
126.4040,96.5590
126.4040,98.2590
Z" /> 
</g>
<g style="fill:#000000; fill-opacity:1.0000; stroke:none;">
<circle cx="181.0022" cy="74.0000" r="1.6000" /> 
<path style="fill:#000000; fill-opacity:1.0000; stroke:none;fill-rule:evenodd;"
d="M 148.9872,73.5000
147.9872,73.5000
147.9872,74.5000
148.9872,74.5000
Z" /> 
</g>
<g style="fill:#000000; fill-opacity:1.0000; stroke:none;">
<circle cx="149.7572" cy="74.0000" r="0.5000" /> 
<circle cx="151.0272" cy="74.0000" r="0.5000" /> 
<circle cx="152.2972" cy="74.0000" r="0.5000" /> 
<circle cx="153.5672" cy="74.0000" r="0.5000" /> 
<circle cx="154.8372" cy="74.0000" r="0.5000" /> 
<path style="fill:#000000; fill-opacity:1.0000; stroke:none;fill-rule:evenodd;"
d="M 128.0532,103.2628
128.0532,101.5628
126.3532,101.5628
126.3532,103.2628
Z" /> 
<circle cx="127.0022" cy="116.5000" r="1.6000" /> 
</g>
<g style="fill:#000000; fill-opacity:1.0000; stroke:none;">
<circle cx="181.0022" cy="116.5000" r="1.6000" /> 
</g>
<g style="fill:#000000; fill-opacity:1.0000; stroke:none;">
<circle cx="127.0022" cy="74.0000" r="1.6000" /> 
</g>
<g style="fill:#000000; fill-opacity:1.0000; stroke:none;">
<circle cx="178.6522" cy="102.2500" r="1.2000" /> 
</g>
<g style="fill:#000000; fill-opacity:1.0000; stroke:none;">
<circle cx="156.2522" cy="102.2500" r="1.2000" /> 
<path style="fill:#000000; fill-opacity:1.0000; stroke:none;fill-rule:evenodd;"
d="M 168.0522,84.0500
168.0522,86.4500
170.4522,86.4500
170.4522,84.0500
Z" /> 
<circle cx="176.7522" cy="85.2500" r="1.2000" /> 
</g>
<g style="fill:#000000; fill-opacity:1.0000; stroke:none;">
<circle cx="149.2522" cy="98.3500" r="1.7500" /> 
<path style="fill:#000000; fill-opacity:1.0000; stroke:none;fill-rule:evenodd;"
d="M 144.5422,112.3500
144.5422,114.1500
146.3422,114.1500
146.3422,112.3500
Z" /> 
<circle cx="146.7122" cy="117.0500" r="0.9000" /> 
<circle cx="147.9822" cy="113.2500" r="0.9000" /> 
<circle cx="149.2522" cy="117.0500" r="0.9000" /> 
<circle cx="150.5222" cy="113.2500" r="0.9000" /> 
<circle cx="151.7922" cy="117.0500" r="0.9000" /> 
<circle cx="153.0622" cy="113.2500" r="0.9000" /> 
<path style="fill:#000000; fill-opacity:1.0000; stroke:none;fill-rule:evenodd;"
d="M 137.6522,116.8750
137.6712,116.9707
137.7254,117.0518
137.8065,117.1060
137.9022,117.1250
138.6022,117.1250
138.6979,117.1060
138.7790,117.0518
138.8332,116.9707
138.8522,116.8750
138.8522,115.6250
138.8332,115.5293
138.7790,115.4482
138.6979,115.3940
138.6022,115.3750
137.9022,115.3750
137.8065,115.3940
137.7254,115.4482
137.6712,115.5293
137.6522,115.6250
Z" /> 
</g>
<g style="fill:none; 
stroke:#000000; stroke-width:1.2000; stroke-opacity:1; 
stroke-linecap:round; stroke-linejoin:round;">
<path d="M140.2522 116.5250
L140.2522 115.9750
" />
<path style="fill:#000000; fill-opacity:1.0000; stroke:none;fill-rule:evenodd;"
d="M 132.3397,86.7000
130.7397,86.7000
130.7397,88.3000
132.3397,88.3000
Z" /> 
</g>
<g style="fill:#000000; fill-opacity:1.0000; stroke:none;">
<circle cx="131.5397" cy="85.0000" r="0.8000" /> 
</g>
<g style="fill:#000000; fill-opacity:1.0000; stroke:none;">
<circle cx="129.5397" cy="85.0000" r="0.8000" /> 
</g>
<g style="fill:#000000; fill-opacity:1.0000; stroke:none;">
<circle cx="129.5397" cy="87.5000" r="0.8000" /> 
</g>
<g style="fill:#000000; fill-opacity:1.0000; stroke:none;">
<circle cx="126.6797" cy="80.2500" r="2.0000" /> 
</g>
<g style="fill:#000000; fill-opacity:1.0000; stroke:none;">
<circle cx="126.6797" cy="92.2500" r="2.0000" /> 
<path style="fill:#000000; fill-opacity:1.0000; stroke:none;fill-rule:evenodd;"
d="M 156.4522,111.9500
156.4522,114.5500
159.0522,114.5500
159.0522,111.9500
Z" /> 
</g>
<g style="fill:#000000; fill-opacity:1.0000; stroke:none;">
<circle cx="162.8322" cy="113.2500" r="1.3000" /> 
<path style="fill:#000000; fill-opacity:1.0000; stroke:none;fill-rule:evenodd;"
d="M 167.9522,111.9500
167.9522,114.5500
170.5522,114.5500
170.5522,111.9500
Z" /> 
</g>
<g style="fill:#000000; fill-opacity:1.0000; stroke:none;">
<circle cx="174.3322" cy="113.2500" r="1.3000" /> 
<path style="fill:#000000; fill-opacity:1.0000; stroke:none;fill-rule:evenodd;"
d="M 126.6272,107.6500
126.5315,107.6690
126.4504,107.7232
126.3962,107.8043
126.3772,107.9000
126.3772,108.6000
126.3962,108.6957
126.4504,108.7768
126.5315,108.8310
126.6272,108.8500
127.8772,108.8500
127.9729,108.8310
128.0540,108.7768
128.1082,108.6957
128.1272,108.6000
128.1272,107.9000
128.1082,107.8043
128.0540,107.7232
127.9729,107.6690
127.8772,107.6500
Z" /> 
</g>
<g style="fill:none; 
stroke:#000000; stroke-width:1.2000; stroke-opacity:1; 
stroke-linecap:round; stroke-linejoin:round;">
<path d="M126.9772 110.2500
L127.5272 110.2500
" />
</g>
<g style="fill:none; 
stroke:#000000; stroke-width:0.1000; stroke-opacity:1; 
stroke-linecap:round; stroke-linejoin:round;">
<path d="M184.5022 70.5000
L123.5022 70.5000
" />
<path d="M123.5022 120.0000
L184.5022 120.0000
" />
<path d="M123.5022 70.5000
L123.5022 120.0000
" />
<path d="M184.5022 120.0000
L184.5022 70.5000
" />
</g>
<g style="fill:#000000; fill-opacity:1.0000; stroke:none;">
<circle cx="141.5022" cy="100.2500" r="0.5000" /> 
</g>
<g style="fill:#000000; fill-opacity:1.0000; stroke:none;">
<circle cx="127.2540" cy="97.4090" r="0.5000" /> 
</g>
<g style="fill:#000000; fill-opacity:1.0000; stroke:none;">
<circle cx="181.0022" cy="74.0000" r="1.6000" /> 
</g>
<g style="fill:#000000; fill-opacity:1.0000; stroke:none;">
<circle cx="148.4872" cy="74.0000" r="0.3250" /> 
</g>
<g style="fill:#000000; fill-opacity:1.0000; stroke:none;">
<circle cx="149.7572" cy="74.0000" r="0.3250" /> 
</g>
<g style="fill:#000000; fill-opacity:1.0000; stroke:none;">
<circle cx="151.0272" cy="74.0000" r="0.3250" /> 
</g>
<g style="fill:#000000; fill-opacity:1.0000; stroke:none;">
<circle cx="152.2972" cy="74.0000" r="0.3250" /> 
</g>
<g style="fill:#000000; fill-opacity:1.0000; stroke:none;">
<circle cx="153.5672" cy="74.0000" r="0.3250" /> 
</g>
<g style="fill:#000000; fill-opacity:1.0000; stroke:none;">
<circle cx="154.8372" cy="74.0000" r="0.3250" /> 
</g>
<g style="fill:#000000; fill-opacity:1.0000; stroke:none;">
<circle cx="127.2032" cy="102.4128" r="0.5000" /> 
</g>
<g style="fill:#000000; fill-opacity:1.0000; stroke:none;">
<circle cx="127.0022" cy="116.5000" r="1.6000" /> 
</g>
<g style="fill:#000000; fill-opacity:1.0000; stroke:none;">
<circle cx="181.0022" cy="116.5000" r="1.6000" /> 
</g>
<g style="fill:#000000; fill-opacity:1.0000; stroke:none;">
<circle cx="127.0022" cy="74.0000" r="1.6000" /> 
</g>
<g style="fill:#000000; fill-opacity:1.0000; stroke:none;">
<circle cx="178.6522" cy="102.2500" r="0.6000" /> 
</g>
<g style="fill:#000000; fill-opacity:1.0000; stroke:none;">
<circle cx="156.2522" cy="102.2500" r="0.6000" /> 
</g>
<g style="fill:#000000; fill-opacity:1.0000; stroke:none;">
<circle cx="169.2522" cy="85.2500" r="0.6000" /> 
</g>
<g style="fill:#000000; fill-opacity:1.0000; stroke:none;">
<circle cx="176.7522" cy="85.2500" r="0.6000" /> 
</g>
<g style="fill:#000000; fill-opacity:1.0000; stroke:none;">
<circle cx="149.2522" cy="98.3500" r="1.7500" /> 
</g>
<g style="fill:#000000; fill-opacity:1.0000; stroke:none;">
<circle cx="145.4422" cy="113.2500" r="0.5500" /> 
</g>
<g style="fill:#000000; fill-opacity:1.0000; stroke:none;">
<circle cx="146.7122" cy="117.0500" r="0.5500" /> 
</g>
<g style="fill:#000000; fill-opacity:1.0000; stroke:none;">
<circle cx="147.9822" cy="113.2500" r="0.5500" /> 
</g>
<g style="fill:#000000; fill-opacity:1.0000; stroke:none;">
<circle cx="149.2522" cy="117.0500" r="0.5500" /> 
</g>
<g style="fill:#000000; fill-opacity:1.0000; stroke:none;">
<circle cx="150.5222" cy="113.2500" r="0.5500" /> 
</g>
<g style="fill:#000000; fill-opacity:1.0000; stroke:none;">
<circle cx="151.7922" cy="117.0500" r="0.5500" /> 
</g>
<g style="fill:#000000; fill-opacity:1.0000; stroke:none;">
<circle cx="153.0622" cy="113.2500" r="0.5500" /> 
</g>
<g style="fill:#000000; fill-opacity:1.0000; stroke:none;">
<circle cx="138.2522" cy="116.2500" r="0.3750" /> 
</g>
<g style="fill:#000000; fill-opacity:1.0000; stroke:none;">
<circle cx="140.2522" cy="116.2500" r="0.3750" /> 
</g>
<g style="fill:#000000; fill-opacity:1.0000; stroke:none;">
<circle cx="131.5397" cy="87.5000" r="0.4750" /> 
</g>
<g style="fill:#000000; fill-opacity:1.0000; stroke:none;">
<circle cx="131.5397" cy="85.0000" r="0.4750" /> 
</g>
<g style="fill:#000000; fill-opacity:1.0000; stroke:none;">
<circle cx="129.5397" cy="85.0000" r="0.4750" /> 
</g>
<g style="fill:#000000; fill-opacity:1.0000; stroke:none;">
<circle cx="129.5397" cy="87.5000" r="0.4750" /> 
</g>
<g style="fill:#000000; fill-opacity:1.0000; stroke:none;">
<circle cx="126.6797" cy="80.2500" r="1.1500" /> 
</g>
<g style="fill:#000000; fill-opacity:1.0000; stroke:none;">
<circle cx="126.6797" cy="92.2500" r="1.1500" /> 
</g>
<g style="fill:#000000; fill-opacity:1.0000; stroke:none;">
<circle cx="157.7522" cy="113.2500" r="0.6500" /> 
</g>
<g style="fill:#000000; fill-opacity:1.0000; stroke:none;">
<circle cx="162.8322" cy="113.2500" r="0.6500" /> 
</g>
<g style="fill:#000000; fill-opacity:1.0000; stroke:none;">
<circle cx="169.2522" cy="113.2500" r="0.6500" /> 
</g>
<g style="fill:#000000; fill-opacity:1.0000; stroke:none;">
<circle cx="174.3322" cy="113.2500" r="0.6500" /> 
</g>
<g style="fill:#000000; fill-opacity:1.0000; stroke:none;">
<circle cx="127.2522" cy="108.2500" r="0.3750" /> 
</g>
<g style="fill:#000000; fill-opacity:1.0000; stroke:none;">
<circle cx="127.2522" cy="110.2500" r="0.3750" /> 
</g> 
</svg>
