M48
; DRILL file {KiCad 6.0.10} date Чт 12 янв 2023 12:24:53
; FORMAT={-:-/ absolute / metric / decimal}
; #@! TF.CreationDate,2023-01-12T12:24:53+03:00
; #@! TF.GenerationSoftware,Kicad,Pcbnew,6.0.10
; #@! TF.FileFunction,MixedPlating,1,4
FMAT,2
METRIC
; #@! TA.AperFunction,Plated,PTH,ViaDrill
T1C0.400
; #@! TA.AperFunction,Plated,PTH,ViaDrill
T2C0.600
; #@! TA.AperFunction,Plated,PTH,ComponentDrill
T3C0.700
; #@! TA.AperFunction,Plated,PTH,ComponentDrill
T4C0.920
; #@! TA.AperFunction,Plated,PTH,ComponentDrill
T5C0.950
; #@! TA.AperFunction,Plated,PTH,ComponentDrill
T6C1.000
; #@! TA.AperFunction,Plated,PTH,ComponentDrill
T7C1.300
; #@! TA.AperFunction,Plated,PTH,ComponentDrill
T8C2.330
; #@! TA.AperFunction,Plated,PTH,ComponentDrill
T9C3.200
%
G90
G05
T1
X100.2Y-86.8
X100.2Y-88.3
X100.2Y-89.8
X100.2Y-91.3
X100.2Y-92.8
X100.2Y-94.3
X100.2Y-95.8
X101.7Y-86.8
X101.7Y-88.3
X101.7Y-89.8
X101.7Y-91.3
X101.7Y-92.8
X101.7Y-94.3
X101.7Y-95.8
X103.2Y-86.8
X103.2Y-88.3
X103.2Y-89.8
X103.2Y-91.3
X103.2Y-92.8
X103.2Y-94.3
X103.2Y-95.8
X104.7Y-86.8
X104.7Y-88.3
X104.7Y-89.8
X104.7Y-91.3
X104.7Y-92.8
X104.7Y-94.3
X104.7Y-95.8
X106.2Y-86.8
X106.2Y-88.3
X106.2Y-89.8
X106.2Y-91.3
X106.2Y-92.8
X106.2Y-94.3
X106.2Y-95.8
X107.7Y-86.8
X107.7Y-88.3
X107.7Y-89.8
X107.7Y-91.3
X107.7Y-92.8
X107.7Y-94.3
X107.7Y-95.8
X114.5Y-120.2
X116.7Y-107.6
X116.7Y-108.6
X116.7Y-109.6
X116.7Y-110.6
X116.7Y-111.6
X117.7Y-107.6
X117.7Y-108.6
X117.7Y-109.6
X117.7Y-110.6
X117.7Y-111.6
X118.7Y-107.6
X118.7Y-108.6
X118.7Y-109.6
X118.7Y-110.6
X118.7Y-111.6
X119.7Y-107.6
X119.7Y-108.6
X119.7Y-109.6
X119.7Y-110.6
X119.7Y-111.6
X122.5Y-107.6
X122.5Y-108.6
X122.5Y-109.6
X122.5Y-110.6
X122.5Y-111.6
X123.5Y-107.6
X123.5Y-108.6
X123.5Y-109.6
X123.5Y-110.6
X123.5Y-111.6
X124.5Y-107.6
X124.5Y-108.6
X124.5Y-109.6
X124.5Y-110.6
X124.5Y-111.6
X124.921Y-65.659
X125.5Y-107.6
X125.5Y-108.6
X125.5Y-109.6
X125.5Y-110.6
X125.5Y-111.6
X127.5Y-107.6
X127.5Y-108.6
X127.5Y-109.6
X127.5Y-110.6
X127.5Y-111.6
X128.5Y-107.6
X128.5Y-108.6
X128.5Y-109.6
X128.5Y-110.6
X128.5Y-111.6
X129.3Y-83.4
X129.5Y-107.6
X129.5Y-108.6
X129.5Y-109.6
X129.5Y-110.6
X129.5Y-111.6
X130.5Y-107.6
X130.5Y-108.6
X130.5Y-109.6
X130.5Y-110.6
X130.5Y-111.6
X133.096Y-48.371
X133.5Y-107.6
X133.5Y-108.6
X133.5Y-109.6
X133.5Y-110.6
X133.5Y-111.6
X134.35Y-123.25
X134.5Y-107.6
X134.5Y-108.6
X134.5Y-109.6
X134.5Y-110.6
X134.5Y-111.6
X135.5Y-107.6
X135.5Y-108.6
X135.5Y-109.6
X135.5Y-110.6
X135.5Y-111.6
X136.5Y-107.6
X136.5Y-108.6
X136.5Y-109.6
X136.5Y-110.6
X136.5Y-111.6
X139.463Y-97.5
X139.9Y-94.0
X139.9Y-120.1
X143.459Y-114.808
X144.375Y-88.341
X144.375Y-89.916
X144.678Y-66.294
X146.456Y-100.33
X146.888Y-104.8
X147.269Y-113.081
X147.9Y-87.9
X147.98Y-120.04
X148.463Y-104.8
X148.488Y-115.722
X150.012Y-88.9
X150.876Y-55.169
X151.13Y-88.748
X151.649Y-111.8
X151.669Y-97.197
X151.669Y-98.196
X151.79Y-87.935
X152.391Y-111.016
X152.603Y-105.054
X153.887Y-65.3
X153.924Y-84.785
X153.944Y-97.246
X153.975Y-99.162
X154.178Y-55.118
X154.229Y-56.54
X155.042Y-57.353
X155.245Y-89.814
X155.651Y-58.318
X156.87Y-102.26
X157.276Y-84.277
X158.191Y-101.371
X158.902Y-88.494
X159.309Y-109.525
X160.833Y-99.314
X161.646Y-55.169
X162.5Y-97.3
X163.1Y-114.487
X163.363Y-98.311
X164.9Y-94.8
X164.952Y-93.496
X165.71Y-97.282
X166.169Y-100.787
X169.316Y-100.1
X169.316Y-102.464
T2
X100.7Y-59.6
X104.597Y-73.048
X109.6Y-99.15
X109.8Y-59.9
X109.83Y-68.848
X110.165Y-78.003
X112.25Y-66.263
X113.1Y-93.2
X114.7Y-99.15
X115.318Y-63.297
X116.23Y-103.784
X117.5Y-50.2
X117.5Y-52.2
X117.551Y-103.784
X117.551Y-105.004
X118.5Y-123.25
X118.674Y-77.901
X121.3Y-56.6
X123.532Y-97.79
X124.46Y-79.705
X124.663Y-99.924
X124.968Y-90.562
X124.968Y-92.862
X125.846Y-105.771
X125.848Y-103.8
X127.203Y-105.766
X127.22Y-103.8
X127.7Y-81.587
X128.575Y-97.384
X128.575Y-103.784
X128.575Y-105.004
X129.235Y-58.623
X130.405Y-101.6
X130.7Y-57.9
X131.268Y-92.862
X131.268Y-97.906
X133.11Y-57.66
X133.35Y-62.75
X133.807Y-83.056
X133.909Y-64.668
X133.958Y-93.159
X136.78Y-103.8
X137.465Y-58.725
X137.719Y-97.485
X137.9Y-93.9
X138.278Y-103.784
X138.278Y-105.359
X139.243Y-88.24
X139.243Y-89.965
X139.751Y-58.3
X140.801Y-56.099
X142.2Y-56.2
X142.393Y-103.759
X143.459Y-119.939
X143.5Y-56.2
X143.815Y-92.384
X143.815Y-96.084
X144.118Y-103.825
X144.7Y-47.9
X146.1Y-88.341
X146.1Y-89.916
X146.8Y-47.9
X147.487Y-53.3
X148.285Y-99.162
X149.352Y-122.682
X153.492Y-113.894
X153.887Y-67.042
X155.551Y-84.277
X155.6Y-72.136
X155.905Y-109.678
X155.905Y-111.403
X159.917Y-101.371
X161.188Y-116.942
X161.695Y-107.391
X162.357Y-72.136
X163.068Y-112.674
X167.589Y-110.846
X168.599Y-110.901
X171.7Y-79.2
X171.7Y-80.5
T3
X101.8Y-100.0
X104.8Y-100.0
X112.624Y-48.412
X122.8Y-77.8
X132.5Y-87.3
X176.416Y-85.307
X176.632Y-104.648
X176.632Y-105.918
X176.632Y-107.188
X176.632Y-108.458
X176.632Y-109.728
X176.632Y-110.998
T4
X171.69Y-93.93
X171.69Y-96.43
X173.69Y-93.93
X173.69Y-96.43
T5
X102.1Y-69.3
X104.6Y-69.3
X107.1Y-69.3
X119.233Y-63.359
X121.733Y-63.359
X124.233Y-63.359
X126.733Y-63.359
X128.8Y-79.3
X131.3Y-79.3
X133.8Y-79.3
X143.6Y-109.8
X146.1Y-109.8
X146.4Y-58.0
X146.4Y-60.5
X146.4Y-63.0
X148.6Y-109.8
X152.5Y-122.2
X155.0Y-122.2
X155.7Y-63.1
X157.5Y-122.2
X158.2Y-63.1
X160.0Y-122.2
X160.7Y-63.1
X162.5Y-122.2
X163.2Y-63.1
X165.659Y-105.613
X165.7Y-63.1
X168.159Y-105.613
X170.659Y-105.613
T6
X117.785Y-90.611
X117.785Y-100.611
X122.92Y-50.36
X122.92Y-52.9
X125.11Y-87.3
X125.46Y-50.36
X125.46Y-52.9
X127.65Y-87.3
X128.0Y-50.36
X128.0Y-52.9
X130.54Y-50.36
X130.54Y-52.9
X133.08Y-50.36
X133.08Y-52.9
X149.32Y-48.612
X149.32Y-51.152
X151.86Y-48.612
X151.86Y-51.152
X154.4Y-48.612
X154.4Y-51.152
X156.94Y-48.612
X156.94Y-51.152
X159.48Y-48.612
X159.48Y-51.152
X172.647Y-66.32
X172.647Y-68.86
X172.647Y-71.4
X172.647Y-73.94
X172.647Y-76.48
X175.188Y-66.32
X175.188Y-68.86
X175.188Y-71.4
X175.188Y-73.94
X175.188Y-76.48
T7
X102.031Y-77.982
X107.031Y-77.982
X117.805Y-86.166
X118.5Y-119.5
X121.615Y-86.166
X123.5Y-119.5
X129.5Y-119.5
X134.5Y-119.5
T8
X176.4Y-89.16
X176.4Y-101.2
T9
X109.0Y-55.0
X109.0Y-115.0
X169.0Y-55.0
X169.0Y-115.0
T0
M30
