%TF.GenerationSoftware,KiCad,Pcbnew,6.0.10*%
%TF.CreationDate,2023-01-12T12:24:56+03:00*%
%TF.ProjectId,nitrogen,6e697472-6f67-4656-9e2e-6b696361645f,rev?*%
%TF.SameCoordinates,Original*%
%TF.FileFunction,Paste,Top*%
%TF.FilePolarity,Positive*%
%FSLAX46Y46*%
G04 Gerber Fmt 4.6, Leading zero omitted, Abs format (unit mm)*
G04 Created by KiCad (PCBNEW 6.0.10) date 2023-01-12 12:24:56*
%MOMM*%
%LPD*%
G01*
G04 APERTURE LIST*
G04 Aperture macros list*
%AMRoundRect*
0 Rectangle with rounded corners*
0 $1 Rounding radius*
0 $2 $3 $4 $5 $6 $7 $8 $9 X,Y pos of 4 corners*
0 Add a 4 corners polygon primitive as box body*
4,1,4,$2,$3,$4,$5,$6,$7,$8,$9,$2,$3,0*
0 Add four circle primitives for the rounded corners*
1,1,$1+$1,$2,$3*
1,1,$1+$1,$4,$5*
1,1,$1+$1,$6,$7*
1,1,$1+$1,$8,$9*
0 Add four rect primitives between the rounded corners*
20,1,$1+$1,$2,$3,$4,$5,0*
20,1,$1+$1,$4,$5,$6,$7,0*
20,1,$1+$1,$6,$7,$8,$9,0*
20,1,$1+$1,$8,$9,$2,$3,0*%
G04 Aperture macros list end*
%ADD10RoundRect,0.250000X0.450000X-0.350000X0.450000X0.350000X-0.450000X0.350000X-0.450000X-0.350000X0*%
%ADD11RoundRect,0.150000X-0.150000X0.725000X-0.150000X-0.725000X0.150000X-0.725000X0.150000X0.725000X0*%
%ADD12RoundRect,0.237500X-0.250000X-0.237500X0.250000X-0.237500X0.250000X0.237500X-0.250000X0.237500X0*%
%ADD13RoundRect,0.150000X0.512500X0.150000X-0.512500X0.150000X-0.512500X-0.150000X0.512500X-0.150000X0*%
%ADD14R,2.750000X3.050000*%
%ADD15R,1.200000X2.200000*%
%ADD16R,2.000000X1.500000*%
%ADD17R,2.000000X3.800000*%
%ADD18R,0.500000X0.350000*%
%ADD19RoundRect,0.237500X-0.300000X-0.237500X0.300000X-0.237500X0.300000X0.237500X-0.300000X0.237500X0*%
%ADD20R,2.400000X2.000000*%
%ADD21RoundRect,0.150000X-0.512500X-0.150000X0.512500X-0.150000X0.512500X0.150000X-0.512500X0.150000X0*%
%ADD22RoundRect,0.237500X0.300000X0.237500X-0.300000X0.237500X-0.300000X-0.237500X0.300000X-0.237500X0*%
%ADD23RoundRect,0.237500X0.237500X-0.300000X0.237500X0.300000X-0.237500X0.300000X-0.237500X-0.300000X0*%
%ADD24RoundRect,0.237500X0.250000X0.237500X-0.250000X0.237500X-0.250000X-0.237500X0.250000X-0.237500X0*%
%ADD25R,0.500000X0.800000*%
%ADD26R,0.400000X0.800000*%
%ADD27RoundRect,0.250000X-0.537500X-0.425000X0.537500X-0.425000X0.537500X0.425000X-0.537500X0.425000X0*%
%ADD28RoundRect,0.237500X-0.237500X0.250000X-0.237500X-0.250000X0.237500X-0.250000X0.237500X0.250000X0*%
%ADD29RoundRect,0.150000X-0.150000X0.825000X-0.150000X-0.825000X0.150000X-0.825000X0.150000X0.825000X0*%
%ADD30R,1.500000X0.450000*%
%ADD31RoundRect,0.150000X0.150000X-0.587500X0.150000X0.587500X-0.150000X0.587500X-0.150000X-0.587500X0*%
G04 APERTURE END LIST*
D10*
%TO.C,R34*%
X130556000Y-59674000D03*
X130556000Y-57674000D03*
%TD*%
D11*
%TO.C,U3*%
X147289800Y-114833300D03*
X146019800Y-114833300D03*
X144749800Y-114833300D03*
X143479800Y-114833300D03*
X143479800Y-119983300D03*
X144749800Y-119983300D03*
X146019800Y-119983300D03*
X147289800Y-119983300D03*
%TD*%
D12*
%TO.C,R13*%
X163362800Y-98311400D03*
X165187800Y-98311400D03*
%TD*%
D10*
%TO.C,R28*%
X122936000Y-59674000D03*
X122936000Y-57674000D03*
%TD*%
D12*
%TO.C,R11*%
X146460200Y-99161600D03*
X148285200Y-99161600D03*
%TD*%
D13*
%TO.C,D13*%
X153943900Y-99146400D03*
X153943900Y-98196400D03*
X153943900Y-97246400D03*
X151668900Y-97246400D03*
X151668900Y-98196400D03*
X151668900Y-99146400D03*
%TD*%
D14*
%TO.C,Q2*%
X116975000Y-111775000D03*
X120025000Y-111775000D03*
X120025000Y-108425000D03*
X116975000Y-108425000D03*
D15*
X120780000Y-103800000D03*
X116220000Y-103800000D03*
%TD*%
D16*
%TO.C,U7*%
X124967600Y-90562400D03*
D17*
X131267600Y-92862400D03*
D16*
X124967600Y-92862400D03*
X124967600Y-95162400D03*
%TD*%
D18*
%TO.C,U5*%
X152391000Y-113090600D03*
X152391000Y-112440600D03*
X152391000Y-111790600D03*
X152391000Y-111140600D03*
X154441000Y-111140600D03*
X154441000Y-111790600D03*
X154441000Y-112440600D03*
X154441000Y-113090600D03*
%TD*%
D19*
%TO.C,C16*%
X126848700Y-97383600D03*
X128573700Y-97383600D03*
%TD*%
D12*
%TO.C,R14*%
X166168700Y-100787200D03*
X167993700Y-100787200D03*
%TD*%
D20*
%TO.C,Y1*%
X143814800Y-96084000D03*
X143814800Y-92384000D03*
%TD*%
D21*
%TO.C,D10*%
X139462500Y-59350000D03*
X139462500Y-60300000D03*
X139462500Y-61250000D03*
X141737500Y-61250000D03*
X141737500Y-60300000D03*
X141737500Y-59350000D03*
%TD*%
D10*
%TO.C,R36*%
X133096000Y-59674000D03*
X133096000Y-57674000D03*
%TD*%
D22*
%TO.C,C2*%
X143813700Y-98298000D03*
X142088700Y-98298000D03*
%TD*%
D12*
%TO.C,R6*%
X130405500Y-101600000D03*
X132230500Y-101600000D03*
%TD*%
D23*
%TO.C,C19*%
X122834400Y-92861300D03*
X122834400Y-91136300D03*
%TD*%
%TO.C,C3*%
X146608800Y-93318500D03*
X146608800Y-91593500D03*
%TD*%
D14*
%TO.C,Q3*%
X131025000Y-111775000D03*
X131025000Y-108425000D03*
X127975000Y-108425000D03*
X127975000Y-111775000D03*
D15*
X131780000Y-103800000D03*
X127220000Y-103800000D03*
%TD*%
D22*
%TO.C,C1*%
X161695300Y-107391200D03*
X159970300Y-107391200D03*
%TD*%
D19*
%TO.C,C9*%
X144374700Y-89916000D03*
X146099700Y-89916000D03*
%TD*%
D24*
%TO.C,R4*%
X124661300Y-103784400D03*
X122836300Y-103784400D03*
%TD*%
D25*
%TO.C,RN2*%
X153803200Y-101817600D03*
D26*
X153003200Y-101817600D03*
X152203200Y-101817600D03*
D25*
X151403200Y-101817600D03*
X151403200Y-103617600D03*
D26*
X152203200Y-103617600D03*
X153003200Y-103617600D03*
D25*
X153803200Y-103617600D03*
%TD*%
D27*
%TO.C,C17*%
X131252100Y-97993200D03*
X134127100Y-97993200D03*
%TD*%
D24*
%TO.C,R24*%
X155928700Y-109677200D03*
X154103700Y-109677200D03*
%TD*%
%TO.C,R7*%
X128572900Y-101600000D03*
X126747900Y-101600000D03*
%TD*%
%TO.C,R5*%
X124661300Y-105460800D03*
X122836300Y-105460800D03*
%TD*%
D10*
%TO.C,R30*%
X125476000Y-59658000D03*
X125476000Y-57658000D03*
%TD*%
D23*
%TO.C,C6*%
X139242800Y-89964600D03*
X139242800Y-88239600D03*
%TD*%
D28*
%TO.C,R41*%
X139903200Y-93980000D03*
X139903200Y-95805000D03*
%TD*%
D29*
%TO.C,U1*%
X163100000Y-109550000D03*
X161830000Y-109550000D03*
X160560000Y-109550000D03*
X159290000Y-109550000D03*
X159290000Y-114500000D03*
X160560000Y-114500000D03*
X161830000Y-114500000D03*
X163100000Y-114500000D03*
%TD*%
D30*
%TO.C,Q5*%
X164951900Y-93495800D03*
X164951900Y-94795800D03*
X167611900Y-94145800D03*
%TD*%
D28*
%TO.C,R25*%
X146888200Y-102975400D03*
X146888200Y-104800400D03*
%TD*%
D31*
%TO.C,D6*%
X160250000Y-118837500D03*
X162150000Y-118837500D03*
X161200000Y-116962500D03*
%TD*%
D19*
%TO.C,C8*%
X144374700Y-88341200D03*
X146099700Y-88341200D03*
%TD*%
D28*
%TO.C,R23*%
X148437600Y-102975400D03*
X148437600Y-104800400D03*
%TD*%
D10*
%TO.C,R32*%
X128016000Y-59658000D03*
X128016000Y-57658000D03*
%TD*%
M02*
