%TF.GenerationSoftware,KiCad,Pcbnew,6.0.10*%
%TF.CreationDate,2023-01-12T17:29:40+03:00*%
%TF.ProjectId,nitrogen,6e697472-6f67-4656-9e2e-6b696361645f,rev?*%
%TF.SameCoordinates,Original*%
%TF.FileFunction,Legend,Bot*%
%TF.FilePolarity,Positive*%
%FSLAX46Y46*%
G04 Gerber Fmt 4.6, Leading zero omitted, Abs format (unit mm)*
G04 Created by KiCad (PCBNEW 6.0.10) date 2023-01-12 17:29:40*
%MOMM*%
%LPD*%
G01*
G04 APERTURE LIST*
%ADD10C,0.150000*%
%ADD11C,0.100000*%
%ADD12C,0.120000*%
G04 APERTURE END LIST*
D10*
X115204761Y-115747380D02*
X115204761Y-114747380D01*
X114823809Y-114747380D01*
X114728571Y-114795000D01*
X114680952Y-114842619D01*
X114633333Y-114937857D01*
X114633333Y-115080714D01*
X114680952Y-115175952D01*
X114728571Y-115223571D01*
X114823809Y-115271190D01*
X115204761Y-115271190D01*
X114300000Y-114747380D02*
X114061904Y-115747380D01*
X113871428Y-115033095D01*
X113680952Y-115747380D01*
X113442857Y-114747380D01*
X113061904Y-115747380D02*
X113061904Y-114747380D01*
X112728571Y-115461666D01*
X112395238Y-114747380D01*
X112395238Y-115747380D01*
X114442857Y-116405000D02*
X114538095Y-116357380D01*
X114680952Y-116357380D01*
X114823809Y-116405000D01*
X114919047Y-116500238D01*
X114966666Y-116595476D01*
X115014285Y-116785952D01*
X115014285Y-116928809D01*
X114966666Y-117119285D01*
X114919047Y-117214523D01*
X114823809Y-117309761D01*
X114680952Y-117357380D01*
X114585714Y-117357380D01*
X114442857Y-117309761D01*
X114395238Y-117262142D01*
X114395238Y-116928809D01*
X114585714Y-116928809D01*
X113966666Y-116690714D02*
X113966666Y-117357380D01*
X113966666Y-116785952D02*
X113919047Y-116738333D01*
X113823809Y-116690714D01*
X113680952Y-116690714D01*
X113585714Y-116738333D01*
X113538095Y-116833571D01*
X113538095Y-117357380D01*
X112633333Y-117357380D02*
X112633333Y-116357380D01*
X112633333Y-117309761D02*
X112728571Y-117357380D01*
X112919047Y-117357380D01*
X113014285Y-117309761D01*
X113061904Y-117262142D01*
X113109523Y-117166904D01*
X113109523Y-116881190D01*
X113061904Y-116785952D01*
X113014285Y-116738333D01*
X112919047Y-116690714D01*
X112728571Y-116690714D01*
X112633333Y-116738333D01*
D11*
X151942419Y-81760190D02*
X151942419Y-81260190D01*
X151656704Y-81760190D01*
X151656704Y-81260190D01*
X151418609Y-81760190D02*
X151418609Y-81426857D01*
X151418609Y-81260190D02*
X151442419Y-81284000D01*
X151418609Y-81307809D01*
X151394800Y-81284000D01*
X151418609Y-81260190D01*
X151418609Y-81307809D01*
X151251942Y-81426857D02*
X151061466Y-81426857D01*
X151180514Y-81260190D02*
X151180514Y-81688761D01*
X151156704Y-81736380D01*
X151109085Y-81760190D01*
X151061466Y-81760190D01*
X150894800Y-81760190D02*
X150894800Y-81426857D01*
X150894800Y-81522095D02*
X150870990Y-81474476D01*
X150847180Y-81450666D01*
X150799561Y-81426857D01*
X150751942Y-81426857D01*
X150513847Y-81760190D02*
X150561466Y-81736380D01*
X150585276Y-81712571D01*
X150609085Y-81664952D01*
X150609085Y-81522095D01*
X150585276Y-81474476D01*
X150561466Y-81450666D01*
X150513847Y-81426857D01*
X150442419Y-81426857D01*
X150394800Y-81450666D01*
X150370990Y-81474476D01*
X150347180Y-81522095D01*
X150347180Y-81664952D01*
X150370990Y-81712571D01*
X150394800Y-81736380D01*
X150442419Y-81760190D01*
X150513847Y-81760190D01*
X149918609Y-81426857D02*
X149918609Y-81831619D01*
X149942419Y-81879238D01*
X149966228Y-81903047D01*
X150013847Y-81926857D01*
X150085276Y-81926857D01*
X150132895Y-81903047D01*
X149918609Y-81736380D02*
X149966228Y-81760190D01*
X150061466Y-81760190D01*
X150109085Y-81736380D01*
X150132895Y-81712571D01*
X150156704Y-81664952D01*
X150156704Y-81522095D01*
X150132895Y-81474476D01*
X150109085Y-81450666D01*
X150061466Y-81426857D01*
X149966228Y-81426857D01*
X149918609Y-81450666D01*
X149490038Y-81736380D02*
X149537657Y-81760190D01*
X149632895Y-81760190D01*
X149680514Y-81736380D01*
X149704323Y-81688761D01*
X149704323Y-81498285D01*
X149680514Y-81450666D01*
X149632895Y-81426857D01*
X149537657Y-81426857D01*
X149490038Y-81450666D01*
X149466228Y-81498285D01*
X149466228Y-81545904D01*
X149704323Y-81593523D01*
X149251942Y-81426857D02*
X149251942Y-81760190D01*
X149251942Y-81474476D02*
X149228133Y-81450666D01*
X149180514Y-81426857D01*
X149109085Y-81426857D01*
X149061466Y-81450666D01*
X149037657Y-81498285D01*
X149037657Y-81760190D01*
X148632895Y-81498285D02*
X148799561Y-81498285D01*
X148799561Y-81760190D02*
X148799561Y-81260190D01*
X148561466Y-81260190D01*
X148299561Y-81760190D02*
X148347180Y-81736380D01*
X148370990Y-81688761D01*
X148370990Y-81260190D01*
X148037657Y-81760190D02*
X148085276Y-81736380D01*
X148109085Y-81712571D01*
X148132895Y-81664952D01*
X148132895Y-81522095D01*
X148109085Y-81474476D01*
X148085276Y-81450666D01*
X148037657Y-81426857D01*
X147966228Y-81426857D01*
X147918609Y-81450666D01*
X147894800Y-81474476D01*
X147870990Y-81522095D01*
X147870990Y-81664952D01*
X147894800Y-81712571D01*
X147918609Y-81736380D01*
X147966228Y-81760190D01*
X148037657Y-81760190D01*
X147585276Y-81760190D02*
X147632895Y-81736380D01*
X147656704Y-81712571D01*
X147680514Y-81664952D01*
X147680514Y-81522095D01*
X147656704Y-81474476D01*
X147632895Y-81450666D01*
X147585276Y-81426857D01*
X147513847Y-81426857D01*
X147466228Y-81450666D01*
X147442419Y-81474476D01*
X147418609Y-81522095D01*
X147418609Y-81664952D01*
X147442419Y-81712571D01*
X147466228Y-81736380D01*
X147513847Y-81760190D01*
X147585276Y-81760190D01*
X146990038Y-81760190D02*
X146990038Y-81260190D01*
X146990038Y-81736380D02*
X147037657Y-81760190D01*
X147132895Y-81760190D01*
X147180514Y-81736380D01*
X147204323Y-81712571D01*
X147228133Y-81664952D01*
X147228133Y-81522095D01*
X147204323Y-81474476D01*
X147180514Y-81450666D01*
X147132895Y-81426857D01*
X147037657Y-81426857D01*
X146990038Y-81450666D01*
X146751942Y-81760190D02*
X146751942Y-81426857D01*
X146751942Y-81260190D02*
X146775752Y-81284000D01*
X146751942Y-81307809D01*
X146728133Y-81284000D01*
X146751942Y-81260190D01*
X146751942Y-81307809D01*
X146513847Y-81426857D02*
X146513847Y-81760190D01*
X146513847Y-81474476D02*
X146490038Y-81450666D01*
X146442419Y-81426857D01*
X146370990Y-81426857D01*
X146323371Y-81450666D01*
X146299561Y-81498285D01*
X146299561Y-81760190D01*
X145847180Y-81426857D02*
X145847180Y-81831619D01*
X145870990Y-81879238D01*
X145894800Y-81903047D01*
X145942419Y-81926857D01*
X146013847Y-81926857D01*
X146061466Y-81903047D01*
X145847180Y-81736380D02*
X145894800Y-81760190D01*
X145990038Y-81760190D01*
X146037657Y-81736380D01*
X146061466Y-81712571D01*
X146085276Y-81664952D01*
X146085276Y-81522095D01*
X146061466Y-81474476D01*
X146037657Y-81450666D01*
X145990038Y-81426857D01*
X145894800Y-81426857D01*
X145847180Y-81450666D01*
D10*
X130450952Y-114842380D02*
X130450952Y-113842380D01*
X130070000Y-113842380D01*
X129974761Y-113890000D01*
X129927142Y-113937619D01*
X129879523Y-114032857D01*
X129879523Y-114175714D01*
X129927142Y-114270952D01*
X129974761Y-114318571D01*
X130070000Y-114366190D01*
X130450952Y-114366190D01*
X129546190Y-113842380D02*
X129308095Y-114842380D01*
X129117619Y-114128095D01*
X128927142Y-114842380D01*
X128689047Y-113842380D01*
X128308095Y-114842380D02*
X128308095Y-113842380D01*
X127974761Y-114556666D01*
X127641428Y-113842380D01*
X127641428Y-114842380D01*
X127212857Y-113937619D02*
X127165238Y-113890000D01*
X127070000Y-113842380D01*
X126831904Y-113842380D01*
X126736666Y-113890000D01*
X126689047Y-113937619D01*
X126641428Y-114032857D01*
X126641428Y-114128095D01*
X126689047Y-114270952D01*
X127260476Y-114842380D01*
X126641428Y-114842380D01*
X128228361Y-68762266D02*
X127752171Y-68762266D01*
X128323600Y-69047980D02*
X127990266Y-68047980D01*
X127656933Y-69047980D01*
X127323600Y-69047980D02*
X127323600Y-68047980D01*
X127085504Y-68047980D01*
X126942647Y-68095600D01*
X126847409Y-68190838D01*
X126799790Y-68286076D01*
X126752171Y-68476552D01*
X126752171Y-68619409D01*
X126799790Y-68809885D01*
X126847409Y-68905123D01*
X126942647Y-69000361D01*
X127085504Y-69047980D01*
X127323600Y-69047980D01*
X125752171Y-68952742D02*
X125799790Y-69000361D01*
X125942647Y-69047980D01*
X126037885Y-69047980D01*
X126180742Y-69000361D01*
X126275980Y-68905123D01*
X126323600Y-68809885D01*
X126371219Y-68619409D01*
X126371219Y-68476552D01*
X126323600Y-68286076D01*
X126275980Y-68190838D01*
X126180742Y-68095600D01*
X126037885Y-68047980D01*
X125942647Y-68047980D01*
X125799790Y-68095600D01*
X125752171Y-68143219D01*
X125133123Y-68047980D02*
X125037885Y-68047980D01*
X124942647Y-68095600D01*
X124895028Y-68143219D01*
X124847409Y-68238457D01*
X124799790Y-68428933D01*
X124799790Y-68667028D01*
X124847409Y-68857504D01*
X124895028Y-68952742D01*
X124942647Y-69000361D01*
X125037885Y-69047980D01*
X125133123Y-69047980D01*
X125228361Y-69000361D01*
X125275980Y-68952742D01*
X125323600Y-68857504D01*
X125371219Y-68667028D01*
X125371219Y-68428933D01*
X125323600Y-68238457D01*
X125275980Y-68143219D01*
X125228361Y-68095600D01*
X125133123Y-68047980D01*
X124371219Y-68952742D02*
X124323600Y-69000361D01*
X124371219Y-69047980D01*
X124418838Y-69000361D01*
X124371219Y-68952742D01*
X124371219Y-69047980D01*
X123895028Y-68952742D02*
X123847409Y-69000361D01*
X123895028Y-69047980D01*
X123942647Y-69000361D01*
X123895028Y-68952742D01*
X123895028Y-69047980D01*
X123514076Y-68047980D02*
X122847409Y-68047980D01*
X123275980Y-69047980D01*
X122466457Y-68952742D02*
X122418838Y-69000361D01*
X122466457Y-69047980D01*
X122514076Y-69000361D01*
X122466457Y-68952742D01*
X122466457Y-69047980D01*
X122466457Y-68428933D02*
X122418838Y-68476552D01*
X122466457Y-68524171D01*
X122514076Y-68476552D01*
X122466457Y-68428933D01*
X122466457Y-68524171D01*
X128490266Y-69705600D02*
X128585504Y-69657980D01*
X128728361Y-69657980D01*
X128871219Y-69705600D01*
X128966457Y-69800838D01*
X129014076Y-69896076D01*
X129061695Y-70086552D01*
X129061695Y-70229409D01*
X129014076Y-70419885D01*
X128966457Y-70515123D01*
X128871219Y-70610361D01*
X128728361Y-70657980D01*
X128633123Y-70657980D01*
X128490266Y-70610361D01*
X128442647Y-70562742D01*
X128442647Y-70229409D01*
X128633123Y-70229409D01*
X127347409Y-69657980D02*
X126680742Y-69657980D01*
X127109314Y-70657980D01*
X125061695Y-69657980D02*
X125537885Y-69657980D01*
X125585504Y-70134171D01*
X125537885Y-70086552D01*
X125442647Y-70038933D01*
X125204552Y-70038933D01*
X125109314Y-70086552D01*
X125061695Y-70134171D01*
X125014076Y-70229409D01*
X125014076Y-70467504D01*
X125061695Y-70562742D01*
X125109314Y-70610361D01*
X125204552Y-70657980D01*
X125442647Y-70657980D01*
X125537885Y-70610361D01*
X125585504Y-70562742D01*
X123918838Y-69657980D02*
X123299790Y-69657980D01*
X123633123Y-70038933D01*
X123490266Y-70038933D01*
X123395028Y-70086552D01*
X123347409Y-70134171D01*
X123299790Y-70229409D01*
X123299790Y-70467504D01*
X123347409Y-70562742D01*
X123395028Y-70610361D01*
X123490266Y-70657980D01*
X123775980Y-70657980D01*
X123871219Y-70610361D01*
X123918838Y-70562742D01*
X121585504Y-70657980D02*
X122156933Y-70657980D01*
X121871219Y-70657980D02*
X121871219Y-69657980D01*
X121966457Y-69800838D01*
X122061695Y-69896076D01*
X122156933Y-69943695D01*
X128490266Y-71315600D02*
X128585504Y-71267980D01*
X128728361Y-71267980D01*
X128871219Y-71315600D01*
X128966457Y-71410838D01*
X129014076Y-71506076D01*
X129061695Y-71696552D01*
X129061695Y-71839409D01*
X129014076Y-72029885D01*
X128966457Y-72125123D01*
X128871219Y-72220361D01*
X128728361Y-72267980D01*
X128633123Y-72267980D01*
X128490266Y-72220361D01*
X128442647Y-72172742D01*
X128442647Y-71839409D01*
X128633123Y-71839409D01*
X126823600Y-71267980D02*
X127014076Y-71267980D01*
X127109314Y-71315600D01*
X127156933Y-71363219D01*
X127252171Y-71506076D01*
X127299790Y-71696552D01*
X127299790Y-72077504D01*
X127252171Y-72172742D01*
X127204552Y-72220361D01*
X127109314Y-72267980D01*
X126918838Y-72267980D01*
X126823600Y-72220361D01*
X126775980Y-72172742D01*
X126728361Y-72077504D01*
X126728361Y-71839409D01*
X126775980Y-71744171D01*
X126823600Y-71696552D01*
X126918838Y-71648933D01*
X127109314Y-71648933D01*
X127204552Y-71696552D01*
X127252171Y-71744171D01*
X127299790Y-71839409D01*
X125109314Y-71601314D02*
X125109314Y-72267980D01*
X125347409Y-71220361D02*
X125585504Y-71934647D01*
X124966457Y-71934647D01*
X123871219Y-71363219D02*
X123823600Y-71315600D01*
X123728361Y-71267980D01*
X123490266Y-71267980D01*
X123395028Y-71315600D01*
X123347409Y-71363219D01*
X123299790Y-71458457D01*
X123299790Y-71553695D01*
X123347409Y-71696552D01*
X123918838Y-72267980D01*
X123299790Y-72267980D01*
X121918838Y-71267980D02*
X121823600Y-71267980D01*
X121728361Y-71315600D01*
X121680742Y-71363219D01*
X121633123Y-71458457D01*
X121585504Y-71648933D01*
X121585504Y-71887028D01*
X121633123Y-72077504D01*
X121680742Y-72172742D01*
X121728361Y-72220361D01*
X121823600Y-72267980D01*
X121918838Y-72267980D01*
X122014076Y-72220361D01*
X122061695Y-72172742D01*
X122109314Y-72077504D01*
X122156933Y-71887028D01*
X122156933Y-71648933D01*
X122109314Y-71458457D01*
X122061695Y-71363219D01*
X122014076Y-71315600D01*
X121918838Y-71267980D01*
X120030952Y-113642380D02*
X120030952Y-112642380D01*
X119650000Y-112642380D01*
X119554761Y-112690000D01*
X119507142Y-112737619D01*
X119459523Y-112832857D01*
X119459523Y-112975714D01*
X119507142Y-113070952D01*
X119554761Y-113118571D01*
X119650000Y-113166190D01*
X120030952Y-113166190D01*
X119126190Y-112642380D02*
X118888095Y-113642380D01*
X118697619Y-112928095D01*
X118507142Y-113642380D01*
X118269047Y-112642380D01*
X117888095Y-113642380D02*
X117888095Y-112642380D01*
X117554761Y-113356666D01*
X117221428Y-112642380D01*
X117221428Y-113642380D01*
X116840476Y-112642380D02*
X116221428Y-112642380D01*
X116554761Y-113023333D01*
X116411904Y-113023333D01*
X116316666Y-113070952D01*
X116269047Y-113118571D01*
X116221428Y-113213809D01*
X116221428Y-113451904D01*
X116269047Y-113547142D01*
X116316666Y-113594761D01*
X116411904Y-113642380D01*
X116697619Y-113642380D01*
X116792857Y-113594761D01*
X116840476Y-113547142D01*
X137134266Y-57977066D02*
X136658076Y-57977066D01*
X137229504Y-58262780D02*
X136896171Y-57262780D01*
X136562838Y-58262780D01*
X136229504Y-58262780D02*
X136229504Y-57262780D01*
X135991409Y-57262780D01*
X135848552Y-57310400D01*
X135753314Y-57405638D01*
X135705695Y-57500876D01*
X135658076Y-57691352D01*
X135658076Y-57834209D01*
X135705695Y-58024685D01*
X135753314Y-58119923D01*
X135848552Y-58215161D01*
X135991409Y-58262780D01*
X136229504Y-58262780D01*
X134658076Y-58167542D02*
X134705695Y-58215161D01*
X134848552Y-58262780D01*
X134943790Y-58262780D01*
X135086647Y-58215161D01*
X135181885Y-58119923D01*
X135229504Y-58024685D01*
X135277123Y-57834209D01*
X135277123Y-57691352D01*
X135229504Y-57500876D01*
X135181885Y-57405638D01*
X135086647Y-57310400D01*
X134943790Y-57262780D01*
X134848552Y-57262780D01*
X134705695Y-57310400D01*
X134658076Y-57358019D01*
X134039028Y-57262780D02*
X133943790Y-57262780D01*
X133848552Y-57310400D01*
X133800933Y-57358019D01*
X133753314Y-57453257D01*
X133705695Y-57643733D01*
X133705695Y-57881828D01*
X133753314Y-58072304D01*
X133800933Y-58167542D01*
X133848552Y-58215161D01*
X133943790Y-58262780D01*
X134039028Y-58262780D01*
X134134266Y-58215161D01*
X134181885Y-58167542D01*
X134229504Y-58072304D01*
X134277123Y-57881828D01*
X134277123Y-57643733D01*
X134229504Y-57453257D01*
X134181885Y-57358019D01*
X134134266Y-57310400D01*
X134039028Y-57262780D01*
X133277123Y-58167542D02*
X133229504Y-58215161D01*
X133277123Y-58262780D01*
X133324742Y-58215161D01*
X133277123Y-58167542D01*
X133277123Y-58262780D01*
X132800933Y-58167542D02*
X132753314Y-58215161D01*
X132800933Y-58262780D01*
X132848552Y-58215161D01*
X132800933Y-58167542D01*
X132800933Y-58262780D01*
X132419980Y-57262780D02*
X131753314Y-57262780D01*
X132181885Y-58262780D01*
%TO.C,J3*%
X127733333Y-117052380D02*
X127733333Y-117766666D01*
X127780952Y-117909523D01*
X127876190Y-118004761D01*
X128019047Y-118052380D01*
X128114285Y-118052380D01*
X127352380Y-117052380D02*
X126733333Y-117052380D01*
X127066666Y-117433333D01*
X126923809Y-117433333D01*
X126828571Y-117480952D01*
X126780952Y-117528571D01*
X126733333Y-117623809D01*
X126733333Y-117861904D01*
X126780952Y-117957142D01*
X126828571Y-118004761D01*
X126923809Y-118052380D01*
X127209523Y-118052380D01*
X127304761Y-118004761D01*
X127352380Y-117957142D01*
%TO.C,R13*%
X167876457Y-95651580D02*
X168209790Y-95175390D01*
X168447885Y-95651580D02*
X168447885Y-94651580D01*
X168066933Y-94651580D01*
X167971695Y-94699200D01*
X167924076Y-94746819D01*
X167876457Y-94842057D01*
X167876457Y-94984914D01*
X167924076Y-95080152D01*
X167971695Y-95127771D01*
X168066933Y-95175390D01*
X168447885Y-95175390D01*
X166924076Y-95651580D02*
X167495504Y-95651580D01*
X167209790Y-95651580D02*
X167209790Y-94651580D01*
X167305028Y-94794438D01*
X167400266Y-94889676D01*
X167495504Y-94937295D01*
X166590742Y-94651580D02*
X165971695Y-94651580D01*
X166305028Y-95032533D01*
X166162171Y-95032533D01*
X166066933Y-95080152D01*
X166019314Y-95127771D01*
X165971695Y-95223009D01*
X165971695Y-95461104D01*
X166019314Y-95556342D01*
X166066933Y-95603961D01*
X166162171Y-95651580D01*
X166447885Y-95651580D01*
X166543123Y-95603961D01*
X166590742Y-95556342D01*
%TO.C,J4*%
X140488533Y-49499580D02*
X140488533Y-50213866D01*
X140536152Y-50356723D01*
X140631390Y-50451961D01*
X140774247Y-50499580D01*
X140869485Y-50499580D01*
X139583771Y-49832914D02*
X139583771Y-50499580D01*
X139821866Y-49451961D02*
X140059961Y-50166247D01*
X139440914Y-50166247D01*
%TO.C,Q5*%
X165550838Y-91530419D02*
X165646076Y-91482800D01*
X165741314Y-91387561D01*
X165884171Y-91244704D01*
X165979409Y-91197085D01*
X166074647Y-91197085D01*
X166027028Y-91435180D02*
X166122266Y-91387561D01*
X166217504Y-91292323D01*
X166265123Y-91101847D01*
X166265123Y-90768514D01*
X166217504Y-90578038D01*
X166122266Y-90482800D01*
X166027028Y-90435180D01*
X165836552Y-90435180D01*
X165741314Y-90482800D01*
X165646076Y-90578038D01*
X165598457Y-90768514D01*
X165598457Y-91101847D01*
X165646076Y-91292323D01*
X165741314Y-91387561D01*
X165836552Y-91435180D01*
X166027028Y-91435180D01*
X164693695Y-90435180D02*
X165169885Y-90435180D01*
X165217504Y-90911371D01*
X165169885Y-90863752D01*
X165074647Y-90816133D01*
X164836552Y-90816133D01*
X164741314Y-90863752D01*
X164693695Y-90911371D01*
X164646076Y-91006609D01*
X164646076Y-91244704D01*
X164693695Y-91339942D01*
X164741314Y-91387561D01*
X164836552Y-91435180D01*
X165074647Y-91435180D01*
X165169885Y-91387561D01*
X165217504Y-91339942D01*
%TO.C,R8*%
X132805466Y-100622380D02*
X133138800Y-100146190D01*
X133376895Y-100622380D02*
X133376895Y-99622380D01*
X132995942Y-99622380D01*
X132900704Y-99670000D01*
X132853085Y-99717619D01*
X132805466Y-99812857D01*
X132805466Y-99955714D01*
X132853085Y-100050952D01*
X132900704Y-100098571D01*
X132995942Y-100146190D01*
X133376895Y-100146190D01*
X132234038Y-100050952D02*
X132329276Y-100003333D01*
X132376895Y-99955714D01*
X132424514Y-99860476D01*
X132424514Y-99812857D01*
X132376895Y-99717619D01*
X132329276Y-99670000D01*
X132234038Y-99622380D01*
X132043561Y-99622380D01*
X131948323Y-99670000D01*
X131900704Y-99717619D01*
X131853085Y-99812857D01*
X131853085Y-99860476D01*
X131900704Y-99955714D01*
X131948323Y-100003333D01*
X132043561Y-100050952D01*
X132234038Y-100050952D01*
X132329276Y-100098571D01*
X132376895Y-100146190D01*
X132424514Y-100241428D01*
X132424514Y-100431904D01*
X132376895Y-100527142D01*
X132329276Y-100574761D01*
X132234038Y-100622380D01*
X132043561Y-100622380D01*
X131948323Y-100574761D01*
X131900704Y-100527142D01*
X131853085Y-100431904D01*
X131853085Y-100241428D01*
X131900704Y-100146190D01*
X131948323Y-100098571D01*
X132043561Y-100050952D01*
%TO.C,R54*%
X129573257Y-66136780D02*
X129906590Y-65660590D01*
X130144685Y-66136780D02*
X130144685Y-65136780D01*
X129763733Y-65136780D01*
X129668495Y-65184400D01*
X129620876Y-65232019D01*
X129573257Y-65327257D01*
X129573257Y-65470114D01*
X129620876Y-65565352D01*
X129668495Y-65612971D01*
X129763733Y-65660590D01*
X130144685Y-65660590D01*
X128668495Y-65136780D02*
X129144685Y-65136780D01*
X129192304Y-65612971D01*
X129144685Y-65565352D01*
X129049447Y-65517733D01*
X128811352Y-65517733D01*
X128716114Y-65565352D01*
X128668495Y-65612971D01*
X128620876Y-65708209D01*
X128620876Y-65946304D01*
X128668495Y-66041542D01*
X128716114Y-66089161D01*
X128811352Y-66136780D01*
X129049447Y-66136780D01*
X129144685Y-66089161D01*
X129192304Y-66041542D01*
X127763733Y-65470114D02*
X127763733Y-66136780D01*
X128001828Y-65089161D02*
X128239923Y-65803447D01*
X127620876Y-65803447D01*
%TO.C,R44*%
X161542857Y-114052380D02*
X161876190Y-113576190D01*
X162114285Y-114052380D02*
X162114285Y-113052380D01*
X161733333Y-113052380D01*
X161638095Y-113100000D01*
X161590476Y-113147619D01*
X161542857Y-113242857D01*
X161542857Y-113385714D01*
X161590476Y-113480952D01*
X161638095Y-113528571D01*
X161733333Y-113576190D01*
X162114285Y-113576190D01*
X160685714Y-113385714D02*
X160685714Y-114052380D01*
X160923809Y-113004761D02*
X161161904Y-113719047D01*
X160542857Y-113719047D01*
X159733333Y-113385714D02*
X159733333Y-114052380D01*
X159971428Y-113004761D02*
X160209523Y-113719047D01*
X159590476Y-113719047D01*
%TO.C,C4*%
X148248666Y-117274442D02*
X148296285Y-117322061D01*
X148439142Y-117369680D01*
X148534380Y-117369680D01*
X148677238Y-117322061D01*
X148772476Y-117226823D01*
X148820095Y-117131585D01*
X148867714Y-116941109D01*
X148867714Y-116798252D01*
X148820095Y-116607776D01*
X148772476Y-116512538D01*
X148677238Y-116417300D01*
X148534380Y-116369680D01*
X148439142Y-116369680D01*
X148296285Y-116417300D01*
X148248666Y-116464919D01*
X147391523Y-116703014D02*
X147391523Y-117369680D01*
X147629619Y-116322061D02*
X147867714Y-117036347D01*
X147248666Y-117036347D01*
%TO.C,C7*%
X156579866Y-83204342D02*
X156627485Y-83251961D01*
X156770342Y-83299580D01*
X156865580Y-83299580D01*
X157008438Y-83251961D01*
X157103676Y-83156723D01*
X157151295Y-83061485D01*
X157198914Y-82871009D01*
X157198914Y-82728152D01*
X157151295Y-82537676D01*
X157103676Y-82442438D01*
X157008438Y-82347200D01*
X156865580Y-82299580D01*
X156770342Y-82299580D01*
X156627485Y-82347200D01*
X156579866Y-82394819D01*
X156246533Y-82299580D02*
X155579866Y-82299580D01*
X156008438Y-83299580D01*
%TO.C,R2*%
X121832666Y-100622380D02*
X122166000Y-100146190D01*
X122404095Y-100622380D02*
X122404095Y-99622380D01*
X122023142Y-99622380D01*
X121927904Y-99670000D01*
X121880285Y-99717619D01*
X121832666Y-99812857D01*
X121832666Y-99955714D01*
X121880285Y-100050952D01*
X121927904Y-100098571D01*
X122023142Y-100146190D01*
X122404095Y-100146190D01*
X121451714Y-99717619D02*
X121404095Y-99670000D01*
X121308857Y-99622380D01*
X121070761Y-99622380D01*
X120975523Y-99670000D01*
X120927904Y-99717619D01*
X120880285Y-99812857D01*
X120880285Y-99908095D01*
X120927904Y-100050952D01*
X121499333Y-100622380D01*
X120880285Y-100622380D01*
%TO.C,U4*%
X150061904Y-84052380D02*
X150061904Y-84861904D01*
X150014285Y-84957142D01*
X149966666Y-85004761D01*
X149871428Y-85052380D01*
X149680952Y-85052380D01*
X149585714Y-85004761D01*
X149538095Y-84957142D01*
X149490476Y-84861904D01*
X149490476Y-84052380D01*
X148585714Y-84385714D02*
X148585714Y-85052380D01*
X148823809Y-84004761D02*
X149061904Y-84719047D01*
X148442857Y-84719047D01*
%TO.C,C15*%
X122542857Y-80657142D02*
X122590476Y-80704761D01*
X122733333Y-80752380D01*
X122828571Y-80752380D01*
X122971428Y-80704761D01*
X123066666Y-80609523D01*
X123114285Y-80514285D01*
X123161904Y-80323809D01*
X123161904Y-80180952D01*
X123114285Y-79990476D01*
X123066666Y-79895238D01*
X122971428Y-79800000D01*
X122828571Y-79752380D01*
X122733333Y-79752380D01*
X122590476Y-79800000D01*
X122542857Y-79847619D01*
X121590476Y-80752380D02*
X122161904Y-80752380D01*
X121876190Y-80752380D02*
X121876190Y-79752380D01*
X121971428Y-79895238D01*
X122066666Y-79990476D01*
X122161904Y-80038095D01*
X120685714Y-79752380D02*
X121161904Y-79752380D01*
X121209523Y-80228571D01*
X121161904Y-80180952D01*
X121066666Y-80133333D01*
X120828571Y-80133333D01*
X120733333Y-80180952D01*
X120685714Y-80228571D01*
X120638095Y-80323809D01*
X120638095Y-80561904D01*
X120685714Y-80657142D01*
X120733333Y-80704761D01*
X120828571Y-80752380D01*
X121066666Y-80752380D01*
X121161904Y-80704761D01*
X121209523Y-80657142D01*
%TO.C,R22*%
X162788457Y-57106780D02*
X163121790Y-56630590D01*
X163359885Y-57106780D02*
X163359885Y-56106780D01*
X162978933Y-56106780D01*
X162883695Y-56154400D01*
X162836076Y-56202019D01*
X162788457Y-56297257D01*
X162788457Y-56440114D01*
X162836076Y-56535352D01*
X162883695Y-56582971D01*
X162978933Y-56630590D01*
X163359885Y-56630590D01*
X162407504Y-56202019D02*
X162359885Y-56154400D01*
X162264647Y-56106780D01*
X162026552Y-56106780D01*
X161931314Y-56154400D01*
X161883695Y-56202019D01*
X161836076Y-56297257D01*
X161836076Y-56392495D01*
X161883695Y-56535352D01*
X162455123Y-57106780D01*
X161836076Y-57106780D01*
X161455123Y-56202019D02*
X161407504Y-56154400D01*
X161312266Y-56106780D01*
X161074171Y-56106780D01*
X160978933Y-56154400D01*
X160931314Y-56202019D01*
X160883695Y-56297257D01*
X160883695Y-56392495D01*
X160931314Y-56535352D01*
X161502742Y-57106780D01*
X160883695Y-57106780D01*
%TO.C,R17*%
X116742857Y-62352380D02*
X117076190Y-61876190D01*
X117314285Y-62352380D02*
X117314285Y-61352380D01*
X116933333Y-61352380D01*
X116838095Y-61400000D01*
X116790476Y-61447619D01*
X116742857Y-61542857D01*
X116742857Y-61685714D01*
X116790476Y-61780952D01*
X116838095Y-61828571D01*
X116933333Y-61876190D01*
X117314285Y-61876190D01*
X115790476Y-62352380D02*
X116361904Y-62352380D01*
X116076190Y-62352380D02*
X116076190Y-61352380D01*
X116171428Y-61495238D01*
X116266666Y-61590476D01*
X116361904Y-61638095D01*
X115457142Y-61352380D02*
X114790476Y-61352380D01*
X115219047Y-62352380D01*
%TO.C,C22*%
X113342857Y-59257142D02*
X113390476Y-59304761D01*
X113533333Y-59352380D01*
X113628571Y-59352380D01*
X113771428Y-59304761D01*
X113866666Y-59209523D01*
X113914285Y-59114285D01*
X113961904Y-58923809D01*
X113961904Y-58780952D01*
X113914285Y-58590476D01*
X113866666Y-58495238D01*
X113771428Y-58400000D01*
X113628571Y-58352380D01*
X113533333Y-58352380D01*
X113390476Y-58400000D01*
X113342857Y-58447619D01*
X112961904Y-58447619D02*
X112914285Y-58400000D01*
X112819047Y-58352380D01*
X112580952Y-58352380D01*
X112485714Y-58400000D01*
X112438095Y-58447619D01*
X112390476Y-58542857D01*
X112390476Y-58638095D01*
X112438095Y-58780952D01*
X113009523Y-59352380D01*
X112390476Y-59352380D01*
X112009523Y-58447619D02*
X111961904Y-58400000D01*
X111866666Y-58352380D01*
X111628571Y-58352380D01*
X111533333Y-58400000D01*
X111485714Y-58447619D01*
X111438095Y-58542857D01*
X111438095Y-58638095D01*
X111485714Y-58780952D01*
X112057142Y-59352380D01*
X111438095Y-59352380D01*
%TO.C,R38*%
X104742857Y-81452380D02*
X105076190Y-80976190D01*
X105314285Y-81452380D02*
X105314285Y-80452380D01*
X104933333Y-80452380D01*
X104838095Y-80500000D01*
X104790476Y-80547619D01*
X104742857Y-80642857D01*
X104742857Y-80785714D01*
X104790476Y-80880952D01*
X104838095Y-80928571D01*
X104933333Y-80976190D01*
X105314285Y-80976190D01*
X104409523Y-80452380D02*
X103790476Y-80452380D01*
X104123809Y-80833333D01*
X103980952Y-80833333D01*
X103885714Y-80880952D01*
X103838095Y-80928571D01*
X103790476Y-81023809D01*
X103790476Y-81261904D01*
X103838095Y-81357142D01*
X103885714Y-81404761D01*
X103980952Y-81452380D01*
X104266666Y-81452380D01*
X104361904Y-81404761D01*
X104409523Y-81357142D01*
X103219047Y-80880952D02*
X103314285Y-80833333D01*
X103361904Y-80785714D01*
X103409523Y-80690476D01*
X103409523Y-80642857D01*
X103361904Y-80547619D01*
X103314285Y-80500000D01*
X103219047Y-80452380D01*
X103028571Y-80452380D01*
X102933333Y-80500000D01*
X102885714Y-80547619D01*
X102838095Y-80642857D01*
X102838095Y-80690476D01*
X102885714Y-80785714D01*
X102933333Y-80833333D01*
X103028571Y-80880952D01*
X103219047Y-80880952D01*
X103314285Y-80928571D01*
X103361904Y-80976190D01*
X103409523Y-81071428D01*
X103409523Y-81261904D01*
X103361904Y-81357142D01*
X103314285Y-81404761D01*
X103219047Y-81452380D01*
X103028571Y-81452380D01*
X102933333Y-81404761D01*
X102885714Y-81357142D01*
X102838095Y-81261904D01*
X102838095Y-81071428D01*
X102885714Y-80976190D01*
X102933333Y-80928571D01*
X103028571Y-80880952D01*
%TO.C,R47*%
X103055657Y-72639180D02*
X103388990Y-72162990D01*
X103627085Y-72639180D02*
X103627085Y-71639180D01*
X103246133Y-71639180D01*
X103150895Y-71686800D01*
X103103276Y-71734419D01*
X103055657Y-71829657D01*
X103055657Y-71972514D01*
X103103276Y-72067752D01*
X103150895Y-72115371D01*
X103246133Y-72162990D01*
X103627085Y-72162990D01*
X102198514Y-71972514D02*
X102198514Y-72639180D01*
X102436609Y-71591561D02*
X102674704Y-72305847D01*
X102055657Y-72305847D01*
X101769942Y-71639180D02*
X101103276Y-71639180D01*
X101531847Y-72639180D01*
%TO.C,R26*%
X148942857Y-55352380D02*
X149276190Y-54876190D01*
X149514285Y-55352380D02*
X149514285Y-54352380D01*
X149133333Y-54352380D01*
X149038095Y-54400000D01*
X148990476Y-54447619D01*
X148942857Y-54542857D01*
X148942857Y-54685714D01*
X148990476Y-54780952D01*
X149038095Y-54828571D01*
X149133333Y-54876190D01*
X149514285Y-54876190D01*
X148561904Y-54447619D02*
X148514285Y-54400000D01*
X148419047Y-54352380D01*
X148180952Y-54352380D01*
X148085714Y-54400000D01*
X148038095Y-54447619D01*
X147990476Y-54542857D01*
X147990476Y-54638095D01*
X148038095Y-54780952D01*
X148609523Y-55352380D01*
X147990476Y-55352380D01*
X147133333Y-54352380D02*
X147323809Y-54352380D01*
X147419047Y-54400000D01*
X147466666Y-54447619D01*
X147561904Y-54590476D01*
X147609523Y-54780952D01*
X147609523Y-55161904D01*
X147561904Y-55257142D01*
X147514285Y-55304761D01*
X147419047Y-55352380D01*
X147228571Y-55352380D01*
X147133333Y-55304761D01*
X147085714Y-55257142D01*
X147038095Y-55161904D01*
X147038095Y-54923809D01*
X147085714Y-54828571D01*
X147133333Y-54780952D01*
X147228571Y-54733333D01*
X147419047Y-54733333D01*
X147514285Y-54780952D01*
X147561904Y-54828571D01*
X147609523Y-54923809D01*
%TO.C,RN3*%
X169890476Y-75752380D02*
X170223809Y-75276190D01*
X170461904Y-75752380D02*
X170461904Y-74752380D01*
X170080952Y-74752380D01*
X169985714Y-74800000D01*
X169938095Y-74847619D01*
X169890476Y-74942857D01*
X169890476Y-75085714D01*
X169938095Y-75180952D01*
X169985714Y-75228571D01*
X170080952Y-75276190D01*
X170461904Y-75276190D01*
X169461904Y-75752380D02*
X169461904Y-74752380D01*
X168890476Y-75752380D01*
X168890476Y-74752380D01*
X168509523Y-74752380D02*
X167890476Y-74752380D01*
X168223809Y-75133333D01*
X168080952Y-75133333D01*
X167985714Y-75180952D01*
X167938095Y-75228571D01*
X167890476Y-75323809D01*
X167890476Y-75561904D01*
X167938095Y-75657142D01*
X167985714Y-75704761D01*
X168080952Y-75752380D01*
X168366666Y-75752380D01*
X168461904Y-75704761D01*
X168509523Y-75657142D01*
%TO.C,JP5*%
X112055066Y-69810380D02*
X111721733Y-70810380D01*
X111388400Y-69810380D01*
X110626495Y-70810380D02*
X110626495Y-70286571D01*
X110674114Y-70191333D01*
X110769352Y-70143714D01*
X110959828Y-70143714D01*
X111055066Y-70191333D01*
X110626495Y-70762761D02*
X110721733Y-70810380D01*
X110959828Y-70810380D01*
X111055066Y-70762761D01*
X111102685Y-70667523D01*
X111102685Y-70572285D01*
X111055066Y-70477047D01*
X110959828Y-70429428D01*
X110721733Y-70429428D01*
X110626495Y-70381809D01*
X109721733Y-70810380D02*
X109721733Y-69810380D01*
X109721733Y-70762761D02*
X109816971Y-70810380D01*
X110007447Y-70810380D01*
X110102685Y-70762761D01*
X110150304Y-70715142D01*
X110197923Y-70619904D01*
X110197923Y-70334190D01*
X110150304Y-70238952D01*
X110102685Y-70191333D01*
X110007447Y-70143714D01*
X109816971Y-70143714D01*
X109721733Y-70191333D01*
X108816971Y-70762761D02*
X108912209Y-70810380D01*
X109102685Y-70810380D01*
X109197923Y-70762761D01*
X109245542Y-70715142D01*
X109293161Y-70619904D01*
X109293161Y-70334190D01*
X109245542Y-70238952D01*
X109197923Y-70191333D01*
X109102685Y-70143714D01*
X108912209Y-70143714D01*
X108816971Y-70191333D01*
%TO.C,D8*%
X121237791Y-66085980D02*
X121237791Y-65085980D01*
X120999696Y-65085980D01*
X120856838Y-65133600D01*
X120761600Y-65228838D01*
X120713981Y-65324076D01*
X120666362Y-65514552D01*
X120666362Y-65657409D01*
X120713981Y-65847885D01*
X120761600Y-65943123D01*
X120856838Y-66038361D01*
X120999696Y-66085980D01*
X121237791Y-66085980D01*
X120094934Y-65514552D02*
X120190172Y-65466933D01*
X120237791Y-65419314D01*
X120285410Y-65324076D01*
X120285410Y-65276457D01*
X120237791Y-65181219D01*
X120190172Y-65133600D01*
X120094934Y-65085980D01*
X119904457Y-65085980D01*
X119809219Y-65133600D01*
X119761600Y-65181219D01*
X119713981Y-65276457D01*
X119713981Y-65324076D01*
X119761600Y-65419314D01*
X119809219Y-65466933D01*
X119904457Y-65514552D01*
X120094934Y-65514552D01*
X120190172Y-65562171D01*
X120237791Y-65609790D01*
X120285410Y-65705028D01*
X120285410Y-65895504D01*
X120237791Y-65990742D01*
X120190172Y-66038361D01*
X120094934Y-66085980D01*
X119904457Y-66085980D01*
X119809219Y-66038361D01*
X119761600Y-65990742D01*
X119713981Y-65895504D01*
X119713981Y-65705028D01*
X119761600Y-65609790D01*
X119809219Y-65562171D01*
X119904457Y-65514552D01*
%TO.C,R3*%
X126266666Y-100629980D02*
X126600000Y-100153790D01*
X126838095Y-100629980D02*
X126838095Y-99629980D01*
X126457142Y-99629980D01*
X126361904Y-99677600D01*
X126314285Y-99725219D01*
X126266666Y-99820457D01*
X126266666Y-99963314D01*
X126314285Y-100058552D01*
X126361904Y-100106171D01*
X126457142Y-100153790D01*
X126838095Y-100153790D01*
X125933333Y-99629980D02*
X125314285Y-99629980D01*
X125647619Y-100010933D01*
X125504761Y-100010933D01*
X125409523Y-100058552D01*
X125361904Y-100106171D01*
X125314285Y-100201409D01*
X125314285Y-100439504D01*
X125361904Y-100534742D01*
X125409523Y-100582361D01*
X125504761Y-100629980D01*
X125790476Y-100629980D01*
X125885714Y-100582361D01*
X125933333Y-100534742D01*
%TO.C,R46*%
X156243257Y-67254380D02*
X156576590Y-66778190D01*
X156814685Y-67254380D02*
X156814685Y-66254380D01*
X156433733Y-66254380D01*
X156338495Y-66302000D01*
X156290876Y-66349619D01*
X156243257Y-66444857D01*
X156243257Y-66587714D01*
X156290876Y-66682952D01*
X156338495Y-66730571D01*
X156433733Y-66778190D01*
X156814685Y-66778190D01*
X155386114Y-66587714D02*
X155386114Y-67254380D01*
X155624209Y-66206761D02*
X155862304Y-66921047D01*
X155243257Y-66921047D01*
X154433733Y-66254380D02*
X154624209Y-66254380D01*
X154719447Y-66302000D01*
X154767066Y-66349619D01*
X154862304Y-66492476D01*
X154909923Y-66682952D01*
X154909923Y-67063904D01*
X154862304Y-67159142D01*
X154814685Y-67206761D01*
X154719447Y-67254380D01*
X154528971Y-67254380D01*
X154433733Y-67206761D01*
X154386114Y-67159142D01*
X154338495Y-67063904D01*
X154338495Y-66825809D01*
X154386114Y-66730571D01*
X154433733Y-66682952D01*
X154528971Y-66635333D01*
X154719447Y-66635333D01*
X154814685Y-66682952D01*
X154862304Y-66730571D01*
X154909923Y-66825809D01*
%TO.C,U8*%
X104261904Y-64552380D02*
X104261904Y-65361904D01*
X104214285Y-65457142D01*
X104166666Y-65504761D01*
X104071428Y-65552380D01*
X103880952Y-65552380D01*
X103785714Y-65504761D01*
X103738095Y-65457142D01*
X103690476Y-65361904D01*
X103690476Y-64552380D01*
X103071428Y-64980952D02*
X103166666Y-64933333D01*
X103214285Y-64885714D01*
X103261904Y-64790476D01*
X103261904Y-64742857D01*
X103214285Y-64647619D01*
X103166666Y-64600000D01*
X103071428Y-64552380D01*
X102880952Y-64552380D01*
X102785714Y-64600000D01*
X102738095Y-64647619D01*
X102690476Y-64742857D01*
X102690476Y-64790476D01*
X102738095Y-64885714D01*
X102785714Y-64933333D01*
X102880952Y-64980952D01*
X103071428Y-64980952D01*
X103166666Y-65028571D01*
X103214285Y-65076190D01*
X103261904Y-65171428D01*
X103261904Y-65361904D01*
X103214285Y-65457142D01*
X103166666Y-65504761D01*
X103071428Y-65552380D01*
X102880952Y-65552380D01*
X102785714Y-65504761D01*
X102738095Y-65457142D01*
X102690476Y-65361904D01*
X102690476Y-65171428D01*
X102738095Y-65076190D01*
X102785714Y-65028571D01*
X102880952Y-64980952D01*
%TO.C,Q6*%
X122421638Y-82691219D02*
X122516876Y-82643600D01*
X122612114Y-82548361D01*
X122754971Y-82405504D01*
X122850209Y-82357885D01*
X122945447Y-82357885D01*
X122897828Y-82595980D02*
X122993066Y-82548361D01*
X123088304Y-82453123D01*
X123135923Y-82262647D01*
X123135923Y-81929314D01*
X123088304Y-81738838D01*
X122993066Y-81643600D01*
X122897828Y-81595980D01*
X122707352Y-81595980D01*
X122612114Y-81643600D01*
X122516876Y-81738838D01*
X122469257Y-81929314D01*
X122469257Y-82262647D01*
X122516876Y-82453123D01*
X122612114Y-82548361D01*
X122707352Y-82595980D01*
X122897828Y-82595980D01*
X121612114Y-81595980D02*
X121802590Y-81595980D01*
X121897828Y-81643600D01*
X121945447Y-81691219D01*
X122040685Y-81834076D01*
X122088304Y-82024552D01*
X122088304Y-82405504D01*
X122040685Y-82500742D01*
X121993066Y-82548361D01*
X121897828Y-82595980D01*
X121707352Y-82595980D01*
X121612114Y-82548361D01*
X121564495Y-82500742D01*
X121516876Y-82405504D01*
X121516876Y-82167409D01*
X121564495Y-82072171D01*
X121612114Y-82024552D01*
X121707352Y-81976933D01*
X121897828Y-81976933D01*
X121993066Y-82024552D01*
X122040685Y-82072171D01*
X122088304Y-82167409D01*
%TO.C,R18*%
X171991257Y-97124780D02*
X172324590Y-96648590D01*
X172562685Y-97124780D02*
X172562685Y-96124780D01*
X172181733Y-96124780D01*
X172086495Y-96172400D01*
X172038876Y-96220019D01*
X171991257Y-96315257D01*
X171991257Y-96458114D01*
X172038876Y-96553352D01*
X172086495Y-96600971D01*
X172181733Y-96648590D01*
X172562685Y-96648590D01*
X171038876Y-97124780D02*
X171610304Y-97124780D01*
X171324590Y-97124780D02*
X171324590Y-96124780D01*
X171419828Y-96267638D01*
X171515066Y-96362876D01*
X171610304Y-96410495D01*
X170467447Y-96553352D02*
X170562685Y-96505733D01*
X170610304Y-96458114D01*
X170657923Y-96362876D01*
X170657923Y-96315257D01*
X170610304Y-96220019D01*
X170562685Y-96172400D01*
X170467447Y-96124780D01*
X170276971Y-96124780D01*
X170181733Y-96172400D01*
X170134114Y-96220019D01*
X170086495Y-96315257D01*
X170086495Y-96362876D01*
X170134114Y-96458114D01*
X170181733Y-96505733D01*
X170276971Y-96553352D01*
X170467447Y-96553352D01*
X170562685Y-96600971D01*
X170610304Y-96648590D01*
X170657923Y-96743828D01*
X170657923Y-96934304D01*
X170610304Y-97029542D01*
X170562685Y-97077161D01*
X170467447Y-97124780D01*
X170276971Y-97124780D01*
X170181733Y-97077161D01*
X170134114Y-97029542D01*
X170086495Y-96934304D01*
X170086495Y-96743828D01*
X170134114Y-96648590D01*
X170181733Y-96600971D01*
X170276971Y-96553352D01*
%TO.C,RN5*%
X169690476Y-65452380D02*
X170023809Y-64976190D01*
X170261904Y-65452380D02*
X170261904Y-64452380D01*
X169880952Y-64452380D01*
X169785714Y-64500000D01*
X169738095Y-64547619D01*
X169690476Y-64642857D01*
X169690476Y-64785714D01*
X169738095Y-64880952D01*
X169785714Y-64928571D01*
X169880952Y-64976190D01*
X170261904Y-64976190D01*
X169261904Y-65452380D02*
X169261904Y-64452380D01*
X168690476Y-65452380D01*
X168690476Y-64452380D01*
X167738095Y-64452380D02*
X168214285Y-64452380D01*
X168261904Y-64928571D01*
X168214285Y-64880952D01*
X168119047Y-64833333D01*
X167880952Y-64833333D01*
X167785714Y-64880952D01*
X167738095Y-64928571D01*
X167690476Y-65023809D01*
X167690476Y-65261904D01*
X167738095Y-65357142D01*
X167785714Y-65404761D01*
X167880952Y-65452380D01*
X168119047Y-65452380D01*
X168214285Y-65404761D01*
X168261904Y-65357142D01*
%TO.C,JP2*%
X170166666Y-80752380D02*
X170166666Y-81561904D01*
X170119047Y-81657142D01*
X170071428Y-81704761D01*
X169976190Y-81752380D01*
X169785714Y-81752380D01*
X169690476Y-81704761D01*
X169642857Y-81657142D01*
X169595238Y-81561904D01*
X169595238Y-80752380D01*
X169166666Y-81704761D02*
X169023809Y-81752380D01*
X168785714Y-81752380D01*
X168690476Y-81704761D01*
X168642857Y-81657142D01*
X168595238Y-81561904D01*
X168595238Y-81466666D01*
X168642857Y-81371428D01*
X168690476Y-81323809D01*
X168785714Y-81276190D01*
X168976190Y-81228571D01*
X169071428Y-81180952D01*
X169119047Y-81133333D01*
X169166666Y-81038095D01*
X169166666Y-80942857D01*
X169119047Y-80847619D01*
X169071428Y-80800000D01*
X168976190Y-80752380D01*
X168738095Y-80752380D01*
X168595238Y-80800000D01*
X167833333Y-81228571D02*
X167690476Y-81276190D01*
X167642857Y-81323809D01*
X167595238Y-81419047D01*
X167595238Y-81561904D01*
X167642857Y-81657142D01*
X167690476Y-81704761D01*
X167785714Y-81752380D01*
X168166666Y-81752380D01*
X168166666Y-80752380D01*
X167833333Y-80752380D01*
X167738095Y-80800000D01*
X167690476Y-80847619D01*
X167642857Y-80942857D01*
X167642857Y-81038095D01*
X167690476Y-81133333D01*
X167738095Y-81180952D01*
X167833333Y-81228571D01*
X168166666Y-81228571D01*
X166690476Y-80752380D02*
X167166666Y-80752380D01*
X167214285Y-81228571D01*
X167166666Y-81180952D01*
X167071428Y-81133333D01*
X166833333Y-81133333D01*
X166738095Y-81180952D01*
X166690476Y-81228571D01*
X166642857Y-81323809D01*
X166642857Y-81561904D01*
X166690476Y-81657142D01*
X166738095Y-81704761D01*
X166833333Y-81752380D01*
X167071428Y-81752380D01*
X167166666Y-81704761D01*
X167214285Y-81657142D01*
X166357142Y-80752380D02*
X166023809Y-81752380D01*
X165690476Y-80752380D01*
%TO.C,D7*%
X146138095Y-119452380D02*
X146138095Y-118452380D01*
X145900000Y-118452380D01*
X145757142Y-118500000D01*
X145661904Y-118595238D01*
X145614285Y-118690476D01*
X145566666Y-118880952D01*
X145566666Y-119023809D01*
X145614285Y-119214285D01*
X145661904Y-119309523D01*
X145757142Y-119404761D01*
X145900000Y-119452380D01*
X146138095Y-119452380D01*
X145233333Y-118452380D02*
X144566666Y-118452380D01*
X144995238Y-119452380D01*
%TO.C,R9*%
X136513866Y-100528380D02*
X136847200Y-100052190D01*
X137085295Y-100528380D02*
X137085295Y-99528380D01*
X136704342Y-99528380D01*
X136609104Y-99576000D01*
X136561485Y-99623619D01*
X136513866Y-99718857D01*
X136513866Y-99861714D01*
X136561485Y-99956952D01*
X136609104Y-100004571D01*
X136704342Y-100052190D01*
X137085295Y-100052190D01*
X136037676Y-100528380D02*
X135847200Y-100528380D01*
X135751961Y-100480761D01*
X135704342Y-100433142D01*
X135609104Y-100290285D01*
X135561485Y-100099809D01*
X135561485Y-99718857D01*
X135609104Y-99623619D01*
X135656723Y-99576000D01*
X135751961Y-99528380D01*
X135942438Y-99528380D01*
X136037676Y-99576000D01*
X136085295Y-99623619D01*
X136132914Y-99718857D01*
X136132914Y-99956952D01*
X136085295Y-100052190D01*
X136037676Y-100099809D01*
X135942438Y-100147428D01*
X135751961Y-100147428D01*
X135656723Y-100099809D01*
X135609104Y-100052190D01*
X135561485Y-99956952D01*
%TO.C,RN1*%
X160190476Y-69352380D02*
X160523809Y-68876190D01*
X160761904Y-69352380D02*
X160761904Y-68352380D01*
X160380952Y-68352380D01*
X160285714Y-68400000D01*
X160238095Y-68447619D01*
X160190476Y-68542857D01*
X160190476Y-68685714D01*
X160238095Y-68780952D01*
X160285714Y-68828571D01*
X160380952Y-68876190D01*
X160761904Y-68876190D01*
X159761904Y-69352380D02*
X159761904Y-68352380D01*
X159190476Y-69352380D01*
X159190476Y-68352380D01*
X158190476Y-69352380D02*
X158761904Y-69352380D01*
X158476190Y-69352380D02*
X158476190Y-68352380D01*
X158571428Y-68495238D01*
X158666666Y-68590476D01*
X158761904Y-68638095D01*
%TO.C,C10*%
X139242857Y-96427142D02*
X139290476Y-96474761D01*
X139433333Y-96522380D01*
X139528571Y-96522380D01*
X139671428Y-96474761D01*
X139766666Y-96379523D01*
X139814285Y-96284285D01*
X139861904Y-96093809D01*
X139861904Y-95950952D01*
X139814285Y-95760476D01*
X139766666Y-95665238D01*
X139671428Y-95570000D01*
X139528571Y-95522380D01*
X139433333Y-95522380D01*
X139290476Y-95570000D01*
X139242857Y-95617619D01*
X138290476Y-96522380D02*
X138861904Y-96522380D01*
X138576190Y-96522380D02*
X138576190Y-95522380D01*
X138671428Y-95665238D01*
X138766666Y-95760476D01*
X138861904Y-95808095D01*
X137671428Y-95522380D02*
X137576190Y-95522380D01*
X137480952Y-95570000D01*
X137433333Y-95617619D01*
X137385714Y-95712857D01*
X137338095Y-95903333D01*
X137338095Y-96141428D01*
X137385714Y-96331904D01*
X137433333Y-96427142D01*
X137480952Y-96474761D01*
X137576190Y-96522380D01*
X137671428Y-96522380D01*
X137766666Y-96474761D01*
X137814285Y-96427142D01*
X137861904Y-96331904D01*
X137909523Y-96141428D01*
X137909523Y-95903333D01*
X137861904Y-95712857D01*
X137814285Y-95617619D01*
X137766666Y-95570000D01*
X137671428Y-95522380D01*
%TO.C,Q8*%
X111499638Y-76696819D02*
X111594876Y-76649200D01*
X111690114Y-76553961D01*
X111832971Y-76411104D01*
X111928209Y-76363485D01*
X112023447Y-76363485D01*
X111975828Y-76601580D02*
X112071066Y-76553961D01*
X112166304Y-76458723D01*
X112213923Y-76268247D01*
X112213923Y-75934914D01*
X112166304Y-75744438D01*
X112071066Y-75649200D01*
X111975828Y-75601580D01*
X111785352Y-75601580D01*
X111690114Y-75649200D01*
X111594876Y-75744438D01*
X111547257Y-75934914D01*
X111547257Y-76268247D01*
X111594876Y-76458723D01*
X111690114Y-76553961D01*
X111785352Y-76601580D01*
X111975828Y-76601580D01*
X110975828Y-76030152D02*
X111071066Y-75982533D01*
X111118685Y-75934914D01*
X111166304Y-75839676D01*
X111166304Y-75792057D01*
X111118685Y-75696819D01*
X111071066Y-75649200D01*
X110975828Y-75601580D01*
X110785352Y-75601580D01*
X110690114Y-75649200D01*
X110642495Y-75696819D01*
X110594876Y-75792057D01*
X110594876Y-75839676D01*
X110642495Y-75934914D01*
X110690114Y-75982533D01*
X110785352Y-76030152D01*
X110975828Y-76030152D01*
X111071066Y-76077771D01*
X111118685Y-76125390D01*
X111166304Y-76220628D01*
X111166304Y-76411104D01*
X111118685Y-76506342D01*
X111071066Y-76553961D01*
X110975828Y-76601580D01*
X110785352Y-76601580D01*
X110690114Y-76553961D01*
X110642495Y-76506342D01*
X110594876Y-76411104D01*
X110594876Y-76220628D01*
X110642495Y-76125390D01*
X110690114Y-76077771D01*
X110785352Y-76030152D01*
%TO.C,C18*%
X118642857Y-98957142D02*
X118690476Y-99004761D01*
X118833333Y-99052380D01*
X118928571Y-99052380D01*
X119071428Y-99004761D01*
X119166666Y-98909523D01*
X119214285Y-98814285D01*
X119261904Y-98623809D01*
X119261904Y-98480952D01*
X119214285Y-98290476D01*
X119166666Y-98195238D01*
X119071428Y-98100000D01*
X118928571Y-98052380D01*
X118833333Y-98052380D01*
X118690476Y-98100000D01*
X118642857Y-98147619D01*
X117690476Y-99052380D02*
X118261904Y-99052380D01*
X117976190Y-99052380D02*
X117976190Y-98052380D01*
X118071428Y-98195238D01*
X118166666Y-98290476D01*
X118261904Y-98338095D01*
X117119047Y-98480952D02*
X117214285Y-98433333D01*
X117261904Y-98385714D01*
X117309523Y-98290476D01*
X117309523Y-98242857D01*
X117261904Y-98147619D01*
X117214285Y-98100000D01*
X117119047Y-98052380D01*
X116928571Y-98052380D01*
X116833333Y-98100000D01*
X116785714Y-98147619D01*
X116738095Y-98242857D01*
X116738095Y-98290476D01*
X116785714Y-98385714D01*
X116833333Y-98433333D01*
X116928571Y-98480952D01*
X117119047Y-98480952D01*
X117214285Y-98528571D01*
X117261904Y-98576190D01*
X117309523Y-98671428D01*
X117309523Y-98861904D01*
X117261904Y-98957142D01*
X117214285Y-99004761D01*
X117119047Y-99052380D01*
X116928571Y-99052380D01*
X116833333Y-99004761D01*
X116785714Y-98957142D01*
X116738095Y-98861904D01*
X116738095Y-98671428D01*
X116785714Y-98576190D01*
X116833333Y-98528571D01*
X116928571Y-98480952D01*
%TO.C,R27*%
X155430457Y-59880780D02*
X155763790Y-59404590D01*
X156001885Y-59880780D02*
X156001885Y-58880780D01*
X155620933Y-58880780D01*
X155525695Y-58928400D01*
X155478076Y-58976019D01*
X155430457Y-59071257D01*
X155430457Y-59214114D01*
X155478076Y-59309352D01*
X155525695Y-59356971D01*
X155620933Y-59404590D01*
X156001885Y-59404590D01*
X155049504Y-58976019D02*
X155001885Y-58928400D01*
X154906647Y-58880780D01*
X154668552Y-58880780D01*
X154573314Y-58928400D01*
X154525695Y-58976019D01*
X154478076Y-59071257D01*
X154478076Y-59166495D01*
X154525695Y-59309352D01*
X155097123Y-59880780D01*
X154478076Y-59880780D01*
X154144742Y-58880780D02*
X153478076Y-58880780D01*
X153906647Y-59880780D01*
%TO.C,R19*%
X165642857Y-119552380D02*
X165976190Y-119076190D01*
X166214285Y-119552380D02*
X166214285Y-118552380D01*
X165833333Y-118552380D01*
X165738095Y-118600000D01*
X165690476Y-118647619D01*
X165642857Y-118742857D01*
X165642857Y-118885714D01*
X165690476Y-118980952D01*
X165738095Y-119028571D01*
X165833333Y-119076190D01*
X166214285Y-119076190D01*
X164690476Y-119552380D02*
X165261904Y-119552380D01*
X164976190Y-119552380D02*
X164976190Y-118552380D01*
X165071428Y-118695238D01*
X165166666Y-118790476D01*
X165261904Y-118838095D01*
X164214285Y-119552380D02*
X164023809Y-119552380D01*
X163928571Y-119504761D01*
X163880952Y-119457142D01*
X163785714Y-119314285D01*
X163738095Y-119123809D01*
X163738095Y-118742857D01*
X163785714Y-118647619D01*
X163833333Y-118600000D01*
X163928571Y-118552380D01*
X164119047Y-118552380D01*
X164214285Y-118600000D01*
X164261904Y-118647619D01*
X164309523Y-118742857D01*
X164309523Y-118980952D01*
X164261904Y-119076190D01*
X164214285Y-119123809D01*
X164119047Y-119171428D01*
X163928571Y-119171428D01*
X163833333Y-119123809D01*
X163785714Y-119076190D01*
X163738095Y-118980952D01*
%TO.C,R43*%
X134805657Y-85593180D02*
X135138990Y-85116990D01*
X135377085Y-85593180D02*
X135377085Y-84593180D01*
X134996133Y-84593180D01*
X134900895Y-84640800D01*
X134853276Y-84688419D01*
X134805657Y-84783657D01*
X134805657Y-84926514D01*
X134853276Y-85021752D01*
X134900895Y-85069371D01*
X134996133Y-85116990D01*
X135377085Y-85116990D01*
X133948514Y-84926514D02*
X133948514Y-85593180D01*
X134186609Y-84545561D02*
X134424704Y-85259847D01*
X133805657Y-85259847D01*
X133519942Y-84593180D02*
X132900895Y-84593180D01*
X133234228Y-84974133D01*
X133091371Y-84974133D01*
X132996133Y-85021752D01*
X132948514Y-85069371D01*
X132900895Y-85164609D01*
X132900895Y-85402704D01*
X132948514Y-85497942D01*
X132996133Y-85545561D01*
X133091371Y-85593180D01*
X133377085Y-85593180D01*
X133472323Y-85545561D01*
X133519942Y-85497942D01*
%TO.C,C13*%
X154262057Y-110440742D02*
X154309676Y-110488361D01*
X154452533Y-110535980D01*
X154547771Y-110535980D01*
X154690628Y-110488361D01*
X154785866Y-110393123D01*
X154833485Y-110297885D01*
X154881104Y-110107409D01*
X154881104Y-109964552D01*
X154833485Y-109774076D01*
X154785866Y-109678838D01*
X154690628Y-109583600D01*
X154547771Y-109535980D01*
X154452533Y-109535980D01*
X154309676Y-109583600D01*
X154262057Y-109631219D01*
X153309676Y-110535980D02*
X153881104Y-110535980D01*
X153595390Y-110535980D02*
X153595390Y-109535980D01*
X153690628Y-109678838D01*
X153785866Y-109774076D01*
X153881104Y-109821695D01*
X152976342Y-109535980D02*
X152357295Y-109535980D01*
X152690628Y-109916933D01*
X152547771Y-109916933D01*
X152452533Y-109964552D01*
X152404914Y-110012171D01*
X152357295Y-110107409D01*
X152357295Y-110345504D01*
X152404914Y-110440742D01*
X152452533Y-110488361D01*
X152547771Y-110535980D01*
X152833485Y-110535980D01*
X152928723Y-110488361D01*
X152976342Y-110440742D01*
%TO.C,U2*%
X163896704Y-99670780D02*
X163896704Y-100480304D01*
X163849085Y-100575542D01*
X163801466Y-100623161D01*
X163706228Y-100670780D01*
X163515752Y-100670780D01*
X163420514Y-100623161D01*
X163372895Y-100575542D01*
X163325276Y-100480304D01*
X163325276Y-99670780D01*
X162896704Y-99766019D02*
X162849085Y-99718400D01*
X162753847Y-99670780D01*
X162515752Y-99670780D01*
X162420514Y-99718400D01*
X162372895Y-99766019D01*
X162325276Y-99861257D01*
X162325276Y-99956495D01*
X162372895Y-100099352D01*
X162944323Y-100670780D01*
X162325276Y-100670780D01*
%TO.C,U6*%
X103961904Y-84452380D02*
X103961904Y-85261904D01*
X103914285Y-85357142D01*
X103866666Y-85404761D01*
X103771428Y-85452380D01*
X103580952Y-85452380D01*
X103485714Y-85404761D01*
X103438095Y-85357142D01*
X103390476Y-85261904D01*
X103390476Y-84452380D01*
X102485714Y-84452380D02*
X102676190Y-84452380D01*
X102771428Y-84500000D01*
X102819047Y-84547619D01*
X102914285Y-84690476D01*
X102961904Y-84880952D01*
X102961904Y-85261904D01*
X102914285Y-85357142D01*
X102866666Y-85404761D01*
X102771428Y-85452380D01*
X102580952Y-85452380D01*
X102485714Y-85404761D01*
X102438095Y-85357142D01*
X102390476Y-85261904D01*
X102390476Y-85023809D01*
X102438095Y-84928571D01*
X102485714Y-84880952D01*
X102580952Y-84833333D01*
X102771428Y-84833333D01*
X102866666Y-84880952D01*
X102914285Y-84928571D01*
X102961904Y-85023809D01*
%TO.C,D3*%
X138338095Y-123652380D02*
X138338095Y-122652380D01*
X138100000Y-122652380D01*
X137957142Y-122700000D01*
X137861904Y-122795238D01*
X137814285Y-122890476D01*
X137766666Y-123080952D01*
X137766666Y-123223809D01*
X137814285Y-123414285D01*
X137861904Y-123509523D01*
X137957142Y-123604761D01*
X138100000Y-123652380D01*
X138338095Y-123652380D01*
X137433333Y-122652380D02*
X136814285Y-122652380D01*
X137147619Y-123033333D01*
X137004761Y-123033333D01*
X136909523Y-123080952D01*
X136861904Y-123128571D01*
X136814285Y-123223809D01*
X136814285Y-123461904D01*
X136861904Y-123557142D01*
X136909523Y-123604761D01*
X137004761Y-123652380D01*
X137290476Y-123652380D01*
X137385714Y-123604761D01*
X137433333Y-123557142D01*
%TO.C,R21*%
X150918857Y-57106780D02*
X151252190Y-56630590D01*
X151490285Y-57106780D02*
X151490285Y-56106780D01*
X151109333Y-56106780D01*
X151014095Y-56154400D01*
X150966476Y-56202019D01*
X150918857Y-56297257D01*
X150918857Y-56440114D01*
X150966476Y-56535352D01*
X151014095Y-56582971D01*
X151109333Y-56630590D01*
X151490285Y-56630590D01*
X150537904Y-56202019D02*
X150490285Y-56154400D01*
X150395047Y-56106780D01*
X150156952Y-56106780D01*
X150061714Y-56154400D01*
X150014095Y-56202019D01*
X149966476Y-56297257D01*
X149966476Y-56392495D01*
X150014095Y-56535352D01*
X150585523Y-57106780D01*
X149966476Y-57106780D01*
X149014095Y-57106780D02*
X149585523Y-57106780D01*
X149299809Y-57106780D02*
X149299809Y-56106780D01*
X149395047Y-56249638D01*
X149490285Y-56344876D01*
X149585523Y-56392495D01*
%TO.C,R10*%
X131910057Y-85593180D02*
X132243390Y-85116990D01*
X132481485Y-85593180D02*
X132481485Y-84593180D01*
X132100533Y-84593180D01*
X132005295Y-84640800D01*
X131957676Y-84688419D01*
X131910057Y-84783657D01*
X131910057Y-84926514D01*
X131957676Y-85021752D01*
X132005295Y-85069371D01*
X132100533Y-85116990D01*
X132481485Y-85116990D01*
X130957676Y-85593180D02*
X131529104Y-85593180D01*
X131243390Y-85593180D02*
X131243390Y-84593180D01*
X131338628Y-84736038D01*
X131433866Y-84831276D01*
X131529104Y-84878895D01*
X130338628Y-84593180D02*
X130243390Y-84593180D01*
X130148152Y-84640800D01*
X130100533Y-84688419D01*
X130052914Y-84783657D01*
X130005295Y-84974133D01*
X130005295Y-85212228D01*
X130052914Y-85402704D01*
X130100533Y-85497942D01*
X130148152Y-85545561D01*
X130243390Y-85593180D01*
X130338628Y-85593180D01*
X130433866Y-85545561D01*
X130481485Y-85497942D01*
X130529104Y-85402704D01*
X130576723Y-85212228D01*
X130576723Y-84974133D01*
X130529104Y-84783657D01*
X130481485Y-84688419D01*
X130433866Y-84640800D01*
X130338628Y-84593180D01*
%TO.C,R42*%
X137802857Y-85542380D02*
X138136190Y-85066190D01*
X138374285Y-85542380D02*
X138374285Y-84542380D01*
X137993333Y-84542380D01*
X137898095Y-84590000D01*
X137850476Y-84637619D01*
X137802857Y-84732857D01*
X137802857Y-84875714D01*
X137850476Y-84970952D01*
X137898095Y-85018571D01*
X137993333Y-85066190D01*
X138374285Y-85066190D01*
X136945714Y-84875714D02*
X136945714Y-85542380D01*
X137183809Y-84494761D02*
X137421904Y-85209047D01*
X136802857Y-85209047D01*
X136469523Y-84637619D02*
X136421904Y-84590000D01*
X136326666Y-84542380D01*
X136088571Y-84542380D01*
X135993333Y-84590000D01*
X135945714Y-84637619D01*
X135898095Y-84732857D01*
X135898095Y-84828095D01*
X135945714Y-84970952D01*
X136517142Y-85542380D01*
X135898095Y-85542380D01*
%TO.C,C20*%
X115142857Y-65757142D02*
X115190476Y-65804761D01*
X115333333Y-65852380D01*
X115428571Y-65852380D01*
X115571428Y-65804761D01*
X115666666Y-65709523D01*
X115714285Y-65614285D01*
X115761904Y-65423809D01*
X115761904Y-65280952D01*
X115714285Y-65090476D01*
X115666666Y-64995238D01*
X115571428Y-64900000D01*
X115428571Y-64852380D01*
X115333333Y-64852380D01*
X115190476Y-64900000D01*
X115142857Y-64947619D01*
X114761904Y-64947619D02*
X114714285Y-64900000D01*
X114619047Y-64852380D01*
X114380952Y-64852380D01*
X114285714Y-64900000D01*
X114238095Y-64947619D01*
X114190476Y-65042857D01*
X114190476Y-65138095D01*
X114238095Y-65280952D01*
X114809523Y-65852380D01*
X114190476Y-65852380D01*
X113571428Y-64852380D02*
X113476190Y-64852380D01*
X113380952Y-64900000D01*
X113333333Y-64947619D01*
X113285714Y-65042857D01*
X113238095Y-65233333D01*
X113238095Y-65471428D01*
X113285714Y-65661904D01*
X113333333Y-65757142D01*
X113380952Y-65804761D01*
X113476190Y-65852380D01*
X113571428Y-65852380D01*
X113666666Y-65804761D01*
X113714285Y-65757142D01*
X113761904Y-65661904D01*
X113809523Y-65471428D01*
X113809523Y-65233333D01*
X113761904Y-65042857D01*
X113714285Y-64947619D01*
X113666666Y-64900000D01*
X113571428Y-64852380D01*
%TO.C,D11*%
X104914285Y-83552380D02*
X104914285Y-82552380D01*
X104676190Y-82552380D01*
X104533333Y-82600000D01*
X104438095Y-82695238D01*
X104390476Y-82790476D01*
X104342857Y-82980952D01*
X104342857Y-83123809D01*
X104390476Y-83314285D01*
X104438095Y-83409523D01*
X104533333Y-83504761D01*
X104676190Y-83552380D01*
X104914285Y-83552380D01*
X103390476Y-83552380D02*
X103961904Y-83552380D01*
X103676190Y-83552380D02*
X103676190Y-82552380D01*
X103771428Y-82695238D01*
X103866666Y-82790476D01*
X103961904Y-82838095D01*
X102438095Y-83552380D02*
X103009523Y-83552380D01*
X102723809Y-83552380D02*
X102723809Y-82552380D01*
X102819047Y-82695238D01*
X102914285Y-82790476D01*
X103009523Y-82838095D01*
%TO.C,L2*%
X145966666Y-50152380D02*
X146442857Y-50152380D01*
X146442857Y-49152380D01*
X145680952Y-49247619D02*
X145633333Y-49200000D01*
X145538095Y-49152380D01*
X145300000Y-49152380D01*
X145204761Y-49200000D01*
X145157142Y-49247619D01*
X145109523Y-49342857D01*
X145109523Y-49438095D01*
X145157142Y-49580952D01*
X145728571Y-50152380D01*
X145109523Y-50152380D01*
%TO.C,R15*%
X168892457Y-100629980D02*
X169225790Y-100153790D01*
X169463885Y-100629980D02*
X169463885Y-99629980D01*
X169082933Y-99629980D01*
X168987695Y-99677600D01*
X168940076Y-99725219D01*
X168892457Y-99820457D01*
X168892457Y-99963314D01*
X168940076Y-100058552D01*
X168987695Y-100106171D01*
X169082933Y-100153790D01*
X169463885Y-100153790D01*
X167940076Y-100629980D02*
X168511504Y-100629980D01*
X168225790Y-100629980D02*
X168225790Y-99629980D01*
X168321028Y-99772838D01*
X168416266Y-99868076D01*
X168511504Y-99915695D01*
X167035314Y-99629980D02*
X167511504Y-99629980D01*
X167559123Y-100106171D01*
X167511504Y-100058552D01*
X167416266Y-100010933D01*
X167178171Y-100010933D01*
X167082933Y-100058552D01*
X167035314Y-100106171D01*
X166987695Y-100201409D01*
X166987695Y-100439504D01*
X167035314Y-100534742D01*
X167082933Y-100582361D01*
X167178171Y-100629980D01*
X167416266Y-100629980D01*
X167511504Y-100582361D01*
X167559123Y-100534742D01*
%TO.C,C21*%
X101292857Y-64657142D02*
X101340476Y-64704761D01*
X101483333Y-64752380D01*
X101578571Y-64752380D01*
X101721428Y-64704761D01*
X101816666Y-64609523D01*
X101864285Y-64514285D01*
X101911904Y-64323809D01*
X101911904Y-64180952D01*
X101864285Y-63990476D01*
X101816666Y-63895238D01*
X101721428Y-63800000D01*
X101578571Y-63752380D01*
X101483333Y-63752380D01*
X101340476Y-63800000D01*
X101292857Y-63847619D01*
X100911904Y-63847619D02*
X100864285Y-63800000D01*
X100769047Y-63752380D01*
X100530952Y-63752380D01*
X100435714Y-63800000D01*
X100388095Y-63847619D01*
X100340476Y-63942857D01*
X100340476Y-64038095D01*
X100388095Y-64180952D01*
X100959523Y-64752380D01*
X100340476Y-64752380D01*
X99388095Y-64752380D02*
X99959523Y-64752380D01*
X99673809Y-64752380D02*
X99673809Y-63752380D01*
X99769047Y-63895238D01*
X99864285Y-63990476D01*
X99959523Y-64038095D01*
%TO.C,Q4*%
X134595238Y-104347619D02*
X134690476Y-104300000D01*
X134785714Y-104204761D01*
X134928571Y-104061904D01*
X135023809Y-104014285D01*
X135119047Y-104014285D01*
X135071428Y-104252380D02*
X135166666Y-104204761D01*
X135261904Y-104109523D01*
X135309523Y-103919047D01*
X135309523Y-103585714D01*
X135261904Y-103395238D01*
X135166666Y-103300000D01*
X135071428Y-103252380D01*
X134880952Y-103252380D01*
X134785714Y-103300000D01*
X134690476Y-103395238D01*
X134642857Y-103585714D01*
X134642857Y-103919047D01*
X134690476Y-104109523D01*
X134785714Y-104204761D01*
X134880952Y-104252380D01*
X135071428Y-104252380D01*
X133785714Y-103585714D02*
X133785714Y-104252380D01*
X134023809Y-103204761D02*
X134261904Y-103919047D01*
X133642857Y-103919047D01*
%TO.C,R45*%
X110015257Y-72639180D02*
X110348590Y-72162990D01*
X110586685Y-72639180D02*
X110586685Y-71639180D01*
X110205733Y-71639180D01*
X110110495Y-71686800D01*
X110062876Y-71734419D01*
X110015257Y-71829657D01*
X110015257Y-71972514D01*
X110062876Y-72067752D01*
X110110495Y-72115371D01*
X110205733Y-72162990D01*
X110586685Y-72162990D01*
X109158114Y-71972514D02*
X109158114Y-72639180D01*
X109396209Y-71591561D02*
X109634304Y-72305847D01*
X109015257Y-72305847D01*
X108158114Y-71639180D02*
X108634304Y-71639180D01*
X108681923Y-72115371D01*
X108634304Y-72067752D01*
X108539066Y-72020133D01*
X108300971Y-72020133D01*
X108205733Y-72067752D01*
X108158114Y-72115371D01*
X108110495Y-72210609D01*
X108110495Y-72448704D01*
X108158114Y-72543942D01*
X108205733Y-72591561D01*
X108300971Y-72639180D01*
X108539066Y-72639180D01*
X108634304Y-72591561D01*
X108681923Y-72543942D01*
%TO.C,Q1*%
X123395238Y-104347619D02*
X123490476Y-104300000D01*
X123585714Y-104204761D01*
X123728571Y-104061904D01*
X123823809Y-104014285D01*
X123919047Y-104014285D01*
X123871428Y-104252380D02*
X123966666Y-104204761D01*
X124061904Y-104109523D01*
X124109523Y-103919047D01*
X124109523Y-103585714D01*
X124061904Y-103395238D01*
X123966666Y-103300000D01*
X123871428Y-103252380D01*
X123680952Y-103252380D01*
X123585714Y-103300000D01*
X123490476Y-103395238D01*
X123442857Y-103585714D01*
X123442857Y-103919047D01*
X123490476Y-104109523D01*
X123585714Y-104204761D01*
X123680952Y-104252380D01*
X123871428Y-104252380D01*
X122490476Y-104252380D02*
X123061904Y-104252380D01*
X122776190Y-104252380D02*
X122776190Y-103252380D01*
X122871428Y-103395238D01*
X122966666Y-103490476D01*
X123061904Y-103538095D01*
%TO.C,R20*%
X175642857Y-82382380D02*
X175976190Y-81906190D01*
X176214285Y-82382380D02*
X176214285Y-81382380D01*
X175833333Y-81382380D01*
X175738095Y-81430000D01*
X175690476Y-81477619D01*
X175642857Y-81572857D01*
X175642857Y-81715714D01*
X175690476Y-81810952D01*
X175738095Y-81858571D01*
X175833333Y-81906190D01*
X176214285Y-81906190D01*
X175261904Y-81477619D02*
X175214285Y-81430000D01*
X175119047Y-81382380D01*
X174880952Y-81382380D01*
X174785714Y-81430000D01*
X174738095Y-81477619D01*
X174690476Y-81572857D01*
X174690476Y-81668095D01*
X174738095Y-81810952D01*
X175309523Y-82382380D01*
X174690476Y-82382380D01*
X174071428Y-81382380D02*
X173976190Y-81382380D01*
X173880952Y-81430000D01*
X173833333Y-81477619D01*
X173785714Y-81572857D01*
X173738095Y-81763333D01*
X173738095Y-82001428D01*
X173785714Y-82191904D01*
X173833333Y-82287142D01*
X173880952Y-82334761D01*
X173976190Y-82382380D01*
X174071428Y-82382380D01*
X174166666Y-82334761D01*
X174214285Y-82287142D01*
X174261904Y-82191904D01*
X174309523Y-82001428D01*
X174309523Y-81763333D01*
X174261904Y-81572857D01*
X174214285Y-81477619D01*
X174166666Y-81430000D01*
X174071428Y-81382380D01*
%TO.C,D4*%
X140538095Y-112852380D02*
X140538095Y-111852380D01*
X140300000Y-111852380D01*
X140157142Y-111900000D01*
X140061904Y-111995238D01*
X140014285Y-112090476D01*
X139966666Y-112280952D01*
X139966666Y-112423809D01*
X140014285Y-112614285D01*
X140061904Y-112709523D01*
X140157142Y-112804761D01*
X140300000Y-112852380D01*
X140538095Y-112852380D01*
X139109523Y-112185714D02*
X139109523Y-112852380D01*
X139347619Y-111804761D02*
X139585714Y-112519047D01*
X138966666Y-112519047D01*
%TO.C,C11*%
X143848057Y-105640142D02*
X143895676Y-105687761D01*
X144038533Y-105735380D01*
X144133771Y-105735380D01*
X144276628Y-105687761D01*
X144371866Y-105592523D01*
X144419485Y-105497285D01*
X144467104Y-105306809D01*
X144467104Y-105163952D01*
X144419485Y-104973476D01*
X144371866Y-104878238D01*
X144276628Y-104783000D01*
X144133771Y-104735380D01*
X144038533Y-104735380D01*
X143895676Y-104783000D01*
X143848057Y-104830619D01*
X142895676Y-105735380D02*
X143467104Y-105735380D01*
X143181390Y-105735380D02*
X143181390Y-104735380D01*
X143276628Y-104878238D01*
X143371866Y-104973476D01*
X143467104Y-105021095D01*
X141943295Y-105735380D02*
X142514723Y-105735380D01*
X142229009Y-105735380D02*
X142229009Y-104735380D01*
X142324247Y-104878238D01*
X142419485Y-104973476D01*
X142514723Y-105021095D01*
%TO.C,C5*%
X159246866Y-100306142D02*
X159294485Y-100353761D01*
X159437342Y-100401380D01*
X159532580Y-100401380D01*
X159675438Y-100353761D01*
X159770676Y-100258523D01*
X159818295Y-100163285D01*
X159865914Y-99972809D01*
X159865914Y-99829952D01*
X159818295Y-99639476D01*
X159770676Y-99544238D01*
X159675438Y-99449000D01*
X159532580Y-99401380D01*
X159437342Y-99401380D01*
X159294485Y-99449000D01*
X159246866Y-99496619D01*
X158342104Y-99401380D02*
X158818295Y-99401380D01*
X158865914Y-99877571D01*
X158818295Y-99829952D01*
X158723057Y-99782333D01*
X158484961Y-99782333D01*
X158389723Y-99829952D01*
X158342104Y-99877571D01*
X158294485Y-99972809D01*
X158294485Y-100210904D01*
X158342104Y-100306142D01*
X158389723Y-100353761D01*
X158484961Y-100401380D01*
X158723057Y-100401380D01*
X158818295Y-100353761D01*
X158865914Y-100306142D01*
%TO.C,R40*%
X130742857Y-89252380D02*
X131076190Y-88776190D01*
X131314285Y-89252380D02*
X131314285Y-88252380D01*
X130933333Y-88252380D01*
X130838095Y-88300000D01*
X130790476Y-88347619D01*
X130742857Y-88442857D01*
X130742857Y-88585714D01*
X130790476Y-88680952D01*
X130838095Y-88728571D01*
X130933333Y-88776190D01*
X131314285Y-88776190D01*
X129885714Y-88585714D02*
X129885714Y-89252380D01*
X130123809Y-88204761D02*
X130361904Y-88919047D01*
X129742857Y-88919047D01*
X129171428Y-88252380D02*
X129076190Y-88252380D01*
X128980952Y-88300000D01*
X128933333Y-88347619D01*
X128885714Y-88442857D01*
X128838095Y-88633333D01*
X128838095Y-88871428D01*
X128885714Y-89061904D01*
X128933333Y-89157142D01*
X128980952Y-89204761D01*
X129076190Y-89252380D01*
X129171428Y-89252380D01*
X129266666Y-89204761D01*
X129314285Y-89157142D01*
X129361904Y-89061904D01*
X129409523Y-88871428D01*
X129409523Y-88633333D01*
X129361904Y-88442857D01*
X129314285Y-88347619D01*
X129266666Y-88300000D01*
X129171428Y-88252380D01*
%TO.C,D9*%
X126038095Y-61252380D02*
X126038095Y-60252380D01*
X125800000Y-60252380D01*
X125657142Y-60300000D01*
X125561904Y-60395238D01*
X125514285Y-60490476D01*
X125466666Y-60680952D01*
X125466666Y-60823809D01*
X125514285Y-61014285D01*
X125561904Y-61109523D01*
X125657142Y-61204761D01*
X125800000Y-61252380D01*
X126038095Y-61252380D01*
X124990476Y-61252380D02*
X124800000Y-61252380D01*
X124704761Y-61204761D01*
X124657142Y-61157142D01*
X124561904Y-61014285D01*
X124514285Y-60823809D01*
X124514285Y-60442857D01*
X124561904Y-60347619D01*
X124609523Y-60300000D01*
X124704761Y-60252380D01*
X124895238Y-60252380D01*
X124990476Y-60300000D01*
X125038095Y-60347619D01*
X125085714Y-60442857D01*
X125085714Y-60680952D01*
X125038095Y-60776190D01*
X124990476Y-60823809D01*
X124895238Y-60871428D01*
X124704761Y-60871428D01*
X124609523Y-60823809D01*
X124561904Y-60776190D01*
X124514285Y-60680952D01*
%TO.C,R12*%
X128912857Y-85542380D02*
X129246190Y-85066190D01*
X129484285Y-85542380D02*
X129484285Y-84542380D01*
X129103333Y-84542380D01*
X129008095Y-84590000D01*
X128960476Y-84637619D01*
X128912857Y-84732857D01*
X128912857Y-84875714D01*
X128960476Y-84970952D01*
X129008095Y-85018571D01*
X129103333Y-85066190D01*
X129484285Y-85066190D01*
X127960476Y-85542380D02*
X128531904Y-85542380D01*
X128246190Y-85542380D02*
X128246190Y-84542380D01*
X128341428Y-84685238D01*
X128436666Y-84780476D01*
X128531904Y-84828095D01*
X127579523Y-84637619D02*
X127531904Y-84590000D01*
X127436666Y-84542380D01*
X127198571Y-84542380D01*
X127103333Y-84590000D01*
X127055714Y-84637619D01*
X127008095Y-84732857D01*
X127008095Y-84828095D01*
X127055714Y-84970952D01*
X127627142Y-85542380D01*
X127008095Y-85542380D01*
%TO.C,RN4*%
X156290476Y-57052380D02*
X156623809Y-56576190D01*
X156861904Y-57052380D02*
X156861904Y-56052380D01*
X156480952Y-56052380D01*
X156385714Y-56100000D01*
X156338095Y-56147619D01*
X156290476Y-56242857D01*
X156290476Y-56385714D01*
X156338095Y-56480952D01*
X156385714Y-56528571D01*
X156480952Y-56576190D01*
X156861904Y-56576190D01*
X155861904Y-57052380D02*
X155861904Y-56052380D01*
X155290476Y-57052380D01*
X155290476Y-56052380D01*
X154385714Y-56385714D02*
X154385714Y-57052380D01*
X154623809Y-56004761D02*
X154861904Y-56719047D01*
X154242857Y-56719047D01*
%TO.C,R16*%
X136786857Y-65171580D02*
X137120190Y-64695390D01*
X137358285Y-65171580D02*
X137358285Y-64171580D01*
X136977333Y-64171580D01*
X136882095Y-64219200D01*
X136834476Y-64266819D01*
X136786857Y-64362057D01*
X136786857Y-64504914D01*
X136834476Y-64600152D01*
X136882095Y-64647771D01*
X136977333Y-64695390D01*
X137358285Y-64695390D01*
X135834476Y-65171580D02*
X136405904Y-65171580D01*
X136120190Y-65171580D02*
X136120190Y-64171580D01*
X136215428Y-64314438D01*
X136310666Y-64409676D01*
X136405904Y-64457295D01*
X134977333Y-64171580D02*
X135167809Y-64171580D01*
X135263047Y-64219200D01*
X135310666Y-64266819D01*
X135405904Y-64409676D01*
X135453523Y-64600152D01*
X135453523Y-64981104D01*
X135405904Y-65076342D01*
X135358285Y-65123961D01*
X135263047Y-65171580D01*
X135072571Y-65171580D01*
X134977333Y-65123961D01*
X134929714Y-65076342D01*
X134882095Y-64981104D01*
X134882095Y-64743009D01*
X134929714Y-64647771D01*
X134977333Y-64600152D01*
X135072571Y-64552533D01*
X135263047Y-64552533D01*
X135358285Y-64600152D01*
X135405904Y-64647771D01*
X135453523Y-64743009D01*
%TO.C,C14*%
X115977942Y-78452742D02*
X116025561Y-78405123D01*
X116073180Y-78262266D01*
X116073180Y-78167028D01*
X116025561Y-78024171D01*
X115930323Y-77928933D01*
X115835085Y-77881314D01*
X115644609Y-77833695D01*
X115501752Y-77833695D01*
X115311276Y-77881314D01*
X115216038Y-77928933D01*
X115120800Y-78024171D01*
X115073180Y-78167028D01*
X115073180Y-78262266D01*
X115120800Y-78405123D01*
X115168419Y-78452742D01*
X116073180Y-79405123D02*
X116073180Y-78833695D01*
X116073180Y-79119409D02*
X115073180Y-79119409D01*
X115216038Y-79024171D01*
X115311276Y-78928933D01*
X115358895Y-78833695D01*
X115406514Y-80262266D02*
X116073180Y-80262266D01*
X115025561Y-80024171D02*
X115739847Y-79786076D01*
X115739847Y-80405123D01*
%TO.C,D5*%
X177238095Y-96052380D02*
X177238095Y-95052380D01*
X177000000Y-95052380D01*
X176857142Y-95100000D01*
X176761904Y-95195238D01*
X176714285Y-95290476D01*
X176666666Y-95480952D01*
X176666666Y-95623809D01*
X176714285Y-95814285D01*
X176761904Y-95909523D01*
X176857142Y-96004761D01*
X177000000Y-96052380D01*
X177238095Y-96052380D01*
X175761904Y-95052380D02*
X176238095Y-95052380D01*
X176285714Y-95528571D01*
X176238095Y-95480952D01*
X176142857Y-95433333D01*
X175904761Y-95433333D01*
X175809523Y-95480952D01*
X175761904Y-95528571D01*
X175714285Y-95623809D01*
X175714285Y-95861904D01*
X175761904Y-95957142D01*
X175809523Y-96004761D01*
X175904761Y-96052380D01*
X176142857Y-96052380D01*
X176238095Y-96004761D01*
X176285714Y-95957142D01*
%TO.C,C12*%
X160342857Y-110857142D02*
X160390476Y-110904761D01*
X160533333Y-110952380D01*
X160628571Y-110952380D01*
X160771428Y-110904761D01*
X160866666Y-110809523D01*
X160914285Y-110714285D01*
X160961904Y-110523809D01*
X160961904Y-110380952D01*
X160914285Y-110190476D01*
X160866666Y-110095238D01*
X160771428Y-110000000D01*
X160628571Y-109952380D01*
X160533333Y-109952380D01*
X160390476Y-110000000D01*
X160342857Y-110047619D01*
X159390476Y-110952380D02*
X159961904Y-110952380D01*
X159676190Y-110952380D02*
X159676190Y-109952380D01*
X159771428Y-110095238D01*
X159866666Y-110190476D01*
X159961904Y-110238095D01*
X159009523Y-110047619D02*
X158961904Y-110000000D01*
X158866666Y-109952380D01*
X158628571Y-109952380D01*
X158533333Y-110000000D01*
X158485714Y-110047619D01*
X158438095Y-110142857D01*
X158438095Y-110238095D01*
X158485714Y-110380952D01*
X159057142Y-110952380D01*
X158438095Y-110952380D01*
D12*
%TO.C,J3*%
X125180000Y-119490000D02*
G75*
G03*
X125180000Y-119490000I-1680000J0D01*
G01*
X116964573Y-118806958D02*
G75*
G03*
X116965000Y-120174000I1535420J-683041D01*
G01*
X117816958Y-121025427D02*
G75*
G03*
X119184000Y-121025000I683041J1535420D01*
G01*
X120035426Y-120173042D02*
G75*
G03*
X120035000Y-118806000I-1535426J683042D01*
G01*
X119183318Y-117955244D02*
G75*
G03*
X118500000Y-117810000I-683318J-1534756D01*
G01*
X118528805Y-117809747D02*
G75*
G03*
X117816000Y-117955000I-28806J-1680254D01*
G01*
X115700000Y-115330000D02*
X115700000Y-114590000D01*
X115940000Y-124751000D02*
X126060000Y-124751000D01*
X124775000Y-120559000D02*
X124728000Y-120513000D01*
X115940000Y-116890000D02*
X126060000Y-116890000D01*
X115940000Y-121791000D02*
X126060000Y-121791000D01*
X124570000Y-120765000D02*
X124535000Y-120729000D01*
X115940000Y-115390000D02*
X126060000Y-115390000D01*
X115940000Y-124751000D02*
X115940000Y-114830000D01*
X115940000Y-114830000D02*
X126060000Y-114830000D01*
X115700000Y-114590000D02*
X116200000Y-114590000D01*
X122466000Y-118251000D02*
X122431000Y-118216000D01*
X126060000Y-124751000D02*
X126060000Y-114830000D01*
X122273000Y-118467000D02*
X122226000Y-118421000D01*
%TO.C,R13*%
X163776576Y-94625900D02*
X164286024Y-94625900D01*
X163776576Y-95670900D02*
X164286024Y-95670900D01*
%TO.C,J4*%
X125980000Y-54940000D02*
X125980000Y-56250000D01*
X138320000Y-47130000D02*
X117740000Y-47130000D01*
X125980000Y-54940000D02*
X125980000Y-54940000D01*
X130080000Y-56250000D02*
X130080000Y-54940000D01*
X137020000Y-48440000D02*
X119040000Y-48440000D01*
X138320000Y-56250000D02*
X138320000Y-47130000D01*
X130080000Y-54940000D02*
X137020000Y-54940000D01*
X119040000Y-48440000D02*
X119040000Y-54940000D01*
X137020000Y-54940000D02*
X137020000Y-48440000D01*
X117740000Y-47130000D02*
X117740000Y-56250000D01*
X117740000Y-56250000D02*
X138320000Y-56250000D01*
X119040000Y-54940000D02*
X125980000Y-54940000D01*
%TO.C,Q5*%
X164679000Y-91804000D02*
X166089000Y-91804000D01*
X166089000Y-94124000D02*
X163354000Y-94124000D01*
X166089000Y-92464000D02*
X166089000Y-91804000D01*
X166089000Y-94134000D02*
X166089000Y-93464000D01*
%TO.C,R8*%
X132893524Y-101077500D02*
X132384076Y-101077500D01*
X132893524Y-102122500D02*
X132384076Y-102122500D01*
%TO.C,R54*%
X125576876Y-66206900D02*
X126086324Y-66206900D01*
X125576876Y-65161900D02*
X126086324Y-65161900D01*
%TO.C,R44*%
X163622500Y-113319676D02*
X163622500Y-113829124D01*
X162577500Y-113319676D02*
X162577500Y-113829124D01*
%TO.C,C4*%
X147470400Y-119031633D02*
X147470400Y-119324167D01*
X148490400Y-119031633D02*
X148490400Y-119324167D01*
%TO.C,C7*%
X156559467Y-83767200D02*
X156266933Y-83767200D01*
X156559467Y-84787200D02*
X156266933Y-84787200D01*
%TO.C,R2*%
X121920724Y-101077500D02*
X121411276Y-101077500D01*
X121920724Y-102122500D02*
X121411276Y-102122500D01*
%TO.C,U4*%
X142990000Y-86890000D02*
X142290000Y-86890000D01*
X155810000Y-86890000D02*
X156510000Y-86890000D01*
X156510000Y-86890000D02*
X156510000Y-87590000D01*
X142290000Y-101110000D02*
X142290000Y-100410000D01*
X142990000Y-101110000D02*
X142290000Y-101110000D01*
X142290000Y-100410000D02*
X140925000Y-100410000D01*
X156510000Y-101110000D02*
X156510000Y-100410000D01*
X155810000Y-101110000D02*
X156510000Y-101110000D01*
X142290000Y-86890000D02*
X142290000Y-87590000D01*
%TO.C,C15*%
X120384000Y-84386000D02*
X116964000Y-84386000D01*
X116964000Y-84386000D02*
X116964000Y-77451000D01*
X120384000Y-77451000D02*
X120384000Y-84386000D01*
%TO.C,R22*%
X162168100Y-54509124D02*
X162168100Y-53999676D01*
X161123100Y-54509124D02*
X161123100Y-53999676D01*
%TO.C,R17*%
X115975676Y-62774300D02*
X116485124Y-62774300D01*
X115975676Y-63819300D02*
X116485124Y-63819300D01*
%TO.C,C22*%
X111740000Y-61446267D02*
X111740000Y-61153733D01*
X112760000Y-61446267D02*
X112760000Y-61153733D01*
%TO.C,R38*%
X107498724Y-81481500D02*
X106989276Y-81481500D01*
X107498724Y-80436500D02*
X106989276Y-80436500D01*
%TO.C,R47*%
X104074700Y-72390724D02*
X104074700Y-71881276D01*
X105119700Y-72390724D02*
X105119700Y-71881276D01*
%TO.C,R26*%
X148654724Y-52777500D02*
X148145276Y-52777500D01*
X148654724Y-53822500D02*
X148145276Y-53822500D01*
%TO.C,RN3*%
X168600000Y-70920000D02*
X169600000Y-70920000D01*
X168600000Y-74280000D02*
X169600000Y-74280000D01*
%TO.C,JP5*%
X110829600Y-69522800D02*
X110829600Y-66722800D01*
X108829600Y-69522800D02*
X110829600Y-69522800D01*
X110829600Y-66722800D02*
X108829600Y-66722800D01*
X108829600Y-66722800D02*
X108829600Y-69522800D01*
%TO.C,D8*%
X123882800Y-65059000D02*
X123882800Y-66259000D01*
X122032800Y-66259000D02*
X123882800Y-66259000D01*
X122032800Y-65059000D02*
X123882800Y-65059000D01*
%TO.C,R3*%
X125068876Y-102122500D02*
X125578324Y-102122500D01*
X125068876Y-101077500D02*
X125578324Y-101077500D01*
%TO.C,R46*%
X154545276Y-64777500D02*
X155054724Y-64777500D01*
X154545276Y-65822500D02*
X155054724Y-65822500D01*
%TO.C,U8*%
X108500000Y-65610000D02*
X104740000Y-65610000D01*
X104740000Y-58790000D02*
X104740000Y-60050000D01*
X110750000Y-58790000D02*
X104740000Y-58790000D01*
X104740000Y-65610000D02*
X104740000Y-64350000D01*
%TO.C,Q6*%
X123520000Y-83860000D02*
X123520000Y-80700000D01*
X126680000Y-83860000D02*
X125750000Y-83860000D01*
X126680000Y-83860000D02*
X126680000Y-82400000D01*
X123520000Y-83860000D02*
X124450000Y-83860000D01*
%TO.C,R18*%
X168504324Y-97296500D02*
X167994876Y-97296500D01*
X168504324Y-96251500D02*
X167994876Y-96251500D01*
%TO.C,RN5*%
X169600000Y-65820000D02*
X168600000Y-65820000D01*
X169600000Y-69180000D02*
X168600000Y-69180000D01*
%TO.C,JP2*%
X170717500Y-79817200D02*
X170717500Y-82617200D01*
X170717500Y-82617200D02*
X172717500Y-82617200D01*
X172717500Y-82617200D02*
X172717500Y-79817200D01*
X172717500Y-79817200D02*
X170717500Y-79817200D01*
%TO.C,D7*%
X143840000Y-121500000D02*
X143840000Y-120850000D01*
X146960000Y-121500000D02*
X146960000Y-120850000D01*
X143840000Y-121500000D02*
X143840000Y-122150000D01*
X146960000Y-121500000D02*
X146960000Y-123175000D01*
%TO.C,R9*%
X136092476Y-101077500D02*
X136601924Y-101077500D01*
X136092476Y-102122500D02*
X136601924Y-102122500D01*
%TO.C,RN1*%
X161080000Y-66100000D02*
X161080000Y-67100000D01*
X157720000Y-66100000D02*
X157720000Y-67100000D01*
%TO.C,C10*%
X138746267Y-96990000D02*
X138453733Y-96990000D01*
X138746267Y-98010000D02*
X138453733Y-98010000D01*
%TO.C,Q8*%
X109510000Y-80578000D02*
X109510000Y-82528000D01*
X114630000Y-80578000D02*
X114630000Y-84028000D01*
X114630000Y-80578000D02*
X114630000Y-78628000D01*
X109510000Y-80578000D02*
X109510000Y-78628000D01*
%TO.C,C18*%
X116085000Y-97440000D02*
X116085000Y-100860000D01*
X109150000Y-97440000D02*
X116085000Y-97440000D01*
X116085000Y-100860000D02*
X109150000Y-100860000D01*
%TO.C,R27*%
X155042324Y-61380900D02*
X154532876Y-61380900D01*
X155042324Y-60335900D02*
X154532876Y-60335900D01*
%TO.C,R19*%
X161773737Y-120455000D02*
X160326263Y-120455000D01*
X161773737Y-117745000D02*
X160326263Y-117745000D01*
%TO.C,R43*%
X131840500Y-82396424D02*
X131840500Y-81886976D01*
X130795500Y-82396424D02*
X130795500Y-81886976D01*
%TO.C,C13*%
X155395200Y-110687067D02*
X155395200Y-110394533D01*
X156415200Y-110687067D02*
X156415200Y-110394533D01*
%TO.C,U2*%
X163118800Y-96179200D02*
X162318800Y-96179200D01*
X163118800Y-96179200D02*
X164918800Y-96179200D01*
X163118800Y-99299200D02*
X162318800Y-99299200D01*
X163118800Y-99299200D02*
X163918800Y-99299200D01*
%TO.C,U6*%
X110575000Y-96700000D02*
X110575000Y-95750000D01*
X109075000Y-96700000D02*
X110575000Y-96700000D01*
X110575000Y-86300000D02*
X110575000Y-87250000D01*
X109075000Y-86300000D02*
X110575000Y-86300000D01*
X110575000Y-95750000D02*
X111675000Y-95750000D01*
X110575000Y-87250000D02*
X115700000Y-87250000D01*
%TO.C,D3*%
X136400000Y-124850000D02*
X129500000Y-124850000D01*
X136400000Y-121550000D02*
X129500000Y-121550000D01*
X136400000Y-121550000D02*
X136400000Y-124850000D01*
%TO.C,R21*%
X150353500Y-54509124D02*
X150353500Y-53999676D01*
X151398500Y-54509124D02*
X151398500Y-53999676D01*
%TO.C,R10*%
X129822500Y-82245276D02*
X129822500Y-82754724D01*
X128777500Y-82245276D02*
X128777500Y-82754724D01*
%TO.C,R42*%
X134329700Y-82398324D02*
X134329700Y-81888876D01*
X133284700Y-82398324D02*
X133284700Y-81888876D01*
%TO.C,C20*%
X112760000Y-65253733D02*
X112760000Y-65546267D01*
X111740000Y-65253733D02*
X111740000Y-65546267D01*
%TO.C,D11*%
X108117000Y-84078000D02*
X105257000Y-84078000D01*
X105257000Y-84078000D02*
X105257000Y-82158000D01*
X105257000Y-82158000D02*
X108117000Y-82158000D01*
%TO.C,L2*%
X146061252Y-47190000D02*
X145538748Y-47190000D01*
X146061252Y-48610000D02*
X145538748Y-48610000D01*
%TO.C,R15*%
X168504324Y-98181900D02*
X167994876Y-98181900D01*
X168504324Y-99226900D02*
X167994876Y-99226900D01*
%TO.C,C21*%
X99715000Y-63522500D02*
X99715000Y-59437500D01*
X101585000Y-59437500D02*
X101585000Y-63522500D01*
X101585000Y-63522500D02*
X99715000Y-63522500D01*
%TO.C,Q4*%
X137680000Y-105530000D02*
X137680000Y-104430000D01*
X131050000Y-107030000D02*
X131050000Y-105530000D01*
X137950000Y-105530000D02*
X137680000Y-105530000D01*
X131050000Y-105530000D02*
X131320000Y-105530000D01*
X137950000Y-107030000D02*
X137950000Y-105530000D01*
X131320000Y-105530000D02*
X131320000Y-102700000D01*
%TO.C,R45*%
X107659700Y-72390724D02*
X107659700Y-71881276D01*
X106614700Y-72390724D02*
X106614700Y-71881276D01*
%TO.C,Q1*%
X120320000Y-105530000D02*
X120320000Y-102700000D01*
X126950000Y-105530000D02*
X126680000Y-105530000D01*
X126950000Y-107030000D02*
X126950000Y-105530000D01*
X120050000Y-105530000D02*
X120320000Y-105530000D01*
X126680000Y-105530000D02*
X126680000Y-104430000D01*
X120050000Y-107030000D02*
X120050000Y-105530000D01*
%TO.C,R20*%
X174745276Y-81022500D02*
X175254724Y-81022500D01*
X174745276Y-79977500D02*
X175254724Y-79977500D01*
%TO.C,D4*%
X141550000Y-122000000D02*
X141550000Y-115100000D01*
X141550000Y-122000000D02*
X138250000Y-122000000D01*
X138250000Y-122000000D02*
X138250000Y-115100000D01*
%TO.C,C11*%
X143109733Y-103249000D02*
X143402267Y-103249000D01*
X143109733Y-104269000D02*
X143402267Y-104269000D01*
%TO.C,C5*%
X158908533Y-101881400D02*
X159201067Y-101881400D01*
X158908533Y-100861400D02*
X159201067Y-100861400D01*
%TO.C,R40*%
X130354724Y-86777500D02*
X129845276Y-86777500D01*
X130354724Y-87822500D02*
X129845276Y-87822500D01*
%TO.C,D9*%
X125300000Y-59960000D02*
X123500000Y-59960000D01*
X125300000Y-56840000D02*
X124500000Y-56840000D01*
X125300000Y-56840000D02*
X126100000Y-56840000D01*
X125300000Y-59960000D02*
X126100000Y-59960000D01*
%TO.C,R12*%
X127177500Y-82754724D02*
X127177500Y-82245276D01*
X128222500Y-82754724D02*
X128222500Y-82245276D01*
%TO.C,RN4*%
X157380000Y-53700000D02*
X157380000Y-54700000D01*
X154020000Y-53700000D02*
X154020000Y-54700000D01*
%TO.C,R16*%
X133251024Y-64145900D02*
X132741576Y-64145900D01*
X133251024Y-65190900D02*
X132741576Y-65190900D01*
%TO.C,C14*%
X116390000Y-82375267D02*
X116390000Y-82082733D01*
X115370000Y-82375267D02*
X115370000Y-82082733D01*
%TO.C,D5*%
X178650000Y-85500000D02*
X178650000Y-92800000D01*
X174350000Y-85500000D02*
X174350000Y-92800000D01*
X174350000Y-85500000D02*
X178650000Y-85500000D01*
%TO.C,C12*%
X156970000Y-110687067D02*
X156970000Y-110394533D01*
X157990000Y-110687067D02*
X157990000Y-110394533D01*
%TD*%
M02*
