%TF.GenerationSoftware,KiCad,Pcbnew,6.0.10*%
%TF.CreationDate,2023-01-12T17:29:40+03:00*%
%TF.ProjectId,nitrogen,6e697472-6f67-4656-9e2e-6b696361645f,rev?*%
%TF.SameCoordinates,Original*%
%TF.FileFunction,Legend,Top*%
%TF.FilePolarity,Positive*%
%FSLAX46Y46*%
G04 Gerber Fmt 4.6, Leading zero omitted, Abs format (unit mm)*
G04 Created by KiCad (PCBNEW 6.0.10) date 2023-01-12 17:29:40*
%MOMM*%
%LPD*%
G01*
G04 APERTURE LIST*
%ADD10C,0.150000*%
%ADD11C,0.120000*%
%ADD12C,0.100000*%
G04 APERTURE END LIST*
D10*
X123495238Y-116047380D02*
X123495238Y-115047380D01*
X123876190Y-115047380D01*
X123971428Y-115095000D01*
X124019047Y-115142619D01*
X124066666Y-115237857D01*
X124066666Y-115380714D01*
X124019047Y-115475952D01*
X123971428Y-115523571D01*
X123876190Y-115571190D01*
X123495238Y-115571190D01*
X124400000Y-115047380D02*
X124638095Y-116047380D01*
X124828571Y-115333095D01*
X125019047Y-116047380D01*
X125257142Y-115047380D01*
X125638095Y-116047380D02*
X125638095Y-115047380D01*
X125971428Y-115761666D01*
X126304761Y-115047380D01*
X126304761Y-116047380D01*
X124257142Y-116705000D02*
X124161904Y-116657380D01*
X124019047Y-116657380D01*
X123876190Y-116705000D01*
X123780952Y-116800238D01*
X123733333Y-116895476D01*
X123685714Y-117085952D01*
X123685714Y-117228809D01*
X123733333Y-117419285D01*
X123780952Y-117514523D01*
X123876190Y-117609761D01*
X124019047Y-117657380D01*
X124114285Y-117657380D01*
X124257142Y-117609761D01*
X124304761Y-117562142D01*
X124304761Y-117228809D01*
X124114285Y-117228809D01*
X124733333Y-116990714D02*
X124733333Y-117657380D01*
X124733333Y-117085952D02*
X124780952Y-117038333D01*
X124876190Y-116990714D01*
X125019047Y-116990714D01*
X125114285Y-117038333D01*
X125161904Y-117133571D01*
X125161904Y-117657380D01*
X126066666Y-117657380D02*
X126066666Y-116657380D01*
X126066666Y-117609761D02*
X125971428Y-117657380D01*
X125780952Y-117657380D01*
X125685714Y-117609761D01*
X125638095Y-117562142D01*
X125590476Y-117466904D01*
X125590476Y-117181190D01*
X125638095Y-117085952D01*
X125685714Y-117038333D01*
X125780952Y-116990714D01*
X125971428Y-116990714D01*
X126066666Y-117038333D01*
X157500000Y-116100000D02*
X156900000Y-116100000D01*
X157500000Y-114900000D02*
X157500000Y-116100000D01*
X150100000Y-114900000D02*
X157500000Y-114900000D01*
X150100000Y-116100000D02*
X150100000Y-114900000D01*
X150600000Y-116100000D02*
X150100000Y-116100000D01*
X157282843Y-115500000D02*
G75*
G03*
X157282843Y-115500000I-282843J0D01*
G01*
X155682843Y-115500000D02*
G75*
G03*
X155682843Y-115500000I-282843J0D01*
G01*
X154082843Y-115500000D02*
G75*
G03*
X154082843Y-115500000I-282843J0D01*
G01*
X152482843Y-115500000D02*
G75*
G03*
X152482843Y-115500000I-282843J0D01*
G01*
X150882843Y-115500000D02*
G75*
G03*
X150882843Y-115500000I-282843J0D01*
G01*
X147200000Y-78400000D02*
X151900000Y-78400000D01*
X151900000Y-78400000D02*
X151900000Y-78100000D01*
X151900000Y-78100000D02*
X147200000Y-78100000D01*
X147200000Y-78100000D02*
X147200000Y-78400000D01*
X162200000Y-73500000D02*
X162500000Y-73500000D01*
X162500000Y-73500000D02*
X162500000Y-75700000D01*
X162500000Y-75700000D02*
X162200000Y-75700000D01*
X162200000Y-75700000D02*
X162200000Y-73500000D01*
X169100000Y-70500000D02*
X162200000Y-70500000D01*
X162200000Y-70500000D02*
X162200000Y-78600000D01*
X162200000Y-78600000D02*
X169100000Y-78600000D01*
X169100000Y-78600000D02*
X169100000Y-70500000D01*
X140200000Y-74800000D02*
X160100000Y-74800000D01*
X160100000Y-74800000D02*
X160100000Y-78400000D01*
X160100000Y-78400000D02*
X140200000Y-78400000D01*
X140200000Y-78400000D02*
X140200000Y-74800000D01*
X127687771Y-75395200D02*
X127592533Y-75347580D01*
X127449676Y-75347580D01*
X127306819Y-75395200D01*
X127211580Y-75490438D01*
X127163961Y-75585676D01*
X127116342Y-75776152D01*
X127116342Y-75919009D01*
X127163961Y-76109485D01*
X127211580Y-76204723D01*
X127306819Y-76299961D01*
X127449676Y-76347580D01*
X127544914Y-76347580D01*
X127687771Y-76299961D01*
X127735390Y-76252342D01*
X127735390Y-75919009D01*
X127544914Y-75919009D01*
X128163961Y-75680914D02*
X128163961Y-76347580D01*
X128163961Y-75776152D02*
X128211580Y-75728533D01*
X128306819Y-75680914D01*
X128449676Y-75680914D01*
X128544914Y-75728533D01*
X128592533Y-75823771D01*
X128592533Y-76347580D01*
X129497295Y-76347580D02*
X129497295Y-75347580D01*
X129497295Y-76299961D02*
X129402057Y-76347580D01*
X129211580Y-76347580D01*
X129116342Y-76299961D01*
X129068723Y-76252342D01*
X129021104Y-76157104D01*
X129021104Y-75871390D01*
X129068723Y-75776152D01*
X129116342Y-75728533D01*
X129211580Y-75680914D01*
X129402057Y-75680914D01*
X129497295Y-75728533D01*
X130640152Y-75347580D02*
X131259200Y-75347580D01*
X130925866Y-75728533D01*
X131068723Y-75728533D01*
X131163961Y-75776152D01*
X131211580Y-75823771D01*
X131259200Y-75919009D01*
X131259200Y-76157104D01*
X131211580Y-76252342D01*
X131163961Y-76299961D01*
X131068723Y-76347580D01*
X130783009Y-76347580D01*
X130687771Y-76299961D01*
X130640152Y-76252342D01*
X131687771Y-76252342D02*
X131735390Y-76299961D01*
X131687771Y-76347580D01*
X131640152Y-76299961D01*
X131687771Y-76252342D01*
X131687771Y-76347580D01*
X132068723Y-75347580D02*
X132687771Y-75347580D01*
X132354438Y-75728533D01*
X132497295Y-75728533D01*
X132592533Y-75776152D01*
X132640152Y-75823771D01*
X132687771Y-75919009D01*
X132687771Y-76157104D01*
X132640152Y-76252342D01*
X132592533Y-76299961D01*
X132497295Y-76347580D01*
X132211580Y-76347580D01*
X132116342Y-76299961D01*
X132068723Y-76252342D01*
X134354438Y-75347580D02*
X133878247Y-75347580D01*
X133830628Y-75823771D01*
X133878247Y-75776152D01*
X133973485Y-75728533D01*
X134211580Y-75728533D01*
X134306819Y-75776152D01*
X134354438Y-75823771D01*
X134402057Y-75919009D01*
X134402057Y-76157104D01*
X134354438Y-76252342D01*
X134306819Y-76299961D01*
X134211580Y-76347580D01*
X133973485Y-76347580D01*
X133878247Y-76299961D01*
X133830628Y-76252342D01*
X118749000Y-68934166D02*
X118682333Y-69067500D01*
X118682333Y-69267500D01*
X118749000Y-69467500D01*
X118882333Y-69600833D01*
X119015666Y-69667500D01*
X119282333Y-69734166D01*
X119482333Y-69734166D01*
X119749000Y-69667500D01*
X119882333Y-69600833D01*
X120015666Y-69467500D01*
X120082333Y-69267500D01*
X120082333Y-69134166D01*
X120015666Y-68934166D01*
X119949000Y-68867500D01*
X119482333Y-68867500D01*
X119482333Y-69134166D01*
X119149000Y-68267500D02*
X120082333Y-68267500D01*
X119282333Y-68267500D02*
X119215666Y-68200833D01*
X119149000Y-68067500D01*
X119149000Y-67867500D01*
X119215666Y-67734166D01*
X119349000Y-67667500D01*
X120082333Y-67667500D01*
X120082333Y-66400833D02*
X118682333Y-66400833D01*
X120015666Y-66400833D02*
X120082333Y-66534166D01*
X120082333Y-66800833D01*
X120015666Y-66934166D01*
X119949000Y-67000833D01*
X119815666Y-67067500D01*
X119415666Y-67067500D01*
X119282333Y-67000833D01*
X119215666Y-66934166D01*
X119149000Y-66800833D01*
X119149000Y-66534166D01*
X119215666Y-66400833D01*
X120936333Y-67600833D02*
X120936333Y-68267500D01*
X121603000Y-68334166D01*
X121536333Y-68267500D01*
X121469666Y-68134166D01*
X121469666Y-67800833D01*
X121536333Y-67667500D01*
X121603000Y-67600833D01*
X121736333Y-67534166D01*
X122069666Y-67534166D01*
X122203000Y-67600833D01*
X122269666Y-67667500D01*
X122336333Y-67800833D01*
X122336333Y-68134166D01*
X122269666Y-68267500D01*
X122203000Y-68334166D01*
X120936333Y-67134166D02*
X122336333Y-66667500D01*
X120936333Y-66200833D01*
X123190333Y-70400833D02*
X123190333Y-69534166D01*
X123723666Y-70000833D01*
X123723666Y-69800833D01*
X123790333Y-69667500D01*
X123857000Y-69600833D01*
X123990333Y-69534166D01*
X124323666Y-69534166D01*
X124457000Y-69600833D01*
X124523666Y-69667500D01*
X124590333Y-69800833D01*
X124590333Y-70200833D01*
X124523666Y-70334166D01*
X124457000Y-70400833D01*
X124457000Y-68934166D02*
X124523666Y-68867500D01*
X124590333Y-68934166D01*
X124523666Y-69000833D01*
X124457000Y-68934166D01*
X124590333Y-68934166D01*
X123190333Y-68400833D02*
X123190333Y-67534166D01*
X123723666Y-68000833D01*
X123723666Y-67800833D01*
X123790333Y-67667500D01*
X123857000Y-67600833D01*
X123990333Y-67534166D01*
X124323666Y-67534166D01*
X124457000Y-67600833D01*
X124523666Y-67667500D01*
X124590333Y-67800833D01*
X124590333Y-68200833D01*
X124523666Y-68334166D01*
X124457000Y-68400833D01*
X123190333Y-67134166D02*
X124590333Y-66667500D01*
X123190333Y-66200833D01*
X126444333Y-72800833D02*
X126444333Y-72134166D01*
X126844333Y-72934166D02*
X125444333Y-72467500D01*
X126844333Y-72000833D01*
X126844333Y-71534166D02*
X125444333Y-71534166D01*
X125444333Y-71200833D01*
X125511000Y-71000833D01*
X125644333Y-70867500D01*
X125777666Y-70800833D01*
X126044333Y-70734166D01*
X126244333Y-70734166D01*
X126511000Y-70800833D01*
X126644333Y-70867500D01*
X126777666Y-71000833D01*
X126844333Y-71200833D01*
X126844333Y-71534166D01*
X126711000Y-69334166D02*
X126777666Y-69400833D01*
X126844333Y-69600833D01*
X126844333Y-69734166D01*
X126777666Y-69934166D01*
X126644333Y-70067500D01*
X126511000Y-70134166D01*
X126244333Y-70200833D01*
X126044333Y-70200833D01*
X125777666Y-70134166D01*
X125644333Y-70067500D01*
X125511000Y-69934166D01*
X125444333Y-69734166D01*
X125444333Y-69600833D01*
X125511000Y-69400833D01*
X125577666Y-69334166D01*
X126844333Y-67667500D02*
X125911000Y-67667500D01*
X125444333Y-67667500D02*
X125511000Y-67734166D01*
X125577666Y-67667500D01*
X125511000Y-67600833D01*
X125444333Y-67667500D01*
X125577666Y-67667500D01*
X125911000Y-67000833D02*
X126844333Y-67000833D01*
X126044333Y-67000833D02*
X125977666Y-66934166D01*
X125911000Y-66800833D01*
X125911000Y-66600833D01*
X125977666Y-66467500D01*
X126111000Y-66400833D01*
X126844333Y-66400833D01*
X100587685Y-83906600D02*
X100463876Y-83844695D01*
X100278161Y-83844695D01*
X100092447Y-83906600D01*
X99968638Y-84030409D01*
X99906733Y-84154219D01*
X99844828Y-84401838D01*
X99844828Y-84587552D01*
X99906733Y-84835171D01*
X99968638Y-84958980D01*
X100092447Y-85082790D01*
X100278161Y-85144695D01*
X100401971Y-85144695D01*
X100587685Y-85082790D01*
X100649590Y-85020885D01*
X100649590Y-84587552D01*
X100401971Y-84587552D01*
X101206733Y-85144695D02*
X101206733Y-83844695D01*
X101949590Y-85144695D01*
X101949590Y-83844695D01*
X102568638Y-85144695D02*
X102568638Y-83844695D01*
X102878161Y-83844695D01*
X103063876Y-83906600D01*
X103187685Y-84030409D01*
X103249590Y-84154219D01*
X103311495Y-84401838D01*
X103311495Y-84587552D01*
X103249590Y-84835171D01*
X103187685Y-84958980D01*
X103063876Y-85082790D01*
X102878161Y-85144695D01*
X102568638Y-85144695D01*
X104859114Y-84649457D02*
X105849590Y-84649457D01*
X105354352Y-85144695D02*
X105354352Y-84154219D01*
X106406733Y-83968504D02*
X106468638Y-83906600D01*
X106592447Y-83844695D01*
X106901971Y-83844695D01*
X107025780Y-83906600D01*
X107087685Y-83968504D01*
X107149590Y-84092314D01*
X107149590Y-84216123D01*
X107087685Y-84401838D01*
X106344828Y-85144695D01*
X107149590Y-85144695D01*
X108263876Y-84278028D02*
X108263876Y-85144695D01*
X107954352Y-83782790D02*
X107644828Y-84711361D01*
X108449590Y-84711361D01*
X108759114Y-83844695D02*
X109192447Y-85144695D01*
X109625780Y-83844695D01*
X163178128Y-69715971D02*
X163320985Y-69763590D01*
X163368604Y-69811209D01*
X163416223Y-69906447D01*
X163416223Y-70049304D01*
X163368604Y-70144542D01*
X163320985Y-70192161D01*
X163225747Y-70239780D01*
X162844795Y-70239780D01*
X162844795Y-69239780D01*
X163178128Y-69239780D01*
X163273366Y-69287400D01*
X163320985Y-69335019D01*
X163368604Y-69430257D01*
X163368604Y-69525495D01*
X163320985Y-69620733D01*
X163273366Y-69668352D01*
X163178128Y-69715971D01*
X162844795Y-69715971D01*
X164273366Y-69573114D02*
X164273366Y-70239780D01*
X163844795Y-69573114D02*
X163844795Y-70096923D01*
X163892414Y-70192161D01*
X163987652Y-70239780D01*
X164130509Y-70239780D01*
X164225747Y-70192161D01*
X164273366Y-70144542D01*
X164606700Y-69573114D02*
X164987652Y-69573114D01*
X164749557Y-69239780D02*
X164749557Y-70096923D01*
X164797176Y-70192161D01*
X164892414Y-70239780D01*
X164987652Y-70239780D01*
X165178128Y-69573114D02*
X165559080Y-69573114D01*
X165320985Y-69239780D02*
X165320985Y-70096923D01*
X165368604Y-70192161D01*
X165463842Y-70239780D01*
X165559080Y-70239780D01*
X166035271Y-70239780D02*
X165940033Y-70192161D01*
X165892414Y-70144542D01*
X165844795Y-70049304D01*
X165844795Y-69763590D01*
X165892414Y-69668352D01*
X165940033Y-69620733D01*
X166035271Y-69573114D01*
X166178128Y-69573114D01*
X166273366Y-69620733D01*
X166320985Y-69668352D01*
X166368604Y-69763590D01*
X166368604Y-70049304D01*
X166320985Y-70144542D01*
X166273366Y-70192161D01*
X166178128Y-70239780D01*
X166035271Y-70239780D01*
X166797176Y-69573114D02*
X166797176Y-70239780D01*
X166797176Y-69668352D02*
X166844795Y-69620733D01*
X166940033Y-69573114D01*
X167082890Y-69573114D01*
X167178128Y-69620733D01*
X167225747Y-69715971D01*
X167225747Y-70239780D01*
X167654319Y-70192161D02*
X167749557Y-70239780D01*
X167940033Y-70239780D01*
X168035271Y-70192161D01*
X168082890Y-70096923D01*
X168082890Y-70049304D01*
X168035271Y-69954066D01*
X167940033Y-69906447D01*
X167797176Y-69906447D01*
X167701938Y-69858828D01*
X167654319Y-69763590D01*
X167654319Y-69715971D01*
X167701938Y-69620733D01*
X167797176Y-69573114D01*
X167940033Y-69573114D01*
X168035271Y-69620733D01*
X168511461Y-70144542D02*
X168559080Y-70192161D01*
X168511461Y-70239780D01*
X168463842Y-70192161D01*
X168511461Y-70144542D01*
X168511461Y-70239780D01*
X168511461Y-69620733D02*
X168559080Y-69668352D01*
X168511461Y-69715971D01*
X168463842Y-69668352D01*
X168511461Y-69620733D01*
X168511461Y-69715971D01*
X163178128Y-71325971D02*
X163320985Y-71373590D01*
X163368604Y-71421209D01*
X163416223Y-71516447D01*
X163416223Y-71659304D01*
X163368604Y-71754542D01*
X163320985Y-71802161D01*
X163225747Y-71849780D01*
X162844795Y-71849780D01*
X162844795Y-70849780D01*
X163178128Y-70849780D01*
X163273366Y-70897400D01*
X163320985Y-70945019D01*
X163368604Y-71040257D01*
X163368604Y-71135495D01*
X163320985Y-71230733D01*
X163273366Y-71278352D01*
X163178128Y-71325971D01*
X162844795Y-71325971D01*
X164035271Y-70849780D02*
X164130509Y-70849780D01*
X164225747Y-70897400D01*
X164273366Y-70945019D01*
X164320985Y-71040257D01*
X164368604Y-71230733D01*
X164368604Y-71468828D01*
X164320985Y-71659304D01*
X164273366Y-71754542D01*
X164225747Y-71802161D01*
X164130509Y-71849780D01*
X164035271Y-71849780D01*
X163940033Y-71802161D01*
X163892414Y-71754542D01*
X163844795Y-71659304D01*
X163797176Y-71468828D01*
X163797176Y-71230733D01*
X163844795Y-71040257D01*
X163892414Y-70945019D01*
X163940033Y-70897400D01*
X164035271Y-70849780D01*
X165892414Y-71325971D02*
X166035271Y-71373590D01*
X166082890Y-71421209D01*
X166130509Y-71516447D01*
X166130509Y-71659304D01*
X166082890Y-71754542D01*
X166035271Y-71802161D01*
X165940033Y-71849780D01*
X165559080Y-71849780D01*
X165559080Y-70849780D01*
X165892414Y-70849780D01*
X165987652Y-70897400D01*
X166035271Y-70945019D01*
X166082890Y-71040257D01*
X166082890Y-71135495D01*
X166035271Y-71230733D01*
X165987652Y-71278352D01*
X165892414Y-71325971D01*
X165559080Y-71325971D01*
X167082890Y-71849780D02*
X166511461Y-71849780D01*
X166797176Y-71849780D02*
X166797176Y-70849780D01*
X166701938Y-70992638D01*
X166606700Y-71087876D01*
X166511461Y-71135495D01*
X163178128Y-72935971D02*
X163320985Y-72983590D01*
X163368604Y-73031209D01*
X163416223Y-73126447D01*
X163416223Y-73269304D01*
X163368604Y-73364542D01*
X163320985Y-73412161D01*
X163225747Y-73459780D01*
X162844795Y-73459780D01*
X162844795Y-72459780D01*
X163178128Y-72459780D01*
X163273366Y-72507400D01*
X163320985Y-72555019D01*
X163368604Y-72650257D01*
X163368604Y-72745495D01*
X163320985Y-72840733D01*
X163273366Y-72888352D01*
X163178128Y-72935971D01*
X162844795Y-72935971D01*
X163797176Y-72555019D02*
X163844795Y-72507400D01*
X163940033Y-72459780D01*
X164178128Y-72459780D01*
X164273366Y-72507400D01*
X164320985Y-72555019D01*
X164368604Y-72650257D01*
X164368604Y-72745495D01*
X164320985Y-72888352D01*
X163749557Y-73459780D01*
X164368604Y-73459780D01*
X165892414Y-72935971D02*
X166035271Y-72983590D01*
X166082890Y-73031209D01*
X166130509Y-73126447D01*
X166130509Y-73269304D01*
X166082890Y-73364542D01*
X166035271Y-73412161D01*
X165940033Y-73459780D01*
X165559080Y-73459780D01*
X165559080Y-72459780D01*
X165892414Y-72459780D01*
X165987652Y-72507400D01*
X166035271Y-72555019D01*
X166082890Y-72650257D01*
X166082890Y-72745495D01*
X166035271Y-72840733D01*
X165987652Y-72888352D01*
X165892414Y-72935971D01*
X165559080Y-72935971D01*
X166463842Y-72459780D02*
X167082890Y-72459780D01*
X166749557Y-72840733D01*
X166892414Y-72840733D01*
X166987652Y-72888352D01*
X167035271Y-72935971D01*
X167082890Y-73031209D01*
X167082890Y-73269304D01*
X167035271Y-73364542D01*
X166987652Y-73412161D01*
X166892414Y-73459780D01*
X166606700Y-73459780D01*
X166511461Y-73412161D01*
X166463842Y-73364542D01*
X163178128Y-74545971D02*
X163320985Y-74593590D01*
X163368604Y-74641209D01*
X163416223Y-74736447D01*
X163416223Y-74879304D01*
X163368604Y-74974542D01*
X163320985Y-75022161D01*
X163225747Y-75069780D01*
X162844795Y-75069780D01*
X162844795Y-74069780D01*
X163178128Y-74069780D01*
X163273366Y-74117400D01*
X163320985Y-74165019D01*
X163368604Y-74260257D01*
X163368604Y-74355495D01*
X163320985Y-74450733D01*
X163273366Y-74498352D01*
X163178128Y-74545971D01*
X162844795Y-74545971D01*
X164273366Y-74403114D02*
X164273366Y-75069780D01*
X164035271Y-74022161D02*
X163797176Y-74736447D01*
X164416223Y-74736447D01*
X165892414Y-74545971D02*
X166035271Y-74593590D01*
X166082890Y-74641209D01*
X166130509Y-74736447D01*
X166130509Y-74879304D01*
X166082890Y-74974542D01*
X166035271Y-75022161D01*
X165940033Y-75069780D01*
X165559080Y-75069780D01*
X165559080Y-74069780D01*
X165892414Y-74069780D01*
X165987652Y-74117400D01*
X166035271Y-74165019D01*
X166082890Y-74260257D01*
X166082890Y-74355495D01*
X166035271Y-74450733D01*
X165987652Y-74498352D01*
X165892414Y-74545971D01*
X165559080Y-74545971D01*
X167035271Y-74069780D02*
X166559080Y-74069780D01*
X166511461Y-74545971D01*
X166559080Y-74498352D01*
X166654319Y-74450733D01*
X166892414Y-74450733D01*
X166987652Y-74498352D01*
X167035271Y-74545971D01*
X167082890Y-74641209D01*
X167082890Y-74879304D01*
X167035271Y-74974542D01*
X166987652Y-75022161D01*
X166892414Y-75069780D01*
X166654319Y-75069780D01*
X166559080Y-75022161D01*
X166511461Y-74974542D01*
X163178128Y-76155971D02*
X163320985Y-76203590D01*
X163368604Y-76251209D01*
X163416223Y-76346447D01*
X163416223Y-76489304D01*
X163368604Y-76584542D01*
X163320985Y-76632161D01*
X163225747Y-76679780D01*
X162844795Y-76679780D01*
X162844795Y-75679780D01*
X163178128Y-75679780D01*
X163273366Y-75727400D01*
X163320985Y-75775019D01*
X163368604Y-75870257D01*
X163368604Y-75965495D01*
X163320985Y-76060733D01*
X163273366Y-76108352D01*
X163178128Y-76155971D01*
X162844795Y-76155971D01*
X164273366Y-75679780D02*
X164082890Y-75679780D01*
X163987652Y-75727400D01*
X163940033Y-75775019D01*
X163844795Y-75917876D01*
X163797176Y-76108352D01*
X163797176Y-76489304D01*
X163844795Y-76584542D01*
X163892414Y-76632161D01*
X163987652Y-76679780D01*
X164178128Y-76679780D01*
X164273366Y-76632161D01*
X164320985Y-76584542D01*
X164368604Y-76489304D01*
X164368604Y-76251209D01*
X164320985Y-76155971D01*
X164273366Y-76108352D01*
X164178128Y-76060733D01*
X163987652Y-76060733D01*
X163892414Y-76108352D01*
X163844795Y-76155971D01*
X163797176Y-76251209D01*
X165463842Y-75679780D02*
X166082890Y-75679780D01*
X165749557Y-76060733D01*
X165892414Y-76060733D01*
X165987652Y-76108352D01*
X166035271Y-76155971D01*
X166082890Y-76251209D01*
X166082890Y-76489304D01*
X166035271Y-76584542D01*
X165987652Y-76632161D01*
X165892414Y-76679780D01*
X165606700Y-76679780D01*
X165511461Y-76632161D01*
X165463842Y-76584542D01*
X166416223Y-76013114D02*
X166654319Y-76679780D01*
X166892414Y-76013114D01*
X167178128Y-75679780D02*
X167797176Y-75679780D01*
X167463842Y-76060733D01*
X167606700Y-76060733D01*
X167701938Y-76108352D01*
X167749557Y-76155971D01*
X167797176Y-76251209D01*
X167797176Y-76489304D01*
X167749557Y-76584542D01*
X167701938Y-76632161D01*
X167606700Y-76679780D01*
X167320985Y-76679780D01*
X167225747Y-76632161D01*
X167178128Y-76584542D01*
X163368604Y-77337400D02*
X163273366Y-77289780D01*
X163130509Y-77289780D01*
X162987652Y-77337400D01*
X162892414Y-77432638D01*
X162844795Y-77527876D01*
X162797176Y-77718352D01*
X162797176Y-77861209D01*
X162844795Y-78051685D01*
X162892414Y-78146923D01*
X162987652Y-78242161D01*
X163130509Y-78289780D01*
X163225747Y-78289780D01*
X163368604Y-78242161D01*
X163416223Y-78194542D01*
X163416223Y-77861209D01*
X163225747Y-77861209D01*
X163844795Y-77623114D02*
X163844795Y-78289780D01*
X163844795Y-77718352D02*
X163892414Y-77670733D01*
X163987652Y-77623114D01*
X164130509Y-77623114D01*
X164225747Y-77670733D01*
X164273366Y-77765971D01*
X164273366Y-78289780D01*
X165178128Y-78289780D02*
X165178128Y-77289780D01*
X165178128Y-78242161D02*
X165082890Y-78289780D01*
X164892414Y-78289780D01*
X164797176Y-78242161D01*
X164749557Y-78194542D01*
X164701938Y-78099304D01*
X164701938Y-77813590D01*
X164749557Y-77718352D01*
X164797176Y-77670733D01*
X164892414Y-77623114D01*
X165082890Y-77623114D01*
X165178128Y-77670733D01*
X166940033Y-77337400D02*
X166844795Y-77289780D01*
X166701938Y-77289780D01*
X166559080Y-77337400D01*
X166463842Y-77432638D01*
X166416223Y-77527876D01*
X166368604Y-77718352D01*
X166368604Y-77861209D01*
X166416223Y-78051685D01*
X166463842Y-78146923D01*
X166559080Y-78242161D01*
X166701938Y-78289780D01*
X166797176Y-78289780D01*
X166940033Y-78242161D01*
X166987652Y-78194542D01*
X166987652Y-77861209D01*
X166797176Y-77861209D01*
X167416223Y-77623114D02*
X167416223Y-78289780D01*
X167416223Y-77718352D02*
X167463842Y-77670733D01*
X167559080Y-77623114D01*
X167701938Y-77623114D01*
X167797176Y-77670733D01*
X167844795Y-77765971D01*
X167844795Y-78289780D01*
X168749557Y-78289780D02*
X168749557Y-77289780D01*
X168749557Y-78242161D02*
X168654319Y-78289780D01*
X168463842Y-78289780D01*
X168368604Y-78242161D01*
X168320985Y-78194542D01*
X168273366Y-78099304D01*
X168273366Y-77813590D01*
X168320985Y-77718352D01*
X168368604Y-77670733D01*
X168463842Y-77623114D01*
X168654319Y-77623114D01*
X168749557Y-77670733D01*
X164843295Y-108469180D02*
X165414723Y-108469180D01*
X165129009Y-109469180D02*
X165129009Y-108469180D01*
X165652819Y-109469180D02*
X166176628Y-108802514D01*
X165652819Y-108802514D02*
X166176628Y-109469180D01*
X167890914Y-109469180D02*
X167557580Y-108992990D01*
X167319485Y-109469180D02*
X167319485Y-108469180D01*
X167700438Y-108469180D01*
X167795676Y-108516800D01*
X167843295Y-108564419D01*
X167890914Y-108659657D01*
X167890914Y-108802514D01*
X167843295Y-108897752D01*
X167795676Y-108945371D01*
X167700438Y-108992990D01*
X167319485Y-108992990D01*
X168224247Y-109469180D02*
X168748057Y-108802514D01*
X168224247Y-108802514D02*
X168748057Y-109469180D01*
X170414723Y-108516800D02*
X170319485Y-108469180D01*
X170176628Y-108469180D01*
X170033771Y-108516800D01*
X169938533Y-108612038D01*
X169890914Y-108707276D01*
X169843295Y-108897752D01*
X169843295Y-109040609D01*
X169890914Y-109231085D01*
X169938533Y-109326323D01*
X170033771Y-109421561D01*
X170176628Y-109469180D01*
X170271866Y-109469180D01*
X170414723Y-109421561D01*
X170462342Y-109373942D01*
X170462342Y-109040609D01*
X170271866Y-109040609D01*
X170890914Y-108802514D02*
X170890914Y-109469180D01*
X170890914Y-108897752D02*
X170938533Y-108850133D01*
X171033771Y-108802514D01*
X171176628Y-108802514D01*
X171271866Y-108850133D01*
X171319485Y-108945371D01*
X171319485Y-109469180D01*
X172224247Y-109469180D02*
X172224247Y-108469180D01*
X172224247Y-109421561D02*
X172129009Y-109469180D01*
X171938533Y-109469180D01*
X171843295Y-109421561D01*
X171795676Y-109373942D01*
X171748057Y-109278704D01*
X171748057Y-108992990D01*
X171795676Y-108897752D01*
X171843295Y-108850133D01*
X171938533Y-108802514D01*
X172129009Y-108802514D01*
X172224247Y-108850133D01*
X148399714Y-59161066D02*
X148875904Y-59161066D01*
X148304476Y-59446780D02*
X148637809Y-58446780D01*
X148971142Y-59446780D01*
X149304476Y-59446780D02*
X149304476Y-58446780D01*
X149542571Y-58446780D01*
X149685428Y-58494400D01*
X149780666Y-58589638D01*
X149828285Y-58684876D01*
X149875904Y-58875352D01*
X149875904Y-59018209D01*
X149828285Y-59208685D01*
X149780666Y-59303923D01*
X149685428Y-59399161D01*
X149542571Y-59446780D01*
X149304476Y-59446780D01*
X150875904Y-59351542D02*
X150828285Y-59399161D01*
X150685428Y-59446780D01*
X150590190Y-59446780D01*
X150447333Y-59399161D01*
X150352095Y-59303923D01*
X150304476Y-59208685D01*
X150256857Y-59018209D01*
X150256857Y-58875352D01*
X150304476Y-58684876D01*
X150352095Y-58589638D01*
X150447333Y-58494400D01*
X150590190Y-58446780D01*
X150685428Y-58446780D01*
X150828285Y-58494400D01*
X150875904Y-58542019D01*
X151352095Y-59446780D02*
X151542571Y-59446780D01*
X151637809Y-59399161D01*
X151685428Y-59351542D01*
X151780666Y-59208685D01*
X151828285Y-59018209D01*
X151828285Y-58637257D01*
X151780666Y-58542019D01*
X151733047Y-58494400D01*
X151637809Y-58446780D01*
X151447333Y-58446780D01*
X151352095Y-58494400D01*
X151304476Y-58542019D01*
X151256857Y-58637257D01*
X151256857Y-58875352D01*
X151304476Y-58970590D01*
X151352095Y-59018209D01*
X151447333Y-59065828D01*
X151637809Y-59065828D01*
X151733047Y-59018209D01*
X151780666Y-58970590D01*
X151828285Y-58875352D01*
X148399714Y-60771066D02*
X148875904Y-60771066D01*
X148304476Y-61056780D02*
X148637809Y-60056780D01*
X148971142Y-61056780D01*
X149304476Y-61056780D02*
X149304476Y-60056780D01*
X149542571Y-60056780D01*
X149685428Y-60104400D01*
X149780666Y-60199638D01*
X149828285Y-60294876D01*
X149875904Y-60485352D01*
X149875904Y-60628209D01*
X149828285Y-60818685D01*
X149780666Y-60913923D01*
X149685428Y-61009161D01*
X149542571Y-61056780D01*
X149304476Y-61056780D01*
X150875904Y-60961542D02*
X150828285Y-61009161D01*
X150685428Y-61056780D01*
X150590190Y-61056780D01*
X150447333Y-61009161D01*
X150352095Y-60913923D01*
X150304476Y-60818685D01*
X150256857Y-60628209D01*
X150256857Y-60485352D01*
X150304476Y-60294876D01*
X150352095Y-60199638D01*
X150447333Y-60104400D01*
X150590190Y-60056780D01*
X150685428Y-60056780D01*
X150828285Y-60104400D01*
X150875904Y-60152019D01*
X151447333Y-60485352D02*
X151352095Y-60437733D01*
X151304476Y-60390114D01*
X151256857Y-60294876D01*
X151256857Y-60247257D01*
X151304476Y-60152019D01*
X151352095Y-60104400D01*
X151447333Y-60056780D01*
X151637809Y-60056780D01*
X151733047Y-60104400D01*
X151780666Y-60152019D01*
X151828285Y-60247257D01*
X151828285Y-60294876D01*
X151780666Y-60390114D01*
X151733047Y-60437733D01*
X151637809Y-60485352D01*
X151447333Y-60485352D01*
X151352095Y-60532971D01*
X151304476Y-60580590D01*
X151256857Y-60675828D01*
X151256857Y-60866304D01*
X151304476Y-60961542D01*
X151352095Y-61009161D01*
X151447333Y-61056780D01*
X151637809Y-61056780D01*
X151733047Y-61009161D01*
X151780666Y-60961542D01*
X151828285Y-60866304D01*
X151828285Y-60675828D01*
X151780666Y-60580590D01*
X151733047Y-60532971D01*
X151637809Y-60485352D01*
X149352095Y-61714400D02*
X149256857Y-61666780D01*
X149114000Y-61666780D01*
X148971142Y-61714400D01*
X148875904Y-61809638D01*
X148828285Y-61904876D01*
X148780666Y-62095352D01*
X148780666Y-62238209D01*
X148828285Y-62428685D01*
X148875904Y-62523923D01*
X148971142Y-62619161D01*
X149114000Y-62666780D01*
X149209238Y-62666780D01*
X149352095Y-62619161D01*
X149399714Y-62571542D01*
X149399714Y-62238209D01*
X149209238Y-62238209D01*
X149828285Y-62666780D02*
X149828285Y-61666780D01*
X150399714Y-62666780D01*
X150399714Y-61666780D01*
X150875904Y-62666780D02*
X150875904Y-61666780D01*
X151114000Y-61666780D01*
X151256857Y-61714400D01*
X151352095Y-61809638D01*
X151399714Y-61904876D01*
X151447333Y-62095352D01*
X151447333Y-62238209D01*
X151399714Y-62428685D01*
X151352095Y-62523923D01*
X151256857Y-62619161D01*
X151114000Y-62666780D01*
X150875904Y-62666780D01*
X150465714Y-119335833D02*
X151132380Y-119335833D01*
X150084761Y-119573928D02*
X150799047Y-119812023D01*
X150799047Y-119192976D01*
X150560952Y-118669166D02*
X150513333Y-118764404D01*
X150465714Y-118812023D01*
X150370476Y-118859642D01*
X150322857Y-118859642D01*
X150227619Y-118812023D01*
X150180000Y-118764404D01*
X150132380Y-118669166D01*
X150132380Y-118478690D01*
X150180000Y-118383452D01*
X150227619Y-118335833D01*
X150322857Y-118288214D01*
X150370476Y-118288214D01*
X150465714Y-118335833D01*
X150513333Y-118383452D01*
X150560952Y-118478690D01*
X150560952Y-118669166D01*
X150608571Y-118764404D01*
X150656190Y-118812023D01*
X150751428Y-118859642D01*
X150941904Y-118859642D01*
X151037142Y-118812023D01*
X151084761Y-118764404D01*
X151132380Y-118669166D01*
X151132380Y-118478690D01*
X151084761Y-118383452D01*
X151037142Y-118335833D01*
X150941904Y-118288214D01*
X150751428Y-118288214D01*
X150656190Y-118335833D01*
X150608571Y-118383452D01*
X150560952Y-118478690D01*
X150132380Y-117383452D02*
X150132380Y-117859642D01*
X150608571Y-117907261D01*
X150560952Y-117859642D01*
X150513333Y-117764404D01*
X150513333Y-117526309D01*
X150560952Y-117431071D01*
X150608571Y-117383452D01*
X150703809Y-117335833D01*
X150941904Y-117335833D01*
X151037142Y-117383452D01*
X151084761Y-117431071D01*
X151132380Y-117526309D01*
X151132380Y-117764404D01*
X151084761Y-117859642D01*
X151037142Y-117907261D01*
X150608571Y-116573928D02*
X150656190Y-116431071D01*
X150703809Y-116383452D01*
X150799047Y-116335833D01*
X150941904Y-116335833D01*
X151037142Y-116383452D01*
X151084761Y-116431071D01*
X151132380Y-116526309D01*
X151132380Y-116907261D01*
X150132380Y-116907261D01*
X150132380Y-116573928D01*
X150180000Y-116478690D01*
X150227619Y-116431071D01*
X150322857Y-116383452D01*
X150418095Y-116383452D01*
X150513333Y-116431071D01*
X150560952Y-116478690D01*
X150608571Y-116573928D01*
X150608571Y-116907261D01*
X152075714Y-119335833D02*
X152742380Y-119335833D01*
X151694761Y-119573928D02*
X152409047Y-119812023D01*
X152409047Y-119192976D01*
X152170952Y-118669166D02*
X152123333Y-118764404D01*
X152075714Y-118812023D01*
X151980476Y-118859642D01*
X151932857Y-118859642D01*
X151837619Y-118812023D01*
X151790000Y-118764404D01*
X151742380Y-118669166D01*
X151742380Y-118478690D01*
X151790000Y-118383452D01*
X151837619Y-118335833D01*
X151932857Y-118288214D01*
X151980476Y-118288214D01*
X152075714Y-118335833D01*
X152123333Y-118383452D01*
X152170952Y-118478690D01*
X152170952Y-118669166D01*
X152218571Y-118764404D01*
X152266190Y-118812023D01*
X152361428Y-118859642D01*
X152551904Y-118859642D01*
X152647142Y-118812023D01*
X152694761Y-118764404D01*
X152742380Y-118669166D01*
X152742380Y-118478690D01*
X152694761Y-118383452D01*
X152647142Y-118335833D01*
X152551904Y-118288214D01*
X152361428Y-118288214D01*
X152266190Y-118335833D01*
X152218571Y-118383452D01*
X152170952Y-118478690D01*
X151742380Y-117383452D02*
X151742380Y-117859642D01*
X152218571Y-117907261D01*
X152170952Y-117859642D01*
X152123333Y-117764404D01*
X152123333Y-117526309D01*
X152170952Y-117431071D01*
X152218571Y-117383452D01*
X152313809Y-117335833D01*
X152551904Y-117335833D01*
X152647142Y-117383452D01*
X152694761Y-117431071D01*
X152742380Y-117526309D01*
X152742380Y-117764404D01*
X152694761Y-117859642D01*
X152647142Y-117907261D01*
X152456666Y-116954880D02*
X152456666Y-116478690D01*
X152742380Y-117050119D02*
X151742380Y-116716785D01*
X152742380Y-116383452D01*
X153400000Y-119240595D02*
X153352380Y-119335833D01*
X153352380Y-119478690D01*
X153400000Y-119621547D01*
X153495238Y-119716785D01*
X153590476Y-119764404D01*
X153780952Y-119812023D01*
X153923809Y-119812023D01*
X154114285Y-119764404D01*
X154209523Y-119716785D01*
X154304761Y-119621547D01*
X154352380Y-119478690D01*
X154352380Y-119383452D01*
X154304761Y-119240595D01*
X154257142Y-119192976D01*
X153923809Y-119192976D01*
X153923809Y-119383452D01*
X154352380Y-118764404D02*
X153352380Y-118764404D01*
X154352380Y-118192976D01*
X153352380Y-118192976D01*
X154352380Y-117716785D02*
X153352380Y-117716785D01*
X153352380Y-117478690D01*
X153400000Y-117335833D01*
X153495238Y-117240595D01*
X153590476Y-117192976D01*
X153780952Y-117145357D01*
X153923809Y-117145357D01*
X154114285Y-117192976D01*
X154209523Y-117240595D01*
X154304761Y-117335833D01*
X154352380Y-117478690D01*
X154352380Y-117716785D01*
X155867142Y-119192976D02*
X155914761Y-119240595D01*
X155962380Y-119383452D01*
X155962380Y-119478690D01*
X155914761Y-119621547D01*
X155819523Y-119716785D01*
X155724285Y-119764404D01*
X155533809Y-119812023D01*
X155390952Y-119812023D01*
X155200476Y-119764404D01*
X155105238Y-119716785D01*
X155010000Y-119621547D01*
X154962380Y-119478690D01*
X154962380Y-119383452D01*
X155010000Y-119240595D01*
X155057619Y-119192976D01*
X155676666Y-118812023D02*
X155676666Y-118335833D01*
X155962380Y-118907261D02*
X154962380Y-118573928D01*
X155962380Y-118240595D01*
X155962380Y-117907261D02*
X154962380Y-117907261D01*
X155962380Y-117335833D01*
X154962380Y-117335833D01*
X155962380Y-116383452D02*
X155962380Y-116859642D01*
X154962380Y-116859642D01*
X157477142Y-119192976D02*
X157524761Y-119240595D01*
X157572380Y-119383452D01*
X157572380Y-119478690D01*
X157524761Y-119621547D01*
X157429523Y-119716785D01*
X157334285Y-119764404D01*
X157143809Y-119812023D01*
X157000952Y-119812023D01*
X156810476Y-119764404D01*
X156715238Y-119716785D01*
X156620000Y-119621547D01*
X156572380Y-119478690D01*
X156572380Y-119383452D01*
X156620000Y-119240595D01*
X156667619Y-119192976D01*
X157286666Y-118812023D02*
X157286666Y-118335833D01*
X157572380Y-118907261D02*
X156572380Y-118573928D01*
X157572380Y-118240595D01*
X157572380Y-117907261D02*
X156572380Y-117907261D01*
X157572380Y-117335833D01*
X156572380Y-117335833D01*
X157572380Y-116859642D02*
X156572380Y-116859642D01*
X157048571Y-116859642D02*
X157048571Y-116288214D01*
X157572380Y-116288214D02*
X156572380Y-116288214D01*
X143815180Y-107437180D02*
X143481847Y-106960990D01*
X143243752Y-107437180D02*
X143243752Y-106437180D01*
X143624704Y-106437180D01*
X143719942Y-106484800D01*
X143767561Y-106532419D01*
X143815180Y-106627657D01*
X143815180Y-106770514D01*
X143767561Y-106865752D01*
X143719942Y-106913371D01*
X143624704Y-106960990D01*
X143243752Y-106960990D01*
X144148514Y-107437180D02*
X144672323Y-106770514D01*
X144148514Y-106770514D02*
X144672323Y-107437180D01*
X145672323Y-106437180D02*
X146243752Y-106437180D01*
X145958038Y-107437180D02*
X145958038Y-106437180D01*
X146481847Y-107437180D02*
X147005657Y-106770514D01*
X146481847Y-106770514D02*
X147005657Y-107437180D01*
X148672323Y-106484800D02*
X148577085Y-106437180D01*
X148434228Y-106437180D01*
X148291371Y-106484800D01*
X148196133Y-106580038D01*
X148148514Y-106675276D01*
X148100895Y-106865752D01*
X148100895Y-107008609D01*
X148148514Y-107199085D01*
X148196133Y-107294323D01*
X148291371Y-107389561D01*
X148434228Y-107437180D01*
X148529466Y-107437180D01*
X148672323Y-107389561D01*
X148719942Y-107341942D01*
X148719942Y-107008609D01*
X148529466Y-107008609D01*
X149148514Y-106770514D02*
X149148514Y-107437180D01*
X149148514Y-106865752D02*
X149196133Y-106818133D01*
X149291371Y-106770514D01*
X149434228Y-106770514D01*
X149529466Y-106818133D01*
X149577085Y-106913371D01*
X149577085Y-107437180D01*
X150481847Y-107437180D02*
X150481847Y-106437180D01*
X150481847Y-107389561D02*
X150386609Y-107437180D01*
X150196133Y-107437180D01*
X150100895Y-107389561D01*
X150053276Y-107341942D01*
X150005657Y-107246704D01*
X150005657Y-106960990D01*
X150053276Y-106865752D01*
X150100895Y-106818133D01*
X150196133Y-106770514D01*
X150386609Y-106770514D01*
X150481847Y-106818133D01*
X171423295Y-59872571D02*
X171566152Y-59920190D01*
X171613771Y-59967809D01*
X171661390Y-60063047D01*
X171661390Y-60205904D01*
X171613771Y-60301142D01*
X171566152Y-60348761D01*
X171470914Y-60396380D01*
X171089961Y-60396380D01*
X171089961Y-59396380D01*
X171423295Y-59396380D01*
X171518533Y-59444000D01*
X171566152Y-59491619D01*
X171613771Y-59586857D01*
X171613771Y-59682095D01*
X171566152Y-59777333D01*
X171518533Y-59824952D01*
X171423295Y-59872571D01*
X171089961Y-59872571D01*
X172518533Y-59729714D02*
X172518533Y-60396380D01*
X172089961Y-59729714D02*
X172089961Y-60253523D01*
X172137580Y-60348761D01*
X172232819Y-60396380D01*
X172375676Y-60396380D01*
X172470914Y-60348761D01*
X172518533Y-60301142D01*
X172851866Y-59729714D02*
X173232819Y-59729714D01*
X172994723Y-59396380D02*
X172994723Y-60253523D01*
X173042342Y-60348761D01*
X173137580Y-60396380D01*
X173232819Y-60396380D01*
X173423295Y-59729714D02*
X173804247Y-59729714D01*
X173566152Y-59396380D02*
X173566152Y-60253523D01*
X173613771Y-60348761D01*
X173709009Y-60396380D01*
X173804247Y-60396380D01*
X174280438Y-60396380D02*
X174185200Y-60348761D01*
X174137580Y-60301142D01*
X174089961Y-60205904D01*
X174089961Y-59920190D01*
X174137580Y-59824952D01*
X174185200Y-59777333D01*
X174280438Y-59729714D01*
X174423295Y-59729714D01*
X174518533Y-59777333D01*
X174566152Y-59824952D01*
X174613771Y-59920190D01*
X174613771Y-60205904D01*
X174566152Y-60301142D01*
X174518533Y-60348761D01*
X174423295Y-60396380D01*
X174280438Y-60396380D01*
X175042342Y-59729714D02*
X175042342Y-60396380D01*
X175042342Y-59824952D02*
X175089961Y-59777333D01*
X175185200Y-59729714D01*
X175328057Y-59729714D01*
X175423295Y-59777333D01*
X175470914Y-59872571D01*
X175470914Y-60396380D01*
X175899485Y-60348761D02*
X175994723Y-60396380D01*
X176185200Y-60396380D01*
X176280438Y-60348761D01*
X176328057Y-60253523D01*
X176328057Y-60205904D01*
X176280438Y-60110666D01*
X176185200Y-60063047D01*
X176042342Y-60063047D01*
X175947104Y-60015428D01*
X175899485Y-59920190D01*
X175899485Y-59872571D01*
X175947104Y-59777333D01*
X176042342Y-59729714D01*
X176185200Y-59729714D01*
X176280438Y-59777333D01*
X124293571Y-83469942D02*
X125436428Y-83469942D01*
X127293571Y-83469942D02*
X128436428Y-83469942D01*
X127865000Y-84041371D02*
X127865000Y-82898514D01*
X155507333Y-60547028D02*
X155507333Y-59804171D01*
X156040666Y-60204171D01*
X156040666Y-60032742D01*
X156107333Y-59918457D01*
X156174000Y-59861314D01*
X156307333Y-59804171D01*
X156640666Y-59804171D01*
X156774000Y-59861314D01*
X156840666Y-59918457D01*
X156907333Y-60032742D01*
X156907333Y-60375600D01*
X156840666Y-60489885D01*
X156774000Y-60547028D01*
X156774000Y-59289885D02*
X156840666Y-59232742D01*
X156907333Y-59289885D01*
X156840666Y-59347028D01*
X156774000Y-59289885D01*
X156907333Y-59289885D01*
X155507333Y-58832742D02*
X155507333Y-58089885D01*
X156040666Y-58489885D01*
X156040666Y-58318457D01*
X156107333Y-58204171D01*
X156174000Y-58147028D01*
X156307333Y-58089885D01*
X156640666Y-58089885D01*
X156774000Y-58147028D01*
X156840666Y-58204171D01*
X156907333Y-58318457D01*
X156907333Y-58661314D01*
X156840666Y-58775600D01*
X156774000Y-58832742D01*
X155507333Y-57747028D02*
X156907333Y-57347028D01*
X155507333Y-56947028D01*
X159161333Y-60118457D02*
X159161333Y-60689885D01*
X157761333Y-60689885D01*
X158428000Y-59718457D02*
X158428000Y-59318457D01*
X159161333Y-59147028D02*
X159161333Y-59718457D01*
X157761333Y-59718457D01*
X157761333Y-59147028D01*
X159161333Y-58632742D02*
X157761333Y-58632742D01*
X157761333Y-58347028D01*
X157828000Y-58175600D01*
X157961333Y-58061314D01*
X158094666Y-58004171D01*
X158361333Y-57947028D01*
X158561333Y-57947028D01*
X158828000Y-58004171D01*
X158961333Y-58061314D01*
X159094666Y-58175600D01*
X159161333Y-58347028D01*
X159161333Y-58632742D01*
X157761333Y-57204171D02*
X157761333Y-57089885D01*
X157828000Y-56975600D01*
X157894666Y-56918457D01*
X158028000Y-56861314D01*
X158294666Y-56804171D01*
X158628000Y-56804171D01*
X158894666Y-56861314D01*
X159028000Y-56918457D01*
X159094666Y-56975600D01*
X159161333Y-57089885D01*
X159161333Y-57204171D01*
X159094666Y-57318457D01*
X159028000Y-57375600D01*
X158894666Y-57432742D01*
X158628000Y-57489885D01*
X158294666Y-57489885D01*
X158028000Y-57432742D01*
X157894666Y-57375600D01*
X157828000Y-57318457D01*
X157761333Y-57204171D01*
X161415333Y-60118457D02*
X161415333Y-60689885D01*
X160015333Y-60689885D01*
X160682000Y-59718457D02*
X160682000Y-59318457D01*
X161415333Y-59147028D02*
X161415333Y-59718457D01*
X160015333Y-59718457D01*
X160015333Y-59147028D01*
X161415333Y-58632742D02*
X160015333Y-58632742D01*
X160015333Y-58347028D01*
X160082000Y-58175600D01*
X160215333Y-58061314D01*
X160348666Y-58004171D01*
X160615333Y-57947028D01*
X160815333Y-57947028D01*
X161082000Y-58004171D01*
X161215333Y-58061314D01*
X161348666Y-58175600D01*
X161415333Y-58347028D01*
X161415333Y-58632742D01*
X161415333Y-56804171D02*
X161415333Y-57489885D01*
X161415333Y-57147028D02*
X160015333Y-57147028D01*
X160215333Y-57261314D01*
X160348666Y-57375600D01*
X160415333Y-57489885D01*
X163669333Y-60118457D02*
X163669333Y-60689885D01*
X162269333Y-60689885D01*
X162936000Y-59718457D02*
X162936000Y-59318457D01*
X163669333Y-59147028D02*
X163669333Y-59718457D01*
X162269333Y-59718457D01*
X162269333Y-59147028D01*
X163669333Y-58632742D02*
X162269333Y-58632742D01*
X162269333Y-58347028D01*
X162336000Y-58175600D01*
X162469333Y-58061314D01*
X162602666Y-58004171D01*
X162869333Y-57947028D01*
X163069333Y-57947028D01*
X163336000Y-58004171D01*
X163469333Y-58061314D01*
X163602666Y-58175600D01*
X163669333Y-58347028D01*
X163669333Y-58632742D01*
X162402666Y-57489885D02*
X162336000Y-57432742D01*
X162269333Y-57318457D01*
X162269333Y-57032742D01*
X162336000Y-56918457D01*
X162402666Y-56861314D01*
X162536000Y-56804171D01*
X162669333Y-56804171D01*
X162869333Y-56861314D01*
X163669333Y-57547028D01*
X163669333Y-56804171D01*
X165923333Y-60118457D02*
X165923333Y-60689885D01*
X164523333Y-60689885D01*
X165190000Y-59718457D02*
X165190000Y-59318457D01*
X165923333Y-59147028D02*
X165923333Y-59718457D01*
X164523333Y-59718457D01*
X164523333Y-59147028D01*
X165923333Y-58632742D02*
X164523333Y-58632742D01*
X164523333Y-58347028D01*
X164590000Y-58175600D01*
X164723333Y-58061314D01*
X164856666Y-58004171D01*
X165123333Y-57947028D01*
X165323333Y-57947028D01*
X165590000Y-58004171D01*
X165723333Y-58061314D01*
X165856666Y-58175600D01*
X165923333Y-58347028D01*
X165923333Y-58632742D01*
X164523333Y-57547028D02*
X164523333Y-56804171D01*
X165056666Y-57204171D01*
X165056666Y-57032742D01*
X165123333Y-56918457D01*
X165190000Y-56861314D01*
X165323333Y-56804171D01*
X165656666Y-56804171D01*
X165790000Y-56861314D01*
X165856666Y-56918457D01*
X165923333Y-57032742D01*
X165923333Y-57375600D01*
X165856666Y-57489885D01*
X165790000Y-57547028D01*
X147694971Y-74486761D02*
X147837828Y-74534380D01*
X148075923Y-74534380D01*
X148171161Y-74486761D01*
X148218780Y-74439142D01*
X148266400Y-74343904D01*
X148266400Y-74248666D01*
X148218780Y-74153428D01*
X148171161Y-74105809D01*
X148075923Y-74058190D01*
X147885447Y-74010571D01*
X147790209Y-73962952D01*
X147742590Y-73915333D01*
X147694971Y-73820095D01*
X147694971Y-73724857D01*
X147742590Y-73629619D01*
X147790209Y-73582000D01*
X147885447Y-73534380D01*
X148123542Y-73534380D01*
X148266400Y-73582000D01*
X149123542Y-74486761D02*
X149028304Y-74534380D01*
X148837828Y-74534380D01*
X148742590Y-74486761D01*
X148694971Y-74439142D01*
X148647352Y-74343904D01*
X148647352Y-74058190D01*
X148694971Y-73962952D01*
X148742590Y-73915333D01*
X148837828Y-73867714D01*
X149028304Y-73867714D01*
X149123542Y-73915333D01*
X149552114Y-74534380D02*
X149552114Y-73867714D01*
X149552114Y-74058190D02*
X149599733Y-73962952D01*
X149647352Y-73915333D01*
X149742590Y-73867714D01*
X149837828Y-73867714D01*
X150552114Y-74486761D02*
X150456876Y-74534380D01*
X150266400Y-74534380D01*
X150171161Y-74486761D01*
X150123542Y-74391523D01*
X150123542Y-74010571D01*
X150171161Y-73915333D01*
X150266400Y-73867714D01*
X150456876Y-73867714D01*
X150552114Y-73915333D01*
X150599733Y-74010571D01*
X150599733Y-74105809D01*
X150123542Y-74201047D01*
X151409257Y-74486761D02*
X151314019Y-74534380D01*
X151123542Y-74534380D01*
X151028304Y-74486761D01*
X150980685Y-74391523D01*
X150980685Y-74010571D01*
X151028304Y-73915333D01*
X151123542Y-73867714D01*
X151314019Y-73867714D01*
X151409257Y-73915333D01*
X151456876Y-74010571D01*
X151456876Y-74105809D01*
X150980685Y-74201047D01*
X151885447Y-73867714D02*
X151885447Y-74534380D01*
X151885447Y-73962952D02*
X151933066Y-73915333D01*
X152028304Y-73867714D01*
X152171161Y-73867714D01*
X152266400Y-73915333D01*
X152314019Y-74010571D01*
X152314019Y-74534380D01*
X152790209Y-74439142D02*
X152837828Y-74486761D01*
X152790209Y-74534380D01*
X152742590Y-74486761D01*
X152790209Y-74439142D01*
X152790209Y-74534380D01*
X152790209Y-73915333D02*
X152837828Y-73962952D01*
X152790209Y-74010571D01*
X152742590Y-73962952D01*
X152790209Y-73915333D01*
X152790209Y-74010571D01*
X140980685Y-75192000D02*
X140885447Y-75144380D01*
X140742590Y-75144380D01*
X140599733Y-75192000D01*
X140504495Y-75287238D01*
X140456876Y-75382476D01*
X140409257Y-75572952D01*
X140409257Y-75715809D01*
X140456876Y-75906285D01*
X140504495Y-76001523D01*
X140599733Y-76096761D01*
X140742590Y-76144380D01*
X140837828Y-76144380D01*
X140980685Y-76096761D01*
X141028304Y-76049142D01*
X141028304Y-75715809D01*
X140837828Y-75715809D01*
X141456876Y-75477714D02*
X141456876Y-76144380D01*
X141456876Y-75572952D02*
X141504495Y-75525333D01*
X141599733Y-75477714D01*
X141742590Y-75477714D01*
X141837828Y-75525333D01*
X141885447Y-75620571D01*
X141885447Y-76144380D01*
X142790209Y-76144380D02*
X142790209Y-75144380D01*
X142790209Y-76096761D02*
X142694971Y-76144380D01*
X142504495Y-76144380D01*
X142409257Y-76096761D01*
X142361638Y-76049142D01*
X142314019Y-75953904D01*
X142314019Y-75668190D01*
X142361638Y-75572952D01*
X142409257Y-75525333D01*
X142504495Y-75477714D01*
X142694971Y-75477714D01*
X142790209Y-75525333D01*
X145266400Y-75144380D02*
X144790209Y-75144380D01*
X144742590Y-75620571D01*
X144790209Y-75572952D01*
X144885447Y-75525333D01*
X145123542Y-75525333D01*
X145218780Y-75572952D01*
X145266400Y-75620571D01*
X145314019Y-75715809D01*
X145314019Y-75953904D01*
X145266400Y-76049142D01*
X145218780Y-76096761D01*
X145123542Y-76144380D01*
X144885447Y-76144380D01*
X144790209Y-76096761D01*
X144742590Y-76049142D01*
X145599733Y-75144380D02*
X145933066Y-76144380D01*
X146266400Y-75144380D01*
X148123542Y-76144380D02*
X148123542Y-75144380D01*
X148456876Y-75858666D01*
X148790209Y-75144380D01*
X148790209Y-76144380D01*
X149266400Y-76144380D02*
X149266400Y-75144380D01*
X149694971Y-76096761D02*
X149837828Y-76144380D01*
X150075923Y-76144380D01*
X150171161Y-76096761D01*
X150218780Y-76049142D01*
X150266400Y-75953904D01*
X150266400Y-75858666D01*
X150218780Y-75763428D01*
X150171161Y-75715809D01*
X150075923Y-75668190D01*
X149885447Y-75620571D01*
X149790209Y-75572952D01*
X149742590Y-75525333D01*
X149694971Y-75430095D01*
X149694971Y-75334857D01*
X149742590Y-75239619D01*
X149790209Y-75192000D01*
X149885447Y-75144380D01*
X150123542Y-75144380D01*
X150266400Y-75192000D01*
X150885447Y-75144380D02*
X151075923Y-75144380D01*
X151171161Y-75192000D01*
X151266400Y-75287238D01*
X151314019Y-75477714D01*
X151314019Y-75811047D01*
X151266400Y-76001523D01*
X151171161Y-76096761D01*
X151075923Y-76144380D01*
X150885447Y-76144380D01*
X150790209Y-76096761D01*
X150694971Y-76001523D01*
X150647352Y-75811047D01*
X150647352Y-75477714D01*
X150694971Y-75287238D01*
X150790209Y-75192000D01*
X150885447Y-75144380D01*
X152456876Y-76096761D02*
X152599733Y-76144380D01*
X152837828Y-76144380D01*
X152933066Y-76096761D01*
X152980685Y-76049142D01*
X153028304Y-75953904D01*
X153028304Y-75858666D01*
X152980685Y-75763428D01*
X152933066Y-75715809D01*
X152837828Y-75668190D01*
X152647352Y-75620571D01*
X152552114Y-75572952D01*
X152504495Y-75525333D01*
X152456876Y-75430095D01*
X152456876Y-75334857D01*
X152504495Y-75239619D01*
X152552114Y-75192000D01*
X152647352Y-75144380D01*
X152885447Y-75144380D01*
X153028304Y-75192000D01*
X154028304Y-76049142D02*
X153980685Y-76096761D01*
X153837828Y-76144380D01*
X153742590Y-76144380D01*
X153599733Y-76096761D01*
X153504495Y-76001523D01*
X153456876Y-75906285D01*
X153409257Y-75715809D01*
X153409257Y-75572952D01*
X153456876Y-75382476D01*
X153504495Y-75287238D01*
X153599733Y-75192000D01*
X153742590Y-75144380D01*
X153837828Y-75144380D01*
X153980685Y-75192000D01*
X154028304Y-75239619D01*
X154456876Y-76144380D02*
X154456876Y-75144380D01*
X155028304Y-76144380D02*
X154599733Y-75572952D01*
X155028304Y-75144380D02*
X154456876Y-75715809D01*
X156742590Y-75192000D02*
X156647352Y-75144380D01*
X156504495Y-75144380D01*
X156361638Y-75192000D01*
X156266400Y-75287238D01*
X156218780Y-75382476D01*
X156171161Y-75572952D01*
X156171161Y-75715809D01*
X156218780Y-75906285D01*
X156266400Y-76001523D01*
X156361638Y-76096761D01*
X156504495Y-76144380D01*
X156599733Y-76144380D01*
X156742590Y-76096761D01*
X156790209Y-76049142D01*
X156790209Y-75715809D01*
X156599733Y-75715809D01*
X157218780Y-75477714D02*
X157218780Y-76144380D01*
X157218780Y-75572952D02*
X157266400Y-75525333D01*
X157361638Y-75477714D01*
X157504495Y-75477714D01*
X157599733Y-75525333D01*
X157647352Y-75620571D01*
X157647352Y-76144380D01*
X158552114Y-76144380D02*
X158552114Y-75144380D01*
X158552114Y-76096761D02*
X158456876Y-76144380D01*
X158266400Y-76144380D01*
X158171161Y-76096761D01*
X158123542Y-76049142D01*
X158075923Y-75953904D01*
X158075923Y-75668190D01*
X158123542Y-75572952D01*
X158171161Y-75525333D01*
X158266400Y-75477714D01*
X158456876Y-75477714D01*
X158552114Y-75525333D01*
X140647352Y-76754380D02*
X141266400Y-76754380D01*
X140933066Y-77135333D01*
X141075923Y-77135333D01*
X141171161Y-77182952D01*
X141218780Y-77230571D01*
X141266400Y-77325809D01*
X141266400Y-77563904D01*
X141218780Y-77659142D01*
X141171161Y-77706761D01*
X141075923Y-77754380D01*
X140790209Y-77754380D01*
X140694971Y-77706761D01*
X140647352Y-77659142D01*
X141694971Y-77659142D02*
X141742590Y-77706761D01*
X141694971Y-77754380D01*
X141647352Y-77706761D01*
X141694971Y-77659142D01*
X141694971Y-77754380D01*
X142075923Y-76754380D02*
X142694971Y-76754380D01*
X142361638Y-77135333D01*
X142504495Y-77135333D01*
X142599733Y-77182952D01*
X142647352Y-77230571D01*
X142694971Y-77325809D01*
X142694971Y-77563904D01*
X142647352Y-77659142D01*
X142599733Y-77706761D01*
X142504495Y-77754380D01*
X142218780Y-77754380D01*
X142123542Y-77706761D01*
X142075923Y-77659142D01*
X142980685Y-76754380D02*
X143314019Y-77754380D01*
X143647352Y-76754380D01*
X144742590Y-77754380D02*
X144742590Y-76754380D01*
X145314019Y-77754380D01*
X145314019Y-76754380D01*
X145742590Y-77706761D02*
X145885447Y-77754380D01*
X146123542Y-77754380D01*
X146218780Y-77706761D01*
X146266400Y-77659142D01*
X146314019Y-77563904D01*
X146314019Y-77468666D01*
X146266400Y-77373428D01*
X146218780Y-77325809D01*
X146123542Y-77278190D01*
X145933066Y-77230571D01*
X145837828Y-77182952D01*
X145790209Y-77135333D01*
X145742590Y-77040095D01*
X145742590Y-76944857D01*
X145790209Y-76849619D01*
X145837828Y-76802000D01*
X145933066Y-76754380D01*
X146171161Y-76754380D01*
X146314019Y-76802000D01*
X146694971Y-77706761D02*
X146837828Y-77754380D01*
X147075923Y-77754380D01*
X147171161Y-77706761D01*
X147218780Y-77659142D01*
X147266400Y-77563904D01*
X147266400Y-77468666D01*
X147218780Y-77373428D01*
X147171161Y-77325809D01*
X147075923Y-77278190D01*
X146885447Y-77230571D01*
X146790209Y-77182952D01*
X146742590Y-77135333D01*
X146694971Y-77040095D01*
X146694971Y-76944857D01*
X146742590Y-76849619D01*
X146790209Y-76802000D01*
X146885447Y-76754380D01*
X147123542Y-76754380D01*
X147266400Y-76802000D01*
X149028304Y-77754380D02*
X148694971Y-77278190D01*
X148456876Y-77754380D02*
X148456876Y-76754380D01*
X148837828Y-76754380D01*
X148933066Y-76802000D01*
X148980685Y-76849619D01*
X149028304Y-76944857D01*
X149028304Y-77087714D01*
X148980685Y-77182952D01*
X148933066Y-77230571D01*
X148837828Y-77278190D01*
X148456876Y-77278190D01*
X149409257Y-77706761D02*
X149552114Y-77754380D01*
X149790209Y-77754380D01*
X149885447Y-77706761D01*
X149933066Y-77659142D01*
X149980685Y-77563904D01*
X149980685Y-77468666D01*
X149933066Y-77373428D01*
X149885447Y-77325809D01*
X149790209Y-77278190D01*
X149599733Y-77230571D01*
X149504495Y-77182952D01*
X149456876Y-77135333D01*
X149409257Y-77040095D01*
X149409257Y-76944857D01*
X149456876Y-76849619D01*
X149504495Y-76802000D01*
X149599733Y-76754380D01*
X149837828Y-76754380D01*
X149980685Y-76802000D01*
X150266400Y-76754380D02*
X150837828Y-76754380D01*
X150552114Y-77754380D02*
X150552114Y-76754380D01*
X151933066Y-77754380D02*
X151933066Y-76754380D01*
X152266399Y-77468666D01*
X152599733Y-76754380D01*
X152599733Y-77754380D01*
X153266400Y-76754380D02*
X153456876Y-76754380D01*
X153552114Y-76802000D01*
X153647352Y-76897238D01*
X153694971Y-77087714D01*
X153694971Y-77421047D01*
X153647352Y-77611523D01*
X153552114Y-77706761D01*
X153456876Y-77754380D01*
X153266400Y-77754380D01*
X153171161Y-77706761D01*
X153075923Y-77611523D01*
X153028304Y-77421047D01*
X153028304Y-77087714D01*
X153075923Y-76897238D01*
X153171161Y-76802000D01*
X153266400Y-76754380D01*
X154075923Y-77706761D02*
X154218780Y-77754380D01*
X154456876Y-77754380D01*
X154552114Y-77706761D01*
X154599733Y-77659142D01*
X154647352Y-77563904D01*
X154647352Y-77468666D01*
X154599733Y-77373428D01*
X154552114Y-77325809D01*
X154456876Y-77278190D01*
X154266399Y-77230571D01*
X154171161Y-77182952D01*
X154123542Y-77135333D01*
X154075923Y-77040095D01*
X154075923Y-76944857D01*
X154123542Y-76849619D01*
X154171161Y-76802000D01*
X154266399Y-76754380D01*
X154504495Y-76754380D01*
X154647352Y-76802000D01*
X155075923Y-77754380D02*
X155075923Y-76754380D01*
X156314019Y-77754380D02*
X156314019Y-76754380D01*
X156552114Y-76754380D01*
X156694971Y-76802000D01*
X156790209Y-76897238D01*
X156837828Y-76992476D01*
X156885447Y-77182952D01*
X156885447Y-77325809D01*
X156837828Y-77516285D01*
X156790209Y-77611523D01*
X156694971Y-77706761D01*
X156552114Y-77754380D01*
X156314019Y-77754380D01*
X157885447Y-77659142D02*
X157837828Y-77706761D01*
X157694971Y-77754380D01*
X157599733Y-77754380D01*
X157456876Y-77706761D01*
X157361638Y-77611523D01*
X157314019Y-77516285D01*
X157266399Y-77325809D01*
X157266399Y-77182952D01*
X157314019Y-76992476D01*
X157361638Y-76897238D01*
X157456876Y-76802000D01*
X157599733Y-76754380D01*
X157694971Y-76754380D01*
X157837828Y-76802000D01*
X157885447Y-76849619D01*
X158885447Y-77754380D02*
X158552114Y-77278190D01*
X158314019Y-77754380D02*
X158314019Y-76754380D01*
X158694971Y-76754380D01*
X158790209Y-76802000D01*
X158837828Y-76849619D01*
X158885447Y-76944857D01*
X158885447Y-77087714D01*
X158837828Y-77182952D01*
X158790209Y-77230571D01*
X158694971Y-77278190D01*
X158314019Y-77278190D01*
X159266399Y-77706761D02*
X159409257Y-77754380D01*
X159647352Y-77754380D01*
X159742590Y-77706761D01*
X159790209Y-77659142D01*
X159837828Y-77563904D01*
X159837828Y-77468666D01*
X159790209Y-77373428D01*
X159742590Y-77325809D01*
X159647352Y-77278190D01*
X159456876Y-77230571D01*
X159361638Y-77182952D01*
X159314019Y-77135333D01*
X159266399Y-77040095D01*
X159266399Y-76944857D01*
X159314019Y-76849619D01*
X159361638Y-76802000D01*
X159456876Y-76754380D01*
X159694971Y-76754380D01*
X159837828Y-76802000D01*
X101373371Y-65438400D02*
X101278133Y-65390780D01*
X101135276Y-65390780D01*
X100992419Y-65438400D01*
X100897180Y-65533638D01*
X100849561Y-65628876D01*
X100801942Y-65819352D01*
X100801942Y-65962209D01*
X100849561Y-66152685D01*
X100897180Y-66247923D01*
X100992419Y-66343161D01*
X101135276Y-66390780D01*
X101230514Y-66390780D01*
X101373371Y-66343161D01*
X101420990Y-66295542D01*
X101420990Y-65962209D01*
X101230514Y-65962209D01*
X101849561Y-65724114D02*
X101849561Y-66390780D01*
X101849561Y-65819352D02*
X101897180Y-65771733D01*
X101992419Y-65724114D01*
X102135276Y-65724114D01*
X102230514Y-65771733D01*
X102278133Y-65866971D01*
X102278133Y-66390780D01*
X103182895Y-66390780D02*
X103182895Y-65390780D01*
X103182895Y-66343161D02*
X103087657Y-66390780D01*
X102897180Y-66390780D01*
X102801942Y-66343161D01*
X102754323Y-66295542D01*
X102706704Y-66200304D01*
X102706704Y-65914590D01*
X102754323Y-65819352D01*
X102801942Y-65771733D01*
X102897180Y-65724114D01*
X103087657Y-65724114D01*
X103182895Y-65771733D01*
X104325752Y-65390780D02*
X104944800Y-65390780D01*
X104611466Y-65771733D01*
X104754323Y-65771733D01*
X104849561Y-65819352D01*
X104897180Y-65866971D01*
X104944800Y-65962209D01*
X104944800Y-66200304D01*
X104897180Y-66295542D01*
X104849561Y-66343161D01*
X104754323Y-66390780D01*
X104468609Y-66390780D01*
X104373371Y-66343161D01*
X104325752Y-66295542D01*
X105373371Y-66295542D02*
X105420990Y-66343161D01*
X105373371Y-66390780D01*
X105325752Y-66343161D01*
X105373371Y-66295542D01*
X105373371Y-66390780D01*
X105754323Y-65390780D02*
X106373371Y-65390780D01*
X106040038Y-65771733D01*
X106182895Y-65771733D01*
X106278133Y-65819352D01*
X106325752Y-65866971D01*
X106373371Y-65962209D01*
X106373371Y-66200304D01*
X106325752Y-66295542D01*
X106278133Y-66343161D01*
X106182895Y-66390780D01*
X105897180Y-66390780D01*
X105801942Y-66343161D01*
X105754323Y-66295542D01*
X108040038Y-65390780D02*
X107563847Y-65390780D01*
X107516228Y-65866971D01*
X107563847Y-65819352D01*
X107659085Y-65771733D01*
X107897180Y-65771733D01*
X107992419Y-65819352D01*
X108040038Y-65866971D01*
X108087657Y-65962209D01*
X108087657Y-66200304D01*
X108040038Y-66295542D01*
X107992419Y-66343161D01*
X107897180Y-66390780D01*
X107659085Y-66390780D01*
X107563847Y-66343161D01*
X107516228Y-66295542D01*
X132942247Y-114193580D02*
X132942247Y-113193580D01*
X133323200Y-113193580D01*
X133418438Y-113241200D01*
X133466057Y-113288819D01*
X133513676Y-113384057D01*
X133513676Y-113526914D01*
X133466057Y-113622152D01*
X133418438Y-113669771D01*
X133323200Y-113717390D01*
X132942247Y-113717390D01*
X133847009Y-113193580D02*
X134085104Y-114193580D01*
X134275580Y-113479295D01*
X134466057Y-114193580D01*
X134704152Y-113193580D01*
X135085104Y-114193580D02*
X135085104Y-113193580D01*
X135418438Y-113907866D01*
X135751771Y-113193580D01*
X135751771Y-114193580D01*
X136418438Y-113193580D02*
X136513676Y-113193580D01*
X136608914Y-113241200D01*
X136656533Y-113288819D01*
X136704152Y-113384057D01*
X136751771Y-113574533D01*
X136751771Y-113812628D01*
X136704152Y-114003104D01*
X136656533Y-114098342D01*
X136608914Y-114145961D01*
X136513676Y-114193580D01*
X136418438Y-114193580D01*
X136323200Y-114145961D01*
X136275580Y-114098342D01*
X136227961Y-114003104D01*
X136180342Y-113812628D01*
X136180342Y-113574533D01*
X136227961Y-113384057D01*
X136275580Y-113288819D01*
X136323200Y-113241200D01*
X136418438Y-113193580D01*
X127659047Y-114650780D02*
X127659047Y-113650780D01*
X128040000Y-113650780D01*
X128135238Y-113698400D01*
X128182857Y-113746019D01*
X128230476Y-113841257D01*
X128230476Y-113984114D01*
X128182857Y-114079352D01*
X128135238Y-114126971D01*
X128040000Y-114174590D01*
X127659047Y-114174590D01*
X128563809Y-113650780D02*
X128801904Y-114650780D01*
X128992380Y-113936495D01*
X129182857Y-114650780D01*
X129420952Y-113650780D01*
X129801904Y-114650780D02*
X129801904Y-113650780D01*
X130135238Y-114365066D01*
X130468571Y-113650780D01*
X130468571Y-114650780D01*
X131468571Y-114650780D02*
X130897142Y-114650780D01*
X131182857Y-114650780D02*
X131182857Y-113650780D01*
X131087619Y-113793638D01*
X130992380Y-113888876D01*
X130897142Y-113936495D01*
X143254361Y-52472933D02*
X143301980Y-52330076D01*
X143301980Y-52091980D01*
X143254361Y-51996742D01*
X143206742Y-51949123D01*
X143111504Y-51901504D01*
X143016266Y-51901504D01*
X142921028Y-51949123D01*
X142873409Y-51996742D01*
X142825790Y-52091980D01*
X142778171Y-52282457D01*
X142730552Y-52377695D01*
X142682933Y-52425314D01*
X142587695Y-52472933D01*
X142492457Y-52472933D01*
X142397219Y-52425314D01*
X142349600Y-52377695D01*
X142301980Y-52282457D01*
X142301980Y-52044361D01*
X142349600Y-51901504D01*
X143254361Y-51044361D02*
X143301980Y-51139600D01*
X143301980Y-51330076D01*
X143254361Y-51425314D01*
X143206742Y-51472933D01*
X143111504Y-51520552D01*
X142825790Y-51520552D01*
X142730552Y-51472933D01*
X142682933Y-51425314D01*
X142635314Y-51330076D01*
X142635314Y-51139600D01*
X142682933Y-51044361D01*
X143301980Y-50615790D02*
X142635314Y-50615790D01*
X142825790Y-50615790D02*
X142730552Y-50568171D01*
X142682933Y-50520552D01*
X142635314Y-50425314D01*
X142635314Y-50330076D01*
X143254361Y-49615790D02*
X143301980Y-49711028D01*
X143301980Y-49901504D01*
X143254361Y-49996742D01*
X143159123Y-50044361D01*
X142778171Y-50044361D01*
X142682933Y-49996742D01*
X142635314Y-49901504D01*
X142635314Y-49711028D01*
X142682933Y-49615790D01*
X142778171Y-49568171D01*
X142873409Y-49568171D01*
X142968647Y-50044361D01*
X143254361Y-48758647D02*
X143301980Y-48853885D01*
X143301980Y-49044361D01*
X143254361Y-49139600D01*
X143159123Y-49187219D01*
X142778171Y-49187219D01*
X142682933Y-49139600D01*
X142635314Y-49044361D01*
X142635314Y-48853885D01*
X142682933Y-48758647D01*
X142778171Y-48711028D01*
X142873409Y-48711028D01*
X142968647Y-49187219D01*
X142635314Y-48282457D02*
X143301980Y-48282457D01*
X142730552Y-48282457D02*
X142682933Y-48234838D01*
X142635314Y-48139600D01*
X142635314Y-47996742D01*
X142682933Y-47901504D01*
X142778171Y-47853885D01*
X143301980Y-47853885D01*
X162776495Y-101344361D02*
X162919352Y-101391980D01*
X163157447Y-101391980D01*
X163252685Y-101344361D01*
X163300304Y-101296742D01*
X163347923Y-101201504D01*
X163347923Y-101106266D01*
X163300304Y-101011028D01*
X163252685Y-100963409D01*
X163157447Y-100915790D01*
X162966971Y-100868171D01*
X162871733Y-100820552D01*
X162824114Y-100772933D01*
X162776495Y-100677695D01*
X162776495Y-100582457D01*
X162824114Y-100487219D01*
X162871733Y-100439600D01*
X162966971Y-100391980D01*
X163205066Y-100391980D01*
X163347923Y-100439600D01*
X164347923Y-101296742D02*
X164300304Y-101344361D01*
X164157447Y-101391980D01*
X164062209Y-101391980D01*
X163919352Y-101344361D01*
X163824114Y-101249123D01*
X163776495Y-101153885D01*
X163728876Y-100963409D01*
X163728876Y-100820552D01*
X163776495Y-100630076D01*
X163824114Y-100534838D01*
X163919352Y-100439600D01*
X164062209Y-100391980D01*
X164157447Y-100391980D01*
X164300304Y-100439600D01*
X164347923Y-100487219D01*
X165252685Y-101391980D02*
X164776495Y-101391980D01*
X164776495Y-100391980D01*
X166300304Y-101344361D02*
X166443161Y-101391980D01*
X166681257Y-101391980D01*
X166776495Y-101344361D01*
X166824114Y-101296742D01*
X166871733Y-101201504D01*
X166871733Y-101106266D01*
X166824114Y-101011028D01*
X166776495Y-100963409D01*
X166681257Y-100915790D01*
X166490780Y-100868171D01*
X166395542Y-100820552D01*
X166347923Y-100772933D01*
X166300304Y-100677695D01*
X166300304Y-100582457D01*
X166347923Y-100487219D01*
X166395542Y-100439600D01*
X166490780Y-100391980D01*
X166728876Y-100391980D01*
X166871733Y-100439600D01*
X167300304Y-101391980D02*
X167300304Y-100391980D01*
X167538400Y-100391980D01*
X167681257Y-100439600D01*
X167776495Y-100534838D01*
X167824114Y-100630076D01*
X167871733Y-100820552D01*
X167871733Y-100963409D01*
X167824114Y-101153885D01*
X167776495Y-101249123D01*
X167681257Y-101344361D01*
X167538400Y-101391980D01*
X167300304Y-101391980D01*
X168252685Y-101106266D02*
X168728876Y-101106266D01*
X168157447Y-101391980D02*
X168490780Y-100391980D01*
X168824114Y-101391980D01*
X170443161Y-100439600D02*
X170347923Y-100391980D01*
X170205066Y-100391980D01*
X170062209Y-100439600D01*
X169966971Y-100534838D01*
X169919352Y-100630076D01*
X169871733Y-100820552D01*
X169871733Y-100963409D01*
X169919352Y-101153885D01*
X169966971Y-101249123D01*
X170062209Y-101344361D01*
X170205066Y-101391980D01*
X170300304Y-101391980D01*
X170443161Y-101344361D01*
X170490780Y-101296742D01*
X170490780Y-100963409D01*
X170300304Y-100963409D01*
X170919352Y-100725314D02*
X170919352Y-101391980D01*
X170919352Y-100820552D02*
X170966971Y-100772933D01*
X171062209Y-100725314D01*
X171205066Y-100725314D01*
X171300304Y-100772933D01*
X171347923Y-100868171D01*
X171347923Y-101391980D01*
X172252685Y-101391980D02*
X172252685Y-100391980D01*
X172252685Y-101344361D02*
X172157447Y-101391980D01*
X171966971Y-101391980D01*
X171871733Y-101344361D01*
X171824114Y-101296742D01*
X171776495Y-101201504D01*
X171776495Y-100915790D01*
X171824114Y-100820552D01*
X171871733Y-100772933D01*
X171966971Y-100725314D01*
X172157447Y-100725314D01*
X172252685Y-100772933D01*
X156850395Y-90618380D02*
X156850395Y-89618380D01*
X157231347Y-89618380D01*
X157326585Y-89666000D01*
X157374204Y-89713619D01*
X157421823Y-89808857D01*
X157421823Y-89951714D01*
X157374204Y-90046952D01*
X157326585Y-90094571D01*
X157231347Y-90142190D01*
X156850395Y-90142190D01*
X157850395Y-90618380D02*
X157850395Y-89951714D01*
X157850395Y-90142190D02*
X157898014Y-90046952D01*
X157945633Y-89999333D01*
X158040871Y-89951714D01*
X158136109Y-89951714D01*
X158612300Y-90618380D02*
X158517061Y-90570761D01*
X158469442Y-90523142D01*
X158421823Y-90427904D01*
X158421823Y-90142190D01*
X158469442Y-90046952D01*
X158517061Y-89999333D01*
X158612300Y-89951714D01*
X158755157Y-89951714D01*
X158850395Y-89999333D01*
X158898014Y-90046952D01*
X158945633Y-90142190D01*
X158945633Y-90427904D01*
X158898014Y-90523142D01*
X158850395Y-90570761D01*
X158755157Y-90618380D01*
X158612300Y-90618380D01*
X159802776Y-89951714D02*
X159802776Y-90761238D01*
X159755157Y-90856476D01*
X159707538Y-90904095D01*
X159612300Y-90951714D01*
X159469442Y-90951714D01*
X159374204Y-90904095D01*
X159802776Y-90570761D02*
X159707538Y-90618380D01*
X159517061Y-90618380D01*
X159421823Y-90570761D01*
X159374204Y-90523142D01*
X159326585Y-90427904D01*
X159326585Y-90142190D01*
X159374204Y-90046952D01*
X159421823Y-89999333D01*
X159517061Y-89951714D01*
X159707538Y-89951714D01*
X159802776Y-89999333D01*
X160278966Y-90523142D02*
X160326585Y-90570761D01*
X160278966Y-90618380D01*
X160231347Y-90570761D01*
X160278966Y-90523142D01*
X160278966Y-90618380D01*
X160278966Y-89999333D02*
X160326585Y-90046952D01*
X160278966Y-90094571D01*
X160231347Y-90046952D01*
X160278966Y-89999333D01*
X160278966Y-90094571D01*
X156802776Y-92180761D02*
X156945633Y-92228380D01*
X157183728Y-92228380D01*
X157278966Y-92180761D01*
X157326585Y-92133142D01*
X157374204Y-92037904D01*
X157374204Y-91942666D01*
X157326585Y-91847428D01*
X157278966Y-91799809D01*
X157183728Y-91752190D01*
X156993252Y-91704571D01*
X156898014Y-91656952D01*
X156850395Y-91609333D01*
X156802776Y-91514095D01*
X156802776Y-91418857D01*
X156850395Y-91323619D01*
X156898014Y-91276000D01*
X156993252Y-91228380D01*
X157231347Y-91228380D01*
X157374204Y-91276000D01*
X157707538Y-91228380D02*
X157945633Y-92228380D01*
X158136109Y-91514095D01*
X158326585Y-92228380D01*
X158564680Y-91228380D01*
X159517061Y-92133142D02*
X159469442Y-92180761D01*
X159326585Y-92228380D01*
X159231347Y-92228380D01*
X159088490Y-92180761D01*
X158993252Y-92085523D01*
X158945633Y-91990285D01*
X158898014Y-91799809D01*
X158898014Y-91656952D01*
X158945633Y-91466476D01*
X158993252Y-91371238D01*
X159088490Y-91276000D01*
X159231347Y-91228380D01*
X159326585Y-91228380D01*
X159469442Y-91276000D01*
X159517061Y-91323619D01*
X160421823Y-92228380D02*
X159945633Y-92228380D01*
X159945633Y-91228380D01*
X160755157Y-92228380D02*
X160755157Y-91228380D01*
X161326585Y-92228380D02*
X160898014Y-91656952D01*
X161326585Y-91228380D02*
X160755157Y-91799809D01*
X156802776Y-93790761D02*
X156945633Y-93838380D01*
X157183728Y-93838380D01*
X157278966Y-93790761D01*
X157326585Y-93743142D01*
X157374204Y-93647904D01*
X157374204Y-93552666D01*
X157326585Y-93457428D01*
X157278966Y-93409809D01*
X157183728Y-93362190D01*
X156993252Y-93314571D01*
X156898014Y-93266952D01*
X156850395Y-93219333D01*
X156802776Y-93124095D01*
X156802776Y-93028857D01*
X156850395Y-92933619D01*
X156898014Y-92886000D01*
X156993252Y-92838380D01*
X157231347Y-92838380D01*
X157374204Y-92886000D01*
X157707538Y-92838380D02*
X157945633Y-93838380D01*
X158136109Y-93124095D01*
X158326585Y-93838380D01*
X158564680Y-92838380D01*
X158945633Y-93838380D02*
X158945633Y-92838380D01*
X159183728Y-92838380D01*
X159326585Y-92886000D01*
X159421823Y-92981238D01*
X159469442Y-93076476D01*
X159517061Y-93266952D01*
X159517061Y-93409809D01*
X159469442Y-93600285D01*
X159421823Y-93695523D01*
X159326585Y-93790761D01*
X159183728Y-93838380D01*
X158945633Y-93838380D01*
X159945633Y-93838380D02*
X159945633Y-92838380D01*
X160612300Y-92838380D02*
X160802776Y-92838380D01*
X160898014Y-92886000D01*
X160993252Y-92981238D01*
X161040871Y-93171714D01*
X161040871Y-93505047D01*
X160993252Y-93695523D01*
X160898014Y-93790761D01*
X160802776Y-93838380D01*
X160612300Y-93838380D01*
X160517061Y-93790761D01*
X160421823Y-93695523D01*
X160374204Y-93505047D01*
X160374204Y-93171714D01*
X160421823Y-92981238D01*
X160517061Y-92886000D01*
X160612300Y-92838380D01*
X157374204Y-94496000D02*
X157278966Y-94448380D01*
X157136109Y-94448380D01*
X156993252Y-94496000D01*
X156898014Y-94591238D01*
X156850395Y-94686476D01*
X156802776Y-94876952D01*
X156802776Y-95019809D01*
X156850395Y-95210285D01*
X156898014Y-95305523D01*
X156993252Y-95400761D01*
X157136109Y-95448380D01*
X157231347Y-95448380D01*
X157374204Y-95400761D01*
X157421823Y-95353142D01*
X157421823Y-95019809D01*
X157231347Y-95019809D01*
X157850395Y-94781714D02*
X157850395Y-95448380D01*
X157850395Y-94876952D02*
X157898014Y-94829333D01*
X157993252Y-94781714D01*
X158136109Y-94781714D01*
X158231347Y-94829333D01*
X158278966Y-94924571D01*
X158278966Y-95448380D01*
X159183728Y-95448380D02*
X159183728Y-94448380D01*
X159183728Y-95400761D02*
X159088490Y-95448380D01*
X158898014Y-95448380D01*
X158802776Y-95400761D01*
X158755157Y-95353142D01*
X158707538Y-95257904D01*
X158707538Y-94972190D01*
X158755157Y-94876952D01*
X158802776Y-94829333D01*
X158898014Y-94781714D01*
X159088490Y-94781714D01*
X159183728Y-94829333D01*
X156755157Y-96058380D02*
X157374204Y-96058380D01*
X157040871Y-96439333D01*
X157183728Y-96439333D01*
X157278966Y-96486952D01*
X157326585Y-96534571D01*
X157374204Y-96629809D01*
X157374204Y-96867904D01*
X157326585Y-96963142D01*
X157278966Y-97010761D01*
X157183728Y-97058380D01*
X156898014Y-97058380D01*
X156802776Y-97010761D01*
X156755157Y-96963142D01*
X157802776Y-96963142D02*
X157850395Y-97010761D01*
X157802776Y-97058380D01*
X157755157Y-97010761D01*
X157802776Y-96963142D01*
X157802776Y-97058380D01*
X158183728Y-96058380D02*
X158802776Y-96058380D01*
X158469442Y-96439333D01*
X158612300Y-96439333D01*
X158707538Y-96486952D01*
X158755157Y-96534571D01*
X158802776Y-96629809D01*
X158802776Y-96867904D01*
X158755157Y-96963142D01*
X158707538Y-97010761D01*
X158612300Y-97058380D01*
X158326585Y-97058380D01*
X158231347Y-97010761D01*
X158183728Y-96963142D01*
X159088490Y-96058380D02*
X159421823Y-97058380D01*
X159755157Y-96058380D01*
X157183728Y-98144571D02*
X157326585Y-98192190D01*
X157374204Y-98239809D01*
X157421823Y-98335047D01*
X157421823Y-98477904D01*
X157374204Y-98573142D01*
X157326585Y-98620761D01*
X157231347Y-98668380D01*
X156850395Y-98668380D01*
X156850395Y-97668380D01*
X157183728Y-97668380D01*
X157278966Y-97716000D01*
X157326585Y-97763619D01*
X157374204Y-97858857D01*
X157374204Y-97954095D01*
X157326585Y-98049333D01*
X157278966Y-98096952D01*
X157183728Y-98144571D01*
X156850395Y-98144571D01*
X158040871Y-97668380D02*
X158231347Y-97668380D01*
X158326585Y-97716000D01*
X158421823Y-97811238D01*
X158469442Y-98001714D01*
X158469442Y-98335047D01*
X158421823Y-98525523D01*
X158326585Y-98620761D01*
X158231347Y-98668380D01*
X158040871Y-98668380D01*
X157945633Y-98620761D01*
X157850395Y-98525523D01*
X157802776Y-98335047D01*
X157802776Y-98001714D01*
X157850395Y-97811238D01*
X157945633Y-97716000D01*
X158040871Y-97668380D01*
X159088490Y-97668380D02*
X159278966Y-97668380D01*
X159374204Y-97716000D01*
X159469442Y-97811238D01*
X159517061Y-98001714D01*
X159517061Y-98335047D01*
X159469442Y-98525523D01*
X159374204Y-98620761D01*
X159278966Y-98668380D01*
X159088490Y-98668380D01*
X158993252Y-98620761D01*
X158898014Y-98525523D01*
X158850395Y-98335047D01*
X158850395Y-98001714D01*
X158898014Y-97811238D01*
X158993252Y-97716000D01*
X159088490Y-97668380D01*
X159802776Y-97668380D02*
X160374204Y-97668380D01*
X160088490Y-98668380D02*
X160088490Y-97668380D01*
X160898014Y-97668380D02*
X160993252Y-97668380D01*
X161088490Y-97716000D01*
X161136109Y-97763619D01*
X161183728Y-97858857D01*
X161231347Y-98049333D01*
X161231347Y-98287428D01*
X161183728Y-98477904D01*
X161136109Y-98573142D01*
X161088490Y-98620761D01*
X160993252Y-98668380D01*
X160898014Y-98668380D01*
X160802776Y-98620761D01*
X160755157Y-98573142D01*
X160707538Y-98477904D01*
X160659919Y-98287428D01*
X160659919Y-98049333D01*
X160707538Y-97858857D01*
X160755157Y-97763619D01*
X160802776Y-97716000D01*
X160898014Y-97668380D01*
X156850395Y-100278380D02*
X156850395Y-99278380D01*
X157421823Y-100278380D01*
X157421823Y-99278380D01*
X158469442Y-100278380D02*
X158136109Y-99802190D01*
X157898014Y-100278380D02*
X157898014Y-99278380D01*
X158278966Y-99278380D01*
X158374204Y-99326000D01*
X158421823Y-99373619D01*
X158469442Y-99468857D01*
X158469442Y-99611714D01*
X158421823Y-99706952D01*
X158374204Y-99754571D01*
X158278966Y-99802190D01*
X157898014Y-99802190D01*
X158850395Y-100230761D02*
X158993252Y-100278380D01*
X159231347Y-100278380D01*
X159326585Y-100230761D01*
X159374204Y-100183142D01*
X159421823Y-100087904D01*
X159421823Y-99992666D01*
X159374204Y-99897428D01*
X159326585Y-99849809D01*
X159231347Y-99802190D01*
X159040871Y-99754571D01*
X158945633Y-99706952D01*
X158898014Y-99659333D01*
X158850395Y-99564095D01*
X158850395Y-99468857D01*
X158898014Y-99373619D01*
X158945633Y-99326000D01*
X159040871Y-99278380D01*
X159278966Y-99278380D01*
X159421823Y-99326000D01*
X159707538Y-99278380D02*
X160278966Y-99278380D01*
X159993252Y-100278380D02*
X159993252Y-99278380D01*
%TO.C,J8*%
X164319880Y-97783333D02*
X165034166Y-97783333D01*
X165177023Y-97830952D01*
X165272261Y-97926190D01*
X165319880Y-98069047D01*
X165319880Y-98164285D01*
X164748452Y-97164285D02*
X164700833Y-97259523D01*
X164653214Y-97307142D01*
X164557976Y-97354761D01*
X164510357Y-97354761D01*
X164415119Y-97307142D01*
X164367500Y-97259523D01*
X164319880Y-97164285D01*
X164319880Y-96973809D01*
X164367500Y-96878571D01*
X164415119Y-96830952D01*
X164510357Y-96783333D01*
X164557976Y-96783333D01*
X164653214Y-96830952D01*
X164700833Y-96878571D01*
X164748452Y-96973809D01*
X164748452Y-97164285D01*
X164796071Y-97259523D01*
X164843690Y-97307142D01*
X164938928Y-97354761D01*
X165129404Y-97354761D01*
X165224642Y-97307142D01*
X165272261Y-97259523D01*
X165319880Y-97164285D01*
X165319880Y-96973809D01*
X165272261Y-96878571D01*
X165224642Y-96830952D01*
X165129404Y-96783333D01*
X164938928Y-96783333D01*
X164843690Y-96830952D01*
X164796071Y-96878571D01*
X164748452Y-96973809D01*
%TO.C,J15*%
X157418400Y-105963980D02*
X157418400Y-104963980D01*
X157846971Y-105059219D02*
X157894590Y-105011600D01*
X157989828Y-104963980D01*
X158227923Y-104963980D01*
X158323161Y-105011600D01*
X158370780Y-105059219D01*
X158418400Y-105154457D01*
X158418400Y-105249695D01*
X158370780Y-105392552D01*
X157799352Y-105963980D01*
X158418400Y-105963980D01*
X159418400Y-105868742D02*
X159370780Y-105916361D01*
X159227923Y-105963980D01*
X159132685Y-105963980D01*
X158989828Y-105916361D01*
X158894590Y-105821123D01*
X158846971Y-105725885D01*
X158799352Y-105535409D01*
X158799352Y-105392552D01*
X158846971Y-105202076D01*
X158894590Y-105106838D01*
X158989828Y-105011600D01*
X159132685Y-104963980D01*
X159227923Y-104963980D01*
X159370780Y-105011600D01*
X159418400Y-105059219D01*
X160561257Y-104916361D02*
X159704114Y-106202076D01*
X160894590Y-104963980D02*
X160894590Y-105773504D01*
X160942209Y-105868742D01*
X160989828Y-105916361D01*
X161085066Y-105963980D01*
X161275542Y-105963980D01*
X161370780Y-105916361D01*
X161418400Y-105868742D01*
X161466019Y-105773504D01*
X161466019Y-104963980D01*
X162466019Y-105963980D02*
X161894590Y-105963980D01*
X162180304Y-105963980D02*
X162180304Y-104963980D01*
X162085066Y-105106838D01*
X161989828Y-105202076D01*
X161894590Y-105249695D01*
%TO.C,TP2*%
X121776190Y-79002380D02*
X122109523Y-80002380D01*
X122442857Y-79002380D01*
X122776190Y-80002380D02*
X122776190Y-79335714D01*
X122776190Y-79002380D02*
X122728571Y-79050000D01*
X122776190Y-79097619D01*
X122823809Y-79050000D01*
X122776190Y-79002380D01*
X122776190Y-79097619D01*
X123252380Y-79335714D02*
X123252380Y-80002380D01*
X123252380Y-79430952D02*
X123300000Y-79383333D01*
X123395238Y-79335714D01*
X123538095Y-79335714D01*
X123633333Y-79383333D01*
X123680952Y-79478571D01*
X123680952Y-80002380D01*
%TO.C,D12*%
X118495714Y-82893380D02*
X118495714Y-81893380D01*
X118733809Y-81893380D01*
X118876666Y-81941000D01*
X118971904Y-82036238D01*
X119019523Y-82131476D01*
X119067142Y-82321952D01*
X119067142Y-82464809D01*
X119019523Y-82655285D01*
X118971904Y-82750523D01*
X118876666Y-82845761D01*
X118733809Y-82893380D01*
X118495714Y-82893380D01*
X120019523Y-82893380D02*
X119448095Y-82893380D01*
X119733809Y-82893380D02*
X119733809Y-81893380D01*
X119638571Y-82036238D01*
X119543333Y-82131476D01*
X119448095Y-82179095D01*
X120400476Y-81988619D02*
X120448095Y-81941000D01*
X120543333Y-81893380D01*
X120781428Y-81893380D01*
X120876666Y-81941000D01*
X120924285Y-81988619D01*
X120971904Y-82083857D01*
X120971904Y-82179095D01*
X120924285Y-82321952D01*
X120352857Y-82893380D01*
X120971904Y-82893380D01*
X121376904Y-88632666D02*
X121853095Y-88632666D01*
X121281666Y-88918380D02*
X121615000Y-87918380D01*
X121948333Y-88918380D01*
%TO.C,J9*%
X163885904Y-119216514D02*
X163885904Y-119883180D01*
X163647809Y-118835561D02*
X163409714Y-119549847D01*
X164028761Y-119549847D01*
X164552571Y-119311752D02*
X164457333Y-119264133D01*
X164409714Y-119216514D01*
X164362095Y-119121276D01*
X164362095Y-119073657D01*
X164409714Y-118978419D01*
X164457333Y-118930800D01*
X164552571Y-118883180D01*
X164743047Y-118883180D01*
X164838285Y-118930800D01*
X164885904Y-118978419D01*
X164933523Y-119073657D01*
X164933523Y-119121276D01*
X164885904Y-119216514D01*
X164838285Y-119264133D01*
X164743047Y-119311752D01*
X164552571Y-119311752D01*
X164457333Y-119359371D01*
X164409714Y-119406990D01*
X164362095Y-119502228D01*
X164362095Y-119692704D01*
X164409714Y-119787942D01*
X164457333Y-119835561D01*
X164552571Y-119883180D01*
X164743047Y-119883180D01*
X164838285Y-119835561D01*
X164885904Y-119787942D01*
X164933523Y-119692704D01*
X164933523Y-119502228D01*
X164885904Y-119406990D01*
X164838285Y-119359371D01*
X164743047Y-119311752D01*
X165838285Y-118883180D02*
X165362095Y-118883180D01*
X165314476Y-119359371D01*
X165362095Y-119311752D01*
X165457333Y-119264133D01*
X165695428Y-119264133D01*
X165790666Y-119311752D01*
X165838285Y-119359371D01*
X165885904Y-119454609D01*
X165885904Y-119692704D01*
X165838285Y-119787942D01*
X165790666Y-119835561D01*
X165695428Y-119883180D01*
X165457333Y-119883180D01*
X165362095Y-119835561D01*
X165314476Y-119787942D01*
X167028761Y-118835561D02*
X166171619Y-120121276D01*
X167933523Y-119787942D02*
X167885904Y-119835561D01*
X167743047Y-119883180D01*
X167647809Y-119883180D01*
X167504952Y-119835561D01*
X167409714Y-119740323D01*
X167362095Y-119645085D01*
X167314476Y-119454609D01*
X167314476Y-119311752D01*
X167362095Y-119121276D01*
X167409714Y-119026038D01*
X167504952Y-118930800D01*
X167647809Y-118883180D01*
X167743047Y-118883180D01*
X167885904Y-118930800D01*
X167933523Y-118978419D01*
X168314476Y-119597466D02*
X168790666Y-119597466D01*
X168219238Y-119883180D02*
X168552571Y-118883180D01*
X168885904Y-119883180D01*
X169219238Y-119883180D02*
X169219238Y-118883180D01*
X169790666Y-119883180D01*
X169790666Y-118883180D01*
%TO.C,R34*%
X136393180Y-59316857D02*
X135916990Y-59650190D01*
X136393180Y-59888285D02*
X135393180Y-59888285D01*
X135393180Y-59507333D01*
X135440800Y-59412095D01*
X135488419Y-59364476D01*
X135583657Y-59316857D01*
X135726514Y-59316857D01*
X135821752Y-59364476D01*
X135869371Y-59412095D01*
X135916990Y-59507333D01*
X135916990Y-59888285D01*
X135393180Y-58983523D02*
X135393180Y-58364476D01*
X135774133Y-58697809D01*
X135774133Y-58554952D01*
X135821752Y-58459714D01*
X135869371Y-58412095D01*
X135964609Y-58364476D01*
X136202704Y-58364476D01*
X136297942Y-58412095D01*
X136345561Y-58459714D01*
X136393180Y-58554952D01*
X136393180Y-58840666D01*
X136345561Y-58935904D01*
X136297942Y-58983523D01*
X135726514Y-57507333D02*
X136393180Y-57507333D01*
X135345561Y-57745428D02*
X136059847Y-57983523D01*
X136059847Y-57364476D01*
%TO.C,J11*%
X168690476Y-82252380D02*
X168690476Y-82966666D01*
X168642857Y-83109523D01*
X168547619Y-83204761D01*
X168404761Y-83252380D01*
X168309523Y-83252380D01*
X169690476Y-83252380D02*
X169119047Y-83252380D01*
X169404761Y-83252380D02*
X169404761Y-82252380D01*
X169309523Y-82395238D01*
X169214285Y-82490476D01*
X169119047Y-82538095D01*
X170642857Y-83252380D02*
X170071428Y-83252380D01*
X170357142Y-83252380D02*
X170357142Y-82252380D01*
X170261904Y-82395238D01*
X170166666Y-82490476D01*
X170071428Y-82538095D01*
%TO.C,U3*%
X141038095Y-119352380D02*
X141038095Y-120161904D01*
X141085714Y-120257142D01*
X141133333Y-120304761D01*
X141228571Y-120352380D01*
X141419047Y-120352380D01*
X141514285Y-120304761D01*
X141561904Y-120257142D01*
X141609523Y-120161904D01*
X141609523Y-119352380D01*
X141990476Y-119352380D02*
X142609523Y-119352380D01*
X142276190Y-119733333D01*
X142419047Y-119733333D01*
X142514285Y-119780952D01*
X142561904Y-119828571D01*
X142609523Y-119923809D01*
X142609523Y-120161904D01*
X142561904Y-120257142D01*
X142514285Y-120304761D01*
X142419047Y-120352380D01*
X142133333Y-120352380D01*
X142038095Y-120304761D01*
X141990476Y-120257142D01*
%TO.C,TP6*%
X110956933Y-49614780D02*
X111290266Y-50614780D01*
X111623600Y-49614780D01*
X112385504Y-50614780D02*
X112385504Y-50090971D01*
X112337885Y-49995733D01*
X112242647Y-49948114D01*
X112052171Y-49948114D01*
X111956933Y-49995733D01*
X112385504Y-50567161D02*
X112290266Y-50614780D01*
X112052171Y-50614780D01*
X111956933Y-50567161D01*
X111909314Y-50471923D01*
X111909314Y-50376685D01*
X111956933Y-50281447D01*
X112052171Y-50233828D01*
X112290266Y-50233828D01*
X112385504Y-50186209D01*
X113290266Y-50614780D02*
X113290266Y-49614780D01*
X113290266Y-50567161D02*
X113195028Y-50614780D01*
X113004552Y-50614780D01*
X112909314Y-50567161D01*
X112861695Y-50519542D01*
X112814076Y-50424304D01*
X112814076Y-50138590D01*
X112861695Y-50043352D01*
X112909314Y-49995733D01*
X113004552Y-49948114D01*
X113195028Y-49948114D01*
X113290266Y-49995733D01*
X114195028Y-50567161D02*
X114099790Y-50614780D01*
X113909314Y-50614780D01*
X113814076Y-50567161D01*
X113766457Y-50519542D01*
X113718838Y-50424304D01*
X113718838Y-50138590D01*
X113766457Y-50043352D01*
X113814076Y-49995733D01*
X113909314Y-49948114D01*
X114099790Y-49948114D01*
X114195028Y-49995733D01*
%TO.C,J6*%
X130256257Y-63717466D02*
X130732447Y-63717466D01*
X130161019Y-64003180D02*
X130494352Y-63003180D01*
X130827685Y-64003180D01*
X131161019Y-64003180D02*
X131161019Y-63003180D01*
X131399114Y-63003180D01*
X131541971Y-63050800D01*
X131637209Y-63146038D01*
X131684828Y-63241276D01*
X131732447Y-63431752D01*
X131732447Y-63574609D01*
X131684828Y-63765085D01*
X131637209Y-63860323D01*
X131541971Y-63955561D01*
X131399114Y-64003180D01*
X131161019Y-64003180D01*
X132732447Y-63907942D02*
X132684828Y-63955561D01*
X132541971Y-64003180D01*
X132446733Y-64003180D01*
X132303876Y-63955561D01*
X132208638Y-63860323D01*
X132161019Y-63765085D01*
X132113400Y-63574609D01*
X132113400Y-63431752D01*
X132161019Y-63241276D01*
X132208638Y-63146038D01*
X132303876Y-63050800D01*
X132446733Y-63003180D01*
X132541971Y-63003180D01*
X132684828Y-63050800D01*
X132732447Y-63098419D01*
X133541971Y-63955561D02*
X133446733Y-64003180D01*
X133256257Y-64003180D01*
X133161019Y-63955561D01*
X133113400Y-63860323D01*
X133113400Y-63479371D01*
X133161019Y-63384133D01*
X133256257Y-63336514D01*
X133446733Y-63336514D01*
X133541971Y-63384133D01*
X133589590Y-63479371D01*
X133589590Y-63574609D01*
X133113400Y-63669847D01*
X133922923Y-64003180D02*
X134446733Y-63336514D01*
X133922923Y-63336514D02*
X134446733Y-64003180D01*
X134684828Y-63336514D02*
X135065780Y-63336514D01*
X134827685Y-63003180D02*
X134827685Y-63860323D01*
X134875304Y-63955561D01*
X134970542Y-64003180D01*
X135065780Y-64003180D01*
%TO.C,R28*%
X120695980Y-59316857D02*
X120219790Y-59650190D01*
X120695980Y-59888285D02*
X119695980Y-59888285D01*
X119695980Y-59507333D01*
X119743600Y-59412095D01*
X119791219Y-59364476D01*
X119886457Y-59316857D01*
X120029314Y-59316857D01*
X120124552Y-59364476D01*
X120172171Y-59412095D01*
X120219790Y-59507333D01*
X120219790Y-59888285D01*
X119791219Y-58935904D02*
X119743600Y-58888285D01*
X119695980Y-58793047D01*
X119695980Y-58554952D01*
X119743600Y-58459714D01*
X119791219Y-58412095D01*
X119886457Y-58364476D01*
X119981695Y-58364476D01*
X120124552Y-58412095D01*
X120695980Y-58983523D01*
X120695980Y-58364476D01*
X120124552Y-57793047D02*
X120076933Y-57888285D01*
X120029314Y-57935904D01*
X119934076Y-57983523D01*
X119886457Y-57983523D01*
X119791219Y-57935904D01*
X119743600Y-57888285D01*
X119695980Y-57793047D01*
X119695980Y-57602571D01*
X119743600Y-57507333D01*
X119791219Y-57459714D01*
X119886457Y-57412095D01*
X119934076Y-57412095D01*
X120029314Y-57459714D01*
X120076933Y-57507333D01*
X120124552Y-57602571D01*
X120124552Y-57793047D01*
X120172171Y-57888285D01*
X120219790Y-57935904D01*
X120315028Y-57983523D01*
X120505504Y-57983523D01*
X120600742Y-57935904D01*
X120648361Y-57888285D01*
X120695980Y-57793047D01*
X120695980Y-57602571D01*
X120648361Y-57507333D01*
X120600742Y-57459714D01*
X120505504Y-57412095D01*
X120315028Y-57412095D01*
X120219790Y-57459714D01*
X120172171Y-57507333D01*
X120124552Y-57602571D01*
%TO.C,R11*%
X146729842Y-98183980D02*
X146396509Y-97707790D01*
X146158414Y-98183980D02*
X146158414Y-97183980D01*
X146539366Y-97183980D01*
X146634604Y-97231600D01*
X146682223Y-97279219D01*
X146729842Y-97374457D01*
X146729842Y-97517314D01*
X146682223Y-97612552D01*
X146634604Y-97660171D01*
X146539366Y-97707790D01*
X146158414Y-97707790D01*
X147682223Y-98183980D02*
X147110795Y-98183980D01*
X147396509Y-98183980D02*
X147396509Y-97183980D01*
X147301271Y-97326838D01*
X147206033Y-97422076D01*
X147110795Y-97469695D01*
X148634604Y-98183980D02*
X148063176Y-98183980D01*
X148348890Y-98183980D02*
X148348890Y-97183980D01*
X148253652Y-97326838D01*
X148158414Y-97422076D01*
X148063176Y-97469695D01*
%TO.C,D13*%
X150880914Y-96108780D02*
X150880914Y-95108780D01*
X151119009Y-95108780D01*
X151261866Y-95156400D01*
X151357104Y-95251638D01*
X151404723Y-95346876D01*
X151452342Y-95537352D01*
X151452342Y-95680209D01*
X151404723Y-95870685D01*
X151357104Y-95965923D01*
X151261866Y-96061161D01*
X151119009Y-96108780D01*
X150880914Y-96108780D01*
X152404723Y-96108780D02*
X151833295Y-96108780D01*
X152119009Y-96108780D02*
X152119009Y-95108780D01*
X152023771Y-95251638D01*
X151928533Y-95346876D01*
X151833295Y-95394495D01*
X152738057Y-95108780D02*
X153357104Y-95108780D01*
X153023771Y-95489733D01*
X153166628Y-95489733D01*
X153261866Y-95537352D01*
X153309485Y-95584971D01*
X153357104Y-95680209D01*
X153357104Y-95918304D01*
X153309485Y-96013542D01*
X153261866Y-96061161D01*
X153166628Y-96108780D01*
X152880914Y-96108780D01*
X152785676Y-96061161D01*
X152738057Y-96013542D01*
%TO.C,Q2*%
X118903761Y-104547619D02*
X118808523Y-104500000D01*
X118713285Y-104404761D01*
X118570428Y-104261904D01*
X118475190Y-104214285D01*
X118379952Y-104214285D01*
X118427571Y-104452380D02*
X118332333Y-104404761D01*
X118237095Y-104309523D01*
X118189476Y-104119047D01*
X118189476Y-103785714D01*
X118237095Y-103595238D01*
X118332333Y-103500000D01*
X118427571Y-103452380D01*
X118618047Y-103452380D01*
X118713285Y-103500000D01*
X118808523Y-103595238D01*
X118856142Y-103785714D01*
X118856142Y-104119047D01*
X118808523Y-104309523D01*
X118713285Y-104404761D01*
X118618047Y-104452380D01*
X118427571Y-104452380D01*
X119237095Y-103547619D02*
X119284714Y-103500000D01*
X119379952Y-103452380D01*
X119618047Y-103452380D01*
X119713285Y-103500000D01*
X119760904Y-103547619D01*
X119808523Y-103642857D01*
X119808523Y-103738095D01*
X119760904Y-103880952D01*
X119189476Y-104452380D01*
X119808523Y-104452380D01*
%TO.C,U7*%
X130581495Y-89596980D02*
X130581495Y-90406504D01*
X130629114Y-90501742D01*
X130676733Y-90549361D01*
X130771971Y-90596980D01*
X130962447Y-90596980D01*
X131057685Y-90549361D01*
X131105304Y-90501742D01*
X131152923Y-90406504D01*
X131152923Y-89596980D01*
X131533876Y-89596980D02*
X132200542Y-89596980D01*
X131771971Y-90596980D01*
%TO.C,U5*%
X150038095Y-112685580D02*
X150038095Y-113495104D01*
X150085714Y-113590342D01*
X150133333Y-113637961D01*
X150228571Y-113685580D01*
X150419047Y-113685580D01*
X150514285Y-113637961D01*
X150561904Y-113590342D01*
X150609523Y-113495104D01*
X150609523Y-112685580D01*
X151561904Y-112685580D02*
X151085714Y-112685580D01*
X151038095Y-113161771D01*
X151085714Y-113114152D01*
X151180952Y-113066533D01*
X151419047Y-113066533D01*
X151514285Y-113114152D01*
X151561904Y-113161771D01*
X151609523Y-113257009D01*
X151609523Y-113495104D01*
X151561904Y-113590342D01*
X151514285Y-113637961D01*
X151419047Y-113685580D01*
X151180952Y-113685580D01*
X151085714Y-113637961D01*
X151038095Y-113590342D01*
%TO.C,C16*%
X126966742Y-99112342D02*
X126919123Y-99159961D01*
X126776266Y-99207580D01*
X126681028Y-99207580D01*
X126538171Y-99159961D01*
X126442933Y-99064723D01*
X126395314Y-98969485D01*
X126347695Y-98779009D01*
X126347695Y-98636152D01*
X126395314Y-98445676D01*
X126442933Y-98350438D01*
X126538171Y-98255200D01*
X126681028Y-98207580D01*
X126776266Y-98207580D01*
X126919123Y-98255200D01*
X126966742Y-98302819D01*
X127919123Y-99207580D02*
X127347695Y-99207580D01*
X127633409Y-99207580D02*
X127633409Y-98207580D01*
X127538171Y-98350438D01*
X127442933Y-98445676D01*
X127347695Y-98493295D01*
X128776266Y-98207580D02*
X128585790Y-98207580D01*
X128490552Y-98255200D01*
X128442933Y-98302819D01*
X128347695Y-98445676D01*
X128300076Y-98636152D01*
X128300076Y-99017104D01*
X128347695Y-99112342D01*
X128395314Y-99159961D01*
X128490552Y-99207580D01*
X128681028Y-99207580D01*
X128776266Y-99159961D01*
X128823885Y-99112342D01*
X128871504Y-99017104D01*
X128871504Y-98779009D01*
X128823885Y-98683771D01*
X128776266Y-98636152D01*
X128681028Y-98588533D01*
X128490552Y-98588533D01*
X128395314Y-98636152D01*
X128347695Y-98683771D01*
X128300076Y-98779009D01*
%TO.C,R14*%
X161764742Y-102915980D02*
X161431409Y-102439790D01*
X161193314Y-102915980D02*
X161193314Y-101915980D01*
X161574266Y-101915980D01*
X161669504Y-101963600D01*
X161717123Y-102011219D01*
X161764742Y-102106457D01*
X161764742Y-102249314D01*
X161717123Y-102344552D01*
X161669504Y-102392171D01*
X161574266Y-102439790D01*
X161193314Y-102439790D01*
X162717123Y-102915980D02*
X162145695Y-102915980D01*
X162431409Y-102915980D02*
X162431409Y-101915980D01*
X162336171Y-102058838D01*
X162240933Y-102154076D01*
X162145695Y-102201695D01*
X163574266Y-102249314D02*
X163574266Y-102915980D01*
X163336171Y-101868361D02*
X163098076Y-102582647D01*
X163717123Y-102582647D01*
%TO.C,Y1*%
X140493809Y-92279790D02*
X140493809Y-92755980D01*
X140160476Y-91755980D02*
X140493809Y-92279790D01*
X140827142Y-91755980D01*
X141684285Y-92755980D02*
X141112857Y-92755980D01*
X141398571Y-92755980D02*
X141398571Y-91755980D01*
X141303333Y-91898838D01*
X141208095Y-91994076D01*
X141112857Y-92041695D01*
%TO.C,J5*%
X129341809Y-82545180D02*
X129341809Y-81545180D01*
X129722761Y-81545180D01*
X129818000Y-81592800D01*
X129865619Y-81640419D01*
X129913238Y-81735657D01*
X129913238Y-81878514D01*
X129865619Y-81973752D01*
X129818000Y-82021371D01*
X129722761Y-82068990D01*
X129341809Y-82068990D01*
X130484666Y-82545180D02*
X130389428Y-82497561D01*
X130341809Y-82449942D01*
X130294190Y-82354704D01*
X130294190Y-82068990D01*
X130341809Y-81973752D01*
X130389428Y-81926133D01*
X130484666Y-81878514D01*
X130627523Y-81878514D01*
X130722761Y-81926133D01*
X130770380Y-81973752D01*
X130818000Y-82068990D01*
X130818000Y-82354704D01*
X130770380Y-82449942D01*
X130722761Y-82497561D01*
X130627523Y-82545180D01*
X130484666Y-82545180D01*
X131151333Y-81878514D02*
X131341809Y-82545180D01*
X131532285Y-82068990D01*
X131722761Y-82545180D01*
X131913238Y-81878514D01*
X132675142Y-82497561D02*
X132579904Y-82545180D01*
X132389428Y-82545180D01*
X132294190Y-82497561D01*
X132246571Y-82402323D01*
X132246571Y-82021371D01*
X132294190Y-81926133D01*
X132389428Y-81878514D01*
X132579904Y-81878514D01*
X132675142Y-81926133D01*
X132722761Y-82021371D01*
X132722761Y-82116609D01*
X132246571Y-82211847D01*
X133151333Y-82545180D02*
X133151333Y-81878514D01*
X133151333Y-82068990D02*
X133198952Y-81973752D01*
X133246571Y-81926133D01*
X133341809Y-81878514D01*
X133437047Y-81878514D01*
%TO.C,TP1*%
X172183500Y-83145780D02*
X171707309Y-83145780D01*
X171659690Y-83621971D01*
X171707309Y-83574352D01*
X171802547Y-83526733D01*
X172040642Y-83526733D01*
X172135880Y-83574352D01*
X172183500Y-83621971D01*
X172231119Y-83717209D01*
X172231119Y-83955304D01*
X172183500Y-84050542D01*
X172135880Y-84098161D01*
X172040642Y-84145780D01*
X171802547Y-84145780D01*
X171707309Y-84098161D01*
X171659690Y-84050542D01*
X172516833Y-83145780D02*
X172850166Y-84145780D01*
X173183500Y-83145780D01*
X173945404Y-83479114D02*
X173945404Y-84145780D01*
X173516833Y-83479114D02*
X173516833Y-84002923D01*
X173564452Y-84098161D01*
X173659690Y-84145780D01*
X173802547Y-84145780D01*
X173897785Y-84098161D01*
X173945404Y-84050542D01*
X174373976Y-84098161D02*
X174469214Y-84145780D01*
X174659690Y-84145780D01*
X174754928Y-84098161D01*
X174802547Y-84002923D01*
X174802547Y-83955304D01*
X174754928Y-83860066D01*
X174659690Y-83812447D01*
X174516833Y-83812447D01*
X174421595Y-83764828D01*
X174373976Y-83669590D01*
X174373976Y-83621971D01*
X174421595Y-83526733D01*
X174516833Y-83479114D01*
X174659690Y-83479114D01*
X174754928Y-83526733D01*
X175231119Y-84145780D02*
X175231119Y-83145780D01*
X175231119Y-83526733D02*
X175326357Y-83479114D01*
X175516833Y-83479114D01*
X175612071Y-83526733D01*
X175659690Y-83574352D01*
X175707309Y-83669590D01*
X175707309Y-83955304D01*
X175659690Y-84050542D01*
X175612071Y-84098161D01*
X175516833Y-84145780D01*
X175326357Y-84145780D01*
X175231119Y-84098161D01*
%TO.C,D10*%
X139385714Y-63252380D02*
X139385714Y-62252380D01*
X139623809Y-62252380D01*
X139766666Y-62300000D01*
X139861904Y-62395238D01*
X139909523Y-62490476D01*
X139957142Y-62680952D01*
X139957142Y-62823809D01*
X139909523Y-63014285D01*
X139861904Y-63109523D01*
X139766666Y-63204761D01*
X139623809Y-63252380D01*
X139385714Y-63252380D01*
X140909523Y-63252380D02*
X140338095Y-63252380D01*
X140623809Y-63252380D02*
X140623809Y-62252380D01*
X140528571Y-62395238D01*
X140433333Y-62490476D01*
X140338095Y-62538095D01*
X141528571Y-62252380D02*
X141623809Y-62252380D01*
X141719047Y-62300000D01*
X141766666Y-62347619D01*
X141814285Y-62442857D01*
X141861904Y-62633333D01*
X141861904Y-62871428D01*
X141814285Y-63061904D01*
X141766666Y-63157142D01*
X141719047Y-63204761D01*
X141623809Y-63252380D01*
X141528571Y-63252380D01*
X141433333Y-63204761D01*
X141385714Y-63157142D01*
X141338095Y-63061904D01*
X141290476Y-62871428D01*
X141290476Y-62633333D01*
X141338095Y-62442857D01*
X141385714Y-62347619D01*
X141433333Y-62300000D01*
X141528571Y-62252380D01*
%TO.C,JP4*%
X121694723Y-99223580D02*
X122313771Y-99223580D01*
X121980438Y-99604533D01*
X122123295Y-99604533D01*
X122218533Y-99652152D01*
X122266152Y-99699771D01*
X122313771Y-99795009D01*
X122313771Y-100033104D01*
X122266152Y-100128342D01*
X122218533Y-100175961D01*
X122123295Y-100223580D01*
X121837580Y-100223580D01*
X121742342Y-100175961D01*
X121694723Y-100128342D01*
X122647104Y-99556914D02*
X122885200Y-100223580D01*
X123123295Y-99556914D01*
X123409009Y-99223580D02*
X124028057Y-99223580D01*
X123694723Y-99604533D01*
X123837580Y-99604533D01*
X123932819Y-99652152D01*
X123980438Y-99699771D01*
X124028057Y-99795009D01*
X124028057Y-100033104D01*
X123980438Y-100128342D01*
X123932819Y-100175961D01*
X123837580Y-100223580D01*
X123551866Y-100223580D01*
X123456628Y-100175961D01*
X123409009Y-100128342D01*
%TO.C,J16*%
X124685714Y-85077380D02*
X124685714Y-84077380D01*
X124685714Y-84458333D02*
X124780952Y-84410714D01*
X124971428Y-84410714D01*
X125066666Y-84458333D01*
X125114285Y-84505952D01*
X125161904Y-84601190D01*
X125161904Y-84886904D01*
X125114285Y-84982142D01*
X125066666Y-85029761D01*
X124971428Y-85077380D01*
X124780952Y-85077380D01*
X124685714Y-85029761D01*
X126019047Y-84410714D02*
X126019047Y-85077380D01*
X125590476Y-84410714D02*
X125590476Y-84934523D01*
X125638095Y-85029761D01*
X125733333Y-85077380D01*
X125876190Y-85077380D01*
X125971428Y-85029761D01*
X126019047Y-84982142D01*
X126400000Y-84410714D02*
X126923809Y-84410714D01*
X126400000Y-85077380D01*
X126923809Y-85077380D01*
X127209523Y-84410714D02*
X127733333Y-84410714D01*
X127209523Y-85077380D01*
X127733333Y-85077380D01*
X128495238Y-85029761D02*
X128400000Y-85077380D01*
X128209523Y-85077380D01*
X128114285Y-85029761D01*
X128066666Y-84934523D01*
X128066666Y-84553571D01*
X128114285Y-84458333D01*
X128209523Y-84410714D01*
X128400000Y-84410714D01*
X128495238Y-84458333D01*
X128542857Y-84553571D01*
X128542857Y-84648809D01*
X128066666Y-84744047D01*
X128971428Y-85077380D02*
X128971428Y-84410714D01*
X128971428Y-84601190D02*
X129019047Y-84505952D01*
X129066666Y-84458333D01*
X129161904Y-84410714D01*
X129257142Y-84410714D01*
%TO.C,R36*%
X137561580Y-59266057D02*
X137085390Y-59599390D01*
X137561580Y-59837485D02*
X136561580Y-59837485D01*
X136561580Y-59456533D01*
X136609200Y-59361295D01*
X136656819Y-59313676D01*
X136752057Y-59266057D01*
X136894914Y-59266057D01*
X136990152Y-59313676D01*
X137037771Y-59361295D01*
X137085390Y-59456533D01*
X137085390Y-59837485D01*
X136561580Y-58932723D02*
X136561580Y-58313676D01*
X136942533Y-58647009D01*
X136942533Y-58504152D01*
X136990152Y-58408914D01*
X137037771Y-58361295D01*
X137133009Y-58313676D01*
X137371104Y-58313676D01*
X137466342Y-58361295D01*
X137513961Y-58408914D01*
X137561580Y-58504152D01*
X137561580Y-58789866D01*
X137513961Y-58885104D01*
X137466342Y-58932723D01*
X136561580Y-57456533D02*
X136561580Y-57647009D01*
X136609200Y-57742247D01*
X136656819Y-57789866D01*
X136799676Y-57885104D01*
X136990152Y-57932723D01*
X137371104Y-57932723D01*
X137466342Y-57885104D01*
X137513961Y-57837485D01*
X137561580Y-57742247D01*
X137561580Y-57551771D01*
X137513961Y-57456533D01*
X137466342Y-57408914D01*
X137371104Y-57361295D01*
X137133009Y-57361295D01*
X137037771Y-57408914D01*
X136990152Y-57456533D01*
X136942533Y-57551771D01*
X136942533Y-57742247D01*
X136990152Y-57837485D01*
X137037771Y-57885104D01*
X137133009Y-57932723D01*
%TO.C,C2*%
X142784533Y-100085142D02*
X142736914Y-100132761D01*
X142594057Y-100180380D01*
X142498819Y-100180380D01*
X142355961Y-100132761D01*
X142260723Y-100037523D01*
X142213104Y-99942285D01*
X142165485Y-99751809D01*
X142165485Y-99608952D01*
X142213104Y-99418476D01*
X142260723Y-99323238D01*
X142355961Y-99228000D01*
X142498819Y-99180380D01*
X142594057Y-99180380D01*
X142736914Y-99228000D01*
X142784533Y-99275619D01*
X143165485Y-99275619D02*
X143213104Y-99228000D01*
X143308342Y-99180380D01*
X143546438Y-99180380D01*
X143641676Y-99228000D01*
X143689295Y-99275619D01*
X143736914Y-99370857D01*
X143736914Y-99466095D01*
X143689295Y-99608952D01*
X143117866Y-100180380D01*
X143736914Y-100180380D01*
%TO.C,J13*%
X110493276Y-74229980D02*
X110493276Y-74944266D01*
X110445657Y-75087123D01*
X110350419Y-75182361D01*
X110207561Y-75229980D01*
X110112323Y-75229980D01*
X111493276Y-75229980D02*
X110921847Y-75229980D01*
X111207561Y-75229980D02*
X111207561Y-74229980D01*
X111112323Y-74372838D01*
X111017085Y-74468076D01*
X110921847Y-74515695D01*
X111826609Y-74229980D02*
X112445657Y-74229980D01*
X112112323Y-74610933D01*
X112255180Y-74610933D01*
X112350419Y-74658552D01*
X112398038Y-74706171D01*
X112445657Y-74801409D01*
X112445657Y-75039504D01*
X112398038Y-75134742D01*
X112350419Y-75182361D01*
X112255180Y-75229980D01*
X111969466Y-75229980D01*
X111874228Y-75182361D01*
X111826609Y-75134742D01*
%TO.C,J1*%
X143469028Y-67146466D02*
X143945219Y-67146466D01*
X143373790Y-67432180D02*
X143707123Y-66432180D01*
X144040457Y-67432180D01*
X144373790Y-67432180D02*
X144373790Y-66432180D01*
X144611885Y-66432180D01*
X144754742Y-66479800D01*
X144849980Y-66575038D01*
X144897600Y-66670276D01*
X144945219Y-66860752D01*
X144945219Y-67003609D01*
X144897600Y-67194085D01*
X144849980Y-67289323D01*
X144754742Y-67384561D01*
X144611885Y-67432180D01*
X144373790Y-67432180D01*
X145945219Y-67336942D02*
X145897600Y-67384561D01*
X145754742Y-67432180D01*
X145659504Y-67432180D01*
X145516647Y-67384561D01*
X145421409Y-67289323D01*
X145373790Y-67194085D01*
X145326171Y-67003609D01*
X145326171Y-66860752D01*
X145373790Y-66670276D01*
X145421409Y-66575038D01*
X145516647Y-66479800D01*
X145659504Y-66432180D01*
X145754742Y-66432180D01*
X145897600Y-66479800D01*
X145945219Y-66527419D01*
X146516647Y-66860752D02*
X146421409Y-66813133D01*
X146373790Y-66765514D01*
X146326171Y-66670276D01*
X146326171Y-66622657D01*
X146373790Y-66527419D01*
X146421409Y-66479800D01*
X146516647Y-66432180D01*
X146707123Y-66432180D01*
X146802361Y-66479800D01*
X146849980Y-66527419D01*
X146897600Y-66622657D01*
X146897600Y-66670276D01*
X146849980Y-66765514D01*
X146802361Y-66813133D01*
X146707123Y-66860752D01*
X146516647Y-66860752D01*
X146421409Y-66908371D01*
X146373790Y-66955990D01*
X146326171Y-67051228D01*
X146326171Y-67241704D01*
X146373790Y-67336942D01*
X146421409Y-67384561D01*
X146516647Y-67432180D01*
X146707123Y-67432180D01*
X146802361Y-67384561D01*
X146849980Y-67336942D01*
X146897600Y-67241704D01*
X146897600Y-67051228D01*
X146849980Y-66955990D01*
X146802361Y-66908371D01*
X146707123Y-66860752D01*
X147373790Y-67384561D02*
X147373790Y-67432180D01*
X147326171Y-67527419D01*
X147278552Y-67575038D01*
X147849980Y-67432180D02*
X148040457Y-67432180D01*
X148135695Y-67384561D01*
X148183314Y-67336942D01*
X148278552Y-67194085D01*
X148326171Y-67003609D01*
X148326171Y-66622657D01*
X148278552Y-66527419D01*
X148230933Y-66479800D01*
X148135695Y-66432180D01*
X147945219Y-66432180D01*
X147849980Y-66479800D01*
X147802361Y-66527419D01*
X147754742Y-66622657D01*
X147754742Y-66860752D01*
X147802361Y-66955990D01*
X147849980Y-67003609D01*
X147945219Y-67051228D01*
X148135695Y-67051228D01*
X148230933Y-67003609D01*
X148278552Y-66955990D01*
X148326171Y-66860752D01*
%TO.C,J2*%
X138166666Y-122952380D02*
X138166666Y-123666666D01*
X138119047Y-123809523D01*
X138023809Y-123904761D01*
X137880952Y-123952380D01*
X137785714Y-123952380D01*
X138595238Y-123047619D02*
X138642857Y-123000000D01*
X138738095Y-122952380D01*
X138976190Y-122952380D01*
X139071428Y-123000000D01*
X139119047Y-123047619D01*
X139166666Y-123142857D01*
X139166666Y-123238095D01*
X139119047Y-123380952D01*
X138547619Y-123952380D01*
X139166666Y-123952380D01*
%TO.C,JP1*%
X164558742Y-113234742D02*
X164511123Y-113282361D01*
X164368266Y-113329980D01*
X164273028Y-113329980D01*
X164130171Y-113282361D01*
X164034933Y-113187123D01*
X163987314Y-113091885D01*
X163939695Y-112901409D01*
X163939695Y-112758552D01*
X163987314Y-112568076D01*
X164034933Y-112472838D01*
X164130171Y-112377600D01*
X164273028Y-112329980D01*
X164368266Y-112329980D01*
X164511123Y-112377600D01*
X164558742Y-112425219D01*
X164939695Y-113044266D02*
X165415885Y-113044266D01*
X164844457Y-113329980D02*
X165177790Y-112329980D01*
X165511123Y-113329980D01*
X165844457Y-113329980D02*
X165844457Y-112329980D01*
X166415885Y-113329980D01*
X166415885Y-112329980D01*
%TO.C,TP4*%
X104631123Y-97569980D02*
X104154933Y-97569980D01*
X104107314Y-98046171D01*
X104154933Y-97998552D01*
X104250171Y-97950933D01*
X104488266Y-97950933D01*
X104583504Y-97998552D01*
X104631123Y-98046171D01*
X104678742Y-98141409D01*
X104678742Y-98379504D01*
X104631123Y-98474742D01*
X104583504Y-98522361D01*
X104488266Y-98569980D01*
X104250171Y-98569980D01*
X104154933Y-98522361D01*
X104107314Y-98474742D01*
X104964457Y-97569980D02*
X105297790Y-98569980D01*
X105631123Y-97569980D01*
%TO.C,J10*%
X165590476Y-49252380D02*
X165590476Y-49966666D01*
X165542857Y-50109523D01*
X165447619Y-50204761D01*
X165304761Y-50252380D01*
X165209523Y-50252380D01*
X166590476Y-50252380D02*
X166019047Y-50252380D01*
X166304761Y-50252380D02*
X166304761Y-49252380D01*
X166209523Y-49395238D01*
X166114285Y-49490476D01*
X166019047Y-49538095D01*
X167209523Y-49252380D02*
X167304761Y-49252380D01*
X167400000Y-49300000D01*
X167447619Y-49347619D01*
X167495238Y-49442857D01*
X167542857Y-49633333D01*
X167542857Y-49871428D01*
X167495238Y-50061904D01*
X167447619Y-50157142D01*
X167400000Y-50204761D01*
X167304761Y-50252380D01*
X167209523Y-50252380D01*
X167114285Y-50204761D01*
X167066666Y-50157142D01*
X167019047Y-50061904D01*
X166971428Y-49871428D01*
X166971428Y-49633333D01*
X167019047Y-49442857D01*
X167066666Y-49347619D01*
X167114285Y-49300000D01*
X167209523Y-49252380D01*
%TO.C,R6*%
X131151333Y-100622380D02*
X130818000Y-100146190D01*
X130579904Y-100622380D02*
X130579904Y-99622380D01*
X130960857Y-99622380D01*
X131056095Y-99670000D01*
X131103714Y-99717619D01*
X131151333Y-99812857D01*
X131151333Y-99955714D01*
X131103714Y-100050952D01*
X131056095Y-100098571D01*
X130960857Y-100146190D01*
X130579904Y-100146190D01*
X132008476Y-99622380D02*
X131818000Y-99622380D01*
X131722761Y-99670000D01*
X131675142Y-99717619D01*
X131579904Y-99860476D01*
X131532285Y-100050952D01*
X131532285Y-100431904D01*
X131579904Y-100527142D01*
X131627523Y-100574761D01*
X131722761Y-100622380D01*
X131913238Y-100622380D01*
X132008476Y-100574761D01*
X132056095Y-100527142D01*
X132103714Y-100431904D01*
X132103714Y-100193809D01*
X132056095Y-100098571D01*
X132008476Y-100050952D01*
X131913238Y-100003333D01*
X131722761Y-100003333D01*
X131627523Y-100050952D01*
X131579904Y-100098571D01*
X131532285Y-100193809D01*
%TO.C,C19*%
X119981742Y-91771742D02*
X119934123Y-91819361D01*
X119791266Y-91866980D01*
X119696028Y-91866980D01*
X119553171Y-91819361D01*
X119457933Y-91724123D01*
X119410314Y-91628885D01*
X119362695Y-91438409D01*
X119362695Y-91295552D01*
X119410314Y-91105076D01*
X119457933Y-91009838D01*
X119553171Y-90914600D01*
X119696028Y-90866980D01*
X119791266Y-90866980D01*
X119934123Y-90914600D01*
X119981742Y-90962219D01*
X120934123Y-91866980D02*
X120362695Y-91866980D01*
X120648409Y-91866980D02*
X120648409Y-90866980D01*
X120553171Y-91009838D01*
X120457933Y-91105076D01*
X120362695Y-91152695D01*
X121410314Y-91866980D02*
X121600790Y-91866980D01*
X121696028Y-91819361D01*
X121743647Y-91771742D01*
X121838885Y-91628885D01*
X121886504Y-91438409D01*
X121886504Y-91057457D01*
X121838885Y-90962219D01*
X121791266Y-90914600D01*
X121696028Y-90866980D01*
X121505552Y-90866980D01*
X121410314Y-90914600D01*
X121362695Y-90962219D01*
X121315076Y-91057457D01*
X121315076Y-91295552D01*
X121362695Y-91390790D01*
X121410314Y-91438409D01*
X121505552Y-91486028D01*
X121696028Y-91486028D01*
X121791266Y-91438409D01*
X121838885Y-91390790D01*
X121886504Y-91295552D01*
%TO.C,C3*%
X146543733Y-95200742D02*
X146496114Y-95248361D01*
X146353257Y-95295980D01*
X146258019Y-95295980D01*
X146115161Y-95248361D01*
X146019923Y-95153123D01*
X145972304Y-95057885D01*
X145924685Y-94867409D01*
X145924685Y-94724552D01*
X145972304Y-94534076D01*
X146019923Y-94438838D01*
X146115161Y-94343600D01*
X146258019Y-94295980D01*
X146353257Y-94295980D01*
X146496114Y-94343600D01*
X146543733Y-94391219D01*
X146877066Y-94295980D02*
X147496114Y-94295980D01*
X147162780Y-94676933D01*
X147305638Y-94676933D01*
X147400876Y-94724552D01*
X147448495Y-94772171D01*
X147496114Y-94867409D01*
X147496114Y-95105504D01*
X147448495Y-95200742D01*
X147400876Y-95248361D01*
X147305638Y-95295980D01*
X147019923Y-95295980D01*
X146924685Y-95248361D01*
X146877066Y-95200742D01*
%TO.C,Q3*%
X130004761Y-104560619D02*
X129909523Y-104513000D01*
X129814285Y-104417761D01*
X129671428Y-104274904D01*
X129576190Y-104227285D01*
X129480952Y-104227285D01*
X129528571Y-104465380D02*
X129433333Y-104417761D01*
X129338095Y-104322523D01*
X129290476Y-104132047D01*
X129290476Y-103798714D01*
X129338095Y-103608238D01*
X129433333Y-103513000D01*
X129528571Y-103465380D01*
X129719047Y-103465380D01*
X129814285Y-103513000D01*
X129909523Y-103608238D01*
X129957142Y-103798714D01*
X129957142Y-104132047D01*
X129909523Y-104322523D01*
X129814285Y-104417761D01*
X129719047Y-104465380D01*
X129528571Y-104465380D01*
X130290476Y-103465380D02*
X130909523Y-103465380D01*
X130576190Y-103846333D01*
X130719047Y-103846333D01*
X130814285Y-103893952D01*
X130861904Y-103941571D01*
X130909523Y-104036809D01*
X130909523Y-104274904D01*
X130861904Y-104370142D01*
X130814285Y-104417761D01*
X130719047Y-104465380D01*
X130433333Y-104465380D01*
X130338095Y-104417761D01*
X130290476Y-104370142D01*
%TO.C,C1*%
X158024533Y-107849942D02*
X157976914Y-107897561D01*
X157834057Y-107945180D01*
X157738819Y-107945180D01*
X157595961Y-107897561D01*
X157500723Y-107802323D01*
X157453104Y-107707085D01*
X157405485Y-107516609D01*
X157405485Y-107373752D01*
X157453104Y-107183276D01*
X157500723Y-107088038D01*
X157595961Y-106992800D01*
X157738819Y-106945180D01*
X157834057Y-106945180D01*
X157976914Y-106992800D01*
X158024533Y-107040419D01*
X158976914Y-107945180D02*
X158405485Y-107945180D01*
X158691200Y-107945180D02*
X158691200Y-106945180D01*
X158595961Y-107088038D01*
X158500723Y-107183276D01*
X158405485Y-107230895D01*
%TO.C,JP6*%
X140785714Y-123152380D02*
X140452380Y-122676190D01*
X140214285Y-123152380D02*
X140214285Y-122152380D01*
X140595238Y-122152380D01*
X140690476Y-122200000D01*
X140738095Y-122247619D01*
X140785714Y-122342857D01*
X140785714Y-122485714D01*
X140738095Y-122580952D01*
X140690476Y-122628571D01*
X140595238Y-122676190D01*
X140214285Y-122676190D01*
X141166666Y-123104761D02*
X141309523Y-123152380D01*
X141547619Y-123152380D01*
X141642857Y-123104761D01*
X141690476Y-123057142D01*
X141738095Y-122961904D01*
X141738095Y-122866666D01*
X141690476Y-122771428D01*
X141642857Y-122723809D01*
X141547619Y-122676190D01*
X141357142Y-122628571D01*
X141261904Y-122580952D01*
X141214285Y-122533333D01*
X141166666Y-122438095D01*
X141166666Y-122342857D01*
X141214285Y-122247619D01*
X141261904Y-122200000D01*
X141357142Y-122152380D01*
X141595238Y-122152380D01*
X141738095Y-122200000D01*
X142166666Y-122771428D02*
X142928571Y-122771428D01*
X143833333Y-122485714D02*
X143833333Y-123152380D01*
X143595238Y-122104761D02*
X143357142Y-122819047D01*
X143976190Y-122819047D01*
X144500000Y-122580952D02*
X144404761Y-122533333D01*
X144357142Y-122485714D01*
X144309523Y-122390476D01*
X144309523Y-122342857D01*
X144357142Y-122247619D01*
X144404761Y-122200000D01*
X144500000Y-122152380D01*
X144690476Y-122152380D01*
X144785714Y-122200000D01*
X144833333Y-122247619D01*
X144880952Y-122342857D01*
X144880952Y-122390476D01*
X144833333Y-122485714D01*
X144785714Y-122533333D01*
X144690476Y-122580952D01*
X144500000Y-122580952D01*
X144404761Y-122628571D01*
X144357142Y-122676190D01*
X144309523Y-122771428D01*
X144309523Y-122961904D01*
X144357142Y-123057142D01*
X144404761Y-123104761D01*
X144500000Y-123152380D01*
X144690476Y-123152380D01*
X144785714Y-123104761D01*
X144833333Y-123057142D01*
X144880952Y-122961904D01*
X144880952Y-122771428D01*
X144833333Y-122676190D01*
X144785714Y-122628571D01*
X144690476Y-122580952D01*
X145785714Y-122152380D02*
X145309523Y-122152380D01*
X145261904Y-122628571D01*
X145309523Y-122580952D01*
X145404761Y-122533333D01*
X145642857Y-122533333D01*
X145738095Y-122580952D01*
X145785714Y-122628571D01*
X145833333Y-122723809D01*
X145833333Y-122961904D01*
X145785714Y-123057142D01*
X145738095Y-123104761D01*
X145642857Y-123152380D01*
X145404761Y-123152380D01*
X145309523Y-123104761D01*
X145261904Y-123057142D01*
%TO.C,C9*%
X142327333Y-90273142D02*
X142279714Y-90320761D01*
X142136857Y-90368380D01*
X142041619Y-90368380D01*
X141898761Y-90320761D01*
X141803523Y-90225523D01*
X141755904Y-90130285D01*
X141708285Y-89939809D01*
X141708285Y-89796952D01*
X141755904Y-89606476D01*
X141803523Y-89511238D01*
X141898761Y-89416000D01*
X142041619Y-89368380D01*
X142136857Y-89368380D01*
X142279714Y-89416000D01*
X142327333Y-89463619D01*
X142803523Y-90368380D02*
X142994000Y-90368380D01*
X143089238Y-90320761D01*
X143136857Y-90273142D01*
X143232095Y-90130285D01*
X143279714Y-89939809D01*
X143279714Y-89558857D01*
X143232095Y-89463619D01*
X143184476Y-89416000D01*
X143089238Y-89368380D01*
X142898761Y-89368380D01*
X142803523Y-89416000D01*
X142755904Y-89463619D01*
X142708285Y-89558857D01*
X142708285Y-89796952D01*
X142755904Y-89892190D01*
X142803523Y-89939809D01*
X142898761Y-89987428D01*
X143089238Y-89987428D01*
X143184476Y-89939809D01*
X143232095Y-89892190D01*
X143279714Y-89796952D01*
%TO.C,R4*%
X123632933Y-102814380D02*
X123299600Y-102338190D01*
X123061504Y-102814380D02*
X123061504Y-101814380D01*
X123442457Y-101814380D01*
X123537695Y-101862000D01*
X123585314Y-101909619D01*
X123632933Y-102004857D01*
X123632933Y-102147714D01*
X123585314Y-102242952D01*
X123537695Y-102290571D01*
X123442457Y-102338190D01*
X123061504Y-102338190D01*
X124490076Y-102147714D02*
X124490076Y-102814380D01*
X124251980Y-101766761D02*
X124013885Y-102481047D01*
X124632933Y-102481047D01*
%TO.C,RN2*%
X155316323Y-103830380D02*
X154982990Y-103354190D01*
X154744895Y-103830380D02*
X154744895Y-102830380D01*
X155125847Y-102830380D01*
X155221085Y-102878000D01*
X155268704Y-102925619D01*
X155316323Y-103020857D01*
X155316323Y-103163714D01*
X155268704Y-103258952D01*
X155221085Y-103306571D01*
X155125847Y-103354190D01*
X154744895Y-103354190D01*
X155744895Y-103830380D02*
X155744895Y-102830380D01*
X156316323Y-103830380D01*
X156316323Y-102830380D01*
X156744895Y-102925619D02*
X156792514Y-102878000D01*
X156887752Y-102830380D01*
X157125847Y-102830380D01*
X157221085Y-102878000D01*
X157268704Y-102925619D01*
X157316323Y-103020857D01*
X157316323Y-103116095D01*
X157268704Y-103258952D01*
X156697276Y-103830380D01*
X157316323Y-103830380D01*
%TO.C,TP3*%
X101157142Y-97640000D02*
X101061904Y-97592380D01*
X100919047Y-97592380D01*
X100776190Y-97640000D01*
X100680952Y-97735238D01*
X100633333Y-97830476D01*
X100585714Y-98020952D01*
X100585714Y-98163809D01*
X100633333Y-98354285D01*
X100680952Y-98449523D01*
X100776190Y-98544761D01*
X100919047Y-98592380D01*
X101014285Y-98592380D01*
X101157142Y-98544761D01*
X101204761Y-98497142D01*
X101204761Y-98163809D01*
X101014285Y-98163809D01*
X101633333Y-97925714D02*
X101633333Y-98592380D01*
X101633333Y-98020952D02*
X101680952Y-97973333D01*
X101776190Y-97925714D01*
X101919047Y-97925714D01*
X102014285Y-97973333D01*
X102061904Y-98068571D01*
X102061904Y-98592380D01*
X102966666Y-98592380D02*
X102966666Y-97592380D01*
X102966666Y-98544761D02*
X102871428Y-98592380D01*
X102680952Y-98592380D01*
X102585714Y-98544761D01*
X102538095Y-98497142D01*
X102490476Y-98401904D01*
X102490476Y-98116190D01*
X102538095Y-98020952D01*
X102585714Y-97973333D01*
X102680952Y-97925714D01*
X102871428Y-97925714D01*
X102966666Y-97973333D01*
%TO.C,C17*%
X133316742Y-96521542D02*
X133269123Y-96569161D01*
X133126266Y-96616780D01*
X133031028Y-96616780D01*
X132888171Y-96569161D01*
X132792933Y-96473923D01*
X132745314Y-96378685D01*
X132697695Y-96188209D01*
X132697695Y-96045352D01*
X132745314Y-95854876D01*
X132792933Y-95759638D01*
X132888171Y-95664400D01*
X133031028Y-95616780D01*
X133126266Y-95616780D01*
X133269123Y-95664400D01*
X133316742Y-95712019D01*
X134269123Y-96616780D02*
X133697695Y-96616780D01*
X133983409Y-96616780D02*
X133983409Y-95616780D01*
X133888171Y-95759638D01*
X133792933Y-95854876D01*
X133697695Y-95902495D01*
X134602457Y-95616780D02*
X135269123Y-95616780D01*
X134840552Y-96616780D01*
%TO.C,TP5*%
X131023809Y-84720380D02*
X131642857Y-84720380D01*
X131309523Y-85101333D01*
X131452380Y-85101333D01*
X131547619Y-85148952D01*
X131595238Y-85196571D01*
X131642857Y-85291809D01*
X131642857Y-85529904D01*
X131595238Y-85625142D01*
X131547619Y-85672761D01*
X131452380Y-85720380D01*
X131166666Y-85720380D01*
X131071428Y-85672761D01*
X131023809Y-85625142D01*
X132071428Y-85625142D02*
X132119047Y-85672761D01*
X132071428Y-85720380D01*
X132023809Y-85672761D01*
X132071428Y-85625142D01*
X132071428Y-85720380D01*
X132452380Y-84720380D02*
X133071428Y-84720380D01*
X132738095Y-85101333D01*
X132880952Y-85101333D01*
X132976190Y-85148952D01*
X133023809Y-85196571D01*
X133071428Y-85291809D01*
X133071428Y-85529904D01*
X133023809Y-85625142D01*
X132976190Y-85672761D01*
X132880952Y-85720380D01*
X132595238Y-85720380D01*
X132500000Y-85672761D01*
X132452380Y-85625142D01*
X133357142Y-84720380D02*
X133690476Y-85720380D01*
X134023809Y-84720380D01*
%TO.C,R24*%
X154357142Y-108652380D02*
X154023809Y-108176190D01*
X153785714Y-108652380D02*
X153785714Y-107652380D01*
X154166666Y-107652380D01*
X154261904Y-107700000D01*
X154309523Y-107747619D01*
X154357142Y-107842857D01*
X154357142Y-107985714D01*
X154309523Y-108080952D01*
X154261904Y-108128571D01*
X154166666Y-108176190D01*
X153785714Y-108176190D01*
X154738095Y-107747619D02*
X154785714Y-107700000D01*
X154880952Y-107652380D01*
X155119047Y-107652380D01*
X155214285Y-107700000D01*
X155261904Y-107747619D01*
X155309523Y-107842857D01*
X155309523Y-107938095D01*
X155261904Y-108080952D01*
X154690476Y-108652380D01*
X155309523Y-108652380D01*
X156166666Y-107985714D02*
X156166666Y-108652380D01*
X155928571Y-107604761D02*
X155690476Y-108319047D01*
X156309523Y-108319047D01*
%TO.C,J18*%
X159531180Y-66898780D02*
X159054990Y-66898780D01*
X159054990Y-65898780D01*
X159864514Y-66374971D02*
X160197847Y-66374971D01*
X160340704Y-66898780D02*
X159864514Y-66898780D01*
X159864514Y-65898780D01*
X160340704Y-65898780D01*
X160769276Y-66898780D02*
X160769276Y-65898780D01*
X161007371Y-65898780D01*
X161150228Y-65946400D01*
X161245466Y-66041638D01*
X161293085Y-66136876D01*
X161340704Y-66327352D01*
X161340704Y-66470209D01*
X161293085Y-66660685D01*
X161245466Y-66755923D01*
X161150228Y-66851161D01*
X161007371Y-66898780D01*
X160769276Y-66898780D01*
X161721657Y-66851161D02*
X161816895Y-66898780D01*
X162007371Y-66898780D01*
X162102609Y-66851161D01*
X162150228Y-66755923D01*
X162150228Y-66708304D01*
X162102609Y-66613066D01*
X162007371Y-66565447D01*
X161864514Y-66565447D01*
X161769276Y-66517828D01*
X161721657Y-66422590D01*
X161721657Y-66374971D01*
X161769276Y-66279733D01*
X161864514Y-66232114D01*
X162007371Y-66232114D01*
X162102609Y-66279733D01*
%TO.C,R7*%
X127544533Y-100782380D02*
X127211200Y-100306190D01*
X126973104Y-100782380D02*
X126973104Y-99782380D01*
X127354057Y-99782380D01*
X127449295Y-99830000D01*
X127496914Y-99877619D01*
X127544533Y-99972857D01*
X127544533Y-100115714D01*
X127496914Y-100210952D01*
X127449295Y-100258571D01*
X127354057Y-100306190D01*
X126973104Y-100306190D01*
X127877866Y-99782380D02*
X128544533Y-99782380D01*
X128115961Y-100782380D01*
%TO.C,R5*%
X123582133Y-107335580D02*
X123248800Y-106859390D01*
X123010704Y-107335580D02*
X123010704Y-106335580D01*
X123391657Y-106335580D01*
X123486895Y-106383200D01*
X123534514Y-106430819D01*
X123582133Y-106526057D01*
X123582133Y-106668914D01*
X123534514Y-106764152D01*
X123486895Y-106811771D01*
X123391657Y-106859390D01*
X123010704Y-106859390D01*
X124486895Y-106335580D02*
X124010704Y-106335580D01*
X123963085Y-106811771D01*
X124010704Y-106764152D01*
X124105942Y-106716533D01*
X124344038Y-106716533D01*
X124439276Y-106764152D01*
X124486895Y-106811771D01*
X124534514Y-106907009D01*
X124534514Y-107145104D01*
X124486895Y-107240342D01*
X124439276Y-107287961D01*
X124344038Y-107335580D01*
X124105942Y-107335580D01*
X124010704Y-107287961D01*
X123963085Y-107240342D01*
%TO.C,R30*%
X121864380Y-59316857D02*
X121388190Y-59650190D01*
X121864380Y-59888285D02*
X120864380Y-59888285D01*
X120864380Y-59507333D01*
X120912000Y-59412095D01*
X120959619Y-59364476D01*
X121054857Y-59316857D01*
X121197714Y-59316857D01*
X121292952Y-59364476D01*
X121340571Y-59412095D01*
X121388190Y-59507333D01*
X121388190Y-59888285D01*
X120864380Y-58983523D02*
X120864380Y-58364476D01*
X121245333Y-58697809D01*
X121245333Y-58554952D01*
X121292952Y-58459714D01*
X121340571Y-58412095D01*
X121435809Y-58364476D01*
X121673904Y-58364476D01*
X121769142Y-58412095D01*
X121816761Y-58459714D01*
X121864380Y-58554952D01*
X121864380Y-58840666D01*
X121816761Y-58935904D01*
X121769142Y-58983523D01*
X120864380Y-57745428D02*
X120864380Y-57650190D01*
X120912000Y-57554952D01*
X120959619Y-57507333D01*
X121054857Y-57459714D01*
X121245333Y-57412095D01*
X121483428Y-57412095D01*
X121673904Y-57459714D01*
X121769142Y-57507333D01*
X121816761Y-57554952D01*
X121864380Y-57650190D01*
X121864380Y-57745428D01*
X121816761Y-57840666D01*
X121769142Y-57888285D01*
X121673904Y-57935904D01*
X121483428Y-57983523D01*
X121245333Y-57983523D01*
X121054857Y-57935904D01*
X120959619Y-57888285D01*
X120912000Y-57840666D01*
X120864380Y-57745428D01*
%TO.C,J14*%
X137668285Y-106487980D02*
X137668285Y-107297504D01*
X137715904Y-107392742D01*
X137763523Y-107440361D01*
X137858761Y-107487980D01*
X138049238Y-107487980D01*
X138144476Y-107440361D01*
X138192095Y-107392742D01*
X138239714Y-107297504D01*
X138239714Y-106487980D01*
X138620666Y-106487980D02*
X139239714Y-106487980D01*
X138906380Y-106868933D01*
X139049238Y-106868933D01*
X139144476Y-106916552D01*
X139192095Y-106964171D01*
X139239714Y-107059409D01*
X139239714Y-107297504D01*
X139192095Y-107392742D01*
X139144476Y-107440361D01*
X139049238Y-107487980D01*
X138763523Y-107487980D01*
X138668285Y-107440361D01*
X138620666Y-107392742D01*
X140382571Y-106440361D02*
X139525428Y-107726076D01*
X140715904Y-106487980D02*
X140715904Y-107297504D01*
X140763523Y-107392742D01*
X140811142Y-107440361D01*
X140906380Y-107487980D01*
X141096857Y-107487980D01*
X141192095Y-107440361D01*
X141239714Y-107392742D01*
X141287333Y-107297504D01*
X141287333Y-106487980D01*
X142192095Y-106821314D02*
X142192095Y-107487980D01*
X141954000Y-106440361D02*
X141715904Y-107154647D01*
X142334952Y-107154647D01*
%TO.C,C6*%
X138169942Y-89268766D02*
X138217561Y-89316385D01*
X138265180Y-89459242D01*
X138265180Y-89554480D01*
X138217561Y-89697338D01*
X138122323Y-89792576D01*
X138027085Y-89840195D01*
X137836609Y-89887814D01*
X137693752Y-89887814D01*
X137503276Y-89840195D01*
X137408038Y-89792576D01*
X137312800Y-89697338D01*
X137265180Y-89554480D01*
X137265180Y-89459242D01*
X137312800Y-89316385D01*
X137360419Y-89268766D01*
X137265180Y-88411623D02*
X137265180Y-88602100D01*
X137312800Y-88697338D01*
X137360419Y-88744957D01*
X137503276Y-88840195D01*
X137693752Y-88887814D01*
X138074704Y-88887814D01*
X138169942Y-88840195D01*
X138217561Y-88792576D01*
X138265180Y-88697338D01*
X138265180Y-88506861D01*
X138217561Y-88411623D01*
X138169942Y-88364004D01*
X138074704Y-88316385D01*
X137836609Y-88316385D01*
X137741371Y-88364004D01*
X137693752Y-88411623D01*
X137646133Y-88506861D01*
X137646133Y-88697338D01*
X137693752Y-88792576D01*
X137741371Y-88840195D01*
X137836609Y-88887814D01*
%TO.C,R41*%
X137126742Y-96413580D02*
X136793409Y-95937390D01*
X136555314Y-96413580D02*
X136555314Y-95413580D01*
X136936266Y-95413580D01*
X137031504Y-95461200D01*
X137079123Y-95508819D01*
X137126742Y-95604057D01*
X137126742Y-95746914D01*
X137079123Y-95842152D01*
X137031504Y-95889771D01*
X136936266Y-95937390D01*
X136555314Y-95937390D01*
X137983885Y-95746914D02*
X137983885Y-96413580D01*
X137745790Y-95365961D02*
X137507695Y-96080247D01*
X138126742Y-96080247D01*
X139031504Y-96413580D02*
X138460076Y-96413580D01*
X138745790Y-96413580D02*
X138745790Y-95413580D01*
X138650552Y-95556438D01*
X138555314Y-95651676D01*
X138460076Y-95699295D01*
%TO.C,U1*%
X156819695Y-112431580D02*
X156819695Y-113241104D01*
X156867314Y-113336342D01*
X156914933Y-113383961D01*
X157010171Y-113431580D01*
X157200647Y-113431580D01*
X157295885Y-113383961D01*
X157343504Y-113336342D01*
X157391123Y-113241104D01*
X157391123Y-112431580D01*
X158391123Y-113431580D02*
X157819695Y-113431580D01*
X158105409Y-113431580D02*
X158105409Y-112431580D01*
X158010171Y-112574438D01*
X157914933Y-112669676D01*
X157819695Y-112717295D01*
%TO.C,L1*%
X117618333Y-96063380D02*
X117142142Y-96063380D01*
X117142142Y-95063380D01*
X118475476Y-96063380D02*
X117904047Y-96063380D01*
X118189761Y-96063380D02*
X118189761Y-95063380D01*
X118094523Y-95206238D01*
X117999285Y-95301476D01*
X117904047Y-95349095D01*
%TO.C,R25*%
X144086342Y-105552380D02*
X143753009Y-105076190D01*
X143514914Y-105552380D02*
X143514914Y-104552380D01*
X143895866Y-104552380D01*
X143991104Y-104600000D01*
X144038723Y-104647619D01*
X144086342Y-104742857D01*
X144086342Y-104885714D01*
X144038723Y-104980952D01*
X143991104Y-105028571D01*
X143895866Y-105076190D01*
X143514914Y-105076190D01*
X144467295Y-104647619D02*
X144514914Y-104600000D01*
X144610152Y-104552380D01*
X144848247Y-104552380D01*
X144943485Y-104600000D01*
X144991104Y-104647619D01*
X145038723Y-104742857D01*
X145038723Y-104838095D01*
X144991104Y-104980952D01*
X144419676Y-105552380D01*
X145038723Y-105552380D01*
X145943485Y-104552380D02*
X145467295Y-104552380D01*
X145419676Y-105028571D01*
X145467295Y-104980952D01*
X145562533Y-104933333D01*
X145800628Y-104933333D01*
X145895866Y-104980952D01*
X145943485Y-105028571D01*
X145991104Y-105123809D01*
X145991104Y-105361904D01*
X145943485Y-105457142D01*
X145895866Y-105504761D01*
X145800628Y-105552380D01*
X145562533Y-105552380D01*
X145467295Y-105504761D01*
X145419676Y-105457142D01*
%TO.C,J7*%
X174088609Y-113279180D02*
X174088609Y-112279180D01*
X174469561Y-112279180D01*
X174564800Y-112326800D01*
X174612419Y-112374419D01*
X174660038Y-112469657D01*
X174660038Y-112612514D01*
X174612419Y-112707752D01*
X174564800Y-112755371D01*
X174469561Y-112802990D01*
X174088609Y-112802990D01*
X175088609Y-113279180D02*
X175088609Y-112612514D01*
X175088609Y-112802990D02*
X175136228Y-112707752D01*
X175183847Y-112660133D01*
X175279085Y-112612514D01*
X175374323Y-112612514D01*
X175850514Y-113279180D02*
X175755276Y-113231561D01*
X175707657Y-113183942D01*
X175660038Y-113088704D01*
X175660038Y-112802990D01*
X175707657Y-112707752D01*
X175755276Y-112660133D01*
X175850514Y-112612514D01*
X175993371Y-112612514D01*
X176088609Y-112660133D01*
X176136228Y-112707752D01*
X176183847Y-112802990D01*
X176183847Y-113088704D01*
X176136228Y-113183942D01*
X176088609Y-113231561D01*
X175993371Y-113279180D01*
X175850514Y-113279180D01*
X177040990Y-112612514D02*
X177040990Y-113422038D01*
X176993371Y-113517276D01*
X176945752Y-113564895D01*
X176850514Y-113612514D01*
X176707657Y-113612514D01*
X176612419Y-113564895D01*
X177040990Y-113231561D02*
X176945752Y-113279180D01*
X176755276Y-113279180D01*
X176660038Y-113231561D01*
X176612419Y-113183942D01*
X176564800Y-113088704D01*
X176564800Y-112802990D01*
X176612419Y-112707752D01*
X176660038Y-112660133D01*
X176755276Y-112612514D01*
X176945752Y-112612514D01*
X177040990Y-112660133D01*
%TO.C,D6*%
X163261904Y-118352380D02*
X163261904Y-117352380D01*
X163500000Y-117352380D01*
X163642857Y-117400000D01*
X163738095Y-117495238D01*
X163785714Y-117590476D01*
X163833333Y-117780952D01*
X163833333Y-117923809D01*
X163785714Y-118114285D01*
X163738095Y-118209523D01*
X163642857Y-118304761D01*
X163500000Y-118352380D01*
X163261904Y-118352380D01*
X164690476Y-117352380D02*
X164500000Y-117352380D01*
X164404761Y-117400000D01*
X164357142Y-117447619D01*
X164261904Y-117590476D01*
X164214285Y-117780952D01*
X164214285Y-118161904D01*
X164261904Y-118257142D01*
X164309523Y-118304761D01*
X164404761Y-118352380D01*
X164595238Y-118352380D01*
X164690476Y-118304761D01*
X164738095Y-118257142D01*
X164785714Y-118161904D01*
X164785714Y-117923809D01*
X164738095Y-117828571D01*
X164690476Y-117780952D01*
X164595238Y-117733333D01*
X164404761Y-117733333D01*
X164309523Y-117780952D01*
X164261904Y-117828571D01*
X164214285Y-117923809D01*
%TO.C,C8*%
X142378133Y-88698342D02*
X142330514Y-88745961D01*
X142187657Y-88793580D01*
X142092419Y-88793580D01*
X141949561Y-88745961D01*
X141854323Y-88650723D01*
X141806704Y-88555485D01*
X141759085Y-88365009D01*
X141759085Y-88222152D01*
X141806704Y-88031676D01*
X141854323Y-87936438D01*
X141949561Y-87841200D01*
X142092419Y-87793580D01*
X142187657Y-87793580D01*
X142330514Y-87841200D01*
X142378133Y-87888819D01*
X142949561Y-88222152D02*
X142854323Y-88174533D01*
X142806704Y-88126914D01*
X142759085Y-88031676D01*
X142759085Y-87984057D01*
X142806704Y-87888819D01*
X142854323Y-87841200D01*
X142949561Y-87793580D01*
X143140038Y-87793580D01*
X143235276Y-87841200D01*
X143282895Y-87888819D01*
X143330514Y-87984057D01*
X143330514Y-88031676D01*
X143282895Y-88126914D01*
X143235276Y-88174533D01*
X143140038Y-88222152D01*
X142949561Y-88222152D01*
X142854323Y-88269771D01*
X142806704Y-88317390D01*
X142759085Y-88412628D01*
X142759085Y-88603104D01*
X142806704Y-88698342D01*
X142854323Y-88745961D01*
X142949561Y-88793580D01*
X143140038Y-88793580D01*
X143235276Y-88745961D01*
X143282895Y-88698342D01*
X143330514Y-88603104D01*
X143330514Y-88412628D01*
X143282895Y-88317390D01*
X143235276Y-88269771D01*
X143140038Y-88222152D01*
%TO.C,R23*%
X149957142Y-105452380D02*
X149623809Y-104976190D01*
X149385714Y-105452380D02*
X149385714Y-104452380D01*
X149766666Y-104452380D01*
X149861904Y-104500000D01*
X149909523Y-104547619D01*
X149957142Y-104642857D01*
X149957142Y-104785714D01*
X149909523Y-104880952D01*
X149861904Y-104928571D01*
X149766666Y-104976190D01*
X149385714Y-104976190D01*
X150338095Y-104547619D02*
X150385714Y-104500000D01*
X150480952Y-104452380D01*
X150719047Y-104452380D01*
X150814285Y-104500000D01*
X150861904Y-104547619D01*
X150909523Y-104642857D01*
X150909523Y-104738095D01*
X150861904Y-104880952D01*
X150290476Y-105452380D01*
X150909523Y-105452380D01*
X151242857Y-104452380D02*
X151861904Y-104452380D01*
X151528571Y-104833333D01*
X151671428Y-104833333D01*
X151766666Y-104880952D01*
X151814285Y-104928571D01*
X151861904Y-105023809D01*
X151861904Y-105261904D01*
X151814285Y-105357142D01*
X151766666Y-105404761D01*
X151671428Y-105452380D01*
X151385714Y-105452380D01*
X151290476Y-105404761D01*
X151242857Y-105357142D01*
%TO.C,J12*%
X102671809Y-65019180D02*
X102671809Y-64019180D01*
X103052761Y-64019180D01*
X103148000Y-64066800D01*
X103195619Y-64114419D01*
X103243238Y-64209657D01*
X103243238Y-64352514D01*
X103195619Y-64447752D01*
X103148000Y-64495371D01*
X103052761Y-64542990D01*
X102671809Y-64542990D01*
X103814666Y-65019180D02*
X103719428Y-64971561D01*
X103671809Y-64923942D01*
X103624190Y-64828704D01*
X103624190Y-64542990D01*
X103671809Y-64447752D01*
X103719428Y-64400133D01*
X103814666Y-64352514D01*
X103957523Y-64352514D01*
X104052761Y-64400133D01*
X104100380Y-64447752D01*
X104148000Y-64542990D01*
X104148000Y-64828704D01*
X104100380Y-64923942D01*
X104052761Y-64971561D01*
X103957523Y-65019180D01*
X103814666Y-65019180D01*
X104481333Y-64352514D02*
X104671809Y-65019180D01*
X104862285Y-64542990D01*
X105052761Y-65019180D01*
X105243238Y-64352514D01*
X106005142Y-64971561D02*
X105909904Y-65019180D01*
X105719428Y-65019180D01*
X105624190Y-64971561D01*
X105576571Y-64876323D01*
X105576571Y-64495371D01*
X105624190Y-64400133D01*
X105719428Y-64352514D01*
X105909904Y-64352514D01*
X106005142Y-64400133D01*
X106052761Y-64495371D01*
X106052761Y-64590609D01*
X105576571Y-64685847D01*
X106481333Y-65019180D02*
X106481333Y-64352514D01*
X106481333Y-64542990D02*
X106528952Y-64447752D01*
X106576571Y-64400133D01*
X106671809Y-64352514D01*
X106767047Y-64352514D01*
%TO.C,R32*%
X135173980Y-59316857D02*
X134697790Y-59650190D01*
X135173980Y-59888285D02*
X134173980Y-59888285D01*
X134173980Y-59507333D01*
X134221600Y-59412095D01*
X134269219Y-59364476D01*
X134364457Y-59316857D01*
X134507314Y-59316857D01*
X134602552Y-59364476D01*
X134650171Y-59412095D01*
X134697790Y-59507333D01*
X134697790Y-59888285D01*
X134173980Y-58983523D02*
X134173980Y-58364476D01*
X134554933Y-58697809D01*
X134554933Y-58554952D01*
X134602552Y-58459714D01*
X134650171Y-58412095D01*
X134745409Y-58364476D01*
X134983504Y-58364476D01*
X135078742Y-58412095D01*
X135126361Y-58459714D01*
X135173980Y-58554952D01*
X135173980Y-58840666D01*
X135126361Y-58935904D01*
X135078742Y-58983523D01*
X134269219Y-57983523D02*
X134221600Y-57935904D01*
X134173980Y-57840666D01*
X134173980Y-57602571D01*
X134221600Y-57507333D01*
X134269219Y-57459714D01*
X134364457Y-57412095D01*
X134459695Y-57412095D01*
X134602552Y-57459714D01*
X135173980Y-58031142D01*
X135173980Y-57412095D01*
%TO.C,JP3*%
X133872457Y-91414780D02*
X133872457Y-90414780D01*
X134205790Y-91129066D01*
X134539123Y-90414780D01*
X134539123Y-91414780D01*
X135586742Y-91319542D02*
X135539123Y-91367161D01*
X135396266Y-91414780D01*
X135301028Y-91414780D01*
X135158171Y-91367161D01*
X135062933Y-91271923D01*
X135015314Y-91176685D01*
X134967695Y-90986209D01*
X134967695Y-90843352D01*
X135015314Y-90652876D01*
X135062933Y-90557638D01*
X135158171Y-90462400D01*
X135301028Y-90414780D01*
X135396266Y-90414780D01*
X135539123Y-90462400D01*
X135586742Y-90510019D01*
X136015314Y-90414780D02*
X136015314Y-91224304D01*
X136062933Y-91319542D01*
X136110552Y-91367161D01*
X136205790Y-91414780D01*
X136396266Y-91414780D01*
X136491504Y-91367161D01*
X136539123Y-91319542D01*
X136586742Y-91224304D01*
X136586742Y-90414780D01*
%TO.C,Q9*%
X120404761Y-54247619D02*
X120309523Y-54200000D01*
X120214285Y-54104761D01*
X120071428Y-53961904D01*
X119976190Y-53914285D01*
X119880952Y-53914285D01*
X119928571Y-54152380D02*
X119833333Y-54104761D01*
X119738095Y-54009523D01*
X119690476Y-53819047D01*
X119690476Y-53485714D01*
X119738095Y-53295238D01*
X119833333Y-53200000D01*
X119928571Y-53152380D01*
X120119047Y-53152380D01*
X120214285Y-53200000D01*
X120309523Y-53295238D01*
X120357142Y-53485714D01*
X120357142Y-53819047D01*
X120309523Y-54009523D01*
X120214285Y-54104761D01*
X120119047Y-54152380D01*
X119928571Y-54152380D01*
X120833333Y-54152380D02*
X121023809Y-54152380D01*
X121119047Y-54104761D01*
X121166666Y-54057142D01*
X121261904Y-53914285D01*
X121309523Y-53723809D01*
X121309523Y-53342857D01*
X121261904Y-53247619D01*
X121214285Y-53200000D01*
X121119047Y-53152380D01*
X120928571Y-53152380D01*
X120833333Y-53200000D01*
X120785714Y-53247619D01*
X120738095Y-53342857D01*
X120738095Y-53580952D01*
X120785714Y-53676190D01*
X120833333Y-53723809D01*
X120928571Y-53771428D01*
X121119047Y-53771428D01*
X121214285Y-53723809D01*
X121261904Y-53676190D01*
X121309523Y-53580952D01*
%TO.C,D2*%
X116559104Y-117495580D02*
X116559104Y-116495580D01*
X116797200Y-116495580D01*
X116940057Y-116543200D01*
X117035295Y-116638438D01*
X117082914Y-116733676D01*
X117130533Y-116924152D01*
X117130533Y-117067009D01*
X117082914Y-117257485D01*
X117035295Y-117352723D01*
X116940057Y-117447961D01*
X116797200Y-117495580D01*
X116559104Y-117495580D01*
X117511485Y-116590819D02*
X117559104Y-116543200D01*
X117654342Y-116495580D01*
X117892438Y-116495580D01*
X117987676Y-116543200D01*
X118035295Y-116590819D01*
X118082914Y-116686057D01*
X118082914Y-116781295D01*
X118035295Y-116924152D01*
X117463866Y-117495580D01*
X118082914Y-117495580D01*
%TO.C,R35*%
X135224780Y-47886857D02*
X134748590Y-48220190D01*
X135224780Y-48458285D02*
X134224780Y-48458285D01*
X134224780Y-48077333D01*
X134272400Y-47982095D01*
X134320019Y-47934476D01*
X134415257Y-47886857D01*
X134558114Y-47886857D01*
X134653352Y-47934476D01*
X134700971Y-47982095D01*
X134748590Y-48077333D01*
X134748590Y-48458285D01*
X134224780Y-47553523D02*
X134224780Y-46934476D01*
X134605733Y-47267809D01*
X134605733Y-47124952D01*
X134653352Y-47029714D01*
X134700971Y-46982095D01*
X134796209Y-46934476D01*
X135034304Y-46934476D01*
X135129542Y-46982095D01*
X135177161Y-47029714D01*
X135224780Y-47124952D01*
X135224780Y-47410666D01*
X135177161Y-47505904D01*
X135129542Y-47553523D01*
X134224780Y-46029714D02*
X134224780Y-46505904D01*
X134700971Y-46553523D01*
X134653352Y-46505904D01*
X134605733Y-46410666D01*
X134605733Y-46172571D01*
X134653352Y-46077333D01*
X134700971Y-46029714D01*
X134796209Y-45982095D01*
X135034304Y-45982095D01*
X135129542Y-46029714D01*
X135177161Y-46077333D01*
X135224780Y-46172571D01*
X135224780Y-46410666D01*
X135177161Y-46505904D01*
X135129542Y-46553523D01*
%TO.C,R33*%
X121610380Y-47886857D02*
X121134190Y-48220190D01*
X121610380Y-48458285D02*
X120610380Y-48458285D01*
X120610380Y-48077333D01*
X120658000Y-47982095D01*
X120705619Y-47934476D01*
X120800857Y-47886857D01*
X120943714Y-47886857D01*
X121038952Y-47934476D01*
X121086571Y-47982095D01*
X121134190Y-48077333D01*
X121134190Y-48458285D01*
X120610380Y-47553523D02*
X120610380Y-46934476D01*
X120991333Y-47267809D01*
X120991333Y-47124952D01*
X121038952Y-47029714D01*
X121086571Y-46982095D01*
X121181809Y-46934476D01*
X121419904Y-46934476D01*
X121515142Y-46982095D01*
X121562761Y-47029714D01*
X121610380Y-47124952D01*
X121610380Y-47410666D01*
X121562761Y-47505904D01*
X121515142Y-47553523D01*
X120610380Y-46601142D02*
X120610380Y-45982095D01*
X120991333Y-46315428D01*
X120991333Y-46172571D01*
X121038952Y-46077333D01*
X121086571Y-46029714D01*
X121181809Y-45982095D01*
X121419904Y-45982095D01*
X121515142Y-46029714D01*
X121562761Y-46077333D01*
X121610380Y-46172571D01*
X121610380Y-46458285D01*
X121562761Y-46553523D01*
X121515142Y-46601142D01*
%TO.C,D1*%
X120267504Y-121203980D02*
X120267504Y-120203980D01*
X120505600Y-120203980D01*
X120648457Y-120251600D01*
X120743695Y-120346838D01*
X120791314Y-120442076D01*
X120838933Y-120632552D01*
X120838933Y-120775409D01*
X120791314Y-120965885D01*
X120743695Y-121061123D01*
X120648457Y-121156361D01*
X120505600Y-121203980D01*
X120267504Y-121203980D01*
X121791314Y-121203980D02*
X121219885Y-121203980D01*
X121505600Y-121203980D02*
X121505600Y-120203980D01*
X121410361Y-120346838D01*
X121315123Y-120442076D01*
X121219885Y-120489695D01*
%TO.C,R39*%
X117670342Y-61005980D02*
X117337009Y-60529790D01*
X117098914Y-61005980D02*
X117098914Y-60005980D01*
X117479866Y-60005980D01*
X117575104Y-60053600D01*
X117622723Y-60101219D01*
X117670342Y-60196457D01*
X117670342Y-60339314D01*
X117622723Y-60434552D01*
X117575104Y-60482171D01*
X117479866Y-60529790D01*
X117098914Y-60529790D01*
X118003676Y-60005980D02*
X118622723Y-60005980D01*
X118289390Y-60386933D01*
X118432247Y-60386933D01*
X118527485Y-60434552D01*
X118575104Y-60482171D01*
X118622723Y-60577409D01*
X118622723Y-60815504D01*
X118575104Y-60910742D01*
X118527485Y-60958361D01*
X118432247Y-61005980D01*
X118146533Y-61005980D01*
X118051295Y-60958361D01*
X118003676Y-60910742D01*
X119098914Y-61005980D02*
X119289390Y-61005980D01*
X119384628Y-60958361D01*
X119432247Y-60910742D01*
X119527485Y-60767885D01*
X119575104Y-60577409D01*
X119575104Y-60196457D01*
X119527485Y-60101219D01*
X119479866Y-60053600D01*
X119384628Y-60005980D01*
X119194152Y-60005980D01*
X119098914Y-60053600D01*
X119051295Y-60101219D01*
X119003676Y-60196457D01*
X119003676Y-60434552D01*
X119051295Y-60529790D01*
X119098914Y-60577409D01*
X119194152Y-60625028D01*
X119384628Y-60625028D01*
X119479866Y-60577409D01*
X119527485Y-60529790D01*
X119575104Y-60434552D01*
%TO.C,R1*%
X114692133Y-58567580D02*
X114358800Y-58091390D01*
X114120704Y-58567580D02*
X114120704Y-57567580D01*
X114501657Y-57567580D01*
X114596895Y-57615200D01*
X114644514Y-57662819D01*
X114692133Y-57758057D01*
X114692133Y-57900914D01*
X114644514Y-57996152D01*
X114596895Y-58043771D01*
X114501657Y-58091390D01*
X114120704Y-58091390D01*
X115644514Y-58567580D02*
X115073085Y-58567580D01*
X115358800Y-58567580D02*
X115358800Y-57567580D01*
X115263561Y-57710438D01*
X115168323Y-57805676D01*
X115073085Y-57853295D01*
%TO.C,R37*%
X136494780Y-47937657D02*
X136018590Y-48270990D01*
X136494780Y-48509085D02*
X135494780Y-48509085D01*
X135494780Y-48128133D01*
X135542400Y-48032895D01*
X135590019Y-47985276D01*
X135685257Y-47937657D01*
X135828114Y-47937657D01*
X135923352Y-47985276D01*
X135970971Y-48032895D01*
X136018590Y-48128133D01*
X136018590Y-48509085D01*
X135494780Y-47604323D02*
X135494780Y-46985276D01*
X135875733Y-47318609D01*
X135875733Y-47175752D01*
X135923352Y-47080514D01*
X135970971Y-47032895D01*
X136066209Y-46985276D01*
X136304304Y-46985276D01*
X136399542Y-47032895D01*
X136447161Y-47080514D01*
X136494780Y-47175752D01*
X136494780Y-47461466D01*
X136447161Y-47556704D01*
X136399542Y-47604323D01*
X135494780Y-46651942D02*
X135494780Y-45985276D01*
X136494780Y-46413847D01*
%TO.C,R29*%
X119019580Y-47937657D02*
X118543390Y-48270990D01*
X119019580Y-48509085D02*
X118019580Y-48509085D01*
X118019580Y-48128133D01*
X118067200Y-48032895D01*
X118114819Y-47985276D01*
X118210057Y-47937657D01*
X118352914Y-47937657D01*
X118448152Y-47985276D01*
X118495771Y-48032895D01*
X118543390Y-48128133D01*
X118543390Y-48509085D01*
X118114819Y-47556704D02*
X118067200Y-47509085D01*
X118019580Y-47413847D01*
X118019580Y-47175752D01*
X118067200Y-47080514D01*
X118114819Y-47032895D01*
X118210057Y-46985276D01*
X118305295Y-46985276D01*
X118448152Y-47032895D01*
X119019580Y-47604323D01*
X119019580Y-46985276D01*
X119019580Y-46509085D02*
X119019580Y-46318609D01*
X118971961Y-46223371D01*
X118924342Y-46175752D01*
X118781485Y-46080514D01*
X118591009Y-46032895D01*
X118210057Y-46032895D01*
X118114819Y-46080514D01*
X118067200Y-46128133D01*
X118019580Y-46223371D01*
X118019580Y-46413847D01*
X118067200Y-46509085D01*
X118114819Y-46556704D01*
X118210057Y-46604323D01*
X118448152Y-46604323D01*
X118543390Y-46556704D01*
X118591009Y-46509085D01*
X118638628Y-46413847D01*
X118638628Y-46223371D01*
X118591009Y-46128133D01*
X118543390Y-46080514D01*
X118448152Y-46032895D01*
%TO.C,R31*%
X120340380Y-47886857D02*
X119864190Y-48220190D01*
X120340380Y-48458285D02*
X119340380Y-48458285D01*
X119340380Y-48077333D01*
X119388000Y-47982095D01*
X119435619Y-47934476D01*
X119530857Y-47886857D01*
X119673714Y-47886857D01*
X119768952Y-47934476D01*
X119816571Y-47982095D01*
X119864190Y-48077333D01*
X119864190Y-48458285D01*
X119340380Y-47553523D02*
X119340380Y-46934476D01*
X119721333Y-47267809D01*
X119721333Y-47124952D01*
X119768952Y-47029714D01*
X119816571Y-46982095D01*
X119911809Y-46934476D01*
X120149904Y-46934476D01*
X120245142Y-46982095D01*
X120292761Y-47029714D01*
X120340380Y-47124952D01*
X120340380Y-47410666D01*
X120292761Y-47505904D01*
X120245142Y-47553523D01*
X120340380Y-45982095D02*
X120340380Y-46553523D01*
X120340380Y-46267809D02*
X119340380Y-46267809D01*
X119483238Y-46363047D01*
X119578476Y-46458285D01*
X119626095Y-46553523D01*
D11*
%TO.C,J8*%
X173917500Y-85850000D02*
X178717500Y-85850000D01*
X164917500Y-92150000D02*
X165417500Y-91650000D01*
X178717500Y-85850000D02*
X178717500Y-99950000D01*
X178717500Y-99950000D02*
X173917500Y-99950000D01*
X165617500Y-85850000D02*
X170417500Y-85850000D01*
X164917500Y-91150000D02*
X164917500Y-92150000D01*
X170417500Y-99950000D02*
X165617500Y-99950000D01*
X165417500Y-91650000D02*
X164917500Y-91150000D01*
X165617500Y-99950000D02*
X165617500Y-85850000D01*
%TO.C,J15*%
X173268800Y-106423200D02*
X172268800Y-106423200D01*
X163548800Y-104403200D02*
X172768800Y-104403200D01*
X162748800Y-108223200D02*
X165248800Y-108223200D01*
X172768800Y-105613200D02*
X173268800Y-105613200D01*
X163548800Y-105613200D02*
X163548800Y-104403200D01*
X172768800Y-104403200D02*
X172768800Y-105613200D01*
X164048800Y-106423200D02*
X164048800Y-107923200D01*
X173268800Y-107923200D02*
X173268800Y-103903200D01*
X173268800Y-103903200D02*
X163048800Y-103903200D01*
X162748800Y-105723200D02*
X162748800Y-108223200D01*
X163048800Y-105613200D02*
X163548800Y-105613200D01*
X163048800Y-103903200D02*
X163048800Y-107923200D01*
X163048800Y-106423200D02*
X164048800Y-106423200D01*
X163048800Y-107923200D02*
X173268800Y-107923200D01*
X172268800Y-106423200D02*
X172268800Y-107923200D01*
%TO.C,TP2*%
X121850000Y-78750000D02*
X121850000Y-76850000D01*
X123750000Y-78750000D02*
X121850000Y-78750000D01*
X121850000Y-76850000D02*
X123750000Y-76850000D01*
X123750000Y-76850000D02*
X123750000Y-78750000D01*
%TO.C,D12*%
X120166360Y-84866000D02*
G75*
G03*
X120114420Y-87556181I-2361360J-1300000D01*
G01*
%TO.C,J9*%
X149590000Y-124810000D02*
X152090000Y-124810000D01*
X164110000Y-123010000D02*
X164110000Y-124510000D01*
X165110000Y-120490000D02*
X149890000Y-120490000D01*
X164610000Y-120990000D02*
X164610000Y-122200000D01*
X149890000Y-124510000D02*
X165110000Y-124510000D01*
X150390000Y-122200000D02*
X150390000Y-120990000D01*
X149890000Y-123010000D02*
X150890000Y-123010000D01*
X164610000Y-122200000D02*
X165110000Y-122200000D01*
X149890000Y-122200000D02*
X150390000Y-122200000D01*
X150890000Y-123010000D02*
X150890000Y-124510000D01*
X165110000Y-123010000D02*
X164110000Y-123010000D01*
X149590000Y-122310000D02*
X149590000Y-124810000D01*
X149890000Y-120490000D02*
X149890000Y-124510000D01*
X165110000Y-124510000D02*
X165110000Y-120490000D01*
X150390000Y-120990000D02*
X164610000Y-120990000D01*
%TO.C,R34*%
X131291000Y-58901064D02*
X131291000Y-58446936D01*
X129821000Y-58901064D02*
X129821000Y-58446936D01*
%TO.C,J11*%
X167967500Y-65820000D02*
X167967500Y-66820000D01*
X178477500Y-81690000D02*
X169357500Y-81690000D01*
X170667500Y-73450000D02*
X170667500Y-73450000D01*
X169357500Y-81690000D02*
X169357500Y-61110000D01*
X168967500Y-66320000D02*
X167967500Y-65820000D01*
X169357500Y-61110000D02*
X178477500Y-61110000D01*
X170667500Y-80390000D02*
X170667500Y-73450000D01*
X170667500Y-62410000D02*
X177167500Y-62410000D01*
X177167500Y-62410000D02*
X177167500Y-80390000D01*
X170667500Y-73450000D02*
X169357500Y-73450000D01*
X167967500Y-66820000D02*
X168967500Y-66320000D01*
X178477500Y-61110000D02*
X178477500Y-81690000D01*
X170667500Y-69350000D02*
X170667500Y-62410000D01*
X169357500Y-69350000D02*
X170667500Y-69350000D01*
X177167500Y-80390000D02*
X170667500Y-80390000D01*
%TO.C,U3*%
X142824800Y-117408300D02*
X142824800Y-115458300D01*
X147944800Y-117408300D02*
X147944800Y-119358300D01*
X147944800Y-117408300D02*
X147944800Y-113958300D01*
X142824800Y-117408300D02*
X142824800Y-119358300D01*
%TO.C,TP6*%
X111673600Y-49362400D02*
X111673600Y-47462400D01*
X113573600Y-47462400D02*
X113573600Y-49362400D01*
X111673600Y-47462400D02*
X113573600Y-47462400D01*
X113573600Y-49362400D02*
X111673600Y-49362400D01*
%TO.C,J6*%
X117123500Y-63359000D02*
X117123500Y-62149000D01*
X128843500Y-63359000D02*
X129343500Y-63359000D01*
X116623500Y-65669000D02*
X129343500Y-65669000D01*
X116323500Y-63469000D02*
X116323500Y-65969000D01*
X117623500Y-64169000D02*
X117623500Y-65669000D01*
X117123500Y-62149000D02*
X128843500Y-62149000D01*
X116623500Y-63359000D02*
X117123500Y-63359000D01*
X128343500Y-64169000D02*
X128343500Y-65669000D01*
X129343500Y-65669000D02*
X129343500Y-61649000D01*
X128843500Y-62149000D02*
X128843500Y-63359000D01*
X129343500Y-61649000D02*
X116623500Y-61649000D01*
X129343500Y-64169000D02*
X128343500Y-64169000D01*
X116623500Y-64169000D02*
X117623500Y-64169000D01*
X116623500Y-61649000D02*
X116623500Y-65669000D01*
X116323500Y-65969000D02*
X118823500Y-65969000D01*
%TO.C,R28*%
X122201000Y-58901064D02*
X122201000Y-58446936D01*
X123671000Y-58901064D02*
X123671000Y-58446936D01*
%TO.C,R11*%
X147117976Y-98639100D02*
X147627424Y-98639100D01*
X147117976Y-99684100D02*
X147627424Y-99684100D01*
%TO.C,D13*%
X152806400Y-99756400D02*
X154606400Y-99756400D01*
X152806400Y-96636400D02*
X153606400Y-96636400D01*
X152806400Y-99756400D02*
X152006400Y-99756400D01*
X152806400Y-96636400D02*
X152006400Y-96636400D01*
%TO.C,Q2*%
X121680000Y-105530000D02*
X121680000Y-102700000D01*
X115320000Y-105530000D02*
X115320000Y-104430000D01*
X115050000Y-107030000D02*
X115050000Y-105530000D01*
X121950000Y-105530000D02*
X121680000Y-105530000D01*
X121950000Y-107030000D02*
X121950000Y-105530000D01*
X115050000Y-105530000D02*
X115320000Y-105530000D01*
%TO.C,U7*%
X126267600Y-96272400D02*
X130027600Y-96272400D01*
X124017600Y-89452400D02*
X130027600Y-89452400D01*
X130027600Y-89452400D02*
X130027600Y-90712400D01*
X130027600Y-96272400D02*
X130027600Y-95012400D01*
D12*
%TO.C,U5*%
X154766000Y-113465600D02*
X154616000Y-113465600D01*
X154766000Y-110765600D02*
X154616000Y-110765600D01*
X154776000Y-113465600D02*
X154776000Y-113315600D01*
X152066000Y-110915600D02*
X152066000Y-110765600D01*
X152216000Y-113465600D02*
X151966000Y-113465600D01*
X152066000Y-110765600D02*
X152216000Y-110765600D01*
X154766000Y-110765600D02*
X154766000Y-110915600D01*
D11*
%TO.C,C16*%
X127564933Y-97893600D02*
X127857467Y-97893600D01*
X127564933Y-96873600D02*
X127857467Y-96873600D01*
%TO.C,R14*%
X165353276Y-101737900D02*
X165862724Y-101737900D01*
X165353276Y-102782900D02*
X165862724Y-102782900D01*
%TO.C,Y1*%
X145614800Y-97284000D02*
X145614800Y-91534000D01*
X142014800Y-91534000D02*
X142014800Y-97284000D01*
X142014800Y-97284000D02*
X145614800Y-97284000D01*
%TO.C,J5*%
X135910000Y-79300000D02*
X135910000Y-80510000D01*
X126690000Y-79300000D02*
X126190000Y-79300000D01*
X127190000Y-78490000D02*
X127190000Y-76990000D01*
X126190000Y-81010000D02*
X136410000Y-81010000D01*
X135410000Y-78490000D02*
X135410000Y-76990000D01*
X126690000Y-80510000D02*
X126690000Y-79300000D01*
X136410000Y-78490000D02*
X135410000Y-78490000D01*
X136410000Y-76990000D02*
X126190000Y-76990000D01*
X126190000Y-78490000D02*
X127190000Y-78490000D01*
X136410000Y-79300000D02*
X135910000Y-79300000D01*
X135910000Y-80510000D02*
X126690000Y-80510000D01*
X136710000Y-76690000D02*
X134210000Y-76690000D01*
X136710000Y-79190000D02*
X136710000Y-76690000D01*
X126190000Y-76990000D02*
X126190000Y-81010000D01*
X136410000Y-81010000D02*
X136410000Y-76990000D01*
%TO.C,TP1*%
X178150000Y-82750000D02*
X178150000Y-84650000D01*
X176250000Y-82750000D02*
X178150000Y-82750000D01*
X178150000Y-84650000D02*
X176250000Y-84650000D01*
X176250000Y-84650000D02*
X176250000Y-82750000D01*
%TO.C,D10*%
X140600000Y-61860000D02*
X141400000Y-61860000D01*
X140600000Y-61860000D02*
X139800000Y-61860000D01*
X140600000Y-58740000D02*
X141400000Y-58740000D01*
X140600000Y-58740000D02*
X138800000Y-58740000D01*
%TO.C,JP4*%
X122856800Y-96790000D02*
X125656800Y-96790000D01*
X125656800Y-98790000D02*
X122856800Y-98790000D01*
X125656800Y-96790000D02*
X125656800Y-98790000D01*
X122856800Y-98790000D02*
X122856800Y-96790000D01*
%TO.C,J16*%
X128980000Y-88630000D02*
X127650000Y-88630000D01*
X126380000Y-88630000D02*
X123780000Y-88630000D01*
X123780000Y-85970000D02*
X123780000Y-88630000D01*
X126380000Y-85970000D02*
X126380000Y-88630000D01*
X128980000Y-87300000D02*
X128980000Y-88630000D01*
X126380000Y-85970000D02*
X123780000Y-85970000D01*
%TO.C,R36*%
X132361000Y-58901064D02*
X132361000Y-58446936D01*
X133831000Y-58901064D02*
X133831000Y-58446936D01*
%TO.C,C2*%
X143097467Y-97788000D02*
X142804933Y-97788000D01*
X143097467Y-98808000D02*
X142804933Y-98808000D01*
%TO.C,J13*%
X109591000Y-72721000D02*
X109591000Y-82642000D01*
X105997000Y-79221000D02*
X105962000Y-79256000D01*
X99231000Y-82142000D02*
X99231000Y-82882000D01*
X99471000Y-82642000D02*
X109591000Y-82642000D01*
X108306000Y-76913000D02*
X108259000Y-76959000D01*
X99471000Y-80582000D02*
X109591000Y-80582000D01*
X99471000Y-82082000D02*
X109591000Y-82082000D01*
X99471000Y-72721000D02*
X99471000Y-82642000D01*
X105804000Y-79005000D02*
X105757000Y-79051000D01*
X99471000Y-72721000D02*
X109591000Y-72721000D01*
X99231000Y-82882000D02*
X99731000Y-82882000D01*
X108101000Y-76707000D02*
X108066000Y-76743000D01*
X99471000Y-75681000D02*
X109591000Y-75681000D01*
X100496000Y-77298000D02*
G75*
G03*
X100495573Y-78665042I1534993J-684001D01*
G01*
X101347000Y-79517000D02*
G75*
G03*
X102059805Y-79662253I683999J1535001D01*
G01*
X103566001Y-78666000D02*
G75*
G03*
X103566427Y-77298958I-1535001J684000D01*
G01*
X102031000Y-79662000D02*
G75*
G03*
X102714318Y-79516756I0J1680000D01*
G01*
X102715000Y-76447000D02*
G75*
G03*
X101347958Y-76446573I-684001J-1534993D01*
G01*
X108711000Y-77982000D02*
G75*
G03*
X108711000Y-77982000I-1680000J0D01*
G01*
%TO.C,J1*%
X144090000Y-65610000D02*
X148110000Y-65610000D01*
X147610000Y-65110000D02*
X146400000Y-65110000D01*
X145590000Y-65610000D02*
X145590000Y-64610000D01*
X146400000Y-55890000D02*
X147610000Y-55890000D01*
X147610000Y-55890000D02*
X147610000Y-65110000D01*
X146400000Y-65110000D02*
X146400000Y-65610000D01*
X148110000Y-65610000D02*
X148110000Y-55390000D01*
X145590000Y-64610000D02*
X144090000Y-64610000D01*
X148110000Y-55390000D02*
X144090000Y-55390000D01*
X144090000Y-55390000D02*
X144090000Y-65610000D01*
X146400000Y-55390000D02*
X146400000Y-55890000D01*
X146290000Y-55090000D02*
X143790000Y-55090000D01*
X145590000Y-55390000D02*
X145590000Y-56390000D01*
X145590000Y-56390000D02*
X144090000Y-56390000D01*
X143790000Y-55090000D02*
X143790000Y-57590000D01*
%TO.C,J2*%
X130727000Y-118477000D02*
X130774000Y-118431000D01*
X137300000Y-114600000D02*
X136800000Y-114600000D01*
X137060000Y-124761000D02*
X126940000Y-124761000D01*
X137060000Y-116900000D02*
X126940000Y-116900000D01*
X137300000Y-115340000D02*
X137300000Y-114600000D01*
X137060000Y-124761000D02*
X137060000Y-114840000D01*
X128430000Y-120775000D02*
X128465000Y-120739000D01*
X137060000Y-121801000D02*
X126940000Y-121801000D01*
X137060000Y-115400000D02*
X126940000Y-115400000D01*
X137060000Y-114840000D02*
X126940000Y-114840000D01*
X126940000Y-124761000D02*
X126940000Y-114840000D01*
X128225000Y-120569000D02*
X128272000Y-120523000D01*
X130534000Y-118261000D02*
X130569000Y-118226000D01*
X135184000Y-117965000D02*
G75*
G03*
X134471195Y-117819747I-683999J-1535001D01*
G01*
X132964999Y-118816000D02*
G75*
G03*
X132964573Y-120183042I1535001J-684000D01*
G01*
X134500000Y-117820000D02*
G75*
G03*
X133816682Y-117965244I0J-1680000D01*
G01*
X136035000Y-120184000D02*
G75*
G03*
X136035427Y-118816958I-1534993J684001D01*
G01*
X133816000Y-121035000D02*
G75*
G03*
X135183042Y-121035427I684001J1534993D01*
G01*
X131180000Y-119500000D02*
G75*
G03*
X131180000Y-119500000I-1680000J0D01*
G01*
%TO.C,JP1*%
X164360400Y-111845600D02*
X164360400Y-109845600D01*
X164360400Y-109845600D02*
X167160400Y-109845600D01*
X167160400Y-109845600D02*
X167160400Y-111845600D01*
X167160400Y-111845600D02*
X164360400Y-111845600D01*
%TO.C,TP4*%
X103850000Y-100950000D02*
X103850000Y-99050000D01*
X103850000Y-99050000D02*
X105750000Y-99050000D01*
X105750000Y-99050000D02*
X105750000Y-100950000D01*
X105750000Y-100950000D02*
X103850000Y-100950000D01*
%TO.C,J10*%
X156450000Y-53132500D02*
X156450000Y-54442500D01*
X164690000Y-54442500D02*
X144110000Y-54442500D01*
X145410000Y-46632500D02*
X163390000Y-46632500D01*
X152350000Y-54442500D02*
X152350000Y-53132500D01*
X144110000Y-54442500D02*
X144110000Y-45322500D01*
X144110000Y-45322500D02*
X164690000Y-45322500D01*
X163390000Y-53132500D02*
X156450000Y-53132500D01*
X149320000Y-54832500D02*
X148820000Y-55832500D01*
X148820000Y-55832500D02*
X149820000Y-55832500D01*
X152350000Y-53132500D02*
X145410000Y-53132500D01*
X163390000Y-46632500D02*
X163390000Y-53132500D01*
X156450000Y-53132500D02*
X156450000Y-53132500D01*
X145410000Y-53132500D02*
X145410000Y-46632500D01*
X164690000Y-45322500D02*
X164690000Y-54442500D01*
X149820000Y-55832500D02*
X149320000Y-54832500D01*
%TO.C,R6*%
X131063276Y-102122500D02*
X131572724Y-102122500D01*
X131063276Y-101077500D02*
X131572724Y-101077500D01*
%TO.C,C19*%
X123344400Y-92145067D02*
X123344400Y-91852533D01*
X122324400Y-92145067D02*
X122324400Y-91852533D01*
%TO.C,C3*%
X146098800Y-92602267D02*
X146098800Y-92309733D01*
X147118800Y-92602267D02*
X147118800Y-92309733D01*
%TO.C,Q3*%
X132680000Y-105530000D02*
X132680000Y-102700000D01*
X132950000Y-105530000D02*
X132680000Y-105530000D01*
X126320000Y-105530000D02*
X126320000Y-104430000D01*
X132950000Y-107030000D02*
X132950000Y-105530000D01*
X126050000Y-105530000D02*
X126320000Y-105530000D01*
X126050000Y-107030000D02*
X126050000Y-105530000D01*
%TO.C,C1*%
X160979067Y-107901200D02*
X160686533Y-107901200D01*
X160979067Y-106881200D02*
X160686533Y-106881200D01*
%TO.C,JP6*%
X149000000Y-123700000D02*
X146200000Y-123700000D01*
X146200000Y-123700000D02*
X146200000Y-121700000D01*
X149000000Y-121700000D02*
X149000000Y-123700000D01*
X146200000Y-121700000D02*
X149000000Y-121700000D01*
%TO.C,C9*%
X145090933Y-90426000D02*
X145383467Y-90426000D01*
X145090933Y-89406000D02*
X145383467Y-89406000D01*
%TO.C,R4*%
X124003524Y-103261900D02*
X123494076Y-103261900D01*
X124003524Y-104306900D02*
X123494076Y-104306900D01*
%TO.C,RN2*%
X150923200Y-103217600D02*
X150923200Y-102217600D01*
X154283200Y-103217600D02*
X154283200Y-102217600D01*
%TO.C,TP3*%
X102750000Y-100950000D02*
X100850000Y-100950000D01*
X102750000Y-99050000D02*
X102750000Y-100950000D01*
X100850000Y-100950000D02*
X100850000Y-99050000D01*
X100850000Y-99050000D02*
X102750000Y-99050000D01*
%TO.C,C17*%
X130204600Y-98928200D02*
X134289600Y-98928200D01*
X134289600Y-97058200D02*
X130204600Y-97058200D01*
X130204600Y-97058200D02*
X130204600Y-98928200D01*
%TO.C,TP5*%
X131550000Y-88250000D02*
X131550000Y-86350000D01*
X133450000Y-88250000D02*
X131550000Y-88250000D01*
X131550000Y-86350000D02*
X133450000Y-86350000D01*
X133450000Y-86350000D02*
X133450000Y-88250000D01*
%TO.C,R24*%
X155270924Y-109154700D02*
X154761476Y-109154700D01*
X155270924Y-110199700D02*
X154761476Y-110199700D01*
%TO.C,J18*%
X167810000Y-63100000D02*
X168310000Y-63100000D01*
X168310000Y-61390000D02*
X153090000Y-61390000D01*
X153090000Y-63910000D02*
X154090000Y-63910000D01*
X153590000Y-63100000D02*
X153590000Y-61890000D01*
X153090000Y-63100000D02*
X153590000Y-63100000D01*
X153090000Y-65410000D02*
X168310000Y-65410000D01*
X152790000Y-65710000D02*
X155290000Y-65710000D01*
X167810000Y-61890000D02*
X167810000Y-63100000D01*
X153090000Y-61390000D02*
X153090000Y-65410000D01*
X167310000Y-63910000D02*
X167310000Y-65410000D01*
X154090000Y-63910000D02*
X154090000Y-65410000D01*
X168310000Y-63910000D02*
X167310000Y-63910000D01*
X153590000Y-61890000D02*
X167810000Y-61890000D01*
X168310000Y-65410000D02*
X168310000Y-61390000D01*
X152790000Y-63210000D02*
X152790000Y-65710000D01*
%TO.C,R7*%
X127915124Y-102122500D02*
X127405676Y-102122500D01*
X127915124Y-101077500D02*
X127405676Y-101077500D01*
%TO.C,R5*%
X124003524Y-104938300D02*
X123494076Y-104938300D01*
X124003524Y-105983300D02*
X123494076Y-105983300D01*
%TO.C,R30*%
X124741000Y-58885064D02*
X124741000Y-58430936D01*
X126211000Y-58885064D02*
X126211000Y-58430936D01*
%TO.C,J14*%
X140990000Y-109800000D02*
X141490000Y-109800000D01*
X151210000Y-110610000D02*
X150210000Y-110610000D01*
X140690000Y-109910000D02*
X140690000Y-112410000D01*
X141990000Y-110610000D02*
X141990000Y-112110000D01*
X140990000Y-108090000D02*
X140990000Y-112110000D01*
X140990000Y-110610000D02*
X141990000Y-110610000D01*
X150710000Y-108590000D02*
X150710000Y-109800000D01*
X150710000Y-109800000D02*
X151210000Y-109800000D01*
X151210000Y-108090000D02*
X140990000Y-108090000D01*
X151210000Y-112110000D02*
X151210000Y-108090000D01*
X140990000Y-112110000D02*
X151210000Y-112110000D01*
X141490000Y-108590000D02*
X150710000Y-108590000D01*
X141490000Y-109800000D02*
X141490000Y-108590000D01*
X140690000Y-112410000D02*
X143190000Y-112410000D01*
X150210000Y-110610000D02*
X150210000Y-112110000D01*
%TO.C,C6*%
X139752800Y-89248367D02*
X139752800Y-88955833D01*
X138732800Y-89248367D02*
X138732800Y-88955833D01*
%TO.C,R41*%
X140425700Y-94637776D02*
X140425700Y-95147224D01*
X139380700Y-94637776D02*
X139380700Y-95147224D01*
%TO.C,U1*%
X163755000Y-112025000D02*
X163755000Y-108575000D01*
X163755000Y-112025000D02*
X163755000Y-113975000D01*
X158635000Y-112025000D02*
X158635000Y-113975000D01*
X158635000Y-112025000D02*
X158635000Y-110075000D01*
%TO.C,L1*%
X116525000Y-92497815D02*
G75*
G03*
X116525000Y-98724185I1260000J-3113185D01*
G01*
X119045000Y-98724185D02*
G75*
G03*
X119045000Y-92497815I-1260000J3113185D01*
G01*
X119189000Y-95611000D02*
G75*
G03*
X119189000Y-95611000I-1404000J0D01*
G01*
%TO.C,R25*%
X146365700Y-103633176D02*
X146365700Y-104142624D01*
X147410700Y-103633176D02*
X147410700Y-104142624D01*
%TO.C,J7*%
X177391600Y-105283000D02*
X177961600Y-105283000D01*
X177961600Y-105283000D02*
X177961600Y-111693000D01*
X176939130Y-111693000D02*
X177961600Y-111693000D01*
X175301600Y-105283000D02*
X175301600Y-111693000D01*
X175301600Y-105283000D02*
X175871600Y-105283000D01*
X176631600Y-103888000D02*
X177961600Y-103888000D01*
X175301600Y-111693000D02*
X176324070Y-111693000D01*
X177961600Y-103888000D02*
X177961600Y-104648000D01*
%TO.C,D6*%
X159640000Y-117900000D02*
X159640000Y-117250000D01*
X162760000Y-117900000D02*
X162760000Y-118550000D01*
X159640000Y-117900000D02*
X159640000Y-119575000D01*
X162760000Y-117900000D02*
X162760000Y-117250000D01*
%TO.C,C8*%
X145090933Y-87831200D02*
X145383467Y-87831200D01*
X145090933Y-88851200D02*
X145383467Y-88851200D01*
%TO.C,R23*%
X148960100Y-103633176D02*
X148960100Y-104142624D01*
X147915100Y-103633176D02*
X147915100Y-104142624D01*
%TO.C,J12*%
X109710000Y-69300000D02*
X109210000Y-69300000D01*
X108710000Y-68490000D02*
X108710000Y-66990000D01*
X99490000Y-68490000D02*
X100490000Y-68490000D01*
X99490000Y-66990000D02*
X99490000Y-71010000D01*
X109710000Y-68490000D02*
X108710000Y-68490000D01*
X100490000Y-68490000D02*
X100490000Y-66990000D01*
X109710000Y-71010000D02*
X109710000Y-66990000D01*
X99490000Y-71010000D02*
X109710000Y-71010000D01*
X109210000Y-70510000D02*
X99990000Y-70510000D01*
X110010000Y-69190000D02*
X110010000Y-66690000D01*
X99990000Y-70510000D02*
X99990000Y-69300000D01*
X109210000Y-69300000D02*
X109210000Y-70510000D01*
X99990000Y-69300000D02*
X99490000Y-69300000D01*
X110010000Y-66690000D02*
X107510000Y-66690000D01*
X109710000Y-66990000D02*
X99490000Y-66990000D01*
%TO.C,R32*%
X127281000Y-58885064D02*
X127281000Y-58430936D01*
X128751000Y-58885064D02*
X128751000Y-58430936D01*
%TO.C,JP3*%
X133829600Y-93862400D02*
X133829600Y-91862400D01*
X136629600Y-91862400D02*
X136629600Y-93862400D01*
X136629600Y-93862400D02*
X133829600Y-93862400D01*
X133829600Y-91862400D02*
X136629600Y-91862400D01*
%TO.C,Q9*%
X115920000Y-52940000D02*
X116850000Y-52940000D01*
X119080000Y-52940000D02*
X118150000Y-52940000D01*
X119080000Y-52940000D02*
X119080000Y-54400000D01*
X115920000Y-52940000D02*
X115920000Y-56100000D01*
%TO.C,D2*%
X112904000Y-122814800D02*
X112904000Y-115914800D01*
X112904000Y-122814800D02*
X116204000Y-122814800D01*
X116204000Y-122814800D02*
X116204000Y-115914800D01*
%TO.C,R35*%
X131291000Y-47143936D02*
X131291000Y-47598064D01*
X129821000Y-47143936D02*
X129821000Y-47598064D01*
%TO.C,R33*%
X127281000Y-47143936D02*
X127281000Y-47598064D01*
X128751000Y-47143936D02*
X128751000Y-47598064D01*
%TO.C,D1*%
X116600000Y-121600000D02*
X116600000Y-124900000D01*
X116600000Y-121600000D02*
X123500000Y-121600000D01*
X116600000Y-124900000D02*
X123500000Y-124900000D01*
%TO.C,R39*%
X118988100Y-57911276D02*
X118988100Y-58420724D01*
X117943100Y-57911276D02*
X117943100Y-58420724D01*
%TO.C,R1*%
X116012700Y-57911276D02*
X116012700Y-58420724D01*
X117057700Y-57911276D02*
X117057700Y-58420724D01*
%TO.C,R37*%
X132361000Y-47143936D02*
X132361000Y-47598064D01*
X133831000Y-47143936D02*
X133831000Y-47598064D01*
%TO.C,R29*%
X122201000Y-47134536D02*
X122201000Y-47588664D01*
X123671000Y-47134536D02*
X123671000Y-47588664D01*
%TO.C,R31*%
X124741000Y-47143936D02*
X124741000Y-47598064D01*
X126211000Y-47143936D02*
X126211000Y-47598064D01*
%TD*%
M02*
