%TF.GenerationSoftware,KiCad,Pcbnew,8.0.1*%
%TF.CreationDate,2024-04-11T20:56:08+03:00*%
%TF.ProjectId,stm32,73746d33-322e-46b6-9963-61645f706362,rev?*%
%TF.SameCoordinates,Original*%
%TF.FileFunction,Legend,Bot*%
%TF.FilePolarity,Positive*%
%FSLAX46Y46*%
G04 Gerber Fmt 4.6, Leading zero omitted, Abs format (unit mm)*
G04 Created by KiCad (PCBNEW 8.0.1) date 2024-04-11 20:56:08*
%MOMM*%
%LPD*%
G01*
G04 APERTURE LIST*
%ADD10C,0.150000*%
%ADD11C,0.120000*%
G04 APERTURE END LIST*
D10*
X94622857Y-38205580D02*
X94670476Y-38253200D01*
X94670476Y-38253200D02*
X94813333Y-38300819D01*
X94813333Y-38300819D02*
X94908571Y-38300819D01*
X94908571Y-38300819D02*
X95051428Y-38253200D01*
X95051428Y-38253200D02*
X95146666Y-38157961D01*
X95146666Y-38157961D02*
X95194285Y-38062723D01*
X95194285Y-38062723D02*
X95241904Y-37872247D01*
X95241904Y-37872247D02*
X95241904Y-37729390D01*
X95241904Y-37729390D02*
X95194285Y-37538914D01*
X95194285Y-37538914D02*
X95146666Y-37443676D01*
X95146666Y-37443676D02*
X95051428Y-37348438D01*
X95051428Y-37348438D02*
X94908571Y-37300819D01*
X94908571Y-37300819D02*
X94813333Y-37300819D01*
X94813333Y-37300819D02*
X94670476Y-37348438D01*
X94670476Y-37348438D02*
X94622857Y-37396057D01*
X93670476Y-38300819D02*
X94241904Y-38300819D01*
X93956190Y-38300819D02*
X93956190Y-37300819D01*
X93956190Y-37300819D02*
X94051428Y-37443676D01*
X94051428Y-37443676D02*
X94146666Y-37538914D01*
X94146666Y-37538914D02*
X94241904Y-37586533D01*
X92718095Y-38300819D02*
X93289523Y-38300819D01*
X93003809Y-38300819D02*
X93003809Y-37300819D01*
X93003809Y-37300819D02*
X93099047Y-37443676D01*
X93099047Y-37443676D02*
X93194285Y-37538914D01*
X93194285Y-37538914D02*
X93289523Y-37586533D01*
X42203666Y-94434819D02*
X42536999Y-93958628D01*
X42775094Y-94434819D02*
X42775094Y-93434819D01*
X42775094Y-93434819D02*
X42394142Y-93434819D01*
X42394142Y-93434819D02*
X42298904Y-93482438D01*
X42298904Y-93482438D02*
X42251285Y-93530057D01*
X42251285Y-93530057D02*
X42203666Y-93625295D01*
X42203666Y-93625295D02*
X42203666Y-93768152D01*
X42203666Y-93768152D02*
X42251285Y-93863390D01*
X42251285Y-93863390D02*
X42298904Y-93911009D01*
X42298904Y-93911009D02*
X42394142Y-93958628D01*
X42394142Y-93958628D02*
X42775094Y-93958628D01*
X41346523Y-93434819D02*
X41536999Y-93434819D01*
X41536999Y-93434819D02*
X41632237Y-93482438D01*
X41632237Y-93482438D02*
X41679856Y-93530057D01*
X41679856Y-93530057D02*
X41775094Y-93672914D01*
X41775094Y-93672914D02*
X41822713Y-93863390D01*
X41822713Y-93863390D02*
X41822713Y-94244342D01*
X41822713Y-94244342D02*
X41775094Y-94339580D01*
X41775094Y-94339580D02*
X41727475Y-94387200D01*
X41727475Y-94387200D02*
X41632237Y-94434819D01*
X41632237Y-94434819D02*
X41441761Y-94434819D01*
X41441761Y-94434819D02*
X41346523Y-94387200D01*
X41346523Y-94387200D02*
X41298904Y-94339580D01*
X41298904Y-94339580D02*
X41251285Y-94244342D01*
X41251285Y-94244342D02*
X41251285Y-94006247D01*
X41251285Y-94006247D02*
X41298904Y-93911009D01*
X41298904Y-93911009D02*
X41346523Y-93863390D01*
X41346523Y-93863390D02*
X41441761Y-93815771D01*
X41441761Y-93815771D02*
X41632237Y-93815771D01*
X41632237Y-93815771D02*
X41727475Y-93863390D01*
X41727475Y-93863390D02*
X41775094Y-93911009D01*
X41775094Y-93911009D02*
X41822713Y-94006247D01*
X20200857Y-57985819D02*
X20534190Y-57509628D01*
X20772285Y-57985819D02*
X20772285Y-56985819D01*
X20772285Y-56985819D02*
X20391333Y-56985819D01*
X20391333Y-56985819D02*
X20296095Y-57033438D01*
X20296095Y-57033438D02*
X20248476Y-57081057D01*
X20248476Y-57081057D02*
X20200857Y-57176295D01*
X20200857Y-57176295D02*
X20200857Y-57319152D01*
X20200857Y-57319152D02*
X20248476Y-57414390D01*
X20248476Y-57414390D02*
X20296095Y-57462009D01*
X20296095Y-57462009D02*
X20391333Y-57509628D01*
X20391333Y-57509628D02*
X20772285Y-57509628D01*
X19296095Y-56985819D02*
X19772285Y-56985819D01*
X19772285Y-56985819D02*
X19819904Y-57462009D01*
X19819904Y-57462009D02*
X19772285Y-57414390D01*
X19772285Y-57414390D02*
X19677047Y-57366771D01*
X19677047Y-57366771D02*
X19438952Y-57366771D01*
X19438952Y-57366771D02*
X19343714Y-57414390D01*
X19343714Y-57414390D02*
X19296095Y-57462009D01*
X19296095Y-57462009D02*
X19248476Y-57557247D01*
X19248476Y-57557247D02*
X19248476Y-57795342D01*
X19248476Y-57795342D02*
X19296095Y-57890580D01*
X19296095Y-57890580D02*
X19343714Y-57938200D01*
X19343714Y-57938200D02*
X19438952Y-57985819D01*
X19438952Y-57985819D02*
X19677047Y-57985819D01*
X19677047Y-57985819D02*
X19772285Y-57938200D01*
X19772285Y-57938200D02*
X19819904Y-57890580D01*
X18391333Y-57319152D02*
X18391333Y-57985819D01*
X18629428Y-56938200D02*
X18867523Y-57652485D01*
X18867523Y-57652485D02*
X18248476Y-57652485D01*
X68335057Y-31874619D02*
X68668390Y-31398428D01*
X68906485Y-31874619D02*
X68906485Y-30874619D01*
X68906485Y-30874619D02*
X68525533Y-30874619D01*
X68525533Y-30874619D02*
X68430295Y-30922238D01*
X68430295Y-30922238D02*
X68382676Y-30969857D01*
X68382676Y-30969857D02*
X68335057Y-31065095D01*
X68335057Y-31065095D02*
X68335057Y-31207952D01*
X68335057Y-31207952D02*
X68382676Y-31303190D01*
X68382676Y-31303190D02*
X68430295Y-31350809D01*
X68430295Y-31350809D02*
X68525533Y-31398428D01*
X68525533Y-31398428D02*
X68906485Y-31398428D01*
X67954104Y-30969857D02*
X67906485Y-30922238D01*
X67906485Y-30922238D02*
X67811247Y-30874619D01*
X67811247Y-30874619D02*
X67573152Y-30874619D01*
X67573152Y-30874619D02*
X67477914Y-30922238D01*
X67477914Y-30922238D02*
X67430295Y-30969857D01*
X67430295Y-30969857D02*
X67382676Y-31065095D01*
X67382676Y-31065095D02*
X67382676Y-31160333D01*
X67382676Y-31160333D02*
X67430295Y-31303190D01*
X67430295Y-31303190D02*
X68001723Y-31874619D01*
X68001723Y-31874619D02*
X67382676Y-31874619D01*
X67049342Y-30874619D02*
X66430295Y-30874619D01*
X66430295Y-30874619D02*
X66763628Y-31255571D01*
X66763628Y-31255571D02*
X66620771Y-31255571D01*
X66620771Y-31255571D02*
X66525533Y-31303190D01*
X66525533Y-31303190D02*
X66477914Y-31350809D01*
X66477914Y-31350809D02*
X66430295Y-31446047D01*
X66430295Y-31446047D02*
X66430295Y-31684142D01*
X66430295Y-31684142D02*
X66477914Y-31779380D01*
X66477914Y-31779380D02*
X66525533Y-31827000D01*
X66525533Y-31827000D02*
X66620771Y-31874619D01*
X66620771Y-31874619D02*
X66906485Y-31874619D01*
X66906485Y-31874619D02*
X67001723Y-31827000D01*
X67001723Y-31827000D02*
X67049342Y-31779380D01*
X26040080Y-49622642D02*
X26087700Y-49575023D01*
X26087700Y-49575023D02*
X26135319Y-49432166D01*
X26135319Y-49432166D02*
X26135319Y-49336928D01*
X26135319Y-49336928D02*
X26087700Y-49194071D01*
X26087700Y-49194071D02*
X25992461Y-49098833D01*
X25992461Y-49098833D02*
X25897223Y-49051214D01*
X25897223Y-49051214D02*
X25706747Y-49003595D01*
X25706747Y-49003595D02*
X25563890Y-49003595D01*
X25563890Y-49003595D02*
X25373414Y-49051214D01*
X25373414Y-49051214D02*
X25278176Y-49098833D01*
X25278176Y-49098833D02*
X25182938Y-49194071D01*
X25182938Y-49194071D02*
X25135319Y-49336928D01*
X25135319Y-49336928D02*
X25135319Y-49432166D01*
X25135319Y-49432166D02*
X25182938Y-49575023D01*
X25182938Y-49575023D02*
X25230557Y-49622642D01*
X25135319Y-49955976D02*
X25135319Y-50575023D01*
X25135319Y-50575023D02*
X25516271Y-50241690D01*
X25516271Y-50241690D02*
X25516271Y-50384547D01*
X25516271Y-50384547D02*
X25563890Y-50479785D01*
X25563890Y-50479785D02*
X25611509Y-50527404D01*
X25611509Y-50527404D02*
X25706747Y-50575023D01*
X25706747Y-50575023D02*
X25944842Y-50575023D01*
X25944842Y-50575023D02*
X26040080Y-50527404D01*
X26040080Y-50527404D02*
X26087700Y-50479785D01*
X26087700Y-50479785D02*
X26135319Y-50384547D01*
X26135319Y-50384547D02*
X26135319Y-50098833D01*
X26135319Y-50098833D02*
X26087700Y-50003595D01*
X26087700Y-50003595D02*
X26040080Y-49955976D01*
X25135319Y-51479785D02*
X25135319Y-51003595D01*
X25135319Y-51003595D02*
X25611509Y-50955976D01*
X25611509Y-50955976D02*
X25563890Y-51003595D01*
X25563890Y-51003595D02*
X25516271Y-51098833D01*
X25516271Y-51098833D02*
X25516271Y-51336928D01*
X25516271Y-51336928D02*
X25563890Y-51432166D01*
X25563890Y-51432166D02*
X25611509Y-51479785D01*
X25611509Y-51479785D02*
X25706747Y-51527404D01*
X25706747Y-51527404D02*
X25944842Y-51527404D01*
X25944842Y-51527404D02*
X26040080Y-51479785D01*
X26040080Y-51479785D02*
X26087700Y-51432166D01*
X26087700Y-51432166D02*
X26135319Y-51336928D01*
X26135319Y-51336928D02*
X26135319Y-51098833D01*
X26135319Y-51098833D02*
X26087700Y-51003595D01*
X26087700Y-51003595D02*
X26040080Y-50955976D01*
X33514357Y-80983080D02*
X33561976Y-81030700D01*
X33561976Y-81030700D02*
X33704833Y-81078319D01*
X33704833Y-81078319D02*
X33800071Y-81078319D01*
X33800071Y-81078319D02*
X33942928Y-81030700D01*
X33942928Y-81030700D02*
X34038166Y-80935461D01*
X34038166Y-80935461D02*
X34085785Y-80840223D01*
X34085785Y-80840223D02*
X34133404Y-80649747D01*
X34133404Y-80649747D02*
X34133404Y-80506890D01*
X34133404Y-80506890D02*
X34085785Y-80316414D01*
X34085785Y-80316414D02*
X34038166Y-80221176D01*
X34038166Y-80221176D02*
X33942928Y-80125938D01*
X33942928Y-80125938D02*
X33800071Y-80078319D01*
X33800071Y-80078319D02*
X33704833Y-80078319D01*
X33704833Y-80078319D02*
X33561976Y-80125938D01*
X33561976Y-80125938D02*
X33514357Y-80173557D01*
X33133404Y-80173557D02*
X33085785Y-80125938D01*
X33085785Y-80125938D02*
X32990547Y-80078319D01*
X32990547Y-80078319D02*
X32752452Y-80078319D01*
X32752452Y-80078319D02*
X32657214Y-80125938D01*
X32657214Y-80125938D02*
X32609595Y-80173557D01*
X32609595Y-80173557D02*
X32561976Y-80268795D01*
X32561976Y-80268795D02*
X32561976Y-80364033D01*
X32561976Y-80364033D02*
X32609595Y-80506890D01*
X32609595Y-80506890D02*
X33181023Y-81078319D01*
X33181023Y-81078319D02*
X32561976Y-81078319D01*
X31942928Y-80078319D02*
X31847690Y-80078319D01*
X31847690Y-80078319D02*
X31752452Y-80125938D01*
X31752452Y-80125938D02*
X31704833Y-80173557D01*
X31704833Y-80173557D02*
X31657214Y-80268795D01*
X31657214Y-80268795D02*
X31609595Y-80459271D01*
X31609595Y-80459271D02*
X31609595Y-80697366D01*
X31609595Y-80697366D02*
X31657214Y-80887842D01*
X31657214Y-80887842D02*
X31704833Y-80983080D01*
X31704833Y-80983080D02*
X31752452Y-81030700D01*
X31752452Y-81030700D02*
X31847690Y-81078319D01*
X31847690Y-81078319D02*
X31942928Y-81078319D01*
X31942928Y-81078319D02*
X32038166Y-81030700D01*
X32038166Y-81030700D02*
X32085785Y-80983080D01*
X32085785Y-80983080D02*
X32133404Y-80887842D01*
X32133404Y-80887842D02*
X32181023Y-80697366D01*
X32181023Y-80697366D02*
X32181023Y-80459271D01*
X32181023Y-80459271D02*
X32133404Y-80268795D01*
X32133404Y-80268795D02*
X32085785Y-80173557D01*
X32085785Y-80173557D02*
X32038166Y-80125938D01*
X32038166Y-80125938D02*
X31942928Y-80078319D01*
X42203666Y-89227819D02*
X42536999Y-88751628D01*
X42775094Y-89227819D02*
X42775094Y-88227819D01*
X42775094Y-88227819D02*
X42394142Y-88227819D01*
X42394142Y-88227819D02*
X42298904Y-88275438D01*
X42298904Y-88275438D02*
X42251285Y-88323057D01*
X42251285Y-88323057D02*
X42203666Y-88418295D01*
X42203666Y-88418295D02*
X42203666Y-88561152D01*
X42203666Y-88561152D02*
X42251285Y-88656390D01*
X42251285Y-88656390D02*
X42298904Y-88704009D01*
X42298904Y-88704009D02*
X42394142Y-88751628D01*
X42394142Y-88751628D02*
X42775094Y-88751628D01*
X41298904Y-88227819D02*
X41775094Y-88227819D01*
X41775094Y-88227819D02*
X41822713Y-88704009D01*
X41822713Y-88704009D02*
X41775094Y-88656390D01*
X41775094Y-88656390D02*
X41679856Y-88608771D01*
X41679856Y-88608771D02*
X41441761Y-88608771D01*
X41441761Y-88608771D02*
X41346523Y-88656390D01*
X41346523Y-88656390D02*
X41298904Y-88704009D01*
X41298904Y-88704009D02*
X41251285Y-88799247D01*
X41251285Y-88799247D02*
X41251285Y-89037342D01*
X41251285Y-89037342D02*
X41298904Y-89132580D01*
X41298904Y-89132580D02*
X41346523Y-89180200D01*
X41346523Y-89180200D02*
X41441761Y-89227819D01*
X41441761Y-89227819D02*
X41679856Y-89227819D01*
X41679856Y-89227819D02*
X41775094Y-89180200D01*
X41775094Y-89180200D02*
X41822713Y-89132580D01*
X24785857Y-83677819D02*
X25119190Y-83201628D01*
X25357285Y-83677819D02*
X25357285Y-82677819D01*
X25357285Y-82677819D02*
X24976333Y-82677819D01*
X24976333Y-82677819D02*
X24881095Y-82725438D01*
X24881095Y-82725438D02*
X24833476Y-82773057D01*
X24833476Y-82773057D02*
X24785857Y-82868295D01*
X24785857Y-82868295D02*
X24785857Y-83011152D01*
X24785857Y-83011152D02*
X24833476Y-83106390D01*
X24833476Y-83106390D02*
X24881095Y-83154009D01*
X24881095Y-83154009D02*
X24976333Y-83201628D01*
X24976333Y-83201628D02*
X25357285Y-83201628D01*
X23833476Y-83677819D02*
X24404904Y-83677819D01*
X24119190Y-83677819D02*
X24119190Y-82677819D01*
X24119190Y-82677819D02*
X24214428Y-82820676D01*
X24214428Y-82820676D02*
X24309666Y-82915914D01*
X24309666Y-82915914D02*
X24404904Y-82963533D01*
X23500142Y-82677819D02*
X22881095Y-82677819D01*
X22881095Y-82677819D02*
X23214428Y-83058771D01*
X23214428Y-83058771D02*
X23071571Y-83058771D01*
X23071571Y-83058771D02*
X22976333Y-83106390D01*
X22976333Y-83106390D02*
X22928714Y-83154009D01*
X22928714Y-83154009D02*
X22881095Y-83249247D01*
X22881095Y-83249247D02*
X22881095Y-83487342D01*
X22881095Y-83487342D02*
X22928714Y-83582580D01*
X22928714Y-83582580D02*
X22976333Y-83630200D01*
X22976333Y-83630200D02*
X23071571Y-83677819D01*
X23071571Y-83677819D02*
X23357285Y-83677819D01*
X23357285Y-83677819D02*
X23452523Y-83630200D01*
X23452523Y-83630200D02*
X23500142Y-83582580D01*
X42203666Y-84147819D02*
X42536999Y-83671628D01*
X42775094Y-84147819D02*
X42775094Y-83147819D01*
X42775094Y-83147819D02*
X42394142Y-83147819D01*
X42394142Y-83147819D02*
X42298904Y-83195438D01*
X42298904Y-83195438D02*
X42251285Y-83243057D01*
X42251285Y-83243057D02*
X42203666Y-83338295D01*
X42203666Y-83338295D02*
X42203666Y-83481152D01*
X42203666Y-83481152D02*
X42251285Y-83576390D01*
X42251285Y-83576390D02*
X42298904Y-83624009D01*
X42298904Y-83624009D02*
X42394142Y-83671628D01*
X42394142Y-83671628D02*
X42775094Y-83671628D01*
X41346523Y-83481152D02*
X41346523Y-84147819D01*
X41584618Y-83100200D02*
X41822713Y-83814485D01*
X41822713Y-83814485D02*
X41203666Y-83814485D01*
X24785857Y-109045819D02*
X25119190Y-108569628D01*
X25357285Y-109045819D02*
X25357285Y-108045819D01*
X25357285Y-108045819D02*
X24976333Y-108045819D01*
X24976333Y-108045819D02*
X24881095Y-108093438D01*
X24881095Y-108093438D02*
X24833476Y-108141057D01*
X24833476Y-108141057D02*
X24785857Y-108236295D01*
X24785857Y-108236295D02*
X24785857Y-108379152D01*
X24785857Y-108379152D02*
X24833476Y-108474390D01*
X24833476Y-108474390D02*
X24881095Y-108522009D01*
X24881095Y-108522009D02*
X24976333Y-108569628D01*
X24976333Y-108569628D02*
X25357285Y-108569628D01*
X23833476Y-109045819D02*
X24404904Y-109045819D01*
X24119190Y-109045819D02*
X24119190Y-108045819D01*
X24119190Y-108045819D02*
X24214428Y-108188676D01*
X24214428Y-108188676D02*
X24309666Y-108283914D01*
X24309666Y-108283914D02*
X24404904Y-108331533D01*
X23262047Y-108474390D02*
X23357285Y-108426771D01*
X23357285Y-108426771D02*
X23404904Y-108379152D01*
X23404904Y-108379152D02*
X23452523Y-108283914D01*
X23452523Y-108283914D02*
X23452523Y-108236295D01*
X23452523Y-108236295D02*
X23404904Y-108141057D01*
X23404904Y-108141057D02*
X23357285Y-108093438D01*
X23357285Y-108093438D02*
X23262047Y-108045819D01*
X23262047Y-108045819D02*
X23071571Y-108045819D01*
X23071571Y-108045819D02*
X22976333Y-108093438D01*
X22976333Y-108093438D02*
X22928714Y-108141057D01*
X22928714Y-108141057D02*
X22881095Y-108236295D01*
X22881095Y-108236295D02*
X22881095Y-108283914D01*
X22881095Y-108283914D02*
X22928714Y-108379152D01*
X22928714Y-108379152D02*
X22976333Y-108426771D01*
X22976333Y-108426771D02*
X23071571Y-108474390D01*
X23071571Y-108474390D02*
X23262047Y-108474390D01*
X23262047Y-108474390D02*
X23357285Y-108522009D01*
X23357285Y-108522009D02*
X23404904Y-108569628D01*
X23404904Y-108569628D02*
X23452523Y-108664866D01*
X23452523Y-108664866D02*
X23452523Y-108855342D01*
X23452523Y-108855342D02*
X23404904Y-108950580D01*
X23404904Y-108950580D02*
X23357285Y-108998200D01*
X23357285Y-108998200D02*
X23262047Y-109045819D01*
X23262047Y-109045819D02*
X23071571Y-109045819D01*
X23071571Y-109045819D02*
X22976333Y-108998200D01*
X22976333Y-108998200D02*
X22928714Y-108950580D01*
X22928714Y-108950580D02*
X22881095Y-108855342D01*
X22881095Y-108855342D02*
X22881095Y-108664866D01*
X22881095Y-108664866D02*
X22928714Y-108569628D01*
X22928714Y-108569628D02*
X22976333Y-108522009D01*
X22976333Y-108522009D02*
X23071571Y-108474390D01*
X30305080Y-49622642D02*
X30352700Y-49575023D01*
X30352700Y-49575023D02*
X30400319Y-49432166D01*
X30400319Y-49432166D02*
X30400319Y-49336928D01*
X30400319Y-49336928D02*
X30352700Y-49194071D01*
X30352700Y-49194071D02*
X30257461Y-49098833D01*
X30257461Y-49098833D02*
X30162223Y-49051214D01*
X30162223Y-49051214D02*
X29971747Y-49003595D01*
X29971747Y-49003595D02*
X29828890Y-49003595D01*
X29828890Y-49003595D02*
X29638414Y-49051214D01*
X29638414Y-49051214D02*
X29543176Y-49098833D01*
X29543176Y-49098833D02*
X29447938Y-49194071D01*
X29447938Y-49194071D02*
X29400319Y-49336928D01*
X29400319Y-49336928D02*
X29400319Y-49432166D01*
X29400319Y-49432166D02*
X29447938Y-49575023D01*
X29447938Y-49575023D02*
X29495557Y-49622642D01*
X29400319Y-49955976D02*
X29400319Y-50575023D01*
X29400319Y-50575023D02*
X29781271Y-50241690D01*
X29781271Y-50241690D02*
X29781271Y-50384547D01*
X29781271Y-50384547D02*
X29828890Y-50479785D01*
X29828890Y-50479785D02*
X29876509Y-50527404D01*
X29876509Y-50527404D02*
X29971747Y-50575023D01*
X29971747Y-50575023D02*
X30209842Y-50575023D01*
X30209842Y-50575023D02*
X30305080Y-50527404D01*
X30305080Y-50527404D02*
X30352700Y-50479785D01*
X30352700Y-50479785D02*
X30400319Y-50384547D01*
X30400319Y-50384547D02*
X30400319Y-50098833D01*
X30400319Y-50098833D02*
X30352700Y-50003595D01*
X30352700Y-50003595D02*
X30305080Y-49955976D01*
X29400319Y-51194071D02*
X29400319Y-51289309D01*
X29400319Y-51289309D02*
X29447938Y-51384547D01*
X29447938Y-51384547D02*
X29495557Y-51432166D01*
X29495557Y-51432166D02*
X29590795Y-51479785D01*
X29590795Y-51479785D02*
X29781271Y-51527404D01*
X29781271Y-51527404D02*
X30019366Y-51527404D01*
X30019366Y-51527404D02*
X30209842Y-51479785D01*
X30209842Y-51479785D02*
X30305080Y-51432166D01*
X30305080Y-51432166D02*
X30352700Y-51384547D01*
X30352700Y-51384547D02*
X30400319Y-51289309D01*
X30400319Y-51289309D02*
X30400319Y-51194071D01*
X30400319Y-51194071D02*
X30352700Y-51098833D01*
X30352700Y-51098833D02*
X30305080Y-51051214D01*
X30305080Y-51051214D02*
X30209842Y-51003595D01*
X30209842Y-51003595D02*
X30019366Y-50955976D01*
X30019366Y-50955976D02*
X29781271Y-50955976D01*
X29781271Y-50955976D02*
X29590795Y-51003595D01*
X29590795Y-51003595D02*
X29495557Y-51051214D01*
X29495557Y-51051214D02*
X29447938Y-51098833D01*
X29447938Y-51098833D02*
X29400319Y-51194071D01*
X24785857Y-88725819D02*
X25119190Y-88249628D01*
X25357285Y-88725819D02*
X25357285Y-87725819D01*
X25357285Y-87725819D02*
X24976333Y-87725819D01*
X24976333Y-87725819D02*
X24881095Y-87773438D01*
X24881095Y-87773438D02*
X24833476Y-87821057D01*
X24833476Y-87821057D02*
X24785857Y-87916295D01*
X24785857Y-87916295D02*
X24785857Y-88059152D01*
X24785857Y-88059152D02*
X24833476Y-88154390D01*
X24833476Y-88154390D02*
X24881095Y-88202009D01*
X24881095Y-88202009D02*
X24976333Y-88249628D01*
X24976333Y-88249628D02*
X25357285Y-88249628D01*
X23833476Y-88725819D02*
X24404904Y-88725819D01*
X24119190Y-88725819D02*
X24119190Y-87725819D01*
X24119190Y-87725819D02*
X24214428Y-87868676D01*
X24214428Y-87868676D02*
X24309666Y-87963914D01*
X24309666Y-87963914D02*
X24404904Y-88011533D01*
X22976333Y-88059152D02*
X22976333Y-88725819D01*
X23214428Y-87678200D02*
X23452523Y-88392485D01*
X23452523Y-88392485D02*
X22833476Y-88392485D01*
X24785857Y-114125819D02*
X25119190Y-113649628D01*
X25357285Y-114125819D02*
X25357285Y-113125819D01*
X25357285Y-113125819D02*
X24976333Y-113125819D01*
X24976333Y-113125819D02*
X24881095Y-113173438D01*
X24881095Y-113173438D02*
X24833476Y-113221057D01*
X24833476Y-113221057D02*
X24785857Y-113316295D01*
X24785857Y-113316295D02*
X24785857Y-113459152D01*
X24785857Y-113459152D02*
X24833476Y-113554390D01*
X24833476Y-113554390D02*
X24881095Y-113602009D01*
X24881095Y-113602009D02*
X24976333Y-113649628D01*
X24976333Y-113649628D02*
X25357285Y-113649628D01*
X23833476Y-114125819D02*
X24404904Y-114125819D01*
X24119190Y-114125819D02*
X24119190Y-113125819D01*
X24119190Y-113125819D02*
X24214428Y-113268676D01*
X24214428Y-113268676D02*
X24309666Y-113363914D01*
X24309666Y-113363914D02*
X24404904Y-113411533D01*
X23357285Y-114125819D02*
X23166809Y-114125819D01*
X23166809Y-114125819D02*
X23071571Y-114078200D01*
X23071571Y-114078200D02*
X23023952Y-114030580D01*
X23023952Y-114030580D02*
X22928714Y-113887723D01*
X22928714Y-113887723D02*
X22881095Y-113697247D01*
X22881095Y-113697247D02*
X22881095Y-113316295D01*
X22881095Y-113316295D02*
X22928714Y-113221057D01*
X22928714Y-113221057D02*
X22976333Y-113173438D01*
X22976333Y-113173438D02*
X23071571Y-113125819D01*
X23071571Y-113125819D02*
X23262047Y-113125819D01*
X23262047Y-113125819D02*
X23357285Y-113173438D01*
X23357285Y-113173438D02*
X23404904Y-113221057D01*
X23404904Y-113221057D02*
X23452523Y-113316295D01*
X23452523Y-113316295D02*
X23452523Y-113554390D01*
X23452523Y-113554390D02*
X23404904Y-113649628D01*
X23404904Y-113649628D02*
X23357285Y-113697247D01*
X23357285Y-113697247D02*
X23262047Y-113744866D01*
X23262047Y-113744866D02*
X23071571Y-113744866D01*
X23071571Y-113744866D02*
X22976333Y-113697247D01*
X22976333Y-113697247D02*
X22928714Y-113649628D01*
X22928714Y-113649628D02*
X22881095Y-113554390D01*
X110053285Y-144599819D02*
X110053285Y-143599819D01*
X110053285Y-143599819D02*
X109815190Y-143599819D01*
X109815190Y-143599819D02*
X109672333Y-143647438D01*
X109672333Y-143647438D02*
X109577095Y-143742676D01*
X109577095Y-143742676D02*
X109529476Y-143837914D01*
X109529476Y-143837914D02*
X109481857Y-144028390D01*
X109481857Y-144028390D02*
X109481857Y-144171247D01*
X109481857Y-144171247D02*
X109529476Y-144361723D01*
X109529476Y-144361723D02*
X109577095Y-144456961D01*
X109577095Y-144456961D02*
X109672333Y-144552200D01*
X109672333Y-144552200D02*
X109815190Y-144599819D01*
X109815190Y-144599819D02*
X110053285Y-144599819D01*
X108529476Y-144599819D02*
X109100904Y-144599819D01*
X108815190Y-144599819D02*
X108815190Y-143599819D01*
X108815190Y-143599819D02*
X108910428Y-143742676D01*
X108910428Y-143742676D02*
X109005666Y-143837914D01*
X109005666Y-143837914D02*
X109100904Y-143885533D01*
X107624714Y-143599819D02*
X108100904Y-143599819D01*
X108100904Y-143599819D02*
X108148523Y-144076009D01*
X108148523Y-144076009D02*
X108100904Y-144028390D01*
X108100904Y-144028390D02*
X108005666Y-143980771D01*
X108005666Y-143980771D02*
X107767571Y-143980771D01*
X107767571Y-143980771D02*
X107672333Y-144028390D01*
X107672333Y-144028390D02*
X107624714Y-144076009D01*
X107624714Y-144076009D02*
X107577095Y-144171247D01*
X107577095Y-144171247D02*
X107577095Y-144409342D01*
X107577095Y-144409342D02*
X107624714Y-144504580D01*
X107624714Y-144504580D02*
X107672333Y-144552200D01*
X107672333Y-144552200D02*
X107767571Y-144599819D01*
X107767571Y-144599819D02*
X108005666Y-144599819D01*
X108005666Y-144599819D02*
X108100904Y-144552200D01*
X108100904Y-144552200D02*
X108148523Y-144504580D01*
X108719857Y-80242580D02*
X108767476Y-80290200D01*
X108767476Y-80290200D02*
X108910333Y-80337819D01*
X108910333Y-80337819D02*
X109005571Y-80337819D01*
X109005571Y-80337819D02*
X109148428Y-80290200D01*
X109148428Y-80290200D02*
X109243666Y-80194961D01*
X109243666Y-80194961D02*
X109291285Y-80099723D01*
X109291285Y-80099723D02*
X109338904Y-79909247D01*
X109338904Y-79909247D02*
X109338904Y-79766390D01*
X109338904Y-79766390D02*
X109291285Y-79575914D01*
X109291285Y-79575914D02*
X109243666Y-79480676D01*
X109243666Y-79480676D02*
X109148428Y-79385438D01*
X109148428Y-79385438D02*
X109005571Y-79337819D01*
X109005571Y-79337819D02*
X108910333Y-79337819D01*
X108910333Y-79337819D02*
X108767476Y-79385438D01*
X108767476Y-79385438D02*
X108719857Y-79433057D01*
X108338904Y-79433057D02*
X108291285Y-79385438D01*
X108291285Y-79385438D02*
X108196047Y-79337819D01*
X108196047Y-79337819D02*
X107957952Y-79337819D01*
X107957952Y-79337819D02*
X107862714Y-79385438D01*
X107862714Y-79385438D02*
X107815095Y-79433057D01*
X107815095Y-79433057D02*
X107767476Y-79528295D01*
X107767476Y-79528295D02*
X107767476Y-79623533D01*
X107767476Y-79623533D02*
X107815095Y-79766390D01*
X107815095Y-79766390D02*
X108386523Y-80337819D01*
X108386523Y-80337819D02*
X107767476Y-80337819D01*
X106910333Y-79337819D02*
X107100809Y-79337819D01*
X107100809Y-79337819D02*
X107196047Y-79385438D01*
X107196047Y-79385438D02*
X107243666Y-79433057D01*
X107243666Y-79433057D02*
X107338904Y-79575914D01*
X107338904Y-79575914D02*
X107386523Y-79766390D01*
X107386523Y-79766390D02*
X107386523Y-80147342D01*
X107386523Y-80147342D02*
X107338904Y-80242580D01*
X107338904Y-80242580D02*
X107291285Y-80290200D01*
X107291285Y-80290200D02*
X107196047Y-80337819D01*
X107196047Y-80337819D02*
X107005571Y-80337819D01*
X107005571Y-80337819D02*
X106910333Y-80290200D01*
X106910333Y-80290200D02*
X106862714Y-80242580D01*
X106862714Y-80242580D02*
X106815095Y-80147342D01*
X106815095Y-80147342D02*
X106815095Y-79909247D01*
X106815095Y-79909247D02*
X106862714Y-79814009D01*
X106862714Y-79814009D02*
X106910333Y-79766390D01*
X106910333Y-79766390D02*
X107005571Y-79718771D01*
X107005571Y-79718771D02*
X107196047Y-79718771D01*
X107196047Y-79718771D02*
X107291285Y-79766390D01*
X107291285Y-79766390D02*
X107338904Y-79814009D01*
X107338904Y-79814009D02*
X107386523Y-79909247D01*
X43060857Y-115643819D02*
X43394190Y-115167628D01*
X43632285Y-115643819D02*
X43632285Y-114643819D01*
X43632285Y-114643819D02*
X43251333Y-114643819D01*
X43251333Y-114643819D02*
X43156095Y-114691438D01*
X43156095Y-114691438D02*
X43108476Y-114739057D01*
X43108476Y-114739057D02*
X43060857Y-114834295D01*
X43060857Y-114834295D02*
X43060857Y-114977152D01*
X43060857Y-114977152D02*
X43108476Y-115072390D01*
X43108476Y-115072390D02*
X43156095Y-115120009D01*
X43156095Y-115120009D02*
X43251333Y-115167628D01*
X43251333Y-115167628D02*
X43632285Y-115167628D01*
X42108476Y-115643819D02*
X42679904Y-115643819D01*
X42394190Y-115643819D02*
X42394190Y-114643819D01*
X42394190Y-114643819D02*
X42489428Y-114786676D01*
X42489428Y-114786676D02*
X42584666Y-114881914D01*
X42584666Y-114881914D02*
X42679904Y-114929533D01*
X41489428Y-114643819D02*
X41394190Y-114643819D01*
X41394190Y-114643819D02*
X41298952Y-114691438D01*
X41298952Y-114691438D02*
X41251333Y-114739057D01*
X41251333Y-114739057D02*
X41203714Y-114834295D01*
X41203714Y-114834295D02*
X41156095Y-115024771D01*
X41156095Y-115024771D02*
X41156095Y-115262866D01*
X41156095Y-115262866D02*
X41203714Y-115453342D01*
X41203714Y-115453342D02*
X41251333Y-115548580D01*
X41251333Y-115548580D02*
X41298952Y-115596200D01*
X41298952Y-115596200D02*
X41394190Y-115643819D01*
X41394190Y-115643819D02*
X41489428Y-115643819D01*
X41489428Y-115643819D02*
X41584666Y-115596200D01*
X41584666Y-115596200D02*
X41632285Y-115548580D01*
X41632285Y-115548580D02*
X41679904Y-115453342D01*
X41679904Y-115453342D02*
X41727523Y-115262866D01*
X41727523Y-115262866D02*
X41727523Y-115024771D01*
X41727523Y-115024771D02*
X41679904Y-114834295D01*
X41679904Y-114834295D02*
X41632285Y-114739057D01*
X41632285Y-114739057D02*
X41584666Y-114691438D01*
X41584666Y-114691438D02*
X41489428Y-114643819D01*
X52453057Y-72084719D02*
X52786390Y-71608528D01*
X53024485Y-72084719D02*
X53024485Y-71084719D01*
X53024485Y-71084719D02*
X52643533Y-71084719D01*
X52643533Y-71084719D02*
X52548295Y-71132338D01*
X52548295Y-71132338D02*
X52500676Y-71179957D01*
X52500676Y-71179957D02*
X52453057Y-71275195D01*
X52453057Y-71275195D02*
X52453057Y-71418052D01*
X52453057Y-71418052D02*
X52500676Y-71513290D01*
X52500676Y-71513290D02*
X52548295Y-71560909D01*
X52548295Y-71560909D02*
X52643533Y-71608528D01*
X52643533Y-71608528D02*
X53024485Y-71608528D01*
X51548295Y-71084719D02*
X52024485Y-71084719D01*
X52024485Y-71084719D02*
X52072104Y-71560909D01*
X52072104Y-71560909D02*
X52024485Y-71513290D01*
X52024485Y-71513290D02*
X51929247Y-71465671D01*
X51929247Y-71465671D02*
X51691152Y-71465671D01*
X51691152Y-71465671D02*
X51595914Y-71513290D01*
X51595914Y-71513290D02*
X51548295Y-71560909D01*
X51548295Y-71560909D02*
X51500676Y-71656147D01*
X51500676Y-71656147D02*
X51500676Y-71894242D01*
X51500676Y-71894242D02*
X51548295Y-71989480D01*
X51548295Y-71989480D02*
X51595914Y-72037100D01*
X51595914Y-72037100D02*
X51691152Y-72084719D01*
X51691152Y-72084719D02*
X51929247Y-72084719D01*
X51929247Y-72084719D02*
X52024485Y-72037100D01*
X52024485Y-72037100D02*
X52072104Y-71989480D01*
X50929247Y-71513290D02*
X51024485Y-71465671D01*
X51024485Y-71465671D02*
X51072104Y-71418052D01*
X51072104Y-71418052D02*
X51119723Y-71322814D01*
X51119723Y-71322814D02*
X51119723Y-71275195D01*
X51119723Y-71275195D02*
X51072104Y-71179957D01*
X51072104Y-71179957D02*
X51024485Y-71132338D01*
X51024485Y-71132338D02*
X50929247Y-71084719D01*
X50929247Y-71084719D02*
X50738771Y-71084719D01*
X50738771Y-71084719D02*
X50643533Y-71132338D01*
X50643533Y-71132338D02*
X50595914Y-71179957D01*
X50595914Y-71179957D02*
X50548295Y-71275195D01*
X50548295Y-71275195D02*
X50548295Y-71322814D01*
X50548295Y-71322814D02*
X50595914Y-71418052D01*
X50595914Y-71418052D02*
X50643533Y-71465671D01*
X50643533Y-71465671D02*
X50738771Y-71513290D01*
X50738771Y-71513290D02*
X50929247Y-71513290D01*
X50929247Y-71513290D02*
X51024485Y-71560909D01*
X51024485Y-71560909D02*
X51072104Y-71608528D01*
X51072104Y-71608528D02*
X51119723Y-71703766D01*
X51119723Y-71703766D02*
X51119723Y-71894242D01*
X51119723Y-71894242D02*
X51072104Y-71989480D01*
X51072104Y-71989480D02*
X51024485Y-72037100D01*
X51024485Y-72037100D02*
X50929247Y-72084719D01*
X50929247Y-72084719D02*
X50738771Y-72084719D01*
X50738771Y-72084719D02*
X50643533Y-72037100D01*
X50643533Y-72037100D02*
X50595914Y-71989480D01*
X50595914Y-71989480D02*
X50548295Y-71894242D01*
X50548295Y-71894242D02*
X50548295Y-71703766D01*
X50548295Y-71703766D02*
X50595914Y-71608528D01*
X50595914Y-71608528D02*
X50643533Y-71560909D01*
X50643533Y-71560909D02*
X50738771Y-71513290D01*
X62066466Y-71022380D02*
X62114085Y-71070000D01*
X62114085Y-71070000D02*
X62256942Y-71117619D01*
X62256942Y-71117619D02*
X62352180Y-71117619D01*
X62352180Y-71117619D02*
X62495037Y-71070000D01*
X62495037Y-71070000D02*
X62590275Y-70974761D01*
X62590275Y-70974761D02*
X62637894Y-70879523D01*
X62637894Y-70879523D02*
X62685513Y-70689047D01*
X62685513Y-70689047D02*
X62685513Y-70546190D01*
X62685513Y-70546190D02*
X62637894Y-70355714D01*
X62637894Y-70355714D02*
X62590275Y-70260476D01*
X62590275Y-70260476D02*
X62495037Y-70165238D01*
X62495037Y-70165238D02*
X62352180Y-70117619D01*
X62352180Y-70117619D02*
X62256942Y-70117619D01*
X62256942Y-70117619D02*
X62114085Y-70165238D01*
X62114085Y-70165238D02*
X62066466Y-70212857D01*
X61733132Y-70117619D02*
X61114085Y-70117619D01*
X61114085Y-70117619D02*
X61447418Y-70498571D01*
X61447418Y-70498571D02*
X61304561Y-70498571D01*
X61304561Y-70498571D02*
X61209323Y-70546190D01*
X61209323Y-70546190D02*
X61161704Y-70593809D01*
X61161704Y-70593809D02*
X61114085Y-70689047D01*
X61114085Y-70689047D02*
X61114085Y-70927142D01*
X61114085Y-70927142D02*
X61161704Y-71022380D01*
X61161704Y-71022380D02*
X61209323Y-71070000D01*
X61209323Y-71070000D02*
X61304561Y-71117619D01*
X61304561Y-71117619D02*
X61590275Y-71117619D01*
X61590275Y-71117619D02*
X61685513Y-71070000D01*
X61685513Y-71070000D02*
X61733132Y-71022380D01*
X24785857Y-98885819D02*
X25119190Y-98409628D01*
X25357285Y-98885819D02*
X25357285Y-97885819D01*
X25357285Y-97885819D02*
X24976333Y-97885819D01*
X24976333Y-97885819D02*
X24881095Y-97933438D01*
X24881095Y-97933438D02*
X24833476Y-97981057D01*
X24833476Y-97981057D02*
X24785857Y-98076295D01*
X24785857Y-98076295D02*
X24785857Y-98219152D01*
X24785857Y-98219152D02*
X24833476Y-98314390D01*
X24833476Y-98314390D02*
X24881095Y-98362009D01*
X24881095Y-98362009D02*
X24976333Y-98409628D01*
X24976333Y-98409628D02*
X25357285Y-98409628D01*
X23833476Y-98885819D02*
X24404904Y-98885819D01*
X24119190Y-98885819D02*
X24119190Y-97885819D01*
X24119190Y-97885819D02*
X24214428Y-98028676D01*
X24214428Y-98028676D02*
X24309666Y-98123914D01*
X24309666Y-98123914D02*
X24404904Y-98171533D01*
X22976333Y-97885819D02*
X23166809Y-97885819D01*
X23166809Y-97885819D02*
X23262047Y-97933438D01*
X23262047Y-97933438D02*
X23309666Y-97981057D01*
X23309666Y-97981057D02*
X23404904Y-98123914D01*
X23404904Y-98123914D02*
X23452523Y-98314390D01*
X23452523Y-98314390D02*
X23452523Y-98695342D01*
X23452523Y-98695342D02*
X23404904Y-98790580D01*
X23404904Y-98790580D02*
X23357285Y-98838200D01*
X23357285Y-98838200D02*
X23262047Y-98885819D01*
X23262047Y-98885819D02*
X23071571Y-98885819D01*
X23071571Y-98885819D02*
X22976333Y-98838200D01*
X22976333Y-98838200D02*
X22928714Y-98790580D01*
X22928714Y-98790580D02*
X22881095Y-98695342D01*
X22881095Y-98695342D02*
X22881095Y-98457247D01*
X22881095Y-98457247D02*
X22928714Y-98362009D01*
X22928714Y-98362009D02*
X22976333Y-98314390D01*
X22976333Y-98314390D02*
X23071571Y-98266771D01*
X23071571Y-98266771D02*
X23262047Y-98266771D01*
X23262047Y-98266771D02*
X23357285Y-98314390D01*
X23357285Y-98314390D02*
X23404904Y-98362009D01*
X23404904Y-98362009D02*
X23452523Y-98457247D01*
X47993838Y-72258057D02*
X48089076Y-72210438D01*
X48089076Y-72210438D02*
X48184314Y-72115200D01*
X48184314Y-72115200D02*
X48327171Y-71972342D01*
X48327171Y-71972342D02*
X48422409Y-71924723D01*
X48422409Y-71924723D02*
X48517647Y-71924723D01*
X48470028Y-72162819D02*
X48565266Y-72115200D01*
X48565266Y-72115200D02*
X48660504Y-72019961D01*
X48660504Y-72019961D02*
X48708123Y-71829485D01*
X48708123Y-71829485D02*
X48708123Y-71496152D01*
X48708123Y-71496152D02*
X48660504Y-71305676D01*
X48660504Y-71305676D02*
X48565266Y-71210438D01*
X48565266Y-71210438D02*
X48470028Y-71162819D01*
X48470028Y-71162819D02*
X48279552Y-71162819D01*
X48279552Y-71162819D02*
X48184314Y-71210438D01*
X48184314Y-71210438D02*
X48089076Y-71305676D01*
X48089076Y-71305676D02*
X48041457Y-71496152D01*
X48041457Y-71496152D02*
X48041457Y-71829485D01*
X48041457Y-71829485D02*
X48089076Y-72019961D01*
X48089076Y-72019961D02*
X48184314Y-72115200D01*
X48184314Y-72115200D02*
X48279552Y-72162819D01*
X48279552Y-72162819D02*
X48470028Y-72162819D01*
X47184314Y-71162819D02*
X47374790Y-71162819D01*
X47374790Y-71162819D02*
X47470028Y-71210438D01*
X47470028Y-71210438D02*
X47517647Y-71258057D01*
X47517647Y-71258057D02*
X47612885Y-71400914D01*
X47612885Y-71400914D02*
X47660504Y-71591390D01*
X47660504Y-71591390D02*
X47660504Y-71972342D01*
X47660504Y-71972342D02*
X47612885Y-72067580D01*
X47612885Y-72067580D02*
X47565266Y-72115200D01*
X47565266Y-72115200D02*
X47470028Y-72162819D01*
X47470028Y-72162819D02*
X47279552Y-72162819D01*
X47279552Y-72162819D02*
X47184314Y-72115200D01*
X47184314Y-72115200D02*
X47136695Y-72067580D01*
X47136695Y-72067580D02*
X47089076Y-71972342D01*
X47089076Y-71972342D02*
X47089076Y-71734247D01*
X47089076Y-71734247D02*
X47136695Y-71639009D01*
X47136695Y-71639009D02*
X47184314Y-71591390D01*
X47184314Y-71591390D02*
X47279552Y-71543771D01*
X47279552Y-71543771D02*
X47470028Y-71543771D01*
X47470028Y-71543771D02*
X47565266Y-71591390D01*
X47565266Y-71591390D02*
X47612885Y-71639009D01*
X47612885Y-71639009D02*
X47660504Y-71734247D01*
X24785857Y-93805819D02*
X25119190Y-93329628D01*
X25357285Y-93805819D02*
X25357285Y-92805819D01*
X25357285Y-92805819D02*
X24976333Y-92805819D01*
X24976333Y-92805819D02*
X24881095Y-92853438D01*
X24881095Y-92853438D02*
X24833476Y-92901057D01*
X24833476Y-92901057D02*
X24785857Y-92996295D01*
X24785857Y-92996295D02*
X24785857Y-93139152D01*
X24785857Y-93139152D02*
X24833476Y-93234390D01*
X24833476Y-93234390D02*
X24881095Y-93282009D01*
X24881095Y-93282009D02*
X24976333Y-93329628D01*
X24976333Y-93329628D02*
X25357285Y-93329628D01*
X23833476Y-93805819D02*
X24404904Y-93805819D01*
X24119190Y-93805819D02*
X24119190Y-92805819D01*
X24119190Y-92805819D02*
X24214428Y-92948676D01*
X24214428Y-92948676D02*
X24309666Y-93043914D01*
X24309666Y-93043914D02*
X24404904Y-93091533D01*
X22928714Y-92805819D02*
X23404904Y-92805819D01*
X23404904Y-92805819D02*
X23452523Y-93282009D01*
X23452523Y-93282009D02*
X23404904Y-93234390D01*
X23404904Y-93234390D02*
X23309666Y-93186771D01*
X23309666Y-93186771D02*
X23071571Y-93186771D01*
X23071571Y-93186771D02*
X22976333Y-93234390D01*
X22976333Y-93234390D02*
X22928714Y-93282009D01*
X22928714Y-93282009D02*
X22881095Y-93377247D01*
X22881095Y-93377247D02*
X22881095Y-93615342D01*
X22881095Y-93615342D02*
X22928714Y-93710580D01*
X22928714Y-93710580D02*
X22976333Y-93758200D01*
X22976333Y-93758200D02*
X23071571Y-93805819D01*
X23071571Y-93805819D02*
X23309666Y-93805819D01*
X23309666Y-93805819D02*
X23404904Y-93758200D01*
X23404904Y-93758200D02*
X23452523Y-93710580D01*
X86615094Y-28739819D02*
X86615094Y-27739819D01*
X86615094Y-27739819D02*
X86376999Y-27739819D01*
X86376999Y-27739819D02*
X86234142Y-27787438D01*
X86234142Y-27787438D02*
X86138904Y-27882676D01*
X86138904Y-27882676D02*
X86091285Y-27977914D01*
X86091285Y-27977914D02*
X86043666Y-28168390D01*
X86043666Y-28168390D02*
X86043666Y-28311247D01*
X86043666Y-28311247D02*
X86091285Y-28501723D01*
X86091285Y-28501723D02*
X86138904Y-28596961D01*
X86138904Y-28596961D02*
X86234142Y-28692200D01*
X86234142Y-28692200D02*
X86376999Y-28739819D01*
X86376999Y-28739819D02*
X86615094Y-28739819D01*
X85567475Y-28739819D02*
X85376999Y-28739819D01*
X85376999Y-28739819D02*
X85281761Y-28692200D01*
X85281761Y-28692200D02*
X85234142Y-28644580D01*
X85234142Y-28644580D02*
X85138904Y-28501723D01*
X85138904Y-28501723D02*
X85091285Y-28311247D01*
X85091285Y-28311247D02*
X85091285Y-27930295D01*
X85091285Y-27930295D02*
X85138904Y-27835057D01*
X85138904Y-27835057D02*
X85186523Y-27787438D01*
X85186523Y-27787438D02*
X85281761Y-27739819D01*
X85281761Y-27739819D02*
X85472237Y-27739819D01*
X85472237Y-27739819D02*
X85567475Y-27787438D01*
X85567475Y-27787438D02*
X85615094Y-27835057D01*
X85615094Y-27835057D02*
X85662713Y-27930295D01*
X85662713Y-27930295D02*
X85662713Y-28168390D01*
X85662713Y-28168390D02*
X85615094Y-28263628D01*
X85615094Y-28263628D02*
X85567475Y-28311247D01*
X85567475Y-28311247D02*
X85472237Y-28358866D01*
X85472237Y-28358866D02*
X85281761Y-28358866D01*
X85281761Y-28358866D02*
X85186523Y-28311247D01*
X85186523Y-28311247D02*
X85138904Y-28263628D01*
X85138904Y-28263628D02*
X85091285Y-28168390D01*
X48986904Y-97029819D02*
X48986904Y-97839342D01*
X48986904Y-97839342D02*
X48939285Y-97934580D01*
X48939285Y-97934580D02*
X48891666Y-97982200D01*
X48891666Y-97982200D02*
X48796428Y-98029819D01*
X48796428Y-98029819D02*
X48605952Y-98029819D01*
X48605952Y-98029819D02*
X48510714Y-97982200D01*
X48510714Y-97982200D02*
X48463095Y-97934580D01*
X48463095Y-97934580D02*
X48415476Y-97839342D01*
X48415476Y-97839342D02*
X48415476Y-97029819D01*
X47463095Y-97029819D02*
X47939285Y-97029819D01*
X47939285Y-97029819D02*
X47986904Y-97506009D01*
X47986904Y-97506009D02*
X47939285Y-97458390D01*
X47939285Y-97458390D02*
X47844047Y-97410771D01*
X47844047Y-97410771D02*
X47605952Y-97410771D01*
X47605952Y-97410771D02*
X47510714Y-97458390D01*
X47510714Y-97458390D02*
X47463095Y-97506009D01*
X47463095Y-97506009D02*
X47415476Y-97601247D01*
X47415476Y-97601247D02*
X47415476Y-97839342D01*
X47415476Y-97839342D02*
X47463095Y-97934580D01*
X47463095Y-97934580D02*
X47510714Y-97982200D01*
X47510714Y-97982200D02*
X47605952Y-98029819D01*
X47605952Y-98029819D02*
X47844047Y-98029819D01*
X47844047Y-98029819D02*
X47939285Y-97982200D01*
X47939285Y-97982200D02*
X47986904Y-97934580D01*
X42203666Y-110563819D02*
X42536999Y-110087628D01*
X42775094Y-110563819D02*
X42775094Y-109563819D01*
X42775094Y-109563819D02*
X42394142Y-109563819D01*
X42394142Y-109563819D02*
X42298904Y-109611438D01*
X42298904Y-109611438D02*
X42251285Y-109659057D01*
X42251285Y-109659057D02*
X42203666Y-109754295D01*
X42203666Y-109754295D02*
X42203666Y-109897152D01*
X42203666Y-109897152D02*
X42251285Y-109992390D01*
X42251285Y-109992390D02*
X42298904Y-110040009D01*
X42298904Y-110040009D02*
X42394142Y-110087628D01*
X42394142Y-110087628D02*
X42775094Y-110087628D01*
X41727475Y-110563819D02*
X41536999Y-110563819D01*
X41536999Y-110563819D02*
X41441761Y-110516200D01*
X41441761Y-110516200D02*
X41394142Y-110468580D01*
X41394142Y-110468580D02*
X41298904Y-110325723D01*
X41298904Y-110325723D02*
X41251285Y-110135247D01*
X41251285Y-110135247D02*
X41251285Y-109754295D01*
X41251285Y-109754295D02*
X41298904Y-109659057D01*
X41298904Y-109659057D02*
X41346523Y-109611438D01*
X41346523Y-109611438D02*
X41441761Y-109563819D01*
X41441761Y-109563819D02*
X41632237Y-109563819D01*
X41632237Y-109563819D02*
X41727475Y-109611438D01*
X41727475Y-109611438D02*
X41775094Y-109659057D01*
X41775094Y-109659057D02*
X41822713Y-109754295D01*
X41822713Y-109754295D02*
X41822713Y-109992390D01*
X41822713Y-109992390D02*
X41775094Y-110087628D01*
X41775094Y-110087628D02*
X41727475Y-110135247D01*
X41727475Y-110135247D02*
X41632237Y-110182866D01*
X41632237Y-110182866D02*
X41441761Y-110182866D01*
X41441761Y-110182866D02*
X41346523Y-110135247D01*
X41346523Y-110135247D02*
X41298904Y-110087628D01*
X41298904Y-110087628D02*
X41251285Y-109992390D01*
X28146080Y-49749642D02*
X28193700Y-49702023D01*
X28193700Y-49702023D02*
X28241319Y-49559166D01*
X28241319Y-49559166D02*
X28241319Y-49463928D01*
X28241319Y-49463928D02*
X28193700Y-49321071D01*
X28193700Y-49321071D02*
X28098461Y-49225833D01*
X28098461Y-49225833D02*
X28003223Y-49178214D01*
X28003223Y-49178214D02*
X27812747Y-49130595D01*
X27812747Y-49130595D02*
X27669890Y-49130595D01*
X27669890Y-49130595D02*
X27479414Y-49178214D01*
X27479414Y-49178214D02*
X27384176Y-49225833D01*
X27384176Y-49225833D02*
X27288938Y-49321071D01*
X27288938Y-49321071D02*
X27241319Y-49463928D01*
X27241319Y-49463928D02*
X27241319Y-49559166D01*
X27241319Y-49559166D02*
X27288938Y-49702023D01*
X27288938Y-49702023D02*
X27336557Y-49749642D01*
X27241319Y-50082976D02*
X27241319Y-50702023D01*
X27241319Y-50702023D02*
X27622271Y-50368690D01*
X27622271Y-50368690D02*
X27622271Y-50511547D01*
X27622271Y-50511547D02*
X27669890Y-50606785D01*
X27669890Y-50606785D02*
X27717509Y-50654404D01*
X27717509Y-50654404D02*
X27812747Y-50702023D01*
X27812747Y-50702023D02*
X28050842Y-50702023D01*
X28050842Y-50702023D02*
X28146080Y-50654404D01*
X28146080Y-50654404D02*
X28193700Y-50606785D01*
X28193700Y-50606785D02*
X28241319Y-50511547D01*
X28241319Y-50511547D02*
X28241319Y-50225833D01*
X28241319Y-50225833D02*
X28193700Y-50130595D01*
X28193700Y-50130595D02*
X28146080Y-50082976D01*
X27241319Y-51035357D02*
X27241319Y-51654404D01*
X27241319Y-51654404D02*
X27622271Y-51321071D01*
X27622271Y-51321071D02*
X27622271Y-51463928D01*
X27622271Y-51463928D02*
X27669890Y-51559166D01*
X27669890Y-51559166D02*
X27717509Y-51606785D01*
X27717509Y-51606785D02*
X27812747Y-51654404D01*
X27812747Y-51654404D02*
X28050842Y-51654404D01*
X28050842Y-51654404D02*
X28146080Y-51606785D01*
X28146080Y-51606785D02*
X28193700Y-51559166D01*
X28193700Y-51559166D02*
X28241319Y-51463928D01*
X28241319Y-51463928D02*
X28241319Y-51178214D01*
X28241319Y-51178214D02*
X28193700Y-51082976D01*
X28193700Y-51082976D02*
X28146080Y-51035357D01*
X39090457Y-80835694D02*
X39138076Y-80883314D01*
X39138076Y-80883314D02*
X39280933Y-80930933D01*
X39280933Y-80930933D02*
X39376171Y-80930933D01*
X39376171Y-80930933D02*
X39519028Y-80883314D01*
X39519028Y-80883314D02*
X39614266Y-80788075D01*
X39614266Y-80788075D02*
X39661885Y-80692837D01*
X39661885Y-80692837D02*
X39709504Y-80502361D01*
X39709504Y-80502361D02*
X39709504Y-80359504D01*
X39709504Y-80359504D02*
X39661885Y-80169028D01*
X39661885Y-80169028D02*
X39614266Y-80073790D01*
X39614266Y-80073790D02*
X39519028Y-79978552D01*
X39519028Y-79978552D02*
X39376171Y-79930933D01*
X39376171Y-79930933D02*
X39280933Y-79930933D01*
X39280933Y-79930933D02*
X39138076Y-79978552D01*
X39138076Y-79978552D02*
X39090457Y-80026171D01*
X38138076Y-80930933D02*
X38709504Y-80930933D01*
X38423790Y-80930933D02*
X38423790Y-79930933D01*
X38423790Y-79930933D02*
X38519028Y-80073790D01*
X38519028Y-80073790D02*
X38614266Y-80169028D01*
X38614266Y-80169028D02*
X38709504Y-80216647D01*
X37804742Y-79930933D02*
X37138076Y-79930933D01*
X37138076Y-79930933D02*
X37566647Y-80930933D01*
X59221667Y-43709578D02*
X59269286Y-43757198D01*
X59269286Y-43757198D02*
X59412143Y-43804817D01*
X59412143Y-43804817D02*
X59507381Y-43804817D01*
X59507381Y-43804817D02*
X59650238Y-43757198D01*
X59650238Y-43757198D02*
X59745476Y-43661959D01*
X59745476Y-43661959D02*
X59793095Y-43566721D01*
X59793095Y-43566721D02*
X59840714Y-43376245D01*
X59840714Y-43376245D02*
X59840714Y-43233388D01*
X59840714Y-43233388D02*
X59793095Y-43042912D01*
X59793095Y-43042912D02*
X59745476Y-42947674D01*
X59745476Y-42947674D02*
X59650238Y-42852436D01*
X59650238Y-42852436D02*
X59507381Y-42804817D01*
X59507381Y-42804817D02*
X59412143Y-42804817D01*
X59412143Y-42804817D02*
X59269286Y-42852436D01*
X59269286Y-42852436D02*
X59221667Y-42900055D01*
X58745476Y-43804817D02*
X58555000Y-43804817D01*
X58555000Y-43804817D02*
X58459762Y-43757198D01*
X58459762Y-43757198D02*
X58412143Y-43709578D01*
X58412143Y-43709578D02*
X58316905Y-43566721D01*
X58316905Y-43566721D02*
X58269286Y-43376245D01*
X58269286Y-43376245D02*
X58269286Y-42995293D01*
X58269286Y-42995293D02*
X58316905Y-42900055D01*
X58316905Y-42900055D02*
X58364524Y-42852436D01*
X58364524Y-42852436D02*
X58459762Y-42804817D01*
X58459762Y-42804817D02*
X58650238Y-42804817D01*
X58650238Y-42804817D02*
X58745476Y-42852436D01*
X58745476Y-42852436D02*
X58793095Y-42900055D01*
X58793095Y-42900055D02*
X58840714Y-42995293D01*
X58840714Y-42995293D02*
X58840714Y-43233388D01*
X58840714Y-43233388D02*
X58793095Y-43328626D01*
X58793095Y-43328626D02*
X58745476Y-43376245D01*
X58745476Y-43376245D02*
X58650238Y-43423864D01*
X58650238Y-43423864D02*
X58459762Y-43423864D01*
X58459762Y-43423864D02*
X58364524Y-43376245D01*
X58364524Y-43376245D02*
X58316905Y-43328626D01*
X58316905Y-43328626D02*
X58269286Y-43233388D01*
X113990285Y-150187819D02*
X113990285Y-149187819D01*
X113990285Y-149187819D02*
X113752190Y-149187819D01*
X113752190Y-149187819D02*
X113609333Y-149235438D01*
X113609333Y-149235438D02*
X113514095Y-149330676D01*
X113514095Y-149330676D02*
X113466476Y-149425914D01*
X113466476Y-149425914D02*
X113418857Y-149616390D01*
X113418857Y-149616390D02*
X113418857Y-149759247D01*
X113418857Y-149759247D02*
X113466476Y-149949723D01*
X113466476Y-149949723D02*
X113514095Y-150044961D01*
X113514095Y-150044961D02*
X113609333Y-150140200D01*
X113609333Y-150140200D02*
X113752190Y-150187819D01*
X113752190Y-150187819D02*
X113990285Y-150187819D01*
X112466476Y-150187819D02*
X113037904Y-150187819D01*
X112752190Y-150187819D02*
X112752190Y-149187819D01*
X112752190Y-149187819D02*
X112847428Y-149330676D01*
X112847428Y-149330676D02*
X112942666Y-149425914D01*
X112942666Y-149425914D02*
X113037904Y-149473533D01*
X111609333Y-149521152D02*
X111609333Y-150187819D01*
X111847428Y-149140200D02*
X112085523Y-149854485D01*
X112085523Y-149854485D02*
X111466476Y-149854485D01*
X24785857Y-119205819D02*
X25119190Y-118729628D01*
X25357285Y-119205819D02*
X25357285Y-118205819D01*
X25357285Y-118205819D02*
X24976333Y-118205819D01*
X24976333Y-118205819D02*
X24881095Y-118253438D01*
X24881095Y-118253438D02*
X24833476Y-118301057D01*
X24833476Y-118301057D02*
X24785857Y-118396295D01*
X24785857Y-118396295D02*
X24785857Y-118539152D01*
X24785857Y-118539152D02*
X24833476Y-118634390D01*
X24833476Y-118634390D02*
X24881095Y-118682009D01*
X24881095Y-118682009D02*
X24976333Y-118729628D01*
X24976333Y-118729628D02*
X25357285Y-118729628D01*
X24404904Y-118301057D02*
X24357285Y-118253438D01*
X24357285Y-118253438D02*
X24262047Y-118205819D01*
X24262047Y-118205819D02*
X24023952Y-118205819D01*
X24023952Y-118205819D02*
X23928714Y-118253438D01*
X23928714Y-118253438D02*
X23881095Y-118301057D01*
X23881095Y-118301057D02*
X23833476Y-118396295D01*
X23833476Y-118396295D02*
X23833476Y-118491533D01*
X23833476Y-118491533D02*
X23881095Y-118634390D01*
X23881095Y-118634390D02*
X24452523Y-119205819D01*
X24452523Y-119205819D02*
X23833476Y-119205819D01*
X23214428Y-118205819D02*
X23119190Y-118205819D01*
X23119190Y-118205819D02*
X23023952Y-118253438D01*
X23023952Y-118253438D02*
X22976333Y-118301057D01*
X22976333Y-118301057D02*
X22928714Y-118396295D01*
X22928714Y-118396295D02*
X22881095Y-118586771D01*
X22881095Y-118586771D02*
X22881095Y-118824866D01*
X22881095Y-118824866D02*
X22928714Y-119015342D01*
X22928714Y-119015342D02*
X22976333Y-119110580D01*
X22976333Y-119110580D02*
X23023952Y-119158200D01*
X23023952Y-119158200D02*
X23119190Y-119205819D01*
X23119190Y-119205819D02*
X23214428Y-119205819D01*
X23214428Y-119205819D02*
X23309666Y-119158200D01*
X23309666Y-119158200D02*
X23357285Y-119110580D01*
X23357285Y-119110580D02*
X23404904Y-119015342D01*
X23404904Y-119015342D02*
X23452523Y-118824866D01*
X23452523Y-118824866D02*
X23452523Y-118586771D01*
X23452523Y-118586771D02*
X23404904Y-118396295D01*
X23404904Y-118396295D02*
X23357285Y-118301057D01*
X23357285Y-118301057D02*
X23309666Y-118253438D01*
X23309666Y-118253438D02*
X23214428Y-118205819D01*
X28591167Y-55930318D02*
X28924500Y-55454127D01*
X29162595Y-55930318D02*
X29162595Y-54930318D01*
X29162595Y-54930318D02*
X28781643Y-54930318D01*
X28781643Y-54930318D02*
X28686405Y-54977937D01*
X28686405Y-54977937D02*
X28638786Y-55025556D01*
X28638786Y-55025556D02*
X28591167Y-55120794D01*
X28591167Y-55120794D02*
X28591167Y-55263651D01*
X28591167Y-55263651D02*
X28638786Y-55358889D01*
X28638786Y-55358889D02*
X28686405Y-55406508D01*
X28686405Y-55406508D02*
X28781643Y-55454127D01*
X28781643Y-55454127D02*
X29162595Y-55454127D01*
X27638786Y-55930318D02*
X28210214Y-55930318D01*
X27924500Y-55930318D02*
X27924500Y-54930318D01*
X27924500Y-54930318D02*
X28019738Y-55073175D01*
X28019738Y-55073175D02*
X28114976Y-55168413D01*
X28114976Y-55168413D02*
X28210214Y-55216032D01*
X109460357Y-40970580D02*
X109507976Y-41018200D01*
X109507976Y-41018200D02*
X109650833Y-41065819D01*
X109650833Y-41065819D02*
X109746071Y-41065819D01*
X109746071Y-41065819D02*
X109888928Y-41018200D01*
X109888928Y-41018200D02*
X109984166Y-40922961D01*
X109984166Y-40922961D02*
X110031785Y-40827723D01*
X110031785Y-40827723D02*
X110079404Y-40637247D01*
X110079404Y-40637247D02*
X110079404Y-40494390D01*
X110079404Y-40494390D02*
X110031785Y-40303914D01*
X110031785Y-40303914D02*
X109984166Y-40208676D01*
X109984166Y-40208676D02*
X109888928Y-40113438D01*
X109888928Y-40113438D02*
X109746071Y-40065819D01*
X109746071Y-40065819D02*
X109650833Y-40065819D01*
X109650833Y-40065819D02*
X109507976Y-40113438D01*
X109507976Y-40113438D02*
X109460357Y-40161057D01*
X109079404Y-40161057D02*
X109031785Y-40113438D01*
X109031785Y-40113438D02*
X108936547Y-40065819D01*
X108936547Y-40065819D02*
X108698452Y-40065819D01*
X108698452Y-40065819D02*
X108603214Y-40113438D01*
X108603214Y-40113438D02*
X108555595Y-40161057D01*
X108555595Y-40161057D02*
X108507976Y-40256295D01*
X108507976Y-40256295D02*
X108507976Y-40351533D01*
X108507976Y-40351533D02*
X108555595Y-40494390D01*
X108555595Y-40494390D02*
X109127023Y-41065819D01*
X109127023Y-41065819D02*
X108507976Y-41065819D01*
X108174642Y-40065819D02*
X107555595Y-40065819D01*
X107555595Y-40065819D02*
X107888928Y-40446771D01*
X107888928Y-40446771D02*
X107746071Y-40446771D01*
X107746071Y-40446771D02*
X107650833Y-40494390D01*
X107650833Y-40494390D02*
X107603214Y-40542009D01*
X107603214Y-40542009D02*
X107555595Y-40637247D01*
X107555595Y-40637247D02*
X107555595Y-40875342D01*
X107555595Y-40875342D02*
X107603214Y-40970580D01*
X107603214Y-40970580D02*
X107650833Y-41018200D01*
X107650833Y-41018200D02*
X107746071Y-41065819D01*
X107746071Y-41065819D02*
X108031785Y-41065819D01*
X108031785Y-41065819D02*
X108127023Y-41018200D01*
X108127023Y-41018200D02*
X108174642Y-40970580D01*
X55925885Y-30200519D02*
X55925885Y-29200519D01*
X55925885Y-29200519D02*
X55687790Y-29200519D01*
X55687790Y-29200519D02*
X55544933Y-29248138D01*
X55544933Y-29248138D02*
X55449695Y-29343376D01*
X55449695Y-29343376D02*
X55402076Y-29438614D01*
X55402076Y-29438614D02*
X55354457Y-29629090D01*
X55354457Y-29629090D02*
X55354457Y-29771947D01*
X55354457Y-29771947D02*
X55402076Y-29962423D01*
X55402076Y-29962423D02*
X55449695Y-30057661D01*
X55449695Y-30057661D02*
X55544933Y-30152900D01*
X55544933Y-30152900D02*
X55687790Y-30200519D01*
X55687790Y-30200519D02*
X55925885Y-30200519D01*
X54402076Y-30200519D02*
X54973504Y-30200519D01*
X54687790Y-30200519D02*
X54687790Y-29200519D01*
X54687790Y-29200519D02*
X54783028Y-29343376D01*
X54783028Y-29343376D02*
X54878266Y-29438614D01*
X54878266Y-29438614D02*
X54973504Y-29486233D01*
X53783028Y-29200519D02*
X53687790Y-29200519D01*
X53687790Y-29200519D02*
X53592552Y-29248138D01*
X53592552Y-29248138D02*
X53544933Y-29295757D01*
X53544933Y-29295757D02*
X53497314Y-29390995D01*
X53497314Y-29390995D02*
X53449695Y-29581471D01*
X53449695Y-29581471D02*
X53449695Y-29819566D01*
X53449695Y-29819566D02*
X53497314Y-30010042D01*
X53497314Y-30010042D02*
X53544933Y-30105280D01*
X53544933Y-30105280D02*
X53592552Y-30152900D01*
X53592552Y-30152900D02*
X53687790Y-30200519D01*
X53687790Y-30200519D02*
X53783028Y-30200519D01*
X53783028Y-30200519D02*
X53878266Y-30152900D01*
X53878266Y-30152900D02*
X53925885Y-30105280D01*
X53925885Y-30105280D02*
X53973504Y-30010042D01*
X53973504Y-30010042D02*
X54021123Y-29819566D01*
X54021123Y-29819566D02*
X54021123Y-29581471D01*
X54021123Y-29581471D02*
X53973504Y-29390995D01*
X53973504Y-29390995D02*
X53925885Y-29295757D01*
X53925885Y-29295757D02*
X53878266Y-29248138D01*
X53878266Y-29248138D02*
X53783028Y-29200519D01*
X25763457Y-61573580D02*
X25811076Y-61621200D01*
X25811076Y-61621200D02*
X25953933Y-61668819D01*
X25953933Y-61668819D02*
X26049171Y-61668819D01*
X26049171Y-61668819D02*
X26192028Y-61621200D01*
X26192028Y-61621200D02*
X26287266Y-61525961D01*
X26287266Y-61525961D02*
X26334885Y-61430723D01*
X26334885Y-61430723D02*
X26382504Y-61240247D01*
X26382504Y-61240247D02*
X26382504Y-61097390D01*
X26382504Y-61097390D02*
X26334885Y-60906914D01*
X26334885Y-60906914D02*
X26287266Y-60811676D01*
X26287266Y-60811676D02*
X26192028Y-60716438D01*
X26192028Y-60716438D02*
X26049171Y-60668819D01*
X26049171Y-60668819D02*
X25953933Y-60668819D01*
X25953933Y-60668819D02*
X25811076Y-60716438D01*
X25811076Y-60716438D02*
X25763457Y-60764057D01*
X25430123Y-60668819D02*
X24811076Y-60668819D01*
X24811076Y-60668819D02*
X25144409Y-61049771D01*
X25144409Y-61049771D02*
X25001552Y-61049771D01*
X25001552Y-61049771D02*
X24906314Y-61097390D01*
X24906314Y-61097390D02*
X24858695Y-61145009D01*
X24858695Y-61145009D02*
X24811076Y-61240247D01*
X24811076Y-61240247D02*
X24811076Y-61478342D01*
X24811076Y-61478342D02*
X24858695Y-61573580D01*
X24858695Y-61573580D02*
X24906314Y-61621200D01*
X24906314Y-61621200D02*
X25001552Y-61668819D01*
X25001552Y-61668819D02*
X25287266Y-61668819D01*
X25287266Y-61668819D02*
X25382504Y-61621200D01*
X25382504Y-61621200D02*
X25430123Y-61573580D01*
X24334885Y-61668819D02*
X24144409Y-61668819D01*
X24144409Y-61668819D02*
X24049171Y-61621200D01*
X24049171Y-61621200D02*
X24001552Y-61573580D01*
X24001552Y-61573580D02*
X23906314Y-61430723D01*
X23906314Y-61430723D02*
X23858695Y-61240247D01*
X23858695Y-61240247D02*
X23858695Y-60859295D01*
X23858695Y-60859295D02*
X23906314Y-60764057D01*
X23906314Y-60764057D02*
X23953933Y-60716438D01*
X23953933Y-60716438D02*
X24049171Y-60668819D01*
X24049171Y-60668819D02*
X24239647Y-60668819D01*
X24239647Y-60668819D02*
X24334885Y-60716438D01*
X24334885Y-60716438D02*
X24382504Y-60764057D01*
X24382504Y-60764057D02*
X24430123Y-60859295D01*
X24430123Y-60859295D02*
X24430123Y-61097390D01*
X24430123Y-61097390D02*
X24382504Y-61192628D01*
X24382504Y-61192628D02*
X24334885Y-61240247D01*
X24334885Y-61240247D02*
X24239647Y-61287866D01*
X24239647Y-61287866D02*
X24049171Y-61287866D01*
X24049171Y-61287866D02*
X23953933Y-61240247D01*
X23953933Y-61240247D02*
X23906314Y-61192628D01*
X23906314Y-61192628D02*
X23858695Y-61097390D01*
X24785857Y-103965819D02*
X25119190Y-103489628D01*
X25357285Y-103965819D02*
X25357285Y-102965819D01*
X25357285Y-102965819D02*
X24976333Y-102965819D01*
X24976333Y-102965819D02*
X24881095Y-103013438D01*
X24881095Y-103013438D02*
X24833476Y-103061057D01*
X24833476Y-103061057D02*
X24785857Y-103156295D01*
X24785857Y-103156295D02*
X24785857Y-103299152D01*
X24785857Y-103299152D02*
X24833476Y-103394390D01*
X24833476Y-103394390D02*
X24881095Y-103442009D01*
X24881095Y-103442009D02*
X24976333Y-103489628D01*
X24976333Y-103489628D02*
X25357285Y-103489628D01*
X23833476Y-103965819D02*
X24404904Y-103965819D01*
X24119190Y-103965819D02*
X24119190Y-102965819D01*
X24119190Y-102965819D02*
X24214428Y-103108676D01*
X24214428Y-103108676D02*
X24309666Y-103203914D01*
X24309666Y-103203914D02*
X24404904Y-103251533D01*
X23500142Y-102965819D02*
X22833476Y-102965819D01*
X22833476Y-102965819D02*
X23262047Y-103965819D01*
X51438957Y-65224819D02*
X51772290Y-64748628D01*
X52010385Y-65224819D02*
X52010385Y-64224819D01*
X52010385Y-64224819D02*
X51629433Y-64224819D01*
X51629433Y-64224819D02*
X51534195Y-64272438D01*
X51534195Y-64272438D02*
X51486576Y-64320057D01*
X51486576Y-64320057D02*
X51438957Y-64415295D01*
X51438957Y-64415295D02*
X51438957Y-64558152D01*
X51438957Y-64558152D02*
X51486576Y-64653390D01*
X51486576Y-64653390D02*
X51534195Y-64701009D01*
X51534195Y-64701009D02*
X51629433Y-64748628D01*
X51629433Y-64748628D02*
X52010385Y-64748628D01*
X50534195Y-64224819D02*
X51010385Y-64224819D01*
X51010385Y-64224819D02*
X51058004Y-64701009D01*
X51058004Y-64701009D02*
X51010385Y-64653390D01*
X51010385Y-64653390D02*
X50915147Y-64605771D01*
X50915147Y-64605771D02*
X50677052Y-64605771D01*
X50677052Y-64605771D02*
X50581814Y-64653390D01*
X50581814Y-64653390D02*
X50534195Y-64701009D01*
X50534195Y-64701009D02*
X50486576Y-64796247D01*
X50486576Y-64796247D02*
X50486576Y-65034342D01*
X50486576Y-65034342D02*
X50534195Y-65129580D01*
X50534195Y-65129580D02*
X50581814Y-65177200D01*
X50581814Y-65177200D02*
X50677052Y-65224819D01*
X50677052Y-65224819D02*
X50915147Y-65224819D01*
X50915147Y-65224819D02*
X51010385Y-65177200D01*
X51010385Y-65177200D02*
X51058004Y-65129580D01*
X50153242Y-64224819D02*
X49486576Y-64224819D01*
X49486576Y-64224819D02*
X49915147Y-65224819D01*
X42203666Y-99387819D02*
X42536999Y-98911628D01*
X42775094Y-99387819D02*
X42775094Y-98387819D01*
X42775094Y-98387819D02*
X42394142Y-98387819D01*
X42394142Y-98387819D02*
X42298904Y-98435438D01*
X42298904Y-98435438D02*
X42251285Y-98483057D01*
X42251285Y-98483057D02*
X42203666Y-98578295D01*
X42203666Y-98578295D02*
X42203666Y-98721152D01*
X42203666Y-98721152D02*
X42251285Y-98816390D01*
X42251285Y-98816390D02*
X42298904Y-98864009D01*
X42298904Y-98864009D02*
X42394142Y-98911628D01*
X42394142Y-98911628D02*
X42775094Y-98911628D01*
X41870332Y-98387819D02*
X41203666Y-98387819D01*
X41203666Y-98387819D02*
X41632237Y-99387819D01*
X41727285Y-143583819D02*
X41727285Y-142583819D01*
X41727285Y-142583819D02*
X41489190Y-142583819D01*
X41489190Y-142583819D02*
X41346333Y-142631438D01*
X41346333Y-142631438D02*
X41251095Y-142726676D01*
X41251095Y-142726676D02*
X41203476Y-142821914D01*
X41203476Y-142821914D02*
X41155857Y-143012390D01*
X41155857Y-143012390D02*
X41155857Y-143155247D01*
X41155857Y-143155247D02*
X41203476Y-143345723D01*
X41203476Y-143345723D02*
X41251095Y-143440961D01*
X41251095Y-143440961D02*
X41346333Y-143536200D01*
X41346333Y-143536200D02*
X41489190Y-143583819D01*
X41489190Y-143583819D02*
X41727285Y-143583819D01*
X40203476Y-143583819D02*
X40774904Y-143583819D01*
X40489190Y-143583819D02*
X40489190Y-142583819D01*
X40489190Y-142583819D02*
X40584428Y-142726676D01*
X40584428Y-142726676D02*
X40679666Y-142821914D01*
X40679666Y-142821914D02*
X40774904Y-142869533D01*
X39870142Y-142583819D02*
X39203476Y-142583819D01*
X39203476Y-142583819D02*
X39632047Y-143583819D01*
X62015666Y-79203380D02*
X62063285Y-79251000D01*
X62063285Y-79251000D02*
X62206142Y-79298619D01*
X62206142Y-79298619D02*
X62301380Y-79298619D01*
X62301380Y-79298619D02*
X62444237Y-79251000D01*
X62444237Y-79251000D02*
X62539475Y-79155761D01*
X62539475Y-79155761D02*
X62587094Y-79060523D01*
X62587094Y-79060523D02*
X62634713Y-78870047D01*
X62634713Y-78870047D02*
X62634713Y-78727190D01*
X62634713Y-78727190D02*
X62587094Y-78536714D01*
X62587094Y-78536714D02*
X62539475Y-78441476D01*
X62539475Y-78441476D02*
X62444237Y-78346238D01*
X62444237Y-78346238D02*
X62301380Y-78298619D01*
X62301380Y-78298619D02*
X62206142Y-78298619D01*
X62206142Y-78298619D02*
X62063285Y-78346238D01*
X62063285Y-78346238D02*
X62015666Y-78393857D01*
X61110904Y-78298619D02*
X61587094Y-78298619D01*
X61587094Y-78298619D02*
X61634713Y-78774809D01*
X61634713Y-78774809D02*
X61587094Y-78727190D01*
X61587094Y-78727190D02*
X61491856Y-78679571D01*
X61491856Y-78679571D02*
X61253761Y-78679571D01*
X61253761Y-78679571D02*
X61158523Y-78727190D01*
X61158523Y-78727190D02*
X61110904Y-78774809D01*
X61110904Y-78774809D02*
X61063285Y-78870047D01*
X61063285Y-78870047D02*
X61063285Y-79108142D01*
X61063285Y-79108142D02*
X61110904Y-79203380D01*
X61110904Y-79203380D02*
X61158523Y-79251000D01*
X61158523Y-79251000D02*
X61253761Y-79298619D01*
X61253761Y-79298619D02*
X61491856Y-79298619D01*
X61491856Y-79298619D02*
X61587094Y-79251000D01*
X61587094Y-79251000D02*
X61634713Y-79203380D01*
X42806857Y-120723819D02*
X43140190Y-120247628D01*
X43378285Y-120723819D02*
X43378285Y-119723819D01*
X43378285Y-119723819D02*
X42997333Y-119723819D01*
X42997333Y-119723819D02*
X42902095Y-119771438D01*
X42902095Y-119771438D02*
X42854476Y-119819057D01*
X42854476Y-119819057D02*
X42806857Y-119914295D01*
X42806857Y-119914295D02*
X42806857Y-120057152D01*
X42806857Y-120057152D02*
X42854476Y-120152390D01*
X42854476Y-120152390D02*
X42902095Y-120200009D01*
X42902095Y-120200009D02*
X42997333Y-120247628D01*
X42997333Y-120247628D02*
X43378285Y-120247628D01*
X41854476Y-120723819D02*
X42425904Y-120723819D01*
X42140190Y-120723819D02*
X42140190Y-119723819D01*
X42140190Y-119723819D02*
X42235428Y-119866676D01*
X42235428Y-119866676D02*
X42330666Y-119961914D01*
X42330666Y-119961914D02*
X42425904Y-120009533D01*
X40902095Y-120723819D02*
X41473523Y-120723819D01*
X41187809Y-120723819D02*
X41187809Y-119723819D01*
X41187809Y-119723819D02*
X41283047Y-119866676D01*
X41283047Y-119866676D02*
X41378285Y-119961914D01*
X41378285Y-119961914D02*
X41473523Y-120009533D01*
X32646857Y-61446580D02*
X32694476Y-61494200D01*
X32694476Y-61494200D02*
X32837333Y-61541819D01*
X32837333Y-61541819D02*
X32932571Y-61541819D01*
X32932571Y-61541819D02*
X33075428Y-61494200D01*
X33075428Y-61494200D02*
X33170666Y-61398961D01*
X33170666Y-61398961D02*
X33218285Y-61303723D01*
X33218285Y-61303723D02*
X33265904Y-61113247D01*
X33265904Y-61113247D02*
X33265904Y-60970390D01*
X33265904Y-60970390D02*
X33218285Y-60779914D01*
X33218285Y-60779914D02*
X33170666Y-60684676D01*
X33170666Y-60684676D02*
X33075428Y-60589438D01*
X33075428Y-60589438D02*
X32932571Y-60541819D01*
X32932571Y-60541819D02*
X32837333Y-60541819D01*
X32837333Y-60541819D02*
X32694476Y-60589438D01*
X32694476Y-60589438D02*
X32646857Y-60637057D01*
X31789714Y-60875152D02*
X31789714Y-61541819D01*
X32027809Y-60494200D02*
X32265904Y-61208485D01*
X32265904Y-61208485D02*
X31646857Y-61208485D01*
X31075428Y-60541819D02*
X30980190Y-60541819D01*
X30980190Y-60541819D02*
X30884952Y-60589438D01*
X30884952Y-60589438D02*
X30837333Y-60637057D01*
X30837333Y-60637057D02*
X30789714Y-60732295D01*
X30789714Y-60732295D02*
X30742095Y-60922771D01*
X30742095Y-60922771D02*
X30742095Y-61160866D01*
X30742095Y-61160866D02*
X30789714Y-61351342D01*
X30789714Y-61351342D02*
X30837333Y-61446580D01*
X30837333Y-61446580D02*
X30884952Y-61494200D01*
X30884952Y-61494200D02*
X30980190Y-61541819D01*
X30980190Y-61541819D02*
X31075428Y-61541819D01*
X31075428Y-61541819D02*
X31170666Y-61494200D01*
X31170666Y-61494200D02*
X31218285Y-61446580D01*
X31218285Y-61446580D02*
X31265904Y-61351342D01*
X31265904Y-61351342D02*
X31313523Y-61160866D01*
X31313523Y-61160866D02*
X31313523Y-60922771D01*
X31313523Y-60922771D02*
X31265904Y-60732295D01*
X31265904Y-60732295D02*
X31218285Y-60637057D01*
X31218285Y-60637057D02*
X31170666Y-60589438D01*
X31170666Y-60589438D02*
X31075428Y-60541819D01*
X42330666Y-105483819D02*
X42663999Y-105007628D01*
X42902094Y-105483819D02*
X42902094Y-104483819D01*
X42902094Y-104483819D02*
X42521142Y-104483819D01*
X42521142Y-104483819D02*
X42425904Y-104531438D01*
X42425904Y-104531438D02*
X42378285Y-104579057D01*
X42378285Y-104579057D02*
X42330666Y-104674295D01*
X42330666Y-104674295D02*
X42330666Y-104817152D01*
X42330666Y-104817152D02*
X42378285Y-104912390D01*
X42378285Y-104912390D02*
X42425904Y-104960009D01*
X42425904Y-104960009D02*
X42521142Y-105007628D01*
X42521142Y-105007628D02*
X42902094Y-105007628D01*
X41759237Y-104912390D02*
X41854475Y-104864771D01*
X41854475Y-104864771D02*
X41902094Y-104817152D01*
X41902094Y-104817152D02*
X41949713Y-104721914D01*
X41949713Y-104721914D02*
X41949713Y-104674295D01*
X41949713Y-104674295D02*
X41902094Y-104579057D01*
X41902094Y-104579057D02*
X41854475Y-104531438D01*
X41854475Y-104531438D02*
X41759237Y-104483819D01*
X41759237Y-104483819D02*
X41568761Y-104483819D01*
X41568761Y-104483819D02*
X41473523Y-104531438D01*
X41473523Y-104531438D02*
X41425904Y-104579057D01*
X41425904Y-104579057D02*
X41378285Y-104674295D01*
X41378285Y-104674295D02*
X41378285Y-104721914D01*
X41378285Y-104721914D02*
X41425904Y-104817152D01*
X41425904Y-104817152D02*
X41473523Y-104864771D01*
X41473523Y-104864771D02*
X41568761Y-104912390D01*
X41568761Y-104912390D02*
X41759237Y-104912390D01*
X41759237Y-104912390D02*
X41854475Y-104960009D01*
X41854475Y-104960009D02*
X41902094Y-105007628D01*
X41902094Y-105007628D02*
X41949713Y-105102866D01*
X41949713Y-105102866D02*
X41949713Y-105293342D01*
X41949713Y-105293342D02*
X41902094Y-105388580D01*
X41902094Y-105388580D02*
X41854475Y-105436200D01*
X41854475Y-105436200D02*
X41759237Y-105483819D01*
X41759237Y-105483819D02*
X41568761Y-105483819D01*
X41568761Y-105483819D02*
X41473523Y-105436200D01*
X41473523Y-105436200D02*
X41425904Y-105388580D01*
X41425904Y-105388580D02*
X41378285Y-105293342D01*
X41378285Y-105293342D02*
X41378285Y-105102866D01*
X41378285Y-105102866D02*
X41425904Y-105007628D01*
X41425904Y-105007628D02*
X41473523Y-104960009D01*
X41473523Y-104960009D02*
X41568761Y-104912390D01*
D11*
%TO.C,C11*%
X93443500Y-40532267D02*
X93443500Y-40239733D01*
X94463500Y-40532267D02*
X94463500Y-40239733D01*
%TO.C,R6*%
X41514500Y-96545624D02*
X41514500Y-96036176D01*
X42559500Y-96545624D02*
X42559500Y-96036176D01*
%TO.C,R54*%
X19685724Y-58429000D02*
X19176276Y-58429000D01*
X19685724Y-59474000D02*
X19176276Y-59474000D01*
%TO.C,R23*%
X64478337Y-30166400D02*
X63030863Y-30166400D01*
X64478337Y-32876400D02*
X63030863Y-32876400D01*
%TO.C,C35*%
X25144000Y-47071233D02*
X25144000Y-47363767D01*
X26164000Y-47071233D02*
X26164000Y-47363767D01*
%TO.C,C20*%
X33132752Y-78005000D02*
X32610248Y-78005000D01*
X33132752Y-79475000D02*
X32610248Y-79475000D01*
%TO.C,R5*%
X41514500Y-91417224D02*
X41514500Y-90907776D01*
X42559500Y-91417224D02*
X42559500Y-90907776D01*
%TO.C,R13*%
X22615936Y-84143000D02*
X25670064Y-84143000D01*
X22615936Y-86863000D02*
X25670064Y-86863000D01*
%TO.C,R4*%
X41514500Y-86337224D02*
X41514500Y-85827776D01*
X42559500Y-86337224D02*
X42559500Y-85827776D01*
%TO.C,R18*%
X22615936Y-109511000D02*
X25670064Y-109511000D01*
X22615936Y-112231000D02*
X25670064Y-112231000D01*
%TO.C,C30*%
X29462000Y-47071233D02*
X29462000Y-47363767D01*
X30482000Y-47071233D02*
X30482000Y-47363767D01*
%TO.C,R14*%
X22615936Y-89191000D02*
X25670064Y-89191000D01*
X22615936Y-91911000D02*
X25670064Y-91911000D01*
%TO.C,R19*%
X22615936Y-114591000D02*
X25670064Y-114591000D01*
X22615936Y-117311000D02*
X25670064Y-117311000D01*
%TO.C,D15*%
X103748400Y-144462500D02*
X103748400Y-145112500D01*
X103748400Y-145762500D02*
X103748400Y-145112500D01*
X106868400Y-144462500D02*
X106868400Y-145112500D01*
X106868400Y-145762500D02*
X106868400Y-145112500D01*
X103798400Y-143950000D02*
X103468400Y-144190000D01*
X103468400Y-143710000D01*
X103798400Y-143950000D01*
G36*
X103798400Y-143950000D02*
G01*
X103468400Y-144190000D01*
X103468400Y-143710000D01*
X103798400Y-143950000D01*
G37*
%TO.C,C26*%
X107593500Y-82149733D02*
X107593500Y-82442267D01*
X108613500Y-82149733D02*
X108613500Y-82442267D01*
%TO.C,R10*%
X41514500Y-117833224D02*
X41514500Y-117323776D01*
X42559500Y-117833224D02*
X42559500Y-117323776D01*
%TO.C,R58*%
X51186100Y-69446224D02*
X51186100Y-68936776D01*
X52231100Y-69446224D02*
X52231100Y-68936776D01*
%TO.C,C3*%
X61339000Y-73197767D02*
X61339000Y-72905233D01*
X62359000Y-73197767D02*
X62359000Y-72905233D01*
%TO.C,R16*%
X22615936Y-99351000D02*
X25670064Y-99351000D01*
X22615936Y-102071000D02*
X25670064Y-102071000D01*
%TO.C,Q6*%
X47087800Y-68539600D02*
X47087800Y-67609600D01*
X47087800Y-69839600D02*
X47087800Y-70769600D01*
X48547800Y-70769600D02*
X47087800Y-70769600D01*
X50247800Y-67609600D02*
X47087800Y-67609600D01*
%TO.C,R15*%
X22615936Y-94271000D02*
X25670064Y-94271000D01*
X22615936Y-96991000D02*
X25670064Y-96991000D01*
%TO.C,D9*%
X81477000Y-29135000D02*
X91487000Y-29135000D01*
X81477000Y-35635000D02*
X91487000Y-35635000D01*
X91487000Y-29135000D02*
X91487000Y-35635000D01*
%TO.C,U5*%
X44775000Y-96735000D02*
X48225000Y-96735000D01*
X46275000Y-86615000D02*
X48225000Y-86615000D01*
X50175000Y-86615000D02*
X48225000Y-86615000D01*
X50175000Y-96735000D02*
X48225000Y-96735000D01*
%TO.C,R9*%
X41514500Y-112753224D02*
X41514500Y-112243776D01*
X42559500Y-112753224D02*
X42559500Y-112243776D01*
%TO.C,C33*%
X27303000Y-47071233D02*
X27303000Y-47363767D01*
X28323000Y-47071233D02*
X28323000Y-47363767D01*
%TO.C,C17*%
X38198248Y-78005000D02*
X38720752Y-78005000D01*
X38198248Y-79475000D02*
X38720752Y-79475000D01*
%TO.C,C9*%
X56395252Y-42720500D02*
X55872748Y-42720500D01*
X56395252Y-44190500D02*
X55872748Y-44190500D01*
%TO.C,D14*%
X111899700Y-150941600D02*
X112549700Y-150941600D01*
X111899700Y-154061600D02*
X112549700Y-154061600D01*
X113199700Y-150941600D02*
X112549700Y-150941600D01*
X113199700Y-154061600D02*
X112549700Y-154061600D01*
X111627200Y-154341600D02*
X111147200Y-154341600D01*
X111387200Y-154011600D01*
X111627200Y-154341600D01*
G36*
X111627200Y-154341600D02*
G01*
X111147200Y-154341600D01*
X111387200Y-154011600D01*
X111627200Y-154341600D01*
G37*
%TO.C,R20*%
X22615936Y-119671000D02*
X25670064Y-119671000D01*
X22615936Y-122391000D02*
X25670064Y-122391000D01*
%TO.C,R1*%
X28679224Y-53452500D02*
X28169776Y-53452500D01*
X28679224Y-54497500D02*
X28169776Y-54497500D01*
%TO.C,C23*%
X108556248Y-41556000D02*
X109078752Y-41556000D01*
X108556248Y-43026000D02*
X109078752Y-43026000D01*
%TO.C,D10*%
X55971000Y-28375500D02*
X55971000Y-30050500D01*
X55971000Y-30700500D02*
X55971000Y-30050500D01*
X59091000Y-29400500D02*
X59091000Y-30050500D01*
X59091000Y-30700500D02*
X59091000Y-30050500D01*
%TO.C,C39*%
X24509000Y-58566267D02*
X24509000Y-58273733D01*
X25529000Y-58566267D02*
X25529000Y-58273733D01*
%TO.C,R17*%
X22615936Y-104431000D02*
X25670064Y-104431000D01*
X22615936Y-107151000D02*
X25670064Y-107151000D01*
%TO.C,R57*%
X51050824Y-65822300D02*
X50541376Y-65822300D01*
X51050824Y-66867300D02*
X50541376Y-66867300D01*
%TO.C,R7*%
X41514500Y-101577224D02*
X41514500Y-101067776D01*
X42559500Y-101577224D02*
X42559500Y-101067776D01*
%TO.C,D17*%
X38965000Y-145762500D02*
X38965000Y-146412500D01*
X38965000Y-147062500D02*
X38965000Y-146412500D01*
X42085000Y-145762500D02*
X42085000Y-146412500D01*
X42085000Y-147062500D02*
X42085000Y-146412500D01*
X39015000Y-145250000D02*
X38685000Y-145490000D01*
X38685000Y-145010000D01*
X39015000Y-145250000D01*
G36*
X39015000Y-145250000D02*
G01*
X38685000Y-145490000D01*
X38685000Y-145010000D01*
X39015000Y-145250000D01*
G37*
%TO.C,C5*%
X61339000Y-76334233D02*
X61339000Y-76626767D01*
X62359000Y-76334233D02*
X62359000Y-76626767D01*
%TO.C,R11*%
X41514500Y-122913224D02*
X41514500Y-122403776D01*
X42559500Y-122913224D02*
X42559500Y-122403776D01*
%TO.C,C40*%
X31494000Y-58273733D02*
X31494000Y-58566267D01*
X32514000Y-58273733D02*
X32514000Y-58566267D01*
%TO.C,R8*%
X41514500Y-107673224D02*
X41514500Y-107163776D01*
X42559500Y-107673224D02*
X42559500Y-107163776D01*
%TD*%
M02*
