%TF.GenerationSoftware,KiCad,Pcbnew,6.0.5*%
%TF.CreationDate,2022-11-11T14:10:47+03:00*%
%TF.ProjectId,stm32,73746d33-322e-46b6-9963-61645f706362,rev?*%
%TF.SameCoordinates,Original*%
%TF.FileFunction,Soldermask,Bot*%
%TF.FilePolarity,Negative*%
%FSLAX46Y46*%
G04 Gerber Fmt 4.6, Leading zero omitted, Abs format (unit mm)*
G04 Created by KiCad (PCBNEW 6.0.5) date 2022-11-11 14:10:47*
%MOMM*%
%LPD*%
G01*
G04 APERTURE LIST*
G04 Aperture macros list*
%AMRoundRect*
0 Rectangle with rounded corners*
0 $1 Rounding radius*
0 $2 $3 $4 $5 $6 $7 $8 $9 X,Y pos of 4 corners*
0 Add a 4 corners polygon primitive as box body*
4,1,4,$2,$3,$4,$5,$6,$7,$8,$9,$2,$3,0*
0 Add four circle primitives for the rounded corners*
1,1,$1+$1,$2,$3*
1,1,$1+$1,$4,$5*
1,1,$1+$1,$6,$7*
1,1,$1+$1,$8,$9*
0 Add four rect primitives between the rounded corners*
20,1,$1+$1,$2,$3,$4,$5,0*
20,1,$1+$1,$4,$5,$6,$7,0*
20,1,$1+$1,$6,$7,$8,$9,0*
20,1,$1+$1,$8,$9,$2,$3,0*%
G04 Aperture macros list end*
%ADD10R,1.600000X1.600000*%
%ADD11O,1.600000X1.600000*%
%ADD12R,2.600000X2.600000*%
%ADD13C,2.600000*%
%ADD14C,1.600000*%
%ADD15R,1.700000X1.700000*%
%ADD16O,1.700000X1.700000*%
%ADD17C,5.000000*%
%ADD18C,2.400000*%
%ADD19R,2.000000X2.000000*%
%ADD20C,2.000000*%
%ADD21RoundRect,0.250000X-1.550000X0.650000X-1.550000X-0.650000X1.550000X-0.650000X1.550000X0.650000X0*%
%ADD22O,3.600000X1.800000*%
%ADD23C,4.000000*%
%ADD24C,2.540000*%
%ADD25C,1.500000*%
%ADD26C,1.440000*%
%ADD27RoundRect,0.250000X-0.350000X-0.625000X0.350000X-0.625000X0.350000X0.625000X-0.350000X0.625000X0*%
%ADD28O,1.200000X1.750000*%
%ADD29C,1.700000*%
%ADD30C,3.500000*%
%ADD31C,3.000000*%
%ADD32R,3.000000X3.000000*%
%ADD33O,2.600000X2.600000*%
%ADD34R,1.000000X1.000000*%
%ADD35O,1.000000X1.000000*%
%ADD36RoundRect,0.250000X0.625000X-0.350000X0.625000X0.350000X-0.625000X0.350000X-0.625000X-0.350000X0*%
%ADD37O,1.750000X1.200000*%
%ADD38RoundRect,0.381000X-0.381000X0.619000X-0.381000X-0.619000X0.381000X-0.619000X0.381000X0.619000X0*%
%ADD39RoundRect,0.381000X-0.381000X0.762000X-0.381000X-0.762000X0.381000X-0.762000X0.381000X0.762000X0*%
%ADD40R,1.800000X1.800000*%
%ADD41O,1.800000X1.800000*%
%ADD42RoundRect,0.237500X-0.237500X0.250000X-0.237500X-0.250000X0.237500X-0.250000X0.237500X0.250000X0*%
%ADD43RoundRect,0.250000X-0.337500X-0.475000X0.337500X-0.475000X0.337500X0.475000X-0.337500X0.475000X0*%
G04 APERTURE END LIST*
D10*
%TO.C,U17*%
X26000000Y-113511428D03*
D11*
X26000000Y-116051428D03*
X33620000Y-116051428D03*
X33620000Y-113511428D03*
%TD*%
D12*
%TO.C,J27*%
X130047000Y-39183500D03*
D13*
X130047000Y-34183500D03*
%TD*%
D10*
%TO.C,C19*%
X95298349Y-32412500D03*
D14*
X98798349Y-32412500D03*
%TD*%
D10*
%TO.C,C28*%
X118541000Y-34444500D03*
D14*
X118541000Y-37944500D03*
%TD*%
D15*
%TO.C,JP4*%
X121583400Y-148695700D03*
D16*
X121583400Y-151235700D03*
X121583400Y-153775700D03*
%TD*%
D15*
%TO.C,J16*%
X75590400Y-94691200D03*
%TD*%
%TO.C,TP4*%
X130000000Y-57500000D03*
%TD*%
D17*
%TO.C,P3*%
X18500000Y-151000000D03*
%TD*%
D10*
%TO.C,SW4*%
X69814600Y-36804600D03*
D11*
X62194600Y-36804600D03*
%TD*%
D18*
%TO.C,C22*%
X108000000Y-66500000D03*
X108000000Y-51500000D03*
%TD*%
D15*
%TO.C,JP2*%
X91420000Y-113000000D03*
D16*
X93960000Y-113000000D03*
X96500000Y-113000000D03*
%TD*%
D10*
%TO.C,U15*%
X26000000Y-101985714D03*
D11*
X26000000Y-104525714D03*
X33620000Y-104525714D03*
X33620000Y-101985714D03*
%TD*%
D12*
%TO.C,J20*%
X24749600Y-150787800D03*
D13*
X29749600Y-150787800D03*
X34749600Y-150787800D03*
X39749600Y-150787800D03*
X44749600Y-150787800D03*
X49749600Y-150787800D03*
%TD*%
D15*
%TO.C,TP2*%
X130000000Y-61500000D03*
%TD*%
D19*
%TO.C,BZ1*%
X38700000Y-60000000D03*
D20*
X46300000Y-60000000D03*
%TD*%
D17*
%TO.C,P5*%
X130000000Y-49500000D03*
%TD*%
D15*
%TO.C,J15*%
X75590400Y-90982800D03*
%TD*%
D21*
%TO.C,J30*%
X18683400Y-80398958D03*
D22*
X18683400Y-85478958D03*
X18683400Y-90558958D03*
X18683400Y-95638958D03*
X18683400Y-100718958D03*
X18683400Y-105798958D03*
X18683400Y-110878958D03*
X18683400Y-115958958D03*
X18683400Y-121038958D03*
X18683400Y-126118958D03*
%TD*%
D23*
%TO.C,J28*%
X47111000Y-26116000D03*
X72111000Y-26116000D03*
D10*
X54071000Y-26416000D03*
D14*
X56841000Y-26416000D03*
X59611000Y-26416000D03*
X62381000Y-26416000D03*
X65151000Y-26416000D03*
X55456000Y-23576000D03*
X58226000Y-23576000D03*
X60996000Y-23576000D03*
X63766000Y-23576000D03*
%TD*%
D24*
%TO.C,Q2*%
X106781600Y-121970800D03*
X101701600Y-121970800D03*
X94081600Y-142290800D03*
X104241600Y-142290800D03*
X114401600Y-142290800D03*
%TD*%
D25*
%TO.C,Y1*%
X57678600Y-72276200D03*
X57678600Y-77156200D03*
%TD*%
%TO.C,Q8*%
X49384800Y-45143469D03*
X49384800Y-42603469D03*
X49384800Y-40063469D03*
X49384800Y-37523469D03*
%TD*%
D17*
%TO.C,P6*%
X74500000Y-49500000D03*
%TD*%
D12*
%TO.C,J25*%
X129805000Y-101000000D03*
D13*
X129805000Y-96000000D03*
X129805000Y-91000000D03*
%TD*%
D15*
%TO.C,J3*%
X41914200Y-106994800D03*
%TD*%
%TO.C,TP3*%
X91000000Y-45000000D03*
%TD*%
D26*
%TO.C,RV1*%
X38079800Y-24514600D03*
X35539800Y-24514600D03*
X32999800Y-24514600D03*
%TD*%
D27*
%TO.C,J19*%
X70500000Y-108099400D03*
D28*
X72500000Y-108099400D03*
X74500000Y-108099400D03*
X76500000Y-108099400D03*
%TD*%
D15*
%TO.C,J1*%
X61472200Y-114081400D03*
%TD*%
%TO.C,J2*%
X61472200Y-110525400D03*
%TD*%
%TO.C,J29*%
X127290000Y-76429200D03*
D29*
X127290000Y-78929200D03*
X129290000Y-78929200D03*
X129290000Y-76429200D03*
D30*
X132000000Y-71659200D03*
X132000000Y-83699200D03*
%TD*%
D31*
%TO.C,K1*%
X120707500Y-112292500D03*
X120707500Y-107292500D03*
X120707500Y-117292500D03*
X113207500Y-112292500D03*
X113207500Y-107292500D03*
X113207500Y-117292500D03*
D32*
X120707500Y-92292500D03*
D31*
X113207500Y-92292500D03*
%TD*%
D15*
%TO.C,J5*%
X41914200Y-110500000D03*
%TD*%
%TO.C,JP3*%
X82289600Y-148695700D03*
D16*
X82289600Y-151235700D03*
X82289600Y-153775700D03*
%TD*%
D10*
%TO.C,U14*%
X26000000Y-96222857D03*
D11*
X26000000Y-98762857D03*
X33620000Y-98762857D03*
X33620000Y-96222857D03*
%TD*%
D12*
%TO.C,D10*%
X103027000Y-40413500D03*
D33*
X99217000Y-40413500D03*
%TD*%
D23*
%TO.C,J18*%
X114205200Y-148658169D03*
X89205200Y-148658169D03*
D10*
X107245200Y-148358169D03*
D14*
X104475200Y-148358169D03*
X101705200Y-148358169D03*
X98935200Y-148358169D03*
X96165200Y-148358169D03*
X105860200Y-151198169D03*
X103090200Y-151198169D03*
X100320200Y-151198169D03*
X97550200Y-151198169D03*
%TD*%
D26*
%TO.C,RV2*%
X38029000Y-35843000D03*
X35489000Y-35843000D03*
X32949000Y-35843000D03*
%TD*%
D15*
%TO.C,J8*%
X61472200Y-117637400D03*
%TD*%
%TO.C,J17*%
X74879200Y-63093600D03*
%TD*%
D12*
%TO.C,J21*%
X18526000Y-25500000D03*
D13*
X18526000Y-30500000D03*
X18526000Y-35500000D03*
%TD*%
D34*
%TO.C,J9*%
X28525000Y-55825000D03*
D35*
X28525000Y-57095000D03*
X28525000Y-58365000D03*
X28525000Y-59635000D03*
X28525000Y-60905000D03*
X28525000Y-62175000D03*
%TD*%
D10*
%TO.C,U16*%
X26000000Y-107748571D03*
D11*
X26000000Y-110288571D03*
X33620000Y-110288571D03*
X33620000Y-107748571D03*
%TD*%
D10*
%TO.C,C18*%
X116890000Y-23012849D03*
D14*
X116890000Y-26512849D03*
%TD*%
D25*
%TO.C,Q1*%
X33645400Y-70780886D03*
X31105400Y-70780886D03*
X28565400Y-70780886D03*
X26025400Y-70780886D03*
%TD*%
D10*
%TO.C,U13*%
X26000000Y-84697143D03*
D11*
X26000000Y-87237143D03*
X33620000Y-87237143D03*
X33620000Y-84697143D03*
%TD*%
D27*
%TO.C,J22*%
X63338600Y-141059000D03*
D28*
X65338600Y-141059000D03*
X67338600Y-141059000D03*
%TD*%
D10*
%TO.C,SW2*%
X55274600Y-120717900D03*
D11*
X52734600Y-120717900D03*
X50194600Y-120717900D03*
X47654600Y-120717900D03*
X47654600Y-128337900D03*
X50194600Y-128337900D03*
X52734600Y-128337900D03*
X55274600Y-128337900D03*
%TD*%
D10*
%TO.C,U11*%
X26000000Y-90460000D03*
D11*
X26000000Y-93000000D03*
X33620000Y-93000000D03*
X33620000Y-90460000D03*
%TD*%
D15*
%TO.C,TP1*%
X101396000Y-52650000D03*
%TD*%
D17*
%TO.C,P1*%
X74500000Y-151000000D03*
%TD*%
D36*
%TO.C,J24*%
X79764000Y-61492000D03*
D37*
X79764000Y-59492000D03*
X79764000Y-57492000D03*
X79764000Y-55492000D03*
%TD*%
D17*
%TO.C,P4*%
X18500000Y-49500000D03*
%TD*%
D10*
%TO.C,U18*%
X26000000Y-119274286D03*
D11*
X26000000Y-121814286D03*
X33620000Y-121814286D03*
X33620000Y-119274286D03*
%TD*%
D15*
%TO.C,TP5*%
X87000000Y-45000000D03*
%TD*%
D20*
%TO.C,L1*%
X113000000Y-33809500D03*
X103000000Y-33809500D03*
%TD*%
D15*
%TO.C,JP1*%
X91475000Y-106000000D03*
D16*
X94015000Y-106000000D03*
X96555000Y-106000000D03*
%TD*%
D12*
%TO.C,J26*%
X130098000Y-27713500D03*
D13*
X130098000Y-22713500D03*
%TD*%
D15*
%TO.C,J4*%
X41914200Y-117612000D03*
%TD*%
%TO.C,J6*%
X41914200Y-114056000D03*
%TD*%
D38*
%TO.C,Q3*%
X32105600Y-127480400D03*
X32105600Y-130020400D03*
D39*
X32105600Y-135100400D03*
X32105600Y-140180400D03*
%TD*%
D40*
%TO.C,U9*%
X101298000Y-24488500D03*
D41*
X102998000Y-28188500D03*
X104698000Y-24488500D03*
X106398000Y-28188500D03*
X108098000Y-24488500D03*
%TD*%
D15*
%TO.C,J7*%
X61472200Y-106969400D03*
%TD*%
D10*
%TO.C,U12*%
X26000000Y-78934286D03*
D11*
X26000000Y-81474286D03*
X33620000Y-81474286D03*
X33620000Y-78934286D03*
%TD*%
D17*
%TO.C,P2*%
X130000000Y-151000000D03*
%TD*%
D12*
%TO.C,J23*%
X84291000Y-25351500D03*
D13*
X89291000Y-25351500D03*
%TD*%
D12*
%TO.C,J10*%
X129805000Y-117000000D03*
D13*
X129805000Y-112000000D03*
X129805000Y-107000000D03*
%TD*%
D15*
%TO.C,J38*%
X90170000Y-75946000D03*
%TD*%
D42*
%TO.C,R36*%
X28057400Y-105936386D03*
X28057400Y-107761386D03*
%TD*%
%TO.C,R32*%
X28057400Y-77130886D03*
X28057400Y-78955886D03*
%TD*%
D43*
%TO.C,C1*%
X31486400Y-73447886D03*
X33561400Y-73447886D03*
%TD*%
D42*
%TO.C,R35*%
X28057400Y-100197886D03*
X28057400Y-102022886D03*
%TD*%
%TO.C,R37*%
X28057400Y-111627886D03*
X28057400Y-113452886D03*
%TD*%
%TO.C,R38*%
X28057400Y-117493386D03*
X28057400Y-119318386D03*
%TD*%
%TO.C,R33*%
X28057400Y-82925886D03*
X28057400Y-84750886D03*
%TD*%
%TO.C,R34*%
X28057400Y-94482886D03*
X28057400Y-96307886D03*
%TD*%
%TO.C,R31*%
X28057400Y-88640886D03*
X28057400Y-90465886D03*
%TD*%
M02*
