M48
; DRILL file {KiCad 8.0.1} date 2024-04-11T20:53:25+0300
; FORMAT={-:-/ absolute / metric / decimal}
; #@! TF.CreationDate,2024-04-11T20:53:25+03:00
; #@! TF.GenerationSoftware,Kicad,Pcbnew,8.0.1
; #@! TF.FileFunction,MixedPlating,1,2
FMAT,2
METRIC
; #@! TA.AperFunction,Plated,PTH,ViaDrill
T1C0.400
; #@! TA.AperFunction,Plated,PTH,ComponentDrill
T2C0.500
; #@! TA.AperFunction,Plated,PTH,ViaDrill
T3C0.600
; #@! TA.AperFunction,Plated,PTH,ComponentDrill
T4C0.600
; #@! TA.AperFunction,Plated,PTH,ComponentDrill
T5C0.700
; #@! TA.AperFunction,Plated,PTH,ViaDrill
T6C0.800
; #@! TA.AperFunction,Plated,PTH,ComponentDrill
T7C0.800
; #@! TA.AperFunction,Plated,PTH,ComponentDrill
T8C0.920
; #@! TA.AperFunction,Plated,PTH,ComponentDrill
T9C1.000
; #@! TA.AperFunction,Plated,PTH,ComponentDrill
T10C1.200
; #@! TA.AperFunction,Plated,PTH,ComponentDrill
T11C1.300
; #@! TA.AperFunction,Plated,PTH,ComponentDrill
T12C2.330
; #@! TA.AperFunction,Plated,PTH,ComponentDrill
T13C3.000
; #@! TA.AperFunction,Plated,PTH,ComponentDrill
T14C3.200
%
G90
G05
T1
X14.859Y-63.754
X14.986Y-141.351
X14.986Y-154.813
X16.002Y-21.844
X18.266Y-55.902
X18.288Y-63.754
X19.431Y-54.779
X24.257Y-41.148
X25.004Y-54.029
X25.004Y-63.209
X25.4Y-32.893
X25.654Y-44.497
X26.797Y-63.754
X27.813Y-44.497
X28.194Y-33.401
X29.21Y-41.148
X29.972Y-44.497
X30.353Y-36.068
X31.115Y-48.895
X32.004Y-53.939
X32.004Y-63.119
X35.687Y-58.801
X35.687Y-61.722
X35.687Y-64.008
X36.576Y-43.18
X39.116Y-51.435
X39.39Y-133.24
X40.132Y-69.088
X40.259Y-135.5
X40.513Y-86.106
X40.513Y-91.313
X41.93Y-133.24
X42.037Y-87.013
X42.037Y-92.075
X42.037Y-97.173
X42.037Y-102.253
X42.037Y-108.349
X42.037Y-113.429
X42.037Y-118.509
X42.037Y-123.589
X42.418Y-69.088
X42.926Y-51.435
X43.053Y-126.619
X43.18Y-130.429
X44.577Y-111.379
X44.704Y-68.707
X44.958Y-97.155
X45.085Y-85.979
X45.212Y-73.152
X45.75Y-89.77
X45.75Y-92.31
X45.75Y-93.58
X45.75Y-95.08
X47.117Y-85.09
X48.641Y-112.649
X48.641Y-125.349
X48.768Y-95.123
X49.022Y-58.801
X49.022Y-91.059
X49.149Y-93.599
X49.53Y-73.152
X49.784Y-63.627
X50.673Y-115.951
X50.7Y-89.77
X50.8Y-83.058
X50.8Y-85.979
X51.181Y-53.848
X51.181Y-62.357
X51.562Y-78.74
X51.562Y-127.635
X52.544Y-60.071
X52.578Y-53.086
X52.705Y-87.249
X52.705Y-88.519
X52.832Y-96.12
X53.594Y-62.357
X53.844Y-63.754
X53.848Y-49.022
X54.102Y-52.832
X54.544Y-60.071
X54.594Y-62.345
X54.737Y-48.133
X55.096Y-43.456
X55.499Y-78.74
X55.88Y-63.627
X56.007Y-83.566
X56.261Y-54.229
X56.261Y-93.599
X56.515Y-55.372
X56.896Y-60.325
X57.023Y-63.627
X57.171Y-43.456
X57.782Y-91.124
X58.16Y-85.205
X58.166Y-54.229
X58.928Y-84.455
X58.94Y-86.106
X60.389Y-56.832
X60.452Y-55.245
X60.579Y-70.993
X61.109Y-84.477
X61.7Y-96.009
X61.722Y-86.614
X62.992Y-68.072
X63.5Y-86.106
X64.135Y-55.372
X64.135Y-71.321
X64.712Y-66.479
X65.024Y-57.531
X66.04Y-68.453
X66.548Y-143.891
X66.548Y-147.574
X67.437Y-111.76
X67.437Y-116.332
X67.437Y-119.253
X67.437Y-121.539
X67.691Y-71.12
X67.945Y-50.038
X67.945Y-67.945
X69.342Y-86.36
X69.469Y-101.727
X69.596Y-67.183
X69.745Y-65.129
X69.977Y-50.038
X70.104Y-63.373
X70.37Y-84.709
X71.248Y-60.579
X71.628Y-43.434
X72.898Y-84.582
X73.075Y-82.981
X73.914Y-104.648
X74.168Y-74.041
X74.295Y-72.898
X74.422Y-68.58
X74.422Y-111.76
X75.284Y-61.849
X75.819Y-67.096
X76.18Y-81.534
X76.2Y-68.58
X77.089Y-71.247
X77.55Y-57.658
X77.597Y-44.069
X77.597Y-46.99
X77.643Y-65.278
X77.851Y-86.36
X77.978Y-75.795
X78.105Y-73.159
X78.105Y-101.727
X78.906Y-75.422
X79.275Y-71.855
X80.391Y-74.791
X80.999Y-71.855
X81.28Y-77.978
X81.704Y-75.791
X81.915Y-57.404
X83.312Y-121.793
X83.972Y-116.484
X84.201Y-88.265
X84.36Y-149.403
X84.582Y-61.722
X85.217Y-43.942
X85.217Y-46.736
X85.471Y-35.433
X85.852Y-116.484
X85.852Y-122.479
X86.309Y-145.39
X87.122Y-118.669
X88.011Y-35.433
X88.138Y-88.265
X88.443Y-116.488
X88.519Y-43.942
X88.519Y-46.736
X88.519Y-61.722
X88.544Y-122.479
X90.17Y-116.488
X90.17Y-121.666
X91.186Y-87.884
X91.351Y-115.1
X92.202Y-79.248
X92.202Y-81.153
X92.71Y-71.374
X92.837Y-62.23
X92.964Y-87.884
X93.218Y-121.031
X96.393Y-35.56
X97.282Y-87.884
X97.409Y-80.899
X97.536Y-111.887
X97.663Y-121.031
X99.06Y-103.378
X100.076Y-62.23
X100.076Y-71.374
X100.711Y-121.031
X101.219Y-37.719
X102.235Y-77.089
X103.251Y-74.295
X103.378Y-118.999
X103.886Y-49.53
X103.886Y-52.832
X104.902Y-76.708
X105.156Y-94.742
X105.537Y-37.719
X105.664Y-66.802
X108.103Y-81.433
X108.103Y-83.158
X108.839Y-55.88
X109.601Y-75.311
X110.363Y-66.802
X114.173Y-54.229
X114.554Y-42.291
X114.554Y-135.636
X116.205Y-83.693
X116.967Y-89.916
X118.237Y-83.693
X118.277Y-81.432
X124.46Y-55.245
X124.968Y-65.659
X127.508Y-65.659
X127.889Y-55.245
X133.477Y-141.351
X133.477Y-154.813
T3
X43.307Y-59.944
X43.307Y-72.644
X49.276Y-79.883
X57.782Y-88.0
X58.928Y-74.549
X59.182Y-67.437
X64.135Y-78.179
X65.5Y-89.0
X69.596Y-74.041
X72.022Y-75.959
X81.788Y-118.415
X83.566Y-70.612
X84.0Y-78.0
X89.916Y-73.787
X90.0Y-102.0
X91.821Y-35.687
X96.774Y-21.463
X96.774Y-23.263
X96.774Y-25.063
X96.774Y-26.863
X96.774Y-28.663
X98.774Y-21.463
X98.774Y-23.263
X98.774Y-25.063
X98.774Y-26.863
X98.774Y-28.663
X100.774Y-21.463
X100.774Y-23.263
X100.774Y-25.063
X100.774Y-26.863
X100.774Y-28.663
X102.743Y-57.785
X102.774Y-21.463
X102.774Y-23.263
X102.774Y-25.063
X102.774Y-26.863
X102.774Y-28.663
X104.774Y-21.463
X104.774Y-23.263
X104.774Y-25.063
X104.774Y-26.863
X104.774Y-28.663
X107.823Y-47.879
X118.11Y-48.006
X119.888Y-69.935
T4
X69.656Y-132.916
X69.656Y-135.456
X69.656Y-140.536
X69.656Y-145.616
X112.05Y-126.25
X114.59Y-126.25
X119.67Y-126.25
X124.75Y-126.25
T5
X15.748Y-55.118
X15.748Y-56.388
X15.748Y-57.658
X15.748Y-58.928
X15.748Y-60.198
X15.748Y-61.468
T6
X49.149Y-128.905
X49.657Y-49.276
X80.518Y-68.58
X82.702Y-142.189
X86.723Y-49.004
X92.075Y-111.506
X95.504Y-95.504
X95.504Y-117.094
X103.734Y-141.478
X119.761Y-142.24
T7
X31.75Y-84.963
X31.75Y-87.503
X31.75Y-90.043
X31.75Y-92.583
X31.75Y-95.123
X31.75Y-97.663
X31.75Y-100.203
X31.75Y-102.743
X31.75Y-106.299
X31.75Y-108.839
X31.75Y-111.379
X31.75Y-113.919
X31.75Y-116.459
X31.75Y-118.999
X31.75Y-121.539
X31.75Y-124.079
X31.867Y-76.115
X33.42Y-24.0
X33.42Y-32.0
X33.42Y-40.0
X34.407Y-76.115
X35.96Y-24.0
X35.96Y-32.0
X35.96Y-40.0
X36.947Y-76.115
X38.5Y-24.0
X38.5Y-32.0
X38.5Y-40.0
X39.37Y-84.963
X39.37Y-87.503
X39.37Y-90.043
X39.37Y-92.583
X39.37Y-95.123
X39.37Y-97.663
X39.37Y-100.203
X39.37Y-102.743
X39.37Y-106.299
X39.37Y-108.839
X39.37Y-111.379
X39.37Y-113.919
X39.37Y-116.459
X39.37Y-118.999
X39.37Y-121.539
X39.37Y-124.079
X39.487Y-76.115
X49.385Y-37.523
X49.385Y-40.063
X49.385Y-42.603
X49.385Y-45.143
X53.975Y-101.981
X53.975Y-109.601
X56.515Y-101.981
X56.515Y-109.601
X59.055Y-101.981
X59.055Y-109.601
X59.711Y-72.329
X59.711Y-77.209
X61.595Y-101.981
X61.595Y-109.601
X62.195Y-36.805
X69.815Y-36.805
X89.972Y-92.329
X93.472Y-92.329
X96.266Y-39.497
X96.266Y-42.997
T8
X127.355Y-80.622
X127.355Y-83.122
X129.355Y-80.622
X129.355Y-83.122
T9
X38.7Y-60.0
X46.3Y-60.0
X54.45Y-25.58
X55.835Y-22.74
X57.22Y-25.58
X58.605Y-22.74
X59.99Y-25.58
X61.375Y-22.74
X62.76Y-25.58
X64.145Y-22.74
X65.53Y-25.58
X93.599Y-32.385
X98.42Y-148.5
X99.805Y-151.34
X101.19Y-148.5
X102.268Y-42.291
X102.575Y-151.34
X103.96Y-148.5
X105.345Y-151.34
X106.73Y-148.5
X108.115Y-151.34
X109.5Y-148.5
X109.982Y-24.765
X112.268Y-42.291
X126.5Y-24.0
X130.0Y-24.0
X130.0Y-57.5
X130.0Y-61.5
X130.048Y-68.453
T10
X18.683Y-80.399
X18.683Y-85.479
X18.683Y-90.559
X18.683Y-95.639
X18.683Y-100.719
X18.683Y-105.799
X18.683Y-110.879
X18.683Y-115.959
X18.683Y-121.039
X18.683Y-126.119
T11
X18.526Y-25.5
X18.526Y-30.5
X18.526Y-35.5
X18.526Y-40.5
X35.5Y-151.0
X40.5Y-151.0
X45.5Y-151.0
X84.291Y-25.351
X89.291Y-25.351
X96.52Y-48.641
X100.33Y-48.641
X102.873Y-103.5
X104.873Y-97.5
X104.873Y-109.5
X117.072Y-97.5
X117.072Y-109.5
X130.0Y-98.5
X130.0Y-103.5
X130.0Y-108.5
T12
X132.065Y-75.852
X132.065Y-87.892
T13
X18.5Y-49.5
X18.5Y-151.0
X74.5Y-49.5
X74.5Y-151.0
X130.0Y-49.5
X130.0Y-151.0
T14
X47.49Y-25.28
X72.49Y-25.28
X91.46Y-148.8
X116.46Y-148.8
T2
G00X105.918Y-62.476
M15
G01X105.918Y-61.476
M16
G05
G00X110.918Y-62.476
M15
G01X110.918Y-61.476
M16
G05
M30
