%TF.GenerationSoftware,KiCad,Pcbnew,8.0.1*%
%TF.CreationDate,2024-04-11T20:56:08+03:00*%
%TF.ProjectId,stm32,73746d33-322e-46b6-9963-61645f706362,rev?*%
%TF.SameCoordinates,Original*%
%TF.FileFunction,Profile,NP*%
%FSLAX46Y46*%
G04 Gerber Fmt 4.6, Leading zero omitted, Abs format (unit mm)*
G04 Created by KiCad (PCBNEW 8.0.1) date 2024-04-11 20:56:08*
%MOMM*%
%LPD*%
G01*
G04 APERTURE LIST*
%TA.AperFunction,Profile*%
%ADD10C,0.150000*%
%TD*%
G04 APERTURE END LIST*
D10*
X101000000Y-106500000D02*
G75*
G02*
X100500000Y-106000000I0J500000D01*
G01*
X100500000Y-100500000D02*
G75*
G02*
X101000000Y-100000000I500000J0D01*
G01*
X114207000Y-95877000D02*
G75*
G02*
X114207000Y-95377000I0J250000D01*
G01*
X44355600Y-41587469D02*
G75*
G02*
X44355600Y-41079531I0J253969D01*
G01*
X61627600Y-41079469D02*
G75*
G02*
X61627600Y-41587531I0J-254031D01*
G01*
X101000000Y-100000000D02*
X109000000Y-100000000D01*
X13500000Y-19500000D02*
X13500000Y-156000000D01*
X100000000Y-100500000D02*
G75*
G02*
X101000000Y-99500000I1000000J0D01*
G01*
X100000000Y-100500000D02*
X100000000Y-106000000D01*
X13500000Y-156000000D02*
X135000000Y-156000000D01*
X132207000Y-95377000D02*
G75*
G02*
X132207000Y-95877000I0J-250000D01*
G01*
X109000000Y-99500000D02*
G75*
G02*
X109000000Y-100000000I0J-250000D01*
G01*
X132207000Y-95377000D02*
X114207000Y-95377000D01*
X109000000Y-106500000D02*
G75*
G02*
X109000000Y-107000000I0J-250000D01*
G01*
X101000000Y-107000000D02*
X109000000Y-107000000D01*
X100500000Y-106000000D02*
X100500000Y-100500000D01*
X35433000Y-72517000D02*
G75*
G02*
X35933000Y-72517000I250000J0D01*
G01*
X101000000Y-106500000D02*
X109000000Y-106500000D01*
X132334000Y-111260000D02*
G75*
G02*
X132334000Y-111760000I0J-250000D01*
G01*
X35933000Y-129017000D02*
G75*
G02*
X35433000Y-129017000I-250000J0D01*
G01*
X101000000Y-99500000D02*
X109000000Y-99500000D01*
X44355600Y-41079469D02*
X61627600Y-41079469D01*
X101000000Y-107000000D02*
G75*
G02*
X100000000Y-106000000I0J1000000D01*
G01*
X132334000Y-111260000D02*
X114334000Y-111260000D01*
X35433000Y-72517000D02*
X35433000Y-129017000D01*
X114334000Y-111760000D02*
G75*
G02*
X114334000Y-111260000I0J250000D01*
G01*
X114334000Y-111760000D02*
X132334000Y-111760000D01*
X135000000Y-19500000D02*
X135000000Y-156000000D01*
X35933000Y-129017000D02*
X35933000Y-72517000D01*
X114207000Y-95877000D02*
X132207000Y-95877000D01*
X13500000Y-19500000D02*
X135000000Y-19500000D01*
X44355600Y-41587469D02*
X61627600Y-41587469D01*
M02*
