G04 #@! TF.GenerationSoftware,KiCad,Pcbnew,5.1.4*
G04 #@! TF.CreationDate,2020-05-23T13:02:16+03:00*
G04 #@! TF.ProjectId,stm32,73746d33-322e-46b6-9963-61645f706362,rev?*
G04 #@! TF.SameCoordinates,Original*
G04 #@! TF.FileFunction,Copper,L2,Bot*
G04 #@! TF.FilePolarity,Positive*
%FSLAX46Y46*%
G04 Gerber Fmt 4.6, Leading zero omitted, Abs format (unit mm)*
G04 Created by KiCad (PCBNEW 5.1.4) date 2020-05-23 13:02:16*
%MOMM*%
%LPD*%
G04 APERTURE LIST*
%ADD10C,0.150000*%
%ADD11O,1.600000X1.600000*%
%ADD12C,1.600000*%
%ADD13R,2.000000X1.500000*%
%ADD14R,2.000000X3.800000*%
%ADD15C,0.100000*%
%ADD16C,0.950000*%
%ADD17C,1.350000*%
%ADD18C,2.600000*%
%ADD19R,2.600000X2.600000*%
%ADD20R,1.700000X1.700000*%
%ADD21O,1.700000X1.700000*%
%ADD22C,1.700000*%
%ADD23C,3.500000*%
%ADD24C,5.000000*%
%ADD25C,1.500000*%
%ADD26C,1.425000*%
%ADD27R,1.600000X1.600000*%
%ADD28C,0.650000*%
%ADD29C,1.000000*%
%ADD30C,0.300000*%
%ADD31C,0.500000*%
%ADD32C,0.254000*%
G04 APERTURE END LIST*
D10*
X61000000Y-75500000D02*
X125500000Y-75500000D01*
X61000000Y-49500000D02*
X61000000Y-75500000D01*
X125500000Y-50000000D02*
X125500000Y-49500000D01*
X61000000Y-49500000D02*
X125500000Y-49500000D01*
X83248500Y-55054500D02*
G75*
G02X84010500Y-55054500I381000J0D01*
G01*
X84010500Y-70612000D02*
G75*
G02X83248500Y-70612000I-381000J0D01*
G01*
X84010500Y-55054500D02*
X84010500Y-70612000D01*
X83248500Y-55054500D02*
X83248500Y-70612000D01*
X125500000Y-75500000D02*
X125500000Y-50000000D01*
D11*
X80645000Y-71247000D03*
D12*
X85725000Y-71247000D03*
D13*
X106920500Y-70181500D03*
X106920500Y-65581500D03*
X106920500Y-67881500D03*
D14*
X113220500Y-67881500D03*
D15*
G36*
X106623279Y-60944144D02*
G01*
X106646334Y-60947563D01*
X106668943Y-60953227D01*
X106690887Y-60961079D01*
X106711957Y-60971044D01*
X106731948Y-60983026D01*
X106750668Y-60996910D01*
X106767938Y-61012562D01*
X106783590Y-61029832D01*
X106797474Y-61048552D01*
X106809456Y-61068543D01*
X106819421Y-61089613D01*
X106827273Y-61111557D01*
X106832937Y-61134166D01*
X106836356Y-61157221D01*
X106837500Y-61180500D01*
X106837500Y-61755500D01*
X106836356Y-61778779D01*
X106832937Y-61801834D01*
X106827273Y-61824443D01*
X106819421Y-61846387D01*
X106809456Y-61867457D01*
X106797474Y-61887448D01*
X106783590Y-61906168D01*
X106767938Y-61923438D01*
X106750668Y-61939090D01*
X106731948Y-61952974D01*
X106711957Y-61964956D01*
X106690887Y-61974921D01*
X106668943Y-61982773D01*
X106646334Y-61988437D01*
X106623279Y-61991856D01*
X106600000Y-61993000D01*
X106125000Y-61993000D01*
X106101721Y-61991856D01*
X106078666Y-61988437D01*
X106056057Y-61982773D01*
X106034113Y-61974921D01*
X106013043Y-61964956D01*
X105993052Y-61952974D01*
X105974332Y-61939090D01*
X105957062Y-61923438D01*
X105941410Y-61906168D01*
X105927526Y-61887448D01*
X105915544Y-61867457D01*
X105905579Y-61846387D01*
X105897727Y-61824443D01*
X105892063Y-61801834D01*
X105888644Y-61778779D01*
X105887500Y-61755500D01*
X105887500Y-61180500D01*
X105888644Y-61157221D01*
X105892063Y-61134166D01*
X105897727Y-61111557D01*
X105905579Y-61089613D01*
X105915544Y-61068543D01*
X105927526Y-61048552D01*
X105941410Y-61029832D01*
X105957062Y-61012562D01*
X105974332Y-60996910D01*
X105993052Y-60983026D01*
X106013043Y-60971044D01*
X106034113Y-60961079D01*
X106056057Y-60953227D01*
X106078666Y-60947563D01*
X106101721Y-60944144D01*
X106125000Y-60943000D01*
X106600000Y-60943000D01*
X106623279Y-60944144D01*
X106623279Y-60944144D01*
G37*
D16*
X106362500Y-61468000D03*
D15*
G36*
X106623279Y-62694144D02*
G01*
X106646334Y-62697563D01*
X106668943Y-62703227D01*
X106690887Y-62711079D01*
X106711957Y-62721044D01*
X106731948Y-62733026D01*
X106750668Y-62746910D01*
X106767938Y-62762562D01*
X106783590Y-62779832D01*
X106797474Y-62798552D01*
X106809456Y-62818543D01*
X106819421Y-62839613D01*
X106827273Y-62861557D01*
X106832937Y-62884166D01*
X106836356Y-62907221D01*
X106837500Y-62930500D01*
X106837500Y-63505500D01*
X106836356Y-63528779D01*
X106832937Y-63551834D01*
X106827273Y-63574443D01*
X106819421Y-63596387D01*
X106809456Y-63617457D01*
X106797474Y-63637448D01*
X106783590Y-63656168D01*
X106767938Y-63673438D01*
X106750668Y-63689090D01*
X106731948Y-63702974D01*
X106711957Y-63714956D01*
X106690887Y-63724921D01*
X106668943Y-63732773D01*
X106646334Y-63738437D01*
X106623279Y-63741856D01*
X106600000Y-63743000D01*
X106125000Y-63743000D01*
X106101721Y-63741856D01*
X106078666Y-63738437D01*
X106056057Y-63732773D01*
X106034113Y-63724921D01*
X106013043Y-63714956D01*
X105993052Y-63702974D01*
X105974332Y-63689090D01*
X105957062Y-63673438D01*
X105941410Y-63656168D01*
X105927526Y-63637448D01*
X105915544Y-63617457D01*
X105905579Y-63596387D01*
X105897727Y-63574443D01*
X105892063Y-63551834D01*
X105888644Y-63528779D01*
X105887500Y-63505500D01*
X105887500Y-62930500D01*
X105888644Y-62907221D01*
X105892063Y-62884166D01*
X105897727Y-62861557D01*
X105905579Y-62839613D01*
X105915544Y-62818543D01*
X105927526Y-62798552D01*
X105941410Y-62779832D01*
X105957062Y-62762562D01*
X105974332Y-62746910D01*
X105993052Y-62733026D01*
X106013043Y-62721044D01*
X106034113Y-62711079D01*
X106056057Y-62703227D01*
X106078666Y-62697563D01*
X106101721Y-62694144D01*
X106125000Y-62693000D01*
X106600000Y-62693000D01*
X106623279Y-62694144D01*
X106623279Y-62694144D01*
G37*
D16*
X106362500Y-63218000D03*
D15*
G36*
X103954505Y-67158704D02*
G01*
X103978773Y-67162304D01*
X104002572Y-67168265D01*
X104025671Y-67176530D01*
X104047850Y-67187020D01*
X104068893Y-67199632D01*
X104088599Y-67214247D01*
X104106777Y-67230723D01*
X104123253Y-67248901D01*
X104137868Y-67268607D01*
X104150480Y-67289650D01*
X104160970Y-67311829D01*
X104169235Y-67334928D01*
X104175196Y-67358727D01*
X104178796Y-67382995D01*
X104180000Y-67407499D01*
X104180000Y-68482501D01*
X104178796Y-68507005D01*
X104175196Y-68531273D01*
X104169235Y-68555072D01*
X104160970Y-68578171D01*
X104150480Y-68600350D01*
X104137868Y-68621393D01*
X104123253Y-68641099D01*
X104106777Y-68659277D01*
X104088599Y-68675753D01*
X104068893Y-68690368D01*
X104047850Y-68702980D01*
X104025671Y-68713470D01*
X104002572Y-68721735D01*
X103978773Y-68727696D01*
X103954505Y-68731296D01*
X103930001Y-68732500D01*
X103079999Y-68732500D01*
X103055495Y-68731296D01*
X103031227Y-68727696D01*
X103007428Y-68721735D01*
X102984329Y-68713470D01*
X102962150Y-68702980D01*
X102941107Y-68690368D01*
X102921401Y-68675753D01*
X102903223Y-68659277D01*
X102886747Y-68641099D01*
X102872132Y-68621393D01*
X102859520Y-68600350D01*
X102849030Y-68578171D01*
X102840765Y-68555072D01*
X102834804Y-68531273D01*
X102831204Y-68507005D01*
X102830000Y-68482501D01*
X102830000Y-67407499D01*
X102831204Y-67382995D01*
X102834804Y-67358727D01*
X102840765Y-67334928D01*
X102849030Y-67311829D01*
X102859520Y-67289650D01*
X102872132Y-67268607D01*
X102886747Y-67248901D01*
X102903223Y-67230723D01*
X102921401Y-67214247D01*
X102941107Y-67199632D01*
X102962150Y-67187020D01*
X102984329Y-67176530D01*
X103007428Y-67168265D01*
X103031227Y-67162304D01*
X103055495Y-67158704D01*
X103079999Y-67157500D01*
X103930001Y-67157500D01*
X103954505Y-67158704D01*
X103954505Y-67158704D01*
G37*
D17*
X103505000Y-67945000D03*
D15*
G36*
X103954505Y-70033704D02*
G01*
X103978773Y-70037304D01*
X104002572Y-70043265D01*
X104025671Y-70051530D01*
X104047850Y-70062020D01*
X104068893Y-70074632D01*
X104088599Y-70089247D01*
X104106777Y-70105723D01*
X104123253Y-70123901D01*
X104137868Y-70143607D01*
X104150480Y-70164650D01*
X104160970Y-70186829D01*
X104169235Y-70209928D01*
X104175196Y-70233727D01*
X104178796Y-70257995D01*
X104180000Y-70282499D01*
X104180000Y-71357501D01*
X104178796Y-71382005D01*
X104175196Y-71406273D01*
X104169235Y-71430072D01*
X104160970Y-71453171D01*
X104150480Y-71475350D01*
X104137868Y-71496393D01*
X104123253Y-71516099D01*
X104106777Y-71534277D01*
X104088599Y-71550753D01*
X104068893Y-71565368D01*
X104047850Y-71577980D01*
X104025671Y-71588470D01*
X104002572Y-71596735D01*
X103978773Y-71602696D01*
X103954505Y-71606296D01*
X103930001Y-71607500D01*
X103079999Y-71607500D01*
X103055495Y-71606296D01*
X103031227Y-71602696D01*
X103007428Y-71596735D01*
X102984329Y-71588470D01*
X102962150Y-71577980D01*
X102941107Y-71565368D01*
X102921401Y-71550753D01*
X102903223Y-71534277D01*
X102886747Y-71516099D01*
X102872132Y-71496393D01*
X102859520Y-71475350D01*
X102849030Y-71453171D01*
X102840765Y-71430072D01*
X102834804Y-71406273D01*
X102831204Y-71382005D01*
X102830000Y-71357501D01*
X102830000Y-70282499D01*
X102831204Y-70257995D01*
X102834804Y-70233727D01*
X102840765Y-70209928D01*
X102849030Y-70186829D01*
X102859520Y-70164650D01*
X102872132Y-70143607D01*
X102886747Y-70123901D01*
X102903223Y-70105723D01*
X102921401Y-70089247D01*
X102941107Y-70074632D01*
X102962150Y-70062020D01*
X102984329Y-70051530D01*
X103007428Y-70043265D01*
X103031227Y-70037304D01*
X103055495Y-70033704D01*
X103079999Y-70032500D01*
X103930001Y-70032500D01*
X103954505Y-70033704D01*
X103954505Y-70033704D01*
G37*
D17*
X103505000Y-70820000D03*
D15*
G36*
X107272779Y-72233644D02*
G01*
X107295834Y-72237063D01*
X107318443Y-72242727D01*
X107340387Y-72250579D01*
X107361457Y-72260544D01*
X107381448Y-72272526D01*
X107400168Y-72286410D01*
X107417438Y-72302062D01*
X107433090Y-72319332D01*
X107446974Y-72338052D01*
X107458956Y-72358043D01*
X107468921Y-72379113D01*
X107476773Y-72401057D01*
X107482437Y-72423666D01*
X107485856Y-72446721D01*
X107487000Y-72470000D01*
X107487000Y-72945000D01*
X107485856Y-72968279D01*
X107482437Y-72991334D01*
X107476773Y-73013943D01*
X107468921Y-73035887D01*
X107458956Y-73056957D01*
X107446974Y-73076948D01*
X107433090Y-73095668D01*
X107417438Y-73112938D01*
X107400168Y-73128590D01*
X107381448Y-73142474D01*
X107361457Y-73154456D01*
X107340387Y-73164421D01*
X107318443Y-73172273D01*
X107295834Y-73177937D01*
X107272779Y-73181356D01*
X107249500Y-73182500D01*
X106674500Y-73182500D01*
X106651221Y-73181356D01*
X106628166Y-73177937D01*
X106605557Y-73172273D01*
X106583613Y-73164421D01*
X106562543Y-73154456D01*
X106542552Y-73142474D01*
X106523832Y-73128590D01*
X106506562Y-73112938D01*
X106490910Y-73095668D01*
X106477026Y-73076948D01*
X106465044Y-73056957D01*
X106455079Y-73035887D01*
X106447227Y-73013943D01*
X106441563Y-72991334D01*
X106438144Y-72968279D01*
X106437000Y-72945000D01*
X106437000Y-72470000D01*
X106438144Y-72446721D01*
X106441563Y-72423666D01*
X106447227Y-72401057D01*
X106455079Y-72379113D01*
X106465044Y-72358043D01*
X106477026Y-72338052D01*
X106490910Y-72319332D01*
X106506562Y-72302062D01*
X106523832Y-72286410D01*
X106542552Y-72272526D01*
X106562543Y-72260544D01*
X106583613Y-72250579D01*
X106605557Y-72242727D01*
X106628166Y-72237063D01*
X106651221Y-72233644D01*
X106674500Y-72232500D01*
X107249500Y-72232500D01*
X107272779Y-72233644D01*
X107272779Y-72233644D01*
G37*
D16*
X106962000Y-72707500D03*
D15*
G36*
X109022779Y-72233644D02*
G01*
X109045834Y-72237063D01*
X109068443Y-72242727D01*
X109090387Y-72250579D01*
X109111457Y-72260544D01*
X109131448Y-72272526D01*
X109150168Y-72286410D01*
X109167438Y-72302062D01*
X109183090Y-72319332D01*
X109196974Y-72338052D01*
X109208956Y-72358043D01*
X109218921Y-72379113D01*
X109226773Y-72401057D01*
X109232437Y-72423666D01*
X109235856Y-72446721D01*
X109237000Y-72470000D01*
X109237000Y-72945000D01*
X109235856Y-72968279D01*
X109232437Y-72991334D01*
X109226773Y-73013943D01*
X109218921Y-73035887D01*
X109208956Y-73056957D01*
X109196974Y-73076948D01*
X109183090Y-73095668D01*
X109167438Y-73112938D01*
X109150168Y-73128590D01*
X109131448Y-73142474D01*
X109111457Y-73154456D01*
X109090387Y-73164421D01*
X109068443Y-73172273D01*
X109045834Y-73177937D01*
X109022779Y-73181356D01*
X108999500Y-73182500D01*
X108424500Y-73182500D01*
X108401221Y-73181356D01*
X108378166Y-73177937D01*
X108355557Y-73172273D01*
X108333613Y-73164421D01*
X108312543Y-73154456D01*
X108292552Y-73142474D01*
X108273832Y-73128590D01*
X108256562Y-73112938D01*
X108240910Y-73095668D01*
X108227026Y-73076948D01*
X108215044Y-73056957D01*
X108205079Y-73035887D01*
X108197227Y-73013943D01*
X108191563Y-72991334D01*
X108188144Y-72968279D01*
X108187000Y-72945000D01*
X108187000Y-72470000D01*
X108188144Y-72446721D01*
X108191563Y-72423666D01*
X108197227Y-72401057D01*
X108205079Y-72379113D01*
X108215044Y-72358043D01*
X108227026Y-72338052D01*
X108240910Y-72319332D01*
X108256562Y-72302062D01*
X108273832Y-72286410D01*
X108292552Y-72272526D01*
X108312543Y-72260544D01*
X108333613Y-72250579D01*
X108355557Y-72242727D01*
X108378166Y-72237063D01*
X108401221Y-72233644D01*
X108424500Y-72232500D01*
X108999500Y-72232500D01*
X109022779Y-72233644D01*
X109022779Y-72233644D01*
G37*
D16*
X108712000Y-72707500D03*
D18*
X66802000Y-67658000D03*
X66802000Y-62658000D03*
D19*
X66802000Y-57658000D03*
D20*
X91567000Y-52451000D03*
D21*
X94107000Y-52451000D03*
X96647000Y-52451000D03*
X99187000Y-52451000D03*
X101727000Y-52451000D03*
X104267000Y-52451000D03*
D20*
X117221000Y-64071500D03*
D22*
X117221000Y-61571500D03*
X119221000Y-61571500D03*
X119221000Y-64071500D03*
D23*
X121931000Y-68841500D03*
X121931000Y-56801500D03*
D24*
X74500000Y-53500000D03*
X117500000Y-53500000D03*
X117500000Y-72000000D03*
X74500000Y-72000000D03*
D25*
X87439500Y-58801000D03*
X84899500Y-58801000D03*
X82359500Y-58801000D03*
X79819500Y-58801000D03*
D15*
G36*
X75902504Y-60756704D02*
G01*
X75926773Y-60760304D01*
X75950571Y-60766265D01*
X75973671Y-60774530D01*
X75995849Y-60785020D01*
X76016893Y-60797633D01*
X76036598Y-60812247D01*
X76054777Y-60828723D01*
X76071253Y-60846902D01*
X76085867Y-60866607D01*
X76098480Y-60887651D01*
X76108970Y-60909829D01*
X76117235Y-60932929D01*
X76123196Y-60956727D01*
X76126796Y-60980996D01*
X76128000Y-61005500D01*
X76128000Y-61930500D01*
X76126796Y-61955004D01*
X76123196Y-61979273D01*
X76117235Y-62003071D01*
X76108970Y-62026171D01*
X76098480Y-62048349D01*
X76085867Y-62069393D01*
X76071253Y-62089098D01*
X76054777Y-62107277D01*
X76036598Y-62123753D01*
X76016893Y-62138367D01*
X75995849Y-62150980D01*
X75973671Y-62161470D01*
X75950571Y-62169735D01*
X75926773Y-62175696D01*
X75902504Y-62179296D01*
X75878000Y-62180500D01*
X73728000Y-62180500D01*
X73703496Y-62179296D01*
X73679227Y-62175696D01*
X73655429Y-62169735D01*
X73632329Y-62161470D01*
X73610151Y-62150980D01*
X73589107Y-62138367D01*
X73569402Y-62123753D01*
X73551223Y-62107277D01*
X73534747Y-62089098D01*
X73520133Y-62069393D01*
X73507520Y-62048349D01*
X73497030Y-62026171D01*
X73488765Y-62003071D01*
X73482804Y-61979273D01*
X73479204Y-61955004D01*
X73478000Y-61930500D01*
X73478000Y-61005500D01*
X73479204Y-60980996D01*
X73482804Y-60956727D01*
X73488765Y-60932929D01*
X73497030Y-60909829D01*
X73507520Y-60887651D01*
X73520133Y-60866607D01*
X73534747Y-60846902D01*
X73551223Y-60828723D01*
X73569402Y-60812247D01*
X73589107Y-60797633D01*
X73610151Y-60785020D01*
X73632329Y-60774530D01*
X73655429Y-60766265D01*
X73679227Y-60760304D01*
X73703496Y-60756704D01*
X73728000Y-60755500D01*
X75878000Y-60755500D01*
X75902504Y-60756704D01*
X75902504Y-60756704D01*
G37*
D26*
X74803000Y-61468000D03*
D15*
G36*
X75902504Y-63731704D02*
G01*
X75926773Y-63735304D01*
X75950571Y-63741265D01*
X75973671Y-63749530D01*
X75995849Y-63760020D01*
X76016893Y-63772633D01*
X76036598Y-63787247D01*
X76054777Y-63803723D01*
X76071253Y-63821902D01*
X76085867Y-63841607D01*
X76098480Y-63862651D01*
X76108970Y-63884829D01*
X76117235Y-63907929D01*
X76123196Y-63931727D01*
X76126796Y-63955996D01*
X76128000Y-63980500D01*
X76128000Y-64905500D01*
X76126796Y-64930004D01*
X76123196Y-64954273D01*
X76117235Y-64978071D01*
X76108970Y-65001171D01*
X76098480Y-65023349D01*
X76085867Y-65044393D01*
X76071253Y-65064098D01*
X76054777Y-65082277D01*
X76036598Y-65098753D01*
X76016893Y-65113367D01*
X75995849Y-65125980D01*
X75973671Y-65136470D01*
X75950571Y-65144735D01*
X75926773Y-65150696D01*
X75902504Y-65154296D01*
X75878000Y-65155500D01*
X73728000Y-65155500D01*
X73703496Y-65154296D01*
X73679227Y-65150696D01*
X73655429Y-65144735D01*
X73632329Y-65136470D01*
X73610151Y-65125980D01*
X73589107Y-65113367D01*
X73569402Y-65098753D01*
X73551223Y-65082277D01*
X73534747Y-65064098D01*
X73520133Y-65044393D01*
X73507520Y-65023349D01*
X73497030Y-65001171D01*
X73488765Y-64978071D01*
X73482804Y-64954273D01*
X73479204Y-64930004D01*
X73478000Y-64905500D01*
X73478000Y-63980500D01*
X73479204Y-63955996D01*
X73482804Y-63931727D01*
X73488765Y-63907929D01*
X73497030Y-63884829D01*
X73507520Y-63862651D01*
X73520133Y-63841607D01*
X73534747Y-63821902D01*
X73551223Y-63803723D01*
X73569402Y-63787247D01*
X73589107Y-63772633D01*
X73610151Y-63760020D01*
X73632329Y-63749530D01*
X73655429Y-63741265D01*
X73679227Y-63735304D01*
X73703496Y-63731704D01*
X73728000Y-63730500D01*
X75878000Y-63730500D01*
X75902504Y-63731704D01*
X75902504Y-63731704D01*
G37*
D26*
X74803000Y-64443000D03*
D27*
X74803000Y-66992500D03*
D11*
X74803000Y-59372500D03*
D15*
G36*
X89182928Y-60762782D02*
G01*
X89198702Y-60765122D01*
X89214171Y-60768997D01*
X89229186Y-60774370D01*
X89243602Y-60781188D01*
X89257280Y-60789386D01*
X89270089Y-60798886D01*
X89281905Y-60809595D01*
X89292614Y-60821411D01*
X89302114Y-60834220D01*
X89310312Y-60847898D01*
X89317130Y-60862314D01*
X89322503Y-60877329D01*
X89326378Y-60892798D01*
X89328718Y-60908572D01*
X89329500Y-60924500D01*
X89329500Y-61249500D01*
X89328718Y-61265428D01*
X89326378Y-61281202D01*
X89322503Y-61296671D01*
X89317130Y-61311686D01*
X89310312Y-61326102D01*
X89302114Y-61339780D01*
X89292614Y-61352589D01*
X89281905Y-61364405D01*
X89270089Y-61375114D01*
X89257280Y-61384614D01*
X89243602Y-61392812D01*
X89229186Y-61399630D01*
X89214171Y-61405003D01*
X89198702Y-61408878D01*
X89182928Y-61411218D01*
X89167000Y-61412000D01*
X87142000Y-61412000D01*
X87126072Y-61411218D01*
X87110298Y-61408878D01*
X87094829Y-61405003D01*
X87079814Y-61399630D01*
X87065398Y-61392812D01*
X87051720Y-61384614D01*
X87038911Y-61375114D01*
X87027095Y-61364405D01*
X87016386Y-61352589D01*
X87006886Y-61339780D01*
X86998688Y-61326102D01*
X86991870Y-61311686D01*
X86986497Y-61296671D01*
X86982622Y-61281202D01*
X86980282Y-61265428D01*
X86979500Y-61249500D01*
X86979500Y-60924500D01*
X86980282Y-60908572D01*
X86982622Y-60892798D01*
X86986497Y-60877329D01*
X86991870Y-60862314D01*
X86998688Y-60847898D01*
X87006886Y-60834220D01*
X87016386Y-60821411D01*
X87027095Y-60809595D01*
X87038911Y-60798886D01*
X87051720Y-60789386D01*
X87065398Y-60781188D01*
X87079814Y-60774370D01*
X87094829Y-60768997D01*
X87110298Y-60765122D01*
X87126072Y-60762782D01*
X87142000Y-60762000D01*
X89167000Y-60762000D01*
X89182928Y-60762782D01*
X89182928Y-60762782D01*
G37*
D28*
X88154500Y-61087000D03*
D15*
G36*
X89182928Y-63302782D02*
G01*
X89198702Y-63305122D01*
X89214171Y-63308997D01*
X89229186Y-63314370D01*
X89243602Y-63321188D01*
X89257280Y-63329386D01*
X89270089Y-63338886D01*
X89281905Y-63349595D01*
X89292614Y-63361411D01*
X89302114Y-63374220D01*
X89310312Y-63387898D01*
X89317130Y-63402314D01*
X89322503Y-63417329D01*
X89326378Y-63432798D01*
X89328718Y-63448572D01*
X89329500Y-63464500D01*
X89329500Y-63789500D01*
X89328718Y-63805428D01*
X89326378Y-63821202D01*
X89322503Y-63836671D01*
X89317130Y-63851686D01*
X89310312Y-63866102D01*
X89302114Y-63879780D01*
X89292614Y-63892589D01*
X89281905Y-63904405D01*
X89270089Y-63915114D01*
X89257280Y-63924614D01*
X89243602Y-63932812D01*
X89229186Y-63939630D01*
X89214171Y-63945003D01*
X89198702Y-63948878D01*
X89182928Y-63951218D01*
X89167000Y-63952000D01*
X87142000Y-63952000D01*
X87126072Y-63951218D01*
X87110298Y-63948878D01*
X87094829Y-63945003D01*
X87079814Y-63939630D01*
X87065398Y-63932812D01*
X87051720Y-63924614D01*
X87038911Y-63915114D01*
X87027095Y-63904405D01*
X87016386Y-63892589D01*
X87006886Y-63879780D01*
X86998688Y-63866102D01*
X86991870Y-63851686D01*
X86986497Y-63836671D01*
X86982622Y-63821202D01*
X86980282Y-63805428D01*
X86979500Y-63789500D01*
X86979500Y-63464500D01*
X86980282Y-63448572D01*
X86982622Y-63432798D01*
X86986497Y-63417329D01*
X86991870Y-63402314D01*
X86998688Y-63387898D01*
X87006886Y-63374220D01*
X87016386Y-63361411D01*
X87027095Y-63349595D01*
X87038911Y-63338886D01*
X87051720Y-63329386D01*
X87065398Y-63321188D01*
X87079814Y-63314370D01*
X87094829Y-63308997D01*
X87110298Y-63305122D01*
X87126072Y-63302782D01*
X87142000Y-63302000D01*
X89167000Y-63302000D01*
X89182928Y-63302782D01*
X89182928Y-63302782D01*
G37*
D28*
X88154500Y-63627000D03*
D15*
G36*
X89182928Y-65842782D02*
G01*
X89198702Y-65845122D01*
X89214171Y-65848997D01*
X89229186Y-65854370D01*
X89243602Y-65861188D01*
X89257280Y-65869386D01*
X89270089Y-65878886D01*
X89281905Y-65889595D01*
X89292614Y-65901411D01*
X89302114Y-65914220D01*
X89310312Y-65927898D01*
X89317130Y-65942314D01*
X89322503Y-65957329D01*
X89326378Y-65972798D01*
X89328718Y-65988572D01*
X89329500Y-66004500D01*
X89329500Y-66329500D01*
X89328718Y-66345428D01*
X89326378Y-66361202D01*
X89322503Y-66376671D01*
X89317130Y-66391686D01*
X89310312Y-66406102D01*
X89302114Y-66419780D01*
X89292614Y-66432589D01*
X89281905Y-66444405D01*
X89270089Y-66455114D01*
X89257280Y-66464614D01*
X89243602Y-66472812D01*
X89229186Y-66479630D01*
X89214171Y-66485003D01*
X89198702Y-66488878D01*
X89182928Y-66491218D01*
X89167000Y-66492000D01*
X87142000Y-66492000D01*
X87126072Y-66491218D01*
X87110298Y-66488878D01*
X87094829Y-66485003D01*
X87079814Y-66479630D01*
X87065398Y-66472812D01*
X87051720Y-66464614D01*
X87038911Y-66455114D01*
X87027095Y-66444405D01*
X87016386Y-66432589D01*
X87006886Y-66419780D01*
X86998688Y-66406102D01*
X86991870Y-66391686D01*
X86986497Y-66376671D01*
X86982622Y-66361202D01*
X86980282Y-66345428D01*
X86979500Y-66329500D01*
X86979500Y-66004500D01*
X86980282Y-65988572D01*
X86982622Y-65972798D01*
X86986497Y-65957329D01*
X86991870Y-65942314D01*
X86998688Y-65927898D01*
X87006886Y-65914220D01*
X87016386Y-65901411D01*
X87027095Y-65889595D01*
X87038911Y-65878886D01*
X87051720Y-65869386D01*
X87065398Y-65861188D01*
X87079814Y-65854370D01*
X87094829Y-65848997D01*
X87110298Y-65845122D01*
X87126072Y-65842782D01*
X87142000Y-65842000D01*
X89167000Y-65842000D01*
X89182928Y-65842782D01*
X89182928Y-65842782D01*
G37*
D28*
X88154500Y-66167000D03*
D15*
G36*
X89182928Y-68382782D02*
G01*
X89198702Y-68385122D01*
X89214171Y-68388997D01*
X89229186Y-68394370D01*
X89243602Y-68401188D01*
X89257280Y-68409386D01*
X89270089Y-68418886D01*
X89281905Y-68429595D01*
X89292614Y-68441411D01*
X89302114Y-68454220D01*
X89310312Y-68467898D01*
X89317130Y-68482314D01*
X89322503Y-68497329D01*
X89326378Y-68512798D01*
X89328718Y-68528572D01*
X89329500Y-68544500D01*
X89329500Y-68869500D01*
X89328718Y-68885428D01*
X89326378Y-68901202D01*
X89322503Y-68916671D01*
X89317130Y-68931686D01*
X89310312Y-68946102D01*
X89302114Y-68959780D01*
X89292614Y-68972589D01*
X89281905Y-68984405D01*
X89270089Y-68995114D01*
X89257280Y-69004614D01*
X89243602Y-69012812D01*
X89229186Y-69019630D01*
X89214171Y-69025003D01*
X89198702Y-69028878D01*
X89182928Y-69031218D01*
X89167000Y-69032000D01*
X87142000Y-69032000D01*
X87126072Y-69031218D01*
X87110298Y-69028878D01*
X87094829Y-69025003D01*
X87079814Y-69019630D01*
X87065398Y-69012812D01*
X87051720Y-69004614D01*
X87038911Y-68995114D01*
X87027095Y-68984405D01*
X87016386Y-68972589D01*
X87006886Y-68959780D01*
X86998688Y-68946102D01*
X86991870Y-68931686D01*
X86986497Y-68916671D01*
X86982622Y-68901202D01*
X86980282Y-68885428D01*
X86979500Y-68869500D01*
X86979500Y-68544500D01*
X86980282Y-68528572D01*
X86982622Y-68512798D01*
X86986497Y-68497329D01*
X86991870Y-68482314D01*
X86998688Y-68467898D01*
X87006886Y-68454220D01*
X87016386Y-68441411D01*
X87027095Y-68429595D01*
X87038911Y-68418886D01*
X87051720Y-68409386D01*
X87065398Y-68401188D01*
X87079814Y-68394370D01*
X87094829Y-68388997D01*
X87110298Y-68385122D01*
X87126072Y-68382782D01*
X87142000Y-68382000D01*
X89167000Y-68382000D01*
X89182928Y-68382782D01*
X89182928Y-68382782D01*
G37*
D28*
X88154500Y-68707000D03*
D15*
G36*
X80132928Y-68382782D02*
G01*
X80148702Y-68385122D01*
X80164171Y-68388997D01*
X80179186Y-68394370D01*
X80193602Y-68401188D01*
X80207280Y-68409386D01*
X80220089Y-68418886D01*
X80231905Y-68429595D01*
X80242614Y-68441411D01*
X80252114Y-68454220D01*
X80260312Y-68467898D01*
X80267130Y-68482314D01*
X80272503Y-68497329D01*
X80276378Y-68512798D01*
X80278718Y-68528572D01*
X80279500Y-68544500D01*
X80279500Y-68869500D01*
X80278718Y-68885428D01*
X80276378Y-68901202D01*
X80272503Y-68916671D01*
X80267130Y-68931686D01*
X80260312Y-68946102D01*
X80252114Y-68959780D01*
X80242614Y-68972589D01*
X80231905Y-68984405D01*
X80220089Y-68995114D01*
X80207280Y-69004614D01*
X80193602Y-69012812D01*
X80179186Y-69019630D01*
X80164171Y-69025003D01*
X80148702Y-69028878D01*
X80132928Y-69031218D01*
X80117000Y-69032000D01*
X78092000Y-69032000D01*
X78076072Y-69031218D01*
X78060298Y-69028878D01*
X78044829Y-69025003D01*
X78029814Y-69019630D01*
X78015398Y-69012812D01*
X78001720Y-69004614D01*
X77988911Y-68995114D01*
X77977095Y-68984405D01*
X77966386Y-68972589D01*
X77956886Y-68959780D01*
X77948688Y-68946102D01*
X77941870Y-68931686D01*
X77936497Y-68916671D01*
X77932622Y-68901202D01*
X77930282Y-68885428D01*
X77929500Y-68869500D01*
X77929500Y-68544500D01*
X77930282Y-68528572D01*
X77932622Y-68512798D01*
X77936497Y-68497329D01*
X77941870Y-68482314D01*
X77948688Y-68467898D01*
X77956886Y-68454220D01*
X77966386Y-68441411D01*
X77977095Y-68429595D01*
X77988911Y-68418886D01*
X78001720Y-68409386D01*
X78015398Y-68401188D01*
X78029814Y-68394370D01*
X78044829Y-68388997D01*
X78060298Y-68385122D01*
X78076072Y-68382782D01*
X78092000Y-68382000D01*
X80117000Y-68382000D01*
X80132928Y-68382782D01*
X80132928Y-68382782D01*
G37*
D28*
X79104500Y-68707000D03*
D15*
G36*
X80132928Y-65842782D02*
G01*
X80148702Y-65845122D01*
X80164171Y-65848997D01*
X80179186Y-65854370D01*
X80193602Y-65861188D01*
X80207280Y-65869386D01*
X80220089Y-65878886D01*
X80231905Y-65889595D01*
X80242614Y-65901411D01*
X80252114Y-65914220D01*
X80260312Y-65927898D01*
X80267130Y-65942314D01*
X80272503Y-65957329D01*
X80276378Y-65972798D01*
X80278718Y-65988572D01*
X80279500Y-66004500D01*
X80279500Y-66329500D01*
X80278718Y-66345428D01*
X80276378Y-66361202D01*
X80272503Y-66376671D01*
X80267130Y-66391686D01*
X80260312Y-66406102D01*
X80252114Y-66419780D01*
X80242614Y-66432589D01*
X80231905Y-66444405D01*
X80220089Y-66455114D01*
X80207280Y-66464614D01*
X80193602Y-66472812D01*
X80179186Y-66479630D01*
X80164171Y-66485003D01*
X80148702Y-66488878D01*
X80132928Y-66491218D01*
X80117000Y-66492000D01*
X78092000Y-66492000D01*
X78076072Y-66491218D01*
X78060298Y-66488878D01*
X78044829Y-66485003D01*
X78029814Y-66479630D01*
X78015398Y-66472812D01*
X78001720Y-66464614D01*
X77988911Y-66455114D01*
X77977095Y-66444405D01*
X77966386Y-66432589D01*
X77956886Y-66419780D01*
X77948688Y-66406102D01*
X77941870Y-66391686D01*
X77936497Y-66376671D01*
X77932622Y-66361202D01*
X77930282Y-66345428D01*
X77929500Y-66329500D01*
X77929500Y-66004500D01*
X77930282Y-65988572D01*
X77932622Y-65972798D01*
X77936497Y-65957329D01*
X77941870Y-65942314D01*
X77948688Y-65927898D01*
X77956886Y-65914220D01*
X77966386Y-65901411D01*
X77977095Y-65889595D01*
X77988911Y-65878886D01*
X78001720Y-65869386D01*
X78015398Y-65861188D01*
X78029814Y-65854370D01*
X78044829Y-65848997D01*
X78060298Y-65845122D01*
X78076072Y-65842782D01*
X78092000Y-65842000D01*
X80117000Y-65842000D01*
X80132928Y-65842782D01*
X80132928Y-65842782D01*
G37*
D28*
X79104500Y-66167000D03*
D15*
G36*
X80132928Y-63302782D02*
G01*
X80148702Y-63305122D01*
X80164171Y-63308997D01*
X80179186Y-63314370D01*
X80193602Y-63321188D01*
X80207280Y-63329386D01*
X80220089Y-63338886D01*
X80231905Y-63349595D01*
X80242614Y-63361411D01*
X80252114Y-63374220D01*
X80260312Y-63387898D01*
X80267130Y-63402314D01*
X80272503Y-63417329D01*
X80276378Y-63432798D01*
X80278718Y-63448572D01*
X80279500Y-63464500D01*
X80279500Y-63789500D01*
X80278718Y-63805428D01*
X80276378Y-63821202D01*
X80272503Y-63836671D01*
X80267130Y-63851686D01*
X80260312Y-63866102D01*
X80252114Y-63879780D01*
X80242614Y-63892589D01*
X80231905Y-63904405D01*
X80220089Y-63915114D01*
X80207280Y-63924614D01*
X80193602Y-63932812D01*
X80179186Y-63939630D01*
X80164171Y-63945003D01*
X80148702Y-63948878D01*
X80132928Y-63951218D01*
X80117000Y-63952000D01*
X78092000Y-63952000D01*
X78076072Y-63951218D01*
X78060298Y-63948878D01*
X78044829Y-63945003D01*
X78029814Y-63939630D01*
X78015398Y-63932812D01*
X78001720Y-63924614D01*
X77988911Y-63915114D01*
X77977095Y-63904405D01*
X77966386Y-63892589D01*
X77956886Y-63879780D01*
X77948688Y-63866102D01*
X77941870Y-63851686D01*
X77936497Y-63836671D01*
X77932622Y-63821202D01*
X77930282Y-63805428D01*
X77929500Y-63789500D01*
X77929500Y-63464500D01*
X77930282Y-63448572D01*
X77932622Y-63432798D01*
X77936497Y-63417329D01*
X77941870Y-63402314D01*
X77948688Y-63387898D01*
X77956886Y-63374220D01*
X77966386Y-63361411D01*
X77977095Y-63349595D01*
X77988911Y-63338886D01*
X78001720Y-63329386D01*
X78015398Y-63321188D01*
X78029814Y-63314370D01*
X78044829Y-63308997D01*
X78060298Y-63305122D01*
X78076072Y-63302782D01*
X78092000Y-63302000D01*
X80117000Y-63302000D01*
X80132928Y-63302782D01*
X80132928Y-63302782D01*
G37*
D28*
X79104500Y-63627000D03*
D15*
G36*
X80132928Y-60762782D02*
G01*
X80148702Y-60765122D01*
X80164171Y-60768997D01*
X80179186Y-60774370D01*
X80193602Y-60781188D01*
X80207280Y-60789386D01*
X80220089Y-60798886D01*
X80231905Y-60809595D01*
X80242614Y-60821411D01*
X80252114Y-60834220D01*
X80260312Y-60847898D01*
X80267130Y-60862314D01*
X80272503Y-60877329D01*
X80276378Y-60892798D01*
X80278718Y-60908572D01*
X80279500Y-60924500D01*
X80279500Y-61249500D01*
X80278718Y-61265428D01*
X80276378Y-61281202D01*
X80272503Y-61296671D01*
X80267130Y-61311686D01*
X80260312Y-61326102D01*
X80252114Y-61339780D01*
X80242614Y-61352589D01*
X80231905Y-61364405D01*
X80220089Y-61375114D01*
X80207280Y-61384614D01*
X80193602Y-61392812D01*
X80179186Y-61399630D01*
X80164171Y-61405003D01*
X80148702Y-61408878D01*
X80132928Y-61411218D01*
X80117000Y-61412000D01*
X78092000Y-61412000D01*
X78076072Y-61411218D01*
X78060298Y-61408878D01*
X78044829Y-61405003D01*
X78029814Y-61399630D01*
X78015398Y-61392812D01*
X78001720Y-61384614D01*
X77988911Y-61375114D01*
X77977095Y-61364405D01*
X77966386Y-61352589D01*
X77956886Y-61339780D01*
X77948688Y-61326102D01*
X77941870Y-61311686D01*
X77936497Y-61296671D01*
X77932622Y-61281202D01*
X77930282Y-61265428D01*
X77929500Y-61249500D01*
X77929500Y-60924500D01*
X77930282Y-60908572D01*
X77932622Y-60892798D01*
X77936497Y-60877329D01*
X77941870Y-60862314D01*
X77948688Y-60847898D01*
X77956886Y-60834220D01*
X77966386Y-60821411D01*
X77977095Y-60809595D01*
X77988911Y-60798886D01*
X78001720Y-60789386D01*
X78015398Y-60781188D01*
X78029814Y-60774370D01*
X78044829Y-60768997D01*
X78060298Y-60765122D01*
X78076072Y-60762782D01*
X78092000Y-60762000D01*
X80117000Y-60762000D01*
X80132928Y-60762782D01*
X80132928Y-60762782D01*
G37*
D28*
X79104500Y-61087000D03*
D29*
X93958113Y-56663887D03*
X106324400Y-58166000D03*
X91287600Y-60147200D03*
X104851200Y-64770000D03*
X113233200Y-72491600D03*
X103682800Y-65836800D03*
X91236800Y-66548000D03*
X102837714Y-59149714D03*
X108864400Y-65582800D03*
D25*
X94843600Y-54864000D03*
X106476800Y-54864000D03*
D29*
X97790000Y-60299600D03*
X88000000Y-67000000D03*
X95808800Y-61366400D03*
X88000000Y-62500000D03*
X96469200Y-60248800D03*
X79121000Y-64770000D03*
X99872800Y-60858400D03*
X100778641Y-56989041D03*
D30*
X93251007Y-56663887D02*
X93222094Y-56692800D01*
X93958113Y-56663887D02*
X93251007Y-56663887D01*
X89547700Y-56692800D02*
X87439500Y-58801000D01*
X93222094Y-56692800D02*
X89547700Y-56692800D01*
X106362500Y-58204100D02*
X106324400Y-58166000D01*
X106362500Y-61468000D02*
X106362500Y-58204100D01*
X89941400Y-58801000D02*
X87439500Y-58801000D01*
X91287600Y-60147200D02*
X89941400Y-58801000D01*
X104851200Y-64062894D02*
X104902000Y-64012094D01*
X104851200Y-64770000D02*
X104851200Y-64062894D01*
X104902000Y-62928500D02*
X104851200Y-62877700D01*
X104902000Y-64012094D02*
X104902000Y-62928500D01*
X104952800Y-62877700D02*
X105105200Y-62725300D01*
X104851200Y-62877700D02*
X104952800Y-62877700D01*
X105105200Y-62725300D02*
X105105200Y-61366400D01*
X105206800Y-61468000D02*
X106362500Y-61468000D01*
X105105200Y-61366400D02*
X105206800Y-61468000D01*
D31*
X106857000Y-67945000D02*
X106920500Y-67881500D01*
X103505000Y-67945000D02*
X106857000Y-67945000D01*
X106920500Y-67881500D02*
X113220500Y-67881500D01*
X108712000Y-72707500D02*
X111391700Y-72707500D01*
X113220500Y-70878700D02*
X113220500Y-67881500D01*
X111391700Y-72707500D02*
X113220500Y-70878700D01*
X113220500Y-72478900D02*
X113233200Y-72491600D01*
X113220500Y-70878700D02*
X113220500Y-72478900D01*
X103505000Y-66014600D02*
X103682800Y-65836800D01*
X103505000Y-67945000D02*
X103505000Y-66014600D01*
X92633800Y-67945000D02*
X91236800Y-66548000D01*
X103505000Y-67945000D02*
X92633800Y-67945000D01*
D30*
X103682800Y-59994800D02*
X102837714Y-59149714D01*
X103682800Y-65836800D02*
X103682800Y-59994800D01*
D31*
X87185500Y-61087000D02*
X88154500Y-61087000D01*
X84899500Y-58801000D02*
X87185500Y-61087000D01*
X108863100Y-65581500D02*
X108864400Y-65582800D01*
X106920500Y-65581500D02*
X108863100Y-65581500D01*
X85649499Y-58051001D02*
X85662199Y-58051001D01*
X84899500Y-58801000D02*
X85649499Y-58051001D01*
X88836500Y-54864000D02*
X94843600Y-54864000D01*
X84899500Y-58801000D02*
X88836500Y-54864000D01*
X106362500Y-65023500D02*
X106920500Y-65581500D01*
X106362500Y-63218000D02*
X106362500Y-65023500D01*
X108864400Y-57251600D02*
X108864400Y-59385200D01*
X106476800Y-54864000D02*
X108864400Y-57251600D01*
X108864400Y-59385200D02*
X108864400Y-65582800D01*
D30*
X97790000Y-60299600D02*
X97790000Y-55321200D01*
X96647000Y-53653081D02*
X97790000Y-54796081D01*
X97790000Y-54796081D02*
X97790000Y-55321200D01*
X96647000Y-52451000D02*
X96647000Y-53653081D01*
X88154500Y-66845500D02*
X88000000Y-67000000D01*
X88154500Y-66167000D02*
X88154500Y-66845500D01*
X95808800Y-61366400D02*
X94843600Y-61366400D01*
X90043000Y-66167000D02*
X88154500Y-66167000D01*
X94843600Y-61366400D02*
X90043000Y-66167000D01*
X88000000Y-63472500D02*
X88154500Y-63627000D01*
X88000000Y-62500000D02*
X88000000Y-63472500D01*
X91262200Y-63627000D02*
X88154500Y-63627000D01*
X94640400Y-60248800D02*
X91262200Y-63627000D01*
X96469200Y-60248800D02*
X94640400Y-60248800D01*
D31*
X74137500Y-67658000D02*
X74803000Y-66992500D01*
X66802000Y-67658000D02*
X74137500Y-67658000D01*
X78708790Y-66562710D02*
X76883790Y-66562710D01*
X79104500Y-66167000D02*
X78708790Y-66562710D01*
X76454000Y-66992500D02*
X74803000Y-66992500D01*
X76883790Y-66562710D02*
X76454000Y-66992500D01*
X68602000Y-57658000D02*
X70802500Y-59858500D01*
X66802000Y-57658000D02*
X68602000Y-57658000D01*
X70802500Y-59858500D02*
X70802500Y-63055500D01*
X72190000Y-64443000D02*
X74803000Y-64443000D01*
X70802500Y-63055500D02*
X72190000Y-64443000D01*
X75619000Y-63627000D02*
X74803000Y-64443000D01*
X79104500Y-63627000D02*
X75619000Y-63627000D01*
D30*
X79104500Y-64753500D02*
X79121000Y-64770000D01*
X79104500Y-63627000D02*
X79104500Y-64753500D01*
X99872800Y-60858400D02*
X99872800Y-56692800D01*
X101727000Y-54838600D02*
X101727000Y-52451000D01*
X99872800Y-56692800D02*
X101727000Y-54838600D01*
X103000000Y-53718000D02*
X104267000Y-52451000D01*
X100778641Y-56989041D02*
X103000000Y-54767682D01*
X103000000Y-54767682D02*
X103000000Y-53718000D01*
D31*
X74803000Y-61468000D02*
X74803000Y-59372500D01*
X79819500Y-60372000D02*
X79104500Y-61087000D01*
X79819500Y-58801000D02*
X79819500Y-60372000D01*
X79104500Y-69706500D02*
X80645000Y-71247000D01*
X79104500Y-68707000D02*
X79104500Y-69706500D01*
D32*
G36*
X124798000Y-74798000D02*
G01*
X118916274Y-74798000D01*
X118981190Y-74771111D01*
X119493346Y-74428899D01*
X119928899Y-73993346D01*
X120271111Y-73481190D01*
X120506831Y-72912112D01*
X120627000Y-72307983D01*
X120627000Y-71692017D01*
X120506831Y-71087888D01*
X120307280Y-70606130D01*
X120326629Y-70625479D01*
X120440998Y-70511110D01*
X120627073Y-70852266D01*
X121044409Y-71068013D01*
X121495815Y-71198196D01*
X121963946Y-71237813D01*
X122430811Y-71185342D01*
X122878468Y-71042797D01*
X123234927Y-70852266D01*
X123421003Y-70511109D01*
X121931000Y-69021105D01*
X121916858Y-69035248D01*
X121737252Y-68855642D01*
X121751395Y-68841500D01*
X122110605Y-68841500D01*
X123600609Y-70331503D01*
X123941766Y-70145427D01*
X124157513Y-69728091D01*
X124287696Y-69276685D01*
X124327313Y-68808554D01*
X124274842Y-68341689D01*
X124132297Y-67894032D01*
X123941766Y-67537573D01*
X123600609Y-67351497D01*
X122110605Y-68841500D01*
X121751395Y-68841500D01*
X120261391Y-67351497D01*
X119920234Y-67537573D01*
X119704487Y-67954909D01*
X119574304Y-68406315D01*
X119534687Y-68874446D01*
X119587158Y-69341311D01*
X119729703Y-69788968D01*
X119750935Y-69828690D01*
X119493346Y-69571101D01*
X118981190Y-69228889D01*
X118412112Y-68993169D01*
X117807983Y-68873000D01*
X117192017Y-68873000D01*
X116587888Y-68993169D01*
X116018810Y-69228889D01*
X115506654Y-69571101D01*
X115071101Y-70006654D01*
X114728889Y-70518810D01*
X114493169Y-71087888D01*
X114373000Y-71692017D01*
X114373000Y-72307983D01*
X114493169Y-72912112D01*
X114728889Y-73481190D01*
X115071101Y-73993346D01*
X115506654Y-74428899D01*
X116018810Y-74771111D01*
X116083726Y-74798000D01*
X84627000Y-74798000D01*
X84627000Y-73182500D01*
X105798928Y-73182500D01*
X105811188Y-73306982D01*
X105847498Y-73426680D01*
X105906463Y-73536994D01*
X105985815Y-73633685D01*
X106082506Y-73713037D01*
X106192820Y-73772002D01*
X106312518Y-73808312D01*
X106437000Y-73820572D01*
X106676250Y-73817500D01*
X106835000Y-73658750D01*
X106835000Y-72834500D01*
X105960750Y-72834500D01*
X105802000Y-72993250D01*
X105798928Y-73182500D01*
X84627000Y-73182500D01*
X84627000Y-72239702D01*
X84911903Y-72239702D01*
X84983486Y-72483671D01*
X85238996Y-72604571D01*
X85513184Y-72673300D01*
X85795512Y-72687217D01*
X86075130Y-72645787D01*
X86341292Y-72550603D01*
X86466514Y-72483671D01*
X86538097Y-72239702D01*
X85725000Y-71426605D01*
X84911903Y-72239702D01*
X84627000Y-72239702D01*
X84627000Y-72029201D01*
X84732298Y-72060097D01*
X85545395Y-71247000D01*
X85904605Y-71247000D01*
X86717702Y-72060097D01*
X86961671Y-71988514D01*
X87082571Y-71733004D01*
X87114030Y-71607500D01*
X102191928Y-71607500D01*
X102204188Y-71731982D01*
X102240498Y-71851680D01*
X102299463Y-71961994D01*
X102378815Y-72058685D01*
X102475506Y-72138037D01*
X102585820Y-72197002D01*
X102705518Y-72233312D01*
X102830000Y-72245572D01*
X103219250Y-72242500D01*
X103378000Y-72083750D01*
X103378000Y-70947000D01*
X103632000Y-70947000D01*
X103632000Y-72083750D01*
X103790750Y-72242500D01*
X104180000Y-72245572D01*
X104304482Y-72233312D01*
X104307158Y-72232500D01*
X105798928Y-72232500D01*
X105802000Y-72421750D01*
X105960750Y-72580500D01*
X106835000Y-72580500D01*
X106835000Y-71756250D01*
X106676250Y-71597500D01*
X106437000Y-71594428D01*
X106312518Y-71606688D01*
X106192820Y-71642998D01*
X106082506Y-71701963D01*
X105985815Y-71781315D01*
X105906463Y-71878006D01*
X105847498Y-71988320D01*
X105811188Y-72108018D01*
X105798928Y-72232500D01*
X104307158Y-72232500D01*
X104424180Y-72197002D01*
X104534494Y-72138037D01*
X104631185Y-72058685D01*
X104710537Y-71961994D01*
X104769502Y-71851680D01*
X104805812Y-71731982D01*
X104818072Y-71607500D01*
X104815000Y-71105750D01*
X104656250Y-70947000D01*
X103632000Y-70947000D01*
X103378000Y-70947000D01*
X102353750Y-70947000D01*
X102195000Y-71105750D01*
X102191928Y-71607500D01*
X87114030Y-71607500D01*
X87151300Y-71458816D01*
X87165217Y-71176488D01*
X87128919Y-70931500D01*
X105282428Y-70931500D01*
X105294688Y-71055982D01*
X105330998Y-71175680D01*
X105389963Y-71285994D01*
X105469315Y-71382685D01*
X105566006Y-71462037D01*
X105676320Y-71521002D01*
X105796018Y-71557312D01*
X105920500Y-71569572D01*
X106634750Y-71566500D01*
X106793500Y-71407750D01*
X106793500Y-70308500D01*
X107047500Y-70308500D01*
X107047500Y-71407750D01*
X107206250Y-71566500D01*
X107920500Y-71569572D01*
X108044982Y-71557312D01*
X108164680Y-71521002D01*
X108274994Y-71462037D01*
X108371685Y-71382685D01*
X108451037Y-71285994D01*
X108510002Y-71175680D01*
X108546312Y-71055982D01*
X108558572Y-70931500D01*
X108555500Y-70467250D01*
X108396750Y-70308500D01*
X107047500Y-70308500D01*
X106793500Y-70308500D01*
X105444250Y-70308500D01*
X105285500Y-70467250D01*
X105282428Y-70931500D01*
X87128919Y-70931500D01*
X87123787Y-70896870D01*
X87028603Y-70630708D01*
X86961671Y-70505486D01*
X86717702Y-70433903D01*
X85904605Y-71247000D01*
X85545395Y-71247000D01*
X85531253Y-71232858D01*
X85710858Y-71053253D01*
X85725000Y-71067395D01*
X86538097Y-70254298D01*
X86473020Y-70032500D01*
X102191928Y-70032500D01*
X102195000Y-70534250D01*
X102353750Y-70693000D01*
X103378000Y-70693000D01*
X103378000Y-69556250D01*
X103632000Y-69556250D01*
X103632000Y-70693000D01*
X104656250Y-70693000D01*
X104815000Y-70534250D01*
X104818072Y-70032500D01*
X104805812Y-69908018D01*
X104769502Y-69788320D01*
X104710537Y-69678006D01*
X104631185Y-69581315D01*
X104534494Y-69501963D01*
X104424180Y-69442998D01*
X104304482Y-69406688D01*
X104180000Y-69394428D01*
X103790750Y-69397500D01*
X103632000Y-69556250D01*
X103378000Y-69556250D01*
X103219250Y-69397500D01*
X102830000Y-69394428D01*
X102705518Y-69406688D01*
X102585820Y-69442998D01*
X102475506Y-69501963D01*
X102378815Y-69581315D01*
X102299463Y-69678006D01*
X102240498Y-69788320D01*
X102204188Y-69908018D01*
X102191928Y-70032500D01*
X86473020Y-70032500D01*
X86466514Y-70010329D01*
X86211004Y-69889429D01*
X85936816Y-69820700D01*
X85654488Y-69806783D01*
X85374870Y-69848213D01*
X85108708Y-69943397D01*
X84983486Y-70010329D01*
X84911903Y-70254296D01*
X84795630Y-70138023D01*
X84712500Y-70221153D01*
X84712500Y-69032000D01*
X86341428Y-69032000D01*
X86353688Y-69156482D01*
X86389998Y-69276180D01*
X86448963Y-69386494D01*
X86528315Y-69483185D01*
X86625006Y-69562537D01*
X86735320Y-69621502D01*
X86855018Y-69657812D01*
X86979500Y-69670072D01*
X87868750Y-69667000D01*
X88027500Y-69508250D01*
X88027500Y-68834000D01*
X88281500Y-68834000D01*
X88281500Y-69508250D01*
X88440250Y-69667000D01*
X89329500Y-69670072D01*
X89453982Y-69657812D01*
X89573680Y-69621502D01*
X89683994Y-69562537D01*
X89780685Y-69483185D01*
X89860037Y-69386494D01*
X89919002Y-69276180D01*
X89955312Y-69156482D01*
X89967572Y-69032000D01*
X89964500Y-68992750D01*
X89805750Y-68834000D01*
X88281500Y-68834000D01*
X88027500Y-68834000D01*
X86503250Y-68834000D01*
X86344500Y-68992750D01*
X86341428Y-69032000D01*
X84712500Y-69032000D01*
X84712500Y-60167781D01*
X84763877Y-60178000D01*
X85035123Y-60178000D01*
X85036051Y-60177816D01*
X86409260Y-61551025D01*
X86409795Y-61552789D01*
X86483033Y-61689808D01*
X86581595Y-61809905D01*
X86701692Y-61908467D01*
X86838711Y-61981705D01*
X86977402Y-62023777D01*
X86916310Y-62171266D01*
X86873000Y-62389000D01*
X86873000Y-62611000D01*
X86893803Y-62715583D01*
X86838711Y-62732295D01*
X86701692Y-62805533D01*
X86581595Y-62904095D01*
X86483033Y-63024192D01*
X86409795Y-63161211D01*
X86364695Y-63309884D01*
X86349467Y-63464500D01*
X86349467Y-63789500D01*
X86364695Y-63944116D01*
X86409795Y-64092789D01*
X86483033Y-64229808D01*
X86581595Y-64349905D01*
X86701692Y-64448467D01*
X86838711Y-64521705D01*
X86987384Y-64566805D01*
X87142000Y-64582033D01*
X89167000Y-64582033D01*
X89321616Y-64566805D01*
X89470289Y-64521705D01*
X89607308Y-64448467D01*
X89661491Y-64404000D01*
X90707157Y-64404000D01*
X89721157Y-65390000D01*
X89661491Y-65390000D01*
X89607308Y-65345533D01*
X89470289Y-65272295D01*
X89321616Y-65227195D01*
X89167000Y-65211967D01*
X87142000Y-65211967D01*
X86987384Y-65227195D01*
X86838711Y-65272295D01*
X86701692Y-65345533D01*
X86581595Y-65444095D01*
X86483033Y-65564192D01*
X86409795Y-65701211D01*
X86364695Y-65849884D01*
X86349467Y-66004500D01*
X86349467Y-66329500D01*
X86364695Y-66484116D01*
X86409795Y-66632789D01*
X86483033Y-66769808D01*
X86581595Y-66889905D01*
X86701692Y-66988467D01*
X86838711Y-67061705D01*
X86873000Y-67072107D01*
X86873000Y-67111000D01*
X86916310Y-67328734D01*
X87001266Y-67533835D01*
X87124602Y-67718421D01*
X87150700Y-67744519D01*
X86979500Y-67743928D01*
X86855018Y-67756188D01*
X86735320Y-67792498D01*
X86625006Y-67851463D01*
X86528315Y-67930815D01*
X86448963Y-68027506D01*
X86389998Y-68137820D01*
X86353688Y-68257518D01*
X86341428Y-68382000D01*
X86344500Y-68421250D01*
X86503250Y-68580000D01*
X88027500Y-68580000D01*
X88027500Y-68560000D01*
X88281500Y-68560000D01*
X88281500Y-68580000D01*
X89805750Y-68580000D01*
X89964500Y-68421250D01*
X89967572Y-68382000D01*
X89955312Y-68257518D01*
X89919002Y-68137820D01*
X89860037Y-68027506D01*
X89780685Y-67930815D01*
X89683994Y-67851463D01*
X89573680Y-67792498D01*
X89453982Y-67756188D01*
X89329500Y-67743928D01*
X88848228Y-67745591D01*
X88875398Y-67718421D01*
X88998734Y-67533835D01*
X89083690Y-67328734D01*
X89124805Y-67122033D01*
X89167000Y-67122033D01*
X89321616Y-67106805D01*
X89470289Y-67061705D01*
X89607308Y-66988467D01*
X89661491Y-66944000D01*
X90004837Y-66944000D01*
X90043000Y-66947759D01*
X90081163Y-66944000D01*
X90081166Y-66944000D01*
X90177060Y-66934555D01*
X90238066Y-67081835D01*
X90361402Y-67266421D01*
X90518379Y-67423398D01*
X90702965Y-67546734D01*
X90908066Y-67631690D01*
X91122973Y-67674438D01*
X91983203Y-68534668D01*
X92010667Y-68568133D01*
X92144208Y-68677727D01*
X92296563Y-68759162D01*
X92461878Y-68809310D01*
X92590721Y-68822000D01*
X92590730Y-68822000D01*
X92633799Y-68826242D01*
X92676869Y-68822000D01*
X102268412Y-68822000D01*
X102348279Y-68971421D01*
X102457722Y-69104778D01*
X102591079Y-69214221D01*
X102743225Y-69295545D01*
X102908313Y-69345623D01*
X103079999Y-69362533D01*
X103930001Y-69362533D01*
X104101687Y-69345623D01*
X104266775Y-69295545D01*
X104418921Y-69214221D01*
X104552278Y-69104778D01*
X104661721Y-68971421D01*
X104741588Y-68822000D01*
X105323075Y-68822000D01*
X105338425Y-68872603D01*
X105396647Y-68981528D01*
X105432483Y-69025195D01*
X105389963Y-69077006D01*
X105330998Y-69187320D01*
X105294688Y-69307018D01*
X105282428Y-69431500D01*
X105285500Y-69895750D01*
X105444250Y-70054500D01*
X106793500Y-70054500D01*
X106793500Y-70034500D01*
X107047500Y-70034500D01*
X107047500Y-70054500D01*
X108396750Y-70054500D01*
X108555500Y-69895750D01*
X108558572Y-69431500D01*
X108546312Y-69307018D01*
X108510002Y-69187320D01*
X108451037Y-69077006D01*
X108408517Y-69025195D01*
X108444353Y-68981528D01*
X108502575Y-68872603D01*
X108537187Y-68758500D01*
X111590467Y-68758500D01*
X111590467Y-69781500D01*
X111602573Y-69904413D01*
X111638425Y-70022603D01*
X111696647Y-70131528D01*
X111774999Y-70227001D01*
X111870472Y-70305353D01*
X111979397Y-70363575D01*
X112097587Y-70399427D01*
X112220500Y-70411533D01*
X112343500Y-70411533D01*
X112343500Y-70515434D01*
X111028435Y-71830500D01*
X109581182Y-71830500D01*
X109481476Y-71748673D01*
X109331491Y-71668504D01*
X109168747Y-71619136D01*
X108999500Y-71602467D01*
X108424500Y-71602467D01*
X108255253Y-71619136D01*
X108092509Y-71668504D01*
X107942524Y-71748673D01*
X107920467Y-71766775D01*
X107841494Y-71701963D01*
X107731180Y-71642998D01*
X107611482Y-71606688D01*
X107487000Y-71594428D01*
X107247750Y-71597500D01*
X107089000Y-71756250D01*
X107089000Y-72580500D01*
X107109000Y-72580500D01*
X107109000Y-72834500D01*
X107089000Y-72834500D01*
X107089000Y-73658750D01*
X107247750Y-73817500D01*
X107487000Y-73820572D01*
X107611482Y-73808312D01*
X107731180Y-73772002D01*
X107841494Y-73713037D01*
X107920467Y-73648225D01*
X107942524Y-73666327D01*
X108092509Y-73746496D01*
X108255253Y-73795864D01*
X108424500Y-73812533D01*
X108999500Y-73812533D01*
X109168747Y-73795864D01*
X109331491Y-73746496D01*
X109481476Y-73666327D01*
X109581182Y-73584500D01*
X111348621Y-73584500D01*
X111391700Y-73588743D01*
X111434779Y-73584500D01*
X111563622Y-73571810D01*
X111728937Y-73521662D01*
X111881292Y-73440227D01*
X112014833Y-73330633D01*
X112042297Y-73297168D01*
X112266335Y-73073130D01*
X112357802Y-73210021D01*
X112514779Y-73366998D01*
X112699365Y-73490334D01*
X112904466Y-73575290D01*
X113122200Y-73618600D01*
X113344200Y-73618600D01*
X113561934Y-73575290D01*
X113767035Y-73490334D01*
X113951621Y-73366998D01*
X114108598Y-73210021D01*
X114231934Y-73025435D01*
X114316890Y-72820334D01*
X114360200Y-72602600D01*
X114360200Y-72380600D01*
X114316890Y-72162866D01*
X114231934Y-71957765D01*
X114108598Y-71773179D01*
X114097500Y-71762081D01*
X114097500Y-70921778D01*
X114101743Y-70878700D01*
X114097500Y-70835621D01*
X114097500Y-70411533D01*
X114220500Y-70411533D01*
X114343413Y-70399427D01*
X114461603Y-70363575D01*
X114570528Y-70305353D01*
X114666001Y-70227001D01*
X114744353Y-70131528D01*
X114802575Y-70022603D01*
X114838427Y-69904413D01*
X114850533Y-69781500D01*
X114850533Y-67171891D01*
X120440997Y-67171891D01*
X121931000Y-68661895D01*
X123421003Y-67171891D01*
X123234927Y-66830734D01*
X122817591Y-66614987D01*
X122366185Y-66484804D01*
X121898054Y-66445187D01*
X121431189Y-66497658D01*
X120983532Y-66640203D01*
X120627073Y-66830734D01*
X120440997Y-67171891D01*
X114850533Y-67171891D01*
X114850533Y-65981500D01*
X114838427Y-65858587D01*
X114802575Y-65740397D01*
X114744353Y-65631472D01*
X114666001Y-65535999D01*
X114570528Y-65457647D01*
X114461603Y-65399425D01*
X114343413Y-65363573D01*
X114220500Y-65351467D01*
X112220500Y-65351467D01*
X112097587Y-65363573D01*
X111979397Y-65399425D01*
X111870472Y-65457647D01*
X111774999Y-65535999D01*
X111696647Y-65631472D01*
X111638425Y-65740397D01*
X111602573Y-65858587D01*
X111590467Y-65981500D01*
X111590467Y-67004500D01*
X108537187Y-67004500D01*
X108502575Y-66890397D01*
X108444353Y-66781472D01*
X108403342Y-66731500D01*
X108444353Y-66681528D01*
X108467486Y-66638249D01*
X108535666Y-66666490D01*
X108753400Y-66709800D01*
X108975400Y-66709800D01*
X109193134Y-66666490D01*
X109398235Y-66581534D01*
X109582821Y-66458198D01*
X109739798Y-66301221D01*
X109863134Y-66116635D01*
X109948090Y-65911534D01*
X109991400Y-65693800D01*
X109991400Y-65471800D01*
X109948090Y-65254066D01*
X109863134Y-65048965D01*
X109741400Y-64866777D01*
X109741400Y-63221500D01*
X115740967Y-63221500D01*
X115740967Y-64921500D01*
X115753073Y-65044413D01*
X115788925Y-65162603D01*
X115847147Y-65271528D01*
X115925499Y-65367001D01*
X116020972Y-65445353D01*
X116129897Y-65503575D01*
X116248087Y-65539427D01*
X116371000Y-65551533D01*
X118071000Y-65551533D01*
X118193913Y-65539427D01*
X118312103Y-65503575D01*
X118421028Y-65445353D01*
X118505900Y-65375701D01*
X118713883Y-65474871D01*
X118997411Y-65546839D01*
X119289531Y-65562111D01*
X119579019Y-65520099D01*
X119854747Y-65422419D01*
X119992157Y-65348972D01*
X120069792Y-65099897D01*
X119221000Y-64251105D01*
X119206858Y-64265248D01*
X119027253Y-64085643D01*
X119041395Y-64071500D01*
X119400605Y-64071500D01*
X120249397Y-64920292D01*
X120498472Y-64842657D01*
X120624371Y-64578617D01*
X120696339Y-64295089D01*
X120711611Y-64002969D01*
X120669599Y-63713481D01*
X120571919Y-63437753D01*
X120498472Y-63300343D01*
X120249397Y-63222708D01*
X119400605Y-64071500D01*
X119041395Y-64071500D01*
X119027253Y-64057358D01*
X119206858Y-63877753D01*
X119221000Y-63891895D01*
X120069792Y-63043103D01*
X120002108Y-62825954D01*
X120162533Y-62718761D01*
X120368261Y-62513033D01*
X120529901Y-62271122D01*
X120641240Y-62002325D01*
X120698000Y-61716972D01*
X120698000Y-61426028D01*
X120641240Y-61140675D01*
X120529901Y-60871878D01*
X120368261Y-60629967D01*
X120162533Y-60424239D01*
X119920622Y-60262599D01*
X119651825Y-60151260D01*
X119366472Y-60094500D01*
X119075528Y-60094500D01*
X118790175Y-60151260D01*
X118521378Y-60262599D01*
X118279467Y-60424239D01*
X118221000Y-60482706D01*
X118162533Y-60424239D01*
X117920622Y-60262599D01*
X117651825Y-60151260D01*
X117366472Y-60094500D01*
X117075528Y-60094500D01*
X116790175Y-60151260D01*
X116521378Y-60262599D01*
X116279467Y-60424239D01*
X116073739Y-60629967D01*
X115912099Y-60871878D01*
X115800760Y-61140675D01*
X115744000Y-61426028D01*
X115744000Y-61716972D01*
X115800760Y-62002325D01*
X115912099Y-62271122D01*
X116073739Y-62513033D01*
X116183785Y-62623079D01*
X116129897Y-62639425D01*
X116020972Y-62697647D01*
X115925499Y-62775999D01*
X115847147Y-62871472D01*
X115788925Y-62980397D01*
X115753073Y-63098587D01*
X115740967Y-63221500D01*
X109741400Y-63221500D01*
X109741400Y-58471109D01*
X120440997Y-58471109D01*
X120627073Y-58812266D01*
X121044409Y-59028013D01*
X121495815Y-59158196D01*
X121963946Y-59197813D01*
X122430811Y-59145342D01*
X122878468Y-59002797D01*
X123234927Y-58812266D01*
X123421003Y-58471109D01*
X121931000Y-56981105D01*
X120440997Y-58471109D01*
X109741400Y-58471109D01*
X109741400Y-57294669D01*
X109745642Y-57251599D01*
X109741400Y-57208530D01*
X109741400Y-57208521D01*
X109728710Y-57079678D01*
X109678562Y-56914363D01*
X109597127Y-56762008D01*
X109487533Y-56628467D01*
X109454069Y-56601004D01*
X107853616Y-55000551D01*
X107853800Y-54999623D01*
X107853800Y-54728377D01*
X107800883Y-54462344D01*
X107697082Y-54211746D01*
X107546386Y-53986213D01*
X107354587Y-53794414D01*
X107129054Y-53643718D01*
X106878456Y-53539917D01*
X106612423Y-53487000D01*
X106341177Y-53487000D01*
X106075144Y-53539917D01*
X105824546Y-53643718D01*
X105599013Y-53794414D01*
X105407214Y-53986213D01*
X105256518Y-54211746D01*
X105152717Y-54462344D01*
X105099800Y-54728377D01*
X105099800Y-54999623D01*
X105152717Y-55265656D01*
X105256518Y-55516254D01*
X105407214Y-55741787D01*
X105599013Y-55933586D01*
X105824546Y-56084282D01*
X106075144Y-56188083D01*
X106341177Y-56241000D01*
X106612423Y-56241000D01*
X106613351Y-56240816D01*
X107987400Y-57614865D01*
X107987401Y-59342112D01*
X107987400Y-59342122D01*
X107987401Y-64208056D01*
X107920500Y-64201467D01*
X107239500Y-64201467D01*
X107239500Y-64087182D01*
X107321327Y-63987476D01*
X107401496Y-63837491D01*
X107450864Y-63674747D01*
X107467533Y-63505500D01*
X107467533Y-62930500D01*
X107450864Y-62761253D01*
X107401496Y-62598509D01*
X107321327Y-62448524D01*
X107303225Y-62426467D01*
X107368037Y-62347494D01*
X107427002Y-62237180D01*
X107463312Y-62117482D01*
X107475572Y-61993000D01*
X107472500Y-61753750D01*
X107313750Y-61595000D01*
X106489500Y-61595000D01*
X106489500Y-61615000D01*
X106235500Y-61615000D01*
X106235500Y-61595000D01*
X105411250Y-61595000D01*
X105252500Y-61753750D01*
X105249428Y-61993000D01*
X105261688Y-62117482D01*
X105297998Y-62237180D01*
X105356963Y-62347494D01*
X105421775Y-62426467D01*
X105403673Y-62448524D01*
X105323504Y-62598509D01*
X105274136Y-62761253D01*
X105257467Y-62930500D01*
X105257467Y-63505500D01*
X105274136Y-63674747D01*
X105323504Y-63837491D01*
X105403673Y-63987476D01*
X105485500Y-64087182D01*
X105485501Y-64377381D01*
X105474999Y-64385999D01*
X105396647Y-64481472D01*
X105338425Y-64590397D01*
X105302573Y-64708587D01*
X105290467Y-64831500D01*
X105290467Y-66331500D01*
X105302573Y-66454413D01*
X105338425Y-66572603D01*
X105396647Y-66681528D01*
X105437658Y-66731500D01*
X105396647Y-66781472D01*
X105338425Y-66890397D01*
X105302573Y-67008587D01*
X105296721Y-67068000D01*
X104741588Y-67068000D01*
X104661721Y-66918579D01*
X104552278Y-66785222D01*
X104429202Y-66684217D01*
X104558198Y-66555221D01*
X104681534Y-66370635D01*
X104766490Y-66165534D01*
X104809800Y-65947800D01*
X104809800Y-65725800D01*
X104766490Y-65508066D01*
X104681534Y-65302965D01*
X104558198Y-65118379D01*
X104459800Y-65019981D01*
X104459800Y-60943000D01*
X105249428Y-60943000D01*
X105252500Y-61182250D01*
X105411250Y-61341000D01*
X106235500Y-61341000D01*
X106235500Y-60466750D01*
X106489500Y-60466750D01*
X106489500Y-61341000D01*
X107313750Y-61341000D01*
X107472500Y-61182250D01*
X107475572Y-60943000D01*
X107463312Y-60818518D01*
X107427002Y-60698820D01*
X107368037Y-60588506D01*
X107288685Y-60491815D01*
X107191994Y-60412463D01*
X107081680Y-60353498D01*
X106961982Y-60317188D01*
X106837500Y-60304928D01*
X106648250Y-60308000D01*
X106489500Y-60466750D01*
X106235500Y-60466750D01*
X106076750Y-60308000D01*
X105887500Y-60304928D01*
X105763018Y-60317188D01*
X105643320Y-60353498D01*
X105533006Y-60412463D01*
X105436315Y-60491815D01*
X105356963Y-60588506D01*
X105297998Y-60698820D01*
X105261688Y-60818518D01*
X105249428Y-60943000D01*
X104459800Y-60943000D01*
X104459800Y-60032955D01*
X104463558Y-59994799D01*
X104459800Y-59956643D01*
X104459800Y-59956634D01*
X104448557Y-59842481D01*
X104404127Y-59696016D01*
X104387714Y-59665310D01*
X104331977Y-59561033D01*
X104259209Y-59472365D01*
X104259208Y-59472364D01*
X104234880Y-59442720D01*
X104205236Y-59418392D01*
X103964714Y-59177870D01*
X103964714Y-59038714D01*
X103921404Y-58820980D01*
X103836448Y-58615879D01*
X103713112Y-58431293D01*
X103556135Y-58274316D01*
X103371549Y-58150980D01*
X103166448Y-58066024D01*
X102948714Y-58022714D01*
X102726714Y-58022714D01*
X102508980Y-58066024D01*
X102303879Y-58150980D01*
X102119293Y-58274316D01*
X101962316Y-58431293D01*
X101838980Y-58615879D01*
X101754024Y-58820980D01*
X101710714Y-59038714D01*
X101710714Y-59260714D01*
X101754024Y-59478448D01*
X101838980Y-59683549D01*
X101962316Y-59868135D01*
X102119293Y-60025112D01*
X102303879Y-60148448D01*
X102508980Y-60233404D01*
X102726714Y-60276714D01*
X102865870Y-60276714D01*
X102905801Y-60316645D01*
X102905800Y-65019981D01*
X102807402Y-65118379D01*
X102684066Y-65302965D01*
X102599110Y-65508066D01*
X102555800Y-65725800D01*
X102555800Y-65947800D01*
X102599110Y-66165534D01*
X102628001Y-66235282D01*
X102628001Y-66656044D01*
X102591079Y-66675779D01*
X102457722Y-66785222D01*
X102348279Y-66918579D01*
X102268412Y-67068000D01*
X92997065Y-67068000D01*
X92363238Y-66434173D01*
X92320490Y-66219266D01*
X92235534Y-66014165D01*
X92112198Y-65829579D01*
X91955221Y-65672602D01*
X91770635Y-65549266D01*
X91762816Y-65546027D01*
X95078712Y-62230131D01*
X95090379Y-62241798D01*
X95274965Y-62365134D01*
X95480066Y-62450090D01*
X95697800Y-62493400D01*
X95919800Y-62493400D01*
X96137534Y-62450090D01*
X96342635Y-62365134D01*
X96527221Y-62241798D01*
X96684198Y-62084821D01*
X96807534Y-61900235D01*
X96892490Y-61695134D01*
X96935800Y-61477400D01*
X96935800Y-61275384D01*
X97003035Y-61247534D01*
X97091586Y-61188366D01*
X97256165Y-61298334D01*
X97461266Y-61383290D01*
X97679000Y-61426600D01*
X97901000Y-61426600D01*
X98118734Y-61383290D01*
X98323835Y-61298334D01*
X98508421Y-61174998D01*
X98665398Y-61018021D01*
X98745800Y-60897690D01*
X98745800Y-60969400D01*
X98789110Y-61187134D01*
X98874066Y-61392235D01*
X98997402Y-61576821D01*
X99154379Y-61733798D01*
X99338965Y-61857134D01*
X99544066Y-61942090D01*
X99761800Y-61985400D01*
X99983800Y-61985400D01*
X100201534Y-61942090D01*
X100406635Y-61857134D01*
X100591221Y-61733798D01*
X100748198Y-61576821D01*
X100871534Y-61392235D01*
X100956490Y-61187134D01*
X100999800Y-60969400D01*
X100999800Y-60747400D01*
X100956490Y-60529666D01*
X100871534Y-60324565D01*
X100748198Y-60139979D01*
X100649800Y-60041581D01*
X100649800Y-58112492D01*
X100667641Y-58116041D01*
X100889641Y-58116041D01*
X101107375Y-58072731D01*
X101312476Y-57987775D01*
X101497062Y-57864439D01*
X101654039Y-57707462D01*
X101777375Y-57522876D01*
X101862331Y-57317775D01*
X101905641Y-57100041D01*
X101905641Y-56960884D01*
X103522437Y-55344089D01*
X103552080Y-55319762D01*
X103576409Y-55290117D01*
X103649177Y-55201449D01*
X103721327Y-55066466D01*
X103727366Y-55046558D01*
X103765757Y-54920001D01*
X103777000Y-54805848D01*
X103777000Y-54805846D01*
X103780759Y-54767683D01*
X103777000Y-54729519D01*
X103777000Y-54039843D01*
X103925865Y-53890979D01*
X103977457Y-53906629D01*
X104194444Y-53928000D01*
X104339556Y-53928000D01*
X104556543Y-53906629D01*
X104834958Y-53822172D01*
X105091547Y-53685022D01*
X105316450Y-53500450D01*
X105501022Y-53275547D01*
X105545669Y-53192017D01*
X114373000Y-53192017D01*
X114373000Y-53807983D01*
X114493169Y-54412112D01*
X114728889Y-54981190D01*
X115071101Y-55493346D01*
X115506654Y-55928899D01*
X116018810Y-56271111D01*
X116587888Y-56506831D01*
X117192017Y-56627000D01*
X117807983Y-56627000D01*
X118412112Y-56506831D01*
X118981190Y-56271111D01*
X119493346Y-55928899D01*
X119915484Y-55506761D01*
X119704487Y-55914909D01*
X119574304Y-56366315D01*
X119534687Y-56834446D01*
X119587158Y-57301311D01*
X119729703Y-57748968D01*
X119920234Y-58105427D01*
X120261391Y-58291503D01*
X121751395Y-56801500D01*
X122110605Y-56801500D01*
X123600609Y-58291503D01*
X123941766Y-58105427D01*
X124157513Y-57688091D01*
X124287696Y-57236685D01*
X124327313Y-56768554D01*
X124274842Y-56301689D01*
X124132297Y-55854032D01*
X123941766Y-55497573D01*
X123600609Y-55311497D01*
X122110605Y-56801500D01*
X121751395Y-56801500D01*
X120261391Y-55311497D01*
X119929424Y-55492561D01*
X120170415Y-55131891D01*
X120440997Y-55131891D01*
X121931000Y-56621895D01*
X123421003Y-55131891D01*
X123234927Y-54790734D01*
X122817591Y-54574987D01*
X122366185Y-54444804D01*
X121898054Y-54405187D01*
X121431189Y-54457658D01*
X120983532Y-54600203D01*
X120627073Y-54790734D01*
X120440997Y-55131891D01*
X120170415Y-55131891D01*
X120271111Y-54981190D01*
X120506831Y-54412112D01*
X120627000Y-53807983D01*
X120627000Y-53192017D01*
X120506831Y-52587888D01*
X120271111Y-52018810D01*
X119928899Y-51506654D01*
X119493346Y-51071101D01*
X118981190Y-50728889D01*
X118412112Y-50493169D01*
X117807983Y-50373000D01*
X117192017Y-50373000D01*
X116587888Y-50493169D01*
X116018810Y-50728889D01*
X115506654Y-51071101D01*
X115071101Y-51506654D01*
X114728889Y-52018810D01*
X114493169Y-52587888D01*
X114373000Y-53192017D01*
X105545669Y-53192017D01*
X105638172Y-53018958D01*
X105722629Y-52740543D01*
X105751146Y-52451000D01*
X105722629Y-52161457D01*
X105638172Y-51883042D01*
X105501022Y-51626453D01*
X105316450Y-51401550D01*
X105091547Y-51216978D01*
X104834958Y-51079828D01*
X104556543Y-50995371D01*
X104339556Y-50974000D01*
X104194444Y-50974000D01*
X103977457Y-50995371D01*
X103699042Y-51079828D01*
X103442453Y-51216978D01*
X103217550Y-51401550D01*
X103032978Y-51626453D01*
X102997000Y-51693763D01*
X102961022Y-51626453D01*
X102776450Y-51401550D01*
X102551547Y-51216978D01*
X102294958Y-51079828D01*
X102016543Y-50995371D01*
X101799556Y-50974000D01*
X101654444Y-50974000D01*
X101437457Y-50995371D01*
X101159042Y-51079828D01*
X100902453Y-51216978D01*
X100677550Y-51401550D01*
X100492978Y-51626453D01*
X100456580Y-51694549D01*
X100382178Y-51569645D01*
X100187269Y-51353412D01*
X99953920Y-51179359D01*
X99691099Y-51054175D01*
X99543890Y-51009524D01*
X99314000Y-51130845D01*
X99314000Y-52324000D01*
X99334000Y-52324000D01*
X99334000Y-52578000D01*
X99314000Y-52578000D01*
X99314000Y-53771155D01*
X99543890Y-53892476D01*
X99691099Y-53847825D01*
X99953920Y-53722641D01*
X100187269Y-53548588D01*
X100382178Y-53332355D01*
X100456580Y-53207451D01*
X100492978Y-53275547D01*
X100677550Y-53500450D01*
X100902453Y-53685022D01*
X100950000Y-53710437D01*
X100950000Y-54516756D01*
X99350365Y-56116392D01*
X99320721Y-56140720D01*
X99296393Y-56170364D01*
X99296391Y-56170366D01*
X99223623Y-56259034D01*
X99151473Y-56394017D01*
X99107044Y-56540482D01*
X99092041Y-56692800D01*
X99095801Y-56730973D01*
X99095800Y-60041581D01*
X98997402Y-60139979D01*
X98917000Y-60260310D01*
X98917000Y-60188600D01*
X98873690Y-59970866D01*
X98788734Y-59765765D01*
X98665398Y-59581179D01*
X98567000Y-59482781D01*
X98567000Y-54834236D01*
X98570758Y-54796080D01*
X98567000Y-54757924D01*
X98567000Y-54757915D01*
X98555757Y-54643762D01*
X98511327Y-54497297D01*
X98492644Y-54462344D01*
X98439177Y-54362314D01*
X98366409Y-54273646D01*
X98366408Y-54273645D01*
X98342080Y-54244001D01*
X98312437Y-54219674D01*
X97639747Y-53546985D01*
X97696450Y-53500450D01*
X97881022Y-53275547D01*
X97917420Y-53207451D01*
X97991822Y-53332355D01*
X98186731Y-53548588D01*
X98420080Y-53722641D01*
X98682901Y-53847825D01*
X98830110Y-53892476D01*
X99060000Y-53771155D01*
X99060000Y-52578000D01*
X99040000Y-52578000D01*
X99040000Y-52324000D01*
X99060000Y-52324000D01*
X99060000Y-51130845D01*
X98830110Y-51009524D01*
X98682901Y-51054175D01*
X98420080Y-51179359D01*
X98186731Y-51353412D01*
X97991822Y-51569645D01*
X97917420Y-51694549D01*
X97881022Y-51626453D01*
X97696450Y-51401550D01*
X97471547Y-51216978D01*
X97214958Y-51079828D01*
X96936543Y-50995371D01*
X96719556Y-50974000D01*
X96574444Y-50974000D01*
X96357457Y-50995371D01*
X96079042Y-51079828D01*
X95822453Y-51216978D01*
X95597550Y-51401550D01*
X95412978Y-51626453D01*
X95377000Y-51693763D01*
X95341022Y-51626453D01*
X95156450Y-51401550D01*
X94931547Y-51216978D01*
X94674958Y-51079828D01*
X94396543Y-50995371D01*
X94179556Y-50974000D01*
X94034444Y-50974000D01*
X93817457Y-50995371D01*
X93539042Y-51079828D01*
X93282453Y-51216978D01*
X93057550Y-51401550D01*
X93024081Y-51442332D01*
X92999075Y-51359897D01*
X92940853Y-51250972D01*
X92862501Y-51155499D01*
X92767028Y-51077147D01*
X92658103Y-51018925D01*
X92539913Y-50983073D01*
X92417000Y-50970967D01*
X90717000Y-50970967D01*
X90594087Y-50983073D01*
X90475897Y-51018925D01*
X90366972Y-51077147D01*
X90271499Y-51155499D01*
X90193147Y-51250972D01*
X90134925Y-51359897D01*
X90099073Y-51478087D01*
X90086967Y-51601000D01*
X90086967Y-53301000D01*
X90099073Y-53423913D01*
X90134925Y-53542103D01*
X90193147Y-53651028D01*
X90271499Y-53746501D01*
X90366972Y-53824853D01*
X90475897Y-53883075D01*
X90594087Y-53918927D01*
X90717000Y-53931033D01*
X92417000Y-53931033D01*
X92539913Y-53918927D01*
X92658103Y-53883075D01*
X92767028Y-53824853D01*
X92862501Y-53746501D01*
X92940853Y-53651028D01*
X92999075Y-53542103D01*
X93024081Y-53459668D01*
X93057550Y-53500450D01*
X93282453Y-53685022D01*
X93539042Y-53822172D01*
X93817457Y-53906629D01*
X93850358Y-53909869D01*
X93774014Y-53986213D01*
X93773488Y-53987000D01*
X88879579Y-53987000D01*
X88836500Y-53982757D01*
X88664577Y-53999690D01*
X88542962Y-54036582D01*
X88499263Y-54049838D01*
X88346908Y-54131273D01*
X88327862Y-54146904D01*
X88249569Y-54211157D01*
X88213367Y-54240867D01*
X88185908Y-54274326D01*
X85059830Y-57400405D01*
X85031079Y-57424000D01*
X84763877Y-57424000D01*
X84712500Y-57434219D01*
X84712500Y-55020020D01*
X84709113Y-54985631D01*
X84709113Y-54980672D01*
X84708088Y-54970924D01*
X84704616Y-54939974D01*
X84702342Y-54916884D01*
X84701841Y-54915231D01*
X84699799Y-54897031D01*
X84686576Y-54834822D01*
X84674215Y-54772392D01*
X84671316Y-54763029D01*
X84648833Y-54692151D01*
X84627000Y-54641210D01*
X84627000Y-50202000D01*
X124798001Y-50202000D01*
X124798000Y-74798000D01*
X124798000Y-74798000D01*
G37*
X124798000Y-74798000D02*
X118916274Y-74798000D01*
X118981190Y-74771111D01*
X119493346Y-74428899D01*
X119928899Y-73993346D01*
X120271111Y-73481190D01*
X120506831Y-72912112D01*
X120627000Y-72307983D01*
X120627000Y-71692017D01*
X120506831Y-71087888D01*
X120307280Y-70606130D01*
X120326629Y-70625479D01*
X120440998Y-70511110D01*
X120627073Y-70852266D01*
X121044409Y-71068013D01*
X121495815Y-71198196D01*
X121963946Y-71237813D01*
X122430811Y-71185342D01*
X122878468Y-71042797D01*
X123234927Y-70852266D01*
X123421003Y-70511109D01*
X121931000Y-69021105D01*
X121916858Y-69035248D01*
X121737252Y-68855642D01*
X121751395Y-68841500D01*
X122110605Y-68841500D01*
X123600609Y-70331503D01*
X123941766Y-70145427D01*
X124157513Y-69728091D01*
X124287696Y-69276685D01*
X124327313Y-68808554D01*
X124274842Y-68341689D01*
X124132297Y-67894032D01*
X123941766Y-67537573D01*
X123600609Y-67351497D01*
X122110605Y-68841500D01*
X121751395Y-68841500D01*
X120261391Y-67351497D01*
X119920234Y-67537573D01*
X119704487Y-67954909D01*
X119574304Y-68406315D01*
X119534687Y-68874446D01*
X119587158Y-69341311D01*
X119729703Y-69788968D01*
X119750935Y-69828690D01*
X119493346Y-69571101D01*
X118981190Y-69228889D01*
X118412112Y-68993169D01*
X117807983Y-68873000D01*
X117192017Y-68873000D01*
X116587888Y-68993169D01*
X116018810Y-69228889D01*
X115506654Y-69571101D01*
X115071101Y-70006654D01*
X114728889Y-70518810D01*
X114493169Y-71087888D01*
X114373000Y-71692017D01*
X114373000Y-72307983D01*
X114493169Y-72912112D01*
X114728889Y-73481190D01*
X115071101Y-73993346D01*
X115506654Y-74428899D01*
X116018810Y-74771111D01*
X116083726Y-74798000D01*
X84627000Y-74798000D01*
X84627000Y-73182500D01*
X105798928Y-73182500D01*
X105811188Y-73306982D01*
X105847498Y-73426680D01*
X105906463Y-73536994D01*
X105985815Y-73633685D01*
X106082506Y-73713037D01*
X106192820Y-73772002D01*
X106312518Y-73808312D01*
X106437000Y-73820572D01*
X106676250Y-73817500D01*
X106835000Y-73658750D01*
X106835000Y-72834500D01*
X105960750Y-72834500D01*
X105802000Y-72993250D01*
X105798928Y-73182500D01*
X84627000Y-73182500D01*
X84627000Y-72239702D01*
X84911903Y-72239702D01*
X84983486Y-72483671D01*
X85238996Y-72604571D01*
X85513184Y-72673300D01*
X85795512Y-72687217D01*
X86075130Y-72645787D01*
X86341292Y-72550603D01*
X86466514Y-72483671D01*
X86538097Y-72239702D01*
X85725000Y-71426605D01*
X84911903Y-72239702D01*
X84627000Y-72239702D01*
X84627000Y-72029201D01*
X84732298Y-72060097D01*
X85545395Y-71247000D01*
X85904605Y-71247000D01*
X86717702Y-72060097D01*
X86961671Y-71988514D01*
X87082571Y-71733004D01*
X87114030Y-71607500D01*
X102191928Y-71607500D01*
X102204188Y-71731982D01*
X102240498Y-71851680D01*
X102299463Y-71961994D01*
X102378815Y-72058685D01*
X102475506Y-72138037D01*
X102585820Y-72197002D01*
X102705518Y-72233312D01*
X102830000Y-72245572D01*
X103219250Y-72242500D01*
X103378000Y-72083750D01*
X103378000Y-70947000D01*
X103632000Y-70947000D01*
X103632000Y-72083750D01*
X103790750Y-72242500D01*
X104180000Y-72245572D01*
X104304482Y-72233312D01*
X104307158Y-72232500D01*
X105798928Y-72232500D01*
X105802000Y-72421750D01*
X105960750Y-72580500D01*
X106835000Y-72580500D01*
X106835000Y-71756250D01*
X106676250Y-71597500D01*
X106437000Y-71594428D01*
X106312518Y-71606688D01*
X106192820Y-71642998D01*
X106082506Y-71701963D01*
X105985815Y-71781315D01*
X105906463Y-71878006D01*
X105847498Y-71988320D01*
X105811188Y-72108018D01*
X105798928Y-72232500D01*
X104307158Y-72232500D01*
X104424180Y-72197002D01*
X104534494Y-72138037D01*
X104631185Y-72058685D01*
X104710537Y-71961994D01*
X104769502Y-71851680D01*
X104805812Y-71731982D01*
X104818072Y-71607500D01*
X104815000Y-71105750D01*
X104656250Y-70947000D01*
X103632000Y-70947000D01*
X103378000Y-70947000D01*
X102353750Y-70947000D01*
X102195000Y-71105750D01*
X102191928Y-71607500D01*
X87114030Y-71607500D01*
X87151300Y-71458816D01*
X87165217Y-71176488D01*
X87128919Y-70931500D01*
X105282428Y-70931500D01*
X105294688Y-71055982D01*
X105330998Y-71175680D01*
X105389963Y-71285994D01*
X105469315Y-71382685D01*
X105566006Y-71462037D01*
X105676320Y-71521002D01*
X105796018Y-71557312D01*
X105920500Y-71569572D01*
X106634750Y-71566500D01*
X106793500Y-71407750D01*
X106793500Y-70308500D01*
X107047500Y-70308500D01*
X107047500Y-71407750D01*
X107206250Y-71566500D01*
X107920500Y-71569572D01*
X108044982Y-71557312D01*
X108164680Y-71521002D01*
X108274994Y-71462037D01*
X108371685Y-71382685D01*
X108451037Y-71285994D01*
X108510002Y-71175680D01*
X108546312Y-71055982D01*
X108558572Y-70931500D01*
X108555500Y-70467250D01*
X108396750Y-70308500D01*
X107047500Y-70308500D01*
X106793500Y-70308500D01*
X105444250Y-70308500D01*
X105285500Y-70467250D01*
X105282428Y-70931500D01*
X87128919Y-70931500D01*
X87123787Y-70896870D01*
X87028603Y-70630708D01*
X86961671Y-70505486D01*
X86717702Y-70433903D01*
X85904605Y-71247000D01*
X85545395Y-71247000D01*
X85531253Y-71232858D01*
X85710858Y-71053253D01*
X85725000Y-71067395D01*
X86538097Y-70254298D01*
X86473020Y-70032500D01*
X102191928Y-70032500D01*
X102195000Y-70534250D01*
X102353750Y-70693000D01*
X103378000Y-70693000D01*
X103378000Y-69556250D01*
X103632000Y-69556250D01*
X103632000Y-70693000D01*
X104656250Y-70693000D01*
X104815000Y-70534250D01*
X104818072Y-70032500D01*
X104805812Y-69908018D01*
X104769502Y-69788320D01*
X104710537Y-69678006D01*
X104631185Y-69581315D01*
X104534494Y-69501963D01*
X104424180Y-69442998D01*
X104304482Y-69406688D01*
X104180000Y-69394428D01*
X103790750Y-69397500D01*
X103632000Y-69556250D01*
X103378000Y-69556250D01*
X103219250Y-69397500D01*
X102830000Y-69394428D01*
X102705518Y-69406688D01*
X102585820Y-69442998D01*
X102475506Y-69501963D01*
X102378815Y-69581315D01*
X102299463Y-69678006D01*
X102240498Y-69788320D01*
X102204188Y-69908018D01*
X102191928Y-70032500D01*
X86473020Y-70032500D01*
X86466514Y-70010329D01*
X86211004Y-69889429D01*
X85936816Y-69820700D01*
X85654488Y-69806783D01*
X85374870Y-69848213D01*
X85108708Y-69943397D01*
X84983486Y-70010329D01*
X84911903Y-70254296D01*
X84795630Y-70138023D01*
X84712500Y-70221153D01*
X84712500Y-69032000D01*
X86341428Y-69032000D01*
X86353688Y-69156482D01*
X86389998Y-69276180D01*
X86448963Y-69386494D01*
X86528315Y-69483185D01*
X86625006Y-69562537D01*
X86735320Y-69621502D01*
X86855018Y-69657812D01*
X86979500Y-69670072D01*
X87868750Y-69667000D01*
X88027500Y-69508250D01*
X88027500Y-68834000D01*
X88281500Y-68834000D01*
X88281500Y-69508250D01*
X88440250Y-69667000D01*
X89329500Y-69670072D01*
X89453982Y-69657812D01*
X89573680Y-69621502D01*
X89683994Y-69562537D01*
X89780685Y-69483185D01*
X89860037Y-69386494D01*
X89919002Y-69276180D01*
X89955312Y-69156482D01*
X89967572Y-69032000D01*
X89964500Y-68992750D01*
X89805750Y-68834000D01*
X88281500Y-68834000D01*
X88027500Y-68834000D01*
X86503250Y-68834000D01*
X86344500Y-68992750D01*
X86341428Y-69032000D01*
X84712500Y-69032000D01*
X84712500Y-60167781D01*
X84763877Y-60178000D01*
X85035123Y-60178000D01*
X85036051Y-60177816D01*
X86409260Y-61551025D01*
X86409795Y-61552789D01*
X86483033Y-61689808D01*
X86581595Y-61809905D01*
X86701692Y-61908467D01*
X86838711Y-61981705D01*
X86977402Y-62023777D01*
X86916310Y-62171266D01*
X86873000Y-62389000D01*
X86873000Y-62611000D01*
X86893803Y-62715583D01*
X86838711Y-62732295D01*
X86701692Y-62805533D01*
X86581595Y-62904095D01*
X86483033Y-63024192D01*
X86409795Y-63161211D01*
X86364695Y-63309884D01*
X86349467Y-63464500D01*
X86349467Y-63789500D01*
X86364695Y-63944116D01*
X86409795Y-64092789D01*
X86483033Y-64229808D01*
X86581595Y-64349905D01*
X86701692Y-64448467D01*
X86838711Y-64521705D01*
X86987384Y-64566805D01*
X87142000Y-64582033D01*
X89167000Y-64582033D01*
X89321616Y-64566805D01*
X89470289Y-64521705D01*
X89607308Y-64448467D01*
X89661491Y-64404000D01*
X90707157Y-64404000D01*
X89721157Y-65390000D01*
X89661491Y-65390000D01*
X89607308Y-65345533D01*
X89470289Y-65272295D01*
X89321616Y-65227195D01*
X89167000Y-65211967D01*
X87142000Y-65211967D01*
X86987384Y-65227195D01*
X86838711Y-65272295D01*
X86701692Y-65345533D01*
X86581595Y-65444095D01*
X86483033Y-65564192D01*
X86409795Y-65701211D01*
X86364695Y-65849884D01*
X86349467Y-66004500D01*
X86349467Y-66329500D01*
X86364695Y-66484116D01*
X86409795Y-66632789D01*
X86483033Y-66769808D01*
X86581595Y-66889905D01*
X86701692Y-66988467D01*
X86838711Y-67061705D01*
X86873000Y-67072107D01*
X86873000Y-67111000D01*
X86916310Y-67328734D01*
X87001266Y-67533835D01*
X87124602Y-67718421D01*
X87150700Y-67744519D01*
X86979500Y-67743928D01*
X86855018Y-67756188D01*
X86735320Y-67792498D01*
X86625006Y-67851463D01*
X86528315Y-67930815D01*
X86448963Y-68027506D01*
X86389998Y-68137820D01*
X86353688Y-68257518D01*
X86341428Y-68382000D01*
X86344500Y-68421250D01*
X86503250Y-68580000D01*
X88027500Y-68580000D01*
X88027500Y-68560000D01*
X88281500Y-68560000D01*
X88281500Y-68580000D01*
X89805750Y-68580000D01*
X89964500Y-68421250D01*
X89967572Y-68382000D01*
X89955312Y-68257518D01*
X89919002Y-68137820D01*
X89860037Y-68027506D01*
X89780685Y-67930815D01*
X89683994Y-67851463D01*
X89573680Y-67792498D01*
X89453982Y-67756188D01*
X89329500Y-67743928D01*
X88848228Y-67745591D01*
X88875398Y-67718421D01*
X88998734Y-67533835D01*
X89083690Y-67328734D01*
X89124805Y-67122033D01*
X89167000Y-67122033D01*
X89321616Y-67106805D01*
X89470289Y-67061705D01*
X89607308Y-66988467D01*
X89661491Y-66944000D01*
X90004837Y-66944000D01*
X90043000Y-66947759D01*
X90081163Y-66944000D01*
X90081166Y-66944000D01*
X90177060Y-66934555D01*
X90238066Y-67081835D01*
X90361402Y-67266421D01*
X90518379Y-67423398D01*
X90702965Y-67546734D01*
X90908066Y-67631690D01*
X91122973Y-67674438D01*
X91983203Y-68534668D01*
X92010667Y-68568133D01*
X92144208Y-68677727D01*
X92296563Y-68759162D01*
X92461878Y-68809310D01*
X92590721Y-68822000D01*
X92590730Y-68822000D01*
X92633799Y-68826242D01*
X92676869Y-68822000D01*
X102268412Y-68822000D01*
X102348279Y-68971421D01*
X102457722Y-69104778D01*
X102591079Y-69214221D01*
X102743225Y-69295545D01*
X102908313Y-69345623D01*
X103079999Y-69362533D01*
X103930001Y-69362533D01*
X104101687Y-69345623D01*
X104266775Y-69295545D01*
X104418921Y-69214221D01*
X104552278Y-69104778D01*
X104661721Y-68971421D01*
X104741588Y-68822000D01*
X105323075Y-68822000D01*
X105338425Y-68872603D01*
X105396647Y-68981528D01*
X105432483Y-69025195D01*
X105389963Y-69077006D01*
X105330998Y-69187320D01*
X105294688Y-69307018D01*
X105282428Y-69431500D01*
X105285500Y-69895750D01*
X105444250Y-70054500D01*
X106793500Y-70054500D01*
X106793500Y-70034500D01*
X107047500Y-70034500D01*
X107047500Y-70054500D01*
X108396750Y-70054500D01*
X108555500Y-69895750D01*
X108558572Y-69431500D01*
X108546312Y-69307018D01*
X108510002Y-69187320D01*
X108451037Y-69077006D01*
X108408517Y-69025195D01*
X108444353Y-68981528D01*
X108502575Y-68872603D01*
X108537187Y-68758500D01*
X111590467Y-68758500D01*
X111590467Y-69781500D01*
X111602573Y-69904413D01*
X111638425Y-70022603D01*
X111696647Y-70131528D01*
X111774999Y-70227001D01*
X111870472Y-70305353D01*
X111979397Y-70363575D01*
X112097587Y-70399427D01*
X112220500Y-70411533D01*
X112343500Y-70411533D01*
X112343500Y-70515434D01*
X111028435Y-71830500D01*
X109581182Y-71830500D01*
X109481476Y-71748673D01*
X109331491Y-71668504D01*
X109168747Y-71619136D01*
X108999500Y-71602467D01*
X108424500Y-71602467D01*
X108255253Y-71619136D01*
X108092509Y-71668504D01*
X107942524Y-71748673D01*
X107920467Y-71766775D01*
X107841494Y-71701963D01*
X107731180Y-71642998D01*
X107611482Y-71606688D01*
X107487000Y-71594428D01*
X107247750Y-71597500D01*
X107089000Y-71756250D01*
X107089000Y-72580500D01*
X107109000Y-72580500D01*
X107109000Y-72834500D01*
X107089000Y-72834500D01*
X107089000Y-73658750D01*
X107247750Y-73817500D01*
X107487000Y-73820572D01*
X107611482Y-73808312D01*
X107731180Y-73772002D01*
X107841494Y-73713037D01*
X107920467Y-73648225D01*
X107942524Y-73666327D01*
X108092509Y-73746496D01*
X108255253Y-73795864D01*
X108424500Y-73812533D01*
X108999500Y-73812533D01*
X109168747Y-73795864D01*
X109331491Y-73746496D01*
X109481476Y-73666327D01*
X109581182Y-73584500D01*
X111348621Y-73584500D01*
X111391700Y-73588743D01*
X111434779Y-73584500D01*
X111563622Y-73571810D01*
X111728937Y-73521662D01*
X111881292Y-73440227D01*
X112014833Y-73330633D01*
X112042297Y-73297168D01*
X112266335Y-73073130D01*
X112357802Y-73210021D01*
X112514779Y-73366998D01*
X112699365Y-73490334D01*
X112904466Y-73575290D01*
X113122200Y-73618600D01*
X113344200Y-73618600D01*
X113561934Y-73575290D01*
X113767035Y-73490334D01*
X113951621Y-73366998D01*
X114108598Y-73210021D01*
X114231934Y-73025435D01*
X114316890Y-72820334D01*
X114360200Y-72602600D01*
X114360200Y-72380600D01*
X114316890Y-72162866D01*
X114231934Y-71957765D01*
X114108598Y-71773179D01*
X114097500Y-71762081D01*
X114097500Y-70921778D01*
X114101743Y-70878700D01*
X114097500Y-70835621D01*
X114097500Y-70411533D01*
X114220500Y-70411533D01*
X114343413Y-70399427D01*
X114461603Y-70363575D01*
X114570528Y-70305353D01*
X114666001Y-70227001D01*
X114744353Y-70131528D01*
X114802575Y-70022603D01*
X114838427Y-69904413D01*
X114850533Y-69781500D01*
X114850533Y-67171891D01*
X120440997Y-67171891D01*
X121931000Y-68661895D01*
X123421003Y-67171891D01*
X123234927Y-66830734D01*
X122817591Y-66614987D01*
X122366185Y-66484804D01*
X121898054Y-66445187D01*
X121431189Y-66497658D01*
X120983532Y-66640203D01*
X120627073Y-66830734D01*
X120440997Y-67171891D01*
X114850533Y-67171891D01*
X114850533Y-65981500D01*
X114838427Y-65858587D01*
X114802575Y-65740397D01*
X114744353Y-65631472D01*
X114666001Y-65535999D01*
X114570528Y-65457647D01*
X114461603Y-65399425D01*
X114343413Y-65363573D01*
X114220500Y-65351467D01*
X112220500Y-65351467D01*
X112097587Y-65363573D01*
X111979397Y-65399425D01*
X111870472Y-65457647D01*
X111774999Y-65535999D01*
X111696647Y-65631472D01*
X111638425Y-65740397D01*
X111602573Y-65858587D01*
X111590467Y-65981500D01*
X111590467Y-67004500D01*
X108537187Y-67004500D01*
X108502575Y-66890397D01*
X108444353Y-66781472D01*
X108403342Y-66731500D01*
X108444353Y-66681528D01*
X108467486Y-66638249D01*
X108535666Y-66666490D01*
X108753400Y-66709800D01*
X108975400Y-66709800D01*
X109193134Y-66666490D01*
X109398235Y-66581534D01*
X109582821Y-66458198D01*
X109739798Y-66301221D01*
X109863134Y-66116635D01*
X109948090Y-65911534D01*
X109991400Y-65693800D01*
X109991400Y-65471800D01*
X109948090Y-65254066D01*
X109863134Y-65048965D01*
X109741400Y-64866777D01*
X109741400Y-63221500D01*
X115740967Y-63221500D01*
X115740967Y-64921500D01*
X115753073Y-65044413D01*
X115788925Y-65162603D01*
X115847147Y-65271528D01*
X115925499Y-65367001D01*
X116020972Y-65445353D01*
X116129897Y-65503575D01*
X116248087Y-65539427D01*
X116371000Y-65551533D01*
X118071000Y-65551533D01*
X118193913Y-65539427D01*
X118312103Y-65503575D01*
X118421028Y-65445353D01*
X118505900Y-65375701D01*
X118713883Y-65474871D01*
X118997411Y-65546839D01*
X119289531Y-65562111D01*
X119579019Y-65520099D01*
X119854747Y-65422419D01*
X119992157Y-65348972D01*
X120069792Y-65099897D01*
X119221000Y-64251105D01*
X119206858Y-64265248D01*
X119027253Y-64085643D01*
X119041395Y-64071500D01*
X119400605Y-64071500D01*
X120249397Y-64920292D01*
X120498472Y-64842657D01*
X120624371Y-64578617D01*
X120696339Y-64295089D01*
X120711611Y-64002969D01*
X120669599Y-63713481D01*
X120571919Y-63437753D01*
X120498472Y-63300343D01*
X120249397Y-63222708D01*
X119400605Y-64071500D01*
X119041395Y-64071500D01*
X119027253Y-64057358D01*
X119206858Y-63877753D01*
X119221000Y-63891895D01*
X120069792Y-63043103D01*
X120002108Y-62825954D01*
X120162533Y-62718761D01*
X120368261Y-62513033D01*
X120529901Y-62271122D01*
X120641240Y-62002325D01*
X120698000Y-61716972D01*
X120698000Y-61426028D01*
X120641240Y-61140675D01*
X120529901Y-60871878D01*
X120368261Y-60629967D01*
X120162533Y-60424239D01*
X119920622Y-60262599D01*
X119651825Y-60151260D01*
X119366472Y-60094500D01*
X119075528Y-60094500D01*
X118790175Y-60151260D01*
X118521378Y-60262599D01*
X118279467Y-60424239D01*
X118221000Y-60482706D01*
X118162533Y-60424239D01*
X117920622Y-60262599D01*
X117651825Y-60151260D01*
X117366472Y-60094500D01*
X117075528Y-60094500D01*
X116790175Y-60151260D01*
X116521378Y-60262599D01*
X116279467Y-60424239D01*
X116073739Y-60629967D01*
X115912099Y-60871878D01*
X115800760Y-61140675D01*
X115744000Y-61426028D01*
X115744000Y-61716972D01*
X115800760Y-62002325D01*
X115912099Y-62271122D01*
X116073739Y-62513033D01*
X116183785Y-62623079D01*
X116129897Y-62639425D01*
X116020972Y-62697647D01*
X115925499Y-62775999D01*
X115847147Y-62871472D01*
X115788925Y-62980397D01*
X115753073Y-63098587D01*
X115740967Y-63221500D01*
X109741400Y-63221500D01*
X109741400Y-58471109D01*
X120440997Y-58471109D01*
X120627073Y-58812266D01*
X121044409Y-59028013D01*
X121495815Y-59158196D01*
X121963946Y-59197813D01*
X122430811Y-59145342D01*
X122878468Y-59002797D01*
X123234927Y-58812266D01*
X123421003Y-58471109D01*
X121931000Y-56981105D01*
X120440997Y-58471109D01*
X109741400Y-58471109D01*
X109741400Y-57294669D01*
X109745642Y-57251599D01*
X109741400Y-57208530D01*
X109741400Y-57208521D01*
X109728710Y-57079678D01*
X109678562Y-56914363D01*
X109597127Y-56762008D01*
X109487533Y-56628467D01*
X109454069Y-56601004D01*
X107853616Y-55000551D01*
X107853800Y-54999623D01*
X107853800Y-54728377D01*
X107800883Y-54462344D01*
X107697082Y-54211746D01*
X107546386Y-53986213D01*
X107354587Y-53794414D01*
X107129054Y-53643718D01*
X106878456Y-53539917D01*
X106612423Y-53487000D01*
X106341177Y-53487000D01*
X106075144Y-53539917D01*
X105824546Y-53643718D01*
X105599013Y-53794414D01*
X105407214Y-53986213D01*
X105256518Y-54211746D01*
X105152717Y-54462344D01*
X105099800Y-54728377D01*
X105099800Y-54999623D01*
X105152717Y-55265656D01*
X105256518Y-55516254D01*
X105407214Y-55741787D01*
X105599013Y-55933586D01*
X105824546Y-56084282D01*
X106075144Y-56188083D01*
X106341177Y-56241000D01*
X106612423Y-56241000D01*
X106613351Y-56240816D01*
X107987400Y-57614865D01*
X107987401Y-59342112D01*
X107987400Y-59342122D01*
X107987401Y-64208056D01*
X107920500Y-64201467D01*
X107239500Y-64201467D01*
X107239500Y-64087182D01*
X107321327Y-63987476D01*
X107401496Y-63837491D01*
X107450864Y-63674747D01*
X107467533Y-63505500D01*
X107467533Y-62930500D01*
X107450864Y-62761253D01*
X107401496Y-62598509D01*
X107321327Y-62448524D01*
X107303225Y-62426467D01*
X107368037Y-62347494D01*
X107427002Y-62237180D01*
X107463312Y-62117482D01*
X107475572Y-61993000D01*
X107472500Y-61753750D01*
X107313750Y-61595000D01*
X106489500Y-61595000D01*
X106489500Y-61615000D01*
X106235500Y-61615000D01*
X106235500Y-61595000D01*
X105411250Y-61595000D01*
X105252500Y-61753750D01*
X105249428Y-61993000D01*
X105261688Y-62117482D01*
X105297998Y-62237180D01*
X105356963Y-62347494D01*
X105421775Y-62426467D01*
X105403673Y-62448524D01*
X105323504Y-62598509D01*
X105274136Y-62761253D01*
X105257467Y-62930500D01*
X105257467Y-63505500D01*
X105274136Y-63674747D01*
X105323504Y-63837491D01*
X105403673Y-63987476D01*
X105485500Y-64087182D01*
X105485501Y-64377381D01*
X105474999Y-64385999D01*
X105396647Y-64481472D01*
X105338425Y-64590397D01*
X105302573Y-64708587D01*
X105290467Y-64831500D01*
X105290467Y-66331500D01*
X105302573Y-66454413D01*
X105338425Y-66572603D01*
X105396647Y-66681528D01*
X105437658Y-66731500D01*
X105396647Y-66781472D01*
X105338425Y-66890397D01*
X105302573Y-67008587D01*
X105296721Y-67068000D01*
X104741588Y-67068000D01*
X104661721Y-66918579D01*
X104552278Y-66785222D01*
X104429202Y-66684217D01*
X104558198Y-66555221D01*
X104681534Y-66370635D01*
X104766490Y-66165534D01*
X104809800Y-65947800D01*
X104809800Y-65725800D01*
X104766490Y-65508066D01*
X104681534Y-65302965D01*
X104558198Y-65118379D01*
X104459800Y-65019981D01*
X104459800Y-60943000D01*
X105249428Y-60943000D01*
X105252500Y-61182250D01*
X105411250Y-61341000D01*
X106235500Y-61341000D01*
X106235500Y-60466750D01*
X106489500Y-60466750D01*
X106489500Y-61341000D01*
X107313750Y-61341000D01*
X107472500Y-61182250D01*
X107475572Y-60943000D01*
X107463312Y-60818518D01*
X107427002Y-60698820D01*
X107368037Y-60588506D01*
X107288685Y-60491815D01*
X107191994Y-60412463D01*
X107081680Y-60353498D01*
X106961982Y-60317188D01*
X106837500Y-60304928D01*
X106648250Y-60308000D01*
X106489500Y-60466750D01*
X106235500Y-60466750D01*
X106076750Y-60308000D01*
X105887500Y-60304928D01*
X105763018Y-60317188D01*
X105643320Y-60353498D01*
X105533006Y-60412463D01*
X105436315Y-60491815D01*
X105356963Y-60588506D01*
X105297998Y-60698820D01*
X105261688Y-60818518D01*
X105249428Y-60943000D01*
X104459800Y-60943000D01*
X104459800Y-60032955D01*
X104463558Y-59994799D01*
X104459800Y-59956643D01*
X104459800Y-59956634D01*
X104448557Y-59842481D01*
X104404127Y-59696016D01*
X104387714Y-59665310D01*
X104331977Y-59561033D01*
X104259209Y-59472365D01*
X104259208Y-59472364D01*
X104234880Y-59442720D01*
X104205236Y-59418392D01*
X103964714Y-59177870D01*
X103964714Y-59038714D01*
X103921404Y-58820980D01*
X103836448Y-58615879D01*
X103713112Y-58431293D01*
X103556135Y-58274316D01*
X103371549Y-58150980D01*
X103166448Y-58066024D01*
X102948714Y-58022714D01*
X102726714Y-58022714D01*
X102508980Y-58066024D01*
X102303879Y-58150980D01*
X102119293Y-58274316D01*
X101962316Y-58431293D01*
X101838980Y-58615879D01*
X101754024Y-58820980D01*
X101710714Y-59038714D01*
X101710714Y-59260714D01*
X101754024Y-59478448D01*
X101838980Y-59683549D01*
X101962316Y-59868135D01*
X102119293Y-60025112D01*
X102303879Y-60148448D01*
X102508980Y-60233404D01*
X102726714Y-60276714D01*
X102865870Y-60276714D01*
X102905801Y-60316645D01*
X102905800Y-65019981D01*
X102807402Y-65118379D01*
X102684066Y-65302965D01*
X102599110Y-65508066D01*
X102555800Y-65725800D01*
X102555800Y-65947800D01*
X102599110Y-66165534D01*
X102628001Y-66235282D01*
X102628001Y-66656044D01*
X102591079Y-66675779D01*
X102457722Y-66785222D01*
X102348279Y-66918579D01*
X102268412Y-67068000D01*
X92997065Y-67068000D01*
X92363238Y-66434173D01*
X92320490Y-66219266D01*
X92235534Y-66014165D01*
X92112198Y-65829579D01*
X91955221Y-65672602D01*
X91770635Y-65549266D01*
X91762816Y-65546027D01*
X95078712Y-62230131D01*
X95090379Y-62241798D01*
X95274965Y-62365134D01*
X95480066Y-62450090D01*
X95697800Y-62493400D01*
X95919800Y-62493400D01*
X96137534Y-62450090D01*
X96342635Y-62365134D01*
X96527221Y-62241798D01*
X96684198Y-62084821D01*
X96807534Y-61900235D01*
X96892490Y-61695134D01*
X96935800Y-61477400D01*
X96935800Y-61275384D01*
X97003035Y-61247534D01*
X97091586Y-61188366D01*
X97256165Y-61298334D01*
X97461266Y-61383290D01*
X97679000Y-61426600D01*
X97901000Y-61426600D01*
X98118734Y-61383290D01*
X98323835Y-61298334D01*
X98508421Y-61174998D01*
X98665398Y-61018021D01*
X98745800Y-60897690D01*
X98745800Y-60969400D01*
X98789110Y-61187134D01*
X98874066Y-61392235D01*
X98997402Y-61576821D01*
X99154379Y-61733798D01*
X99338965Y-61857134D01*
X99544066Y-61942090D01*
X99761800Y-61985400D01*
X99983800Y-61985400D01*
X100201534Y-61942090D01*
X100406635Y-61857134D01*
X100591221Y-61733798D01*
X100748198Y-61576821D01*
X100871534Y-61392235D01*
X100956490Y-61187134D01*
X100999800Y-60969400D01*
X100999800Y-60747400D01*
X100956490Y-60529666D01*
X100871534Y-60324565D01*
X100748198Y-60139979D01*
X100649800Y-60041581D01*
X100649800Y-58112492D01*
X100667641Y-58116041D01*
X100889641Y-58116041D01*
X101107375Y-58072731D01*
X101312476Y-57987775D01*
X101497062Y-57864439D01*
X101654039Y-57707462D01*
X101777375Y-57522876D01*
X101862331Y-57317775D01*
X101905641Y-57100041D01*
X101905641Y-56960884D01*
X103522437Y-55344089D01*
X103552080Y-55319762D01*
X103576409Y-55290117D01*
X103649177Y-55201449D01*
X103721327Y-55066466D01*
X103727366Y-55046558D01*
X103765757Y-54920001D01*
X103777000Y-54805848D01*
X103777000Y-54805846D01*
X103780759Y-54767683D01*
X103777000Y-54729519D01*
X103777000Y-54039843D01*
X103925865Y-53890979D01*
X103977457Y-53906629D01*
X104194444Y-53928000D01*
X104339556Y-53928000D01*
X104556543Y-53906629D01*
X104834958Y-53822172D01*
X105091547Y-53685022D01*
X105316450Y-53500450D01*
X105501022Y-53275547D01*
X105545669Y-53192017D01*
X114373000Y-53192017D01*
X114373000Y-53807983D01*
X114493169Y-54412112D01*
X114728889Y-54981190D01*
X115071101Y-55493346D01*
X115506654Y-55928899D01*
X116018810Y-56271111D01*
X116587888Y-56506831D01*
X117192017Y-56627000D01*
X117807983Y-56627000D01*
X118412112Y-56506831D01*
X118981190Y-56271111D01*
X119493346Y-55928899D01*
X119915484Y-55506761D01*
X119704487Y-55914909D01*
X119574304Y-56366315D01*
X119534687Y-56834446D01*
X119587158Y-57301311D01*
X119729703Y-57748968D01*
X119920234Y-58105427D01*
X120261391Y-58291503D01*
X121751395Y-56801500D01*
X122110605Y-56801500D01*
X123600609Y-58291503D01*
X123941766Y-58105427D01*
X124157513Y-57688091D01*
X124287696Y-57236685D01*
X124327313Y-56768554D01*
X124274842Y-56301689D01*
X124132297Y-55854032D01*
X123941766Y-55497573D01*
X123600609Y-55311497D01*
X122110605Y-56801500D01*
X121751395Y-56801500D01*
X120261391Y-55311497D01*
X119929424Y-55492561D01*
X120170415Y-55131891D01*
X120440997Y-55131891D01*
X121931000Y-56621895D01*
X123421003Y-55131891D01*
X123234927Y-54790734D01*
X122817591Y-54574987D01*
X122366185Y-54444804D01*
X121898054Y-54405187D01*
X121431189Y-54457658D01*
X120983532Y-54600203D01*
X120627073Y-54790734D01*
X120440997Y-55131891D01*
X120170415Y-55131891D01*
X120271111Y-54981190D01*
X120506831Y-54412112D01*
X120627000Y-53807983D01*
X120627000Y-53192017D01*
X120506831Y-52587888D01*
X120271111Y-52018810D01*
X119928899Y-51506654D01*
X119493346Y-51071101D01*
X118981190Y-50728889D01*
X118412112Y-50493169D01*
X117807983Y-50373000D01*
X117192017Y-50373000D01*
X116587888Y-50493169D01*
X116018810Y-50728889D01*
X115506654Y-51071101D01*
X115071101Y-51506654D01*
X114728889Y-52018810D01*
X114493169Y-52587888D01*
X114373000Y-53192017D01*
X105545669Y-53192017D01*
X105638172Y-53018958D01*
X105722629Y-52740543D01*
X105751146Y-52451000D01*
X105722629Y-52161457D01*
X105638172Y-51883042D01*
X105501022Y-51626453D01*
X105316450Y-51401550D01*
X105091547Y-51216978D01*
X104834958Y-51079828D01*
X104556543Y-50995371D01*
X104339556Y-50974000D01*
X104194444Y-50974000D01*
X103977457Y-50995371D01*
X103699042Y-51079828D01*
X103442453Y-51216978D01*
X103217550Y-51401550D01*
X103032978Y-51626453D01*
X102997000Y-51693763D01*
X102961022Y-51626453D01*
X102776450Y-51401550D01*
X102551547Y-51216978D01*
X102294958Y-51079828D01*
X102016543Y-50995371D01*
X101799556Y-50974000D01*
X101654444Y-50974000D01*
X101437457Y-50995371D01*
X101159042Y-51079828D01*
X100902453Y-51216978D01*
X100677550Y-51401550D01*
X100492978Y-51626453D01*
X100456580Y-51694549D01*
X100382178Y-51569645D01*
X100187269Y-51353412D01*
X99953920Y-51179359D01*
X99691099Y-51054175D01*
X99543890Y-51009524D01*
X99314000Y-51130845D01*
X99314000Y-52324000D01*
X99334000Y-52324000D01*
X99334000Y-52578000D01*
X99314000Y-52578000D01*
X99314000Y-53771155D01*
X99543890Y-53892476D01*
X99691099Y-53847825D01*
X99953920Y-53722641D01*
X100187269Y-53548588D01*
X100382178Y-53332355D01*
X100456580Y-53207451D01*
X100492978Y-53275547D01*
X100677550Y-53500450D01*
X100902453Y-53685022D01*
X100950000Y-53710437D01*
X100950000Y-54516756D01*
X99350365Y-56116392D01*
X99320721Y-56140720D01*
X99296393Y-56170364D01*
X99296391Y-56170366D01*
X99223623Y-56259034D01*
X99151473Y-56394017D01*
X99107044Y-56540482D01*
X99092041Y-56692800D01*
X99095801Y-56730973D01*
X99095800Y-60041581D01*
X98997402Y-60139979D01*
X98917000Y-60260310D01*
X98917000Y-60188600D01*
X98873690Y-59970866D01*
X98788734Y-59765765D01*
X98665398Y-59581179D01*
X98567000Y-59482781D01*
X98567000Y-54834236D01*
X98570758Y-54796080D01*
X98567000Y-54757924D01*
X98567000Y-54757915D01*
X98555757Y-54643762D01*
X98511327Y-54497297D01*
X98492644Y-54462344D01*
X98439177Y-54362314D01*
X98366409Y-54273646D01*
X98366408Y-54273645D01*
X98342080Y-54244001D01*
X98312437Y-54219674D01*
X97639747Y-53546985D01*
X97696450Y-53500450D01*
X97881022Y-53275547D01*
X97917420Y-53207451D01*
X97991822Y-53332355D01*
X98186731Y-53548588D01*
X98420080Y-53722641D01*
X98682901Y-53847825D01*
X98830110Y-53892476D01*
X99060000Y-53771155D01*
X99060000Y-52578000D01*
X99040000Y-52578000D01*
X99040000Y-52324000D01*
X99060000Y-52324000D01*
X99060000Y-51130845D01*
X98830110Y-51009524D01*
X98682901Y-51054175D01*
X98420080Y-51179359D01*
X98186731Y-51353412D01*
X97991822Y-51569645D01*
X97917420Y-51694549D01*
X97881022Y-51626453D01*
X97696450Y-51401550D01*
X97471547Y-51216978D01*
X97214958Y-51079828D01*
X96936543Y-50995371D01*
X96719556Y-50974000D01*
X96574444Y-50974000D01*
X96357457Y-50995371D01*
X96079042Y-51079828D01*
X95822453Y-51216978D01*
X95597550Y-51401550D01*
X95412978Y-51626453D01*
X95377000Y-51693763D01*
X95341022Y-51626453D01*
X95156450Y-51401550D01*
X94931547Y-51216978D01*
X94674958Y-51079828D01*
X94396543Y-50995371D01*
X94179556Y-50974000D01*
X94034444Y-50974000D01*
X93817457Y-50995371D01*
X93539042Y-51079828D01*
X93282453Y-51216978D01*
X93057550Y-51401550D01*
X93024081Y-51442332D01*
X92999075Y-51359897D01*
X92940853Y-51250972D01*
X92862501Y-51155499D01*
X92767028Y-51077147D01*
X92658103Y-51018925D01*
X92539913Y-50983073D01*
X92417000Y-50970967D01*
X90717000Y-50970967D01*
X90594087Y-50983073D01*
X90475897Y-51018925D01*
X90366972Y-51077147D01*
X90271499Y-51155499D01*
X90193147Y-51250972D01*
X90134925Y-51359897D01*
X90099073Y-51478087D01*
X90086967Y-51601000D01*
X90086967Y-53301000D01*
X90099073Y-53423913D01*
X90134925Y-53542103D01*
X90193147Y-53651028D01*
X90271499Y-53746501D01*
X90366972Y-53824853D01*
X90475897Y-53883075D01*
X90594087Y-53918927D01*
X90717000Y-53931033D01*
X92417000Y-53931033D01*
X92539913Y-53918927D01*
X92658103Y-53883075D01*
X92767028Y-53824853D01*
X92862501Y-53746501D01*
X92940853Y-53651028D01*
X92999075Y-53542103D01*
X93024081Y-53459668D01*
X93057550Y-53500450D01*
X93282453Y-53685022D01*
X93539042Y-53822172D01*
X93817457Y-53906629D01*
X93850358Y-53909869D01*
X93774014Y-53986213D01*
X93773488Y-53987000D01*
X88879579Y-53987000D01*
X88836500Y-53982757D01*
X88664577Y-53999690D01*
X88542962Y-54036582D01*
X88499263Y-54049838D01*
X88346908Y-54131273D01*
X88327862Y-54146904D01*
X88249569Y-54211157D01*
X88213367Y-54240867D01*
X88185908Y-54274326D01*
X85059830Y-57400405D01*
X85031079Y-57424000D01*
X84763877Y-57424000D01*
X84712500Y-57434219D01*
X84712500Y-55020020D01*
X84709113Y-54985631D01*
X84709113Y-54980672D01*
X84708088Y-54970924D01*
X84704616Y-54939974D01*
X84702342Y-54916884D01*
X84701841Y-54915231D01*
X84699799Y-54897031D01*
X84686576Y-54834822D01*
X84674215Y-54772392D01*
X84671316Y-54763029D01*
X84648833Y-54692151D01*
X84627000Y-54641210D01*
X84627000Y-50202000D01*
X124798001Y-50202000D01*
X124798000Y-74798000D01*
G36*
X95412978Y-53275547D02*
G01*
X95597550Y-53500450D01*
X95822453Y-53685022D01*
X95871995Y-53711503D01*
X95881244Y-53805399D01*
X95925673Y-53951864D01*
X95997823Y-54086847D01*
X96064953Y-54168645D01*
X96094921Y-54205161D01*
X96124565Y-54229489D01*
X97013000Y-55117925D01*
X97013000Y-55359366D01*
X97013001Y-55359376D01*
X97013000Y-59256725D01*
X97003035Y-59250066D01*
X96797934Y-59165110D01*
X96580200Y-59121800D01*
X96358200Y-59121800D01*
X96140466Y-59165110D01*
X95935365Y-59250066D01*
X95750779Y-59373402D01*
X95652381Y-59471800D01*
X94678555Y-59471800D01*
X94640399Y-59468042D01*
X94602243Y-59471800D01*
X94602234Y-59471800D01*
X94488081Y-59483043D01*
X94341616Y-59527473D01*
X94206633Y-59599623D01*
X94118261Y-59672148D01*
X94088320Y-59696720D01*
X94063992Y-59726364D01*
X90940357Y-62850000D01*
X89661491Y-62850000D01*
X89607308Y-62805533D01*
X89470289Y-62732295D01*
X89321616Y-62687195D01*
X89167000Y-62671967D01*
X89114873Y-62671967D01*
X89127000Y-62611000D01*
X89127000Y-62389000D01*
X89083690Y-62171266D01*
X89030160Y-62042033D01*
X89167000Y-62042033D01*
X89321616Y-62026805D01*
X89470289Y-61981705D01*
X89607308Y-61908467D01*
X89727405Y-61809905D01*
X89825967Y-61689808D01*
X89899205Y-61552789D01*
X89944305Y-61404116D01*
X89959533Y-61249500D01*
X89959533Y-60924500D01*
X89944305Y-60769884D01*
X89899205Y-60621211D01*
X89825967Y-60484192D01*
X89727405Y-60364095D01*
X89607308Y-60265533D01*
X89470289Y-60192295D01*
X89321616Y-60147195D01*
X89167000Y-60131967D01*
X87831563Y-60131967D01*
X88038332Y-60057277D01*
X88151363Y-59996860D01*
X88216888Y-59757993D01*
X87439500Y-58980605D01*
X87425358Y-58994748D01*
X87245753Y-58815143D01*
X87259895Y-58801000D01*
X87619105Y-58801000D01*
X88396493Y-59578388D01*
X88635360Y-59512863D01*
X88751260Y-59265884D01*
X88816750Y-59001040D01*
X88829312Y-58728508D01*
X88788465Y-58458762D01*
X88695777Y-58202168D01*
X88635360Y-58089137D01*
X88396493Y-58023612D01*
X87619105Y-58801000D01*
X87259895Y-58801000D01*
X87245753Y-58786858D01*
X87425358Y-58607253D01*
X87439500Y-58621395D01*
X88216888Y-57844007D01*
X88151363Y-57605140D01*
X87904384Y-57489240D01*
X87639540Y-57423750D01*
X87522414Y-57418351D01*
X89199766Y-55741000D01*
X93773488Y-55741000D01*
X93774014Y-55741787D01*
X93965813Y-55933586D01*
X94191346Y-56084282D01*
X94441944Y-56188083D01*
X94707977Y-56241000D01*
X94979223Y-56241000D01*
X95245256Y-56188083D01*
X95495854Y-56084282D01*
X95721387Y-55933586D01*
X95913186Y-55741787D01*
X96063882Y-55516254D01*
X96167683Y-55265656D01*
X96220600Y-54999623D01*
X96220600Y-54728377D01*
X96167683Y-54462344D01*
X96063882Y-54211746D01*
X95913186Y-53986213D01*
X95721387Y-53794414D01*
X95495854Y-53643718D01*
X95245256Y-53539917D01*
X95135066Y-53517999D01*
X95156450Y-53500450D01*
X95341022Y-53275547D01*
X95377000Y-53208237D01*
X95412978Y-53275547D01*
X95412978Y-53275547D01*
G37*
X95412978Y-53275547D02*
X95597550Y-53500450D01*
X95822453Y-53685022D01*
X95871995Y-53711503D01*
X95881244Y-53805399D01*
X95925673Y-53951864D01*
X95997823Y-54086847D01*
X96064953Y-54168645D01*
X96094921Y-54205161D01*
X96124565Y-54229489D01*
X97013000Y-55117925D01*
X97013000Y-55359366D01*
X97013001Y-55359376D01*
X97013000Y-59256725D01*
X97003035Y-59250066D01*
X96797934Y-59165110D01*
X96580200Y-59121800D01*
X96358200Y-59121800D01*
X96140466Y-59165110D01*
X95935365Y-59250066D01*
X95750779Y-59373402D01*
X95652381Y-59471800D01*
X94678555Y-59471800D01*
X94640399Y-59468042D01*
X94602243Y-59471800D01*
X94602234Y-59471800D01*
X94488081Y-59483043D01*
X94341616Y-59527473D01*
X94206633Y-59599623D01*
X94118261Y-59672148D01*
X94088320Y-59696720D01*
X94063992Y-59726364D01*
X90940357Y-62850000D01*
X89661491Y-62850000D01*
X89607308Y-62805533D01*
X89470289Y-62732295D01*
X89321616Y-62687195D01*
X89167000Y-62671967D01*
X89114873Y-62671967D01*
X89127000Y-62611000D01*
X89127000Y-62389000D01*
X89083690Y-62171266D01*
X89030160Y-62042033D01*
X89167000Y-62042033D01*
X89321616Y-62026805D01*
X89470289Y-61981705D01*
X89607308Y-61908467D01*
X89727405Y-61809905D01*
X89825967Y-61689808D01*
X89899205Y-61552789D01*
X89944305Y-61404116D01*
X89959533Y-61249500D01*
X89959533Y-60924500D01*
X89944305Y-60769884D01*
X89899205Y-60621211D01*
X89825967Y-60484192D01*
X89727405Y-60364095D01*
X89607308Y-60265533D01*
X89470289Y-60192295D01*
X89321616Y-60147195D01*
X89167000Y-60131967D01*
X87831563Y-60131967D01*
X88038332Y-60057277D01*
X88151363Y-59996860D01*
X88216888Y-59757993D01*
X87439500Y-58980605D01*
X87425358Y-58994748D01*
X87245753Y-58815143D01*
X87259895Y-58801000D01*
X87619105Y-58801000D01*
X88396493Y-59578388D01*
X88635360Y-59512863D01*
X88751260Y-59265884D01*
X88816750Y-59001040D01*
X88829312Y-58728508D01*
X88788465Y-58458762D01*
X88695777Y-58202168D01*
X88635360Y-58089137D01*
X88396493Y-58023612D01*
X87619105Y-58801000D01*
X87259895Y-58801000D01*
X87245753Y-58786858D01*
X87425358Y-58607253D01*
X87439500Y-58621395D01*
X88216888Y-57844007D01*
X88151363Y-57605140D01*
X87904384Y-57489240D01*
X87639540Y-57423750D01*
X87522414Y-57418351D01*
X89199766Y-55741000D01*
X93773488Y-55741000D01*
X93774014Y-55741787D01*
X93965813Y-55933586D01*
X94191346Y-56084282D01*
X94441944Y-56188083D01*
X94707977Y-56241000D01*
X94979223Y-56241000D01*
X95245256Y-56188083D01*
X95495854Y-56084282D01*
X95721387Y-55933586D01*
X95913186Y-55741787D01*
X96063882Y-55516254D01*
X96167683Y-55265656D01*
X96220600Y-54999623D01*
X96220600Y-54728377D01*
X96167683Y-54462344D01*
X96063882Y-54211746D01*
X95913186Y-53986213D01*
X95721387Y-53794414D01*
X95495854Y-53643718D01*
X95245256Y-53539917D01*
X95135066Y-53517999D01*
X95156450Y-53500450D01*
X95341022Y-53275547D01*
X95377000Y-53208237D01*
X95412978Y-53275547D01*
M02*
