G04 #@! TF.GenerationSoftware,KiCad,Pcbnew,5.1.4*
G04 #@! TF.CreationDate,2020-05-23T13:02:16+03:00*
G04 #@! TF.ProjectId,stm32,73746d33-322e-46b6-9963-61645f706362,rev?*
G04 #@! TF.SameCoordinates,Original*
G04 #@! TF.FileFunction,Legend,Top*
G04 #@! TF.FilePolarity,Positive*
%FSLAX46Y46*%
G04 Gerber Fmt 4.6, Leading zero omitted, Abs format (unit mm)*
G04 Created by KiCad (PCBNEW 5.1.4) date 2020-05-23 13:02:16*
%MOMM*%
%LPD*%
G04 APERTURE LIST*
%ADD10C,0.150000*%
%ADD11C,0.120000*%
G04 APERTURE END LIST*
D10*
X65754380Y-65533542D02*
X65706761Y-65581161D01*
X65563904Y-65628780D01*
X65468666Y-65628780D01*
X65325809Y-65581161D01*
X65230571Y-65485923D01*
X65182952Y-65390685D01*
X65135333Y-65200209D01*
X65135333Y-65057352D01*
X65182952Y-64866876D01*
X65230571Y-64771638D01*
X65325809Y-64676400D01*
X65468666Y-64628780D01*
X65563904Y-64628780D01*
X65706761Y-64676400D01*
X65754380Y-64724019D01*
X66135333Y-65343066D02*
X66611523Y-65343066D01*
X66040095Y-65628780D02*
X66373428Y-64628780D01*
X66706761Y-65628780D01*
X67040095Y-65628780D02*
X67040095Y-64628780D01*
X67611523Y-65628780D01*
X67611523Y-64628780D01*
X68563904Y-65628780D02*
X68087714Y-65628780D01*
X68087714Y-64628780D01*
X65989295Y-59647200D02*
X65894057Y-59599580D01*
X65751200Y-59599580D01*
X65608342Y-59647200D01*
X65513104Y-59742438D01*
X65465485Y-59837676D01*
X65417866Y-60028152D01*
X65417866Y-60171009D01*
X65465485Y-60361485D01*
X65513104Y-60456723D01*
X65608342Y-60551961D01*
X65751200Y-60599580D01*
X65846438Y-60599580D01*
X65989295Y-60551961D01*
X66036914Y-60504342D01*
X66036914Y-60171009D01*
X65846438Y-60171009D01*
X66465485Y-60599580D02*
X66465485Y-59599580D01*
X67036914Y-60599580D01*
X67036914Y-59599580D01*
X67513104Y-60599580D02*
X67513104Y-59599580D01*
X67751200Y-59599580D01*
X67894057Y-59647200D01*
X67989295Y-59742438D01*
X68036914Y-59837676D01*
X68084533Y-60028152D01*
X68084533Y-60171009D01*
X68036914Y-60361485D01*
X67989295Y-60456723D01*
X67894057Y-60551961D01*
X67751200Y-60599580D01*
X67513104Y-60599580D01*
X65584533Y-55424342D02*
X65536914Y-55471961D01*
X65394057Y-55519580D01*
X65298819Y-55519580D01*
X65155961Y-55471961D01*
X65060723Y-55376723D01*
X65013104Y-55281485D01*
X64965485Y-55091009D01*
X64965485Y-54948152D01*
X65013104Y-54757676D01*
X65060723Y-54662438D01*
X65155961Y-54567200D01*
X65298819Y-54519580D01*
X65394057Y-54519580D01*
X65536914Y-54567200D01*
X65584533Y-54614819D01*
X65965485Y-55233866D02*
X66441676Y-55233866D01*
X65870247Y-55519580D02*
X66203580Y-54519580D01*
X66536914Y-55519580D01*
X66870247Y-55519580D02*
X66870247Y-54519580D01*
X67441676Y-55519580D01*
X67441676Y-54519580D01*
X67917866Y-55519580D02*
X67917866Y-54519580D01*
X67917866Y-54995771D02*
X68489295Y-54995771D01*
X68489295Y-55519580D02*
X68489295Y-54519580D01*
X61000000Y-75500000D02*
X125500000Y-75500000D01*
X61000000Y-49500000D02*
X61000000Y-75500000D01*
X125500000Y-50000000D02*
X125500000Y-49500000D01*
X61000000Y-49500000D02*
X125500000Y-49500000D01*
X83248500Y-55054500D02*
G75*
G02X84010500Y-55054500I381000J0D01*
G01*
X84010500Y-70612000D02*
G75*
G02X83248500Y-70612000I-381000J0D01*
G01*
X84010500Y-55054500D02*
X84010500Y-70612000D01*
X83248500Y-55054500D02*
X83248500Y-70612000D01*
X79732857Y-74048880D02*
X79732857Y-73048880D01*
X80304285Y-74048880D01*
X80304285Y-73048880D01*
X80970952Y-73048880D02*
X81161428Y-73048880D01*
X81256666Y-73096500D01*
X81351904Y-73191738D01*
X81399523Y-73382214D01*
X81399523Y-73715547D01*
X81351904Y-73906023D01*
X81256666Y-74001261D01*
X81161428Y-74048880D01*
X80970952Y-74048880D01*
X80875714Y-74001261D01*
X80780476Y-73906023D01*
X80732857Y-73715547D01*
X80732857Y-73382214D01*
X80780476Y-73191738D01*
X80875714Y-73096500D01*
X80970952Y-73048880D01*
X81685238Y-73048880D02*
X82256666Y-73048880D01*
X81970952Y-74048880D02*
X81970952Y-73048880D01*
X84113809Y-74048880D02*
X84113809Y-73048880D01*
X84542380Y-74001261D02*
X84685238Y-74048880D01*
X84923333Y-74048880D01*
X85018571Y-74001261D01*
X85066190Y-73953642D01*
X85113809Y-73858404D01*
X85113809Y-73763166D01*
X85066190Y-73667928D01*
X85018571Y-73620309D01*
X84923333Y-73572690D01*
X84732857Y-73525071D01*
X84637619Y-73477452D01*
X84590000Y-73429833D01*
X84542380Y-73334595D01*
X84542380Y-73239357D01*
X84590000Y-73144119D01*
X84637619Y-73096500D01*
X84732857Y-73048880D01*
X84970952Y-73048880D01*
X85113809Y-73096500D01*
X85732857Y-73048880D02*
X85923333Y-73048880D01*
X86018571Y-73096500D01*
X86113809Y-73191738D01*
X86161428Y-73382214D01*
X86161428Y-73715547D01*
X86113809Y-73906023D01*
X86018571Y-74001261D01*
X85923333Y-74048880D01*
X85732857Y-74048880D01*
X85637619Y-74001261D01*
X85542380Y-73906023D01*
X85494761Y-73715547D01*
X85494761Y-73382214D01*
X85542380Y-73191738D01*
X85637619Y-73096500D01*
X85732857Y-73048880D01*
X87066190Y-74048880D02*
X86590000Y-74048880D01*
X86590000Y-73048880D01*
X87351904Y-73763166D02*
X87828095Y-73763166D01*
X87256666Y-74048880D02*
X87590000Y-73048880D01*
X87923333Y-74048880D01*
X88113809Y-73048880D02*
X88685238Y-73048880D01*
X88399523Y-74048880D02*
X88399523Y-73048880D01*
X89018571Y-73525071D02*
X89351904Y-73525071D01*
X89494761Y-74048880D02*
X89018571Y-74048880D01*
X89018571Y-73048880D01*
X89494761Y-73048880D01*
X89923333Y-74048880D02*
X89923333Y-73048880D01*
X90161428Y-73048880D01*
X90304285Y-73096500D01*
X90399523Y-73191738D01*
X90447142Y-73286976D01*
X90494761Y-73477452D01*
X90494761Y-73620309D01*
X90447142Y-73810785D01*
X90399523Y-73906023D01*
X90304285Y-74001261D01*
X90161428Y-74048880D01*
X89923333Y-74048880D01*
X71023809Y-67952380D02*
X71595238Y-67952380D01*
X71309523Y-68952380D02*
X71309523Y-67952380D01*
X72309523Y-68904761D02*
X72214285Y-68952380D01*
X72023809Y-68952380D01*
X71928571Y-68904761D01*
X71880952Y-68809523D01*
X71880952Y-68428571D01*
X71928571Y-68333333D01*
X72023809Y-68285714D01*
X72214285Y-68285714D01*
X72309523Y-68333333D01*
X72357142Y-68428571D01*
X72357142Y-68523809D01*
X71880952Y-68619047D01*
X72785714Y-68952380D02*
X72785714Y-68285714D01*
X72785714Y-68476190D02*
X72833333Y-68380952D01*
X72880952Y-68333333D01*
X72976190Y-68285714D01*
X73071428Y-68285714D01*
X73404761Y-68952380D02*
X73404761Y-68285714D01*
X73404761Y-68380952D02*
X73452380Y-68333333D01*
X73547619Y-68285714D01*
X73690476Y-68285714D01*
X73785714Y-68333333D01*
X73833333Y-68428571D01*
X73833333Y-68952380D01*
X73833333Y-68428571D02*
X73880952Y-68333333D01*
X73976190Y-68285714D01*
X74119047Y-68285714D01*
X74214285Y-68333333D01*
X74261904Y-68428571D01*
X74261904Y-68952380D01*
X75642857Y-68952380D02*
X75547619Y-68904761D01*
X75500000Y-68857142D01*
X75452380Y-68761904D01*
X75452380Y-68476190D01*
X75500000Y-68380952D01*
X75547619Y-68333333D01*
X75642857Y-68285714D01*
X75785714Y-68285714D01*
X75880952Y-68333333D01*
X75928571Y-68380952D01*
X75976190Y-68476190D01*
X75976190Y-68761904D01*
X75928571Y-68857142D01*
X75880952Y-68904761D01*
X75785714Y-68952380D01*
X75642857Y-68952380D01*
X76404761Y-68285714D02*
X76404761Y-68952380D01*
X76404761Y-68380952D02*
X76452380Y-68333333D01*
X76547619Y-68285714D01*
X76690476Y-68285714D01*
X76785714Y-68333333D01*
X76833333Y-68428571D01*
X76833333Y-68952380D01*
X125500000Y-75500000D02*
X125500000Y-50000000D01*
D11*
X84355000Y-71247000D02*
X81745000Y-71247000D01*
X87095000Y-71247000D02*
G75*
G03X87095000Y-71247000I-1370000J0D01*
G01*
X80628748Y-57225000D02*
X81151252Y-57225000D01*
X80628748Y-55805000D02*
X81151252Y-55805000D01*
X86171248Y-57225000D02*
X86693752Y-57225000D01*
X86171248Y-55805000D02*
X86693752Y-55805000D01*
X93220000Y-56710733D02*
X93220000Y-57053267D01*
X92200000Y-56710733D02*
X92200000Y-57053267D01*
X103245767Y-58485500D02*
X102903233Y-58485500D01*
X103245767Y-57465500D02*
X102903233Y-57465500D01*
X102554500Y-68419767D02*
X102554500Y-68077233D01*
X101534500Y-68419767D02*
X101534500Y-68077233D01*
X91378500Y-63455733D02*
X91378500Y-63798267D01*
X90358500Y-63455733D02*
X90358500Y-63798267D01*
X69677500Y-61092000D02*
X69677500Y-62022000D01*
X69677500Y-64252000D02*
X69677500Y-63322000D01*
X69677500Y-64252000D02*
X71837500Y-64252000D01*
X69677500Y-61092000D02*
X71137500Y-61092000D01*
X110869500Y-59225500D02*
X108919500Y-59225500D01*
X110869500Y-59225500D02*
X112819500Y-59225500D01*
X110869500Y-64345500D02*
X108919500Y-64345500D01*
X110869500Y-64345500D02*
X114319500Y-64345500D01*
X105890500Y-72016500D02*
X108750500Y-72016500D01*
X105890500Y-70096500D02*
X105890500Y-72016500D01*
X108750500Y-70096500D02*
X105890500Y-70096500D01*
X108750500Y-66540500D02*
X105890500Y-66540500D01*
X105890500Y-66540500D02*
X105890500Y-68460500D01*
X105890500Y-68460500D02*
X108750500Y-68460500D01*
X105597000Y-53781000D02*
X105597000Y-51121000D01*
X92837000Y-53781000D02*
X105597000Y-53781000D01*
X92837000Y-51121000D02*
X105597000Y-51121000D01*
X92837000Y-53781000D02*
X92837000Y-51121000D01*
X91567000Y-53781000D02*
X90237000Y-53781000D01*
X90237000Y-53781000D02*
X90237000Y-52451000D01*
X79377000Y-67533733D02*
X79377000Y-67876267D01*
X78357000Y-67533733D02*
X78357000Y-67876267D01*
X104833267Y-63248000D02*
X104490733Y-63248000D01*
X104833267Y-62228000D02*
X104490733Y-62228000D01*
X104833267Y-60513500D02*
X104490733Y-60513500D01*
X104833267Y-61533500D02*
X104490733Y-61533500D01*
X97721267Y-56898000D02*
X97378733Y-56898000D01*
X97721267Y-55878000D02*
X97378733Y-55878000D01*
X91188000Y-57067267D02*
X91188000Y-56724733D01*
X90168000Y-57067267D02*
X90168000Y-56724733D01*
X111920233Y-71566500D02*
X112262767Y-71566500D01*
X111920233Y-70546500D02*
X112262767Y-70546500D01*
X111983733Y-66990500D02*
X112326267Y-66990500D01*
X111983733Y-68010500D02*
X112326267Y-68010500D01*
X72693000Y-66592500D02*
X72693000Y-59771500D01*
X76913000Y-66592500D02*
X76913000Y-59771500D01*
X72693000Y-66592500D02*
X73763000Y-66592500D01*
X75843000Y-66592500D02*
X76913000Y-66592500D01*
X72693000Y-59771500D02*
X73813000Y-59771500D01*
X75793000Y-59771500D02*
X76913000Y-59771500D01*
X72453000Y-66832500D02*
X72453000Y-65449500D01*
X72453000Y-66832500D02*
X73763000Y-66832500D01*
X74168000Y-64992500D02*
X75438000Y-64992500D01*
X75438000Y-64992500D02*
X75438000Y-61372500D01*
X75438000Y-61372500D02*
X74168000Y-61372500D01*
X74168000Y-61372500D02*
X74168000Y-64992500D01*
X74288000Y-64992500D02*
X74288000Y-63785833D01*
X74408000Y-64992500D02*
X74408000Y-63785833D01*
X74528000Y-64992500D02*
X74528000Y-63785833D01*
X74648000Y-64992500D02*
X74648000Y-63785833D01*
X74768000Y-64992500D02*
X74768000Y-63785833D01*
X74888000Y-64992500D02*
X74888000Y-63785833D01*
X75008000Y-64992500D02*
X75008000Y-63785833D01*
X75128000Y-64992500D02*
X75128000Y-63785833D01*
X75248000Y-64992500D02*
X75248000Y-63785833D01*
X75368000Y-64992500D02*
X75368000Y-63785833D01*
X74168000Y-63785833D02*
X75438000Y-63785833D01*
X83629500Y-67457000D02*
X87079500Y-67457000D01*
X83629500Y-67457000D02*
X81679500Y-67457000D01*
X83629500Y-62337000D02*
X85579500Y-62337000D01*
X83629500Y-62337000D02*
X81679500Y-62337000D01*
X100569000Y-66221000D02*
X101019000Y-66221000D01*
X101019000Y-66221000D02*
X101019000Y-65771000D01*
X94249000Y-66221000D02*
X93799000Y-66221000D01*
X93799000Y-66221000D02*
X93799000Y-65771000D01*
X100569000Y-59001000D02*
X101019000Y-59001000D01*
X101019000Y-59001000D02*
X101019000Y-59451000D01*
X94249000Y-59001000D02*
X93799000Y-59001000D01*
X93799000Y-59001000D02*
X93799000Y-59451000D01*
X93799000Y-59451000D02*
X92509000Y-59451000D01*
D10*
X87812666Y-70635880D02*
X87812666Y-71350166D01*
X87765047Y-71493023D01*
X87669809Y-71588261D01*
X87526952Y-71635880D01*
X87431714Y-71635880D01*
X88288857Y-71635880D02*
X88288857Y-70635880D01*
X88669809Y-70635880D01*
X88765047Y-70683500D01*
X88812666Y-70731119D01*
X88860285Y-70826357D01*
X88860285Y-70969214D01*
X88812666Y-71064452D01*
X88765047Y-71112071D01*
X88669809Y-71159690D01*
X88288857Y-71159690D01*
X89812666Y-71635880D02*
X89241238Y-71635880D01*
X89526952Y-71635880D02*
X89526952Y-70635880D01*
X89431714Y-70778738D01*
X89336476Y-70873976D01*
X89241238Y-70921595D01*
X80723333Y-55222142D02*
X80675714Y-55269761D01*
X80532857Y-55317380D01*
X80437619Y-55317380D01*
X80294761Y-55269761D01*
X80199523Y-55174523D01*
X80151904Y-55079285D01*
X80104285Y-54888809D01*
X80104285Y-54745952D01*
X80151904Y-54555476D01*
X80199523Y-54460238D01*
X80294761Y-54365000D01*
X80437619Y-54317380D01*
X80532857Y-54317380D01*
X80675714Y-54365000D01*
X80723333Y-54412619D01*
X81199523Y-55317380D02*
X81390000Y-55317380D01*
X81485238Y-55269761D01*
X81532857Y-55222142D01*
X81628095Y-55079285D01*
X81675714Y-54888809D01*
X81675714Y-54507857D01*
X81628095Y-54412619D01*
X81580476Y-54365000D01*
X81485238Y-54317380D01*
X81294761Y-54317380D01*
X81199523Y-54365000D01*
X81151904Y-54412619D01*
X81104285Y-54507857D01*
X81104285Y-54745952D01*
X81151904Y-54841190D01*
X81199523Y-54888809D01*
X81294761Y-54936428D01*
X81485238Y-54936428D01*
X81580476Y-54888809D01*
X81628095Y-54841190D01*
X81675714Y-54745952D01*
X86265833Y-55222142D02*
X86218214Y-55269761D01*
X86075357Y-55317380D01*
X85980119Y-55317380D01*
X85837261Y-55269761D01*
X85742023Y-55174523D01*
X85694404Y-55079285D01*
X85646785Y-54888809D01*
X85646785Y-54745952D01*
X85694404Y-54555476D01*
X85742023Y-54460238D01*
X85837261Y-54365000D01*
X85980119Y-54317380D01*
X86075357Y-54317380D01*
X86218214Y-54365000D01*
X86265833Y-54412619D01*
X86837261Y-54745952D02*
X86742023Y-54698333D01*
X86694404Y-54650714D01*
X86646785Y-54555476D01*
X86646785Y-54507857D01*
X86694404Y-54412619D01*
X86742023Y-54365000D01*
X86837261Y-54317380D01*
X87027738Y-54317380D01*
X87122976Y-54365000D01*
X87170595Y-54412619D01*
X87218214Y-54507857D01*
X87218214Y-54555476D01*
X87170595Y-54650714D01*
X87122976Y-54698333D01*
X87027738Y-54745952D01*
X86837261Y-54745952D01*
X86742023Y-54793571D01*
X86694404Y-54841190D01*
X86646785Y-54936428D01*
X86646785Y-55126904D01*
X86694404Y-55222142D01*
X86742023Y-55269761D01*
X86837261Y-55317380D01*
X87027738Y-55317380D01*
X87122976Y-55269761D01*
X87170595Y-55222142D01*
X87218214Y-55126904D01*
X87218214Y-54936428D01*
X87170595Y-54841190D01*
X87122976Y-54793571D01*
X87027738Y-54745952D01*
X92543333Y-55030642D02*
X92495714Y-55078261D01*
X92352857Y-55125880D01*
X92257619Y-55125880D01*
X92114761Y-55078261D01*
X92019523Y-54983023D01*
X91971904Y-54887785D01*
X91924285Y-54697309D01*
X91924285Y-54554452D01*
X91971904Y-54363976D01*
X92019523Y-54268738D01*
X92114761Y-54173500D01*
X92257619Y-54125880D01*
X92352857Y-54125880D01*
X92495714Y-54173500D01*
X92543333Y-54221119D01*
X92876666Y-54125880D02*
X93495714Y-54125880D01*
X93162380Y-54506833D01*
X93305238Y-54506833D01*
X93400476Y-54554452D01*
X93448095Y-54602071D01*
X93495714Y-54697309D01*
X93495714Y-54935404D01*
X93448095Y-55030642D01*
X93400476Y-55078261D01*
X93305238Y-55125880D01*
X93019523Y-55125880D01*
X92924285Y-55078261D01*
X92876666Y-55030642D01*
X102830333Y-56935642D02*
X102782714Y-56983261D01*
X102639857Y-57030880D01*
X102544619Y-57030880D01*
X102401761Y-56983261D01*
X102306523Y-56888023D01*
X102258904Y-56792785D01*
X102211285Y-56602309D01*
X102211285Y-56459452D01*
X102258904Y-56268976D01*
X102306523Y-56173738D01*
X102401761Y-56078500D01*
X102544619Y-56030880D01*
X102639857Y-56030880D01*
X102782714Y-56078500D01*
X102830333Y-56126119D01*
X103687476Y-56364214D02*
X103687476Y-57030880D01*
X103449380Y-55983261D02*
X103211285Y-56697547D01*
X103830333Y-56697547D01*
X101877833Y-71032642D02*
X101830214Y-71080261D01*
X101687357Y-71127880D01*
X101592119Y-71127880D01*
X101449261Y-71080261D01*
X101354023Y-70985023D01*
X101306404Y-70889785D01*
X101258785Y-70699309D01*
X101258785Y-70556452D01*
X101306404Y-70365976D01*
X101354023Y-70270738D01*
X101449261Y-70175500D01*
X101592119Y-70127880D01*
X101687357Y-70127880D01*
X101830214Y-70175500D01*
X101877833Y-70223119D01*
X102782595Y-70127880D02*
X102306404Y-70127880D01*
X102258785Y-70604071D01*
X102306404Y-70556452D01*
X102401642Y-70508833D01*
X102639738Y-70508833D01*
X102734976Y-70556452D01*
X102782595Y-70604071D01*
X102830214Y-70699309D01*
X102830214Y-70937404D01*
X102782595Y-71032642D01*
X102734976Y-71080261D01*
X102639738Y-71127880D01*
X102401642Y-71127880D01*
X102306404Y-71080261D01*
X102258785Y-71032642D01*
X90765333Y-61648642D02*
X90717714Y-61696261D01*
X90574857Y-61743880D01*
X90479619Y-61743880D01*
X90336761Y-61696261D01*
X90241523Y-61601023D01*
X90193904Y-61505785D01*
X90146285Y-61315309D01*
X90146285Y-61172452D01*
X90193904Y-60981976D01*
X90241523Y-60886738D01*
X90336761Y-60791500D01*
X90479619Y-60743880D01*
X90574857Y-60743880D01*
X90717714Y-60791500D01*
X90765333Y-60839119D01*
X91622476Y-60743880D02*
X91432000Y-60743880D01*
X91336761Y-60791500D01*
X91289142Y-60839119D01*
X91193904Y-60981976D01*
X91146285Y-61172452D01*
X91146285Y-61553404D01*
X91193904Y-61648642D01*
X91241523Y-61696261D01*
X91336761Y-61743880D01*
X91527238Y-61743880D01*
X91622476Y-61696261D01*
X91670095Y-61648642D01*
X91717714Y-61553404D01*
X91717714Y-61315309D01*
X91670095Y-61220071D01*
X91622476Y-61172452D01*
X91527238Y-61124833D01*
X91336761Y-61124833D01*
X91241523Y-61172452D01*
X91193904Y-61220071D01*
X91146285Y-61315309D01*
X69699404Y-65624380D02*
X69699404Y-64624380D01*
X69937500Y-64624380D01*
X70080357Y-64672000D01*
X70175595Y-64767238D01*
X70223214Y-64862476D01*
X70270833Y-65052952D01*
X70270833Y-65195809D01*
X70223214Y-65386285D01*
X70175595Y-65481523D01*
X70080357Y-65576761D01*
X69937500Y-65624380D01*
X69699404Y-65624380D01*
X71223214Y-65624380D02*
X70651785Y-65624380D01*
X70937500Y-65624380D02*
X70937500Y-64624380D01*
X70842261Y-64767238D01*
X70747023Y-64862476D01*
X70651785Y-64910095D01*
X110132904Y-58808880D02*
X110132904Y-57808880D01*
X110371000Y-57808880D01*
X110513857Y-57856500D01*
X110609095Y-57951738D01*
X110656714Y-58046976D01*
X110704333Y-58237452D01*
X110704333Y-58380309D01*
X110656714Y-58570785D01*
X110609095Y-58666023D01*
X110513857Y-58761261D01*
X110371000Y-58808880D01*
X110132904Y-58808880D01*
X111085285Y-57904119D02*
X111132904Y-57856500D01*
X111228142Y-57808880D01*
X111466238Y-57808880D01*
X111561476Y-57856500D01*
X111609095Y-57904119D01*
X111656714Y-57999357D01*
X111656714Y-58094595D01*
X111609095Y-58237452D01*
X111037666Y-58808880D01*
X111656714Y-58808880D01*
X107012404Y-69858880D02*
X107012404Y-68858880D01*
X107250500Y-68858880D01*
X107393357Y-68906500D01*
X107488595Y-69001738D01*
X107536214Y-69096976D01*
X107583833Y-69287452D01*
X107583833Y-69430309D01*
X107536214Y-69620785D01*
X107488595Y-69716023D01*
X107393357Y-69811261D01*
X107250500Y-69858880D01*
X107012404Y-69858880D01*
X107917166Y-68858880D02*
X108536214Y-68858880D01*
X108202880Y-69239833D01*
X108345738Y-69239833D01*
X108440976Y-69287452D01*
X108488595Y-69335071D01*
X108536214Y-69430309D01*
X108536214Y-69668404D01*
X108488595Y-69763642D01*
X108440976Y-69811261D01*
X108345738Y-69858880D01*
X108060023Y-69858880D01*
X107964785Y-69811261D01*
X107917166Y-69763642D01*
X107012404Y-66302880D02*
X107012404Y-65302880D01*
X107250500Y-65302880D01*
X107393357Y-65350500D01*
X107488595Y-65445738D01*
X107536214Y-65540976D01*
X107583833Y-65731452D01*
X107583833Y-65874309D01*
X107536214Y-66064785D01*
X107488595Y-66160023D01*
X107393357Y-66255261D01*
X107250500Y-66302880D01*
X107012404Y-66302880D01*
X108440976Y-65636214D02*
X108440976Y-66302880D01*
X108202880Y-65255261D02*
X107964785Y-65969547D01*
X108583833Y-65969547D01*
X88503166Y-51903380D02*
X88503166Y-52617666D01*
X88455547Y-52760523D01*
X88360309Y-52855761D01*
X88217452Y-52903380D01*
X88122214Y-52903380D01*
X88884119Y-51903380D02*
X89503166Y-51903380D01*
X89169833Y-52284333D01*
X89312690Y-52284333D01*
X89407928Y-52331952D01*
X89455547Y-52379571D01*
X89503166Y-52474809D01*
X89503166Y-52712904D01*
X89455547Y-52808142D01*
X89407928Y-52855761D01*
X89312690Y-52903380D01*
X89026976Y-52903380D01*
X88931738Y-52855761D01*
X88884119Y-52808142D01*
X78700333Y-70584380D02*
X78367000Y-70108190D01*
X78128904Y-70584380D02*
X78128904Y-69584380D01*
X78509857Y-69584380D01*
X78605095Y-69632000D01*
X78652714Y-69679619D01*
X78700333Y-69774857D01*
X78700333Y-69917714D01*
X78652714Y-70012952D01*
X78605095Y-70060571D01*
X78509857Y-70108190D01*
X78128904Y-70108190D01*
X79081285Y-69679619D02*
X79128904Y-69632000D01*
X79224142Y-69584380D01*
X79462238Y-69584380D01*
X79557476Y-69632000D01*
X79605095Y-69679619D01*
X79652714Y-69774857D01*
X79652714Y-69870095D01*
X79605095Y-70012952D01*
X79033666Y-70584380D01*
X79652714Y-70584380D01*
X104495333Y-64620380D02*
X104162000Y-64144190D01*
X103923904Y-64620380D02*
X103923904Y-63620380D01*
X104304857Y-63620380D01*
X104400095Y-63668000D01*
X104447714Y-63715619D01*
X104495333Y-63810857D01*
X104495333Y-63953714D01*
X104447714Y-64048952D01*
X104400095Y-64096571D01*
X104304857Y-64144190D01*
X103923904Y-64144190D01*
X104828666Y-63620380D02*
X105447714Y-63620380D01*
X105114380Y-64001333D01*
X105257238Y-64001333D01*
X105352476Y-64048952D01*
X105400095Y-64096571D01*
X105447714Y-64191809D01*
X105447714Y-64429904D01*
X105400095Y-64525142D01*
X105352476Y-64572761D01*
X105257238Y-64620380D01*
X104971523Y-64620380D01*
X104876285Y-64572761D01*
X104828666Y-64525142D01*
X104495333Y-60142380D02*
X104162000Y-59666190D01*
X103923904Y-60142380D02*
X103923904Y-59142380D01*
X104304857Y-59142380D01*
X104400095Y-59190000D01*
X104447714Y-59237619D01*
X104495333Y-59332857D01*
X104495333Y-59475714D01*
X104447714Y-59570952D01*
X104400095Y-59618571D01*
X104304857Y-59666190D01*
X103923904Y-59666190D01*
X105352476Y-59475714D02*
X105352476Y-60142380D01*
X105114380Y-59094761D02*
X104876285Y-59809047D01*
X105495333Y-59809047D01*
X97397333Y-55379880D02*
X97064000Y-54903690D01*
X96825904Y-55379880D02*
X96825904Y-54379880D01*
X97206857Y-54379880D01*
X97302095Y-54427500D01*
X97349714Y-54475119D01*
X97397333Y-54570357D01*
X97397333Y-54713214D01*
X97349714Y-54808452D01*
X97302095Y-54856071D01*
X97206857Y-54903690D01*
X96825904Y-54903690D01*
X98302095Y-54379880D02*
X97825904Y-54379880D01*
X97778285Y-54856071D01*
X97825904Y-54808452D01*
X97921142Y-54760833D01*
X98159238Y-54760833D01*
X98254476Y-54808452D01*
X98302095Y-54856071D01*
X98349714Y-54951309D01*
X98349714Y-55189404D01*
X98302095Y-55284642D01*
X98254476Y-55332261D01*
X98159238Y-55379880D01*
X97921142Y-55379880D01*
X97825904Y-55332261D01*
X97778285Y-55284642D01*
X90447833Y-59761380D02*
X90114500Y-59285190D01*
X89876404Y-59761380D02*
X89876404Y-58761380D01*
X90257357Y-58761380D01*
X90352595Y-58809000D01*
X90400214Y-58856619D01*
X90447833Y-58951857D01*
X90447833Y-59094714D01*
X90400214Y-59189952D01*
X90352595Y-59237571D01*
X90257357Y-59285190D01*
X89876404Y-59285190D01*
X91304976Y-58761380D02*
X91114500Y-58761380D01*
X91019261Y-58809000D01*
X90971642Y-58856619D01*
X90876404Y-58999476D01*
X90828785Y-59189952D01*
X90828785Y-59570904D01*
X90876404Y-59666142D01*
X90924023Y-59713761D01*
X91019261Y-59761380D01*
X91209738Y-59761380D01*
X91304976Y-59713761D01*
X91352595Y-59666142D01*
X91400214Y-59570904D01*
X91400214Y-59332809D01*
X91352595Y-59237571D01*
X91304976Y-59189952D01*
X91209738Y-59142333D01*
X91019261Y-59142333D01*
X90924023Y-59189952D01*
X90876404Y-59237571D01*
X90828785Y-59332809D01*
X111924833Y-70078880D02*
X111591500Y-69602690D01*
X111353404Y-70078880D02*
X111353404Y-69078880D01*
X111734357Y-69078880D01*
X111829595Y-69126500D01*
X111877214Y-69174119D01*
X111924833Y-69269357D01*
X111924833Y-69412214D01*
X111877214Y-69507452D01*
X111829595Y-69555071D01*
X111734357Y-69602690D01*
X111353404Y-69602690D01*
X112258166Y-69078880D02*
X112924833Y-69078880D01*
X112496261Y-70078880D01*
X111974333Y-66492380D02*
X111641000Y-66016190D01*
X111402904Y-66492380D02*
X111402904Y-65492380D01*
X111783857Y-65492380D01*
X111879095Y-65540000D01*
X111926714Y-65587619D01*
X111974333Y-65682857D01*
X111974333Y-65825714D01*
X111926714Y-65920952D01*
X111879095Y-65968571D01*
X111783857Y-66016190D01*
X111402904Y-66016190D01*
X112545761Y-65920952D02*
X112450523Y-65873333D01*
X112402904Y-65825714D01*
X112355285Y-65730476D01*
X112355285Y-65682857D01*
X112402904Y-65587619D01*
X112450523Y-65540000D01*
X112545761Y-65492380D01*
X112736238Y-65492380D01*
X112831476Y-65540000D01*
X112879095Y-65587619D01*
X112926714Y-65682857D01*
X112926714Y-65730476D01*
X112879095Y-65825714D01*
X112831476Y-65873333D01*
X112736238Y-65920952D01*
X112545761Y-65920952D01*
X112450523Y-65968571D01*
X112402904Y-66016190D01*
X112355285Y-66111428D01*
X112355285Y-66301904D01*
X112402904Y-66397142D01*
X112450523Y-66444761D01*
X112545761Y-66492380D01*
X112736238Y-66492380D01*
X112831476Y-66444761D01*
X112879095Y-66397142D01*
X112926714Y-66301904D01*
X112926714Y-66111428D01*
X112879095Y-66016190D01*
X112831476Y-65968571D01*
X112736238Y-65920952D01*
X73469666Y-57904761D02*
X73612523Y-57952380D01*
X73850619Y-57952380D01*
X73945857Y-57904761D01*
X73993476Y-57857142D01*
X74041095Y-57761904D01*
X74041095Y-57666666D01*
X73993476Y-57571428D01*
X73945857Y-57523809D01*
X73850619Y-57476190D01*
X73660142Y-57428571D01*
X73564904Y-57380952D01*
X73517285Y-57333333D01*
X73469666Y-57238095D01*
X73469666Y-57142857D01*
X73517285Y-57047619D01*
X73564904Y-57000000D01*
X73660142Y-56952380D01*
X73898238Y-56952380D01*
X74041095Y-57000000D01*
X74374428Y-56952380D02*
X74612523Y-57952380D01*
X74803000Y-57238095D01*
X74993476Y-57952380D01*
X75231571Y-56952380D01*
X76136333Y-57952380D02*
X75564904Y-57952380D01*
X75850619Y-57952380D02*
X75850619Y-56952380D01*
X75755380Y-57095238D01*
X75660142Y-57190476D01*
X75564904Y-57238095D01*
X85407595Y-60856880D02*
X85407595Y-61666404D01*
X85455214Y-61761642D01*
X85502833Y-61809261D01*
X85598071Y-61856880D01*
X85788547Y-61856880D01*
X85883785Y-61809261D01*
X85931404Y-61761642D01*
X85979023Y-61666404D01*
X85979023Y-60856880D01*
X86407595Y-60952119D02*
X86455214Y-60904500D01*
X86550452Y-60856880D01*
X86788547Y-60856880D01*
X86883785Y-60904500D01*
X86931404Y-60952119D01*
X86979023Y-61047357D01*
X86979023Y-61142595D01*
X86931404Y-61285452D01*
X86359976Y-61856880D01*
X86979023Y-61856880D01*
X91948095Y-66571880D02*
X91948095Y-67381404D01*
X91995714Y-67476642D01*
X92043333Y-67524261D01*
X92138571Y-67571880D01*
X92329047Y-67571880D01*
X92424285Y-67524261D01*
X92471904Y-67476642D01*
X92519523Y-67381404D01*
X92519523Y-66571880D01*
X92900476Y-66571880D02*
X93519523Y-66571880D01*
X93186190Y-66952833D01*
X93329047Y-66952833D01*
X93424285Y-67000452D01*
X93471904Y-67048071D01*
X93519523Y-67143309D01*
X93519523Y-67381404D01*
X93471904Y-67476642D01*
X93424285Y-67524261D01*
X93329047Y-67571880D01*
X93043333Y-67571880D01*
X92948095Y-67524261D01*
X92900476Y-67476642D01*
M02*
