%FSLAX45Y45*%
G04 Gerber Fmt 4.5, Leading zero omitted, Abs format (unit mm)*
G04 Created by KiCad (PCBNEW 5.1.4) date 2020-05-23 13:00:48*
%MOMM*%
%LPD*%
G04 APERTURE LIST*
%ADD10C,0.150000*%
%ADD11C,0.200000*%
%ADD12C,0.300000*%
G04 APERTURE END LIST*
D10*
X6100000Y-7550000D02*
X12550000Y-7550000D01*
X6100000Y-4950000D02*
X6100000Y-7550000D01*
X12550000Y-5000000D02*
X12550000Y-4950000D01*
X6100000Y-4950000D02*
X12550000Y-4950000D01*
X8324850Y-5505450D02*
G75*
G02X8401050Y-5505450I38100J0D01*
G01*
X8401050Y-7061200D02*
G75*
G02X8324850Y-7061200I-38100J0D01*
G01*
X8401050Y-5505450D02*
X8401050Y-7061200D01*
X8324850Y-5505450D02*
X8324850Y-7061200D01*
X12550000Y-7550000D02*
X12550000Y-5000000D01*
D11*
X7882100Y-6447000D02*
X7942100Y-6507000D01*
X7942100Y-6447000D02*
X7882100Y-6507000D01*
X8770000Y-6220000D02*
X8830000Y-6280000D01*
X8830000Y-6220000D02*
X8770000Y-6280000D01*
X8770000Y-6670000D02*
X8830000Y-6730000D01*
X8830000Y-6670000D02*
X8770000Y-6730000D01*
X9093680Y-6624800D02*
X9153680Y-6684800D01*
X9153680Y-6624800D02*
X9093680Y-6684800D01*
X9098760Y-5984720D02*
X9158760Y-6044720D01*
X9158760Y-5984720D02*
X9098760Y-6044720D01*
X9365811Y-5636389D02*
X9425811Y-5696389D01*
X9425811Y-5636389D02*
X9365811Y-5696389D01*
X9550880Y-6106640D02*
X9610880Y-6166640D01*
X9610880Y-6106640D02*
X9550880Y-6166640D01*
X9616920Y-5994880D02*
X9676920Y-6054880D01*
X9676920Y-5994880D02*
X9616920Y-6054880D01*
X9749000Y-5999960D02*
X9809000Y-6059960D01*
X9809000Y-5999960D02*
X9749000Y-6059960D01*
X9957280Y-6055840D02*
X10017280Y-6115840D01*
X10017280Y-6055840D02*
X9957280Y-6115840D01*
X10047864Y-5668904D02*
X10107864Y-5728904D01*
X10107864Y-5668904D02*
X10047864Y-5728904D01*
X10253771Y-5884971D02*
X10313771Y-5944971D01*
X10313771Y-5884971D02*
X10253771Y-5944971D01*
X10338280Y-6553680D02*
X10398280Y-6613680D01*
X10398280Y-6553680D02*
X10338280Y-6613680D01*
X10455120Y-6447000D02*
X10515120Y-6507000D01*
X10515120Y-6447000D02*
X10455120Y-6507000D01*
X10602440Y-5786600D02*
X10662440Y-5846600D01*
X10662440Y-5786600D02*
X10602440Y-5846600D01*
X10856440Y-6528280D02*
X10916440Y-6588280D01*
X10916440Y-6528280D02*
X10856440Y-6588280D01*
X11293320Y-7219160D02*
X11353320Y-7279160D01*
X11353320Y-7219160D02*
X11293320Y-7279160D01*
X9524360Y-5486400D02*
G75*
G03X9524360Y-5486400I-40000J0D01*
G01*
X10687680Y-5486400D02*
G75*
G03X10687680Y-5486400I-40000J0D01*
G01*
X7520300Y-5937250D02*
G75*
G03X7520300Y-5937250I-40000J0D01*
G01*
X7520300Y-6699250D02*
G75*
G03X7520300Y-6699250I-40000J0D01*
G01*
X8021950Y-5880100D02*
G75*
G03X8021950Y-5880100I-40000J0D01*
G01*
X8275950Y-5880100D02*
G75*
G03X8275950Y-5880100I-40000J0D01*
G01*
X8529950Y-5880100D02*
G75*
G03X8529950Y-5880100I-40000J0D01*
G01*
X8783950Y-5880100D02*
G75*
G03X8783950Y-5880100I-40000J0D01*
G01*
X8104500Y-7124700D02*
G75*
G03X8104500Y-7124700I-40000J0D01*
G01*
X8612500Y-7124700D02*
G75*
G03X8612500Y-7124700I-40000J0D01*
G01*
X11722100Y-6111150D02*
X11722100Y-6203150D01*
X11676100Y-6157150D02*
X11768100Y-6157150D01*
X11722100Y-6361150D02*
X11722100Y-6453150D01*
X11676100Y-6407150D02*
X11768100Y-6407150D01*
X11922100Y-6111150D02*
X11922100Y-6203150D01*
X11876100Y-6157150D02*
X11968100Y-6157150D01*
X11922100Y-6361150D02*
X11922100Y-6453150D01*
X11876100Y-6407150D02*
X11968100Y-6407150D01*
X9192056Y-5280456D02*
X9192056Y-5209744D01*
X9121344Y-5209744D01*
X9121344Y-5280456D01*
X9192056Y-5280456D01*
X9446056Y-5280456D02*
X9446056Y-5209744D01*
X9375344Y-5209744D01*
X9375344Y-5280456D01*
X9446056Y-5280456D01*
X9700056Y-5280456D02*
X9700056Y-5209744D01*
X9629344Y-5209744D01*
X9629344Y-5280456D01*
X9700056Y-5280456D01*
X9954056Y-5280456D02*
X9954056Y-5209744D01*
X9883344Y-5209744D01*
X9883344Y-5280456D01*
X9954056Y-5280456D01*
X10208056Y-5280456D02*
X10208056Y-5209744D01*
X10137344Y-5209744D01*
X10137344Y-5280456D01*
X10208056Y-5280456D01*
X10462056Y-5280456D02*
X10462056Y-5209744D01*
X10391344Y-5209744D01*
X10391344Y-5280456D01*
X10462056Y-5280456D01*
X6680200Y-5830800D02*
X6745200Y-5765800D01*
X6680200Y-5700800D01*
X6615200Y-5765800D01*
X6680200Y-5830800D01*
X6680200Y-6330800D02*
X6745200Y-6265800D01*
X6680200Y-6200800D01*
X6615200Y-6265800D01*
X6680200Y-6330800D01*
X6680200Y-6830800D02*
X6745200Y-6765800D01*
X6680200Y-6700800D01*
X6615200Y-6765800D01*
X6680200Y-6830800D01*
X12076600Y-5563650D02*
X12309600Y-5796650D01*
X12309600Y-5563650D02*
X12076600Y-5796650D01*
X12309600Y-5680150D02*
G75*
G03X12309600Y-5680150I-116500J0D01*
G01*
X12076600Y-6767650D02*
X12309600Y-7000650D01*
X12309600Y-6767650D02*
X12076600Y-7000650D01*
X12309600Y-6884150D02*
G75*
G03X12309600Y-6884150I-116500J0D01*
G01*
X7300000Y-5200000D02*
X7600000Y-5500000D01*
X7600000Y-5200000D02*
X7300000Y-5500000D01*
X7450000Y-5200000D02*
X7450000Y-5500000D01*
X7300000Y-5350000D02*
X7600000Y-5350000D01*
X11600000Y-5200000D02*
X11900000Y-5500000D01*
X11900000Y-5200000D02*
X11600000Y-5500000D01*
X11750000Y-5200000D02*
X11750000Y-5500000D01*
X11600000Y-5350000D02*
X11900000Y-5350000D01*
X11600000Y-7050000D02*
X11900000Y-7350000D01*
X11900000Y-7050000D02*
X11600000Y-7350000D01*
X11750000Y-7050000D02*
X11750000Y-7350000D01*
X11600000Y-7200000D02*
X11900000Y-7200000D01*
X7300000Y-7050000D02*
X7600000Y-7350000D01*
X7600000Y-7050000D02*
X7300000Y-7350000D01*
X7450000Y-7050000D02*
X7450000Y-7350000D01*
X7300000Y-7200000D02*
X7600000Y-7200000D01*
D12*
X6378928Y-8023214D02*
X6378928Y-7723214D01*
X6450357Y-7723214D01*
X6493214Y-7737500D01*
X6521786Y-7766071D01*
X6536071Y-7794643D01*
X6550357Y-7851786D01*
X6550357Y-7894643D01*
X6536071Y-7951786D01*
X6521786Y-7980357D01*
X6493214Y-8008929D01*
X6450357Y-8023214D01*
X6378928Y-8023214D01*
X6678928Y-8023214D02*
X6678928Y-7823214D01*
X6678928Y-7880357D02*
X6693214Y-7851786D01*
X6707500Y-7837500D01*
X6736071Y-7823214D01*
X6764643Y-7823214D01*
X6864643Y-8023214D02*
X6864643Y-7823214D01*
X6864643Y-7723214D02*
X6850357Y-7737500D01*
X6864643Y-7751786D01*
X6878928Y-7737500D01*
X6864643Y-7723214D01*
X6864643Y-7751786D01*
X7050357Y-8023214D02*
X7021786Y-8008929D01*
X7007500Y-7980357D01*
X7007500Y-7723214D01*
X7207500Y-8023214D02*
X7178928Y-8008929D01*
X7164643Y-7980357D01*
X7164643Y-7723214D01*
X7550357Y-8023214D02*
X7550357Y-7723214D01*
X7650357Y-7937500D01*
X7750357Y-7723214D01*
X7750357Y-8023214D01*
X8021786Y-8023214D02*
X8021786Y-7866071D01*
X8007500Y-7837500D01*
X7978928Y-7823214D01*
X7921786Y-7823214D01*
X7893214Y-7837500D01*
X8021786Y-8008929D02*
X7993214Y-8023214D01*
X7921786Y-8023214D01*
X7893214Y-8008929D01*
X7878928Y-7980357D01*
X7878928Y-7951786D01*
X7893214Y-7923214D01*
X7921786Y-7908929D01*
X7993214Y-7908929D01*
X8021786Y-7894643D01*
X8164643Y-7823214D02*
X8164643Y-8123214D01*
X8164643Y-7837500D02*
X8193214Y-7823214D01*
X8250357Y-7823214D01*
X8278928Y-7837500D01*
X8293214Y-7851786D01*
X8307500Y-7880357D01*
X8307500Y-7966071D01*
X8293214Y-7994643D01*
X8278928Y-8008929D01*
X8250357Y-8023214D01*
X8193214Y-8023214D01*
X8164643Y-8008929D01*
X8436071Y-7994643D02*
X8450357Y-8008929D01*
X8436071Y-8023214D01*
X8421786Y-8008929D01*
X8436071Y-7994643D01*
X8436071Y-8023214D01*
X8436071Y-7837500D02*
X8450357Y-7851786D01*
X8436071Y-7866071D01*
X8421786Y-7851786D01*
X8436071Y-7837500D01*
X8436071Y-7866071D01*
X6032500Y-8487500D02*
X6092500Y-8547500D01*
X6092500Y-8487500D02*
X6032500Y-8547500D01*
X6436071Y-8353214D02*
X6464643Y-8353214D01*
X6493214Y-8367500D01*
X6507500Y-8381786D01*
X6521786Y-8410357D01*
X6536071Y-8467500D01*
X6536071Y-8538929D01*
X6521786Y-8596072D01*
X6507500Y-8624643D01*
X6493214Y-8638929D01*
X6464643Y-8653214D01*
X6436071Y-8653214D01*
X6407500Y-8638929D01*
X6393214Y-8624643D01*
X6378928Y-8596072D01*
X6364643Y-8538929D01*
X6364643Y-8467500D01*
X6378928Y-8410357D01*
X6393214Y-8381786D01*
X6407500Y-8367500D01*
X6436071Y-8353214D01*
X6664643Y-8624643D02*
X6678928Y-8638929D01*
X6664643Y-8653214D01*
X6650357Y-8638929D01*
X6664643Y-8624643D01*
X6664643Y-8653214D01*
X6936071Y-8353214D02*
X6878928Y-8353214D01*
X6850357Y-8367500D01*
X6836071Y-8381786D01*
X6807500Y-8424643D01*
X6793214Y-8481786D01*
X6793214Y-8596072D01*
X6807500Y-8624643D01*
X6821786Y-8638929D01*
X6850357Y-8653214D01*
X6907500Y-8653214D01*
X6936071Y-8638929D01*
X6950357Y-8624643D01*
X6964643Y-8596072D01*
X6964643Y-8524643D01*
X6950357Y-8496072D01*
X6936071Y-8481786D01*
X6907500Y-8467500D01*
X6850357Y-8467500D01*
X6821786Y-8481786D01*
X6807500Y-8496072D01*
X6793214Y-8524643D01*
X7150357Y-8353214D02*
X7178928Y-8353214D01*
X7207500Y-8367500D01*
X7221786Y-8381786D01*
X7236071Y-8410357D01*
X7250357Y-8467500D01*
X7250357Y-8538929D01*
X7236071Y-8596072D01*
X7221786Y-8624643D01*
X7207500Y-8638929D01*
X7178928Y-8653214D01*
X7150357Y-8653214D01*
X7121786Y-8638929D01*
X7107500Y-8624643D01*
X7093214Y-8596072D01*
X7078928Y-8538929D01*
X7078928Y-8467500D01*
X7093214Y-8410357D01*
X7107500Y-8381786D01*
X7121786Y-8367500D01*
X7150357Y-8353214D01*
X7378928Y-8653214D02*
X7378928Y-8453214D01*
X7378928Y-8481786D02*
X7393214Y-8467500D01*
X7421786Y-8453214D01*
X7464643Y-8453214D01*
X7493214Y-8467500D01*
X7507500Y-8496072D01*
X7507500Y-8653214D01*
X7507500Y-8496072D02*
X7521786Y-8467500D01*
X7550357Y-8453214D01*
X7593214Y-8453214D01*
X7621786Y-8467500D01*
X7636071Y-8496072D01*
X7636071Y-8653214D01*
X7778928Y-8653214D02*
X7778928Y-8453214D01*
X7778928Y-8481786D02*
X7793214Y-8467500D01*
X7821786Y-8453214D01*
X7864643Y-8453214D01*
X7893214Y-8467500D01*
X7907500Y-8496072D01*
X7907500Y-8653214D01*
X7907500Y-8496072D02*
X7921786Y-8467500D01*
X7950357Y-8453214D01*
X7993214Y-8453214D01*
X8021786Y-8467500D01*
X8036071Y-8496072D01*
X8036071Y-8653214D01*
X8621786Y-8338929D02*
X8364643Y-8724643D01*
X9007500Y-8353214D02*
X9036071Y-8353214D01*
X9064643Y-8367500D01*
X9078928Y-8381786D01*
X9093214Y-8410357D01*
X9107500Y-8467500D01*
X9107500Y-8538929D01*
X9093214Y-8596072D01*
X9078928Y-8624643D01*
X9064643Y-8638929D01*
X9036071Y-8653214D01*
X9007500Y-8653214D01*
X8978928Y-8638929D01*
X8964643Y-8624643D01*
X8950357Y-8596072D01*
X8936071Y-8538929D01*
X8936071Y-8467500D01*
X8950357Y-8410357D01*
X8964643Y-8381786D01*
X8978928Y-8367500D01*
X9007500Y-8353214D01*
X9236071Y-8624643D02*
X9250357Y-8638929D01*
X9236071Y-8653214D01*
X9221786Y-8638929D01*
X9236071Y-8624643D01*
X9236071Y-8653214D01*
X9436071Y-8353214D02*
X9464643Y-8353214D01*
X9493214Y-8367500D01*
X9507500Y-8381786D01*
X9521786Y-8410357D01*
X9536071Y-8467500D01*
X9536071Y-8538929D01*
X9521786Y-8596072D01*
X9507500Y-8624643D01*
X9493214Y-8638929D01*
X9464643Y-8653214D01*
X9436071Y-8653214D01*
X9407500Y-8638929D01*
X9393214Y-8624643D01*
X9378928Y-8596072D01*
X9364643Y-8538929D01*
X9364643Y-8467500D01*
X9378928Y-8410357D01*
X9393214Y-8381786D01*
X9407500Y-8367500D01*
X9436071Y-8353214D01*
X9650357Y-8381786D02*
X9664643Y-8367500D01*
X9693214Y-8353214D01*
X9764643Y-8353214D01*
X9793214Y-8367500D01*
X9807500Y-8381786D01*
X9821786Y-8410357D01*
X9821786Y-8438929D01*
X9807500Y-8481786D01*
X9636071Y-8653214D01*
X9821786Y-8653214D01*
X10078928Y-8453214D02*
X10078928Y-8653214D01*
X10007500Y-8338929D02*
X9936071Y-8553214D01*
X10121786Y-8553214D01*
X10221786Y-8353214D02*
X10221786Y-8410357D01*
X10336071Y-8353214D02*
X10336071Y-8410357D01*
X10778928Y-8767500D02*
X10764643Y-8753214D01*
X10736071Y-8710357D01*
X10721786Y-8681786D01*
X10707500Y-8638929D01*
X10693214Y-8567500D01*
X10693214Y-8510357D01*
X10707500Y-8438929D01*
X10721786Y-8396072D01*
X10736071Y-8367500D01*
X10764643Y-8324643D01*
X10778928Y-8310357D01*
X11050357Y-8653214D02*
X10878928Y-8653214D01*
X10964643Y-8653214D02*
X10964643Y-8353214D01*
X10936071Y-8396072D01*
X10907500Y-8424643D01*
X10878928Y-8438929D01*
X11150357Y-8353214D02*
X11350357Y-8353214D01*
X11221786Y-8653214D01*
X11693214Y-8653214D02*
X11693214Y-8353214D01*
X11821786Y-8653214D02*
X11821786Y-8496072D01*
X11807500Y-8467500D01*
X11778928Y-8453214D01*
X11736071Y-8453214D01*
X11707500Y-8467500D01*
X11693214Y-8481786D01*
X12007500Y-8653214D02*
X11978928Y-8638929D01*
X11964643Y-8624643D01*
X11950357Y-8596072D01*
X11950357Y-8510357D01*
X11964643Y-8481786D01*
X11978928Y-8467500D01*
X12007500Y-8453214D01*
X12050357Y-8453214D01*
X12078928Y-8467500D01*
X12093214Y-8481786D01*
X12107500Y-8510357D01*
X12107500Y-8596072D01*
X12093214Y-8624643D01*
X12078928Y-8638929D01*
X12050357Y-8653214D01*
X12007500Y-8653214D01*
X12278928Y-8653214D02*
X12250357Y-8638929D01*
X12236071Y-8610357D01*
X12236071Y-8353214D01*
X12507500Y-8638929D02*
X12478928Y-8653214D01*
X12421786Y-8653214D01*
X12393214Y-8638929D01*
X12378928Y-8610357D01*
X12378928Y-8496072D01*
X12393214Y-8467500D01*
X12421786Y-8453214D01*
X12478928Y-8453214D01*
X12507500Y-8467500D01*
X12521786Y-8496072D01*
X12521786Y-8524643D01*
X12378928Y-8553214D01*
X12636071Y-8638929D02*
X12664643Y-8653214D01*
X12721786Y-8653214D01*
X12750357Y-8638929D01*
X12764643Y-8610357D01*
X12764643Y-8596072D01*
X12750357Y-8567500D01*
X12721786Y-8553214D01*
X12678928Y-8553214D01*
X12650357Y-8538929D01*
X12636071Y-8510357D01*
X12636071Y-8496072D01*
X12650357Y-8467500D01*
X12678928Y-8453214D01*
X12721786Y-8453214D01*
X12750357Y-8467500D01*
X12864643Y-8767500D02*
X12878928Y-8753214D01*
X12907500Y-8710357D01*
X12921786Y-8681786D01*
X12936071Y-8638929D01*
X12950357Y-8567500D01*
X12950357Y-8510357D01*
X12936071Y-8438929D01*
X12921786Y-8396072D01*
X12907500Y-8367500D01*
X12878928Y-8324643D01*
X12864643Y-8310357D01*
X6092500Y-8913500D02*
G75*
G03X6092500Y-8913500I-40000J0D01*
G01*
X6436071Y-8749214D02*
X6464643Y-8749214D01*
X6493214Y-8763500D01*
X6507500Y-8777786D01*
X6521786Y-8806357D01*
X6536071Y-8863500D01*
X6536071Y-8934929D01*
X6521786Y-8992072D01*
X6507500Y-9020643D01*
X6493214Y-9034929D01*
X6464643Y-9049214D01*
X6436071Y-9049214D01*
X6407500Y-9034929D01*
X6393214Y-9020643D01*
X6378928Y-8992072D01*
X6364643Y-8934929D01*
X6364643Y-8863500D01*
X6378928Y-8806357D01*
X6393214Y-8777786D01*
X6407500Y-8763500D01*
X6436071Y-8749214D01*
X6664643Y-9020643D02*
X6678928Y-9034929D01*
X6664643Y-9049214D01*
X6650357Y-9034929D01*
X6664643Y-9020643D01*
X6664643Y-9049214D01*
X6850357Y-8877786D02*
X6821786Y-8863500D01*
X6807500Y-8849214D01*
X6793214Y-8820643D01*
X6793214Y-8806357D01*
X6807500Y-8777786D01*
X6821786Y-8763500D01*
X6850357Y-8749214D01*
X6907500Y-8749214D01*
X6936071Y-8763500D01*
X6950357Y-8777786D01*
X6964643Y-8806357D01*
X6964643Y-8820643D01*
X6950357Y-8849214D01*
X6936071Y-8863500D01*
X6907500Y-8877786D01*
X6850357Y-8877786D01*
X6821786Y-8892072D01*
X6807500Y-8906357D01*
X6793214Y-8934929D01*
X6793214Y-8992072D01*
X6807500Y-9020643D01*
X6821786Y-9034929D01*
X6850357Y-9049214D01*
X6907500Y-9049214D01*
X6936071Y-9034929D01*
X6950357Y-9020643D01*
X6964643Y-8992072D01*
X6964643Y-8934929D01*
X6950357Y-8906357D01*
X6936071Y-8892072D01*
X6907500Y-8877786D01*
X7150357Y-8749214D02*
X7178928Y-8749214D01*
X7207500Y-8763500D01*
X7221786Y-8777786D01*
X7236071Y-8806357D01*
X7250357Y-8863500D01*
X7250357Y-8934929D01*
X7236071Y-8992072D01*
X7221786Y-9020643D01*
X7207500Y-9034929D01*
X7178928Y-9049214D01*
X7150357Y-9049214D01*
X7121786Y-9034929D01*
X7107500Y-9020643D01*
X7093214Y-8992072D01*
X7078928Y-8934929D01*
X7078928Y-8863500D01*
X7093214Y-8806357D01*
X7107500Y-8777786D01*
X7121786Y-8763500D01*
X7150357Y-8749214D01*
X7378928Y-9049214D02*
X7378928Y-8849214D01*
X7378928Y-8877786D02*
X7393214Y-8863500D01*
X7421786Y-8849214D01*
X7464643Y-8849214D01*
X7493214Y-8863500D01*
X7507500Y-8892072D01*
X7507500Y-9049214D01*
X7507500Y-8892072D02*
X7521786Y-8863500D01*
X7550357Y-8849214D01*
X7593214Y-8849214D01*
X7621786Y-8863500D01*
X7636071Y-8892072D01*
X7636071Y-9049214D01*
X7778928Y-9049214D02*
X7778928Y-8849214D01*
X7778928Y-8877786D02*
X7793214Y-8863500D01*
X7821786Y-8849214D01*
X7864643Y-8849214D01*
X7893214Y-8863500D01*
X7907500Y-8892072D01*
X7907500Y-9049214D01*
X7907500Y-8892072D02*
X7921786Y-8863500D01*
X7950357Y-8849214D01*
X7993214Y-8849214D01*
X8021786Y-8863500D01*
X8036071Y-8892072D01*
X8036071Y-9049214D01*
X8621786Y-8734929D02*
X8364643Y-9120643D01*
X9007500Y-8749214D02*
X9036071Y-8749214D01*
X9064643Y-8763500D01*
X9078928Y-8777786D01*
X9093214Y-8806357D01*
X9107500Y-8863500D01*
X9107500Y-8934929D01*
X9093214Y-8992072D01*
X9078928Y-9020643D01*
X9064643Y-9034929D01*
X9036071Y-9049214D01*
X9007500Y-9049214D01*
X8978928Y-9034929D01*
X8964643Y-9020643D01*
X8950357Y-8992072D01*
X8936071Y-8934929D01*
X8936071Y-8863500D01*
X8950357Y-8806357D01*
X8964643Y-8777786D01*
X8978928Y-8763500D01*
X9007500Y-8749214D01*
X9236071Y-9020643D02*
X9250357Y-9034929D01*
X9236071Y-9049214D01*
X9221786Y-9034929D01*
X9236071Y-9020643D01*
X9236071Y-9049214D01*
X9436071Y-8749214D02*
X9464643Y-8749214D01*
X9493214Y-8763500D01*
X9507500Y-8777786D01*
X9521786Y-8806357D01*
X9536071Y-8863500D01*
X9536071Y-8934929D01*
X9521786Y-8992072D01*
X9507500Y-9020643D01*
X9493214Y-9034929D01*
X9464643Y-9049214D01*
X9436071Y-9049214D01*
X9407500Y-9034929D01*
X9393214Y-9020643D01*
X9378928Y-8992072D01*
X9364643Y-8934929D01*
X9364643Y-8863500D01*
X9378928Y-8806357D01*
X9393214Y-8777786D01*
X9407500Y-8763500D01*
X9436071Y-8749214D01*
X9636071Y-8749214D02*
X9821786Y-8749214D01*
X9721786Y-8863500D01*
X9764643Y-8863500D01*
X9793214Y-8877786D01*
X9807500Y-8892072D01*
X9821786Y-8920643D01*
X9821786Y-8992072D01*
X9807500Y-9020643D01*
X9793214Y-9034929D01*
X9764643Y-9049214D01*
X9678928Y-9049214D01*
X9650357Y-9034929D01*
X9636071Y-9020643D01*
X10107500Y-9049214D02*
X9936071Y-9049214D01*
X10021786Y-9049214D02*
X10021786Y-8749214D01*
X9993214Y-8792072D01*
X9964643Y-8820643D01*
X9936071Y-8834929D01*
X10221786Y-8749214D02*
X10221786Y-8806357D01*
X10336071Y-8749214D02*
X10336071Y-8806357D01*
X10778928Y-9163500D02*
X10764643Y-9149214D01*
X10736071Y-9106357D01*
X10721786Y-9077786D01*
X10707500Y-9034929D01*
X10693214Y-8963500D01*
X10693214Y-8906357D01*
X10707500Y-8834929D01*
X10721786Y-8792072D01*
X10736071Y-8763500D01*
X10764643Y-8720643D01*
X10778928Y-8706357D01*
X11050357Y-9049214D02*
X10878928Y-9049214D01*
X10964643Y-9049214D02*
X10964643Y-8749214D01*
X10936071Y-8792072D01*
X10907500Y-8820643D01*
X10878928Y-8834929D01*
X11236071Y-8749214D02*
X11264643Y-8749214D01*
X11293214Y-8763500D01*
X11307500Y-8777786D01*
X11321786Y-8806357D01*
X11336071Y-8863500D01*
X11336071Y-8934929D01*
X11321786Y-8992072D01*
X11307500Y-9020643D01*
X11293214Y-9034929D01*
X11264643Y-9049214D01*
X11236071Y-9049214D01*
X11207500Y-9034929D01*
X11193214Y-9020643D01*
X11178928Y-8992072D01*
X11164643Y-8934929D01*
X11164643Y-8863500D01*
X11178928Y-8806357D01*
X11193214Y-8777786D01*
X11207500Y-8763500D01*
X11236071Y-8749214D01*
X11693214Y-9049214D02*
X11693214Y-8749214D01*
X11821786Y-9049214D02*
X11821786Y-8892072D01*
X11807500Y-8863500D01*
X11778928Y-8849214D01*
X11736071Y-8849214D01*
X11707500Y-8863500D01*
X11693214Y-8877786D01*
X12007500Y-9049214D02*
X11978928Y-9034929D01*
X11964643Y-9020643D01*
X11950357Y-8992072D01*
X11950357Y-8906357D01*
X11964643Y-8877786D01*
X11978928Y-8863500D01*
X12007500Y-8849214D01*
X12050357Y-8849214D01*
X12078928Y-8863500D01*
X12093214Y-8877786D01*
X12107500Y-8906357D01*
X12107500Y-8992072D01*
X12093214Y-9020643D01*
X12078928Y-9034929D01*
X12050357Y-9049214D01*
X12007500Y-9049214D01*
X12278928Y-9049214D02*
X12250357Y-9034929D01*
X12236071Y-9006357D01*
X12236071Y-8749214D01*
X12507500Y-9034929D02*
X12478928Y-9049214D01*
X12421786Y-9049214D01*
X12393214Y-9034929D01*
X12378928Y-9006357D01*
X12378928Y-8892072D01*
X12393214Y-8863500D01*
X12421786Y-8849214D01*
X12478928Y-8849214D01*
X12507500Y-8863500D01*
X12521786Y-8892072D01*
X12521786Y-8920643D01*
X12378928Y-8949214D01*
X12636071Y-9034929D02*
X12664643Y-9049214D01*
X12721786Y-9049214D01*
X12750357Y-9034929D01*
X12764643Y-9006357D01*
X12764643Y-8992072D01*
X12750357Y-8963500D01*
X12721786Y-8949214D01*
X12678928Y-8949214D01*
X12650357Y-8934929D01*
X12636071Y-8906357D01*
X12636071Y-8892072D01*
X12650357Y-8863500D01*
X12678928Y-8849214D01*
X12721786Y-8849214D01*
X12750357Y-8863500D01*
X12864643Y-9163500D02*
X12878928Y-9149214D01*
X12907500Y-9106357D01*
X12921786Y-9077786D01*
X12936071Y-9034929D01*
X12950357Y-8963500D01*
X12950357Y-8906357D01*
X12936071Y-8834929D01*
X12921786Y-8792072D01*
X12907500Y-8763500D01*
X12878928Y-8720643D01*
X12864643Y-8706357D01*
X6046500Y-9263500D02*
X6046500Y-9355500D01*
X6000500Y-9309500D02*
X6092500Y-9309500D01*
X6436071Y-9145214D02*
X6464643Y-9145214D01*
X6493214Y-9159500D01*
X6507500Y-9173786D01*
X6521786Y-9202357D01*
X6536071Y-9259500D01*
X6536071Y-9330929D01*
X6521786Y-9388072D01*
X6507500Y-9416643D01*
X6493214Y-9430929D01*
X6464643Y-9445214D01*
X6436071Y-9445214D01*
X6407500Y-9430929D01*
X6393214Y-9416643D01*
X6378928Y-9388072D01*
X6364643Y-9330929D01*
X6364643Y-9259500D01*
X6378928Y-9202357D01*
X6393214Y-9173786D01*
X6407500Y-9159500D01*
X6436071Y-9145214D01*
X6664643Y-9416643D02*
X6678928Y-9430929D01*
X6664643Y-9445214D01*
X6650357Y-9430929D01*
X6664643Y-9416643D01*
X6664643Y-9445214D01*
X6821786Y-9445214D02*
X6878928Y-9445214D01*
X6907500Y-9430929D01*
X6921786Y-9416643D01*
X6950357Y-9373786D01*
X6964643Y-9316643D01*
X6964643Y-9202357D01*
X6950357Y-9173786D01*
X6936071Y-9159500D01*
X6907500Y-9145214D01*
X6850357Y-9145214D01*
X6821786Y-9159500D01*
X6807500Y-9173786D01*
X6793214Y-9202357D01*
X6793214Y-9273786D01*
X6807500Y-9302357D01*
X6821786Y-9316643D01*
X6850357Y-9330929D01*
X6907500Y-9330929D01*
X6936071Y-9316643D01*
X6950357Y-9302357D01*
X6964643Y-9273786D01*
X7078928Y-9173786D02*
X7093214Y-9159500D01*
X7121786Y-9145214D01*
X7193214Y-9145214D01*
X7221786Y-9159500D01*
X7236071Y-9173786D01*
X7250357Y-9202357D01*
X7250357Y-9230929D01*
X7236071Y-9273786D01*
X7064643Y-9445214D01*
X7250357Y-9445214D01*
X7378928Y-9445214D02*
X7378928Y-9245214D01*
X7378928Y-9273786D02*
X7393214Y-9259500D01*
X7421786Y-9245214D01*
X7464643Y-9245214D01*
X7493214Y-9259500D01*
X7507500Y-9288072D01*
X7507500Y-9445214D01*
X7507500Y-9288072D02*
X7521786Y-9259500D01*
X7550357Y-9245214D01*
X7593214Y-9245214D01*
X7621786Y-9259500D01*
X7636071Y-9288072D01*
X7636071Y-9445214D01*
X7778928Y-9445214D02*
X7778928Y-9245214D01*
X7778928Y-9273786D02*
X7793214Y-9259500D01*
X7821786Y-9245214D01*
X7864643Y-9245214D01*
X7893214Y-9259500D01*
X7907500Y-9288072D01*
X7907500Y-9445214D01*
X7907500Y-9288072D02*
X7921786Y-9259500D01*
X7950357Y-9245214D01*
X7993214Y-9245214D01*
X8021786Y-9259500D01*
X8036071Y-9288072D01*
X8036071Y-9445214D01*
X8621786Y-9130929D02*
X8364643Y-9516643D01*
X9007500Y-9145214D02*
X9036071Y-9145214D01*
X9064643Y-9159500D01*
X9078928Y-9173786D01*
X9093214Y-9202357D01*
X9107500Y-9259500D01*
X9107500Y-9330929D01*
X9093214Y-9388072D01*
X9078928Y-9416643D01*
X9064643Y-9430929D01*
X9036071Y-9445214D01*
X9007500Y-9445214D01*
X8978928Y-9430929D01*
X8964643Y-9416643D01*
X8950357Y-9388072D01*
X8936071Y-9330929D01*
X8936071Y-9259500D01*
X8950357Y-9202357D01*
X8964643Y-9173786D01*
X8978928Y-9159500D01*
X9007500Y-9145214D01*
X9236071Y-9416643D02*
X9250357Y-9430929D01*
X9236071Y-9445214D01*
X9221786Y-9430929D01*
X9236071Y-9416643D01*
X9236071Y-9445214D01*
X9436071Y-9145214D02*
X9464643Y-9145214D01*
X9493214Y-9159500D01*
X9507500Y-9173786D01*
X9521786Y-9202357D01*
X9536071Y-9259500D01*
X9536071Y-9330929D01*
X9521786Y-9388072D01*
X9507500Y-9416643D01*
X9493214Y-9430929D01*
X9464643Y-9445214D01*
X9436071Y-9445214D01*
X9407500Y-9430929D01*
X9393214Y-9416643D01*
X9378928Y-9388072D01*
X9364643Y-9330929D01*
X9364643Y-9259500D01*
X9378928Y-9202357D01*
X9393214Y-9173786D01*
X9407500Y-9159500D01*
X9436071Y-9145214D01*
X9636071Y-9145214D02*
X9821786Y-9145214D01*
X9721786Y-9259500D01*
X9764643Y-9259500D01*
X9793214Y-9273786D01*
X9807500Y-9288072D01*
X9821786Y-9316643D01*
X9821786Y-9388072D01*
X9807500Y-9416643D01*
X9793214Y-9430929D01*
X9764643Y-9445214D01*
X9678928Y-9445214D01*
X9650357Y-9430929D01*
X9636071Y-9416643D01*
X10078928Y-9145214D02*
X10021786Y-9145214D01*
X9993214Y-9159500D01*
X9978928Y-9173786D01*
X9950357Y-9216643D01*
X9936071Y-9273786D01*
X9936071Y-9388072D01*
X9950357Y-9416643D01*
X9964643Y-9430929D01*
X9993214Y-9445214D01*
X10050357Y-9445214D01*
X10078928Y-9430929D01*
X10093214Y-9416643D01*
X10107500Y-9388072D01*
X10107500Y-9316643D01*
X10093214Y-9288072D01*
X10078928Y-9273786D01*
X10050357Y-9259500D01*
X9993214Y-9259500D01*
X9964643Y-9273786D01*
X9950357Y-9288072D01*
X9936071Y-9316643D01*
X10221786Y-9145214D02*
X10221786Y-9202357D01*
X10336071Y-9145214D02*
X10336071Y-9202357D01*
X10778928Y-9559500D02*
X10764643Y-9545214D01*
X10736071Y-9502357D01*
X10721786Y-9473786D01*
X10707500Y-9430929D01*
X10693214Y-9359500D01*
X10693214Y-9302357D01*
X10707500Y-9230929D01*
X10721786Y-9188072D01*
X10736071Y-9159500D01*
X10764643Y-9116643D01*
X10778928Y-9102357D01*
X11021786Y-9245214D02*
X11021786Y-9445214D01*
X10950357Y-9130929D02*
X10878928Y-9345214D01*
X11064643Y-9345214D01*
X11407500Y-9445214D02*
X11407500Y-9145214D01*
X11536071Y-9445214D02*
X11536071Y-9288072D01*
X11521786Y-9259500D01*
X11493214Y-9245214D01*
X11450357Y-9245214D01*
X11421786Y-9259500D01*
X11407500Y-9273786D01*
X11721786Y-9445214D02*
X11693214Y-9430929D01*
X11678928Y-9416643D01*
X11664643Y-9388072D01*
X11664643Y-9302357D01*
X11678928Y-9273786D01*
X11693214Y-9259500D01*
X11721786Y-9245214D01*
X11764643Y-9245214D01*
X11793214Y-9259500D01*
X11807500Y-9273786D01*
X11821786Y-9302357D01*
X11821786Y-9388072D01*
X11807500Y-9416643D01*
X11793214Y-9430929D01*
X11764643Y-9445214D01*
X11721786Y-9445214D01*
X11993214Y-9445214D02*
X11964643Y-9430929D01*
X11950357Y-9402357D01*
X11950357Y-9145214D01*
X12221786Y-9430929D02*
X12193214Y-9445214D01*
X12136071Y-9445214D01*
X12107500Y-9430929D01*
X12093214Y-9402357D01*
X12093214Y-9288072D01*
X12107500Y-9259500D01*
X12136071Y-9245214D01*
X12193214Y-9245214D01*
X12221786Y-9259500D01*
X12236071Y-9288072D01*
X12236071Y-9316643D01*
X12093214Y-9345214D01*
X12350357Y-9430929D02*
X12378928Y-9445214D01*
X12436071Y-9445214D01*
X12464643Y-9430929D01*
X12478928Y-9402357D01*
X12478928Y-9388072D01*
X12464643Y-9359500D01*
X12436071Y-9345214D01*
X12393214Y-9345214D01*
X12364643Y-9330929D01*
X12350357Y-9302357D01*
X12350357Y-9288072D01*
X12364643Y-9259500D01*
X12393214Y-9245214D01*
X12436071Y-9245214D01*
X12464643Y-9259500D01*
X12578928Y-9559500D02*
X12593214Y-9545214D01*
X12621786Y-9502357D01*
X12636071Y-9473786D01*
X12650357Y-9430929D01*
X12664643Y-9359500D01*
X12664643Y-9302357D01*
X12650357Y-9230929D01*
X12636071Y-9188072D01*
X12621786Y-9159500D01*
X12593214Y-9116643D01*
X12578928Y-9102357D01*
X6077856Y-9740856D02*
X6077856Y-9670144D01*
X6007144Y-9670144D01*
X6007144Y-9740856D01*
X6077856Y-9740856D01*
X6536071Y-9841214D02*
X6364643Y-9841214D01*
X6450357Y-9841214D02*
X6450357Y-9541214D01*
X6421786Y-9584072D01*
X6393214Y-9612643D01*
X6364643Y-9626929D01*
X6664643Y-9812643D02*
X6678928Y-9826929D01*
X6664643Y-9841214D01*
X6650357Y-9826929D01*
X6664643Y-9812643D01*
X6664643Y-9841214D01*
X6864643Y-9541214D02*
X6893214Y-9541214D01*
X6921786Y-9555500D01*
X6936071Y-9569786D01*
X6950357Y-9598357D01*
X6964643Y-9655500D01*
X6964643Y-9726929D01*
X6950357Y-9784072D01*
X6936071Y-9812643D01*
X6921786Y-9826929D01*
X6893214Y-9841214D01*
X6864643Y-9841214D01*
X6836071Y-9826929D01*
X6821786Y-9812643D01*
X6807500Y-9784072D01*
X6793214Y-9726929D01*
X6793214Y-9655500D01*
X6807500Y-9598357D01*
X6821786Y-9569786D01*
X6836071Y-9555500D01*
X6864643Y-9541214D01*
X7150357Y-9541214D02*
X7178928Y-9541214D01*
X7207500Y-9555500D01*
X7221786Y-9569786D01*
X7236071Y-9598357D01*
X7250357Y-9655500D01*
X7250357Y-9726929D01*
X7236071Y-9784072D01*
X7221786Y-9812643D01*
X7207500Y-9826929D01*
X7178928Y-9841214D01*
X7150357Y-9841214D01*
X7121786Y-9826929D01*
X7107500Y-9812643D01*
X7093214Y-9784072D01*
X7078928Y-9726929D01*
X7078928Y-9655500D01*
X7093214Y-9598357D01*
X7107500Y-9569786D01*
X7121786Y-9555500D01*
X7150357Y-9541214D01*
X7378928Y-9841214D02*
X7378928Y-9641214D01*
X7378928Y-9669786D02*
X7393214Y-9655500D01*
X7421786Y-9641214D01*
X7464643Y-9641214D01*
X7493214Y-9655500D01*
X7507500Y-9684072D01*
X7507500Y-9841214D01*
X7507500Y-9684072D02*
X7521786Y-9655500D01*
X7550357Y-9641214D01*
X7593214Y-9641214D01*
X7621786Y-9655500D01*
X7636071Y-9684072D01*
X7636071Y-9841214D01*
X7778928Y-9841214D02*
X7778928Y-9641214D01*
X7778928Y-9669786D02*
X7793214Y-9655500D01*
X7821786Y-9641214D01*
X7864643Y-9641214D01*
X7893214Y-9655500D01*
X7907500Y-9684072D01*
X7907500Y-9841214D01*
X7907500Y-9684072D02*
X7921786Y-9655500D01*
X7950357Y-9641214D01*
X7993214Y-9641214D01*
X8021786Y-9655500D01*
X8036071Y-9684072D01*
X8036071Y-9841214D01*
X8621786Y-9526929D02*
X8364643Y-9912643D01*
X9007500Y-9541214D02*
X9036071Y-9541214D01*
X9064643Y-9555500D01*
X9078928Y-9569786D01*
X9093214Y-9598357D01*
X9107500Y-9655500D01*
X9107500Y-9726929D01*
X9093214Y-9784072D01*
X9078928Y-9812643D01*
X9064643Y-9826929D01*
X9036071Y-9841214D01*
X9007500Y-9841214D01*
X8978928Y-9826929D01*
X8964643Y-9812643D01*
X8950357Y-9784072D01*
X8936071Y-9726929D01*
X8936071Y-9655500D01*
X8950357Y-9598357D01*
X8964643Y-9569786D01*
X8978928Y-9555500D01*
X9007500Y-9541214D01*
X9236071Y-9812643D02*
X9250357Y-9826929D01*
X9236071Y-9841214D01*
X9221786Y-9826929D01*
X9236071Y-9812643D01*
X9236071Y-9841214D01*
X9436071Y-9541214D02*
X9464643Y-9541214D01*
X9493214Y-9555500D01*
X9507500Y-9569786D01*
X9521786Y-9598357D01*
X9536071Y-9655500D01*
X9536071Y-9726929D01*
X9521786Y-9784072D01*
X9507500Y-9812643D01*
X9493214Y-9826929D01*
X9464643Y-9841214D01*
X9436071Y-9841214D01*
X9407500Y-9826929D01*
X9393214Y-9812643D01*
X9378928Y-9784072D01*
X9364643Y-9726929D01*
X9364643Y-9655500D01*
X9378928Y-9598357D01*
X9393214Y-9569786D01*
X9407500Y-9555500D01*
X9436071Y-9541214D01*
X9636071Y-9541214D02*
X9821786Y-9541214D01*
X9721786Y-9655500D01*
X9764643Y-9655500D01*
X9793214Y-9669786D01*
X9807500Y-9684072D01*
X9821786Y-9712643D01*
X9821786Y-9784072D01*
X9807500Y-9812643D01*
X9793214Y-9826929D01*
X9764643Y-9841214D01*
X9678928Y-9841214D01*
X9650357Y-9826929D01*
X9636071Y-9812643D01*
X9964643Y-9841214D02*
X10021786Y-9841214D01*
X10050357Y-9826929D01*
X10064643Y-9812643D01*
X10093214Y-9769786D01*
X10107500Y-9712643D01*
X10107500Y-9598357D01*
X10093214Y-9569786D01*
X10078928Y-9555500D01*
X10050357Y-9541214D01*
X9993214Y-9541214D01*
X9964643Y-9555500D01*
X9950357Y-9569786D01*
X9936071Y-9598357D01*
X9936071Y-9669786D01*
X9950357Y-9698357D01*
X9964643Y-9712643D01*
X9993214Y-9726929D01*
X10050357Y-9726929D01*
X10078928Y-9712643D01*
X10093214Y-9698357D01*
X10107500Y-9669786D01*
X10221786Y-9541214D02*
X10221786Y-9598357D01*
X10336071Y-9541214D02*
X10336071Y-9598357D01*
X10778928Y-9955500D02*
X10764643Y-9941214D01*
X10736071Y-9898357D01*
X10721786Y-9869786D01*
X10707500Y-9826929D01*
X10693214Y-9755500D01*
X10693214Y-9698357D01*
X10707500Y-9626929D01*
X10721786Y-9584072D01*
X10736071Y-9555500D01*
X10764643Y-9512643D01*
X10778928Y-9498357D01*
X11021786Y-9541214D02*
X10964643Y-9541214D01*
X10936071Y-9555500D01*
X10921786Y-9569786D01*
X10893214Y-9612643D01*
X10878928Y-9669786D01*
X10878928Y-9784072D01*
X10893214Y-9812643D01*
X10907500Y-9826929D01*
X10936071Y-9841214D01*
X10993214Y-9841214D01*
X11021786Y-9826929D01*
X11036071Y-9812643D01*
X11050357Y-9784072D01*
X11050357Y-9712643D01*
X11036071Y-9684072D01*
X11021786Y-9669786D01*
X10993214Y-9655500D01*
X10936071Y-9655500D01*
X10907500Y-9669786D01*
X10893214Y-9684072D01*
X10878928Y-9712643D01*
X11407500Y-9841214D02*
X11407500Y-9541214D01*
X11536071Y-9841214D02*
X11536071Y-9684072D01*
X11521786Y-9655500D01*
X11493214Y-9641214D01*
X11450357Y-9641214D01*
X11421786Y-9655500D01*
X11407500Y-9669786D01*
X11721786Y-9841214D02*
X11693214Y-9826929D01*
X11678928Y-9812643D01*
X11664643Y-9784072D01*
X11664643Y-9698357D01*
X11678928Y-9669786D01*
X11693214Y-9655500D01*
X11721786Y-9641214D01*
X11764643Y-9641214D01*
X11793214Y-9655500D01*
X11807500Y-9669786D01*
X11821786Y-9698357D01*
X11821786Y-9784072D01*
X11807500Y-9812643D01*
X11793214Y-9826929D01*
X11764643Y-9841214D01*
X11721786Y-9841214D01*
X11993214Y-9841214D02*
X11964643Y-9826929D01*
X11950357Y-9798357D01*
X11950357Y-9541214D01*
X12221786Y-9826929D02*
X12193214Y-9841214D01*
X12136071Y-9841214D01*
X12107500Y-9826929D01*
X12093214Y-9798357D01*
X12093214Y-9684072D01*
X12107500Y-9655500D01*
X12136071Y-9641214D01*
X12193214Y-9641214D01*
X12221786Y-9655500D01*
X12236071Y-9684072D01*
X12236071Y-9712643D01*
X12093214Y-9741214D01*
X12350357Y-9826929D02*
X12378928Y-9841214D01*
X12436071Y-9841214D01*
X12464643Y-9826929D01*
X12478928Y-9798357D01*
X12478928Y-9784072D01*
X12464643Y-9755500D01*
X12436071Y-9741214D01*
X12393214Y-9741214D01*
X12364643Y-9726929D01*
X12350357Y-9698357D01*
X12350357Y-9684072D01*
X12364643Y-9655500D01*
X12393214Y-9641214D01*
X12436071Y-9641214D01*
X12464643Y-9655500D01*
X12578928Y-9955500D02*
X12593214Y-9941214D01*
X12621786Y-9898357D01*
X12636071Y-9869786D01*
X12650357Y-9826929D01*
X12664643Y-9755500D01*
X12664643Y-9698357D01*
X12650357Y-9626929D01*
X12636071Y-9584072D01*
X12621786Y-9555500D01*
X12593214Y-9512643D01*
X12578928Y-9498357D01*
X6027500Y-10166500D02*
X6092500Y-10101500D01*
X6027500Y-10036500D01*
X5962500Y-10101500D01*
X6027500Y-10166500D01*
X6536071Y-10237214D02*
X6364643Y-10237214D01*
X6450357Y-10237214D02*
X6450357Y-9937214D01*
X6421786Y-9980072D01*
X6393214Y-10008643D01*
X6364643Y-10022929D01*
X6664643Y-10208643D02*
X6678928Y-10222929D01*
X6664643Y-10237214D01*
X6650357Y-10222929D01*
X6664643Y-10208643D01*
X6664643Y-10237214D01*
X6778928Y-9937214D02*
X6964643Y-9937214D01*
X6864643Y-10051500D01*
X6907500Y-10051500D01*
X6936071Y-10065786D01*
X6950357Y-10080072D01*
X6964643Y-10108643D01*
X6964643Y-10180072D01*
X6950357Y-10208643D01*
X6936071Y-10222929D01*
X6907500Y-10237214D01*
X6821786Y-10237214D01*
X6793214Y-10222929D01*
X6778928Y-10208643D01*
X7150357Y-9937214D02*
X7178928Y-9937214D01*
X7207500Y-9951500D01*
X7221786Y-9965786D01*
X7236071Y-9994357D01*
X7250357Y-10051500D01*
X7250357Y-10122929D01*
X7236071Y-10180072D01*
X7221786Y-10208643D01*
X7207500Y-10222929D01*
X7178928Y-10237214D01*
X7150357Y-10237214D01*
X7121786Y-10222929D01*
X7107500Y-10208643D01*
X7093214Y-10180072D01*
X7078928Y-10122929D01*
X7078928Y-10051500D01*
X7093214Y-9994357D01*
X7107500Y-9965786D01*
X7121786Y-9951500D01*
X7150357Y-9937214D01*
X7378928Y-10237214D02*
X7378928Y-10037214D01*
X7378928Y-10065786D02*
X7393214Y-10051500D01*
X7421786Y-10037214D01*
X7464643Y-10037214D01*
X7493214Y-10051500D01*
X7507500Y-10080072D01*
X7507500Y-10237214D01*
X7507500Y-10080072D02*
X7521786Y-10051500D01*
X7550357Y-10037214D01*
X7593214Y-10037214D01*
X7621786Y-10051500D01*
X7636071Y-10080072D01*
X7636071Y-10237214D01*
X7778928Y-10237214D02*
X7778928Y-10037214D01*
X7778928Y-10065786D02*
X7793214Y-10051500D01*
X7821786Y-10037214D01*
X7864643Y-10037214D01*
X7893214Y-10051500D01*
X7907500Y-10080072D01*
X7907500Y-10237214D01*
X7907500Y-10080072D02*
X7921786Y-10051500D01*
X7950357Y-10037214D01*
X7993214Y-10037214D01*
X8021786Y-10051500D01*
X8036071Y-10080072D01*
X8036071Y-10237214D01*
X8621786Y-9922929D02*
X8364643Y-10308643D01*
X9007500Y-9937214D02*
X9036071Y-9937214D01*
X9064643Y-9951500D01*
X9078928Y-9965786D01*
X9093214Y-9994357D01*
X9107500Y-10051500D01*
X9107500Y-10122929D01*
X9093214Y-10180072D01*
X9078928Y-10208643D01*
X9064643Y-10222929D01*
X9036071Y-10237214D01*
X9007500Y-10237214D01*
X8978928Y-10222929D01*
X8964643Y-10208643D01*
X8950357Y-10180072D01*
X8936071Y-10122929D01*
X8936071Y-10051500D01*
X8950357Y-9994357D01*
X8964643Y-9965786D01*
X8978928Y-9951500D01*
X9007500Y-9937214D01*
X9236071Y-10208643D02*
X9250357Y-10222929D01*
X9236071Y-10237214D01*
X9221786Y-10222929D01*
X9236071Y-10208643D01*
X9236071Y-10237214D01*
X9436071Y-9937214D02*
X9464643Y-9937214D01*
X9493214Y-9951500D01*
X9507500Y-9965786D01*
X9521786Y-9994357D01*
X9536071Y-10051500D01*
X9536071Y-10122929D01*
X9521786Y-10180072D01*
X9507500Y-10208643D01*
X9493214Y-10222929D01*
X9464643Y-10237214D01*
X9436071Y-10237214D01*
X9407500Y-10222929D01*
X9393214Y-10208643D01*
X9378928Y-10180072D01*
X9364643Y-10122929D01*
X9364643Y-10051500D01*
X9378928Y-9994357D01*
X9393214Y-9965786D01*
X9407500Y-9951500D01*
X9436071Y-9937214D01*
X9807500Y-9937214D02*
X9664643Y-9937214D01*
X9650357Y-10080072D01*
X9664643Y-10065786D01*
X9693214Y-10051500D01*
X9764643Y-10051500D01*
X9793214Y-10065786D01*
X9807500Y-10080072D01*
X9821786Y-10108643D01*
X9821786Y-10180072D01*
X9807500Y-10208643D01*
X9793214Y-10222929D01*
X9764643Y-10237214D01*
X9693214Y-10237214D01*
X9664643Y-10222929D01*
X9650357Y-10208643D01*
X10107500Y-10237214D02*
X9936071Y-10237214D01*
X10021786Y-10237214D02*
X10021786Y-9937214D01*
X9993214Y-9980072D01*
X9964643Y-10008643D01*
X9936071Y-10022929D01*
X10221786Y-9937214D02*
X10221786Y-9994357D01*
X10336071Y-9937214D02*
X10336071Y-9994357D01*
X10778928Y-10351500D02*
X10764643Y-10337214D01*
X10736071Y-10294357D01*
X10721786Y-10265786D01*
X10707500Y-10222929D01*
X10693214Y-10151500D01*
X10693214Y-10094357D01*
X10707500Y-10022929D01*
X10721786Y-9980072D01*
X10736071Y-9951500D01*
X10764643Y-9908643D01*
X10778928Y-9894357D01*
X10864643Y-9937214D02*
X11050357Y-9937214D01*
X10950357Y-10051500D01*
X10993214Y-10051500D01*
X11021786Y-10065786D01*
X11036071Y-10080072D01*
X11050357Y-10108643D01*
X11050357Y-10180072D01*
X11036071Y-10208643D01*
X11021786Y-10222929D01*
X10993214Y-10237214D01*
X10907500Y-10237214D01*
X10878928Y-10222929D01*
X10864643Y-10208643D01*
X11407500Y-10237214D02*
X11407500Y-9937214D01*
X11536071Y-10237214D02*
X11536071Y-10080072D01*
X11521786Y-10051500D01*
X11493214Y-10037214D01*
X11450357Y-10037214D01*
X11421786Y-10051500D01*
X11407500Y-10065786D01*
X11721786Y-10237214D02*
X11693214Y-10222929D01*
X11678928Y-10208643D01*
X11664643Y-10180072D01*
X11664643Y-10094357D01*
X11678928Y-10065786D01*
X11693214Y-10051500D01*
X11721786Y-10037214D01*
X11764643Y-10037214D01*
X11793214Y-10051500D01*
X11807500Y-10065786D01*
X11821786Y-10094357D01*
X11821786Y-10180072D01*
X11807500Y-10208643D01*
X11793214Y-10222929D01*
X11764643Y-10237214D01*
X11721786Y-10237214D01*
X11993214Y-10237214D02*
X11964643Y-10222929D01*
X11950357Y-10194357D01*
X11950357Y-9937214D01*
X12221786Y-10222929D02*
X12193214Y-10237214D01*
X12136071Y-10237214D01*
X12107500Y-10222929D01*
X12093214Y-10194357D01*
X12093214Y-10080072D01*
X12107500Y-10051500D01*
X12136071Y-10037214D01*
X12193214Y-10037214D01*
X12221786Y-10051500D01*
X12236071Y-10080072D01*
X12236071Y-10108643D01*
X12093214Y-10137214D01*
X12350357Y-10222929D02*
X12378928Y-10237214D01*
X12436071Y-10237214D01*
X12464643Y-10222929D01*
X12478928Y-10194357D01*
X12478928Y-10180072D01*
X12464643Y-10151500D01*
X12436071Y-10137214D01*
X12393214Y-10137214D01*
X12364643Y-10122929D01*
X12350357Y-10094357D01*
X12350357Y-10080072D01*
X12364643Y-10051500D01*
X12393214Y-10037214D01*
X12436071Y-10037214D01*
X12464643Y-10051500D01*
X12578928Y-10351500D02*
X12593214Y-10337214D01*
X12621786Y-10294357D01*
X12636071Y-10265786D01*
X12650357Y-10222929D01*
X12664643Y-10151500D01*
X12664643Y-10094357D01*
X12650357Y-10022929D01*
X12636071Y-9980072D01*
X12621786Y-9951500D01*
X12593214Y-9908643D01*
X12578928Y-9894357D01*
X5859500Y-10381000D02*
X6092500Y-10614000D01*
X6092500Y-10381000D02*
X5859500Y-10614000D01*
X6092500Y-10497500D02*
G75*
G03X6092500Y-10497500I-116500J0D01*
G01*
X6364643Y-10361786D02*
X6378928Y-10347500D01*
X6407500Y-10333214D01*
X6478928Y-10333214D01*
X6507500Y-10347500D01*
X6521786Y-10361786D01*
X6536071Y-10390357D01*
X6536071Y-10418929D01*
X6521786Y-10461786D01*
X6350357Y-10633214D01*
X6536071Y-10633214D01*
X6664643Y-10604643D02*
X6678928Y-10618929D01*
X6664643Y-10633214D01*
X6650357Y-10618929D01*
X6664643Y-10604643D01*
X6664643Y-10633214D01*
X6778928Y-10333214D02*
X6964643Y-10333214D01*
X6864643Y-10447500D01*
X6907500Y-10447500D01*
X6936071Y-10461786D01*
X6950357Y-10476072D01*
X6964643Y-10504643D01*
X6964643Y-10576072D01*
X6950357Y-10604643D01*
X6936071Y-10618929D01*
X6907500Y-10633214D01*
X6821786Y-10633214D01*
X6793214Y-10618929D01*
X6778928Y-10604643D01*
X7064643Y-10333214D02*
X7250357Y-10333214D01*
X7150357Y-10447500D01*
X7193214Y-10447500D01*
X7221786Y-10461786D01*
X7236071Y-10476072D01*
X7250357Y-10504643D01*
X7250357Y-10576072D01*
X7236071Y-10604643D01*
X7221786Y-10618929D01*
X7193214Y-10633214D01*
X7107500Y-10633214D01*
X7078928Y-10618929D01*
X7064643Y-10604643D01*
X7378928Y-10633214D02*
X7378928Y-10433214D01*
X7378928Y-10461786D02*
X7393214Y-10447500D01*
X7421786Y-10433214D01*
X7464643Y-10433214D01*
X7493214Y-10447500D01*
X7507500Y-10476072D01*
X7507500Y-10633214D01*
X7507500Y-10476072D02*
X7521786Y-10447500D01*
X7550357Y-10433214D01*
X7593214Y-10433214D01*
X7621786Y-10447500D01*
X7636071Y-10476072D01*
X7636071Y-10633214D01*
X7778928Y-10633214D02*
X7778928Y-10433214D01*
X7778928Y-10461786D02*
X7793214Y-10447500D01*
X7821786Y-10433214D01*
X7864643Y-10433214D01*
X7893214Y-10447500D01*
X7907500Y-10476072D01*
X7907500Y-10633214D01*
X7907500Y-10476072D02*
X7921786Y-10447500D01*
X7950357Y-10433214D01*
X7993214Y-10433214D01*
X8021786Y-10447500D01*
X8036071Y-10476072D01*
X8036071Y-10633214D01*
X8621786Y-10318929D02*
X8364643Y-10704643D01*
X9007500Y-10333214D02*
X9036071Y-10333214D01*
X9064643Y-10347500D01*
X9078928Y-10361786D01*
X9093214Y-10390357D01*
X9107500Y-10447500D01*
X9107500Y-10518929D01*
X9093214Y-10576072D01*
X9078928Y-10604643D01*
X9064643Y-10618929D01*
X9036071Y-10633214D01*
X9007500Y-10633214D01*
X8978928Y-10618929D01*
X8964643Y-10604643D01*
X8950357Y-10576072D01*
X8936071Y-10518929D01*
X8936071Y-10447500D01*
X8950357Y-10390357D01*
X8964643Y-10361786D01*
X8978928Y-10347500D01*
X9007500Y-10333214D01*
X9236071Y-10604643D02*
X9250357Y-10618929D01*
X9236071Y-10633214D01*
X9221786Y-10618929D01*
X9236071Y-10604643D01*
X9236071Y-10633214D01*
X9436071Y-10333214D02*
X9464643Y-10333214D01*
X9493214Y-10347500D01*
X9507500Y-10361786D01*
X9521786Y-10390357D01*
X9536071Y-10447500D01*
X9536071Y-10518929D01*
X9521786Y-10576072D01*
X9507500Y-10604643D01*
X9493214Y-10618929D01*
X9464643Y-10633214D01*
X9436071Y-10633214D01*
X9407500Y-10618929D01*
X9393214Y-10604643D01*
X9378928Y-10576072D01*
X9364643Y-10518929D01*
X9364643Y-10447500D01*
X9378928Y-10390357D01*
X9393214Y-10361786D01*
X9407500Y-10347500D01*
X9436071Y-10333214D01*
X9678928Y-10633214D02*
X9736071Y-10633214D01*
X9764643Y-10618929D01*
X9778928Y-10604643D01*
X9807500Y-10561786D01*
X9821786Y-10504643D01*
X9821786Y-10390357D01*
X9807500Y-10361786D01*
X9793214Y-10347500D01*
X9764643Y-10333214D01*
X9707500Y-10333214D01*
X9678928Y-10347500D01*
X9664643Y-10361786D01*
X9650357Y-10390357D01*
X9650357Y-10461786D01*
X9664643Y-10490357D01*
X9678928Y-10504643D01*
X9707500Y-10518929D01*
X9764643Y-10518929D01*
X9793214Y-10504643D01*
X9807500Y-10490357D01*
X9821786Y-10461786D01*
X9936071Y-10361786D02*
X9950357Y-10347500D01*
X9978928Y-10333214D01*
X10050357Y-10333214D01*
X10078928Y-10347500D01*
X10093214Y-10361786D01*
X10107500Y-10390357D01*
X10107500Y-10418929D01*
X10093214Y-10461786D01*
X9921786Y-10633214D01*
X10107500Y-10633214D01*
X10221786Y-10333214D02*
X10221786Y-10390357D01*
X10336071Y-10333214D02*
X10336071Y-10390357D01*
X10778928Y-10747500D02*
X10764643Y-10733214D01*
X10736071Y-10690357D01*
X10721786Y-10661786D01*
X10707500Y-10618929D01*
X10693214Y-10547500D01*
X10693214Y-10490357D01*
X10707500Y-10418929D01*
X10721786Y-10376072D01*
X10736071Y-10347500D01*
X10764643Y-10304643D01*
X10778928Y-10290357D01*
X10878928Y-10361786D02*
X10893214Y-10347500D01*
X10921786Y-10333214D01*
X10993214Y-10333214D01*
X11021786Y-10347500D01*
X11036071Y-10361786D01*
X11050357Y-10390357D01*
X11050357Y-10418929D01*
X11036071Y-10461786D01*
X10864643Y-10633214D01*
X11050357Y-10633214D01*
X11407500Y-10633214D02*
X11407500Y-10333214D01*
X11536071Y-10633214D02*
X11536071Y-10476072D01*
X11521786Y-10447500D01*
X11493214Y-10433214D01*
X11450357Y-10433214D01*
X11421786Y-10447500D01*
X11407500Y-10461786D01*
X11721786Y-10633214D02*
X11693214Y-10618929D01*
X11678928Y-10604643D01*
X11664643Y-10576072D01*
X11664643Y-10490357D01*
X11678928Y-10461786D01*
X11693214Y-10447500D01*
X11721786Y-10433214D01*
X11764643Y-10433214D01*
X11793214Y-10447500D01*
X11807500Y-10461786D01*
X11821786Y-10490357D01*
X11821786Y-10576072D01*
X11807500Y-10604643D01*
X11793214Y-10618929D01*
X11764643Y-10633214D01*
X11721786Y-10633214D01*
X11993214Y-10633214D02*
X11964643Y-10618929D01*
X11950357Y-10590357D01*
X11950357Y-10333214D01*
X12221786Y-10618929D02*
X12193214Y-10633214D01*
X12136071Y-10633214D01*
X12107500Y-10618929D01*
X12093214Y-10590357D01*
X12093214Y-10476072D01*
X12107500Y-10447500D01*
X12136071Y-10433214D01*
X12193214Y-10433214D01*
X12221786Y-10447500D01*
X12236071Y-10476072D01*
X12236071Y-10504643D01*
X12093214Y-10533214D01*
X12350357Y-10618929D02*
X12378928Y-10633214D01*
X12436071Y-10633214D01*
X12464643Y-10618929D01*
X12478928Y-10590357D01*
X12478928Y-10576072D01*
X12464643Y-10547500D01*
X12436071Y-10533214D01*
X12393214Y-10533214D01*
X12364643Y-10518929D01*
X12350357Y-10490357D01*
X12350357Y-10476072D01*
X12364643Y-10447500D01*
X12393214Y-10433214D01*
X12436071Y-10433214D01*
X12464643Y-10447500D01*
X12578928Y-10747500D02*
X12593214Y-10733214D01*
X12621786Y-10690357D01*
X12636071Y-10661786D01*
X12650357Y-10618929D01*
X12664643Y-10547500D01*
X12664643Y-10490357D01*
X12650357Y-10418929D01*
X12636071Y-10376072D01*
X12621786Y-10347500D01*
X12593214Y-10304643D01*
X12578928Y-10290357D01*
X5792500Y-10743500D02*
X6092500Y-11043500D01*
X6092500Y-10743500D02*
X5792500Y-11043500D01*
X5942500Y-10743500D02*
X5942500Y-11043500D01*
X5792500Y-10893500D02*
X6092500Y-10893500D01*
X6350357Y-10729214D02*
X6536071Y-10729214D01*
X6436071Y-10843500D01*
X6478928Y-10843500D01*
X6507500Y-10857786D01*
X6521786Y-10872072D01*
X6536071Y-10900643D01*
X6536071Y-10972072D01*
X6521786Y-11000643D01*
X6507500Y-11014929D01*
X6478928Y-11029214D01*
X6393214Y-11029214D01*
X6364643Y-11014929D01*
X6350357Y-11000643D01*
X6664643Y-11000643D02*
X6678928Y-11014929D01*
X6664643Y-11029214D01*
X6650357Y-11014929D01*
X6664643Y-11000643D01*
X6664643Y-11029214D01*
X6864643Y-10729214D02*
X6893214Y-10729214D01*
X6921786Y-10743500D01*
X6936071Y-10757786D01*
X6950357Y-10786357D01*
X6964643Y-10843500D01*
X6964643Y-10914929D01*
X6950357Y-10972072D01*
X6936071Y-11000643D01*
X6921786Y-11014929D01*
X6893214Y-11029214D01*
X6864643Y-11029214D01*
X6836071Y-11014929D01*
X6821786Y-11000643D01*
X6807500Y-10972072D01*
X6793214Y-10914929D01*
X6793214Y-10843500D01*
X6807500Y-10786357D01*
X6821786Y-10757786D01*
X6836071Y-10743500D01*
X6864643Y-10729214D01*
X7150357Y-10729214D02*
X7178928Y-10729214D01*
X7207500Y-10743500D01*
X7221786Y-10757786D01*
X7236071Y-10786357D01*
X7250357Y-10843500D01*
X7250357Y-10914929D01*
X7236071Y-10972072D01*
X7221786Y-11000643D01*
X7207500Y-11014929D01*
X7178928Y-11029214D01*
X7150357Y-11029214D01*
X7121786Y-11014929D01*
X7107500Y-11000643D01*
X7093214Y-10972072D01*
X7078928Y-10914929D01*
X7078928Y-10843500D01*
X7093214Y-10786357D01*
X7107500Y-10757786D01*
X7121786Y-10743500D01*
X7150357Y-10729214D01*
X7378928Y-11029214D02*
X7378928Y-10829214D01*
X7378928Y-10857786D02*
X7393214Y-10843500D01*
X7421786Y-10829214D01*
X7464643Y-10829214D01*
X7493214Y-10843500D01*
X7507500Y-10872072D01*
X7507500Y-11029214D01*
X7507500Y-10872072D02*
X7521786Y-10843500D01*
X7550357Y-10829214D01*
X7593214Y-10829214D01*
X7621786Y-10843500D01*
X7636071Y-10872072D01*
X7636071Y-11029214D01*
X7778928Y-11029214D02*
X7778928Y-10829214D01*
X7778928Y-10857786D02*
X7793214Y-10843500D01*
X7821786Y-10829214D01*
X7864643Y-10829214D01*
X7893214Y-10843500D01*
X7907500Y-10872072D01*
X7907500Y-11029214D01*
X7907500Y-10872072D02*
X7921786Y-10843500D01*
X7950357Y-10829214D01*
X7993214Y-10829214D01*
X8021786Y-10843500D01*
X8036071Y-10872072D01*
X8036071Y-11029214D01*
X8621786Y-10714929D02*
X8364643Y-11100643D01*
X9007500Y-10729214D02*
X9036071Y-10729214D01*
X9064643Y-10743500D01*
X9078928Y-10757786D01*
X9093214Y-10786357D01*
X9107500Y-10843500D01*
X9107500Y-10914929D01*
X9093214Y-10972072D01*
X9078928Y-11000643D01*
X9064643Y-11014929D01*
X9036071Y-11029214D01*
X9007500Y-11029214D01*
X8978928Y-11014929D01*
X8964643Y-11000643D01*
X8950357Y-10972072D01*
X8936071Y-10914929D01*
X8936071Y-10843500D01*
X8950357Y-10786357D01*
X8964643Y-10757786D01*
X8978928Y-10743500D01*
X9007500Y-10729214D01*
X9236071Y-11000643D02*
X9250357Y-11014929D01*
X9236071Y-11029214D01*
X9221786Y-11014929D01*
X9236071Y-11000643D01*
X9236071Y-11029214D01*
X9536071Y-11029214D02*
X9364643Y-11029214D01*
X9450357Y-11029214D02*
X9450357Y-10729214D01*
X9421786Y-10772072D01*
X9393214Y-10800643D01*
X9364643Y-10814929D01*
X9821786Y-11029214D02*
X9650357Y-11029214D01*
X9736071Y-11029214D02*
X9736071Y-10729214D01*
X9707500Y-10772072D01*
X9678928Y-10800643D01*
X9650357Y-10814929D01*
X9993214Y-10857786D02*
X9964643Y-10843500D01*
X9950357Y-10829214D01*
X9936071Y-10800643D01*
X9936071Y-10786357D01*
X9950357Y-10757786D01*
X9964643Y-10743500D01*
X9993214Y-10729214D01*
X10050357Y-10729214D01*
X10078928Y-10743500D01*
X10093214Y-10757786D01*
X10107500Y-10786357D01*
X10107500Y-10800643D01*
X10093214Y-10829214D01*
X10078928Y-10843500D01*
X10050357Y-10857786D01*
X9993214Y-10857786D01*
X9964643Y-10872072D01*
X9950357Y-10886357D01*
X9936071Y-10914929D01*
X9936071Y-10972072D01*
X9950357Y-11000643D01*
X9964643Y-11014929D01*
X9993214Y-11029214D01*
X10050357Y-11029214D01*
X10078928Y-11014929D01*
X10093214Y-11000643D01*
X10107500Y-10972072D01*
X10107500Y-10914929D01*
X10093214Y-10886357D01*
X10078928Y-10872072D01*
X10050357Y-10857786D01*
X10221786Y-10729214D02*
X10221786Y-10786357D01*
X10336071Y-10729214D02*
X10336071Y-10786357D01*
X10778928Y-11143500D02*
X10764643Y-11129214D01*
X10736071Y-11086357D01*
X10721786Y-11057786D01*
X10707500Y-11014929D01*
X10693214Y-10943500D01*
X10693214Y-10886357D01*
X10707500Y-10814929D01*
X10721786Y-10772072D01*
X10736071Y-10743500D01*
X10764643Y-10700643D01*
X10778928Y-10686357D01*
X11021786Y-10829214D02*
X11021786Y-11029214D01*
X10950357Y-10714929D02*
X10878928Y-10929214D01*
X11064643Y-10929214D01*
X11407500Y-11029214D02*
X11407500Y-10729214D01*
X11536071Y-11029214D02*
X11536071Y-10872072D01*
X11521786Y-10843500D01*
X11493214Y-10829214D01*
X11450357Y-10829214D01*
X11421786Y-10843500D01*
X11407500Y-10857786D01*
X11721786Y-11029214D02*
X11693214Y-11014929D01*
X11678928Y-11000643D01*
X11664643Y-10972072D01*
X11664643Y-10886357D01*
X11678928Y-10857786D01*
X11693214Y-10843500D01*
X11721786Y-10829214D01*
X11764643Y-10829214D01*
X11793214Y-10843500D01*
X11807500Y-10857786D01*
X11821786Y-10886357D01*
X11821786Y-10972072D01*
X11807500Y-11000643D01*
X11793214Y-11014929D01*
X11764643Y-11029214D01*
X11721786Y-11029214D01*
X11993214Y-11029214D02*
X11964643Y-11014929D01*
X11950357Y-10986357D01*
X11950357Y-10729214D01*
X12221786Y-11014929D02*
X12193214Y-11029214D01*
X12136071Y-11029214D01*
X12107500Y-11014929D01*
X12093214Y-10986357D01*
X12093214Y-10872072D01*
X12107500Y-10843500D01*
X12136071Y-10829214D01*
X12193214Y-10829214D01*
X12221786Y-10843500D01*
X12236071Y-10872072D01*
X12236071Y-10900643D01*
X12093214Y-10929214D01*
X12350357Y-11014929D02*
X12378928Y-11029214D01*
X12436071Y-11029214D01*
X12464643Y-11014929D01*
X12478928Y-10986357D01*
X12478928Y-10972072D01*
X12464643Y-10943500D01*
X12436071Y-10929214D01*
X12393214Y-10929214D01*
X12364643Y-10914929D01*
X12350357Y-10886357D01*
X12350357Y-10872072D01*
X12364643Y-10843500D01*
X12393214Y-10829214D01*
X12436071Y-10829214D01*
X12464643Y-10843500D01*
X12578928Y-11143500D02*
X12593214Y-11129214D01*
X12621786Y-11086357D01*
X12636071Y-11057786D01*
X12650357Y-11014929D01*
X12664643Y-10943500D01*
X12664643Y-10886357D01*
X12650357Y-10814929D01*
X12636071Y-10772072D01*
X12621786Y-10743500D01*
X12593214Y-10700643D01*
X12578928Y-10686357D01*
M02*
