%TF.GenerationSoftware,KiCad,Pcbnew,7.0.5*%
%TF.CreationDate,2023-08-10T10:00:59+03:00*%
%TF.ProjectId,shutter,73687574-7465-4722-9e6b-696361645f70,rev?*%
%TF.SameCoordinates,Original*%
%TF.FileFunction,Drillmap*%
%TF.FilePolarity,Positive*%
%FSLAX45Y45*%
G04 Gerber Fmt 4.5, Leading zero omitted, Abs format (unit mm)*
G04 Created by KiCad (PCBNEW 7.0.5) date 2023-08-10 10:00:59*
%MOMM*%
%LPD*%
G01*
G04 APERTURE LIST*
%ADD10C,0.100000*%
%ADD11C,0.200000*%
%ADD12C,0.060000*%
%ADD13C,0.065000*%
%ADD14C,0.075000*%
%ADD15C,0.095000*%
%ADD16C,0.110000*%
%ADD17C,0.120000*%
%ADD18C,0.130000*%
%ADD19C,0.230000*%
%ADD20C,0.320000*%
%ADD21C,0.350000*%
G04 APERTURE END LIST*
D10*
X11250000Y-7050000D02*
X17350000Y-7050000D01*
X17350000Y-12000000D02*
X11250000Y-12000000D01*
X17350000Y-7050000D02*
X17350000Y-12000000D01*
X11250000Y-12000000D02*
X11250000Y-7050000D01*
D11*
D12*
X13388820Y-10638000D02*
X13448820Y-10698000D01*
X13448820Y-10638000D02*
X13388820Y-10698000D01*
X13592020Y-9205440D02*
X13652020Y-9265440D01*
X13652020Y-9205440D02*
X13592020Y-9265440D01*
X13764740Y-8661880D02*
X13824740Y-8721880D01*
X13824740Y-8661880D02*
X13764740Y-8721880D01*
X13859690Y-8217380D02*
X13919690Y-8277380D01*
X13919690Y-8217380D02*
X13859690Y-8277380D01*
X13953250Y-7603250D02*
X14013250Y-7663250D01*
X14013250Y-7603250D02*
X13953250Y-7663250D01*
X14022000Y-9667000D02*
X14082000Y-9727000D01*
X14082000Y-9667000D02*
X14022000Y-9727000D01*
X14192500Y-7956800D02*
X14252500Y-8016800D01*
X14252500Y-7956800D02*
X14192500Y-8016800D01*
X14630833Y-9436627D02*
X14690833Y-9496627D01*
X14690833Y-9436627D02*
X14630833Y-9496627D01*
X14695000Y-7570000D02*
X14755000Y-7630000D01*
X14755000Y-7570000D02*
X14695000Y-7630000D01*
X14846780Y-10264620D02*
X14906780Y-10324620D01*
X14906780Y-10264620D02*
X14846780Y-10324620D01*
X15077920Y-8669500D02*
X15137920Y-8729500D01*
X15137920Y-8669500D02*
X15077920Y-8729500D01*
X15090620Y-8433280D02*
X15150620Y-8493280D01*
X15150620Y-8433280D02*
X15090620Y-8493280D01*
X15215080Y-9205440D02*
X15275080Y-9265440D01*
X15275080Y-9205440D02*
X15215080Y-9265440D01*
X15270000Y-8145000D02*
X15330000Y-8205000D01*
X15330000Y-8145000D02*
X15270000Y-8205000D01*
X15382720Y-10914860D02*
X15442720Y-10974860D01*
X15442720Y-10914860D02*
X15382720Y-10974860D01*
X15444000Y-9639000D02*
X15504000Y-9699000D01*
X15504000Y-9639000D02*
X15444000Y-9699000D01*
D13*
X14249000Y-7400000D02*
G75*
G03*
X14249000Y-7400000I-32500J0D01*
G01*
X14376000Y-7400000D02*
G75*
G03*
X14376000Y-7400000I-32500J0D01*
G01*
X14503000Y-7400000D02*
G75*
G03*
X14503000Y-7400000I-32500J0D01*
G01*
X14630000Y-7400000D02*
G75*
G03*
X14630000Y-7400000I-32500J0D01*
G01*
X14757000Y-7400000D02*
G75*
G03*
X14757000Y-7400000I-32500J0D01*
G01*
X14884000Y-7400000D02*
G75*
G03*
X14884000Y-7400000I-32500J0D01*
G01*
D14*
X15675000Y-11587500D02*
X15675000Y-11662500D01*
X15637500Y-11625000D02*
X15712500Y-11625000D01*
X15875000Y-11587500D02*
X15875000Y-11662500D01*
X15837500Y-11625000D02*
X15912500Y-11625000D01*
X16975000Y-10787500D02*
X16975000Y-10862500D01*
X16937500Y-10825000D02*
X17012500Y-10825000D01*
X16975000Y-10987500D02*
X16975000Y-11062500D01*
X16937500Y-11025000D02*
X17012500Y-11025000D01*
D15*
X16579838Y-8533588D02*
X16579838Y-8466412D01*
X16512662Y-8466412D01*
X16512662Y-8533588D01*
X16579838Y-8533588D01*
X16579838Y-8783588D02*
X16579838Y-8716412D01*
X16512662Y-8716412D01*
X16512662Y-8783588D01*
X16579838Y-8783588D01*
X16779838Y-8533588D02*
X16779838Y-8466412D01*
X16712662Y-8466412D01*
X16712662Y-8533588D01*
X16779838Y-8533588D01*
X16779838Y-8783588D02*
X16779838Y-8716412D01*
X16712662Y-8716412D01*
X16712662Y-8783588D01*
X16779838Y-8783588D01*
D10*
X15550000Y-10075000D02*
X15600000Y-10025000D01*
X15550000Y-9975000D01*
X15500000Y-10025000D01*
X15550000Y-10075000D01*
X16974820Y-9790900D02*
X17024820Y-9740900D01*
X16974820Y-9690900D01*
X16924820Y-9740900D01*
X16974820Y-9790900D01*
X16979900Y-10291280D02*
X17029900Y-10241280D01*
X16979900Y-10191280D01*
X16929900Y-10241280D01*
X16979900Y-10291280D01*
D16*
X14339000Y-11270000D02*
X14449000Y-11380000D01*
X14449000Y-11270000D02*
X14339000Y-11380000D01*
X14449000Y-11325000D02*
G75*
G03*
X14449000Y-11325000I-55000J0D01*
G01*
X14466000Y-11650000D02*
X14576000Y-11760000D01*
X14576000Y-11650000D02*
X14466000Y-11760000D01*
X14576000Y-11705000D02*
G75*
G03*
X14576000Y-11705000I-55000J0D01*
G01*
X14593000Y-11270000D02*
X14703000Y-11380000D01*
X14703000Y-11270000D02*
X14593000Y-11380000D01*
X14703000Y-11325000D02*
G75*
G03*
X14703000Y-11325000I-55000J0D01*
G01*
X14720000Y-11650000D02*
X14830000Y-11760000D01*
X14830000Y-11650000D02*
X14720000Y-11760000D01*
X14830000Y-11705000D02*
G75*
G03*
X14830000Y-11705000I-55000J0D01*
G01*
X14847000Y-11270000D02*
X14957000Y-11380000D01*
X14957000Y-11270000D02*
X14847000Y-11380000D01*
X14957000Y-11325000D02*
G75*
G03*
X14957000Y-11325000I-55000J0D01*
G01*
X14974000Y-11650000D02*
X15084000Y-11760000D01*
X15084000Y-11650000D02*
X14974000Y-11760000D01*
X15084000Y-11705000D02*
G75*
G03*
X15084000Y-11705000I-55000J0D01*
G01*
X15101000Y-11270000D02*
X15211000Y-11380000D01*
X15211000Y-11270000D02*
X15101000Y-11380000D01*
X15211000Y-11325000D02*
G75*
G03*
X15211000Y-11325000I-55000J0D01*
G01*
D17*
X11775000Y-10165000D02*
X11895000Y-10285000D01*
X11895000Y-10165000D02*
X11775000Y-10285000D01*
X11835000Y-10165000D02*
X11835000Y-10285000D01*
X11775000Y-10225000D02*
X11895000Y-10225000D01*
X11965000Y-8465000D02*
X12085000Y-8585000D01*
X12085000Y-8465000D02*
X11965000Y-8585000D01*
X12025000Y-8465000D02*
X12025000Y-8585000D01*
X11965000Y-8525000D02*
X12085000Y-8525000D01*
X12715000Y-8465000D02*
X12835000Y-8585000D01*
X12835000Y-8465000D02*
X12715000Y-8585000D01*
X12775000Y-8465000D02*
X12775000Y-8585000D01*
X12715000Y-8525000D02*
X12835000Y-8525000D01*
X14015000Y-10165000D02*
X14135000Y-10285000D01*
X14135000Y-10165000D02*
X14015000Y-10285000D01*
X14075000Y-10165000D02*
X14075000Y-10285000D01*
X14015000Y-10225000D02*
X14135000Y-10225000D01*
D18*
X12202000Y-11260000D02*
X12332000Y-11390000D01*
X12332000Y-11260000D02*
X12202000Y-11390000D01*
X12312962Y-11370962D02*
X12312962Y-11279038D01*
X12221038Y-11279038D01*
X12221038Y-11370962D01*
X12312962Y-11370962D01*
X12710000Y-11260000D02*
X12840000Y-11390000D01*
X12840000Y-11260000D02*
X12710000Y-11390000D01*
X12820962Y-11370962D02*
X12820962Y-11279038D01*
X12729038Y-11279038D01*
X12729038Y-11370962D01*
X12820962Y-11370962D01*
X13352000Y-11260000D02*
X13482000Y-11390000D01*
X13482000Y-11260000D02*
X13352000Y-11390000D01*
X13462962Y-11370962D02*
X13462962Y-11279038D01*
X13371038Y-11279038D01*
X13371038Y-11370962D01*
X13462962Y-11370962D01*
X13860000Y-11260000D02*
X13990000Y-11390000D01*
X13990000Y-11260000D02*
X13860000Y-11390000D01*
X13970962Y-11370962D02*
X13970962Y-11279038D01*
X13879038Y-11279038D01*
X13879038Y-11370962D01*
X13970962Y-11370962D01*
D19*
X16917250Y-7910000D02*
X17147250Y-8140000D01*
X17147250Y-7910000D02*
X16917250Y-8140000D01*
X17032250Y-8140000D02*
X17147250Y-8025000D01*
X17032250Y-7910000D01*
X16917250Y-8025000D01*
X17032250Y-8140000D01*
X16917250Y-9110000D02*
X17147250Y-9340000D01*
X17147250Y-9110000D02*
X16917250Y-9340000D01*
X17032250Y-9340000D02*
X17147250Y-9225000D01*
X17032250Y-9110000D01*
X16917250Y-9225000D01*
X17032250Y-9340000D01*
D20*
X11600000Y-7240000D02*
X11600000Y-7560000D01*
X11440000Y-7400000D02*
X11760000Y-7400000D01*
X11760000Y-7400000D02*
G75*
G03*
X11760000Y-7400000I-160000J0D01*
G01*
X11600000Y-11490000D02*
X11600000Y-11810000D01*
X11440000Y-11650000D02*
X11760000Y-11650000D01*
X11760000Y-11650000D02*
G75*
G03*
X11760000Y-11650000I-160000J0D01*
G01*
X17000000Y-7240000D02*
X17000000Y-7560000D01*
X16840000Y-7400000D02*
X17160000Y-7400000D01*
X17160000Y-7400000D02*
G75*
G03*
X17160000Y-7400000I-160000J0D01*
G01*
X17000000Y-11490000D02*
X17000000Y-11810000D01*
X16840000Y-11650000D02*
X17160000Y-11650000D01*
X17160000Y-11650000D02*
G75*
G03*
X17160000Y-11650000I-160000J0D01*
G01*
D21*
X14898745Y-9958745D02*
X14898745Y-9711255D01*
X14651255Y-9711255D01*
X14651255Y-9958745D01*
X14898745Y-9958745D01*
X14950000Y-9835000D02*
G75*
G03*
X14950000Y-9835000I-175000J0D01*
G01*
D11*
X11505777Y-12316484D02*
X11505777Y-12116484D01*
X11505777Y-12116484D02*
X11553396Y-12116484D01*
X11553396Y-12116484D02*
X11581967Y-12126008D01*
X11581967Y-12126008D02*
X11601015Y-12145055D01*
X11601015Y-12145055D02*
X11610539Y-12164103D01*
X11610539Y-12164103D02*
X11620062Y-12202198D01*
X11620062Y-12202198D02*
X11620062Y-12230769D01*
X11620062Y-12230769D02*
X11610539Y-12268865D01*
X11610539Y-12268865D02*
X11601015Y-12287912D01*
X11601015Y-12287912D02*
X11581967Y-12306960D01*
X11581967Y-12306960D02*
X11553396Y-12316484D01*
X11553396Y-12316484D02*
X11505777Y-12316484D01*
X11705777Y-12316484D02*
X11705777Y-12183150D01*
X11705777Y-12221246D02*
X11715301Y-12202198D01*
X11715301Y-12202198D02*
X11724824Y-12192674D01*
X11724824Y-12192674D02*
X11743872Y-12183150D01*
X11743872Y-12183150D02*
X11762920Y-12183150D01*
X11829586Y-12316484D02*
X11829586Y-12183150D01*
X11829586Y-12116484D02*
X11820062Y-12126008D01*
X11820062Y-12126008D02*
X11829586Y-12135531D01*
X11829586Y-12135531D02*
X11839110Y-12126008D01*
X11839110Y-12126008D02*
X11829586Y-12116484D01*
X11829586Y-12116484D02*
X11829586Y-12135531D01*
X11953396Y-12316484D02*
X11934348Y-12306960D01*
X11934348Y-12306960D02*
X11924824Y-12287912D01*
X11924824Y-12287912D02*
X11924824Y-12116484D01*
X12058158Y-12316484D02*
X12039110Y-12306960D01*
X12039110Y-12306960D02*
X12029586Y-12287912D01*
X12029586Y-12287912D02*
X12029586Y-12116484D01*
X12286729Y-12316484D02*
X12286729Y-12116484D01*
X12286729Y-12116484D02*
X12353396Y-12259341D01*
X12353396Y-12259341D02*
X12420062Y-12116484D01*
X12420062Y-12116484D02*
X12420062Y-12316484D01*
X12601015Y-12316484D02*
X12601015Y-12211722D01*
X12601015Y-12211722D02*
X12591491Y-12192674D01*
X12591491Y-12192674D02*
X12572443Y-12183150D01*
X12572443Y-12183150D02*
X12534348Y-12183150D01*
X12534348Y-12183150D02*
X12515301Y-12192674D01*
X12601015Y-12306960D02*
X12581967Y-12316484D01*
X12581967Y-12316484D02*
X12534348Y-12316484D01*
X12534348Y-12316484D02*
X12515301Y-12306960D01*
X12515301Y-12306960D02*
X12505777Y-12287912D01*
X12505777Y-12287912D02*
X12505777Y-12268865D01*
X12505777Y-12268865D02*
X12515301Y-12249817D01*
X12515301Y-12249817D02*
X12534348Y-12240293D01*
X12534348Y-12240293D02*
X12581967Y-12240293D01*
X12581967Y-12240293D02*
X12601015Y-12230769D01*
X12696253Y-12183150D02*
X12696253Y-12383150D01*
X12696253Y-12192674D02*
X12715301Y-12183150D01*
X12715301Y-12183150D02*
X12753396Y-12183150D01*
X12753396Y-12183150D02*
X12772443Y-12192674D01*
X12772443Y-12192674D02*
X12781967Y-12202198D01*
X12781967Y-12202198D02*
X12791491Y-12221246D01*
X12791491Y-12221246D02*
X12791491Y-12278388D01*
X12791491Y-12278388D02*
X12781967Y-12297436D01*
X12781967Y-12297436D02*
X12772443Y-12306960D01*
X12772443Y-12306960D02*
X12753396Y-12316484D01*
X12753396Y-12316484D02*
X12715301Y-12316484D01*
X12715301Y-12316484D02*
X12696253Y-12306960D01*
X12877205Y-12297436D02*
X12886729Y-12306960D01*
X12886729Y-12306960D02*
X12877205Y-12316484D01*
X12877205Y-12316484D02*
X12867682Y-12306960D01*
X12867682Y-12306960D02*
X12877205Y-12297436D01*
X12877205Y-12297436D02*
X12877205Y-12316484D01*
X12877205Y-12192674D02*
X12886729Y-12202198D01*
X12886729Y-12202198D02*
X12877205Y-12211722D01*
X12877205Y-12211722D02*
X12867682Y-12202198D01*
X12867682Y-12202198D02*
X12877205Y-12192674D01*
X12877205Y-12192674D02*
X12877205Y-12211722D01*
D12*
X11185000Y-12615000D02*
X11245000Y-12675000D01*
X11245000Y-12615000D02*
X11185000Y-12675000D01*
D11*
X11543872Y-12536484D02*
X11562920Y-12536484D01*
X11562920Y-12536484D02*
X11581967Y-12546008D01*
X11581967Y-12546008D02*
X11591491Y-12555531D01*
X11591491Y-12555531D02*
X11601015Y-12574579D01*
X11601015Y-12574579D02*
X11610539Y-12612674D01*
X11610539Y-12612674D02*
X11610539Y-12660293D01*
X11610539Y-12660293D02*
X11601015Y-12698388D01*
X11601015Y-12698388D02*
X11591491Y-12717436D01*
X11591491Y-12717436D02*
X11581967Y-12726960D01*
X11581967Y-12726960D02*
X11562920Y-12736484D01*
X11562920Y-12736484D02*
X11543872Y-12736484D01*
X11543872Y-12736484D02*
X11524824Y-12726960D01*
X11524824Y-12726960D02*
X11515301Y-12717436D01*
X11515301Y-12717436D02*
X11505777Y-12698388D01*
X11505777Y-12698388D02*
X11496253Y-12660293D01*
X11496253Y-12660293D02*
X11496253Y-12612674D01*
X11496253Y-12612674D02*
X11505777Y-12574579D01*
X11505777Y-12574579D02*
X11515301Y-12555531D01*
X11515301Y-12555531D02*
X11524824Y-12546008D01*
X11524824Y-12546008D02*
X11543872Y-12536484D01*
X11696253Y-12717436D02*
X11705777Y-12726960D01*
X11705777Y-12726960D02*
X11696253Y-12736484D01*
X11696253Y-12736484D02*
X11686729Y-12726960D01*
X11686729Y-12726960D02*
X11696253Y-12717436D01*
X11696253Y-12717436D02*
X11696253Y-12736484D01*
X11877205Y-12536484D02*
X11839110Y-12536484D01*
X11839110Y-12536484D02*
X11820062Y-12546008D01*
X11820062Y-12546008D02*
X11810539Y-12555531D01*
X11810539Y-12555531D02*
X11791491Y-12584103D01*
X11791491Y-12584103D02*
X11781967Y-12622198D01*
X11781967Y-12622198D02*
X11781967Y-12698388D01*
X11781967Y-12698388D02*
X11791491Y-12717436D01*
X11791491Y-12717436D02*
X11801015Y-12726960D01*
X11801015Y-12726960D02*
X11820062Y-12736484D01*
X11820062Y-12736484D02*
X11858158Y-12736484D01*
X11858158Y-12736484D02*
X11877205Y-12726960D01*
X11877205Y-12726960D02*
X11886729Y-12717436D01*
X11886729Y-12717436D02*
X11896253Y-12698388D01*
X11896253Y-12698388D02*
X11896253Y-12650769D01*
X11896253Y-12650769D02*
X11886729Y-12631722D01*
X11886729Y-12631722D02*
X11877205Y-12622198D01*
X11877205Y-12622198D02*
X11858158Y-12612674D01*
X11858158Y-12612674D02*
X11820062Y-12612674D01*
X11820062Y-12612674D02*
X11801015Y-12622198D01*
X11801015Y-12622198D02*
X11791491Y-12631722D01*
X11791491Y-12631722D02*
X11781967Y-12650769D01*
X12020062Y-12536484D02*
X12039110Y-12536484D01*
X12039110Y-12536484D02*
X12058158Y-12546008D01*
X12058158Y-12546008D02*
X12067682Y-12555531D01*
X12067682Y-12555531D02*
X12077205Y-12574579D01*
X12077205Y-12574579D02*
X12086729Y-12612674D01*
X12086729Y-12612674D02*
X12086729Y-12660293D01*
X12086729Y-12660293D02*
X12077205Y-12698388D01*
X12077205Y-12698388D02*
X12067682Y-12717436D01*
X12067682Y-12717436D02*
X12058158Y-12726960D01*
X12058158Y-12726960D02*
X12039110Y-12736484D01*
X12039110Y-12736484D02*
X12020062Y-12736484D01*
X12020062Y-12736484D02*
X12001015Y-12726960D01*
X12001015Y-12726960D02*
X11991491Y-12717436D01*
X11991491Y-12717436D02*
X11981967Y-12698388D01*
X11981967Y-12698388D02*
X11972443Y-12660293D01*
X11972443Y-12660293D02*
X11972443Y-12612674D01*
X11972443Y-12612674D02*
X11981967Y-12574579D01*
X11981967Y-12574579D02*
X11991491Y-12555531D01*
X11991491Y-12555531D02*
X12001015Y-12546008D01*
X12001015Y-12546008D02*
X12020062Y-12536484D01*
X12210539Y-12536484D02*
X12229586Y-12536484D01*
X12229586Y-12536484D02*
X12248634Y-12546008D01*
X12248634Y-12546008D02*
X12258158Y-12555531D01*
X12258158Y-12555531D02*
X12267682Y-12574579D01*
X12267682Y-12574579D02*
X12277205Y-12612674D01*
X12277205Y-12612674D02*
X12277205Y-12660293D01*
X12277205Y-12660293D02*
X12267682Y-12698388D01*
X12267682Y-12698388D02*
X12258158Y-12717436D01*
X12258158Y-12717436D02*
X12248634Y-12726960D01*
X12248634Y-12726960D02*
X12229586Y-12736484D01*
X12229586Y-12736484D02*
X12210539Y-12736484D01*
X12210539Y-12736484D02*
X12191491Y-12726960D01*
X12191491Y-12726960D02*
X12181967Y-12717436D01*
X12181967Y-12717436D02*
X12172443Y-12698388D01*
X12172443Y-12698388D02*
X12162920Y-12660293D01*
X12162920Y-12660293D02*
X12162920Y-12612674D01*
X12162920Y-12612674D02*
X12172443Y-12574579D01*
X12172443Y-12574579D02*
X12181967Y-12555531D01*
X12181967Y-12555531D02*
X12191491Y-12546008D01*
X12191491Y-12546008D02*
X12210539Y-12536484D01*
X12362920Y-12736484D02*
X12362920Y-12603150D01*
X12362920Y-12622198D02*
X12372443Y-12612674D01*
X12372443Y-12612674D02*
X12391491Y-12603150D01*
X12391491Y-12603150D02*
X12420063Y-12603150D01*
X12420063Y-12603150D02*
X12439110Y-12612674D01*
X12439110Y-12612674D02*
X12448634Y-12631722D01*
X12448634Y-12631722D02*
X12448634Y-12736484D01*
X12448634Y-12631722D02*
X12458158Y-12612674D01*
X12458158Y-12612674D02*
X12477205Y-12603150D01*
X12477205Y-12603150D02*
X12505777Y-12603150D01*
X12505777Y-12603150D02*
X12524824Y-12612674D01*
X12524824Y-12612674D02*
X12534348Y-12631722D01*
X12534348Y-12631722D02*
X12534348Y-12736484D01*
X12629586Y-12736484D02*
X12629586Y-12603150D01*
X12629586Y-12622198D02*
X12639110Y-12612674D01*
X12639110Y-12612674D02*
X12658158Y-12603150D01*
X12658158Y-12603150D02*
X12686729Y-12603150D01*
X12686729Y-12603150D02*
X12705777Y-12612674D01*
X12705777Y-12612674D02*
X12715301Y-12631722D01*
X12715301Y-12631722D02*
X12715301Y-12736484D01*
X12715301Y-12631722D02*
X12724824Y-12612674D01*
X12724824Y-12612674D02*
X12743872Y-12603150D01*
X12743872Y-12603150D02*
X12772443Y-12603150D01*
X12772443Y-12603150D02*
X12791491Y-12612674D01*
X12791491Y-12612674D02*
X12801015Y-12631722D01*
X12801015Y-12631722D02*
X12801015Y-12736484D01*
X13191491Y-12526960D02*
X13020063Y-12784103D01*
X13448634Y-12536484D02*
X13467682Y-12536484D01*
X13467682Y-12536484D02*
X13486729Y-12546008D01*
X13486729Y-12546008D02*
X13496253Y-12555531D01*
X13496253Y-12555531D02*
X13505777Y-12574579D01*
X13505777Y-12574579D02*
X13515301Y-12612674D01*
X13515301Y-12612674D02*
X13515301Y-12660293D01*
X13515301Y-12660293D02*
X13505777Y-12698388D01*
X13505777Y-12698388D02*
X13496253Y-12717436D01*
X13496253Y-12717436D02*
X13486729Y-12726960D01*
X13486729Y-12726960D02*
X13467682Y-12736484D01*
X13467682Y-12736484D02*
X13448634Y-12736484D01*
X13448634Y-12736484D02*
X13429586Y-12726960D01*
X13429586Y-12726960D02*
X13420063Y-12717436D01*
X13420063Y-12717436D02*
X13410539Y-12698388D01*
X13410539Y-12698388D02*
X13401015Y-12660293D01*
X13401015Y-12660293D02*
X13401015Y-12612674D01*
X13401015Y-12612674D02*
X13410539Y-12574579D01*
X13410539Y-12574579D02*
X13420063Y-12555531D01*
X13420063Y-12555531D02*
X13429586Y-12546008D01*
X13429586Y-12546008D02*
X13448634Y-12536484D01*
X13601015Y-12717436D02*
X13610539Y-12726960D01*
X13610539Y-12726960D02*
X13601015Y-12736484D01*
X13601015Y-12736484D02*
X13591491Y-12726960D01*
X13591491Y-12726960D02*
X13601015Y-12717436D01*
X13601015Y-12717436D02*
X13601015Y-12736484D01*
X13734348Y-12536484D02*
X13753396Y-12536484D01*
X13753396Y-12536484D02*
X13772444Y-12546008D01*
X13772444Y-12546008D02*
X13781967Y-12555531D01*
X13781967Y-12555531D02*
X13791491Y-12574579D01*
X13791491Y-12574579D02*
X13801015Y-12612674D01*
X13801015Y-12612674D02*
X13801015Y-12660293D01*
X13801015Y-12660293D02*
X13791491Y-12698388D01*
X13791491Y-12698388D02*
X13781967Y-12717436D01*
X13781967Y-12717436D02*
X13772444Y-12726960D01*
X13772444Y-12726960D02*
X13753396Y-12736484D01*
X13753396Y-12736484D02*
X13734348Y-12736484D01*
X13734348Y-12736484D02*
X13715301Y-12726960D01*
X13715301Y-12726960D02*
X13705777Y-12717436D01*
X13705777Y-12717436D02*
X13696253Y-12698388D01*
X13696253Y-12698388D02*
X13686729Y-12660293D01*
X13686729Y-12660293D02*
X13686729Y-12612674D01*
X13686729Y-12612674D02*
X13696253Y-12574579D01*
X13696253Y-12574579D02*
X13705777Y-12555531D01*
X13705777Y-12555531D02*
X13715301Y-12546008D01*
X13715301Y-12546008D02*
X13734348Y-12536484D01*
X13877206Y-12555531D02*
X13886729Y-12546008D01*
X13886729Y-12546008D02*
X13905777Y-12536484D01*
X13905777Y-12536484D02*
X13953396Y-12536484D01*
X13953396Y-12536484D02*
X13972444Y-12546008D01*
X13972444Y-12546008D02*
X13981967Y-12555531D01*
X13981967Y-12555531D02*
X13991491Y-12574579D01*
X13991491Y-12574579D02*
X13991491Y-12593627D01*
X13991491Y-12593627D02*
X13981967Y-12622198D01*
X13981967Y-12622198D02*
X13867682Y-12736484D01*
X13867682Y-12736484D02*
X13991491Y-12736484D01*
X14058158Y-12536484D02*
X14181967Y-12536484D01*
X14181967Y-12536484D02*
X14115301Y-12612674D01*
X14115301Y-12612674D02*
X14143872Y-12612674D01*
X14143872Y-12612674D02*
X14162920Y-12622198D01*
X14162920Y-12622198D02*
X14172444Y-12631722D01*
X14172444Y-12631722D02*
X14181967Y-12650769D01*
X14181967Y-12650769D02*
X14181967Y-12698388D01*
X14181967Y-12698388D02*
X14172444Y-12717436D01*
X14172444Y-12717436D02*
X14162920Y-12726960D01*
X14162920Y-12726960D02*
X14143872Y-12736484D01*
X14143872Y-12736484D02*
X14086729Y-12736484D01*
X14086729Y-12736484D02*
X14067682Y-12726960D01*
X14067682Y-12726960D02*
X14058158Y-12717436D01*
X14353396Y-12536484D02*
X14315301Y-12536484D01*
X14315301Y-12536484D02*
X14296253Y-12546008D01*
X14296253Y-12546008D02*
X14286729Y-12555531D01*
X14286729Y-12555531D02*
X14267682Y-12584103D01*
X14267682Y-12584103D02*
X14258158Y-12622198D01*
X14258158Y-12622198D02*
X14258158Y-12698388D01*
X14258158Y-12698388D02*
X14267682Y-12717436D01*
X14267682Y-12717436D02*
X14277206Y-12726960D01*
X14277206Y-12726960D02*
X14296253Y-12736484D01*
X14296253Y-12736484D02*
X14334348Y-12736484D01*
X14334348Y-12736484D02*
X14353396Y-12726960D01*
X14353396Y-12726960D02*
X14362920Y-12717436D01*
X14362920Y-12717436D02*
X14372444Y-12698388D01*
X14372444Y-12698388D02*
X14372444Y-12650769D01*
X14372444Y-12650769D02*
X14362920Y-12631722D01*
X14362920Y-12631722D02*
X14353396Y-12622198D01*
X14353396Y-12622198D02*
X14334348Y-12612674D01*
X14334348Y-12612674D02*
X14296253Y-12612674D01*
X14296253Y-12612674D02*
X14277206Y-12622198D01*
X14277206Y-12622198D02*
X14267682Y-12631722D01*
X14267682Y-12631722D02*
X14258158Y-12650769D01*
X14448634Y-12536484D02*
X14448634Y-12574579D01*
X14524825Y-12536484D02*
X14524825Y-12574579D01*
X14820063Y-12812674D02*
X14810539Y-12803150D01*
X14810539Y-12803150D02*
X14791491Y-12774579D01*
X14791491Y-12774579D02*
X14781968Y-12755531D01*
X14781968Y-12755531D02*
X14772444Y-12726960D01*
X14772444Y-12726960D02*
X14762920Y-12679341D01*
X14762920Y-12679341D02*
X14762920Y-12641246D01*
X14762920Y-12641246D02*
X14772444Y-12593627D01*
X14772444Y-12593627D02*
X14781968Y-12565055D01*
X14781968Y-12565055D02*
X14791491Y-12546008D01*
X14791491Y-12546008D02*
X14810539Y-12517436D01*
X14810539Y-12517436D02*
X14820063Y-12507912D01*
X15001015Y-12736484D02*
X14886729Y-12736484D01*
X14943872Y-12736484D02*
X14943872Y-12536484D01*
X14943872Y-12536484D02*
X14924825Y-12565055D01*
X14924825Y-12565055D02*
X14905777Y-12584103D01*
X14905777Y-12584103D02*
X14886729Y-12593627D01*
X15172444Y-12536484D02*
X15134348Y-12536484D01*
X15134348Y-12536484D02*
X15115301Y-12546008D01*
X15115301Y-12546008D02*
X15105777Y-12555531D01*
X15105777Y-12555531D02*
X15086729Y-12584103D01*
X15086729Y-12584103D02*
X15077206Y-12622198D01*
X15077206Y-12622198D02*
X15077206Y-12698388D01*
X15077206Y-12698388D02*
X15086729Y-12717436D01*
X15086729Y-12717436D02*
X15096253Y-12726960D01*
X15096253Y-12726960D02*
X15115301Y-12736484D01*
X15115301Y-12736484D02*
X15153396Y-12736484D01*
X15153396Y-12736484D02*
X15172444Y-12726960D01*
X15172444Y-12726960D02*
X15181968Y-12717436D01*
X15181968Y-12717436D02*
X15191491Y-12698388D01*
X15191491Y-12698388D02*
X15191491Y-12650769D01*
X15191491Y-12650769D02*
X15181968Y-12631722D01*
X15181968Y-12631722D02*
X15172444Y-12622198D01*
X15172444Y-12622198D02*
X15153396Y-12612674D01*
X15153396Y-12612674D02*
X15115301Y-12612674D01*
X15115301Y-12612674D02*
X15096253Y-12622198D01*
X15096253Y-12622198D02*
X15086729Y-12631722D01*
X15086729Y-12631722D02*
X15077206Y-12650769D01*
X15429587Y-12736484D02*
X15429587Y-12536484D01*
X15515301Y-12736484D02*
X15515301Y-12631722D01*
X15515301Y-12631722D02*
X15505777Y-12612674D01*
X15505777Y-12612674D02*
X15486730Y-12603150D01*
X15486730Y-12603150D02*
X15458158Y-12603150D01*
X15458158Y-12603150D02*
X15439110Y-12612674D01*
X15439110Y-12612674D02*
X15429587Y-12622198D01*
X15639110Y-12736484D02*
X15620063Y-12726960D01*
X15620063Y-12726960D02*
X15610539Y-12717436D01*
X15610539Y-12717436D02*
X15601015Y-12698388D01*
X15601015Y-12698388D02*
X15601015Y-12641246D01*
X15601015Y-12641246D02*
X15610539Y-12622198D01*
X15610539Y-12622198D02*
X15620063Y-12612674D01*
X15620063Y-12612674D02*
X15639110Y-12603150D01*
X15639110Y-12603150D02*
X15667682Y-12603150D01*
X15667682Y-12603150D02*
X15686730Y-12612674D01*
X15686730Y-12612674D02*
X15696253Y-12622198D01*
X15696253Y-12622198D02*
X15705777Y-12641246D01*
X15705777Y-12641246D02*
X15705777Y-12698388D01*
X15705777Y-12698388D02*
X15696253Y-12717436D01*
X15696253Y-12717436D02*
X15686730Y-12726960D01*
X15686730Y-12726960D02*
X15667682Y-12736484D01*
X15667682Y-12736484D02*
X15639110Y-12736484D01*
X15820063Y-12736484D02*
X15801015Y-12726960D01*
X15801015Y-12726960D02*
X15791491Y-12707912D01*
X15791491Y-12707912D02*
X15791491Y-12536484D01*
X15972444Y-12726960D02*
X15953396Y-12736484D01*
X15953396Y-12736484D02*
X15915301Y-12736484D01*
X15915301Y-12736484D02*
X15896253Y-12726960D01*
X15896253Y-12726960D02*
X15886730Y-12707912D01*
X15886730Y-12707912D02*
X15886730Y-12631722D01*
X15886730Y-12631722D02*
X15896253Y-12612674D01*
X15896253Y-12612674D02*
X15915301Y-12603150D01*
X15915301Y-12603150D02*
X15953396Y-12603150D01*
X15953396Y-12603150D02*
X15972444Y-12612674D01*
X15972444Y-12612674D02*
X15981968Y-12631722D01*
X15981968Y-12631722D02*
X15981968Y-12650769D01*
X15981968Y-12650769D02*
X15886730Y-12669817D01*
X16058158Y-12726960D02*
X16077206Y-12736484D01*
X16077206Y-12736484D02*
X16115301Y-12736484D01*
X16115301Y-12736484D02*
X16134349Y-12726960D01*
X16134349Y-12726960D02*
X16143872Y-12707912D01*
X16143872Y-12707912D02*
X16143872Y-12698388D01*
X16143872Y-12698388D02*
X16134349Y-12679341D01*
X16134349Y-12679341D02*
X16115301Y-12669817D01*
X16115301Y-12669817D02*
X16086730Y-12669817D01*
X16086730Y-12669817D02*
X16067682Y-12660293D01*
X16067682Y-12660293D02*
X16058158Y-12641246D01*
X16058158Y-12641246D02*
X16058158Y-12631722D01*
X16058158Y-12631722D02*
X16067682Y-12612674D01*
X16067682Y-12612674D02*
X16086730Y-12603150D01*
X16086730Y-12603150D02*
X16115301Y-12603150D01*
X16115301Y-12603150D02*
X16134349Y-12612674D01*
X16210539Y-12812674D02*
X16220063Y-12803150D01*
X16220063Y-12803150D02*
X16239111Y-12774579D01*
X16239111Y-12774579D02*
X16248634Y-12755531D01*
X16248634Y-12755531D02*
X16258158Y-12726960D01*
X16258158Y-12726960D02*
X16267682Y-12679341D01*
X16267682Y-12679341D02*
X16267682Y-12641246D01*
X16267682Y-12641246D02*
X16258158Y-12593627D01*
X16258158Y-12593627D02*
X16248634Y-12565055D01*
X16248634Y-12565055D02*
X16239111Y-12546008D01*
X16239111Y-12546008D02*
X16220063Y-12517436D01*
X16220063Y-12517436D02*
X16210539Y-12507912D01*
D13*
X11245000Y-12909000D02*
G75*
G03*
X11245000Y-12909000I-32500J0D01*
G01*
D11*
X11543872Y-12800484D02*
X11562920Y-12800484D01*
X11562920Y-12800484D02*
X11581967Y-12810008D01*
X11581967Y-12810008D02*
X11591491Y-12819531D01*
X11591491Y-12819531D02*
X11601015Y-12838579D01*
X11601015Y-12838579D02*
X11610539Y-12876674D01*
X11610539Y-12876674D02*
X11610539Y-12924293D01*
X11610539Y-12924293D02*
X11601015Y-12962388D01*
X11601015Y-12962388D02*
X11591491Y-12981436D01*
X11591491Y-12981436D02*
X11581967Y-12990960D01*
X11581967Y-12990960D02*
X11562920Y-13000484D01*
X11562920Y-13000484D02*
X11543872Y-13000484D01*
X11543872Y-13000484D02*
X11524824Y-12990960D01*
X11524824Y-12990960D02*
X11515301Y-12981436D01*
X11515301Y-12981436D02*
X11505777Y-12962388D01*
X11505777Y-12962388D02*
X11496253Y-12924293D01*
X11496253Y-12924293D02*
X11496253Y-12876674D01*
X11496253Y-12876674D02*
X11505777Y-12838579D01*
X11505777Y-12838579D02*
X11515301Y-12819531D01*
X11515301Y-12819531D02*
X11524824Y-12810008D01*
X11524824Y-12810008D02*
X11543872Y-12800484D01*
X11696253Y-12981436D02*
X11705777Y-12990960D01*
X11705777Y-12990960D02*
X11696253Y-13000484D01*
X11696253Y-13000484D02*
X11686729Y-12990960D01*
X11686729Y-12990960D02*
X11696253Y-12981436D01*
X11696253Y-12981436D02*
X11696253Y-13000484D01*
X11877205Y-12800484D02*
X11839110Y-12800484D01*
X11839110Y-12800484D02*
X11820062Y-12810008D01*
X11820062Y-12810008D02*
X11810539Y-12819531D01*
X11810539Y-12819531D02*
X11791491Y-12848103D01*
X11791491Y-12848103D02*
X11781967Y-12886198D01*
X11781967Y-12886198D02*
X11781967Y-12962388D01*
X11781967Y-12962388D02*
X11791491Y-12981436D01*
X11791491Y-12981436D02*
X11801015Y-12990960D01*
X11801015Y-12990960D02*
X11820062Y-13000484D01*
X11820062Y-13000484D02*
X11858158Y-13000484D01*
X11858158Y-13000484D02*
X11877205Y-12990960D01*
X11877205Y-12990960D02*
X11886729Y-12981436D01*
X11886729Y-12981436D02*
X11896253Y-12962388D01*
X11896253Y-12962388D02*
X11896253Y-12914769D01*
X11896253Y-12914769D02*
X11886729Y-12895722D01*
X11886729Y-12895722D02*
X11877205Y-12886198D01*
X11877205Y-12886198D02*
X11858158Y-12876674D01*
X11858158Y-12876674D02*
X11820062Y-12876674D01*
X11820062Y-12876674D02*
X11801015Y-12886198D01*
X11801015Y-12886198D02*
X11791491Y-12895722D01*
X11791491Y-12895722D02*
X11781967Y-12914769D01*
X12077205Y-12800484D02*
X11981967Y-12800484D01*
X11981967Y-12800484D02*
X11972443Y-12895722D01*
X11972443Y-12895722D02*
X11981967Y-12886198D01*
X11981967Y-12886198D02*
X12001015Y-12876674D01*
X12001015Y-12876674D02*
X12048634Y-12876674D01*
X12048634Y-12876674D02*
X12067682Y-12886198D01*
X12067682Y-12886198D02*
X12077205Y-12895722D01*
X12077205Y-12895722D02*
X12086729Y-12914769D01*
X12086729Y-12914769D02*
X12086729Y-12962388D01*
X12086729Y-12962388D02*
X12077205Y-12981436D01*
X12077205Y-12981436D02*
X12067682Y-12990960D01*
X12067682Y-12990960D02*
X12048634Y-13000484D01*
X12048634Y-13000484D02*
X12001015Y-13000484D01*
X12001015Y-13000484D02*
X11981967Y-12990960D01*
X11981967Y-12990960D02*
X11972443Y-12981436D01*
X12210539Y-12800484D02*
X12229586Y-12800484D01*
X12229586Y-12800484D02*
X12248634Y-12810008D01*
X12248634Y-12810008D02*
X12258158Y-12819531D01*
X12258158Y-12819531D02*
X12267682Y-12838579D01*
X12267682Y-12838579D02*
X12277205Y-12876674D01*
X12277205Y-12876674D02*
X12277205Y-12924293D01*
X12277205Y-12924293D02*
X12267682Y-12962388D01*
X12267682Y-12962388D02*
X12258158Y-12981436D01*
X12258158Y-12981436D02*
X12248634Y-12990960D01*
X12248634Y-12990960D02*
X12229586Y-13000484D01*
X12229586Y-13000484D02*
X12210539Y-13000484D01*
X12210539Y-13000484D02*
X12191491Y-12990960D01*
X12191491Y-12990960D02*
X12181967Y-12981436D01*
X12181967Y-12981436D02*
X12172443Y-12962388D01*
X12172443Y-12962388D02*
X12162920Y-12924293D01*
X12162920Y-12924293D02*
X12162920Y-12876674D01*
X12162920Y-12876674D02*
X12172443Y-12838579D01*
X12172443Y-12838579D02*
X12181967Y-12819531D01*
X12181967Y-12819531D02*
X12191491Y-12810008D01*
X12191491Y-12810008D02*
X12210539Y-12800484D01*
X12362920Y-13000484D02*
X12362920Y-12867150D01*
X12362920Y-12886198D02*
X12372443Y-12876674D01*
X12372443Y-12876674D02*
X12391491Y-12867150D01*
X12391491Y-12867150D02*
X12420063Y-12867150D01*
X12420063Y-12867150D02*
X12439110Y-12876674D01*
X12439110Y-12876674D02*
X12448634Y-12895722D01*
X12448634Y-12895722D02*
X12448634Y-13000484D01*
X12448634Y-12895722D02*
X12458158Y-12876674D01*
X12458158Y-12876674D02*
X12477205Y-12867150D01*
X12477205Y-12867150D02*
X12505777Y-12867150D01*
X12505777Y-12867150D02*
X12524824Y-12876674D01*
X12524824Y-12876674D02*
X12534348Y-12895722D01*
X12534348Y-12895722D02*
X12534348Y-13000484D01*
X12629586Y-13000484D02*
X12629586Y-12867150D01*
X12629586Y-12886198D02*
X12639110Y-12876674D01*
X12639110Y-12876674D02*
X12658158Y-12867150D01*
X12658158Y-12867150D02*
X12686729Y-12867150D01*
X12686729Y-12867150D02*
X12705777Y-12876674D01*
X12705777Y-12876674D02*
X12715301Y-12895722D01*
X12715301Y-12895722D02*
X12715301Y-13000484D01*
X12715301Y-12895722D02*
X12724824Y-12876674D01*
X12724824Y-12876674D02*
X12743872Y-12867150D01*
X12743872Y-12867150D02*
X12772443Y-12867150D01*
X12772443Y-12867150D02*
X12791491Y-12876674D01*
X12791491Y-12876674D02*
X12801015Y-12895722D01*
X12801015Y-12895722D02*
X12801015Y-13000484D01*
X13191491Y-12790960D02*
X13020063Y-13048103D01*
X13448634Y-12800484D02*
X13467682Y-12800484D01*
X13467682Y-12800484D02*
X13486729Y-12810008D01*
X13486729Y-12810008D02*
X13496253Y-12819531D01*
X13496253Y-12819531D02*
X13505777Y-12838579D01*
X13505777Y-12838579D02*
X13515301Y-12876674D01*
X13515301Y-12876674D02*
X13515301Y-12924293D01*
X13515301Y-12924293D02*
X13505777Y-12962388D01*
X13505777Y-12962388D02*
X13496253Y-12981436D01*
X13496253Y-12981436D02*
X13486729Y-12990960D01*
X13486729Y-12990960D02*
X13467682Y-13000484D01*
X13467682Y-13000484D02*
X13448634Y-13000484D01*
X13448634Y-13000484D02*
X13429586Y-12990960D01*
X13429586Y-12990960D02*
X13420063Y-12981436D01*
X13420063Y-12981436D02*
X13410539Y-12962388D01*
X13410539Y-12962388D02*
X13401015Y-12924293D01*
X13401015Y-12924293D02*
X13401015Y-12876674D01*
X13401015Y-12876674D02*
X13410539Y-12838579D01*
X13410539Y-12838579D02*
X13420063Y-12819531D01*
X13420063Y-12819531D02*
X13429586Y-12810008D01*
X13429586Y-12810008D02*
X13448634Y-12800484D01*
X13601015Y-12981436D02*
X13610539Y-12990960D01*
X13610539Y-12990960D02*
X13601015Y-13000484D01*
X13601015Y-13000484D02*
X13591491Y-12990960D01*
X13591491Y-12990960D02*
X13601015Y-12981436D01*
X13601015Y-12981436D02*
X13601015Y-13000484D01*
X13734348Y-12800484D02*
X13753396Y-12800484D01*
X13753396Y-12800484D02*
X13772444Y-12810008D01*
X13772444Y-12810008D02*
X13781967Y-12819531D01*
X13781967Y-12819531D02*
X13791491Y-12838579D01*
X13791491Y-12838579D02*
X13801015Y-12876674D01*
X13801015Y-12876674D02*
X13801015Y-12924293D01*
X13801015Y-12924293D02*
X13791491Y-12962388D01*
X13791491Y-12962388D02*
X13781967Y-12981436D01*
X13781967Y-12981436D02*
X13772444Y-12990960D01*
X13772444Y-12990960D02*
X13753396Y-13000484D01*
X13753396Y-13000484D02*
X13734348Y-13000484D01*
X13734348Y-13000484D02*
X13715301Y-12990960D01*
X13715301Y-12990960D02*
X13705777Y-12981436D01*
X13705777Y-12981436D02*
X13696253Y-12962388D01*
X13696253Y-12962388D02*
X13686729Y-12924293D01*
X13686729Y-12924293D02*
X13686729Y-12876674D01*
X13686729Y-12876674D02*
X13696253Y-12838579D01*
X13696253Y-12838579D02*
X13705777Y-12819531D01*
X13705777Y-12819531D02*
X13715301Y-12810008D01*
X13715301Y-12810008D02*
X13734348Y-12800484D01*
X13877206Y-12819531D02*
X13886729Y-12810008D01*
X13886729Y-12810008D02*
X13905777Y-12800484D01*
X13905777Y-12800484D02*
X13953396Y-12800484D01*
X13953396Y-12800484D02*
X13972444Y-12810008D01*
X13972444Y-12810008D02*
X13981967Y-12819531D01*
X13981967Y-12819531D02*
X13991491Y-12838579D01*
X13991491Y-12838579D02*
X13991491Y-12857627D01*
X13991491Y-12857627D02*
X13981967Y-12886198D01*
X13981967Y-12886198D02*
X13867682Y-13000484D01*
X13867682Y-13000484D02*
X13991491Y-13000484D01*
X14172444Y-12800484D02*
X14077206Y-12800484D01*
X14077206Y-12800484D02*
X14067682Y-12895722D01*
X14067682Y-12895722D02*
X14077206Y-12886198D01*
X14077206Y-12886198D02*
X14096253Y-12876674D01*
X14096253Y-12876674D02*
X14143872Y-12876674D01*
X14143872Y-12876674D02*
X14162920Y-12886198D01*
X14162920Y-12886198D02*
X14172444Y-12895722D01*
X14172444Y-12895722D02*
X14181967Y-12914769D01*
X14181967Y-12914769D02*
X14181967Y-12962388D01*
X14181967Y-12962388D02*
X14172444Y-12981436D01*
X14172444Y-12981436D02*
X14162920Y-12990960D01*
X14162920Y-12990960D02*
X14143872Y-13000484D01*
X14143872Y-13000484D02*
X14096253Y-13000484D01*
X14096253Y-13000484D02*
X14077206Y-12990960D01*
X14077206Y-12990960D02*
X14067682Y-12981436D01*
X14353396Y-12800484D02*
X14315301Y-12800484D01*
X14315301Y-12800484D02*
X14296253Y-12810008D01*
X14296253Y-12810008D02*
X14286729Y-12819531D01*
X14286729Y-12819531D02*
X14267682Y-12848103D01*
X14267682Y-12848103D02*
X14258158Y-12886198D01*
X14258158Y-12886198D02*
X14258158Y-12962388D01*
X14258158Y-12962388D02*
X14267682Y-12981436D01*
X14267682Y-12981436D02*
X14277206Y-12990960D01*
X14277206Y-12990960D02*
X14296253Y-13000484D01*
X14296253Y-13000484D02*
X14334348Y-13000484D01*
X14334348Y-13000484D02*
X14353396Y-12990960D01*
X14353396Y-12990960D02*
X14362920Y-12981436D01*
X14362920Y-12981436D02*
X14372444Y-12962388D01*
X14372444Y-12962388D02*
X14372444Y-12914769D01*
X14372444Y-12914769D02*
X14362920Y-12895722D01*
X14362920Y-12895722D02*
X14353396Y-12886198D01*
X14353396Y-12886198D02*
X14334348Y-12876674D01*
X14334348Y-12876674D02*
X14296253Y-12876674D01*
X14296253Y-12876674D02*
X14277206Y-12886198D01*
X14277206Y-12886198D02*
X14267682Y-12895722D01*
X14267682Y-12895722D02*
X14258158Y-12914769D01*
X14448634Y-12800484D02*
X14448634Y-12838579D01*
X14524825Y-12800484D02*
X14524825Y-12838579D01*
X14820063Y-13076674D02*
X14810539Y-13067150D01*
X14810539Y-13067150D02*
X14791491Y-13038579D01*
X14791491Y-13038579D02*
X14781968Y-13019531D01*
X14781968Y-13019531D02*
X14772444Y-12990960D01*
X14772444Y-12990960D02*
X14762920Y-12943341D01*
X14762920Y-12943341D02*
X14762920Y-12905246D01*
X14762920Y-12905246D02*
X14772444Y-12857627D01*
X14772444Y-12857627D02*
X14781968Y-12829055D01*
X14781968Y-12829055D02*
X14791491Y-12810008D01*
X14791491Y-12810008D02*
X14810539Y-12781436D01*
X14810539Y-12781436D02*
X14820063Y-12771912D01*
X14981968Y-12800484D02*
X14943872Y-12800484D01*
X14943872Y-12800484D02*
X14924825Y-12810008D01*
X14924825Y-12810008D02*
X14915301Y-12819531D01*
X14915301Y-12819531D02*
X14896253Y-12848103D01*
X14896253Y-12848103D02*
X14886729Y-12886198D01*
X14886729Y-12886198D02*
X14886729Y-12962388D01*
X14886729Y-12962388D02*
X14896253Y-12981436D01*
X14896253Y-12981436D02*
X14905777Y-12990960D01*
X14905777Y-12990960D02*
X14924825Y-13000484D01*
X14924825Y-13000484D02*
X14962920Y-13000484D01*
X14962920Y-13000484D02*
X14981968Y-12990960D01*
X14981968Y-12990960D02*
X14991491Y-12981436D01*
X14991491Y-12981436D02*
X15001015Y-12962388D01*
X15001015Y-12962388D02*
X15001015Y-12914769D01*
X15001015Y-12914769D02*
X14991491Y-12895722D01*
X14991491Y-12895722D02*
X14981968Y-12886198D01*
X14981968Y-12886198D02*
X14962920Y-12876674D01*
X14962920Y-12876674D02*
X14924825Y-12876674D01*
X14924825Y-12876674D02*
X14905777Y-12886198D01*
X14905777Y-12886198D02*
X14896253Y-12895722D01*
X14896253Y-12895722D02*
X14886729Y-12914769D01*
X15239110Y-13000484D02*
X15239110Y-12800484D01*
X15324825Y-13000484D02*
X15324825Y-12895722D01*
X15324825Y-12895722D02*
X15315301Y-12876674D01*
X15315301Y-12876674D02*
X15296253Y-12867150D01*
X15296253Y-12867150D02*
X15267682Y-12867150D01*
X15267682Y-12867150D02*
X15248634Y-12876674D01*
X15248634Y-12876674D02*
X15239110Y-12886198D01*
X15448634Y-13000484D02*
X15429587Y-12990960D01*
X15429587Y-12990960D02*
X15420063Y-12981436D01*
X15420063Y-12981436D02*
X15410539Y-12962388D01*
X15410539Y-12962388D02*
X15410539Y-12905246D01*
X15410539Y-12905246D02*
X15420063Y-12886198D01*
X15420063Y-12886198D02*
X15429587Y-12876674D01*
X15429587Y-12876674D02*
X15448634Y-12867150D01*
X15448634Y-12867150D02*
X15477206Y-12867150D01*
X15477206Y-12867150D02*
X15496253Y-12876674D01*
X15496253Y-12876674D02*
X15505777Y-12886198D01*
X15505777Y-12886198D02*
X15515301Y-12905246D01*
X15515301Y-12905246D02*
X15515301Y-12962388D01*
X15515301Y-12962388D02*
X15505777Y-12981436D01*
X15505777Y-12981436D02*
X15496253Y-12990960D01*
X15496253Y-12990960D02*
X15477206Y-13000484D01*
X15477206Y-13000484D02*
X15448634Y-13000484D01*
X15629587Y-13000484D02*
X15610539Y-12990960D01*
X15610539Y-12990960D02*
X15601015Y-12971912D01*
X15601015Y-12971912D02*
X15601015Y-12800484D01*
X15781968Y-12990960D02*
X15762920Y-13000484D01*
X15762920Y-13000484D02*
X15724825Y-13000484D01*
X15724825Y-13000484D02*
X15705777Y-12990960D01*
X15705777Y-12990960D02*
X15696253Y-12971912D01*
X15696253Y-12971912D02*
X15696253Y-12895722D01*
X15696253Y-12895722D02*
X15705777Y-12876674D01*
X15705777Y-12876674D02*
X15724825Y-12867150D01*
X15724825Y-12867150D02*
X15762920Y-12867150D01*
X15762920Y-12867150D02*
X15781968Y-12876674D01*
X15781968Y-12876674D02*
X15791491Y-12895722D01*
X15791491Y-12895722D02*
X15791491Y-12914769D01*
X15791491Y-12914769D02*
X15696253Y-12933817D01*
X15867682Y-12990960D02*
X15886730Y-13000484D01*
X15886730Y-13000484D02*
X15924825Y-13000484D01*
X15924825Y-13000484D02*
X15943872Y-12990960D01*
X15943872Y-12990960D02*
X15953396Y-12971912D01*
X15953396Y-12971912D02*
X15953396Y-12962388D01*
X15953396Y-12962388D02*
X15943872Y-12943341D01*
X15943872Y-12943341D02*
X15924825Y-12933817D01*
X15924825Y-12933817D02*
X15896253Y-12933817D01*
X15896253Y-12933817D02*
X15877206Y-12924293D01*
X15877206Y-12924293D02*
X15867682Y-12905246D01*
X15867682Y-12905246D02*
X15867682Y-12895722D01*
X15867682Y-12895722D02*
X15877206Y-12876674D01*
X15877206Y-12876674D02*
X15896253Y-12867150D01*
X15896253Y-12867150D02*
X15924825Y-12867150D01*
X15924825Y-12867150D02*
X15943872Y-12876674D01*
X16020063Y-13076674D02*
X16029587Y-13067150D01*
X16029587Y-13067150D02*
X16048634Y-13038579D01*
X16048634Y-13038579D02*
X16058158Y-13019531D01*
X16058158Y-13019531D02*
X16067682Y-12990960D01*
X16067682Y-12990960D02*
X16077206Y-12943341D01*
X16077206Y-12943341D02*
X16077206Y-12905246D01*
X16077206Y-12905246D02*
X16067682Y-12857627D01*
X16067682Y-12857627D02*
X16058158Y-12829055D01*
X16058158Y-12829055D02*
X16048634Y-12810008D01*
X16048634Y-12810008D02*
X16029587Y-12781436D01*
X16029587Y-12781436D02*
X16020063Y-12771912D01*
D14*
X11207500Y-13135500D02*
X11207500Y-13210500D01*
X11170000Y-13173000D02*
X11245000Y-13173000D01*
D11*
X11543872Y-13064484D02*
X11562920Y-13064484D01*
X11562920Y-13064484D02*
X11581967Y-13074008D01*
X11581967Y-13074008D02*
X11591491Y-13083531D01*
X11591491Y-13083531D02*
X11601015Y-13102579D01*
X11601015Y-13102579D02*
X11610539Y-13140674D01*
X11610539Y-13140674D02*
X11610539Y-13188293D01*
X11610539Y-13188293D02*
X11601015Y-13226388D01*
X11601015Y-13226388D02*
X11591491Y-13245436D01*
X11591491Y-13245436D02*
X11581967Y-13254960D01*
X11581967Y-13254960D02*
X11562920Y-13264484D01*
X11562920Y-13264484D02*
X11543872Y-13264484D01*
X11543872Y-13264484D02*
X11524824Y-13254960D01*
X11524824Y-13254960D02*
X11515301Y-13245436D01*
X11515301Y-13245436D02*
X11505777Y-13226388D01*
X11505777Y-13226388D02*
X11496253Y-13188293D01*
X11496253Y-13188293D02*
X11496253Y-13140674D01*
X11496253Y-13140674D02*
X11505777Y-13102579D01*
X11505777Y-13102579D02*
X11515301Y-13083531D01*
X11515301Y-13083531D02*
X11524824Y-13074008D01*
X11524824Y-13074008D02*
X11543872Y-13064484D01*
X11696253Y-13245436D02*
X11705777Y-13254960D01*
X11705777Y-13254960D02*
X11696253Y-13264484D01*
X11696253Y-13264484D02*
X11686729Y-13254960D01*
X11686729Y-13254960D02*
X11696253Y-13245436D01*
X11696253Y-13245436D02*
X11696253Y-13264484D01*
X11772443Y-13064484D02*
X11905777Y-13064484D01*
X11905777Y-13064484D02*
X11820062Y-13264484D01*
X12077205Y-13064484D02*
X11981967Y-13064484D01*
X11981967Y-13064484D02*
X11972443Y-13159722D01*
X11972443Y-13159722D02*
X11981967Y-13150198D01*
X11981967Y-13150198D02*
X12001015Y-13140674D01*
X12001015Y-13140674D02*
X12048634Y-13140674D01*
X12048634Y-13140674D02*
X12067682Y-13150198D01*
X12067682Y-13150198D02*
X12077205Y-13159722D01*
X12077205Y-13159722D02*
X12086729Y-13178769D01*
X12086729Y-13178769D02*
X12086729Y-13226388D01*
X12086729Y-13226388D02*
X12077205Y-13245436D01*
X12077205Y-13245436D02*
X12067682Y-13254960D01*
X12067682Y-13254960D02*
X12048634Y-13264484D01*
X12048634Y-13264484D02*
X12001015Y-13264484D01*
X12001015Y-13264484D02*
X11981967Y-13254960D01*
X11981967Y-13254960D02*
X11972443Y-13245436D01*
X12210539Y-13064484D02*
X12229586Y-13064484D01*
X12229586Y-13064484D02*
X12248634Y-13074008D01*
X12248634Y-13074008D02*
X12258158Y-13083531D01*
X12258158Y-13083531D02*
X12267682Y-13102579D01*
X12267682Y-13102579D02*
X12277205Y-13140674D01*
X12277205Y-13140674D02*
X12277205Y-13188293D01*
X12277205Y-13188293D02*
X12267682Y-13226388D01*
X12267682Y-13226388D02*
X12258158Y-13245436D01*
X12258158Y-13245436D02*
X12248634Y-13254960D01*
X12248634Y-13254960D02*
X12229586Y-13264484D01*
X12229586Y-13264484D02*
X12210539Y-13264484D01*
X12210539Y-13264484D02*
X12191491Y-13254960D01*
X12191491Y-13254960D02*
X12181967Y-13245436D01*
X12181967Y-13245436D02*
X12172443Y-13226388D01*
X12172443Y-13226388D02*
X12162920Y-13188293D01*
X12162920Y-13188293D02*
X12162920Y-13140674D01*
X12162920Y-13140674D02*
X12172443Y-13102579D01*
X12172443Y-13102579D02*
X12181967Y-13083531D01*
X12181967Y-13083531D02*
X12191491Y-13074008D01*
X12191491Y-13074008D02*
X12210539Y-13064484D01*
X12362920Y-13264484D02*
X12362920Y-13131150D01*
X12362920Y-13150198D02*
X12372443Y-13140674D01*
X12372443Y-13140674D02*
X12391491Y-13131150D01*
X12391491Y-13131150D02*
X12420063Y-13131150D01*
X12420063Y-13131150D02*
X12439110Y-13140674D01*
X12439110Y-13140674D02*
X12448634Y-13159722D01*
X12448634Y-13159722D02*
X12448634Y-13264484D01*
X12448634Y-13159722D02*
X12458158Y-13140674D01*
X12458158Y-13140674D02*
X12477205Y-13131150D01*
X12477205Y-13131150D02*
X12505777Y-13131150D01*
X12505777Y-13131150D02*
X12524824Y-13140674D01*
X12524824Y-13140674D02*
X12534348Y-13159722D01*
X12534348Y-13159722D02*
X12534348Y-13264484D01*
X12629586Y-13264484D02*
X12629586Y-13131150D01*
X12629586Y-13150198D02*
X12639110Y-13140674D01*
X12639110Y-13140674D02*
X12658158Y-13131150D01*
X12658158Y-13131150D02*
X12686729Y-13131150D01*
X12686729Y-13131150D02*
X12705777Y-13140674D01*
X12705777Y-13140674D02*
X12715301Y-13159722D01*
X12715301Y-13159722D02*
X12715301Y-13264484D01*
X12715301Y-13159722D02*
X12724824Y-13140674D01*
X12724824Y-13140674D02*
X12743872Y-13131150D01*
X12743872Y-13131150D02*
X12772443Y-13131150D01*
X12772443Y-13131150D02*
X12791491Y-13140674D01*
X12791491Y-13140674D02*
X12801015Y-13159722D01*
X12801015Y-13159722D02*
X12801015Y-13264484D01*
X13191491Y-13054960D02*
X13020063Y-13312103D01*
X13448634Y-13064484D02*
X13467682Y-13064484D01*
X13467682Y-13064484D02*
X13486729Y-13074008D01*
X13486729Y-13074008D02*
X13496253Y-13083531D01*
X13496253Y-13083531D02*
X13505777Y-13102579D01*
X13505777Y-13102579D02*
X13515301Y-13140674D01*
X13515301Y-13140674D02*
X13515301Y-13188293D01*
X13515301Y-13188293D02*
X13505777Y-13226388D01*
X13505777Y-13226388D02*
X13496253Y-13245436D01*
X13496253Y-13245436D02*
X13486729Y-13254960D01*
X13486729Y-13254960D02*
X13467682Y-13264484D01*
X13467682Y-13264484D02*
X13448634Y-13264484D01*
X13448634Y-13264484D02*
X13429586Y-13254960D01*
X13429586Y-13254960D02*
X13420063Y-13245436D01*
X13420063Y-13245436D02*
X13410539Y-13226388D01*
X13410539Y-13226388D02*
X13401015Y-13188293D01*
X13401015Y-13188293D02*
X13401015Y-13140674D01*
X13401015Y-13140674D02*
X13410539Y-13102579D01*
X13410539Y-13102579D02*
X13420063Y-13083531D01*
X13420063Y-13083531D02*
X13429586Y-13074008D01*
X13429586Y-13074008D02*
X13448634Y-13064484D01*
X13601015Y-13245436D02*
X13610539Y-13254960D01*
X13610539Y-13254960D02*
X13601015Y-13264484D01*
X13601015Y-13264484D02*
X13591491Y-13254960D01*
X13591491Y-13254960D02*
X13601015Y-13245436D01*
X13601015Y-13245436D02*
X13601015Y-13264484D01*
X13734348Y-13064484D02*
X13753396Y-13064484D01*
X13753396Y-13064484D02*
X13772444Y-13074008D01*
X13772444Y-13074008D02*
X13781967Y-13083531D01*
X13781967Y-13083531D02*
X13791491Y-13102579D01*
X13791491Y-13102579D02*
X13801015Y-13140674D01*
X13801015Y-13140674D02*
X13801015Y-13188293D01*
X13801015Y-13188293D02*
X13791491Y-13226388D01*
X13791491Y-13226388D02*
X13781967Y-13245436D01*
X13781967Y-13245436D02*
X13772444Y-13254960D01*
X13772444Y-13254960D02*
X13753396Y-13264484D01*
X13753396Y-13264484D02*
X13734348Y-13264484D01*
X13734348Y-13264484D02*
X13715301Y-13254960D01*
X13715301Y-13254960D02*
X13705777Y-13245436D01*
X13705777Y-13245436D02*
X13696253Y-13226388D01*
X13696253Y-13226388D02*
X13686729Y-13188293D01*
X13686729Y-13188293D02*
X13686729Y-13140674D01*
X13686729Y-13140674D02*
X13696253Y-13102579D01*
X13696253Y-13102579D02*
X13705777Y-13083531D01*
X13705777Y-13083531D02*
X13715301Y-13074008D01*
X13715301Y-13074008D02*
X13734348Y-13064484D01*
X13877206Y-13083531D02*
X13886729Y-13074008D01*
X13886729Y-13074008D02*
X13905777Y-13064484D01*
X13905777Y-13064484D02*
X13953396Y-13064484D01*
X13953396Y-13064484D02*
X13972444Y-13074008D01*
X13972444Y-13074008D02*
X13981967Y-13083531D01*
X13981967Y-13083531D02*
X13991491Y-13102579D01*
X13991491Y-13102579D02*
X13991491Y-13121627D01*
X13991491Y-13121627D02*
X13981967Y-13150198D01*
X13981967Y-13150198D02*
X13867682Y-13264484D01*
X13867682Y-13264484D02*
X13991491Y-13264484D01*
X14086729Y-13264484D02*
X14124825Y-13264484D01*
X14124825Y-13264484D02*
X14143872Y-13254960D01*
X14143872Y-13254960D02*
X14153396Y-13245436D01*
X14153396Y-13245436D02*
X14172444Y-13216865D01*
X14172444Y-13216865D02*
X14181967Y-13178769D01*
X14181967Y-13178769D02*
X14181967Y-13102579D01*
X14181967Y-13102579D02*
X14172444Y-13083531D01*
X14172444Y-13083531D02*
X14162920Y-13074008D01*
X14162920Y-13074008D02*
X14143872Y-13064484D01*
X14143872Y-13064484D02*
X14105777Y-13064484D01*
X14105777Y-13064484D02*
X14086729Y-13074008D01*
X14086729Y-13074008D02*
X14077206Y-13083531D01*
X14077206Y-13083531D02*
X14067682Y-13102579D01*
X14067682Y-13102579D02*
X14067682Y-13150198D01*
X14067682Y-13150198D02*
X14077206Y-13169246D01*
X14077206Y-13169246D02*
X14086729Y-13178769D01*
X14086729Y-13178769D02*
X14105777Y-13188293D01*
X14105777Y-13188293D02*
X14143872Y-13188293D01*
X14143872Y-13188293D02*
X14162920Y-13178769D01*
X14162920Y-13178769D02*
X14172444Y-13169246D01*
X14172444Y-13169246D02*
X14181967Y-13150198D01*
X14362920Y-13064484D02*
X14267682Y-13064484D01*
X14267682Y-13064484D02*
X14258158Y-13159722D01*
X14258158Y-13159722D02*
X14267682Y-13150198D01*
X14267682Y-13150198D02*
X14286729Y-13140674D01*
X14286729Y-13140674D02*
X14334348Y-13140674D01*
X14334348Y-13140674D02*
X14353396Y-13150198D01*
X14353396Y-13150198D02*
X14362920Y-13159722D01*
X14362920Y-13159722D02*
X14372444Y-13178769D01*
X14372444Y-13178769D02*
X14372444Y-13226388D01*
X14372444Y-13226388D02*
X14362920Y-13245436D01*
X14362920Y-13245436D02*
X14353396Y-13254960D01*
X14353396Y-13254960D02*
X14334348Y-13264484D01*
X14334348Y-13264484D02*
X14286729Y-13264484D01*
X14286729Y-13264484D02*
X14267682Y-13254960D01*
X14267682Y-13254960D02*
X14258158Y-13245436D01*
X14448634Y-13064484D02*
X14448634Y-13102579D01*
X14524825Y-13064484D02*
X14524825Y-13102579D01*
X14820063Y-13340674D02*
X14810539Y-13331150D01*
X14810539Y-13331150D02*
X14791491Y-13302579D01*
X14791491Y-13302579D02*
X14781968Y-13283531D01*
X14781968Y-13283531D02*
X14772444Y-13254960D01*
X14772444Y-13254960D02*
X14762920Y-13207341D01*
X14762920Y-13207341D02*
X14762920Y-13169246D01*
X14762920Y-13169246D02*
X14772444Y-13121627D01*
X14772444Y-13121627D02*
X14781968Y-13093055D01*
X14781968Y-13093055D02*
X14791491Y-13074008D01*
X14791491Y-13074008D02*
X14810539Y-13045436D01*
X14810539Y-13045436D02*
X14820063Y-13035912D01*
X14981968Y-13131150D02*
X14981968Y-13264484D01*
X14934348Y-13054960D02*
X14886729Y-13197817D01*
X14886729Y-13197817D02*
X15010539Y-13197817D01*
X15239110Y-13264484D02*
X15239110Y-13064484D01*
X15324825Y-13264484D02*
X15324825Y-13159722D01*
X15324825Y-13159722D02*
X15315301Y-13140674D01*
X15315301Y-13140674D02*
X15296253Y-13131150D01*
X15296253Y-13131150D02*
X15267682Y-13131150D01*
X15267682Y-13131150D02*
X15248634Y-13140674D01*
X15248634Y-13140674D02*
X15239110Y-13150198D01*
X15448634Y-13264484D02*
X15429587Y-13254960D01*
X15429587Y-13254960D02*
X15420063Y-13245436D01*
X15420063Y-13245436D02*
X15410539Y-13226388D01*
X15410539Y-13226388D02*
X15410539Y-13169246D01*
X15410539Y-13169246D02*
X15420063Y-13150198D01*
X15420063Y-13150198D02*
X15429587Y-13140674D01*
X15429587Y-13140674D02*
X15448634Y-13131150D01*
X15448634Y-13131150D02*
X15477206Y-13131150D01*
X15477206Y-13131150D02*
X15496253Y-13140674D01*
X15496253Y-13140674D02*
X15505777Y-13150198D01*
X15505777Y-13150198D02*
X15515301Y-13169246D01*
X15515301Y-13169246D02*
X15515301Y-13226388D01*
X15515301Y-13226388D02*
X15505777Y-13245436D01*
X15505777Y-13245436D02*
X15496253Y-13254960D01*
X15496253Y-13254960D02*
X15477206Y-13264484D01*
X15477206Y-13264484D02*
X15448634Y-13264484D01*
X15629587Y-13264484D02*
X15610539Y-13254960D01*
X15610539Y-13254960D02*
X15601015Y-13235912D01*
X15601015Y-13235912D02*
X15601015Y-13064484D01*
X15781968Y-13254960D02*
X15762920Y-13264484D01*
X15762920Y-13264484D02*
X15724825Y-13264484D01*
X15724825Y-13264484D02*
X15705777Y-13254960D01*
X15705777Y-13254960D02*
X15696253Y-13235912D01*
X15696253Y-13235912D02*
X15696253Y-13159722D01*
X15696253Y-13159722D02*
X15705777Y-13140674D01*
X15705777Y-13140674D02*
X15724825Y-13131150D01*
X15724825Y-13131150D02*
X15762920Y-13131150D01*
X15762920Y-13131150D02*
X15781968Y-13140674D01*
X15781968Y-13140674D02*
X15791491Y-13159722D01*
X15791491Y-13159722D02*
X15791491Y-13178769D01*
X15791491Y-13178769D02*
X15696253Y-13197817D01*
X15867682Y-13254960D02*
X15886730Y-13264484D01*
X15886730Y-13264484D02*
X15924825Y-13264484D01*
X15924825Y-13264484D02*
X15943872Y-13254960D01*
X15943872Y-13254960D02*
X15953396Y-13235912D01*
X15953396Y-13235912D02*
X15953396Y-13226388D01*
X15953396Y-13226388D02*
X15943872Y-13207341D01*
X15943872Y-13207341D02*
X15924825Y-13197817D01*
X15924825Y-13197817D02*
X15896253Y-13197817D01*
X15896253Y-13197817D02*
X15877206Y-13188293D01*
X15877206Y-13188293D02*
X15867682Y-13169246D01*
X15867682Y-13169246D02*
X15867682Y-13159722D01*
X15867682Y-13159722D02*
X15877206Y-13140674D01*
X15877206Y-13140674D02*
X15896253Y-13131150D01*
X15896253Y-13131150D02*
X15924825Y-13131150D01*
X15924825Y-13131150D02*
X15943872Y-13140674D01*
X16020063Y-13340674D02*
X16029587Y-13331150D01*
X16029587Y-13331150D02*
X16048634Y-13302579D01*
X16048634Y-13302579D02*
X16058158Y-13283531D01*
X16058158Y-13283531D02*
X16067682Y-13254960D01*
X16067682Y-13254960D02*
X16077206Y-13207341D01*
X16077206Y-13207341D02*
X16077206Y-13169246D01*
X16077206Y-13169246D02*
X16067682Y-13121627D01*
X16067682Y-13121627D02*
X16058158Y-13093055D01*
X16058158Y-13093055D02*
X16048634Y-13074008D01*
X16048634Y-13074008D02*
X16029587Y-13045436D01*
X16029587Y-13045436D02*
X16020063Y-13035912D01*
D15*
X11231088Y-13470588D02*
X11231088Y-13403412D01*
X11163912Y-13403412D01*
X11163912Y-13470588D01*
X11231088Y-13470588D01*
D11*
X11543872Y-13328484D02*
X11562920Y-13328484D01*
X11562920Y-13328484D02*
X11581967Y-13338008D01*
X11581967Y-13338008D02*
X11591491Y-13347531D01*
X11591491Y-13347531D02*
X11601015Y-13366579D01*
X11601015Y-13366579D02*
X11610539Y-13404674D01*
X11610539Y-13404674D02*
X11610539Y-13452293D01*
X11610539Y-13452293D02*
X11601015Y-13490388D01*
X11601015Y-13490388D02*
X11591491Y-13509436D01*
X11591491Y-13509436D02*
X11581967Y-13518960D01*
X11581967Y-13518960D02*
X11562920Y-13528484D01*
X11562920Y-13528484D02*
X11543872Y-13528484D01*
X11543872Y-13528484D02*
X11524824Y-13518960D01*
X11524824Y-13518960D02*
X11515301Y-13509436D01*
X11515301Y-13509436D02*
X11505777Y-13490388D01*
X11505777Y-13490388D02*
X11496253Y-13452293D01*
X11496253Y-13452293D02*
X11496253Y-13404674D01*
X11496253Y-13404674D02*
X11505777Y-13366579D01*
X11505777Y-13366579D02*
X11515301Y-13347531D01*
X11515301Y-13347531D02*
X11524824Y-13338008D01*
X11524824Y-13338008D02*
X11543872Y-13328484D01*
X11696253Y-13509436D02*
X11705777Y-13518960D01*
X11705777Y-13518960D02*
X11696253Y-13528484D01*
X11696253Y-13528484D02*
X11686729Y-13518960D01*
X11686729Y-13518960D02*
X11696253Y-13509436D01*
X11696253Y-13509436D02*
X11696253Y-13528484D01*
X11801015Y-13528484D02*
X11839110Y-13528484D01*
X11839110Y-13528484D02*
X11858158Y-13518960D01*
X11858158Y-13518960D02*
X11867682Y-13509436D01*
X11867682Y-13509436D02*
X11886729Y-13480865D01*
X11886729Y-13480865D02*
X11896253Y-13442769D01*
X11896253Y-13442769D02*
X11896253Y-13366579D01*
X11896253Y-13366579D02*
X11886729Y-13347531D01*
X11886729Y-13347531D02*
X11877205Y-13338008D01*
X11877205Y-13338008D02*
X11858158Y-13328484D01*
X11858158Y-13328484D02*
X11820062Y-13328484D01*
X11820062Y-13328484D02*
X11801015Y-13338008D01*
X11801015Y-13338008D02*
X11791491Y-13347531D01*
X11791491Y-13347531D02*
X11781967Y-13366579D01*
X11781967Y-13366579D02*
X11781967Y-13414198D01*
X11781967Y-13414198D02*
X11791491Y-13433246D01*
X11791491Y-13433246D02*
X11801015Y-13442769D01*
X11801015Y-13442769D02*
X11820062Y-13452293D01*
X11820062Y-13452293D02*
X11858158Y-13452293D01*
X11858158Y-13452293D02*
X11877205Y-13442769D01*
X11877205Y-13442769D02*
X11886729Y-13433246D01*
X11886729Y-13433246D02*
X11896253Y-13414198D01*
X12077205Y-13328484D02*
X11981967Y-13328484D01*
X11981967Y-13328484D02*
X11972443Y-13423722D01*
X11972443Y-13423722D02*
X11981967Y-13414198D01*
X11981967Y-13414198D02*
X12001015Y-13404674D01*
X12001015Y-13404674D02*
X12048634Y-13404674D01*
X12048634Y-13404674D02*
X12067682Y-13414198D01*
X12067682Y-13414198D02*
X12077205Y-13423722D01*
X12077205Y-13423722D02*
X12086729Y-13442769D01*
X12086729Y-13442769D02*
X12086729Y-13490388D01*
X12086729Y-13490388D02*
X12077205Y-13509436D01*
X12077205Y-13509436D02*
X12067682Y-13518960D01*
X12067682Y-13518960D02*
X12048634Y-13528484D01*
X12048634Y-13528484D02*
X12001015Y-13528484D01*
X12001015Y-13528484D02*
X11981967Y-13518960D01*
X11981967Y-13518960D02*
X11972443Y-13509436D01*
X12210539Y-13328484D02*
X12229586Y-13328484D01*
X12229586Y-13328484D02*
X12248634Y-13338008D01*
X12248634Y-13338008D02*
X12258158Y-13347531D01*
X12258158Y-13347531D02*
X12267682Y-13366579D01*
X12267682Y-13366579D02*
X12277205Y-13404674D01*
X12277205Y-13404674D02*
X12277205Y-13452293D01*
X12277205Y-13452293D02*
X12267682Y-13490388D01*
X12267682Y-13490388D02*
X12258158Y-13509436D01*
X12258158Y-13509436D02*
X12248634Y-13518960D01*
X12248634Y-13518960D02*
X12229586Y-13528484D01*
X12229586Y-13528484D02*
X12210539Y-13528484D01*
X12210539Y-13528484D02*
X12191491Y-13518960D01*
X12191491Y-13518960D02*
X12181967Y-13509436D01*
X12181967Y-13509436D02*
X12172443Y-13490388D01*
X12172443Y-13490388D02*
X12162920Y-13452293D01*
X12162920Y-13452293D02*
X12162920Y-13404674D01*
X12162920Y-13404674D02*
X12172443Y-13366579D01*
X12172443Y-13366579D02*
X12181967Y-13347531D01*
X12181967Y-13347531D02*
X12191491Y-13338008D01*
X12191491Y-13338008D02*
X12210539Y-13328484D01*
X12362920Y-13528484D02*
X12362920Y-13395150D01*
X12362920Y-13414198D02*
X12372443Y-13404674D01*
X12372443Y-13404674D02*
X12391491Y-13395150D01*
X12391491Y-13395150D02*
X12420063Y-13395150D01*
X12420063Y-13395150D02*
X12439110Y-13404674D01*
X12439110Y-13404674D02*
X12448634Y-13423722D01*
X12448634Y-13423722D02*
X12448634Y-13528484D01*
X12448634Y-13423722D02*
X12458158Y-13404674D01*
X12458158Y-13404674D02*
X12477205Y-13395150D01*
X12477205Y-13395150D02*
X12505777Y-13395150D01*
X12505777Y-13395150D02*
X12524824Y-13404674D01*
X12524824Y-13404674D02*
X12534348Y-13423722D01*
X12534348Y-13423722D02*
X12534348Y-13528484D01*
X12629586Y-13528484D02*
X12629586Y-13395150D01*
X12629586Y-13414198D02*
X12639110Y-13404674D01*
X12639110Y-13404674D02*
X12658158Y-13395150D01*
X12658158Y-13395150D02*
X12686729Y-13395150D01*
X12686729Y-13395150D02*
X12705777Y-13404674D01*
X12705777Y-13404674D02*
X12715301Y-13423722D01*
X12715301Y-13423722D02*
X12715301Y-13528484D01*
X12715301Y-13423722D02*
X12724824Y-13404674D01*
X12724824Y-13404674D02*
X12743872Y-13395150D01*
X12743872Y-13395150D02*
X12772443Y-13395150D01*
X12772443Y-13395150D02*
X12791491Y-13404674D01*
X12791491Y-13404674D02*
X12801015Y-13423722D01*
X12801015Y-13423722D02*
X12801015Y-13528484D01*
X13191491Y-13318960D02*
X13020063Y-13576103D01*
X13448634Y-13328484D02*
X13467682Y-13328484D01*
X13467682Y-13328484D02*
X13486729Y-13338008D01*
X13486729Y-13338008D02*
X13496253Y-13347531D01*
X13496253Y-13347531D02*
X13505777Y-13366579D01*
X13505777Y-13366579D02*
X13515301Y-13404674D01*
X13515301Y-13404674D02*
X13515301Y-13452293D01*
X13515301Y-13452293D02*
X13505777Y-13490388D01*
X13505777Y-13490388D02*
X13496253Y-13509436D01*
X13496253Y-13509436D02*
X13486729Y-13518960D01*
X13486729Y-13518960D02*
X13467682Y-13528484D01*
X13467682Y-13528484D02*
X13448634Y-13528484D01*
X13448634Y-13528484D02*
X13429586Y-13518960D01*
X13429586Y-13518960D02*
X13420063Y-13509436D01*
X13420063Y-13509436D02*
X13410539Y-13490388D01*
X13410539Y-13490388D02*
X13401015Y-13452293D01*
X13401015Y-13452293D02*
X13401015Y-13404674D01*
X13401015Y-13404674D02*
X13410539Y-13366579D01*
X13410539Y-13366579D02*
X13420063Y-13347531D01*
X13420063Y-13347531D02*
X13429586Y-13338008D01*
X13429586Y-13338008D02*
X13448634Y-13328484D01*
X13601015Y-13509436D02*
X13610539Y-13518960D01*
X13610539Y-13518960D02*
X13601015Y-13528484D01*
X13601015Y-13528484D02*
X13591491Y-13518960D01*
X13591491Y-13518960D02*
X13601015Y-13509436D01*
X13601015Y-13509436D02*
X13601015Y-13528484D01*
X13734348Y-13328484D02*
X13753396Y-13328484D01*
X13753396Y-13328484D02*
X13772444Y-13338008D01*
X13772444Y-13338008D02*
X13781967Y-13347531D01*
X13781967Y-13347531D02*
X13791491Y-13366579D01*
X13791491Y-13366579D02*
X13801015Y-13404674D01*
X13801015Y-13404674D02*
X13801015Y-13452293D01*
X13801015Y-13452293D02*
X13791491Y-13490388D01*
X13791491Y-13490388D02*
X13781967Y-13509436D01*
X13781967Y-13509436D02*
X13772444Y-13518960D01*
X13772444Y-13518960D02*
X13753396Y-13528484D01*
X13753396Y-13528484D02*
X13734348Y-13528484D01*
X13734348Y-13528484D02*
X13715301Y-13518960D01*
X13715301Y-13518960D02*
X13705777Y-13509436D01*
X13705777Y-13509436D02*
X13696253Y-13490388D01*
X13696253Y-13490388D02*
X13686729Y-13452293D01*
X13686729Y-13452293D02*
X13686729Y-13404674D01*
X13686729Y-13404674D02*
X13696253Y-13366579D01*
X13696253Y-13366579D02*
X13705777Y-13347531D01*
X13705777Y-13347531D02*
X13715301Y-13338008D01*
X13715301Y-13338008D02*
X13734348Y-13328484D01*
X13867682Y-13328484D02*
X13991491Y-13328484D01*
X13991491Y-13328484D02*
X13924825Y-13404674D01*
X13924825Y-13404674D02*
X13953396Y-13404674D01*
X13953396Y-13404674D02*
X13972444Y-13414198D01*
X13972444Y-13414198D02*
X13981967Y-13423722D01*
X13981967Y-13423722D02*
X13991491Y-13442769D01*
X13991491Y-13442769D02*
X13991491Y-13490388D01*
X13991491Y-13490388D02*
X13981967Y-13509436D01*
X13981967Y-13509436D02*
X13972444Y-13518960D01*
X13972444Y-13518960D02*
X13953396Y-13528484D01*
X13953396Y-13528484D02*
X13896253Y-13528484D01*
X13896253Y-13528484D02*
X13877206Y-13518960D01*
X13877206Y-13518960D02*
X13867682Y-13509436D01*
X14058158Y-13328484D02*
X14191491Y-13328484D01*
X14191491Y-13328484D02*
X14105777Y-13528484D01*
X14353396Y-13395150D02*
X14353396Y-13528484D01*
X14305777Y-13318960D02*
X14258158Y-13461817D01*
X14258158Y-13461817D02*
X14381967Y-13461817D01*
X14448634Y-13328484D02*
X14448634Y-13366579D01*
X14524825Y-13328484D02*
X14524825Y-13366579D01*
X14820063Y-13604674D02*
X14810539Y-13595150D01*
X14810539Y-13595150D02*
X14791491Y-13566579D01*
X14791491Y-13566579D02*
X14781968Y-13547531D01*
X14781968Y-13547531D02*
X14772444Y-13518960D01*
X14772444Y-13518960D02*
X14762920Y-13471341D01*
X14762920Y-13471341D02*
X14762920Y-13433246D01*
X14762920Y-13433246D02*
X14772444Y-13385627D01*
X14772444Y-13385627D02*
X14781968Y-13357055D01*
X14781968Y-13357055D02*
X14791491Y-13338008D01*
X14791491Y-13338008D02*
X14810539Y-13309436D01*
X14810539Y-13309436D02*
X14820063Y-13299912D01*
X14981968Y-13395150D02*
X14981968Y-13528484D01*
X14934348Y-13318960D02*
X14886729Y-13461817D01*
X14886729Y-13461817D02*
X15010539Y-13461817D01*
X15239110Y-13528484D02*
X15239110Y-13328484D01*
X15324825Y-13528484D02*
X15324825Y-13423722D01*
X15324825Y-13423722D02*
X15315301Y-13404674D01*
X15315301Y-13404674D02*
X15296253Y-13395150D01*
X15296253Y-13395150D02*
X15267682Y-13395150D01*
X15267682Y-13395150D02*
X15248634Y-13404674D01*
X15248634Y-13404674D02*
X15239110Y-13414198D01*
X15448634Y-13528484D02*
X15429587Y-13518960D01*
X15429587Y-13518960D02*
X15420063Y-13509436D01*
X15420063Y-13509436D02*
X15410539Y-13490388D01*
X15410539Y-13490388D02*
X15410539Y-13433246D01*
X15410539Y-13433246D02*
X15420063Y-13414198D01*
X15420063Y-13414198D02*
X15429587Y-13404674D01*
X15429587Y-13404674D02*
X15448634Y-13395150D01*
X15448634Y-13395150D02*
X15477206Y-13395150D01*
X15477206Y-13395150D02*
X15496253Y-13404674D01*
X15496253Y-13404674D02*
X15505777Y-13414198D01*
X15505777Y-13414198D02*
X15515301Y-13433246D01*
X15515301Y-13433246D02*
X15515301Y-13490388D01*
X15515301Y-13490388D02*
X15505777Y-13509436D01*
X15505777Y-13509436D02*
X15496253Y-13518960D01*
X15496253Y-13518960D02*
X15477206Y-13528484D01*
X15477206Y-13528484D02*
X15448634Y-13528484D01*
X15629587Y-13528484D02*
X15610539Y-13518960D01*
X15610539Y-13518960D02*
X15601015Y-13499912D01*
X15601015Y-13499912D02*
X15601015Y-13328484D01*
X15781968Y-13518960D02*
X15762920Y-13528484D01*
X15762920Y-13528484D02*
X15724825Y-13528484D01*
X15724825Y-13528484D02*
X15705777Y-13518960D01*
X15705777Y-13518960D02*
X15696253Y-13499912D01*
X15696253Y-13499912D02*
X15696253Y-13423722D01*
X15696253Y-13423722D02*
X15705777Y-13404674D01*
X15705777Y-13404674D02*
X15724825Y-13395150D01*
X15724825Y-13395150D02*
X15762920Y-13395150D01*
X15762920Y-13395150D02*
X15781968Y-13404674D01*
X15781968Y-13404674D02*
X15791491Y-13423722D01*
X15791491Y-13423722D02*
X15791491Y-13442769D01*
X15791491Y-13442769D02*
X15696253Y-13461817D01*
X15867682Y-13518960D02*
X15886730Y-13528484D01*
X15886730Y-13528484D02*
X15924825Y-13528484D01*
X15924825Y-13528484D02*
X15943872Y-13518960D01*
X15943872Y-13518960D02*
X15953396Y-13499912D01*
X15953396Y-13499912D02*
X15953396Y-13490388D01*
X15953396Y-13490388D02*
X15943872Y-13471341D01*
X15943872Y-13471341D02*
X15924825Y-13461817D01*
X15924825Y-13461817D02*
X15896253Y-13461817D01*
X15896253Y-13461817D02*
X15877206Y-13452293D01*
X15877206Y-13452293D02*
X15867682Y-13433246D01*
X15867682Y-13433246D02*
X15867682Y-13423722D01*
X15867682Y-13423722D02*
X15877206Y-13404674D01*
X15877206Y-13404674D02*
X15896253Y-13395150D01*
X15896253Y-13395150D02*
X15924825Y-13395150D01*
X15924825Y-13395150D02*
X15943872Y-13404674D01*
X16020063Y-13604674D02*
X16029587Y-13595150D01*
X16029587Y-13595150D02*
X16048634Y-13566579D01*
X16048634Y-13566579D02*
X16058158Y-13547531D01*
X16058158Y-13547531D02*
X16067682Y-13518960D01*
X16067682Y-13518960D02*
X16077206Y-13471341D01*
X16077206Y-13471341D02*
X16077206Y-13433246D01*
X16077206Y-13433246D02*
X16067682Y-13385627D01*
X16067682Y-13385627D02*
X16058158Y-13357055D01*
X16058158Y-13357055D02*
X16048634Y-13338008D01*
X16048634Y-13338008D02*
X16029587Y-13309436D01*
X16029587Y-13309436D02*
X16020063Y-13299912D01*
D10*
X11195000Y-13751000D02*
X11245000Y-13701000D01*
X11195000Y-13651000D01*
X11145000Y-13701000D01*
X11195000Y-13751000D01*
D11*
X11610539Y-13792484D02*
X11496253Y-13792484D01*
X11553396Y-13792484D02*
X11553396Y-13592484D01*
X11553396Y-13592484D02*
X11534348Y-13621055D01*
X11534348Y-13621055D02*
X11515301Y-13640103D01*
X11515301Y-13640103D02*
X11496253Y-13649627D01*
X11696253Y-13773436D02*
X11705777Y-13782960D01*
X11705777Y-13782960D02*
X11696253Y-13792484D01*
X11696253Y-13792484D02*
X11686729Y-13782960D01*
X11686729Y-13782960D02*
X11696253Y-13773436D01*
X11696253Y-13773436D02*
X11696253Y-13792484D01*
X11829586Y-13592484D02*
X11848634Y-13592484D01*
X11848634Y-13592484D02*
X11867682Y-13602008D01*
X11867682Y-13602008D02*
X11877205Y-13611531D01*
X11877205Y-13611531D02*
X11886729Y-13630579D01*
X11886729Y-13630579D02*
X11896253Y-13668674D01*
X11896253Y-13668674D02*
X11896253Y-13716293D01*
X11896253Y-13716293D02*
X11886729Y-13754388D01*
X11886729Y-13754388D02*
X11877205Y-13773436D01*
X11877205Y-13773436D02*
X11867682Y-13782960D01*
X11867682Y-13782960D02*
X11848634Y-13792484D01*
X11848634Y-13792484D02*
X11829586Y-13792484D01*
X11829586Y-13792484D02*
X11810539Y-13782960D01*
X11810539Y-13782960D02*
X11801015Y-13773436D01*
X11801015Y-13773436D02*
X11791491Y-13754388D01*
X11791491Y-13754388D02*
X11781967Y-13716293D01*
X11781967Y-13716293D02*
X11781967Y-13668674D01*
X11781967Y-13668674D02*
X11791491Y-13630579D01*
X11791491Y-13630579D02*
X11801015Y-13611531D01*
X11801015Y-13611531D02*
X11810539Y-13602008D01*
X11810539Y-13602008D02*
X11829586Y-13592484D01*
X12020062Y-13592484D02*
X12039110Y-13592484D01*
X12039110Y-13592484D02*
X12058158Y-13602008D01*
X12058158Y-13602008D02*
X12067682Y-13611531D01*
X12067682Y-13611531D02*
X12077205Y-13630579D01*
X12077205Y-13630579D02*
X12086729Y-13668674D01*
X12086729Y-13668674D02*
X12086729Y-13716293D01*
X12086729Y-13716293D02*
X12077205Y-13754388D01*
X12077205Y-13754388D02*
X12067682Y-13773436D01*
X12067682Y-13773436D02*
X12058158Y-13782960D01*
X12058158Y-13782960D02*
X12039110Y-13792484D01*
X12039110Y-13792484D02*
X12020062Y-13792484D01*
X12020062Y-13792484D02*
X12001015Y-13782960D01*
X12001015Y-13782960D02*
X11991491Y-13773436D01*
X11991491Y-13773436D02*
X11981967Y-13754388D01*
X11981967Y-13754388D02*
X11972443Y-13716293D01*
X11972443Y-13716293D02*
X11972443Y-13668674D01*
X11972443Y-13668674D02*
X11981967Y-13630579D01*
X11981967Y-13630579D02*
X11991491Y-13611531D01*
X11991491Y-13611531D02*
X12001015Y-13602008D01*
X12001015Y-13602008D02*
X12020062Y-13592484D01*
X12210539Y-13592484D02*
X12229586Y-13592484D01*
X12229586Y-13592484D02*
X12248634Y-13602008D01*
X12248634Y-13602008D02*
X12258158Y-13611531D01*
X12258158Y-13611531D02*
X12267682Y-13630579D01*
X12267682Y-13630579D02*
X12277205Y-13668674D01*
X12277205Y-13668674D02*
X12277205Y-13716293D01*
X12277205Y-13716293D02*
X12267682Y-13754388D01*
X12267682Y-13754388D02*
X12258158Y-13773436D01*
X12258158Y-13773436D02*
X12248634Y-13782960D01*
X12248634Y-13782960D02*
X12229586Y-13792484D01*
X12229586Y-13792484D02*
X12210539Y-13792484D01*
X12210539Y-13792484D02*
X12191491Y-13782960D01*
X12191491Y-13782960D02*
X12181967Y-13773436D01*
X12181967Y-13773436D02*
X12172443Y-13754388D01*
X12172443Y-13754388D02*
X12162920Y-13716293D01*
X12162920Y-13716293D02*
X12162920Y-13668674D01*
X12162920Y-13668674D02*
X12172443Y-13630579D01*
X12172443Y-13630579D02*
X12181967Y-13611531D01*
X12181967Y-13611531D02*
X12191491Y-13602008D01*
X12191491Y-13602008D02*
X12210539Y-13592484D01*
X12362920Y-13792484D02*
X12362920Y-13659150D01*
X12362920Y-13678198D02*
X12372443Y-13668674D01*
X12372443Y-13668674D02*
X12391491Y-13659150D01*
X12391491Y-13659150D02*
X12420063Y-13659150D01*
X12420063Y-13659150D02*
X12439110Y-13668674D01*
X12439110Y-13668674D02*
X12448634Y-13687722D01*
X12448634Y-13687722D02*
X12448634Y-13792484D01*
X12448634Y-13687722D02*
X12458158Y-13668674D01*
X12458158Y-13668674D02*
X12477205Y-13659150D01*
X12477205Y-13659150D02*
X12505777Y-13659150D01*
X12505777Y-13659150D02*
X12524824Y-13668674D01*
X12524824Y-13668674D02*
X12534348Y-13687722D01*
X12534348Y-13687722D02*
X12534348Y-13792484D01*
X12629586Y-13792484D02*
X12629586Y-13659150D01*
X12629586Y-13678198D02*
X12639110Y-13668674D01*
X12639110Y-13668674D02*
X12658158Y-13659150D01*
X12658158Y-13659150D02*
X12686729Y-13659150D01*
X12686729Y-13659150D02*
X12705777Y-13668674D01*
X12705777Y-13668674D02*
X12715301Y-13687722D01*
X12715301Y-13687722D02*
X12715301Y-13792484D01*
X12715301Y-13687722D02*
X12724824Y-13668674D01*
X12724824Y-13668674D02*
X12743872Y-13659150D01*
X12743872Y-13659150D02*
X12772443Y-13659150D01*
X12772443Y-13659150D02*
X12791491Y-13668674D01*
X12791491Y-13668674D02*
X12801015Y-13687722D01*
X12801015Y-13687722D02*
X12801015Y-13792484D01*
X13191491Y-13582960D02*
X13020063Y-13840103D01*
X13448634Y-13592484D02*
X13467682Y-13592484D01*
X13467682Y-13592484D02*
X13486729Y-13602008D01*
X13486729Y-13602008D02*
X13496253Y-13611531D01*
X13496253Y-13611531D02*
X13505777Y-13630579D01*
X13505777Y-13630579D02*
X13515301Y-13668674D01*
X13515301Y-13668674D02*
X13515301Y-13716293D01*
X13515301Y-13716293D02*
X13505777Y-13754388D01*
X13505777Y-13754388D02*
X13496253Y-13773436D01*
X13496253Y-13773436D02*
X13486729Y-13782960D01*
X13486729Y-13782960D02*
X13467682Y-13792484D01*
X13467682Y-13792484D02*
X13448634Y-13792484D01*
X13448634Y-13792484D02*
X13429586Y-13782960D01*
X13429586Y-13782960D02*
X13420063Y-13773436D01*
X13420063Y-13773436D02*
X13410539Y-13754388D01*
X13410539Y-13754388D02*
X13401015Y-13716293D01*
X13401015Y-13716293D02*
X13401015Y-13668674D01*
X13401015Y-13668674D02*
X13410539Y-13630579D01*
X13410539Y-13630579D02*
X13420063Y-13611531D01*
X13420063Y-13611531D02*
X13429586Y-13602008D01*
X13429586Y-13602008D02*
X13448634Y-13592484D01*
X13601015Y-13773436D02*
X13610539Y-13782960D01*
X13610539Y-13782960D02*
X13601015Y-13792484D01*
X13601015Y-13792484D02*
X13591491Y-13782960D01*
X13591491Y-13782960D02*
X13601015Y-13773436D01*
X13601015Y-13773436D02*
X13601015Y-13792484D01*
X13734348Y-13592484D02*
X13753396Y-13592484D01*
X13753396Y-13592484D02*
X13772444Y-13602008D01*
X13772444Y-13602008D02*
X13781967Y-13611531D01*
X13781967Y-13611531D02*
X13791491Y-13630579D01*
X13791491Y-13630579D02*
X13801015Y-13668674D01*
X13801015Y-13668674D02*
X13801015Y-13716293D01*
X13801015Y-13716293D02*
X13791491Y-13754388D01*
X13791491Y-13754388D02*
X13781967Y-13773436D01*
X13781967Y-13773436D02*
X13772444Y-13782960D01*
X13772444Y-13782960D02*
X13753396Y-13792484D01*
X13753396Y-13792484D02*
X13734348Y-13792484D01*
X13734348Y-13792484D02*
X13715301Y-13782960D01*
X13715301Y-13782960D02*
X13705777Y-13773436D01*
X13705777Y-13773436D02*
X13696253Y-13754388D01*
X13696253Y-13754388D02*
X13686729Y-13716293D01*
X13686729Y-13716293D02*
X13686729Y-13668674D01*
X13686729Y-13668674D02*
X13696253Y-13630579D01*
X13696253Y-13630579D02*
X13705777Y-13611531D01*
X13705777Y-13611531D02*
X13715301Y-13602008D01*
X13715301Y-13602008D02*
X13734348Y-13592484D01*
X13867682Y-13592484D02*
X13991491Y-13592484D01*
X13991491Y-13592484D02*
X13924825Y-13668674D01*
X13924825Y-13668674D02*
X13953396Y-13668674D01*
X13953396Y-13668674D02*
X13972444Y-13678198D01*
X13972444Y-13678198D02*
X13981967Y-13687722D01*
X13981967Y-13687722D02*
X13991491Y-13706769D01*
X13991491Y-13706769D02*
X13991491Y-13754388D01*
X13991491Y-13754388D02*
X13981967Y-13773436D01*
X13981967Y-13773436D02*
X13972444Y-13782960D01*
X13972444Y-13782960D02*
X13953396Y-13792484D01*
X13953396Y-13792484D02*
X13896253Y-13792484D01*
X13896253Y-13792484D02*
X13877206Y-13782960D01*
X13877206Y-13782960D02*
X13867682Y-13773436D01*
X14086729Y-13792484D02*
X14124825Y-13792484D01*
X14124825Y-13792484D02*
X14143872Y-13782960D01*
X14143872Y-13782960D02*
X14153396Y-13773436D01*
X14153396Y-13773436D02*
X14172444Y-13744865D01*
X14172444Y-13744865D02*
X14181967Y-13706769D01*
X14181967Y-13706769D02*
X14181967Y-13630579D01*
X14181967Y-13630579D02*
X14172444Y-13611531D01*
X14172444Y-13611531D02*
X14162920Y-13602008D01*
X14162920Y-13602008D02*
X14143872Y-13592484D01*
X14143872Y-13592484D02*
X14105777Y-13592484D01*
X14105777Y-13592484D02*
X14086729Y-13602008D01*
X14086729Y-13602008D02*
X14077206Y-13611531D01*
X14077206Y-13611531D02*
X14067682Y-13630579D01*
X14067682Y-13630579D02*
X14067682Y-13678198D01*
X14067682Y-13678198D02*
X14077206Y-13697246D01*
X14077206Y-13697246D02*
X14086729Y-13706769D01*
X14086729Y-13706769D02*
X14105777Y-13716293D01*
X14105777Y-13716293D02*
X14143872Y-13716293D01*
X14143872Y-13716293D02*
X14162920Y-13706769D01*
X14162920Y-13706769D02*
X14172444Y-13697246D01*
X14172444Y-13697246D02*
X14181967Y-13678198D01*
X14353396Y-13659150D02*
X14353396Y-13792484D01*
X14305777Y-13582960D02*
X14258158Y-13725817D01*
X14258158Y-13725817D02*
X14381967Y-13725817D01*
X14448634Y-13592484D02*
X14448634Y-13630579D01*
X14524825Y-13592484D02*
X14524825Y-13630579D01*
X14820063Y-13868674D02*
X14810539Y-13859150D01*
X14810539Y-13859150D02*
X14791491Y-13830579D01*
X14791491Y-13830579D02*
X14781968Y-13811531D01*
X14781968Y-13811531D02*
X14772444Y-13782960D01*
X14772444Y-13782960D02*
X14762920Y-13735341D01*
X14762920Y-13735341D02*
X14762920Y-13697246D01*
X14762920Y-13697246D02*
X14772444Y-13649627D01*
X14772444Y-13649627D02*
X14781968Y-13621055D01*
X14781968Y-13621055D02*
X14791491Y-13602008D01*
X14791491Y-13602008D02*
X14810539Y-13573436D01*
X14810539Y-13573436D02*
X14820063Y-13563912D01*
X14877206Y-13592484D02*
X15001015Y-13592484D01*
X15001015Y-13592484D02*
X14934348Y-13668674D01*
X14934348Y-13668674D02*
X14962920Y-13668674D01*
X14962920Y-13668674D02*
X14981968Y-13678198D01*
X14981968Y-13678198D02*
X14991491Y-13687722D01*
X14991491Y-13687722D02*
X15001015Y-13706769D01*
X15001015Y-13706769D02*
X15001015Y-13754388D01*
X15001015Y-13754388D02*
X14991491Y-13773436D01*
X14991491Y-13773436D02*
X14981968Y-13782960D01*
X14981968Y-13782960D02*
X14962920Y-13792484D01*
X14962920Y-13792484D02*
X14905777Y-13792484D01*
X14905777Y-13792484D02*
X14886729Y-13782960D01*
X14886729Y-13782960D02*
X14877206Y-13773436D01*
X15239110Y-13792484D02*
X15239110Y-13592484D01*
X15324825Y-13792484D02*
X15324825Y-13687722D01*
X15324825Y-13687722D02*
X15315301Y-13668674D01*
X15315301Y-13668674D02*
X15296253Y-13659150D01*
X15296253Y-13659150D02*
X15267682Y-13659150D01*
X15267682Y-13659150D02*
X15248634Y-13668674D01*
X15248634Y-13668674D02*
X15239110Y-13678198D01*
X15448634Y-13792484D02*
X15429587Y-13782960D01*
X15429587Y-13782960D02*
X15420063Y-13773436D01*
X15420063Y-13773436D02*
X15410539Y-13754388D01*
X15410539Y-13754388D02*
X15410539Y-13697246D01*
X15410539Y-13697246D02*
X15420063Y-13678198D01*
X15420063Y-13678198D02*
X15429587Y-13668674D01*
X15429587Y-13668674D02*
X15448634Y-13659150D01*
X15448634Y-13659150D02*
X15477206Y-13659150D01*
X15477206Y-13659150D02*
X15496253Y-13668674D01*
X15496253Y-13668674D02*
X15505777Y-13678198D01*
X15505777Y-13678198D02*
X15515301Y-13697246D01*
X15515301Y-13697246D02*
X15515301Y-13754388D01*
X15515301Y-13754388D02*
X15505777Y-13773436D01*
X15505777Y-13773436D02*
X15496253Y-13782960D01*
X15496253Y-13782960D02*
X15477206Y-13792484D01*
X15477206Y-13792484D02*
X15448634Y-13792484D01*
X15629587Y-13792484D02*
X15610539Y-13782960D01*
X15610539Y-13782960D02*
X15601015Y-13763912D01*
X15601015Y-13763912D02*
X15601015Y-13592484D01*
X15781968Y-13782960D02*
X15762920Y-13792484D01*
X15762920Y-13792484D02*
X15724825Y-13792484D01*
X15724825Y-13792484D02*
X15705777Y-13782960D01*
X15705777Y-13782960D02*
X15696253Y-13763912D01*
X15696253Y-13763912D02*
X15696253Y-13687722D01*
X15696253Y-13687722D02*
X15705777Y-13668674D01*
X15705777Y-13668674D02*
X15724825Y-13659150D01*
X15724825Y-13659150D02*
X15762920Y-13659150D01*
X15762920Y-13659150D02*
X15781968Y-13668674D01*
X15781968Y-13668674D02*
X15791491Y-13687722D01*
X15791491Y-13687722D02*
X15791491Y-13706769D01*
X15791491Y-13706769D02*
X15696253Y-13725817D01*
X15867682Y-13782960D02*
X15886730Y-13792484D01*
X15886730Y-13792484D02*
X15924825Y-13792484D01*
X15924825Y-13792484D02*
X15943872Y-13782960D01*
X15943872Y-13782960D02*
X15953396Y-13763912D01*
X15953396Y-13763912D02*
X15953396Y-13754388D01*
X15953396Y-13754388D02*
X15943872Y-13735341D01*
X15943872Y-13735341D02*
X15924825Y-13725817D01*
X15924825Y-13725817D02*
X15896253Y-13725817D01*
X15896253Y-13725817D02*
X15877206Y-13716293D01*
X15877206Y-13716293D02*
X15867682Y-13697246D01*
X15867682Y-13697246D02*
X15867682Y-13687722D01*
X15867682Y-13687722D02*
X15877206Y-13668674D01*
X15877206Y-13668674D02*
X15896253Y-13659150D01*
X15896253Y-13659150D02*
X15924825Y-13659150D01*
X15924825Y-13659150D02*
X15943872Y-13668674D01*
X16020063Y-13868674D02*
X16029587Y-13859150D01*
X16029587Y-13859150D02*
X16048634Y-13830579D01*
X16048634Y-13830579D02*
X16058158Y-13811531D01*
X16058158Y-13811531D02*
X16067682Y-13782960D01*
X16067682Y-13782960D02*
X16077206Y-13735341D01*
X16077206Y-13735341D02*
X16077206Y-13697246D01*
X16077206Y-13697246D02*
X16067682Y-13649627D01*
X16067682Y-13649627D02*
X16058158Y-13621055D01*
X16058158Y-13621055D02*
X16048634Y-13602008D01*
X16048634Y-13602008D02*
X16029587Y-13573436D01*
X16029587Y-13573436D02*
X16020063Y-13563912D01*
D16*
X11135000Y-13910000D02*
X11245000Y-14020000D01*
X11245000Y-13910000D02*
X11135000Y-14020000D01*
X11245000Y-13965000D02*
G75*
G03*
X11245000Y-13965000I-55000J0D01*
G01*
D11*
X11610539Y-14056484D02*
X11496253Y-14056484D01*
X11553396Y-14056484D02*
X11553396Y-13856484D01*
X11553396Y-13856484D02*
X11534348Y-13885055D01*
X11534348Y-13885055D02*
X11515301Y-13904103D01*
X11515301Y-13904103D02*
X11496253Y-13913627D01*
X11696253Y-14037436D02*
X11705777Y-14046960D01*
X11705777Y-14046960D02*
X11696253Y-14056484D01*
X11696253Y-14056484D02*
X11686729Y-14046960D01*
X11686729Y-14046960D02*
X11696253Y-14037436D01*
X11696253Y-14037436D02*
X11696253Y-14056484D01*
X11896253Y-14056484D02*
X11781967Y-14056484D01*
X11839110Y-14056484D02*
X11839110Y-13856484D01*
X11839110Y-13856484D02*
X11820062Y-13885055D01*
X11820062Y-13885055D02*
X11801015Y-13904103D01*
X11801015Y-13904103D02*
X11781967Y-13913627D01*
X12020062Y-13856484D02*
X12039110Y-13856484D01*
X12039110Y-13856484D02*
X12058158Y-13866008D01*
X12058158Y-13866008D02*
X12067682Y-13875531D01*
X12067682Y-13875531D02*
X12077205Y-13894579D01*
X12077205Y-13894579D02*
X12086729Y-13932674D01*
X12086729Y-13932674D02*
X12086729Y-13980293D01*
X12086729Y-13980293D02*
X12077205Y-14018388D01*
X12077205Y-14018388D02*
X12067682Y-14037436D01*
X12067682Y-14037436D02*
X12058158Y-14046960D01*
X12058158Y-14046960D02*
X12039110Y-14056484D01*
X12039110Y-14056484D02*
X12020062Y-14056484D01*
X12020062Y-14056484D02*
X12001015Y-14046960D01*
X12001015Y-14046960D02*
X11991491Y-14037436D01*
X11991491Y-14037436D02*
X11981967Y-14018388D01*
X11981967Y-14018388D02*
X11972443Y-13980293D01*
X11972443Y-13980293D02*
X11972443Y-13932674D01*
X11972443Y-13932674D02*
X11981967Y-13894579D01*
X11981967Y-13894579D02*
X11991491Y-13875531D01*
X11991491Y-13875531D02*
X12001015Y-13866008D01*
X12001015Y-13866008D02*
X12020062Y-13856484D01*
X12210539Y-13856484D02*
X12229586Y-13856484D01*
X12229586Y-13856484D02*
X12248634Y-13866008D01*
X12248634Y-13866008D02*
X12258158Y-13875531D01*
X12258158Y-13875531D02*
X12267682Y-13894579D01*
X12267682Y-13894579D02*
X12277205Y-13932674D01*
X12277205Y-13932674D02*
X12277205Y-13980293D01*
X12277205Y-13980293D02*
X12267682Y-14018388D01*
X12267682Y-14018388D02*
X12258158Y-14037436D01*
X12258158Y-14037436D02*
X12248634Y-14046960D01*
X12248634Y-14046960D02*
X12229586Y-14056484D01*
X12229586Y-14056484D02*
X12210539Y-14056484D01*
X12210539Y-14056484D02*
X12191491Y-14046960D01*
X12191491Y-14046960D02*
X12181967Y-14037436D01*
X12181967Y-14037436D02*
X12172443Y-14018388D01*
X12172443Y-14018388D02*
X12162920Y-13980293D01*
X12162920Y-13980293D02*
X12162920Y-13932674D01*
X12162920Y-13932674D02*
X12172443Y-13894579D01*
X12172443Y-13894579D02*
X12181967Y-13875531D01*
X12181967Y-13875531D02*
X12191491Y-13866008D01*
X12191491Y-13866008D02*
X12210539Y-13856484D01*
X12362920Y-14056484D02*
X12362920Y-13923150D01*
X12362920Y-13942198D02*
X12372443Y-13932674D01*
X12372443Y-13932674D02*
X12391491Y-13923150D01*
X12391491Y-13923150D02*
X12420063Y-13923150D01*
X12420063Y-13923150D02*
X12439110Y-13932674D01*
X12439110Y-13932674D02*
X12448634Y-13951722D01*
X12448634Y-13951722D02*
X12448634Y-14056484D01*
X12448634Y-13951722D02*
X12458158Y-13932674D01*
X12458158Y-13932674D02*
X12477205Y-13923150D01*
X12477205Y-13923150D02*
X12505777Y-13923150D01*
X12505777Y-13923150D02*
X12524824Y-13932674D01*
X12524824Y-13932674D02*
X12534348Y-13951722D01*
X12534348Y-13951722D02*
X12534348Y-14056484D01*
X12629586Y-14056484D02*
X12629586Y-13923150D01*
X12629586Y-13942198D02*
X12639110Y-13932674D01*
X12639110Y-13932674D02*
X12658158Y-13923150D01*
X12658158Y-13923150D02*
X12686729Y-13923150D01*
X12686729Y-13923150D02*
X12705777Y-13932674D01*
X12705777Y-13932674D02*
X12715301Y-13951722D01*
X12715301Y-13951722D02*
X12715301Y-14056484D01*
X12715301Y-13951722D02*
X12724824Y-13932674D01*
X12724824Y-13932674D02*
X12743872Y-13923150D01*
X12743872Y-13923150D02*
X12772443Y-13923150D01*
X12772443Y-13923150D02*
X12791491Y-13932674D01*
X12791491Y-13932674D02*
X12801015Y-13951722D01*
X12801015Y-13951722D02*
X12801015Y-14056484D01*
X13191491Y-13846960D02*
X13020063Y-14104103D01*
X13448634Y-13856484D02*
X13467682Y-13856484D01*
X13467682Y-13856484D02*
X13486729Y-13866008D01*
X13486729Y-13866008D02*
X13496253Y-13875531D01*
X13496253Y-13875531D02*
X13505777Y-13894579D01*
X13505777Y-13894579D02*
X13515301Y-13932674D01*
X13515301Y-13932674D02*
X13515301Y-13980293D01*
X13515301Y-13980293D02*
X13505777Y-14018388D01*
X13505777Y-14018388D02*
X13496253Y-14037436D01*
X13496253Y-14037436D02*
X13486729Y-14046960D01*
X13486729Y-14046960D02*
X13467682Y-14056484D01*
X13467682Y-14056484D02*
X13448634Y-14056484D01*
X13448634Y-14056484D02*
X13429586Y-14046960D01*
X13429586Y-14046960D02*
X13420063Y-14037436D01*
X13420063Y-14037436D02*
X13410539Y-14018388D01*
X13410539Y-14018388D02*
X13401015Y-13980293D01*
X13401015Y-13980293D02*
X13401015Y-13932674D01*
X13401015Y-13932674D02*
X13410539Y-13894579D01*
X13410539Y-13894579D02*
X13420063Y-13875531D01*
X13420063Y-13875531D02*
X13429586Y-13866008D01*
X13429586Y-13866008D02*
X13448634Y-13856484D01*
X13601015Y-14037436D02*
X13610539Y-14046960D01*
X13610539Y-14046960D02*
X13601015Y-14056484D01*
X13601015Y-14056484D02*
X13591491Y-14046960D01*
X13591491Y-14046960D02*
X13601015Y-14037436D01*
X13601015Y-14037436D02*
X13601015Y-14056484D01*
X13734348Y-13856484D02*
X13753396Y-13856484D01*
X13753396Y-13856484D02*
X13772444Y-13866008D01*
X13772444Y-13866008D02*
X13781967Y-13875531D01*
X13781967Y-13875531D02*
X13791491Y-13894579D01*
X13791491Y-13894579D02*
X13801015Y-13932674D01*
X13801015Y-13932674D02*
X13801015Y-13980293D01*
X13801015Y-13980293D02*
X13791491Y-14018388D01*
X13791491Y-14018388D02*
X13781967Y-14037436D01*
X13781967Y-14037436D02*
X13772444Y-14046960D01*
X13772444Y-14046960D02*
X13753396Y-14056484D01*
X13753396Y-14056484D02*
X13734348Y-14056484D01*
X13734348Y-14056484D02*
X13715301Y-14046960D01*
X13715301Y-14046960D02*
X13705777Y-14037436D01*
X13705777Y-14037436D02*
X13696253Y-14018388D01*
X13696253Y-14018388D02*
X13686729Y-13980293D01*
X13686729Y-13980293D02*
X13686729Y-13932674D01*
X13686729Y-13932674D02*
X13696253Y-13894579D01*
X13696253Y-13894579D02*
X13705777Y-13875531D01*
X13705777Y-13875531D02*
X13715301Y-13866008D01*
X13715301Y-13866008D02*
X13734348Y-13856484D01*
X13972444Y-13923150D02*
X13972444Y-14056484D01*
X13924825Y-13846960D02*
X13877206Y-13989817D01*
X13877206Y-13989817D02*
X14001015Y-13989817D01*
X14058158Y-13856484D02*
X14181967Y-13856484D01*
X14181967Y-13856484D02*
X14115301Y-13932674D01*
X14115301Y-13932674D02*
X14143872Y-13932674D01*
X14143872Y-13932674D02*
X14162920Y-13942198D01*
X14162920Y-13942198D02*
X14172444Y-13951722D01*
X14172444Y-13951722D02*
X14181967Y-13970769D01*
X14181967Y-13970769D02*
X14181967Y-14018388D01*
X14181967Y-14018388D02*
X14172444Y-14037436D01*
X14172444Y-14037436D02*
X14162920Y-14046960D01*
X14162920Y-14046960D02*
X14143872Y-14056484D01*
X14143872Y-14056484D02*
X14086729Y-14056484D01*
X14086729Y-14056484D02*
X14067682Y-14046960D01*
X14067682Y-14046960D02*
X14058158Y-14037436D01*
X14248634Y-13856484D02*
X14372444Y-13856484D01*
X14372444Y-13856484D02*
X14305777Y-13932674D01*
X14305777Y-13932674D02*
X14334348Y-13932674D01*
X14334348Y-13932674D02*
X14353396Y-13942198D01*
X14353396Y-13942198D02*
X14362920Y-13951722D01*
X14362920Y-13951722D02*
X14372444Y-13970769D01*
X14372444Y-13970769D02*
X14372444Y-14018388D01*
X14372444Y-14018388D02*
X14362920Y-14037436D01*
X14362920Y-14037436D02*
X14353396Y-14046960D01*
X14353396Y-14046960D02*
X14334348Y-14056484D01*
X14334348Y-14056484D02*
X14277206Y-14056484D01*
X14277206Y-14056484D02*
X14258158Y-14046960D01*
X14258158Y-14046960D02*
X14248634Y-14037436D01*
X14448634Y-13856484D02*
X14448634Y-13894579D01*
X14524825Y-13856484D02*
X14524825Y-13894579D01*
X14820063Y-14132674D02*
X14810539Y-14123150D01*
X14810539Y-14123150D02*
X14791491Y-14094579D01*
X14791491Y-14094579D02*
X14781968Y-14075531D01*
X14781968Y-14075531D02*
X14772444Y-14046960D01*
X14772444Y-14046960D02*
X14762920Y-13999341D01*
X14762920Y-13999341D02*
X14762920Y-13961246D01*
X14762920Y-13961246D02*
X14772444Y-13913627D01*
X14772444Y-13913627D02*
X14781968Y-13885055D01*
X14781968Y-13885055D02*
X14791491Y-13866008D01*
X14791491Y-13866008D02*
X14810539Y-13837436D01*
X14810539Y-13837436D02*
X14820063Y-13827912D01*
X14877206Y-13856484D02*
X15010539Y-13856484D01*
X15010539Y-13856484D02*
X14924825Y-14056484D01*
X15239110Y-14056484D02*
X15239110Y-13856484D01*
X15324825Y-14056484D02*
X15324825Y-13951722D01*
X15324825Y-13951722D02*
X15315301Y-13932674D01*
X15315301Y-13932674D02*
X15296253Y-13923150D01*
X15296253Y-13923150D02*
X15267682Y-13923150D01*
X15267682Y-13923150D02*
X15248634Y-13932674D01*
X15248634Y-13932674D02*
X15239110Y-13942198D01*
X15448634Y-14056484D02*
X15429587Y-14046960D01*
X15429587Y-14046960D02*
X15420063Y-14037436D01*
X15420063Y-14037436D02*
X15410539Y-14018388D01*
X15410539Y-14018388D02*
X15410539Y-13961246D01*
X15410539Y-13961246D02*
X15420063Y-13942198D01*
X15420063Y-13942198D02*
X15429587Y-13932674D01*
X15429587Y-13932674D02*
X15448634Y-13923150D01*
X15448634Y-13923150D02*
X15477206Y-13923150D01*
X15477206Y-13923150D02*
X15496253Y-13932674D01*
X15496253Y-13932674D02*
X15505777Y-13942198D01*
X15505777Y-13942198D02*
X15515301Y-13961246D01*
X15515301Y-13961246D02*
X15515301Y-14018388D01*
X15515301Y-14018388D02*
X15505777Y-14037436D01*
X15505777Y-14037436D02*
X15496253Y-14046960D01*
X15496253Y-14046960D02*
X15477206Y-14056484D01*
X15477206Y-14056484D02*
X15448634Y-14056484D01*
X15629587Y-14056484D02*
X15610539Y-14046960D01*
X15610539Y-14046960D02*
X15601015Y-14027912D01*
X15601015Y-14027912D02*
X15601015Y-13856484D01*
X15781968Y-14046960D02*
X15762920Y-14056484D01*
X15762920Y-14056484D02*
X15724825Y-14056484D01*
X15724825Y-14056484D02*
X15705777Y-14046960D01*
X15705777Y-14046960D02*
X15696253Y-14027912D01*
X15696253Y-14027912D02*
X15696253Y-13951722D01*
X15696253Y-13951722D02*
X15705777Y-13932674D01*
X15705777Y-13932674D02*
X15724825Y-13923150D01*
X15724825Y-13923150D02*
X15762920Y-13923150D01*
X15762920Y-13923150D02*
X15781968Y-13932674D01*
X15781968Y-13932674D02*
X15791491Y-13951722D01*
X15791491Y-13951722D02*
X15791491Y-13970769D01*
X15791491Y-13970769D02*
X15696253Y-13989817D01*
X15867682Y-14046960D02*
X15886730Y-14056484D01*
X15886730Y-14056484D02*
X15924825Y-14056484D01*
X15924825Y-14056484D02*
X15943872Y-14046960D01*
X15943872Y-14046960D02*
X15953396Y-14027912D01*
X15953396Y-14027912D02*
X15953396Y-14018388D01*
X15953396Y-14018388D02*
X15943872Y-13999341D01*
X15943872Y-13999341D02*
X15924825Y-13989817D01*
X15924825Y-13989817D02*
X15896253Y-13989817D01*
X15896253Y-13989817D02*
X15877206Y-13980293D01*
X15877206Y-13980293D02*
X15867682Y-13961246D01*
X15867682Y-13961246D02*
X15867682Y-13951722D01*
X15867682Y-13951722D02*
X15877206Y-13932674D01*
X15877206Y-13932674D02*
X15896253Y-13923150D01*
X15896253Y-13923150D02*
X15924825Y-13923150D01*
X15924825Y-13923150D02*
X15943872Y-13932674D01*
X16020063Y-14132674D02*
X16029587Y-14123150D01*
X16029587Y-14123150D02*
X16048634Y-14094579D01*
X16048634Y-14094579D02*
X16058158Y-14075531D01*
X16058158Y-14075531D02*
X16067682Y-14046960D01*
X16067682Y-14046960D02*
X16077206Y-13999341D01*
X16077206Y-13999341D02*
X16077206Y-13961246D01*
X16077206Y-13961246D02*
X16067682Y-13913627D01*
X16067682Y-13913627D02*
X16058158Y-13885055D01*
X16058158Y-13885055D02*
X16048634Y-13866008D01*
X16048634Y-13866008D02*
X16029587Y-13837436D01*
X16029587Y-13837436D02*
X16020063Y-13827912D01*
D17*
X11125000Y-14169000D02*
X11245000Y-14289000D01*
X11245000Y-14169000D02*
X11125000Y-14289000D01*
X11185000Y-14169000D02*
X11185000Y-14289000D01*
X11125000Y-14229000D02*
X11245000Y-14229000D01*
D11*
X11610539Y-14320484D02*
X11496253Y-14320484D01*
X11553396Y-14320484D02*
X11553396Y-14120484D01*
X11553396Y-14120484D02*
X11534348Y-14149055D01*
X11534348Y-14149055D02*
X11515301Y-14168103D01*
X11515301Y-14168103D02*
X11496253Y-14177627D01*
X11696253Y-14301436D02*
X11705777Y-14310960D01*
X11705777Y-14310960D02*
X11696253Y-14320484D01*
X11696253Y-14320484D02*
X11686729Y-14310960D01*
X11686729Y-14310960D02*
X11696253Y-14301436D01*
X11696253Y-14301436D02*
X11696253Y-14320484D01*
X11781967Y-14139531D02*
X11791491Y-14130008D01*
X11791491Y-14130008D02*
X11810539Y-14120484D01*
X11810539Y-14120484D02*
X11858158Y-14120484D01*
X11858158Y-14120484D02*
X11877205Y-14130008D01*
X11877205Y-14130008D02*
X11886729Y-14139531D01*
X11886729Y-14139531D02*
X11896253Y-14158579D01*
X11896253Y-14158579D02*
X11896253Y-14177627D01*
X11896253Y-14177627D02*
X11886729Y-14206198D01*
X11886729Y-14206198D02*
X11772443Y-14320484D01*
X11772443Y-14320484D02*
X11896253Y-14320484D01*
X12020062Y-14120484D02*
X12039110Y-14120484D01*
X12039110Y-14120484D02*
X12058158Y-14130008D01*
X12058158Y-14130008D02*
X12067682Y-14139531D01*
X12067682Y-14139531D02*
X12077205Y-14158579D01*
X12077205Y-14158579D02*
X12086729Y-14196674D01*
X12086729Y-14196674D02*
X12086729Y-14244293D01*
X12086729Y-14244293D02*
X12077205Y-14282388D01*
X12077205Y-14282388D02*
X12067682Y-14301436D01*
X12067682Y-14301436D02*
X12058158Y-14310960D01*
X12058158Y-14310960D02*
X12039110Y-14320484D01*
X12039110Y-14320484D02*
X12020062Y-14320484D01*
X12020062Y-14320484D02*
X12001015Y-14310960D01*
X12001015Y-14310960D02*
X11991491Y-14301436D01*
X11991491Y-14301436D02*
X11981967Y-14282388D01*
X11981967Y-14282388D02*
X11972443Y-14244293D01*
X11972443Y-14244293D02*
X11972443Y-14196674D01*
X11972443Y-14196674D02*
X11981967Y-14158579D01*
X11981967Y-14158579D02*
X11991491Y-14139531D01*
X11991491Y-14139531D02*
X12001015Y-14130008D01*
X12001015Y-14130008D02*
X12020062Y-14120484D01*
X12210539Y-14120484D02*
X12229586Y-14120484D01*
X12229586Y-14120484D02*
X12248634Y-14130008D01*
X12248634Y-14130008D02*
X12258158Y-14139531D01*
X12258158Y-14139531D02*
X12267682Y-14158579D01*
X12267682Y-14158579D02*
X12277205Y-14196674D01*
X12277205Y-14196674D02*
X12277205Y-14244293D01*
X12277205Y-14244293D02*
X12267682Y-14282388D01*
X12267682Y-14282388D02*
X12258158Y-14301436D01*
X12258158Y-14301436D02*
X12248634Y-14310960D01*
X12248634Y-14310960D02*
X12229586Y-14320484D01*
X12229586Y-14320484D02*
X12210539Y-14320484D01*
X12210539Y-14320484D02*
X12191491Y-14310960D01*
X12191491Y-14310960D02*
X12181967Y-14301436D01*
X12181967Y-14301436D02*
X12172443Y-14282388D01*
X12172443Y-14282388D02*
X12162920Y-14244293D01*
X12162920Y-14244293D02*
X12162920Y-14196674D01*
X12162920Y-14196674D02*
X12172443Y-14158579D01*
X12172443Y-14158579D02*
X12181967Y-14139531D01*
X12181967Y-14139531D02*
X12191491Y-14130008D01*
X12191491Y-14130008D02*
X12210539Y-14120484D01*
X12362920Y-14320484D02*
X12362920Y-14187150D01*
X12362920Y-14206198D02*
X12372443Y-14196674D01*
X12372443Y-14196674D02*
X12391491Y-14187150D01*
X12391491Y-14187150D02*
X12420063Y-14187150D01*
X12420063Y-14187150D02*
X12439110Y-14196674D01*
X12439110Y-14196674D02*
X12448634Y-14215722D01*
X12448634Y-14215722D02*
X12448634Y-14320484D01*
X12448634Y-14215722D02*
X12458158Y-14196674D01*
X12458158Y-14196674D02*
X12477205Y-14187150D01*
X12477205Y-14187150D02*
X12505777Y-14187150D01*
X12505777Y-14187150D02*
X12524824Y-14196674D01*
X12524824Y-14196674D02*
X12534348Y-14215722D01*
X12534348Y-14215722D02*
X12534348Y-14320484D01*
X12629586Y-14320484D02*
X12629586Y-14187150D01*
X12629586Y-14206198D02*
X12639110Y-14196674D01*
X12639110Y-14196674D02*
X12658158Y-14187150D01*
X12658158Y-14187150D02*
X12686729Y-14187150D01*
X12686729Y-14187150D02*
X12705777Y-14196674D01*
X12705777Y-14196674D02*
X12715301Y-14215722D01*
X12715301Y-14215722D02*
X12715301Y-14320484D01*
X12715301Y-14215722D02*
X12724824Y-14196674D01*
X12724824Y-14196674D02*
X12743872Y-14187150D01*
X12743872Y-14187150D02*
X12772443Y-14187150D01*
X12772443Y-14187150D02*
X12791491Y-14196674D01*
X12791491Y-14196674D02*
X12801015Y-14215722D01*
X12801015Y-14215722D02*
X12801015Y-14320484D01*
X13191491Y-14110960D02*
X13020063Y-14368103D01*
X13448634Y-14120484D02*
X13467682Y-14120484D01*
X13467682Y-14120484D02*
X13486729Y-14130008D01*
X13486729Y-14130008D02*
X13496253Y-14139531D01*
X13496253Y-14139531D02*
X13505777Y-14158579D01*
X13505777Y-14158579D02*
X13515301Y-14196674D01*
X13515301Y-14196674D02*
X13515301Y-14244293D01*
X13515301Y-14244293D02*
X13505777Y-14282388D01*
X13505777Y-14282388D02*
X13496253Y-14301436D01*
X13496253Y-14301436D02*
X13486729Y-14310960D01*
X13486729Y-14310960D02*
X13467682Y-14320484D01*
X13467682Y-14320484D02*
X13448634Y-14320484D01*
X13448634Y-14320484D02*
X13429586Y-14310960D01*
X13429586Y-14310960D02*
X13420063Y-14301436D01*
X13420063Y-14301436D02*
X13410539Y-14282388D01*
X13410539Y-14282388D02*
X13401015Y-14244293D01*
X13401015Y-14244293D02*
X13401015Y-14196674D01*
X13401015Y-14196674D02*
X13410539Y-14158579D01*
X13410539Y-14158579D02*
X13420063Y-14139531D01*
X13420063Y-14139531D02*
X13429586Y-14130008D01*
X13429586Y-14130008D02*
X13448634Y-14120484D01*
X13601015Y-14301436D02*
X13610539Y-14310960D01*
X13610539Y-14310960D02*
X13601015Y-14320484D01*
X13601015Y-14320484D02*
X13591491Y-14310960D01*
X13591491Y-14310960D02*
X13601015Y-14301436D01*
X13601015Y-14301436D02*
X13601015Y-14320484D01*
X13734348Y-14120484D02*
X13753396Y-14120484D01*
X13753396Y-14120484D02*
X13772444Y-14130008D01*
X13772444Y-14130008D02*
X13781967Y-14139531D01*
X13781967Y-14139531D02*
X13791491Y-14158579D01*
X13791491Y-14158579D02*
X13801015Y-14196674D01*
X13801015Y-14196674D02*
X13801015Y-14244293D01*
X13801015Y-14244293D02*
X13791491Y-14282388D01*
X13791491Y-14282388D02*
X13781967Y-14301436D01*
X13781967Y-14301436D02*
X13772444Y-14310960D01*
X13772444Y-14310960D02*
X13753396Y-14320484D01*
X13753396Y-14320484D02*
X13734348Y-14320484D01*
X13734348Y-14320484D02*
X13715301Y-14310960D01*
X13715301Y-14310960D02*
X13705777Y-14301436D01*
X13705777Y-14301436D02*
X13696253Y-14282388D01*
X13696253Y-14282388D02*
X13686729Y-14244293D01*
X13686729Y-14244293D02*
X13686729Y-14196674D01*
X13686729Y-14196674D02*
X13696253Y-14158579D01*
X13696253Y-14158579D02*
X13705777Y-14139531D01*
X13705777Y-14139531D02*
X13715301Y-14130008D01*
X13715301Y-14130008D02*
X13734348Y-14120484D01*
X13972444Y-14187150D02*
X13972444Y-14320484D01*
X13924825Y-14110960D02*
X13877206Y-14253817D01*
X13877206Y-14253817D02*
X14001015Y-14253817D01*
X14058158Y-14120484D02*
X14191491Y-14120484D01*
X14191491Y-14120484D02*
X14105777Y-14320484D01*
X14258158Y-14139531D02*
X14267682Y-14130008D01*
X14267682Y-14130008D02*
X14286729Y-14120484D01*
X14286729Y-14120484D02*
X14334348Y-14120484D01*
X14334348Y-14120484D02*
X14353396Y-14130008D01*
X14353396Y-14130008D02*
X14362920Y-14139531D01*
X14362920Y-14139531D02*
X14372444Y-14158579D01*
X14372444Y-14158579D02*
X14372444Y-14177627D01*
X14372444Y-14177627D02*
X14362920Y-14206198D01*
X14362920Y-14206198D02*
X14248634Y-14320484D01*
X14248634Y-14320484D02*
X14372444Y-14320484D01*
X14448634Y-14120484D02*
X14448634Y-14158579D01*
X14524825Y-14120484D02*
X14524825Y-14158579D01*
X14820063Y-14396674D02*
X14810539Y-14387150D01*
X14810539Y-14387150D02*
X14791491Y-14358579D01*
X14791491Y-14358579D02*
X14781968Y-14339531D01*
X14781968Y-14339531D02*
X14772444Y-14310960D01*
X14772444Y-14310960D02*
X14762920Y-14263341D01*
X14762920Y-14263341D02*
X14762920Y-14225246D01*
X14762920Y-14225246D02*
X14772444Y-14177627D01*
X14772444Y-14177627D02*
X14781968Y-14149055D01*
X14781968Y-14149055D02*
X14791491Y-14130008D01*
X14791491Y-14130008D02*
X14810539Y-14101436D01*
X14810539Y-14101436D02*
X14820063Y-14091912D01*
X14981968Y-14187150D02*
X14981968Y-14320484D01*
X14934348Y-14110960D02*
X14886729Y-14253817D01*
X14886729Y-14253817D02*
X15010539Y-14253817D01*
X15239110Y-14320484D02*
X15239110Y-14120484D01*
X15324825Y-14320484D02*
X15324825Y-14215722D01*
X15324825Y-14215722D02*
X15315301Y-14196674D01*
X15315301Y-14196674D02*
X15296253Y-14187150D01*
X15296253Y-14187150D02*
X15267682Y-14187150D01*
X15267682Y-14187150D02*
X15248634Y-14196674D01*
X15248634Y-14196674D02*
X15239110Y-14206198D01*
X15448634Y-14320484D02*
X15429587Y-14310960D01*
X15429587Y-14310960D02*
X15420063Y-14301436D01*
X15420063Y-14301436D02*
X15410539Y-14282388D01*
X15410539Y-14282388D02*
X15410539Y-14225246D01*
X15410539Y-14225246D02*
X15420063Y-14206198D01*
X15420063Y-14206198D02*
X15429587Y-14196674D01*
X15429587Y-14196674D02*
X15448634Y-14187150D01*
X15448634Y-14187150D02*
X15477206Y-14187150D01*
X15477206Y-14187150D02*
X15496253Y-14196674D01*
X15496253Y-14196674D02*
X15505777Y-14206198D01*
X15505777Y-14206198D02*
X15515301Y-14225246D01*
X15515301Y-14225246D02*
X15515301Y-14282388D01*
X15515301Y-14282388D02*
X15505777Y-14301436D01*
X15505777Y-14301436D02*
X15496253Y-14310960D01*
X15496253Y-14310960D02*
X15477206Y-14320484D01*
X15477206Y-14320484D02*
X15448634Y-14320484D01*
X15629587Y-14320484D02*
X15610539Y-14310960D01*
X15610539Y-14310960D02*
X15601015Y-14291912D01*
X15601015Y-14291912D02*
X15601015Y-14120484D01*
X15781968Y-14310960D02*
X15762920Y-14320484D01*
X15762920Y-14320484D02*
X15724825Y-14320484D01*
X15724825Y-14320484D02*
X15705777Y-14310960D01*
X15705777Y-14310960D02*
X15696253Y-14291912D01*
X15696253Y-14291912D02*
X15696253Y-14215722D01*
X15696253Y-14215722D02*
X15705777Y-14196674D01*
X15705777Y-14196674D02*
X15724825Y-14187150D01*
X15724825Y-14187150D02*
X15762920Y-14187150D01*
X15762920Y-14187150D02*
X15781968Y-14196674D01*
X15781968Y-14196674D02*
X15791491Y-14215722D01*
X15791491Y-14215722D02*
X15791491Y-14234769D01*
X15791491Y-14234769D02*
X15696253Y-14253817D01*
X15867682Y-14310960D02*
X15886730Y-14320484D01*
X15886730Y-14320484D02*
X15924825Y-14320484D01*
X15924825Y-14320484D02*
X15943872Y-14310960D01*
X15943872Y-14310960D02*
X15953396Y-14291912D01*
X15953396Y-14291912D02*
X15953396Y-14282388D01*
X15953396Y-14282388D02*
X15943872Y-14263341D01*
X15943872Y-14263341D02*
X15924825Y-14253817D01*
X15924825Y-14253817D02*
X15896253Y-14253817D01*
X15896253Y-14253817D02*
X15877206Y-14244293D01*
X15877206Y-14244293D02*
X15867682Y-14225246D01*
X15867682Y-14225246D02*
X15867682Y-14215722D01*
X15867682Y-14215722D02*
X15877206Y-14196674D01*
X15877206Y-14196674D02*
X15896253Y-14187150D01*
X15896253Y-14187150D02*
X15924825Y-14187150D01*
X15924825Y-14187150D02*
X15943872Y-14196674D01*
X16020063Y-14396674D02*
X16029587Y-14387150D01*
X16029587Y-14387150D02*
X16048634Y-14358579D01*
X16048634Y-14358579D02*
X16058158Y-14339531D01*
X16058158Y-14339531D02*
X16067682Y-14310960D01*
X16067682Y-14310960D02*
X16077206Y-14263341D01*
X16077206Y-14263341D02*
X16077206Y-14225246D01*
X16077206Y-14225246D02*
X16067682Y-14177627D01*
X16067682Y-14177627D02*
X16058158Y-14149055D01*
X16058158Y-14149055D02*
X16048634Y-14130008D01*
X16048634Y-14130008D02*
X16029587Y-14101436D01*
X16029587Y-14101436D02*
X16020063Y-14091912D01*
D18*
X11115000Y-14428000D02*
X11245000Y-14558000D01*
X11245000Y-14428000D02*
X11115000Y-14558000D01*
X11225962Y-14538962D02*
X11225962Y-14447038D01*
X11134038Y-14447038D01*
X11134038Y-14538962D01*
X11225962Y-14538962D01*
D11*
X11610539Y-14584484D02*
X11496253Y-14584484D01*
X11553396Y-14584484D02*
X11553396Y-14384484D01*
X11553396Y-14384484D02*
X11534348Y-14413055D01*
X11534348Y-14413055D02*
X11515301Y-14432103D01*
X11515301Y-14432103D02*
X11496253Y-14441627D01*
X11696253Y-14565436D02*
X11705777Y-14574960D01*
X11705777Y-14574960D02*
X11696253Y-14584484D01*
X11696253Y-14584484D02*
X11686729Y-14574960D01*
X11686729Y-14574960D02*
X11696253Y-14565436D01*
X11696253Y-14565436D02*
X11696253Y-14584484D01*
X11772443Y-14384484D02*
X11896253Y-14384484D01*
X11896253Y-14384484D02*
X11829586Y-14460674D01*
X11829586Y-14460674D02*
X11858158Y-14460674D01*
X11858158Y-14460674D02*
X11877205Y-14470198D01*
X11877205Y-14470198D02*
X11886729Y-14479722D01*
X11886729Y-14479722D02*
X11896253Y-14498769D01*
X11896253Y-14498769D02*
X11896253Y-14546388D01*
X11896253Y-14546388D02*
X11886729Y-14565436D01*
X11886729Y-14565436D02*
X11877205Y-14574960D01*
X11877205Y-14574960D02*
X11858158Y-14584484D01*
X11858158Y-14584484D02*
X11801015Y-14584484D01*
X11801015Y-14584484D02*
X11781967Y-14574960D01*
X11781967Y-14574960D02*
X11772443Y-14565436D01*
X12020062Y-14384484D02*
X12039110Y-14384484D01*
X12039110Y-14384484D02*
X12058158Y-14394008D01*
X12058158Y-14394008D02*
X12067682Y-14403531D01*
X12067682Y-14403531D02*
X12077205Y-14422579D01*
X12077205Y-14422579D02*
X12086729Y-14460674D01*
X12086729Y-14460674D02*
X12086729Y-14508293D01*
X12086729Y-14508293D02*
X12077205Y-14546388D01*
X12077205Y-14546388D02*
X12067682Y-14565436D01*
X12067682Y-14565436D02*
X12058158Y-14574960D01*
X12058158Y-14574960D02*
X12039110Y-14584484D01*
X12039110Y-14584484D02*
X12020062Y-14584484D01*
X12020062Y-14584484D02*
X12001015Y-14574960D01*
X12001015Y-14574960D02*
X11991491Y-14565436D01*
X11991491Y-14565436D02*
X11981967Y-14546388D01*
X11981967Y-14546388D02*
X11972443Y-14508293D01*
X11972443Y-14508293D02*
X11972443Y-14460674D01*
X11972443Y-14460674D02*
X11981967Y-14422579D01*
X11981967Y-14422579D02*
X11991491Y-14403531D01*
X11991491Y-14403531D02*
X12001015Y-14394008D01*
X12001015Y-14394008D02*
X12020062Y-14384484D01*
X12210539Y-14384484D02*
X12229586Y-14384484D01*
X12229586Y-14384484D02*
X12248634Y-14394008D01*
X12248634Y-14394008D02*
X12258158Y-14403531D01*
X12258158Y-14403531D02*
X12267682Y-14422579D01*
X12267682Y-14422579D02*
X12277205Y-14460674D01*
X12277205Y-14460674D02*
X12277205Y-14508293D01*
X12277205Y-14508293D02*
X12267682Y-14546388D01*
X12267682Y-14546388D02*
X12258158Y-14565436D01*
X12258158Y-14565436D02*
X12248634Y-14574960D01*
X12248634Y-14574960D02*
X12229586Y-14584484D01*
X12229586Y-14584484D02*
X12210539Y-14584484D01*
X12210539Y-14584484D02*
X12191491Y-14574960D01*
X12191491Y-14574960D02*
X12181967Y-14565436D01*
X12181967Y-14565436D02*
X12172443Y-14546388D01*
X12172443Y-14546388D02*
X12162920Y-14508293D01*
X12162920Y-14508293D02*
X12162920Y-14460674D01*
X12162920Y-14460674D02*
X12172443Y-14422579D01*
X12172443Y-14422579D02*
X12181967Y-14403531D01*
X12181967Y-14403531D02*
X12191491Y-14394008D01*
X12191491Y-14394008D02*
X12210539Y-14384484D01*
X12362920Y-14584484D02*
X12362920Y-14451150D01*
X12362920Y-14470198D02*
X12372443Y-14460674D01*
X12372443Y-14460674D02*
X12391491Y-14451150D01*
X12391491Y-14451150D02*
X12420063Y-14451150D01*
X12420063Y-14451150D02*
X12439110Y-14460674D01*
X12439110Y-14460674D02*
X12448634Y-14479722D01*
X12448634Y-14479722D02*
X12448634Y-14584484D01*
X12448634Y-14479722D02*
X12458158Y-14460674D01*
X12458158Y-14460674D02*
X12477205Y-14451150D01*
X12477205Y-14451150D02*
X12505777Y-14451150D01*
X12505777Y-14451150D02*
X12524824Y-14460674D01*
X12524824Y-14460674D02*
X12534348Y-14479722D01*
X12534348Y-14479722D02*
X12534348Y-14584484D01*
X12629586Y-14584484D02*
X12629586Y-14451150D01*
X12629586Y-14470198D02*
X12639110Y-14460674D01*
X12639110Y-14460674D02*
X12658158Y-14451150D01*
X12658158Y-14451150D02*
X12686729Y-14451150D01*
X12686729Y-14451150D02*
X12705777Y-14460674D01*
X12705777Y-14460674D02*
X12715301Y-14479722D01*
X12715301Y-14479722D02*
X12715301Y-14584484D01*
X12715301Y-14479722D02*
X12724824Y-14460674D01*
X12724824Y-14460674D02*
X12743872Y-14451150D01*
X12743872Y-14451150D02*
X12772443Y-14451150D01*
X12772443Y-14451150D02*
X12791491Y-14460674D01*
X12791491Y-14460674D02*
X12801015Y-14479722D01*
X12801015Y-14479722D02*
X12801015Y-14584484D01*
X13191491Y-14374960D02*
X13020063Y-14632103D01*
X13448634Y-14384484D02*
X13467682Y-14384484D01*
X13467682Y-14384484D02*
X13486729Y-14394008D01*
X13486729Y-14394008D02*
X13496253Y-14403531D01*
X13496253Y-14403531D02*
X13505777Y-14422579D01*
X13505777Y-14422579D02*
X13515301Y-14460674D01*
X13515301Y-14460674D02*
X13515301Y-14508293D01*
X13515301Y-14508293D02*
X13505777Y-14546388D01*
X13505777Y-14546388D02*
X13496253Y-14565436D01*
X13496253Y-14565436D02*
X13486729Y-14574960D01*
X13486729Y-14574960D02*
X13467682Y-14584484D01*
X13467682Y-14584484D02*
X13448634Y-14584484D01*
X13448634Y-14584484D02*
X13429586Y-14574960D01*
X13429586Y-14574960D02*
X13420063Y-14565436D01*
X13420063Y-14565436D02*
X13410539Y-14546388D01*
X13410539Y-14546388D02*
X13401015Y-14508293D01*
X13401015Y-14508293D02*
X13401015Y-14460674D01*
X13401015Y-14460674D02*
X13410539Y-14422579D01*
X13410539Y-14422579D02*
X13420063Y-14403531D01*
X13420063Y-14403531D02*
X13429586Y-14394008D01*
X13429586Y-14394008D02*
X13448634Y-14384484D01*
X13601015Y-14565436D02*
X13610539Y-14574960D01*
X13610539Y-14574960D02*
X13601015Y-14584484D01*
X13601015Y-14584484D02*
X13591491Y-14574960D01*
X13591491Y-14574960D02*
X13601015Y-14565436D01*
X13601015Y-14565436D02*
X13601015Y-14584484D01*
X13734348Y-14384484D02*
X13753396Y-14384484D01*
X13753396Y-14384484D02*
X13772444Y-14394008D01*
X13772444Y-14394008D02*
X13781967Y-14403531D01*
X13781967Y-14403531D02*
X13791491Y-14422579D01*
X13791491Y-14422579D02*
X13801015Y-14460674D01*
X13801015Y-14460674D02*
X13801015Y-14508293D01*
X13801015Y-14508293D02*
X13791491Y-14546388D01*
X13791491Y-14546388D02*
X13781967Y-14565436D01*
X13781967Y-14565436D02*
X13772444Y-14574960D01*
X13772444Y-14574960D02*
X13753396Y-14584484D01*
X13753396Y-14584484D02*
X13734348Y-14584484D01*
X13734348Y-14584484D02*
X13715301Y-14574960D01*
X13715301Y-14574960D02*
X13705777Y-14565436D01*
X13705777Y-14565436D02*
X13696253Y-14546388D01*
X13696253Y-14546388D02*
X13686729Y-14508293D01*
X13686729Y-14508293D02*
X13686729Y-14460674D01*
X13686729Y-14460674D02*
X13696253Y-14422579D01*
X13696253Y-14422579D02*
X13705777Y-14403531D01*
X13705777Y-14403531D02*
X13715301Y-14394008D01*
X13715301Y-14394008D02*
X13734348Y-14384484D01*
X13981967Y-14384484D02*
X13886729Y-14384484D01*
X13886729Y-14384484D02*
X13877206Y-14479722D01*
X13877206Y-14479722D02*
X13886729Y-14470198D01*
X13886729Y-14470198D02*
X13905777Y-14460674D01*
X13905777Y-14460674D02*
X13953396Y-14460674D01*
X13953396Y-14460674D02*
X13972444Y-14470198D01*
X13972444Y-14470198D02*
X13981967Y-14479722D01*
X13981967Y-14479722D02*
X13991491Y-14498769D01*
X13991491Y-14498769D02*
X13991491Y-14546388D01*
X13991491Y-14546388D02*
X13981967Y-14565436D01*
X13981967Y-14565436D02*
X13972444Y-14574960D01*
X13972444Y-14574960D02*
X13953396Y-14584484D01*
X13953396Y-14584484D02*
X13905777Y-14584484D01*
X13905777Y-14584484D02*
X13886729Y-14574960D01*
X13886729Y-14574960D02*
X13877206Y-14565436D01*
X14181967Y-14584484D02*
X14067682Y-14584484D01*
X14124825Y-14584484D02*
X14124825Y-14384484D01*
X14124825Y-14384484D02*
X14105777Y-14413055D01*
X14105777Y-14413055D02*
X14086729Y-14432103D01*
X14086729Y-14432103D02*
X14067682Y-14441627D01*
X14258158Y-14403531D02*
X14267682Y-14394008D01*
X14267682Y-14394008D02*
X14286729Y-14384484D01*
X14286729Y-14384484D02*
X14334348Y-14384484D01*
X14334348Y-14384484D02*
X14353396Y-14394008D01*
X14353396Y-14394008D02*
X14362920Y-14403531D01*
X14362920Y-14403531D02*
X14372444Y-14422579D01*
X14372444Y-14422579D02*
X14372444Y-14441627D01*
X14372444Y-14441627D02*
X14362920Y-14470198D01*
X14362920Y-14470198D02*
X14248634Y-14584484D01*
X14248634Y-14584484D02*
X14372444Y-14584484D01*
X14448634Y-14384484D02*
X14448634Y-14422579D01*
X14524825Y-14384484D02*
X14524825Y-14422579D01*
X14820063Y-14660674D02*
X14810539Y-14651150D01*
X14810539Y-14651150D02*
X14791491Y-14622579D01*
X14791491Y-14622579D02*
X14781968Y-14603531D01*
X14781968Y-14603531D02*
X14772444Y-14574960D01*
X14772444Y-14574960D02*
X14762920Y-14527341D01*
X14762920Y-14527341D02*
X14762920Y-14489246D01*
X14762920Y-14489246D02*
X14772444Y-14441627D01*
X14772444Y-14441627D02*
X14781968Y-14413055D01*
X14781968Y-14413055D02*
X14791491Y-14394008D01*
X14791491Y-14394008D02*
X14810539Y-14365436D01*
X14810539Y-14365436D02*
X14820063Y-14355912D01*
X14981968Y-14451150D02*
X14981968Y-14584484D01*
X14934348Y-14374960D02*
X14886729Y-14517817D01*
X14886729Y-14517817D02*
X15010539Y-14517817D01*
X15239110Y-14584484D02*
X15239110Y-14384484D01*
X15324825Y-14584484D02*
X15324825Y-14479722D01*
X15324825Y-14479722D02*
X15315301Y-14460674D01*
X15315301Y-14460674D02*
X15296253Y-14451150D01*
X15296253Y-14451150D02*
X15267682Y-14451150D01*
X15267682Y-14451150D02*
X15248634Y-14460674D01*
X15248634Y-14460674D02*
X15239110Y-14470198D01*
X15448634Y-14584484D02*
X15429587Y-14574960D01*
X15429587Y-14574960D02*
X15420063Y-14565436D01*
X15420063Y-14565436D02*
X15410539Y-14546388D01*
X15410539Y-14546388D02*
X15410539Y-14489246D01*
X15410539Y-14489246D02*
X15420063Y-14470198D01*
X15420063Y-14470198D02*
X15429587Y-14460674D01*
X15429587Y-14460674D02*
X15448634Y-14451150D01*
X15448634Y-14451150D02*
X15477206Y-14451150D01*
X15477206Y-14451150D02*
X15496253Y-14460674D01*
X15496253Y-14460674D02*
X15505777Y-14470198D01*
X15505777Y-14470198D02*
X15515301Y-14489246D01*
X15515301Y-14489246D02*
X15515301Y-14546388D01*
X15515301Y-14546388D02*
X15505777Y-14565436D01*
X15505777Y-14565436D02*
X15496253Y-14574960D01*
X15496253Y-14574960D02*
X15477206Y-14584484D01*
X15477206Y-14584484D02*
X15448634Y-14584484D01*
X15629587Y-14584484D02*
X15610539Y-14574960D01*
X15610539Y-14574960D02*
X15601015Y-14555912D01*
X15601015Y-14555912D02*
X15601015Y-14384484D01*
X15781968Y-14574960D02*
X15762920Y-14584484D01*
X15762920Y-14584484D02*
X15724825Y-14584484D01*
X15724825Y-14584484D02*
X15705777Y-14574960D01*
X15705777Y-14574960D02*
X15696253Y-14555912D01*
X15696253Y-14555912D02*
X15696253Y-14479722D01*
X15696253Y-14479722D02*
X15705777Y-14460674D01*
X15705777Y-14460674D02*
X15724825Y-14451150D01*
X15724825Y-14451150D02*
X15762920Y-14451150D01*
X15762920Y-14451150D02*
X15781968Y-14460674D01*
X15781968Y-14460674D02*
X15791491Y-14479722D01*
X15791491Y-14479722D02*
X15791491Y-14498769D01*
X15791491Y-14498769D02*
X15696253Y-14517817D01*
X15867682Y-14574960D02*
X15886730Y-14584484D01*
X15886730Y-14584484D02*
X15924825Y-14584484D01*
X15924825Y-14584484D02*
X15943872Y-14574960D01*
X15943872Y-14574960D02*
X15953396Y-14555912D01*
X15953396Y-14555912D02*
X15953396Y-14546388D01*
X15953396Y-14546388D02*
X15943872Y-14527341D01*
X15943872Y-14527341D02*
X15924825Y-14517817D01*
X15924825Y-14517817D02*
X15896253Y-14517817D01*
X15896253Y-14517817D02*
X15877206Y-14508293D01*
X15877206Y-14508293D02*
X15867682Y-14489246D01*
X15867682Y-14489246D02*
X15867682Y-14479722D01*
X15867682Y-14479722D02*
X15877206Y-14460674D01*
X15877206Y-14460674D02*
X15896253Y-14451150D01*
X15896253Y-14451150D02*
X15924825Y-14451150D01*
X15924825Y-14451150D02*
X15943872Y-14460674D01*
X16020063Y-14660674D02*
X16029587Y-14651150D01*
X16029587Y-14651150D02*
X16048634Y-14622579D01*
X16048634Y-14622579D02*
X16058158Y-14603531D01*
X16058158Y-14603531D02*
X16067682Y-14574960D01*
X16067682Y-14574960D02*
X16077206Y-14527341D01*
X16077206Y-14527341D02*
X16077206Y-14489246D01*
X16077206Y-14489246D02*
X16067682Y-14441627D01*
X16067682Y-14441627D02*
X16058158Y-14413055D01*
X16058158Y-14413055D02*
X16048634Y-14394008D01*
X16048634Y-14394008D02*
X16029587Y-14365436D01*
X16029587Y-14365436D02*
X16020063Y-14355912D01*
X11045000Y-14657000D02*
X11245000Y-14857000D01*
X11245000Y-14657000D02*
X11045000Y-14857000D01*
X11145000Y-14857000D02*
X11245000Y-14757000D01*
X11145000Y-14657000D01*
X11045000Y-14757000D01*
X11145000Y-14857000D01*
X11496253Y-14667531D02*
X11505777Y-14658008D01*
X11505777Y-14658008D02*
X11524824Y-14648484D01*
X11524824Y-14648484D02*
X11572443Y-14648484D01*
X11572443Y-14648484D02*
X11591491Y-14658008D01*
X11591491Y-14658008D02*
X11601015Y-14667531D01*
X11601015Y-14667531D02*
X11610539Y-14686579D01*
X11610539Y-14686579D02*
X11610539Y-14705627D01*
X11610539Y-14705627D02*
X11601015Y-14734198D01*
X11601015Y-14734198D02*
X11486729Y-14848484D01*
X11486729Y-14848484D02*
X11610539Y-14848484D01*
X11696253Y-14829436D02*
X11705777Y-14838960D01*
X11705777Y-14838960D02*
X11696253Y-14848484D01*
X11696253Y-14848484D02*
X11686729Y-14838960D01*
X11686729Y-14838960D02*
X11696253Y-14829436D01*
X11696253Y-14829436D02*
X11696253Y-14848484D01*
X11772443Y-14648484D02*
X11896253Y-14648484D01*
X11896253Y-14648484D02*
X11829586Y-14724674D01*
X11829586Y-14724674D02*
X11858158Y-14724674D01*
X11858158Y-14724674D02*
X11877205Y-14734198D01*
X11877205Y-14734198D02*
X11886729Y-14743722D01*
X11886729Y-14743722D02*
X11896253Y-14762769D01*
X11896253Y-14762769D02*
X11896253Y-14810388D01*
X11896253Y-14810388D02*
X11886729Y-14829436D01*
X11886729Y-14829436D02*
X11877205Y-14838960D01*
X11877205Y-14838960D02*
X11858158Y-14848484D01*
X11858158Y-14848484D02*
X11801015Y-14848484D01*
X11801015Y-14848484D02*
X11781967Y-14838960D01*
X11781967Y-14838960D02*
X11772443Y-14829436D01*
X12020062Y-14648484D02*
X12039110Y-14648484D01*
X12039110Y-14648484D02*
X12058158Y-14658008D01*
X12058158Y-14658008D02*
X12067682Y-14667531D01*
X12067682Y-14667531D02*
X12077205Y-14686579D01*
X12077205Y-14686579D02*
X12086729Y-14724674D01*
X12086729Y-14724674D02*
X12086729Y-14772293D01*
X12086729Y-14772293D02*
X12077205Y-14810388D01*
X12077205Y-14810388D02*
X12067682Y-14829436D01*
X12067682Y-14829436D02*
X12058158Y-14838960D01*
X12058158Y-14838960D02*
X12039110Y-14848484D01*
X12039110Y-14848484D02*
X12020062Y-14848484D01*
X12020062Y-14848484D02*
X12001015Y-14838960D01*
X12001015Y-14838960D02*
X11991491Y-14829436D01*
X11991491Y-14829436D02*
X11981967Y-14810388D01*
X11981967Y-14810388D02*
X11972443Y-14772293D01*
X11972443Y-14772293D02*
X11972443Y-14724674D01*
X11972443Y-14724674D02*
X11981967Y-14686579D01*
X11981967Y-14686579D02*
X11991491Y-14667531D01*
X11991491Y-14667531D02*
X12001015Y-14658008D01*
X12001015Y-14658008D02*
X12020062Y-14648484D01*
X12210539Y-14648484D02*
X12229586Y-14648484D01*
X12229586Y-14648484D02*
X12248634Y-14658008D01*
X12248634Y-14658008D02*
X12258158Y-14667531D01*
X12258158Y-14667531D02*
X12267682Y-14686579D01*
X12267682Y-14686579D02*
X12277205Y-14724674D01*
X12277205Y-14724674D02*
X12277205Y-14772293D01*
X12277205Y-14772293D02*
X12267682Y-14810388D01*
X12267682Y-14810388D02*
X12258158Y-14829436D01*
X12258158Y-14829436D02*
X12248634Y-14838960D01*
X12248634Y-14838960D02*
X12229586Y-14848484D01*
X12229586Y-14848484D02*
X12210539Y-14848484D01*
X12210539Y-14848484D02*
X12191491Y-14838960D01*
X12191491Y-14838960D02*
X12181967Y-14829436D01*
X12181967Y-14829436D02*
X12172443Y-14810388D01*
X12172443Y-14810388D02*
X12162920Y-14772293D01*
X12162920Y-14772293D02*
X12162920Y-14724674D01*
X12162920Y-14724674D02*
X12172443Y-14686579D01*
X12172443Y-14686579D02*
X12181967Y-14667531D01*
X12181967Y-14667531D02*
X12191491Y-14658008D01*
X12191491Y-14658008D02*
X12210539Y-14648484D01*
X12362920Y-14848484D02*
X12362920Y-14715150D01*
X12362920Y-14734198D02*
X12372443Y-14724674D01*
X12372443Y-14724674D02*
X12391491Y-14715150D01*
X12391491Y-14715150D02*
X12420063Y-14715150D01*
X12420063Y-14715150D02*
X12439110Y-14724674D01*
X12439110Y-14724674D02*
X12448634Y-14743722D01*
X12448634Y-14743722D02*
X12448634Y-14848484D01*
X12448634Y-14743722D02*
X12458158Y-14724674D01*
X12458158Y-14724674D02*
X12477205Y-14715150D01*
X12477205Y-14715150D02*
X12505777Y-14715150D01*
X12505777Y-14715150D02*
X12524824Y-14724674D01*
X12524824Y-14724674D02*
X12534348Y-14743722D01*
X12534348Y-14743722D02*
X12534348Y-14848484D01*
X12629586Y-14848484D02*
X12629586Y-14715150D01*
X12629586Y-14734198D02*
X12639110Y-14724674D01*
X12639110Y-14724674D02*
X12658158Y-14715150D01*
X12658158Y-14715150D02*
X12686729Y-14715150D01*
X12686729Y-14715150D02*
X12705777Y-14724674D01*
X12705777Y-14724674D02*
X12715301Y-14743722D01*
X12715301Y-14743722D02*
X12715301Y-14848484D01*
X12715301Y-14743722D02*
X12724824Y-14724674D01*
X12724824Y-14724674D02*
X12743872Y-14715150D01*
X12743872Y-14715150D02*
X12772443Y-14715150D01*
X12772443Y-14715150D02*
X12791491Y-14724674D01*
X12791491Y-14724674D02*
X12801015Y-14743722D01*
X12801015Y-14743722D02*
X12801015Y-14848484D01*
X13191491Y-14638960D02*
X13020063Y-14896103D01*
X13448634Y-14648484D02*
X13467682Y-14648484D01*
X13467682Y-14648484D02*
X13486729Y-14658008D01*
X13486729Y-14658008D02*
X13496253Y-14667531D01*
X13496253Y-14667531D02*
X13505777Y-14686579D01*
X13505777Y-14686579D02*
X13515301Y-14724674D01*
X13515301Y-14724674D02*
X13515301Y-14772293D01*
X13515301Y-14772293D02*
X13505777Y-14810388D01*
X13505777Y-14810388D02*
X13496253Y-14829436D01*
X13496253Y-14829436D02*
X13486729Y-14838960D01*
X13486729Y-14838960D02*
X13467682Y-14848484D01*
X13467682Y-14848484D02*
X13448634Y-14848484D01*
X13448634Y-14848484D02*
X13429586Y-14838960D01*
X13429586Y-14838960D02*
X13420063Y-14829436D01*
X13420063Y-14829436D02*
X13410539Y-14810388D01*
X13410539Y-14810388D02*
X13401015Y-14772293D01*
X13401015Y-14772293D02*
X13401015Y-14724674D01*
X13401015Y-14724674D02*
X13410539Y-14686579D01*
X13410539Y-14686579D02*
X13420063Y-14667531D01*
X13420063Y-14667531D02*
X13429586Y-14658008D01*
X13429586Y-14658008D02*
X13448634Y-14648484D01*
X13601015Y-14829436D02*
X13610539Y-14838960D01*
X13610539Y-14838960D02*
X13601015Y-14848484D01*
X13601015Y-14848484D02*
X13591491Y-14838960D01*
X13591491Y-14838960D02*
X13601015Y-14829436D01*
X13601015Y-14829436D02*
X13601015Y-14848484D01*
X13734348Y-14648484D02*
X13753396Y-14648484D01*
X13753396Y-14648484D02*
X13772444Y-14658008D01*
X13772444Y-14658008D02*
X13781967Y-14667531D01*
X13781967Y-14667531D02*
X13791491Y-14686579D01*
X13791491Y-14686579D02*
X13801015Y-14724674D01*
X13801015Y-14724674D02*
X13801015Y-14772293D01*
X13801015Y-14772293D02*
X13791491Y-14810388D01*
X13791491Y-14810388D02*
X13781967Y-14829436D01*
X13781967Y-14829436D02*
X13772444Y-14838960D01*
X13772444Y-14838960D02*
X13753396Y-14848484D01*
X13753396Y-14848484D02*
X13734348Y-14848484D01*
X13734348Y-14848484D02*
X13715301Y-14838960D01*
X13715301Y-14838960D02*
X13705777Y-14829436D01*
X13705777Y-14829436D02*
X13696253Y-14810388D01*
X13696253Y-14810388D02*
X13686729Y-14772293D01*
X13686729Y-14772293D02*
X13686729Y-14724674D01*
X13686729Y-14724674D02*
X13696253Y-14686579D01*
X13696253Y-14686579D02*
X13705777Y-14667531D01*
X13705777Y-14667531D02*
X13715301Y-14658008D01*
X13715301Y-14658008D02*
X13734348Y-14648484D01*
X13896253Y-14848484D02*
X13934348Y-14848484D01*
X13934348Y-14848484D02*
X13953396Y-14838960D01*
X13953396Y-14838960D02*
X13962920Y-14829436D01*
X13962920Y-14829436D02*
X13981967Y-14800865D01*
X13981967Y-14800865D02*
X13991491Y-14762769D01*
X13991491Y-14762769D02*
X13991491Y-14686579D01*
X13991491Y-14686579D02*
X13981967Y-14667531D01*
X13981967Y-14667531D02*
X13972444Y-14658008D01*
X13972444Y-14658008D02*
X13953396Y-14648484D01*
X13953396Y-14648484D02*
X13915301Y-14648484D01*
X13915301Y-14648484D02*
X13896253Y-14658008D01*
X13896253Y-14658008D02*
X13886729Y-14667531D01*
X13886729Y-14667531D02*
X13877206Y-14686579D01*
X13877206Y-14686579D02*
X13877206Y-14734198D01*
X13877206Y-14734198D02*
X13886729Y-14753246D01*
X13886729Y-14753246D02*
X13896253Y-14762769D01*
X13896253Y-14762769D02*
X13915301Y-14772293D01*
X13915301Y-14772293D02*
X13953396Y-14772293D01*
X13953396Y-14772293D02*
X13972444Y-14762769D01*
X13972444Y-14762769D02*
X13981967Y-14753246D01*
X13981967Y-14753246D02*
X13991491Y-14734198D01*
X14115301Y-14648484D02*
X14134348Y-14648484D01*
X14134348Y-14648484D02*
X14153396Y-14658008D01*
X14153396Y-14658008D02*
X14162920Y-14667531D01*
X14162920Y-14667531D02*
X14172444Y-14686579D01*
X14172444Y-14686579D02*
X14181967Y-14724674D01*
X14181967Y-14724674D02*
X14181967Y-14772293D01*
X14181967Y-14772293D02*
X14172444Y-14810388D01*
X14172444Y-14810388D02*
X14162920Y-14829436D01*
X14162920Y-14829436D02*
X14153396Y-14838960D01*
X14153396Y-14838960D02*
X14134348Y-14848484D01*
X14134348Y-14848484D02*
X14115301Y-14848484D01*
X14115301Y-14848484D02*
X14096253Y-14838960D01*
X14096253Y-14838960D02*
X14086729Y-14829436D01*
X14086729Y-14829436D02*
X14077206Y-14810388D01*
X14077206Y-14810388D02*
X14067682Y-14772293D01*
X14067682Y-14772293D02*
X14067682Y-14724674D01*
X14067682Y-14724674D02*
X14077206Y-14686579D01*
X14077206Y-14686579D02*
X14086729Y-14667531D01*
X14086729Y-14667531D02*
X14096253Y-14658008D01*
X14096253Y-14658008D02*
X14115301Y-14648484D01*
X14353396Y-14648484D02*
X14315301Y-14648484D01*
X14315301Y-14648484D02*
X14296253Y-14658008D01*
X14296253Y-14658008D02*
X14286729Y-14667531D01*
X14286729Y-14667531D02*
X14267682Y-14696103D01*
X14267682Y-14696103D02*
X14258158Y-14734198D01*
X14258158Y-14734198D02*
X14258158Y-14810388D01*
X14258158Y-14810388D02*
X14267682Y-14829436D01*
X14267682Y-14829436D02*
X14277206Y-14838960D01*
X14277206Y-14838960D02*
X14296253Y-14848484D01*
X14296253Y-14848484D02*
X14334348Y-14848484D01*
X14334348Y-14848484D02*
X14353396Y-14838960D01*
X14353396Y-14838960D02*
X14362920Y-14829436D01*
X14362920Y-14829436D02*
X14372444Y-14810388D01*
X14372444Y-14810388D02*
X14372444Y-14762769D01*
X14372444Y-14762769D02*
X14362920Y-14743722D01*
X14362920Y-14743722D02*
X14353396Y-14734198D01*
X14353396Y-14734198D02*
X14334348Y-14724674D01*
X14334348Y-14724674D02*
X14296253Y-14724674D01*
X14296253Y-14724674D02*
X14277206Y-14734198D01*
X14277206Y-14734198D02*
X14267682Y-14743722D01*
X14267682Y-14743722D02*
X14258158Y-14762769D01*
X14448634Y-14648484D02*
X14448634Y-14686579D01*
X14524825Y-14648484D02*
X14524825Y-14686579D01*
X14820063Y-14924674D02*
X14810539Y-14915150D01*
X14810539Y-14915150D02*
X14791491Y-14886579D01*
X14791491Y-14886579D02*
X14781968Y-14867531D01*
X14781968Y-14867531D02*
X14772444Y-14838960D01*
X14772444Y-14838960D02*
X14762920Y-14791341D01*
X14762920Y-14791341D02*
X14762920Y-14753246D01*
X14762920Y-14753246D02*
X14772444Y-14705627D01*
X14772444Y-14705627D02*
X14781968Y-14677055D01*
X14781968Y-14677055D02*
X14791491Y-14658008D01*
X14791491Y-14658008D02*
X14810539Y-14629436D01*
X14810539Y-14629436D02*
X14820063Y-14619912D01*
X14886729Y-14667531D02*
X14896253Y-14658008D01*
X14896253Y-14658008D02*
X14915301Y-14648484D01*
X14915301Y-14648484D02*
X14962920Y-14648484D01*
X14962920Y-14648484D02*
X14981968Y-14658008D01*
X14981968Y-14658008D02*
X14991491Y-14667531D01*
X14991491Y-14667531D02*
X15001015Y-14686579D01*
X15001015Y-14686579D02*
X15001015Y-14705627D01*
X15001015Y-14705627D02*
X14991491Y-14734198D01*
X14991491Y-14734198D02*
X14877206Y-14848484D01*
X14877206Y-14848484D02*
X15001015Y-14848484D01*
X15239110Y-14848484D02*
X15239110Y-14648484D01*
X15324825Y-14848484D02*
X15324825Y-14743722D01*
X15324825Y-14743722D02*
X15315301Y-14724674D01*
X15315301Y-14724674D02*
X15296253Y-14715150D01*
X15296253Y-14715150D02*
X15267682Y-14715150D01*
X15267682Y-14715150D02*
X15248634Y-14724674D01*
X15248634Y-14724674D02*
X15239110Y-14734198D01*
X15448634Y-14848484D02*
X15429587Y-14838960D01*
X15429587Y-14838960D02*
X15420063Y-14829436D01*
X15420063Y-14829436D02*
X15410539Y-14810388D01*
X15410539Y-14810388D02*
X15410539Y-14753246D01*
X15410539Y-14753246D02*
X15420063Y-14734198D01*
X15420063Y-14734198D02*
X15429587Y-14724674D01*
X15429587Y-14724674D02*
X15448634Y-14715150D01*
X15448634Y-14715150D02*
X15477206Y-14715150D01*
X15477206Y-14715150D02*
X15496253Y-14724674D01*
X15496253Y-14724674D02*
X15505777Y-14734198D01*
X15505777Y-14734198D02*
X15515301Y-14753246D01*
X15515301Y-14753246D02*
X15515301Y-14810388D01*
X15515301Y-14810388D02*
X15505777Y-14829436D01*
X15505777Y-14829436D02*
X15496253Y-14838960D01*
X15496253Y-14838960D02*
X15477206Y-14848484D01*
X15477206Y-14848484D02*
X15448634Y-14848484D01*
X15629587Y-14848484D02*
X15610539Y-14838960D01*
X15610539Y-14838960D02*
X15601015Y-14819912D01*
X15601015Y-14819912D02*
X15601015Y-14648484D01*
X15781968Y-14838960D02*
X15762920Y-14848484D01*
X15762920Y-14848484D02*
X15724825Y-14848484D01*
X15724825Y-14848484D02*
X15705777Y-14838960D01*
X15705777Y-14838960D02*
X15696253Y-14819912D01*
X15696253Y-14819912D02*
X15696253Y-14743722D01*
X15696253Y-14743722D02*
X15705777Y-14724674D01*
X15705777Y-14724674D02*
X15724825Y-14715150D01*
X15724825Y-14715150D02*
X15762920Y-14715150D01*
X15762920Y-14715150D02*
X15781968Y-14724674D01*
X15781968Y-14724674D02*
X15791491Y-14743722D01*
X15791491Y-14743722D02*
X15791491Y-14762769D01*
X15791491Y-14762769D02*
X15696253Y-14781817D01*
X15867682Y-14838960D02*
X15886730Y-14848484D01*
X15886730Y-14848484D02*
X15924825Y-14848484D01*
X15924825Y-14848484D02*
X15943872Y-14838960D01*
X15943872Y-14838960D02*
X15953396Y-14819912D01*
X15953396Y-14819912D02*
X15953396Y-14810388D01*
X15953396Y-14810388D02*
X15943872Y-14791341D01*
X15943872Y-14791341D02*
X15924825Y-14781817D01*
X15924825Y-14781817D02*
X15896253Y-14781817D01*
X15896253Y-14781817D02*
X15877206Y-14772293D01*
X15877206Y-14772293D02*
X15867682Y-14753246D01*
X15867682Y-14753246D02*
X15867682Y-14743722D01*
X15867682Y-14743722D02*
X15877206Y-14724674D01*
X15877206Y-14724674D02*
X15896253Y-14715150D01*
X15896253Y-14715150D02*
X15924825Y-14715150D01*
X15924825Y-14715150D02*
X15943872Y-14724674D01*
X16020063Y-14924674D02*
X16029587Y-14915150D01*
X16029587Y-14915150D02*
X16048634Y-14886579D01*
X16048634Y-14886579D02*
X16058158Y-14867531D01*
X16058158Y-14867531D02*
X16067682Y-14838960D01*
X16067682Y-14838960D02*
X16077206Y-14791341D01*
X16077206Y-14791341D02*
X16077206Y-14753246D01*
X16077206Y-14753246D02*
X16067682Y-14705627D01*
X16067682Y-14705627D02*
X16058158Y-14677055D01*
X16058158Y-14677055D02*
X16048634Y-14658008D01*
X16048634Y-14658008D02*
X16029587Y-14629436D01*
X16029587Y-14629436D02*
X16020063Y-14619912D01*
X11145000Y-14977000D02*
X11145000Y-15177000D01*
X11045000Y-15077000D02*
X11245000Y-15077000D01*
X11245000Y-15077000D02*
G75*
G03*
X11245000Y-15077000I-100000J0D01*
G01*
X11486729Y-14968484D02*
X11610539Y-14968484D01*
X11610539Y-14968484D02*
X11543872Y-15044674D01*
X11543872Y-15044674D02*
X11572443Y-15044674D01*
X11572443Y-15044674D02*
X11591491Y-15054198D01*
X11591491Y-15054198D02*
X11601015Y-15063722D01*
X11601015Y-15063722D02*
X11610539Y-15082769D01*
X11610539Y-15082769D02*
X11610539Y-15130388D01*
X11610539Y-15130388D02*
X11601015Y-15149436D01*
X11601015Y-15149436D02*
X11591491Y-15158960D01*
X11591491Y-15158960D02*
X11572443Y-15168484D01*
X11572443Y-15168484D02*
X11515301Y-15168484D01*
X11515301Y-15168484D02*
X11496253Y-15158960D01*
X11496253Y-15158960D02*
X11486729Y-15149436D01*
X11696253Y-15149436D02*
X11705777Y-15158960D01*
X11705777Y-15158960D02*
X11696253Y-15168484D01*
X11696253Y-15168484D02*
X11686729Y-15158960D01*
X11686729Y-15158960D02*
X11696253Y-15149436D01*
X11696253Y-15149436D02*
X11696253Y-15168484D01*
X11781967Y-14987531D02*
X11791491Y-14978008D01*
X11791491Y-14978008D02*
X11810539Y-14968484D01*
X11810539Y-14968484D02*
X11858158Y-14968484D01*
X11858158Y-14968484D02*
X11877205Y-14978008D01*
X11877205Y-14978008D02*
X11886729Y-14987531D01*
X11886729Y-14987531D02*
X11896253Y-15006579D01*
X11896253Y-15006579D02*
X11896253Y-15025627D01*
X11896253Y-15025627D02*
X11886729Y-15054198D01*
X11886729Y-15054198D02*
X11772443Y-15168484D01*
X11772443Y-15168484D02*
X11896253Y-15168484D01*
X12020062Y-14968484D02*
X12039110Y-14968484D01*
X12039110Y-14968484D02*
X12058158Y-14978008D01*
X12058158Y-14978008D02*
X12067682Y-14987531D01*
X12067682Y-14987531D02*
X12077205Y-15006579D01*
X12077205Y-15006579D02*
X12086729Y-15044674D01*
X12086729Y-15044674D02*
X12086729Y-15092293D01*
X12086729Y-15092293D02*
X12077205Y-15130388D01*
X12077205Y-15130388D02*
X12067682Y-15149436D01*
X12067682Y-15149436D02*
X12058158Y-15158960D01*
X12058158Y-15158960D02*
X12039110Y-15168484D01*
X12039110Y-15168484D02*
X12020062Y-15168484D01*
X12020062Y-15168484D02*
X12001015Y-15158960D01*
X12001015Y-15158960D02*
X11991491Y-15149436D01*
X11991491Y-15149436D02*
X11981967Y-15130388D01*
X11981967Y-15130388D02*
X11972443Y-15092293D01*
X11972443Y-15092293D02*
X11972443Y-15044674D01*
X11972443Y-15044674D02*
X11981967Y-15006579D01*
X11981967Y-15006579D02*
X11991491Y-14987531D01*
X11991491Y-14987531D02*
X12001015Y-14978008D01*
X12001015Y-14978008D02*
X12020062Y-14968484D01*
X12210539Y-14968484D02*
X12229586Y-14968484D01*
X12229586Y-14968484D02*
X12248634Y-14978008D01*
X12248634Y-14978008D02*
X12258158Y-14987531D01*
X12258158Y-14987531D02*
X12267682Y-15006579D01*
X12267682Y-15006579D02*
X12277205Y-15044674D01*
X12277205Y-15044674D02*
X12277205Y-15092293D01*
X12277205Y-15092293D02*
X12267682Y-15130388D01*
X12267682Y-15130388D02*
X12258158Y-15149436D01*
X12258158Y-15149436D02*
X12248634Y-15158960D01*
X12248634Y-15158960D02*
X12229586Y-15168484D01*
X12229586Y-15168484D02*
X12210539Y-15168484D01*
X12210539Y-15168484D02*
X12191491Y-15158960D01*
X12191491Y-15158960D02*
X12181967Y-15149436D01*
X12181967Y-15149436D02*
X12172443Y-15130388D01*
X12172443Y-15130388D02*
X12162920Y-15092293D01*
X12162920Y-15092293D02*
X12162920Y-15044674D01*
X12162920Y-15044674D02*
X12172443Y-15006579D01*
X12172443Y-15006579D02*
X12181967Y-14987531D01*
X12181967Y-14987531D02*
X12191491Y-14978008D01*
X12191491Y-14978008D02*
X12210539Y-14968484D01*
X12362920Y-15168484D02*
X12362920Y-15035150D01*
X12362920Y-15054198D02*
X12372443Y-15044674D01*
X12372443Y-15044674D02*
X12391491Y-15035150D01*
X12391491Y-15035150D02*
X12420063Y-15035150D01*
X12420063Y-15035150D02*
X12439110Y-15044674D01*
X12439110Y-15044674D02*
X12448634Y-15063722D01*
X12448634Y-15063722D02*
X12448634Y-15168484D01*
X12448634Y-15063722D02*
X12458158Y-15044674D01*
X12458158Y-15044674D02*
X12477205Y-15035150D01*
X12477205Y-15035150D02*
X12505777Y-15035150D01*
X12505777Y-15035150D02*
X12524824Y-15044674D01*
X12524824Y-15044674D02*
X12534348Y-15063722D01*
X12534348Y-15063722D02*
X12534348Y-15168484D01*
X12629586Y-15168484D02*
X12629586Y-15035150D01*
X12629586Y-15054198D02*
X12639110Y-15044674D01*
X12639110Y-15044674D02*
X12658158Y-15035150D01*
X12658158Y-15035150D02*
X12686729Y-15035150D01*
X12686729Y-15035150D02*
X12705777Y-15044674D01*
X12705777Y-15044674D02*
X12715301Y-15063722D01*
X12715301Y-15063722D02*
X12715301Y-15168484D01*
X12715301Y-15063722D02*
X12724824Y-15044674D01*
X12724824Y-15044674D02*
X12743872Y-15035150D01*
X12743872Y-15035150D02*
X12772443Y-15035150D01*
X12772443Y-15035150D02*
X12791491Y-15044674D01*
X12791491Y-15044674D02*
X12801015Y-15063722D01*
X12801015Y-15063722D02*
X12801015Y-15168484D01*
X13191491Y-14958960D02*
X13020063Y-15216103D01*
X13448634Y-14968484D02*
X13467682Y-14968484D01*
X13467682Y-14968484D02*
X13486729Y-14978008D01*
X13486729Y-14978008D02*
X13496253Y-14987531D01*
X13496253Y-14987531D02*
X13505777Y-15006579D01*
X13505777Y-15006579D02*
X13515301Y-15044674D01*
X13515301Y-15044674D02*
X13515301Y-15092293D01*
X13515301Y-15092293D02*
X13505777Y-15130388D01*
X13505777Y-15130388D02*
X13496253Y-15149436D01*
X13496253Y-15149436D02*
X13486729Y-15158960D01*
X13486729Y-15158960D02*
X13467682Y-15168484D01*
X13467682Y-15168484D02*
X13448634Y-15168484D01*
X13448634Y-15168484D02*
X13429586Y-15158960D01*
X13429586Y-15158960D02*
X13420063Y-15149436D01*
X13420063Y-15149436D02*
X13410539Y-15130388D01*
X13410539Y-15130388D02*
X13401015Y-15092293D01*
X13401015Y-15092293D02*
X13401015Y-15044674D01*
X13401015Y-15044674D02*
X13410539Y-15006579D01*
X13410539Y-15006579D02*
X13420063Y-14987531D01*
X13420063Y-14987531D02*
X13429586Y-14978008D01*
X13429586Y-14978008D02*
X13448634Y-14968484D01*
X13601015Y-15149436D02*
X13610539Y-15158960D01*
X13610539Y-15158960D02*
X13601015Y-15168484D01*
X13601015Y-15168484D02*
X13591491Y-15158960D01*
X13591491Y-15158960D02*
X13601015Y-15149436D01*
X13601015Y-15149436D02*
X13601015Y-15168484D01*
X13801015Y-15168484D02*
X13686729Y-15168484D01*
X13743872Y-15168484D02*
X13743872Y-14968484D01*
X13743872Y-14968484D02*
X13724825Y-14997055D01*
X13724825Y-14997055D02*
X13705777Y-15016103D01*
X13705777Y-15016103D02*
X13686729Y-15025627D01*
X13877206Y-14987531D02*
X13886729Y-14978008D01*
X13886729Y-14978008D02*
X13905777Y-14968484D01*
X13905777Y-14968484D02*
X13953396Y-14968484D01*
X13953396Y-14968484D02*
X13972444Y-14978008D01*
X13972444Y-14978008D02*
X13981967Y-14987531D01*
X13981967Y-14987531D02*
X13991491Y-15006579D01*
X13991491Y-15006579D02*
X13991491Y-15025627D01*
X13991491Y-15025627D02*
X13981967Y-15054198D01*
X13981967Y-15054198D02*
X13867682Y-15168484D01*
X13867682Y-15168484D02*
X13991491Y-15168484D01*
X14162920Y-14968484D02*
X14124825Y-14968484D01*
X14124825Y-14968484D02*
X14105777Y-14978008D01*
X14105777Y-14978008D02*
X14096253Y-14987531D01*
X14096253Y-14987531D02*
X14077206Y-15016103D01*
X14077206Y-15016103D02*
X14067682Y-15054198D01*
X14067682Y-15054198D02*
X14067682Y-15130388D01*
X14067682Y-15130388D02*
X14077206Y-15149436D01*
X14077206Y-15149436D02*
X14086729Y-15158960D01*
X14086729Y-15158960D02*
X14105777Y-15168484D01*
X14105777Y-15168484D02*
X14143872Y-15168484D01*
X14143872Y-15168484D02*
X14162920Y-15158960D01*
X14162920Y-15158960D02*
X14172444Y-15149436D01*
X14172444Y-15149436D02*
X14181967Y-15130388D01*
X14181967Y-15130388D02*
X14181967Y-15082769D01*
X14181967Y-15082769D02*
X14172444Y-15063722D01*
X14172444Y-15063722D02*
X14162920Y-15054198D01*
X14162920Y-15054198D02*
X14143872Y-15044674D01*
X14143872Y-15044674D02*
X14105777Y-15044674D01*
X14105777Y-15044674D02*
X14086729Y-15054198D01*
X14086729Y-15054198D02*
X14077206Y-15063722D01*
X14077206Y-15063722D02*
X14067682Y-15082769D01*
X14305777Y-14968484D02*
X14324825Y-14968484D01*
X14324825Y-14968484D02*
X14343872Y-14978008D01*
X14343872Y-14978008D02*
X14353396Y-14987531D01*
X14353396Y-14987531D02*
X14362920Y-15006579D01*
X14362920Y-15006579D02*
X14372444Y-15044674D01*
X14372444Y-15044674D02*
X14372444Y-15092293D01*
X14372444Y-15092293D02*
X14362920Y-15130388D01*
X14362920Y-15130388D02*
X14353396Y-15149436D01*
X14353396Y-15149436D02*
X14343872Y-15158960D01*
X14343872Y-15158960D02*
X14324825Y-15168484D01*
X14324825Y-15168484D02*
X14305777Y-15168484D01*
X14305777Y-15168484D02*
X14286729Y-15158960D01*
X14286729Y-15158960D02*
X14277206Y-15149436D01*
X14277206Y-15149436D02*
X14267682Y-15130388D01*
X14267682Y-15130388D02*
X14258158Y-15092293D01*
X14258158Y-15092293D02*
X14258158Y-15044674D01*
X14258158Y-15044674D02*
X14267682Y-15006579D01*
X14267682Y-15006579D02*
X14277206Y-14987531D01*
X14277206Y-14987531D02*
X14286729Y-14978008D01*
X14286729Y-14978008D02*
X14305777Y-14968484D01*
X14448634Y-14968484D02*
X14448634Y-15006579D01*
X14524825Y-14968484D02*
X14524825Y-15006579D01*
X14820063Y-15244674D02*
X14810539Y-15235150D01*
X14810539Y-15235150D02*
X14791491Y-15206579D01*
X14791491Y-15206579D02*
X14781968Y-15187531D01*
X14781968Y-15187531D02*
X14772444Y-15158960D01*
X14772444Y-15158960D02*
X14762920Y-15111341D01*
X14762920Y-15111341D02*
X14762920Y-15073246D01*
X14762920Y-15073246D02*
X14772444Y-15025627D01*
X14772444Y-15025627D02*
X14781968Y-14997055D01*
X14781968Y-14997055D02*
X14791491Y-14978008D01*
X14791491Y-14978008D02*
X14810539Y-14949436D01*
X14810539Y-14949436D02*
X14820063Y-14939912D01*
X14981968Y-15035150D02*
X14981968Y-15168484D01*
X14934348Y-14958960D02*
X14886729Y-15101817D01*
X14886729Y-15101817D02*
X15010539Y-15101817D01*
X15239110Y-15168484D02*
X15239110Y-14968484D01*
X15324825Y-15168484D02*
X15324825Y-15063722D01*
X15324825Y-15063722D02*
X15315301Y-15044674D01*
X15315301Y-15044674D02*
X15296253Y-15035150D01*
X15296253Y-15035150D02*
X15267682Y-15035150D01*
X15267682Y-15035150D02*
X15248634Y-15044674D01*
X15248634Y-15044674D02*
X15239110Y-15054198D01*
X15448634Y-15168484D02*
X15429587Y-15158960D01*
X15429587Y-15158960D02*
X15420063Y-15149436D01*
X15420063Y-15149436D02*
X15410539Y-15130388D01*
X15410539Y-15130388D02*
X15410539Y-15073246D01*
X15410539Y-15073246D02*
X15420063Y-15054198D01*
X15420063Y-15054198D02*
X15429587Y-15044674D01*
X15429587Y-15044674D02*
X15448634Y-15035150D01*
X15448634Y-15035150D02*
X15477206Y-15035150D01*
X15477206Y-15035150D02*
X15496253Y-15044674D01*
X15496253Y-15044674D02*
X15505777Y-15054198D01*
X15505777Y-15054198D02*
X15515301Y-15073246D01*
X15515301Y-15073246D02*
X15515301Y-15130388D01*
X15515301Y-15130388D02*
X15505777Y-15149436D01*
X15505777Y-15149436D02*
X15496253Y-15158960D01*
X15496253Y-15158960D02*
X15477206Y-15168484D01*
X15477206Y-15168484D02*
X15448634Y-15168484D01*
X15629587Y-15168484D02*
X15610539Y-15158960D01*
X15610539Y-15158960D02*
X15601015Y-15139912D01*
X15601015Y-15139912D02*
X15601015Y-14968484D01*
X15781968Y-15158960D02*
X15762920Y-15168484D01*
X15762920Y-15168484D02*
X15724825Y-15168484D01*
X15724825Y-15168484D02*
X15705777Y-15158960D01*
X15705777Y-15158960D02*
X15696253Y-15139912D01*
X15696253Y-15139912D02*
X15696253Y-15063722D01*
X15696253Y-15063722D02*
X15705777Y-15044674D01*
X15705777Y-15044674D02*
X15724825Y-15035150D01*
X15724825Y-15035150D02*
X15762920Y-15035150D01*
X15762920Y-15035150D02*
X15781968Y-15044674D01*
X15781968Y-15044674D02*
X15791491Y-15063722D01*
X15791491Y-15063722D02*
X15791491Y-15082769D01*
X15791491Y-15082769D02*
X15696253Y-15101817D01*
X15867682Y-15158960D02*
X15886730Y-15168484D01*
X15886730Y-15168484D02*
X15924825Y-15168484D01*
X15924825Y-15168484D02*
X15943872Y-15158960D01*
X15943872Y-15158960D02*
X15953396Y-15139912D01*
X15953396Y-15139912D02*
X15953396Y-15130388D01*
X15953396Y-15130388D02*
X15943872Y-15111341D01*
X15943872Y-15111341D02*
X15924825Y-15101817D01*
X15924825Y-15101817D02*
X15896253Y-15101817D01*
X15896253Y-15101817D02*
X15877206Y-15092293D01*
X15877206Y-15092293D02*
X15867682Y-15073246D01*
X15867682Y-15073246D02*
X15867682Y-15063722D01*
X15867682Y-15063722D02*
X15877206Y-15044674D01*
X15877206Y-15044674D02*
X15896253Y-15035150D01*
X15896253Y-15035150D02*
X15924825Y-15035150D01*
X15924825Y-15035150D02*
X15943872Y-15044674D01*
X16020063Y-15244674D02*
X16029587Y-15235150D01*
X16029587Y-15235150D02*
X16048634Y-15206579D01*
X16048634Y-15206579D02*
X16058158Y-15187531D01*
X16058158Y-15187531D02*
X16067682Y-15158960D01*
X16067682Y-15158960D02*
X16077206Y-15111341D01*
X16077206Y-15111341D02*
X16077206Y-15073246D01*
X16077206Y-15073246D02*
X16067682Y-15025627D01*
X16067682Y-15025627D02*
X16058158Y-14997055D01*
X16058158Y-14997055D02*
X16048634Y-14978008D01*
X16048634Y-14978008D02*
X16029587Y-14949436D01*
X16029587Y-14949436D02*
X16020063Y-14939912D01*
X16381968Y-15244674D02*
X16372444Y-15235150D01*
X16372444Y-15235150D02*
X16353396Y-15206579D01*
X16353396Y-15206579D02*
X16343872Y-15187531D01*
X16343872Y-15187531D02*
X16334349Y-15158960D01*
X16334349Y-15158960D02*
X16324825Y-15111341D01*
X16324825Y-15111341D02*
X16324825Y-15073246D01*
X16324825Y-15073246D02*
X16334349Y-15025627D01*
X16334349Y-15025627D02*
X16343872Y-14997055D01*
X16343872Y-14997055D02*
X16353396Y-14978008D01*
X16353396Y-14978008D02*
X16372444Y-14949436D01*
X16372444Y-14949436D02*
X16381968Y-14939912D01*
X16458158Y-15035150D02*
X16458158Y-15168484D01*
X16458158Y-15054198D02*
X16467682Y-15044674D01*
X16467682Y-15044674D02*
X16486730Y-15035150D01*
X16486730Y-15035150D02*
X16515301Y-15035150D01*
X16515301Y-15035150D02*
X16534349Y-15044674D01*
X16534349Y-15044674D02*
X16543872Y-15063722D01*
X16543872Y-15063722D02*
X16543872Y-15168484D01*
X16667682Y-15168484D02*
X16648634Y-15158960D01*
X16648634Y-15158960D02*
X16639111Y-15149436D01*
X16639111Y-15149436D02*
X16629587Y-15130388D01*
X16629587Y-15130388D02*
X16629587Y-15073246D01*
X16629587Y-15073246D02*
X16639111Y-15054198D01*
X16639111Y-15054198D02*
X16648634Y-15044674D01*
X16648634Y-15044674D02*
X16667682Y-15035150D01*
X16667682Y-15035150D02*
X16696253Y-15035150D01*
X16696253Y-15035150D02*
X16715301Y-15044674D01*
X16715301Y-15044674D02*
X16724825Y-15054198D01*
X16724825Y-15054198D02*
X16734349Y-15073246D01*
X16734349Y-15073246D02*
X16734349Y-15130388D01*
X16734349Y-15130388D02*
X16724825Y-15149436D01*
X16724825Y-15149436D02*
X16715301Y-15158960D01*
X16715301Y-15158960D02*
X16696253Y-15168484D01*
X16696253Y-15168484D02*
X16667682Y-15168484D01*
X16791492Y-15035150D02*
X16867682Y-15035150D01*
X16820063Y-14968484D02*
X16820063Y-15139912D01*
X16820063Y-15139912D02*
X16829587Y-15158960D01*
X16829587Y-15158960D02*
X16848634Y-15168484D01*
X16848634Y-15168484D02*
X16867682Y-15168484D01*
X17086730Y-15035150D02*
X17086730Y-15235150D01*
X17086730Y-15044674D02*
X17105777Y-15035150D01*
X17105777Y-15035150D02*
X17143873Y-15035150D01*
X17143873Y-15035150D02*
X17162920Y-15044674D01*
X17162920Y-15044674D02*
X17172444Y-15054198D01*
X17172444Y-15054198D02*
X17181968Y-15073246D01*
X17181968Y-15073246D02*
X17181968Y-15130388D01*
X17181968Y-15130388D02*
X17172444Y-15149436D01*
X17172444Y-15149436D02*
X17162920Y-15158960D01*
X17162920Y-15158960D02*
X17143873Y-15168484D01*
X17143873Y-15168484D02*
X17105777Y-15168484D01*
X17105777Y-15168484D02*
X17086730Y-15158960D01*
X17296254Y-15168484D02*
X17277206Y-15158960D01*
X17277206Y-15158960D02*
X17267682Y-15139912D01*
X17267682Y-15139912D02*
X17267682Y-14968484D01*
X17458158Y-15168484D02*
X17458158Y-15063722D01*
X17458158Y-15063722D02*
X17448635Y-15044674D01*
X17448635Y-15044674D02*
X17429587Y-15035150D01*
X17429587Y-15035150D02*
X17391492Y-15035150D01*
X17391492Y-15035150D02*
X17372444Y-15044674D01*
X17458158Y-15158960D02*
X17439111Y-15168484D01*
X17439111Y-15168484D02*
X17391492Y-15168484D01*
X17391492Y-15168484D02*
X17372444Y-15158960D01*
X17372444Y-15158960D02*
X17362920Y-15139912D01*
X17362920Y-15139912D02*
X17362920Y-15120865D01*
X17362920Y-15120865D02*
X17372444Y-15101817D01*
X17372444Y-15101817D02*
X17391492Y-15092293D01*
X17391492Y-15092293D02*
X17439111Y-15092293D01*
X17439111Y-15092293D02*
X17458158Y-15082769D01*
X17524825Y-15035150D02*
X17601015Y-15035150D01*
X17553396Y-14968484D02*
X17553396Y-15139912D01*
X17553396Y-15139912D02*
X17562920Y-15158960D01*
X17562920Y-15158960D02*
X17581968Y-15168484D01*
X17581968Y-15168484D02*
X17601015Y-15168484D01*
X17743873Y-15158960D02*
X17724825Y-15168484D01*
X17724825Y-15168484D02*
X17686730Y-15168484D01*
X17686730Y-15168484D02*
X17667682Y-15158960D01*
X17667682Y-15158960D02*
X17658158Y-15139912D01*
X17658158Y-15139912D02*
X17658158Y-15063722D01*
X17658158Y-15063722D02*
X17667682Y-15044674D01*
X17667682Y-15044674D02*
X17686730Y-15035150D01*
X17686730Y-15035150D02*
X17724825Y-15035150D01*
X17724825Y-15035150D02*
X17743873Y-15044674D01*
X17743873Y-15044674D02*
X17753396Y-15063722D01*
X17753396Y-15063722D02*
X17753396Y-15082769D01*
X17753396Y-15082769D02*
X17658158Y-15101817D01*
X17924825Y-15168484D02*
X17924825Y-14968484D01*
X17924825Y-15158960D02*
X17905777Y-15168484D01*
X17905777Y-15168484D02*
X17867682Y-15168484D01*
X17867682Y-15168484D02*
X17848635Y-15158960D01*
X17848635Y-15158960D02*
X17839111Y-15149436D01*
X17839111Y-15149436D02*
X17829587Y-15130388D01*
X17829587Y-15130388D02*
X17829587Y-15073246D01*
X17829587Y-15073246D02*
X17839111Y-15054198D01*
X17839111Y-15054198D02*
X17848635Y-15044674D01*
X17848635Y-15044674D02*
X17867682Y-15035150D01*
X17867682Y-15035150D02*
X17905777Y-15035150D01*
X17905777Y-15035150D02*
X17924825Y-15044674D01*
X18001016Y-15244674D02*
X18010539Y-15235150D01*
X18010539Y-15235150D02*
X18029587Y-15206579D01*
X18029587Y-15206579D02*
X18039111Y-15187531D01*
X18039111Y-15187531D02*
X18048635Y-15158960D01*
X18048635Y-15158960D02*
X18058158Y-15111341D01*
X18058158Y-15111341D02*
X18058158Y-15073246D01*
X18058158Y-15073246D02*
X18048635Y-15025627D01*
X18048635Y-15025627D02*
X18039111Y-14997055D01*
X18039111Y-14997055D02*
X18029587Y-14978008D01*
X18029587Y-14978008D02*
X18010539Y-14949436D01*
X18010539Y-14949436D02*
X18001016Y-14939912D01*
X11215711Y-15467711D02*
X11215711Y-15326289D01*
X11074289Y-15326289D01*
X11074289Y-15467711D01*
X11215711Y-15467711D01*
X11245000Y-15397000D02*
G75*
G03*
X11245000Y-15397000I-100000J0D01*
G01*
X11486729Y-15288484D02*
X11610539Y-15288484D01*
X11610539Y-15288484D02*
X11543872Y-15364674D01*
X11543872Y-15364674D02*
X11572443Y-15364674D01*
X11572443Y-15364674D02*
X11591491Y-15374198D01*
X11591491Y-15374198D02*
X11601015Y-15383722D01*
X11601015Y-15383722D02*
X11610539Y-15402769D01*
X11610539Y-15402769D02*
X11610539Y-15450388D01*
X11610539Y-15450388D02*
X11601015Y-15469436D01*
X11601015Y-15469436D02*
X11591491Y-15478960D01*
X11591491Y-15478960D02*
X11572443Y-15488484D01*
X11572443Y-15488484D02*
X11515301Y-15488484D01*
X11515301Y-15488484D02*
X11496253Y-15478960D01*
X11496253Y-15478960D02*
X11486729Y-15469436D01*
X11696253Y-15469436D02*
X11705777Y-15478960D01*
X11705777Y-15478960D02*
X11696253Y-15488484D01*
X11696253Y-15488484D02*
X11686729Y-15478960D01*
X11686729Y-15478960D02*
X11696253Y-15469436D01*
X11696253Y-15469436D02*
X11696253Y-15488484D01*
X11886729Y-15288484D02*
X11791491Y-15288484D01*
X11791491Y-15288484D02*
X11781967Y-15383722D01*
X11781967Y-15383722D02*
X11791491Y-15374198D01*
X11791491Y-15374198D02*
X11810539Y-15364674D01*
X11810539Y-15364674D02*
X11858158Y-15364674D01*
X11858158Y-15364674D02*
X11877205Y-15374198D01*
X11877205Y-15374198D02*
X11886729Y-15383722D01*
X11886729Y-15383722D02*
X11896253Y-15402769D01*
X11896253Y-15402769D02*
X11896253Y-15450388D01*
X11896253Y-15450388D02*
X11886729Y-15469436D01*
X11886729Y-15469436D02*
X11877205Y-15478960D01*
X11877205Y-15478960D02*
X11858158Y-15488484D01*
X11858158Y-15488484D02*
X11810539Y-15488484D01*
X11810539Y-15488484D02*
X11791491Y-15478960D01*
X11791491Y-15478960D02*
X11781967Y-15469436D01*
X12020062Y-15288484D02*
X12039110Y-15288484D01*
X12039110Y-15288484D02*
X12058158Y-15298008D01*
X12058158Y-15298008D02*
X12067682Y-15307531D01*
X12067682Y-15307531D02*
X12077205Y-15326579D01*
X12077205Y-15326579D02*
X12086729Y-15364674D01*
X12086729Y-15364674D02*
X12086729Y-15412293D01*
X12086729Y-15412293D02*
X12077205Y-15450388D01*
X12077205Y-15450388D02*
X12067682Y-15469436D01*
X12067682Y-15469436D02*
X12058158Y-15478960D01*
X12058158Y-15478960D02*
X12039110Y-15488484D01*
X12039110Y-15488484D02*
X12020062Y-15488484D01*
X12020062Y-15488484D02*
X12001015Y-15478960D01*
X12001015Y-15478960D02*
X11991491Y-15469436D01*
X11991491Y-15469436D02*
X11981967Y-15450388D01*
X11981967Y-15450388D02*
X11972443Y-15412293D01*
X11972443Y-15412293D02*
X11972443Y-15364674D01*
X11972443Y-15364674D02*
X11981967Y-15326579D01*
X11981967Y-15326579D02*
X11991491Y-15307531D01*
X11991491Y-15307531D02*
X12001015Y-15298008D01*
X12001015Y-15298008D02*
X12020062Y-15288484D01*
X12210539Y-15288484D02*
X12229586Y-15288484D01*
X12229586Y-15288484D02*
X12248634Y-15298008D01*
X12248634Y-15298008D02*
X12258158Y-15307531D01*
X12258158Y-15307531D02*
X12267682Y-15326579D01*
X12267682Y-15326579D02*
X12277205Y-15364674D01*
X12277205Y-15364674D02*
X12277205Y-15412293D01*
X12277205Y-15412293D02*
X12267682Y-15450388D01*
X12267682Y-15450388D02*
X12258158Y-15469436D01*
X12258158Y-15469436D02*
X12248634Y-15478960D01*
X12248634Y-15478960D02*
X12229586Y-15488484D01*
X12229586Y-15488484D02*
X12210539Y-15488484D01*
X12210539Y-15488484D02*
X12191491Y-15478960D01*
X12191491Y-15478960D02*
X12181967Y-15469436D01*
X12181967Y-15469436D02*
X12172443Y-15450388D01*
X12172443Y-15450388D02*
X12162920Y-15412293D01*
X12162920Y-15412293D02*
X12162920Y-15364674D01*
X12162920Y-15364674D02*
X12172443Y-15326579D01*
X12172443Y-15326579D02*
X12181967Y-15307531D01*
X12181967Y-15307531D02*
X12191491Y-15298008D01*
X12191491Y-15298008D02*
X12210539Y-15288484D01*
X12362920Y-15488484D02*
X12362920Y-15355150D01*
X12362920Y-15374198D02*
X12372443Y-15364674D01*
X12372443Y-15364674D02*
X12391491Y-15355150D01*
X12391491Y-15355150D02*
X12420063Y-15355150D01*
X12420063Y-15355150D02*
X12439110Y-15364674D01*
X12439110Y-15364674D02*
X12448634Y-15383722D01*
X12448634Y-15383722D02*
X12448634Y-15488484D01*
X12448634Y-15383722D02*
X12458158Y-15364674D01*
X12458158Y-15364674D02*
X12477205Y-15355150D01*
X12477205Y-15355150D02*
X12505777Y-15355150D01*
X12505777Y-15355150D02*
X12524824Y-15364674D01*
X12524824Y-15364674D02*
X12534348Y-15383722D01*
X12534348Y-15383722D02*
X12534348Y-15488484D01*
X12629586Y-15488484D02*
X12629586Y-15355150D01*
X12629586Y-15374198D02*
X12639110Y-15364674D01*
X12639110Y-15364674D02*
X12658158Y-15355150D01*
X12658158Y-15355150D02*
X12686729Y-15355150D01*
X12686729Y-15355150D02*
X12705777Y-15364674D01*
X12705777Y-15364674D02*
X12715301Y-15383722D01*
X12715301Y-15383722D02*
X12715301Y-15488484D01*
X12715301Y-15383722D02*
X12724824Y-15364674D01*
X12724824Y-15364674D02*
X12743872Y-15355150D01*
X12743872Y-15355150D02*
X12772443Y-15355150D01*
X12772443Y-15355150D02*
X12791491Y-15364674D01*
X12791491Y-15364674D02*
X12801015Y-15383722D01*
X12801015Y-15383722D02*
X12801015Y-15488484D01*
X13191491Y-15278960D02*
X13020063Y-15536103D01*
X13448634Y-15288484D02*
X13467682Y-15288484D01*
X13467682Y-15288484D02*
X13486729Y-15298008D01*
X13486729Y-15298008D02*
X13496253Y-15307531D01*
X13496253Y-15307531D02*
X13505777Y-15326579D01*
X13505777Y-15326579D02*
X13515301Y-15364674D01*
X13515301Y-15364674D02*
X13515301Y-15412293D01*
X13515301Y-15412293D02*
X13505777Y-15450388D01*
X13505777Y-15450388D02*
X13496253Y-15469436D01*
X13496253Y-15469436D02*
X13486729Y-15478960D01*
X13486729Y-15478960D02*
X13467682Y-15488484D01*
X13467682Y-15488484D02*
X13448634Y-15488484D01*
X13448634Y-15488484D02*
X13429586Y-15478960D01*
X13429586Y-15478960D02*
X13420063Y-15469436D01*
X13420063Y-15469436D02*
X13410539Y-15450388D01*
X13410539Y-15450388D02*
X13401015Y-15412293D01*
X13401015Y-15412293D02*
X13401015Y-15364674D01*
X13401015Y-15364674D02*
X13410539Y-15326579D01*
X13410539Y-15326579D02*
X13420063Y-15307531D01*
X13420063Y-15307531D02*
X13429586Y-15298008D01*
X13429586Y-15298008D02*
X13448634Y-15288484D01*
X13601015Y-15469436D02*
X13610539Y-15478960D01*
X13610539Y-15478960D02*
X13601015Y-15488484D01*
X13601015Y-15488484D02*
X13591491Y-15478960D01*
X13591491Y-15478960D02*
X13601015Y-15469436D01*
X13601015Y-15469436D02*
X13601015Y-15488484D01*
X13801015Y-15488484D02*
X13686729Y-15488484D01*
X13743872Y-15488484D02*
X13743872Y-15288484D01*
X13743872Y-15288484D02*
X13724825Y-15317055D01*
X13724825Y-15317055D02*
X13705777Y-15336103D01*
X13705777Y-15336103D02*
X13686729Y-15345627D01*
X13867682Y-15288484D02*
X13991491Y-15288484D01*
X13991491Y-15288484D02*
X13924825Y-15364674D01*
X13924825Y-15364674D02*
X13953396Y-15364674D01*
X13953396Y-15364674D02*
X13972444Y-15374198D01*
X13972444Y-15374198D02*
X13981967Y-15383722D01*
X13981967Y-15383722D02*
X13991491Y-15402769D01*
X13991491Y-15402769D02*
X13991491Y-15450388D01*
X13991491Y-15450388D02*
X13981967Y-15469436D01*
X13981967Y-15469436D02*
X13972444Y-15478960D01*
X13972444Y-15478960D02*
X13953396Y-15488484D01*
X13953396Y-15488484D02*
X13896253Y-15488484D01*
X13896253Y-15488484D02*
X13877206Y-15478960D01*
X13877206Y-15478960D02*
X13867682Y-15469436D01*
X14058158Y-15288484D02*
X14191491Y-15288484D01*
X14191491Y-15288484D02*
X14105777Y-15488484D01*
X14296253Y-15374198D02*
X14277206Y-15364674D01*
X14277206Y-15364674D02*
X14267682Y-15355150D01*
X14267682Y-15355150D02*
X14258158Y-15336103D01*
X14258158Y-15336103D02*
X14258158Y-15326579D01*
X14258158Y-15326579D02*
X14267682Y-15307531D01*
X14267682Y-15307531D02*
X14277206Y-15298008D01*
X14277206Y-15298008D02*
X14296253Y-15288484D01*
X14296253Y-15288484D02*
X14334348Y-15288484D01*
X14334348Y-15288484D02*
X14353396Y-15298008D01*
X14353396Y-15298008D02*
X14362920Y-15307531D01*
X14362920Y-15307531D02*
X14372444Y-15326579D01*
X14372444Y-15326579D02*
X14372444Y-15336103D01*
X14372444Y-15336103D02*
X14362920Y-15355150D01*
X14362920Y-15355150D02*
X14353396Y-15364674D01*
X14353396Y-15364674D02*
X14334348Y-15374198D01*
X14334348Y-15374198D02*
X14296253Y-15374198D01*
X14296253Y-15374198D02*
X14277206Y-15383722D01*
X14277206Y-15383722D02*
X14267682Y-15393246D01*
X14267682Y-15393246D02*
X14258158Y-15412293D01*
X14258158Y-15412293D02*
X14258158Y-15450388D01*
X14258158Y-15450388D02*
X14267682Y-15469436D01*
X14267682Y-15469436D02*
X14277206Y-15478960D01*
X14277206Y-15478960D02*
X14296253Y-15488484D01*
X14296253Y-15488484D02*
X14334348Y-15488484D01*
X14334348Y-15488484D02*
X14353396Y-15478960D01*
X14353396Y-15478960D02*
X14362920Y-15469436D01*
X14362920Y-15469436D02*
X14372444Y-15450388D01*
X14372444Y-15450388D02*
X14372444Y-15412293D01*
X14372444Y-15412293D02*
X14362920Y-15393246D01*
X14362920Y-15393246D02*
X14353396Y-15383722D01*
X14353396Y-15383722D02*
X14334348Y-15374198D01*
X14448634Y-15288484D02*
X14448634Y-15326579D01*
X14524825Y-15288484D02*
X14524825Y-15326579D01*
X14820063Y-15564674D02*
X14810539Y-15555150D01*
X14810539Y-15555150D02*
X14791491Y-15526579D01*
X14791491Y-15526579D02*
X14781968Y-15507531D01*
X14781968Y-15507531D02*
X14772444Y-15478960D01*
X14772444Y-15478960D02*
X14762920Y-15431341D01*
X14762920Y-15431341D02*
X14762920Y-15393246D01*
X14762920Y-15393246D02*
X14772444Y-15345627D01*
X14772444Y-15345627D02*
X14781968Y-15317055D01*
X14781968Y-15317055D02*
X14791491Y-15298008D01*
X14791491Y-15298008D02*
X14810539Y-15269436D01*
X14810539Y-15269436D02*
X14820063Y-15259912D01*
X15001015Y-15488484D02*
X14886729Y-15488484D01*
X14943872Y-15488484D02*
X14943872Y-15288484D01*
X14943872Y-15288484D02*
X14924825Y-15317055D01*
X14924825Y-15317055D02*
X14905777Y-15336103D01*
X14905777Y-15336103D02*
X14886729Y-15345627D01*
X15239110Y-15488484D02*
X15239110Y-15288484D01*
X15324825Y-15488484D02*
X15324825Y-15383722D01*
X15324825Y-15383722D02*
X15315301Y-15364674D01*
X15315301Y-15364674D02*
X15296253Y-15355150D01*
X15296253Y-15355150D02*
X15267682Y-15355150D01*
X15267682Y-15355150D02*
X15248634Y-15364674D01*
X15248634Y-15364674D02*
X15239110Y-15374198D01*
X15448634Y-15488484D02*
X15429587Y-15478960D01*
X15429587Y-15478960D02*
X15420063Y-15469436D01*
X15420063Y-15469436D02*
X15410539Y-15450388D01*
X15410539Y-15450388D02*
X15410539Y-15393246D01*
X15410539Y-15393246D02*
X15420063Y-15374198D01*
X15420063Y-15374198D02*
X15429587Y-15364674D01*
X15429587Y-15364674D02*
X15448634Y-15355150D01*
X15448634Y-15355150D02*
X15477206Y-15355150D01*
X15477206Y-15355150D02*
X15496253Y-15364674D01*
X15496253Y-15364674D02*
X15505777Y-15374198D01*
X15505777Y-15374198D02*
X15515301Y-15393246D01*
X15515301Y-15393246D02*
X15515301Y-15450388D01*
X15515301Y-15450388D02*
X15505777Y-15469436D01*
X15505777Y-15469436D02*
X15496253Y-15478960D01*
X15496253Y-15478960D02*
X15477206Y-15488484D01*
X15477206Y-15488484D02*
X15448634Y-15488484D01*
X15629587Y-15488484D02*
X15610539Y-15478960D01*
X15610539Y-15478960D02*
X15601015Y-15459912D01*
X15601015Y-15459912D02*
X15601015Y-15288484D01*
X15781968Y-15478960D02*
X15762920Y-15488484D01*
X15762920Y-15488484D02*
X15724825Y-15488484D01*
X15724825Y-15488484D02*
X15705777Y-15478960D01*
X15705777Y-15478960D02*
X15696253Y-15459912D01*
X15696253Y-15459912D02*
X15696253Y-15383722D01*
X15696253Y-15383722D02*
X15705777Y-15364674D01*
X15705777Y-15364674D02*
X15724825Y-15355150D01*
X15724825Y-15355150D02*
X15762920Y-15355150D01*
X15762920Y-15355150D02*
X15781968Y-15364674D01*
X15781968Y-15364674D02*
X15791491Y-15383722D01*
X15791491Y-15383722D02*
X15791491Y-15402769D01*
X15791491Y-15402769D02*
X15696253Y-15421817D01*
X15858158Y-15564674D02*
X15867682Y-15555150D01*
X15867682Y-15555150D02*
X15886730Y-15526579D01*
X15886730Y-15526579D02*
X15896253Y-15507531D01*
X15896253Y-15507531D02*
X15905777Y-15478960D01*
X15905777Y-15478960D02*
X15915301Y-15431341D01*
X15915301Y-15431341D02*
X15915301Y-15393246D01*
X15915301Y-15393246D02*
X15905777Y-15345627D01*
X15905777Y-15345627D02*
X15896253Y-15317055D01*
X15896253Y-15317055D02*
X15886730Y-15298008D01*
X15886730Y-15298008D02*
X15867682Y-15269436D01*
X15867682Y-15269436D02*
X15858158Y-15259912D01*
X16220063Y-15564674D02*
X16210539Y-15555150D01*
X16210539Y-15555150D02*
X16191491Y-15526579D01*
X16191491Y-15526579D02*
X16181968Y-15507531D01*
X16181968Y-15507531D02*
X16172444Y-15478960D01*
X16172444Y-15478960D02*
X16162920Y-15431341D01*
X16162920Y-15431341D02*
X16162920Y-15393246D01*
X16162920Y-15393246D02*
X16172444Y-15345627D01*
X16172444Y-15345627D02*
X16181968Y-15317055D01*
X16181968Y-15317055D02*
X16191491Y-15298008D01*
X16191491Y-15298008D02*
X16210539Y-15269436D01*
X16210539Y-15269436D02*
X16220063Y-15259912D01*
X16296253Y-15355150D02*
X16296253Y-15488484D01*
X16296253Y-15374198D02*
X16305777Y-15364674D01*
X16305777Y-15364674D02*
X16324825Y-15355150D01*
X16324825Y-15355150D02*
X16353396Y-15355150D01*
X16353396Y-15355150D02*
X16372444Y-15364674D01*
X16372444Y-15364674D02*
X16381968Y-15383722D01*
X16381968Y-15383722D02*
X16381968Y-15488484D01*
X16505777Y-15488484D02*
X16486730Y-15478960D01*
X16486730Y-15478960D02*
X16477206Y-15469436D01*
X16477206Y-15469436D02*
X16467682Y-15450388D01*
X16467682Y-15450388D02*
X16467682Y-15393246D01*
X16467682Y-15393246D02*
X16477206Y-15374198D01*
X16477206Y-15374198D02*
X16486730Y-15364674D01*
X16486730Y-15364674D02*
X16505777Y-15355150D01*
X16505777Y-15355150D02*
X16534349Y-15355150D01*
X16534349Y-15355150D02*
X16553396Y-15364674D01*
X16553396Y-15364674D02*
X16562920Y-15374198D01*
X16562920Y-15374198D02*
X16572444Y-15393246D01*
X16572444Y-15393246D02*
X16572444Y-15450388D01*
X16572444Y-15450388D02*
X16562920Y-15469436D01*
X16562920Y-15469436D02*
X16553396Y-15478960D01*
X16553396Y-15478960D02*
X16534349Y-15488484D01*
X16534349Y-15488484D02*
X16505777Y-15488484D01*
X16629587Y-15355150D02*
X16705777Y-15355150D01*
X16658158Y-15288484D02*
X16658158Y-15459912D01*
X16658158Y-15459912D02*
X16667682Y-15478960D01*
X16667682Y-15478960D02*
X16686730Y-15488484D01*
X16686730Y-15488484D02*
X16705777Y-15488484D01*
X16924825Y-15355150D02*
X16924825Y-15555150D01*
X16924825Y-15364674D02*
X16943873Y-15355150D01*
X16943873Y-15355150D02*
X16981968Y-15355150D01*
X16981968Y-15355150D02*
X17001015Y-15364674D01*
X17001015Y-15364674D02*
X17010539Y-15374198D01*
X17010539Y-15374198D02*
X17020063Y-15393246D01*
X17020063Y-15393246D02*
X17020063Y-15450388D01*
X17020063Y-15450388D02*
X17010539Y-15469436D01*
X17010539Y-15469436D02*
X17001015Y-15478960D01*
X17001015Y-15478960D02*
X16981968Y-15488484D01*
X16981968Y-15488484D02*
X16943873Y-15488484D01*
X16943873Y-15488484D02*
X16924825Y-15478960D01*
X17134349Y-15488484D02*
X17115301Y-15478960D01*
X17115301Y-15478960D02*
X17105777Y-15459912D01*
X17105777Y-15459912D02*
X17105777Y-15288484D01*
X17296254Y-15488484D02*
X17296254Y-15383722D01*
X17296254Y-15383722D02*
X17286730Y-15364674D01*
X17286730Y-15364674D02*
X17267682Y-15355150D01*
X17267682Y-15355150D02*
X17229587Y-15355150D01*
X17229587Y-15355150D02*
X17210539Y-15364674D01*
X17296254Y-15478960D02*
X17277206Y-15488484D01*
X17277206Y-15488484D02*
X17229587Y-15488484D01*
X17229587Y-15488484D02*
X17210539Y-15478960D01*
X17210539Y-15478960D02*
X17201015Y-15459912D01*
X17201015Y-15459912D02*
X17201015Y-15440865D01*
X17201015Y-15440865D02*
X17210539Y-15421817D01*
X17210539Y-15421817D02*
X17229587Y-15412293D01*
X17229587Y-15412293D02*
X17277206Y-15412293D01*
X17277206Y-15412293D02*
X17296254Y-15402769D01*
X17362920Y-15355150D02*
X17439111Y-15355150D01*
X17391492Y-15288484D02*
X17391492Y-15459912D01*
X17391492Y-15459912D02*
X17401015Y-15478960D01*
X17401015Y-15478960D02*
X17420063Y-15488484D01*
X17420063Y-15488484D02*
X17439111Y-15488484D01*
X17581968Y-15478960D02*
X17562920Y-15488484D01*
X17562920Y-15488484D02*
X17524825Y-15488484D01*
X17524825Y-15488484D02*
X17505777Y-15478960D01*
X17505777Y-15478960D02*
X17496254Y-15459912D01*
X17496254Y-15459912D02*
X17496254Y-15383722D01*
X17496254Y-15383722D02*
X17505777Y-15364674D01*
X17505777Y-15364674D02*
X17524825Y-15355150D01*
X17524825Y-15355150D02*
X17562920Y-15355150D01*
X17562920Y-15355150D02*
X17581968Y-15364674D01*
X17581968Y-15364674D02*
X17591492Y-15383722D01*
X17591492Y-15383722D02*
X17591492Y-15402769D01*
X17591492Y-15402769D02*
X17496254Y-15421817D01*
X17762920Y-15488484D02*
X17762920Y-15288484D01*
X17762920Y-15478960D02*
X17743873Y-15488484D01*
X17743873Y-15488484D02*
X17705777Y-15488484D01*
X17705777Y-15488484D02*
X17686730Y-15478960D01*
X17686730Y-15478960D02*
X17677206Y-15469436D01*
X17677206Y-15469436D02*
X17667682Y-15450388D01*
X17667682Y-15450388D02*
X17667682Y-15393246D01*
X17667682Y-15393246D02*
X17677206Y-15374198D01*
X17677206Y-15374198D02*
X17686730Y-15364674D01*
X17686730Y-15364674D02*
X17705777Y-15355150D01*
X17705777Y-15355150D02*
X17743873Y-15355150D01*
X17743873Y-15355150D02*
X17762920Y-15364674D01*
X17839111Y-15564674D02*
X17848635Y-15555150D01*
X17848635Y-15555150D02*
X17867682Y-15526579D01*
X17867682Y-15526579D02*
X17877206Y-15507531D01*
X17877206Y-15507531D02*
X17886730Y-15478960D01*
X17886730Y-15478960D02*
X17896254Y-15431341D01*
X17896254Y-15431341D02*
X17896254Y-15393246D01*
X17896254Y-15393246D02*
X17886730Y-15345627D01*
X17886730Y-15345627D02*
X17877206Y-15317055D01*
X17877206Y-15317055D02*
X17867682Y-15298008D01*
X17867682Y-15298008D02*
X17848635Y-15269436D01*
X17848635Y-15269436D02*
X17839111Y-15259912D01*
M02*
