%TF.GenerationSoftware,KiCad,Pcbnew,8.0.6*%
%TF.CreationDate,2024-12-26T12:17:48+03:00*%
%TF.ProjectId,Hall,48616c6c-2e6b-4696-9361-645f70636258,rev?*%
%TF.SameCoordinates,Original*%
%TF.FileFunction,Legend,Bot*%
%TF.FilePolarity,Positive*%
%FSLAX46Y46*%
G04 Gerber Fmt 4.6, Leading zero omitted, Abs format (unit mm)*
G04 Created by KiCad (PCBNEW 8.0.6) date 2024-12-26 12:17:48*
%MOMM*%
%LPD*%
G01*
G04 APERTURE LIST*
%ADD10C,0.150000*%
%ADD11C,0.300000*%
%ADD12C,0.120000*%
G04 APERTURE END LIST*
D10*
X87020400Y-37998400D02*
X86868000Y-38862000D01*
X86207600Y-38252400D02*
X87020400Y-37998400D01*
X85598000Y-39674800D02*
X87020400Y-37998400D01*
X71345201Y-44393662D02*
X70869011Y-46393662D01*
X70869011Y-46393662D02*
X70488058Y-44965090D01*
X70488058Y-44965090D02*
X70107106Y-46393662D01*
X70107106Y-46393662D02*
X69630916Y-44393662D01*
X68869011Y-46393662D02*
X68869011Y-44393662D01*
X68011868Y-46393662D02*
X68011868Y-45346043D01*
X68011868Y-45346043D02*
X68107106Y-45155566D01*
X68107106Y-45155566D02*
X68297582Y-45060328D01*
X68297582Y-45060328D02*
X68583297Y-45060328D01*
X68583297Y-45060328D02*
X68773773Y-45155566D01*
X68773773Y-45155566D02*
X68869011Y-45250804D01*
X67059487Y-46393662D02*
X67059487Y-45060328D01*
X67059487Y-44393662D02*
X67154725Y-44488900D01*
X67154725Y-44488900D02*
X67059487Y-44584138D01*
X67059487Y-44584138D02*
X66964249Y-44488900D01*
X66964249Y-44488900D02*
X67059487Y-44393662D01*
X67059487Y-44393662D02*
X67059487Y-44584138D01*
X66392820Y-45060328D02*
X65630916Y-45060328D01*
X66107106Y-44393662D02*
X66107106Y-46107947D01*
X66107106Y-46107947D02*
X66011868Y-46298424D01*
X66011868Y-46298424D02*
X65821392Y-46393662D01*
X65821392Y-46393662D02*
X65630916Y-46393662D01*
X64202344Y-46298424D02*
X64392820Y-46393662D01*
X64392820Y-46393662D02*
X64773773Y-46393662D01*
X64773773Y-46393662D02*
X64964249Y-46298424D01*
X64964249Y-46298424D02*
X65059487Y-46107947D01*
X65059487Y-46107947D02*
X65059487Y-45346043D01*
X65059487Y-45346043D02*
X64964249Y-45155566D01*
X64964249Y-45155566D02*
X64773773Y-45060328D01*
X64773773Y-45060328D02*
X64392820Y-45060328D01*
X64392820Y-45060328D02*
X64202344Y-45155566D01*
X64202344Y-45155566D02*
X64107106Y-45346043D01*
X64107106Y-45346043D02*
X64107106Y-45536519D01*
X64107106Y-45536519D02*
X65059487Y-45726995D01*
X70488058Y-48565931D02*
X70202344Y-48661169D01*
X70202344Y-48661169D02*
X70107106Y-48756407D01*
X70107106Y-48756407D02*
X70011868Y-48946883D01*
X70011868Y-48946883D02*
X70011868Y-49232597D01*
X70011868Y-49232597D02*
X70107106Y-49423073D01*
X70107106Y-49423073D02*
X70202344Y-49518312D01*
X70202344Y-49518312D02*
X70392820Y-49613550D01*
X70392820Y-49613550D02*
X71154725Y-49613550D01*
X71154725Y-49613550D02*
X71154725Y-47613550D01*
X71154725Y-47613550D02*
X70488058Y-47613550D01*
X70488058Y-47613550D02*
X70297582Y-47708788D01*
X70297582Y-47708788D02*
X70202344Y-47804026D01*
X70202344Y-47804026D02*
X70107106Y-47994502D01*
X70107106Y-47994502D02*
X70107106Y-48184978D01*
X70107106Y-48184978D02*
X70202344Y-48375454D01*
X70202344Y-48375454D02*
X70297582Y-48470692D01*
X70297582Y-48470692D02*
X70488058Y-48565931D01*
X70488058Y-48565931D02*
X71154725Y-48565931D01*
X69154725Y-49613550D02*
X69154725Y-48280216D01*
X69154725Y-48661169D02*
X69059487Y-48470692D01*
X69059487Y-48470692D02*
X68964249Y-48375454D01*
X68964249Y-48375454D02*
X68773773Y-48280216D01*
X68773773Y-48280216D02*
X68583296Y-48280216D01*
X67630916Y-49613550D02*
X67821392Y-49518312D01*
X67821392Y-49518312D02*
X67916630Y-49423073D01*
X67916630Y-49423073D02*
X68011868Y-49232597D01*
X68011868Y-49232597D02*
X68011868Y-48661169D01*
X68011868Y-48661169D02*
X67916630Y-48470692D01*
X67916630Y-48470692D02*
X67821392Y-48375454D01*
X67821392Y-48375454D02*
X67630916Y-48280216D01*
X67630916Y-48280216D02*
X67345201Y-48280216D01*
X67345201Y-48280216D02*
X67154725Y-48375454D01*
X67154725Y-48375454D02*
X67059487Y-48470692D01*
X67059487Y-48470692D02*
X66964249Y-48661169D01*
X66964249Y-48661169D02*
X66964249Y-49232597D01*
X66964249Y-49232597D02*
X67059487Y-49423073D01*
X67059487Y-49423073D02*
X67154725Y-49518312D01*
X67154725Y-49518312D02*
X67345201Y-49613550D01*
X67345201Y-49613550D02*
X67630916Y-49613550D01*
X66297582Y-48280216D02*
X65916630Y-49613550D01*
X65916630Y-49613550D02*
X65535677Y-48661169D01*
X65535677Y-48661169D02*
X65154725Y-49613550D01*
X65154725Y-49613550D02*
X64773773Y-48280216D01*
X64011868Y-48280216D02*
X64011868Y-49613550D01*
X64011868Y-48470692D02*
X63916630Y-48375454D01*
X63916630Y-48375454D02*
X63726154Y-48280216D01*
X63726154Y-48280216D02*
X63440439Y-48280216D01*
X63440439Y-48280216D02*
X63249963Y-48375454D01*
X63249963Y-48375454D02*
X63154725Y-48565931D01*
X63154725Y-48565931D02*
X63154725Y-49613550D01*
X70107106Y-50928676D02*
X70297582Y-50833438D01*
X70297582Y-50833438D02*
X70583296Y-50833438D01*
X70583296Y-50833438D02*
X70869011Y-50928676D01*
X70869011Y-50928676D02*
X71059487Y-51119152D01*
X71059487Y-51119152D02*
X71154725Y-51309628D01*
X71154725Y-51309628D02*
X71249963Y-51690580D01*
X71249963Y-51690580D02*
X71249963Y-51976295D01*
X71249963Y-51976295D02*
X71154725Y-52357247D01*
X71154725Y-52357247D02*
X71059487Y-52547723D01*
X71059487Y-52547723D02*
X70869011Y-52738200D01*
X70869011Y-52738200D02*
X70583296Y-52833438D01*
X70583296Y-52833438D02*
X70392820Y-52833438D01*
X70392820Y-52833438D02*
X70107106Y-52738200D01*
X70107106Y-52738200D02*
X70011868Y-52642961D01*
X70011868Y-52642961D02*
X70011868Y-51976295D01*
X70011868Y-51976295D02*
X70392820Y-51976295D01*
X69154725Y-52833438D02*
X69154725Y-51500104D01*
X69154725Y-51881057D02*
X69059487Y-51690580D01*
X69059487Y-51690580D02*
X68964249Y-51595342D01*
X68964249Y-51595342D02*
X68773773Y-51500104D01*
X68773773Y-51500104D02*
X68583296Y-51500104D01*
X67154725Y-52738200D02*
X67345201Y-52833438D01*
X67345201Y-52833438D02*
X67726154Y-52833438D01*
X67726154Y-52833438D02*
X67916630Y-52738200D01*
X67916630Y-52738200D02*
X68011868Y-52547723D01*
X68011868Y-52547723D02*
X68011868Y-51785819D01*
X68011868Y-51785819D02*
X67916630Y-51595342D01*
X67916630Y-51595342D02*
X67726154Y-51500104D01*
X67726154Y-51500104D02*
X67345201Y-51500104D01*
X67345201Y-51500104D02*
X67154725Y-51595342D01*
X67154725Y-51595342D02*
X67059487Y-51785819D01*
X67059487Y-51785819D02*
X67059487Y-51976295D01*
X67059487Y-51976295D02*
X68011868Y-52166771D01*
X65440439Y-52738200D02*
X65630915Y-52833438D01*
X65630915Y-52833438D02*
X66011868Y-52833438D01*
X66011868Y-52833438D02*
X66202344Y-52738200D01*
X66202344Y-52738200D02*
X66297582Y-52547723D01*
X66297582Y-52547723D02*
X66297582Y-51785819D01*
X66297582Y-51785819D02*
X66202344Y-51595342D01*
X66202344Y-51595342D02*
X66011868Y-51500104D01*
X66011868Y-51500104D02*
X65630915Y-51500104D01*
X65630915Y-51500104D02*
X65440439Y-51595342D01*
X65440439Y-51595342D02*
X65345201Y-51785819D01*
X65345201Y-51785819D02*
X65345201Y-51976295D01*
X65345201Y-51976295D02*
X66297582Y-52166771D01*
X64488058Y-51500104D02*
X64488058Y-52833438D01*
X64488058Y-51690580D02*
X64392820Y-51595342D01*
X64392820Y-51595342D02*
X64202344Y-51500104D01*
X64202344Y-51500104D02*
X63916629Y-51500104D01*
X63916629Y-51500104D02*
X63726153Y-51595342D01*
X63726153Y-51595342D02*
X63630915Y-51785819D01*
X63630915Y-51785819D02*
X63630915Y-52833438D01*
X85664439Y-40952520D02*
X85664439Y-40152520D01*
X85664439Y-40152520D02*
X85207296Y-40952520D01*
X85207296Y-40952520D02*
X85207296Y-40152520D01*
X84369201Y-40952520D02*
X84635868Y-40571567D01*
X84826344Y-40952520D02*
X84826344Y-40152520D01*
X84826344Y-40152520D02*
X84521582Y-40152520D01*
X84521582Y-40152520D02*
X84445392Y-40190615D01*
X84445392Y-40190615D02*
X84407297Y-40228710D01*
X84407297Y-40228710D02*
X84369201Y-40304901D01*
X84369201Y-40304901D02*
X84369201Y-40419186D01*
X84369201Y-40419186D02*
X84407297Y-40495377D01*
X84407297Y-40495377D02*
X84445392Y-40533472D01*
X84445392Y-40533472D02*
X84521582Y-40571567D01*
X84521582Y-40571567D02*
X84826344Y-40571567D01*
X84064440Y-40914425D02*
X83950154Y-40952520D01*
X83950154Y-40952520D02*
X83759678Y-40952520D01*
X83759678Y-40952520D02*
X83683487Y-40914425D01*
X83683487Y-40914425D02*
X83645392Y-40876329D01*
X83645392Y-40876329D02*
X83607297Y-40800139D01*
X83607297Y-40800139D02*
X83607297Y-40723948D01*
X83607297Y-40723948D02*
X83645392Y-40647758D01*
X83645392Y-40647758D02*
X83683487Y-40609663D01*
X83683487Y-40609663D02*
X83759678Y-40571567D01*
X83759678Y-40571567D02*
X83912059Y-40533472D01*
X83912059Y-40533472D02*
X83988249Y-40495377D01*
X83988249Y-40495377D02*
X84026344Y-40457282D01*
X84026344Y-40457282D02*
X84064440Y-40381091D01*
X84064440Y-40381091D02*
X84064440Y-40304901D01*
X84064440Y-40304901D02*
X84026344Y-40228710D01*
X84026344Y-40228710D02*
X83988249Y-40190615D01*
X83988249Y-40190615D02*
X83912059Y-40152520D01*
X83912059Y-40152520D02*
X83721582Y-40152520D01*
X83721582Y-40152520D02*
X83607297Y-40190615D01*
X83378725Y-40152520D02*
X82921582Y-40152520D01*
X83150154Y-40952520D02*
X83150154Y-40152520D01*
X85397773Y-41821427D02*
X85283487Y-41859522D01*
X85283487Y-41859522D02*
X85245392Y-41897618D01*
X85245392Y-41897618D02*
X85207296Y-41973808D01*
X85207296Y-41973808D02*
X85207296Y-42088094D01*
X85207296Y-42088094D02*
X85245392Y-42164284D01*
X85245392Y-42164284D02*
X85283487Y-42202380D01*
X85283487Y-42202380D02*
X85359677Y-42240475D01*
X85359677Y-42240475D02*
X85664439Y-42240475D01*
X85664439Y-42240475D02*
X85664439Y-41440475D01*
X85664439Y-41440475D02*
X85397773Y-41440475D01*
X85397773Y-41440475D02*
X85321582Y-41478570D01*
X85321582Y-41478570D02*
X85283487Y-41516665D01*
X85283487Y-41516665D02*
X85245392Y-41592856D01*
X85245392Y-41592856D02*
X85245392Y-41669046D01*
X85245392Y-41669046D02*
X85283487Y-41745237D01*
X85283487Y-41745237D02*
X85321582Y-41783332D01*
X85321582Y-41783332D02*
X85397773Y-41821427D01*
X85397773Y-41821427D02*
X85664439Y-41821427D01*
X84712058Y-41440475D02*
X84559677Y-41440475D01*
X84559677Y-41440475D02*
X84483487Y-41478570D01*
X84483487Y-41478570D02*
X84407296Y-41554760D01*
X84407296Y-41554760D02*
X84369201Y-41707141D01*
X84369201Y-41707141D02*
X84369201Y-41973808D01*
X84369201Y-41973808D02*
X84407296Y-42126189D01*
X84407296Y-42126189D02*
X84483487Y-42202380D01*
X84483487Y-42202380D02*
X84559677Y-42240475D01*
X84559677Y-42240475D02*
X84712058Y-42240475D01*
X84712058Y-42240475D02*
X84788249Y-42202380D01*
X84788249Y-42202380D02*
X84864439Y-42126189D01*
X84864439Y-42126189D02*
X84902535Y-41973808D01*
X84902535Y-41973808D02*
X84902535Y-41707141D01*
X84902535Y-41707141D02*
X84864439Y-41554760D01*
X84864439Y-41554760D02*
X84788249Y-41478570D01*
X84788249Y-41478570D02*
X84712058Y-41440475D01*
X83873963Y-41440475D02*
X83721582Y-41440475D01*
X83721582Y-41440475D02*
X83645392Y-41478570D01*
X83645392Y-41478570D02*
X83569201Y-41554760D01*
X83569201Y-41554760D02*
X83531106Y-41707141D01*
X83531106Y-41707141D02*
X83531106Y-41973808D01*
X83531106Y-41973808D02*
X83569201Y-42126189D01*
X83569201Y-42126189D02*
X83645392Y-42202380D01*
X83645392Y-42202380D02*
X83721582Y-42240475D01*
X83721582Y-42240475D02*
X83873963Y-42240475D01*
X83873963Y-42240475D02*
X83950154Y-42202380D01*
X83950154Y-42202380D02*
X84026344Y-42126189D01*
X84026344Y-42126189D02*
X84064440Y-41973808D01*
X84064440Y-41973808D02*
X84064440Y-41707141D01*
X84064440Y-41707141D02*
X84026344Y-41554760D01*
X84026344Y-41554760D02*
X83950154Y-41478570D01*
X83950154Y-41478570D02*
X83873963Y-41440475D01*
X83302535Y-41440475D02*
X82845392Y-41440475D01*
X83073964Y-42240475D02*
X83073964Y-41440475D01*
X82426344Y-41440475D02*
X82350154Y-41440475D01*
X82350154Y-41440475D02*
X82273963Y-41478570D01*
X82273963Y-41478570D02*
X82235868Y-41516665D01*
X82235868Y-41516665D02*
X82197773Y-41592856D01*
X82197773Y-41592856D02*
X82159678Y-41745237D01*
X82159678Y-41745237D02*
X82159678Y-41935713D01*
X82159678Y-41935713D02*
X82197773Y-42088094D01*
X82197773Y-42088094D02*
X82235868Y-42164284D01*
X82235868Y-42164284D02*
X82273963Y-42202380D01*
X82273963Y-42202380D02*
X82350154Y-42240475D01*
X82350154Y-42240475D02*
X82426344Y-42240475D01*
X82426344Y-42240475D02*
X82502535Y-42202380D01*
X82502535Y-42202380D02*
X82540630Y-42164284D01*
X82540630Y-42164284D02*
X82578725Y-42088094D01*
X82578725Y-42088094D02*
X82616821Y-41935713D01*
X82616821Y-41935713D02*
X82616821Y-41745237D01*
X82616821Y-41745237D02*
X82578725Y-41592856D01*
X82578725Y-41592856D02*
X82540630Y-41516665D01*
X82540630Y-41516665D02*
X82502535Y-41478570D01*
X82502535Y-41478570D02*
X82426344Y-41440475D01*
X85664439Y-43223668D02*
X85054916Y-43223668D01*
X85359677Y-43528430D02*
X85359677Y-42918906D01*
X84750154Y-42728430D02*
X84254916Y-42728430D01*
X84254916Y-42728430D02*
X84521582Y-43033192D01*
X84521582Y-43033192D02*
X84407297Y-43033192D01*
X84407297Y-43033192D02*
X84331106Y-43071287D01*
X84331106Y-43071287D02*
X84293011Y-43109382D01*
X84293011Y-43109382D02*
X84254916Y-43185573D01*
X84254916Y-43185573D02*
X84254916Y-43376049D01*
X84254916Y-43376049D02*
X84293011Y-43452239D01*
X84293011Y-43452239D02*
X84331106Y-43490335D01*
X84331106Y-43490335D02*
X84407297Y-43528430D01*
X84407297Y-43528430D02*
X84635868Y-43528430D01*
X84635868Y-43528430D02*
X84712059Y-43490335D01*
X84712059Y-43490335D02*
X84750154Y-43452239D01*
X84026344Y-42728430D02*
X83759677Y-43528430D01*
X83759677Y-43528430D02*
X83493011Y-42728430D01*
X83302535Y-42728430D02*
X82807297Y-42728430D01*
X82807297Y-42728430D02*
X83073963Y-43033192D01*
X83073963Y-43033192D02*
X82959678Y-43033192D01*
X82959678Y-43033192D02*
X82883487Y-43071287D01*
X82883487Y-43071287D02*
X82845392Y-43109382D01*
X82845392Y-43109382D02*
X82807297Y-43185573D01*
X82807297Y-43185573D02*
X82807297Y-43376049D01*
X82807297Y-43376049D02*
X82845392Y-43452239D01*
X82845392Y-43452239D02*
X82883487Y-43490335D01*
X82883487Y-43490335D02*
X82959678Y-43528430D01*
X82959678Y-43528430D02*
X83188249Y-43528430D01*
X83188249Y-43528430D02*
X83264440Y-43490335D01*
X83264440Y-43490335D02*
X83302535Y-43452239D01*
X85245392Y-44054480D02*
X85321582Y-44016385D01*
X85321582Y-44016385D02*
X85435868Y-44016385D01*
X85435868Y-44016385D02*
X85550154Y-44054480D01*
X85550154Y-44054480D02*
X85626344Y-44130670D01*
X85626344Y-44130670D02*
X85664439Y-44206861D01*
X85664439Y-44206861D02*
X85702535Y-44359242D01*
X85702535Y-44359242D02*
X85702535Y-44473528D01*
X85702535Y-44473528D02*
X85664439Y-44625909D01*
X85664439Y-44625909D02*
X85626344Y-44702099D01*
X85626344Y-44702099D02*
X85550154Y-44778290D01*
X85550154Y-44778290D02*
X85435868Y-44816385D01*
X85435868Y-44816385D02*
X85359677Y-44816385D01*
X85359677Y-44816385D02*
X85245392Y-44778290D01*
X85245392Y-44778290D02*
X85207296Y-44740194D01*
X85207296Y-44740194D02*
X85207296Y-44473528D01*
X85207296Y-44473528D02*
X85359677Y-44473528D01*
X84864439Y-44283051D02*
X84864439Y-44816385D01*
X84864439Y-44359242D02*
X84826344Y-44321147D01*
X84826344Y-44321147D02*
X84750154Y-44283051D01*
X84750154Y-44283051D02*
X84635868Y-44283051D01*
X84635868Y-44283051D02*
X84559677Y-44321147D01*
X84559677Y-44321147D02*
X84521582Y-44397337D01*
X84521582Y-44397337D02*
X84521582Y-44816385D01*
X83797772Y-44816385D02*
X83797772Y-44016385D01*
X83797772Y-44778290D02*
X83873963Y-44816385D01*
X83873963Y-44816385D02*
X84026344Y-44816385D01*
X84026344Y-44816385D02*
X84102534Y-44778290D01*
X84102534Y-44778290D02*
X84140629Y-44740194D01*
X84140629Y-44740194D02*
X84178725Y-44664004D01*
X84178725Y-44664004D02*
X84178725Y-44435432D01*
X84178725Y-44435432D02*
X84140629Y-44359242D01*
X84140629Y-44359242D02*
X84102534Y-44321147D01*
X84102534Y-44321147D02*
X84026344Y-44283051D01*
X84026344Y-44283051D02*
X83873963Y-44283051D01*
X83873963Y-44283051D02*
X83797772Y-44321147D01*
X85702535Y-46066245D02*
X85588249Y-46104340D01*
X85588249Y-46104340D02*
X85397773Y-46104340D01*
X85397773Y-46104340D02*
X85321582Y-46066245D01*
X85321582Y-46066245D02*
X85283487Y-46028149D01*
X85283487Y-46028149D02*
X85245392Y-45951959D01*
X85245392Y-45951959D02*
X85245392Y-45875768D01*
X85245392Y-45875768D02*
X85283487Y-45799578D01*
X85283487Y-45799578D02*
X85321582Y-45761483D01*
X85321582Y-45761483D02*
X85397773Y-45723387D01*
X85397773Y-45723387D02*
X85550154Y-45685292D01*
X85550154Y-45685292D02*
X85626344Y-45647197D01*
X85626344Y-45647197D02*
X85664439Y-45609102D01*
X85664439Y-45609102D02*
X85702535Y-45532911D01*
X85702535Y-45532911D02*
X85702535Y-45456721D01*
X85702535Y-45456721D02*
X85664439Y-45380530D01*
X85664439Y-45380530D02*
X85626344Y-45342435D01*
X85626344Y-45342435D02*
X85550154Y-45304340D01*
X85550154Y-45304340D02*
X85359677Y-45304340D01*
X85359677Y-45304340D02*
X85245392Y-45342435D01*
X84978725Y-45304340D02*
X84788249Y-46104340D01*
X84788249Y-46104340D02*
X84635868Y-45532911D01*
X84635868Y-45532911D02*
X84483487Y-46104340D01*
X84483487Y-46104340D02*
X84293011Y-45304340D01*
X83988248Y-46104340D02*
X83988248Y-45304340D01*
X83988248Y-45304340D02*
X83797772Y-45304340D01*
X83797772Y-45304340D02*
X83683486Y-45342435D01*
X83683486Y-45342435D02*
X83607296Y-45418625D01*
X83607296Y-45418625D02*
X83569201Y-45494816D01*
X83569201Y-45494816D02*
X83531105Y-45647197D01*
X83531105Y-45647197D02*
X83531105Y-45761483D01*
X83531105Y-45761483D02*
X83569201Y-45913864D01*
X83569201Y-45913864D02*
X83607296Y-45990054D01*
X83607296Y-45990054D02*
X83683486Y-46066245D01*
X83683486Y-46066245D02*
X83797772Y-46104340D01*
X83797772Y-46104340D02*
X83988248Y-46104340D01*
X83188248Y-46104340D02*
X83188248Y-45304340D01*
X82654915Y-45304340D02*
X82502534Y-45304340D01*
X82502534Y-45304340D02*
X82426344Y-45342435D01*
X82426344Y-45342435D02*
X82350153Y-45418625D01*
X82350153Y-45418625D02*
X82312058Y-45571006D01*
X82312058Y-45571006D02*
X82312058Y-45837673D01*
X82312058Y-45837673D02*
X82350153Y-45990054D01*
X82350153Y-45990054D02*
X82426344Y-46066245D01*
X82426344Y-46066245D02*
X82502534Y-46104340D01*
X82502534Y-46104340D02*
X82654915Y-46104340D01*
X82654915Y-46104340D02*
X82731106Y-46066245D01*
X82731106Y-46066245D02*
X82807296Y-45990054D01*
X82807296Y-45990054D02*
X82845392Y-45837673D01*
X82845392Y-45837673D02*
X82845392Y-45571006D01*
X82845392Y-45571006D02*
X82807296Y-45418625D01*
X82807296Y-45418625D02*
X82731106Y-45342435D01*
X82731106Y-45342435D02*
X82654915Y-45304340D01*
X85702535Y-47354200D02*
X85588249Y-47392295D01*
X85588249Y-47392295D02*
X85397773Y-47392295D01*
X85397773Y-47392295D02*
X85321582Y-47354200D01*
X85321582Y-47354200D02*
X85283487Y-47316104D01*
X85283487Y-47316104D02*
X85245392Y-47239914D01*
X85245392Y-47239914D02*
X85245392Y-47163723D01*
X85245392Y-47163723D02*
X85283487Y-47087533D01*
X85283487Y-47087533D02*
X85321582Y-47049438D01*
X85321582Y-47049438D02*
X85397773Y-47011342D01*
X85397773Y-47011342D02*
X85550154Y-46973247D01*
X85550154Y-46973247D02*
X85626344Y-46935152D01*
X85626344Y-46935152D02*
X85664439Y-46897057D01*
X85664439Y-46897057D02*
X85702535Y-46820866D01*
X85702535Y-46820866D02*
X85702535Y-46744676D01*
X85702535Y-46744676D02*
X85664439Y-46668485D01*
X85664439Y-46668485D02*
X85626344Y-46630390D01*
X85626344Y-46630390D02*
X85550154Y-46592295D01*
X85550154Y-46592295D02*
X85359677Y-46592295D01*
X85359677Y-46592295D02*
X85245392Y-46630390D01*
X84978725Y-46592295D02*
X84788249Y-47392295D01*
X84788249Y-47392295D02*
X84635868Y-46820866D01*
X84635868Y-46820866D02*
X84483487Y-47392295D01*
X84483487Y-47392295D02*
X84293011Y-46592295D01*
X83531105Y-47316104D02*
X83569201Y-47354200D01*
X83569201Y-47354200D02*
X83683486Y-47392295D01*
X83683486Y-47392295D02*
X83759677Y-47392295D01*
X83759677Y-47392295D02*
X83873963Y-47354200D01*
X83873963Y-47354200D02*
X83950153Y-47278009D01*
X83950153Y-47278009D02*
X83988248Y-47201819D01*
X83988248Y-47201819D02*
X84026344Y-47049438D01*
X84026344Y-47049438D02*
X84026344Y-46935152D01*
X84026344Y-46935152D02*
X83988248Y-46782771D01*
X83988248Y-46782771D02*
X83950153Y-46706580D01*
X83950153Y-46706580D02*
X83873963Y-46630390D01*
X83873963Y-46630390D02*
X83759677Y-46592295D01*
X83759677Y-46592295D02*
X83683486Y-46592295D01*
X83683486Y-46592295D02*
X83569201Y-46630390D01*
X83569201Y-46630390D02*
X83531105Y-46668485D01*
X82807296Y-47392295D02*
X83188248Y-47392295D01*
X83188248Y-47392295D02*
X83188248Y-46592295D01*
X82540629Y-47392295D02*
X82540629Y-46592295D01*
X82083486Y-47392295D02*
X82426344Y-46935152D01*
X82083486Y-46592295D02*
X82540629Y-47049438D01*
D11*
X76370955Y-38024038D02*
X75228098Y-38024038D01*
X75799527Y-40024038D02*
X75799527Y-38024038D01*
X73894764Y-38976419D02*
X74561431Y-38976419D01*
X74561431Y-40024038D02*
X74561431Y-38024038D01*
X74561431Y-38024038D02*
X73609050Y-38024038D01*
X72847145Y-40024038D02*
X72847145Y-38024038D01*
X72847145Y-38024038D02*
X72370955Y-38024038D01*
X72370955Y-38024038D02*
X72085240Y-38119276D01*
X72085240Y-38119276D02*
X71894764Y-38309752D01*
X71894764Y-38309752D02*
X71799526Y-38500228D01*
X71799526Y-38500228D02*
X71704288Y-38881180D01*
X71704288Y-38881180D02*
X71704288Y-39166895D01*
X71704288Y-39166895D02*
X71799526Y-39547847D01*
X71799526Y-39547847D02*
X71894764Y-39738323D01*
X71894764Y-39738323D02*
X72085240Y-39928800D01*
X72085240Y-39928800D02*
X72370955Y-40024038D01*
X72370955Y-40024038D02*
X72847145Y-40024038D01*
X70847145Y-39262133D02*
X69323336Y-39262133D01*
X67513812Y-38690704D02*
X67513812Y-40024038D01*
X67990003Y-37928800D02*
X68466193Y-39357371D01*
X68466193Y-39357371D02*
X67228098Y-39357371D01*
X66085241Y-38024038D02*
X65894764Y-38024038D01*
X65894764Y-38024038D02*
X65704288Y-38119276D01*
X65704288Y-38119276D02*
X65609050Y-38214514D01*
X65609050Y-38214514D02*
X65513812Y-38404990D01*
X65513812Y-38404990D02*
X65418574Y-38785942D01*
X65418574Y-38785942D02*
X65418574Y-39262133D01*
X65418574Y-39262133D02*
X65513812Y-39643085D01*
X65513812Y-39643085D02*
X65609050Y-39833561D01*
X65609050Y-39833561D02*
X65704288Y-39928800D01*
X65704288Y-39928800D02*
X65894764Y-40024038D01*
X65894764Y-40024038D02*
X66085241Y-40024038D01*
X66085241Y-40024038D02*
X66275717Y-39928800D01*
X66275717Y-39928800D02*
X66370955Y-39833561D01*
X66370955Y-39833561D02*
X66466193Y-39643085D01*
X66466193Y-39643085D02*
X66561431Y-39262133D01*
X66561431Y-39262133D02*
X66561431Y-38785942D01*
X66561431Y-38785942D02*
X66466193Y-38404990D01*
X66466193Y-38404990D02*
X66370955Y-38214514D01*
X66370955Y-38214514D02*
X66275717Y-38119276D01*
X66275717Y-38119276D02*
X66085241Y-38024038D01*
X64180479Y-38024038D02*
X63990002Y-38024038D01*
X63990002Y-38024038D02*
X63799526Y-38119276D01*
X63799526Y-38119276D02*
X63704288Y-38214514D01*
X63704288Y-38214514D02*
X63609050Y-38404990D01*
X63609050Y-38404990D02*
X63513812Y-38785942D01*
X63513812Y-38785942D02*
X63513812Y-39262133D01*
X63513812Y-39262133D02*
X63609050Y-39643085D01*
X63609050Y-39643085D02*
X63704288Y-39833561D01*
X63704288Y-39833561D02*
X63799526Y-39928800D01*
X63799526Y-39928800D02*
X63990002Y-40024038D01*
X63990002Y-40024038D02*
X64180479Y-40024038D01*
X64180479Y-40024038D02*
X64370955Y-39928800D01*
X64370955Y-39928800D02*
X64466193Y-39833561D01*
X64466193Y-39833561D02*
X64561431Y-39643085D01*
X64561431Y-39643085D02*
X64656669Y-39262133D01*
X64656669Y-39262133D02*
X64656669Y-38785942D01*
X64656669Y-38785942D02*
X64561431Y-38404990D01*
X64561431Y-38404990D02*
X64466193Y-38214514D01*
X64466193Y-38214514D02*
X64370955Y-38119276D01*
X64370955Y-38119276D02*
X64180479Y-38024038D01*
X62275717Y-38024038D02*
X62085240Y-38024038D01*
X62085240Y-38024038D02*
X61894764Y-38119276D01*
X61894764Y-38119276D02*
X61799526Y-38214514D01*
X61799526Y-38214514D02*
X61704288Y-38404990D01*
X61704288Y-38404990D02*
X61609050Y-38785942D01*
X61609050Y-38785942D02*
X61609050Y-39262133D01*
X61609050Y-39262133D02*
X61704288Y-39643085D01*
X61704288Y-39643085D02*
X61799526Y-39833561D01*
X61799526Y-39833561D02*
X61894764Y-39928800D01*
X61894764Y-39928800D02*
X62085240Y-40024038D01*
X62085240Y-40024038D02*
X62275717Y-40024038D01*
X62275717Y-40024038D02*
X62466193Y-39928800D01*
X62466193Y-39928800D02*
X62561431Y-39833561D01*
X62561431Y-39833561D02*
X62656669Y-39643085D01*
X62656669Y-39643085D02*
X62751907Y-39262133D01*
X62751907Y-39262133D02*
X62751907Y-38785942D01*
X62751907Y-38785942D02*
X62656669Y-38404990D01*
X62656669Y-38404990D02*
X62561431Y-38214514D01*
X62561431Y-38214514D02*
X62466193Y-38119276D01*
X62466193Y-38119276D02*
X62275717Y-38024038D01*
X59228097Y-40024038D02*
X59228097Y-38024038D01*
X59228097Y-38785942D02*
X59037621Y-38690704D01*
X59037621Y-38690704D02*
X58656668Y-38690704D01*
X58656668Y-38690704D02*
X58466192Y-38785942D01*
X58466192Y-38785942D02*
X58370954Y-38881180D01*
X58370954Y-38881180D02*
X58275716Y-39071657D01*
X58275716Y-39071657D02*
X58275716Y-39643085D01*
X58275716Y-39643085D02*
X58370954Y-39833561D01*
X58370954Y-39833561D02*
X58466192Y-39928800D01*
X58466192Y-39928800D02*
X58656668Y-40024038D01*
X58656668Y-40024038D02*
X59037621Y-40024038D01*
X59037621Y-40024038D02*
X59228097Y-39928800D01*
X57132859Y-40024038D02*
X57323335Y-39928800D01*
X57323335Y-39928800D02*
X57418573Y-39833561D01*
X57418573Y-39833561D02*
X57513811Y-39643085D01*
X57513811Y-39643085D02*
X57513811Y-39071657D01*
X57513811Y-39071657D02*
X57418573Y-38881180D01*
X57418573Y-38881180D02*
X57323335Y-38785942D01*
X57323335Y-38785942D02*
X57132859Y-38690704D01*
X57132859Y-38690704D02*
X56847144Y-38690704D01*
X56847144Y-38690704D02*
X56656668Y-38785942D01*
X56656668Y-38785942D02*
X56561430Y-38881180D01*
X56561430Y-38881180D02*
X56466192Y-39071657D01*
X56466192Y-39071657D02*
X56466192Y-39643085D01*
X56466192Y-39643085D02*
X56561430Y-39833561D01*
X56561430Y-39833561D02*
X56656668Y-39928800D01*
X56656668Y-39928800D02*
X56847144Y-40024038D01*
X56847144Y-40024038D02*
X57132859Y-40024038D01*
X54751906Y-40024038D02*
X54751906Y-38976419D01*
X54751906Y-38976419D02*
X54847144Y-38785942D01*
X54847144Y-38785942D02*
X55037620Y-38690704D01*
X55037620Y-38690704D02*
X55418573Y-38690704D01*
X55418573Y-38690704D02*
X55609049Y-38785942D01*
X54751906Y-39928800D02*
X54942382Y-40024038D01*
X54942382Y-40024038D02*
X55418573Y-40024038D01*
X55418573Y-40024038D02*
X55609049Y-39928800D01*
X55609049Y-39928800D02*
X55704287Y-39738323D01*
X55704287Y-39738323D02*
X55704287Y-39547847D01*
X55704287Y-39547847D02*
X55609049Y-39357371D01*
X55609049Y-39357371D02*
X55418573Y-39262133D01*
X55418573Y-39262133D02*
X54942382Y-39262133D01*
X54942382Y-39262133D02*
X54751906Y-39166895D01*
X53799525Y-40024038D02*
X53799525Y-38690704D01*
X53799525Y-39071657D02*
X53704287Y-38881180D01*
X53704287Y-38881180D02*
X53609049Y-38785942D01*
X53609049Y-38785942D02*
X53418573Y-38690704D01*
X53418573Y-38690704D02*
X53228096Y-38690704D01*
X51704287Y-40024038D02*
X51704287Y-38024038D01*
X51704287Y-39928800D02*
X51894763Y-40024038D01*
X51894763Y-40024038D02*
X52275716Y-40024038D01*
X52275716Y-40024038D02*
X52466192Y-39928800D01*
X52466192Y-39928800D02*
X52561430Y-39833561D01*
X52561430Y-39833561D02*
X52656668Y-39643085D01*
X52656668Y-39643085D02*
X52656668Y-39071657D01*
X52656668Y-39071657D02*
X52561430Y-38881180D01*
X52561430Y-38881180D02*
X52466192Y-38785942D01*
X52466192Y-38785942D02*
X52275716Y-38690704D01*
X52275716Y-38690704D02*
X51894763Y-38690704D01*
X51894763Y-38690704D02*
X51704287Y-38785942D01*
D10*
X91562500Y-44069025D02*
X91864370Y-44716388D01*
X91864370Y-44716388D02*
X91967902Y-44825736D01*
X91967902Y-44825736D02*
X92094466Y-44871801D01*
X92094466Y-44871801D02*
X92244063Y-44854585D01*
X92244063Y-44854585D02*
X92330378Y-44814335D01*
X91078810Y-45397951D02*
X91596700Y-45156455D01*
X91337755Y-45277203D02*
X90915137Y-44370895D01*
X90915137Y-44370895D02*
X91061826Y-44460118D01*
X91061826Y-44460118D02*
X91188390Y-44506184D01*
X91188390Y-44506184D02*
X91294830Y-44509092D01*
D12*
%TO.C,J1*%
X86526827Y-37212002D02*
X89182984Y-42908146D01*
X87254113Y-36872863D02*
X86526827Y-37212002D01*
X88538830Y-36273789D02*
X87811546Y-36612928D01*
X88538830Y-36273789D02*
X91194986Y-41969934D01*
X89678308Y-42677174D02*
X89182984Y-42908146D01*
X89825364Y-44285734D02*
X89504174Y-43596941D01*
X90831365Y-43816629D02*
X89825364Y-44285734D01*
X91194986Y-41969934D02*
X90699663Y-42200907D01*
%TD*%
M02*
