%TF.GenerationSoftware,KiCad,Pcbnew,8.0.6*%
%TF.CreationDate,2024-12-26T12:17:43+03:00*%
%TF.ProjectId,Hall,48616c6c-2e6b-4696-9361-645f70636258,rev?*%
%TF.SameCoordinates,Original*%
%TF.FileFunction,Drillmap*%
%TF.FilePolarity,Positive*%
%FSLAX45Y45*%
G04 Gerber Fmt 4.5, Leading zero omitted, Abs format (unit mm)*
G04 Created by KiCad (PCBNEW 8.0.6) date 2024-12-26 12:17:43*
%MOMM*%
%LPD*%
G01*
G04 APERTURE LIST*
%ADD10C,0.600000*%
%ADD11C,0.200000*%
%ADD12C,0.100000*%
%ADD13C,0.110000*%
%ADD14C,0.320000*%
G04 APERTURE END LIST*
D10*
X4998515Y-4306270D02*
G75*
G02*
X4812694Y-4032318I5J200000D01*
G01*
X5944798Y-5296270D02*
G75*
G02*
X5744798Y-5496268I-199998J0D01*
G01*
X4813544Y-4032658D02*
G75*
G02*
X4812690Y-5770224I2174846J-869852D01*
G01*
X4812691Y-5770224D02*
G75*
G02*
X4998515Y-5496266I185829J73954D01*
G01*
X5744798Y-4306270D02*
G75*
G02*
X5944800Y-4506270I2J-200000D01*
G01*
X5944798Y-5296270D02*
X5944798Y-4506270D01*
X5744798Y-4306270D02*
X4998515Y-4306270D01*
X4998515Y-5496270D02*
X5744798Y-5496270D01*
D11*
D12*
X7117400Y-4501200D02*
X7157400Y-4541200D01*
X7157400Y-4501200D02*
X7117400Y-4541200D01*
X7203760Y-4374200D02*
X7243760Y-4414200D01*
X7243760Y-4374200D02*
X7203760Y-4414200D01*
X5643400Y-3721100D02*
G75*
G02*
X5583400Y-3721100I-30000J0D01*
G01*
X5583400Y-3721100D02*
G75*
G02*
X5643400Y-3721100I30000J0D01*
G01*
X5656100Y-6019800D02*
G75*
G02*
X5596100Y-6019800I-30000J0D01*
G01*
X5596100Y-6019800D02*
G75*
G02*
X5656100Y-6019800I30000J0D01*
G01*
X6197120Y-5516880D02*
G75*
G02*
X6137120Y-5516880I-30000J0D01*
G01*
X6137120Y-5516880D02*
G75*
G02*
X6197120Y-5516880I30000J0D01*
G01*
X6481600Y-3187700D02*
G75*
G02*
X6421600Y-3187700I-30000J0D01*
G01*
X6421600Y-3187700D02*
G75*
G02*
X6481600Y-3187700I30000J0D01*
G01*
X6634000Y-6350000D02*
G75*
G02*
X6574000Y-6350000I-30000J0D01*
G01*
X6574000Y-6350000D02*
G75*
G02*
X6634000Y-6350000I30000J0D01*
G01*
X6689880Y-5369560D02*
G75*
G02*
X6629880Y-5369560I-30000J0D01*
G01*
X6629880Y-5369560D02*
G75*
G02*
X6689880Y-5369560I30000J0D01*
G01*
X6689880Y-5562600D02*
G75*
G02*
X6629880Y-5562600I-30000J0D01*
G01*
X6629880Y-5562600D02*
G75*
G02*
X6689880Y-5562600I30000J0D01*
G01*
X7015000Y-2705100D02*
G75*
G02*
X6955000Y-2705100I-30000J0D01*
G01*
X6955000Y-2705100D02*
G75*
G02*
X7015000Y-2705100I30000J0D01*
G01*
X7294400Y-6083300D02*
G75*
G02*
X7234400Y-6083300I-30000J0D01*
G01*
X7234400Y-6083300D02*
G75*
G02*
X7294400Y-6083300I30000J0D01*
G01*
X7345200Y-5346700D02*
G75*
G02*
X7285200Y-5346700I-30000J0D01*
G01*
X7285200Y-5346700D02*
G75*
G02*
X7345200Y-5346700I30000J0D01*
G01*
X7370600Y-6350000D02*
G75*
G02*
X7310600Y-6350000I-30000J0D01*
G01*
X7310600Y-6350000D02*
G75*
G02*
X7370600Y-6350000I30000J0D01*
G01*
X7426480Y-5877560D02*
G75*
G02*
X7366480Y-5877560I-30000J0D01*
G01*
X7366480Y-5877560D02*
G75*
G02*
X7426480Y-5877560I30000J0D01*
G01*
X7589040Y-5349240D02*
G75*
G02*
X7529040Y-5349240I-30000J0D01*
G01*
X7529040Y-5349240D02*
G75*
G02*
X7589040Y-5349240I30000J0D01*
G01*
X7726200Y-5379720D02*
G75*
G02*
X7666200Y-5379720I-30000J0D01*
G01*
X7666200Y-5379720D02*
G75*
G02*
X7726200Y-5379720I30000J0D01*
G01*
X7822720Y-6558280D02*
G75*
G02*
X7762720Y-6558280I-30000J0D01*
G01*
X7762720Y-6558280D02*
G75*
G02*
X7822720Y-6558280I30000J0D01*
G01*
X7853200Y-4724400D02*
G75*
G02*
X7793200Y-4724400I-30000J0D01*
G01*
X7793200Y-4724400D02*
G75*
G02*
X7853200Y-4724400I30000J0D01*
G01*
X7939560Y-4389120D02*
G75*
G02*
X7879560Y-4389120I-30000J0D01*
G01*
X7879560Y-4389120D02*
G75*
G02*
X7939560Y-4389120I30000J0D01*
G01*
X7939560Y-4505960D02*
G75*
G02*
X7879560Y-4505960I-30000J0D01*
G01*
X7879560Y-4505960D02*
G75*
G02*
X7939560Y-4505960I30000J0D01*
G01*
X8097040Y-6090920D02*
G75*
G02*
X8037040Y-6090920I-30000J0D01*
G01*
X8037040Y-6090920D02*
G75*
G02*
X8097040Y-6090920I30000J0D01*
G01*
X8170700Y-4826280D02*
G75*
G02*
X8110700Y-4826280I-30000J0D01*
G01*
X8110700Y-4826280D02*
G75*
G02*
X8170700Y-4826280I30000J0D01*
G01*
X8170700Y-5194300D02*
G75*
G02*
X8110700Y-5194300I-30000J0D01*
G01*
X8110700Y-5194300D02*
G75*
G02*
X8170700Y-5194300I30000J0D01*
G01*
X8198640Y-3870960D02*
G75*
G02*
X8138640Y-3870960I-30000J0D01*
G01*
X8138640Y-3870960D02*
G75*
G02*
X8198640Y-3870960I30000J0D01*
G01*
X8206841Y-4713659D02*
G75*
G02*
X8146841Y-4713659I-30000J0D01*
G01*
X8146841Y-4713659D02*
G75*
G02*
X8206841Y-4713659I30000J0D01*
G01*
X8249440Y-6060440D02*
G75*
G02*
X8189440Y-6060440I-30000J0D01*
G01*
X8189440Y-6060440D02*
G75*
G02*
X8249440Y-6060440I30000J0D01*
G01*
X8264680Y-6654800D02*
G75*
G02*
X8204680Y-6654800I-30000J0D01*
G01*
X8204680Y-6654800D02*
G75*
G02*
X8264680Y-6654800I30000J0D01*
G01*
X8274840Y-4084320D02*
G75*
G02*
X8214840Y-4084320I-30000J0D01*
G01*
X8214840Y-4084320D02*
G75*
G02*
X8274840Y-4084320I30000J0D01*
G01*
X8305320Y-4800600D02*
G75*
G02*
X8245320Y-4800600I-30000J0D01*
G01*
X8245320Y-4800600D02*
G75*
G02*
X8305320Y-4800600I30000J0D01*
G01*
X8391680Y-5191760D02*
G75*
G02*
X8331680Y-5191760I-30000J0D01*
G01*
X8331680Y-5191760D02*
G75*
G02*
X8391680Y-5191760I30000J0D01*
G01*
X8462800Y-3296920D02*
G75*
G02*
X8402800Y-3296920I-30000J0D01*
G01*
X8402800Y-3296920D02*
G75*
G02*
X8462800Y-3296920I30000J0D01*
G01*
X8518680Y-5250000D02*
G75*
G02*
X8458680Y-5250000I-30000J0D01*
G01*
X8458680Y-5250000D02*
G75*
G02*
X8518680Y-5250000I30000J0D01*
G01*
X8630440Y-5050000D02*
G75*
G02*
X8570440Y-5050000I-30000J0D01*
G01*
X8570440Y-5050000D02*
G75*
G02*
X8630440Y-5050000I30000J0D01*
G01*
X8666000Y-4084320D02*
G75*
G02*
X8606000Y-4084320I-30000J0D01*
G01*
X8606000Y-4084320D02*
G75*
G02*
X8666000Y-4084320I30000J0D01*
G01*
X8676160Y-3581400D02*
G75*
G02*
X8616160Y-3581400I-30000J0D01*
G01*
X8616160Y-3581400D02*
G75*
G02*
X8676160Y-3581400I30000J0D01*
G01*
X8831100Y-4356100D02*
G75*
G02*
X8771100Y-4356100I-30000J0D01*
G01*
X8771100Y-4356100D02*
G75*
G02*
X8831100Y-4356100I30000J0D01*
G01*
X6568000Y-6586500D02*
X6568000Y-6646500D01*
X6538000Y-6616500D02*
X6598000Y-6616500D01*
X6538000Y-6561500D02*
X6538000Y-6671500D01*
X6598000Y-6671500D02*
G75*
G02*
X6538000Y-6671500I-30000J0D01*
G01*
X6598000Y-6671500D02*
X6598000Y-6561500D01*
X6598000Y-6561500D02*
G75*
G03*
X6538000Y-6561500I-30000J0D01*
G01*
X6568000Y-7004500D02*
X6568000Y-7064500D01*
X6538000Y-7034500D02*
X6598000Y-7034500D01*
X6538000Y-7004500D02*
X6538000Y-7064500D01*
X6598000Y-7064500D02*
G75*
G02*
X6538000Y-7064500I-30000J0D01*
G01*
X6598000Y-7064500D02*
X6598000Y-7004500D01*
X6598000Y-7004500D02*
G75*
G03*
X6538000Y-7004500I-30000J0D01*
G01*
X7432000Y-6586500D02*
X7432000Y-6646500D01*
X7402000Y-6616500D02*
X7462000Y-6616500D01*
X7402000Y-6561500D02*
X7402000Y-6671500D01*
X7462000Y-6671500D02*
G75*
G02*
X7402000Y-6671500I-30000J0D01*
G01*
X7462000Y-6671500D02*
X7462000Y-6561500D01*
X7462000Y-6561500D02*
G75*
G03*
X7402000Y-6561500I-30000J0D01*
G01*
X7432000Y-7004500D02*
X7432000Y-7064500D01*
X7402000Y-7034500D02*
X7462000Y-7034500D01*
X7402000Y-7004500D02*
X7402000Y-7064500D01*
X7462000Y-7064500D02*
G75*
G02*
X7402000Y-7064500I-30000J0D01*
G01*
X7462000Y-7064500D02*
X7462000Y-7004500D01*
X7462000Y-7004500D02*
G75*
G03*
X7402000Y-7004500I-30000J0D01*
G01*
X8805636Y-3760259D02*
X8805636Y-3714297D01*
X8759674Y-3714297D01*
X8759674Y-3760259D01*
X8805636Y-3760259D01*
X8859309Y-3875360D02*
X8859309Y-3829398D01*
X8813346Y-3829398D01*
X8813346Y-3875360D01*
X8859309Y-3875360D01*
X8912981Y-3990461D02*
X8912981Y-3944499D01*
X8867019Y-3944499D01*
X8867019Y-3990461D01*
X8912981Y-3990461D01*
X8966654Y-4105562D02*
X8966654Y-4059600D01*
X8920691Y-4059600D01*
X8920691Y-4105562D01*
X8966654Y-4105562D01*
X9020326Y-4220664D02*
X9020326Y-4174701D01*
X8974364Y-4174701D01*
X8974364Y-4220664D01*
X9020326Y-4220664D01*
X9073999Y-4335765D02*
X9073999Y-4289802D01*
X9028036Y-4289802D01*
X9028036Y-4335765D01*
X9073999Y-4335765D01*
X6527800Y-3430900D02*
X6567800Y-3390900D01*
X6527800Y-3350900D01*
X6487800Y-3390900D01*
X6527800Y-3430900D01*
X7706360Y-3535040D02*
X7746360Y-3495040D01*
X7706360Y-3455040D01*
X7666360Y-3495040D01*
X7706360Y-3535040D01*
X7706360Y-4231000D02*
X7746360Y-4191000D01*
X7706360Y-4151000D01*
X7666360Y-4191000D01*
X7706360Y-4231000D01*
X6100000Y-4600000D02*
X6200000Y-4700000D01*
X6200000Y-4600000D02*
X6100000Y-4700000D01*
X6200000Y-4650000D02*
G75*
G02*
X6100000Y-4650000I-50000J0D01*
G01*
X6100000Y-4650000D02*
G75*
G02*
X6200000Y-4650000I50000J0D01*
G01*
X6100000Y-4854000D02*
X6200000Y-4954000D01*
X6200000Y-4854000D02*
X6100000Y-4954000D01*
X6200000Y-4904000D02*
G75*
G02*
X6100000Y-4904000I-50000J0D01*
G01*
X6100000Y-4904000D02*
G75*
G02*
X6200000Y-4904000I50000J0D01*
G01*
X6100000Y-5108000D02*
X6200000Y-5208000D01*
X6200000Y-5108000D02*
X6100000Y-5208000D01*
X6200000Y-5158000D02*
G75*
G02*
X6100000Y-5158000I-50000J0D01*
G01*
X6100000Y-5158000D02*
G75*
G02*
X6200000Y-5158000I50000J0D01*
G01*
D13*
X6307700Y-6091800D02*
X6417700Y-6201800D01*
X6417700Y-6091800D02*
X6307700Y-6201800D01*
X6362700Y-6091800D02*
X6362700Y-6201800D01*
X6307700Y-6146800D02*
X6417700Y-6146800D01*
X6485500Y-2777100D02*
X6595500Y-2887100D01*
X6595500Y-2777100D02*
X6485500Y-2887100D01*
X6540500Y-2777100D02*
X6540500Y-2887100D01*
X6485500Y-2832100D02*
X6595500Y-2832100D01*
X7666600Y-6782680D02*
X7776600Y-6892680D01*
X7776600Y-6782680D02*
X7666600Y-6892680D01*
X7721600Y-6782680D02*
X7721600Y-6892680D01*
X7666600Y-6837680D02*
X7776600Y-6837680D01*
D12*
X6678500Y-6637000D02*
X6743500Y-6702000D01*
X6743500Y-6637000D02*
X6678500Y-6702000D01*
X6733981Y-6692481D02*
X6733981Y-6646519D01*
X6688019Y-6646519D01*
X6688019Y-6692481D01*
X6733981Y-6692481D01*
X7256500Y-6637000D02*
X7321500Y-6702000D01*
X7321500Y-6637000D02*
X7256500Y-6702000D01*
X7311981Y-6692481D02*
X7311981Y-6646519D01*
X7266019Y-6646519D01*
X7266019Y-6692481D01*
X7311981Y-6692481D01*
D14*
X5884492Y-6503281D02*
X6204492Y-6823281D01*
X6204492Y-6503281D02*
X5884492Y-6823281D01*
X6044492Y-6823281D02*
X6204492Y-6663281D01*
X6044492Y-6503281D01*
X5884492Y-6663281D01*
X6044492Y-6823281D01*
X5884509Y-2986709D02*
X6204509Y-3306709D01*
X6204509Y-2986709D02*
X5884509Y-3306709D01*
X6044509Y-3306709D02*
X6204509Y-3146709D01*
X6044509Y-2986709D01*
X5884509Y-3146709D01*
X6044509Y-3306709D01*
X8837618Y-4745000D02*
X9157618Y-5065000D01*
X9157618Y-4745000D02*
X8837618Y-5065000D01*
X8997618Y-5065000D02*
X9157618Y-4905000D01*
X8997618Y-4745000D01*
X8837618Y-4905000D01*
X8997618Y-5065000D01*
D11*
X5029292Y-7586343D02*
X5029292Y-7386343D01*
X5029292Y-7386343D02*
X5076911Y-7386343D01*
X5076911Y-7386343D02*
X5105483Y-7395867D01*
X5105483Y-7395867D02*
X5124531Y-7414914D01*
X5124531Y-7414914D02*
X5134054Y-7433962D01*
X5134054Y-7433962D02*
X5143578Y-7472057D01*
X5143578Y-7472057D02*
X5143578Y-7500629D01*
X5143578Y-7500629D02*
X5134054Y-7538724D01*
X5134054Y-7538724D02*
X5124531Y-7557771D01*
X5124531Y-7557771D02*
X5105483Y-7576819D01*
X5105483Y-7576819D02*
X5076911Y-7586343D01*
X5076911Y-7586343D02*
X5029292Y-7586343D01*
X5229292Y-7586343D02*
X5229292Y-7453009D01*
X5229292Y-7491105D02*
X5238816Y-7472057D01*
X5238816Y-7472057D02*
X5248340Y-7462533D01*
X5248340Y-7462533D02*
X5267388Y-7453009D01*
X5267388Y-7453009D02*
X5286435Y-7453009D01*
X5353102Y-7586343D02*
X5353102Y-7453009D01*
X5353102Y-7386343D02*
X5343578Y-7395867D01*
X5343578Y-7395867D02*
X5353102Y-7405390D01*
X5353102Y-7405390D02*
X5362626Y-7395867D01*
X5362626Y-7395867D02*
X5353102Y-7386343D01*
X5353102Y-7386343D02*
X5353102Y-7405390D01*
X5476911Y-7586343D02*
X5457864Y-7576819D01*
X5457864Y-7576819D02*
X5448340Y-7557771D01*
X5448340Y-7557771D02*
X5448340Y-7386343D01*
X5581673Y-7586343D02*
X5562626Y-7576819D01*
X5562626Y-7576819D02*
X5553102Y-7557771D01*
X5553102Y-7557771D02*
X5553102Y-7386343D01*
X5810245Y-7586343D02*
X5810245Y-7386343D01*
X5810245Y-7386343D02*
X5876911Y-7529200D01*
X5876911Y-7529200D02*
X5943578Y-7386343D01*
X5943578Y-7386343D02*
X5943578Y-7586343D01*
X6124530Y-7586343D02*
X6124530Y-7481581D01*
X6124530Y-7481581D02*
X6115007Y-7462533D01*
X6115007Y-7462533D02*
X6095959Y-7453009D01*
X6095959Y-7453009D02*
X6057864Y-7453009D01*
X6057864Y-7453009D02*
X6038816Y-7462533D01*
X6124530Y-7576819D02*
X6105483Y-7586343D01*
X6105483Y-7586343D02*
X6057864Y-7586343D01*
X6057864Y-7586343D02*
X6038816Y-7576819D01*
X6038816Y-7576819D02*
X6029292Y-7557771D01*
X6029292Y-7557771D02*
X6029292Y-7538724D01*
X6029292Y-7538724D02*
X6038816Y-7519676D01*
X6038816Y-7519676D02*
X6057864Y-7510152D01*
X6057864Y-7510152D02*
X6105483Y-7510152D01*
X6105483Y-7510152D02*
X6124530Y-7500629D01*
X6219769Y-7453009D02*
X6219769Y-7653009D01*
X6219769Y-7462533D02*
X6238816Y-7453009D01*
X6238816Y-7453009D02*
X6276911Y-7453009D01*
X6276911Y-7453009D02*
X6295959Y-7462533D01*
X6295959Y-7462533D02*
X6305483Y-7472057D01*
X6305483Y-7472057D02*
X6315007Y-7491105D01*
X6315007Y-7491105D02*
X6315007Y-7548248D01*
X6315007Y-7548248D02*
X6305483Y-7567295D01*
X6305483Y-7567295D02*
X6295959Y-7576819D01*
X6295959Y-7576819D02*
X6276911Y-7586343D01*
X6276911Y-7586343D02*
X6238816Y-7586343D01*
X6238816Y-7586343D02*
X6219769Y-7576819D01*
X6400721Y-7567295D02*
X6410245Y-7576819D01*
X6410245Y-7576819D02*
X6400721Y-7586343D01*
X6400721Y-7586343D02*
X6391197Y-7576819D01*
X6391197Y-7576819D02*
X6400721Y-7567295D01*
X6400721Y-7567295D02*
X6400721Y-7586343D01*
X6400721Y-7462533D02*
X6410245Y-7472057D01*
X6410245Y-7472057D02*
X6400721Y-7481581D01*
X6400721Y-7481581D02*
X6391197Y-7472057D01*
X6391197Y-7472057D02*
X6400721Y-7462533D01*
X6400721Y-7462533D02*
X6400721Y-7481581D01*
D12*
X4728516Y-7894859D02*
X4768516Y-7934859D01*
X4768516Y-7894859D02*
X4728516Y-7934859D01*
D11*
X5067388Y-7806343D02*
X5086435Y-7806343D01*
X5086435Y-7806343D02*
X5105483Y-7815867D01*
X5105483Y-7815867D02*
X5115007Y-7825390D01*
X5115007Y-7825390D02*
X5124531Y-7844438D01*
X5124531Y-7844438D02*
X5134054Y-7882533D01*
X5134054Y-7882533D02*
X5134054Y-7930152D01*
X5134054Y-7930152D02*
X5124531Y-7968248D01*
X5124531Y-7968248D02*
X5115007Y-7987295D01*
X5115007Y-7987295D02*
X5105483Y-7996819D01*
X5105483Y-7996819D02*
X5086435Y-8006343D01*
X5086435Y-8006343D02*
X5067388Y-8006343D01*
X5067388Y-8006343D02*
X5048340Y-7996819D01*
X5048340Y-7996819D02*
X5038816Y-7987295D01*
X5038816Y-7987295D02*
X5029292Y-7968248D01*
X5029292Y-7968248D02*
X5019769Y-7930152D01*
X5019769Y-7930152D02*
X5019769Y-7882533D01*
X5019769Y-7882533D02*
X5029292Y-7844438D01*
X5029292Y-7844438D02*
X5038816Y-7825390D01*
X5038816Y-7825390D02*
X5048340Y-7815867D01*
X5048340Y-7815867D02*
X5067388Y-7806343D01*
X5219769Y-7987295D02*
X5229292Y-7996819D01*
X5229292Y-7996819D02*
X5219769Y-8006343D01*
X5219769Y-8006343D02*
X5210245Y-7996819D01*
X5210245Y-7996819D02*
X5219769Y-7987295D01*
X5219769Y-7987295D02*
X5219769Y-8006343D01*
X5400721Y-7873009D02*
X5400721Y-8006343D01*
X5353102Y-7796819D02*
X5305483Y-7939676D01*
X5305483Y-7939676D02*
X5429292Y-7939676D01*
X5543578Y-7806343D02*
X5562626Y-7806343D01*
X5562626Y-7806343D02*
X5581673Y-7815867D01*
X5581673Y-7815867D02*
X5591197Y-7825390D01*
X5591197Y-7825390D02*
X5600721Y-7844438D01*
X5600721Y-7844438D02*
X5610245Y-7882533D01*
X5610245Y-7882533D02*
X5610245Y-7930152D01*
X5610245Y-7930152D02*
X5600721Y-7968248D01*
X5600721Y-7968248D02*
X5591197Y-7987295D01*
X5591197Y-7987295D02*
X5581673Y-7996819D01*
X5581673Y-7996819D02*
X5562626Y-8006343D01*
X5562626Y-8006343D02*
X5543578Y-8006343D01*
X5543578Y-8006343D02*
X5524531Y-7996819D01*
X5524531Y-7996819D02*
X5515007Y-7987295D01*
X5515007Y-7987295D02*
X5505483Y-7968248D01*
X5505483Y-7968248D02*
X5495959Y-7930152D01*
X5495959Y-7930152D02*
X5495959Y-7882533D01*
X5495959Y-7882533D02*
X5505483Y-7844438D01*
X5505483Y-7844438D02*
X5515007Y-7825390D01*
X5515007Y-7825390D02*
X5524531Y-7815867D01*
X5524531Y-7815867D02*
X5543578Y-7806343D01*
X5734054Y-7806343D02*
X5753102Y-7806343D01*
X5753102Y-7806343D02*
X5772150Y-7815867D01*
X5772150Y-7815867D02*
X5781673Y-7825390D01*
X5781673Y-7825390D02*
X5791197Y-7844438D01*
X5791197Y-7844438D02*
X5800721Y-7882533D01*
X5800721Y-7882533D02*
X5800721Y-7930152D01*
X5800721Y-7930152D02*
X5791197Y-7968248D01*
X5791197Y-7968248D02*
X5781673Y-7987295D01*
X5781673Y-7987295D02*
X5772150Y-7996819D01*
X5772150Y-7996819D02*
X5753102Y-8006343D01*
X5753102Y-8006343D02*
X5734054Y-8006343D01*
X5734054Y-8006343D02*
X5715007Y-7996819D01*
X5715007Y-7996819D02*
X5705483Y-7987295D01*
X5705483Y-7987295D02*
X5695959Y-7968248D01*
X5695959Y-7968248D02*
X5686435Y-7930152D01*
X5686435Y-7930152D02*
X5686435Y-7882533D01*
X5686435Y-7882533D02*
X5695959Y-7844438D01*
X5695959Y-7844438D02*
X5705483Y-7825390D01*
X5705483Y-7825390D02*
X5715007Y-7815867D01*
X5715007Y-7815867D02*
X5734054Y-7806343D01*
X5886435Y-8006343D02*
X5886435Y-7873009D01*
X5886435Y-7892057D02*
X5895959Y-7882533D01*
X5895959Y-7882533D02*
X5915007Y-7873009D01*
X5915007Y-7873009D02*
X5943578Y-7873009D01*
X5943578Y-7873009D02*
X5962626Y-7882533D01*
X5962626Y-7882533D02*
X5972150Y-7901581D01*
X5972150Y-7901581D02*
X5972150Y-8006343D01*
X5972150Y-7901581D02*
X5981673Y-7882533D01*
X5981673Y-7882533D02*
X6000721Y-7873009D01*
X6000721Y-7873009D02*
X6029292Y-7873009D01*
X6029292Y-7873009D02*
X6048340Y-7882533D01*
X6048340Y-7882533D02*
X6057864Y-7901581D01*
X6057864Y-7901581D02*
X6057864Y-8006343D01*
X6153102Y-8006343D02*
X6153102Y-7873009D01*
X6153102Y-7892057D02*
X6162626Y-7882533D01*
X6162626Y-7882533D02*
X6181673Y-7873009D01*
X6181673Y-7873009D02*
X6210245Y-7873009D01*
X6210245Y-7873009D02*
X6229292Y-7882533D01*
X6229292Y-7882533D02*
X6238816Y-7901581D01*
X6238816Y-7901581D02*
X6238816Y-8006343D01*
X6238816Y-7901581D02*
X6248340Y-7882533D01*
X6248340Y-7882533D02*
X6267388Y-7873009D01*
X6267388Y-7873009D02*
X6295959Y-7873009D01*
X6295959Y-7873009D02*
X6315007Y-7882533D01*
X6315007Y-7882533D02*
X6324531Y-7901581D01*
X6324531Y-7901581D02*
X6324531Y-8006343D01*
X6715007Y-7796819D02*
X6543578Y-8053962D01*
X6972150Y-7806343D02*
X6991197Y-7806343D01*
X6991197Y-7806343D02*
X7010245Y-7815867D01*
X7010245Y-7815867D02*
X7019769Y-7825390D01*
X7019769Y-7825390D02*
X7029293Y-7844438D01*
X7029293Y-7844438D02*
X7038816Y-7882533D01*
X7038816Y-7882533D02*
X7038816Y-7930152D01*
X7038816Y-7930152D02*
X7029293Y-7968248D01*
X7029293Y-7968248D02*
X7019769Y-7987295D01*
X7019769Y-7987295D02*
X7010245Y-7996819D01*
X7010245Y-7996819D02*
X6991197Y-8006343D01*
X6991197Y-8006343D02*
X6972150Y-8006343D01*
X6972150Y-8006343D02*
X6953102Y-7996819D01*
X6953102Y-7996819D02*
X6943578Y-7987295D01*
X6943578Y-7987295D02*
X6934054Y-7968248D01*
X6934054Y-7968248D02*
X6924531Y-7930152D01*
X6924531Y-7930152D02*
X6924531Y-7882533D01*
X6924531Y-7882533D02*
X6934054Y-7844438D01*
X6934054Y-7844438D02*
X6943578Y-7825390D01*
X6943578Y-7825390D02*
X6953102Y-7815867D01*
X6953102Y-7815867D02*
X6972150Y-7806343D01*
X7124531Y-7987295D02*
X7134054Y-7996819D01*
X7134054Y-7996819D02*
X7124531Y-8006343D01*
X7124531Y-8006343D02*
X7115007Y-7996819D01*
X7115007Y-7996819D02*
X7124531Y-7987295D01*
X7124531Y-7987295D02*
X7124531Y-8006343D01*
X7257864Y-7806343D02*
X7276912Y-7806343D01*
X7276912Y-7806343D02*
X7295959Y-7815867D01*
X7295959Y-7815867D02*
X7305483Y-7825390D01*
X7305483Y-7825390D02*
X7315007Y-7844438D01*
X7315007Y-7844438D02*
X7324531Y-7882533D01*
X7324531Y-7882533D02*
X7324531Y-7930152D01*
X7324531Y-7930152D02*
X7315007Y-7968248D01*
X7315007Y-7968248D02*
X7305483Y-7987295D01*
X7305483Y-7987295D02*
X7295959Y-7996819D01*
X7295959Y-7996819D02*
X7276912Y-8006343D01*
X7276912Y-8006343D02*
X7257864Y-8006343D01*
X7257864Y-8006343D02*
X7238816Y-7996819D01*
X7238816Y-7996819D02*
X7229293Y-7987295D01*
X7229293Y-7987295D02*
X7219769Y-7968248D01*
X7219769Y-7968248D02*
X7210245Y-7930152D01*
X7210245Y-7930152D02*
X7210245Y-7882533D01*
X7210245Y-7882533D02*
X7219769Y-7844438D01*
X7219769Y-7844438D02*
X7229293Y-7825390D01*
X7229293Y-7825390D02*
X7238816Y-7815867D01*
X7238816Y-7815867D02*
X7257864Y-7806343D01*
X7515007Y-8006343D02*
X7400721Y-8006343D01*
X7457864Y-8006343D02*
X7457864Y-7806343D01*
X7457864Y-7806343D02*
X7438816Y-7834914D01*
X7438816Y-7834914D02*
X7419769Y-7853962D01*
X7419769Y-7853962D02*
X7400721Y-7863486D01*
X7695959Y-7806343D02*
X7600721Y-7806343D01*
X7600721Y-7806343D02*
X7591197Y-7901581D01*
X7591197Y-7901581D02*
X7600721Y-7892057D01*
X7600721Y-7892057D02*
X7619769Y-7882533D01*
X7619769Y-7882533D02*
X7667388Y-7882533D01*
X7667388Y-7882533D02*
X7686435Y-7892057D01*
X7686435Y-7892057D02*
X7695959Y-7901581D01*
X7695959Y-7901581D02*
X7705483Y-7920629D01*
X7705483Y-7920629D02*
X7705483Y-7968248D01*
X7705483Y-7968248D02*
X7695959Y-7987295D01*
X7695959Y-7987295D02*
X7686435Y-7996819D01*
X7686435Y-7996819D02*
X7667388Y-8006343D01*
X7667388Y-8006343D02*
X7619769Y-8006343D01*
X7619769Y-8006343D02*
X7600721Y-7996819D01*
X7600721Y-7996819D02*
X7591197Y-7987295D01*
X7772150Y-7806343D02*
X7905483Y-7806343D01*
X7905483Y-7806343D02*
X7819769Y-8006343D01*
X7972150Y-7806343D02*
X7972150Y-7844438D01*
X8048340Y-7806343D02*
X8048340Y-7844438D01*
X8343578Y-8082533D02*
X8334055Y-8073009D01*
X8334055Y-8073009D02*
X8315007Y-8044438D01*
X8315007Y-8044438D02*
X8305483Y-8025390D01*
X8305483Y-8025390D02*
X8295959Y-7996819D01*
X8295959Y-7996819D02*
X8286436Y-7949200D01*
X8286436Y-7949200D02*
X8286436Y-7911105D01*
X8286436Y-7911105D02*
X8295959Y-7863486D01*
X8295959Y-7863486D02*
X8305483Y-7834914D01*
X8305483Y-7834914D02*
X8315007Y-7815867D01*
X8315007Y-7815867D02*
X8334055Y-7787295D01*
X8334055Y-7787295D02*
X8343578Y-7777771D01*
X8410245Y-7825390D02*
X8419769Y-7815867D01*
X8419769Y-7815867D02*
X8438817Y-7806343D01*
X8438817Y-7806343D02*
X8486436Y-7806343D01*
X8486436Y-7806343D02*
X8505483Y-7815867D01*
X8505483Y-7815867D02*
X8515007Y-7825390D01*
X8515007Y-7825390D02*
X8524531Y-7844438D01*
X8524531Y-7844438D02*
X8524531Y-7863486D01*
X8524531Y-7863486D02*
X8515007Y-7892057D01*
X8515007Y-7892057D02*
X8400721Y-8006343D01*
X8400721Y-8006343D02*
X8524531Y-8006343D01*
X8762626Y-8006343D02*
X8762626Y-7806343D01*
X8848340Y-8006343D02*
X8848340Y-7901581D01*
X8848340Y-7901581D02*
X8838817Y-7882533D01*
X8838817Y-7882533D02*
X8819769Y-7873009D01*
X8819769Y-7873009D02*
X8791198Y-7873009D01*
X8791198Y-7873009D02*
X8772150Y-7882533D01*
X8772150Y-7882533D02*
X8762626Y-7892057D01*
X8972150Y-8006343D02*
X8953102Y-7996819D01*
X8953102Y-7996819D02*
X8943579Y-7987295D01*
X8943579Y-7987295D02*
X8934055Y-7968248D01*
X8934055Y-7968248D02*
X8934055Y-7911105D01*
X8934055Y-7911105D02*
X8943579Y-7892057D01*
X8943579Y-7892057D02*
X8953102Y-7882533D01*
X8953102Y-7882533D02*
X8972150Y-7873009D01*
X8972150Y-7873009D02*
X9000721Y-7873009D01*
X9000721Y-7873009D02*
X9019769Y-7882533D01*
X9019769Y-7882533D02*
X9029293Y-7892057D01*
X9029293Y-7892057D02*
X9038817Y-7911105D01*
X9038817Y-7911105D02*
X9038817Y-7968248D01*
X9038817Y-7968248D02*
X9029293Y-7987295D01*
X9029293Y-7987295D02*
X9019769Y-7996819D01*
X9019769Y-7996819D02*
X9000721Y-8006343D01*
X9000721Y-8006343D02*
X8972150Y-8006343D01*
X9153102Y-8006343D02*
X9134055Y-7996819D01*
X9134055Y-7996819D02*
X9124531Y-7977771D01*
X9124531Y-7977771D02*
X9124531Y-7806343D01*
X9305483Y-7996819D02*
X9286436Y-8006343D01*
X9286436Y-8006343D02*
X9248340Y-8006343D01*
X9248340Y-8006343D02*
X9229293Y-7996819D01*
X9229293Y-7996819D02*
X9219769Y-7977771D01*
X9219769Y-7977771D02*
X9219769Y-7901581D01*
X9219769Y-7901581D02*
X9229293Y-7882533D01*
X9229293Y-7882533D02*
X9248340Y-7873009D01*
X9248340Y-7873009D02*
X9286436Y-7873009D01*
X9286436Y-7873009D02*
X9305483Y-7882533D01*
X9305483Y-7882533D02*
X9315007Y-7901581D01*
X9315007Y-7901581D02*
X9315007Y-7920629D01*
X9315007Y-7920629D02*
X9219769Y-7939676D01*
X9391198Y-7996819D02*
X9410245Y-8006343D01*
X9410245Y-8006343D02*
X9448340Y-8006343D01*
X9448340Y-8006343D02*
X9467388Y-7996819D01*
X9467388Y-7996819D02*
X9476912Y-7977771D01*
X9476912Y-7977771D02*
X9476912Y-7968248D01*
X9476912Y-7968248D02*
X9467388Y-7949200D01*
X9467388Y-7949200D02*
X9448340Y-7939676D01*
X9448340Y-7939676D02*
X9419769Y-7939676D01*
X9419769Y-7939676D02*
X9400721Y-7930152D01*
X9400721Y-7930152D02*
X9391198Y-7911105D01*
X9391198Y-7911105D02*
X9391198Y-7901581D01*
X9391198Y-7901581D02*
X9400721Y-7882533D01*
X9400721Y-7882533D02*
X9419769Y-7873009D01*
X9419769Y-7873009D02*
X9448340Y-7873009D01*
X9448340Y-7873009D02*
X9467388Y-7882533D01*
X9543579Y-8082533D02*
X9553102Y-8073009D01*
X9553102Y-8073009D02*
X9572150Y-8044438D01*
X9572150Y-8044438D02*
X9581674Y-8025390D01*
X9581674Y-8025390D02*
X9591198Y-7996819D01*
X9591198Y-7996819D02*
X9600721Y-7949200D01*
X9600721Y-7949200D02*
X9600721Y-7911105D01*
X9600721Y-7911105D02*
X9591198Y-7863486D01*
X9591198Y-7863486D02*
X9581674Y-7834914D01*
X9581674Y-7834914D02*
X9572150Y-7815867D01*
X9572150Y-7815867D02*
X9553102Y-7787295D01*
X9553102Y-7787295D02*
X9543579Y-7777771D01*
D12*
X4768516Y-8178859D02*
G75*
G02*
X4708516Y-8178859I-30000J0D01*
G01*
X4708516Y-8178859D02*
G75*
G02*
X4768516Y-8178859I30000J0D01*
G01*
D11*
X5067388Y-8070343D02*
X5086435Y-8070343D01*
X5086435Y-8070343D02*
X5105483Y-8079867D01*
X5105483Y-8079867D02*
X5115007Y-8089390D01*
X5115007Y-8089390D02*
X5124531Y-8108438D01*
X5124531Y-8108438D02*
X5134054Y-8146533D01*
X5134054Y-8146533D02*
X5134054Y-8194152D01*
X5134054Y-8194152D02*
X5124531Y-8232248D01*
X5124531Y-8232248D02*
X5115007Y-8251295D01*
X5115007Y-8251295D02*
X5105483Y-8260819D01*
X5105483Y-8260819D02*
X5086435Y-8270343D01*
X5086435Y-8270343D02*
X5067388Y-8270343D01*
X5067388Y-8270343D02*
X5048340Y-8260819D01*
X5048340Y-8260819D02*
X5038816Y-8251295D01*
X5038816Y-8251295D02*
X5029292Y-8232248D01*
X5029292Y-8232248D02*
X5019769Y-8194152D01*
X5019769Y-8194152D02*
X5019769Y-8146533D01*
X5019769Y-8146533D02*
X5029292Y-8108438D01*
X5029292Y-8108438D02*
X5038816Y-8089390D01*
X5038816Y-8089390D02*
X5048340Y-8079867D01*
X5048340Y-8079867D02*
X5067388Y-8070343D01*
X5219769Y-8251295D02*
X5229292Y-8260819D01*
X5229292Y-8260819D02*
X5219769Y-8270343D01*
X5219769Y-8270343D02*
X5210245Y-8260819D01*
X5210245Y-8260819D02*
X5219769Y-8251295D01*
X5219769Y-8251295D02*
X5219769Y-8270343D01*
X5400721Y-8070343D02*
X5362626Y-8070343D01*
X5362626Y-8070343D02*
X5343578Y-8079867D01*
X5343578Y-8079867D02*
X5334054Y-8089390D01*
X5334054Y-8089390D02*
X5315007Y-8117962D01*
X5315007Y-8117962D02*
X5305483Y-8156057D01*
X5305483Y-8156057D02*
X5305483Y-8232248D01*
X5305483Y-8232248D02*
X5315007Y-8251295D01*
X5315007Y-8251295D02*
X5324531Y-8260819D01*
X5324531Y-8260819D02*
X5343578Y-8270343D01*
X5343578Y-8270343D02*
X5381673Y-8270343D01*
X5381673Y-8270343D02*
X5400721Y-8260819D01*
X5400721Y-8260819D02*
X5410245Y-8251295D01*
X5410245Y-8251295D02*
X5419769Y-8232248D01*
X5419769Y-8232248D02*
X5419769Y-8184629D01*
X5419769Y-8184629D02*
X5410245Y-8165581D01*
X5410245Y-8165581D02*
X5400721Y-8156057D01*
X5400721Y-8156057D02*
X5381673Y-8146533D01*
X5381673Y-8146533D02*
X5343578Y-8146533D01*
X5343578Y-8146533D02*
X5324531Y-8156057D01*
X5324531Y-8156057D02*
X5315007Y-8165581D01*
X5315007Y-8165581D02*
X5305483Y-8184629D01*
X5543578Y-8070343D02*
X5562626Y-8070343D01*
X5562626Y-8070343D02*
X5581673Y-8079867D01*
X5581673Y-8079867D02*
X5591197Y-8089390D01*
X5591197Y-8089390D02*
X5600721Y-8108438D01*
X5600721Y-8108438D02*
X5610245Y-8146533D01*
X5610245Y-8146533D02*
X5610245Y-8194152D01*
X5610245Y-8194152D02*
X5600721Y-8232248D01*
X5600721Y-8232248D02*
X5591197Y-8251295D01*
X5591197Y-8251295D02*
X5581673Y-8260819D01*
X5581673Y-8260819D02*
X5562626Y-8270343D01*
X5562626Y-8270343D02*
X5543578Y-8270343D01*
X5543578Y-8270343D02*
X5524531Y-8260819D01*
X5524531Y-8260819D02*
X5515007Y-8251295D01*
X5515007Y-8251295D02*
X5505483Y-8232248D01*
X5505483Y-8232248D02*
X5495959Y-8194152D01*
X5495959Y-8194152D02*
X5495959Y-8146533D01*
X5495959Y-8146533D02*
X5505483Y-8108438D01*
X5505483Y-8108438D02*
X5515007Y-8089390D01*
X5515007Y-8089390D02*
X5524531Y-8079867D01*
X5524531Y-8079867D02*
X5543578Y-8070343D01*
X5734054Y-8070343D02*
X5753102Y-8070343D01*
X5753102Y-8070343D02*
X5772150Y-8079867D01*
X5772150Y-8079867D02*
X5781673Y-8089390D01*
X5781673Y-8089390D02*
X5791197Y-8108438D01*
X5791197Y-8108438D02*
X5800721Y-8146533D01*
X5800721Y-8146533D02*
X5800721Y-8194152D01*
X5800721Y-8194152D02*
X5791197Y-8232248D01*
X5791197Y-8232248D02*
X5781673Y-8251295D01*
X5781673Y-8251295D02*
X5772150Y-8260819D01*
X5772150Y-8260819D02*
X5753102Y-8270343D01*
X5753102Y-8270343D02*
X5734054Y-8270343D01*
X5734054Y-8270343D02*
X5715007Y-8260819D01*
X5715007Y-8260819D02*
X5705483Y-8251295D01*
X5705483Y-8251295D02*
X5695959Y-8232248D01*
X5695959Y-8232248D02*
X5686435Y-8194152D01*
X5686435Y-8194152D02*
X5686435Y-8146533D01*
X5686435Y-8146533D02*
X5695959Y-8108438D01*
X5695959Y-8108438D02*
X5705483Y-8089390D01*
X5705483Y-8089390D02*
X5715007Y-8079867D01*
X5715007Y-8079867D02*
X5734054Y-8070343D01*
X5886435Y-8270343D02*
X5886435Y-8137009D01*
X5886435Y-8156057D02*
X5895959Y-8146533D01*
X5895959Y-8146533D02*
X5915007Y-8137009D01*
X5915007Y-8137009D02*
X5943578Y-8137009D01*
X5943578Y-8137009D02*
X5962626Y-8146533D01*
X5962626Y-8146533D02*
X5972150Y-8165581D01*
X5972150Y-8165581D02*
X5972150Y-8270343D01*
X5972150Y-8165581D02*
X5981673Y-8146533D01*
X5981673Y-8146533D02*
X6000721Y-8137009D01*
X6000721Y-8137009D02*
X6029292Y-8137009D01*
X6029292Y-8137009D02*
X6048340Y-8146533D01*
X6048340Y-8146533D02*
X6057864Y-8165581D01*
X6057864Y-8165581D02*
X6057864Y-8270343D01*
X6153102Y-8270343D02*
X6153102Y-8137009D01*
X6153102Y-8156057D02*
X6162626Y-8146533D01*
X6162626Y-8146533D02*
X6181673Y-8137009D01*
X6181673Y-8137009D02*
X6210245Y-8137009D01*
X6210245Y-8137009D02*
X6229292Y-8146533D01*
X6229292Y-8146533D02*
X6238816Y-8165581D01*
X6238816Y-8165581D02*
X6238816Y-8270343D01*
X6238816Y-8165581D02*
X6248340Y-8146533D01*
X6248340Y-8146533D02*
X6267388Y-8137009D01*
X6267388Y-8137009D02*
X6295959Y-8137009D01*
X6295959Y-8137009D02*
X6315007Y-8146533D01*
X6315007Y-8146533D02*
X6324531Y-8165581D01*
X6324531Y-8165581D02*
X6324531Y-8270343D01*
X6715007Y-8060819D02*
X6543578Y-8317962D01*
X6972150Y-8070343D02*
X6991197Y-8070343D01*
X6991197Y-8070343D02*
X7010245Y-8079867D01*
X7010245Y-8079867D02*
X7019769Y-8089390D01*
X7019769Y-8089390D02*
X7029293Y-8108438D01*
X7029293Y-8108438D02*
X7038816Y-8146533D01*
X7038816Y-8146533D02*
X7038816Y-8194152D01*
X7038816Y-8194152D02*
X7029293Y-8232248D01*
X7029293Y-8232248D02*
X7019769Y-8251295D01*
X7019769Y-8251295D02*
X7010245Y-8260819D01*
X7010245Y-8260819D02*
X6991197Y-8270343D01*
X6991197Y-8270343D02*
X6972150Y-8270343D01*
X6972150Y-8270343D02*
X6953102Y-8260819D01*
X6953102Y-8260819D02*
X6943578Y-8251295D01*
X6943578Y-8251295D02*
X6934054Y-8232248D01*
X6934054Y-8232248D02*
X6924531Y-8194152D01*
X6924531Y-8194152D02*
X6924531Y-8146533D01*
X6924531Y-8146533D02*
X6934054Y-8108438D01*
X6934054Y-8108438D02*
X6943578Y-8089390D01*
X6943578Y-8089390D02*
X6953102Y-8079867D01*
X6953102Y-8079867D02*
X6972150Y-8070343D01*
X7124531Y-8251295D02*
X7134054Y-8260819D01*
X7134054Y-8260819D02*
X7124531Y-8270343D01*
X7124531Y-8270343D02*
X7115007Y-8260819D01*
X7115007Y-8260819D02*
X7124531Y-8251295D01*
X7124531Y-8251295D02*
X7124531Y-8270343D01*
X7257864Y-8070343D02*
X7276912Y-8070343D01*
X7276912Y-8070343D02*
X7295959Y-8079867D01*
X7295959Y-8079867D02*
X7305483Y-8089390D01*
X7305483Y-8089390D02*
X7315007Y-8108438D01*
X7315007Y-8108438D02*
X7324531Y-8146533D01*
X7324531Y-8146533D02*
X7324531Y-8194152D01*
X7324531Y-8194152D02*
X7315007Y-8232248D01*
X7315007Y-8232248D02*
X7305483Y-8251295D01*
X7305483Y-8251295D02*
X7295959Y-8260819D01*
X7295959Y-8260819D02*
X7276912Y-8270343D01*
X7276912Y-8270343D02*
X7257864Y-8270343D01*
X7257864Y-8270343D02*
X7238816Y-8260819D01*
X7238816Y-8260819D02*
X7229293Y-8251295D01*
X7229293Y-8251295D02*
X7219769Y-8232248D01*
X7219769Y-8232248D02*
X7210245Y-8194152D01*
X7210245Y-8194152D02*
X7210245Y-8146533D01*
X7210245Y-8146533D02*
X7219769Y-8108438D01*
X7219769Y-8108438D02*
X7229293Y-8089390D01*
X7229293Y-8089390D02*
X7238816Y-8079867D01*
X7238816Y-8079867D02*
X7257864Y-8070343D01*
X7400721Y-8089390D02*
X7410245Y-8079867D01*
X7410245Y-8079867D02*
X7429293Y-8070343D01*
X7429293Y-8070343D02*
X7476912Y-8070343D01*
X7476912Y-8070343D02*
X7495959Y-8079867D01*
X7495959Y-8079867D02*
X7505483Y-8089390D01*
X7505483Y-8089390D02*
X7515007Y-8108438D01*
X7515007Y-8108438D02*
X7515007Y-8127486D01*
X7515007Y-8127486D02*
X7505483Y-8156057D01*
X7505483Y-8156057D02*
X7391197Y-8270343D01*
X7391197Y-8270343D02*
X7515007Y-8270343D01*
X7581674Y-8070343D02*
X7705483Y-8070343D01*
X7705483Y-8070343D02*
X7638816Y-8146533D01*
X7638816Y-8146533D02*
X7667388Y-8146533D01*
X7667388Y-8146533D02*
X7686435Y-8156057D01*
X7686435Y-8156057D02*
X7695959Y-8165581D01*
X7695959Y-8165581D02*
X7705483Y-8184629D01*
X7705483Y-8184629D02*
X7705483Y-8232248D01*
X7705483Y-8232248D02*
X7695959Y-8251295D01*
X7695959Y-8251295D02*
X7686435Y-8260819D01*
X7686435Y-8260819D02*
X7667388Y-8270343D01*
X7667388Y-8270343D02*
X7610245Y-8270343D01*
X7610245Y-8270343D02*
X7591197Y-8260819D01*
X7591197Y-8260819D02*
X7581674Y-8251295D01*
X7876912Y-8070343D02*
X7838816Y-8070343D01*
X7838816Y-8070343D02*
X7819769Y-8079867D01*
X7819769Y-8079867D02*
X7810245Y-8089390D01*
X7810245Y-8089390D02*
X7791197Y-8117962D01*
X7791197Y-8117962D02*
X7781674Y-8156057D01*
X7781674Y-8156057D02*
X7781674Y-8232248D01*
X7781674Y-8232248D02*
X7791197Y-8251295D01*
X7791197Y-8251295D02*
X7800721Y-8260819D01*
X7800721Y-8260819D02*
X7819769Y-8270343D01*
X7819769Y-8270343D02*
X7857864Y-8270343D01*
X7857864Y-8270343D02*
X7876912Y-8260819D01*
X7876912Y-8260819D02*
X7886435Y-8251295D01*
X7886435Y-8251295D02*
X7895959Y-8232248D01*
X7895959Y-8232248D02*
X7895959Y-8184629D01*
X7895959Y-8184629D02*
X7886435Y-8165581D01*
X7886435Y-8165581D02*
X7876912Y-8156057D01*
X7876912Y-8156057D02*
X7857864Y-8146533D01*
X7857864Y-8146533D02*
X7819769Y-8146533D01*
X7819769Y-8146533D02*
X7800721Y-8156057D01*
X7800721Y-8156057D02*
X7791197Y-8165581D01*
X7791197Y-8165581D02*
X7781674Y-8184629D01*
X7972150Y-8070343D02*
X7972150Y-8108438D01*
X8048340Y-8070343D02*
X8048340Y-8108438D01*
X8343578Y-8346533D02*
X8334055Y-8337009D01*
X8334055Y-8337009D02*
X8315007Y-8308438D01*
X8315007Y-8308438D02*
X8305483Y-8289390D01*
X8305483Y-8289390D02*
X8295959Y-8260819D01*
X8295959Y-8260819D02*
X8286436Y-8213200D01*
X8286436Y-8213200D02*
X8286436Y-8175105D01*
X8286436Y-8175105D02*
X8295959Y-8127486D01*
X8295959Y-8127486D02*
X8305483Y-8098914D01*
X8305483Y-8098914D02*
X8315007Y-8079867D01*
X8315007Y-8079867D02*
X8334055Y-8051295D01*
X8334055Y-8051295D02*
X8343578Y-8041771D01*
X8400721Y-8070343D02*
X8524531Y-8070343D01*
X8524531Y-8070343D02*
X8457864Y-8146533D01*
X8457864Y-8146533D02*
X8486436Y-8146533D01*
X8486436Y-8146533D02*
X8505483Y-8156057D01*
X8505483Y-8156057D02*
X8515007Y-8165581D01*
X8515007Y-8165581D02*
X8524531Y-8184629D01*
X8524531Y-8184629D02*
X8524531Y-8232248D01*
X8524531Y-8232248D02*
X8515007Y-8251295D01*
X8515007Y-8251295D02*
X8505483Y-8260819D01*
X8505483Y-8260819D02*
X8486436Y-8270343D01*
X8486436Y-8270343D02*
X8429293Y-8270343D01*
X8429293Y-8270343D02*
X8410245Y-8260819D01*
X8410245Y-8260819D02*
X8400721Y-8251295D01*
X8695959Y-8137009D02*
X8695959Y-8270343D01*
X8648340Y-8060819D02*
X8600721Y-8203676D01*
X8600721Y-8203676D02*
X8724531Y-8203676D01*
X8953102Y-8270343D02*
X8953102Y-8070343D01*
X9038817Y-8270343D02*
X9038817Y-8165581D01*
X9038817Y-8165581D02*
X9029293Y-8146533D01*
X9029293Y-8146533D02*
X9010245Y-8137009D01*
X9010245Y-8137009D02*
X8981674Y-8137009D01*
X8981674Y-8137009D02*
X8962626Y-8146533D01*
X8962626Y-8146533D02*
X8953102Y-8156057D01*
X9162626Y-8270343D02*
X9143579Y-8260819D01*
X9143579Y-8260819D02*
X9134055Y-8251295D01*
X9134055Y-8251295D02*
X9124531Y-8232248D01*
X9124531Y-8232248D02*
X9124531Y-8175105D01*
X9124531Y-8175105D02*
X9134055Y-8156057D01*
X9134055Y-8156057D02*
X9143579Y-8146533D01*
X9143579Y-8146533D02*
X9162626Y-8137009D01*
X9162626Y-8137009D02*
X9191198Y-8137009D01*
X9191198Y-8137009D02*
X9210245Y-8146533D01*
X9210245Y-8146533D02*
X9219769Y-8156057D01*
X9219769Y-8156057D02*
X9229293Y-8175105D01*
X9229293Y-8175105D02*
X9229293Y-8232248D01*
X9229293Y-8232248D02*
X9219769Y-8251295D01*
X9219769Y-8251295D02*
X9210245Y-8260819D01*
X9210245Y-8260819D02*
X9191198Y-8270343D01*
X9191198Y-8270343D02*
X9162626Y-8270343D01*
X9343579Y-8270343D02*
X9324531Y-8260819D01*
X9324531Y-8260819D02*
X9315007Y-8241771D01*
X9315007Y-8241771D02*
X9315007Y-8070343D01*
X9495960Y-8260819D02*
X9476912Y-8270343D01*
X9476912Y-8270343D02*
X9438817Y-8270343D01*
X9438817Y-8270343D02*
X9419769Y-8260819D01*
X9419769Y-8260819D02*
X9410245Y-8241771D01*
X9410245Y-8241771D02*
X9410245Y-8165581D01*
X9410245Y-8165581D02*
X9419769Y-8146533D01*
X9419769Y-8146533D02*
X9438817Y-8137009D01*
X9438817Y-8137009D02*
X9476912Y-8137009D01*
X9476912Y-8137009D02*
X9495960Y-8146533D01*
X9495960Y-8146533D02*
X9505483Y-8165581D01*
X9505483Y-8165581D02*
X9505483Y-8184629D01*
X9505483Y-8184629D02*
X9410245Y-8203676D01*
X9581674Y-8260819D02*
X9600721Y-8270343D01*
X9600721Y-8270343D02*
X9638817Y-8270343D01*
X9638817Y-8270343D02*
X9657864Y-8260819D01*
X9657864Y-8260819D02*
X9667388Y-8241771D01*
X9667388Y-8241771D02*
X9667388Y-8232248D01*
X9667388Y-8232248D02*
X9657864Y-8213200D01*
X9657864Y-8213200D02*
X9638817Y-8203676D01*
X9638817Y-8203676D02*
X9610245Y-8203676D01*
X9610245Y-8203676D02*
X9591198Y-8194152D01*
X9591198Y-8194152D02*
X9581674Y-8175105D01*
X9581674Y-8175105D02*
X9581674Y-8165581D01*
X9581674Y-8165581D02*
X9591198Y-8146533D01*
X9591198Y-8146533D02*
X9610245Y-8137009D01*
X9610245Y-8137009D02*
X9638817Y-8137009D01*
X9638817Y-8137009D02*
X9657864Y-8146533D01*
X9734055Y-8346533D02*
X9743579Y-8337009D01*
X9743579Y-8337009D02*
X9762626Y-8308438D01*
X9762626Y-8308438D02*
X9772150Y-8289390D01*
X9772150Y-8289390D02*
X9781674Y-8260819D01*
X9781674Y-8260819D02*
X9791198Y-8213200D01*
X9791198Y-8213200D02*
X9791198Y-8175105D01*
X9791198Y-8175105D02*
X9781674Y-8127486D01*
X9781674Y-8127486D02*
X9772150Y-8098914D01*
X9772150Y-8098914D02*
X9762626Y-8079867D01*
X9762626Y-8079867D02*
X9743579Y-8051295D01*
X9743579Y-8051295D02*
X9734055Y-8041771D01*
D12*
X4738516Y-8412859D02*
X4738516Y-8472859D01*
X4708516Y-8442859D02*
X4768516Y-8442859D01*
D11*
X5067388Y-8334343D02*
X5086435Y-8334343D01*
X5086435Y-8334343D02*
X5105483Y-8343867D01*
X5105483Y-8343867D02*
X5115007Y-8353390D01*
X5115007Y-8353390D02*
X5124531Y-8372438D01*
X5124531Y-8372438D02*
X5134054Y-8410533D01*
X5134054Y-8410533D02*
X5134054Y-8458152D01*
X5134054Y-8458152D02*
X5124531Y-8496248D01*
X5124531Y-8496248D02*
X5115007Y-8515295D01*
X5115007Y-8515295D02*
X5105483Y-8524819D01*
X5105483Y-8524819D02*
X5086435Y-8534343D01*
X5086435Y-8534343D02*
X5067388Y-8534343D01*
X5067388Y-8534343D02*
X5048340Y-8524819D01*
X5048340Y-8524819D02*
X5038816Y-8515295D01*
X5038816Y-8515295D02*
X5029292Y-8496248D01*
X5029292Y-8496248D02*
X5019769Y-8458152D01*
X5019769Y-8458152D02*
X5019769Y-8410533D01*
X5019769Y-8410533D02*
X5029292Y-8372438D01*
X5029292Y-8372438D02*
X5038816Y-8353390D01*
X5038816Y-8353390D02*
X5048340Y-8343867D01*
X5048340Y-8343867D02*
X5067388Y-8334343D01*
X5219769Y-8515295D02*
X5229292Y-8524819D01*
X5229292Y-8524819D02*
X5219769Y-8534343D01*
X5219769Y-8534343D02*
X5210245Y-8524819D01*
X5210245Y-8524819D02*
X5219769Y-8515295D01*
X5219769Y-8515295D02*
X5219769Y-8534343D01*
X5400721Y-8334343D02*
X5362626Y-8334343D01*
X5362626Y-8334343D02*
X5343578Y-8343867D01*
X5343578Y-8343867D02*
X5334054Y-8353390D01*
X5334054Y-8353390D02*
X5315007Y-8381962D01*
X5315007Y-8381962D02*
X5305483Y-8420057D01*
X5305483Y-8420057D02*
X5305483Y-8496248D01*
X5305483Y-8496248D02*
X5315007Y-8515295D01*
X5315007Y-8515295D02*
X5324531Y-8524819D01*
X5324531Y-8524819D02*
X5343578Y-8534343D01*
X5343578Y-8534343D02*
X5381673Y-8534343D01*
X5381673Y-8534343D02*
X5400721Y-8524819D01*
X5400721Y-8524819D02*
X5410245Y-8515295D01*
X5410245Y-8515295D02*
X5419769Y-8496248D01*
X5419769Y-8496248D02*
X5419769Y-8448629D01*
X5419769Y-8448629D02*
X5410245Y-8429581D01*
X5410245Y-8429581D02*
X5400721Y-8420057D01*
X5400721Y-8420057D02*
X5381673Y-8410533D01*
X5381673Y-8410533D02*
X5343578Y-8410533D01*
X5343578Y-8410533D02*
X5324531Y-8420057D01*
X5324531Y-8420057D02*
X5315007Y-8429581D01*
X5315007Y-8429581D02*
X5305483Y-8448629D01*
X5543578Y-8334343D02*
X5562626Y-8334343D01*
X5562626Y-8334343D02*
X5581673Y-8343867D01*
X5581673Y-8343867D02*
X5591197Y-8353390D01*
X5591197Y-8353390D02*
X5600721Y-8372438D01*
X5600721Y-8372438D02*
X5610245Y-8410533D01*
X5610245Y-8410533D02*
X5610245Y-8458152D01*
X5610245Y-8458152D02*
X5600721Y-8496248D01*
X5600721Y-8496248D02*
X5591197Y-8515295D01*
X5591197Y-8515295D02*
X5581673Y-8524819D01*
X5581673Y-8524819D02*
X5562626Y-8534343D01*
X5562626Y-8534343D02*
X5543578Y-8534343D01*
X5543578Y-8534343D02*
X5524531Y-8524819D01*
X5524531Y-8524819D02*
X5515007Y-8515295D01*
X5515007Y-8515295D02*
X5505483Y-8496248D01*
X5505483Y-8496248D02*
X5495959Y-8458152D01*
X5495959Y-8458152D02*
X5495959Y-8410533D01*
X5495959Y-8410533D02*
X5505483Y-8372438D01*
X5505483Y-8372438D02*
X5515007Y-8353390D01*
X5515007Y-8353390D02*
X5524531Y-8343867D01*
X5524531Y-8343867D02*
X5543578Y-8334343D01*
X5734054Y-8334343D02*
X5753102Y-8334343D01*
X5753102Y-8334343D02*
X5772150Y-8343867D01*
X5772150Y-8343867D02*
X5781673Y-8353390D01*
X5781673Y-8353390D02*
X5791197Y-8372438D01*
X5791197Y-8372438D02*
X5800721Y-8410533D01*
X5800721Y-8410533D02*
X5800721Y-8458152D01*
X5800721Y-8458152D02*
X5791197Y-8496248D01*
X5791197Y-8496248D02*
X5781673Y-8515295D01*
X5781673Y-8515295D02*
X5772150Y-8524819D01*
X5772150Y-8524819D02*
X5753102Y-8534343D01*
X5753102Y-8534343D02*
X5734054Y-8534343D01*
X5734054Y-8534343D02*
X5715007Y-8524819D01*
X5715007Y-8524819D02*
X5705483Y-8515295D01*
X5705483Y-8515295D02*
X5695959Y-8496248D01*
X5695959Y-8496248D02*
X5686435Y-8458152D01*
X5686435Y-8458152D02*
X5686435Y-8410533D01*
X5686435Y-8410533D02*
X5695959Y-8372438D01*
X5695959Y-8372438D02*
X5705483Y-8353390D01*
X5705483Y-8353390D02*
X5715007Y-8343867D01*
X5715007Y-8343867D02*
X5734054Y-8334343D01*
X5886435Y-8534343D02*
X5886435Y-8401010D01*
X5886435Y-8420057D02*
X5895959Y-8410533D01*
X5895959Y-8410533D02*
X5915007Y-8401010D01*
X5915007Y-8401010D02*
X5943578Y-8401010D01*
X5943578Y-8401010D02*
X5962626Y-8410533D01*
X5962626Y-8410533D02*
X5972150Y-8429581D01*
X5972150Y-8429581D02*
X5972150Y-8534343D01*
X5972150Y-8429581D02*
X5981673Y-8410533D01*
X5981673Y-8410533D02*
X6000721Y-8401010D01*
X6000721Y-8401010D02*
X6029292Y-8401010D01*
X6029292Y-8401010D02*
X6048340Y-8410533D01*
X6048340Y-8410533D02*
X6057864Y-8429581D01*
X6057864Y-8429581D02*
X6057864Y-8534343D01*
X6153102Y-8534343D02*
X6153102Y-8401010D01*
X6153102Y-8420057D02*
X6162626Y-8410533D01*
X6162626Y-8410533D02*
X6181673Y-8401010D01*
X6181673Y-8401010D02*
X6210245Y-8401010D01*
X6210245Y-8401010D02*
X6229292Y-8410533D01*
X6229292Y-8410533D02*
X6238816Y-8429581D01*
X6238816Y-8429581D02*
X6238816Y-8534343D01*
X6238816Y-8429581D02*
X6248340Y-8410533D01*
X6248340Y-8410533D02*
X6267388Y-8401010D01*
X6267388Y-8401010D02*
X6295959Y-8401010D01*
X6295959Y-8401010D02*
X6315007Y-8410533D01*
X6315007Y-8410533D02*
X6324531Y-8429581D01*
X6324531Y-8429581D02*
X6324531Y-8534343D01*
X6715007Y-8324819D02*
X6543578Y-8581962D01*
X6972150Y-8334343D02*
X6991197Y-8334343D01*
X6991197Y-8334343D02*
X7010245Y-8343867D01*
X7010245Y-8343867D02*
X7019769Y-8353390D01*
X7019769Y-8353390D02*
X7029293Y-8372438D01*
X7029293Y-8372438D02*
X7038816Y-8410533D01*
X7038816Y-8410533D02*
X7038816Y-8458152D01*
X7038816Y-8458152D02*
X7029293Y-8496248D01*
X7029293Y-8496248D02*
X7019769Y-8515295D01*
X7019769Y-8515295D02*
X7010245Y-8524819D01*
X7010245Y-8524819D02*
X6991197Y-8534343D01*
X6991197Y-8534343D02*
X6972150Y-8534343D01*
X6972150Y-8534343D02*
X6953102Y-8524819D01*
X6953102Y-8524819D02*
X6943578Y-8515295D01*
X6943578Y-8515295D02*
X6934054Y-8496248D01*
X6934054Y-8496248D02*
X6924531Y-8458152D01*
X6924531Y-8458152D02*
X6924531Y-8410533D01*
X6924531Y-8410533D02*
X6934054Y-8372438D01*
X6934054Y-8372438D02*
X6943578Y-8353390D01*
X6943578Y-8353390D02*
X6953102Y-8343867D01*
X6953102Y-8343867D02*
X6972150Y-8334343D01*
X7124531Y-8515295D02*
X7134054Y-8524819D01*
X7134054Y-8524819D02*
X7124531Y-8534343D01*
X7124531Y-8534343D02*
X7115007Y-8524819D01*
X7115007Y-8524819D02*
X7124531Y-8515295D01*
X7124531Y-8515295D02*
X7124531Y-8534343D01*
X7257864Y-8334343D02*
X7276912Y-8334343D01*
X7276912Y-8334343D02*
X7295959Y-8343867D01*
X7295959Y-8343867D02*
X7305483Y-8353390D01*
X7305483Y-8353390D02*
X7315007Y-8372438D01*
X7315007Y-8372438D02*
X7324531Y-8410533D01*
X7324531Y-8410533D02*
X7324531Y-8458152D01*
X7324531Y-8458152D02*
X7315007Y-8496248D01*
X7315007Y-8496248D02*
X7305483Y-8515295D01*
X7305483Y-8515295D02*
X7295959Y-8524819D01*
X7295959Y-8524819D02*
X7276912Y-8534343D01*
X7276912Y-8534343D02*
X7257864Y-8534343D01*
X7257864Y-8534343D02*
X7238816Y-8524819D01*
X7238816Y-8524819D02*
X7229293Y-8515295D01*
X7229293Y-8515295D02*
X7219769Y-8496248D01*
X7219769Y-8496248D02*
X7210245Y-8458152D01*
X7210245Y-8458152D02*
X7210245Y-8410533D01*
X7210245Y-8410533D02*
X7219769Y-8372438D01*
X7219769Y-8372438D02*
X7229293Y-8353390D01*
X7229293Y-8353390D02*
X7238816Y-8343867D01*
X7238816Y-8343867D02*
X7257864Y-8334343D01*
X7400721Y-8353390D02*
X7410245Y-8343867D01*
X7410245Y-8343867D02*
X7429293Y-8334343D01*
X7429293Y-8334343D02*
X7476912Y-8334343D01*
X7476912Y-8334343D02*
X7495959Y-8343867D01*
X7495959Y-8343867D02*
X7505483Y-8353390D01*
X7505483Y-8353390D02*
X7515007Y-8372438D01*
X7515007Y-8372438D02*
X7515007Y-8391486D01*
X7515007Y-8391486D02*
X7505483Y-8420057D01*
X7505483Y-8420057D02*
X7391197Y-8534343D01*
X7391197Y-8534343D02*
X7515007Y-8534343D01*
X7581674Y-8334343D02*
X7705483Y-8334343D01*
X7705483Y-8334343D02*
X7638816Y-8410533D01*
X7638816Y-8410533D02*
X7667388Y-8410533D01*
X7667388Y-8410533D02*
X7686435Y-8420057D01*
X7686435Y-8420057D02*
X7695959Y-8429581D01*
X7695959Y-8429581D02*
X7705483Y-8448629D01*
X7705483Y-8448629D02*
X7705483Y-8496248D01*
X7705483Y-8496248D02*
X7695959Y-8515295D01*
X7695959Y-8515295D02*
X7686435Y-8524819D01*
X7686435Y-8524819D02*
X7667388Y-8534343D01*
X7667388Y-8534343D02*
X7610245Y-8534343D01*
X7610245Y-8534343D02*
X7591197Y-8524819D01*
X7591197Y-8524819D02*
X7581674Y-8515295D01*
X7876912Y-8334343D02*
X7838816Y-8334343D01*
X7838816Y-8334343D02*
X7819769Y-8343867D01*
X7819769Y-8343867D02*
X7810245Y-8353390D01*
X7810245Y-8353390D02*
X7791197Y-8381962D01*
X7791197Y-8381962D02*
X7781674Y-8420057D01*
X7781674Y-8420057D02*
X7781674Y-8496248D01*
X7781674Y-8496248D02*
X7791197Y-8515295D01*
X7791197Y-8515295D02*
X7800721Y-8524819D01*
X7800721Y-8524819D02*
X7819769Y-8534343D01*
X7819769Y-8534343D02*
X7857864Y-8534343D01*
X7857864Y-8534343D02*
X7876912Y-8524819D01*
X7876912Y-8524819D02*
X7886435Y-8515295D01*
X7886435Y-8515295D02*
X7895959Y-8496248D01*
X7895959Y-8496248D02*
X7895959Y-8448629D01*
X7895959Y-8448629D02*
X7886435Y-8429581D01*
X7886435Y-8429581D02*
X7876912Y-8420057D01*
X7876912Y-8420057D02*
X7857864Y-8410533D01*
X7857864Y-8410533D02*
X7819769Y-8410533D01*
X7819769Y-8410533D02*
X7800721Y-8420057D01*
X7800721Y-8420057D02*
X7791197Y-8429581D01*
X7791197Y-8429581D02*
X7781674Y-8448629D01*
X7972150Y-8334343D02*
X7972150Y-8372438D01*
X8048340Y-8334343D02*
X8048340Y-8372438D01*
X8343578Y-8610533D02*
X8334055Y-8601010D01*
X8334055Y-8601010D02*
X8315007Y-8572438D01*
X8315007Y-8572438D02*
X8305483Y-8553391D01*
X8305483Y-8553391D02*
X8295959Y-8524819D01*
X8295959Y-8524819D02*
X8286436Y-8477200D01*
X8286436Y-8477200D02*
X8286436Y-8439105D01*
X8286436Y-8439105D02*
X8295959Y-8391486D01*
X8295959Y-8391486D02*
X8305483Y-8362914D01*
X8305483Y-8362914D02*
X8315007Y-8343867D01*
X8315007Y-8343867D02*
X8334055Y-8315295D01*
X8334055Y-8315295D02*
X8343578Y-8305771D01*
X8457864Y-8334343D02*
X8476912Y-8334343D01*
X8476912Y-8334343D02*
X8495959Y-8343867D01*
X8495959Y-8343867D02*
X8505483Y-8353390D01*
X8505483Y-8353390D02*
X8515007Y-8372438D01*
X8515007Y-8372438D02*
X8524531Y-8410533D01*
X8524531Y-8410533D02*
X8524531Y-8458152D01*
X8524531Y-8458152D02*
X8515007Y-8496248D01*
X8515007Y-8496248D02*
X8505483Y-8515295D01*
X8505483Y-8515295D02*
X8495959Y-8524819D01*
X8495959Y-8524819D02*
X8476912Y-8534343D01*
X8476912Y-8534343D02*
X8457864Y-8534343D01*
X8457864Y-8534343D02*
X8438817Y-8524819D01*
X8438817Y-8524819D02*
X8429293Y-8515295D01*
X8429293Y-8515295D02*
X8419769Y-8496248D01*
X8419769Y-8496248D02*
X8410245Y-8458152D01*
X8410245Y-8458152D02*
X8410245Y-8410533D01*
X8410245Y-8410533D02*
X8419769Y-8372438D01*
X8419769Y-8372438D02*
X8429293Y-8353390D01*
X8429293Y-8353390D02*
X8438817Y-8343867D01*
X8438817Y-8343867D02*
X8457864Y-8334343D01*
X8762626Y-8534343D02*
X8762626Y-8334343D01*
X8848340Y-8534343D02*
X8848340Y-8429581D01*
X8848340Y-8429581D02*
X8838817Y-8410533D01*
X8838817Y-8410533D02*
X8819769Y-8401010D01*
X8819769Y-8401010D02*
X8791198Y-8401010D01*
X8791198Y-8401010D02*
X8772150Y-8410533D01*
X8772150Y-8410533D02*
X8762626Y-8420057D01*
X8972150Y-8534343D02*
X8953102Y-8524819D01*
X8953102Y-8524819D02*
X8943579Y-8515295D01*
X8943579Y-8515295D02*
X8934055Y-8496248D01*
X8934055Y-8496248D02*
X8934055Y-8439105D01*
X8934055Y-8439105D02*
X8943579Y-8420057D01*
X8943579Y-8420057D02*
X8953102Y-8410533D01*
X8953102Y-8410533D02*
X8972150Y-8401010D01*
X8972150Y-8401010D02*
X9000721Y-8401010D01*
X9000721Y-8401010D02*
X9019769Y-8410533D01*
X9019769Y-8410533D02*
X9029293Y-8420057D01*
X9029293Y-8420057D02*
X9038817Y-8439105D01*
X9038817Y-8439105D02*
X9038817Y-8496248D01*
X9038817Y-8496248D02*
X9029293Y-8515295D01*
X9029293Y-8515295D02*
X9019769Y-8524819D01*
X9019769Y-8524819D02*
X9000721Y-8534343D01*
X9000721Y-8534343D02*
X8972150Y-8534343D01*
X9153102Y-8534343D02*
X9134055Y-8524819D01*
X9134055Y-8524819D02*
X9124531Y-8505771D01*
X9124531Y-8505771D02*
X9124531Y-8334343D01*
X9305483Y-8524819D02*
X9286436Y-8534343D01*
X9286436Y-8534343D02*
X9248340Y-8534343D01*
X9248340Y-8534343D02*
X9229293Y-8524819D01*
X9229293Y-8524819D02*
X9219769Y-8505771D01*
X9219769Y-8505771D02*
X9219769Y-8429581D01*
X9219769Y-8429581D02*
X9229293Y-8410533D01*
X9229293Y-8410533D02*
X9248340Y-8401010D01*
X9248340Y-8401010D02*
X9286436Y-8401010D01*
X9286436Y-8401010D02*
X9305483Y-8410533D01*
X9305483Y-8410533D02*
X9315007Y-8429581D01*
X9315007Y-8429581D02*
X9315007Y-8448629D01*
X9315007Y-8448629D02*
X9219769Y-8467676D01*
X9391198Y-8524819D02*
X9410245Y-8534343D01*
X9410245Y-8534343D02*
X9448340Y-8534343D01*
X9448340Y-8534343D02*
X9467388Y-8524819D01*
X9467388Y-8524819D02*
X9476912Y-8505771D01*
X9476912Y-8505771D02*
X9476912Y-8496248D01*
X9476912Y-8496248D02*
X9467388Y-8477200D01*
X9467388Y-8477200D02*
X9448340Y-8467676D01*
X9448340Y-8467676D02*
X9419769Y-8467676D01*
X9419769Y-8467676D02*
X9400721Y-8458152D01*
X9400721Y-8458152D02*
X9391198Y-8439105D01*
X9391198Y-8439105D02*
X9391198Y-8429581D01*
X9391198Y-8429581D02*
X9400721Y-8410533D01*
X9400721Y-8410533D02*
X9419769Y-8401010D01*
X9419769Y-8401010D02*
X9448340Y-8401010D01*
X9448340Y-8401010D02*
X9467388Y-8410533D01*
X9715007Y-8458152D02*
X9867388Y-8458152D01*
X9791198Y-8534343D02*
X9791198Y-8381962D01*
X10200722Y-8401010D02*
X10200722Y-8534343D01*
X10153102Y-8324819D02*
X10105483Y-8467676D01*
X10105483Y-8467676D02*
X10229293Y-8467676D01*
X10448341Y-8524819D02*
X10467388Y-8534343D01*
X10467388Y-8534343D02*
X10505483Y-8534343D01*
X10505483Y-8534343D02*
X10524531Y-8524819D01*
X10524531Y-8524819D02*
X10534055Y-8505771D01*
X10534055Y-8505771D02*
X10534055Y-8496248D01*
X10534055Y-8496248D02*
X10524531Y-8477200D01*
X10524531Y-8477200D02*
X10505483Y-8467676D01*
X10505483Y-8467676D02*
X10476912Y-8467676D01*
X10476912Y-8467676D02*
X10457864Y-8458152D01*
X10457864Y-8458152D02*
X10448341Y-8439105D01*
X10448341Y-8439105D02*
X10448341Y-8429581D01*
X10448341Y-8429581D02*
X10457864Y-8410533D01*
X10457864Y-8410533D02*
X10476912Y-8401010D01*
X10476912Y-8401010D02*
X10505483Y-8401010D01*
X10505483Y-8401010D02*
X10524531Y-8410533D01*
X10648341Y-8534343D02*
X10629293Y-8524819D01*
X10629293Y-8524819D02*
X10619769Y-8505771D01*
X10619769Y-8505771D02*
X10619769Y-8334343D01*
X10753103Y-8534343D02*
X10734055Y-8524819D01*
X10734055Y-8524819D02*
X10724531Y-8515295D01*
X10724531Y-8515295D02*
X10715007Y-8496248D01*
X10715007Y-8496248D02*
X10715007Y-8439105D01*
X10715007Y-8439105D02*
X10724531Y-8420057D01*
X10724531Y-8420057D02*
X10734055Y-8410533D01*
X10734055Y-8410533D02*
X10753103Y-8401010D01*
X10753103Y-8401010D02*
X10781674Y-8401010D01*
X10781674Y-8401010D02*
X10800722Y-8410533D01*
X10800722Y-8410533D02*
X10810245Y-8420057D01*
X10810245Y-8420057D02*
X10819769Y-8439105D01*
X10819769Y-8439105D02*
X10819769Y-8496248D01*
X10819769Y-8496248D02*
X10810245Y-8515295D01*
X10810245Y-8515295D02*
X10800722Y-8524819D01*
X10800722Y-8524819D02*
X10781674Y-8534343D01*
X10781674Y-8534343D02*
X10753103Y-8534343D01*
X10876912Y-8401010D02*
X10953103Y-8401010D01*
X10905484Y-8334343D02*
X10905484Y-8505771D01*
X10905484Y-8505771D02*
X10915007Y-8524819D01*
X10915007Y-8524819D02*
X10934055Y-8534343D01*
X10934055Y-8534343D02*
X10953103Y-8534343D01*
X11010245Y-8524819D02*
X11029293Y-8534343D01*
X11029293Y-8534343D02*
X11067388Y-8534343D01*
X11067388Y-8534343D02*
X11086436Y-8524819D01*
X11086436Y-8524819D02*
X11095960Y-8505771D01*
X11095960Y-8505771D02*
X11095960Y-8496248D01*
X11095960Y-8496248D02*
X11086436Y-8477200D01*
X11086436Y-8477200D02*
X11067388Y-8467676D01*
X11067388Y-8467676D02*
X11038817Y-8467676D01*
X11038817Y-8467676D02*
X11019769Y-8458152D01*
X11019769Y-8458152D02*
X11010245Y-8439105D01*
X11010245Y-8439105D02*
X11010245Y-8429581D01*
X11010245Y-8429581D02*
X11019769Y-8410533D01*
X11019769Y-8410533D02*
X11038817Y-8401010D01*
X11038817Y-8401010D02*
X11067388Y-8401010D01*
X11067388Y-8401010D02*
X11086436Y-8410533D01*
X11162626Y-8610533D02*
X11172150Y-8601010D01*
X11172150Y-8601010D02*
X11191198Y-8572438D01*
X11191198Y-8572438D02*
X11200722Y-8553391D01*
X11200722Y-8553391D02*
X11210245Y-8524819D01*
X11210245Y-8524819D02*
X11219769Y-8477200D01*
X11219769Y-8477200D02*
X11219769Y-8439105D01*
X11219769Y-8439105D02*
X11210245Y-8391486D01*
X11210245Y-8391486D02*
X11200722Y-8362914D01*
X11200722Y-8362914D02*
X11191198Y-8343867D01*
X11191198Y-8343867D02*
X11172150Y-8315295D01*
X11172150Y-8315295D02*
X11162626Y-8305771D01*
D12*
X4758997Y-8729840D02*
X4758997Y-8683878D01*
X4713034Y-8683878D01*
X4713034Y-8729840D01*
X4758997Y-8729840D01*
D11*
X5067388Y-8598343D02*
X5086435Y-8598343D01*
X5086435Y-8598343D02*
X5105483Y-8607867D01*
X5105483Y-8607867D02*
X5115007Y-8617391D01*
X5115007Y-8617391D02*
X5124531Y-8636438D01*
X5124531Y-8636438D02*
X5134054Y-8674533D01*
X5134054Y-8674533D02*
X5134054Y-8722152D01*
X5134054Y-8722152D02*
X5124531Y-8760248D01*
X5124531Y-8760248D02*
X5115007Y-8779295D01*
X5115007Y-8779295D02*
X5105483Y-8788819D01*
X5105483Y-8788819D02*
X5086435Y-8798343D01*
X5086435Y-8798343D02*
X5067388Y-8798343D01*
X5067388Y-8798343D02*
X5048340Y-8788819D01*
X5048340Y-8788819D02*
X5038816Y-8779295D01*
X5038816Y-8779295D02*
X5029292Y-8760248D01*
X5029292Y-8760248D02*
X5019769Y-8722152D01*
X5019769Y-8722152D02*
X5019769Y-8674533D01*
X5019769Y-8674533D02*
X5029292Y-8636438D01*
X5029292Y-8636438D02*
X5038816Y-8617391D01*
X5038816Y-8617391D02*
X5048340Y-8607867D01*
X5048340Y-8607867D02*
X5067388Y-8598343D01*
X5219769Y-8779295D02*
X5229292Y-8788819D01*
X5229292Y-8788819D02*
X5219769Y-8798343D01*
X5219769Y-8798343D02*
X5210245Y-8788819D01*
X5210245Y-8788819D02*
X5219769Y-8779295D01*
X5219769Y-8779295D02*
X5219769Y-8798343D01*
X5400721Y-8598343D02*
X5362626Y-8598343D01*
X5362626Y-8598343D02*
X5343578Y-8607867D01*
X5343578Y-8607867D02*
X5334054Y-8617391D01*
X5334054Y-8617391D02*
X5315007Y-8645962D01*
X5315007Y-8645962D02*
X5305483Y-8684057D01*
X5305483Y-8684057D02*
X5305483Y-8760248D01*
X5305483Y-8760248D02*
X5315007Y-8779295D01*
X5315007Y-8779295D02*
X5324531Y-8788819D01*
X5324531Y-8788819D02*
X5343578Y-8798343D01*
X5343578Y-8798343D02*
X5381673Y-8798343D01*
X5381673Y-8798343D02*
X5400721Y-8788819D01*
X5400721Y-8788819D02*
X5410245Y-8779295D01*
X5410245Y-8779295D02*
X5419769Y-8760248D01*
X5419769Y-8760248D02*
X5419769Y-8712629D01*
X5419769Y-8712629D02*
X5410245Y-8693581D01*
X5410245Y-8693581D02*
X5400721Y-8684057D01*
X5400721Y-8684057D02*
X5381673Y-8674533D01*
X5381673Y-8674533D02*
X5343578Y-8674533D01*
X5343578Y-8674533D02*
X5324531Y-8684057D01*
X5324531Y-8684057D02*
X5315007Y-8693581D01*
X5315007Y-8693581D02*
X5305483Y-8712629D01*
X5600721Y-8598343D02*
X5505483Y-8598343D01*
X5505483Y-8598343D02*
X5495959Y-8693581D01*
X5495959Y-8693581D02*
X5505483Y-8684057D01*
X5505483Y-8684057D02*
X5524531Y-8674533D01*
X5524531Y-8674533D02*
X5572150Y-8674533D01*
X5572150Y-8674533D02*
X5591197Y-8684057D01*
X5591197Y-8684057D02*
X5600721Y-8693581D01*
X5600721Y-8693581D02*
X5610245Y-8712629D01*
X5610245Y-8712629D02*
X5610245Y-8760248D01*
X5610245Y-8760248D02*
X5600721Y-8779295D01*
X5600721Y-8779295D02*
X5591197Y-8788819D01*
X5591197Y-8788819D02*
X5572150Y-8798343D01*
X5572150Y-8798343D02*
X5524531Y-8798343D01*
X5524531Y-8798343D02*
X5505483Y-8788819D01*
X5505483Y-8788819D02*
X5495959Y-8779295D01*
X5734054Y-8598343D02*
X5753102Y-8598343D01*
X5753102Y-8598343D02*
X5772150Y-8607867D01*
X5772150Y-8607867D02*
X5781673Y-8617391D01*
X5781673Y-8617391D02*
X5791197Y-8636438D01*
X5791197Y-8636438D02*
X5800721Y-8674533D01*
X5800721Y-8674533D02*
X5800721Y-8722152D01*
X5800721Y-8722152D02*
X5791197Y-8760248D01*
X5791197Y-8760248D02*
X5781673Y-8779295D01*
X5781673Y-8779295D02*
X5772150Y-8788819D01*
X5772150Y-8788819D02*
X5753102Y-8798343D01*
X5753102Y-8798343D02*
X5734054Y-8798343D01*
X5734054Y-8798343D02*
X5715007Y-8788819D01*
X5715007Y-8788819D02*
X5705483Y-8779295D01*
X5705483Y-8779295D02*
X5695959Y-8760248D01*
X5695959Y-8760248D02*
X5686435Y-8722152D01*
X5686435Y-8722152D02*
X5686435Y-8674533D01*
X5686435Y-8674533D02*
X5695959Y-8636438D01*
X5695959Y-8636438D02*
X5705483Y-8617391D01*
X5705483Y-8617391D02*
X5715007Y-8607867D01*
X5715007Y-8607867D02*
X5734054Y-8598343D01*
X5886435Y-8798343D02*
X5886435Y-8665010D01*
X5886435Y-8684057D02*
X5895959Y-8674533D01*
X5895959Y-8674533D02*
X5915007Y-8665010D01*
X5915007Y-8665010D02*
X5943578Y-8665010D01*
X5943578Y-8665010D02*
X5962626Y-8674533D01*
X5962626Y-8674533D02*
X5972150Y-8693581D01*
X5972150Y-8693581D02*
X5972150Y-8798343D01*
X5972150Y-8693581D02*
X5981673Y-8674533D01*
X5981673Y-8674533D02*
X6000721Y-8665010D01*
X6000721Y-8665010D02*
X6029292Y-8665010D01*
X6029292Y-8665010D02*
X6048340Y-8674533D01*
X6048340Y-8674533D02*
X6057864Y-8693581D01*
X6057864Y-8693581D02*
X6057864Y-8798343D01*
X6153102Y-8798343D02*
X6153102Y-8665010D01*
X6153102Y-8684057D02*
X6162626Y-8674533D01*
X6162626Y-8674533D02*
X6181673Y-8665010D01*
X6181673Y-8665010D02*
X6210245Y-8665010D01*
X6210245Y-8665010D02*
X6229292Y-8674533D01*
X6229292Y-8674533D02*
X6238816Y-8693581D01*
X6238816Y-8693581D02*
X6238816Y-8798343D01*
X6238816Y-8693581D02*
X6248340Y-8674533D01*
X6248340Y-8674533D02*
X6267388Y-8665010D01*
X6267388Y-8665010D02*
X6295959Y-8665010D01*
X6295959Y-8665010D02*
X6315007Y-8674533D01*
X6315007Y-8674533D02*
X6324531Y-8693581D01*
X6324531Y-8693581D02*
X6324531Y-8798343D01*
X6715007Y-8588819D02*
X6543578Y-8845962D01*
X6972150Y-8598343D02*
X6991197Y-8598343D01*
X6991197Y-8598343D02*
X7010245Y-8607867D01*
X7010245Y-8607867D02*
X7019769Y-8617391D01*
X7019769Y-8617391D02*
X7029293Y-8636438D01*
X7029293Y-8636438D02*
X7038816Y-8674533D01*
X7038816Y-8674533D02*
X7038816Y-8722152D01*
X7038816Y-8722152D02*
X7029293Y-8760248D01*
X7029293Y-8760248D02*
X7019769Y-8779295D01*
X7019769Y-8779295D02*
X7010245Y-8788819D01*
X7010245Y-8788819D02*
X6991197Y-8798343D01*
X6991197Y-8798343D02*
X6972150Y-8798343D01*
X6972150Y-8798343D02*
X6953102Y-8788819D01*
X6953102Y-8788819D02*
X6943578Y-8779295D01*
X6943578Y-8779295D02*
X6934054Y-8760248D01*
X6934054Y-8760248D02*
X6924531Y-8722152D01*
X6924531Y-8722152D02*
X6924531Y-8674533D01*
X6924531Y-8674533D02*
X6934054Y-8636438D01*
X6934054Y-8636438D02*
X6943578Y-8617391D01*
X6943578Y-8617391D02*
X6953102Y-8607867D01*
X6953102Y-8607867D02*
X6972150Y-8598343D01*
X7124531Y-8779295D02*
X7134054Y-8788819D01*
X7134054Y-8788819D02*
X7124531Y-8798343D01*
X7124531Y-8798343D02*
X7115007Y-8788819D01*
X7115007Y-8788819D02*
X7124531Y-8779295D01*
X7124531Y-8779295D02*
X7124531Y-8798343D01*
X7257864Y-8598343D02*
X7276912Y-8598343D01*
X7276912Y-8598343D02*
X7295959Y-8607867D01*
X7295959Y-8607867D02*
X7305483Y-8617391D01*
X7305483Y-8617391D02*
X7315007Y-8636438D01*
X7315007Y-8636438D02*
X7324531Y-8674533D01*
X7324531Y-8674533D02*
X7324531Y-8722152D01*
X7324531Y-8722152D02*
X7315007Y-8760248D01*
X7315007Y-8760248D02*
X7305483Y-8779295D01*
X7305483Y-8779295D02*
X7295959Y-8788819D01*
X7295959Y-8788819D02*
X7276912Y-8798343D01*
X7276912Y-8798343D02*
X7257864Y-8798343D01*
X7257864Y-8798343D02*
X7238816Y-8788819D01*
X7238816Y-8788819D02*
X7229293Y-8779295D01*
X7229293Y-8779295D02*
X7219769Y-8760248D01*
X7219769Y-8760248D02*
X7210245Y-8722152D01*
X7210245Y-8722152D02*
X7210245Y-8674533D01*
X7210245Y-8674533D02*
X7219769Y-8636438D01*
X7219769Y-8636438D02*
X7229293Y-8617391D01*
X7229293Y-8617391D02*
X7238816Y-8607867D01*
X7238816Y-8607867D02*
X7257864Y-8598343D01*
X7400721Y-8617391D02*
X7410245Y-8607867D01*
X7410245Y-8607867D02*
X7429293Y-8598343D01*
X7429293Y-8598343D02*
X7476912Y-8598343D01*
X7476912Y-8598343D02*
X7495959Y-8607867D01*
X7495959Y-8607867D02*
X7505483Y-8617391D01*
X7505483Y-8617391D02*
X7515007Y-8636438D01*
X7515007Y-8636438D02*
X7515007Y-8655486D01*
X7515007Y-8655486D02*
X7505483Y-8684057D01*
X7505483Y-8684057D02*
X7391197Y-8798343D01*
X7391197Y-8798343D02*
X7515007Y-8798343D01*
X7695959Y-8598343D02*
X7600721Y-8598343D01*
X7600721Y-8598343D02*
X7591197Y-8693581D01*
X7591197Y-8693581D02*
X7600721Y-8684057D01*
X7600721Y-8684057D02*
X7619769Y-8674533D01*
X7619769Y-8674533D02*
X7667388Y-8674533D01*
X7667388Y-8674533D02*
X7686435Y-8684057D01*
X7686435Y-8684057D02*
X7695959Y-8693581D01*
X7695959Y-8693581D02*
X7705483Y-8712629D01*
X7705483Y-8712629D02*
X7705483Y-8760248D01*
X7705483Y-8760248D02*
X7695959Y-8779295D01*
X7695959Y-8779295D02*
X7686435Y-8788819D01*
X7686435Y-8788819D02*
X7667388Y-8798343D01*
X7667388Y-8798343D02*
X7619769Y-8798343D01*
X7619769Y-8798343D02*
X7600721Y-8788819D01*
X7600721Y-8788819D02*
X7591197Y-8779295D01*
X7876912Y-8598343D02*
X7838816Y-8598343D01*
X7838816Y-8598343D02*
X7819769Y-8607867D01*
X7819769Y-8607867D02*
X7810245Y-8617391D01*
X7810245Y-8617391D02*
X7791197Y-8645962D01*
X7791197Y-8645962D02*
X7781674Y-8684057D01*
X7781674Y-8684057D02*
X7781674Y-8760248D01*
X7781674Y-8760248D02*
X7791197Y-8779295D01*
X7791197Y-8779295D02*
X7800721Y-8788819D01*
X7800721Y-8788819D02*
X7819769Y-8798343D01*
X7819769Y-8798343D02*
X7857864Y-8798343D01*
X7857864Y-8798343D02*
X7876912Y-8788819D01*
X7876912Y-8788819D02*
X7886435Y-8779295D01*
X7886435Y-8779295D02*
X7895959Y-8760248D01*
X7895959Y-8760248D02*
X7895959Y-8712629D01*
X7895959Y-8712629D02*
X7886435Y-8693581D01*
X7886435Y-8693581D02*
X7876912Y-8684057D01*
X7876912Y-8684057D02*
X7857864Y-8674533D01*
X7857864Y-8674533D02*
X7819769Y-8674533D01*
X7819769Y-8674533D02*
X7800721Y-8684057D01*
X7800721Y-8684057D02*
X7791197Y-8693581D01*
X7791197Y-8693581D02*
X7781674Y-8712629D01*
X7972150Y-8598343D02*
X7972150Y-8636438D01*
X8048340Y-8598343D02*
X8048340Y-8636438D01*
X8343578Y-8874533D02*
X8334055Y-8865010D01*
X8334055Y-8865010D02*
X8315007Y-8836438D01*
X8315007Y-8836438D02*
X8305483Y-8817391D01*
X8305483Y-8817391D02*
X8295959Y-8788819D01*
X8295959Y-8788819D02*
X8286436Y-8741200D01*
X8286436Y-8741200D02*
X8286436Y-8703105D01*
X8286436Y-8703105D02*
X8295959Y-8655486D01*
X8295959Y-8655486D02*
X8305483Y-8626914D01*
X8305483Y-8626914D02*
X8315007Y-8607867D01*
X8315007Y-8607867D02*
X8334055Y-8579295D01*
X8334055Y-8579295D02*
X8343578Y-8569771D01*
X8505483Y-8598343D02*
X8467388Y-8598343D01*
X8467388Y-8598343D02*
X8448340Y-8607867D01*
X8448340Y-8607867D02*
X8438817Y-8617391D01*
X8438817Y-8617391D02*
X8419769Y-8645962D01*
X8419769Y-8645962D02*
X8410245Y-8684057D01*
X8410245Y-8684057D02*
X8410245Y-8760248D01*
X8410245Y-8760248D02*
X8419769Y-8779295D01*
X8419769Y-8779295D02*
X8429293Y-8788819D01*
X8429293Y-8788819D02*
X8448340Y-8798343D01*
X8448340Y-8798343D02*
X8486436Y-8798343D01*
X8486436Y-8798343D02*
X8505483Y-8788819D01*
X8505483Y-8788819D02*
X8515007Y-8779295D01*
X8515007Y-8779295D02*
X8524531Y-8760248D01*
X8524531Y-8760248D02*
X8524531Y-8712629D01*
X8524531Y-8712629D02*
X8515007Y-8693581D01*
X8515007Y-8693581D02*
X8505483Y-8684057D01*
X8505483Y-8684057D02*
X8486436Y-8674533D01*
X8486436Y-8674533D02*
X8448340Y-8674533D01*
X8448340Y-8674533D02*
X8429293Y-8684057D01*
X8429293Y-8684057D02*
X8419769Y-8693581D01*
X8419769Y-8693581D02*
X8410245Y-8712629D01*
X8762626Y-8798343D02*
X8762626Y-8598343D01*
X8848340Y-8798343D02*
X8848340Y-8693581D01*
X8848340Y-8693581D02*
X8838817Y-8674533D01*
X8838817Y-8674533D02*
X8819769Y-8665010D01*
X8819769Y-8665010D02*
X8791198Y-8665010D01*
X8791198Y-8665010D02*
X8772150Y-8674533D01*
X8772150Y-8674533D02*
X8762626Y-8684057D01*
X8972150Y-8798343D02*
X8953102Y-8788819D01*
X8953102Y-8788819D02*
X8943579Y-8779295D01*
X8943579Y-8779295D02*
X8934055Y-8760248D01*
X8934055Y-8760248D02*
X8934055Y-8703105D01*
X8934055Y-8703105D02*
X8943579Y-8684057D01*
X8943579Y-8684057D02*
X8953102Y-8674533D01*
X8953102Y-8674533D02*
X8972150Y-8665010D01*
X8972150Y-8665010D02*
X9000721Y-8665010D01*
X9000721Y-8665010D02*
X9019769Y-8674533D01*
X9019769Y-8674533D02*
X9029293Y-8684057D01*
X9029293Y-8684057D02*
X9038817Y-8703105D01*
X9038817Y-8703105D02*
X9038817Y-8760248D01*
X9038817Y-8760248D02*
X9029293Y-8779295D01*
X9029293Y-8779295D02*
X9019769Y-8788819D01*
X9019769Y-8788819D02*
X9000721Y-8798343D01*
X9000721Y-8798343D02*
X8972150Y-8798343D01*
X9153102Y-8798343D02*
X9134055Y-8788819D01*
X9134055Y-8788819D02*
X9124531Y-8769771D01*
X9124531Y-8769771D02*
X9124531Y-8598343D01*
X9305483Y-8788819D02*
X9286436Y-8798343D01*
X9286436Y-8798343D02*
X9248340Y-8798343D01*
X9248340Y-8798343D02*
X9229293Y-8788819D01*
X9229293Y-8788819D02*
X9219769Y-8769771D01*
X9219769Y-8769771D02*
X9219769Y-8693581D01*
X9219769Y-8693581D02*
X9229293Y-8674533D01*
X9229293Y-8674533D02*
X9248340Y-8665010D01*
X9248340Y-8665010D02*
X9286436Y-8665010D01*
X9286436Y-8665010D02*
X9305483Y-8674533D01*
X9305483Y-8674533D02*
X9315007Y-8693581D01*
X9315007Y-8693581D02*
X9315007Y-8712629D01*
X9315007Y-8712629D02*
X9219769Y-8731676D01*
X9391198Y-8788819D02*
X9410245Y-8798343D01*
X9410245Y-8798343D02*
X9448340Y-8798343D01*
X9448340Y-8798343D02*
X9467388Y-8788819D01*
X9467388Y-8788819D02*
X9476912Y-8769771D01*
X9476912Y-8769771D02*
X9476912Y-8760248D01*
X9476912Y-8760248D02*
X9467388Y-8741200D01*
X9467388Y-8741200D02*
X9448340Y-8731676D01*
X9448340Y-8731676D02*
X9419769Y-8731676D01*
X9419769Y-8731676D02*
X9400721Y-8722152D01*
X9400721Y-8722152D02*
X9391198Y-8703105D01*
X9391198Y-8703105D02*
X9391198Y-8693581D01*
X9391198Y-8693581D02*
X9400721Y-8674533D01*
X9400721Y-8674533D02*
X9419769Y-8665010D01*
X9419769Y-8665010D02*
X9448340Y-8665010D01*
X9448340Y-8665010D02*
X9467388Y-8674533D01*
X9543579Y-8874533D02*
X9553102Y-8865010D01*
X9553102Y-8865010D02*
X9572150Y-8836438D01*
X9572150Y-8836438D02*
X9581674Y-8817391D01*
X9581674Y-8817391D02*
X9591198Y-8788819D01*
X9591198Y-8788819D02*
X9600721Y-8741200D01*
X9600721Y-8741200D02*
X9600721Y-8703105D01*
X9600721Y-8703105D02*
X9591198Y-8655486D01*
X9591198Y-8655486D02*
X9581674Y-8626914D01*
X9581674Y-8626914D02*
X9572150Y-8607867D01*
X9572150Y-8607867D02*
X9553102Y-8579295D01*
X9553102Y-8579295D02*
X9543579Y-8569771D01*
D12*
X4728516Y-9010859D02*
X4768516Y-8970859D01*
X4728516Y-8930859D01*
X4688516Y-8970859D01*
X4728516Y-9010859D01*
D11*
X5067388Y-8862343D02*
X5086435Y-8862343D01*
X5086435Y-8862343D02*
X5105483Y-8871867D01*
X5105483Y-8871867D02*
X5115007Y-8881391D01*
X5115007Y-8881391D02*
X5124531Y-8900438D01*
X5124531Y-8900438D02*
X5134054Y-8938533D01*
X5134054Y-8938533D02*
X5134054Y-8986152D01*
X5134054Y-8986152D02*
X5124531Y-9024248D01*
X5124531Y-9024248D02*
X5115007Y-9043295D01*
X5115007Y-9043295D02*
X5105483Y-9052819D01*
X5105483Y-9052819D02*
X5086435Y-9062343D01*
X5086435Y-9062343D02*
X5067388Y-9062343D01*
X5067388Y-9062343D02*
X5048340Y-9052819D01*
X5048340Y-9052819D02*
X5038816Y-9043295D01*
X5038816Y-9043295D02*
X5029292Y-9024248D01*
X5029292Y-9024248D02*
X5019769Y-8986152D01*
X5019769Y-8986152D02*
X5019769Y-8938533D01*
X5019769Y-8938533D02*
X5029292Y-8900438D01*
X5029292Y-8900438D02*
X5038816Y-8881391D01*
X5038816Y-8881391D02*
X5048340Y-8871867D01*
X5048340Y-8871867D02*
X5067388Y-8862343D01*
X5219769Y-9043295D02*
X5229292Y-9052819D01*
X5229292Y-9052819D02*
X5219769Y-9062343D01*
X5219769Y-9062343D02*
X5210245Y-9052819D01*
X5210245Y-9052819D02*
X5219769Y-9043295D01*
X5219769Y-9043295D02*
X5219769Y-9062343D01*
X5343578Y-8948057D02*
X5324531Y-8938533D01*
X5324531Y-8938533D02*
X5315007Y-8929010D01*
X5315007Y-8929010D02*
X5305483Y-8909962D01*
X5305483Y-8909962D02*
X5305483Y-8900438D01*
X5305483Y-8900438D02*
X5315007Y-8881391D01*
X5315007Y-8881391D02*
X5324531Y-8871867D01*
X5324531Y-8871867D02*
X5343578Y-8862343D01*
X5343578Y-8862343D02*
X5381673Y-8862343D01*
X5381673Y-8862343D02*
X5400721Y-8871867D01*
X5400721Y-8871867D02*
X5410245Y-8881391D01*
X5410245Y-8881391D02*
X5419769Y-8900438D01*
X5419769Y-8900438D02*
X5419769Y-8909962D01*
X5419769Y-8909962D02*
X5410245Y-8929010D01*
X5410245Y-8929010D02*
X5400721Y-8938533D01*
X5400721Y-8938533D02*
X5381673Y-8948057D01*
X5381673Y-8948057D02*
X5343578Y-8948057D01*
X5343578Y-8948057D02*
X5324531Y-8957581D01*
X5324531Y-8957581D02*
X5315007Y-8967105D01*
X5315007Y-8967105D02*
X5305483Y-8986152D01*
X5305483Y-8986152D02*
X5305483Y-9024248D01*
X5305483Y-9024248D02*
X5315007Y-9043295D01*
X5315007Y-9043295D02*
X5324531Y-9052819D01*
X5324531Y-9052819D02*
X5343578Y-9062343D01*
X5343578Y-9062343D02*
X5381673Y-9062343D01*
X5381673Y-9062343D02*
X5400721Y-9052819D01*
X5400721Y-9052819D02*
X5410245Y-9043295D01*
X5410245Y-9043295D02*
X5419769Y-9024248D01*
X5419769Y-9024248D02*
X5419769Y-8986152D01*
X5419769Y-8986152D02*
X5410245Y-8967105D01*
X5410245Y-8967105D02*
X5400721Y-8957581D01*
X5400721Y-8957581D02*
X5381673Y-8948057D01*
X5543578Y-8862343D02*
X5562626Y-8862343D01*
X5562626Y-8862343D02*
X5581673Y-8871867D01*
X5581673Y-8871867D02*
X5591197Y-8881391D01*
X5591197Y-8881391D02*
X5600721Y-8900438D01*
X5600721Y-8900438D02*
X5610245Y-8938533D01*
X5610245Y-8938533D02*
X5610245Y-8986152D01*
X5610245Y-8986152D02*
X5600721Y-9024248D01*
X5600721Y-9024248D02*
X5591197Y-9043295D01*
X5591197Y-9043295D02*
X5581673Y-9052819D01*
X5581673Y-9052819D02*
X5562626Y-9062343D01*
X5562626Y-9062343D02*
X5543578Y-9062343D01*
X5543578Y-9062343D02*
X5524531Y-9052819D01*
X5524531Y-9052819D02*
X5515007Y-9043295D01*
X5515007Y-9043295D02*
X5505483Y-9024248D01*
X5505483Y-9024248D02*
X5495959Y-8986152D01*
X5495959Y-8986152D02*
X5495959Y-8938533D01*
X5495959Y-8938533D02*
X5505483Y-8900438D01*
X5505483Y-8900438D02*
X5515007Y-8881391D01*
X5515007Y-8881391D02*
X5524531Y-8871867D01*
X5524531Y-8871867D02*
X5543578Y-8862343D01*
X5734054Y-8862343D02*
X5753102Y-8862343D01*
X5753102Y-8862343D02*
X5772150Y-8871867D01*
X5772150Y-8871867D02*
X5781673Y-8881391D01*
X5781673Y-8881391D02*
X5791197Y-8900438D01*
X5791197Y-8900438D02*
X5800721Y-8938533D01*
X5800721Y-8938533D02*
X5800721Y-8986152D01*
X5800721Y-8986152D02*
X5791197Y-9024248D01*
X5791197Y-9024248D02*
X5781673Y-9043295D01*
X5781673Y-9043295D02*
X5772150Y-9052819D01*
X5772150Y-9052819D02*
X5753102Y-9062343D01*
X5753102Y-9062343D02*
X5734054Y-9062343D01*
X5734054Y-9062343D02*
X5715007Y-9052819D01*
X5715007Y-9052819D02*
X5705483Y-9043295D01*
X5705483Y-9043295D02*
X5695959Y-9024248D01*
X5695959Y-9024248D02*
X5686435Y-8986152D01*
X5686435Y-8986152D02*
X5686435Y-8938533D01*
X5686435Y-8938533D02*
X5695959Y-8900438D01*
X5695959Y-8900438D02*
X5705483Y-8881391D01*
X5705483Y-8881391D02*
X5715007Y-8871867D01*
X5715007Y-8871867D02*
X5734054Y-8862343D01*
X5886435Y-9062343D02*
X5886435Y-8929010D01*
X5886435Y-8948057D02*
X5895959Y-8938533D01*
X5895959Y-8938533D02*
X5915007Y-8929010D01*
X5915007Y-8929010D02*
X5943578Y-8929010D01*
X5943578Y-8929010D02*
X5962626Y-8938533D01*
X5962626Y-8938533D02*
X5972150Y-8957581D01*
X5972150Y-8957581D02*
X5972150Y-9062343D01*
X5972150Y-8957581D02*
X5981673Y-8938533D01*
X5981673Y-8938533D02*
X6000721Y-8929010D01*
X6000721Y-8929010D02*
X6029292Y-8929010D01*
X6029292Y-8929010D02*
X6048340Y-8938533D01*
X6048340Y-8938533D02*
X6057864Y-8957581D01*
X6057864Y-8957581D02*
X6057864Y-9062343D01*
X6153102Y-9062343D02*
X6153102Y-8929010D01*
X6153102Y-8948057D02*
X6162626Y-8938533D01*
X6162626Y-8938533D02*
X6181673Y-8929010D01*
X6181673Y-8929010D02*
X6210245Y-8929010D01*
X6210245Y-8929010D02*
X6229292Y-8938533D01*
X6229292Y-8938533D02*
X6238816Y-8957581D01*
X6238816Y-8957581D02*
X6238816Y-9062343D01*
X6238816Y-8957581D02*
X6248340Y-8938533D01*
X6248340Y-8938533D02*
X6267388Y-8929010D01*
X6267388Y-8929010D02*
X6295959Y-8929010D01*
X6295959Y-8929010D02*
X6315007Y-8938533D01*
X6315007Y-8938533D02*
X6324531Y-8957581D01*
X6324531Y-8957581D02*
X6324531Y-9062343D01*
X6715007Y-8852819D02*
X6543578Y-9109962D01*
X6972150Y-8862343D02*
X6991197Y-8862343D01*
X6991197Y-8862343D02*
X7010245Y-8871867D01*
X7010245Y-8871867D02*
X7019769Y-8881391D01*
X7019769Y-8881391D02*
X7029293Y-8900438D01*
X7029293Y-8900438D02*
X7038816Y-8938533D01*
X7038816Y-8938533D02*
X7038816Y-8986152D01*
X7038816Y-8986152D02*
X7029293Y-9024248D01*
X7029293Y-9024248D02*
X7019769Y-9043295D01*
X7019769Y-9043295D02*
X7010245Y-9052819D01*
X7010245Y-9052819D02*
X6991197Y-9062343D01*
X6991197Y-9062343D02*
X6972150Y-9062343D01*
X6972150Y-9062343D02*
X6953102Y-9052819D01*
X6953102Y-9052819D02*
X6943578Y-9043295D01*
X6943578Y-9043295D02*
X6934054Y-9024248D01*
X6934054Y-9024248D02*
X6924531Y-8986152D01*
X6924531Y-8986152D02*
X6924531Y-8938533D01*
X6924531Y-8938533D02*
X6934054Y-8900438D01*
X6934054Y-8900438D02*
X6943578Y-8881391D01*
X6943578Y-8881391D02*
X6953102Y-8871867D01*
X6953102Y-8871867D02*
X6972150Y-8862343D01*
X7124531Y-9043295D02*
X7134054Y-9052819D01*
X7134054Y-9052819D02*
X7124531Y-9062343D01*
X7124531Y-9062343D02*
X7115007Y-9052819D01*
X7115007Y-9052819D02*
X7124531Y-9043295D01*
X7124531Y-9043295D02*
X7124531Y-9062343D01*
X7257864Y-8862343D02*
X7276912Y-8862343D01*
X7276912Y-8862343D02*
X7295959Y-8871867D01*
X7295959Y-8871867D02*
X7305483Y-8881391D01*
X7305483Y-8881391D02*
X7315007Y-8900438D01*
X7315007Y-8900438D02*
X7324531Y-8938533D01*
X7324531Y-8938533D02*
X7324531Y-8986152D01*
X7324531Y-8986152D02*
X7315007Y-9024248D01*
X7315007Y-9024248D02*
X7305483Y-9043295D01*
X7305483Y-9043295D02*
X7295959Y-9052819D01*
X7295959Y-9052819D02*
X7276912Y-9062343D01*
X7276912Y-9062343D02*
X7257864Y-9062343D01*
X7257864Y-9062343D02*
X7238816Y-9052819D01*
X7238816Y-9052819D02*
X7229293Y-9043295D01*
X7229293Y-9043295D02*
X7219769Y-9024248D01*
X7219769Y-9024248D02*
X7210245Y-8986152D01*
X7210245Y-8986152D02*
X7210245Y-8938533D01*
X7210245Y-8938533D02*
X7219769Y-8900438D01*
X7219769Y-8900438D02*
X7229293Y-8881391D01*
X7229293Y-8881391D02*
X7238816Y-8871867D01*
X7238816Y-8871867D02*
X7257864Y-8862343D01*
X7391197Y-8862343D02*
X7515007Y-8862343D01*
X7515007Y-8862343D02*
X7448340Y-8938533D01*
X7448340Y-8938533D02*
X7476912Y-8938533D01*
X7476912Y-8938533D02*
X7495959Y-8948057D01*
X7495959Y-8948057D02*
X7505483Y-8957581D01*
X7505483Y-8957581D02*
X7515007Y-8976629D01*
X7515007Y-8976629D02*
X7515007Y-9024248D01*
X7515007Y-9024248D02*
X7505483Y-9043295D01*
X7505483Y-9043295D02*
X7495959Y-9052819D01*
X7495959Y-9052819D02*
X7476912Y-9062343D01*
X7476912Y-9062343D02*
X7419769Y-9062343D01*
X7419769Y-9062343D02*
X7400721Y-9052819D01*
X7400721Y-9052819D02*
X7391197Y-9043295D01*
X7705483Y-9062343D02*
X7591197Y-9062343D01*
X7648340Y-9062343D02*
X7648340Y-8862343D01*
X7648340Y-8862343D02*
X7629293Y-8890914D01*
X7629293Y-8890914D02*
X7610245Y-8909962D01*
X7610245Y-8909962D02*
X7591197Y-8919486D01*
X7886435Y-8862343D02*
X7791197Y-8862343D01*
X7791197Y-8862343D02*
X7781674Y-8957581D01*
X7781674Y-8957581D02*
X7791197Y-8948057D01*
X7791197Y-8948057D02*
X7810245Y-8938533D01*
X7810245Y-8938533D02*
X7857864Y-8938533D01*
X7857864Y-8938533D02*
X7876912Y-8948057D01*
X7876912Y-8948057D02*
X7886435Y-8957581D01*
X7886435Y-8957581D02*
X7895959Y-8976629D01*
X7895959Y-8976629D02*
X7895959Y-9024248D01*
X7895959Y-9024248D02*
X7886435Y-9043295D01*
X7886435Y-9043295D02*
X7876912Y-9052819D01*
X7876912Y-9052819D02*
X7857864Y-9062343D01*
X7857864Y-9062343D02*
X7810245Y-9062343D01*
X7810245Y-9062343D02*
X7791197Y-9052819D01*
X7791197Y-9052819D02*
X7781674Y-9043295D01*
X7972150Y-8862343D02*
X7972150Y-8900438D01*
X8048340Y-8862343D02*
X8048340Y-8900438D01*
X8343578Y-9138533D02*
X8334055Y-9129010D01*
X8334055Y-9129010D02*
X8315007Y-9100438D01*
X8315007Y-9100438D02*
X8305483Y-9081391D01*
X8305483Y-9081391D02*
X8295959Y-9052819D01*
X8295959Y-9052819D02*
X8286436Y-9005200D01*
X8286436Y-9005200D02*
X8286436Y-8967105D01*
X8286436Y-8967105D02*
X8295959Y-8919486D01*
X8295959Y-8919486D02*
X8305483Y-8890914D01*
X8305483Y-8890914D02*
X8315007Y-8871867D01*
X8315007Y-8871867D02*
X8334055Y-8843295D01*
X8334055Y-8843295D02*
X8343578Y-8833771D01*
X8400721Y-8862343D02*
X8524531Y-8862343D01*
X8524531Y-8862343D02*
X8457864Y-8938533D01*
X8457864Y-8938533D02*
X8486436Y-8938533D01*
X8486436Y-8938533D02*
X8505483Y-8948057D01*
X8505483Y-8948057D02*
X8515007Y-8957581D01*
X8515007Y-8957581D02*
X8524531Y-8976629D01*
X8524531Y-8976629D02*
X8524531Y-9024248D01*
X8524531Y-9024248D02*
X8515007Y-9043295D01*
X8515007Y-9043295D02*
X8505483Y-9052819D01*
X8505483Y-9052819D02*
X8486436Y-9062343D01*
X8486436Y-9062343D02*
X8429293Y-9062343D01*
X8429293Y-9062343D02*
X8410245Y-9052819D01*
X8410245Y-9052819D02*
X8400721Y-9043295D01*
X8762626Y-9062343D02*
X8762626Y-8862343D01*
X8848340Y-9062343D02*
X8848340Y-8957581D01*
X8848340Y-8957581D02*
X8838817Y-8938533D01*
X8838817Y-8938533D02*
X8819769Y-8929010D01*
X8819769Y-8929010D02*
X8791198Y-8929010D01*
X8791198Y-8929010D02*
X8772150Y-8938533D01*
X8772150Y-8938533D02*
X8762626Y-8948057D01*
X8972150Y-9062343D02*
X8953102Y-9052819D01*
X8953102Y-9052819D02*
X8943579Y-9043295D01*
X8943579Y-9043295D02*
X8934055Y-9024248D01*
X8934055Y-9024248D02*
X8934055Y-8967105D01*
X8934055Y-8967105D02*
X8943579Y-8948057D01*
X8943579Y-8948057D02*
X8953102Y-8938533D01*
X8953102Y-8938533D02*
X8972150Y-8929010D01*
X8972150Y-8929010D02*
X9000721Y-8929010D01*
X9000721Y-8929010D02*
X9019769Y-8938533D01*
X9019769Y-8938533D02*
X9029293Y-8948057D01*
X9029293Y-8948057D02*
X9038817Y-8967105D01*
X9038817Y-8967105D02*
X9038817Y-9024248D01*
X9038817Y-9024248D02*
X9029293Y-9043295D01*
X9029293Y-9043295D02*
X9019769Y-9052819D01*
X9019769Y-9052819D02*
X9000721Y-9062343D01*
X9000721Y-9062343D02*
X8972150Y-9062343D01*
X9153102Y-9062343D02*
X9134055Y-9052819D01*
X9134055Y-9052819D02*
X9124531Y-9033771D01*
X9124531Y-9033771D02*
X9124531Y-8862343D01*
X9305483Y-9052819D02*
X9286436Y-9062343D01*
X9286436Y-9062343D02*
X9248340Y-9062343D01*
X9248340Y-9062343D02*
X9229293Y-9052819D01*
X9229293Y-9052819D02*
X9219769Y-9033771D01*
X9219769Y-9033771D02*
X9219769Y-8957581D01*
X9219769Y-8957581D02*
X9229293Y-8938533D01*
X9229293Y-8938533D02*
X9248340Y-8929010D01*
X9248340Y-8929010D02*
X9286436Y-8929010D01*
X9286436Y-8929010D02*
X9305483Y-8938533D01*
X9305483Y-8938533D02*
X9315007Y-8957581D01*
X9315007Y-8957581D02*
X9315007Y-8976629D01*
X9315007Y-8976629D02*
X9219769Y-8995676D01*
X9391198Y-9052819D02*
X9410245Y-9062343D01*
X9410245Y-9062343D02*
X9448340Y-9062343D01*
X9448340Y-9062343D02*
X9467388Y-9052819D01*
X9467388Y-9052819D02*
X9476912Y-9033771D01*
X9476912Y-9033771D02*
X9476912Y-9024248D01*
X9476912Y-9024248D02*
X9467388Y-9005200D01*
X9467388Y-9005200D02*
X9448340Y-8995676D01*
X9448340Y-8995676D02*
X9419769Y-8995676D01*
X9419769Y-8995676D02*
X9400721Y-8986152D01*
X9400721Y-8986152D02*
X9391198Y-8967105D01*
X9391198Y-8967105D02*
X9391198Y-8957581D01*
X9391198Y-8957581D02*
X9400721Y-8938533D01*
X9400721Y-8938533D02*
X9419769Y-8929010D01*
X9419769Y-8929010D02*
X9448340Y-8929010D01*
X9448340Y-8929010D02*
X9467388Y-8938533D01*
X9543579Y-9138533D02*
X9553102Y-9129010D01*
X9553102Y-9129010D02*
X9572150Y-9100438D01*
X9572150Y-9100438D02*
X9581674Y-9081391D01*
X9581674Y-9081391D02*
X9591198Y-9052819D01*
X9591198Y-9052819D02*
X9600721Y-9005200D01*
X9600721Y-9005200D02*
X9600721Y-8967105D01*
X9600721Y-8967105D02*
X9591198Y-8919486D01*
X9591198Y-8919486D02*
X9581674Y-8890914D01*
X9581674Y-8890914D02*
X9572150Y-8871867D01*
X9572150Y-8871867D02*
X9553102Y-8843295D01*
X9553102Y-8843295D02*
X9543579Y-8833771D01*
D12*
X4668516Y-9184859D02*
X4768516Y-9284859D01*
X4768516Y-9184859D02*
X4668516Y-9284859D01*
X4768516Y-9234859D02*
G75*
G02*
X4668516Y-9234859I-50000J0D01*
G01*
X4668516Y-9234859D02*
G75*
G02*
X4768516Y-9234859I50000J0D01*
G01*
D11*
X5134054Y-9326343D02*
X5019769Y-9326343D01*
X5076911Y-9326343D02*
X5076911Y-9126343D01*
X5076911Y-9126343D02*
X5057864Y-9154914D01*
X5057864Y-9154914D02*
X5038816Y-9173962D01*
X5038816Y-9173962D02*
X5019769Y-9183486D01*
X5219769Y-9307295D02*
X5229292Y-9316819D01*
X5229292Y-9316819D02*
X5219769Y-9326343D01*
X5219769Y-9326343D02*
X5210245Y-9316819D01*
X5210245Y-9316819D02*
X5219769Y-9307295D01*
X5219769Y-9307295D02*
X5219769Y-9326343D01*
X5353102Y-9126343D02*
X5372150Y-9126343D01*
X5372150Y-9126343D02*
X5391197Y-9135867D01*
X5391197Y-9135867D02*
X5400721Y-9145391D01*
X5400721Y-9145391D02*
X5410245Y-9164438D01*
X5410245Y-9164438D02*
X5419769Y-9202533D01*
X5419769Y-9202533D02*
X5419769Y-9250152D01*
X5419769Y-9250152D02*
X5410245Y-9288248D01*
X5410245Y-9288248D02*
X5400721Y-9307295D01*
X5400721Y-9307295D02*
X5391197Y-9316819D01*
X5391197Y-9316819D02*
X5372150Y-9326343D01*
X5372150Y-9326343D02*
X5353102Y-9326343D01*
X5353102Y-9326343D02*
X5334054Y-9316819D01*
X5334054Y-9316819D02*
X5324531Y-9307295D01*
X5324531Y-9307295D02*
X5315007Y-9288248D01*
X5315007Y-9288248D02*
X5305483Y-9250152D01*
X5305483Y-9250152D02*
X5305483Y-9202533D01*
X5305483Y-9202533D02*
X5315007Y-9164438D01*
X5315007Y-9164438D02*
X5324531Y-9145391D01*
X5324531Y-9145391D02*
X5334054Y-9135867D01*
X5334054Y-9135867D02*
X5353102Y-9126343D01*
X5543578Y-9126343D02*
X5562626Y-9126343D01*
X5562626Y-9126343D02*
X5581673Y-9135867D01*
X5581673Y-9135867D02*
X5591197Y-9145391D01*
X5591197Y-9145391D02*
X5600721Y-9164438D01*
X5600721Y-9164438D02*
X5610245Y-9202533D01*
X5610245Y-9202533D02*
X5610245Y-9250152D01*
X5610245Y-9250152D02*
X5600721Y-9288248D01*
X5600721Y-9288248D02*
X5591197Y-9307295D01*
X5591197Y-9307295D02*
X5581673Y-9316819D01*
X5581673Y-9316819D02*
X5562626Y-9326343D01*
X5562626Y-9326343D02*
X5543578Y-9326343D01*
X5543578Y-9326343D02*
X5524531Y-9316819D01*
X5524531Y-9316819D02*
X5515007Y-9307295D01*
X5515007Y-9307295D02*
X5505483Y-9288248D01*
X5505483Y-9288248D02*
X5495959Y-9250152D01*
X5495959Y-9250152D02*
X5495959Y-9202533D01*
X5495959Y-9202533D02*
X5505483Y-9164438D01*
X5505483Y-9164438D02*
X5515007Y-9145391D01*
X5515007Y-9145391D02*
X5524531Y-9135867D01*
X5524531Y-9135867D02*
X5543578Y-9126343D01*
X5734054Y-9126343D02*
X5753102Y-9126343D01*
X5753102Y-9126343D02*
X5772150Y-9135867D01*
X5772150Y-9135867D02*
X5781673Y-9145391D01*
X5781673Y-9145391D02*
X5791197Y-9164438D01*
X5791197Y-9164438D02*
X5800721Y-9202533D01*
X5800721Y-9202533D02*
X5800721Y-9250152D01*
X5800721Y-9250152D02*
X5791197Y-9288248D01*
X5791197Y-9288248D02*
X5781673Y-9307295D01*
X5781673Y-9307295D02*
X5772150Y-9316819D01*
X5772150Y-9316819D02*
X5753102Y-9326343D01*
X5753102Y-9326343D02*
X5734054Y-9326343D01*
X5734054Y-9326343D02*
X5715007Y-9316819D01*
X5715007Y-9316819D02*
X5705483Y-9307295D01*
X5705483Y-9307295D02*
X5695959Y-9288248D01*
X5695959Y-9288248D02*
X5686435Y-9250152D01*
X5686435Y-9250152D02*
X5686435Y-9202533D01*
X5686435Y-9202533D02*
X5695959Y-9164438D01*
X5695959Y-9164438D02*
X5705483Y-9145391D01*
X5705483Y-9145391D02*
X5715007Y-9135867D01*
X5715007Y-9135867D02*
X5734054Y-9126343D01*
X5886435Y-9326343D02*
X5886435Y-9193010D01*
X5886435Y-9212057D02*
X5895959Y-9202533D01*
X5895959Y-9202533D02*
X5915007Y-9193010D01*
X5915007Y-9193010D02*
X5943578Y-9193010D01*
X5943578Y-9193010D02*
X5962626Y-9202533D01*
X5962626Y-9202533D02*
X5972150Y-9221581D01*
X5972150Y-9221581D02*
X5972150Y-9326343D01*
X5972150Y-9221581D02*
X5981673Y-9202533D01*
X5981673Y-9202533D02*
X6000721Y-9193010D01*
X6000721Y-9193010D02*
X6029292Y-9193010D01*
X6029292Y-9193010D02*
X6048340Y-9202533D01*
X6048340Y-9202533D02*
X6057864Y-9221581D01*
X6057864Y-9221581D02*
X6057864Y-9326343D01*
X6153102Y-9326343D02*
X6153102Y-9193010D01*
X6153102Y-9212057D02*
X6162626Y-9202533D01*
X6162626Y-9202533D02*
X6181673Y-9193010D01*
X6181673Y-9193010D02*
X6210245Y-9193010D01*
X6210245Y-9193010D02*
X6229292Y-9202533D01*
X6229292Y-9202533D02*
X6238816Y-9221581D01*
X6238816Y-9221581D02*
X6238816Y-9326343D01*
X6238816Y-9221581D02*
X6248340Y-9202533D01*
X6248340Y-9202533D02*
X6267388Y-9193010D01*
X6267388Y-9193010D02*
X6295959Y-9193010D01*
X6295959Y-9193010D02*
X6315007Y-9202533D01*
X6315007Y-9202533D02*
X6324531Y-9221581D01*
X6324531Y-9221581D02*
X6324531Y-9326343D01*
X6715007Y-9116819D02*
X6543578Y-9373962D01*
X6972150Y-9126343D02*
X6991197Y-9126343D01*
X6991197Y-9126343D02*
X7010245Y-9135867D01*
X7010245Y-9135867D02*
X7019769Y-9145391D01*
X7019769Y-9145391D02*
X7029293Y-9164438D01*
X7029293Y-9164438D02*
X7038816Y-9202533D01*
X7038816Y-9202533D02*
X7038816Y-9250152D01*
X7038816Y-9250152D02*
X7029293Y-9288248D01*
X7029293Y-9288248D02*
X7019769Y-9307295D01*
X7019769Y-9307295D02*
X7010245Y-9316819D01*
X7010245Y-9316819D02*
X6991197Y-9326343D01*
X6991197Y-9326343D02*
X6972150Y-9326343D01*
X6972150Y-9326343D02*
X6953102Y-9316819D01*
X6953102Y-9316819D02*
X6943578Y-9307295D01*
X6943578Y-9307295D02*
X6934054Y-9288248D01*
X6934054Y-9288248D02*
X6924531Y-9250152D01*
X6924531Y-9250152D02*
X6924531Y-9202533D01*
X6924531Y-9202533D02*
X6934054Y-9164438D01*
X6934054Y-9164438D02*
X6943578Y-9145391D01*
X6943578Y-9145391D02*
X6953102Y-9135867D01*
X6953102Y-9135867D02*
X6972150Y-9126343D01*
X7124531Y-9307295D02*
X7134054Y-9316819D01*
X7134054Y-9316819D02*
X7124531Y-9326343D01*
X7124531Y-9326343D02*
X7115007Y-9316819D01*
X7115007Y-9316819D02*
X7124531Y-9307295D01*
X7124531Y-9307295D02*
X7124531Y-9326343D01*
X7257864Y-9126343D02*
X7276912Y-9126343D01*
X7276912Y-9126343D02*
X7295959Y-9135867D01*
X7295959Y-9135867D02*
X7305483Y-9145391D01*
X7305483Y-9145391D02*
X7315007Y-9164438D01*
X7315007Y-9164438D02*
X7324531Y-9202533D01*
X7324531Y-9202533D02*
X7324531Y-9250152D01*
X7324531Y-9250152D02*
X7315007Y-9288248D01*
X7315007Y-9288248D02*
X7305483Y-9307295D01*
X7305483Y-9307295D02*
X7295959Y-9316819D01*
X7295959Y-9316819D02*
X7276912Y-9326343D01*
X7276912Y-9326343D02*
X7257864Y-9326343D01*
X7257864Y-9326343D02*
X7238816Y-9316819D01*
X7238816Y-9316819D02*
X7229293Y-9307295D01*
X7229293Y-9307295D02*
X7219769Y-9288248D01*
X7219769Y-9288248D02*
X7210245Y-9250152D01*
X7210245Y-9250152D02*
X7210245Y-9202533D01*
X7210245Y-9202533D02*
X7219769Y-9164438D01*
X7219769Y-9164438D02*
X7229293Y-9145391D01*
X7229293Y-9145391D02*
X7238816Y-9135867D01*
X7238816Y-9135867D02*
X7257864Y-9126343D01*
X7391197Y-9126343D02*
X7515007Y-9126343D01*
X7515007Y-9126343D02*
X7448340Y-9202533D01*
X7448340Y-9202533D02*
X7476912Y-9202533D01*
X7476912Y-9202533D02*
X7495959Y-9212057D01*
X7495959Y-9212057D02*
X7505483Y-9221581D01*
X7505483Y-9221581D02*
X7515007Y-9240629D01*
X7515007Y-9240629D02*
X7515007Y-9288248D01*
X7515007Y-9288248D02*
X7505483Y-9307295D01*
X7505483Y-9307295D02*
X7495959Y-9316819D01*
X7495959Y-9316819D02*
X7476912Y-9326343D01*
X7476912Y-9326343D02*
X7419769Y-9326343D01*
X7419769Y-9326343D02*
X7400721Y-9316819D01*
X7400721Y-9316819D02*
X7391197Y-9307295D01*
X7610245Y-9326343D02*
X7648340Y-9326343D01*
X7648340Y-9326343D02*
X7667388Y-9316819D01*
X7667388Y-9316819D02*
X7676912Y-9307295D01*
X7676912Y-9307295D02*
X7695959Y-9278724D01*
X7695959Y-9278724D02*
X7705483Y-9240629D01*
X7705483Y-9240629D02*
X7705483Y-9164438D01*
X7705483Y-9164438D02*
X7695959Y-9145391D01*
X7695959Y-9145391D02*
X7686435Y-9135867D01*
X7686435Y-9135867D02*
X7667388Y-9126343D01*
X7667388Y-9126343D02*
X7629293Y-9126343D01*
X7629293Y-9126343D02*
X7610245Y-9135867D01*
X7610245Y-9135867D02*
X7600721Y-9145391D01*
X7600721Y-9145391D02*
X7591197Y-9164438D01*
X7591197Y-9164438D02*
X7591197Y-9212057D01*
X7591197Y-9212057D02*
X7600721Y-9231105D01*
X7600721Y-9231105D02*
X7610245Y-9240629D01*
X7610245Y-9240629D02*
X7629293Y-9250152D01*
X7629293Y-9250152D02*
X7667388Y-9250152D01*
X7667388Y-9250152D02*
X7686435Y-9240629D01*
X7686435Y-9240629D02*
X7695959Y-9231105D01*
X7695959Y-9231105D02*
X7705483Y-9212057D01*
X7876912Y-9193010D02*
X7876912Y-9326343D01*
X7829293Y-9116819D02*
X7781674Y-9259676D01*
X7781674Y-9259676D02*
X7905483Y-9259676D01*
X7972150Y-9126343D02*
X7972150Y-9164438D01*
X8048340Y-9126343D02*
X8048340Y-9164438D01*
X8343578Y-9402533D02*
X8334055Y-9393010D01*
X8334055Y-9393010D02*
X8315007Y-9364438D01*
X8315007Y-9364438D02*
X8305483Y-9345391D01*
X8305483Y-9345391D02*
X8295959Y-9316819D01*
X8295959Y-9316819D02*
X8286436Y-9269200D01*
X8286436Y-9269200D02*
X8286436Y-9231105D01*
X8286436Y-9231105D02*
X8295959Y-9183486D01*
X8295959Y-9183486D02*
X8305483Y-9154914D01*
X8305483Y-9154914D02*
X8315007Y-9135867D01*
X8315007Y-9135867D02*
X8334055Y-9107295D01*
X8334055Y-9107295D02*
X8343578Y-9097771D01*
X8400721Y-9126343D02*
X8524531Y-9126343D01*
X8524531Y-9126343D02*
X8457864Y-9202533D01*
X8457864Y-9202533D02*
X8486436Y-9202533D01*
X8486436Y-9202533D02*
X8505483Y-9212057D01*
X8505483Y-9212057D02*
X8515007Y-9221581D01*
X8515007Y-9221581D02*
X8524531Y-9240629D01*
X8524531Y-9240629D02*
X8524531Y-9288248D01*
X8524531Y-9288248D02*
X8515007Y-9307295D01*
X8515007Y-9307295D02*
X8505483Y-9316819D01*
X8505483Y-9316819D02*
X8486436Y-9326343D01*
X8486436Y-9326343D02*
X8429293Y-9326343D01*
X8429293Y-9326343D02*
X8410245Y-9316819D01*
X8410245Y-9316819D02*
X8400721Y-9307295D01*
X8762626Y-9326343D02*
X8762626Y-9126343D01*
X8848340Y-9326343D02*
X8848340Y-9221581D01*
X8848340Y-9221581D02*
X8838817Y-9202533D01*
X8838817Y-9202533D02*
X8819769Y-9193010D01*
X8819769Y-9193010D02*
X8791198Y-9193010D01*
X8791198Y-9193010D02*
X8772150Y-9202533D01*
X8772150Y-9202533D02*
X8762626Y-9212057D01*
X8972150Y-9326343D02*
X8953102Y-9316819D01*
X8953102Y-9316819D02*
X8943579Y-9307295D01*
X8943579Y-9307295D02*
X8934055Y-9288248D01*
X8934055Y-9288248D02*
X8934055Y-9231105D01*
X8934055Y-9231105D02*
X8943579Y-9212057D01*
X8943579Y-9212057D02*
X8953102Y-9202533D01*
X8953102Y-9202533D02*
X8972150Y-9193010D01*
X8972150Y-9193010D02*
X9000721Y-9193010D01*
X9000721Y-9193010D02*
X9019769Y-9202533D01*
X9019769Y-9202533D02*
X9029293Y-9212057D01*
X9029293Y-9212057D02*
X9038817Y-9231105D01*
X9038817Y-9231105D02*
X9038817Y-9288248D01*
X9038817Y-9288248D02*
X9029293Y-9307295D01*
X9029293Y-9307295D02*
X9019769Y-9316819D01*
X9019769Y-9316819D02*
X9000721Y-9326343D01*
X9000721Y-9326343D02*
X8972150Y-9326343D01*
X9153102Y-9326343D02*
X9134055Y-9316819D01*
X9134055Y-9316819D02*
X9124531Y-9297771D01*
X9124531Y-9297771D02*
X9124531Y-9126343D01*
X9305483Y-9316819D02*
X9286436Y-9326343D01*
X9286436Y-9326343D02*
X9248340Y-9326343D01*
X9248340Y-9326343D02*
X9229293Y-9316819D01*
X9229293Y-9316819D02*
X9219769Y-9297771D01*
X9219769Y-9297771D02*
X9219769Y-9221581D01*
X9219769Y-9221581D02*
X9229293Y-9202533D01*
X9229293Y-9202533D02*
X9248340Y-9193010D01*
X9248340Y-9193010D02*
X9286436Y-9193010D01*
X9286436Y-9193010D02*
X9305483Y-9202533D01*
X9305483Y-9202533D02*
X9315007Y-9221581D01*
X9315007Y-9221581D02*
X9315007Y-9240629D01*
X9315007Y-9240629D02*
X9219769Y-9259676D01*
X9391198Y-9316819D02*
X9410245Y-9326343D01*
X9410245Y-9326343D02*
X9448340Y-9326343D01*
X9448340Y-9326343D02*
X9467388Y-9316819D01*
X9467388Y-9316819D02*
X9476912Y-9297771D01*
X9476912Y-9297771D02*
X9476912Y-9288248D01*
X9476912Y-9288248D02*
X9467388Y-9269200D01*
X9467388Y-9269200D02*
X9448340Y-9259676D01*
X9448340Y-9259676D02*
X9419769Y-9259676D01*
X9419769Y-9259676D02*
X9400721Y-9250152D01*
X9400721Y-9250152D02*
X9391198Y-9231105D01*
X9391198Y-9231105D02*
X9391198Y-9221581D01*
X9391198Y-9221581D02*
X9400721Y-9202533D01*
X9400721Y-9202533D02*
X9419769Y-9193010D01*
X9419769Y-9193010D02*
X9448340Y-9193010D01*
X9448340Y-9193010D02*
X9467388Y-9202533D01*
X9543579Y-9402533D02*
X9553102Y-9393010D01*
X9553102Y-9393010D02*
X9572150Y-9364438D01*
X9572150Y-9364438D02*
X9581674Y-9345391D01*
X9581674Y-9345391D02*
X9591198Y-9316819D01*
X9591198Y-9316819D02*
X9600721Y-9269200D01*
X9600721Y-9269200D02*
X9600721Y-9231105D01*
X9600721Y-9231105D02*
X9591198Y-9183486D01*
X9591198Y-9183486D02*
X9581674Y-9154914D01*
X9581674Y-9154914D02*
X9572150Y-9135867D01*
X9572150Y-9135867D02*
X9553102Y-9107295D01*
X9553102Y-9107295D02*
X9543579Y-9097771D01*
D13*
X4658516Y-9443859D02*
X4768516Y-9553859D01*
X4768516Y-9443859D02*
X4658516Y-9553859D01*
X4713516Y-9443859D02*
X4713516Y-9553859D01*
X4658516Y-9498859D02*
X4768516Y-9498859D01*
D11*
X5134054Y-9590343D02*
X5019769Y-9590343D01*
X5076911Y-9590343D02*
X5076911Y-9390343D01*
X5076911Y-9390343D02*
X5057864Y-9418914D01*
X5057864Y-9418914D02*
X5038816Y-9437962D01*
X5038816Y-9437962D02*
X5019769Y-9447486D01*
X5219769Y-9571295D02*
X5229292Y-9580819D01*
X5229292Y-9580819D02*
X5219769Y-9590343D01*
X5219769Y-9590343D02*
X5210245Y-9580819D01*
X5210245Y-9580819D02*
X5219769Y-9571295D01*
X5219769Y-9571295D02*
X5219769Y-9590343D01*
X5419769Y-9590343D02*
X5305483Y-9590343D01*
X5362626Y-9590343D02*
X5362626Y-9390343D01*
X5362626Y-9390343D02*
X5343578Y-9418914D01*
X5343578Y-9418914D02*
X5324531Y-9437962D01*
X5324531Y-9437962D02*
X5305483Y-9447486D01*
X5543578Y-9390343D02*
X5562626Y-9390343D01*
X5562626Y-9390343D02*
X5581673Y-9399867D01*
X5581673Y-9399867D02*
X5591197Y-9409391D01*
X5591197Y-9409391D02*
X5600721Y-9428438D01*
X5600721Y-9428438D02*
X5610245Y-9466533D01*
X5610245Y-9466533D02*
X5610245Y-9514152D01*
X5610245Y-9514152D02*
X5600721Y-9552248D01*
X5600721Y-9552248D02*
X5591197Y-9571295D01*
X5591197Y-9571295D02*
X5581673Y-9580819D01*
X5581673Y-9580819D02*
X5562626Y-9590343D01*
X5562626Y-9590343D02*
X5543578Y-9590343D01*
X5543578Y-9590343D02*
X5524531Y-9580819D01*
X5524531Y-9580819D02*
X5515007Y-9571295D01*
X5515007Y-9571295D02*
X5505483Y-9552248D01*
X5505483Y-9552248D02*
X5495959Y-9514152D01*
X5495959Y-9514152D02*
X5495959Y-9466533D01*
X5495959Y-9466533D02*
X5505483Y-9428438D01*
X5505483Y-9428438D02*
X5515007Y-9409391D01*
X5515007Y-9409391D02*
X5524531Y-9399867D01*
X5524531Y-9399867D02*
X5543578Y-9390343D01*
X5734054Y-9390343D02*
X5753102Y-9390343D01*
X5753102Y-9390343D02*
X5772150Y-9399867D01*
X5772150Y-9399867D02*
X5781673Y-9409391D01*
X5781673Y-9409391D02*
X5791197Y-9428438D01*
X5791197Y-9428438D02*
X5800721Y-9466533D01*
X5800721Y-9466533D02*
X5800721Y-9514152D01*
X5800721Y-9514152D02*
X5791197Y-9552248D01*
X5791197Y-9552248D02*
X5781673Y-9571295D01*
X5781673Y-9571295D02*
X5772150Y-9580819D01*
X5772150Y-9580819D02*
X5753102Y-9590343D01*
X5753102Y-9590343D02*
X5734054Y-9590343D01*
X5734054Y-9590343D02*
X5715007Y-9580819D01*
X5715007Y-9580819D02*
X5705483Y-9571295D01*
X5705483Y-9571295D02*
X5695959Y-9552248D01*
X5695959Y-9552248D02*
X5686435Y-9514152D01*
X5686435Y-9514152D02*
X5686435Y-9466533D01*
X5686435Y-9466533D02*
X5695959Y-9428438D01*
X5695959Y-9428438D02*
X5705483Y-9409391D01*
X5705483Y-9409391D02*
X5715007Y-9399867D01*
X5715007Y-9399867D02*
X5734054Y-9390343D01*
X5886435Y-9590343D02*
X5886435Y-9457010D01*
X5886435Y-9476057D02*
X5895959Y-9466533D01*
X5895959Y-9466533D02*
X5915007Y-9457010D01*
X5915007Y-9457010D02*
X5943578Y-9457010D01*
X5943578Y-9457010D02*
X5962626Y-9466533D01*
X5962626Y-9466533D02*
X5972150Y-9485581D01*
X5972150Y-9485581D02*
X5972150Y-9590343D01*
X5972150Y-9485581D02*
X5981673Y-9466533D01*
X5981673Y-9466533D02*
X6000721Y-9457010D01*
X6000721Y-9457010D02*
X6029292Y-9457010D01*
X6029292Y-9457010D02*
X6048340Y-9466533D01*
X6048340Y-9466533D02*
X6057864Y-9485581D01*
X6057864Y-9485581D02*
X6057864Y-9590343D01*
X6153102Y-9590343D02*
X6153102Y-9457010D01*
X6153102Y-9476057D02*
X6162626Y-9466533D01*
X6162626Y-9466533D02*
X6181673Y-9457010D01*
X6181673Y-9457010D02*
X6210245Y-9457010D01*
X6210245Y-9457010D02*
X6229292Y-9466533D01*
X6229292Y-9466533D02*
X6238816Y-9485581D01*
X6238816Y-9485581D02*
X6238816Y-9590343D01*
X6238816Y-9485581D02*
X6248340Y-9466533D01*
X6248340Y-9466533D02*
X6267388Y-9457010D01*
X6267388Y-9457010D02*
X6295959Y-9457010D01*
X6295959Y-9457010D02*
X6315007Y-9466533D01*
X6315007Y-9466533D02*
X6324531Y-9485581D01*
X6324531Y-9485581D02*
X6324531Y-9590343D01*
X6715007Y-9380819D02*
X6543578Y-9637962D01*
X6972150Y-9390343D02*
X6991197Y-9390343D01*
X6991197Y-9390343D02*
X7010245Y-9399867D01*
X7010245Y-9399867D02*
X7019769Y-9409391D01*
X7019769Y-9409391D02*
X7029293Y-9428438D01*
X7029293Y-9428438D02*
X7038816Y-9466533D01*
X7038816Y-9466533D02*
X7038816Y-9514152D01*
X7038816Y-9514152D02*
X7029293Y-9552248D01*
X7029293Y-9552248D02*
X7019769Y-9571295D01*
X7019769Y-9571295D02*
X7010245Y-9580819D01*
X7010245Y-9580819D02*
X6991197Y-9590343D01*
X6991197Y-9590343D02*
X6972150Y-9590343D01*
X6972150Y-9590343D02*
X6953102Y-9580819D01*
X6953102Y-9580819D02*
X6943578Y-9571295D01*
X6943578Y-9571295D02*
X6934054Y-9552248D01*
X6934054Y-9552248D02*
X6924531Y-9514152D01*
X6924531Y-9514152D02*
X6924531Y-9466533D01*
X6924531Y-9466533D02*
X6934054Y-9428438D01*
X6934054Y-9428438D02*
X6943578Y-9409391D01*
X6943578Y-9409391D02*
X6953102Y-9399867D01*
X6953102Y-9399867D02*
X6972150Y-9390343D01*
X7124531Y-9571295D02*
X7134054Y-9580819D01*
X7134054Y-9580819D02*
X7124531Y-9590343D01*
X7124531Y-9590343D02*
X7115007Y-9580819D01*
X7115007Y-9580819D02*
X7124531Y-9571295D01*
X7124531Y-9571295D02*
X7124531Y-9590343D01*
X7257864Y-9390343D02*
X7276912Y-9390343D01*
X7276912Y-9390343D02*
X7295959Y-9399867D01*
X7295959Y-9399867D02*
X7305483Y-9409391D01*
X7305483Y-9409391D02*
X7315007Y-9428438D01*
X7315007Y-9428438D02*
X7324531Y-9466533D01*
X7324531Y-9466533D02*
X7324531Y-9514152D01*
X7324531Y-9514152D02*
X7315007Y-9552248D01*
X7315007Y-9552248D02*
X7305483Y-9571295D01*
X7305483Y-9571295D02*
X7295959Y-9580819D01*
X7295959Y-9580819D02*
X7276912Y-9590343D01*
X7276912Y-9590343D02*
X7257864Y-9590343D01*
X7257864Y-9590343D02*
X7238816Y-9580819D01*
X7238816Y-9580819D02*
X7229293Y-9571295D01*
X7229293Y-9571295D02*
X7219769Y-9552248D01*
X7219769Y-9552248D02*
X7210245Y-9514152D01*
X7210245Y-9514152D02*
X7210245Y-9466533D01*
X7210245Y-9466533D02*
X7219769Y-9428438D01*
X7219769Y-9428438D02*
X7229293Y-9409391D01*
X7229293Y-9409391D02*
X7238816Y-9399867D01*
X7238816Y-9399867D02*
X7257864Y-9390343D01*
X7495959Y-9457010D02*
X7495959Y-9590343D01*
X7448340Y-9380819D02*
X7400721Y-9523676D01*
X7400721Y-9523676D02*
X7524531Y-9523676D01*
X7581674Y-9390343D02*
X7705483Y-9390343D01*
X7705483Y-9390343D02*
X7638816Y-9466533D01*
X7638816Y-9466533D02*
X7667388Y-9466533D01*
X7667388Y-9466533D02*
X7686435Y-9476057D01*
X7686435Y-9476057D02*
X7695959Y-9485581D01*
X7695959Y-9485581D02*
X7705483Y-9504629D01*
X7705483Y-9504629D02*
X7705483Y-9552248D01*
X7705483Y-9552248D02*
X7695959Y-9571295D01*
X7695959Y-9571295D02*
X7686435Y-9580819D01*
X7686435Y-9580819D02*
X7667388Y-9590343D01*
X7667388Y-9590343D02*
X7610245Y-9590343D01*
X7610245Y-9590343D02*
X7591197Y-9580819D01*
X7591197Y-9580819D02*
X7581674Y-9571295D01*
X7772150Y-9390343D02*
X7895959Y-9390343D01*
X7895959Y-9390343D02*
X7829293Y-9466533D01*
X7829293Y-9466533D02*
X7857864Y-9466533D01*
X7857864Y-9466533D02*
X7876912Y-9476057D01*
X7876912Y-9476057D02*
X7886435Y-9485581D01*
X7886435Y-9485581D02*
X7895959Y-9504629D01*
X7895959Y-9504629D02*
X7895959Y-9552248D01*
X7895959Y-9552248D02*
X7886435Y-9571295D01*
X7886435Y-9571295D02*
X7876912Y-9580819D01*
X7876912Y-9580819D02*
X7857864Y-9590343D01*
X7857864Y-9590343D02*
X7800721Y-9590343D01*
X7800721Y-9590343D02*
X7781674Y-9580819D01*
X7781674Y-9580819D02*
X7772150Y-9571295D01*
X7972150Y-9390343D02*
X7972150Y-9428438D01*
X8048340Y-9390343D02*
X8048340Y-9428438D01*
X8343578Y-9666533D02*
X8334055Y-9657010D01*
X8334055Y-9657010D02*
X8315007Y-9628438D01*
X8315007Y-9628438D02*
X8305483Y-9609391D01*
X8305483Y-9609391D02*
X8295959Y-9580819D01*
X8295959Y-9580819D02*
X8286436Y-9533200D01*
X8286436Y-9533200D02*
X8286436Y-9495105D01*
X8286436Y-9495105D02*
X8295959Y-9447486D01*
X8295959Y-9447486D02*
X8305483Y-9418914D01*
X8305483Y-9418914D02*
X8315007Y-9399867D01*
X8315007Y-9399867D02*
X8334055Y-9371295D01*
X8334055Y-9371295D02*
X8343578Y-9361771D01*
X8400721Y-9390343D02*
X8524531Y-9390343D01*
X8524531Y-9390343D02*
X8457864Y-9466533D01*
X8457864Y-9466533D02*
X8486436Y-9466533D01*
X8486436Y-9466533D02*
X8505483Y-9476057D01*
X8505483Y-9476057D02*
X8515007Y-9485581D01*
X8515007Y-9485581D02*
X8524531Y-9504629D01*
X8524531Y-9504629D02*
X8524531Y-9552248D01*
X8524531Y-9552248D02*
X8515007Y-9571295D01*
X8515007Y-9571295D02*
X8505483Y-9580819D01*
X8505483Y-9580819D02*
X8486436Y-9590343D01*
X8486436Y-9590343D02*
X8429293Y-9590343D01*
X8429293Y-9590343D02*
X8410245Y-9580819D01*
X8410245Y-9580819D02*
X8400721Y-9571295D01*
X8762626Y-9590343D02*
X8762626Y-9390343D01*
X8848340Y-9590343D02*
X8848340Y-9485581D01*
X8848340Y-9485581D02*
X8838817Y-9466533D01*
X8838817Y-9466533D02*
X8819769Y-9457010D01*
X8819769Y-9457010D02*
X8791198Y-9457010D01*
X8791198Y-9457010D02*
X8772150Y-9466533D01*
X8772150Y-9466533D02*
X8762626Y-9476057D01*
X8972150Y-9590343D02*
X8953102Y-9580819D01*
X8953102Y-9580819D02*
X8943579Y-9571295D01*
X8943579Y-9571295D02*
X8934055Y-9552248D01*
X8934055Y-9552248D02*
X8934055Y-9495105D01*
X8934055Y-9495105D02*
X8943579Y-9476057D01*
X8943579Y-9476057D02*
X8953102Y-9466533D01*
X8953102Y-9466533D02*
X8972150Y-9457010D01*
X8972150Y-9457010D02*
X9000721Y-9457010D01*
X9000721Y-9457010D02*
X9019769Y-9466533D01*
X9019769Y-9466533D02*
X9029293Y-9476057D01*
X9029293Y-9476057D02*
X9038817Y-9495105D01*
X9038817Y-9495105D02*
X9038817Y-9552248D01*
X9038817Y-9552248D02*
X9029293Y-9571295D01*
X9029293Y-9571295D02*
X9019769Y-9580819D01*
X9019769Y-9580819D02*
X9000721Y-9590343D01*
X9000721Y-9590343D02*
X8972150Y-9590343D01*
X9153102Y-9590343D02*
X9134055Y-9580819D01*
X9134055Y-9580819D02*
X9124531Y-9561771D01*
X9124531Y-9561771D02*
X9124531Y-9390343D01*
X9305483Y-9580819D02*
X9286436Y-9590343D01*
X9286436Y-9590343D02*
X9248340Y-9590343D01*
X9248340Y-9590343D02*
X9229293Y-9580819D01*
X9229293Y-9580819D02*
X9219769Y-9561771D01*
X9219769Y-9561771D02*
X9219769Y-9485581D01*
X9219769Y-9485581D02*
X9229293Y-9466533D01*
X9229293Y-9466533D02*
X9248340Y-9457010D01*
X9248340Y-9457010D02*
X9286436Y-9457010D01*
X9286436Y-9457010D02*
X9305483Y-9466533D01*
X9305483Y-9466533D02*
X9315007Y-9485581D01*
X9315007Y-9485581D02*
X9315007Y-9504629D01*
X9315007Y-9504629D02*
X9219769Y-9523676D01*
X9391198Y-9580819D02*
X9410245Y-9590343D01*
X9410245Y-9590343D02*
X9448340Y-9590343D01*
X9448340Y-9590343D02*
X9467388Y-9580819D01*
X9467388Y-9580819D02*
X9476912Y-9561771D01*
X9476912Y-9561771D02*
X9476912Y-9552248D01*
X9476912Y-9552248D02*
X9467388Y-9533200D01*
X9467388Y-9533200D02*
X9448340Y-9523676D01*
X9448340Y-9523676D02*
X9419769Y-9523676D01*
X9419769Y-9523676D02*
X9400721Y-9514152D01*
X9400721Y-9514152D02*
X9391198Y-9495105D01*
X9391198Y-9495105D02*
X9391198Y-9485581D01*
X9391198Y-9485581D02*
X9400721Y-9466533D01*
X9400721Y-9466533D02*
X9419769Y-9457010D01*
X9419769Y-9457010D02*
X9448340Y-9457010D01*
X9448340Y-9457010D02*
X9467388Y-9466533D01*
X9543579Y-9666533D02*
X9553102Y-9657010D01*
X9553102Y-9657010D02*
X9572150Y-9628438D01*
X9572150Y-9628438D02*
X9581674Y-9609391D01*
X9581674Y-9609391D02*
X9591198Y-9580819D01*
X9591198Y-9580819D02*
X9600721Y-9533200D01*
X9600721Y-9533200D02*
X9600721Y-9495105D01*
X9600721Y-9495105D02*
X9591198Y-9447486D01*
X9591198Y-9447486D02*
X9581674Y-9418914D01*
X9581674Y-9418914D02*
X9572150Y-9399867D01*
X9572150Y-9399867D02*
X9553102Y-9371295D01*
X9553102Y-9371295D02*
X9543579Y-9361771D01*
D12*
X4703516Y-9730359D02*
X4768516Y-9795359D01*
X4768516Y-9730359D02*
X4703516Y-9795359D01*
X4758997Y-9785840D02*
X4758997Y-9739878D01*
X4713034Y-9739878D01*
X4713034Y-9785840D01*
X4758997Y-9785840D01*
D11*
X5067388Y-9654343D02*
X5086435Y-9654343D01*
X5086435Y-9654343D02*
X5105483Y-9663867D01*
X5105483Y-9663867D02*
X5115007Y-9673391D01*
X5115007Y-9673391D02*
X5124531Y-9692438D01*
X5124531Y-9692438D02*
X5134054Y-9730533D01*
X5134054Y-9730533D02*
X5134054Y-9778152D01*
X5134054Y-9778152D02*
X5124531Y-9816248D01*
X5124531Y-9816248D02*
X5115007Y-9835295D01*
X5115007Y-9835295D02*
X5105483Y-9844819D01*
X5105483Y-9844819D02*
X5086435Y-9854343D01*
X5086435Y-9854343D02*
X5067388Y-9854343D01*
X5067388Y-9854343D02*
X5048340Y-9844819D01*
X5048340Y-9844819D02*
X5038816Y-9835295D01*
X5038816Y-9835295D02*
X5029292Y-9816248D01*
X5029292Y-9816248D02*
X5019769Y-9778152D01*
X5019769Y-9778152D02*
X5019769Y-9730533D01*
X5019769Y-9730533D02*
X5029292Y-9692438D01*
X5029292Y-9692438D02*
X5038816Y-9673391D01*
X5038816Y-9673391D02*
X5048340Y-9663867D01*
X5048340Y-9663867D02*
X5067388Y-9654343D01*
X5219769Y-9835295D02*
X5229292Y-9844819D01*
X5229292Y-9844819D02*
X5219769Y-9854343D01*
X5219769Y-9854343D02*
X5210245Y-9844819D01*
X5210245Y-9844819D02*
X5219769Y-9835295D01*
X5219769Y-9835295D02*
X5219769Y-9854343D01*
X5400721Y-9654343D02*
X5362626Y-9654343D01*
X5362626Y-9654343D02*
X5343578Y-9663867D01*
X5343578Y-9663867D02*
X5334054Y-9673391D01*
X5334054Y-9673391D02*
X5315007Y-9701962D01*
X5315007Y-9701962D02*
X5305483Y-9740057D01*
X5305483Y-9740057D02*
X5305483Y-9816248D01*
X5305483Y-9816248D02*
X5315007Y-9835295D01*
X5315007Y-9835295D02*
X5324531Y-9844819D01*
X5324531Y-9844819D02*
X5343578Y-9854343D01*
X5343578Y-9854343D02*
X5381673Y-9854343D01*
X5381673Y-9854343D02*
X5400721Y-9844819D01*
X5400721Y-9844819D02*
X5410245Y-9835295D01*
X5410245Y-9835295D02*
X5419769Y-9816248D01*
X5419769Y-9816248D02*
X5419769Y-9768629D01*
X5419769Y-9768629D02*
X5410245Y-9749581D01*
X5410245Y-9749581D02*
X5400721Y-9740057D01*
X5400721Y-9740057D02*
X5381673Y-9730533D01*
X5381673Y-9730533D02*
X5343578Y-9730533D01*
X5343578Y-9730533D02*
X5324531Y-9740057D01*
X5324531Y-9740057D02*
X5315007Y-9749581D01*
X5315007Y-9749581D02*
X5305483Y-9768629D01*
X5600721Y-9654343D02*
X5505483Y-9654343D01*
X5505483Y-9654343D02*
X5495959Y-9749581D01*
X5495959Y-9749581D02*
X5505483Y-9740057D01*
X5505483Y-9740057D02*
X5524531Y-9730533D01*
X5524531Y-9730533D02*
X5572150Y-9730533D01*
X5572150Y-9730533D02*
X5591197Y-9740057D01*
X5591197Y-9740057D02*
X5600721Y-9749581D01*
X5600721Y-9749581D02*
X5610245Y-9768629D01*
X5610245Y-9768629D02*
X5610245Y-9816248D01*
X5610245Y-9816248D02*
X5600721Y-9835295D01*
X5600721Y-9835295D02*
X5591197Y-9844819D01*
X5591197Y-9844819D02*
X5572150Y-9854343D01*
X5572150Y-9854343D02*
X5524531Y-9854343D01*
X5524531Y-9854343D02*
X5505483Y-9844819D01*
X5505483Y-9844819D02*
X5495959Y-9835295D01*
X5734054Y-9654343D02*
X5753102Y-9654343D01*
X5753102Y-9654343D02*
X5772150Y-9663867D01*
X5772150Y-9663867D02*
X5781673Y-9673391D01*
X5781673Y-9673391D02*
X5791197Y-9692438D01*
X5791197Y-9692438D02*
X5800721Y-9730533D01*
X5800721Y-9730533D02*
X5800721Y-9778152D01*
X5800721Y-9778152D02*
X5791197Y-9816248D01*
X5791197Y-9816248D02*
X5781673Y-9835295D01*
X5781673Y-9835295D02*
X5772150Y-9844819D01*
X5772150Y-9844819D02*
X5753102Y-9854343D01*
X5753102Y-9854343D02*
X5734054Y-9854343D01*
X5734054Y-9854343D02*
X5715007Y-9844819D01*
X5715007Y-9844819D02*
X5705483Y-9835295D01*
X5705483Y-9835295D02*
X5695959Y-9816248D01*
X5695959Y-9816248D02*
X5686435Y-9778152D01*
X5686435Y-9778152D02*
X5686435Y-9730533D01*
X5686435Y-9730533D02*
X5695959Y-9692438D01*
X5695959Y-9692438D02*
X5705483Y-9673391D01*
X5705483Y-9673391D02*
X5715007Y-9663867D01*
X5715007Y-9663867D02*
X5734054Y-9654343D01*
X5886435Y-9854343D02*
X5886435Y-9721010D01*
X5886435Y-9740057D02*
X5895959Y-9730533D01*
X5895959Y-9730533D02*
X5915007Y-9721010D01*
X5915007Y-9721010D02*
X5943578Y-9721010D01*
X5943578Y-9721010D02*
X5962626Y-9730533D01*
X5962626Y-9730533D02*
X5972150Y-9749581D01*
X5972150Y-9749581D02*
X5972150Y-9854343D01*
X5972150Y-9749581D02*
X5981673Y-9730533D01*
X5981673Y-9730533D02*
X6000721Y-9721010D01*
X6000721Y-9721010D02*
X6029292Y-9721010D01*
X6029292Y-9721010D02*
X6048340Y-9730533D01*
X6048340Y-9730533D02*
X6057864Y-9749581D01*
X6057864Y-9749581D02*
X6057864Y-9854343D01*
X6153102Y-9854343D02*
X6153102Y-9721010D01*
X6153102Y-9740057D02*
X6162626Y-9730533D01*
X6162626Y-9730533D02*
X6181673Y-9721010D01*
X6181673Y-9721010D02*
X6210245Y-9721010D01*
X6210245Y-9721010D02*
X6229292Y-9730533D01*
X6229292Y-9730533D02*
X6238816Y-9749581D01*
X6238816Y-9749581D02*
X6238816Y-9854343D01*
X6238816Y-9749581D02*
X6248340Y-9730533D01*
X6248340Y-9730533D02*
X6267388Y-9721010D01*
X6267388Y-9721010D02*
X6295959Y-9721010D01*
X6295959Y-9721010D02*
X6315007Y-9730533D01*
X6315007Y-9730533D02*
X6324531Y-9749581D01*
X6324531Y-9749581D02*
X6324531Y-9854343D01*
X6715007Y-9644819D02*
X6543578Y-9901962D01*
X6972150Y-9654343D02*
X6991197Y-9654343D01*
X6991197Y-9654343D02*
X7010245Y-9663867D01*
X7010245Y-9663867D02*
X7019769Y-9673391D01*
X7019769Y-9673391D02*
X7029293Y-9692438D01*
X7029293Y-9692438D02*
X7038816Y-9730533D01*
X7038816Y-9730533D02*
X7038816Y-9778152D01*
X7038816Y-9778152D02*
X7029293Y-9816248D01*
X7029293Y-9816248D02*
X7019769Y-9835295D01*
X7019769Y-9835295D02*
X7010245Y-9844819D01*
X7010245Y-9844819D02*
X6991197Y-9854343D01*
X6991197Y-9854343D02*
X6972150Y-9854343D01*
X6972150Y-9854343D02*
X6953102Y-9844819D01*
X6953102Y-9844819D02*
X6943578Y-9835295D01*
X6943578Y-9835295D02*
X6934054Y-9816248D01*
X6934054Y-9816248D02*
X6924531Y-9778152D01*
X6924531Y-9778152D02*
X6924531Y-9730533D01*
X6924531Y-9730533D02*
X6934054Y-9692438D01*
X6934054Y-9692438D02*
X6943578Y-9673391D01*
X6943578Y-9673391D02*
X6953102Y-9663867D01*
X6953102Y-9663867D02*
X6972150Y-9654343D01*
X7124531Y-9835295D02*
X7134054Y-9844819D01*
X7134054Y-9844819D02*
X7124531Y-9854343D01*
X7124531Y-9854343D02*
X7115007Y-9844819D01*
X7115007Y-9844819D02*
X7124531Y-9835295D01*
X7124531Y-9835295D02*
X7124531Y-9854343D01*
X7257864Y-9654343D02*
X7276912Y-9654343D01*
X7276912Y-9654343D02*
X7295959Y-9663867D01*
X7295959Y-9663867D02*
X7305483Y-9673391D01*
X7305483Y-9673391D02*
X7315007Y-9692438D01*
X7315007Y-9692438D02*
X7324531Y-9730533D01*
X7324531Y-9730533D02*
X7324531Y-9778152D01*
X7324531Y-9778152D02*
X7315007Y-9816248D01*
X7315007Y-9816248D02*
X7305483Y-9835295D01*
X7305483Y-9835295D02*
X7295959Y-9844819D01*
X7295959Y-9844819D02*
X7276912Y-9854343D01*
X7276912Y-9854343D02*
X7257864Y-9854343D01*
X7257864Y-9854343D02*
X7238816Y-9844819D01*
X7238816Y-9844819D02*
X7229293Y-9835295D01*
X7229293Y-9835295D02*
X7219769Y-9816248D01*
X7219769Y-9816248D02*
X7210245Y-9778152D01*
X7210245Y-9778152D02*
X7210245Y-9730533D01*
X7210245Y-9730533D02*
X7219769Y-9692438D01*
X7219769Y-9692438D02*
X7229293Y-9673391D01*
X7229293Y-9673391D02*
X7238816Y-9663867D01*
X7238816Y-9663867D02*
X7257864Y-9654343D01*
X7400721Y-9673391D02*
X7410245Y-9663867D01*
X7410245Y-9663867D02*
X7429293Y-9654343D01*
X7429293Y-9654343D02*
X7476912Y-9654343D01*
X7476912Y-9654343D02*
X7495959Y-9663867D01*
X7495959Y-9663867D02*
X7505483Y-9673391D01*
X7505483Y-9673391D02*
X7515007Y-9692438D01*
X7515007Y-9692438D02*
X7515007Y-9711486D01*
X7515007Y-9711486D02*
X7505483Y-9740057D01*
X7505483Y-9740057D02*
X7391197Y-9854343D01*
X7391197Y-9854343D02*
X7515007Y-9854343D01*
X7695959Y-9654343D02*
X7600721Y-9654343D01*
X7600721Y-9654343D02*
X7591197Y-9749581D01*
X7591197Y-9749581D02*
X7600721Y-9740057D01*
X7600721Y-9740057D02*
X7619769Y-9730533D01*
X7619769Y-9730533D02*
X7667388Y-9730533D01*
X7667388Y-9730533D02*
X7686435Y-9740057D01*
X7686435Y-9740057D02*
X7695959Y-9749581D01*
X7695959Y-9749581D02*
X7705483Y-9768629D01*
X7705483Y-9768629D02*
X7705483Y-9816248D01*
X7705483Y-9816248D02*
X7695959Y-9835295D01*
X7695959Y-9835295D02*
X7686435Y-9844819D01*
X7686435Y-9844819D02*
X7667388Y-9854343D01*
X7667388Y-9854343D02*
X7619769Y-9854343D01*
X7619769Y-9854343D02*
X7600721Y-9844819D01*
X7600721Y-9844819D02*
X7591197Y-9835295D01*
X7876912Y-9654343D02*
X7838816Y-9654343D01*
X7838816Y-9654343D02*
X7819769Y-9663867D01*
X7819769Y-9663867D02*
X7810245Y-9673391D01*
X7810245Y-9673391D02*
X7791197Y-9701962D01*
X7791197Y-9701962D02*
X7781674Y-9740057D01*
X7781674Y-9740057D02*
X7781674Y-9816248D01*
X7781674Y-9816248D02*
X7791197Y-9835295D01*
X7791197Y-9835295D02*
X7800721Y-9844819D01*
X7800721Y-9844819D02*
X7819769Y-9854343D01*
X7819769Y-9854343D02*
X7857864Y-9854343D01*
X7857864Y-9854343D02*
X7876912Y-9844819D01*
X7876912Y-9844819D02*
X7886435Y-9835295D01*
X7886435Y-9835295D02*
X7895959Y-9816248D01*
X7895959Y-9816248D02*
X7895959Y-9768629D01*
X7895959Y-9768629D02*
X7886435Y-9749581D01*
X7886435Y-9749581D02*
X7876912Y-9740057D01*
X7876912Y-9740057D02*
X7857864Y-9730533D01*
X7857864Y-9730533D02*
X7819769Y-9730533D01*
X7819769Y-9730533D02*
X7800721Y-9740057D01*
X7800721Y-9740057D02*
X7791197Y-9749581D01*
X7791197Y-9749581D02*
X7781674Y-9768629D01*
X7972150Y-9654343D02*
X7972150Y-9692438D01*
X8048340Y-9654343D02*
X8048340Y-9692438D01*
X8343578Y-9930533D02*
X8334055Y-9921010D01*
X8334055Y-9921010D02*
X8315007Y-9892438D01*
X8315007Y-9892438D02*
X8305483Y-9873391D01*
X8305483Y-9873391D02*
X8295959Y-9844819D01*
X8295959Y-9844819D02*
X8286436Y-9797200D01*
X8286436Y-9797200D02*
X8286436Y-9759105D01*
X8286436Y-9759105D02*
X8295959Y-9711486D01*
X8295959Y-9711486D02*
X8305483Y-9682914D01*
X8305483Y-9682914D02*
X8315007Y-9663867D01*
X8315007Y-9663867D02*
X8334055Y-9635295D01*
X8334055Y-9635295D02*
X8343578Y-9625771D01*
X8410245Y-9673391D02*
X8419769Y-9663867D01*
X8419769Y-9663867D02*
X8438817Y-9654343D01*
X8438817Y-9654343D02*
X8486436Y-9654343D01*
X8486436Y-9654343D02*
X8505483Y-9663867D01*
X8505483Y-9663867D02*
X8515007Y-9673391D01*
X8515007Y-9673391D02*
X8524531Y-9692438D01*
X8524531Y-9692438D02*
X8524531Y-9711486D01*
X8524531Y-9711486D02*
X8515007Y-9740057D01*
X8515007Y-9740057D02*
X8400721Y-9854343D01*
X8400721Y-9854343D02*
X8524531Y-9854343D01*
X8762626Y-9854343D02*
X8762626Y-9654343D01*
X8848340Y-9854343D02*
X8848340Y-9749581D01*
X8848340Y-9749581D02*
X8838817Y-9730533D01*
X8838817Y-9730533D02*
X8819769Y-9721010D01*
X8819769Y-9721010D02*
X8791198Y-9721010D01*
X8791198Y-9721010D02*
X8772150Y-9730533D01*
X8772150Y-9730533D02*
X8762626Y-9740057D01*
X8972150Y-9854343D02*
X8953102Y-9844819D01*
X8953102Y-9844819D02*
X8943579Y-9835295D01*
X8943579Y-9835295D02*
X8934055Y-9816248D01*
X8934055Y-9816248D02*
X8934055Y-9759105D01*
X8934055Y-9759105D02*
X8943579Y-9740057D01*
X8943579Y-9740057D02*
X8953102Y-9730533D01*
X8953102Y-9730533D02*
X8972150Y-9721010D01*
X8972150Y-9721010D02*
X9000721Y-9721010D01*
X9000721Y-9721010D02*
X9019769Y-9730533D01*
X9019769Y-9730533D02*
X9029293Y-9740057D01*
X9029293Y-9740057D02*
X9038817Y-9759105D01*
X9038817Y-9759105D02*
X9038817Y-9816248D01*
X9038817Y-9816248D02*
X9029293Y-9835295D01*
X9029293Y-9835295D02*
X9019769Y-9844819D01*
X9019769Y-9844819D02*
X9000721Y-9854343D01*
X9000721Y-9854343D02*
X8972150Y-9854343D01*
X9153102Y-9854343D02*
X9134055Y-9844819D01*
X9134055Y-9844819D02*
X9124531Y-9825771D01*
X9124531Y-9825771D02*
X9124531Y-9654343D01*
X9305483Y-9844819D02*
X9286436Y-9854343D01*
X9286436Y-9854343D02*
X9248340Y-9854343D01*
X9248340Y-9854343D02*
X9229293Y-9844819D01*
X9229293Y-9844819D02*
X9219769Y-9825771D01*
X9219769Y-9825771D02*
X9219769Y-9749581D01*
X9219769Y-9749581D02*
X9229293Y-9730533D01*
X9229293Y-9730533D02*
X9248340Y-9721010D01*
X9248340Y-9721010D02*
X9286436Y-9721010D01*
X9286436Y-9721010D02*
X9305483Y-9730533D01*
X9305483Y-9730533D02*
X9315007Y-9749581D01*
X9315007Y-9749581D02*
X9315007Y-9768629D01*
X9315007Y-9768629D02*
X9219769Y-9787676D01*
X9391198Y-9844819D02*
X9410245Y-9854343D01*
X9410245Y-9854343D02*
X9448340Y-9854343D01*
X9448340Y-9854343D02*
X9467388Y-9844819D01*
X9467388Y-9844819D02*
X9476912Y-9825771D01*
X9476912Y-9825771D02*
X9476912Y-9816248D01*
X9476912Y-9816248D02*
X9467388Y-9797200D01*
X9467388Y-9797200D02*
X9448340Y-9787676D01*
X9448340Y-9787676D02*
X9419769Y-9787676D01*
X9419769Y-9787676D02*
X9400721Y-9778152D01*
X9400721Y-9778152D02*
X9391198Y-9759105D01*
X9391198Y-9759105D02*
X9391198Y-9749581D01*
X9391198Y-9749581D02*
X9400721Y-9730533D01*
X9400721Y-9730533D02*
X9419769Y-9721010D01*
X9419769Y-9721010D02*
X9448340Y-9721010D01*
X9448340Y-9721010D02*
X9467388Y-9730533D01*
X9543579Y-9930533D02*
X9553102Y-9921010D01*
X9553102Y-9921010D02*
X9572150Y-9892438D01*
X9572150Y-9892438D02*
X9581674Y-9873391D01*
X9581674Y-9873391D02*
X9591198Y-9844819D01*
X9591198Y-9844819D02*
X9600721Y-9797200D01*
X9600721Y-9797200D02*
X9600721Y-9759105D01*
X9600721Y-9759105D02*
X9591198Y-9711486D01*
X9591198Y-9711486D02*
X9581674Y-9682914D01*
X9581674Y-9682914D02*
X9572150Y-9663867D01*
X9572150Y-9663867D02*
X9553102Y-9635295D01*
X9553102Y-9635295D02*
X9543579Y-9625771D01*
X9905483Y-9930533D02*
X9895960Y-9921010D01*
X9895960Y-9921010D02*
X9876912Y-9892438D01*
X9876912Y-9892438D02*
X9867388Y-9873391D01*
X9867388Y-9873391D02*
X9857864Y-9844819D01*
X9857864Y-9844819D02*
X9848341Y-9797200D01*
X9848341Y-9797200D02*
X9848341Y-9759105D01*
X9848341Y-9759105D02*
X9857864Y-9711486D01*
X9857864Y-9711486D02*
X9867388Y-9682914D01*
X9867388Y-9682914D02*
X9876912Y-9663867D01*
X9876912Y-9663867D02*
X9895960Y-9635295D01*
X9895960Y-9635295D02*
X9905483Y-9625771D01*
X9981674Y-9721010D02*
X9981674Y-9854343D01*
X9981674Y-9740057D02*
X9991198Y-9730533D01*
X9991198Y-9730533D02*
X10010245Y-9721010D01*
X10010245Y-9721010D02*
X10038817Y-9721010D01*
X10038817Y-9721010D02*
X10057864Y-9730533D01*
X10057864Y-9730533D02*
X10067388Y-9749581D01*
X10067388Y-9749581D02*
X10067388Y-9854343D01*
X10191198Y-9854343D02*
X10172150Y-9844819D01*
X10172150Y-9844819D02*
X10162626Y-9835295D01*
X10162626Y-9835295D02*
X10153102Y-9816248D01*
X10153102Y-9816248D02*
X10153102Y-9759105D01*
X10153102Y-9759105D02*
X10162626Y-9740057D01*
X10162626Y-9740057D02*
X10172150Y-9730533D01*
X10172150Y-9730533D02*
X10191198Y-9721010D01*
X10191198Y-9721010D02*
X10219769Y-9721010D01*
X10219769Y-9721010D02*
X10238817Y-9730533D01*
X10238817Y-9730533D02*
X10248341Y-9740057D01*
X10248341Y-9740057D02*
X10257864Y-9759105D01*
X10257864Y-9759105D02*
X10257864Y-9816248D01*
X10257864Y-9816248D02*
X10248341Y-9835295D01*
X10248341Y-9835295D02*
X10238817Y-9844819D01*
X10238817Y-9844819D02*
X10219769Y-9854343D01*
X10219769Y-9854343D02*
X10191198Y-9854343D01*
X10315007Y-9721010D02*
X10391198Y-9721010D01*
X10343579Y-9654343D02*
X10343579Y-9825771D01*
X10343579Y-9825771D02*
X10353102Y-9844819D01*
X10353102Y-9844819D02*
X10372150Y-9854343D01*
X10372150Y-9854343D02*
X10391198Y-9854343D01*
X10610245Y-9721010D02*
X10610245Y-9921010D01*
X10610245Y-9730533D02*
X10629293Y-9721010D01*
X10629293Y-9721010D02*
X10667388Y-9721010D01*
X10667388Y-9721010D02*
X10686436Y-9730533D01*
X10686436Y-9730533D02*
X10695960Y-9740057D01*
X10695960Y-9740057D02*
X10705483Y-9759105D01*
X10705483Y-9759105D02*
X10705483Y-9816248D01*
X10705483Y-9816248D02*
X10695960Y-9835295D01*
X10695960Y-9835295D02*
X10686436Y-9844819D01*
X10686436Y-9844819D02*
X10667388Y-9854343D01*
X10667388Y-9854343D02*
X10629293Y-9854343D01*
X10629293Y-9854343D02*
X10610245Y-9844819D01*
X10819769Y-9854343D02*
X10800722Y-9844819D01*
X10800722Y-9844819D02*
X10791198Y-9825771D01*
X10791198Y-9825771D02*
X10791198Y-9654343D01*
X10981674Y-9854343D02*
X10981674Y-9749581D01*
X10981674Y-9749581D02*
X10972150Y-9730533D01*
X10972150Y-9730533D02*
X10953103Y-9721010D01*
X10953103Y-9721010D02*
X10915007Y-9721010D01*
X10915007Y-9721010D02*
X10895960Y-9730533D01*
X10981674Y-9844819D02*
X10962626Y-9854343D01*
X10962626Y-9854343D02*
X10915007Y-9854343D01*
X10915007Y-9854343D02*
X10895960Y-9844819D01*
X10895960Y-9844819D02*
X10886436Y-9825771D01*
X10886436Y-9825771D02*
X10886436Y-9806724D01*
X10886436Y-9806724D02*
X10895960Y-9787676D01*
X10895960Y-9787676D02*
X10915007Y-9778152D01*
X10915007Y-9778152D02*
X10962626Y-9778152D01*
X10962626Y-9778152D02*
X10981674Y-9768629D01*
X11048341Y-9721010D02*
X11124531Y-9721010D01*
X11076912Y-9654343D02*
X11076912Y-9825771D01*
X11076912Y-9825771D02*
X11086436Y-9844819D01*
X11086436Y-9844819D02*
X11105483Y-9854343D01*
X11105483Y-9854343D02*
X11124531Y-9854343D01*
X11267388Y-9844819D02*
X11248341Y-9854343D01*
X11248341Y-9854343D02*
X11210245Y-9854343D01*
X11210245Y-9854343D02*
X11191198Y-9844819D01*
X11191198Y-9844819D02*
X11181674Y-9825771D01*
X11181674Y-9825771D02*
X11181674Y-9749581D01*
X11181674Y-9749581D02*
X11191198Y-9730533D01*
X11191198Y-9730533D02*
X11210245Y-9721010D01*
X11210245Y-9721010D02*
X11248341Y-9721010D01*
X11248341Y-9721010D02*
X11267388Y-9730533D01*
X11267388Y-9730533D02*
X11276912Y-9749581D01*
X11276912Y-9749581D02*
X11276912Y-9768629D01*
X11276912Y-9768629D02*
X11181674Y-9787676D01*
X11448341Y-9854343D02*
X11448341Y-9654343D01*
X11448341Y-9844819D02*
X11429293Y-9854343D01*
X11429293Y-9854343D02*
X11391198Y-9854343D01*
X11391198Y-9854343D02*
X11372150Y-9844819D01*
X11372150Y-9844819D02*
X11362626Y-9835295D01*
X11362626Y-9835295D02*
X11353102Y-9816248D01*
X11353102Y-9816248D02*
X11353102Y-9759105D01*
X11353102Y-9759105D02*
X11362626Y-9740057D01*
X11362626Y-9740057D02*
X11372150Y-9730533D01*
X11372150Y-9730533D02*
X11391198Y-9721010D01*
X11391198Y-9721010D02*
X11429293Y-9721010D01*
X11429293Y-9721010D02*
X11448341Y-9730533D01*
X11524531Y-9930533D02*
X11534055Y-9921010D01*
X11534055Y-9921010D02*
X11553102Y-9892438D01*
X11553102Y-9892438D02*
X11562626Y-9873391D01*
X11562626Y-9873391D02*
X11572150Y-9844819D01*
X11572150Y-9844819D02*
X11581674Y-9797200D01*
X11581674Y-9797200D02*
X11581674Y-9759105D01*
X11581674Y-9759105D02*
X11572150Y-9711486D01*
X11572150Y-9711486D02*
X11562626Y-9682914D01*
X11562626Y-9682914D02*
X11553102Y-9663867D01*
X11553102Y-9663867D02*
X11534055Y-9635295D01*
X11534055Y-9635295D02*
X11524531Y-9625771D01*
X4568516Y-9926859D02*
X4768516Y-10126859D01*
X4768516Y-9926859D02*
X4568516Y-10126859D01*
X4668516Y-10126859D02*
X4768516Y-10026859D01*
X4668516Y-9926859D01*
X4568516Y-10026859D01*
X4668516Y-10126859D01*
X5010245Y-9918343D02*
X5134054Y-9918343D01*
X5134054Y-9918343D02*
X5067388Y-9994533D01*
X5067388Y-9994533D02*
X5095959Y-9994533D01*
X5095959Y-9994533D02*
X5115007Y-10004057D01*
X5115007Y-10004057D02*
X5124531Y-10013581D01*
X5124531Y-10013581D02*
X5134054Y-10032629D01*
X5134054Y-10032629D02*
X5134054Y-10080248D01*
X5134054Y-10080248D02*
X5124531Y-10099295D01*
X5124531Y-10099295D02*
X5115007Y-10108819D01*
X5115007Y-10108819D02*
X5095959Y-10118343D01*
X5095959Y-10118343D02*
X5038816Y-10118343D01*
X5038816Y-10118343D02*
X5019769Y-10108819D01*
X5019769Y-10108819D02*
X5010245Y-10099295D01*
X5219769Y-10099295D02*
X5229292Y-10108819D01*
X5229292Y-10108819D02*
X5219769Y-10118343D01*
X5219769Y-10118343D02*
X5210245Y-10108819D01*
X5210245Y-10108819D02*
X5219769Y-10099295D01*
X5219769Y-10099295D02*
X5219769Y-10118343D01*
X5305483Y-9937391D02*
X5315007Y-9927867D01*
X5315007Y-9927867D02*
X5334054Y-9918343D01*
X5334054Y-9918343D02*
X5381673Y-9918343D01*
X5381673Y-9918343D02*
X5400721Y-9927867D01*
X5400721Y-9927867D02*
X5410245Y-9937391D01*
X5410245Y-9937391D02*
X5419769Y-9956438D01*
X5419769Y-9956438D02*
X5419769Y-9975486D01*
X5419769Y-9975486D02*
X5410245Y-10004057D01*
X5410245Y-10004057D02*
X5295959Y-10118343D01*
X5295959Y-10118343D02*
X5419769Y-10118343D01*
X5543578Y-9918343D02*
X5562626Y-9918343D01*
X5562626Y-9918343D02*
X5581673Y-9927867D01*
X5581673Y-9927867D02*
X5591197Y-9937391D01*
X5591197Y-9937391D02*
X5600721Y-9956438D01*
X5600721Y-9956438D02*
X5610245Y-9994533D01*
X5610245Y-9994533D02*
X5610245Y-10042152D01*
X5610245Y-10042152D02*
X5600721Y-10080248D01*
X5600721Y-10080248D02*
X5591197Y-10099295D01*
X5591197Y-10099295D02*
X5581673Y-10108819D01*
X5581673Y-10108819D02*
X5562626Y-10118343D01*
X5562626Y-10118343D02*
X5543578Y-10118343D01*
X5543578Y-10118343D02*
X5524531Y-10108819D01*
X5524531Y-10108819D02*
X5515007Y-10099295D01*
X5515007Y-10099295D02*
X5505483Y-10080248D01*
X5505483Y-10080248D02*
X5495959Y-10042152D01*
X5495959Y-10042152D02*
X5495959Y-9994533D01*
X5495959Y-9994533D02*
X5505483Y-9956438D01*
X5505483Y-9956438D02*
X5515007Y-9937391D01*
X5515007Y-9937391D02*
X5524531Y-9927867D01*
X5524531Y-9927867D02*
X5543578Y-9918343D01*
X5734054Y-9918343D02*
X5753102Y-9918343D01*
X5753102Y-9918343D02*
X5772150Y-9927867D01*
X5772150Y-9927867D02*
X5781673Y-9937391D01*
X5781673Y-9937391D02*
X5791197Y-9956438D01*
X5791197Y-9956438D02*
X5800721Y-9994533D01*
X5800721Y-9994533D02*
X5800721Y-10042152D01*
X5800721Y-10042152D02*
X5791197Y-10080248D01*
X5791197Y-10080248D02*
X5781673Y-10099295D01*
X5781673Y-10099295D02*
X5772150Y-10108819D01*
X5772150Y-10108819D02*
X5753102Y-10118343D01*
X5753102Y-10118343D02*
X5734054Y-10118343D01*
X5734054Y-10118343D02*
X5715007Y-10108819D01*
X5715007Y-10108819D02*
X5705483Y-10099295D01*
X5705483Y-10099295D02*
X5695959Y-10080248D01*
X5695959Y-10080248D02*
X5686435Y-10042152D01*
X5686435Y-10042152D02*
X5686435Y-9994533D01*
X5686435Y-9994533D02*
X5695959Y-9956438D01*
X5695959Y-9956438D02*
X5705483Y-9937391D01*
X5705483Y-9937391D02*
X5715007Y-9927867D01*
X5715007Y-9927867D02*
X5734054Y-9918343D01*
X5886435Y-10118343D02*
X5886435Y-9985010D01*
X5886435Y-10004057D02*
X5895959Y-9994533D01*
X5895959Y-9994533D02*
X5915007Y-9985010D01*
X5915007Y-9985010D02*
X5943578Y-9985010D01*
X5943578Y-9985010D02*
X5962626Y-9994533D01*
X5962626Y-9994533D02*
X5972150Y-10013581D01*
X5972150Y-10013581D02*
X5972150Y-10118343D01*
X5972150Y-10013581D02*
X5981673Y-9994533D01*
X5981673Y-9994533D02*
X6000721Y-9985010D01*
X6000721Y-9985010D02*
X6029292Y-9985010D01*
X6029292Y-9985010D02*
X6048340Y-9994533D01*
X6048340Y-9994533D02*
X6057864Y-10013581D01*
X6057864Y-10013581D02*
X6057864Y-10118343D01*
X6153102Y-10118343D02*
X6153102Y-9985010D01*
X6153102Y-10004057D02*
X6162626Y-9994533D01*
X6162626Y-9994533D02*
X6181673Y-9985010D01*
X6181673Y-9985010D02*
X6210245Y-9985010D01*
X6210245Y-9985010D02*
X6229292Y-9994533D01*
X6229292Y-9994533D02*
X6238816Y-10013581D01*
X6238816Y-10013581D02*
X6238816Y-10118343D01*
X6238816Y-10013581D02*
X6248340Y-9994533D01*
X6248340Y-9994533D02*
X6267388Y-9985010D01*
X6267388Y-9985010D02*
X6295959Y-9985010D01*
X6295959Y-9985010D02*
X6315007Y-9994533D01*
X6315007Y-9994533D02*
X6324531Y-10013581D01*
X6324531Y-10013581D02*
X6324531Y-10118343D01*
X6715007Y-9908819D02*
X6543578Y-10165962D01*
X6972150Y-9918343D02*
X6991197Y-9918343D01*
X6991197Y-9918343D02*
X7010245Y-9927867D01*
X7010245Y-9927867D02*
X7019769Y-9937391D01*
X7019769Y-9937391D02*
X7029293Y-9956438D01*
X7029293Y-9956438D02*
X7038816Y-9994533D01*
X7038816Y-9994533D02*
X7038816Y-10042152D01*
X7038816Y-10042152D02*
X7029293Y-10080248D01*
X7029293Y-10080248D02*
X7019769Y-10099295D01*
X7019769Y-10099295D02*
X7010245Y-10108819D01*
X7010245Y-10108819D02*
X6991197Y-10118343D01*
X6991197Y-10118343D02*
X6972150Y-10118343D01*
X6972150Y-10118343D02*
X6953102Y-10108819D01*
X6953102Y-10108819D02*
X6943578Y-10099295D01*
X6943578Y-10099295D02*
X6934054Y-10080248D01*
X6934054Y-10080248D02*
X6924531Y-10042152D01*
X6924531Y-10042152D02*
X6924531Y-9994533D01*
X6924531Y-9994533D02*
X6934054Y-9956438D01*
X6934054Y-9956438D02*
X6943578Y-9937391D01*
X6943578Y-9937391D02*
X6953102Y-9927867D01*
X6953102Y-9927867D02*
X6972150Y-9918343D01*
X7124531Y-10099295D02*
X7134054Y-10108819D01*
X7134054Y-10108819D02*
X7124531Y-10118343D01*
X7124531Y-10118343D02*
X7115007Y-10108819D01*
X7115007Y-10108819D02*
X7124531Y-10099295D01*
X7124531Y-10099295D02*
X7124531Y-10118343D01*
X7324531Y-10118343D02*
X7210245Y-10118343D01*
X7267388Y-10118343D02*
X7267388Y-9918343D01*
X7267388Y-9918343D02*
X7248340Y-9946914D01*
X7248340Y-9946914D02*
X7229293Y-9965962D01*
X7229293Y-9965962D02*
X7210245Y-9975486D01*
X7400721Y-9937391D02*
X7410245Y-9927867D01*
X7410245Y-9927867D02*
X7429293Y-9918343D01*
X7429293Y-9918343D02*
X7476912Y-9918343D01*
X7476912Y-9918343D02*
X7495959Y-9927867D01*
X7495959Y-9927867D02*
X7505483Y-9937391D01*
X7505483Y-9937391D02*
X7515007Y-9956438D01*
X7515007Y-9956438D02*
X7515007Y-9975486D01*
X7515007Y-9975486D02*
X7505483Y-10004057D01*
X7505483Y-10004057D02*
X7391197Y-10118343D01*
X7391197Y-10118343D02*
X7515007Y-10118343D01*
X7686435Y-9918343D02*
X7648340Y-9918343D01*
X7648340Y-9918343D02*
X7629293Y-9927867D01*
X7629293Y-9927867D02*
X7619769Y-9937391D01*
X7619769Y-9937391D02*
X7600721Y-9965962D01*
X7600721Y-9965962D02*
X7591197Y-10004057D01*
X7591197Y-10004057D02*
X7591197Y-10080248D01*
X7591197Y-10080248D02*
X7600721Y-10099295D01*
X7600721Y-10099295D02*
X7610245Y-10108819D01*
X7610245Y-10108819D02*
X7629293Y-10118343D01*
X7629293Y-10118343D02*
X7667388Y-10118343D01*
X7667388Y-10118343D02*
X7686435Y-10108819D01*
X7686435Y-10108819D02*
X7695959Y-10099295D01*
X7695959Y-10099295D02*
X7705483Y-10080248D01*
X7705483Y-10080248D02*
X7705483Y-10032629D01*
X7705483Y-10032629D02*
X7695959Y-10013581D01*
X7695959Y-10013581D02*
X7686435Y-10004057D01*
X7686435Y-10004057D02*
X7667388Y-9994533D01*
X7667388Y-9994533D02*
X7629293Y-9994533D01*
X7629293Y-9994533D02*
X7610245Y-10004057D01*
X7610245Y-10004057D02*
X7600721Y-10013581D01*
X7600721Y-10013581D02*
X7591197Y-10032629D01*
X7829293Y-9918343D02*
X7848340Y-9918343D01*
X7848340Y-9918343D02*
X7867388Y-9927867D01*
X7867388Y-9927867D02*
X7876912Y-9937391D01*
X7876912Y-9937391D02*
X7886435Y-9956438D01*
X7886435Y-9956438D02*
X7895959Y-9994533D01*
X7895959Y-9994533D02*
X7895959Y-10042152D01*
X7895959Y-10042152D02*
X7886435Y-10080248D01*
X7886435Y-10080248D02*
X7876912Y-10099295D01*
X7876912Y-10099295D02*
X7867388Y-10108819D01*
X7867388Y-10108819D02*
X7848340Y-10118343D01*
X7848340Y-10118343D02*
X7829293Y-10118343D01*
X7829293Y-10118343D02*
X7810245Y-10108819D01*
X7810245Y-10108819D02*
X7800721Y-10099295D01*
X7800721Y-10099295D02*
X7791197Y-10080248D01*
X7791197Y-10080248D02*
X7781674Y-10042152D01*
X7781674Y-10042152D02*
X7781674Y-9994533D01*
X7781674Y-9994533D02*
X7791197Y-9956438D01*
X7791197Y-9956438D02*
X7800721Y-9937391D01*
X7800721Y-9937391D02*
X7810245Y-9927867D01*
X7810245Y-9927867D02*
X7829293Y-9918343D01*
X7972150Y-9918343D02*
X7972150Y-9956438D01*
X8048340Y-9918343D02*
X8048340Y-9956438D01*
X8343578Y-10194533D02*
X8334055Y-10185010D01*
X8334055Y-10185010D02*
X8315007Y-10156438D01*
X8315007Y-10156438D02*
X8305483Y-10137391D01*
X8305483Y-10137391D02*
X8295959Y-10108819D01*
X8295959Y-10108819D02*
X8286436Y-10061200D01*
X8286436Y-10061200D02*
X8286436Y-10023105D01*
X8286436Y-10023105D02*
X8295959Y-9975486D01*
X8295959Y-9975486D02*
X8305483Y-9946914D01*
X8305483Y-9946914D02*
X8315007Y-9927867D01*
X8315007Y-9927867D02*
X8334055Y-9899295D01*
X8334055Y-9899295D02*
X8343578Y-9889771D01*
X8400721Y-9918343D02*
X8524531Y-9918343D01*
X8524531Y-9918343D02*
X8457864Y-9994533D01*
X8457864Y-9994533D02*
X8486436Y-9994533D01*
X8486436Y-9994533D02*
X8505483Y-10004057D01*
X8505483Y-10004057D02*
X8515007Y-10013581D01*
X8515007Y-10013581D02*
X8524531Y-10032629D01*
X8524531Y-10032629D02*
X8524531Y-10080248D01*
X8524531Y-10080248D02*
X8515007Y-10099295D01*
X8515007Y-10099295D02*
X8505483Y-10108819D01*
X8505483Y-10108819D02*
X8486436Y-10118343D01*
X8486436Y-10118343D02*
X8429293Y-10118343D01*
X8429293Y-10118343D02*
X8410245Y-10108819D01*
X8410245Y-10108819D02*
X8400721Y-10099295D01*
X8762626Y-10118343D02*
X8762626Y-9918343D01*
X8848340Y-10118343D02*
X8848340Y-10013581D01*
X8848340Y-10013581D02*
X8838817Y-9994533D01*
X8838817Y-9994533D02*
X8819769Y-9985010D01*
X8819769Y-9985010D02*
X8791198Y-9985010D01*
X8791198Y-9985010D02*
X8772150Y-9994533D01*
X8772150Y-9994533D02*
X8762626Y-10004057D01*
X8972150Y-10118343D02*
X8953102Y-10108819D01*
X8953102Y-10108819D02*
X8943579Y-10099295D01*
X8943579Y-10099295D02*
X8934055Y-10080248D01*
X8934055Y-10080248D02*
X8934055Y-10023105D01*
X8934055Y-10023105D02*
X8943579Y-10004057D01*
X8943579Y-10004057D02*
X8953102Y-9994533D01*
X8953102Y-9994533D02*
X8972150Y-9985010D01*
X8972150Y-9985010D02*
X9000721Y-9985010D01*
X9000721Y-9985010D02*
X9019769Y-9994533D01*
X9019769Y-9994533D02*
X9029293Y-10004057D01*
X9029293Y-10004057D02*
X9038817Y-10023105D01*
X9038817Y-10023105D02*
X9038817Y-10080248D01*
X9038817Y-10080248D02*
X9029293Y-10099295D01*
X9029293Y-10099295D02*
X9019769Y-10108819D01*
X9019769Y-10108819D02*
X9000721Y-10118343D01*
X9000721Y-10118343D02*
X8972150Y-10118343D01*
X9153102Y-10118343D02*
X9134055Y-10108819D01*
X9134055Y-10108819D02*
X9124531Y-10089771D01*
X9124531Y-10089771D02*
X9124531Y-9918343D01*
X9305483Y-10108819D02*
X9286436Y-10118343D01*
X9286436Y-10118343D02*
X9248340Y-10118343D01*
X9248340Y-10118343D02*
X9229293Y-10108819D01*
X9229293Y-10108819D02*
X9219769Y-10089771D01*
X9219769Y-10089771D02*
X9219769Y-10013581D01*
X9219769Y-10013581D02*
X9229293Y-9994533D01*
X9229293Y-9994533D02*
X9248340Y-9985010D01*
X9248340Y-9985010D02*
X9286436Y-9985010D01*
X9286436Y-9985010D02*
X9305483Y-9994533D01*
X9305483Y-9994533D02*
X9315007Y-10013581D01*
X9315007Y-10013581D02*
X9315007Y-10032629D01*
X9315007Y-10032629D02*
X9219769Y-10051676D01*
X9391198Y-10108819D02*
X9410245Y-10118343D01*
X9410245Y-10118343D02*
X9448340Y-10118343D01*
X9448340Y-10118343D02*
X9467388Y-10108819D01*
X9467388Y-10108819D02*
X9476912Y-10089771D01*
X9476912Y-10089771D02*
X9476912Y-10080248D01*
X9476912Y-10080248D02*
X9467388Y-10061200D01*
X9467388Y-10061200D02*
X9448340Y-10051676D01*
X9448340Y-10051676D02*
X9419769Y-10051676D01*
X9419769Y-10051676D02*
X9400721Y-10042152D01*
X9400721Y-10042152D02*
X9391198Y-10023105D01*
X9391198Y-10023105D02*
X9391198Y-10013581D01*
X9391198Y-10013581D02*
X9400721Y-9994533D01*
X9400721Y-9994533D02*
X9419769Y-9985010D01*
X9419769Y-9985010D02*
X9448340Y-9985010D01*
X9448340Y-9985010D02*
X9467388Y-9994533D01*
X9543579Y-10194533D02*
X9553102Y-10185010D01*
X9553102Y-10185010D02*
X9572150Y-10156438D01*
X9572150Y-10156438D02*
X9581674Y-10137391D01*
X9581674Y-10137391D02*
X9591198Y-10108819D01*
X9591198Y-10108819D02*
X9600721Y-10061200D01*
X9600721Y-10061200D02*
X9600721Y-10023105D01*
X9600721Y-10023105D02*
X9591198Y-9975486D01*
X9591198Y-9975486D02*
X9581674Y-9946914D01*
X9581674Y-9946914D02*
X9572150Y-9927867D01*
X9572150Y-9927867D02*
X9553102Y-9899295D01*
X9553102Y-9899295D02*
X9543579Y-9889771D01*
X9905483Y-10194533D02*
X9895960Y-10185010D01*
X9895960Y-10185010D02*
X9876912Y-10156438D01*
X9876912Y-10156438D02*
X9867388Y-10137391D01*
X9867388Y-10137391D02*
X9857864Y-10108819D01*
X9857864Y-10108819D02*
X9848341Y-10061200D01*
X9848341Y-10061200D02*
X9848341Y-10023105D01*
X9848341Y-10023105D02*
X9857864Y-9975486D01*
X9857864Y-9975486D02*
X9867388Y-9946914D01*
X9867388Y-9946914D02*
X9876912Y-9927867D01*
X9876912Y-9927867D02*
X9895960Y-9899295D01*
X9895960Y-9899295D02*
X9905483Y-9889771D01*
X9981674Y-9985010D02*
X9981674Y-10118343D01*
X9981674Y-10004057D02*
X9991198Y-9994533D01*
X9991198Y-9994533D02*
X10010245Y-9985010D01*
X10010245Y-9985010D02*
X10038817Y-9985010D01*
X10038817Y-9985010D02*
X10057864Y-9994533D01*
X10057864Y-9994533D02*
X10067388Y-10013581D01*
X10067388Y-10013581D02*
X10067388Y-10118343D01*
X10191198Y-10118343D02*
X10172150Y-10108819D01*
X10172150Y-10108819D02*
X10162626Y-10099295D01*
X10162626Y-10099295D02*
X10153102Y-10080248D01*
X10153102Y-10080248D02*
X10153102Y-10023105D01*
X10153102Y-10023105D02*
X10162626Y-10004057D01*
X10162626Y-10004057D02*
X10172150Y-9994533D01*
X10172150Y-9994533D02*
X10191198Y-9985010D01*
X10191198Y-9985010D02*
X10219769Y-9985010D01*
X10219769Y-9985010D02*
X10238817Y-9994533D01*
X10238817Y-9994533D02*
X10248341Y-10004057D01*
X10248341Y-10004057D02*
X10257864Y-10023105D01*
X10257864Y-10023105D02*
X10257864Y-10080248D01*
X10257864Y-10080248D02*
X10248341Y-10099295D01*
X10248341Y-10099295D02*
X10238817Y-10108819D01*
X10238817Y-10108819D02*
X10219769Y-10118343D01*
X10219769Y-10118343D02*
X10191198Y-10118343D01*
X10315007Y-9985010D02*
X10391198Y-9985010D01*
X10343579Y-9918343D02*
X10343579Y-10089771D01*
X10343579Y-10089771D02*
X10353102Y-10108819D01*
X10353102Y-10108819D02*
X10372150Y-10118343D01*
X10372150Y-10118343D02*
X10391198Y-10118343D01*
X10610245Y-9985010D02*
X10610245Y-10185010D01*
X10610245Y-9994533D02*
X10629293Y-9985010D01*
X10629293Y-9985010D02*
X10667388Y-9985010D01*
X10667388Y-9985010D02*
X10686436Y-9994533D01*
X10686436Y-9994533D02*
X10695960Y-10004057D01*
X10695960Y-10004057D02*
X10705483Y-10023105D01*
X10705483Y-10023105D02*
X10705483Y-10080248D01*
X10705483Y-10080248D02*
X10695960Y-10099295D01*
X10695960Y-10099295D02*
X10686436Y-10108819D01*
X10686436Y-10108819D02*
X10667388Y-10118343D01*
X10667388Y-10118343D02*
X10629293Y-10118343D01*
X10629293Y-10118343D02*
X10610245Y-10108819D01*
X10819769Y-10118343D02*
X10800722Y-10108819D01*
X10800722Y-10108819D02*
X10791198Y-10089771D01*
X10791198Y-10089771D02*
X10791198Y-9918343D01*
X10981674Y-10118343D02*
X10981674Y-10013581D01*
X10981674Y-10013581D02*
X10972150Y-9994533D01*
X10972150Y-9994533D02*
X10953103Y-9985010D01*
X10953103Y-9985010D02*
X10915007Y-9985010D01*
X10915007Y-9985010D02*
X10895960Y-9994533D01*
X10981674Y-10108819D02*
X10962626Y-10118343D01*
X10962626Y-10118343D02*
X10915007Y-10118343D01*
X10915007Y-10118343D02*
X10895960Y-10108819D01*
X10895960Y-10108819D02*
X10886436Y-10089771D01*
X10886436Y-10089771D02*
X10886436Y-10070724D01*
X10886436Y-10070724D02*
X10895960Y-10051676D01*
X10895960Y-10051676D02*
X10915007Y-10042152D01*
X10915007Y-10042152D02*
X10962626Y-10042152D01*
X10962626Y-10042152D02*
X10981674Y-10032629D01*
X11048341Y-9985010D02*
X11124531Y-9985010D01*
X11076912Y-9918343D02*
X11076912Y-10089771D01*
X11076912Y-10089771D02*
X11086436Y-10108819D01*
X11086436Y-10108819D02*
X11105483Y-10118343D01*
X11105483Y-10118343D02*
X11124531Y-10118343D01*
X11267388Y-10108819D02*
X11248341Y-10118343D01*
X11248341Y-10118343D02*
X11210245Y-10118343D01*
X11210245Y-10118343D02*
X11191198Y-10108819D01*
X11191198Y-10108819D02*
X11181674Y-10089771D01*
X11181674Y-10089771D02*
X11181674Y-10013581D01*
X11181674Y-10013581D02*
X11191198Y-9994533D01*
X11191198Y-9994533D02*
X11210245Y-9985010D01*
X11210245Y-9985010D02*
X11248341Y-9985010D01*
X11248341Y-9985010D02*
X11267388Y-9994533D01*
X11267388Y-9994533D02*
X11276912Y-10013581D01*
X11276912Y-10013581D02*
X11276912Y-10032629D01*
X11276912Y-10032629D02*
X11181674Y-10051676D01*
X11448341Y-10118343D02*
X11448341Y-9918343D01*
X11448341Y-10108819D02*
X11429293Y-10118343D01*
X11429293Y-10118343D02*
X11391198Y-10118343D01*
X11391198Y-10118343D02*
X11372150Y-10108819D01*
X11372150Y-10108819D02*
X11362626Y-10099295D01*
X11362626Y-10099295D02*
X11353102Y-10080248D01*
X11353102Y-10080248D02*
X11353102Y-10023105D01*
X11353102Y-10023105D02*
X11362626Y-10004057D01*
X11362626Y-10004057D02*
X11372150Y-9994533D01*
X11372150Y-9994533D02*
X11391198Y-9985010D01*
X11391198Y-9985010D02*
X11429293Y-9985010D01*
X11429293Y-9985010D02*
X11448341Y-9994533D01*
X11524531Y-10194533D02*
X11534055Y-10185010D01*
X11534055Y-10185010D02*
X11553102Y-10156438D01*
X11553102Y-10156438D02*
X11562626Y-10137391D01*
X11562626Y-10137391D02*
X11572150Y-10108819D01*
X11572150Y-10108819D02*
X11581674Y-10061200D01*
X11581674Y-10061200D02*
X11581674Y-10023105D01*
X11581674Y-10023105D02*
X11572150Y-9975486D01*
X11572150Y-9975486D02*
X11562626Y-9946914D01*
X11562626Y-9946914D02*
X11553102Y-9927867D01*
X11553102Y-9927867D02*
X11534055Y-9899295D01*
X11534055Y-9899295D02*
X11524531Y-9889771D01*
M02*
