<?xml version="1.0" standalone="no"?>
 <!DOCTYPE svg PUBLIC "-//W3C//DTD SVG 1.1//EN" 
 "http://www.w3.org/Graphics/SVG/1.1/DTD/svg11.dtd"> 
<svg
  xmlns:svg="http://www.w3.org/2000/svg"
  xmlns="http://www.w3.org/2000/svg"
  xmlns:xlink="http://www.w3.org/1999/xlink"
  version="1.1"
  width="297.002200mm" height="210.007200mm" viewBox="0.000000 0.000000 297.002200 210.007200">
<title>SVG Image created as Hall-B_Silkscreen.svg date 2024/12/26 12:12:07 </title>
  <desc>Image generated by PCBNEW </desc>
<g style="fill:#000000; fill-opacity:1.000000;stroke:#000000; stroke-opacity:1.000000;
stroke-linecap:round; stroke-linejoin:round;"
 transform="translate(0 0) scale(1 1)">
</g>
<g style="fill:none; 
stroke:#000000; stroke-width:0.150000; stroke-opacity:1; 
stroke-linecap:round; stroke-linejoin:round;">
<path d="M209.981800 37.998400
L210.134200 38.862000
" />
<path d="M210.794600 38.252400
L209.981800 37.998400
" />
<path d="M211.404200 39.674800
L209.981800 37.998400
" />
<text x="225.272600" y="46.646224"
textLength="7.954762" font-size="2.666666" lengthAdjust="spacingAndGlyphs"
text-anchor="start" opacity="0" stroke-opacity="0">White</text>
<g class="stroked-text"><desc>White</desc>
<path d="M225.656999 44.393662
L226.133189 46.393662
" />
<path d="M226.133189 46.393662
L226.514142 44.965090
" />
<path d="M226.514142 44.965090
L226.895094 46.393662
" />
<path d="M226.895094 46.393662
L227.371284 44.393662
" />
<path d="M228.133189 46.393662
L228.133189 44.393662
" />
<path d="M228.990332 46.393662
L228.990332 45.346043
" />
<path d="M228.990332 45.346043
L228.895094 45.155566
" />
<path d="M228.895094 45.155566
L228.704618 45.060328
" />
<path d="M228.704618 45.060328
L228.418903 45.060328
" />
<path d="M228.418903 45.060328
L228.228427 45.155566
" />
<path d="M228.228427 45.155566
L228.133189 45.250804
" />
<path d="M229.942713 46.393662
L229.942713 45.060328
" />
<path d="M229.942713 44.393662
L229.847475 44.488900
" />
<path d="M229.847475 44.488900
L229.942713 44.584138
" />
<path d="M229.942713 44.584138
L230.037951 44.488900
" />
<path d="M230.037951 44.488900
L229.942713 44.393662
" />
<path d="M229.942713 44.393662
L229.942713 44.584138
" />
<path d="M230.609380 45.060328
L231.371284 45.060328
" />
<path d="M230.895094 44.393662
L230.895094 46.107947
" />
<path d="M230.895094 46.107947
L230.990332 46.298424
" />
<path d="M230.990332 46.298424
L231.180808 46.393662
" />
<path d="M231.180808 46.393662
L231.371284 46.393662
" />
<path d="M232.799856 46.298424
L232.609380 46.393662
" />
<path d="M232.609380 46.393662
L232.228427 46.393662
" />
<path d="M232.228427 46.393662
L232.037951 46.298424
" />
<path d="M232.037951 46.298424
L231.942713 46.107947
" />
<path d="M231.942713 46.107947
L231.942713 45.346043
" />
<path d="M231.942713 45.346043
L232.037951 45.155566
" />
<path d="M232.037951 45.155566
L232.228427 45.060328
" />
<path d="M232.228427 45.060328
L232.609380 45.060328
" />
<path d="M232.609380 45.060328
L232.799856 45.155566
" />
<path d="M232.799856 45.155566
L232.895094 45.346043
" />
<path d="M232.895094 45.346043
L232.895094 45.536519
" />
<path d="M232.895094 45.536519
L231.942713 45.726995
" />
</g><text x="225.272600" y="49.866112"
textLength="9.002381" font-size="2.666666" lengthAdjust="spacingAndGlyphs"
text-anchor="start" opacity="0" stroke-opacity="0">Brown</text>
<g class="stroked-text"><desc>Brown</desc>
<path d="M226.514142 48.565931
L226.799856 48.661169
" />
<path d="M226.799856 48.661169
L226.895094 48.756407
" />
<path d="M226.895094 48.756407
L226.990332 48.946883
" />
<path d="M226.990332 48.946883
L226.990332 49.232597
" />
<path d="M226.990332 49.232597
L226.895094 49.423073
" />
<path d="M226.895094 49.423073
L226.799856 49.518312
" />
<path d="M226.799856 49.518312
L226.609380 49.613550
" />
<path d="M226.609380 49.613550
L225.847475 49.613550
" />
<path d="M225.847475 49.613550
L225.847475 47.613550
" />
<path d="M225.847475 47.613550
L226.514142 47.613550
" />
<path d="M226.514142 47.613550
L226.704618 47.708788
" />
<path d="M226.704618 47.708788
L226.799856 47.804026
" />
<path d="M226.799856 47.804026
L226.895094 47.994502
" />
<path d="M226.895094 47.994502
L226.895094 48.184978
" />
<path d="M226.895094 48.184978
L226.799856 48.375454
" />
<path d="M226.799856 48.375454
L226.704618 48.470692
" />
<path d="M226.704618 48.470692
L226.514142 48.565931
" />
<path d="M226.514142 48.565931
L225.847475 48.565931
" />
<path d="M227.847475 49.613550
L227.847475 48.280216
" />
<path d="M227.847475 48.661169
L227.942713 48.470692
" />
<path d="M227.942713 48.470692
L228.037951 48.375454
" />
<path d="M228.037951 48.375454
L228.228427 48.280216
" />
<path d="M228.228427 48.280216
L228.418904 48.280216
" />
<path d="M229.371284 49.613550
L229.180808 49.518312
" />
<path d="M229.180808 49.518312
L229.085570 49.423073
" />
<path d="M229.085570 49.423073
L228.990332 49.232597
" />
<path d="M228.990332 49.232597
L228.990332 48.661169
" />
<path d="M228.990332 48.661169
L229.085570 48.470692
" />
<path d="M229.085570 48.470692
L229.180808 48.375454
" />
<path d="M229.180808 48.375454
L229.371284 48.280216
" />
<path d="M229.371284 48.280216
L229.656999 48.280216
" />
<path d="M229.656999 48.280216
L229.847475 48.375454
" />
<path d="M229.847475 48.375454
L229.942713 48.470692
" />
<path d="M229.942713 48.470692
L230.037951 48.661169
" />
<path d="M230.037951 48.661169
L230.037951 49.232597
" />
<path d="M230.037951 49.232597
L229.942713 49.423073
" />
<path d="M229.942713 49.423073
L229.847475 49.518312
" />
<path d="M229.847475 49.518312
L229.656999 49.613550
" />
<path d="M229.656999 49.613550
L229.371284 49.613550
" />
<path d="M230.704618 48.280216
L231.085570 49.613550
" />
<path d="M231.085570 49.613550
L231.466523 48.661169
" />
<path d="M231.466523 48.661169
L231.847475 49.613550
" />
<path d="M231.847475 49.613550
L232.228427 48.280216
" />
<path d="M232.990332 48.280216
L232.990332 49.613550
" />
<path d="M232.990332 48.470692
L233.085570 48.375454
" />
<path d="M233.085570 48.375454
L233.276046 48.280216
" />
<path d="M233.276046 48.280216
L233.561761 48.280216
" />
<path d="M233.561761 48.280216
L233.752237 48.375454
" />
<path d="M233.752237 48.375454
L233.847475 48.565931
" />
<path d="M233.847475 48.565931
L233.847475 49.613550
" />
</g><text x="225.272600" y="53.086000"
textLength="8.526191" font-size="2.666666" lengthAdjust="spacingAndGlyphs"
text-anchor="start" opacity="0" stroke-opacity="0">Green</text>
<g class="stroked-text"><desc>Green</desc>
<path d="M226.895094 50.928676
L226.704618 50.833438
" />
<path d="M226.704618 50.833438
L226.418904 50.833438
" />
<path d="M226.418904 50.833438
L226.133189 50.928676
" />
<path d="M226.133189 50.928676
L225.942713 51.119152
" />
<path d="M225.942713 51.119152
L225.847475 51.309628
" />
<path d="M225.847475 51.309628
L225.752237 51.690580
" />
<path d="M225.752237 51.690580
L225.752237 51.976295
" />
<path d="M225.752237 51.976295
L225.847475 52.357247
" />
<path d="M225.847475 52.357247
L225.942713 52.547723
" />
<path d="M225.942713 52.547723
L226.133189 52.738200
" />
<path d="M226.133189 52.738200
L226.418904 52.833438
" />
<path d="M226.418904 52.833438
L226.609380 52.833438
" />
<path d="M226.609380 52.833438
L226.895094 52.738200
" />
<path d="M226.895094 52.738200
L226.990332 52.642961
" />
<path d="M226.990332 52.642961
L226.990332 51.976295
" />
<path d="M226.990332 51.976295
L226.609380 51.976295
" />
<path d="M227.847475 52.833438
L227.847475 51.500104
" />
<path d="M227.847475 51.881057
L227.942713 51.690580
" />
<path d="M227.942713 51.690580
L228.037951 51.595342
" />
<path d="M228.037951 51.595342
L228.228427 51.500104
" />
<path d="M228.228427 51.500104
L228.418904 51.500104
" />
<path d="M229.847475 52.738200
L229.656999 52.833438
" />
<path d="M229.656999 52.833438
L229.276046 52.833438
" />
<path d="M229.276046 52.833438
L229.085570 52.738200
" />
<path d="M229.085570 52.738200
L228.990332 52.547723
" />
<path d="M228.990332 52.547723
L228.990332 51.785819
" />
<path d="M228.990332 51.785819
L229.085570 51.595342
" />
<path d="M229.085570 51.595342
L229.276046 51.500104
" />
<path d="M229.276046 51.500104
L229.656999 51.500104
" />
<path d="M229.656999 51.500104
L229.847475 51.595342
" />
<path d="M229.847475 51.595342
L229.942713 51.785819
" />
<path d="M229.942713 51.785819
L229.942713 51.976295
" />
<path d="M229.942713 51.976295
L228.990332 52.166771
" />
<path d="M231.561761 52.738200
L231.371285 52.833438
" />
<path d="M231.371285 52.833438
L230.990332 52.833438
" />
<path d="M230.990332 52.833438
L230.799856 52.738200
" />
<path d="M230.799856 52.738200
L230.704618 52.547723
" />
<path d="M230.704618 52.547723
L230.704618 51.785819
" />
<path d="M230.704618 51.785819
L230.799856 51.595342
" />
<path d="M230.799856 51.595342
L230.990332 51.500104
" />
<path d="M230.990332 51.500104
L231.371285 51.500104
" />
<path d="M231.371285 51.500104
L231.561761 51.595342
" />
<path d="M231.561761 51.595342
L231.656999 51.785819
" />
<path d="M231.656999 51.785819
L231.656999 51.976295
" />
<path d="M231.656999 51.976295
L230.704618 52.166771
" />
<path d="M232.514142 51.500104
L232.514142 52.833438
" />
<path d="M232.514142 51.690580
L232.609380 51.595342
" />
<path d="M232.609380 51.595342
L232.799856 51.500104
" />
<path d="M232.799856 51.500104
L233.085571 51.500104
" />
<path d="M233.085571 51.500104
L233.276047 51.595342
" />
<path d="M233.276047 51.595342
L233.371285 51.785819
" />
<path d="M233.371285 51.785819
L233.371285 52.833438
" />
</g><text x="211.048600" y="41.058225"
textLength="3.299524" font-size="1.066666" lengthAdjust="spacingAndGlyphs"
text-anchor="start" opacity="0" stroke-opacity="0">NRST</text>
<g class="stroked-text"><desc>NRST</desc>
<path d="M211.337761 40.952520
L211.337761 40.152520
" />
<path d="M211.337761 40.152520
L211.794904 40.952520
" />
<path d="M211.794904 40.952520
L211.794904 40.152520
" />
<path d="M212.632999 40.952520
L212.366332 40.571567
" />
<path d="M212.175856 40.952520
L212.175856 40.152520
" />
<path d="M212.175856 40.152520
L212.480618 40.152520
" />
<path d="M212.480618 40.152520
L212.556808 40.190615
" />
<path d="M212.556808 40.190615
L212.594903 40.228710
" />
<path d="M212.594903 40.228710
L212.632999 40.304901
" />
<path d="M212.632999 40.304901
L212.632999 40.419186
" />
<path d="M212.632999 40.419186
L212.594903 40.495377
" />
<path d="M212.594903 40.495377
L212.556808 40.533472
" />
<path d="M212.556808 40.533472
L212.480618 40.571567
" />
<path d="M212.480618 40.571567
L212.175856 40.571567
" />
<path d="M212.937760 40.914425
L213.052046 40.952520
" />
<path d="M213.052046 40.952520
L213.242522 40.952520
" />
<path d="M213.242522 40.952520
L213.318713 40.914425
" />
<path d="M213.318713 40.914425
L213.356808 40.876329
" />
<path d="M213.356808 40.876329
L213.394903 40.800139
" />
<path d="M213.394903 40.800139
L213.394903 40.723948
" />
<path d="M213.394903 40.723948
L213.356808 40.647758
" />
<path d="M213.356808 40.647758
L213.318713 40.609663
" />
<path d="M213.318713 40.609663
L213.242522 40.571567
" />
<path d="M213.242522 40.571567
L213.090141 40.533472
" />
<path d="M213.090141 40.533472
L213.013951 40.495377
" />
<path d="M213.013951 40.495377
L212.975856 40.457282
" />
<path d="M212.975856 40.457282
L212.937760 40.381091
" />
<path d="M212.937760 40.381091
L212.937760 40.304901
" />
<path d="M212.937760 40.304901
L212.975856 40.228710
" />
<path d="M212.975856 40.228710
L213.013951 40.190615
" />
<path d="M213.013951 40.190615
L213.090141 40.152520
" />
<path d="M213.090141 40.152520
L213.280618 40.152520
" />
<path d="M213.280618 40.152520
L213.394903 40.190615
" />
<path d="M213.623475 40.152520
L214.080618 40.152520
" />
<path d="M213.852046 40.952520
L213.852046 40.152520
" />
</g><text x="211.048600" y="42.346180"
textLength="4.137619" font-size="1.066666" lengthAdjust="spacingAndGlyphs"
text-anchor="start" opacity="0" stroke-opacity="0">BOOT0</text>
<g class="stroked-text"><desc>BOOT0</desc>
<path d="M211.604427 41.821427
L211.718713 41.859522
" />
<path d="M211.718713 41.859522
L211.756808 41.897618
" />
<path d="M211.756808 41.897618
L211.794904 41.973808
" />
<path d="M211.794904 41.973808
L211.794904 42.088094
" />
<path d="M211.794904 42.088094
L211.756808 42.164284
" />
<path d="M211.756808 42.164284
L211.718713 42.202380
" />
<path d="M211.718713 42.202380
L211.642523 42.240475
" />
<path d="M211.642523 42.240475
L211.337761 42.240475
" />
<path d="M211.337761 42.240475
L211.337761 41.440475
" />
<path d="M211.337761 41.440475
L211.604427 41.440475
" />
<path d="M211.604427 41.440475
L211.680618 41.478570
" />
<path d="M211.680618 41.478570
L211.718713 41.516665
" />
<path d="M211.718713 41.516665
L211.756808 41.592856
" />
<path d="M211.756808 41.592856
L211.756808 41.669046
" />
<path d="M211.756808 41.669046
L211.718713 41.745237
" />
<path d="M211.718713 41.745237
L211.680618 41.783332
" />
<path d="M211.680618 41.783332
L211.604427 41.821427
" />
<path d="M211.604427 41.821427
L211.337761 41.821427
" />
<path d="M212.290142 41.440475
L212.442523 41.440475
" />
<path d="M212.442523 41.440475
L212.518713 41.478570
" />
<path d="M212.518713 41.478570
L212.594904 41.554760
" />
<path d="M212.594904 41.554760
L212.632999 41.707141
" />
<path d="M212.632999 41.707141
L212.632999 41.973808
" />
<path d="M212.632999 41.973808
L212.594904 42.126189
" />
<path d="M212.594904 42.126189
L212.518713 42.202380
" />
<path d="M212.518713 42.202380
L212.442523 42.240475
" />
<path d="M212.442523 42.240475
L212.290142 42.240475
" />
<path d="M212.290142 42.240475
L212.213951 42.202380
" />
<path d="M212.213951 42.202380
L212.137761 42.126189
" />
<path d="M212.137761 42.126189
L212.099665 41.973808
" />
<path d="M212.099665 41.973808
L212.099665 41.707141
" />
<path d="M212.099665 41.707141
L212.137761 41.554760
" />
<path d="M212.137761 41.554760
L212.213951 41.478570
" />
<path d="M212.213951 41.478570
L212.290142 41.440475
" />
<path d="M213.128237 41.440475
L213.280618 41.440475
" />
<path d="M213.280618 41.440475
L213.356808 41.478570
" />
<path d="M213.356808 41.478570
L213.432999 41.554760
" />
<path d="M213.432999 41.554760
L213.471094 41.707141
" />
<path d="M213.471094 41.707141
L213.471094 41.973808
" />
<path d="M213.471094 41.973808
L213.432999 42.126189
" />
<path d="M213.432999 42.126189
L213.356808 42.202380
" />
<path d="M213.356808 42.202380
L213.280618 42.240475
" />
<path d="M213.280618 42.240475
L213.128237 42.240475
" />
<path d="M213.128237 42.240475
L213.052046 42.202380
" />
<path d="M213.052046 42.202380
L212.975856 42.126189
" />
<path d="M212.975856 42.126189
L212.937760 41.973808
" />
<path d="M212.937760 41.973808
L212.937760 41.707141
" />
<path d="M212.937760 41.707141
L212.975856 41.554760
" />
<path d="M212.975856 41.554760
L213.052046 41.478570
" />
<path d="M213.052046 41.478570
L213.128237 41.440475
" />
<path d="M213.699665 41.440475
L214.156808 41.440475
" />
<path d="M213.928236 42.240475
L213.928236 41.440475
" />
<path d="M214.575856 41.440475
L214.652046 41.440475
" />
<path d="M214.652046 41.440475
L214.728237 41.478570
" />
<path d="M214.728237 41.478570
L214.766332 41.516665
" />
<path d="M214.766332 41.516665
L214.804427 41.592856
" />
<path d="M214.804427 41.592856
L214.842522 41.745237
" />
<path d="M214.842522 41.745237
L214.842522 41.935713
" />
<path d="M214.842522 41.935713
L214.804427 42.088094
" />
<path d="M214.804427 42.088094
L214.766332 42.164284
" />
<path d="M214.766332 42.164284
L214.728237 42.202380
" />
<path d="M214.728237 42.202380
L214.652046 42.240475
" />
<path d="M214.652046 42.240475
L214.575856 42.240475
" />
<path d="M214.575856 42.240475
L214.499665 42.202380
" />
<path d="M214.499665 42.202380
L214.461570 42.164284
" />
<path d="M214.461570 42.164284
L214.423475 42.088094
" />
<path d="M214.423475 42.088094
L214.385379 41.935713
" />
<path d="M214.385379 41.935713
L214.385379 41.745237
" />
<path d="M214.385379 41.745237
L214.423475 41.592856
" />
<path d="M214.423475 41.592856
L214.461570 41.516665
" />
<path d="M214.461570 41.516665
L214.499665 41.478570
" />
<path d="M214.499665 41.478570
L214.575856 41.440475
" />
</g><text x="211.048600" y="43.634135"
textLength="3.490000" font-size="1.066666" lengthAdjust="spacingAndGlyphs"
text-anchor="start" opacity="0" stroke-opacity="0">+3V3</text>
<g class="stroked-text"><desc>+3V3</desc>
<path d="M211.337761 43.223668
L211.947284 43.223668
" />
<path d="M211.642523 43.528430
L211.642523 42.918906
" />
<path d="M212.252046 42.728430
L212.747284 42.728430
" />
<path d="M212.747284 42.728430
L212.480618 43.033192
" />
<path d="M212.480618 43.033192
L212.594903 43.033192
" />
<path d="M212.594903 43.033192
L212.671094 43.071287
" />
<path d="M212.671094 43.071287
L212.709189 43.109382
" />
<path d="M212.709189 43.109382
L212.747284 43.185573
" />
<path d="M212.747284 43.185573
L212.747284 43.376049
" />
<path d="M212.747284 43.376049
L212.709189 43.452239
" />
<path d="M212.709189 43.452239
L212.671094 43.490335
" />
<path d="M212.671094 43.490335
L212.594903 43.528430
" />
<path d="M212.594903 43.528430
L212.366332 43.528430
" />
<path d="M212.366332 43.528430
L212.290141 43.490335
" />
<path d="M212.290141 43.490335
L212.252046 43.452239
" />
<path d="M212.975856 42.728430
L213.242523 43.528430
" />
<path d="M213.242523 43.528430
L213.509189 42.728430
" />
<path d="M213.699665 42.728430
L214.194903 42.728430
" />
<path d="M214.194903 42.728430
L213.928237 43.033192
" />
<path d="M213.928237 43.033192
L214.042522 43.033192
" />
<path d="M214.042522 43.033192
L214.118713 43.071287
" />
<path d="M214.118713 43.071287
L214.156808 43.109382
" />
<path d="M214.156808 43.109382
L214.194903 43.185573
" />
<path d="M214.194903 43.185573
L214.194903 43.376049
" />
<path d="M214.194903 43.376049
L214.156808 43.452239
" />
<path d="M214.156808 43.452239
L214.118713 43.490335
" />
<path d="M214.118713 43.490335
L214.042522 43.528430
" />
<path d="M214.042522 43.528430
L213.813951 43.528430
" />
<path d="M213.813951 43.528430
L213.737760 43.490335
" />
<path d="M213.737760 43.490335
L213.699665 43.452239
" />
</g><text x="211.048600" y="44.922090"
textLength="2.537620" font-size="1.066666" lengthAdjust="spacingAndGlyphs"
text-anchor="start" opacity="0" stroke-opacity="0">Gnd</text>
<g class="stroked-text"><desc>Gnd</desc>
<path d="M211.756808 44.054480
L211.680618 44.016385
" />
<path d="M211.680618 44.016385
L211.566332 44.016385
" />
<path d="M211.566332 44.016385
L211.452046 44.054480
" />
<path d="M211.452046 44.054480
L211.375856 44.130670
" />
<path d="M211.375856 44.130670
L211.337761 44.206861
" />
<path d="M211.337761 44.206861
L211.299665 44.359242
" />
<path d="M211.299665 44.359242
L211.299665 44.473528
" />
<path d="M211.299665 44.473528
L211.337761 44.625909
" />
<path d="M211.337761 44.625909
L211.375856 44.702099
" />
<path d="M211.375856 44.702099
L211.452046 44.778290
" />
<path d="M211.452046 44.778290
L211.566332 44.816385
" />
<path d="M211.566332 44.816385
L211.642523 44.816385
" />
<path d="M211.642523 44.816385
L211.756808 44.778290
" />
<path d="M211.756808 44.778290
L211.794904 44.740194
" />
<path d="M211.794904 44.740194
L211.794904 44.473528
" />
<path d="M211.794904 44.473528
L211.642523 44.473528
" />
<path d="M212.137761 44.283051
L212.137761 44.816385
" />
<path d="M212.137761 44.359242
L212.175856 44.321147
" />
<path d="M212.175856 44.321147
L212.252046 44.283051
" />
<path d="M212.252046 44.283051
L212.366332 44.283051
" />
<path d="M212.366332 44.283051
L212.442523 44.321147
" />
<path d="M212.442523 44.321147
L212.480618 44.397337
" />
<path d="M212.480618 44.397337
L212.480618 44.816385
" />
<path d="M213.204428 44.816385
L213.204428 44.016385
" />
<path d="M213.204428 44.778290
L213.128237 44.816385
" />
<path d="M213.128237 44.816385
L212.975856 44.816385
" />
<path d="M212.975856 44.816385
L212.899666 44.778290
" />
<path d="M212.899666 44.778290
L212.861571 44.740194
" />
<path d="M212.861571 44.740194
L212.823475 44.664004
" />
<path d="M212.823475 44.664004
L212.823475 44.435432
" />
<path d="M212.823475 44.435432
L212.861571 44.359242
" />
<path d="M212.861571 44.359242
L212.899666 44.321147
" />
<path d="M212.899666 44.321147
L212.975856 44.283051
" />
<path d="M212.975856 44.283051
L213.128237 44.283051
" />
<path d="M213.128237 44.283051
L213.204428 44.321147
" />
</g><text x="211.048600" y="46.210045"
textLength="3.985238" font-size="1.066666" lengthAdjust="spacingAndGlyphs"
text-anchor="start" opacity="0" stroke-opacity="0">SWDIO</text>
<g class="stroked-text"><desc>SWDIO</desc>
<path d="M211.299665 46.066245
L211.413951 46.104340
" />
<path d="M211.413951 46.104340
L211.604427 46.104340
" />
<path d="M211.604427 46.104340
L211.680618 46.066245
" />
<path d="M211.680618 46.066245
L211.718713 46.028149
" />
<path d="M211.718713 46.028149
L211.756808 45.951959
" />
<path d="M211.756808 45.951959
L211.756808 45.875768
" />
<path d="M211.756808 45.875768
L211.718713 45.799578
" />
<path d="M211.718713 45.799578
L211.680618 45.761483
" />
<path d="M211.680618 45.761483
L211.604427 45.723387
" />
<path d="M211.604427 45.723387
L211.452046 45.685292
" />
<path d="M211.452046 45.685292
L211.375856 45.647197
" />
<path d="M211.375856 45.647197
L211.337761 45.609102
" />
<path d="M211.337761 45.609102
L211.299665 45.532911
" />
<path d="M211.299665 45.532911
L211.299665 45.456721
" />
<path d="M211.299665 45.456721
L211.337761 45.380530
" />
<path d="M211.337761 45.380530
L211.375856 45.342435
" />
<path d="M211.375856 45.342435
L211.452046 45.304340
" />
<path d="M211.452046 45.304340
L211.642523 45.304340
" />
<path d="M211.642523 45.304340
L211.756808 45.342435
" />
<path d="M212.023475 45.304340
L212.213951 46.104340
" />
<path d="M212.213951 46.104340
L212.366332 45.532911
" />
<path d="M212.366332 45.532911
L212.518713 46.104340
" />
<path d="M212.518713 46.104340
L212.709189 45.304340
" />
<path d="M213.013952 46.104340
L213.013952 45.304340
" />
<path d="M213.013952 45.304340
L213.204428 45.304340
" />
<path d="M213.204428 45.304340
L213.318714 45.342435
" />
<path d="M213.318714 45.342435
L213.394904 45.418625
" />
<path d="M213.394904 45.418625
L213.432999 45.494816
" />
<path d="M213.432999 45.494816
L213.471095 45.647197
" />
<path d="M213.471095 45.647197
L213.471095 45.761483
" />
<path d="M213.471095 45.761483
L213.432999 45.913864
" />
<path d="M213.432999 45.913864
L213.394904 45.990054
" />
<path d="M213.394904 45.990054
L213.318714 46.066245
" />
<path d="M213.318714 46.066245
L213.204428 46.104340
" />
<path d="M213.204428 46.104340
L213.013952 46.104340
" />
<path d="M213.813952 46.104340
L213.813952 45.304340
" />
<path d="M214.347285 45.304340
L214.499666 45.304340
" />
<path d="M214.499666 45.304340
L214.575856 45.342435
" />
<path d="M214.575856 45.342435
L214.652047 45.418625
" />
<path d="M214.652047 45.418625
L214.690142 45.571006
" />
<path d="M214.690142 45.571006
L214.690142 45.837673
" />
<path d="M214.690142 45.837673
L214.652047 45.990054
" />
<path d="M214.652047 45.990054
L214.575856 46.066245
" />
<path d="M214.575856 46.066245
L214.499666 46.104340
" />
<path d="M214.499666 46.104340
L214.347285 46.104340
" />
<path d="M214.347285 46.104340
L214.271094 46.066245
" />
<path d="M214.271094 46.066245
L214.194904 45.990054
" />
<path d="M214.194904 45.990054
L214.156808 45.837673
" />
<path d="M214.156808 45.837673
L214.156808 45.571006
" />
<path d="M214.156808 45.571006
L214.194904 45.418625
" />
<path d="M214.194904 45.418625
L214.271094 45.342435
" />
<path d="M214.271094 45.342435
L214.347285 45.304340
" />
</g><text x="211.048600" y="47.498000"
textLength="4.213810" font-size="1.066666" lengthAdjust="spacingAndGlyphs"
text-anchor="start" opacity="0" stroke-opacity="0">SWCLK</text>
<g class="stroked-text"><desc>SWCLK</desc>
<path d="M211.299665 47.354200
L211.413951 47.392295
" />
<path d="M211.413951 47.392295
L211.604427 47.392295
" />
<path d="M211.604427 47.392295
L211.680618 47.354200
" />
<path d="M211.680618 47.354200
L211.718713 47.316104
" />
<path d="M211.718713 47.316104
L211.756808 47.239914
" />
<path d="M211.756808 47.239914
L211.756808 47.163723
" />
<path d="M211.756808 47.163723
L211.718713 47.087533
" />
<path d="M211.718713 47.087533
L211.680618 47.049438
" />
<path d="M211.680618 47.049438
L211.604427 47.011342
" />
<path d="M211.604427 47.011342
L211.452046 46.973247
" />
<path d="M211.452046 46.973247
L211.375856 46.935152
" />
<path d="M211.375856 46.935152
L211.337761 46.897057
" />
<path d="M211.337761 46.897057
L211.299665 46.820866
" />
<path d="M211.299665 46.820866
L211.299665 46.744676
" />
<path d="M211.299665 46.744676
L211.337761 46.668485
" />
<path d="M211.337761 46.668485
L211.375856 46.630390
" />
<path d="M211.375856 46.630390
L211.452046 46.592295
" />
<path d="M211.452046 46.592295
L211.642523 46.592295
" />
<path d="M211.642523 46.592295
L211.756808 46.630390
" />
<path d="M212.023475 46.592295
L212.213951 47.392295
" />
<path d="M212.213951 47.392295
L212.366332 46.820866
" />
<path d="M212.366332 46.820866
L212.518713 47.392295
" />
<path d="M212.518713 47.392295
L212.709189 46.592295
" />
<path d="M213.471095 47.316104
L213.432999 47.354200
" />
<path d="M213.432999 47.354200
L213.318714 47.392295
" />
<path d="M213.318714 47.392295
L213.242523 47.392295
" />
<path d="M213.242523 47.392295
L213.128237 47.354200
" />
<path d="M213.128237 47.354200
L213.052047 47.278009
" />
<path d="M213.052047 47.278009
L213.013952 47.201819
" />
<path d="M213.013952 47.201819
L212.975856 47.049438
" />
<path d="M212.975856 47.049438
L212.975856 46.935152
" />
<path d="M212.975856 46.935152
L213.013952 46.782771
" />
<path d="M213.013952 46.782771
L213.052047 46.706580
" />
<path d="M213.052047 46.706580
L213.128237 46.630390
" />
<path d="M213.128237 46.630390
L213.242523 46.592295
" />
<path d="M213.242523 46.592295
L213.318714 46.592295
" />
<path d="M213.318714 46.592295
L213.432999 46.630390
" />
<path d="M213.432999 46.630390
L213.471095 46.668485
" />
<path d="M214.194904 47.392295
L213.813952 47.392295
" />
<path d="M213.813952 47.392295
L213.813952 46.592295
" />
<path d="M214.461571 47.392295
L214.461571 46.592295
" />
<path d="M214.918714 47.392295
L214.575856 46.935152
" />
<path d="M214.918714 46.592295
L214.461571 47.049438
" />
</g></g>
<g style="fill:none; 
stroke:#000000; stroke-width:0.300000; stroke-opacity:1; 
stroke-linecap:round; stroke-linejoin:round;">
<text x="220.243400" y="40.284400"
textLength="25.833335" font-size="2.666666" lengthAdjust="spacingAndGlyphs"
text-anchor="start" opacity="0" stroke-opacity="0">TFD-4000 board</text>
<g class="stroked-text"><desc>TFD-4000 board</desc>
<path d="M220.631245 38.024038
L221.774102 38.024038
" />
<path d="M221.202673 40.024038
L221.202673 38.024038
" />
<path d="M223.107436 38.976419
L222.440769 38.976419
" />
<path d="M222.440769 40.024038
L222.440769 38.024038
" />
<path d="M222.440769 38.024038
L223.393150 38.024038
" />
<path d="M224.155055 40.024038
L224.155055 38.024038
" />
<path d="M224.155055 38.024038
L224.631245 38.024038
" />
<path d="M224.631245 38.024038
L224.916960 38.119276
" />
<path d="M224.916960 38.119276
L225.107436 38.309752
" />
<path d="M225.107436 38.309752
L225.202674 38.500228
" />
<path d="M225.202674 38.500228
L225.297912 38.881180
" />
<path d="M225.297912 38.881180
L225.297912 39.166895
" />
<path d="M225.297912 39.166895
L225.202674 39.547847
" />
<path d="M225.202674 39.547847
L225.107436 39.738323
" />
<path d="M225.107436 39.738323
L224.916960 39.928800
" />
<path d="M224.916960 39.928800
L224.631245 40.024038
" />
<path d="M224.631245 40.024038
L224.155055 40.024038
" />
<path d="M226.155055 39.262133
L227.678864 39.262133
" />
<path d="M229.488388 38.690704
L229.488388 40.024038
" />
<path d="M229.012197 37.928800
L228.536007 39.357371
" />
<path d="M228.536007 39.357371
L229.774102 39.357371
" />
<path d="M230.916959 38.024038
L231.107436 38.024038
" />
<path d="M231.107436 38.024038
L231.297912 38.119276
" />
<path d="M231.297912 38.119276
L231.393150 38.214514
" />
<path d="M231.393150 38.214514
L231.488388 38.404990
" />
<path d="M231.488388 38.404990
L231.583626 38.785942
" />
<path d="M231.583626 38.785942
L231.583626 39.262133
" />
<path d="M231.583626 39.262133
L231.488388 39.643085
" />
<path d="M231.488388 39.643085
L231.393150 39.833561
" />
<path d="M231.393150 39.833561
L231.297912 39.928800
" />
<path d="M231.297912 39.928800
L231.107436 40.024038
" />
<path d="M231.107436 40.024038
L230.916959 40.024038
" />
<path d="M230.916959 40.024038
L230.726483 39.928800
" />
<path d="M230.726483 39.928800
L230.631245 39.833561
" />
<path d="M230.631245 39.833561
L230.536007 39.643085
" />
<path d="M230.536007 39.643085
L230.440769 39.262133
" />
<path d="M230.440769 39.262133
L230.440769 38.785942
" />
<path d="M230.440769 38.785942
L230.536007 38.404990
" />
<path d="M230.536007 38.404990
L230.631245 38.214514
" />
<path d="M230.631245 38.214514
L230.726483 38.119276
" />
<path d="M230.726483 38.119276
L230.916959 38.024038
" />
<path d="M232.821721 38.024038
L233.012198 38.024038
" />
<path d="M233.012198 38.024038
L233.202674 38.119276
" />
<path d="M233.202674 38.119276
L233.297912 38.214514
" />
<path d="M233.297912 38.214514
L233.393150 38.404990
" />
<path d="M233.393150 38.404990
L233.488388 38.785942
" />
<path d="M233.488388 38.785942
L233.488388 39.262133
" />
<path d="M233.488388 39.262133
L233.393150 39.643085
" />
<path d="M233.393150 39.643085
L233.297912 39.833561
" />
<path d="M233.297912 39.833561
L233.202674 39.928800
" />
<path d="M233.202674 39.928800
L233.012198 40.024038
" />
<path d="M233.012198 40.024038
L232.821721 40.024038
" />
<path d="M232.821721 40.024038
L232.631245 39.928800
" />
<path d="M232.631245 39.928800
L232.536007 39.833561
" />
<path d="M232.536007 39.833561
L232.440769 39.643085
" />
<path d="M232.440769 39.643085
L232.345531 39.262133
" />
<path d="M232.345531 39.262133
L232.345531 38.785942
" />
<path d="M232.345531 38.785942
L232.440769 38.404990
" />
<path d="M232.440769 38.404990
L232.536007 38.214514
" />
<path d="M232.536007 38.214514
L232.631245 38.119276
" />
<path d="M232.631245 38.119276
L232.821721 38.024038
" />
<path d="M234.726483 38.024038
L234.916960 38.024038
" />
<path d="M234.916960 38.024038
L235.107436 38.119276
" />
<path d="M235.107436 38.119276
L235.202674 38.214514
" />
<path d="M235.202674 38.214514
L235.297912 38.404990
" />
<path d="M235.297912 38.404990
L235.393150 38.785942
" />
<path d="M235.393150 38.785942
L235.393150 39.262133
" />
<path d="M235.393150 39.262133
L235.297912 39.643085
" />
<path d="M235.297912 39.643085
L235.202674 39.833561
" />
<path d="M235.202674 39.833561
L235.107436 39.928800
" />
<path d="M235.107436 39.928800
L234.916960 40.024038
" />
<path d="M234.916960 40.024038
L234.726483 40.024038
" />
<path d="M234.726483 40.024038
L234.536007 39.928800
" />
<path d="M234.536007 39.928800
L234.440769 39.833561
" />
<path d="M234.440769 39.833561
L234.345531 39.643085
" />
<path d="M234.345531 39.643085
L234.250293 39.262133
" />
<path d="M234.250293 39.262133
L234.250293 38.785942
" />
<path d="M234.250293 38.785942
L234.345531 38.404990
" />
<path d="M234.345531 38.404990
L234.440769 38.214514
" />
<path d="M234.440769 38.214514
L234.536007 38.119276
" />
<path d="M234.536007 38.119276
L234.726483 38.024038
" />
<path d="M237.774103 40.024038
L237.774103 38.024038
" />
<path d="M237.774103 38.785942
L237.964579 38.690704
" />
<path d="M237.964579 38.690704
L238.345532 38.690704
" />
<path d="M238.345532 38.690704
L238.536008 38.785942
" />
<path d="M238.536008 38.785942
L238.631246 38.881180
" />
<path d="M238.631246 38.881180
L238.726484 39.071657
" />
<path d="M238.726484 39.071657
L238.726484 39.643085
" />
<path d="M238.726484 39.643085
L238.631246 39.833561
" />
<path d="M238.631246 39.833561
L238.536008 39.928800
" />
<path d="M238.536008 39.928800
L238.345532 40.024038
" />
<path d="M238.345532 40.024038
L237.964579 40.024038
" />
<path d="M237.964579 40.024038
L237.774103 39.928800
" />
<path d="M239.869341 40.024038
L239.678865 39.928800
" />
<path d="M239.678865 39.928800
L239.583627 39.833561
" />
<path d="M239.583627 39.833561
L239.488389 39.643085
" />
<path d="M239.488389 39.643085
L239.488389 39.071657
" />
<path d="M239.488389 39.071657
L239.583627 38.881180
" />
<path d="M239.583627 38.881180
L239.678865 38.785942
" />
<path d="M239.678865 38.785942
L239.869341 38.690704
" />
<path d="M239.869341 38.690704
L240.155056 38.690704
" />
<path d="M240.155056 38.690704
L240.345532 38.785942
" />
<path d="M240.345532 38.785942
L240.440770 38.881180
" />
<path d="M240.440770 38.881180
L240.536008 39.071657
" />
<path d="M240.536008 39.071657
L240.536008 39.643085
" />
<path d="M240.536008 39.643085
L240.440770 39.833561
" />
<path d="M240.440770 39.833561
L240.345532 39.928800
" />
<path d="M240.345532 39.928800
L240.155056 40.024038
" />
<path d="M240.155056 40.024038
L239.869341 40.024038
" />
<path d="M242.250294 40.024038
L242.250294 38.976419
" />
<path d="M242.250294 38.976419
L242.155056 38.785942
" />
<path d="M242.155056 38.785942
L241.964580 38.690704
" />
<path d="M241.964580 38.690704
L241.583627 38.690704
" />
<path d="M241.583627 38.690704
L241.393151 38.785942
" />
<path d="M242.250294 39.928800
L242.059818 40.024038
" />
<path d="M242.059818 40.024038
L241.583627 40.024038
" />
<path d="M241.583627 40.024038
L241.393151 39.928800
" />
<path d="M241.393151 39.928800
L241.297913 39.738323
" />
<path d="M241.297913 39.738323
L241.297913 39.547847
" />
<path d="M241.297913 39.547847
L241.393151 39.357371
" />
<path d="M241.393151 39.357371
L241.583627 39.262133
" />
<path d="M241.583627 39.262133
L242.059818 39.262133
" />
<path d="M242.059818 39.262133
L242.250294 39.166895
" />
<path d="M243.202675 40.024038
L243.202675 38.690704
" />
<path d="M243.202675 39.071657
L243.297913 38.881180
" />
<path d="M243.297913 38.881180
L243.393151 38.785942
" />
<path d="M243.393151 38.785942
L243.583627 38.690704
" />
<path d="M243.583627 38.690704
L243.774104 38.690704
" />
<path d="M245.297913 40.024038
L245.297913 38.024038
" />
<path d="M245.297913 39.928800
L245.107437 40.024038
" />
<path d="M245.107437 40.024038
L244.726484 40.024038
" />
<path d="M244.726484 40.024038
L244.536008 39.928800
" />
<path d="M244.536008 39.928800
L244.440770 39.833561
" />
<path d="M244.440770 39.833561
L244.345532 39.643085
" />
<path d="M244.345532 39.643085
L244.345532 39.071657
" />
<path d="M244.345532 39.071657
L244.440770 38.881180
" />
<path d="M244.440770 38.881180
L244.536008 38.785942
" />
<path d="M244.536008 38.785942
L244.726484 38.690704
" />
<path d="M244.726484 38.690704
L245.107437 38.690704
" />
<path d="M245.107437 38.690704
L245.297913 38.785942
" />
</g></g>
<g style="fill:none; 
stroke:#000000; stroke-width:0.150000; stroke-opacity:1; 
stroke-linecap:round; stroke-linejoin:round;">
<g transform="rotate(25.000000 205.511399 44.704000)">
<text x="205.511399" y="45.204000"
textLength="1.964286" font-size="1.333333" lengthAdjust="spacingAndGlyphs"
text-anchor="middle" opacity="0" stroke-opacity="0">J1</text>
</g>
<g class="stroked-text"><desc>J1</desc>
<path d="M205.439700 44.069025
L205.137830 44.716388
" />
<path d="M205.137830 44.716388
L205.034298 44.825736
" />
<path d="M205.034298 44.825736
L204.907734 44.871801
" />
<path d="M204.907734 44.871801
L204.758137 44.854585
" />
<path d="M204.758137 44.854585
L204.671822 44.814335
" />
<path d="M205.923390 45.397951
L205.405500 45.156455
" />
<path d="M205.664445 45.277203
L206.087063 44.370895
" />
<path d="M206.087063 44.370895
L205.940374 44.460118
" />
<path d="M205.940374 44.460118
L205.813810 44.506184
" />
<path d="M205.813810 44.506184
L205.707370 44.509092
" />
</g></g>
<g style="fill:none; 
stroke:#000000; stroke-width:0.120000; stroke-opacity:1; 
stroke-linecap:round; stroke-linejoin:round;">
<path d="M210.475373 37.212002
L207.819216 42.908146
" />
<path d="M209.748087 36.872863
L210.475373 37.212002
" />
<path d="M208.463370 36.273789
L209.190654 36.612928
" />
<path d="M208.463370 36.273789
L205.807214 41.969934
" />
<path d="M207.323892 42.677174
L207.819216 42.908146
" />
<path d="M207.176836 44.285734
L207.498026 43.596941
" />
<path d="M206.170835 43.816629
L207.176836 44.285734
" />
<path d="M205.807214 41.969934
L206.302537 42.200907
" />
</g>
<g style="fill:none; 
stroke:#000000; stroke-width:0.600000; stroke-opacity:1; 
stroke-linecap:round; stroke-linejoin:round;">
<path d="M247.017046 43.062704 A2.000004 2.000004 0.0 0 0 248.875260 40.323183" />
<path d="M237.554222 52.962704 A1.999978 1.999978 0.0 0 0 239.554221 54.962678" />
<path d="M248.866764 40.326580 A23.423491 23.423491 0.0 1 0 248.875302 57.702242" />
<path d="M248.875294 57.702239 A2.000044 2.000044 0.0 0 0 247.017046 54.962656" />
<path d="M239.554221 43.062704 A1.999996 1.999996 0.0 0 0 237.554204 45.062703" />
<path d="M237.554222 52.962704
L237.554222 45.062703
" />
<path d="M239.554221 43.062704
L247.017046 43.062704
" />
<path d="M247.017046 54.962704
L239.554221 54.962704
" />
</g> 
</svg>
