%TF.GenerationSoftware,KiCad,Pcbnew,7.0.5*%
%TF.CreationDate,2023-08-16T19:13:48+03:00*%
%TF.ProjectId,lamps,6c616d70-732e-46b6-9963-61645f706362,rev?*%
%TF.SameCoordinates,Original*%
%TF.FileFunction,Drillmap*%
%TF.FilePolarity,Positive*%
%FSLAX45Y45*%
G04 Gerber Fmt 4.5, Leading zero omitted, Abs format (unit mm)*
G04 Created by KiCad (PCBNEW 7.0.5) date 2023-08-16 19:13:48*
%MOMM*%
%LPD*%
G01*
G04 APERTURE LIST*
%ADD10C,0.100000*%
%ADD11C,0.200000*%
%ADD12C,0.060000*%
%ADD13C,0.070000*%
%ADD14C,0.075000*%
%ADD15C,0.080000*%
%ADD16C,0.130000*%
G04 APERTURE END LIST*
D10*
X6850000Y-5750000D02*
X13400000Y-5750000D01*
X13400000Y-9850000D01*
X6850000Y-9850000D01*
X6850000Y-5750000D01*
D11*
D12*
X8755100Y-7310600D02*
X8815100Y-7370600D01*
X8815100Y-7310600D02*
X8755100Y-7370600D01*
X9190200Y-7628100D02*
X9250200Y-7688100D01*
X9250200Y-7628100D02*
X9190200Y-7688100D01*
X9801070Y-7880830D02*
X9861070Y-7940830D01*
X9861070Y-7880830D02*
X9801070Y-7940830D01*
X10165560Y-8120860D02*
X10225560Y-8180860D01*
X10225560Y-8120860D02*
X10165560Y-8180860D01*
X10290020Y-8004020D02*
X10350020Y-8064020D01*
X10350020Y-8004020D02*
X10290020Y-8064020D01*
X10691340Y-8316440D02*
X10751340Y-8376440D01*
X10751340Y-8316440D02*
X10691340Y-8376440D01*
X10940260Y-7744940D02*
X11000260Y-7804940D01*
X11000260Y-7744940D02*
X10940260Y-7804940D01*
X10947880Y-7871940D02*
X11007880Y-7931940D01*
X11007880Y-7871940D02*
X10947880Y-7931940D01*
X10952960Y-9416260D02*
X11012960Y-9476260D01*
X11012960Y-9416260D02*
X10952960Y-9476260D01*
X11057100Y-7030350D02*
X11117100Y-7090350D01*
X11117100Y-7030350D02*
X11057100Y-7090350D01*
X11194260Y-6507960D02*
X11254260Y-6567960D01*
X11254260Y-6507960D02*
X11194260Y-6567960D01*
X11387300Y-8595840D02*
X11447300Y-8655840D01*
X11447300Y-8595840D02*
X11387300Y-8655840D01*
X11400000Y-8720300D02*
X11460000Y-8780300D01*
X11460000Y-8720300D02*
X11400000Y-8780300D01*
X11402540Y-7417280D02*
X11462540Y-7477280D01*
X11462540Y-7417280D02*
X11402540Y-7477280D01*
X11504140Y-7666200D02*
X11564140Y-7726200D01*
X11564140Y-7666200D02*
X11504140Y-7726200D01*
X11618440Y-6253960D02*
X11678440Y-6313960D01*
X11678440Y-6253960D02*
X11618440Y-6313960D01*
X11704800Y-7602700D02*
X11764800Y-7662700D01*
X11764800Y-7602700D02*
X11704800Y-7662700D01*
X11741082Y-6248918D02*
X11801082Y-6308918D01*
X11801082Y-6248918D02*
X11741082Y-6308918D01*
X12238200Y-6142200D02*
X12298200Y-6202200D01*
X12298200Y-6142200D02*
X12238200Y-6202200D01*
X12240101Y-6446017D02*
X12300101Y-6506017D01*
X12300101Y-6446017D02*
X12240101Y-6506017D01*
X12314400Y-6548600D02*
X12374400Y-6608600D01*
X12374400Y-6548600D02*
X12314400Y-6608600D01*
X12322020Y-6218400D02*
X12382020Y-6278400D01*
X12382020Y-6218400D02*
X12322020Y-6278400D01*
X12324560Y-6066000D02*
X12384560Y-6126000D01*
X12384560Y-6066000D02*
X12324560Y-6126000D01*
X12324560Y-6370800D02*
X12384560Y-6430800D01*
X12384560Y-6370800D02*
X12324560Y-6430800D01*
X12400760Y-6294600D02*
X12460760Y-6354600D01*
X12460760Y-6294600D02*
X12400760Y-6354600D01*
X12509980Y-6850860D02*
X12569980Y-6910860D01*
X12569980Y-6850860D02*
X12509980Y-6910860D01*
D13*
X11566600Y-5969000D02*
G75*
G03*
X11566600Y-5969000I-35000J0D01*
G01*
X11693600Y-5969000D02*
G75*
G03*
X11693600Y-5969000I-35000J0D01*
G01*
X11820600Y-5969000D02*
G75*
G03*
X11820600Y-5969000I-35000J0D01*
G01*
X11947600Y-5969000D02*
G75*
G03*
X11947600Y-5969000I-35000J0D01*
G01*
X12074600Y-5969000D02*
G75*
G03*
X12074600Y-5969000I-35000J0D01*
G01*
X12201600Y-5969000D02*
G75*
G03*
X12201600Y-5969000I-35000J0D01*
G01*
D14*
X10725000Y-5987500D02*
X10725000Y-6062500D01*
X10687500Y-6025000D02*
X10762500Y-6025000D01*
X10925000Y-5987500D02*
X10925000Y-6062500D01*
X10887500Y-6025000D02*
X10962500Y-6025000D01*
D15*
X8059764Y-8260424D02*
X8059764Y-8203855D01*
X8003195Y-8203855D01*
X8003195Y-8260424D01*
X8059764Y-8260424D01*
X8212624Y-7343944D02*
X8212624Y-7287375D01*
X8156055Y-7287375D01*
X8156055Y-7343944D01*
X8212624Y-7343944D01*
X8378284Y-8628285D02*
X8378284Y-8571716D01*
X8321715Y-8571716D01*
X8321715Y-8628285D01*
X8378284Y-8628285D01*
X8407745Y-7343484D02*
X8407745Y-7286915D01*
X8351175Y-7286915D01*
X8351175Y-7343484D01*
X8407745Y-7343484D01*
X9459305Y-7377284D02*
X9459305Y-7320715D01*
X9402736Y-7320715D01*
X9402736Y-7377284D01*
X9459305Y-7377284D01*
X9888565Y-7201244D02*
X9888565Y-7144675D01*
X9831996Y-7144675D01*
X9831996Y-7201244D01*
X9888565Y-7201244D01*
X9916505Y-6578944D02*
X9916505Y-6522375D01*
X9859936Y-6522375D01*
X9859936Y-6578944D01*
X9916505Y-6578944D01*
X10010485Y-7892124D02*
X10010485Y-7835555D01*
X9953916Y-7835555D01*
X9953916Y-7892124D01*
X10010485Y-7892124D01*
X10071445Y-6855804D02*
X10071445Y-6799235D01*
X10014876Y-6799235D01*
X10014876Y-6855804D01*
X10071445Y-6855804D01*
X10401645Y-6101424D02*
X10401645Y-6044855D01*
X10345076Y-6044855D01*
X10345076Y-6101424D01*
X10401645Y-6101424D01*
X10556585Y-8511885D02*
X10556585Y-8455316D01*
X10500016Y-8455316D01*
X10500016Y-8511885D01*
X10556585Y-8511885D01*
X11123005Y-7380614D02*
X11123005Y-7324045D01*
X11066436Y-7324045D01*
X11066436Y-7380614D01*
X11123005Y-7380614D01*
X11173805Y-9700605D02*
X11173805Y-9644036D01*
X11117236Y-9644036D01*
X11117236Y-9700605D01*
X11173805Y-9700605D01*
X11427804Y-9385645D02*
X11427804Y-9329076D01*
X11371235Y-9329076D01*
X11371235Y-9385645D01*
X11427804Y-9385645D01*
X11473524Y-6203024D02*
X11473524Y-6146455D01*
X11416955Y-6146455D01*
X11416955Y-6203024D01*
X11473524Y-6203024D01*
X12103284Y-7953284D02*
X12103284Y-7896715D01*
X12046715Y-7896715D01*
X12046715Y-7953284D01*
X12103284Y-7953284D01*
X12398084Y-5941404D02*
X12398084Y-5884835D01*
X12341515Y-5884835D01*
X12341515Y-5941404D01*
X12398084Y-5941404D01*
X12852744Y-9385645D02*
X12852744Y-9329076D01*
X12796175Y-9329076D01*
X12796175Y-9385645D01*
X12852744Y-9385645D01*
X13127064Y-7978484D02*
X13127064Y-7921915D01*
X13070495Y-7921915D01*
X13070495Y-7978484D01*
X13127064Y-7978484D01*
D10*
X12801600Y-7263600D02*
X12851600Y-7213600D01*
X12801600Y-7163600D01*
X12751600Y-7213600D01*
X12801600Y-7263600D01*
X12801600Y-7517600D02*
X12851600Y-7467600D01*
X12801600Y-7417600D01*
X12751600Y-7467600D01*
X12801600Y-7517600D01*
X12801600Y-7771600D02*
X12851600Y-7721600D01*
X12801600Y-7671600D01*
X12751600Y-7721600D01*
X12801600Y-7771600D01*
X13157200Y-6019000D02*
X13207200Y-5969000D01*
X13157200Y-5919000D01*
X13107200Y-5969000D01*
X13157200Y-6019000D01*
X13157200Y-6273000D02*
X13207200Y-6223000D01*
X13157200Y-6173000D01*
X13107200Y-6223000D01*
X13157200Y-6273000D01*
X13157200Y-6527000D02*
X13207200Y-6477000D01*
X13157200Y-6427000D01*
X13107200Y-6477000D01*
X13157200Y-6527000D01*
X13157200Y-6781000D02*
X13207200Y-6731000D01*
X13157200Y-6681000D01*
X13107200Y-6731000D01*
X13157200Y-6781000D01*
X13157200Y-7035000D02*
X13207200Y-6985000D01*
X13157200Y-6935000D01*
X13107200Y-6985000D01*
X13157200Y-7035000D01*
X13157200Y-7289000D02*
X13207200Y-7239000D01*
X13157200Y-7189000D01*
X13107200Y-7239000D01*
X13157200Y-7289000D01*
D16*
X7085000Y-6315500D02*
X7215000Y-6445500D01*
X7215000Y-6315500D02*
X7085000Y-6445500D01*
X7215000Y-6380500D02*
G75*
G03*
X7215000Y-6380500I-65000J0D01*
G01*
X7360000Y-7135000D02*
X7490000Y-7265000D01*
X7490000Y-7135000D02*
X7360000Y-7265000D01*
X7490000Y-7200000D02*
G75*
G03*
X7490000Y-7200000I-65000J0D01*
G01*
X7360000Y-7635000D02*
X7490000Y-7765000D01*
X7490000Y-7635000D02*
X7360000Y-7765000D01*
X7490000Y-7700000D02*
G75*
G03*
X7490000Y-7700000I-65000J0D01*
G01*
X7360000Y-8335000D02*
X7490000Y-8465000D01*
X7490000Y-8335000D02*
X7360000Y-8465000D01*
X7490000Y-8400000D02*
G75*
G03*
X7490000Y-8400000I-65000J0D01*
G01*
X7360000Y-8835000D02*
X7490000Y-8965000D01*
X7490000Y-8835000D02*
X7360000Y-8965000D01*
X7490000Y-8900000D02*
G75*
G03*
X7490000Y-8900000I-65000J0D01*
G01*
X7585000Y-6315500D02*
X7715000Y-6445500D01*
X7715000Y-6315500D02*
X7585000Y-6445500D01*
X7715000Y-6380500D02*
G75*
G03*
X7715000Y-6380500I-65000J0D01*
G01*
X8219000Y-6310000D02*
X8349000Y-6440000D01*
X8349000Y-6310000D02*
X8219000Y-6440000D01*
X8349000Y-6375000D02*
G75*
G03*
X8349000Y-6375000I-65000J0D01*
G01*
X8285000Y-9185000D02*
X8415000Y-9315000D01*
X8415000Y-9185000D02*
X8285000Y-9315000D01*
X8415000Y-9250000D02*
G75*
G03*
X8415000Y-9250000I-65000J0D01*
G01*
X8727000Y-6310000D02*
X8857000Y-6440000D01*
X8857000Y-6310000D02*
X8727000Y-6440000D01*
X8857000Y-6375000D02*
G75*
G03*
X8857000Y-6375000I-65000J0D01*
G01*
X8785000Y-9185000D02*
X8915000Y-9315000D01*
X8915000Y-9185000D02*
X8785000Y-9315000D01*
X8915000Y-9250000D02*
G75*
G03*
X8915000Y-9250000I-65000J0D01*
G01*
X9235000Y-6310000D02*
X9365000Y-6440000D01*
X9365000Y-6310000D02*
X9235000Y-6440000D01*
X9365000Y-6375000D02*
G75*
G03*
X9365000Y-6375000I-65000J0D01*
G01*
X9910000Y-9185000D02*
X10040000Y-9315000D01*
X10040000Y-9185000D02*
X9910000Y-9315000D01*
X10040000Y-9250000D02*
G75*
G03*
X10040000Y-9250000I-65000J0D01*
G01*
X10410000Y-9185000D02*
X10540000Y-9315000D01*
X10540000Y-9185000D02*
X10410000Y-9315000D01*
X10540000Y-9250000D02*
G75*
G03*
X10540000Y-9250000I-65000J0D01*
G01*
X12760000Y-8335000D02*
X12890000Y-8465000D01*
X12890000Y-8335000D02*
X12760000Y-8465000D01*
X12890000Y-8400000D02*
G75*
G03*
X12890000Y-8400000I-65000J0D01*
G01*
X12760000Y-8835000D02*
X12890000Y-8965000D01*
X12890000Y-8835000D02*
X12760000Y-8965000D01*
X12890000Y-8900000D02*
G75*
G03*
X12890000Y-8900000I-65000J0D01*
G01*
D11*
X7105777Y-10166484D02*
X7105777Y-9966484D01*
X7105777Y-9966484D02*
X7153396Y-9966484D01*
X7153396Y-9966484D02*
X7181967Y-9976008D01*
X7181967Y-9976008D02*
X7201015Y-9995055D01*
X7201015Y-9995055D02*
X7210539Y-10014103D01*
X7210539Y-10014103D02*
X7220062Y-10052198D01*
X7220062Y-10052198D02*
X7220062Y-10080770D01*
X7220062Y-10080770D02*
X7210539Y-10118865D01*
X7210539Y-10118865D02*
X7201015Y-10137912D01*
X7201015Y-10137912D02*
X7181967Y-10156960D01*
X7181967Y-10156960D02*
X7153396Y-10166484D01*
X7153396Y-10166484D02*
X7105777Y-10166484D01*
X7305777Y-10166484D02*
X7305777Y-10033150D01*
X7305777Y-10071246D02*
X7315301Y-10052198D01*
X7315301Y-10052198D02*
X7324824Y-10042674D01*
X7324824Y-10042674D02*
X7343872Y-10033150D01*
X7343872Y-10033150D02*
X7362920Y-10033150D01*
X7429586Y-10166484D02*
X7429586Y-10033150D01*
X7429586Y-9966484D02*
X7420062Y-9976008D01*
X7420062Y-9976008D02*
X7429586Y-9985531D01*
X7429586Y-9985531D02*
X7439110Y-9976008D01*
X7439110Y-9976008D02*
X7429586Y-9966484D01*
X7429586Y-9966484D02*
X7429586Y-9985531D01*
X7553396Y-10166484D02*
X7534348Y-10156960D01*
X7534348Y-10156960D02*
X7524824Y-10137912D01*
X7524824Y-10137912D02*
X7524824Y-9966484D01*
X7658158Y-10166484D02*
X7639110Y-10156960D01*
X7639110Y-10156960D02*
X7629586Y-10137912D01*
X7629586Y-10137912D02*
X7629586Y-9966484D01*
X7886729Y-10166484D02*
X7886729Y-9966484D01*
X7886729Y-9966484D02*
X7953396Y-10109341D01*
X7953396Y-10109341D02*
X8020062Y-9966484D01*
X8020062Y-9966484D02*
X8020062Y-10166484D01*
X8201015Y-10166484D02*
X8201015Y-10061722D01*
X8201015Y-10061722D02*
X8191491Y-10042674D01*
X8191491Y-10042674D02*
X8172443Y-10033150D01*
X8172443Y-10033150D02*
X8134348Y-10033150D01*
X8134348Y-10033150D02*
X8115301Y-10042674D01*
X8201015Y-10156960D02*
X8181967Y-10166484D01*
X8181967Y-10166484D02*
X8134348Y-10166484D01*
X8134348Y-10166484D02*
X8115301Y-10156960D01*
X8115301Y-10156960D02*
X8105777Y-10137912D01*
X8105777Y-10137912D02*
X8105777Y-10118865D01*
X8105777Y-10118865D02*
X8115301Y-10099817D01*
X8115301Y-10099817D02*
X8134348Y-10090293D01*
X8134348Y-10090293D02*
X8181967Y-10090293D01*
X8181967Y-10090293D02*
X8201015Y-10080770D01*
X8296253Y-10033150D02*
X8296253Y-10233150D01*
X8296253Y-10042674D02*
X8315301Y-10033150D01*
X8315301Y-10033150D02*
X8353396Y-10033150D01*
X8353396Y-10033150D02*
X8372443Y-10042674D01*
X8372443Y-10042674D02*
X8381967Y-10052198D01*
X8381967Y-10052198D02*
X8391491Y-10071246D01*
X8391491Y-10071246D02*
X8391491Y-10128389D01*
X8391491Y-10128389D02*
X8381967Y-10147436D01*
X8381967Y-10147436D02*
X8372443Y-10156960D01*
X8372443Y-10156960D02*
X8353396Y-10166484D01*
X8353396Y-10166484D02*
X8315301Y-10166484D01*
X8315301Y-10166484D02*
X8296253Y-10156960D01*
X8477205Y-10147436D02*
X8486729Y-10156960D01*
X8486729Y-10156960D02*
X8477205Y-10166484D01*
X8477205Y-10166484D02*
X8467682Y-10156960D01*
X8467682Y-10156960D02*
X8477205Y-10147436D01*
X8477205Y-10147436D02*
X8477205Y-10166484D01*
X8477205Y-10042674D02*
X8486729Y-10052198D01*
X8486729Y-10052198D02*
X8477205Y-10061722D01*
X8477205Y-10061722D02*
X8467682Y-10052198D01*
X8467682Y-10052198D02*
X8477205Y-10042674D01*
X8477205Y-10042674D02*
X8477205Y-10061722D01*
D12*
X6785000Y-10465000D02*
X6845000Y-10525000D01*
X6845000Y-10465000D02*
X6785000Y-10525000D01*
D11*
X7143872Y-10386484D02*
X7162920Y-10386484D01*
X7162920Y-10386484D02*
X7181967Y-10396008D01*
X7181967Y-10396008D02*
X7191491Y-10405531D01*
X7191491Y-10405531D02*
X7201015Y-10424579D01*
X7201015Y-10424579D02*
X7210539Y-10462674D01*
X7210539Y-10462674D02*
X7210539Y-10510293D01*
X7210539Y-10510293D02*
X7201015Y-10548389D01*
X7201015Y-10548389D02*
X7191491Y-10567436D01*
X7191491Y-10567436D02*
X7181967Y-10576960D01*
X7181967Y-10576960D02*
X7162920Y-10586484D01*
X7162920Y-10586484D02*
X7143872Y-10586484D01*
X7143872Y-10586484D02*
X7124824Y-10576960D01*
X7124824Y-10576960D02*
X7115301Y-10567436D01*
X7115301Y-10567436D02*
X7105777Y-10548389D01*
X7105777Y-10548389D02*
X7096253Y-10510293D01*
X7096253Y-10510293D02*
X7096253Y-10462674D01*
X7096253Y-10462674D02*
X7105777Y-10424579D01*
X7105777Y-10424579D02*
X7115301Y-10405531D01*
X7115301Y-10405531D02*
X7124824Y-10396008D01*
X7124824Y-10396008D02*
X7143872Y-10386484D01*
X7296253Y-10567436D02*
X7305777Y-10576960D01*
X7305777Y-10576960D02*
X7296253Y-10586484D01*
X7296253Y-10586484D02*
X7286729Y-10576960D01*
X7286729Y-10576960D02*
X7296253Y-10567436D01*
X7296253Y-10567436D02*
X7296253Y-10586484D01*
X7477205Y-10386484D02*
X7439110Y-10386484D01*
X7439110Y-10386484D02*
X7420062Y-10396008D01*
X7420062Y-10396008D02*
X7410539Y-10405531D01*
X7410539Y-10405531D02*
X7391491Y-10434103D01*
X7391491Y-10434103D02*
X7381967Y-10472198D01*
X7381967Y-10472198D02*
X7381967Y-10548389D01*
X7381967Y-10548389D02*
X7391491Y-10567436D01*
X7391491Y-10567436D02*
X7401015Y-10576960D01*
X7401015Y-10576960D02*
X7420062Y-10586484D01*
X7420062Y-10586484D02*
X7458158Y-10586484D01*
X7458158Y-10586484D02*
X7477205Y-10576960D01*
X7477205Y-10576960D02*
X7486729Y-10567436D01*
X7486729Y-10567436D02*
X7496253Y-10548389D01*
X7496253Y-10548389D02*
X7496253Y-10500770D01*
X7496253Y-10500770D02*
X7486729Y-10481722D01*
X7486729Y-10481722D02*
X7477205Y-10472198D01*
X7477205Y-10472198D02*
X7458158Y-10462674D01*
X7458158Y-10462674D02*
X7420062Y-10462674D01*
X7420062Y-10462674D02*
X7401015Y-10472198D01*
X7401015Y-10472198D02*
X7391491Y-10481722D01*
X7391491Y-10481722D02*
X7381967Y-10500770D01*
X7620062Y-10386484D02*
X7639110Y-10386484D01*
X7639110Y-10386484D02*
X7658158Y-10396008D01*
X7658158Y-10396008D02*
X7667682Y-10405531D01*
X7667682Y-10405531D02*
X7677205Y-10424579D01*
X7677205Y-10424579D02*
X7686729Y-10462674D01*
X7686729Y-10462674D02*
X7686729Y-10510293D01*
X7686729Y-10510293D02*
X7677205Y-10548389D01*
X7677205Y-10548389D02*
X7667682Y-10567436D01*
X7667682Y-10567436D02*
X7658158Y-10576960D01*
X7658158Y-10576960D02*
X7639110Y-10586484D01*
X7639110Y-10586484D02*
X7620062Y-10586484D01*
X7620062Y-10586484D02*
X7601015Y-10576960D01*
X7601015Y-10576960D02*
X7591491Y-10567436D01*
X7591491Y-10567436D02*
X7581967Y-10548389D01*
X7581967Y-10548389D02*
X7572443Y-10510293D01*
X7572443Y-10510293D02*
X7572443Y-10462674D01*
X7572443Y-10462674D02*
X7581967Y-10424579D01*
X7581967Y-10424579D02*
X7591491Y-10405531D01*
X7591491Y-10405531D02*
X7601015Y-10396008D01*
X7601015Y-10396008D02*
X7620062Y-10386484D01*
X7810539Y-10386484D02*
X7829586Y-10386484D01*
X7829586Y-10386484D02*
X7848634Y-10396008D01*
X7848634Y-10396008D02*
X7858158Y-10405531D01*
X7858158Y-10405531D02*
X7867682Y-10424579D01*
X7867682Y-10424579D02*
X7877205Y-10462674D01*
X7877205Y-10462674D02*
X7877205Y-10510293D01*
X7877205Y-10510293D02*
X7867682Y-10548389D01*
X7867682Y-10548389D02*
X7858158Y-10567436D01*
X7858158Y-10567436D02*
X7848634Y-10576960D01*
X7848634Y-10576960D02*
X7829586Y-10586484D01*
X7829586Y-10586484D02*
X7810539Y-10586484D01*
X7810539Y-10586484D02*
X7791491Y-10576960D01*
X7791491Y-10576960D02*
X7781967Y-10567436D01*
X7781967Y-10567436D02*
X7772443Y-10548389D01*
X7772443Y-10548389D02*
X7762920Y-10510293D01*
X7762920Y-10510293D02*
X7762920Y-10462674D01*
X7762920Y-10462674D02*
X7772443Y-10424579D01*
X7772443Y-10424579D02*
X7781967Y-10405531D01*
X7781967Y-10405531D02*
X7791491Y-10396008D01*
X7791491Y-10396008D02*
X7810539Y-10386484D01*
X7962920Y-10586484D02*
X7962920Y-10453150D01*
X7962920Y-10472198D02*
X7972443Y-10462674D01*
X7972443Y-10462674D02*
X7991491Y-10453150D01*
X7991491Y-10453150D02*
X8020063Y-10453150D01*
X8020063Y-10453150D02*
X8039110Y-10462674D01*
X8039110Y-10462674D02*
X8048634Y-10481722D01*
X8048634Y-10481722D02*
X8048634Y-10586484D01*
X8048634Y-10481722D02*
X8058158Y-10462674D01*
X8058158Y-10462674D02*
X8077205Y-10453150D01*
X8077205Y-10453150D02*
X8105777Y-10453150D01*
X8105777Y-10453150D02*
X8124824Y-10462674D01*
X8124824Y-10462674D02*
X8134348Y-10481722D01*
X8134348Y-10481722D02*
X8134348Y-10586484D01*
X8229586Y-10586484D02*
X8229586Y-10453150D01*
X8229586Y-10472198D02*
X8239110Y-10462674D01*
X8239110Y-10462674D02*
X8258158Y-10453150D01*
X8258158Y-10453150D02*
X8286729Y-10453150D01*
X8286729Y-10453150D02*
X8305777Y-10462674D01*
X8305777Y-10462674D02*
X8315301Y-10481722D01*
X8315301Y-10481722D02*
X8315301Y-10586484D01*
X8315301Y-10481722D02*
X8324824Y-10462674D01*
X8324824Y-10462674D02*
X8343872Y-10453150D01*
X8343872Y-10453150D02*
X8372443Y-10453150D01*
X8372443Y-10453150D02*
X8391491Y-10462674D01*
X8391491Y-10462674D02*
X8401015Y-10481722D01*
X8401015Y-10481722D02*
X8401015Y-10586484D01*
X8791491Y-10376960D02*
X8620063Y-10634103D01*
X9048634Y-10386484D02*
X9067682Y-10386484D01*
X9067682Y-10386484D02*
X9086729Y-10396008D01*
X9086729Y-10396008D02*
X9096253Y-10405531D01*
X9096253Y-10405531D02*
X9105777Y-10424579D01*
X9105777Y-10424579D02*
X9115301Y-10462674D01*
X9115301Y-10462674D02*
X9115301Y-10510293D01*
X9115301Y-10510293D02*
X9105777Y-10548389D01*
X9105777Y-10548389D02*
X9096253Y-10567436D01*
X9096253Y-10567436D02*
X9086729Y-10576960D01*
X9086729Y-10576960D02*
X9067682Y-10586484D01*
X9067682Y-10586484D02*
X9048634Y-10586484D01*
X9048634Y-10586484D02*
X9029587Y-10576960D01*
X9029587Y-10576960D02*
X9020063Y-10567436D01*
X9020063Y-10567436D02*
X9010539Y-10548389D01*
X9010539Y-10548389D02*
X9001015Y-10510293D01*
X9001015Y-10510293D02*
X9001015Y-10462674D01*
X9001015Y-10462674D02*
X9010539Y-10424579D01*
X9010539Y-10424579D02*
X9020063Y-10405531D01*
X9020063Y-10405531D02*
X9029587Y-10396008D01*
X9029587Y-10396008D02*
X9048634Y-10386484D01*
X9201015Y-10567436D02*
X9210539Y-10576960D01*
X9210539Y-10576960D02*
X9201015Y-10586484D01*
X9201015Y-10586484D02*
X9191491Y-10576960D01*
X9191491Y-10576960D02*
X9201015Y-10567436D01*
X9201015Y-10567436D02*
X9201015Y-10586484D01*
X9334348Y-10386484D02*
X9353396Y-10386484D01*
X9353396Y-10386484D02*
X9372444Y-10396008D01*
X9372444Y-10396008D02*
X9381968Y-10405531D01*
X9381968Y-10405531D02*
X9391491Y-10424579D01*
X9391491Y-10424579D02*
X9401015Y-10462674D01*
X9401015Y-10462674D02*
X9401015Y-10510293D01*
X9401015Y-10510293D02*
X9391491Y-10548389D01*
X9391491Y-10548389D02*
X9381968Y-10567436D01*
X9381968Y-10567436D02*
X9372444Y-10576960D01*
X9372444Y-10576960D02*
X9353396Y-10586484D01*
X9353396Y-10586484D02*
X9334348Y-10586484D01*
X9334348Y-10586484D02*
X9315301Y-10576960D01*
X9315301Y-10576960D02*
X9305777Y-10567436D01*
X9305777Y-10567436D02*
X9296253Y-10548389D01*
X9296253Y-10548389D02*
X9286729Y-10510293D01*
X9286729Y-10510293D02*
X9286729Y-10462674D01*
X9286729Y-10462674D02*
X9296253Y-10424579D01*
X9296253Y-10424579D02*
X9305777Y-10405531D01*
X9305777Y-10405531D02*
X9315301Y-10396008D01*
X9315301Y-10396008D02*
X9334348Y-10386484D01*
X9477206Y-10405531D02*
X9486729Y-10396008D01*
X9486729Y-10396008D02*
X9505777Y-10386484D01*
X9505777Y-10386484D02*
X9553396Y-10386484D01*
X9553396Y-10386484D02*
X9572444Y-10396008D01*
X9572444Y-10396008D02*
X9581968Y-10405531D01*
X9581968Y-10405531D02*
X9591491Y-10424579D01*
X9591491Y-10424579D02*
X9591491Y-10443627D01*
X9591491Y-10443627D02*
X9581968Y-10472198D01*
X9581968Y-10472198D02*
X9467682Y-10586484D01*
X9467682Y-10586484D02*
X9591491Y-10586484D01*
X9658158Y-10386484D02*
X9781968Y-10386484D01*
X9781968Y-10386484D02*
X9715301Y-10462674D01*
X9715301Y-10462674D02*
X9743872Y-10462674D01*
X9743872Y-10462674D02*
X9762920Y-10472198D01*
X9762920Y-10472198D02*
X9772444Y-10481722D01*
X9772444Y-10481722D02*
X9781968Y-10500770D01*
X9781968Y-10500770D02*
X9781968Y-10548389D01*
X9781968Y-10548389D02*
X9772444Y-10567436D01*
X9772444Y-10567436D02*
X9762920Y-10576960D01*
X9762920Y-10576960D02*
X9743872Y-10586484D01*
X9743872Y-10586484D02*
X9686729Y-10586484D01*
X9686729Y-10586484D02*
X9667682Y-10576960D01*
X9667682Y-10576960D02*
X9658158Y-10567436D01*
X9953396Y-10386484D02*
X9915301Y-10386484D01*
X9915301Y-10386484D02*
X9896253Y-10396008D01*
X9896253Y-10396008D02*
X9886729Y-10405531D01*
X9886729Y-10405531D02*
X9867682Y-10434103D01*
X9867682Y-10434103D02*
X9858158Y-10472198D01*
X9858158Y-10472198D02*
X9858158Y-10548389D01*
X9858158Y-10548389D02*
X9867682Y-10567436D01*
X9867682Y-10567436D02*
X9877206Y-10576960D01*
X9877206Y-10576960D02*
X9896253Y-10586484D01*
X9896253Y-10586484D02*
X9934349Y-10586484D01*
X9934349Y-10586484D02*
X9953396Y-10576960D01*
X9953396Y-10576960D02*
X9962920Y-10567436D01*
X9962920Y-10567436D02*
X9972444Y-10548389D01*
X9972444Y-10548389D02*
X9972444Y-10500770D01*
X9972444Y-10500770D02*
X9962920Y-10481722D01*
X9962920Y-10481722D02*
X9953396Y-10472198D01*
X9953396Y-10472198D02*
X9934349Y-10462674D01*
X9934349Y-10462674D02*
X9896253Y-10462674D01*
X9896253Y-10462674D02*
X9877206Y-10472198D01*
X9877206Y-10472198D02*
X9867682Y-10481722D01*
X9867682Y-10481722D02*
X9858158Y-10500770D01*
X10048634Y-10386484D02*
X10048634Y-10424579D01*
X10124825Y-10386484D02*
X10124825Y-10424579D01*
X10420063Y-10662674D02*
X10410539Y-10653150D01*
X10410539Y-10653150D02*
X10391491Y-10624579D01*
X10391491Y-10624579D02*
X10381968Y-10605531D01*
X10381968Y-10605531D02*
X10372444Y-10576960D01*
X10372444Y-10576960D02*
X10362920Y-10529341D01*
X10362920Y-10529341D02*
X10362920Y-10491246D01*
X10362920Y-10491246D02*
X10372444Y-10443627D01*
X10372444Y-10443627D02*
X10381968Y-10415055D01*
X10381968Y-10415055D02*
X10391491Y-10396008D01*
X10391491Y-10396008D02*
X10410539Y-10367436D01*
X10410539Y-10367436D02*
X10420063Y-10357912D01*
X10486730Y-10405531D02*
X10496253Y-10396008D01*
X10496253Y-10396008D02*
X10515301Y-10386484D01*
X10515301Y-10386484D02*
X10562920Y-10386484D01*
X10562920Y-10386484D02*
X10581968Y-10396008D01*
X10581968Y-10396008D02*
X10591491Y-10405531D01*
X10591491Y-10405531D02*
X10601015Y-10424579D01*
X10601015Y-10424579D02*
X10601015Y-10443627D01*
X10601015Y-10443627D02*
X10591491Y-10472198D01*
X10591491Y-10472198D02*
X10477206Y-10586484D01*
X10477206Y-10586484D02*
X10601015Y-10586484D01*
X10772444Y-10386484D02*
X10734349Y-10386484D01*
X10734349Y-10386484D02*
X10715301Y-10396008D01*
X10715301Y-10396008D02*
X10705777Y-10405531D01*
X10705777Y-10405531D02*
X10686730Y-10434103D01*
X10686730Y-10434103D02*
X10677206Y-10472198D01*
X10677206Y-10472198D02*
X10677206Y-10548389D01*
X10677206Y-10548389D02*
X10686730Y-10567436D01*
X10686730Y-10567436D02*
X10696253Y-10576960D01*
X10696253Y-10576960D02*
X10715301Y-10586484D01*
X10715301Y-10586484D02*
X10753396Y-10586484D01*
X10753396Y-10586484D02*
X10772444Y-10576960D01*
X10772444Y-10576960D02*
X10781968Y-10567436D01*
X10781968Y-10567436D02*
X10791491Y-10548389D01*
X10791491Y-10548389D02*
X10791491Y-10500770D01*
X10791491Y-10500770D02*
X10781968Y-10481722D01*
X10781968Y-10481722D02*
X10772444Y-10472198D01*
X10772444Y-10472198D02*
X10753396Y-10462674D01*
X10753396Y-10462674D02*
X10715301Y-10462674D01*
X10715301Y-10462674D02*
X10696253Y-10472198D01*
X10696253Y-10472198D02*
X10686730Y-10481722D01*
X10686730Y-10481722D02*
X10677206Y-10500770D01*
X11029587Y-10586484D02*
X11029587Y-10386484D01*
X11115301Y-10586484D02*
X11115301Y-10481722D01*
X11115301Y-10481722D02*
X11105777Y-10462674D01*
X11105777Y-10462674D02*
X11086730Y-10453150D01*
X11086730Y-10453150D02*
X11058158Y-10453150D01*
X11058158Y-10453150D02*
X11039111Y-10462674D01*
X11039111Y-10462674D02*
X11029587Y-10472198D01*
X11239110Y-10586484D02*
X11220063Y-10576960D01*
X11220063Y-10576960D02*
X11210539Y-10567436D01*
X11210539Y-10567436D02*
X11201015Y-10548389D01*
X11201015Y-10548389D02*
X11201015Y-10491246D01*
X11201015Y-10491246D02*
X11210539Y-10472198D01*
X11210539Y-10472198D02*
X11220063Y-10462674D01*
X11220063Y-10462674D02*
X11239110Y-10453150D01*
X11239110Y-10453150D02*
X11267682Y-10453150D01*
X11267682Y-10453150D02*
X11286730Y-10462674D01*
X11286730Y-10462674D02*
X11296253Y-10472198D01*
X11296253Y-10472198D02*
X11305777Y-10491246D01*
X11305777Y-10491246D02*
X11305777Y-10548389D01*
X11305777Y-10548389D02*
X11296253Y-10567436D01*
X11296253Y-10567436D02*
X11286730Y-10576960D01*
X11286730Y-10576960D02*
X11267682Y-10586484D01*
X11267682Y-10586484D02*
X11239110Y-10586484D01*
X11420063Y-10586484D02*
X11401015Y-10576960D01*
X11401015Y-10576960D02*
X11391491Y-10557912D01*
X11391491Y-10557912D02*
X11391491Y-10386484D01*
X11572444Y-10576960D02*
X11553396Y-10586484D01*
X11553396Y-10586484D02*
X11515301Y-10586484D01*
X11515301Y-10586484D02*
X11496253Y-10576960D01*
X11496253Y-10576960D02*
X11486730Y-10557912D01*
X11486730Y-10557912D02*
X11486730Y-10481722D01*
X11486730Y-10481722D02*
X11496253Y-10462674D01*
X11496253Y-10462674D02*
X11515301Y-10453150D01*
X11515301Y-10453150D02*
X11553396Y-10453150D01*
X11553396Y-10453150D02*
X11572444Y-10462674D01*
X11572444Y-10462674D02*
X11581968Y-10481722D01*
X11581968Y-10481722D02*
X11581968Y-10500770D01*
X11581968Y-10500770D02*
X11486730Y-10519817D01*
X11658158Y-10576960D02*
X11677206Y-10586484D01*
X11677206Y-10586484D02*
X11715301Y-10586484D01*
X11715301Y-10586484D02*
X11734349Y-10576960D01*
X11734349Y-10576960D02*
X11743872Y-10557912D01*
X11743872Y-10557912D02*
X11743872Y-10548389D01*
X11743872Y-10548389D02*
X11734349Y-10529341D01*
X11734349Y-10529341D02*
X11715301Y-10519817D01*
X11715301Y-10519817D02*
X11686730Y-10519817D01*
X11686730Y-10519817D02*
X11667682Y-10510293D01*
X11667682Y-10510293D02*
X11658158Y-10491246D01*
X11658158Y-10491246D02*
X11658158Y-10481722D01*
X11658158Y-10481722D02*
X11667682Y-10462674D01*
X11667682Y-10462674D02*
X11686730Y-10453150D01*
X11686730Y-10453150D02*
X11715301Y-10453150D01*
X11715301Y-10453150D02*
X11734349Y-10462674D01*
X11810539Y-10662674D02*
X11820063Y-10653150D01*
X11820063Y-10653150D02*
X11839111Y-10624579D01*
X11839111Y-10624579D02*
X11848634Y-10605531D01*
X11848634Y-10605531D02*
X11858158Y-10576960D01*
X11858158Y-10576960D02*
X11867682Y-10529341D01*
X11867682Y-10529341D02*
X11867682Y-10491246D01*
X11867682Y-10491246D02*
X11858158Y-10443627D01*
X11858158Y-10443627D02*
X11848634Y-10415055D01*
X11848634Y-10415055D02*
X11839111Y-10396008D01*
X11839111Y-10396008D02*
X11820063Y-10367436D01*
X11820063Y-10367436D02*
X11810539Y-10357912D01*
D13*
X6845000Y-10759000D02*
G75*
G03*
X6845000Y-10759000I-35000J0D01*
G01*
D11*
X7143872Y-10650484D02*
X7162920Y-10650484D01*
X7162920Y-10650484D02*
X7181967Y-10660008D01*
X7181967Y-10660008D02*
X7191491Y-10669531D01*
X7191491Y-10669531D02*
X7201015Y-10688579D01*
X7201015Y-10688579D02*
X7210539Y-10726674D01*
X7210539Y-10726674D02*
X7210539Y-10774293D01*
X7210539Y-10774293D02*
X7201015Y-10812389D01*
X7201015Y-10812389D02*
X7191491Y-10831436D01*
X7191491Y-10831436D02*
X7181967Y-10840960D01*
X7181967Y-10840960D02*
X7162920Y-10850484D01*
X7162920Y-10850484D02*
X7143872Y-10850484D01*
X7143872Y-10850484D02*
X7124824Y-10840960D01*
X7124824Y-10840960D02*
X7115301Y-10831436D01*
X7115301Y-10831436D02*
X7105777Y-10812389D01*
X7105777Y-10812389D02*
X7096253Y-10774293D01*
X7096253Y-10774293D02*
X7096253Y-10726674D01*
X7096253Y-10726674D02*
X7105777Y-10688579D01*
X7105777Y-10688579D02*
X7115301Y-10669531D01*
X7115301Y-10669531D02*
X7124824Y-10660008D01*
X7124824Y-10660008D02*
X7143872Y-10650484D01*
X7296253Y-10831436D02*
X7305777Y-10840960D01*
X7305777Y-10840960D02*
X7296253Y-10850484D01*
X7296253Y-10850484D02*
X7286729Y-10840960D01*
X7286729Y-10840960D02*
X7296253Y-10831436D01*
X7296253Y-10831436D02*
X7296253Y-10850484D01*
X7372443Y-10650484D02*
X7505777Y-10650484D01*
X7505777Y-10650484D02*
X7420062Y-10850484D01*
X7620062Y-10650484D02*
X7639110Y-10650484D01*
X7639110Y-10650484D02*
X7658158Y-10660008D01*
X7658158Y-10660008D02*
X7667682Y-10669531D01*
X7667682Y-10669531D02*
X7677205Y-10688579D01*
X7677205Y-10688579D02*
X7686729Y-10726674D01*
X7686729Y-10726674D02*
X7686729Y-10774293D01*
X7686729Y-10774293D02*
X7677205Y-10812389D01*
X7677205Y-10812389D02*
X7667682Y-10831436D01*
X7667682Y-10831436D02*
X7658158Y-10840960D01*
X7658158Y-10840960D02*
X7639110Y-10850484D01*
X7639110Y-10850484D02*
X7620062Y-10850484D01*
X7620062Y-10850484D02*
X7601015Y-10840960D01*
X7601015Y-10840960D02*
X7591491Y-10831436D01*
X7591491Y-10831436D02*
X7581967Y-10812389D01*
X7581967Y-10812389D02*
X7572443Y-10774293D01*
X7572443Y-10774293D02*
X7572443Y-10726674D01*
X7572443Y-10726674D02*
X7581967Y-10688579D01*
X7581967Y-10688579D02*
X7591491Y-10669531D01*
X7591491Y-10669531D02*
X7601015Y-10660008D01*
X7601015Y-10660008D02*
X7620062Y-10650484D01*
X7810539Y-10650484D02*
X7829586Y-10650484D01*
X7829586Y-10650484D02*
X7848634Y-10660008D01*
X7848634Y-10660008D02*
X7858158Y-10669531D01*
X7858158Y-10669531D02*
X7867682Y-10688579D01*
X7867682Y-10688579D02*
X7877205Y-10726674D01*
X7877205Y-10726674D02*
X7877205Y-10774293D01*
X7877205Y-10774293D02*
X7867682Y-10812389D01*
X7867682Y-10812389D02*
X7858158Y-10831436D01*
X7858158Y-10831436D02*
X7848634Y-10840960D01*
X7848634Y-10840960D02*
X7829586Y-10850484D01*
X7829586Y-10850484D02*
X7810539Y-10850484D01*
X7810539Y-10850484D02*
X7791491Y-10840960D01*
X7791491Y-10840960D02*
X7781967Y-10831436D01*
X7781967Y-10831436D02*
X7772443Y-10812389D01*
X7772443Y-10812389D02*
X7762920Y-10774293D01*
X7762920Y-10774293D02*
X7762920Y-10726674D01*
X7762920Y-10726674D02*
X7772443Y-10688579D01*
X7772443Y-10688579D02*
X7781967Y-10669531D01*
X7781967Y-10669531D02*
X7791491Y-10660008D01*
X7791491Y-10660008D02*
X7810539Y-10650484D01*
X7962920Y-10850484D02*
X7962920Y-10717150D01*
X7962920Y-10736198D02*
X7972443Y-10726674D01*
X7972443Y-10726674D02*
X7991491Y-10717150D01*
X7991491Y-10717150D02*
X8020063Y-10717150D01*
X8020063Y-10717150D02*
X8039110Y-10726674D01*
X8039110Y-10726674D02*
X8048634Y-10745722D01*
X8048634Y-10745722D02*
X8048634Y-10850484D01*
X8048634Y-10745722D02*
X8058158Y-10726674D01*
X8058158Y-10726674D02*
X8077205Y-10717150D01*
X8077205Y-10717150D02*
X8105777Y-10717150D01*
X8105777Y-10717150D02*
X8124824Y-10726674D01*
X8124824Y-10726674D02*
X8134348Y-10745722D01*
X8134348Y-10745722D02*
X8134348Y-10850484D01*
X8229586Y-10850484D02*
X8229586Y-10717150D01*
X8229586Y-10736198D02*
X8239110Y-10726674D01*
X8239110Y-10726674D02*
X8258158Y-10717150D01*
X8258158Y-10717150D02*
X8286729Y-10717150D01*
X8286729Y-10717150D02*
X8305777Y-10726674D01*
X8305777Y-10726674D02*
X8315301Y-10745722D01*
X8315301Y-10745722D02*
X8315301Y-10850484D01*
X8315301Y-10745722D02*
X8324824Y-10726674D01*
X8324824Y-10726674D02*
X8343872Y-10717150D01*
X8343872Y-10717150D02*
X8372443Y-10717150D01*
X8372443Y-10717150D02*
X8391491Y-10726674D01*
X8391491Y-10726674D02*
X8401015Y-10745722D01*
X8401015Y-10745722D02*
X8401015Y-10850484D01*
X8791491Y-10640960D02*
X8620063Y-10898103D01*
X9048634Y-10650484D02*
X9067682Y-10650484D01*
X9067682Y-10650484D02*
X9086729Y-10660008D01*
X9086729Y-10660008D02*
X9096253Y-10669531D01*
X9096253Y-10669531D02*
X9105777Y-10688579D01*
X9105777Y-10688579D02*
X9115301Y-10726674D01*
X9115301Y-10726674D02*
X9115301Y-10774293D01*
X9115301Y-10774293D02*
X9105777Y-10812389D01*
X9105777Y-10812389D02*
X9096253Y-10831436D01*
X9096253Y-10831436D02*
X9086729Y-10840960D01*
X9086729Y-10840960D02*
X9067682Y-10850484D01*
X9067682Y-10850484D02*
X9048634Y-10850484D01*
X9048634Y-10850484D02*
X9029587Y-10840960D01*
X9029587Y-10840960D02*
X9020063Y-10831436D01*
X9020063Y-10831436D02*
X9010539Y-10812389D01*
X9010539Y-10812389D02*
X9001015Y-10774293D01*
X9001015Y-10774293D02*
X9001015Y-10726674D01*
X9001015Y-10726674D02*
X9010539Y-10688579D01*
X9010539Y-10688579D02*
X9020063Y-10669531D01*
X9020063Y-10669531D02*
X9029587Y-10660008D01*
X9029587Y-10660008D02*
X9048634Y-10650484D01*
X9201015Y-10831436D02*
X9210539Y-10840960D01*
X9210539Y-10840960D02*
X9201015Y-10850484D01*
X9201015Y-10850484D02*
X9191491Y-10840960D01*
X9191491Y-10840960D02*
X9201015Y-10831436D01*
X9201015Y-10831436D02*
X9201015Y-10850484D01*
X9334348Y-10650484D02*
X9353396Y-10650484D01*
X9353396Y-10650484D02*
X9372444Y-10660008D01*
X9372444Y-10660008D02*
X9381968Y-10669531D01*
X9381968Y-10669531D02*
X9391491Y-10688579D01*
X9391491Y-10688579D02*
X9401015Y-10726674D01*
X9401015Y-10726674D02*
X9401015Y-10774293D01*
X9401015Y-10774293D02*
X9391491Y-10812389D01*
X9391491Y-10812389D02*
X9381968Y-10831436D01*
X9381968Y-10831436D02*
X9372444Y-10840960D01*
X9372444Y-10840960D02*
X9353396Y-10850484D01*
X9353396Y-10850484D02*
X9334348Y-10850484D01*
X9334348Y-10850484D02*
X9315301Y-10840960D01*
X9315301Y-10840960D02*
X9305777Y-10831436D01*
X9305777Y-10831436D02*
X9296253Y-10812389D01*
X9296253Y-10812389D02*
X9286729Y-10774293D01*
X9286729Y-10774293D02*
X9286729Y-10726674D01*
X9286729Y-10726674D02*
X9296253Y-10688579D01*
X9296253Y-10688579D02*
X9305777Y-10669531D01*
X9305777Y-10669531D02*
X9315301Y-10660008D01*
X9315301Y-10660008D02*
X9334348Y-10650484D01*
X9477206Y-10669531D02*
X9486729Y-10660008D01*
X9486729Y-10660008D02*
X9505777Y-10650484D01*
X9505777Y-10650484D02*
X9553396Y-10650484D01*
X9553396Y-10650484D02*
X9572444Y-10660008D01*
X9572444Y-10660008D02*
X9581968Y-10669531D01*
X9581968Y-10669531D02*
X9591491Y-10688579D01*
X9591491Y-10688579D02*
X9591491Y-10707627D01*
X9591491Y-10707627D02*
X9581968Y-10736198D01*
X9581968Y-10736198D02*
X9467682Y-10850484D01*
X9467682Y-10850484D02*
X9591491Y-10850484D01*
X9658158Y-10650484D02*
X9791491Y-10650484D01*
X9791491Y-10650484D02*
X9705777Y-10850484D01*
X9953396Y-10650484D02*
X9915301Y-10650484D01*
X9915301Y-10650484D02*
X9896253Y-10660008D01*
X9896253Y-10660008D02*
X9886729Y-10669531D01*
X9886729Y-10669531D02*
X9867682Y-10698103D01*
X9867682Y-10698103D02*
X9858158Y-10736198D01*
X9858158Y-10736198D02*
X9858158Y-10812389D01*
X9858158Y-10812389D02*
X9867682Y-10831436D01*
X9867682Y-10831436D02*
X9877206Y-10840960D01*
X9877206Y-10840960D02*
X9896253Y-10850484D01*
X9896253Y-10850484D02*
X9934349Y-10850484D01*
X9934349Y-10850484D02*
X9953396Y-10840960D01*
X9953396Y-10840960D02*
X9962920Y-10831436D01*
X9962920Y-10831436D02*
X9972444Y-10812389D01*
X9972444Y-10812389D02*
X9972444Y-10764770D01*
X9972444Y-10764770D02*
X9962920Y-10745722D01*
X9962920Y-10745722D02*
X9953396Y-10736198D01*
X9953396Y-10736198D02*
X9934349Y-10726674D01*
X9934349Y-10726674D02*
X9896253Y-10726674D01*
X9896253Y-10726674D02*
X9877206Y-10736198D01*
X9877206Y-10736198D02*
X9867682Y-10745722D01*
X9867682Y-10745722D02*
X9858158Y-10764770D01*
X10048634Y-10650484D02*
X10048634Y-10688579D01*
X10124825Y-10650484D02*
X10124825Y-10688579D01*
X10420063Y-10926674D02*
X10410539Y-10917150D01*
X10410539Y-10917150D02*
X10391491Y-10888579D01*
X10391491Y-10888579D02*
X10381968Y-10869531D01*
X10381968Y-10869531D02*
X10372444Y-10840960D01*
X10372444Y-10840960D02*
X10362920Y-10793341D01*
X10362920Y-10793341D02*
X10362920Y-10755246D01*
X10362920Y-10755246D02*
X10372444Y-10707627D01*
X10372444Y-10707627D02*
X10381968Y-10679055D01*
X10381968Y-10679055D02*
X10391491Y-10660008D01*
X10391491Y-10660008D02*
X10410539Y-10631436D01*
X10410539Y-10631436D02*
X10420063Y-10621912D01*
X10581968Y-10650484D02*
X10543872Y-10650484D01*
X10543872Y-10650484D02*
X10524825Y-10660008D01*
X10524825Y-10660008D02*
X10515301Y-10669531D01*
X10515301Y-10669531D02*
X10496253Y-10698103D01*
X10496253Y-10698103D02*
X10486730Y-10736198D01*
X10486730Y-10736198D02*
X10486730Y-10812389D01*
X10486730Y-10812389D02*
X10496253Y-10831436D01*
X10496253Y-10831436D02*
X10505777Y-10840960D01*
X10505777Y-10840960D02*
X10524825Y-10850484D01*
X10524825Y-10850484D02*
X10562920Y-10850484D01*
X10562920Y-10850484D02*
X10581968Y-10840960D01*
X10581968Y-10840960D02*
X10591491Y-10831436D01*
X10591491Y-10831436D02*
X10601015Y-10812389D01*
X10601015Y-10812389D02*
X10601015Y-10764770D01*
X10601015Y-10764770D02*
X10591491Y-10745722D01*
X10591491Y-10745722D02*
X10581968Y-10736198D01*
X10581968Y-10736198D02*
X10562920Y-10726674D01*
X10562920Y-10726674D02*
X10524825Y-10726674D01*
X10524825Y-10726674D02*
X10505777Y-10736198D01*
X10505777Y-10736198D02*
X10496253Y-10745722D01*
X10496253Y-10745722D02*
X10486730Y-10764770D01*
X10839111Y-10850484D02*
X10839111Y-10650484D01*
X10924825Y-10850484D02*
X10924825Y-10745722D01*
X10924825Y-10745722D02*
X10915301Y-10726674D01*
X10915301Y-10726674D02*
X10896253Y-10717150D01*
X10896253Y-10717150D02*
X10867682Y-10717150D01*
X10867682Y-10717150D02*
X10848634Y-10726674D01*
X10848634Y-10726674D02*
X10839111Y-10736198D01*
X11048634Y-10850484D02*
X11029587Y-10840960D01*
X11029587Y-10840960D02*
X11020063Y-10831436D01*
X11020063Y-10831436D02*
X11010539Y-10812389D01*
X11010539Y-10812389D02*
X11010539Y-10755246D01*
X11010539Y-10755246D02*
X11020063Y-10736198D01*
X11020063Y-10736198D02*
X11029587Y-10726674D01*
X11029587Y-10726674D02*
X11048634Y-10717150D01*
X11048634Y-10717150D02*
X11077206Y-10717150D01*
X11077206Y-10717150D02*
X11096253Y-10726674D01*
X11096253Y-10726674D02*
X11105777Y-10736198D01*
X11105777Y-10736198D02*
X11115301Y-10755246D01*
X11115301Y-10755246D02*
X11115301Y-10812389D01*
X11115301Y-10812389D02*
X11105777Y-10831436D01*
X11105777Y-10831436D02*
X11096253Y-10840960D01*
X11096253Y-10840960D02*
X11077206Y-10850484D01*
X11077206Y-10850484D02*
X11048634Y-10850484D01*
X11229587Y-10850484D02*
X11210539Y-10840960D01*
X11210539Y-10840960D02*
X11201015Y-10821912D01*
X11201015Y-10821912D02*
X11201015Y-10650484D01*
X11381968Y-10840960D02*
X11362920Y-10850484D01*
X11362920Y-10850484D02*
X11324825Y-10850484D01*
X11324825Y-10850484D02*
X11305777Y-10840960D01*
X11305777Y-10840960D02*
X11296253Y-10821912D01*
X11296253Y-10821912D02*
X11296253Y-10745722D01*
X11296253Y-10745722D02*
X11305777Y-10726674D01*
X11305777Y-10726674D02*
X11324825Y-10717150D01*
X11324825Y-10717150D02*
X11362920Y-10717150D01*
X11362920Y-10717150D02*
X11381968Y-10726674D01*
X11381968Y-10726674D02*
X11391491Y-10745722D01*
X11391491Y-10745722D02*
X11391491Y-10764770D01*
X11391491Y-10764770D02*
X11296253Y-10783817D01*
X11467682Y-10840960D02*
X11486730Y-10850484D01*
X11486730Y-10850484D02*
X11524825Y-10850484D01*
X11524825Y-10850484D02*
X11543872Y-10840960D01*
X11543872Y-10840960D02*
X11553396Y-10821912D01*
X11553396Y-10821912D02*
X11553396Y-10812389D01*
X11553396Y-10812389D02*
X11543872Y-10793341D01*
X11543872Y-10793341D02*
X11524825Y-10783817D01*
X11524825Y-10783817D02*
X11496253Y-10783817D01*
X11496253Y-10783817D02*
X11477206Y-10774293D01*
X11477206Y-10774293D02*
X11467682Y-10755246D01*
X11467682Y-10755246D02*
X11467682Y-10745722D01*
X11467682Y-10745722D02*
X11477206Y-10726674D01*
X11477206Y-10726674D02*
X11496253Y-10717150D01*
X11496253Y-10717150D02*
X11524825Y-10717150D01*
X11524825Y-10717150D02*
X11543872Y-10726674D01*
X11620063Y-10926674D02*
X11629587Y-10917150D01*
X11629587Y-10917150D02*
X11648634Y-10888579D01*
X11648634Y-10888579D02*
X11658158Y-10869531D01*
X11658158Y-10869531D02*
X11667682Y-10840960D01*
X11667682Y-10840960D02*
X11677206Y-10793341D01*
X11677206Y-10793341D02*
X11677206Y-10755246D01*
X11677206Y-10755246D02*
X11667682Y-10707627D01*
X11667682Y-10707627D02*
X11658158Y-10679055D01*
X11658158Y-10679055D02*
X11648634Y-10660008D01*
X11648634Y-10660008D02*
X11629587Y-10631436D01*
X11629587Y-10631436D02*
X11620063Y-10621912D01*
D14*
X6807500Y-10985500D02*
X6807500Y-11060500D01*
X6770000Y-11023000D02*
X6845000Y-11023000D01*
D11*
X7143872Y-10914484D02*
X7162920Y-10914484D01*
X7162920Y-10914484D02*
X7181967Y-10924008D01*
X7181967Y-10924008D02*
X7191491Y-10933531D01*
X7191491Y-10933531D02*
X7201015Y-10952579D01*
X7201015Y-10952579D02*
X7210539Y-10990674D01*
X7210539Y-10990674D02*
X7210539Y-11038293D01*
X7210539Y-11038293D02*
X7201015Y-11076389D01*
X7201015Y-11076389D02*
X7191491Y-11095436D01*
X7191491Y-11095436D02*
X7181967Y-11104960D01*
X7181967Y-11104960D02*
X7162920Y-11114484D01*
X7162920Y-11114484D02*
X7143872Y-11114484D01*
X7143872Y-11114484D02*
X7124824Y-11104960D01*
X7124824Y-11104960D02*
X7115301Y-11095436D01*
X7115301Y-11095436D02*
X7105777Y-11076389D01*
X7105777Y-11076389D02*
X7096253Y-11038293D01*
X7096253Y-11038293D02*
X7096253Y-10990674D01*
X7096253Y-10990674D02*
X7105777Y-10952579D01*
X7105777Y-10952579D02*
X7115301Y-10933531D01*
X7115301Y-10933531D02*
X7124824Y-10924008D01*
X7124824Y-10924008D02*
X7143872Y-10914484D01*
X7296253Y-11095436D02*
X7305777Y-11104960D01*
X7305777Y-11104960D02*
X7296253Y-11114484D01*
X7296253Y-11114484D02*
X7286729Y-11104960D01*
X7286729Y-11104960D02*
X7296253Y-11095436D01*
X7296253Y-11095436D02*
X7296253Y-11114484D01*
X7372443Y-10914484D02*
X7505777Y-10914484D01*
X7505777Y-10914484D02*
X7420062Y-11114484D01*
X7677205Y-10914484D02*
X7581967Y-10914484D01*
X7581967Y-10914484D02*
X7572443Y-11009722D01*
X7572443Y-11009722D02*
X7581967Y-11000198D01*
X7581967Y-11000198D02*
X7601015Y-10990674D01*
X7601015Y-10990674D02*
X7648634Y-10990674D01*
X7648634Y-10990674D02*
X7667682Y-11000198D01*
X7667682Y-11000198D02*
X7677205Y-11009722D01*
X7677205Y-11009722D02*
X7686729Y-11028770D01*
X7686729Y-11028770D02*
X7686729Y-11076389D01*
X7686729Y-11076389D02*
X7677205Y-11095436D01*
X7677205Y-11095436D02*
X7667682Y-11104960D01*
X7667682Y-11104960D02*
X7648634Y-11114484D01*
X7648634Y-11114484D02*
X7601015Y-11114484D01*
X7601015Y-11114484D02*
X7581967Y-11104960D01*
X7581967Y-11104960D02*
X7572443Y-11095436D01*
X7810539Y-10914484D02*
X7829586Y-10914484D01*
X7829586Y-10914484D02*
X7848634Y-10924008D01*
X7848634Y-10924008D02*
X7858158Y-10933531D01*
X7858158Y-10933531D02*
X7867682Y-10952579D01*
X7867682Y-10952579D02*
X7877205Y-10990674D01*
X7877205Y-10990674D02*
X7877205Y-11038293D01*
X7877205Y-11038293D02*
X7867682Y-11076389D01*
X7867682Y-11076389D02*
X7858158Y-11095436D01*
X7858158Y-11095436D02*
X7848634Y-11104960D01*
X7848634Y-11104960D02*
X7829586Y-11114484D01*
X7829586Y-11114484D02*
X7810539Y-11114484D01*
X7810539Y-11114484D02*
X7791491Y-11104960D01*
X7791491Y-11104960D02*
X7781967Y-11095436D01*
X7781967Y-11095436D02*
X7772443Y-11076389D01*
X7772443Y-11076389D02*
X7762920Y-11038293D01*
X7762920Y-11038293D02*
X7762920Y-10990674D01*
X7762920Y-10990674D02*
X7772443Y-10952579D01*
X7772443Y-10952579D02*
X7781967Y-10933531D01*
X7781967Y-10933531D02*
X7791491Y-10924008D01*
X7791491Y-10924008D02*
X7810539Y-10914484D01*
X7962920Y-11114484D02*
X7962920Y-10981150D01*
X7962920Y-11000198D02*
X7972443Y-10990674D01*
X7972443Y-10990674D02*
X7991491Y-10981150D01*
X7991491Y-10981150D02*
X8020063Y-10981150D01*
X8020063Y-10981150D02*
X8039110Y-10990674D01*
X8039110Y-10990674D02*
X8048634Y-11009722D01*
X8048634Y-11009722D02*
X8048634Y-11114484D01*
X8048634Y-11009722D02*
X8058158Y-10990674D01*
X8058158Y-10990674D02*
X8077205Y-10981150D01*
X8077205Y-10981150D02*
X8105777Y-10981150D01*
X8105777Y-10981150D02*
X8124824Y-10990674D01*
X8124824Y-10990674D02*
X8134348Y-11009722D01*
X8134348Y-11009722D02*
X8134348Y-11114484D01*
X8229586Y-11114484D02*
X8229586Y-10981150D01*
X8229586Y-11000198D02*
X8239110Y-10990674D01*
X8239110Y-10990674D02*
X8258158Y-10981150D01*
X8258158Y-10981150D02*
X8286729Y-10981150D01*
X8286729Y-10981150D02*
X8305777Y-10990674D01*
X8305777Y-10990674D02*
X8315301Y-11009722D01*
X8315301Y-11009722D02*
X8315301Y-11114484D01*
X8315301Y-11009722D02*
X8324824Y-10990674D01*
X8324824Y-10990674D02*
X8343872Y-10981150D01*
X8343872Y-10981150D02*
X8372443Y-10981150D01*
X8372443Y-10981150D02*
X8391491Y-10990674D01*
X8391491Y-10990674D02*
X8401015Y-11009722D01*
X8401015Y-11009722D02*
X8401015Y-11114484D01*
X8791491Y-10904960D02*
X8620063Y-11162103D01*
X9048634Y-10914484D02*
X9067682Y-10914484D01*
X9067682Y-10914484D02*
X9086729Y-10924008D01*
X9086729Y-10924008D02*
X9096253Y-10933531D01*
X9096253Y-10933531D02*
X9105777Y-10952579D01*
X9105777Y-10952579D02*
X9115301Y-10990674D01*
X9115301Y-10990674D02*
X9115301Y-11038293D01*
X9115301Y-11038293D02*
X9105777Y-11076389D01*
X9105777Y-11076389D02*
X9096253Y-11095436D01*
X9096253Y-11095436D02*
X9086729Y-11104960D01*
X9086729Y-11104960D02*
X9067682Y-11114484D01*
X9067682Y-11114484D02*
X9048634Y-11114484D01*
X9048634Y-11114484D02*
X9029587Y-11104960D01*
X9029587Y-11104960D02*
X9020063Y-11095436D01*
X9020063Y-11095436D02*
X9010539Y-11076389D01*
X9010539Y-11076389D02*
X9001015Y-11038293D01*
X9001015Y-11038293D02*
X9001015Y-10990674D01*
X9001015Y-10990674D02*
X9010539Y-10952579D01*
X9010539Y-10952579D02*
X9020063Y-10933531D01*
X9020063Y-10933531D02*
X9029587Y-10924008D01*
X9029587Y-10924008D02*
X9048634Y-10914484D01*
X9201015Y-11095436D02*
X9210539Y-11104960D01*
X9210539Y-11104960D02*
X9201015Y-11114484D01*
X9201015Y-11114484D02*
X9191491Y-11104960D01*
X9191491Y-11104960D02*
X9201015Y-11095436D01*
X9201015Y-11095436D02*
X9201015Y-11114484D01*
X9334348Y-10914484D02*
X9353396Y-10914484D01*
X9353396Y-10914484D02*
X9372444Y-10924008D01*
X9372444Y-10924008D02*
X9381968Y-10933531D01*
X9381968Y-10933531D02*
X9391491Y-10952579D01*
X9391491Y-10952579D02*
X9401015Y-10990674D01*
X9401015Y-10990674D02*
X9401015Y-11038293D01*
X9401015Y-11038293D02*
X9391491Y-11076389D01*
X9391491Y-11076389D02*
X9381968Y-11095436D01*
X9381968Y-11095436D02*
X9372444Y-11104960D01*
X9372444Y-11104960D02*
X9353396Y-11114484D01*
X9353396Y-11114484D02*
X9334348Y-11114484D01*
X9334348Y-11114484D02*
X9315301Y-11104960D01*
X9315301Y-11104960D02*
X9305777Y-11095436D01*
X9305777Y-11095436D02*
X9296253Y-11076389D01*
X9296253Y-11076389D02*
X9286729Y-11038293D01*
X9286729Y-11038293D02*
X9286729Y-10990674D01*
X9286729Y-10990674D02*
X9296253Y-10952579D01*
X9296253Y-10952579D02*
X9305777Y-10933531D01*
X9305777Y-10933531D02*
X9315301Y-10924008D01*
X9315301Y-10924008D02*
X9334348Y-10914484D01*
X9477206Y-10933531D02*
X9486729Y-10924008D01*
X9486729Y-10924008D02*
X9505777Y-10914484D01*
X9505777Y-10914484D02*
X9553396Y-10914484D01*
X9553396Y-10914484D02*
X9572444Y-10924008D01*
X9572444Y-10924008D02*
X9581968Y-10933531D01*
X9581968Y-10933531D02*
X9591491Y-10952579D01*
X9591491Y-10952579D02*
X9591491Y-10971627D01*
X9591491Y-10971627D02*
X9581968Y-11000198D01*
X9581968Y-11000198D02*
X9467682Y-11114484D01*
X9467682Y-11114484D02*
X9591491Y-11114484D01*
X9686729Y-11114484D02*
X9724825Y-11114484D01*
X9724825Y-11114484D02*
X9743872Y-11104960D01*
X9743872Y-11104960D02*
X9753396Y-11095436D01*
X9753396Y-11095436D02*
X9772444Y-11066865D01*
X9772444Y-11066865D02*
X9781968Y-11028770D01*
X9781968Y-11028770D02*
X9781968Y-10952579D01*
X9781968Y-10952579D02*
X9772444Y-10933531D01*
X9772444Y-10933531D02*
X9762920Y-10924008D01*
X9762920Y-10924008D02*
X9743872Y-10914484D01*
X9743872Y-10914484D02*
X9705777Y-10914484D01*
X9705777Y-10914484D02*
X9686729Y-10924008D01*
X9686729Y-10924008D02*
X9677206Y-10933531D01*
X9677206Y-10933531D02*
X9667682Y-10952579D01*
X9667682Y-10952579D02*
X9667682Y-11000198D01*
X9667682Y-11000198D02*
X9677206Y-11019246D01*
X9677206Y-11019246D02*
X9686729Y-11028770D01*
X9686729Y-11028770D02*
X9705777Y-11038293D01*
X9705777Y-11038293D02*
X9743872Y-11038293D01*
X9743872Y-11038293D02*
X9762920Y-11028770D01*
X9762920Y-11028770D02*
X9772444Y-11019246D01*
X9772444Y-11019246D02*
X9781968Y-11000198D01*
X9962920Y-10914484D02*
X9867682Y-10914484D01*
X9867682Y-10914484D02*
X9858158Y-11009722D01*
X9858158Y-11009722D02*
X9867682Y-11000198D01*
X9867682Y-11000198D02*
X9886729Y-10990674D01*
X9886729Y-10990674D02*
X9934349Y-10990674D01*
X9934349Y-10990674D02*
X9953396Y-11000198D01*
X9953396Y-11000198D02*
X9962920Y-11009722D01*
X9962920Y-11009722D02*
X9972444Y-11028770D01*
X9972444Y-11028770D02*
X9972444Y-11076389D01*
X9972444Y-11076389D02*
X9962920Y-11095436D01*
X9962920Y-11095436D02*
X9953396Y-11104960D01*
X9953396Y-11104960D02*
X9934349Y-11114484D01*
X9934349Y-11114484D02*
X9886729Y-11114484D01*
X9886729Y-11114484D02*
X9867682Y-11104960D01*
X9867682Y-11104960D02*
X9858158Y-11095436D01*
X10048634Y-10914484D02*
X10048634Y-10952579D01*
X10124825Y-10914484D02*
X10124825Y-10952579D01*
X10420063Y-11190674D02*
X10410539Y-11181150D01*
X10410539Y-11181150D02*
X10391491Y-11152579D01*
X10391491Y-11152579D02*
X10381968Y-11133531D01*
X10381968Y-11133531D02*
X10372444Y-11104960D01*
X10372444Y-11104960D02*
X10362920Y-11057341D01*
X10362920Y-11057341D02*
X10362920Y-11019246D01*
X10362920Y-11019246D02*
X10372444Y-10971627D01*
X10372444Y-10971627D02*
X10381968Y-10943055D01*
X10381968Y-10943055D02*
X10391491Y-10924008D01*
X10391491Y-10924008D02*
X10410539Y-10895436D01*
X10410539Y-10895436D02*
X10420063Y-10885912D01*
X10486730Y-10933531D02*
X10496253Y-10924008D01*
X10496253Y-10924008D02*
X10515301Y-10914484D01*
X10515301Y-10914484D02*
X10562920Y-10914484D01*
X10562920Y-10914484D02*
X10581968Y-10924008D01*
X10581968Y-10924008D02*
X10591491Y-10933531D01*
X10591491Y-10933531D02*
X10601015Y-10952579D01*
X10601015Y-10952579D02*
X10601015Y-10971627D01*
X10601015Y-10971627D02*
X10591491Y-11000198D01*
X10591491Y-11000198D02*
X10477206Y-11114484D01*
X10477206Y-11114484D02*
X10601015Y-11114484D01*
X10839111Y-11114484D02*
X10839111Y-10914484D01*
X10924825Y-11114484D02*
X10924825Y-11009722D01*
X10924825Y-11009722D02*
X10915301Y-10990674D01*
X10915301Y-10990674D02*
X10896253Y-10981150D01*
X10896253Y-10981150D02*
X10867682Y-10981150D01*
X10867682Y-10981150D02*
X10848634Y-10990674D01*
X10848634Y-10990674D02*
X10839111Y-11000198D01*
X11048634Y-11114484D02*
X11029587Y-11104960D01*
X11029587Y-11104960D02*
X11020063Y-11095436D01*
X11020063Y-11095436D02*
X11010539Y-11076389D01*
X11010539Y-11076389D02*
X11010539Y-11019246D01*
X11010539Y-11019246D02*
X11020063Y-11000198D01*
X11020063Y-11000198D02*
X11029587Y-10990674D01*
X11029587Y-10990674D02*
X11048634Y-10981150D01*
X11048634Y-10981150D02*
X11077206Y-10981150D01*
X11077206Y-10981150D02*
X11096253Y-10990674D01*
X11096253Y-10990674D02*
X11105777Y-11000198D01*
X11105777Y-11000198D02*
X11115301Y-11019246D01*
X11115301Y-11019246D02*
X11115301Y-11076389D01*
X11115301Y-11076389D02*
X11105777Y-11095436D01*
X11105777Y-11095436D02*
X11096253Y-11104960D01*
X11096253Y-11104960D02*
X11077206Y-11114484D01*
X11077206Y-11114484D02*
X11048634Y-11114484D01*
X11229587Y-11114484D02*
X11210539Y-11104960D01*
X11210539Y-11104960D02*
X11201015Y-11085912D01*
X11201015Y-11085912D02*
X11201015Y-10914484D01*
X11381968Y-11104960D02*
X11362920Y-11114484D01*
X11362920Y-11114484D02*
X11324825Y-11114484D01*
X11324825Y-11114484D02*
X11305777Y-11104960D01*
X11305777Y-11104960D02*
X11296253Y-11085912D01*
X11296253Y-11085912D02*
X11296253Y-11009722D01*
X11296253Y-11009722D02*
X11305777Y-10990674D01*
X11305777Y-10990674D02*
X11324825Y-10981150D01*
X11324825Y-10981150D02*
X11362920Y-10981150D01*
X11362920Y-10981150D02*
X11381968Y-10990674D01*
X11381968Y-10990674D02*
X11391491Y-11009722D01*
X11391491Y-11009722D02*
X11391491Y-11028770D01*
X11391491Y-11028770D02*
X11296253Y-11047817D01*
X11467682Y-11104960D02*
X11486730Y-11114484D01*
X11486730Y-11114484D02*
X11524825Y-11114484D01*
X11524825Y-11114484D02*
X11543872Y-11104960D01*
X11543872Y-11104960D02*
X11553396Y-11085912D01*
X11553396Y-11085912D02*
X11553396Y-11076389D01*
X11553396Y-11076389D02*
X11543872Y-11057341D01*
X11543872Y-11057341D02*
X11524825Y-11047817D01*
X11524825Y-11047817D02*
X11496253Y-11047817D01*
X11496253Y-11047817D02*
X11477206Y-11038293D01*
X11477206Y-11038293D02*
X11467682Y-11019246D01*
X11467682Y-11019246D02*
X11467682Y-11009722D01*
X11467682Y-11009722D02*
X11477206Y-10990674D01*
X11477206Y-10990674D02*
X11496253Y-10981150D01*
X11496253Y-10981150D02*
X11524825Y-10981150D01*
X11524825Y-10981150D02*
X11543872Y-10990674D01*
X11620063Y-11190674D02*
X11629587Y-11181150D01*
X11629587Y-11181150D02*
X11648634Y-11152579D01*
X11648634Y-11152579D02*
X11658158Y-11133531D01*
X11658158Y-11133531D02*
X11667682Y-11104960D01*
X11667682Y-11104960D02*
X11677206Y-11057341D01*
X11677206Y-11057341D02*
X11677206Y-11019246D01*
X11677206Y-11019246D02*
X11667682Y-10971627D01*
X11667682Y-10971627D02*
X11658158Y-10943055D01*
X11658158Y-10943055D02*
X11648634Y-10924008D01*
X11648634Y-10924008D02*
X11629587Y-10895436D01*
X11629587Y-10895436D02*
X11620063Y-10885912D01*
D15*
X6833284Y-11315284D02*
X6833284Y-11258715D01*
X6776715Y-11258715D01*
X6776715Y-11315284D01*
X6833284Y-11315284D01*
D11*
X7143872Y-11178484D02*
X7162920Y-11178484D01*
X7162920Y-11178484D02*
X7181967Y-11188008D01*
X7181967Y-11188008D02*
X7191491Y-11197531D01*
X7191491Y-11197531D02*
X7201015Y-11216579D01*
X7201015Y-11216579D02*
X7210539Y-11254674D01*
X7210539Y-11254674D02*
X7210539Y-11302293D01*
X7210539Y-11302293D02*
X7201015Y-11340388D01*
X7201015Y-11340388D02*
X7191491Y-11359436D01*
X7191491Y-11359436D02*
X7181967Y-11368960D01*
X7181967Y-11368960D02*
X7162920Y-11378484D01*
X7162920Y-11378484D02*
X7143872Y-11378484D01*
X7143872Y-11378484D02*
X7124824Y-11368960D01*
X7124824Y-11368960D02*
X7115301Y-11359436D01*
X7115301Y-11359436D02*
X7105777Y-11340388D01*
X7105777Y-11340388D02*
X7096253Y-11302293D01*
X7096253Y-11302293D02*
X7096253Y-11254674D01*
X7096253Y-11254674D02*
X7105777Y-11216579D01*
X7105777Y-11216579D02*
X7115301Y-11197531D01*
X7115301Y-11197531D02*
X7124824Y-11188008D01*
X7124824Y-11188008D02*
X7143872Y-11178484D01*
X7296253Y-11359436D02*
X7305777Y-11368960D01*
X7305777Y-11368960D02*
X7296253Y-11378484D01*
X7296253Y-11378484D02*
X7286729Y-11368960D01*
X7286729Y-11368960D02*
X7296253Y-11359436D01*
X7296253Y-11359436D02*
X7296253Y-11378484D01*
X7420062Y-11264198D02*
X7401015Y-11254674D01*
X7401015Y-11254674D02*
X7391491Y-11245150D01*
X7391491Y-11245150D02*
X7381967Y-11226103D01*
X7381967Y-11226103D02*
X7381967Y-11216579D01*
X7381967Y-11216579D02*
X7391491Y-11197531D01*
X7391491Y-11197531D02*
X7401015Y-11188008D01*
X7401015Y-11188008D02*
X7420062Y-11178484D01*
X7420062Y-11178484D02*
X7458158Y-11178484D01*
X7458158Y-11178484D02*
X7477205Y-11188008D01*
X7477205Y-11188008D02*
X7486729Y-11197531D01*
X7486729Y-11197531D02*
X7496253Y-11216579D01*
X7496253Y-11216579D02*
X7496253Y-11226103D01*
X7496253Y-11226103D02*
X7486729Y-11245150D01*
X7486729Y-11245150D02*
X7477205Y-11254674D01*
X7477205Y-11254674D02*
X7458158Y-11264198D01*
X7458158Y-11264198D02*
X7420062Y-11264198D01*
X7420062Y-11264198D02*
X7401015Y-11273722D01*
X7401015Y-11273722D02*
X7391491Y-11283246D01*
X7391491Y-11283246D02*
X7381967Y-11302293D01*
X7381967Y-11302293D02*
X7381967Y-11340388D01*
X7381967Y-11340388D02*
X7391491Y-11359436D01*
X7391491Y-11359436D02*
X7401015Y-11368960D01*
X7401015Y-11368960D02*
X7420062Y-11378484D01*
X7420062Y-11378484D02*
X7458158Y-11378484D01*
X7458158Y-11378484D02*
X7477205Y-11368960D01*
X7477205Y-11368960D02*
X7486729Y-11359436D01*
X7486729Y-11359436D02*
X7496253Y-11340388D01*
X7496253Y-11340388D02*
X7496253Y-11302293D01*
X7496253Y-11302293D02*
X7486729Y-11283246D01*
X7486729Y-11283246D02*
X7477205Y-11273722D01*
X7477205Y-11273722D02*
X7458158Y-11264198D01*
X7620062Y-11178484D02*
X7639110Y-11178484D01*
X7639110Y-11178484D02*
X7658158Y-11188008D01*
X7658158Y-11188008D02*
X7667682Y-11197531D01*
X7667682Y-11197531D02*
X7677205Y-11216579D01*
X7677205Y-11216579D02*
X7686729Y-11254674D01*
X7686729Y-11254674D02*
X7686729Y-11302293D01*
X7686729Y-11302293D02*
X7677205Y-11340388D01*
X7677205Y-11340388D02*
X7667682Y-11359436D01*
X7667682Y-11359436D02*
X7658158Y-11368960D01*
X7658158Y-11368960D02*
X7639110Y-11378484D01*
X7639110Y-11378484D02*
X7620062Y-11378484D01*
X7620062Y-11378484D02*
X7601015Y-11368960D01*
X7601015Y-11368960D02*
X7591491Y-11359436D01*
X7591491Y-11359436D02*
X7581967Y-11340388D01*
X7581967Y-11340388D02*
X7572443Y-11302293D01*
X7572443Y-11302293D02*
X7572443Y-11254674D01*
X7572443Y-11254674D02*
X7581967Y-11216579D01*
X7581967Y-11216579D02*
X7591491Y-11197531D01*
X7591491Y-11197531D02*
X7601015Y-11188008D01*
X7601015Y-11188008D02*
X7620062Y-11178484D01*
X7810539Y-11178484D02*
X7829586Y-11178484D01*
X7829586Y-11178484D02*
X7848634Y-11188008D01*
X7848634Y-11188008D02*
X7858158Y-11197531D01*
X7858158Y-11197531D02*
X7867682Y-11216579D01*
X7867682Y-11216579D02*
X7877205Y-11254674D01*
X7877205Y-11254674D02*
X7877205Y-11302293D01*
X7877205Y-11302293D02*
X7867682Y-11340388D01*
X7867682Y-11340388D02*
X7858158Y-11359436D01*
X7858158Y-11359436D02*
X7848634Y-11368960D01*
X7848634Y-11368960D02*
X7829586Y-11378484D01*
X7829586Y-11378484D02*
X7810539Y-11378484D01*
X7810539Y-11378484D02*
X7791491Y-11368960D01*
X7791491Y-11368960D02*
X7781967Y-11359436D01*
X7781967Y-11359436D02*
X7772443Y-11340388D01*
X7772443Y-11340388D02*
X7762920Y-11302293D01*
X7762920Y-11302293D02*
X7762920Y-11254674D01*
X7762920Y-11254674D02*
X7772443Y-11216579D01*
X7772443Y-11216579D02*
X7781967Y-11197531D01*
X7781967Y-11197531D02*
X7791491Y-11188008D01*
X7791491Y-11188008D02*
X7810539Y-11178484D01*
X7962920Y-11378484D02*
X7962920Y-11245150D01*
X7962920Y-11264198D02*
X7972443Y-11254674D01*
X7972443Y-11254674D02*
X7991491Y-11245150D01*
X7991491Y-11245150D02*
X8020063Y-11245150D01*
X8020063Y-11245150D02*
X8039110Y-11254674D01*
X8039110Y-11254674D02*
X8048634Y-11273722D01*
X8048634Y-11273722D02*
X8048634Y-11378484D01*
X8048634Y-11273722D02*
X8058158Y-11254674D01*
X8058158Y-11254674D02*
X8077205Y-11245150D01*
X8077205Y-11245150D02*
X8105777Y-11245150D01*
X8105777Y-11245150D02*
X8124824Y-11254674D01*
X8124824Y-11254674D02*
X8134348Y-11273722D01*
X8134348Y-11273722D02*
X8134348Y-11378484D01*
X8229586Y-11378484D02*
X8229586Y-11245150D01*
X8229586Y-11264198D02*
X8239110Y-11254674D01*
X8239110Y-11254674D02*
X8258158Y-11245150D01*
X8258158Y-11245150D02*
X8286729Y-11245150D01*
X8286729Y-11245150D02*
X8305777Y-11254674D01*
X8305777Y-11254674D02*
X8315301Y-11273722D01*
X8315301Y-11273722D02*
X8315301Y-11378484D01*
X8315301Y-11273722D02*
X8324824Y-11254674D01*
X8324824Y-11254674D02*
X8343872Y-11245150D01*
X8343872Y-11245150D02*
X8372443Y-11245150D01*
X8372443Y-11245150D02*
X8391491Y-11254674D01*
X8391491Y-11254674D02*
X8401015Y-11273722D01*
X8401015Y-11273722D02*
X8401015Y-11378484D01*
X8791491Y-11168960D02*
X8620063Y-11426103D01*
X9048634Y-11178484D02*
X9067682Y-11178484D01*
X9067682Y-11178484D02*
X9086729Y-11188008D01*
X9086729Y-11188008D02*
X9096253Y-11197531D01*
X9096253Y-11197531D02*
X9105777Y-11216579D01*
X9105777Y-11216579D02*
X9115301Y-11254674D01*
X9115301Y-11254674D02*
X9115301Y-11302293D01*
X9115301Y-11302293D02*
X9105777Y-11340388D01*
X9105777Y-11340388D02*
X9096253Y-11359436D01*
X9096253Y-11359436D02*
X9086729Y-11368960D01*
X9086729Y-11368960D02*
X9067682Y-11378484D01*
X9067682Y-11378484D02*
X9048634Y-11378484D01*
X9048634Y-11378484D02*
X9029587Y-11368960D01*
X9029587Y-11368960D02*
X9020063Y-11359436D01*
X9020063Y-11359436D02*
X9010539Y-11340388D01*
X9010539Y-11340388D02*
X9001015Y-11302293D01*
X9001015Y-11302293D02*
X9001015Y-11254674D01*
X9001015Y-11254674D02*
X9010539Y-11216579D01*
X9010539Y-11216579D02*
X9020063Y-11197531D01*
X9020063Y-11197531D02*
X9029587Y-11188008D01*
X9029587Y-11188008D02*
X9048634Y-11178484D01*
X9201015Y-11359436D02*
X9210539Y-11368960D01*
X9210539Y-11368960D02*
X9201015Y-11378484D01*
X9201015Y-11378484D02*
X9191491Y-11368960D01*
X9191491Y-11368960D02*
X9201015Y-11359436D01*
X9201015Y-11359436D02*
X9201015Y-11378484D01*
X9334348Y-11178484D02*
X9353396Y-11178484D01*
X9353396Y-11178484D02*
X9372444Y-11188008D01*
X9372444Y-11188008D02*
X9381968Y-11197531D01*
X9381968Y-11197531D02*
X9391491Y-11216579D01*
X9391491Y-11216579D02*
X9401015Y-11254674D01*
X9401015Y-11254674D02*
X9401015Y-11302293D01*
X9401015Y-11302293D02*
X9391491Y-11340388D01*
X9391491Y-11340388D02*
X9381968Y-11359436D01*
X9381968Y-11359436D02*
X9372444Y-11368960D01*
X9372444Y-11368960D02*
X9353396Y-11378484D01*
X9353396Y-11378484D02*
X9334348Y-11378484D01*
X9334348Y-11378484D02*
X9315301Y-11368960D01*
X9315301Y-11368960D02*
X9305777Y-11359436D01*
X9305777Y-11359436D02*
X9296253Y-11340388D01*
X9296253Y-11340388D02*
X9286729Y-11302293D01*
X9286729Y-11302293D02*
X9286729Y-11254674D01*
X9286729Y-11254674D02*
X9296253Y-11216579D01*
X9296253Y-11216579D02*
X9305777Y-11197531D01*
X9305777Y-11197531D02*
X9315301Y-11188008D01*
X9315301Y-11188008D02*
X9334348Y-11178484D01*
X9467682Y-11178484D02*
X9591491Y-11178484D01*
X9591491Y-11178484D02*
X9524825Y-11254674D01*
X9524825Y-11254674D02*
X9553396Y-11254674D01*
X9553396Y-11254674D02*
X9572444Y-11264198D01*
X9572444Y-11264198D02*
X9581968Y-11273722D01*
X9581968Y-11273722D02*
X9591491Y-11292769D01*
X9591491Y-11292769D02*
X9591491Y-11340388D01*
X9591491Y-11340388D02*
X9581968Y-11359436D01*
X9581968Y-11359436D02*
X9572444Y-11368960D01*
X9572444Y-11368960D02*
X9553396Y-11378484D01*
X9553396Y-11378484D02*
X9496253Y-11378484D01*
X9496253Y-11378484D02*
X9477206Y-11368960D01*
X9477206Y-11368960D02*
X9467682Y-11359436D01*
X9781968Y-11378484D02*
X9667682Y-11378484D01*
X9724825Y-11378484D02*
X9724825Y-11178484D01*
X9724825Y-11178484D02*
X9705777Y-11207055D01*
X9705777Y-11207055D02*
X9686729Y-11226103D01*
X9686729Y-11226103D02*
X9667682Y-11235627D01*
X9962920Y-11178484D02*
X9867682Y-11178484D01*
X9867682Y-11178484D02*
X9858158Y-11273722D01*
X9858158Y-11273722D02*
X9867682Y-11264198D01*
X9867682Y-11264198D02*
X9886729Y-11254674D01*
X9886729Y-11254674D02*
X9934349Y-11254674D01*
X9934349Y-11254674D02*
X9953396Y-11264198D01*
X9953396Y-11264198D02*
X9962920Y-11273722D01*
X9962920Y-11273722D02*
X9972444Y-11292769D01*
X9972444Y-11292769D02*
X9972444Y-11340388D01*
X9972444Y-11340388D02*
X9962920Y-11359436D01*
X9962920Y-11359436D02*
X9953396Y-11368960D01*
X9953396Y-11368960D02*
X9934349Y-11378484D01*
X9934349Y-11378484D02*
X9886729Y-11378484D01*
X9886729Y-11378484D02*
X9867682Y-11368960D01*
X9867682Y-11368960D02*
X9858158Y-11359436D01*
X10048634Y-11178484D02*
X10048634Y-11216579D01*
X10124825Y-11178484D02*
X10124825Y-11216579D01*
X10420063Y-11454674D02*
X10410539Y-11445150D01*
X10410539Y-11445150D02*
X10391491Y-11416579D01*
X10391491Y-11416579D02*
X10381968Y-11397531D01*
X10381968Y-11397531D02*
X10372444Y-11368960D01*
X10372444Y-11368960D02*
X10362920Y-11321341D01*
X10362920Y-11321341D02*
X10362920Y-11283246D01*
X10362920Y-11283246D02*
X10372444Y-11235627D01*
X10372444Y-11235627D02*
X10381968Y-11207055D01*
X10381968Y-11207055D02*
X10391491Y-11188008D01*
X10391491Y-11188008D02*
X10410539Y-11159436D01*
X10410539Y-11159436D02*
X10420063Y-11149912D01*
X10601015Y-11378484D02*
X10486730Y-11378484D01*
X10543872Y-11378484D02*
X10543872Y-11178484D01*
X10543872Y-11178484D02*
X10524825Y-11207055D01*
X10524825Y-11207055D02*
X10505777Y-11226103D01*
X10505777Y-11226103D02*
X10486730Y-11235627D01*
X10696253Y-11378484D02*
X10734349Y-11378484D01*
X10734349Y-11378484D02*
X10753396Y-11368960D01*
X10753396Y-11368960D02*
X10762920Y-11359436D01*
X10762920Y-11359436D02*
X10781968Y-11330865D01*
X10781968Y-11330865D02*
X10791491Y-11292769D01*
X10791491Y-11292769D02*
X10791491Y-11216579D01*
X10791491Y-11216579D02*
X10781968Y-11197531D01*
X10781968Y-11197531D02*
X10772444Y-11188008D01*
X10772444Y-11188008D02*
X10753396Y-11178484D01*
X10753396Y-11178484D02*
X10715301Y-11178484D01*
X10715301Y-11178484D02*
X10696253Y-11188008D01*
X10696253Y-11188008D02*
X10686730Y-11197531D01*
X10686730Y-11197531D02*
X10677206Y-11216579D01*
X10677206Y-11216579D02*
X10677206Y-11264198D01*
X10677206Y-11264198D02*
X10686730Y-11283246D01*
X10686730Y-11283246D02*
X10696253Y-11292769D01*
X10696253Y-11292769D02*
X10715301Y-11302293D01*
X10715301Y-11302293D02*
X10753396Y-11302293D01*
X10753396Y-11302293D02*
X10772444Y-11292769D01*
X10772444Y-11292769D02*
X10781968Y-11283246D01*
X10781968Y-11283246D02*
X10791491Y-11264198D01*
X11029587Y-11378484D02*
X11029587Y-11178484D01*
X11115301Y-11378484D02*
X11115301Y-11273722D01*
X11115301Y-11273722D02*
X11105777Y-11254674D01*
X11105777Y-11254674D02*
X11086730Y-11245150D01*
X11086730Y-11245150D02*
X11058158Y-11245150D01*
X11058158Y-11245150D02*
X11039111Y-11254674D01*
X11039111Y-11254674D02*
X11029587Y-11264198D01*
X11239110Y-11378484D02*
X11220063Y-11368960D01*
X11220063Y-11368960D02*
X11210539Y-11359436D01*
X11210539Y-11359436D02*
X11201015Y-11340388D01*
X11201015Y-11340388D02*
X11201015Y-11283246D01*
X11201015Y-11283246D02*
X11210539Y-11264198D01*
X11210539Y-11264198D02*
X11220063Y-11254674D01*
X11220063Y-11254674D02*
X11239110Y-11245150D01*
X11239110Y-11245150D02*
X11267682Y-11245150D01*
X11267682Y-11245150D02*
X11286730Y-11254674D01*
X11286730Y-11254674D02*
X11296253Y-11264198D01*
X11296253Y-11264198D02*
X11305777Y-11283246D01*
X11305777Y-11283246D02*
X11305777Y-11340388D01*
X11305777Y-11340388D02*
X11296253Y-11359436D01*
X11296253Y-11359436D02*
X11286730Y-11368960D01*
X11286730Y-11368960D02*
X11267682Y-11378484D01*
X11267682Y-11378484D02*
X11239110Y-11378484D01*
X11420063Y-11378484D02*
X11401015Y-11368960D01*
X11401015Y-11368960D02*
X11391491Y-11349912D01*
X11391491Y-11349912D02*
X11391491Y-11178484D01*
X11572444Y-11368960D02*
X11553396Y-11378484D01*
X11553396Y-11378484D02*
X11515301Y-11378484D01*
X11515301Y-11378484D02*
X11496253Y-11368960D01*
X11496253Y-11368960D02*
X11486730Y-11349912D01*
X11486730Y-11349912D02*
X11486730Y-11273722D01*
X11486730Y-11273722D02*
X11496253Y-11254674D01*
X11496253Y-11254674D02*
X11515301Y-11245150D01*
X11515301Y-11245150D02*
X11553396Y-11245150D01*
X11553396Y-11245150D02*
X11572444Y-11254674D01*
X11572444Y-11254674D02*
X11581968Y-11273722D01*
X11581968Y-11273722D02*
X11581968Y-11292769D01*
X11581968Y-11292769D02*
X11486730Y-11311817D01*
X11658158Y-11368960D02*
X11677206Y-11378484D01*
X11677206Y-11378484D02*
X11715301Y-11378484D01*
X11715301Y-11378484D02*
X11734349Y-11368960D01*
X11734349Y-11368960D02*
X11743872Y-11349912D01*
X11743872Y-11349912D02*
X11743872Y-11340388D01*
X11743872Y-11340388D02*
X11734349Y-11321341D01*
X11734349Y-11321341D02*
X11715301Y-11311817D01*
X11715301Y-11311817D02*
X11686730Y-11311817D01*
X11686730Y-11311817D02*
X11667682Y-11302293D01*
X11667682Y-11302293D02*
X11658158Y-11283246D01*
X11658158Y-11283246D02*
X11658158Y-11273722D01*
X11658158Y-11273722D02*
X11667682Y-11254674D01*
X11667682Y-11254674D02*
X11686730Y-11245150D01*
X11686730Y-11245150D02*
X11715301Y-11245150D01*
X11715301Y-11245150D02*
X11734349Y-11254674D01*
X11810539Y-11454674D02*
X11820063Y-11445150D01*
X11820063Y-11445150D02*
X11839111Y-11416579D01*
X11839111Y-11416579D02*
X11848634Y-11397531D01*
X11848634Y-11397531D02*
X11858158Y-11368960D01*
X11858158Y-11368960D02*
X11867682Y-11321341D01*
X11867682Y-11321341D02*
X11867682Y-11283246D01*
X11867682Y-11283246D02*
X11858158Y-11235627D01*
X11858158Y-11235627D02*
X11848634Y-11207055D01*
X11848634Y-11207055D02*
X11839111Y-11188008D01*
X11839111Y-11188008D02*
X11820063Y-11159436D01*
X11820063Y-11159436D02*
X11810539Y-11149912D01*
D10*
X6795000Y-11601000D02*
X6845000Y-11551000D01*
X6795000Y-11501000D01*
X6745000Y-11551000D01*
X6795000Y-11601000D01*
D11*
X7210539Y-11642484D02*
X7096253Y-11642484D01*
X7153396Y-11642484D02*
X7153396Y-11442484D01*
X7153396Y-11442484D02*
X7134348Y-11471055D01*
X7134348Y-11471055D02*
X7115301Y-11490103D01*
X7115301Y-11490103D02*
X7096253Y-11499627D01*
X7296253Y-11623436D02*
X7305777Y-11632960D01*
X7305777Y-11632960D02*
X7296253Y-11642484D01*
X7296253Y-11642484D02*
X7286729Y-11632960D01*
X7286729Y-11632960D02*
X7296253Y-11623436D01*
X7296253Y-11623436D02*
X7296253Y-11642484D01*
X7429586Y-11442484D02*
X7448634Y-11442484D01*
X7448634Y-11442484D02*
X7467682Y-11452008D01*
X7467682Y-11452008D02*
X7477205Y-11461531D01*
X7477205Y-11461531D02*
X7486729Y-11480579D01*
X7486729Y-11480579D02*
X7496253Y-11518674D01*
X7496253Y-11518674D02*
X7496253Y-11566293D01*
X7496253Y-11566293D02*
X7486729Y-11604388D01*
X7486729Y-11604388D02*
X7477205Y-11623436D01*
X7477205Y-11623436D02*
X7467682Y-11632960D01*
X7467682Y-11632960D02*
X7448634Y-11642484D01*
X7448634Y-11642484D02*
X7429586Y-11642484D01*
X7429586Y-11642484D02*
X7410539Y-11632960D01*
X7410539Y-11632960D02*
X7401015Y-11623436D01*
X7401015Y-11623436D02*
X7391491Y-11604388D01*
X7391491Y-11604388D02*
X7381967Y-11566293D01*
X7381967Y-11566293D02*
X7381967Y-11518674D01*
X7381967Y-11518674D02*
X7391491Y-11480579D01*
X7391491Y-11480579D02*
X7401015Y-11461531D01*
X7401015Y-11461531D02*
X7410539Y-11452008D01*
X7410539Y-11452008D02*
X7429586Y-11442484D01*
X7620062Y-11442484D02*
X7639110Y-11442484D01*
X7639110Y-11442484D02*
X7658158Y-11452008D01*
X7658158Y-11452008D02*
X7667682Y-11461531D01*
X7667682Y-11461531D02*
X7677205Y-11480579D01*
X7677205Y-11480579D02*
X7686729Y-11518674D01*
X7686729Y-11518674D02*
X7686729Y-11566293D01*
X7686729Y-11566293D02*
X7677205Y-11604388D01*
X7677205Y-11604388D02*
X7667682Y-11623436D01*
X7667682Y-11623436D02*
X7658158Y-11632960D01*
X7658158Y-11632960D02*
X7639110Y-11642484D01*
X7639110Y-11642484D02*
X7620062Y-11642484D01*
X7620062Y-11642484D02*
X7601015Y-11632960D01*
X7601015Y-11632960D02*
X7591491Y-11623436D01*
X7591491Y-11623436D02*
X7581967Y-11604388D01*
X7581967Y-11604388D02*
X7572443Y-11566293D01*
X7572443Y-11566293D02*
X7572443Y-11518674D01*
X7572443Y-11518674D02*
X7581967Y-11480579D01*
X7581967Y-11480579D02*
X7591491Y-11461531D01*
X7591491Y-11461531D02*
X7601015Y-11452008D01*
X7601015Y-11452008D02*
X7620062Y-11442484D01*
X7810539Y-11442484D02*
X7829586Y-11442484D01*
X7829586Y-11442484D02*
X7848634Y-11452008D01*
X7848634Y-11452008D02*
X7858158Y-11461531D01*
X7858158Y-11461531D02*
X7867682Y-11480579D01*
X7867682Y-11480579D02*
X7877205Y-11518674D01*
X7877205Y-11518674D02*
X7877205Y-11566293D01*
X7877205Y-11566293D02*
X7867682Y-11604388D01*
X7867682Y-11604388D02*
X7858158Y-11623436D01*
X7858158Y-11623436D02*
X7848634Y-11632960D01*
X7848634Y-11632960D02*
X7829586Y-11642484D01*
X7829586Y-11642484D02*
X7810539Y-11642484D01*
X7810539Y-11642484D02*
X7791491Y-11632960D01*
X7791491Y-11632960D02*
X7781967Y-11623436D01*
X7781967Y-11623436D02*
X7772443Y-11604388D01*
X7772443Y-11604388D02*
X7762920Y-11566293D01*
X7762920Y-11566293D02*
X7762920Y-11518674D01*
X7762920Y-11518674D02*
X7772443Y-11480579D01*
X7772443Y-11480579D02*
X7781967Y-11461531D01*
X7781967Y-11461531D02*
X7791491Y-11452008D01*
X7791491Y-11452008D02*
X7810539Y-11442484D01*
X7962920Y-11642484D02*
X7962920Y-11509150D01*
X7962920Y-11528198D02*
X7972443Y-11518674D01*
X7972443Y-11518674D02*
X7991491Y-11509150D01*
X7991491Y-11509150D02*
X8020063Y-11509150D01*
X8020063Y-11509150D02*
X8039110Y-11518674D01*
X8039110Y-11518674D02*
X8048634Y-11537722D01*
X8048634Y-11537722D02*
X8048634Y-11642484D01*
X8048634Y-11537722D02*
X8058158Y-11518674D01*
X8058158Y-11518674D02*
X8077205Y-11509150D01*
X8077205Y-11509150D02*
X8105777Y-11509150D01*
X8105777Y-11509150D02*
X8124824Y-11518674D01*
X8124824Y-11518674D02*
X8134348Y-11537722D01*
X8134348Y-11537722D02*
X8134348Y-11642484D01*
X8229586Y-11642484D02*
X8229586Y-11509150D01*
X8229586Y-11528198D02*
X8239110Y-11518674D01*
X8239110Y-11518674D02*
X8258158Y-11509150D01*
X8258158Y-11509150D02*
X8286729Y-11509150D01*
X8286729Y-11509150D02*
X8305777Y-11518674D01*
X8305777Y-11518674D02*
X8315301Y-11537722D01*
X8315301Y-11537722D02*
X8315301Y-11642484D01*
X8315301Y-11537722D02*
X8324824Y-11518674D01*
X8324824Y-11518674D02*
X8343872Y-11509150D01*
X8343872Y-11509150D02*
X8372443Y-11509150D01*
X8372443Y-11509150D02*
X8391491Y-11518674D01*
X8391491Y-11518674D02*
X8401015Y-11537722D01*
X8401015Y-11537722D02*
X8401015Y-11642484D01*
X8791491Y-11432960D02*
X8620063Y-11690103D01*
X9048634Y-11442484D02*
X9067682Y-11442484D01*
X9067682Y-11442484D02*
X9086729Y-11452008D01*
X9086729Y-11452008D02*
X9096253Y-11461531D01*
X9096253Y-11461531D02*
X9105777Y-11480579D01*
X9105777Y-11480579D02*
X9115301Y-11518674D01*
X9115301Y-11518674D02*
X9115301Y-11566293D01*
X9115301Y-11566293D02*
X9105777Y-11604388D01*
X9105777Y-11604388D02*
X9096253Y-11623436D01*
X9096253Y-11623436D02*
X9086729Y-11632960D01*
X9086729Y-11632960D02*
X9067682Y-11642484D01*
X9067682Y-11642484D02*
X9048634Y-11642484D01*
X9048634Y-11642484D02*
X9029587Y-11632960D01*
X9029587Y-11632960D02*
X9020063Y-11623436D01*
X9020063Y-11623436D02*
X9010539Y-11604388D01*
X9010539Y-11604388D02*
X9001015Y-11566293D01*
X9001015Y-11566293D02*
X9001015Y-11518674D01*
X9001015Y-11518674D02*
X9010539Y-11480579D01*
X9010539Y-11480579D02*
X9020063Y-11461531D01*
X9020063Y-11461531D02*
X9029587Y-11452008D01*
X9029587Y-11452008D02*
X9048634Y-11442484D01*
X9201015Y-11623436D02*
X9210539Y-11632960D01*
X9210539Y-11632960D02*
X9201015Y-11642484D01*
X9201015Y-11642484D02*
X9191491Y-11632960D01*
X9191491Y-11632960D02*
X9201015Y-11623436D01*
X9201015Y-11623436D02*
X9201015Y-11642484D01*
X9334348Y-11442484D02*
X9353396Y-11442484D01*
X9353396Y-11442484D02*
X9372444Y-11452008D01*
X9372444Y-11452008D02*
X9381968Y-11461531D01*
X9381968Y-11461531D02*
X9391491Y-11480579D01*
X9391491Y-11480579D02*
X9401015Y-11518674D01*
X9401015Y-11518674D02*
X9401015Y-11566293D01*
X9401015Y-11566293D02*
X9391491Y-11604388D01*
X9391491Y-11604388D02*
X9381968Y-11623436D01*
X9381968Y-11623436D02*
X9372444Y-11632960D01*
X9372444Y-11632960D02*
X9353396Y-11642484D01*
X9353396Y-11642484D02*
X9334348Y-11642484D01*
X9334348Y-11642484D02*
X9315301Y-11632960D01*
X9315301Y-11632960D02*
X9305777Y-11623436D01*
X9305777Y-11623436D02*
X9296253Y-11604388D01*
X9296253Y-11604388D02*
X9286729Y-11566293D01*
X9286729Y-11566293D02*
X9286729Y-11518674D01*
X9286729Y-11518674D02*
X9296253Y-11480579D01*
X9296253Y-11480579D02*
X9305777Y-11461531D01*
X9305777Y-11461531D02*
X9315301Y-11452008D01*
X9315301Y-11452008D02*
X9334348Y-11442484D01*
X9467682Y-11442484D02*
X9591491Y-11442484D01*
X9591491Y-11442484D02*
X9524825Y-11518674D01*
X9524825Y-11518674D02*
X9553396Y-11518674D01*
X9553396Y-11518674D02*
X9572444Y-11528198D01*
X9572444Y-11528198D02*
X9581968Y-11537722D01*
X9581968Y-11537722D02*
X9591491Y-11556769D01*
X9591491Y-11556769D02*
X9591491Y-11604388D01*
X9591491Y-11604388D02*
X9581968Y-11623436D01*
X9581968Y-11623436D02*
X9572444Y-11632960D01*
X9572444Y-11632960D02*
X9553396Y-11642484D01*
X9553396Y-11642484D02*
X9496253Y-11642484D01*
X9496253Y-11642484D02*
X9477206Y-11632960D01*
X9477206Y-11632960D02*
X9467682Y-11623436D01*
X9686729Y-11642484D02*
X9724825Y-11642484D01*
X9724825Y-11642484D02*
X9743872Y-11632960D01*
X9743872Y-11632960D02*
X9753396Y-11623436D01*
X9753396Y-11623436D02*
X9772444Y-11594865D01*
X9772444Y-11594865D02*
X9781968Y-11556769D01*
X9781968Y-11556769D02*
X9781968Y-11480579D01*
X9781968Y-11480579D02*
X9772444Y-11461531D01*
X9772444Y-11461531D02*
X9762920Y-11452008D01*
X9762920Y-11452008D02*
X9743872Y-11442484D01*
X9743872Y-11442484D02*
X9705777Y-11442484D01*
X9705777Y-11442484D02*
X9686729Y-11452008D01*
X9686729Y-11452008D02*
X9677206Y-11461531D01*
X9677206Y-11461531D02*
X9667682Y-11480579D01*
X9667682Y-11480579D02*
X9667682Y-11528198D01*
X9667682Y-11528198D02*
X9677206Y-11547246D01*
X9677206Y-11547246D02*
X9686729Y-11556769D01*
X9686729Y-11556769D02*
X9705777Y-11566293D01*
X9705777Y-11566293D02*
X9743872Y-11566293D01*
X9743872Y-11566293D02*
X9762920Y-11556769D01*
X9762920Y-11556769D02*
X9772444Y-11547246D01*
X9772444Y-11547246D02*
X9781968Y-11528198D01*
X9953396Y-11509150D02*
X9953396Y-11642484D01*
X9905777Y-11432960D02*
X9858158Y-11575817D01*
X9858158Y-11575817D02*
X9981968Y-11575817D01*
X10048634Y-11442484D02*
X10048634Y-11480579D01*
X10124825Y-11442484D02*
X10124825Y-11480579D01*
X10420063Y-11718674D02*
X10410539Y-11709150D01*
X10410539Y-11709150D02*
X10391491Y-11680579D01*
X10391491Y-11680579D02*
X10381968Y-11661531D01*
X10381968Y-11661531D02*
X10372444Y-11632960D01*
X10372444Y-11632960D02*
X10362920Y-11585341D01*
X10362920Y-11585341D02*
X10362920Y-11547246D01*
X10362920Y-11547246D02*
X10372444Y-11499627D01*
X10372444Y-11499627D02*
X10381968Y-11471055D01*
X10381968Y-11471055D02*
X10391491Y-11452008D01*
X10391491Y-11452008D02*
X10410539Y-11423436D01*
X10410539Y-11423436D02*
X10420063Y-11413912D01*
X10505777Y-11642484D02*
X10543872Y-11642484D01*
X10543872Y-11642484D02*
X10562920Y-11632960D01*
X10562920Y-11632960D02*
X10572444Y-11623436D01*
X10572444Y-11623436D02*
X10591491Y-11594865D01*
X10591491Y-11594865D02*
X10601015Y-11556769D01*
X10601015Y-11556769D02*
X10601015Y-11480579D01*
X10601015Y-11480579D02*
X10591491Y-11461531D01*
X10591491Y-11461531D02*
X10581968Y-11452008D01*
X10581968Y-11452008D02*
X10562920Y-11442484D01*
X10562920Y-11442484D02*
X10524825Y-11442484D01*
X10524825Y-11442484D02*
X10505777Y-11452008D01*
X10505777Y-11452008D02*
X10496253Y-11461531D01*
X10496253Y-11461531D02*
X10486730Y-11480579D01*
X10486730Y-11480579D02*
X10486730Y-11528198D01*
X10486730Y-11528198D02*
X10496253Y-11547246D01*
X10496253Y-11547246D02*
X10505777Y-11556769D01*
X10505777Y-11556769D02*
X10524825Y-11566293D01*
X10524825Y-11566293D02*
X10562920Y-11566293D01*
X10562920Y-11566293D02*
X10581968Y-11556769D01*
X10581968Y-11556769D02*
X10591491Y-11547246D01*
X10591491Y-11547246D02*
X10601015Y-11528198D01*
X10839111Y-11642484D02*
X10839111Y-11442484D01*
X10924825Y-11642484D02*
X10924825Y-11537722D01*
X10924825Y-11537722D02*
X10915301Y-11518674D01*
X10915301Y-11518674D02*
X10896253Y-11509150D01*
X10896253Y-11509150D02*
X10867682Y-11509150D01*
X10867682Y-11509150D02*
X10848634Y-11518674D01*
X10848634Y-11518674D02*
X10839111Y-11528198D01*
X11048634Y-11642484D02*
X11029587Y-11632960D01*
X11029587Y-11632960D02*
X11020063Y-11623436D01*
X11020063Y-11623436D02*
X11010539Y-11604388D01*
X11010539Y-11604388D02*
X11010539Y-11547246D01*
X11010539Y-11547246D02*
X11020063Y-11528198D01*
X11020063Y-11528198D02*
X11029587Y-11518674D01*
X11029587Y-11518674D02*
X11048634Y-11509150D01*
X11048634Y-11509150D02*
X11077206Y-11509150D01*
X11077206Y-11509150D02*
X11096253Y-11518674D01*
X11096253Y-11518674D02*
X11105777Y-11528198D01*
X11105777Y-11528198D02*
X11115301Y-11547246D01*
X11115301Y-11547246D02*
X11115301Y-11604388D01*
X11115301Y-11604388D02*
X11105777Y-11623436D01*
X11105777Y-11623436D02*
X11096253Y-11632960D01*
X11096253Y-11632960D02*
X11077206Y-11642484D01*
X11077206Y-11642484D02*
X11048634Y-11642484D01*
X11229587Y-11642484D02*
X11210539Y-11632960D01*
X11210539Y-11632960D02*
X11201015Y-11613912D01*
X11201015Y-11613912D02*
X11201015Y-11442484D01*
X11381968Y-11632960D02*
X11362920Y-11642484D01*
X11362920Y-11642484D02*
X11324825Y-11642484D01*
X11324825Y-11642484D02*
X11305777Y-11632960D01*
X11305777Y-11632960D02*
X11296253Y-11613912D01*
X11296253Y-11613912D02*
X11296253Y-11537722D01*
X11296253Y-11537722D02*
X11305777Y-11518674D01*
X11305777Y-11518674D02*
X11324825Y-11509150D01*
X11324825Y-11509150D02*
X11362920Y-11509150D01*
X11362920Y-11509150D02*
X11381968Y-11518674D01*
X11381968Y-11518674D02*
X11391491Y-11537722D01*
X11391491Y-11537722D02*
X11391491Y-11556769D01*
X11391491Y-11556769D02*
X11296253Y-11575817D01*
X11467682Y-11632960D02*
X11486730Y-11642484D01*
X11486730Y-11642484D02*
X11524825Y-11642484D01*
X11524825Y-11642484D02*
X11543872Y-11632960D01*
X11543872Y-11632960D02*
X11553396Y-11613912D01*
X11553396Y-11613912D02*
X11553396Y-11604388D01*
X11553396Y-11604388D02*
X11543872Y-11585341D01*
X11543872Y-11585341D02*
X11524825Y-11575817D01*
X11524825Y-11575817D02*
X11496253Y-11575817D01*
X11496253Y-11575817D02*
X11477206Y-11566293D01*
X11477206Y-11566293D02*
X11467682Y-11547246D01*
X11467682Y-11547246D02*
X11467682Y-11537722D01*
X11467682Y-11537722D02*
X11477206Y-11518674D01*
X11477206Y-11518674D02*
X11496253Y-11509150D01*
X11496253Y-11509150D02*
X11524825Y-11509150D01*
X11524825Y-11509150D02*
X11543872Y-11518674D01*
X11620063Y-11718674D02*
X11629587Y-11709150D01*
X11629587Y-11709150D02*
X11648634Y-11680579D01*
X11648634Y-11680579D02*
X11658158Y-11661531D01*
X11658158Y-11661531D02*
X11667682Y-11632960D01*
X11667682Y-11632960D02*
X11677206Y-11585341D01*
X11677206Y-11585341D02*
X11677206Y-11547246D01*
X11677206Y-11547246D02*
X11667682Y-11499627D01*
X11667682Y-11499627D02*
X11658158Y-11471055D01*
X11658158Y-11471055D02*
X11648634Y-11452008D01*
X11648634Y-11452008D02*
X11629587Y-11423436D01*
X11629587Y-11423436D02*
X11620063Y-11413912D01*
D16*
X6715000Y-11750000D02*
X6845000Y-11880000D01*
X6845000Y-11750000D02*
X6715000Y-11880000D01*
X6845000Y-11815000D02*
G75*
G03*
X6845000Y-11815000I-65000J0D01*
G01*
D11*
X7210539Y-11906484D02*
X7096253Y-11906484D01*
X7153396Y-11906484D02*
X7153396Y-11706484D01*
X7153396Y-11706484D02*
X7134348Y-11735055D01*
X7134348Y-11735055D02*
X7115301Y-11754103D01*
X7115301Y-11754103D02*
X7096253Y-11763627D01*
X7296253Y-11887436D02*
X7305777Y-11896960D01*
X7305777Y-11896960D02*
X7296253Y-11906484D01*
X7296253Y-11906484D02*
X7286729Y-11896960D01*
X7286729Y-11896960D02*
X7296253Y-11887436D01*
X7296253Y-11887436D02*
X7296253Y-11906484D01*
X7372443Y-11706484D02*
X7496253Y-11706484D01*
X7496253Y-11706484D02*
X7429586Y-11782674D01*
X7429586Y-11782674D02*
X7458158Y-11782674D01*
X7458158Y-11782674D02*
X7477205Y-11792198D01*
X7477205Y-11792198D02*
X7486729Y-11801722D01*
X7486729Y-11801722D02*
X7496253Y-11820769D01*
X7496253Y-11820769D02*
X7496253Y-11868388D01*
X7496253Y-11868388D02*
X7486729Y-11887436D01*
X7486729Y-11887436D02*
X7477205Y-11896960D01*
X7477205Y-11896960D02*
X7458158Y-11906484D01*
X7458158Y-11906484D02*
X7401015Y-11906484D01*
X7401015Y-11906484D02*
X7381967Y-11896960D01*
X7381967Y-11896960D02*
X7372443Y-11887436D01*
X7620062Y-11706484D02*
X7639110Y-11706484D01*
X7639110Y-11706484D02*
X7658158Y-11716008D01*
X7658158Y-11716008D02*
X7667682Y-11725531D01*
X7667682Y-11725531D02*
X7677205Y-11744579D01*
X7677205Y-11744579D02*
X7686729Y-11782674D01*
X7686729Y-11782674D02*
X7686729Y-11830293D01*
X7686729Y-11830293D02*
X7677205Y-11868388D01*
X7677205Y-11868388D02*
X7667682Y-11887436D01*
X7667682Y-11887436D02*
X7658158Y-11896960D01*
X7658158Y-11896960D02*
X7639110Y-11906484D01*
X7639110Y-11906484D02*
X7620062Y-11906484D01*
X7620062Y-11906484D02*
X7601015Y-11896960D01*
X7601015Y-11896960D02*
X7591491Y-11887436D01*
X7591491Y-11887436D02*
X7581967Y-11868388D01*
X7581967Y-11868388D02*
X7572443Y-11830293D01*
X7572443Y-11830293D02*
X7572443Y-11782674D01*
X7572443Y-11782674D02*
X7581967Y-11744579D01*
X7581967Y-11744579D02*
X7591491Y-11725531D01*
X7591491Y-11725531D02*
X7601015Y-11716008D01*
X7601015Y-11716008D02*
X7620062Y-11706484D01*
X7810539Y-11706484D02*
X7829586Y-11706484D01*
X7829586Y-11706484D02*
X7848634Y-11716008D01*
X7848634Y-11716008D02*
X7858158Y-11725531D01*
X7858158Y-11725531D02*
X7867682Y-11744579D01*
X7867682Y-11744579D02*
X7877205Y-11782674D01*
X7877205Y-11782674D02*
X7877205Y-11830293D01*
X7877205Y-11830293D02*
X7867682Y-11868388D01*
X7867682Y-11868388D02*
X7858158Y-11887436D01*
X7858158Y-11887436D02*
X7848634Y-11896960D01*
X7848634Y-11896960D02*
X7829586Y-11906484D01*
X7829586Y-11906484D02*
X7810539Y-11906484D01*
X7810539Y-11906484D02*
X7791491Y-11896960D01*
X7791491Y-11896960D02*
X7781967Y-11887436D01*
X7781967Y-11887436D02*
X7772443Y-11868388D01*
X7772443Y-11868388D02*
X7762920Y-11830293D01*
X7762920Y-11830293D02*
X7762920Y-11782674D01*
X7762920Y-11782674D02*
X7772443Y-11744579D01*
X7772443Y-11744579D02*
X7781967Y-11725531D01*
X7781967Y-11725531D02*
X7791491Y-11716008D01*
X7791491Y-11716008D02*
X7810539Y-11706484D01*
X7962920Y-11906484D02*
X7962920Y-11773150D01*
X7962920Y-11792198D02*
X7972443Y-11782674D01*
X7972443Y-11782674D02*
X7991491Y-11773150D01*
X7991491Y-11773150D02*
X8020063Y-11773150D01*
X8020063Y-11773150D02*
X8039110Y-11782674D01*
X8039110Y-11782674D02*
X8048634Y-11801722D01*
X8048634Y-11801722D02*
X8048634Y-11906484D01*
X8048634Y-11801722D02*
X8058158Y-11782674D01*
X8058158Y-11782674D02*
X8077205Y-11773150D01*
X8077205Y-11773150D02*
X8105777Y-11773150D01*
X8105777Y-11773150D02*
X8124824Y-11782674D01*
X8124824Y-11782674D02*
X8134348Y-11801722D01*
X8134348Y-11801722D02*
X8134348Y-11906484D01*
X8229586Y-11906484D02*
X8229586Y-11773150D01*
X8229586Y-11792198D02*
X8239110Y-11782674D01*
X8239110Y-11782674D02*
X8258158Y-11773150D01*
X8258158Y-11773150D02*
X8286729Y-11773150D01*
X8286729Y-11773150D02*
X8305777Y-11782674D01*
X8305777Y-11782674D02*
X8315301Y-11801722D01*
X8315301Y-11801722D02*
X8315301Y-11906484D01*
X8315301Y-11801722D02*
X8324824Y-11782674D01*
X8324824Y-11782674D02*
X8343872Y-11773150D01*
X8343872Y-11773150D02*
X8372443Y-11773150D01*
X8372443Y-11773150D02*
X8391491Y-11782674D01*
X8391491Y-11782674D02*
X8401015Y-11801722D01*
X8401015Y-11801722D02*
X8401015Y-11906484D01*
X8791491Y-11696960D02*
X8620063Y-11954103D01*
X9048634Y-11706484D02*
X9067682Y-11706484D01*
X9067682Y-11706484D02*
X9086729Y-11716008D01*
X9086729Y-11716008D02*
X9096253Y-11725531D01*
X9096253Y-11725531D02*
X9105777Y-11744579D01*
X9105777Y-11744579D02*
X9115301Y-11782674D01*
X9115301Y-11782674D02*
X9115301Y-11830293D01*
X9115301Y-11830293D02*
X9105777Y-11868388D01*
X9105777Y-11868388D02*
X9096253Y-11887436D01*
X9096253Y-11887436D02*
X9086729Y-11896960D01*
X9086729Y-11896960D02*
X9067682Y-11906484D01*
X9067682Y-11906484D02*
X9048634Y-11906484D01*
X9048634Y-11906484D02*
X9029587Y-11896960D01*
X9029587Y-11896960D02*
X9020063Y-11887436D01*
X9020063Y-11887436D02*
X9010539Y-11868388D01*
X9010539Y-11868388D02*
X9001015Y-11830293D01*
X9001015Y-11830293D02*
X9001015Y-11782674D01*
X9001015Y-11782674D02*
X9010539Y-11744579D01*
X9010539Y-11744579D02*
X9020063Y-11725531D01*
X9020063Y-11725531D02*
X9029587Y-11716008D01*
X9029587Y-11716008D02*
X9048634Y-11706484D01*
X9201015Y-11887436D02*
X9210539Y-11896960D01*
X9210539Y-11896960D02*
X9201015Y-11906484D01*
X9201015Y-11906484D02*
X9191491Y-11896960D01*
X9191491Y-11896960D02*
X9201015Y-11887436D01*
X9201015Y-11887436D02*
X9201015Y-11906484D01*
X9334348Y-11706484D02*
X9353396Y-11706484D01*
X9353396Y-11706484D02*
X9372444Y-11716008D01*
X9372444Y-11716008D02*
X9381968Y-11725531D01*
X9381968Y-11725531D02*
X9391491Y-11744579D01*
X9391491Y-11744579D02*
X9401015Y-11782674D01*
X9401015Y-11782674D02*
X9401015Y-11830293D01*
X9401015Y-11830293D02*
X9391491Y-11868388D01*
X9391491Y-11868388D02*
X9381968Y-11887436D01*
X9381968Y-11887436D02*
X9372444Y-11896960D01*
X9372444Y-11896960D02*
X9353396Y-11906484D01*
X9353396Y-11906484D02*
X9334348Y-11906484D01*
X9334348Y-11906484D02*
X9315301Y-11896960D01*
X9315301Y-11896960D02*
X9305777Y-11887436D01*
X9305777Y-11887436D02*
X9296253Y-11868388D01*
X9296253Y-11868388D02*
X9286729Y-11830293D01*
X9286729Y-11830293D02*
X9286729Y-11782674D01*
X9286729Y-11782674D02*
X9296253Y-11744579D01*
X9296253Y-11744579D02*
X9305777Y-11725531D01*
X9305777Y-11725531D02*
X9315301Y-11716008D01*
X9315301Y-11716008D02*
X9334348Y-11706484D01*
X9581968Y-11706484D02*
X9486729Y-11706484D01*
X9486729Y-11706484D02*
X9477206Y-11801722D01*
X9477206Y-11801722D02*
X9486729Y-11792198D01*
X9486729Y-11792198D02*
X9505777Y-11782674D01*
X9505777Y-11782674D02*
X9553396Y-11782674D01*
X9553396Y-11782674D02*
X9572444Y-11792198D01*
X9572444Y-11792198D02*
X9581968Y-11801722D01*
X9581968Y-11801722D02*
X9591491Y-11820769D01*
X9591491Y-11820769D02*
X9591491Y-11868388D01*
X9591491Y-11868388D02*
X9581968Y-11887436D01*
X9581968Y-11887436D02*
X9572444Y-11896960D01*
X9572444Y-11896960D02*
X9553396Y-11906484D01*
X9553396Y-11906484D02*
X9505777Y-11906484D01*
X9505777Y-11906484D02*
X9486729Y-11896960D01*
X9486729Y-11896960D02*
X9477206Y-11887436D01*
X9781968Y-11906484D02*
X9667682Y-11906484D01*
X9724825Y-11906484D02*
X9724825Y-11706484D01*
X9724825Y-11706484D02*
X9705777Y-11735055D01*
X9705777Y-11735055D02*
X9686729Y-11754103D01*
X9686729Y-11754103D02*
X9667682Y-11763627D01*
X9858158Y-11725531D02*
X9867682Y-11716008D01*
X9867682Y-11716008D02*
X9886729Y-11706484D01*
X9886729Y-11706484D02*
X9934349Y-11706484D01*
X9934349Y-11706484D02*
X9953396Y-11716008D01*
X9953396Y-11716008D02*
X9962920Y-11725531D01*
X9962920Y-11725531D02*
X9972444Y-11744579D01*
X9972444Y-11744579D02*
X9972444Y-11763627D01*
X9972444Y-11763627D02*
X9962920Y-11792198D01*
X9962920Y-11792198D02*
X9848634Y-11906484D01*
X9848634Y-11906484D02*
X9972444Y-11906484D01*
X10048634Y-11706484D02*
X10048634Y-11744579D01*
X10124825Y-11706484D02*
X10124825Y-11744579D01*
X10420063Y-11982674D02*
X10410539Y-11973150D01*
X10410539Y-11973150D02*
X10391491Y-11944579D01*
X10391491Y-11944579D02*
X10381968Y-11925531D01*
X10381968Y-11925531D02*
X10372444Y-11896960D01*
X10372444Y-11896960D02*
X10362920Y-11849341D01*
X10362920Y-11849341D02*
X10362920Y-11811246D01*
X10362920Y-11811246D02*
X10372444Y-11763627D01*
X10372444Y-11763627D02*
X10381968Y-11735055D01*
X10381968Y-11735055D02*
X10391491Y-11716008D01*
X10391491Y-11716008D02*
X10410539Y-11687436D01*
X10410539Y-11687436D02*
X10420063Y-11677912D01*
X10601015Y-11906484D02*
X10486730Y-11906484D01*
X10543872Y-11906484D02*
X10543872Y-11706484D01*
X10543872Y-11706484D02*
X10524825Y-11735055D01*
X10524825Y-11735055D02*
X10505777Y-11754103D01*
X10505777Y-11754103D02*
X10486730Y-11763627D01*
X10781968Y-11706484D02*
X10686730Y-11706484D01*
X10686730Y-11706484D02*
X10677206Y-11801722D01*
X10677206Y-11801722D02*
X10686730Y-11792198D01*
X10686730Y-11792198D02*
X10705777Y-11782674D01*
X10705777Y-11782674D02*
X10753396Y-11782674D01*
X10753396Y-11782674D02*
X10772444Y-11792198D01*
X10772444Y-11792198D02*
X10781968Y-11801722D01*
X10781968Y-11801722D02*
X10791491Y-11820769D01*
X10791491Y-11820769D02*
X10791491Y-11868388D01*
X10791491Y-11868388D02*
X10781968Y-11887436D01*
X10781968Y-11887436D02*
X10772444Y-11896960D01*
X10772444Y-11896960D02*
X10753396Y-11906484D01*
X10753396Y-11906484D02*
X10705777Y-11906484D01*
X10705777Y-11906484D02*
X10686730Y-11896960D01*
X10686730Y-11896960D02*
X10677206Y-11887436D01*
X11029587Y-11906484D02*
X11029587Y-11706484D01*
X11115301Y-11906484D02*
X11115301Y-11801722D01*
X11115301Y-11801722D02*
X11105777Y-11782674D01*
X11105777Y-11782674D02*
X11086730Y-11773150D01*
X11086730Y-11773150D02*
X11058158Y-11773150D01*
X11058158Y-11773150D02*
X11039111Y-11782674D01*
X11039111Y-11782674D02*
X11029587Y-11792198D01*
X11239110Y-11906484D02*
X11220063Y-11896960D01*
X11220063Y-11896960D02*
X11210539Y-11887436D01*
X11210539Y-11887436D02*
X11201015Y-11868388D01*
X11201015Y-11868388D02*
X11201015Y-11811246D01*
X11201015Y-11811246D02*
X11210539Y-11792198D01*
X11210539Y-11792198D02*
X11220063Y-11782674D01*
X11220063Y-11782674D02*
X11239110Y-11773150D01*
X11239110Y-11773150D02*
X11267682Y-11773150D01*
X11267682Y-11773150D02*
X11286730Y-11782674D01*
X11286730Y-11782674D02*
X11296253Y-11792198D01*
X11296253Y-11792198D02*
X11305777Y-11811246D01*
X11305777Y-11811246D02*
X11305777Y-11868388D01*
X11305777Y-11868388D02*
X11296253Y-11887436D01*
X11296253Y-11887436D02*
X11286730Y-11896960D01*
X11286730Y-11896960D02*
X11267682Y-11906484D01*
X11267682Y-11906484D02*
X11239110Y-11906484D01*
X11420063Y-11906484D02*
X11401015Y-11896960D01*
X11401015Y-11896960D02*
X11391491Y-11877912D01*
X11391491Y-11877912D02*
X11391491Y-11706484D01*
X11572444Y-11896960D02*
X11553396Y-11906484D01*
X11553396Y-11906484D02*
X11515301Y-11906484D01*
X11515301Y-11906484D02*
X11496253Y-11896960D01*
X11496253Y-11896960D02*
X11486730Y-11877912D01*
X11486730Y-11877912D02*
X11486730Y-11801722D01*
X11486730Y-11801722D02*
X11496253Y-11782674D01*
X11496253Y-11782674D02*
X11515301Y-11773150D01*
X11515301Y-11773150D02*
X11553396Y-11773150D01*
X11553396Y-11773150D02*
X11572444Y-11782674D01*
X11572444Y-11782674D02*
X11581968Y-11801722D01*
X11581968Y-11801722D02*
X11581968Y-11820769D01*
X11581968Y-11820769D02*
X11486730Y-11839817D01*
X11658158Y-11896960D02*
X11677206Y-11906484D01*
X11677206Y-11906484D02*
X11715301Y-11906484D01*
X11715301Y-11906484D02*
X11734349Y-11896960D01*
X11734349Y-11896960D02*
X11743872Y-11877912D01*
X11743872Y-11877912D02*
X11743872Y-11868388D01*
X11743872Y-11868388D02*
X11734349Y-11849341D01*
X11734349Y-11849341D02*
X11715301Y-11839817D01*
X11715301Y-11839817D02*
X11686730Y-11839817D01*
X11686730Y-11839817D02*
X11667682Y-11830293D01*
X11667682Y-11830293D02*
X11658158Y-11811246D01*
X11658158Y-11811246D02*
X11658158Y-11801722D01*
X11658158Y-11801722D02*
X11667682Y-11782674D01*
X11667682Y-11782674D02*
X11686730Y-11773150D01*
X11686730Y-11773150D02*
X11715301Y-11773150D01*
X11715301Y-11773150D02*
X11734349Y-11782674D01*
X11810539Y-11982674D02*
X11820063Y-11973150D01*
X11820063Y-11973150D02*
X11839111Y-11944579D01*
X11839111Y-11944579D02*
X11848634Y-11925531D01*
X11848634Y-11925531D02*
X11858158Y-11896960D01*
X11858158Y-11896960D02*
X11867682Y-11849341D01*
X11867682Y-11849341D02*
X11867682Y-11811246D01*
X11867682Y-11811246D02*
X11858158Y-11763627D01*
X11858158Y-11763627D02*
X11848634Y-11735055D01*
X11848634Y-11735055D02*
X11839111Y-11716008D01*
X11839111Y-11716008D02*
X11820063Y-11687436D01*
X11820063Y-11687436D02*
X11810539Y-11677912D01*
M02*
