M48
; DRILL file {KiCad 7.0.5} date Ср 16 авг 2023 19:13:47
; FORMAT={-:-/ absolute / metric / decimal}
; #@! TF.CreationDate,2023-08-16T19:13:47+03:00
; #@! TF.GenerationSoftware,Kicad,Pcbnew,7.0.5
; #@! TF.FileFunction,MixedPlating,1,2
FMAT,2
METRIC
; #@! TA.AperFunction,Plated,PTH,ViaDrill
T1C0.600
; #@! TA.AperFunction,Plated,PTH,ComponentDrill
T2C0.700
; #@! TA.AperFunction,Plated,PTH,ComponentDrill
T3C0.750
; #@! TA.AperFunction,Plated,PTH,ViaDrill
T4C0.800
; #@! TA.AperFunction,Plated,PTH,ComponentDrill
T5C1.000
; #@! TA.AperFunction,Plated,PTH,ComponentDrill
T6C1.300
%
G90
G05
T1
X87.851Y-73.406
X92.202Y-76.581
X98.311Y-79.108
X101.956Y-81.509
X103.2Y-80.34
X107.213Y-83.464
X109.703Y-77.749
X109.779Y-79.019
X109.83Y-94.463
X110.871Y-70.603
X112.243Y-65.38
X114.173Y-86.258
X114.3Y-87.503
X114.325Y-74.473
X115.341Y-76.962
X116.484Y-62.84
X117.348Y-76.327
X117.711Y-62.789
X122.682Y-61.722
X122.701Y-64.76
X123.444Y-65.786
X123.52Y-62.484
X123.546Y-60.96
X123.546Y-64.008
X124.308Y-63.246
X125.4Y-68.809
T2
X115.316Y-59.69
X116.586Y-59.69
X117.856Y-59.69
X119.126Y-59.69
X120.396Y-59.69
X121.666Y-59.69
T3
X107.25Y-60.25
X109.25Y-60.25
T4
X80.315Y-82.321
X81.843Y-73.157
X83.5Y-86.0
X83.795Y-73.152
X94.31Y-73.49
X98.603Y-71.73
X98.882Y-65.507
X99.822Y-78.638
X100.432Y-68.275
X103.734Y-60.731
X105.283Y-84.836
X110.947Y-73.523
X111.455Y-96.723
X113.995Y-93.574
X114.452Y-61.747
X120.75Y-79.25
X123.698Y-59.131
X128.245Y-93.574
X130.988Y-79.502
T5
X128.016Y-72.136
X128.016Y-74.676
X128.016Y-77.216
X131.572Y-59.69
X131.572Y-62.23
X131.572Y-64.77
X131.572Y-67.31
X131.572Y-69.85
X131.572Y-72.39
T6
X71.5Y-63.805
X74.25Y-72.0
X74.25Y-77.0
X74.25Y-84.0
X74.25Y-89.0
X76.5Y-63.805
X82.84Y-63.75
X83.5Y-92.5
X87.92Y-63.75
X88.5Y-92.5
X93.0Y-63.75
X99.75Y-92.5
X104.75Y-92.5
X128.25Y-84.0
X128.25Y-89.0
T0
M30
