%TF.GenerationSoftware,KiCad,Pcbnew,7.0.5*%
%TF.CreationDate,2023-08-16T19:13:53+03:00*%
%TF.ProjectId,lamps,6c616d70-732e-46b6-9963-61645f706362,rev?*%
%TF.SameCoordinates,Original*%
%TF.FileFunction,Copper,L1,Top*%
%TF.FilePolarity,Positive*%
%FSLAX46Y46*%
G04 Gerber Fmt 4.6, Leading zero omitted, Abs format (unit mm)*
G04 Created by KiCad (PCBNEW 7.0.5) date 2023-08-16 19:13:53*
%MOMM*%
%LPD*%
G01*
G04 APERTURE LIST*
G04 Aperture macros list*
%AMRoundRect*
0 Rectangle with rounded corners*
0 $1 Rounding radius*
0 $2 $3 $4 $5 $6 $7 $8 $9 X,Y pos of 4 corners*
0 Add a 4 corners polygon primitive as box body*
4,1,4,$2,$3,$4,$5,$6,$7,$8,$9,$2,$3,0*
0 Add four circle primitives for the rounded corners*
1,1,$1+$1,$2,$3*
1,1,$1+$1,$4,$5*
1,1,$1+$1,$6,$7*
1,1,$1+$1,$8,$9*
0 Add four rect primitives between the rounded corners*
20,1,$1+$1,$2,$3,$4,$5,0*
20,1,$1+$1,$4,$5,$6,$7,0*
20,1,$1+$1,$6,$7,$8,$9,0*
20,1,$1+$1,$8,$9,$2,$3,0*%
G04 Aperture macros list end*
%TA.AperFunction,ComponentPad*%
%ADD10R,2.600000X2.600000*%
%TD*%
%TA.AperFunction,ComponentPad*%
%ADD11C,2.600000*%
%TD*%
%TA.AperFunction,SMDPad,CuDef*%
%ADD12RoundRect,0.237500X0.250000X0.237500X-0.250000X0.237500X-0.250000X-0.237500X0.250000X-0.237500X0*%
%TD*%
%TA.AperFunction,SMDPad,CuDef*%
%ADD13RoundRect,0.237500X-0.250000X-0.237500X0.250000X-0.237500X0.250000X0.237500X-0.250000X0.237500X0*%
%TD*%
%TA.AperFunction,SMDPad,CuDef*%
%ADD14RoundRect,0.250000X0.450000X-0.325000X0.450000X0.325000X-0.450000X0.325000X-0.450000X-0.325000X0*%
%TD*%
%TA.AperFunction,SMDPad,CuDef*%
%ADD15RoundRect,0.237500X-0.300000X-0.237500X0.300000X-0.237500X0.300000X0.237500X-0.300000X0.237500X0*%
%TD*%
%TA.AperFunction,SMDPad,CuDef*%
%ADD16R,0.800000X1.900000*%
%TD*%
%TA.AperFunction,SMDPad,CuDef*%
%ADD17R,2.400000X2.000000*%
%TD*%
%TA.AperFunction,SMDPad,CuDef*%
%ADD18RoundRect,0.075000X-0.662500X-0.075000X0.662500X-0.075000X0.662500X0.075000X-0.662500X0.075000X0*%
%TD*%
%TA.AperFunction,SMDPad,CuDef*%
%ADD19RoundRect,0.075000X-0.075000X-0.662500X0.075000X-0.662500X0.075000X0.662500X-0.075000X0.662500X0*%
%TD*%
%TA.AperFunction,SMDPad,CuDef*%
%ADD20RoundRect,0.237500X-0.237500X0.250000X-0.237500X-0.250000X0.237500X-0.250000X0.237500X0.250000X0*%
%TD*%
%TA.AperFunction,SMDPad,CuDef*%
%ADD21RoundRect,0.237500X0.300000X0.237500X-0.300000X0.237500X-0.300000X-0.237500X0.300000X-0.237500X0*%
%TD*%
%TA.AperFunction,ComponentPad*%
%ADD22R,1.700000X1.700000*%
%TD*%
%TA.AperFunction,ComponentPad*%
%ADD23O,1.700000X1.700000*%
%TD*%
%TA.AperFunction,SMDPad,CuDef*%
%ADD24RoundRect,0.150000X0.150000X-0.512500X0.150000X0.512500X-0.150000X0.512500X-0.150000X-0.512500X0*%
%TD*%
%TA.AperFunction,SMDPad,CuDef*%
%ADD25RoundRect,0.237500X0.237500X-0.250000X0.237500X0.250000X-0.237500X0.250000X-0.237500X-0.250000X0*%
%TD*%
%TA.AperFunction,SMDPad,CuDef*%
%ADD26RoundRect,0.250000X0.325000X0.650000X-0.325000X0.650000X-0.325000X-0.650000X0.325000X-0.650000X0*%
%TD*%
%TA.AperFunction,ComponentPad*%
%ADD27RoundRect,0.250000X-0.350000X-0.625000X0.350000X-0.625000X0.350000X0.625000X-0.350000X0.625000X0*%
%TD*%
%TA.AperFunction,ComponentPad*%
%ADD28O,1.200000X1.750000*%
%TD*%
%TA.AperFunction,ComponentPad*%
%ADD29R,1.000000X1.000000*%
%TD*%
%TA.AperFunction,ComponentPad*%
%ADD30O,1.000000X1.000000*%
%TD*%
%TA.AperFunction,SMDPad,CuDef*%
%ADD31RoundRect,0.250000X0.650000X-0.412500X0.650000X0.412500X-0.650000X0.412500X-0.650000X-0.412500X0*%
%TD*%
%TA.AperFunction,SMDPad,CuDef*%
%ADD32RoundRect,0.237500X-0.237500X0.300000X-0.237500X-0.300000X0.237500X-0.300000X0.237500X0.300000X0*%
%TD*%
%TA.AperFunction,SMDPad,CuDef*%
%ADD33RoundRect,0.250000X-0.325000X-0.450000X0.325000X-0.450000X0.325000X0.450000X-0.325000X0.450000X0*%
%TD*%
%TA.AperFunction,ViaPad*%
%ADD34C,1.200000*%
%TD*%
%TA.AperFunction,ViaPad*%
%ADD35C,0.800000*%
%TD*%
%TA.AperFunction,Conductor*%
%ADD36C,0.300000*%
%TD*%
%TA.AperFunction,Conductor*%
%ADD37C,0.500000*%
%TD*%
%TA.AperFunction,Conductor*%
%ADD38C,1.000000*%
%TD*%
G04 APERTURE END LIST*
D10*
%TO.P,J11,1,Pin_1*%
%TO.N,/L4*%
X104750000Y-92500000D03*
D11*
%TO.P,J11,2,Pin_2*%
%TO.N,/L3*%
X99750000Y-92500000D03*
%TD*%
D10*
%TO.P,J10,1,Pin_1*%
%TO.N,/L5*%
X128250000Y-84000000D03*
D11*
%TO.P,J10,2,Pin_2*%
%TO.N,/L6*%
X128250000Y-89000000D03*
%TD*%
D10*
%TO.P,J9,1,Pin_1*%
%TO.N,/L2*%
X88500000Y-92500000D03*
D11*
%TO.P,J9,2,Pin_2*%
%TO.N,/L1*%
X83500000Y-92500000D03*
%TD*%
D10*
%TO.P,J8,1,Pin_1*%
%TO.N,+12V*%
X74250000Y-89000000D03*
D11*
%TO.P,J8,2,Pin_2*%
X74250000Y-84000000D03*
%TD*%
D10*
%TO.P,J7,1,Pin_1*%
%TO.N,/HOT@Always*%
X74250000Y-77000000D03*
D11*
%TO.P,J7,2,Pin_2*%
X74250000Y-72000000D03*
%TD*%
D10*
%TO.P,J6,1,Pin_1*%
%TO.N,/HOT@Always*%
X71500000Y-63805000D03*
D11*
%TO.P,J6,2,Pin_2*%
X76500000Y-63805000D03*
%TD*%
D12*
%TO.P,R1,1*%
%TO.N,/VEN*%
X89582000Y-71755000D03*
%TO.P,R1,2*%
%TO.N,+12V*%
X87757000Y-71755000D03*
%TD*%
D13*
%TO.P,R23,1*%
%TO.N,/T2_Ch3*%
X115824000Y-91541600D03*
%TO.P,R23,2*%
%TO.N,/L_pwrX1/g*%
X117649000Y-91541600D03*
%TD*%
D14*
%TO.P,D9,1,K*%
%TO.N,/adc0*%
X87803400Y-82189200D03*
%TO.P,D9,2,A*%
%TO.N,GND*%
X87803400Y-80139200D03*
%TD*%
D13*
%TO.P,R15,2*%
%TO.N,/T3_Ch3*%
X107260400Y-82016600D03*
%TO.P,R15,1*%
%TO.N,GND*%
X105435400Y-82016600D03*
%TD*%
D15*
%TO.P,C13,1*%
%TO.N,GND*%
X107393400Y-65405000D03*
%TO.P,C13,2*%
%TO.N,+5V*%
X109118400Y-65405000D03*
%TD*%
D16*
%TO.P,Q6,1,G*%
%TO.N,Net-(Q6-G)*%
X110750000Y-89500000D03*
%TO.P,Q6,2,S*%
%TO.N,GND*%
X108850000Y-89500000D03*
%TO.P,Q6,3,D*%
%TO.N,/L4*%
X109800000Y-92500000D03*
%TD*%
%TO.P,Q3,1,G*%
%TO.N,/L_pwrX/g*%
X119800000Y-84250000D03*
%TO.P,Q3,2,S*%
%TO.N,GND*%
X121700000Y-84250000D03*
%TO.P,Q3,3,D*%
%TO.N,/L5*%
X120750000Y-81250000D03*
%TD*%
%TO.P,Q8,1,G*%
%TO.N,/L_pwrX1/g*%
X119486600Y-92837000D03*
%TO.P,Q8,2,S*%
%TO.N,GND*%
X121386600Y-92837000D03*
%TO.P,Q8,3,D*%
%TO.N,/L6*%
X120436600Y-89837000D03*
%TD*%
D17*
%TO.P,Y1,1,1*%
%TO.N,/OSC_IN*%
X107696000Y-68000000D03*
%TO.P,Y1,2,2*%
%TO.N,/OSC_OUT*%
X107696000Y-71700000D03*
%TD*%
D18*
%TO.P,U3,1,VBAT*%
%TO.N,+3V3*%
X115217500Y-67354000D03*
%TO.P,U3,2,PC13*%
%TO.N,unconnected-(U3-PC13-Pad2)*%
X115217500Y-67854000D03*
%TO.P,U3,3,PC14*%
%TO.N,unconnected-(U3-PC14-Pad3)*%
X115217500Y-68354000D03*
%TO.P,U3,4,PC15*%
%TO.N,unconnected-(U3-PC15-Pad4)*%
X115217500Y-68854000D03*
%TO.P,U3,5,PD0*%
%TO.N,/OSC_IN*%
X115217500Y-69354000D03*
%TO.P,U3,6,PD1*%
%TO.N,/OSC_OUT*%
X115217500Y-69854000D03*
%TO.P,U3,7,NRST*%
%TO.N,/NRST*%
X115217500Y-70354000D03*
%TO.P,U3,8,VSSA*%
%TO.N,GND*%
X115217500Y-70854000D03*
%TO.P,U3,9,VDDA*%
%TO.N,+3V3*%
X115217500Y-71354000D03*
%TO.P,U3,10,PA0*%
%TO.N,/adc0*%
X115217500Y-71854000D03*
%TO.P,U3,11,PA1*%
%TO.N,/adc1*%
X115217500Y-72354000D03*
%TO.P,U3,12,PA2*%
%TO.N,/adc2*%
X115217500Y-72854000D03*
D19*
%TO.P,U3,13,PA3*%
%TO.N,/adc3*%
X116630000Y-74266500D03*
%TO.P,U3,14,PA4*%
%TO.N,/adc4*%
X117130000Y-74266500D03*
%TO.P,U3,15,PA5*%
%TO.N,/adc5*%
X117630000Y-74266500D03*
%TO.P,U3,16,PA6*%
%TO.N,/T3_Ch1*%
X118130000Y-74266500D03*
%TO.P,U3,17,PA7*%
%TO.N,/T3_Ch2*%
X118630000Y-74266500D03*
%TO.P,U3,18,PB0*%
%TO.N,/T3_Ch3*%
X119130000Y-74266500D03*
%TO.P,U3,19,PB1*%
%TO.N,/T3_Ch4*%
X119630000Y-74266500D03*
%TO.P,U3,20,PB2*%
%TO.N,unconnected-(U3-PB2-Pad20)*%
X120130000Y-74266500D03*
%TO.P,U3,21,PB10*%
%TO.N,/T2_Ch3*%
X120630000Y-74266500D03*
%TO.P,U3,22,PB11*%
%TO.N,/T2_Ch4*%
X121130000Y-74266500D03*
%TO.P,U3,23,VSS*%
%TO.N,GND*%
X121630000Y-74266500D03*
%TO.P,U3,24,VDD*%
%TO.N,+3V3*%
X122130000Y-74266500D03*
D18*
%TO.P,U3,25,PB12*%
%TO.N,unconnected-(U3-PB12-Pad25)*%
X123542500Y-72854000D03*
%TO.P,U3,26,PB13*%
%TO.N,unconnected-(U3-PB13-Pad26)*%
X123542500Y-72354000D03*
%TO.P,U3,27,PB14*%
%TO.N,unconnected-(U3-PB14-Pad27)*%
X123542500Y-71854000D03*
%TO.P,U3,28,PB15*%
%TO.N,unconnected-(U3-PB15-Pad28)*%
X123542500Y-71354000D03*
%TO.P,U3,29,PA8*%
%TO.N,unconnected-(U3-PA8-Pad29)*%
X123542500Y-70854000D03*
%TO.P,U3,30,PA9*%
%TO.N,/Tx*%
X123542500Y-70354000D03*
%TO.P,U3,31,PA10*%
%TO.N,/Rx*%
X123542500Y-69854000D03*
%TO.P,U3,32,PA11*%
%TO.N,unconnected-(U3-PA11-Pad32)*%
X123542500Y-69354000D03*
%TO.P,U3,33,PA12*%
%TO.N,unconnected-(U3-PA12-Pad33)*%
X123542500Y-68854000D03*
%TO.P,U3,34,PA13*%
%TO.N,/SWDIO*%
X123542500Y-68354000D03*
%TO.P,U3,35,VSS*%
%TO.N,GND*%
X123542500Y-67854000D03*
%TO.P,U3,36,VDD*%
%TO.N,+3V3*%
X123542500Y-67354000D03*
D19*
%TO.P,U3,37,PA14*%
%TO.N,/SWCLK*%
X122130000Y-65941500D03*
%TO.P,U3,38,PA15*%
%TO.N,/SW1*%
X121630000Y-65941500D03*
%TO.P,U3,39,PB3*%
%TO.N,/SW2*%
X121130000Y-65941500D03*
%TO.P,U3,40,PB4*%
%TO.N,/SW3*%
X120630000Y-65941500D03*
%TO.P,U3,41,PB5*%
%TO.N,/SW4*%
X120130000Y-65941500D03*
%TO.P,U3,42,PB6*%
%TO.N,/SW5*%
X119630000Y-65941500D03*
%TO.P,U3,43,PB7*%
%TO.N,/SW6*%
X119130000Y-65941500D03*
%TO.P,U3,44,BOOT0*%
%TO.N,/BOOT0*%
X118630000Y-65941500D03*
%TO.P,U3,45,PB8*%
%TO.N,/CAN_Rx*%
X118130000Y-65941500D03*
%TO.P,U3,46,PB9*%
%TO.N,/CAN_Tx*%
X117630000Y-65941500D03*
%TO.P,U3,47,VSS*%
%TO.N,GND*%
X117130000Y-65941500D03*
%TO.P,U3,48,VDD*%
%TO.N,+3V3*%
X116630000Y-65941500D03*
%TD*%
D20*
%TO.P,R20,1*%
%TO.N,/T3_Ch4*%
X110769400Y-85574500D03*
%TO.P,R20,2*%
%TO.N,Net-(Q6-G)*%
X110769400Y-87399500D03*
%TD*%
%TO.P,R11,1*%
%TO.N,/T2_Ch4*%
X118000000Y-80750000D03*
%TO.P,R11,2*%
%TO.N,/L_pwrX/g*%
X118000000Y-82575000D03*
%TD*%
%TO.P,R24,2*%
%TO.N,/T2_Ch3*%
X113842800Y-91516200D03*
%TO.P,R24,1*%
%TO.N,GND*%
X113842800Y-89691200D03*
%TD*%
D21*
%TO.P,C11,1*%
%TO.N,+3V3*%
X112522000Y-71882000D03*
%TO.P,C11,2*%
%TO.N,GND*%
X110797000Y-71882000D03*
%TD*%
D22*
%TO.P,J5,1,Pin_1*%
%TO.N,Net-(D7-K)*%
X131572000Y-72390000D03*
D23*
%TO.P,J5,2,Pin_2*%
%TO.N,Net-(D5-K)*%
X131572000Y-69850000D03*
%TO.P,J5,3,Pin_3*%
%TO.N,Net-(D3-K)*%
X131572000Y-67310000D03*
%TO.P,J5,4,Pin_4*%
%TO.N,Net-(D4-K)*%
X131572000Y-64770000D03*
%TO.P,J5,5,Pin_5*%
%TO.N,Net-(D6-K)*%
X131572000Y-62230000D03*
%TO.P,J5,6,Pin_6*%
%TO.N,Net-(D8-K)*%
X131572000Y-59690000D03*
%TD*%
D13*
%TO.P,R9,1*%
%TO.N,GND*%
X84345900Y-76158400D03*
%TO.P,R9,2*%
%TO.N,/T3_Ch1*%
X86170900Y-76158400D03*
%TD*%
D24*
%TO.P,U1,1,GND*%
%TO.N,GND*%
X101158000Y-72633000D03*
%TO.P,U1,2,VO*%
%TO.N,+3V3*%
X103058000Y-72633000D03*
%TO.P,U1,3,VI*%
%TO.N,+5V*%
X102108000Y-70358000D03*
%TD*%
D25*
%TO.P,R5,1*%
%TO.N,+3V3*%
X112776000Y-60499000D03*
%TO.P,R5,2*%
%TO.N,Net-(J3-Pin_4)*%
X112776000Y-58674000D03*
%TD*%
D22*
%TO.P,J2,1,Pin_1*%
%TO.N,GND*%
X128016000Y-72136000D03*
D23*
%TO.P,J2,2,Pin_2*%
%TO.N,/Rx*%
X128016000Y-74676000D03*
%TO.P,J2,3,Pin_3*%
%TO.N,/Tx*%
X128016000Y-77216000D03*
%TD*%
D16*
%TO.P,Q1,1,G*%
%TO.N,Net-(Q1-G)*%
X84289200Y-80985000D03*
%TO.P,Q1,2,S*%
%TO.N,GND*%
X82389200Y-80985000D03*
%TO.P,Q1,3,D*%
%TO.N,/L1*%
X83339200Y-83985000D03*
%TD*%
D12*
%TO.P,R10,1*%
%TO.N,/adc0*%
X87825000Y-84000000D03*
%TO.P,R10,2*%
%TO.N,/L1*%
X86000000Y-84000000D03*
%TD*%
D26*
%TO.P,C4,1*%
%TO.N,+3V3*%
X103047800Y-75209400D03*
%TO.P,C4,2*%
%TO.N,GND*%
X100097800Y-75209400D03*
%TD*%
D25*
%TO.P,R21,1*%
%TO.N,GND*%
X112369600Y-87397600D03*
%TO.P,R21,2*%
%TO.N,/T3_Ch4*%
X112369600Y-85572600D03*
%TD*%
D12*
%TO.P,R8,1*%
%TO.N,/T3_Ch1*%
X86162500Y-78000000D03*
%TO.P,R8,2*%
%TO.N,Net-(Q1-G)*%
X84337500Y-78000000D03*
%TD*%
D15*
%TO.P,C8,1*%
%TO.N,/OSC_IN*%
X110490000Y-67564000D03*
%TO.P,C8,2*%
%TO.N,GND*%
X112215000Y-67564000D03*
%TD*%
%TO.P,C7,1*%
%TO.N,+3V3*%
X113591000Y-64008000D03*
%TO.P,C7,2*%
%TO.N,GND*%
X115316000Y-64008000D03*
%TD*%
D10*
%TO.P,J1,1,Pin_1*%
%TO.N,/HOT@Always*%
X82840000Y-63750000D03*
D11*
%TO.P,J1,2,Pin_2*%
%TO.N,+12V*%
X87920000Y-63750000D03*
%TO.P,J1,3,Pin_3*%
%TO.N,GND*%
X93000000Y-63750000D03*
%TD*%
D15*
%TO.P,C10,1*%
%TO.N,/OSC_OUT*%
X107696000Y-73914000D03*
%TO.P,C10,2*%
%TO.N,GND*%
X109421000Y-73914000D03*
%TD*%
D27*
%TO.P,J4,1,Pin_1*%
%TO.N,/CANH*%
X107250000Y-60250000D03*
D28*
%TO.P,J4,2,Pin_2*%
%TO.N,/CANL*%
X109250000Y-60250000D03*
%TD*%
D29*
%TO.P,J3,1,Pin_1*%
%TO.N,/SWCLK*%
X121666000Y-59690000D03*
D30*
%TO.P,J3,2,Pin_2*%
%TO.N,/SWDIO*%
X120396000Y-59690000D03*
%TO.P,J3,3,Pin_3*%
%TO.N,GND*%
X119126000Y-59690000D03*
%TO.P,J3,4,Pin_4*%
%TO.N,Net-(J3-Pin_4)*%
X117856000Y-59690000D03*
%TO.P,J3,5,Pin_5*%
%TO.N,/BOOT0*%
X116586000Y-59690000D03*
%TO.P,J3,6,Pin_6*%
%TO.N,/NRST*%
X115316000Y-59690000D03*
%TD*%
D31*
%TO.P,C5,1*%
%TO.N,+5V*%
X97409000Y-70181000D03*
%TO.P,C5,2*%
%TO.N,GND*%
X97409000Y-67056000D03*
%TD*%
D21*
%TO.P,C12,1*%
%TO.N,+3V3*%
X124661000Y-76200000D03*
%TO.P,C12,2*%
%TO.N,GND*%
X122936000Y-76200000D03*
%TD*%
D12*
%TO.P,R2,1*%
%TO.N,GND*%
X93011000Y-71755000D03*
%TO.P,R2,2*%
%TO.N,/VEN*%
X91186000Y-71755000D03*
%TD*%
D32*
%TO.P,C9,1*%
%TO.N,+3V3*%
X125730000Y-64770000D03*
%TO.P,C9,2*%
%TO.N,GND*%
X125730000Y-66495000D03*
%TD*%
D12*
%TO.P,R12,1*%
%TO.N,GND*%
X125250000Y-79000000D03*
%TO.P,R12,2*%
%TO.N,/T2_Ch4*%
X123425000Y-79000000D03*
%TD*%
D13*
%TO.P,R25,1*%
%TO.N,/adc4*%
X115904000Y-89408000D03*
%TO.P,R25,2*%
%TO.N,/L6*%
X117729000Y-89408000D03*
%TD*%
D33*
%TO.P,D14,1,K*%
%TO.N,/adc4*%
X116001800Y-87477600D03*
%TO.P,D14,2,A*%
%TO.N,GND*%
X118051800Y-87477600D03*
%TD*%
D34*
%TO.N,GND*%
X130987800Y-79502000D03*
X111455200Y-96723200D03*
X110947200Y-73523300D03*
X105283000Y-84836000D03*
X80314800Y-82321400D03*
D35*
%TO.N,/adc2*%
X109702600Y-77749400D03*
%TO.N,/T3_Ch3*%
X107213400Y-83464400D03*
%TO.N,/adc3*%
X109778800Y-79019400D03*
%TO.N,/L4*%
X109829600Y-94462600D03*
%TO.N,/T3_Ch2*%
X101955600Y-81508600D03*
%TO.N,/T3_Ch1*%
X103200200Y-80340200D03*
X98310700Y-79108300D03*
%TO.N,/adc1*%
X114325400Y-74472800D03*
D34*
%TO.N,/L1*%
X83500000Y-86000000D03*
D35*
%TO.N,/adc4*%
X114300000Y-87503000D03*
X115341400Y-76962000D03*
%TO.N,/adc5*%
X117348000Y-76327000D03*
D34*
%TO.N,/L6*%
X128244600Y-93573600D03*
%TO.N,/L_pwrX1/g*%
X113995200Y-93573600D03*
D35*
%TO.N,/L_pwrX/g*%
X114173000Y-86258400D03*
D34*
%TO.N,/L5*%
X120750000Y-79250000D03*
%TO.N,+5V*%
X83794600Y-73152000D03*
D35*
X112242600Y-65379600D03*
D34*
X94310200Y-73490000D03*
%TO.N,GND*%
X98882200Y-65506600D03*
X114452400Y-61747400D03*
X100431600Y-68275200D03*
X103733600Y-60731400D03*
X81843400Y-73156600D03*
X123698000Y-59131200D03*
X98602800Y-71729600D03*
X99822000Y-78638400D03*
D35*
%TO.N,+12V*%
X87851000Y-73406000D03*
%TO.N,/SW3*%
X124307600Y-63246000D03*
%TO.N,/SW4*%
X123520200Y-62484000D03*
%TO.N,/SW2*%
X123545600Y-64008000D03*
%TO.N,/SW5*%
X122682000Y-61722000D03*
%TO.N,/SW1*%
X122701012Y-64760172D03*
%TO.N,/SW6*%
X123545600Y-60960000D03*
%TO.N,/SWCLK*%
X123444000Y-65786000D03*
%TO.N,/SWDIO*%
X125399800Y-68808600D03*
%TO.N,/NRST*%
X110871000Y-70603500D03*
%TO.N,/VEN*%
X92202000Y-76581000D03*
%TO.N,/CAN_Rx*%
X117710823Y-62789177D03*
%TO.N,/CAN_Tx*%
X116484400Y-62839600D03*
%TD*%
D36*
%TO.N,/adc0*%
X87803400Y-82189200D02*
X89489400Y-82189200D01*
X89489400Y-82189200D02*
X91135200Y-80543400D01*
X91135200Y-80543400D02*
X99390200Y-80543400D01*
X99390200Y-80543400D02*
X103251000Y-76682600D01*
X113538000Y-72487853D02*
X114171853Y-71854000D01*
X103251000Y-76682600D02*
X110921800Y-76682600D01*
X110921800Y-76682600D02*
X113538000Y-74066400D01*
X114171853Y-71854000D02*
X115217500Y-71854000D01*
X113538000Y-74066400D02*
X113538000Y-72487853D01*
%TO.N,GND*%
X99822000Y-78943200D02*
X98831400Y-79933800D01*
X98831400Y-79933800D02*
X88008800Y-79933800D01*
X99822000Y-78638400D02*
X99822000Y-78943200D01*
%TO.N,/T3_Ch1*%
X98310700Y-79108300D02*
X97202400Y-78000000D01*
X97202400Y-78000000D02*
X86162500Y-78000000D01*
D37*
%TO.N,+5V*%
X99085400Y-70358000D02*
X99085400Y-67767200D01*
X99085400Y-67767200D02*
X102641400Y-64211200D01*
X102641400Y-64211200D02*
X108991400Y-64211200D01*
X108991400Y-64211200D02*
X108991400Y-65278000D01*
X108991400Y-65278000D02*
X109118400Y-65405000D01*
X99872800Y-70358000D02*
X99085400Y-70358000D01*
X99085400Y-70358000D02*
X97205000Y-70358000D01*
D36*
%TO.N,GND*%
X97409000Y-67056000D02*
X97409000Y-66979800D01*
X97409000Y-66979800D02*
X98882200Y-65506600D01*
X125730000Y-66495000D02*
X126210400Y-66495000D01*
X130987800Y-79502000D02*
X130022600Y-79502000D01*
X130022600Y-79502000D02*
X125752000Y-79502000D01*
X126210400Y-66495000D02*
X130022600Y-70307200D01*
X130022600Y-70307200D02*
X130022600Y-79502000D01*
X125752000Y-79502000D02*
X125250000Y-79000000D01*
X108850000Y-89500000D02*
X108850000Y-88403000D01*
X108850000Y-88403000D02*
X105283000Y-84836000D01*
X112369600Y-87397600D02*
X112369600Y-88218000D01*
X112369600Y-88218000D02*
X113842800Y-89691200D01*
X114274600Y-95554800D02*
X112623600Y-95554800D01*
X112623600Y-95554800D02*
X111455200Y-96723200D01*
X121700000Y-84250000D02*
X123115600Y-84250000D01*
X123115600Y-84250000D02*
X125250000Y-82115600D01*
X125250000Y-82115600D02*
X125250000Y-79000000D01*
X113842800Y-89691200D02*
X113026200Y-89691200D01*
X113026200Y-89691200D02*
X112623600Y-90093800D01*
X112623600Y-90093800D02*
X112623600Y-93545503D01*
X112598200Y-93570903D02*
X112598200Y-93878400D01*
X112623600Y-93545503D02*
X112598200Y-93570903D01*
X112598200Y-93878400D02*
X114274600Y-95554800D01*
X114274600Y-95554800D02*
X119218800Y-95554800D01*
X119218800Y-95554800D02*
X121386600Y-93387000D01*
X121386600Y-93387000D02*
X121386600Y-92837000D01*
X118051800Y-87477600D02*
X120065800Y-87477600D01*
X120065800Y-87477600D02*
X121700000Y-85843400D01*
X121700000Y-85843400D02*
X121700000Y-84250000D01*
X122936000Y-77266800D02*
X124079000Y-77266800D01*
X122936000Y-76200000D02*
X122936000Y-77266800D01*
X124079000Y-77266800D02*
X125250000Y-78437800D01*
X125250000Y-78437800D02*
X125250000Y-79000000D01*
X112215000Y-67261400D02*
X113284000Y-66192400D01*
X110871000Y-58750200D02*
X111582200Y-59461400D01*
X112215000Y-67564000D02*
X112215000Y-67261400D01*
X111582200Y-59461400D02*
X111709200Y-59588400D01*
X113284000Y-66192400D02*
X113284000Y-65360339D01*
X113284000Y-65360339D02*
X111582200Y-63658539D01*
X111582200Y-63658539D02*
X111582200Y-59461400D01*
X110797000Y-71882000D02*
X110797000Y-73373100D01*
X110797000Y-73373100D02*
X110947200Y-73523300D01*
X110556500Y-73914000D02*
X110947200Y-73523300D01*
X109421000Y-73914000D02*
X110556500Y-73914000D01*
%TO.N,/adc3*%
X109778800Y-79019400D02*
X111877100Y-79019400D01*
X111877100Y-79019400D02*
X116630000Y-74266500D01*
%TO.N,GND*%
X105283000Y-84836000D02*
X105283000Y-82169000D01*
X105283000Y-82169000D02*
X105435400Y-82016600D01*
X80314800Y-82321400D02*
X81052800Y-82321400D01*
X81052800Y-82321400D02*
X82389200Y-80985000D01*
X84345900Y-76158400D02*
X82389200Y-78115100D01*
X82389200Y-78115100D02*
X82389200Y-80985000D01*
X81843400Y-73156600D02*
X81843400Y-73655900D01*
X81843400Y-73655900D02*
X84345900Y-76158400D01*
%TO.N,/adc2*%
X112268000Y-77749400D02*
X112445800Y-77571600D01*
X115217500Y-74799900D02*
X112445800Y-77571600D01*
X109702600Y-77749400D02*
X112268000Y-77749400D01*
%TO.N,/T3_Ch3*%
X107213400Y-83464400D02*
X107213400Y-82063600D01*
X107213400Y-82063600D02*
X107260400Y-82016600D01*
X107260400Y-82016600D02*
X113538000Y-82016600D01*
X113538000Y-82016600D02*
X114046000Y-81508600D01*
%TO.N,/T3_Ch4*%
X112369600Y-85572600D02*
X112369600Y-83997800D01*
X112369600Y-83997800D02*
X114274600Y-82092800D01*
D38*
%TO.N,/L4*%
X109800000Y-94433000D02*
X109829600Y-94462600D01*
X109800000Y-92500000D02*
X109800000Y-94433000D01*
D36*
%TO.N,/T3_Ch4*%
X110769400Y-85574500D02*
X112367700Y-85574500D01*
X112367700Y-85574500D02*
X112369600Y-85572600D01*
%TO.N,Net-(Q6-G)*%
X110769400Y-87399500D02*
X110769400Y-89480600D01*
X110769400Y-89480600D02*
X110750000Y-89500000D01*
%TO.N,/T3_Ch2*%
X118630000Y-74266500D02*
X118630000Y-76975400D01*
X118630000Y-76975400D02*
X117967000Y-77638400D01*
X117103400Y-77638400D02*
X113893600Y-80848200D01*
X117967000Y-77638400D02*
X117103400Y-77638400D01*
X113893600Y-80848200D02*
X104063800Y-80848200D01*
X104063800Y-80848200D02*
X103403400Y-81508600D01*
X103403400Y-81508600D02*
X101955600Y-81508600D01*
%TO.N,/T3_Ch1*%
X103225600Y-80314800D02*
X103200200Y-80340200D01*
X111836200Y-80314800D02*
X103225600Y-80314800D01*
%TO.N,/adc1*%
X114046000Y-74193400D02*
X114325400Y-74472800D01*
X114046000Y-72686959D02*
X114046000Y-74193400D01*
X115217500Y-72354000D02*
X114378959Y-72354000D01*
X114378959Y-72354000D02*
X114046000Y-72686959D01*
%TO.N,/adc2*%
X115217500Y-72854000D02*
X115217500Y-74799900D01*
%TO.N,/L1*%
X86000000Y-84000000D02*
X83354200Y-84000000D01*
X83354200Y-84000000D02*
X83339200Y-83985000D01*
%TO.N,/adc0*%
X87803400Y-82189200D02*
X87803400Y-83978400D01*
X87803400Y-83978400D02*
X87825000Y-84000000D01*
%TO.N,/T3_Ch1*%
X86170900Y-76158400D02*
X86170900Y-77991600D01*
X86170900Y-77991600D02*
X86162500Y-78000000D01*
%TO.N,Net-(Q1-G)*%
X84289200Y-80985000D02*
X84289200Y-78048300D01*
X84289200Y-78048300D02*
X84337500Y-78000000D01*
D38*
%TO.N,/L1*%
X83339200Y-83985000D02*
X83339200Y-85839200D01*
X83339200Y-85839200D02*
X83500000Y-86000000D01*
D36*
%TO.N,/adc4*%
X116001800Y-87477600D02*
X114325400Y-87477600D01*
X114325400Y-87477600D02*
X114300000Y-87503000D01*
X115341400Y-76962000D02*
X115620800Y-76962000D01*
X115620800Y-76962000D02*
X117130000Y-75452800D01*
X117130000Y-75452800D02*
X117130000Y-74266500D01*
%TO.N,/T2_Ch3*%
X120630000Y-74266500D02*
X120630000Y-77286800D01*
X120630000Y-77286800D02*
X118694200Y-79222600D01*
X118694200Y-79222600D02*
X117957600Y-79222600D01*
X113423000Y-87845200D02*
X114884200Y-89306400D01*
X117957600Y-79222600D02*
X113423000Y-83757200D01*
X113423000Y-83757200D02*
X113423000Y-87845200D01*
X114884200Y-89306400D02*
X114884200Y-91541600D01*
%TO.N,/adc5*%
X117630000Y-76045000D02*
X117630000Y-74266500D01*
X117348000Y-76327000D02*
X117630000Y-76045000D01*
%TO.N,/T2_Ch3*%
X114884200Y-91541600D02*
X113868200Y-91541600D01*
X115824000Y-91541600D02*
X114884200Y-91541600D01*
D37*
%TO.N,/L_pwrX1/g*%
X114731800Y-92837000D02*
X117576600Y-92837000D01*
X117576600Y-92837000D02*
X119486600Y-92837000D01*
D36*
X117649000Y-91541600D02*
X117649000Y-92764600D01*
X117649000Y-92764600D02*
X117576600Y-92837000D01*
%TO.N,/T2_Ch3*%
X113868200Y-91541600D02*
X113842800Y-91516200D01*
%TO.N,/adc4*%
X115904000Y-89408000D02*
X115904000Y-87575400D01*
X115904000Y-87575400D02*
X116001800Y-87477600D01*
D38*
%TO.N,/L6*%
X124508000Y-89837000D02*
X128244600Y-93573600D01*
X120436600Y-89837000D02*
X124508000Y-89837000D01*
D37*
%TO.N,/L_pwrX1/g*%
X113995200Y-93573600D02*
X114731800Y-92837000D01*
D36*
%TO.N,/L6*%
X120436600Y-89837000D02*
X118158000Y-89837000D01*
X118158000Y-89837000D02*
X117729000Y-89408000D01*
%TO.N,/L_pwrX/g*%
X119800000Y-84250000D02*
X117957600Y-84250000D01*
X117957600Y-84250000D02*
X116181400Y-84250000D01*
X118000000Y-82575000D02*
X118000000Y-84207600D01*
X118000000Y-84207600D02*
X117957600Y-84250000D01*
X116181400Y-84250000D02*
X114173000Y-86258400D01*
%TO.N,/T3_Ch1*%
X118130000Y-74266500D02*
X118130000Y-76764200D01*
X118130000Y-76764200D02*
X117755800Y-77138400D01*
X116816000Y-77138400D02*
X113639600Y-80314800D01*
X117755800Y-77138400D02*
X116816000Y-77138400D01*
X113639600Y-80314800D02*
X111836200Y-80314800D01*
%TO.N,/T3_Ch3*%
X117652800Y-78138400D02*
X117416200Y-78138400D01*
X117416200Y-78138400D02*
X114046000Y-81508600D01*
X118207694Y-78138400D02*
X117652800Y-78138400D01*
%TO.N,/T3_Ch4*%
X117881400Y-78638400D02*
X117729000Y-78638400D01*
X118414800Y-78638400D02*
X117881400Y-78638400D01*
X117729000Y-78638400D02*
X114274600Y-82092800D01*
%TO.N,/T3_Ch3*%
X119130000Y-74266500D02*
X119130000Y-77216094D01*
X119130000Y-77216094D02*
X118207694Y-78138400D01*
%TO.N,/T3_Ch4*%
X119630000Y-74266500D02*
X119630000Y-77423200D01*
X119630000Y-77423200D02*
X118414800Y-78638400D01*
%TO.N,/T2_Ch4*%
X118000000Y-80750000D02*
X118000000Y-80656497D01*
X118000000Y-80656497D02*
X121087497Y-77569000D01*
X121087497Y-77569000D02*
X121130000Y-77569000D01*
X121130000Y-74266500D02*
X121130000Y-77569000D01*
X121130000Y-77569000D02*
X122561000Y-79000000D01*
X122561000Y-79000000D02*
X123425000Y-79000000D01*
D37*
%TO.N,/L5*%
X120750000Y-80500000D02*
X120750000Y-79250000D01*
X120750000Y-81250000D02*
X120750000Y-80500000D01*
%TO.N,+5V*%
X83794600Y-71221600D02*
X84835200Y-70181000D01*
X94310200Y-73490000D02*
X98925200Y-73490000D01*
D36*
X112242600Y-65379600D02*
X109143800Y-65379600D01*
D37*
X99872800Y-72542400D02*
X99872800Y-70358000D01*
X98925200Y-73490000D02*
X99872800Y-72542400D01*
X84835200Y-70181000D02*
X97028000Y-70181000D01*
X102108000Y-70358000D02*
X99872800Y-70358000D01*
X97205000Y-70358000D02*
X97028000Y-70181000D01*
D36*
X109143800Y-65379600D02*
X109118400Y-65405000D01*
D37*
X83794600Y-73152000D02*
X83794600Y-71221600D01*
D36*
%TO.N,GND*%
X116035041Y-64008000D02*
X115316000Y-64008000D01*
X122724959Y-76200000D02*
X122936000Y-76200000D01*
X103301800Y-65405000D02*
X100431600Y-68275200D01*
X121630000Y-75105041D02*
X122724959Y-76200000D01*
X102362000Y-68707000D02*
X102895400Y-69240400D01*
X103733600Y-60731400D02*
X103733600Y-60629800D01*
X123542500Y-67854000D02*
X125059000Y-67854000D01*
X101158000Y-72633000D02*
X101484000Y-72633000D01*
X100863400Y-68707000D02*
X102362000Y-68707000D01*
X115316000Y-62611000D02*
X115316000Y-64008000D01*
X127330200Y-65303400D02*
X127330200Y-61061600D01*
X102895400Y-69240400D02*
X102895400Y-71221600D01*
X103733600Y-60629800D02*
X105613200Y-58750200D01*
D37*
X101158000Y-72633000D02*
X101158000Y-74149200D01*
D36*
X100431600Y-68275200D02*
X100863400Y-68707000D01*
X103657400Y-60731400D02*
X98882200Y-65506600D01*
X113436400Y-59588400D02*
X114452400Y-60604400D01*
X125730000Y-66495000D02*
X126138600Y-66495000D01*
X103733600Y-60731400D02*
X103657400Y-60731400D01*
X125730000Y-67183000D02*
X125059000Y-67854000D01*
X114452400Y-60604400D02*
X114452400Y-61747400D01*
X114452400Y-61747400D02*
X115316000Y-62611000D01*
X99822000Y-78638400D02*
X99822000Y-75485200D01*
X101484000Y-72633000D02*
X102895400Y-71221600D01*
X121630000Y-74266500D02*
X121630000Y-75105041D01*
X125730000Y-66495000D02*
X125730000Y-67183000D01*
X117130000Y-65941500D02*
X117130000Y-65102959D01*
X111709200Y-59588400D02*
X113436400Y-59588400D01*
X111825000Y-70854000D02*
X110797000Y-71882000D01*
X127330200Y-61061600D02*
X125399800Y-59131200D01*
X99822000Y-75485200D02*
X100097800Y-75209400D01*
X98577400Y-71755000D02*
X98602800Y-71729600D01*
X115217500Y-70854000D02*
X111825000Y-70854000D01*
X126138600Y-66495000D02*
X127330200Y-65303400D01*
D37*
X101158000Y-74149200D02*
X100097800Y-75209400D01*
D36*
X105613200Y-58750200D02*
X110871000Y-58750200D01*
X117130000Y-65102959D02*
X116035041Y-64008000D01*
X125399800Y-59131200D02*
X123698000Y-59131200D01*
X93011000Y-71755000D02*
X98577400Y-71755000D01*
X107393400Y-65405000D02*
X103301800Y-65405000D01*
%TO.N,+12V*%
X87757000Y-73312000D02*
X87851000Y-73406000D01*
X87757000Y-71755000D02*
X87757000Y-73312000D01*
%TO.N,+3V3*%
X122130000Y-72752400D02*
X121615200Y-72237600D01*
X117190200Y-71354000D02*
X117195600Y-71348600D01*
X115524500Y-65941500D02*
X116630000Y-65941500D01*
X116630000Y-67506400D02*
X117195600Y-68072000D01*
D37*
X110947200Y-75260200D02*
X105685200Y-75260200D01*
D36*
X112776000Y-63193000D02*
X113591000Y-64008000D01*
D37*
X118084600Y-72237600D02*
X121615200Y-72237600D01*
X121259600Y-68072000D02*
X117195600Y-68072000D01*
D36*
X123542500Y-67354000D02*
X121977600Y-67354000D01*
X122130000Y-74266500D02*
X122727500Y-74266500D01*
X115217500Y-66248500D02*
X115524500Y-65941500D01*
D37*
X103047800Y-72643200D02*
X103058000Y-72633000D01*
D36*
X123542500Y-66957500D02*
X123542500Y-67354000D01*
X115217500Y-71354000D02*
X113050000Y-71354000D01*
D37*
X112522000Y-73685400D02*
X110947200Y-75260200D01*
D36*
X115217500Y-67354000D02*
X115217500Y-66248500D01*
D37*
X112522000Y-71882000D02*
X112522000Y-73685400D01*
D36*
X122130000Y-74266500D02*
X122130000Y-72752400D01*
X113050000Y-71354000D02*
X112522000Y-71882000D01*
D37*
X105685200Y-75260200D02*
X103058000Y-72633000D01*
D36*
X113591000Y-64008000D02*
X115524500Y-65941500D01*
X116630000Y-65941500D02*
X116630000Y-67506400D01*
X115217500Y-71354000D02*
X117190200Y-71354000D01*
D37*
X117195600Y-68072000D02*
X117195600Y-71348600D01*
X103047800Y-75209400D02*
X103047800Y-72643200D01*
D36*
X125730000Y-64770000D02*
X123542500Y-66957500D01*
D37*
X117195600Y-71348600D02*
X118084600Y-72237600D01*
D36*
X121977600Y-67354000D02*
X121259600Y-68072000D01*
X112776000Y-60499000D02*
X112776000Y-63193000D01*
X122727500Y-74266500D02*
X124661000Y-76200000D01*
%TO.N,/OSC_IN*%
X108132000Y-67564000D02*
X107696000Y-68000000D01*
X109050000Y-69354000D02*
X107696000Y-68000000D01*
X110490000Y-67564000D02*
X108132000Y-67564000D01*
X115217500Y-69354000D02*
X109050000Y-69354000D01*
%TO.N,/OSC_OUT*%
X115217500Y-69854000D02*
X109542000Y-69854000D01*
X107696000Y-71700000D02*
X107696000Y-73914000D01*
X109542000Y-69854000D02*
X107696000Y-71700000D01*
%TO.N,/SW3*%
X122072747Y-63246000D02*
X124307600Y-63246000D01*
X120630000Y-64688747D02*
X122072747Y-63246000D01*
X120630000Y-65941500D02*
X120630000Y-64688747D01*
%TO.N,/SW4*%
X120130000Y-64481641D02*
X122127641Y-62484000D01*
X120130000Y-65941500D02*
X120130000Y-64481641D01*
X122127641Y-62484000D02*
X123520200Y-62484000D01*
%TO.N,/SW2*%
X121130000Y-65941500D02*
X121130000Y-64895853D01*
X121130000Y-64895853D02*
X122017853Y-64008000D01*
X122017853Y-64008000D02*
X123545600Y-64008000D01*
%TO.N,/SW5*%
X119630000Y-65941500D02*
X119630000Y-64274535D01*
X122182535Y-61722000D02*
X122682000Y-61722000D01*
X119630000Y-64274535D02*
X122182535Y-61722000D01*
%TO.N,/SW1*%
X121630000Y-65941500D02*
X121630000Y-65102959D01*
X121630000Y-65102959D02*
X121972787Y-64760172D01*
X121972787Y-64760172D02*
X122701012Y-64760172D01*
%TO.N,/SW6*%
X119130000Y-65941500D02*
X119130000Y-64067429D01*
X122237429Y-60960000D02*
X123545600Y-60960000D01*
X119130000Y-64067429D02*
X122237429Y-60960000D01*
%TO.N,/Rx*%
X128016000Y-74676000D02*
X126923800Y-74676000D01*
X126263400Y-74015600D02*
X126263400Y-70586600D01*
X126923800Y-74676000D02*
X126263400Y-74015600D01*
X125530800Y-69854000D02*
X123542500Y-69854000D01*
X126263400Y-70586600D02*
X125530800Y-69854000D01*
%TO.N,/Tx*%
X123542500Y-70354000D02*
X124786200Y-70354000D01*
X124786200Y-70354000D02*
X125476000Y-71043800D01*
X125476000Y-71043800D02*
X125476000Y-74676000D01*
X125476000Y-74676000D02*
X128016000Y-77216000D01*
%TO.N,/SWCLK*%
X123288500Y-65941500D02*
X123444000Y-65786000D01*
X122130000Y-65941500D02*
X123288500Y-65941500D01*
%TO.N,/SWDIO*%
X124945200Y-68354000D02*
X125399800Y-68808600D01*
X123542500Y-68354000D02*
X124945200Y-68354000D01*
%TO.N,Net-(J3-Pin_4)*%
X112776000Y-58674000D02*
X116840000Y-58674000D01*
X116840000Y-58674000D02*
X117856000Y-59690000D01*
%TO.N,/BOOT0*%
X116586000Y-60604400D02*
X118630000Y-62648400D01*
X118630000Y-62648400D02*
X118630000Y-65941500D01*
X116586000Y-59690000D02*
X116586000Y-60604400D01*
%TO.N,/NRST*%
X111120500Y-70354000D02*
X110871000Y-70603500D01*
X115217500Y-70354000D02*
X111120500Y-70354000D01*
%TO.N,/VEN*%
X91186000Y-71755000D02*
X91186000Y-75565000D01*
X89582000Y-71755000D02*
X91186000Y-71755000D01*
X91186000Y-75565000D02*
X92202000Y-76581000D01*
%TO.N,/CAN_Rx*%
X118130000Y-65941500D02*
X118130000Y-63208354D01*
X118130000Y-63208354D02*
X117710823Y-62789177D01*
%TO.N,/CAN_Tx*%
X117630000Y-65941500D02*
X117630000Y-63985200D01*
X117630000Y-63985200D02*
X116484400Y-62839600D01*
%TD*%
%TA.AperFunction,Conductor*%
%TO.N,GND*%
G36*
X133376475Y-57999528D02*
G01*
X133443437Y-58019468D01*
X133488990Y-58072447D01*
X133500000Y-58123527D01*
X133500000Y-97876000D01*
X133480315Y-97943039D01*
X133427511Y-97988794D01*
X133376000Y-98000000D01*
X69124000Y-98000000D01*
X69056961Y-97980315D01*
X69011206Y-97927511D01*
X69000000Y-97876000D01*
X69000000Y-92624000D01*
X69019685Y-92556961D01*
X69072489Y-92511206D01*
X69124000Y-92500000D01*
X81000000Y-92500000D01*
X81694451Y-92500000D01*
X81714616Y-92769101D01*
X81765441Y-92991778D01*
X81774666Y-93032195D01*
X81873257Y-93283398D01*
X82008185Y-93517102D01*
X82080024Y-93607185D01*
X82176442Y-93728089D01*
X82363183Y-93901358D01*
X82374259Y-93911635D01*
X82597226Y-94063651D01*
X82840359Y-94180738D01*
X83098228Y-94260280D01*
X83098229Y-94260280D01*
X83098232Y-94260281D01*
X83365063Y-94300499D01*
X83365068Y-94300499D01*
X83365071Y-94300500D01*
X83365072Y-94300500D01*
X83634928Y-94300500D01*
X83634929Y-94300500D01*
X83634936Y-94300499D01*
X83901767Y-94260281D01*
X83901768Y-94260280D01*
X83901772Y-94260280D01*
X84159641Y-94180738D01*
X84402775Y-94063651D01*
X84625741Y-93911635D01*
X84694463Y-93847870D01*
X86699500Y-93847870D01*
X86699501Y-93847876D01*
X86705908Y-93907483D01*
X86756202Y-94042328D01*
X86756206Y-94042335D01*
X86842452Y-94157544D01*
X86842455Y-94157547D01*
X86957664Y-94243793D01*
X86957671Y-94243797D01*
X87092517Y-94294091D01*
X87092516Y-94294091D01*
X87099444Y-94294835D01*
X87152127Y-94300500D01*
X89847872Y-94300499D01*
X89907483Y-94294091D01*
X90042331Y-94243796D01*
X90157546Y-94157546D01*
X90243796Y-94042331D01*
X90294091Y-93907483D01*
X90300500Y-93847873D01*
X90300499Y-92500000D01*
X97944451Y-92500000D01*
X97964616Y-92769101D01*
X98015441Y-92991778D01*
X98024666Y-93032195D01*
X98123257Y-93283398D01*
X98258185Y-93517102D01*
X98330024Y-93607185D01*
X98426442Y-93728089D01*
X98613183Y-93901358D01*
X98624259Y-93911635D01*
X98847226Y-94063651D01*
X99090359Y-94180738D01*
X99348228Y-94260280D01*
X99348229Y-94260280D01*
X99348232Y-94260281D01*
X99615063Y-94300499D01*
X99615068Y-94300499D01*
X99615071Y-94300500D01*
X99615072Y-94300500D01*
X99884928Y-94300500D01*
X99884929Y-94300500D01*
X99884936Y-94300499D01*
X100151767Y-94260281D01*
X100151768Y-94260280D01*
X100151772Y-94260280D01*
X100409641Y-94180738D01*
X100652775Y-94063651D01*
X100875741Y-93911635D01*
X100944463Y-93847870D01*
X102949500Y-93847870D01*
X102949501Y-93847876D01*
X102955908Y-93907483D01*
X103006202Y-94042328D01*
X103006206Y-94042335D01*
X103092452Y-94157544D01*
X103092455Y-94157547D01*
X103207664Y-94243793D01*
X103207671Y-94243797D01*
X103342517Y-94294091D01*
X103342516Y-94294091D01*
X103349444Y-94294835D01*
X103402127Y-94300500D01*
X106097872Y-94300499D01*
X106157483Y-94294091D01*
X106292331Y-94243796D01*
X106407546Y-94157546D01*
X106493796Y-94042331D01*
X106544091Y-93907483D01*
X106550500Y-93847873D01*
X106550499Y-91152128D01*
X106544091Y-91092517D01*
X106542542Y-91088365D01*
X106493797Y-90957671D01*
X106493793Y-90957664D01*
X106407547Y-90842455D01*
X106407544Y-90842452D01*
X106292335Y-90756206D01*
X106292328Y-90756202D01*
X106157482Y-90705908D01*
X106157483Y-90705908D01*
X106097883Y-90699501D01*
X106097881Y-90699500D01*
X106097873Y-90699500D01*
X106097864Y-90699500D01*
X103402129Y-90699500D01*
X103402123Y-90699501D01*
X103342516Y-90705908D01*
X103207671Y-90756202D01*
X103207664Y-90756206D01*
X103092455Y-90842452D01*
X103092452Y-90842455D01*
X103006206Y-90957664D01*
X103006202Y-90957671D01*
X102955908Y-91092517D01*
X102953187Y-91117830D01*
X102949501Y-91152123D01*
X102949500Y-91152135D01*
X102949500Y-93847870D01*
X100944463Y-93847870D01*
X101073561Y-93728085D01*
X101241815Y-93517102D01*
X101376743Y-93283398D01*
X101475334Y-93032195D01*
X101535383Y-92769103D01*
X101555549Y-92500000D01*
X101551965Y-92452179D01*
X101535383Y-92230898D01*
X101506284Y-92103408D01*
X101475334Y-91967805D01*
X101376743Y-91716602D01*
X101241815Y-91482898D01*
X101073561Y-91271915D01*
X101073560Y-91271914D01*
X101073557Y-91271910D01*
X100875741Y-91088365D01*
X100818738Y-91049501D01*
X100652775Y-90936349D01*
X100652769Y-90936346D01*
X100652768Y-90936345D01*
X100652767Y-90936344D01*
X100409643Y-90819263D01*
X100409645Y-90819263D01*
X100151773Y-90739720D01*
X100151767Y-90739718D01*
X99884936Y-90699500D01*
X99884929Y-90699500D01*
X99615071Y-90699500D01*
X99615063Y-90699500D01*
X99348232Y-90739718D01*
X99348226Y-90739720D01*
X99090358Y-90819262D01*
X98847230Y-90936346D01*
X98624258Y-91088365D01*
X98426442Y-91271910D01*
X98258185Y-91482898D01*
X98123258Y-91716599D01*
X98123256Y-91716603D01*
X98024666Y-91967804D01*
X98024664Y-91967811D01*
X97964616Y-92230898D01*
X97944451Y-92499995D01*
X97944451Y-92500000D01*
X90300499Y-92500000D01*
X90300499Y-91152128D01*
X90294091Y-91092517D01*
X90292542Y-91088365D01*
X90243797Y-90957671D01*
X90243793Y-90957664D01*
X90157547Y-90842455D01*
X90157544Y-90842452D01*
X90042335Y-90756206D01*
X90042328Y-90756202D01*
X89907482Y-90705908D01*
X89907483Y-90705908D01*
X89847883Y-90699501D01*
X89847881Y-90699500D01*
X89847873Y-90699500D01*
X89847864Y-90699500D01*
X87152129Y-90699500D01*
X87152123Y-90699501D01*
X87092516Y-90705908D01*
X86957671Y-90756202D01*
X86957664Y-90756206D01*
X86842455Y-90842452D01*
X86842452Y-90842455D01*
X86756206Y-90957664D01*
X86756202Y-90957671D01*
X86705908Y-91092517D01*
X86703187Y-91117830D01*
X86699501Y-91152123D01*
X86699500Y-91152135D01*
X86699500Y-93847870D01*
X84694463Y-93847870D01*
X84823561Y-93728085D01*
X84991815Y-93517102D01*
X85126743Y-93283398D01*
X85225334Y-93032195D01*
X85285383Y-92769103D01*
X85305549Y-92500000D01*
X85301965Y-92452179D01*
X85285383Y-92230898D01*
X85256284Y-92103408D01*
X85225334Y-91967805D01*
X85126743Y-91716602D01*
X84991815Y-91482898D01*
X84823561Y-91271915D01*
X84823560Y-91271914D01*
X84823557Y-91271910D01*
X84625741Y-91088365D01*
X84568738Y-91049501D01*
X84402775Y-90936349D01*
X84402769Y-90936346D01*
X84402768Y-90936345D01*
X84402767Y-90936344D01*
X84159643Y-90819263D01*
X84159645Y-90819263D01*
X83901773Y-90739720D01*
X83901767Y-90739718D01*
X83634936Y-90699500D01*
X83634929Y-90699500D01*
X83365071Y-90699500D01*
X83365063Y-90699500D01*
X83098232Y-90739718D01*
X83098226Y-90739720D01*
X82840358Y-90819262D01*
X82597230Y-90936346D01*
X82374258Y-91088365D01*
X82176442Y-91271910D01*
X82008185Y-91482898D01*
X81873258Y-91716599D01*
X81873256Y-91716603D01*
X81774666Y-91967804D01*
X81774664Y-91967811D01*
X81714616Y-92230898D01*
X81694451Y-92499995D01*
X81694451Y-92500000D01*
X81000000Y-92500000D01*
X81000000Y-89750000D01*
X107950000Y-89750000D01*
X107950000Y-90497844D01*
X107956401Y-90557372D01*
X107956403Y-90557379D01*
X108006645Y-90692086D01*
X108006649Y-90692093D01*
X108092809Y-90807187D01*
X108092812Y-90807190D01*
X108207906Y-90893350D01*
X108207913Y-90893354D01*
X108342620Y-90943596D01*
X108342627Y-90943598D01*
X108402155Y-90949999D01*
X108402172Y-90950000D01*
X108600000Y-90950000D01*
X108600000Y-89750000D01*
X107950000Y-89750000D01*
X81000000Y-89750000D01*
X81000000Y-89250000D01*
X107950000Y-89250000D01*
X108600000Y-89250000D01*
X108600000Y-88050000D01*
X108402155Y-88050000D01*
X108342627Y-88056401D01*
X108342620Y-88056403D01*
X108207913Y-88106645D01*
X108207906Y-88106649D01*
X108092812Y-88192809D01*
X108092809Y-88192812D01*
X108006649Y-88307906D01*
X108006645Y-88307913D01*
X107956403Y-88442620D01*
X107956401Y-88442627D01*
X107950000Y-88502155D01*
X107950000Y-89250000D01*
X81000000Y-89250000D01*
X81000000Y-81235000D01*
X81489200Y-81235000D01*
X81489200Y-81982844D01*
X81495601Y-82042372D01*
X81495603Y-82042379D01*
X81545845Y-82177086D01*
X81545849Y-82177093D01*
X81632009Y-82292187D01*
X81632012Y-82292190D01*
X81747106Y-82378350D01*
X81747113Y-82378354D01*
X81881820Y-82428596D01*
X81881827Y-82428598D01*
X81941355Y-82434999D01*
X81941372Y-82435000D01*
X82139200Y-82435000D01*
X82139200Y-81235000D01*
X81489200Y-81235000D01*
X81000000Y-81235000D01*
X81000000Y-80735000D01*
X81489200Y-80735000D01*
X82139200Y-80735000D01*
X82139200Y-79535000D01*
X81941355Y-79535000D01*
X81881827Y-79541401D01*
X81881820Y-79541403D01*
X81747113Y-79591645D01*
X81747106Y-79591649D01*
X81632012Y-79677809D01*
X81632009Y-79677812D01*
X81545849Y-79792906D01*
X81545845Y-79792913D01*
X81495603Y-79927620D01*
X81495601Y-79927627D01*
X81489200Y-79987155D01*
X81489200Y-80735000D01*
X81000000Y-80735000D01*
X81000000Y-75908400D01*
X83358400Y-75908400D01*
X84095900Y-75908400D01*
X84095900Y-75183400D01*
X84095899Y-75183399D01*
X84046761Y-75183400D01*
X84046743Y-75183401D01*
X83945747Y-75193719D01*
X83782099Y-75247946D01*
X83782088Y-75247951D01*
X83635365Y-75338452D01*
X83635361Y-75338455D01*
X83513455Y-75460361D01*
X83513452Y-75460365D01*
X83422951Y-75607088D01*
X83422946Y-75607099D01*
X83368719Y-75770747D01*
X83358400Y-75871745D01*
X83358400Y-75908400D01*
X81000000Y-75908400D01*
X81000000Y-72124000D01*
X81019685Y-72056961D01*
X81072489Y-72011206D01*
X81124000Y-72000000D01*
X82920100Y-72000000D01*
X82987139Y-72019685D01*
X83032894Y-72072489D01*
X83044100Y-72124000D01*
X83044100Y-72292261D01*
X83024415Y-72359300D01*
X83003640Y-72383897D01*
X82977835Y-72407421D01*
X82854927Y-72570178D01*
X82764022Y-72752739D01*
X82764017Y-72752752D01*
X82708202Y-72948917D01*
X82689385Y-73151999D01*
X82689385Y-73152000D01*
X82708202Y-73355082D01*
X82764017Y-73551247D01*
X82764022Y-73551260D01*
X82854927Y-73733821D01*
X82977837Y-73896581D01*
X83128558Y-74033980D01*
X83128560Y-74033982D01*
X83184842Y-74068830D01*
X83301963Y-74141348D01*
X83492144Y-74215024D01*
X83692624Y-74252500D01*
X83692626Y-74252500D01*
X83896574Y-74252500D01*
X83896576Y-74252500D01*
X84097056Y-74215024D01*
X84287237Y-74141348D01*
X84460641Y-74033981D01*
X84611364Y-73896579D01*
X84734273Y-73733821D01*
X84825182Y-73551250D01*
X84880997Y-73355083D01*
X84899815Y-73152000D01*
X84896084Y-73111740D01*
X84880997Y-72948917D01*
X84859620Y-72873785D01*
X84825182Y-72752750D01*
X84823655Y-72749684D01*
X84764120Y-72630121D01*
X84734273Y-72570179D01*
X84611364Y-72407421D01*
X84591706Y-72389500D01*
X84585560Y-72383897D01*
X84549280Y-72324185D01*
X84545100Y-72292261D01*
X84545100Y-72124000D01*
X84564785Y-72056961D01*
X84617589Y-72011206D01*
X84669100Y-72000000D01*
X86652765Y-72000000D01*
X86719804Y-72019685D01*
X86765559Y-72072489D01*
X86776123Y-72111398D01*
X86779326Y-72142753D01*
X86829559Y-72294346D01*
X86833592Y-72306515D01*
X86833593Y-72306518D01*
X86857850Y-72345844D01*
X86924160Y-72453350D01*
X87046150Y-72575340D01*
X87047598Y-72576233D01*
X87048382Y-72577104D01*
X87051817Y-72579821D01*
X87051352Y-72580407D01*
X87094321Y-72628180D01*
X87106500Y-72681771D01*
X87106500Y-72861285D01*
X87089888Y-72923283D01*
X87026057Y-73033844D01*
X87023820Y-73037718D01*
X87023818Y-73037722D01*
X86967469Y-73211149D01*
X86965326Y-73217744D01*
X86945540Y-73406000D01*
X86965326Y-73594256D01*
X86965327Y-73594259D01*
X87023818Y-73774277D01*
X87023821Y-73774284D01*
X87118467Y-73938216D01*
X87210114Y-74040000D01*
X87245129Y-74078888D01*
X87398265Y-74190148D01*
X87398270Y-74190151D01*
X87571192Y-74267142D01*
X87571197Y-74267144D01*
X87756354Y-74306500D01*
X87756355Y-74306500D01*
X87945644Y-74306500D01*
X87945646Y-74306500D01*
X88130803Y-74267144D01*
X88303730Y-74190151D01*
X88456871Y-74078888D01*
X88583533Y-73938216D01*
X88678179Y-73774284D01*
X88736674Y-73594256D01*
X88756460Y-73406000D01*
X88736674Y-73217744D01*
X88679998Y-73043313D01*
X88678181Y-73037722D01*
X88678180Y-73037721D01*
X88678179Y-73037716D01*
X88583533Y-72873784D01*
X88466058Y-72743315D01*
X88435828Y-72680324D01*
X88444453Y-72610988D01*
X88470522Y-72572667D01*
X88581821Y-72461368D01*
X88643142Y-72427886D01*
X88712834Y-72432870D01*
X88757180Y-72461371D01*
X88871150Y-72575340D01*
X89017984Y-72665908D01*
X89181747Y-72720174D01*
X89282823Y-72730500D01*
X89881176Y-72730499D01*
X89881184Y-72730498D01*
X89881187Y-72730498D01*
X89952258Y-72723238D01*
X89982253Y-72720174D01*
X90146016Y-72665908D01*
X90292850Y-72575340D01*
X90296318Y-72571871D01*
X90357642Y-72538386D01*
X90427334Y-72543370D01*
X90471681Y-72571871D01*
X90475150Y-72575340D01*
X90476598Y-72576233D01*
X90477382Y-72577104D01*
X90480817Y-72579821D01*
X90480352Y-72580407D01*
X90523321Y-72628180D01*
X90535500Y-72681771D01*
X90535500Y-75479494D01*
X90533732Y-75495505D01*
X90533974Y-75495528D01*
X90533239Y-75503294D01*
X90535469Y-75574235D01*
X90535500Y-75576183D01*
X90535500Y-75605920D01*
X90535501Y-75605940D01*
X90536418Y-75613206D01*
X90536876Y-75619024D01*
X90538402Y-75667567D01*
X90538403Y-75667570D01*
X90544323Y-75687948D01*
X90548268Y-75706996D01*
X90550928Y-75728054D01*
X90550931Y-75728064D01*
X90568813Y-75773230D01*
X90570705Y-75778758D01*
X90584254Y-75825395D01*
X90584255Y-75825397D01*
X90595060Y-75843666D01*
X90603617Y-75861134D01*
X90607813Y-75871730D01*
X90611432Y-75880872D01*
X90639983Y-75920170D01*
X90643188Y-75925049D01*
X90667919Y-75966865D01*
X90667923Y-75966869D01*
X90682925Y-75981871D01*
X90695563Y-75996669D01*
X90708033Y-76013833D01*
X90708036Y-76013836D01*
X90708037Y-76013837D01*
X90745476Y-76044809D01*
X90749776Y-76048722D01*
X91028799Y-76327745D01*
X91267191Y-76566137D01*
X91300676Y-76627460D01*
X91302830Y-76640851D01*
X91316326Y-76769256D01*
X91316327Y-76769259D01*
X91374818Y-76949277D01*
X91374821Y-76949284D01*
X91449836Y-77079215D01*
X91469467Y-77113216D01*
X91495861Y-77142529D01*
X91526090Y-77205519D01*
X91517465Y-77274854D01*
X91472724Y-77328520D01*
X91406071Y-77349478D01*
X91403710Y-77349500D01*
X87093208Y-77349500D01*
X87026169Y-77329815D01*
X87000583Y-77306619D01*
X87000446Y-77306757D01*
X86997636Y-77303947D01*
X86995945Y-77302414D01*
X86995347Y-77301658D01*
X86995341Y-77301652D01*
X86995340Y-77301650D01*
X86873350Y-77179660D01*
X86873198Y-77179540D01*
X86873120Y-77179430D01*
X86868243Y-77174553D01*
X86869076Y-77173719D01*
X86832818Y-77122521D01*
X86829675Y-77052722D01*
X86864767Y-76992304D01*
X86876269Y-76983456D01*
X86876083Y-76983221D01*
X86881744Y-76978743D01*
X86881750Y-76978740D01*
X87003740Y-76856750D01*
X87094308Y-76709916D01*
X87148574Y-76546153D01*
X87158900Y-76445077D01*
X87158899Y-75871724D01*
X87157818Y-75861145D01*
X87148574Y-75770647D01*
X87134460Y-75728054D01*
X87094308Y-75606884D01*
X87003740Y-75460050D01*
X86881750Y-75338060D01*
X86772299Y-75270550D01*
X86734918Y-75247493D01*
X86734913Y-75247491D01*
X86722609Y-75243414D01*
X86571153Y-75193226D01*
X86571151Y-75193225D01*
X86470078Y-75182900D01*
X85871730Y-75182900D01*
X85871712Y-75182901D01*
X85770647Y-75193225D01*
X85606884Y-75247492D01*
X85606881Y-75247493D01*
X85460051Y-75338059D01*
X85345727Y-75452383D01*
X85284404Y-75485867D01*
X85214712Y-75480883D01*
X85170365Y-75452382D01*
X85056438Y-75338455D01*
X85056434Y-75338452D01*
X84909711Y-75247951D01*
X84909700Y-75247946D01*
X84746052Y-75193719D01*
X84645054Y-75183400D01*
X84595900Y-75183400D01*
X84595900Y-76284400D01*
X84576215Y-76351439D01*
X84523411Y-76397194D01*
X84471900Y-76408400D01*
X83358401Y-76408400D01*
X83358401Y-76445054D01*
X83368719Y-76546052D01*
X83422946Y-76709700D01*
X83422951Y-76709711D01*
X83513452Y-76856434D01*
X83513455Y-76856438D01*
X83635362Y-76978345D01*
X83635664Y-76978584D01*
X83635816Y-76978799D01*
X83640469Y-76983452D01*
X83639673Y-76984247D01*
X83676040Y-77035606D01*
X83679178Y-77105405D01*
X83644082Y-77165820D01*
X83632166Y-77174988D01*
X83632317Y-77175179D01*
X83626649Y-77179660D01*
X83504661Y-77301648D01*
X83414093Y-77448481D01*
X83414091Y-77448486D01*
X83407110Y-77469554D01*
X83359826Y-77612247D01*
X83359826Y-77612248D01*
X83359825Y-77612248D01*
X83349500Y-77713315D01*
X83349500Y-78286669D01*
X83349501Y-78286687D01*
X83359825Y-78387747D01*
X83359825Y-78387752D01*
X83390019Y-78478869D01*
X83413941Y-78551061D01*
X83414092Y-78551515D01*
X83414093Y-78551518D01*
X83504661Y-78698351D01*
X83602381Y-78796071D01*
X83635866Y-78857394D01*
X83638700Y-78883752D01*
X83638700Y-79535249D01*
X83619015Y-79602288D01*
X83589012Y-79634515D01*
X83531657Y-79677451D01*
X83531651Y-79677457D01*
X83440088Y-79799769D01*
X83437956Y-79798173D01*
X83398327Y-79837794D01*
X83330052Y-79852638D01*
X83264591Y-79828214D01*
X83239257Y-79798971D01*
X83237869Y-79800011D01*
X83146390Y-79677812D01*
X83146387Y-79677809D01*
X83031293Y-79591649D01*
X83031286Y-79591645D01*
X82896579Y-79541403D01*
X82896572Y-79541401D01*
X82837044Y-79535000D01*
X82639200Y-79535000D01*
X82639200Y-82434999D01*
X82652030Y-82447830D01*
X82685515Y-82509153D01*
X82680531Y-82578845D01*
X82638662Y-82634776D01*
X82581654Y-82677453D01*
X82581652Y-82677455D01*
X82495406Y-82792664D01*
X82495402Y-82792671D01*
X82445108Y-82927517D01*
X82438701Y-82987116D01*
X82438701Y-82987123D01*
X82438700Y-82987135D01*
X82438700Y-83520879D01*
X82428651Y-83569779D01*
X82379660Y-83683941D01*
X82338700Y-83883258D01*
X82338700Y-85825706D01*
X82338680Y-85827276D01*
X82336443Y-85915562D01*
X82336443Y-85915570D01*
X82347264Y-85975939D01*
X82347918Y-85980604D01*
X82354125Y-86041630D01*
X82354127Y-86041644D01*
X82364408Y-86074413D01*
X82366279Y-86082037D01*
X82372342Y-86115852D01*
X82372343Y-86115859D01*
X82395093Y-86172812D01*
X82396674Y-86177251D01*
X82415038Y-86235781D01*
X82415039Y-86235784D01*
X82415041Y-86235788D01*
X82424250Y-86252381D01*
X82435094Y-86278617D01*
X82469418Y-86399253D01*
X82560327Y-86581821D01*
X82683237Y-86744581D01*
X82833958Y-86881980D01*
X82833960Y-86881982D01*
X82933141Y-86943392D01*
X83007363Y-86989348D01*
X83197544Y-87063024D01*
X83398024Y-87100500D01*
X83398026Y-87100500D01*
X83601974Y-87100500D01*
X83601976Y-87100500D01*
X83802456Y-87063024D01*
X83992637Y-86989348D01*
X84166041Y-86881981D01*
X84316764Y-86744579D01*
X84439673Y-86581821D01*
X84530582Y-86399250D01*
X84586397Y-86203083D01*
X84605215Y-86000000D01*
X84602985Y-85975939D01*
X84586397Y-85796917D01*
X84571283Y-85743797D01*
X84530582Y-85600750D01*
X84508890Y-85557187D01*
X84439671Y-85418175D01*
X84364746Y-85318958D01*
X84340054Y-85253597D01*
X84339700Y-85244232D01*
X84339700Y-84774500D01*
X84359385Y-84707461D01*
X84412189Y-84661706D01*
X84463700Y-84650500D01*
X85069292Y-84650500D01*
X85136331Y-84670185D01*
X85161915Y-84693380D01*
X85162053Y-84693243D01*
X85164852Y-84696042D01*
X85166555Y-84697586D01*
X85167155Y-84698345D01*
X85167160Y-84698350D01*
X85289150Y-84820340D01*
X85435984Y-84910908D01*
X85599747Y-84965174D01*
X85700823Y-84975500D01*
X86299176Y-84975499D01*
X86299184Y-84975498D01*
X86299187Y-84975498D01*
X86354530Y-84969844D01*
X86400253Y-84965174D01*
X86564016Y-84910908D01*
X86710850Y-84820340D01*
X86824818Y-84706371D01*
X86886142Y-84672886D01*
X86955834Y-84677870D01*
X87000180Y-84706371D01*
X87114150Y-84820340D01*
X87260984Y-84910908D01*
X87424747Y-84965174D01*
X87525823Y-84975500D01*
X88124176Y-84975499D01*
X88124184Y-84975498D01*
X88124187Y-84975498D01*
X88179530Y-84969844D01*
X88225253Y-84965174D01*
X88389016Y-84910908D01*
X88535850Y-84820340D01*
X88657840Y-84698350D01*
X88748408Y-84551516D01*
X88802674Y-84387753D01*
X88813000Y-84286677D01*
X88812999Y-83713324D01*
X88809128Y-83675433D01*
X88802674Y-83612247D01*
X88798906Y-83600875D01*
X88748408Y-83448484D01*
X88657840Y-83301650D01*
X88657838Y-83301648D01*
X88654048Y-83295503D01*
X88656659Y-83293892D01*
X88635675Y-83241898D01*
X88648706Y-83173254D01*
X88693984Y-83124226D01*
X88722056Y-83106912D01*
X88846112Y-82982856D01*
X88898080Y-82898602D01*
X88950027Y-82851879D01*
X89003618Y-82839700D01*
X89403895Y-82839700D01*
X89419905Y-82841467D01*
X89419928Y-82841226D01*
X89427694Y-82841960D01*
X89427695Y-82841959D01*
X89427696Y-82841960D01*
X89434671Y-82841740D01*
X89498635Y-82839731D01*
X89500583Y-82839700D01*
X89530325Y-82839700D01*
X89537590Y-82838781D01*
X89543416Y-82838322D01*
X89591969Y-82836797D01*
X89612356Y-82830873D01*
X89631396Y-82826931D01*
X89652458Y-82824271D01*
X89697635Y-82806383D01*
X89703135Y-82804500D01*
X89749798Y-82790944D01*
X89768065Y-82780139D01*
X89785536Y-82771580D01*
X89805271Y-82763768D01*
X89844577Y-82735210D01*
X89849443Y-82732013D01*
X89891265Y-82707281D01*
X89906270Y-82692275D01*
X89921068Y-82679636D01*
X89924070Y-82677455D01*
X89938237Y-82667163D01*
X89969209Y-82629722D01*
X89973113Y-82625431D01*
X91368326Y-81230219D01*
X91429650Y-81196734D01*
X91456008Y-81193900D01*
X99304695Y-81193900D01*
X99320705Y-81195667D01*
X99320728Y-81195426D01*
X99328494Y-81196160D01*
X99328495Y-81196159D01*
X99328496Y-81196160D01*
X99335471Y-81195940D01*
X99399435Y-81193931D01*
X99401383Y-81193900D01*
X99431125Y-81193900D01*
X99438390Y-81192981D01*
X99444216Y-81192522D01*
X99492769Y-81190997D01*
X99513156Y-81185073D01*
X99532196Y-81181131D01*
X99553258Y-81178471D01*
X99598435Y-81160583D01*
X99603935Y-81158700D01*
X99650598Y-81145144D01*
X99668865Y-81134339D01*
X99686336Y-81125780D01*
X99706071Y-81117968D01*
X99745377Y-81089410D01*
X99750243Y-81086213D01*
X99792065Y-81061481D01*
X99807070Y-81046475D01*
X99821868Y-81033836D01*
X99839037Y-81021363D01*
X99870009Y-80983922D01*
X99873913Y-80979631D01*
X103484126Y-77369419D01*
X103545450Y-77335934D01*
X103571808Y-77333100D01*
X108720351Y-77333100D01*
X108787390Y-77352785D01*
X108833145Y-77405589D01*
X108843089Y-77474747D01*
X108838283Y-77495413D01*
X108833190Y-77511089D01*
X108816926Y-77561142D01*
X108816925Y-77561144D01*
X108816926Y-77561144D01*
X108797140Y-77749400D01*
X108816926Y-77937656D01*
X108816927Y-77937659D01*
X108875418Y-78117677D01*
X108875421Y-78117684D01*
X108970067Y-78281616D01*
X109008364Y-78324149D01*
X109028528Y-78346543D01*
X109058758Y-78409534D01*
X109050133Y-78478869D01*
X109043766Y-78491514D01*
X108951620Y-78651118D01*
X108951618Y-78651122D01*
X108893127Y-78831140D01*
X108893126Y-78831144D01*
X108873340Y-79019400D01*
X108893126Y-79207656D01*
X108893127Y-79207659D01*
X108951618Y-79387677D01*
X108951621Y-79387684D01*
X109003938Y-79478300D01*
X109020411Y-79546201D01*
X108997558Y-79612227D01*
X108942637Y-79655418D01*
X108896551Y-79664300D01*
X103842215Y-79664300D01*
X103775176Y-79644615D01*
X103769330Y-79640618D01*
X103652934Y-79556051D01*
X103652929Y-79556048D01*
X103480007Y-79479057D01*
X103480002Y-79479055D01*
X103334200Y-79448065D01*
X103294846Y-79439700D01*
X103105554Y-79439700D01*
X103073097Y-79446598D01*
X102920397Y-79479055D01*
X102920392Y-79479057D01*
X102747470Y-79556048D01*
X102747465Y-79556051D01*
X102594329Y-79667311D01*
X102467666Y-79807985D01*
X102373021Y-79971915D01*
X102373018Y-79971922D01*
X102330471Y-80102870D01*
X102314526Y-80151944D01*
X102294740Y-80340200D01*
X102311287Y-80497644D01*
X102298718Y-80566371D01*
X102250986Y-80617395D01*
X102183246Y-80634513D01*
X102162187Y-80631893D01*
X102050247Y-80608100D01*
X102050246Y-80608100D01*
X101860954Y-80608100D01*
X101828497Y-80614998D01*
X101675797Y-80647455D01*
X101675792Y-80647457D01*
X101502870Y-80724448D01*
X101502865Y-80724451D01*
X101349729Y-80835711D01*
X101223066Y-80976385D01*
X101128421Y-81140315D01*
X101128418Y-81140322D01*
X101071984Y-81314010D01*
X101069926Y-81320344D01*
X101053177Y-81479701D01*
X101051181Y-81498700D01*
X101050140Y-81508600D01*
X101069926Y-81696856D01*
X101069927Y-81696859D01*
X101128418Y-81876877D01*
X101128421Y-81876884D01*
X101223067Y-82040816D01*
X101326957Y-82156197D01*
X101349729Y-82181488D01*
X101502865Y-82292748D01*
X101502870Y-82292751D01*
X101675792Y-82369742D01*
X101675797Y-82369744D01*
X101860954Y-82409100D01*
X101860955Y-82409100D01*
X102050244Y-82409100D01*
X102050246Y-82409100D01*
X102235403Y-82369744D01*
X102408330Y-82292751D01*
X102444324Y-82266600D01*
X104447901Y-82266600D01*
X104447901Y-82303254D01*
X104458219Y-82404252D01*
X104512446Y-82567900D01*
X104512451Y-82567911D01*
X104602952Y-82714634D01*
X104602955Y-82714638D01*
X104724861Y-82836544D01*
X104724865Y-82836547D01*
X104871588Y-82927048D01*
X104871599Y-82927053D01*
X105035247Y-82981280D01*
X105136251Y-82991599D01*
X105185399Y-82991598D01*
X105185400Y-82991598D01*
X105185400Y-82266600D01*
X104447901Y-82266600D01*
X102444324Y-82266600D01*
X102559689Y-82182782D01*
X102625496Y-82159302D01*
X102632575Y-82159100D01*
X103317895Y-82159100D01*
X103333905Y-82160867D01*
X103333928Y-82160626D01*
X103341694Y-82161360D01*
X103341695Y-82161359D01*
X103341696Y-82161360D01*
X103348671Y-82161140D01*
X103412635Y-82159131D01*
X103414583Y-82159100D01*
X103444325Y-82159100D01*
X103451590Y-82158181D01*
X103457416Y-82157722D01*
X103505969Y-82156197D01*
X103526356Y-82150273D01*
X103545396Y-82146331D01*
X103566458Y-82143671D01*
X103611635Y-82125783D01*
X103617135Y-82123900D01*
X103663798Y-82110344D01*
X103682065Y-82099539D01*
X103699536Y-82090980D01*
X103719271Y-82083168D01*
X103758577Y-82054610D01*
X103763443Y-82051413D01*
X103805265Y-82026681D01*
X103820270Y-82011675D01*
X103835068Y-81999036D01*
X103852237Y-81986563D01*
X103883209Y-81949122D01*
X103887113Y-81944831D01*
X104240797Y-81591148D01*
X104302119Y-81557664D01*
X104371811Y-81562648D01*
X104427744Y-81604520D01*
X104452161Y-81669984D01*
X104451835Y-81691432D01*
X104447900Y-81729943D01*
X104447900Y-81766600D01*
X105561400Y-81766600D01*
X105628439Y-81786285D01*
X105674194Y-81839089D01*
X105685400Y-81890600D01*
X105685400Y-82991599D01*
X105734540Y-82991599D01*
X105734554Y-82991598D01*
X105835552Y-82981280D01*
X105999200Y-82927053D01*
X105999211Y-82927048D01*
X106145933Y-82836548D01*
X106259864Y-82722617D01*
X106321187Y-82689132D01*
X106390879Y-82694116D01*
X106435228Y-82722618D01*
X106475328Y-82762719D01*
X106508813Y-82824042D01*
X106503827Y-82893734D01*
X106484008Y-82926428D01*
X106484689Y-82926923D01*
X106480865Y-82932185D01*
X106386221Y-83096115D01*
X106386218Y-83096122D01*
X106335515Y-83252172D01*
X106327726Y-83276144D01*
X106307940Y-83464400D01*
X106327726Y-83652656D01*
X106327727Y-83652659D01*
X106386218Y-83832677D01*
X106386221Y-83832684D01*
X106480867Y-83996616D01*
X106554152Y-84078007D01*
X106607529Y-84137288D01*
X106760665Y-84248548D01*
X106760670Y-84248551D01*
X106933592Y-84325542D01*
X106933597Y-84325544D01*
X107118754Y-84364900D01*
X107118755Y-84364900D01*
X107308044Y-84364900D01*
X107308046Y-84364900D01*
X107493203Y-84325544D01*
X107666130Y-84248551D01*
X107819271Y-84137288D01*
X107945933Y-83996616D01*
X108040579Y-83832684D01*
X108099074Y-83652656D01*
X108118860Y-83464400D01*
X108099074Y-83276144D01*
X108040579Y-83096116D01*
X108037703Y-83091134D01*
X107967912Y-82970251D01*
X107951439Y-82902351D01*
X107974292Y-82836324D01*
X107987607Y-82820582D01*
X108093240Y-82714950D01*
X108093244Y-82714942D01*
X108093247Y-82714940D01*
X108093845Y-82714186D01*
X108094386Y-82713802D01*
X108098347Y-82709842D01*
X108099024Y-82710519D01*
X108150868Y-82673811D01*
X108191108Y-82667100D01*
X112480992Y-82667100D01*
X112548031Y-82686785D01*
X112593786Y-82739589D01*
X112603730Y-82808747D01*
X112574705Y-82872303D01*
X112568673Y-82878781D01*
X111970084Y-83477368D01*
X111957510Y-83487443D01*
X111957665Y-83487630D01*
X111951658Y-83492598D01*
X111903068Y-83544342D01*
X111901714Y-83545738D01*
X111880690Y-83566763D01*
X111880678Y-83566777D01*
X111876187Y-83572565D01*
X111872401Y-83576997D01*
X111839152Y-83612406D01*
X111828922Y-83631013D01*
X111818246Y-83647264D01*
X111805240Y-83664032D01*
X111805236Y-83664038D01*
X111785948Y-83708611D01*
X111783377Y-83713858D01*
X111759972Y-83756430D01*
X111759972Y-83756431D01*
X111754691Y-83776999D01*
X111748391Y-83795401D01*
X111739964Y-83814873D01*
X111732366Y-83862847D01*
X111731181Y-83868570D01*
X111719100Y-83915618D01*
X111719100Y-83936844D01*
X111717573Y-83956243D01*
X111714253Y-83977205D01*
X111716088Y-83996614D01*
X111718825Y-84025567D01*
X111719100Y-84031406D01*
X111719100Y-84641892D01*
X111699415Y-84708931D01*
X111676216Y-84734517D01*
X111676354Y-84734655D01*
X111673552Y-84737456D01*
X111672007Y-84739161D01*
X111671246Y-84739762D01*
X111656228Y-84754780D01*
X111594904Y-84788264D01*
X111525213Y-84783278D01*
X111480868Y-84754778D01*
X111467751Y-84741661D01*
X111467750Y-84741661D01*
X111467750Y-84741660D01*
X111320916Y-84651092D01*
X111157153Y-84596826D01*
X111157151Y-84596825D01*
X111056078Y-84586500D01*
X110482730Y-84586500D01*
X110482712Y-84586501D01*
X110381647Y-84596825D01*
X110217884Y-84651092D01*
X110217881Y-84651093D01*
X110071048Y-84741661D01*
X109949061Y-84863648D01*
X109858493Y-85010481D01*
X109858491Y-85010486D01*
X109831119Y-85093088D01*
X109804226Y-85174247D01*
X109804226Y-85174248D01*
X109804225Y-85174248D01*
X109793900Y-85275315D01*
X109793900Y-85873669D01*
X109793901Y-85873687D01*
X109804225Y-85974752D01*
X109837250Y-86074413D01*
X109858492Y-86138516D01*
X109944280Y-86277601D01*
X109949061Y-86285351D01*
X110063029Y-86399319D01*
X110096514Y-86460642D01*
X110091530Y-86530334D01*
X110063029Y-86574681D01*
X109949061Y-86688648D01*
X109858493Y-86835481D01*
X109858491Y-86835484D01*
X109858492Y-86835484D01*
X109804226Y-86999247D01*
X109804226Y-86999248D01*
X109804225Y-86999248D01*
X109793900Y-87100315D01*
X109793900Y-87698669D01*
X109793901Y-87698687D01*
X109804225Y-87799752D01*
X109858492Y-87963515D01*
X109858493Y-87963518D01*
X109952117Y-88115306D01*
X109970557Y-88182699D01*
X109949634Y-88249362D01*
X109945846Y-88254713D01*
X109900890Y-88314768D01*
X109898757Y-88313171D01*
X109859127Y-88352794D01*
X109790852Y-88367638D01*
X109725391Y-88343214D01*
X109700057Y-88313971D01*
X109698669Y-88315011D01*
X109607190Y-88192812D01*
X109607187Y-88192809D01*
X109492093Y-88106649D01*
X109492086Y-88106645D01*
X109357379Y-88056403D01*
X109357372Y-88056401D01*
X109297844Y-88050000D01*
X109100000Y-88050000D01*
X109100000Y-90950000D01*
X109112830Y-90962830D01*
X109146315Y-91024153D01*
X109141331Y-91093845D01*
X109099462Y-91149776D01*
X109042454Y-91192453D01*
X109042452Y-91192455D01*
X108956206Y-91307664D01*
X108956202Y-91307671D01*
X108905908Y-91442517D01*
X108901567Y-91482898D01*
X108899501Y-91502123D01*
X108899500Y-91502135D01*
X108899500Y-92035879D01*
X108889451Y-92084779D01*
X108840460Y-92198941D01*
X108799500Y-92398258D01*
X108799500Y-94419506D01*
X108799480Y-94421076D01*
X108797243Y-94509362D01*
X108797243Y-94509370D01*
X108808064Y-94569739D01*
X108808718Y-94574404D01*
X108814925Y-94635430D01*
X108814927Y-94635444D01*
X108825208Y-94668213D01*
X108827079Y-94675837D01*
X108833142Y-94709652D01*
X108833142Y-94709655D01*
X108855894Y-94766612D01*
X108857474Y-94771051D01*
X108875841Y-94829588D01*
X108875844Y-94829595D01*
X108892509Y-94859619D01*
X108895879Y-94866714D01*
X108908622Y-94898614D01*
X108908627Y-94898624D01*
X108942377Y-94949833D01*
X108944818Y-94953863D01*
X108974588Y-95007498D01*
X108974589Y-95007499D01*
X108974591Y-95007502D01*
X108996968Y-95033567D01*
X109001693Y-95039835D01*
X109014263Y-95058906D01*
X109020598Y-95068519D01*
X109063978Y-95111899D01*
X109067169Y-95115343D01*
X109085572Y-95136779D01*
X109107134Y-95161895D01*
X109134294Y-95182918D01*
X109140190Y-95188111D01*
X109158020Y-95205941D01*
X109276193Y-95302298D01*
X109456551Y-95396509D01*
X109652182Y-95452487D01*
X109719813Y-95457637D01*
X109855075Y-95467937D01*
X109855077Y-95467937D01*
X109855078Y-95467937D01*
X110056921Y-95442231D01*
X110056921Y-95442230D01*
X110056928Y-95442230D01*
X110249472Y-95376416D01*
X110424827Y-95273191D01*
X110575814Y-95136779D01*
X110696249Y-94972767D01*
X110781205Y-94787869D01*
X110827203Y-94589654D01*
X110832357Y-94386237D01*
X110802445Y-94219349D01*
X110800500Y-94197473D01*
X110800500Y-92449256D01*
X110785074Y-92297560D01*
X110724162Y-92103420D01*
X110724160Y-92103417D01*
X110724159Y-92103412D01*
X110716079Y-92088854D01*
X110700499Y-92028678D01*
X110700499Y-91502129D01*
X110700498Y-91502123D01*
X110700497Y-91502116D01*
X110694091Y-91442517D01*
X110675588Y-91392909D01*
X110643797Y-91307671D01*
X110643793Y-91307664D01*
X110557547Y-91192455D01*
X110557544Y-91192453D01*
X110532581Y-91173765D01*
X110490710Y-91117830D01*
X110485727Y-91048139D01*
X110519213Y-90986816D01*
X110580537Y-90953332D01*
X110606886Y-90950499D01*
X111197872Y-90950499D01*
X111257483Y-90944091D01*
X111392331Y-90893796D01*
X111507546Y-90807546D01*
X111593796Y-90692331D01*
X111644091Y-90557483D01*
X111650500Y-90497873D01*
X111650499Y-88502128D01*
X111644584Y-88447112D01*
X111656992Y-88378353D01*
X111704603Y-88327216D01*
X111772302Y-88309938D01*
X111811113Y-88319273D01*
X111811442Y-88318281D01*
X111981947Y-88374780D01*
X112082952Y-88385099D01*
X112119599Y-88385099D01*
X112119600Y-87271600D01*
X112139285Y-87204560D01*
X112192089Y-87158806D01*
X112243600Y-87147600D01*
X112495600Y-87147600D01*
X112562639Y-87167285D01*
X112608394Y-87220089D01*
X112619600Y-87271600D01*
X112619599Y-88385098D01*
X112619600Y-88385099D01*
X112656240Y-88385099D01*
X112656254Y-88385098D01*
X112757252Y-88374780D01*
X112891492Y-88330298D01*
X112961320Y-88327896D01*
X113018177Y-88360323D01*
X113263859Y-88606005D01*
X113297344Y-88667328D01*
X113292360Y-88737020D01*
X113250488Y-88792953D01*
X113241275Y-88799224D01*
X113144765Y-88858752D01*
X113144761Y-88858755D01*
X113022855Y-88980661D01*
X113022852Y-88980665D01*
X112932351Y-89127388D01*
X112932346Y-89127399D01*
X112878119Y-89291047D01*
X112867800Y-89392045D01*
X112867800Y-89441200D01*
X113968800Y-89441200D01*
X114035839Y-89460885D01*
X114081594Y-89513689D01*
X114092800Y-89565200D01*
X114092800Y-89817200D01*
X114073115Y-89884239D01*
X114020311Y-89929994D01*
X113968800Y-89941200D01*
X112867801Y-89941200D01*
X112867801Y-89990354D01*
X112878119Y-90091352D01*
X112932346Y-90255000D01*
X112932351Y-90255011D01*
X113022852Y-90401734D01*
X113022855Y-90401738D01*
X113136782Y-90515665D01*
X113170267Y-90576988D01*
X113165283Y-90646680D01*
X113136783Y-90691027D01*
X113022459Y-90805351D01*
X112931893Y-90952181D01*
X112931891Y-90952186D01*
X112928364Y-90962830D01*
X112877626Y-91115947D01*
X112877626Y-91115948D01*
X112877625Y-91115948D01*
X112867300Y-91217015D01*
X112867300Y-91815369D01*
X112867301Y-91815387D01*
X112877625Y-91916452D01*
X112894642Y-91967804D01*
X112931892Y-92080216D01*
X113022460Y-92227050D01*
X113144450Y-92349040D01*
X113291284Y-92439608D01*
X113329223Y-92452179D01*
X113386667Y-92491952D01*
X113413490Y-92556468D01*
X113401175Y-92625243D01*
X113355496Y-92675312D01*
X113329157Y-92691620D01*
X113178437Y-92829018D01*
X113055527Y-92991778D01*
X112964622Y-93174339D01*
X112964617Y-93174352D01*
X112908802Y-93370517D01*
X112889985Y-93573599D01*
X112889985Y-93573600D01*
X112908802Y-93776682D01*
X112964617Y-93972847D01*
X112964622Y-93972860D01*
X113055527Y-94155421D01*
X113178437Y-94318181D01*
X113329158Y-94455580D01*
X113329160Y-94455582D01*
X113416018Y-94509362D01*
X113502563Y-94562948D01*
X113692744Y-94636624D01*
X113893224Y-94674100D01*
X113893226Y-94674100D01*
X114097174Y-94674100D01*
X114097176Y-94674100D01*
X114297656Y-94636624D01*
X114487837Y-94562948D01*
X114661241Y-94455581D01*
X114811964Y-94318179D01*
X114934873Y-94155421D01*
X115025782Y-93972850D01*
X115081597Y-93776683D01*
X115088697Y-93700058D01*
X115114483Y-93635122D01*
X115171283Y-93594434D01*
X115212168Y-93587500D01*
X117488879Y-93587500D01*
X118462101Y-93587500D01*
X118529140Y-93607185D01*
X118574895Y-93659989D01*
X118586101Y-93711500D01*
X118586101Y-93834876D01*
X118592508Y-93894483D01*
X118642802Y-94029328D01*
X118642806Y-94029335D01*
X118729052Y-94144544D01*
X118729055Y-94144547D01*
X118844264Y-94230793D01*
X118844271Y-94230797D01*
X118979117Y-94281091D01*
X118979116Y-94281091D01*
X118986044Y-94281835D01*
X119038727Y-94287500D01*
X119934472Y-94287499D01*
X119994083Y-94281091D01*
X120128931Y-94230796D01*
X120244146Y-94144546D01*
X120304704Y-94063651D01*
X120335712Y-94022231D01*
X120337848Y-94023830D01*
X120377435Y-93984226D01*
X120445704Y-93969358D01*
X120511174Y-93993760D01*
X120536542Y-94023028D01*
X120537931Y-94021989D01*
X120629409Y-94144187D01*
X120629412Y-94144190D01*
X120744506Y-94230350D01*
X120744513Y-94230354D01*
X120879220Y-94280596D01*
X120879227Y-94280598D01*
X120938755Y-94286999D01*
X120938772Y-94287000D01*
X121136599Y-94287000D01*
X121136599Y-93087000D01*
X121636600Y-93087000D01*
X121636600Y-94287000D01*
X121834428Y-94287000D01*
X121834444Y-94286999D01*
X121893972Y-94280598D01*
X121893979Y-94280596D01*
X122028686Y-94230354D01*
X122028693Y-94230350D01*
X122143787Y-94144190D01*
X122143790Y-94144187D01*
X122229950Y-94029093D01*
X122229954Y-94029086D01*
X122280196Y-93894379D01*
X122280198Y-93894372D01*
X122286599Y-93834844D01*
X122286600Y-93834827D01*
X122286600Y-93087000D01*
X121636600Y-93087000D01*
X121136599Y-93087000D01*
X121136600Y-91387000D01*
X121636600Y-91387000D01*
X121636600Y-92587000D01*
X122286600Y-92587000D01*
X122286600Y-91839172D01*
X122286599Y-91839155D01*
X122280198Y-91779627D01*
X122280196Y-91779620D01*
X122229954Y-91644913D01*
X122229950Y-91644906D01*
X122143790Y-91529812D01*
X122143787Y-91529809D01*
X122028693Y-91443649D01*
X122028686Y-91443645D01*
X121893979Y-91393403D01*
X121893972Y-91393401D01*
X121834444Y-91387000D01*
X121636600Y-91387000D01*
X121136600Y-91387000D01*
X121123769Y-91374169D01*
X121090284Y-91312846D01*
X121095268Y-91243154D01*
X121137139Y-91187222D01*
X121184016Y-91152129D01*
X121194146Y-91144546D01*
X121280396Y-91029331D01*
X121301630Y-90972399D01*
X121321858Y-90918167D01*
X121363729Y-90862233D01*
X121429193Y-90837816D01*
X121438040Y-90837500D01*
X124042217Y-90837500D01*
X124109256Y-90857185D01*
X124129898Y-90873819D01*
X127186091Y-93930012D01*
X127210856Y-93968019D01*
X127211462Y-93967718D01*
X127304927Y-94155421D01*
X127427837Y-94318181D01*
X127578558Y-94455580D01*
X127578560Y-94455582D01*
X127665418Y-94509362D01*
X127751963Y-94562948D01*
X127942144Y-94636624D01*
X128142624Y-94674100D01*
X128142626Y-94674100D01*
X128346574Y-94674100D01*
X128346576Y-94674100D01*
X128547056Y-94636624D01*
X128737237Y-94562948D01*
X128910641Y-94455581D01*
X129061364Y-94318179D01*
X129184273Y-94155421D01*
X129275182Y-93972850D01*
X129330997Y-93776683D01*
X129349815Y-93573600D01*
X129330997Y-93370517D01*
X129275182Y-93174350D01*
X129184273Y-92991779D01*
X129061364Y-92829021D01*
X129061362Y-92829018D01*
X128910641Y-92691619D01*
X128910639Y-92691617D01*
X128737240Y-92584253D01*
X128737234Y-92584250D01*
X128665518Y-92556468D01*
X128652151Y-92551289D01*
X128609265Y-92523344D01*
X125225012Y-89139092D01*
X125223915Y-89137967D01*
X125163061Y-89073949D01*
X125163060Y-89073948D01*
X125163059Y-89073947D01*
X125135204Y-89054559D01*
X125112709Y-89038902D01*
X125108946Y-89036064D01*
X125064723Y-89000004D01*
X126444451Y-89000004D01*
X126464616Y-89269101D01*
X126503897Y-89441200D01*
X126524666Y-89532195D01*
X126623257Y-89783398D01*
X126758185Y-90017102D01*
X126835755Y-90114371D01*
X126926442Y-90228089D01*
X127093937Y-90383500D01*
X127124259Y-90411635D01*
X127347226Y-90563651D01*
X127347229Y-90563652D01*
X127347230Y-90563653D01*
X127373753Y-90576426D01*
X127590359Y-90680738D01*
X127848228Y-90760280D01*
X127848229Y-90760280D01*
X127848232Y-90760281D01*
X128115063Y-90800499D01*
X128115068Y-90800499D01*
X128115071Y-90800500D01*
X128115072Y-90800500D01*
X128384928Y-90800500D01*
X128384929Y-90800500D01*
X128384936Y-90800499D01*
X128651767Y-90760281D01*
X128651768Y-90760280D01*
X128651772Y-90760280D01*
X128909641Y-90680738D01*
X129120383Y-90579250D01*
X129152767Y-90563655D01*
X129152767Y-90563654D01*
X129152775Y-90563651D01*
X129375741Y-90411635D01*
X129573286Y-90228340D01*
X129573557Y-90228089D01*
X129573557Y-90228087D01*
X129573561Y-90228085D01*
X129741815Y-90017102D01*
X129876743Y-89783398D01*
X129975334Y-89532195D01*
X130035383Y-89269103D01*
X130049921Y-89075100D01*
X130055549Y-89000004D01*
X130055549Y-88999995D01*
X130035383Y-88730898D01*
X130035383Y-88730897D01*
X129975334Y-88467805D01*
X129876743Y-88216602D01*
X129741815Y-87982898D01*
X129573561Y-87771915D01*
X129573560Y-87771914D01*
X129573557Y-87771910D01*
X129375741Y-87588365D01*
X129152775Y-87436349D01*
X129152769Y-87436346D01*
X129152768Y-87436345D01*
X129152767Y-87436344D01*
X128909643Y-87319263D01*
X128909645Y-87319263D01*
X128651773Y-87239720D01*
X128651767Y-87239718D01*
X128384936Y-87199500D01*
X128384929Y-87199500D01*
X128115071Y-87199500D01*
X128115063Y-87199500D01*
X127848232Y-87239718D01*
X127848226Y-87239720D01*
X127590358Y-87319262D01*
X127347230Y-87436346D01*
X127124258Y-87588365D01*
X126926442Y-87771910D01*
X126758185Y-87982898D01*
X126623258Y-88216599D01*
X126623256Y-88216603D01*
X126524666Y-88467804D01*
X126524664Y-88467811D01*
X126464616Y-88730898D01*
X126444451Y-88999995D01*
X126444451Y-89000004D01*
X125064723Y-89000004D01*
X125061413Y-88997305D01*
X125061406Y-88997300D01*
X125030959Y-88981397D01*
X125024251Y-88977334D01*
X124996049Y-88957705D01*
X124996046Y-88957703D01*
X124996045Y-88957703D01*
X124996041Y-88957701D01*
X124939680Y-88933514D01*
X124935424Y-88931493D01*
X124881057Y-88903094D01*
X124881050Y-88903091D01*
X124881049Y-88903091D01*
X124875008Y-88901362D01*
X124848030Y-88893642D01*
X124840630Y-88891008D01*
X124809057Y-88877459D01*
X124809058Y-88877459D01*
X124748966Y-88865109D01*
X124744391Y-88863986D01*
X124685420Y-88847113D01*
X124685425Y-88847113D01*
X124651158Y-88844503D01*
X124643380Y-88843412D01*
X124609742Y-88836500D01*
X124609741Y-88836500D01*
X124548402Y-88836500D01*
X124543695Y-88836321D01*
X124538121Y-88835896D01*
X124482524Y-88831662D01*
X124462589Y-88834201D01*
X124448440Y-88836003D01*
X124440611Y-88836500D01*
X121438040Y-88836500D01*
X121371001Y-88816815D01*
X121325246Y-88764011D01*
X121321858Y-88755833D01*
X121280397Y-88644671D01*
X121280393Y-88644664D01*
X121194147Y-88529455D01*
X121194144Y-88529452D01*
X121078935Y-88443206D01*
X121078928Y-88443202D01*
X120944082Y-88392908D01*
X120944083Y-88392908D01*
X120884483Y-88386501D01*
X120884481Y-88386500D01*
X120884473Y-88386500D01*
X120884464Y-88386500D01*
X119988729Y-88386500D01*
X119988723Y-88386501D01*
X119929116Y-88392908D01*
X119794271Y-88443202D01*
X119794264Y-88443206D01*
X119679055Y-88529452D01*
X119679052Y-88529455D01*
X119592806Y-88644664D01*
X119592802Y-88644671D01*
X119542508Y-88779517D01*
X119536101Y-88839116D01*
X119536100Y-88839135D01*
X119536100Y-89062500D01*
X119516415Y-89129539D01*
X119463611Y-89175294D01*
X119412100Y-89186500D01*
X118835635Y-89186500D01*
X118768596Y-89166815D01*
X118722841Y-89114011D01*
X118712277Y-89075100D01*
X118712159Y-89073949D01*
X118706674Y-89020247D01*
X118652408Y-88856484D01*
X118616889Y-88798899D01*
X118598450Y-88731508D01*
X118619373Y-88664845D01*
X118673015Y-88620075D01*
X118683428Y-88616097D01*
X118695921Y-88611957D01*
X118695924Y-88611956D01*
X118845145Y-88519915D01*
X118969115Y-88395945D01*
X119061156Y-88246724D01*
X119061158Y-88246719D01*
X119116305Y-88080297D01*
X119116306Y-88080290D01*
X119126799Y-87977586D01*
X119126800Y-87977573D01*
X119126800Y-87727600D01*
X117925800Y-87727600D01*
X117858761Y-87707915D01*
X117813006Y-87655111D01*
X117801800Y-87603600D01*
X117801800Y-86277600D01*
X118301800Y-86277600D01*
X118301800Y-87227600D01*
X119126798Y-87227600D01*
X119126799Y-86977628D01*
X119126798Y-86977613D01*
X119116305Y-86874902D01*
X119061158Y-86708480D01*
X119061156Y-86708475D01*
X118969115Y-86559254D01*
X118845145Y-86435284D01*
X118695924Y-86343243D01*
X118695919Y-86343241D01*
X118529497Y-86288094D01*
X118529490Y-86288093D01*
X118426786Y-86277600D01*
X118301800Y-86277600D01*
X117801800Y-86277600D01*
X117676827Y-86277600D01*
X117676812Y-86277601D01*
X117574102Y-86288094D01*
X117407680Y-86343241D01*
X117407675Y-86343243D01*
X117258454Y-86435284D01*
X117134483Y-86559255D01*
X117134479Y-86559260D01*
X117132626Y-86562265D01*
X117130818Y-86563890D01*
X117130002Y-86564923D01*
X117129825Y-86564783D01*
X117080674Y-86608985D01*
X117011711Y-86620201D01*
X116947631Y-86592352D01*
X116921553Y-86562253D01*
X116920533Y-86560599D01*
X116919512Y-86558944D01*
X116795456Y-86434888D01*
X116683623Y-86365909D01*
X116646136Y-86342787D01*
X116646131Y-86342785D01*
X116644662Y-86342298D01*
X116479597Y-86287601D01*
X116479595Y-86287600D01*
X116376810Y-86277100D01*
X115626798Y-86277100D01*
X115626780Y-86277101D01*
X115524003Y-86287600D01*
X115524000Y-86287601D01*
X115357468Y-86342785D01*
X115357460Y-86342789D01*
X115349868Y-86347472D01*
X115282474Y-86365909D01*
X115215812Y-86344983D01*
X115171045Y-86291339D01*
X115162387Y-86222008D01*
X115192586Y-86159002D01*
X115197074Y-86154270D01*
X116414526Y-84936819D01*
X116475850Y-84903334D01*
X116502208Y-84900500D01*
X117872095Y-84900500D01*
X117888105Y-84902267D01*
X117888128Y-84902026D01*
X117895894Y-84902760D01*
X117895895Y-84902759D01*
X117895896Y-84902760D01*
X117902871Y-84902540D01*
X117966835Y-84900531D01*
X117968783Y-84900500D01*
X118775501Y-84900500D01*
X118842540Y-84920185D01*
X118888295Y-84972989D01*
X118899501Y-85024500D01*
X118899501Y-85247876D01*
X118905908Y-85307483D01*
X118956202Y-85442328D01*
X118956206Y-85442335D01*
X119042452Y-85557544D01*
X119042455Y-85557547D01*
X119157664Y-85643793D01*
X119157671Y-85643797D01*
X119292517Y-85694091D01*
X119292516Y-85694091D01*
X119299444Y-85694835D01*
X119352127Y-85700500D01*
X120247872Y-85700499D01*
X120307483Y-85694091D01*
X120442331Y-85643796D01*
X120557546Y-85557546D01*
X120589293Y-85515136D01*
X120649112Y-85435231D01*
X120651248Y-85436830D01*
X120690835Y-85397226D01*
X120759104Y-85382358D01*
X120824574Y-85406760D01*
X120849942Y-85436028D01*
X120851331Y-85434989D01*
X120942809Y-85557187D01*
X120942812Y-85557190D01*
X121057906Y-85643350D01*
X121057913Y-85643354D01*
X121192620Y-85693596D01*
X121192627Y-85693598D01*
X121252155Y-85699999D01*
X121252172Y-85700000D01*
X121450000Y-85700000D01*
X121450000Y-84500000D01*
X121950000Y-84500000D01*
X121950000Y-85700000D01*
X122147828Y-85700000D01*
X122147844Y-85699999D01*
X122207372Y-85693598D01*
X122207379Y-85693596D01*
X122342086Y-85643354D01*
X122342093Y-85643350D01*
X122457187Y-85557190D01*
X122457190Y-85557187D01*
X122543350Y-85442093D01*
X122543354Y-85442086D01*
X122578494Y-85347870D01*
X126449500Y-85347870D01*
X126449501Y-85347876D01*
X126455908Y-85407483D01*
X126506202Y-85542328D01*
X126506206Y-85542335D01*
X126592452Y-85657544D01*
X126592455Y-85657547D01*
X126707664Y-85743793D01*
X126707671Y-85743797D01*
X126842517Y-85794091D01*
X126842516Y-85794091D01*
X126849444Y-85794835D01*
X126902127Y-85800500D01*
X129597872Y-85800499D01*
X129657483Y-85794091D01*
X129792331Y-85743796D01*
X129907546Y-85657546D01*
X129993796Y-85542331D01*
X130044091Y-85407483D01*
X130050500Y-85347873D01*
X130050499Y-82652128D01*
X130044091Y-82592517D01*
X130043601Y-82591204D01*
X129993797Y-82457671D01*
X129993793Y-82457664D01*
X129907547Y-82342455D01*
X129907544Y-82342452D01*
X129792335Y-82256206D01*
X129792328Y-82256202D01*
X129657482Y-82205908D01*
X129657483Y-82205908D01*
X129597883Y-82199501D01*
X129597881Y-82199500D01*
X129597873Y-82199500D01*
X129597864Y-82199500D01*
X126902129Y-82199500D01*
X126902123Y-82199501D01*
X126842516Y-82205908D01*
X126707671Y-82256202D01*
X126707664Y-82256206D01*
X126592455Y-82342452D01*
X126592452Y-82342455D01*
X126506206Y-82457664D01*
X126506202Y-82457671D01*
X126455908Y-82592517D01*
X126449501Y-82652116D01*
X126449501Y-82652123D01*
X126449500Y-82652135D01*
X126449500Y-85347870D01*
X122578494Y-85347870D01*
X122593596Y-85307379D01*
X122593598Y-85307372D01*
X122599999Y-85247844D01*
X122600000Y-85247827D01*
X122600000Y-84500000D01*
X121950000Y-84500000D01*
X121450000Y-84500000D01*
X121450000Y-82800000D01*
X121950000Y-82800000D01*
X121950000Y-84000000D01*
X122600000Y-84000000D01*
X122600000Y-83252172D01*
X122599999Y-83252155D01*
X122593598Y-83192627D01*
X122593596Y-83192620D01*
X122543354Y-83057913D01*
X122543350Y-83057906D01*
X122457190Y-82942812D01*
X122457187Y-82942809D01*
X122342093Y-82856649D01*
X122342086Y-82856645D01*
X122207379Y-82806403D01*
X122207372Y-82806401D01*
X122147844Y-82800000D01*
X121950000Y-82800000D01*
X121450000Y-82800000D01*
X121437169Y-82787169D01*
X121403684Y-82725846D01*
X121408668Y-82656154D01*
X121450539Y-82600222D01*
X121498632Y-82564219D01*
X121507546Y-82557546D01*
X121593796Y-82442331D01*
X121644091Y-82307483D01*
X121650500Y-82247873D01*
X121650499Y-80252128D01*
X121644091Y-80192517D01*
X121628958Y-80151944D01*
X121592887Y-80055232D01*
X121587903Y-79985541D01*
X121610115Y-79937173D01*
X121689673Y-79831821D01*
X121780582Y-79649250D01*
X121835502Y-79456225D01*
X121872781Y-79397133D01*
X121936091Y-79367576D01*
X122005330Y-79376938D01*
X122048578Y-79413781D01*
X122050822Y-79411926D01*
X122055795Y-79417937D01*
X122107542Y-79466531D01*
X122108909Y-79467855D01*
X122120109Y-79479055D01*
X122129967Y-79488913D01*
X122135758Y-79493405D01*
X122140198Y-79497198D01*
X122156260Y-79512280D01*
X122175607Y-79530448D01*
X122194198Y-79540668D01*
X122210463Y-79551352D01*
X122227234Y-79564361D01*
X122227237Y-79564363D01*
X122271827Y-79583658D01*
X122277056Y-79586220D01*
X122319632Y-79609627D01*
X122340193Y-79614905D01*
X122358597Y-79621207D01*
X122378074Y-79629636D01*
X122415170Y-79635511D01*
X122426054Y-79637235D01*
X122431764Y-79638417D01*
X122478823Y-79650500D01*
X122494292Y-79650500D01*
X122561331Y-79670185D01*
X122586915Y-79693380D01*
X122587053Y-79693243D01*
X122589852Y-79696042D01*
X122591555Y-79697586D01*
X122592155Y-79698345D01*
X122592159Y-79698349D01*
X122592160Y-79698350D01*
X122714150Y-79820340D01*
X122860984Y-79910908D01*
X123024747Y-79965174D01*
X123125823Y-79975500D01*
X123724176Y-79975499D01*
X123724184Y-79975498D01*
X123724187Y-79975498D01*
X123789443Y-79968832D01*
X123825253Y-79965174D01*
X123989016Y-79910908D01*
X124135850Y-79820340D01*
X124250175Y-79706014D01*
X124311494Y-79672532D01*
X124381186Y-79677516D01*
X124425534Y-79706017D01*
X124539461Y-79819944D01*
X124539465Y-79819947D01*
X124686188Y-79910448D01*
X124686199Y-79910453D01*
X124849847Y-79964680D01*
X124950851Y-79974999D01*
X124999999Y-79974998D01*
X125000000Y-79974998D01*
X125000000Y-79250000D01*
X125500000Y-79250000D01*
X125500000Y-79974999D01*
X125549140Y-79974999D01*
X125549154Y-79974998D01*
X125650152Y-79964680D01*
X125813800Y-79910453D01*
X125813811Y-79910448D01*
X125960534Y-79819947D01*
X125960538Y-79819944D01*
X126082444Y-79698038D01*
X126082447Y-79698034D01*
X126172948Y-79551311D01*
X126172953Y-79551300D01*
X126227180Y-79387652D01*
X126237499Y-79286654D01*
X126237500Y-79286641D01*
X126237500Y-79250000D01*
X125500000Y-79250000D01*
X125000000Y-79250000D01*
X125000000Y-78025000D01*
X125500000Y-78025000D01*
X125500000Y-78750000D01*
X126237499Y-78750000D01*
X126237499Y-78713360D01*
X126237498Y-78713345D01*
X126227180Y-78612347D01*
X126172953Y-78448699D01*
X126172948Y-78448688D01*
X126082447Y-78301965D01*
X126082444Y-78301961D01*
X125960538Y-78180055D01*
X125960534Y-78180052D01*
X125813811Y-78089551D01*
X125813800Y-78089546D01*
X125650152Y-78035319D01*
X125549154Y-78025000D01*
X125500000Y-78025000D01*
X125000000Y-78025000D01*
X124999999Y-78024999D01*
X124950861Y-78025000D01*
X124950843Y-78025001D01*
X124849847Y-78035319D01*
X124686199Y-78089546D01*
X124686188Y-78089551D01*
X124539465Y-78180052D01*
X124425534Y-78293983D01*
X124364211Y-78327467D01*
X124294519Y-78322483D01*
X124250172Y-78293982D01*
X124135851Y-78179661D01*
X124135851Y-78179660D01*
X124135850Y-78179660D01*
X124035360Y-78117677D01*
X123989018Y-78089093D01*
X123989013Y-78089091D01*
X123983895Y-78087395D01*
X123825253Y-78034826D01*
X123825251Y-78034825D01*
X123724178Y-78024500D01*
X123125830Y-78024500D01*
X123125812Y-78024501D01*
X123024747Y-78034825D01*
X122860984Y-78089092D01*
X122860977Y-78089095D01*
X122764480Y-78148615D01*
X122697087Y-78167055D01*
X122630424Y-78146132D01*
X122611703Y-78130757D01*
X121816818Y-77335872D01*
X121783333Y-77274549D01*
X121780499Y-77248191D01*
X121780499Y-76892582D01*
X121800184Y-76825543D01*
X121852988Y-76779788D01*
X121922146Y-76769844D01*
X121985702Y-76798869D01*
X122010038Y-76827485D01*
X122053556Y-76898039D01*
X122175461Y-77019944D01*
X122175465Y-77019947D01*
X122322188Y-77110448D01*
X122322199Y-77110453D01*
X122485847Y-77164680D01*
X122586851Y-77174999D01*
X122685999Y-77174998D01*
X122686000Y-76074000D01*
X122705685Y-76006961D01*
X122758489Y-75961206D01*
X122810000Y-75950000D01*
X123062000Y-75950000D01*
X123129039Y-75969685D01*
X123174794Y-76022489D01*
X123186000Y-76074000D01*
X123186000Y-77174999D01*
X123285140Y-77174999D01*
X123285154Y-77174998D01*
X123386152Y-77164680D01*
X123549800Y-77110453D01*
X123549811Y-77110448D01*
X123696535Y-77019947D01*
X123710460Y-77006021D01*
X123771782Y-76972533D01*
X123841473Y-76977514D01*
X123885827Y-77006017D01*
X123900150Y-77020340D01*
X124046984Y-77110908D01*
X124210747Y-77165174D01*
X124311823Y-77175500D01*
X125010176Y-77175499D01*
X125010184Y-77175498D01*
X125010187Y-77175498D01*
X125065530Y-77169844D01*
X125111253Y-77165174D01*
X125275016Y-77110908D01*
X125421850Y-77020340D01*
X125543840Y-76898350D01*
X125634408Y-76751516D01*
X125688674Y-76587753D01*
X125699000Y-76486677D01*
X125698999Y-76118305D01*
X125718683Y-76051268D01*
X125771487Y-76005513D01*
X125840646Y-75995569D01*
X125904201Y-76024594D01*
X125910680Y-76030626D01*
X126668290Y-76788236D01*
X126701775Y-76849559D01*
X126700384Y-76908008D01*
X126680937Y-76980589D01*
X126680937Y-76980590D01*
X126660341Y-77215999D01*
X126660341Y-77216000D01*
X126680936Y-77451403D01*
X126680938Y-77451413D01*
X126742094Y-77679655D01*
X126742096Y-77679659D01*
X126742097Y-77679663D01*
X126821241Y-77849387D01*
X126841965Y-77893830D01*
X126841967Y-77893834D01*
X126941037Y-78035319D01*
X126977505Y-78087401D01*
X127144599Y-78254495D01*
X127212393Y-78301965D01*
X127338165Y-78390032D01*
X127338167Y-78390033D01*
X127338170Y-78390035D01*
X127552337Y-78489903D01*
X127780592Y-78551063D01*
X127968918Y-78567539D01*
X128015999Y-78571659D01*
X128016000Y-78571659D01*
X128016001Y-78571659D01*
X128055234Y-78568226D01*
X128251408Y-78551063D01*
X128479663Y-78489903D01*
X128693830Y-78390035D01*
X128887401Y-78254495D01*
X129054495Y-78087401D01*
X129190035Y-77893830D01*
X129289903Y-77679663D01*
X129351063Y-77451408D01*
X129371659Y-77216000D01*
X129351063Y-76980592D01*
X129289903Y-76752337D01*
X129190035Y-76538171D01*
X129154242Y-76487052D01*
X129054494Y-76344597D01*
X128887402Y-76177506D01*
X128887396Y-76177501D01*
X128701842Y-76047575D01*
X128658217Y-75992998D01*
X128651023Y-75923500D01*
X128682546Y-75861145D01*
X128701842Y-75844425D01*
X128736126Y-75820419D01*
X128887401Y-75714495D01*
X129054495Y-75547401D01*
X129190035Y-75353830D01*
X129289903Y-75139663D01*
X129351063Y-74911408D01*
X129371659Y-74676000D01*
X129351063Y-74440592D01*
X129295863Y-74234579D01*
X129289905Y-74212344D01*
X129289904Y-74212343D01*
X129289903Y-74212337D01*
X129190035Y-73998171D01*
X129189252Y-73997053D01*
X129054496Y-73804600D01*
X128995336Y-73745440D01*
X128932179Y-73682283D01*
X128898696Y-73620963D01*
X128903680Y-73551271D01*
X128945551Y-73495337D01*
X128976529Y-73478422D01*
X129108086Y-73429354D01*
X129108093Y-73429350D01*
X129223187Y-73343190D01*
X129223190Y-73343187D01*
X129309350Y-73228093D01*
X129309354Y-73228086D01*
X129359596Y-73093379D01*
X129359598Y-73093372D01*
X129365999Y-73033844D01*
X129366000Y-73033827D01*
X129366000Y-72386000D01*
X128449686Y-72386000D01*
X128475493Y-72345844D01*
X128516000Y-72207889D01*
X128516000Y-72064111D01*
X128475493Y-71926156D01*
X128449686Y-71886000D01*
X129365999Y-71886000D01*
X129366000Y-71238172D01*
X129365999Y-71238155D01*
X129359598Y-71178627D01*
X129359596Y-71178620D01*
X129309354Y-71043913D01*
X129309350Y-71043906D01*
X129223190Y-70928812D01*
X129223187Y-70928809D01*
X129108093Y-70842649D01*
X129108086Y-70842645D01*
X128973379Y-70792403D01*
X128973372Y-70792401D01*
X128913844Y-70786000D01*
X128266000Y-70786000D01*
X128265999Y-71700498D01*
X128158315Y-71651320D01*
X128051763Y-71636000D01*
X127980237Y-71636000D01*
X127873685Y-71651320D01*
X127765999Y-71700498D01*
X127766000Y-70786000D01*
X127118155Y-70786000D01*
X127051656Y-70793151D01*
X126982897Y-70780746D01*
X126931759Y-70733137D01*
X126914479Y-70665437D01*
X126915681Y-70656091D01*
X126915426Y-70656067D01*
X126916160Y-70648305D01*
X126913931Y-70577363D01*
X126913900Y-70575415D01*
X126913900Y-70545677D01*
X126913900Y-70545675D01*
X126912979Y-70538388D01*
X126912522Y-70532579D01*
X126912278Y-70524819D01*
X126910997Y-70484031D01*
X126905076Y-70463653D01*
X126901131Y-70444604D01*
X126898471Y-70423542D01*
X126880585Y-70378369D01*
X126878696Y-70372849D01*
X126869866Y-70342455D01*
X126865144Y-70326202D01*
X126857723Y-70313655D01*
X126854340Y-70307934D01*
X126845778Y-70290456D01*
X126837968Y-70270729D01*
X126837965Y-70270725D01*
X126809414Y-70231427D01*
X126806211Y-70226551D01*
X126794003Y-70205909D01*
X126781481Y-70184735D01*
X126781479Y-70184733D01*
X126781478Y-70184731D01*
X126766475Y-70169729D01*
X126753835Y-70154930D01*
X126741361Y-70137760D01*
X126703928Y-70106794D01*
X126699606Y-70102860D01*
X126446746Y-69850000D01*
X130216341Y-69850000D01*
X130236936Y-70085403D01*
X130236938Y-70085413D01*
X130298094Y-70313655D01*
X130298096Y-70313659D01*
X130298097Y-70313663D01*
X130328275Y-70378379D01*
X130397965Y-70527830D01*
X130397967Y-70527834D01*
X130498907Y-70671990D01*
X130533501Y-70721396D01*
X130533506Y-70721402D01*
X130655430Y-70843326D01*
X130688915Y-70904649D01*
X130683931Y-70974341D01*
X130642059Y-71030274D01*
X130611083Y-71047189D01*
X130479669Y-71096203D01*
X130479664Y-71096206D01*
X130364455Y-71182452D01*
X130364452Y-71182455D01*
X130278206Y-71297664D01*
X130278202Y-71297671D01*
X130227908Y-71432517D01*
X130223513Y-71473400D01*
X130221501Y-71492123D01*
X130221500Y-71492135D01*
X130221500Y-73287870D01*
X130221501Y-73287876D01*
X130227908Y-73347483D01*
X130278202Y-73482328D01*
X130278206Y-73482335D01*
X130364452Y-73597544D01*
X130364455Y-73597547D01*
X130479664Y-73683793D01*
X130479671Y-73683797D01*
X130614517Y-73734091D01*
X130614516Y-73734091D01*
X130621444Y-73734835D01*
X130674127Y-73740500D01*
X132469872Y-73740499D01*
X132529483Y-73734091D01*
X132664331Y-73683796D01*
X132779546Y-73597546D01*
X132865796Y-73482331D01*
X132916091Y-73347483D01*
X132922500Y-73287873D01*
X132922499Y-71492128D01*
X132916091Y-71432517D01*
X132906772Y-71407532D01*
X132865797Y-71297671D01*
X132865793Y-71297664D01*
X132779547Y-71182455D01*
X132779544Y-71182452D01*
X132664335Y-71096206D01*
X132664328Y-71096202D01*
X132532917Y-71047189D01*
X132476983Y-71005318D01*
X132452566Y-70939853D01*
X132467418Y-70871580D01*
X132488563Y-70843332D01*
X132610495Y-70721401D01*
X132746035Y-70527830D01*
X132845903Y-70313663D01*
X132907063Y-70085408D01*
X132927659Y-69850000D01*
X132907063Y-69614592D01*
X132845903Y-69386337D01*
X132746035Y-69172171D01*
X132715642Y-69128764D01*
X132610494Y-68978597D01*
X132443402Y-68811506D01*
X132443401Y-68811505D01*
X132257842Y-68681575D01*
X132257841Y-68681574D01*
X132214216Y-68626997D01*
X132207024Y-68557498D01*
X132238546Y-68495144D01*
X132257836Y-68478428D01*
X132443401Y-68348495D01*
X132610495Y-68181401D01*
X132746035Y-67987830D01*
X132845903Y-67773663D01*
X132907063Y-67545408D01*
X132927659Y-67310000D01*
X132907063Y-67074592D01*
X132845903Y-66846337D01*
X132746035Y-66632171D01*
X132718967Y-66593513D01*
X132610494Y-66438597D01*
X132443402Y-66271506D01*
X132443396Y-66271501D01*
X132257842Y-66141575D01*
X132214217Y-66086998D01*
X132207023Y-66017500D01*
X132238546Y-65955145D01*
X132257842Y-65938425D01*
X132339569Y-65881199D01*
X132443401Y-65808495D01*
X132610495Y-65641401D01*
X132746035Y-65447830D01*
X132845903Y-65233663D01*
X132907063Y-65005408D01*
X132927659Y-64770000D01*
X132927405Y-64767102D01*
X132920903Y-64692781D01*
X132907063Y-64534592D01*
X132854171Y-64337195D01*
X132845905Y-64306344D01*
X132845904Y-64306343D01*
X132845903Y-64306337D01*
X132746035Y-64092171D01*
X132745816Y-64091857D01*
X132610494Y-63898597D01*
X132443402Y-63731506D01*
X132443396Y-63731501D01*
X132257842Y-63601575D01*
X132214217Y-63546998D01*
X132207023Y-63477500D01*
X132238546Y-63415145D01*
X132257842Y-63398425D01*
X132295843Y-63371816D01*
X132443401Y-63268495D01*
X132610495Y-63101401D01*
X132746035Y-62907830D01*
X132845903Y-62693663D01*
X132907063Y-62465408D01*
X132927659Y-62230000D01*
X132907063Y-61994592D01*
X132845903Y-61766337D01*
X132746035Y-61552171D01*
X132704055Y-61492216D01*
X132610494Y-61358597D01*
X132443402Y-61191506D01*
X132443396Y-61191501D01*
X132257842Y-61061575D01*
X132214217Y-61006998D01*
X132207023Y-60937500D01*
X132238546Y-60875145D01*
X132257842Y-60858425D01*
X132323244Y-60812630D01*
X132443401Y-60728495D01*
X132610495Y-60561401D01*
X132746035Y-60367830D01*
X132845903Y-60153663D01*
X132907063Y-59925408D01*
X132927659Y-59690000D01*
X132907063Y-59454592D01*
X132845903Y-59226337D01*
X132746035Y-59012171D01*
X132722891Y-58979117D01*
X132610494Y-58818597D01*
X132443402Y-58651506D01*
X132443395Y-58651501D01*
X132249834Y-58515967D01*
X132249830Y-58515965D01*
X132249828Y-58515964D01*
X132035663Y-58416097D01*
X132035659Y-58416096D01*
X132035655Y-58416094D01*
X131807413Y-58354938D01*
X131807403Y-58354936D01*
X131572001Y-58334341D01*
X131571999Y-58334341D01*
X131336596Y-58354936D01*
X131336586Y-58354938D01*
X131108344Y-58416094D01*
X131108335Y-58416098D01*
X130894171Y-58515964D01*
X130894169Y-58515965D01*
X130700597Y-58651505D01*
X130533505Y-58818597D01*
X130397965Y-59012169D01*
X130397964Y-59012171D01*
X130298098Y-59226335D01*
X130298094Y-59226344D01*
X130236938Y-59454586D01*
X130236936Y-59454596D01*
X130216341Y-59689999D01*
X130216341Y-59690000D01*
X130236936Y-59925403D01*
X130236938Y-59925413D01*
X130298094Y-60153655D01*
X130298096Y-60153659D01*
X130298097Y-60153663D01*
X130361586Y-60289815D01*
X130397965Y-60367830D01*
X130397967Y-60367834D01*
X130533501Y-60561395D01*
X130533506Y-60561402D01*
X130700597Y-60728493D01*
X130700603Y-60728498D01*
X130886158Y-60858425D01*
X130929783Y-60913002D01*
X130936977Y-60982500D01*
X130905454Y-61044855D01*
X130886158Y-61061575D01*
X130700597Y-61191505D01*
X130533505Y-61358597D01*
X130397965Y-61552169D01*
X130397964Y-61552171D01*
X130298098Y-61766335D01*
X130298094Y-61766344D01*
X130236938Y-61994586D01*
X130236936Y-61994596D01*
X130216341Y-62229999D01*
X130216341Y-62230000D01*
X130236936Y-62465403D01*
X130236938Y-62465413D01*
X130298094Y-62693655D01*
X130298096Y-62693659D01*
X130298097Y-62693663D01*
X130355571Y-62816915D01*
X130397965Y-62907830D01*
X130397967Y-62907834D01*
X130533501Y-63101395D01*
X130533506Y-63101402D01*
X130700597Y-63268493D01*
X130700603Y-63268498D01*
X130886158Y-63398425D01*
X130929783Y-63453002D01*
X130936977Y-63522500D01*
X130905454Y-63584855D01*
X130886158Y-63601575D01*
X130700597Y-63731505D01*
X130533505Y-63898597D01*
X130397965Y-64092169D01*
X130397964Y-64092171D01*
X130298098Y-64306335D01*
X130298094Y-64306344D01*
X130236938Y-64534586D01*
X130236936Y-64534596D01*
X130216341Y-64769999D01*
X130216341Y-64770000D01*
X130236936Y-65005403D01*
X130236938Y-65005413D01*
X130298094Y-65233655D01*
X130298096Y-65233659D01*
X130298097Y-65233663D01*
X130351746Y-65348713D01*
X130397965Y-65447830D01*
X130397967Y-65447834D01*
X130533501Y-65641395D01*
X130533506Y-65641402D01*
X130700597Y-65808493D01*
X130700603Y-65808498D01*
X130886158Y-65938425D01*
X130929783Y-65993002D01*
X130936977Y-66062500D01*
X130905454Y-66124855D01*
X130886158Y-66141575D01*
X130700597Y-66271505D01*
X130533505Y-66438597D01*
X130397965Y-66632169D01*
X130397964Y-66632171D01*
X130298098Y-66846335D01*
X130298094Y-66846344D01*
X130236938Y-67074586D01*
X130236936Y-67074596D01*
X130216341Y-67309999D01*
X130216341Y-67310000D01*
X130236936Y-67545403D01*
X130236938Y-67545413D01*
X130298094Y-67773655D01*
X130298096Y-67773659D01*
X130298097Y-67773663D01*
X130397964Y-67987830D01*
X130397965Y-67987830D01*
X130397967Y-67987834D01*
X130533501Y-68181395D01*
X130533506Y-68181402D01*
X130700597Y-68348493D01*
X130700603Y-68348498D01*
X130886158Y-68478425D01*
X130929783Y-68533002D01*
X130936977Y-68602500D01*
X130905454Y-68664855D01*
X130886158Y-68681575D01*
X130700597Y-68811505D01*
X130533505Y-68978597D01*
X130397965Y-69172169D01*
X130397964Y-69172171D01*
X130298098Y-69386335D01*
X130298094Y-69386344D01*
X130236938Y-69614586D01*
X130236936Y-69614596D01*
X130216341Y-69849999D01*
X130216341Y-69850000D01*
X126446746Y-69850000D01*
X126123257Y-69526511D01*
X126089772Y-69465188D01*
X126094756Y-69395496D01*
X126118789Y-69355857D01*
X126132333Y-69340816D01*
X126226979Y-69176884D01*
X126285474Y-68996856D01*
X126305260Y-68808600D01*
X126285474Y-68620344D01*
X126226979Y-68440316D01*
X126132333Y-68276384D01*
X126005671Y-68135712D01*
X125984479Y-68120315D01*
X125852534Y-68024451D01*
X125852529Y-68024448D01*
X125679607Y-67947457D01*
X125679602Y-67947455D01*
X125533801Y-67916465D01*
X125494446Y-67908100D01*
X125494445Y-67908100D01*
X125470608Y-67908100D01*
X125403569Y-67888415D01*
X125382927Y-67871781D01*
X125376235Y-67865089D01*
X125370440Y-67860594D01*
X125365998Y-67856799D01*
X125330596Y-67823554D01*
X125330588Y-67823548D01*
X125311992Y-67813325D01*
X125295731Y-67802644D01*
X125278963Y-67789637D01*
X125255495Y-67779482D01*
X125234378Y-67770343D01*
X125229156Y-67767786D01*
X125186568Y-67744373D01*
X125186565Y-67744372D01*
X125166001Y-67739092D01*
X125147596Y-67732790D01*
X125128127Y-67724365D01*
X125128121Y-67724363D01*
X125080151Y-67716766D01*
X125074436Y-67715582D01*
X125057972Y-67711355D01*
X125027380Y-67703500D01*
X125027377Y-67703500D01*
X125006155Y-67703500D01*
X124986755Y-67701973D01*
X124965796Y-67698653D01*
X124965795Y-67698653D01*
X124941986Y-67700903D01*
X124917430Y-67703225D01*
X124911592Y-67703500D01*
X124890722Y-67703500D01*
X124823683Y-67683815D01*
X124777928Y-67631011D01*
X124767783Y-67563314D01*
X124770141Y-67545408D01*
X124780500Y-67466720D01*
X124780500Y-67425344D01*
X124800185Y-67358305D01*
X124852989Y-67312550D01*
X124922147Y-67302606D01*
X124985703Y-67331631D01*
X124992182Y-67337664D01*
X125031962Y-67377445D01*
X125031965Y-67377447D01*
X125178688Y-67467948D01*
X125178699Y-67467953D01*
X125342347Y-67522180D01*
X125443352Y-67532499D01*
X125480000Y-67532499D01*
X125480000Y-66745000D01*
X125980000Y-66745000D01*
X125980000Y-67532499D01*
X126016640Y-67532499D01*
X126016654Y-67532498D01*
X126117652Y-67522180D01*
X126281300Y-67467953D01*
X126281311Y-67467948D01*
X126428034Y-67377447D01*
X126428038Y-67377444D01*
X126549944Y-67255538D01*
X126549947Y-67255534D01*
X126640448Y-67108811D01*
X126640453Y-67108800D01*
X126694680Y-66945152D01*
X126704999Y-66844154D01*
X126705000Y-66844141D01*
X126705000Y-66745000D01*
X125980000Y-66745000D01*
X125480000Y-66745000D01*
X125480000Y-66369000D01*
X125499685Y-66301961D01*
X125552489Y-66256206D01*
X125604000Y-66245000D01*
X126704998Y-66245000D01*
X126704999Y-66145860D01*
X126704998Y-66145845D01*
X126694680Y-66044847D01*
X126640453Y-65881199D01*
X126640448Y-65881188D01*
X126549947Y-65734465D01*
X126549944Y-65734461D01*
X126536017Y-65720534D01*
X126502532Y-65659211D01*
X126507516Y-65589519D01*
X126536017Y-65545172D01*
X126550340Y-65530850D01*
X126640908Y-65384016D01*
X126695174Y-65220253D01*
X126705500Y-65119177D01*
X126705499Y-64420824D01*
X126695174Y-64319747D01*
X126640908Y-64155984D01*
X126550340Y-64009150D01*
X126428350Y-63887160D01*
X126281516Y-63796592D01*
X126117753Y-63742326D01*
X126117751Y-63742325D01*
X126016678Y-63732000D01*
X125443330Y-63732000D01*
X125443312Y-63732001D01*
X125342247Y-63742325D01*
X125342244Y-63742326D01*
X125295806Y-63757715D01*
X125225978Y-63760117D01*
X125165936Y-63724385D01*
X125134743Y-63661865D01*
X125138871Y-63601691D01*
X125156261Y-63548170D01*
X125193274Y-63434256D01*
X125213060Y-63246000D01*
X125193274Y-63057744D01*
X125134779Y-62877716D01*
X125040133Y-62713784D01*
X124913471Y-62573112D01*
X124875922Y-62545831D01*
X124760334Y-62461851D01*
X124760329Y-62461848D01*
X124587407Y-62384857D01*
X124587403Y-62384856D01*
X124493534Y-62364903D01*
X124432053Y-62331710D01*
X124401386Y-62281933D01*
X124359565Y-62153219D01*
X124347381Y-62115721D01*
X124347378Y-62115715D01*
X124252733Y-61951784D01*
X124165889Y-61855334D01*
X124131255Y-61816869D01*
X124101025Y-61753878D01*
X124109650Y-61684542D01*
X124147139Y-61637798D01*
X124146637Y-61637241D01*
X124150056Y-61634162D01*
X124150529Y-61633572D01*
X124151471Y-61632888D01*
X124278133Y-61492216D01*
X124372779Y-61328284D01*
X124431274Y-61148256D01*
X124451060Y-60960000D01*
X124431274Y-60771744D01*
X124372779Y-60591716D01*
X124278133Y-60427784D01*
X124151471Y-60287112D01*
X124098380Y-60248539D01*
X123998334Y-60175851D01*
X123998329Y-60175848D01*
X123825407Y-60098857D01*
X123825402Y-60098855D01*
X123679601Y-60067865D01*
X123640246Y-60059500D01*
X123450954Y-60059500D01*
X123418497Y-60066398D01*
X123265797Y-60098855D01*
X123265792Y-60098857D01*
X123092870Y-60175848D01*
X123092865Y-60175851D01*
X122941510Y-60285818D01*
X122875704Y-60309298D01*
X122868625Y-60309500D01*
X122790500Y-60309500D01*
X122723461Y-60289815D01*
X122677706Y-60237011D01*
X122666500Y-60185500D01*
X122666499Y-59142129D01*
X122666498Y-59142123D01*
X122660091Y-59082516D01*
X122609797Y-58947671D01*
X122609793Y-58947664D01*
X122523547Y-58832455D01*
X122523544Y-58832452D01*
X122408335Y-58746206D01*
X122408328Y-58746202D01*
X122273482Y-58695908D01*
X122273483Y-58695908D01*
X122213883Y-58689501D01*
X122213881Y-58689500D01*
X122213873Y-58689500D01*
X122213864Y-58689500D01*
X121118129Y-58689500D01*
X121118123Y-58689501D01*
X121058516Y-58695908D01*
X120923671Y-58746202D01*
X120923666Y-58746205D01*
X120915614Y-58752233D01*
X120850149Y-58776648D01*
X120786530Y-58763104D01*
X120786359Y-58763518D01*
X120784123Y-58762592D01*
X120782850Y-58762321D01*
X120780729Y-58761187D01*
X120780728Y-58761186D01*
X120780727Y-58761186D01*
X120592132Y-58703976D01*
X120592129Y-58703975D01*
X120396000Y-58684659D01*
X120199870Y-58703975D01*
X120011266Y-58761188D01*
X119837467Y-58854086D01*
X119832399Y-58857473D01*
X119831386Y-58855958D01*
X119774936Y-58879920D01*
X119706071Y-58868115D01*
X119689574Y-58857511D01*
X119689322Y-58857890D01*
X119684253Y-58854503D01*
X119510539Y-58761651D01*
X119375999Y-58720839D01*
X119376000Y-59440000D01*
X119375999Y-59441061D01*
X119294885Y-59377928D01*
X119184405Y-59340000D01*
X119096995Y-59340000D01*
X119010784Y-59354386D01*
X118908053Y-59409981D01*
X118876000Y-59444799D01*
X118876000Y-58720839D01*
X118875999Y-58720839D01*
X118741458Y-58761652D01*
X118567742Y-58854505D01*
X118562673Y-58857893D01*
X118561556Y-58856221D01*
X118505715Y-58879921D01*
X118436851Y-58868111D01*
X118419811Y-58857158D01*
X118419601Y-58857473D01*
X118414532Y-58854086D01*
X118240733Y-58761188D01*
X118240727Y-58761186D01*
X118052132Y-58703976D01*
X118052129Y-58703975D01*
X117856000Y-58684659D01*
X117836625Y-58686567D01*
X117767979Y-58673547D01*
X117736791Y-58650845D01*
X117360434Y-58274488D01*
X117350361Y-58261914D01*
X117350174Y-58262070D01*
X117345198Y-58256055D01*
X117312382Y-58225240D01*
X117293432Y-58207445D01*
X117292058Y-58206112D01*
X117271034Y-58185088D01*
X117265240Y-58180593D01*
X117260797Y-58176798D01*
X117235034Y-58152604D01*
X117199641Y-58092362D01*
X117202435Y-58022548D01*
X117242531Y-57965328D01*
X117307196Y-57938869D01*
X117320366Y-57938216D01*
X133376475Y-57999528D01*
G37*
%TD.AperFunction*%
%TA.AperFunction,Conductor*%
G36*
X96948631Y-78670185D02*
G01*
X96969273Y-78686819D01*
X97375891Y-79093437D01*
X97409376Y-79154760D01*
X97411530Y-79168151D01*
X97425026Y-79296556D01*
X97425027Y-79296559D01*
X97483518Y-79476577D01*
X97483521Y-79476584D01*
X97578167Y-79640516D01*
X97602294Y-79667312D01*
X97619056Y-79685928D01*
X97649286Y-79748920D01*
X97640661Y-79818255D01*
X97595919Y-79871920D01*
X97529267Y-79892878D01*
X97526906Y-79892900D01*
X91220706Y-79892900D01*
X91204695Y-79891132D01*
X91204673Y-79891374D01*
X91196905Y-79890639D01*
X91125950Y-79892869D01*
X91124003Y-79892900D01*
X91094275Y-79892900D01*
X91094271Y-79892900D01*
X91094260Y-79892901D01*
X91087004Y-79893817D01*
X91081186Y-79894275D01*
X91032633Y-79895801D01*
X91018073Y-79900030D01*
X91012240Y-79901725D01*
X90993196Y-79905669D01*
X90972142Y-79908329D01*
X90972140Y-79908329D01*
X90926981Y-79926208D01*
X90921455Y-79928100D01*
X90874801Y-79941654D01*
X90856525Y-79952463D01*
X90839060Y-79961019D01*
X90819324Y-79968833D01*
X90780024Y-79997386D01*
X90775142Y-80000593D01*
X90733336Y-80025317D01*
X90718324Y-80040329D01*
X90703536Y-80052958D01*
X90686367Y-80065432D01*
X90686365Y-80065434D01*
X90655394Y-80102870D01*
X90651462Y-80107191D01*
X89256273Y-81502381D01*
X89194950Y-81535866D01*
X89168592Y-81538700D01*
X89003618Y-81538700D01*
X88936579Y-81519015D01*
X88898079Y-81479797D01*
X88846112Y-81395544D01*
X88722056Y-81271488D01*
X88718742Y-81269443D01*
X88716946Y-81267448D01*
X88716389Y-81267007D01*
X88716464Y-81266911D01*
X88672018Y-81217497D01*
X88660797Y-81148534D01*
X88688640Y-81084452D01*
X88718748Y-81058365D01*
X88721742Y-81056518D01*
X88845715Y-80932545D01*
X88937756Y-80783324D01*
X88937758Y-80783319D01*
X88992905Y-80616897D01*
X88992906Y-80616890D01*
X89003399Y-80514186D01*
X89003400Y-80514173D01*
X89003400Y-80389200D01*
X86603401Y-80389200D01*
X86603401Y-80514186D01*
X86613894Y-80616897D01*
X86669041Y-80783319D01*
X86669043Y-80783324D01*
X86761084Y-80932545D01*
X86885055Y-81056516D01*
X86885059Y-81056519D01*
X86888056Y-81058368D01*
X86889679Y-81060172D01*
X86890723Y-81060998D01*
X86890581Y-81061176D01*
X86934781Y-81110316D01*
X86946002Y-81179279D01*
X86918159Y-81243361D01*
X86888061Y-81269441D01*
X86884749Y-81271483D01*
X86884743Y-81271488D01*
X86760689Y-81395542D01*
X86668587Y-81544863D01*
X86668585Y-81544868D01*
X86643965Y-81619166D01*
X86613401Y-81711403D01*
X86613401Y-81711404D01*
X86613400Y-81711404D01*
X86602900Y-81814183D01*
X86602900Y-82564201D01*
X86602901Y-82564219D01*
X86613400Y-82666996D01*
X86613401Y-82666999D01*
X86668585Y-82833531D01*
X86668589Y-82833540D01*
X86714721Y-82908332D01*
X86733161Y-82975724D01*
X86712238Y-83042388D01*
X86658596Y-83087157D01*
X86589265Y-83095818D01*
X86570178Y-83091134D01*
X86564016Y-83089092D01*
X86400253Y-83034826D01*
X86400251Y-83034825D01*
X86299178Y-83024500D01*
X85700830Y-83024500D01*
X85700812Y-83024501D01*
X85599747Y-83034825D01*
X85435984Y-83089092D01*
X85435981Y-83089093D01*
X85289148Y-83179661D01*
X85167155Y-83301654D01*
X85166555Y-83302414D01*
X85166010Y-83302799D01*
X85162053Y-83306757D01*
X85161376Y-83306080D01*
X85109532Y-83342789D01*
X85069292Y-83349500D01*
X84363699Y-83349500D01*
X84296660Y-83329815D01*
X84250905Y-83277011D01*
X84239699Y-83225500D01*
X84239699Y-82987129D01*
X84239698Y-82987123D01*
X84239697Y-82987116D01*
X84233291Y-82927517D01*
X84233069Y-82926923D01*
X84182997Y-82792671D01*
X84182993Y-82792664D01*
X84096747Y-82677455D01*
X84096744Y-82677453D01*
X84071781Y-82658765D01*
X84029910Y-82602830D01*
X84024927Y-82533139D01*
X84058413Y-82471816D01*
X84119737Y-82438332D01*
X84146086Y-82435499D01*
X84737072Y-82435499D01*
X84796683Y-82429091D01*
X84931531Y-82378796D01*
X85046746Y-82292546D01*
X85132996Y-82177331D01*
X85183291Y-82042483D01*
X85189700Y-81982873D01*
X85189699Y-79987128D01*
X85183291Y-79927517D01*
X85177096Y-79910908D01*
X85169000Y-79889200D01*
X86603400Y-79889200D01*
X87553400Y-79889200D01*
X87553400Y-79064200D01*
X88053400Y-79064200D01*
X88053400Y-79889200D01*
X89003399Y-79889200D01*
X89003399Y-79764228D01*
X89003398Y-79764213D01*
X88992905Y-79661502D01*
X88937758Y-79495080D01*
X88937756Y-79495075D01*
X88845715Y-79345854D01*
X88721745Y-79221884D01*
X88572524Y-79129843D01*
X88572519Y-79129841D01*
X88406097Y-79074694D01*
X88406090Y-79074693D01*
X88303386Y-79064200D01*
X88053400Y-79064200D01*
X87553400Y-79064200D01*
X87303429Y-79064200D01*
X87303412Y-79064201D01*
X87200702Y-79074694D01*
X87034280Y-79129841D01*
X87034275Y-79129843D01*
X86885054Y-79221884D01*
X86761084Y-79345854D01*
X86669043Y-79495075D01*
X86669041Y-79495080D01*
X86613894Y-79661502D01*
X86613893Y-79661509D01*
X86603400Y-79764213D01*
X86603400Y-79889200D01*
X85169000Y-79889200D01*
X85132997Y-79792671D01*
X85132993Y-79792664D01*
X85058566Y-79693243D01*
X85046746Y-79677454D01*
X85029175Y-79664300D01*
X84989388Y-79634515D01*
X84947518Y-79578581D01*
X84939700Y-79535249D01*
X84939700Y-78956561D01*
X84959385Y-78889522D01*
X84998600Y-78851025D01*
X85048350Y-78820340D01*
X85162319Y-78706371D01*
X85223642Y-78672886D01*
X85293334Y-78677870D01*
X85337681Y-78706371D01*
X85451650Y-78820340D01*
X85598484Y-78910908D01*
X85762247Y-78965174D01*
X85863323Y-78975500D01*
X86461676Y-78975499D01*
X86461684Y-78975498D01*
X86461687Y-78975498D01*
X86517030Y-78969844D01*
X86562753Y-78965174D01*
X86726516Y-78910908D01*
X86873350Y-78820340D01*
X86995340Y-78698350D01*
X86995341Y-78698347D01*
X86995344Y-78698345D01*
X86995945Y-78697586D01*
X86996489Y-78697200D01*
X87000447Y-78693243D01*
X87001123Y-78693919D01*
X87052968Y-78657211D01*
X87093208Y-78650500D01*
X96881592Y-78650500D01*
X96948631Y-78670185D01*
G37*
%TD.AperFunction*%
%TA.AperFunction,Conductor*%
G36*
X96083531Y-70951185D02*
G01*
X96122029Y-70990401D01*
X96166288Y-71062156D01*
X96290344Y-71186212D01*
X96439666Y-71278314D01*
X96606203Y-71333499D01*
X96708991Y-71344000D01*
X98109008Y-71343999D01*
X98211797Y-71333499D01*
X98378334Y-71278314D01*
X98527656Y-71186212D01*
X98569048Y-71144819D01*
X98630372Y-71111334D01*
X98656730Y-71108500D01*
X98997679Y-71108500D01*
X98998300Y-71108500D01*
X99065339Y-71128185D01*
X99111094Y-71180989D01*
X99122300Y-71232500D01*
X99122300Y-72180170D01*
X99102615Y-72247209D01*
X99085981Y-72267851D01*
X98650651Y-72703181D01*
X98589328Y-72736666D01*
X98562970Y-72739500D01*
X95168507Y-72739500D01*
X95101468Y-72719815D01*
X95084969Y-72707137D01*
X94976241Y-72608019D01*
X94976239Y-72608017D01*
X94802842Y-72500655D01*
X94802835Y-72500651D01*
X94680738Y-72453351D01*
X94612656Y-72426976D01*
X94412176Y-72389500D01*
X94208224Y-72389500D01*
X94093053Y-72411028D01*
X94023540Y-72403998D01*
X93968861Y-72360500D01*
X93946379Y-72294346D01*
X93952564Y-72250136D01*
X93988180Y-72142651D01*
X93998499Y-72041654D01*
X93998500Y-72041641D01*
X93998500Y-72005000D01*
X93261000Y-72005000D01*
X93261000Y-72729999D01*
X93261838Y-72730837D01*
X93326022Y-72749684D01*
X93371777Y-72802488D01*
X93381721Y-72871646D01*
X93369983Y-72909270D01*
X93279624Y-73090734D01*
X93279617Y-73090752D01*
X93223802Y-73286917D01*
X93204985Y-73489999D01*
X93204985Y-73490000D01*
X93223802Y-73693082D01*
X93279617Y-73889247D01*
X93279622Y-73889260D01*
X93370527Y-74071821D01*
X93493437Y-74234581D01*
X93644158Y-74371980D01*
X93644160Y-74371982D01*
X93716097Y-74416523D01*
X93817563Y-74479348D01*
X94007744Y-74553024D01*
X94208224Y-74590500D01*
X94208226Y-74590500D01*
X94412174Y-74590500D01*
X94412176Y-74590500D01*
X94612656Y-74553024D01*
X94802837Y-74479348D01*
X94976241Y-74371981D01*
X95053388Y-74301652D01*
X95084969Y-74272863D01*
X95147773Y-74242246D01*
X95168507Y-74240500D01*
X98861495Y-74240500D01*
X98879465Y-74241809D01*
X98903223Y-74245289D01*
X98904092Y-74245212D01*
X98904438Y-74245183D01*
X98905263Y-74245348D01*
X98910449Y-74245500D01*
X98910423Y-74246385D01*
X98972939Y-74258945D01*
X99023125Y-74307557D01*
X99039062Y-74375585D01*
X99034420Y-74400026D01*
X99034711Y-74400089D01*
X99033293Y-74406709D01*
X99022800Y-74509413D01*
X99022800Y-74959400D01*
X99847800Y-74959400D01*
X99847800Y-73809399D01*
X99845164Y-73806763D01*
X99811679Y-73745440D01*
X99816663Y-73675748D01*
X99845160Y-73631406D01*
X100182853Y-73293713D01*
X100244172Y-73260231D01*
X100313864Y-73265215D01*
X100369797Y-73307087D01*
X100389606Y-73346801D01*
X100406716Y-73405695D01*
X100406717Y-73405696D01*
X100490314Y-73547052D01*
X100490321Y-73547061D01*
X100540979Y-73597719D01*
X100574464Y-73659042D01*
X100569480Y-73728734D01*
X100527608Y-73784667D01*
X100462144Y-73809084D01*
X100453298Y-73809400D01*
X100347800Y-73809400D01*
X100347800Y-74959400D01*
X101172799Y-74959400D01*
X101172799Y-74509428D01*
X101172798Y-74509413D01*
X101162305Y-74406702D01*
X101107158Y-74240280D01*
X101107156Y-74240275D01*
X101015115Y-74091054D01*
X100899867Y-73975806D01*
X100866382Y-73914483D01*
X100871366Y-73844791D01*
X100903377Y-73797069D01*
X100908000Y-73792795D01*
X100908000Y-72883000D01*
X101408000Y-72883000D01*
X101408000Y-73792795D01*
X101408001Y-73792795D01*
X101410486Y-73792600D01*
X101568198Y-73746781D01*
X101709552Y-73663185D01*
X101709561Y-73663178D01*
X101825678Y-73547061D01*
X101825685Y-73547052D01*
X101909282Y-73405696D01*
X101909283Y-73405693D01*
X101955099Y-73247995D01*
X101955100Y-73247989D01*
X101957999Y-73211149D01*
X101958000Y-73211134D01*
X101958000Y-72883000D01*
X101408000Y-72883000D01*
X100908000Y-72883000D01*
X100908000Y-71473203D01*
X100905507Y-71473400D01*
X100781894Y-71509313D01*
X100712025Y-71509113D01*
X100653355Y-71471170D01*
X100624512Y-71407532D01*
X100623300Y-71390236D01*
X100623300Y-71232500D01*
X100642985Y-71165461D01*
X100695789Y-71119706D01*
X100747300Y-71108500D01*
X101272282Y-71108500D01*
X101339321Y-71128185D01*
X101379014Y-71169380D01*
X101439914Y-71272358D01*
X101444702Y-71278531D01*
X101443018Y-71279836D01*
X101471246Y-71331531D01*
X101466262Y-71401223D01*
X101434234Y-71448961D01*
X101408000Y-71473202D01*
X101408000Y-72383000D01*
X101958000Y-72383000D01*
X101958000Y-72054865D01*
X101957999Y-72054850D01*
X101955100Y-72018010D01*
X101955099Y-72018004D01*
X101909283Y-71860306D01*
X101909282Y-71860303D01*
X101821712Y-71712229D01*
X101823433Y-71711211D01*
X101801743Y-71655955D01*
X101815428Y-71587438D01*
X101863983Y-71537197D01*
X101925258Y-71521000D01*
X102290105Y-71521000D01*
X102357144Y-71540685D01*
X102402899Y-71593489D01*
X102412843Y-71662647D01*
X102392328Y-71710996D01*
X102393890Y-71711920D01*
X102306255Y-71860103D01*
X102306254Y-71860106D01*
X102260402Y-72017926D01*
X102260401Y-72017932D01*
X102257500Y-72054798D01*
X102257500Y-73211201D01*
X102260401Y-73248067D01*
X102260402Y-73248069D01*
X102286951Y-73339451D01*
X102292376Y-73358121D01*
X102297300Y-73392717D01*
X102297300Y-73872532D01*
X102277615Y-73939571D01*
X102258416Y-73960746D01*
X102259251Y-73961581D01*
X102130089Y-74090742D01*
X102037987Y-74240063D01*
X102037985Y-74240068D01*
X102031730Y-74258945D01*
X101982801Y-74406603D01*
X101982801Y-74406604D01*
X101982800Y-74406604D01*
X101972300Y-74509383D01*
X101972300Y-75909401D01*
X101972301Y-75909418D01*
X101982800Y-76012196D01*
X101982801Y-76012199D01*
X102037985Y-76178731D01*
X102037987Y-76178736D01*
X102058946Y-76212716D01*
X102130088Y-76328056D01*
X102254144Y-76452112D01*
X102310795Y-76487054D01*
X102357519Y-76539000D01*
X102368742Y-76607962D01*
X102340899Y-76672045D01*
X102333379Y-76680273D01*
X99258578Y-79755075D01*
X99197255Y-79788560D01*
X99127563Y-79783576D01*
X99071630Y-79741704D01*
X99047213Y-79676240D01*
X99062065Y-79607967D01*
X99063486Y-79605435D01*
X99137879Y-79476584D01*
X99196374Y-79296556D01*
X99216160Y-79108300D01*
X99196374Y-78920044D01*
X99137879Y-78740016D01*
X99043233Y-78576084D01*
X98916571Y-78435412D01*
X98903325Y-78425788D01*
X98763434Y-78324151D01*
X98763429Y-78324148D01*
X98590507Y-78247157D01*
X98590502Y-78247155D01*
X98444700Y-78216165D01*
X98405346Y-78207800D01*
X98405345Y-78207800D01*
X98381508Y-78207800D01*
X98314469Y-78188115D01*
X98293827Y-78171481D01*
X97722834Y-77600488D01*
X97712761Y-77587914D01*
X97712574Y-77588070D01*
X97707598Y-77582055D01*
X97674782Y-77551240D01*
X97655832Y-77533445D01*
X97654458Y-77532112D01*
X97633435Y-77511089D01*
X97627640Y-77506594D01*
X97623198Y-77502799D01*
X97587796Y-77469554D01*
X97587788Y-77469548D01*
X97569192Y-77459325D01*
X97552931Y-77448644D01*
X97536163Y-77435637D01*
X97512695Y-77425482D01*
X97491578Y-77416343D01*
X97486356Y-77413786D01*
X97443768Y-77390373D01*
X97443765Y-77390372D01*
X97423201Y-77385092D01*
X97404796Y-77378790D01*
X97385327Y-77370365D01*
X97385321Y-77370363D01*
X97337351Y-77362766D01*
X97331636Y-77361582D01*
X97315172Y-77357355D01*
X97284580Y-77349500D01*
X97284577Y-77349500D01*
X97263355Y-77349500D01*
X97243955Y-77347973D01*
X97222996Y-77344653D01*
X97222995Y-77344653D01*
X97199186Y-77346903D01*
X97174630Y-77349225D01*
X97168792Y-77349500D01*
X93000290Y-77349500D01*
X92933251Y-77329815D01*
X92887496Y-77277011D01*
X92877552Y-77207853D01*
X92906577Y-77144297D01*
X92908079Y-77142595D01*
X92934533Y-77113216D01*
X93029179Y-76949284D01*
X93087674Y-76769256D01*
X93107460Y-76581000D01*
X93087674Y-76392744D01*
X93029179Y-76212716D01*
X92934533Y-76048784D01*
X92807871Y-75908112D01*
X92807870Y-75908111D01*
X92654734Y-75796851D01*
X92654729Y-75796848D01*
X92481807Y-75719857D01*
X92481802Y-75719855D01*
X92331686Y-75687948D01*
X92296646Y-75680500D01*
X92296645Y-75680500D01*
X92272808Y-75680500D01*
X92205769Y-75660815D01*
X92185127Y-75644181D01*
X92030633Y-75489687D01*
X92000346Y-75459400D01*
X99022801Y-75459400D01*
X99022801Y-75909386D01*
X99033294Y-76012097D01*
X99088441Y-76178519D01*
X99088443Y-76178524D01*
X99180484Y-76327745D01*
X99304454Y-76451715D01*
X99453675Y-76543756D01*
X99453680Y-76543758D01*
X99620102Y-76598905D01*
X99620109Y-76598906D01*
X99722819Y-76609399D01*
X99847799Y-76609399D01*
X99847800Y-76609398D01*
X99847800Y-75459400D01*
X100347800Y-75459400D01*
X100347800Y-76609399D01*
X100472772Y-76609399D01*
X100472786Y-76609398D01*
X100575497Y-76598905D01*
X100741919Y-76543758D01*
X100741924Y-76543756D01*
X100891145Y-76451715D01*
X101015115Y-76327745D01*
X101107156Y-76178524D01*
X101107158Y-76178519D01*
X101162305Y-76012097D01*
X101162306Y-76012090D01*
X101172799Y-75909386D01*
X101172800Y-75909373D01*
X101172800Y-75459400D01*
X100347800Y-75459400D01*
X99847800Y-75459400D01*
X99022801Y-75459400D01*
X92000346Y-75459400D01*
X91872816Y-75331870D01*
X91839333Y-75270550D01*
X91836500Y-75244201D01*
X91836500Y-72681770D01*
X91856185Y-72614731D01*
X91891429Y-72580132D01*
X91891183Y-72579821D01*
X91894082Y-72577528D01*
X91895401Y-72576233D01*
X91896850Y-72575340D01*
X92011175Y-72461014D01*
X92072494Y-72427532D01*
X92142186Y-72432516D01*
X92186534Y-72461017D01*
X92300461Y-72574944D01*
X92300465Y-72574947D01*
X92447188Y-72665448D01*
X92447199Y-72665453D01*
X92610847Y-72719680D01*
X92711851Y-72729999D01*
X92760999Y-72729998D01*
X92761000Y-72729998D01*
X92761000Y-71629000D01*
X92780685Y-71561961D01*
X92833489Y-71516206D01*
X92885000Y-71505000D01*
X93998499Y-71505000D01*
X93998499Y-71468360D01*
X93998498Y-71468345D01*
X93988180Y-71367347D01*
X93933953Y-71203699D01*
X93933950Y-71203692D01*
X93882696Y-71120598D01*
X93864255Y-71053205D01*
X93885177Y-70986542D01*
X93938819Y-70941772D01*
X93988234Y-70931500D01*
X96016492Y-70931500D01*
X96083531Y-70951185D01*
G37*
%TD.AperFunction*%
%TA.AperFunction,Conductor*%
G36*
X106301629Y-64981385D02*
G01*
X106347384Y-65034189D01*
X106357948Y-65098301D01*
X106355900Y-65118340D01*
X106355900Y-65155000D01*
X107519400Y-65155000D01*
X107586439Y-65174685D01*
X107632194Y-65227489D01*
X107643400Y-65279000D01*
X107643400Y-65531000D01*
X107623715Y-65598039D01*
X107570911Y-65643794D01*
X107519400Y-65655000D01*
X106355901Y-65655000D01*
X106355901Y-65691654D01*
X106366219Y-65792652D01*
X106420446Y-65956300D01*
X106420451Y-65956311D01*
X106510952Y-66103034D01*
X106510955Y-66103038D01*
X106632860Y-66224943D01*
X106705845Y-66269961D01*
X106752570Y-66321909D01*
X106763791Y-66390872D01*
X106735948Y-66454954D01*
X106677879Y-66493810D01*
X106640749Y-66499500D01*
X106448129Y-66499500D01*
X106448123Y-66499501D01*
X106388516Y-66505908D01*
X106253671Y-66556202D01*
X106253664Y-66556206D01*
X106138455Y-66642452D01*
X106138452Y-66642455D01*
X106052206Y-66757664D01*
X106052202Y-66757671D01*
X106001908Y-66892517D01*
X105995501Y-66952116D01*
X105995500Y-66952135D01*
X105995500Y-69047870D01*
X105995501Y-69047876D01*
X106001908Y-69107483D01*
X106052202Y-69242328D01*
X106052206Y-69242335D01*
X106138452Y-69357544D01*
X106138455Y-69357547D01*
X106253664Y-69443793D01*
X106253671Y-69443797D01*
X106388517Y-69494091D01*
X106388516Y-69494091D01*
X106395444Y-69494835D01*
X106448127Y-69500500D01*
X108225191Y-69500499D01*
X108292230Y-69520184D01*
X108312872Y-69536818D01*
X108529564Y-69753510D01*
X108539640Y-69766086D01*
X108539827Y-69765932D01*
X108545004Y-69772190D01*
X108545550Y-69773462D01*
X108546573Y-69774739D01*
X108548973Y-69778520D01*
X108547989Y-69779144D01*
X108572569Y-69836392D01*
X108561048Y-69905306D01*
X108537141Y-69938911D01*
X108312871Y-70163181D01*
X108251548Y-70196666D01*
X108225190Y-70199500D01*
X106448129Y-70199500D01*
X106448123Y-70199501D01*
X106388516Y-70205908D01*
X106253671Y-70256202D01*
X106253664Y-70256206D01*
X106138455Y-70342452D01*
X106138452Y-70342455D01*
X106052206Y-70457664D01*
X106052202Y-70457671D01*
X106001908Y-70592517D01*
X105995501Y-70652116D01*
X105995500Y-70652135D01*
X105995500Y-72747870D01*
X105995501Y-72747876D01*
X106001908Y-72807483D01*
X106052202Y-72942328D01*
X106052206Y-72942335D01*
X106138452Y-73057544D01*
X106138455Y-73057547D01*
X106253664Y-73143793D01*
X106253671Y-73143797D01*
X106275662Y-73151999D01*
X106388517Y-73194091D01*
X106448127Y-73200500D01*
X106604549Y-73200499D01*
X106671587Y-73220183D01*
X106717342Y-73272987D01*
X106727286Y-73342145D01*
X106722254Y-73363503D01*
X106668326Y-73526247D01*
X106668325Y-73526248D01*
X106658000Y-73627315D01*
X106658000Y-74200669D01*
X106658001Y-74200687D01*
X106668325Y-74301752D01*
X106670249Y-74307557D01*
X106683219Y-74346696D01*
X106685621Y-74416523D01*
X106649890Y-74476565D01*
X106587370Y-74507758D01*
X106565513Y-74509700D01*
X106047429Y-74509700D01*
X105980390Y-74490015D01*
X105959748Y-74473381D01*
X103894818Y-72408451D01*
X103861333Y-72347128D01*
X103858499Y-72320770D01*
X103858499Y-72231532D01*
X103858500Y-72054806D01*
X103855598Y-72017931D01*
X103853644Y-72011206D01*
X103809745Y-71860106D01*
X103809744Y-71860103D01*
X103809744Y-71860102D01*
X103726081Y-71718635D01*
X103726079Y-71718633D01*
X103726076Y-71718629D01*
X103609870Y-71602423D01*
X103609862Y-71602417D01*
X103491582Y-71532467D01*
X103468398Y-71518756D01*
X103468397Y-71518755D01*
X103468396Y-71518755D01*
X103468393Y-71518754D01*
X103310573Y-71472902D01*
X103310567Y-71472901D01*
X103273701Y-71470000D01*
X103273694Y-71470000D01*
X102875895Y-71470000D01*
X102808856Y-71450315D01*
X102763101Y-71397511D01*
X102753157Y-71328353D01*
X102773671Y-71280003D01*
X102772110Y-71279080D01*
X102786026Y-71255548D01*
X102859744Y-71130898D01*
X102901734Y-70986370D01*
X102905597Y-70973073D01*
X102905598Y-70973067D01*
X102906097Y-70966727D01*
X102908500Y-70936194D01*
X102908500Y-69779806D01*
X102905598Y-69742931D01*
X102905118Y-69741280D01*
X102862417Y-69594304D01*
X102859744Y-69585102D01*
X102776081Y-69443635D01*
X102776079Y-69443633D01*
X102776076Y-69443629D01*
X102659870Y-69327423D01*
X102659862Y-69327417D01*
X102518396Y-69243755D01*
X102518393Y-69243754D01*
X102360573Y-69197902D01*
X102360567Y-69197901D01*
X102323701Y-69195000D01*
X102323694Y-69195000D01*
X101892306Y-69195000D01*
X101892298Y-69195000D01*
X101855432Y-69197901D01*
X101855426Y-69197902D01*
X101697606Y-69243754D01*
X101697603Y-69243755D01*
X101556137Y-69327417D01*
X101556129Y-69327423D01*
X101439923Y-69443629D01*
X101439914Y-69443641D01*
X101379014Y-69546620D01*
X101327946Y-69594304D01*
X101272282Y-69607500D01*
X99959900Y-69607500D01*
X99892861Y-69587815D01*
X99847106Y-69535011D01*
X99835900Y-69483500D01*
X99835900Y-68129428D01*
X99855585Y-68062389D01*
X99872214Y-68041752D01*
X102915948Y-64998018D01*
X102977271Y-64964534D01*
X103003629Y-64961700D01*
X106234590Y-64961700D01*
X106301629Y-64981385D01*
G37*
%TD.AperFunction*%
%TA.AperFunction,Conductor*%
G36*
X109888656Y-70529803D02*
G01*
X109944589Y-70571675D01*
X109968642Y-70633022D01*
X109985326Y-70791756D01*
X109985327Y-70791759D01*
X110040672Y-70962094D01*
X110042667Y-71031935D01*
X110010423Y-71088092D01*
X109914555Y-71183961D01*
X109914552Y-71183965D01*
X109824051Y-71330688D01*
X109824046Y-71330699D01*
X109769819Y-71494347D01*
X109759500Y-71595345D01*
X109759500Y-71632000D01*
X110923000Y-71632000D01*
X110990039Y-71651685D01*
X111035794Y-71704489D01*
X111047000Y-71756000D01*
X111047000Y-72856999D01*
X111146140Y-72856999D01*
X111146154Y-72856998D01*
X111247152Y-72846680D01*
X111410800Y-72792453D01*
X111410811Y-72792448D01*
X111557537Y-72701945D01*
X111559813Y-72699670D01*
X111561762Y-72698605D01*
X111563206Y-72697464D01*
X111563400Y-72697710D01*
X111621134Y-72666181D01*
X111690826Y-72671160D01*
X111746762Y-72713028D01*
X111771183Y-72778491D01*
X111771500Y-72787345D01*
X111771500Y-73323170D01*
X111751815Y-73390209D01*
X111735181Y-73410851D01*
X110672651Y-74473381D01*
X110611328Y-74506866D01*
X110584970Y-74509700D01*
X110550961Y-74509700D01*
X110483922Y-74490015D01*
X110438167Y-74437211D01*
X110428223Y-74368053D01*
X110433255Y-74346696D01*
X110448180Y-74301652D01*
X110458499Y-74200654D01*
X110458500Y-74200641D01*
X110458500Y-74164000D01*
X109295000Y-74164000D01*
X109227961Y-74144315D01*
X109182206Y-74091511D01*
X109171000Y-74040000D01*
X109171000Y-73788000D01*
X109190685Y-73720961D01*
X109243489Y-73675206D01*
X109295000Y-73664000D01*
X110458499Y-73664000D01*
X110458499Y-73627360D01*
X110458498Y-73627345D01*
X110448180Y-73526347D01*
X110393953Y-73362699D01*
X110393948Y-73362688D01*
X110303447Y-73215965D01*
X110303444Y-73215961D01*
X110181538Y-73094055D01*
X110181534Y-73094052D01*
X110034811Y-73003551D01*
X110034800Y-73003546D01*
X109871152Y-72949319D01*
X109770154Y-72939000D01*
X109513997Y-72939000D01*
X109446958Y-72919315D01*
X109401203Y-72866511D01*
X109390708Y-72801744D01*
X109390806Y-72800833D01*
X109396500Y-72747873D01*
X109396500Y-72132000D01*
X109759501Y-72132000D01*
X109759501Y-72168654D01*
X109769819Y-72269652D01*
X109824046Y-72433300D01*
X109824051Y-72433311D01*
X109914552Y-72580034D01*
X109914555Y-72580038D01*
X110036461Y-72701944D01*
X110036465Y-72701947D01*
X110183188Y-72792448D01*
X110183199Y-72792453D01*
X110346847Y-72846680D01*
X110447851Y-72856999D01*
X110547000Y-72856998D01*
X110547000Y-72132000D01*
X109759501Y-72132000D01*
X109396500Y-72132000D01*
X109396499Y-70970807D01*
X109416184Y-70903769D01*
X109432818Y-70883127D01*
X109601867Y-70714078D01*
X109757642Y-70558302D01*
X109818964Y-70524819D01*
X109888656Y-70529803D01*
G37*
%TD.AperFunction*%
%TA.AperFunction,Conductor*%
G36*
X111762432Y-57916992D02*
G01*
X111829393Y-57936932D01*
X111874946Y-57989911D01*
X111884626Y-58059107D01*
X111867497Y-58106083D01*
X111865098Y-58109972D01*
X111865091Y-58109986D01*
X111837719Y-58192588D01*
X111810826Y-58273747D01*
X111810826Y-58273748D01*
X111810825Y-58273748D01*
X111800500Y-58374815D01*
X111800500Y-58973169D01*
X111800501Y-58973187D01*
X111810825Y-59074252D01*
X111833318Y-59142129D01*
X111865092Y-59238016D01*
X111954767Y-59383403D01*
X111955661Y-59384851D01*
X112069629Y-59498819D01*
X112103114Y-59560142D01*
X112098130Y-59629834D01*
X112069629Y-59674181D01*
X111955661Y-59788148D01*
X111865093Y-59934981D01*
X111865091Y-59934984D01*
X111865092Y-59934984D01*
X111810826Y-60098747D01*
X111810826Y-60098748D01*
X111810825Y-60098748D01*
X111800500Y-60199815D01*
X111800500Y-60798169D01*
X111800501Y-60798187D01*
X111810825Y-60899252D01*
X111832431Y-60964453D01*
X111864614Y-61061575D01*
X111865092Y-61063015D01*
X111865093Y-61063018D01*
X111880584Y-61088133D01*
X111944345Y-61191506D01*
X111955661Y-61209851D01*
X112077651Y-61331841D01*
X112078411Y-61332442D01*
X112078796Y-61332986D01*
X112082757Y-61336947D01*
X112082080Y-61337623D01*
X112118787Y-61389465D01*
X112125499Y-61429707D01*
X112125499Y-63107501D01*
X112123732Y-63123509D01*
X112123973Y-63123532D01*
X112123239Y-63131292D01*
X112125469Y-63202235D01*
X112125500Y-63204183D01*
X112125500Y-63233920D01*
X112125501Y-63233940D01*
X112126418Y-63241206D01*
X112126876Y-63247024D01*
X112128402Y-63295567D01*
X112128403Y-63295570D01*
X112134323Y-63315948D01*
X112138268Y-63334996D01*
X112140928Y-63356054D01*
X112140931Y-63356064D01*
X112158813Y-63401230D01*
X112160705Y-63406758D01*
X112174254Y-63453395D01*
X112174255Y-63453397D01*
X112180874Y-63464588D01*
X112184785Y-63471202D01*
X112185060Y-63471666D01*
X112193617Y-63489134D01*
X112197920Y-63500000D01*
X112201432Y-63508872D01*
X112229983Y-63548170D01*
X112233188Y-63553049D01*
X112257919Y-63594865D01*
X112257923Y-63594869D01*
X112272925Y-63609871D01*
X112285563Y-63624669D01*
X112298033Y-63641833D01*
X112298036Y-63641836D01*
X112298037Y-63641837D01*
X112335476Y-63672809D01*
X112339776Y-63676722D01*
X112441270Y-63778216D01*
X112516681Y-63853627D01*
X112550166Y-63914950D01*
X112553000Y-63941308D01*
X112553000Y-64294669D01*
X112553002Y-64294690D01*
X112559755Y-64360805D01*
X112546984Y-64429498D01*
X112499103Y-64480381D01*
X112431313Y-64497301D01*
X112410617Y-64494695D01*
X112337247Y-64479100D01*
X112337246Y-64479100D01*
X112147954Y-64479100D01*
X112123377Y-64484324D01*
X111962797Y-64518455D01*
X111962792Y-64518457D01*
X111789870Y-64595448D01*
X111789865Y-64595451D01*
X111638510Y-64705418D01*
X111572704Y-64728898D01*
X111565625Y-64729100D01*
X110075052Y-64729100D01*
X110008013Y-64709415D01*
X109987371Y-64692781D01*
X109879249Y-64584659D01*
X109800802Y-64536272D01*
X109754078Y-64484324D01*
X109741900Y-64430734D01*
X109741900Y-64234840D01*
X109742005Y-64231234D01*
X109745731Y-64167265D01*
X109734602Y-64104154D01*
X109734079Y-64100584D01*
X109730984Y-64074103D01*
X109726641Y-64036945D01*
X109722808Y-64026415D01*
X109717211Y-64005530D01*
X109715265Y-63994489D01*
X109689884Y-63935648D01*
X109688552Y-63932295D01*
X109682239Y-63914950D01*
X109666637Y-63872083D01*
X109660472Y-63862710D01*
X109650218Y-63843691D01*
X109645779Y-63833400D01*
X109645773Y-63833390D01*
X109607515Y-63782002D01*
X109605446Y-63779047D01*
X109574502Y-63732000D01*
X109570230Y-63725504D01*
X109562072Y-63717807D01*
X109547704Y-63701662D01*
X109547021Y-63700744D01*
X109541010Y-63692670D01*
X109491918Y-63651476D01*
X109489228Y-63649082D01*
X109471514Y-63632370D01*
X109442618Y-63605108D01*
X109432903Y-63599499D01*
X109415204Y-63587106D01*
X109406614Y-63579898D01*
X109406612Y-63579897D01*
X109406611Y-63579896D01*
X109349340Y-63551134D01*
X109346180Y-63549430D01*
X109316309Y-63532184D01*
X109290682Y-63517388D01*
X109286076Y-63516009D01*
X109279934Y-63514170D01*
X109259860Y-63506195D01*
X109249833Y-63501160D01*
X109249832Y-63501159D01*
X109249831Y-63501159D01*
X109187487Y-63486382D01*
X109184005Y-63485449D01*
X109122611Y-63467070D01*
X109111410Y-63466417D01*
X109090038Y-63463286D01*
X109079124Y-63460700D01*
X109079121Y-63460700D01*
X109015041Y-63460700D01*
X109011440Y-63460595D01*
X108947465Y-63456869D01*
X108947464Y-63456869D01*
X108936423Y-63458816D01*
X108914891Y-63460700D01*
X102705105Y-63460700D01*
X102687135Y-63459391D01*
X102663372Y-63455910D01*
X102618290Y-63459855D01*
X102611333Y-63460464D01*
X102605932Y-63460700D01*
X102597683Y-63460700D01*
X102565989Y-63464404D01*
X102564221Y-63464585D01*
X102546805Y-63466109D01*
X102488599Y-63471201D01*
X102481533Y-63472661D01*
X102481521Y-63472604D01*
X102474154Y-63474238D01*
X102474168Y-63474294D01*
X102467145Y-63475958D01*
X102395824Y-63501915D01*
X102394124Y-63502506D01*
X102322066Y-63526385D01*
X102315519Y-63529438D01*
X102315494Y-63529386D01*
X102308714Y-63532668D01*
X102308740Y-63532720D01*
X102302282Y-63535963D01*
X102238883Y-63577660D01*
X102237365Y-63578628D01*
X102172746Y-63618487D01*
X102167077Y-63622970D01*
X102167041Y-63622924D01*
X102161198Y-63627684D01*
X102161235Y-63627728D01*
X102155709Y-63632364D01*
X102103613Y-63687581D01*
X102102357Y-63688874D01*
X99020680Y-66770550D01*
X98959357Y-66804035D01*
X98889665Y-66799051D01*
X98833732Y-66757179D01*
X98809315Y-66691715D01*
X98808999Y-66682869D01*
X98808999Y-66593528D01*
X98808998Y-66593513D01*
X98798505Y-66490802D01*
X98743358Y-66324380D01*
X98743356Y-66324375D01*
X98651315Y-66175154D01*
X98527345Y-66051184D01*
X98378124Y-65959143D01*
X98378119Y-65959141D01*
X98211697Y-65903994D01*
X98211690Y-65903993D01*
X98108986Y-65893500D01*
X97659000Y-65893500D01*
X97659000Y-68218499D01*
X98108972Y-68218499D01*
X98108984Y-68218498D01*
X98198296Y-68209374D01*
X98266989Y-68222143D01*
X98317874Y-68270024D01*
X98334899Y-68332732D01*
X98334899Y-68903763D01*
X98315214Y-68970802D01*
X98262410Y-69016557D01*
X98198297Y-69027121D01*
X98109011Y-69018000D01*
X96708998Y-69018000D01*
X96708981Y-69018001D01*
X96606203Y-69028500D01*
X96606200Y-69028501D01*
X96439668Y-69083685D01*
X96439663Y-69083687D01*
X96290342Y-69175789D01*
X96166289Y-69299842D01*
X96151353Y-69324056D01*
X96130411Y-69358011D01*
X96122031Y-69371597D01*
X96070083Y-69418321D01*
X96016492Y-69430500D01*
X90624000Y-69430500D01*
X90556961Y-69410815D01*
X90511206Y-69358011D01*
X90500000Y-69306500D01*
X90500000Y-67306000D01*
X96009001Y-67306000D01*
X96009001Y-67518486D01*
X96019494Y-67621197D01*
X96074641Y-67787619D01*
X96074643Y-67787624D01*
X96166684Y-67936845D01*
X96290654Y-68060815D01*
X96439875Y-68152856D01*
X96439880Y-68152858D01*
X96606302Y-68208005D01*
X96606309Y-68208006D01*
X96709019Y-68218499D01*
X97158999Y-68218499D01*
X97159000Y-68218498D01*
X97159000Y-67306000D01*
X96009001Y-67306000D01*
X90500000Y-67306000D01*
X90500000Y-66806000D01*
X96009000Y-66806000D01*
X97159000Y-66806000D01*
X97159000Y-65893500D01*
X96709028Y-65893500D01*
X96709012Y-65893501D01*
X96606302Y-65903994D01*
X96439880Y-65959141D01*
X96439875Y-65959143D01*
X96290654Y-66051184D01*
X96166684Y-66175154D01*
X96074643Y-66324375D01*
X96074641Y-66324380D01*
X96019494Y-66490802D01*
X96019493Y-66490809D01*
X96009000Y-66593513D01*
X96009000Y-66806000D01*
X90500000Y-66806000D01*
X90500000Y-63750004D01*
X91194953Y-63750004D01*
X91215113Y-64019026D01*
X91215113Y-64019028D01*
X91275142Y-64282033D01*
X91275148Y-64282052D01*
X91373709Y-64533181D01*
X91373708Y-64533181D01*
X91508602Y-64766822D01*
X91562294Y-64834151D01*
X92397452Y-63998993D01*
X92407188Y-64028956D01*
X92495186Y-64167619D01*
X92614903Y-64280040D01*
X92749510Y-64354041D01*
X91914848Y-65188702D01*
X92097483Y-65313220D01*
X92097485Y-65313221D01*
X92340539Y-65430269D01*
X92340537Y-65430269D01*
X92598337Y-65509790D01*
X92598343Y-65509792D01*
X92865101Y-65549999D01*
X92865110Y-65550000D01*
X93134890Y-65550000D01*
X93134898Y-65549999D01*
X93401656Y-65509792D01*
X93401662Y-65509790D01*
X93659461Y-65430269D01*
X93902521Y-65313218D01*
X94085150Y-65188702D01*
X93247534Y-64351086D01*
X93315629Y-64324126D01*
X93448492Y-64227595D01*
X93553175Y-64101055D01*
X93601631Y-63998079D01*
X94437703Y-64834151D01*
X94437704Y-64834150D01*
X94491393Y-64766828D01*
X94491400Y-64766817D01*
X94626290Y-64533181D01*
X94724851Y-64282052D01*
X94724857Y-64282033D01*
X94784886Y-64019028D01*
X94784886Y-64019026D01*
X94805047Y-63750004D01*
X94805047Y-63749995D01*
X94784886Y-63480973D01*
X94784886Y-63480971D01*
X94724857Y-63217966D01*
X94724851Y-63217947D01*
X94626290Y-62966818D01*
X94626291Y-62966818D01*
X94491397Y-62733177D01*
X94437704Y-62665847D01*
X93602546Y-63501004D01*
X93592812Y-63471044D01*
X93504814Y-63332381D01*
X93385097Y-63219960D01*
X93250489Y-63145958D01*
X94085150Y-62311296D01*
X93902517Y-62186779D01*
X93902516Y-62186778D01*
X93659460Y-62069730D01*
X93659462Y-62069730D01*
X93401662Y-61990209D01*
X93401656Y-61990207D01*
X93134898Y-61950000D01*
X92865101Y-61950000D01*
X92598343Y-61990207D01*
X92598337Y-61990209D01*
X92340538Y-62069730D01*
X92097485Y-62186778D01*
X92097476Y-62186783D01*
X91914848Y-62311296D01*
X92752465Y-63148913D01*
X92684371Y-63175874D01*
X92551508Y-63272405D01*
X92446825Y-63398945D01*
X92398368Y-63501920D01*
X91562295Y-62665848D01*
X91508600Y-62733180D01*
X91373709Y-62966818D01*
X91275148Y-63217947D01*
X91275142Y-63217966D01*
X91215113Y-63480971D01*
X91215113Y-63480973D01*
X91194953Y-63749995D01*
X91194953Y-63750004D01*
X90500000Y-63750004D01*
X90500000Y-60925001D01*
X106149500Y-60925001D01*
X106149501Y-60925018D01*
X106160000Y-61027796D01*
X106160001Y-61027799D01*
X106191443Y-61122682D01*
X106215186Y-61194334D01*
X106307288Y-61343656D01*
X106431344Y-61467712D01*
X106580666Y-61559814D01*
X106747203Y-61614999D01*
X106849991Y-61625500D01*
X107650008Y-61625499D01*
X107650016Y-61625498D01*
X107650019Y-61625498D01*
X107711143Y-61619254D01*
X107752797Y-61614999D01*
X107919334Y-61559814D01*
X108068656Y-61467712D01*
X108192712Y-61343656D01*
X108231815Y-61280258D01*
X108283761Y-61233535D01*
X108352723Y-61222312D01*
X108416806Y-61250155D01*
X108434824Y-61268705D01*
X108449907Y-61287885D01*
X108449909Y-61287887D01*
X108608746Y-61425521D01*
X108790750Y-61530601D01*
X108790752Y-61530601D01*
X108790756Y-61530604D01*
X108989367Y-61599344D01*
X109197398Y-61629254D01*
X109407330Y-61619254D01*
X109611576Y-61569704D01*
X109697199Y-61530601D01*
X109802743Y-61482401D01*
X109802746Y-61482399D01*
X109802753Y-61482396D01*
X109973952Y-61360486D01*
X109975752Y-61358599D01*
X110105700Y-61222312D01*
X110118986Y-61208378D01*
X110232613Y-61031572D01*
X110310725Y-60836457D01*
X110350500Y-60630085D01*
X110350500Y-59922575D01*
X110335528Y-59765782D01*
X110276316Y-59564125D01*
X110180011Y-59377318D01*
X110180009Y-59377316D01*
X110180008Y-59377313D01*
X110050094Y-59212116D01*
X110050090Y-59212112D01*
X109891253Y-59074478D01*
X109709249Y-58969398D01*
X109709245Y-58969396D01*
X109709244Y-58969396D01*
X109510633Y-58900656D01*
X109302602Y-58870746D01*
X109302598Y-58870746D01*
X109092672Y-58880745D01*
X108888421Y-58930296D01*
X108888417Y-58930298D01*
X108697256Y-59017598D01*
X108697251Y-59017601D01*
X108526046Y-59139515D01*
X108526045Y-59139515D01*
X108428249Y-59242082D01*
X108367740Y-59277017D01*
X108297949Y-59273692D01*
X108241035Y-59233164D01*
X108232967Y-59221608D01*
X108227110Y-59212112D01*
X108192712Y-59156344D01*
X108068656Y-59032288D01*
X107972808Y-58973169D01*
X107919336Y-58940187D01*
X107919331Y-58940185D01*
X107889488Y-58930296D01*
X107752797Y-58885001D01*
X107752795Y-58885000D01*
X107650010Y-58874500D01*
X106849998Y-58874500D01*
X106849980Y-58874501D01*
X106747203Y-58885000D01*
X106747200Y-58885001D01*
X106580668Y-58940185D01*
X106580663Y-58940187D01*
X106431342Y-59032289D01*
X106307289Y-59156342D01*
X106215187Y-59305663D01*
X106215185Y-59305666D01*
X106215186Y-59305666D01*
X106160001Y-59472203D01*
X106160001Y-59472204D01*
X106160000Y-59472204D01*
X106149500Y-59574983D01*
X106149500Y-60925001D01*
X90500000Y-60925001D01*
X90500000Y-57960274D01*
X90519685Y-57893235D01*
X90572489Y-57847480D01*
X90624472Y-57836275D01*
X111762432Y-57916992D01*
G37*
%TD.AperFunction*%
%TA.AperFunction,Conductor*%
G36*
X113241799Y-64983497D02*
G01*
X113241823Y-64983500D01*
X113595191Y-64983499D01*
X113662230Y-65003183D01*
X113682872Y-65019818D01*
X114570590Y-65907536D01*
X114604075Y-65968859D01*
X114603015Y-66026049D01*
X114602594Y-66027689D01*
X114596291Y-66046101D01*
X114587864Y-66065573D01*
X114580266Y-66113547D01*
X114579081Y-66119269D01*
X114567000Y-66166322D01*
X114566999Y-66166329D01*
X114566999Y-66187547D01*
X114565473Y-66206936D01*
X114562559Y-66225338D01*
X114562153Y-66227905D01*
X114564828Y-66256206D01*
X114566725Y-66276267D01*
X114567000Y-66282106D01*
X114567000Y-66588209D01*
X114547315Y-66655248D01*
X114494511Y-66701003D01*
X114459186Y-66711148D01*
X114425505Y-66715582D01*
X114404764Y-66718313D01*
X114404763Y-66718313D01*
X114264770Y-66776300D01*
X114264767Y-66776301D01*
X114264767Y-66776302D01*
X114144549Y-66868549D01*
X114080426Y-66952116D01*
X114052300Y-66988770D01*
X113994313Y-67128763D01*
X113994313Y-67128764D01*
X113979500Y-67241272D01*
X113979500Y-67466727D01*
X113995374Y-67587293D01*
X113992386Y-67587686D01*
X113992395Y-67620315D01*
X113995374Y-67620708D01*
X113979500Y-67741272D01*
X113979500Y-67966727D01*
X113995374Y-68087293D01*
X113992386Y-68087686D01*
X113992395Y-68120315D01*
X113995374Y-68120708D01*
X113994313Y-68128762D01*
X113994313Y-68128764D01*
X113991141Y-68152856D01*
X113979500Y-68241272D01*
X113979500Y-68466727D01*
X113989082Y-68539500D01*
X113992024Y-68561853D01*
X113992217Y-68563314D01*
X113981452Y-68632350D01*
X113935072Y-68684606D01*
X113869278Y-68703500D01*
X112894697Y-68703500D01*
X112827658Y-68683815D01*
X112781903Y-68631011D01*
X112771959Y-68561853D01*
X112800984Y-68498297D01*
X112829600Y-68473962D01*
X112975534Y-68383947D01*
X112975538Y-68383944D01*
X113097444Y-68262038D01*
X113097447Y-68262034D01*
X113187948Y-68115311D01*
X113187953Y-68115300D01*
X113242180Y-67951652D01*
X113252499Y-67850654D01*
X113252500Y-67850641D01*
X113252500Y-67814000D01*
X112089000Y-67814000D01*
X112021961Y-67794315D01*
X111976206Y-67741511D01*
X111965000Y-67690000D01*
X111965000Y-66589000D01*
X112465000Y-66589000D01*
X112465000Y-67314000D01*
X113252499Y-67314000D01*
X113252499Y-67277360D01*
X113252498Y-67277345D01*
X113242180Y-67176347D01*
X113187953Y-67012699D01*
X113187948Y-67012688D01*
X113097447Y-66865965D01*
X113097444Y-66865961D01*
X112975538Y-66744055D01*
X112975534Y-66744052D01*
X112828811Y-66653551D01*
X112828800Y-66653546D01*
X112665152Y-66599319D01*
X112564154Y-66589000D01*
X112465000Y-66589000D01*
X111965000Y-66589000D01*
X111965000Y-66588999D01*
X111865860Y-66589000D01*
X111865844Y-66589001D01*
X111764847Y-66599319D01*
X111601199Y-66653546D01*
X111601188Y-66653551D01*
X111454465Y-66744052D01*
X111440532Y-66757985D01*
X111379208Y-66791468D01*
X111309516Y-66786482D01*
X111265172Y-66757982D01*
X111250851Y-66743661D01*
X111250850Y-66743660D01*
X111133043Y-66670996D01*
X111104018Y-66653093D01*
X111104013Y-66653091D01*
X111102569Y-66652612D01*
X110940253Y-66598826D01*
X110940251Y-66598825D01*
X110839178Y-66588500D01*
X110140830Y-66588500D01*
X110140812Y-66588501D01*
X110039747Y-66598825D01*
X109875984Y-66653092D01*
X109875981Y-66653093D01*
X109729148Y-66743661D01*
X109607155Y-66865654D01*
X109606555Y-66866414D01*
X109606010Y-66866799D01*
X109602053Y-66870757D01*
X109601376Y-66870080D01*
X109549532Y-66906789D01*
X109509292Y-66913500D01*
X109484013Y-66913500D01*
X109416974Y-66893815D01*
X109371219Y-66841011D01*
X109367831Y-66832833D01*
X109339797Y-66757671D01*
X109339793Y-66757664D01*
X109253547Y-66642455D01*
X109253544Y-66642452D01*
X109201865Y-66603765D01*
X109159994Y-66547831D01*
X109155010Y-66478140D01*
X109188496Y-66416817D01*
X109249819Y-66383333D01*
X109276173Y-66380499D01*
X109467576Y-66380499D01*
X109467584Y-66380498D01*
X109467587Y-66380498D01*
X109522930Y-66374844D01*
X109568653Y-66370174D01*
X109732416Y-66315908D01*
X109879250Y-66225340D01*
X110001240Y-66103350D01*
X110010089Y-66089002D01*
X110062038Y-66042278D01*
X110115628Y-66030100D01*
X111565625Y-66030100D01*
X111632664Y-66049785D01*
X111638510Y-66053782D01*
X111789865Y-66163748D01*
X111789870Y-66163751D01*
X111962792Y-66240742D01*
X111962797Y-66240744D01*
X112147954Y-66280100D01*
X112147955Y-66280100D01*
X112337244Y-66280100D01*
X112337246Y-66280100D01*
X112522403Y-66240744D01*
X112695330Y-66163751D01*
X112848471Y-66052488D01*
X112975133Y-65911816D01*
X113069779Y-65747884D01*
X113128274Y-65567856D01*
X113148060Y-65379600D01*
X113128274Y-65191344D01*
X113113341Y-65145385D01*
X113111346Y-65075544D01*
X113147426Y-65015711D01*
X113210127Y-64984883D01*
X113238636Y-64983901D01*
X113238665Y-64983339D01*
X113241799Y-64983497D01*
G37*
%TD.AperFunction*%
%TA.AperFunction,Conductor*%
G36*
X114281198Y-59344185D02*
G01*
X114326953Y-59396989D01*
X114336897Y-59466147D01*
X114332818Y-59484499D01*
X114329976Y-59493866D01*
X114329975Y-59493867D01*
X114310659Y-59689999D01*
X114329975Y-59886129D01*
X114387188Y-60074733D01*
X114480086Y-60248532D01*
X114480090Y-60248539D01*
X114605116Y-60400883D01*
X114757460Y-60525909D01*
X114757467Y-60525913D01*
X114931266Y-60618811D01*
X114931269Y-60618811D01*
X114931273Y-60618814D01*
X115119868Y-60676024D01*
X115316000Y-60695341D01*
X115512132Y-60676024D01*
X115700727Y-60618814D01*
X115755632Y-60589466D01*
X115824033Y-60575224D01*
X115889277Y-60600223D01*
X115930648Y-60656527D01*
X115938024Y-60694926D01*
X115938402Y-60706967D01*
X115938403Y-60706970D01*
X115944323Y-60727348D01*
X115948268Y-60746396D01*
X115950928Y-60767454D01*
X115950931Y-60767464D01*
X115968813Y-60812630D01*
X115970705Y-60818158D01*
X115984254Y-60864795D01*
X115984255Y-60864797D01*
X115995060Y-60883066D01*
X116003617Y-60900534D01*
X116004974Y-60903959D01*
X116011432Y-60920272D01*
X116039983Y-60959570D01*
X116043188Y-60964449D01*
X116067919Y-61006265D01*
X116067923Y-61006269D01*
X116082925Y-61021271D01*
X116095563Y-61036069D01*
X116108033Y-61053233D01*
X116108036Y-61053236D01*
X116108037Y-61053237D01*
X116145476Y-61084209D01*
X116149776Y-61088122D01*
X116487173Y-61425519D01*
X116818580Y-61756926D01*
X116852065Y-61818249D01*
X116847081Y-61887941D01*
X116805209Y-61943874D01*
X116739745Y-61968291D01*
X116705119Y-61965897D01*
X116579046Y-61939100D01*
X116389754Y-61939100D01*
X116367294Y-61943874D01*
X116204597Y-61978455D01*
X116204592Y-61978457D01*
X116031670Y-62055448D01*
X116031665Y-62055451D01*
X115878529Y-62166711D01*
X115751866Y-62307385D01*
X115657221Y-62471315D01*
X115657218Y-62471322D01*
X115602688Y-62639149D01*
X115598726Y-62651344D01*
X115590125Y-62733180D01*
X115578940Y-62839600D01*
X115589920Y-62944078D01*
X115577350Y-63012808D01*
X115566000Y-63028507D01*
X115566000Y-63758000D01*
X116372620Y-63758000D01*
X116391813Y-63747519D01*
X116461505Y-63752501D01*
X116505857Y-63781003D01*
X116943181Y-64218327D01*
X116976666Y-64279650D01*
X116979500Y-64306008D01*
X116979500Y-64593278D01*
X116959815Y-64660317D01*
X116907011Y-64706072D01*
X116839314Y-64716216D01*
X116824323Y-64714243D01*
X116742727Y-64703500D01*
X116742720Y-64703500D01*
X116517280Y-64703500D01*
X116517274Y-64703500D01*
X116517269Y-64703501D01*
X116424684Y-64715690D01*
X116355649Y-64704924D01*
X116303393Y-64658544D01*
X116284508Y-64591275D01*
X116290793Y-64553747D01*
X116343180Y-64395651D01*
X116353499Y-64294654D01*
X116353500Y-64294641D01*
X116353500Y-64258000D01*
X115190000Y-64258000D01*
X115122961Y-64238315D01*
X115077206Y-64185511D01*
X115066000Y-64134000D01*
X115066000Y-63032999D01*
X114966860Y-63033000D01*
X114966844Y-63033001D01*
X114865847Y-63043319D01*
X114702199Y-63097546D01*
X114702188Y-63097551D01*
X114555465Y-63188052D01*
X114541532Y-63201985D01*
X114480208Y-63235468D01*
X114410516Y-63230482D01*
X114366172Y-63201982D01*
X114351851Y-63187661D01*
X114351851Y-63187660D01*
X114351850Y-63187660D01*
X114212002Y-63101401D01*
X114205018Y-63097093D01*
X114205013Y-63097091D01*
X114203569Y-63096612D01*
X114041253Y-63042826D01*
X114041251Y-63042825D01*
X113940184Y-63032500D01*
X113940177Y-63032500D01*
X113586808Y-63032500D01*
X113519769Y-63012815D01*
X113499127Y-62996181D01*
X113462818Y-62959872D01*
X113429333Y-62898549D01*
X113426500Y-62872200D01*
X113426500Y-61429707D01*
X113446185Y-61362667D01*
X113469380Y-61337084D01*
X113469243Y-61336947D01*
X113472050Y-61334139D01*
X113473595Y-61332436D01*
X113474339Y-61331846D01*
X113474350Y-61331840D01*
X113596340Y-61209850D01*
X113686908Y-61063016D01*
X113741174Y-60899253D01*
X113751500Y-60798177D01*
X113751499Y-60199824D01*
X113741174Y-60098747D01*
X113686908Y-59934984D01*
X113596340Y-59788150D01*
X113482370Y-59674180D01*
X113448886Y-59612858D01*
X113453870Y-59543166D01*
X113482371Y-59498819D01*
X113531517Y-59449673D01*
X113596340Y-59384850D01*
X113597233Y-59383401D01*
X113598104Y-59382617D01*
X113600821Y-59379183D01*
X113601407Y-59379647D01*
X113649180Y-59336679D01*
X113702771Y-59324500D01*
X114214159Y-59324500D01*
X114281198Y-59344185D01*
G37*
%TD.AperFunction*%
%TA.AperFunction,Conductor*%
G36*
X119375999Y-60659159D02*
G01*
X119510529Y-60618352D01*
X119684259Y-60525492D01*
X119689320Y-60522111D01*
X119690444Y-60523793D01*
X119746203Y-60500086D01*
X119815075Y-60511851D01*
X119832186Y-60522843D01*
X119832399Y-60522526D01*
X119837457Y-60525906D01*
X119837462Y-60525910D01*
X119975594Y-60599743D01*
X120010408Y-60618352D01*
X120011273Y-60618814D01*
X120199868Y-60676024D01*
X120396000Y-60695341D01*
X120592132Y-60676024D01*
X120780727Y-60618814D01*
X120782853Y-60617677D01*
X120784095Y-60617418D01*
X120786355Y-60616483D01*
X120786532Y-60616911D01*
X120851254Y-60603435D01*
X120915615Y-60627767D01*
X120923669Y-60633796D01*
X121058517Y-60684091D01*
X121118127Y-60690500D01*
X121287621Y-60690499D01*
X121354659Y-60710183D01*
X121400414Y-60762987D01*
X121410358Y-60832145D01*
X121381333Y-60895701D01*
X121375301Y-60902180D01*
X119494051Y-62783430D01*
X119432728Y-62816915D01*
X119363036Y-62811931D01*
X119307103Y-62770059D01*
X119282686Y-62704595D01*
X119282431Y-62699643D01*
X119280531Y-62639149D01*
X119280500Y-62637202D01*
X119280500Y-62607478D01*
X119280500Y-62607475D01*
X119279579Y-62600192D01*
X119279123Y-62594387D01*
X119278574Y-62576915D01*
X119277598Y-62545831D01*
X119271676Y-62525450D01*
X119267731Y-62506395D01*
X119265072Y-62485349D01*
X119265071Y-62485348D01*
X119265071Y-62485342D01*
X119247189Y-62440179D01*
X119245300Y-62434659D01*
X119243044Y-62426894D01*
X119231745Y-62388002D01*
X119229885Y-62384857D01*
X119220936Y-62369724D01*
X119212378Y-62352255D01*
X119204568Y-62332529D01*
X119176006Y-62293218D01*
X119172818Y-62288364D01*
X119148081Y-62246535D01*
X119133074Y-62231528D01*
X119120435Y-62216730D01*
X119107961Y-62199560D01*
X119070528Y-62168594D01*
X119066206Y-62164660D01*
X117805505Y-60903959D01*
X117772020Y-60842636D01*
X117777004Y-60772944D01*
X117818876Y-60717011D01*
X117881031Y-60692875D01*
X118052132Y-60676024D01*
X118240727Y-60618814D01*
X118414538Y-60525910D01*
X118414544Y-60525904D01*
X118419607Y-60522523D01*
X118420624Y-60524045D01*
X118477021Y-60500084D01*
X118545890Y-60511866D01*
X118562424Y-60522489D01*
X118562678Y-60522110D01*
X118567738Y-60525491D01*
X118741465Y-60618349D01*
X118876000Y-60659159D01*
X118876000Y-59938938D01*
X118957115Y-60002072D01*
X119067595Y-60040000D01*
X119155005Y-60040000D01*
X119241216Y-60025614D01*
X119343947Y-59970019D01*
X119375999Y-59935200D01*
X119375999Y-60659159D01*
G37*
%TD.AperFunction*%
%TD*%
M02*
