%TF.GenerationSoftware,KiCad,Pcbnew,9.0.0*%
%TF.CreationDate,2025-04-04T18:35:25+03:00*%
%TF.ProjectId,encoder,656e636f-6465-4722-9e6b-696361645f70,rev?*%
%TF.SameCoordinates,Original*%
%TF.FileFunction,Copper,L2,Bot*%
%TF.FilePolarity,Positive*%
%FSLAX46Y46*%
G04 Gerber Fmt 4.6, Leading zero omitted, Abs format (unit mm)*
G04 Created by KiCad (PCBNEW 9.0.0) date 2025-04-04 18:35:25*
%MOMM*%
%LPD*%
G01*
G04 APERTURE LIST*
G04 Aperture macros list*
%AMRoundRect*
0 Rectangle with rounded corners*
0 $1 Rounding radius*
0 $2 $3 $4 $5 $6 $7 $8 $9 X,Y pos of 4 corners*
0 Add a 4 corners polygon primitive as box body*
4,1,4,$2,$3,$4,$5,$6,$7,$8,$9,$2,$3,0*
0 Add four circle primitives for the rounded corners*
1,1,$1+$1,$2,$3*
1,1,$1+$1,$4,$5*
1,1,$1+$1,$6,$7*
1,1,$1+$1,$8,$9*
0 Add four rect primitives between the rounded corners*
20,1,$1+$1,$2,$3,$4,$5,0*
20,1,$1+$1,$4,$5,$6,$7,0*
20,1,$1+$1,$6,$7,$8,$9,0*
20,1,$1+$1,$8,$9,$2,$3,0*%
G04 Aperture macros list end*
%TA.AperFunction,ComponentPad*%
%ADD10C,3.000000*%
%TD*%
%TA.AperFunction,ComponentPad*%
%ADD11R,1.000000X1.000000*%
%TD*%
%TA.AperFunction,ComponentPad*%
%ADD12C,1.000000*%
%TD*%
%TA.AperFunction,ComponentPad*%
%ADD13RoundRect,0.250000X-0.650000X-0.650000X0.650000X-0.650000X0.650000X0.650000X-0.650000X0.650000X0*%
%TD*%
%TA.AperFunction,ComponentPad*%
%ADD14C,1.800000*%
%TD*%
%TA.AperFunction,ComponentPad*%
%ADD15C,1.500000*%
%TD*%
%TA.AperFunction,ComponentPad*%
%ADD16RoundRect,0.381000X0.619000X0.381000X-0.619000X0.381000X-0.619000X-0.381000X0.619000X-0.381000X0*%
%TD*%
%TA.AperFunction,ComponentPad*%
%ADD17RoundRect,0.381000X0.762000X0.381000X-0.762000X0.381000X-0.762000X-0.381000X0.762000X-0.381000X0*%
%TD*%
%TA.AperFunction,ComponentPad*%
%ADD18C,4.000000*%
%TD*%
%TA.AperFunction,ComponentPad*%
%ADD19R,1.600000X1.600000*%
%TD*%
%TA.AperFunction,ComponentPad*%
%ADD20C,1.600000*%
%TD*%
%TA.AperFunction,ComponentPad*%
%ADD21RoundRect,0.250000X-1.050000X1.050000X-1.050000X-1.050000X1.050000X-1.050000X1.050000X1.050000X0*%
%TD*%
%TA.AperFunction,ComponentPad*%
%ADD22C,2.600000*%
%TD*%
%TA.AperFunction,ComponentPad*%
%ADD23R,1.700000X1.700000*%
%TD*%
%TA.AperFunction,ComponentPad*%
%ADD24C,1.700000*%
%TD*%
%TA.AperFunction,ComponentPad*%
%ADD25C,3.500000*%
%TD*%
%TA.AperFunction,ViaPad*%
%ADD26C,0.800000*%
%TD*%
%TA.AperFunction,ViaPad*%
%ADD27C,1.000000*%
%TD*%
%TA.AperFunction,Conductor*%
%ADD28C,0.250000*%
%TD*%
%TA.AperFunction,Conductor*%
%ADD29C,0.500000*%
%TD*%
G04 APERTURE END LIST*
D10*
%TO.P,TP2,1,1*%
%TO.N,GND*%
X129500000Y-111000000D03*
%TD*%
%TO.P,TP1,1,1*%
%TO.N,+5V*%
X129500000Y-106000000D03*
%TD*%
%TO.P,TP3,1,1*%
%TO.N,+3.3V*%
X144000000Y-90000000D03*
%TD*%
D11*
%TO.P,J3,1,Pin_1*%
%TO.N,/SWCLK*%
X145246400Y-77435400D03*
D12*
%TO.P,J3,2,Pin_2*%
%TO.N,/SWDIO*%
X145246400Y-78705400D03*
%TO.P,J3,3,Pin_3*%
%TO.N,GND*%
X145246400Y-79975400D03*
%TO.P,J3,4,Pin_4*%
%TO.N,Net-(J3-Pin_4)*%
X145246400Y-81245400D03*
%TO.P,J3,5,Pin_5*%
%TO.N,/boot*%
X145246400Y-82515400D03*
%TO.P,J3,6,Pin_6*%
%TO.N,/rst*%
X145246400Y-83785400D03*
%TD*%
D13*
%TO.P,J9,1*%
%TO.N,Net-(D7-A)*%
X119583600Y-59809000D03*
D14*
%TO.P,J9,2*%
%TO.N,GND*%
X120853600Y-62349000D03*
%TO.P,J9,3*%
%TO.N,/RS-232_1/Tx*%
X122123600Y-59809000D03*
%TO.P,J9,4*%
%TO.N,/RS-232_1/Rx*%
X123393600Y-62349000D03*
%TD*%
D15*
%TO.P,Y1,1,1*%
%TO.N,/OSCIN*%
X111157400Y-97780000D03*
%TO.P,Y1,2,2*%
%TO.N,/OSCOUT*%
X111157400Y-102660000D03*
%TD*%
D16*
%TO.P,Q3,1,Vin*%
%TO.N,/SSI_422_1/5Vloc6*%
X100750800Y-82000000D03*
%TO.P,Q3,2,GND*%
%TO.N,GND*%
X98210800Y-82000000D03*
D17*
%TO.P,Q3,4,0V*%
%TO.N,/SSI_422_1/gndi6*%
X93130800Y-82000000D03*
%TO.P,Q3,6,+Vo*%
%TO.N,/SSI_422_1/5viso6*%
X88050800Y-82000000D03*
%TD*%
D16*
%TO.P,Q2,1,Vin*%
%TO.N,/SSI_422_2/5Vloc6*%
X100679200Y-115058400D03*
%TO.P,Q2,2,GND*%
%TO.N,GND*%
X98139200Y-115058400D03*
D17*
%TO.P,Q2,4,0V*%
%TO.N,/SSI_422_2/gndi6*%
X93059200Y-115058400D03*
%TO.P,Q2,6,+Vo*%
%TO.N,/SSI_422_2/5viso6*%
X87979200Y-115058400D03*
%TD*%
D18*
%TO.P,J8,0,PAD*%
%TO.N,/SSI_422_2/gndi6*%
X78870900Y-119604300D03*
X78870900Y-94604300D03*
D19*
%TO.P,J8,1,1*%
X79170900Y-101564300D03*
D20*
%TO.P,J8,2,2*%
%TO.N,/SSI_422_2/Y422*%
X79170900Y-104334300D03*
%TO.P,J8,3,3*%
%TO.N,/SSI_422_2/Z422*%
X79170900Y-107104300D03*
%TO.P,J8,4,4*%
%TO.N,/SSI_422_2/gndi6*%
X79170900Y-109874300D03*
%TO.P,J8,5,5*%
%TO.N,/SSI_422_2/5viso6*%
X79170900Y-112644300D03*
%TO.P,J8,6,6*%
%TO.N,/SSI_422_2/A422*%
X76330900Y-102949300D03*
%TO.P,J8,7,7*%
%TO.N,/SSI_422_2/B422*%
X76330900Y-105719300D03*
%TO.P,J8,8,8*%
%TO.N,unconnected-(J8-Pad8)*%
X76330900Y-108489300D03*
%TO.P,J8,9,9*%
%TO.N,/SSI_422_2/gndi6*%
X76330900Y-111259300D03*
%TD*%
D21*
%TO.P,J1,1,Pin_1*%
%TO.N,GND*%
X143357600Y-114500000D03*
D22*
%TO.P,J1,2,Pin_2*%
%TO.N,Net-(D2-A)*%
X143357600Y-119500000D03*
%TD*%
D18*
%TO.P,J10,0,PAD*%
%TO.N,/SSI_422_1/gndi6*%
X78942500Y-86545900D03*
X78942500Y-61545900D03*
D19*
%TO.P,J10,1,1*%
X79242500Y-68505900D03*
D20*
%TO.P,J10,2,2*%
%TO.N,/SSI_422_1/Y422*%
X79242500Y-71275900D03*
%TO.P,J10,3,3*%
%TO.N,/SSI_422_1/Z422*%
X79242500Y-74045900D03*
%TO.P,J10,4,4*%
%TO.N,/SSI_422_1/gndi6*%
X79242500Y-76815900D03*
%TO.P,J10,5,5*%
%TO.N,/SSI_422_1/5viso6*%
X79242500Y-79585900D03*
%TO.P,J10,6,6*%
%TO.N,/SSI_422_1/A422*%
X76402500Y-69890900D03*
%TO.P,J10,7,7*%
%TO.N,/SSI_422_1/B422*%
X76402500Y-72660900D03*
%TO.P,J10,8,8*%
%TO.N,unconnected-(J10-Pad8)*%
X76402500Y-75430900D03*
%TO.P,J10,9,9*%
%TO.N,/SSI_422_1/gndi6*%
X76402500Y-78200900D03*
%TD*%
D23*
%TO.P,J2,1,VBUS*%
%TO.N,/VB*%
X140544800Y-102108000D03*
D24*
%TO.P,J2,2,D-*%
%TO.N,Net-(J2-D-)*%
X140544800Y-99608000D03*
%TO.P,J2,3,D+*%
%TO.N,Net-(J2-D+)*%
X142544800Y-99608000D03*
%TO.P,J2,4,GND*%
%TO.N,GND*%
X142544800Y-102108000D03*
D25*
%TO.P,J2,5,Shield*%
X145254800Y-94838000D03*
X145254800Y-106878000D03*
%TD*%
D26*
%TO.N,GND*%
X120540000Y-76098400D03*
X112369600Y-69088000D03*
X121310400Y-72796400D03*
X122834400Y-70967600D03*
X122834400Y-73812400D03*
X114655600Y-58674000D03*
X114604800Y-60909200D03*
X108102400Y-69138800D03*
X110236000Y-69138800D03*
X106832400Y-82854800D03*
X106832400Y-86106000D03*
X103124000Y-98650000D03*
X103174800Y-86055200D03*
X103174800Y-87921200D03*
X132892800Y-109372400D03*
X134874000Y-109372400D03*
X132892800Y-96723200D03*
X134874000Y-96723200D03*
X132943600Y-103174800D03*
X134924800Y-103174800D03*
X139500000Y-104000000D03*
%TO.N,/boot*%
X143357600Y-84937600D03*
%TO.N,GND*%
X103428800Y-113284000D03*
X105308400Y-113233200D03*
X103378000Y-111353600D03*
X105308400Y-111353600D03*
X109067600Y-102311200D03*
X128066800Y-102971600D03*
X118516400Y-78384400D03*
X113741200Y-102997000D03*
X118710606Y-107745046D03*
X117683263Y-106720363D03*
X116535200Y-105816400D03*
X114096800Y-77927200D03*
X126593600Y-94435000D03*
X126440621Y-103008200D03*
D27*
%TO.N,+5V*%
X100750800Y-87080000D03*
X133908800Y-105968800D03*
X133959600Y-92710000D03*
X100679200Y-120138400D03*
X109169600Y-65553800D03*
D26*
%TO.N,+3.3V*%
X121183400Y-100863400D03*
X128981200Y-100888800D03*
%TO.N,/boot*%
X122123200Y-94234000D03*
%TO.N,/rst*%
X112014000Y-104749600D03*
%TO.N,/SSI_422_2/gndi6*%
X81487700Y-106125100D03*
%TO.N,/SSI_422_1/gndi6*%
X81559300Y-73066700D03*
%TO.N,/SSI_422_2/B422*%
X83362700Y-105175100D03*
%TO.N,/SSI_422_2/Y422*%
X83413500Y-101517500D03*
%TO.N,/RS-232_1/Tx*%
X119270000Y-76000000D03*
X126848000Y-69728200D03*
%TO.N,/RS-232_1/Rx*%
X126898800Y-62399800D03*
X118000000Y-76000000D03*
%TO.N,/SSI_422_1/B422*%
X83434300Y-72116700D03*
%TO.N,/SSI_422_1/Y422*%
X83485100Y-68459100D03*
%TO.N,/SWDIO*%
X127508000Y-96113600D03*
%TO.N,/SWCLK*%
X123037600Y-90373200D03*
%TD*%
D28*
%TO.N,GND*%
X112369600Y-69088000D02*
X110286800Y-69088000D01*
X110286800Y-69088000D02*
X110236000Y-69138800D01*
X114655600Y-58674000D02*
X114655600Y-60858400D01*
X114655600Y-60858400D02*
X114604800Y-60909200D01*
X98210800Y-79386000D02*
X98210800Y-82000000D01*
X108102400Y-69138800D02*
X108102400Y-69494400D01*
X108102400Y-69494400D02*
X98210800Y-79386000D01*
X114096800Y-72999600D02*
X110236000Y-69138800D01*
X114096800Y-77927200D02*
X114096800Y-72999600D01*
X114096800Y-77927200D02*
X114096800Y-78841600D01*
X114096800Y-78841600D02*
X106832400Y-86106000D01*
X106832400Y-82854800D02*
X103632000Y-86055200D01*
X103632000Y-86055200D02*
X103174800Y-86055200D01*
X103174800Y-87921200D02*
X103174800Y-98599200D01*
X103174800Y-98599200D02*
X103124000Y-98650000D01*
X98210800Y-82000000D02*
X102266000Y-86055200D01*
X102266000Y-86055200D02*
X103174800Y-86055200D01*
X134874000Y-109372400D02*
X132892800Y-109372400D01*
X139500000Y-104000000D02*
X135750000Y-104000000D01*
X135750000Y-104000000D02*
X134924800Y-103174800D01*
X132943600Y-103174800D02*
X128270000Y-103174800D01*
X128270000Y-103174800D02*
X128066800Y-102971600D01*
X141854881Y-104000000D02*
X139500000Y-104000000D01*
X142544800Y-103310081D02*
X141854881Y-104000000D01*
X142544800Y-102108000D02*
X142544800Y-103310081D01*
%TO.N,/SWDIO*%
X145246400Y-78705400D02*
X146704200Y-80163200D01*
X146704200Y-80163200D02*
X146704200Y-85699600D01*
X146704200Y-85699600D02*
X146202400Y-86201400D01*
X127508000Y-90124820D02*
X127508000Y-96113600D01*
X146202400Y-86201400D02*
X131431420Y-86201400D01*
X131431420Y-86201400D02*
X127508000Y-90124820D01*
%TO.N,GND*%
X116535200Y-102997000D02*
X119278400Y-102997000D01*
X143901600Y-84211600D02*
X131112630Y-84211600D01*
X145719800Y-85369400D02*
X144998600Y-85369400D01*
X124888410Y-90887400D02*
X123065810Y-92710000D01*
X144998600Y-85369400D02*
X144998600Y-85308600D01*
X144998600Y-85308600D02*
X143901600Y-84211600D01*
X131112630Y-84211600D02*
X124888410Y-90435820D01*
X124888410Y-90435820D02*
X124888410Y-90887400D01*
X123065810Y-92710000D02*
X122620480Y-92710000D01*
X122620480Y-92710000D02*
X119278400Y-96052080D01*
X119278400Y-96052080D02*
X119278400Y-102997000D01*
%TO.N,/boot*%
X122123200Y-94234000D02*
X123190000Y-94234000D01*
X123190000Y-94234000D02*
X125984000Y-91440000D01*
X125984000Y-91440000D02*
X125984000Y-90373200D01*
X125984000Y-90373200D02*
X131064000Y-85293200D01*
X131064000Y-85293200D02*
X143002000Y-85293200D01*
X143002000Y-85293200D02*
X143357600Y-84937600D01*
%TO.N,/rst*%
X123037600Y-92100400D02*
X124129800Y-91008200D01*
X124437410Y-90700590D02*
X124437410Y-90249010D01*
X131476020Y-83210400D02*
X131927600Y-83210400D01*
X124129800Y-91008200D02*
X124437410Y-90700590D01*
X124437410Y-90249010D02*
X131476020Y-83210400D01*
X145246400Y-83785400D02*
X144542200Y-83785400D01*
X144542200Y-83785400D02*
X143967200Y-83210400D01*
X143967200Y-83210400D02*
X131927600Y-83210400D01*
%TO.N,GND*%
X145719800Y-85369400D02*
X145338800Y-85750400D01*
%TO.N,/rst*%
X112014000Y-104749600D02*
X112014000Y-104698800D01*
X112014000Y-104698800D02*
X112725200Y-103987600D01*
X112725200Y-103987600D02*
X112725200Y-101904800D01*
X112725200Y-101904800D02*
X122529600Y-92100400D01*
X122529600Y-92100400D02*
X123037600Y-92100400D01*
%TO.N,GND*%
X123277495Y-91222695D02*
X120156105Y-91222695D01*
X120156105Y-91222695D02*
X109067600Y-102311200D01*
X145246400Y-79975400D02*
X146253200Y-80982200D01*
X146253200Y-84836000D02*
X145719800Y-85369400D01*
X146253200Y-80982200D02*
X146253200Y-84836000D01*
X145338800Y-85750400D02*
X131244610Y-85750400D01*
X131244610Y-85750400D02*
X126593600Y-90401410D01*
X126593600Y-90401410D02*
X126593600Y-94435000D01*
X103428800Y-111404400D02*
X103378000Y-111353600D01*
X103428800Y-113284000D02*
X103428800Y-111404400D01*
X105308400Y-113233200D02*
X105308400Y-113639600D01*
X126860400Y-113639600D02*
X129500000Y-111000000D01*
X105308400Y-113639600D02*
X126860400Y-113639600D01*
X118710606Y-107745046D02*
X108916954Y-107745046D01*
X101844000Y-111353600D02*
X98139200Y-115058400D01*
X108916954Y-107745046D02*
X105308400Y-111353600D01*
X103378000Y-111353600D02*
X101844000Y-111353600D01*
X109067600Y-102311200D02*
X109067600Y-102808480D01*
X109067600Y-102808480D02*
X110998000Y-104738880D01*
X128030200Y-103008200D02*
X128066800Y-102971600D01*
X126440621Y-103008200D02*
X128030200Y-103008200D01*
X143157400Y-77886400D02*
X136162210Y-77886400D01*
X110998000Y-104738880D02*
X110998000Y-105359200D01*
X117685923Y-106720363D02*
X118710606Y-107745046D01*
X116535200Y-102997000D02*
X116535200Y-105816400D01*
X123788305Y-90711885D02*
X123277495Y-91222695D01*
X123788305Y-90260305D02*
X123788305Y-90711885D01*
X113741200Y-102997000D02*
X116535200Y-102997000D01*
X116535200Y-105816400D02*
X116779300Y-105816400D01*
X119278400Y-102997000D02*
X126531200Y-102997000D01*
X116779300Y-105816400D02*
X117683263Y-106720363D01*
X136162210Y-77886400D02*
X123788305Y-90260305D01*
X118059200Y-77927200D02*
X118516400Y-78384400D01*
X110998000Y-105359200D02*
X111455200Y-105816400D01*
X117683263Y-106720363D02*
X117685923Y-106720363D01*
X114096800Y-77927200D02*
X118059200Y-77927200D01*
X111455200Y-105816400D02*
X116535200Y-105816400D01*
X145246400Y-79975400D02*
X143157400Y-77886400D01*
D29*
%TO.N,+5V*%
X129531200Y-105968800D02*
X129500000Y-106000000D01*
X109169600Y-82295600D02*
X104394000Y-87071200D01*
X104394000Y-112268000D02*
X104394000Y-116423600D01*
X104394000Y-87071200D02*
X100759600Y-87071200D01*
X133908800Y-105968800D02*
X129531200Y-105968800D01*
X129500000Y-106000000D02*
X123232000Y-112268000D01*
X104394000Y-112268000D02*
X104394000Y-87071200D01*
X109169600Y-65553800D02*
X109169600Y-82295600D01*
X104394000Y-116423600D02*
X100679200Y-120138400D01*
X123232000Y-112268000D02*
X104394000Y-112268000D01*
X100759600Y-87071200D02*
X100750800Y-87080000D01*
X133908800Y-105968800D02*
X133959600Y-92710000D01*
D28*
%TO.N,+3.3V*%
X128981200Y-100888800D02*
X121208800Y-100888800D01*
X121208800Y-100888800D02*
X121183400Y-100863400D01*
%TO.N,/SSI_422_2/gndi6*%
X81487700Y-107557500D02*
X81487700Y-106125100D01*
X79170900Y-109874300D02*
X81487700Y-107557500D01*
%TO.N,/SSI_422_1/gndi6*%
X81559300Y-74499100D02*
X81559300Y-73066700D01*
X79242500Y-76815900D02*
X81559300Y-74499100D01*
%TO.N,/SSI_422_2/B422*%
X76330900Y-105719300D02*
X79952800Y-105719300D01*
X83362700Y-105175100D02*
X80497000Y-105175100D01*
X80497000Y-105175100D02*
X79952800Y-105719300D01*
%TO.N,/SSI_422_2/Y422*%
X80596700Y-104334300D02*
X83413500Y-101517500D01*
X79170900Y-104334300D02*
X80596700Y-104334300D01*
%TO.N,/RS-232_1/Tx*%
X126848000Y-69728200D02*
X125541800Y-69728200D01*
X125541800Y-69728200D02*
X119270000Y-76000000D01*
%TO.N,/RS-232_1/Rx*%
X126898800Y-64127000D02*
X118000000Y-73025800D01*
X118000000Y-73025800D02*
X118000000Y-76000000D01*
X126898800Y-62399800D02*
X126898800Y-64127000D01*
%TO.N,/SSI_422_1/B422*%
X80568600Y-72116700D02*
X80024400Y-72660900D01*
X83434300Y-72116700D02*
X80568600Y-72116700D01*
X76402500Y-72660900D02*
X80024400Y-72660900D01*
%TO.N,/SSI_422_1/Y422*%
X80668300Y-71275900D02*
X83485100Y-68459100D01*
X79242500Y-71275900D02*
X80668300Y-71275900D01*
%TO.N,/SWCLK*%
X123037600Y-90373200D02*
X135975400Y-77435400D01*
X135975400Y-77435400D02*
X145246400Y-77435400D01*
%TD*%
%TA.AperFunction,Conductor*%
%TO.N,/SSI_422_1/gndi6*%
G36*
X89764838Y-58900715D02*
G01*
X89786684Y-58918529D01*
X91167609Y-60334699D01*
X93024593Y-62239078D01*
X93487579Y-62713880D01*
X93520289Y-62775621D01*
X93522800Y-62800450D01*
X93522800Y-80614000D01*
X93503115Y-80681039D01*
X93450311Y-80726794D01*
X93398800Y-80738000D01*
X93380800Y-80738000D01*
X93380800Y-81833011D01*
X93370860Y-81815795D01*
X93315005Y-81759940D01*
X93246596Y-81720444D01*
X93170296Y-81700000D01*
X93091304Y-81700000D01*
X93015004Y-81720444D01*
X92946595Y-81759940D01*
X92890740Y-81815795D01*
X92851244Y-81884204D01*
X92830800Y-81960504D01*
X92830800Y-82039496D01*
X92851244Y-82115796D01*
X92890740Y-82184205D01*
X92946595Y-82240060D01*
X93015004Y-82279556D01*
X93091304Y-82300000D01*
X93170296Y-82300000D01*
X93246596Y-82279556D01*
X93315005Y-82240060D01*
X93370860Y-82184205D01*
X93380800Y-82166988D01*
X93380800Y-83261999D01*
X93398800Y-83261999D01*
X93465839Y-83281684D01*
X93511594Y-83334488D01*
X93522800Y-83385999D01*
X93522800Y-85197399D01*
X93503115Y-85264438D01*
X93484980Y-85286556D01*
X89786047Y-88861957D01*
X89724164Y-88894396D01*
X89699867Y-88896800D01*
X80330443Y-88896800D01*
X80263404Y-88877115D01*
X80217649Y-88824311D01*
X80207705Y-88755153D01*
X80236730Y-88691597D01*
X80264471Y-88667806D01*
X80391456Y-88588016D01*
X80524757Y-88481710D01*
X79883198Y-87840151D01*
X79984830Y-87766312D01*
X80162912Y-87588230D01*
X80236751Y-87486598D01*
X80878310Y-88128157D01*
X80984616Y-87994856D01*
X81134007Y-87757100D01*
X81255837Y-87504117D01*
X81348577Y-87239080D01*
X81348578Y-87239078D01*
X81411060Y-86965324D01*
X81411062Y-86965312D01*
X81442499Y-86686301D01*
X81442500Y-86686299D01*
X81442500Y-86405500D01*
X81442499Y-86405498D01*
X81411062Y-86126487D01*
X81411060Y-86126475D01*
X81348578Y-85852721D01*
X81348577Y-85852719D01*
X81255837Y-85587682D01*
X81134007Y-85334699D01*
X80984615Y-85096943D01*
X80878310Y-84963641D01*
X80236751Y-85605200D01*
X80162912Y-85503570D01*
X79984830Y-85325488D01*
X79883197Y-85251647D01*
X80524757Y-84610087D01*
X80391456Y-84503784D01*
X80153700Y-84354392D01*
X79900717Y-84232562D01*
X79635680Y-84139822D01*
X79635678Y-84139821D01*
X79361924Y-84077339D01*
X79361912Y-84077337D01*
X79082901Y-84045900D01*
X78802098Y-84045900D01*
X78523087Y-84077337D01*
X78523075Y-84077339D01*
X78249321Y-84139821D01*
X78249319Y-84139822D01*
X77984282Y-84232562D01*
X77731299Y-84354392D01*
X77493543Y-84503784D01*
X77360241Y-84610087D01*
X78001801Y-85251647D01*
X77900170Y-85325488D01*
X77722088Y-85503570D01*
X77648247Y-85605201D01*
X77006687Y-84963641D01*
X76900384Y-85096943D01*
X76750992Y-85334699D01*
X76629162Y-85587682D01*
X76536422Y-85852719D01*
X76536421Y-85852721D01*
X76473939Y-86126475D01*
X76473937Y-86126487D01*
X76442500Y-86405498D01*
X76442500Y-86686301D01*
X76473937Y-86965312D01*
X76473939Y-86965324D01*
X76536421Y-87239078D01*
X76536422Y-87239080D01*
X76629162Y-87504117D01*
X76750992Y-87757100D01*
X76900384Y-87994856D01*
X77006687Y-88128157D01*
X77648247Y-87486597D01*
X77722088Y-87588230D01*
X77900170Y-87766312D01*
X78001800Y-87840151D01*
X77360241Y-88481710D01*
X77360241Y-88481711D01*
X77493543Y-88588015D01*
X77620529Y-88667806D01*
X77666820Y-88720141D01*
X77677468Y-88789194D01*
X77649093Y-88853042D01*
X77590704Y-88891415D01*
X77554557Y-88896800D01*
X74422800Y-88896800D01*
X74355761Y-88877115D01*
X74310006Y-88824311D01*
X74298800Y-88772800D01*
X74298800Y-81580876D01*
X86707300Y-81580876D01*
X86707300Y-82419123D01*
X86722267Y-82532801D01*
X86722267Y-82532802D01*
X86780860Y-82674258D01*
X86780861Y-82674259D01*
X86874069Y-82795731D01*
X86995541Y-82888939D01*
X87136998Y-82947533D01*
X87250684Y-82962500D01*
X87250691Y-82962500D01*
X88850909Y-82962500D01*
X88850916Y-82962500D01*
X88964602Y-82947533D01*
X89106059Y-82888939D01*
X89227531Y-82795731D01*
X89320739Y-82674259D01*
X89379333Y-82532802D01*
X89389232Y-82457609D01*
X91487801Y-82457609D01*
X91490717Y-82500632D01*
X91490717Y-82500634D01*
X91536965Y-82686602D01*
X91622107Y-82858275D01*
X91742165Y-83007633D01*
X91742166Y-83007634D01*
X91891525Y-83127692D01*
X91891524Y-83127692D01*
X92063197Y-83212834D01*
X92249161Y-83259081D01*
X92249157Y-83259081D01*
X92292195Y-83261999D01*
X92880799Y-83261999D01*
X92880800Y-83261998D01*
X92880800Y-82250000D01*
X91487801Y-82250000D01*
X91487801Y-82457609D01*
X89389232Y-82457609D01*
X89394300Y-82419116D01*
X89394300Y-81580884D01*
X89389233Y-81542395D01*
X91487800Y-81542395D01*
X91487800Y-81750000D01*
X92880800Y-81750000D01*
X92880800Y-80738000D01*
X92292194Y-80738000D01*
X92292190Y-80738001D01*
X92249167Y-80740917D01*
X92249165Y-80740917D01*
X92063197Y-80787165D01*
X91891524Y-80872307D01*
X91742166Y-80992365D01*
X91742165Y-80992366D01*
X91622107Y-81141724D01*
X91536965Y-81313397D01*
X91490718Y-81499359D01*
X91487800Y-81542395D01*
X89389233Y-81542395D01*
X89379333Y-81467198D01*
X89320739Y-81325741D01*
X89227531Y-81204269D01*
X89106059Y-81111061D01*
X89106058Y-81111060D01*
X89023195Y-81076737D01*
X88964602Y-81052467D01*
X88950391Y-81050596D01*
X88850923Y-81037500D01*
X88850916Y-81037500D01*
X87250684Y-81037500D01*
X87250676Y-81037500D01*
X87136998Y-81052467D01*
X87136997Y-81052467D01*
X86995541Y-81111060D01*
X86874069Y-81204269D01*
X86780860Y-81325741D01*
X86722267Y-81467197D01*
X86722267Y-81467198D01*
X86707300Y-81580876D01*
X74298800Y-81580876D01*
X74298800Y-79684443D01*
X78241999Y-79684443D01*
X78280447Y-79877729D01*
X78280450Y-79877739D01*
X78355864Y-80059807D01*
X78355871Y-80059820D01*
X78465360Y-80223681D01*
X78465363Y-80223685D01*
X78604714Y-80363036D01*
X78604718Y-80363039D01*
X78768579Y-80472528D01*
X78768592Y-80472535D01*
X78950660Y-80547949D01*
X78950665Y-80547951D01*
X78950669Y-80547951D01*
X78950670Y-80547952D01*
X79143956Y-80586400D01*
X79143959Y-80586400D01*
X79341043Y-80586400D01*
X79471082Y-80560532D01*
X79534335Y-80547951D01*
X79716414Y-80472532D01*
X79880282Y-80363039D01*
X80019639Y-80223682D01*
X80129132Y-80059814D01*
X80204551Y-79877735D01*
X80243000Y-79684441D01*
X80243000Y-79487359D01*
X80243000Y-79487356D01*
X80204552Y-79294070D01*
X80204551Y-79294069D01*
X80204551Y-79294065D01*
X80198880Y-79280374D01*
X80129135Y-79111992D01*
X80129128Y-79111979D01*
X80019639Y-78948118D01*
X80019636Y-78948114D01*
X79880285Y-78808763D01*
X79880281Y-78808760D01*
X79716420Y-78699271D01*
X79716407Y-78699264D01*
X79534339Y-78623850D01*
X79534329Y-78623847D01*
X79341043Y-78585400D01*
X79341041Y-78585400D01*
X79143959Y-78585400D01*
X79143957Y-78585400D01*
X78950670Y-78623847D01*
X78950660Y-78623850D01*
X78768592Y-78699264D01*
X78768579Y-78699271D01*
X78604718Y-78808760D01*
X78604714Y-78808763D01*
X78465363Y-78948114D01*
X78465360Y-78948118D01*
X78355871Y-79111979D01*
X78355864Y-79111992D01*
X78280450Y-79294060D01*
X78280447Y-79294070D01*
X78242000Y-79487356D01*
X78242000Y-79487359D01*
X78242000Y-79684441D01*
X78242000Y-79684443D01*
X78241999Y-79684443D01*
X74298800Y-79684443D01*
X74298800Y-78098582D01*
X75102500Y-78098582D01*
X75102500Y-78303217D01*
X75134509Y-78505317D01*
X75197744Y-78699931D01*
X75290641Y-78882250D01*
X75290647Y-78882259D01*
X75323023Y-78926821D01*
X75323024Y-78926822D01*
X75919537Y-78330308D01*
X75936575Y-78393893D01*
X76002401Y-78507907D01*
X76095493Y-78600999D01*
X76209507Y-78666825D01*
X76273090Y-78683862D01*
X75676576Y-79280374D01*
X75721150Y-79312759D01*
X75903468Y-79405655D01*
X76098082Y-79468890D01*
X76300183Y-79500900D01*
X76504817Y-79500900D01*
X76706917Y-79468890D01*
X76901534Y-79405654D01*
X76969972Y-79370783D01*
X76969974Y-79370782D01*
X77083849Y-79312759D01*
X77128421Y-79280374D01*
X76531909Y-78683862D01*
X76595493Y-78666825D01*
X76709507Y-78600999D01*
X76802599Y-78507907D01*
X76868425Y-78393893D01*
X76885462Y-78330309D01*
X77481974Y-78926821D01*
X77514359Y-78882249D01*
X77607255Y-78699931D01*
X77670490Y-78505317D01*
X77702500Y-78303217D01*
X77702500Y-78098582D01*
X77670490Y-77896484D01*
X77667225Y-77886435D01*
X77667224Y-77886433D01*
X77607255Y-77701868D01*
X77514359Y-77519550D01*
X77481974Y-77474977D01*
X77481974Y-77474976D01*
X76885462Y-78071489D01*
X76868425Y-78007907D01*
X76802599Y-77893893D01*
X76709507Y-77800801D01*
X76595493Y-77734975D01*
X76531908Y-77717937D01*
X77128422Y-77121424D01*
X77128421Y-77121423D01*
X77083859Y-77089047D01*
X77083850Y-77089041D01*
X76901531Y-76996144D01*
X76706917Y-76932909D01*
X76504817Y-76900900D01*
X76300183Y-76900900D01*
X76098082Y-76932909D01*
X75903468Y-76996144D01*
X75721144Y-77089043D01*
X75676577Y-77121423D01*
X75676577Y-77121424D01*
X76273091Y-77717937D01*
X76209507Y-77734975D01*
X76095493Y-77800801D01*
X76002401Y-77893893D01*
X75936575Y-78007907D01*
X75919537Y-78071490D01*
X75323024Y-77474977D01*
X75323023Y-77474977D01*
X75290643Y-77519544D01*
X75197744Y-77701868D01*
X75134509Y-77896482D01*
X75102500Y-78098582D01*
X74298800Y-78098582D01*
X74298800Y-76713582D01*
X77942500Y-76713582D01*
X77942500Y-76918217D01*
X77974509Y-77120317D01*
X78037744Y-77314931D01*
X78130641Y-77497250D01*
X78130647Y-77497259D01*
X78163023Y-77541821D01*
X78163024Y-77541822D01*
X78759537Y-76945309D01*
X78776575Y-77008893D01*
X78842401Y-77122907D01*
X78935493Y-77215999D01*
X79049507Y-77281825D01*
X79113090Y-77298862D01*
X78516576Y-77895374D01*
X78561150Y-77927759D01*
X78743468Y-78020655D01*
X78938082Y-78083890D01*
X79140183Y-78115900D01*
X79344817Y-78115900D01*
X79546917Y-78083890D01*
X79741531Y-78020655D01*
X79923849Y-77927759D01*
X79968421Y-77895374D01*
X79371909Y-77298862D01*
X79435493Y-77281825D01*
X79549507Y-77215999D01*
X79642599Y-77122907D01*
X79708425Y-77008893D01*
X79725462Y-76945309D01*
X80321974Y-77541821D01*
X80354359Y-77497249D01*
X80447255Y-77314931D01*
X80510490Y-77120317D01*
X80542500Y-76918217D01*
X80542500Y-76713582D01*
X80510490Y-76511482D01*
X80447255Y-76316868D01*
X80354359Y-76134550D01*
X80321974Y-76089977D01*
X80321974Y-76089976D01*
X79725462Y-76686489D01*
X79708425Y-76622907D01*
X79642599Y-76508893D01*
X79549507Y-76415801D01*
X79435493Y-76349975D01*
X79371908Y-76332937D01*
X79968422Y-75736424D01*
X79968421Y-75736423D01*
X79923859Y-75704047D01*
X79923850Y-75704041D01*
X79741531Y-75611144D01*
X79546917Y-75547909D01*
X79344817Y-75515900D01*
X79140183Y-75515900D01*
X78938082Y-75547909D01*
X78743468Y-75611144D01*
X78561144Y-75704043D01*
X78516577Y-75736423D01*
X78516577Y-75736424D01*
X79113091Y-76332937D01*
X79049507Y-76349975D01*
X78935493Y-76415801D01*
X78842401Y-76508893D01*
X78776575Y-76622907D01*
X78759537Y-76686490D01*
X78163024Y-76089977D01*
X78163023Y-76089977D01*
X78130643Y-76134544D01*
X78037744Y-76316868D01*
X77974509Y-76511482D01*
X77942500Y-76713582D01*
X74298800Y-76713582D01*
X74298800Y-75529443D01*
X75401999Y-75529443D01*
X75440447Y-75722729D01*
X75440450Y-75722739D01*
X75515864Y-75904807D01*
X75515871Y-75904820D01*
X75625360Y-76068681D01*
X75625363Y-76068685D01*
X75764714Y-76208036D01*
X75764718Y-76208039D01*
X75928579Y-76317528D01*
X75928592Y-76317535D01*
X76110660Y-76392949D01*
X76110665Y-76392951D01*
X76110669Y-76392951D01*
X76110670Y-76392952D01*
X76303956Y-76431400D01*
X76303959Y-76431400D01*
X76501043Y-76431400D01*
X76631082Y-76405532D01*
X76694335Y-76392951D01*
X76876414Y-76317532D01*
X77040282Y-76208039D01*
X77179639Y-76068682D01*
X77289132Y-75904814D01*
X77364551Y-75722735D01*
X77386748Y-75611144D01*
X77403000Y-75529443D01*
X77403000Y-75332356D01*
X77364552Y-75139070D01*
X77364551Y-75139069D01*
X77364551Y-75139065D01*
X77310243Y-75007952D01*
X77289135Y-74956992D01*
X77289128Y-74956979D01*
X77179639Y-74793118D01*
X77179636Y-74793114D01*
X77040285Y-74653763D01*
X77040281Y-74653760D01*
X76876420Y-74544271D01*
X76876407Y-74544264D01*
X76694339Y-74468850D01*
X76694329Y-74468847D01*
X76501043Y-74430400D01*
X76501041Y-74430400D01*
X76303959Y-74430400D01*
X76303957Y-74430400D01*
X76110670Y-74468847D01*
X76110660Y-74468850D01*
X75928592Y-74544264D01*
X75928579Y-74544271D01*
X75764718Y-74653760D01*
X75764714Y-74653763D01*
X75625363Y-74793114D01*
X75625360Y-74793118D01*
X75515871Y-74956979D01*
X75515864Y-74956992D01*
X75440450Y-75139060D01*
X75440447Y-75139070D01*
X75402000Y-75332356D01*
X75402000Y-75332359D01*
X75402000Y-75529441D01*
X75402000Y-75529443D01*
X75401999Y-75529443D01*
X74298800Y-75529443D01*
X74298800Y-72759443D01*
X75401999Y-72759443D01*
X75440447Y-72952729D01*
X75440450Y-72952739D01*
X75515864Y-73134807D01*
X75515871Y-73134820D01*
X75625360Y-73298681D01*
X75625363Y-73298685D01*
X75764714Y-73438036D01*
X75764718Y-73438039D01*
X75928579Y-73547528D01*
X75928592Y-73547535D01*
X76110660Y-73622949D01*
X76110665Y-73622951D01*
X76110669Y-73622951D01*
X76110670Y-73622952D01*
X76303956Y-73661400D01*
X76303959Y-73661400D01*
X76501043Y-73661400D01*
X76631082Y-73635532D01*
X76694335Y-73622951D01*
X76876414Y-73547532D01*
X77040282Y-73438039D01*
X77179639Y-73298682D01*
X77289132Y-73134814D01*
X77307461Y-73090565D01*
X77318900Y-73062948D01*
X77362740Y-73008544D01*
X77429034Y-72986479D01*
X77433461Y-72986400D01*
X78618527Y-72986400D01*
X78685566Y-73006085D01*
X78731321Y-73058889D01*
X78741265Y-73128047D01*
X78712240Y-73191603D01*
X78687418Y-73213502D01*
X78604718Y-73268760D01*
X78604714Y-73268763D01*
X78465363Y-73408114D01*
X78465360Y-73408118D01*
X78355871Y-73571979D01*
X78355864Y-73571992D01*
X78280450Y-73754060D01*
X78280447Y-73754070D01*
X78242000Y-73947356D01*
X78242000Y-73947359D01*
X78242000Y-74144441D01*
X78242000Y-74144443D01*
X78241999Y-74144443D01*
X78280447Y-74337729D01*
X78280450Y-74337739D01*
X78355864Y-74519807D01*
X78355871Y-74519820D01*
X78465360Y-74683681D01*
X78465363Y-74683685D01*
X78604714Y-74823036D01*
X78604718Y-74823039D01*
X78768579Y-74932528D01*
X78768592Y-74932535D01*
X78950660Y-75007949D01*
X78950665Y-75007951D01*
X78950669Y-75007951D01*
X78950670Y-75007952D01*
X79143956Y-75046400D01*
X79143959Y-75046400D01*
X79341043Y-75046400D01*
X79471082Y-75020532D01*
X79534335Y-75007951D01*
X79716414Y-74932532D01*
X79880282Y-74823039D01*
X80019639Y-74683682D01*
X80129132Y-74519814D01*
X80204551Y-74337735D01*
X80243000Y-74144441D01*
X80243000Y-73947359D01*
X80243000Y-73947356D01*
X80204552Y-73754070D01*
X80204551Y-73754069D01*
X80204551Y-73754065D01*
X80150243Y-73622952D01*
X80129135Y-73571992D01*
X80129128Y-73571979D01*
X80019639Y-73408118D01*
X80019636Y-73408114D01*
X79880285Y-73268763D01*
X79880281Y-73268760D01*
X79797582Y-73213502D01*
X79752777Y-73159890D01*
X79744070Y-73090565D01*
X79774225Y-73027537D01*
X79833668Y-72990818D01*
X79866473Y-72986400D01*
X80067251Y-72986400D01*
X80067253Y-72986400D01*
X80150039Y-72964218D01*
X80224262Y-72921365D01*
X80667108Y-72478519D01*
X80728431Y-72445034D01*
X80754789Y-72442200D01*
X82859470Y-72442200D01*
X82926509Y-72461885D01*
X82946979Y-72480722D01*
X82948033Y-72479669D01*
X82953780Y-72485416D01*
X83065584Y-72597220D01*
X83065586Y-72597221D01*
X83065590Y-72597224D01*
X83202509Y-72676273D01*
X83202516Y-72676277D01*
X83355243Y-72717200D01*
X83355245Y-72717200D01*
X83513355Y-72717200D01*
X83513357Y-72717200D01*
X83666084Y-72676277D01*
X83803016Y-72597220D01*
X83914820Y-72485416D01*
X83993877Y-72348484D01*
X84034800Y-72195757D01*
X84034800Y-72037643D01*
X83993877Y-71884916D01*
X83977318Y-71856235D01*
X83914824Y-71747990D01*
X83914818Y-71747982D01*
X83803017Y-71636181D01*
X83803009Y-71636175D01*
X83666090Y-71557126D01*
X83666086Y-71557124D01*
X83666084Y-71557123D01*
X83513357Y-71516200D01*
X83355243Y-71516200D01*
X83202516Y-71557123D01*
X83202509Y-71557126D01*
X83065590Y-71636175D01*
X83065582Y-71636181D01*
X82948033Y-71753731D01*
X82945787Y-71751485D01*
X82901445Y-71783879D01*
X82859470Y-71791200D01*
X80889550Y-71791200D01*
X80822511Y-71771515D01*
X80776756Y-71718711D01*
X80766812Y-71649553D01*
X80795837Y-71585997D01*
X80827549Y-71559814D01*
X80846287Y-71548994D01*
X80868162Y-71536365D01*
X83308797Y-69095727D01*
X83370118Y-69062244D01*
X83397915Y-69061090D01*
X83397915Y-69059600D01*
X83564155Y-69059600D01*
X83564157Y-69059600D01*
X83716884Y-69018677D01*
X83853816Y-68939620D01*
X83965620Y-68827816D01*
X84044677Y-68690884D01*
X84085600Y-68538157D01*
X84085600Y-68380043D01*
X84044677Y-68227316D01*
X83974521Y-68105801D01*
X83965624Y-68090390D01*
X83965618Y-68090382D01*
X83853817Y-67978581D01*
X83853809Y-67978575D01*
X83716890Y-67899526D01*
X83716886Y-67899524D01*
X83716884Y-67899523D01*
X83564157Y-67858600D01*
X83406043Y-67858600D01*
X83253316Y-67899523D01*
X83253309Y-67899526D01*
X83116390Y-67978575D01*
X83116382Y-67978581D01*
X83004581Y-68090382D01*
X83004575Y-68090390D01*
X82925526Y-68227309D01*
X82925523Y-68227316D01*
X82884600Y-68380043D01*
X82884600Y-68546284D01*
X82881431Y-68546284D01*
X82872956Y-68600585D01*
X82848470Y-68635402D01*
X80569792Y-70914081D01*
X80542864Y-70928784D01*
X80517046Y-70945377D01*
X80510845Y-70946268D01*
X80508469Y-70947566D01*
X80482111Y-70950400D01*
X80273461Y-70950400D01*
X80206422Y-70930715D01*
X80160667Y-70877911D01*
X80158900Y-70873852D01*
X80129135Y-70801992D01*
X80129128Y-70801979D01*
X80019639Y-70638118D01*
X80019636Y-70638114D01*
X79880285Y-70498763D01*
X79880281Y-70498760D01*
X79716420Y-70389271D01*
X79716407Y-70389264D01*
X79534339Y-70313850D01*
X79534329Y-70313847D01*
X79341043Y-70275400D01*
X79341041Y-70275400D01*
X79143959Y-70275400D01*
X79143957Y-70275400D01*
X78950670Y-70313847D01*
X78950660Y-70313850D01*
X78768592Y-70389264D01*
X78768579Y-70389271D01*
X78604718Y-70498760D01*
X78604714Y-70498763D01*
X78465363Y-70638114D01*
X78465360Y-70638118D01*
X78355871Y-70801979D01*
X78355864Y-70801992D01*
X78280450Y-70984060D01*
X78280447Y-70984070D01*
X78242000Y-71177356D01*
X78242000Y-71177359D01*
X78242000Y-71374441D01*
X78242000Y-71374443D01*
X78241999Y-71374443D01*
X78280447Y-71567729D01*
X78280450Y-71567739D01*
X78355864Y-71749807D01*
X78355871Y-71749820D01*
X78465360Y-71913681D01*
X78465363Y-71913685D01*
X78604714Y-72053036D01*
X78604718Y-72053039D01*
X78687418Y-72108298D01*
X78732223Y-72161910D01*
X78740930Y-72231235D01*
X78710775Y-72294263D01*
X78651332Y-72330982D01*
X78618527Y-72335400D01*
X77433461Y-72335400D01*
X77366422Y-72315715D01*
X77320667Y-72262911D01*
X77318900Y-72258852D01*
X77289135Y-72186992D01*
X77289128Y-72186979D01*
X77179639Y-72023118D01*
X77179636Y-72023114D01*
X77040285Y-71883763D01*
X77040281Y-71883760D01*
X76876420Y-71774271D01*
X76876407Y-71774264D01*
X76694339Y-71698850D01*
X76694329Y-71698847D01*
X76501043Y-71660400D01*
X76501041Y-71660400D01*
X76303959Y-71660400D01*
X76303957Y-71660400D01*
X76110670Y-71698847D01*
X76110660Y-71698850D01*
X75928592Y-71774264D01*
X75928579Y-71774271D01*
X75764718Y-71883760D01*
X75764714Y-71883763D01*
X75625363Y-72023114D01*
X75625360Y-72023118D01*
X75515871Y-72186979D01*
X75515864Y-72186992D01*
X75440450Y-72369060D01*
X75440447Y-72369070D01*
X75402000Y-72562356D01*
X75402000Y-72562359D01*
X75402000Y-72759441D01*
X75402000Y-72759443D01*
X75401999Y-72759443D01*
X74298800Y-72759443D01*
X74298800Y-69989443D01*
X75401999Y-69989443D01*
X75440447Y-70182729D01*
X75440450Y-70182739D01*
X75515864Y-70364807D01*
X75515871Y-70364820D01*
X75625360Y-70528681D01*
X75625363Y-70528685D01*
X75764714Y-70668036D01*
X75764718Y-70668039D01*
X75928579Y-70777528D01*
X75928592Y-70777535D01*
X76110660Y-70852949D01*
X76110665Y-70852951D01*
X76110669Y-70852951D01*
X76110670Y-70852952D01*
X76303956Y-70891400D01*
X76303959Y-70891400D01*
X76501043Y-70891400D01*
X76631082Y-70865532D01*
X76694335Y-70852951D01*
X76876414Y-70777532D01*
X77040282Y-70668039D01*
X77179639Y-70528682D01*
X77289132Y-70364814D01*
X77364551Y-70182735D01*
X77403000Y-69989441D01*
X77403000Y-69792359D01*
X77403000Y-69792356D01*
X77364552Y-69599070D01*
X77364551Y-69599069D01*
X77364551Y-69599065D01*
X77364549Y-69599060D01*
X77289135Y-69416992D01*
X77289128Y-69416979D01*
X77179639Y-69253118D01*
X77179636Y-69253114D01*
X77040285Y-69113763D01*
X77040281Y-69113760D01*
X76876420Y-69004271D01*
X76876407Y-69004264D01*
X76694339Y-68928850D01*
X76694329Y-68928847D01*
X76501043Y-68890400D01*
X76501041Y-68890400D01*
X76303959Y-68890400D01*
X76303957Y-68890400D01*
X76110670Y-68928847D01*
X76110660Y-68928850D01*
X75928592Y-69004264D01*
X75928579Y-69004271D01*
X75764718Y-69113760D01*
X75764714Y-69113763D01*
X75625363Y-69253114D01*
X75625360Y-69253118D01*
X75515871Y-69416979D01*
X75515864Y-69416992D01*
X75440450Y-69599060D01*
X75440447Y-69599070D01*
X75402000Y-69792356D01*
X75402000Y-69792359D01*
X75402000Y-69989441D01*
X75402000Y-69989443D01*
X75401999Y-69989443D01*
X74298800Y-69989443D01*
X74298800Y-67658055D01*
X77942500Y-67658055D01*
X77942500Y-68255900D01*
X78809488Y-68255900D01*
X78776575Y-68312907D01*
X78742500Y-68440074D01*
X78742500Y-68571726D01*
X78776575Y-68698893D01*
X78809488Y-68755900D01*
X77942500Y-68755900D01*
X77942500Y-69353744D01*
X77948901Y-69413272D01*
X77948903Y-69413279D01*
X77999145Y-69547986D01*
X77999149Y-69547993D01*
X78085309Y-69663087D01*
X78085312Y-69663090D01*
X78200406Y-69749250D01*
X78200413Y-69749254D01*
X78335120Y-69799496D01*
X78335127Y-69799498D01*
X78394655Y-69805899D01*
X78394672Y-69805900D01*
X78992500Y-69805900D01*
X78992500Y-68938912D01*
X79049507Y-68971825D01*
X79176674Y-69005900D01*
X79308326Y-69005900D01*
X79435493Y-68971825D01*
X79492500Y-68938912D01*
X79492500Y-69805900D01*
X80090328Y-69805900D01*
X80090344Y-69805899D01*
X80149872Y-69799498D01*
X80149879Y-69799496D01*
X80284586Y-69749254D01*
X80284593Y-69749250D01*
X80399687Y-69663090D01*
X80399690Y-69663087D01*
X80485850Y-69547993D01*
X80485854Y-69547986D01*
X80536096Y-69413279D01*
X80536098Y-69413272D01*
X80542499Y-69353744D01*
X80542500Y-69353727D01*
X80542500Y-68755900D01*
X79675512Y-68755900D01*
X79708425Y-68698893D01*
X79742500Y-68571726D01*
X79742500Y-68440074D01*
X79708425Y-68312907D01*
X79675512Y-68255900D01*
X80542500Y-68255900D01*
X80542500Y-67658072D01*
X80542499Y-67658055D01*
X80536098Y-67598527D01*
X80536096Y-67598520D01*
X80485854Y-67463813D01*
X80485850Y-67463806D01*
X80399690Y-67348712D01*
X80399687Y-67348709D01*
X80284593Y-67262549D01*
X80284586Y-67262545D01*
X80149879Y-67212303D01*
X80149872Y-67212301D01*
X80090344Y-67205900D01*
X79492500Y-67205900D01*
X79492500Y-68072888D01*
X79435493Y-68039975D01*
X79308326Y-68005900D01*
X79176674Y-68005900D01*
X79049507Y-68039975D01*
X78992500Y-68072888D01*
X78992500Y-67205900D01*
X78394655Y-67205900D01*
X78335127Y-67212301D01*
X78335120Y-67212303D01*
X78200413Y-67262545D01*
X78200406Y-67262549D01*
X78085312Y-67348709D01*
X78085309Y-67348712D01*
X77999149Y-67463806D01*
X77999145Y-67463813D01*
X77948903Y-67598520D01*
X77948901Y-67598527D01*
X77942500Y-67658055D01*
X74298800Y-67658055D01*
X74298800Y-59020673D01*
X74318485Y-58953634D01*
X74371289Y-58907879D01*
X74422670Y-58896673D01*
X78230979Y-58892790D01*
X78298036Y-58912406D01*
X78343845Y-58965164D01*
X78353859Y-59034312D01*
X78324899Y-59097897D01*
X78266159Y-59135731D01*
X78258705Y-59137679D01*
X78249325Y-59139820D01*
X78249319Y-59139822D01*
X77984282Y-59232562D01*
X77731299Y-59354392D01*
X77493543Y-59503784D01*
X77360241Y-59610087D01*
X78001801Y-60251647D01*
X77900170Y-60325488D01*
X77722088Y-60503570D01*
X77648247Y-60605201D01*
X77006687Y-59963641D01*
X76900384Y-60096943D01*
X76750992Y-60334699D01*
X76629162Y-60587682D01*
X76536422Y-60852719D01*
X76536421Y-60852721D01*
X76473939Y-61126475D01*
X76473937Y-61126487D01*
X76442500Y-61405498D01*
X76442500Y-61686301D01*
X76473937Y-61965312D01*
X76473939Y-61965324D01*
X76536421Y-62239078D01*
X76536422Y-62239080D01*
X76629162Y-62504117D01*
X76750992Y-62757100D01*
X76900384Y-62994856D01*
X77006687Y-63128157D01*
X77648247Y-62486597D01*
X77722088Y-62588230D01*
X77900170Y-62766312D01*
X78001800Y-62840151D01*
X77360241Y-63481710D01*
X77360241Y-63481711D01*
X77493543Y-63588015D01*
X77731299Y-63737407D01*
X77984282Y-63859237D01*
X78249319Y-63951977D01*
X78249321Y-63951978D01*
X78523075Y-64014460D01*
X78523087Y-64014462D01*
X78802098Y-64045899D01*
X78802100Y-64045900D01*
X79082900Y-64045900D01*
X79082901Y-64045899D01*
X79361912Y-64014462D01*
X79361924Y-64014460D01*
X79635678Y-63951978D01*
X79635680Y-63951977D01*
X79900717Y-63859237D01*
X80153700Y-63737407D01*
X80391456Y-63588016D01*
X80524757Y-63481710D01*
X79883198Y-62840151D01*
X79984830Y-62766312D01*
X80162912Y-62588230D01*
X80236751Y-62486598D01*
X80878310Y-63128157D01*
X80984616Y-62994856D01*
X81134007Y-62757100D01*
X81255837Y-62504117D01*
X81348577Y-62239080D01*
X81348578Y-62239078D01*
X81411060Y-61965324D01*
X81411062Y-61965312D01*
X81442499Y-61686301D01*
X81442500Y-61686299D01*
X81442500Y-61405500D01*
X81442499Y-61405498D01*
X81411062Y-61126487D01*
X81411060Y-61126475D01*
X81348578Y-60852721D01*
X81348577Y-60852719D01*
X81255837Y-60587682D01*
X81134007Y-60334699D01*
X80984615Y-60096943D01*
X80878310Y-59963641D01*
X80236751Y-60605200D01*
X80162912Y-60503570D01*
X79984830Y-60325488D01*
X79883197Y-60251647D01*
X80524757Y-59610087D01*
X80391456Y-59503784D01*
X80153700Y-59354392D01*
X79900717Y-59232562D01*
X79635680Y-59139822D01*
X79635667Y-59139818D01*
X79619973Y-59136236D01*
X79558995Y-59102126D01*
X79526139Y-59040464D01*
X79531835Y-58970827D01*
X79574276Y-58915324D01*
X79639987Y-58891578D01*
X79647422Y-58891346D01*
X89697780Y-58881099D01*
X89764838Y-58900715D01*
G37*
%TD.AperFunction*%
%TD*%
%TA.AperFunction,Conductor*%
%TO.N,/SSI_422_2/gndi6*%
G36*
X89765372Y-91969087D02*
G01*
X89786373Y-91986068D01*
X93493168Y-95720150D01*
X93526428Y-95781595D01*
X93529166Y-95807675D01*
X93505320Y-113672566D01*
X93485546Y-113739579D01*
X93432681Y-113785263D01*
X93381320Y-113796400D01*
X93309200Y-113796400D01*
X93309200Y-114891411D01*
X93299260Y-114874195D01*
X93243405Y-114818340D01*
X93174996Y-114778844D01*
X93098696Y-114758400D01*
X93019704Y-114758400D01*
X92943404Y-114778844D01*
X92874995Y-114818340D01*
X92819140Y-114874195D01*
X92779644Y-114942604D01*
X92759200Y-115018904D01*
X92759200Y-115097896D01*
X92779644Y-115174196D01*
X92819140Y-115242605D01*
X92874995Y-115298460D01*
X92943404Y-115337956D01*
X93019704Y-115358400D01*
X93098696Y-115358400D01*
X93174996Y-115337956D01*
X93243405Y-115298460D01*
X93299260Y-115242605D01*
X93309200Y-115225388D01*
X93309200Y-116320399D01*
X93377620Y-116320399D01*
X93444659Y-116340084D01*
X93490414Y-116392888D01*
X93501620Y-116444565D01*
X93500062Y-117611761D01*
X93480288Y-117678774D01*
X93469218Y-117693437D01*
X89786815Y-121884900D01*
X89727779Y-121922271D01*
X89693885Y-121927058D01*
X80276586Y-121944192D01*
X80209510Y-121924629D01*
X80163660Y-121871909D01*
X80153590Y-121802768D01*
X80182499Y-121739160D01*
X80210389Y-121715198D01*
X80319853Y-121646418D01*
X80453157Y-121540110D01*
X79811598Y-120898551D01*
X79913230Y-120824712D01*
X80091312Y-120646630D01*
X80165151Y-120544998D01*
X80806710Y-121186557D01*
X80913016Y-121053256D01*
X81062407Y-120815500D01*
X81184237Y-120562517D01*
X81276977Y-120297480D01*
X81276978Y-120297478D01*
X81339460Y-120023724D01*
X81339462Y-120023712D01*
X81370899Y-119744701D01*
X81370900Y-119744699D01*
X81370900Y-119463900D01*
X81370899Y-119463898D01*
X81339462Y-119184887D01*
X81339460Y-119184875D01*
X81276978Y-118911121D01*
X81276977Y-118911119D01*
X81184237Y-118646082D01*
X81062407Y-118393099D01*
X80913015Y-118155343D01*
X80806710Y-118022041D01*
X80165151Y-118663600D01*
X80091312Y-118561970D01*
X79913230Y-118383888D01*
X79811597Y-118310047D01*
X80453157Y-117668487D01*
X80319856Y-117562184D01*
X80082100Y-117412792D01*
X79829117Y-117290962D01*
X79564080Y-117198222D01*
X79564078Y-117198221D01*
X79290324Y-117135739D01*
X79290312Y-117135737D01*
X79011301Y-117104300D01*
X78730498Y-117104300D01*
X78451487Y-117135737D01*
X78451475Y-117135739D01*
X78177721Y-117198221D01*
X78177719Y-117198222D01*
X77912682Y-117290962D01*
X77659699Y-117412792D01*
X77421943Y-117562184D01*
X77288641Y-117668487D01*
X77930201Y-118310047D01*
X77828570Y-118383888D01*
X77650488Y-118561970D01*
X77576647Y-118663601D01*
X76935087Y-118022041D01*
X76828784Y-118155343D01*
X76679392Y-118393099D01*
X76557562Y-118646082D01*
X76464822Y-118911119D01*
X76464821Y-118911121D01*
X76402339Y-119184875D01*
X76402337Y-119184887D01*
X76370900Y-119463898D01*
X76370900Y-119744701D01*
X76402337Y-120023712D01*
X76402339Y-120023724D01*
X76464821Y-120297478D01*
X76464822Y-120297480D01*
X76557562Y-120562517D01*
X76679392Y-120815500D01*
X76828784Y-121053256D01*
X76935087Y-121186557D01*
X77576647Y-120544997D01*
X77650488Y-120646630D01*
X77828570Y-120824712D01*
X77930200Y-120898551D01*
X77288641Y-121540110D01*
X77288641Y-121540111D01*
X77421943Y-121646415D01*
X77539526Y-121720298D01*
X77585817Y-121772633D01*
X77596465Y-121841686D01*
X77568090Y-121905535D01*
X77509701Y-121943907D01*
X77473780Y-121949292D01*
X74351426Y-121954973D01*
X74284350Y-121935410D01*
X74238500Y-121882690D01*
X74227200Y-121830973D01*
X74227200Y-114639276D01*
X86635700Y-114639276D01*
X86635700Y-115477523D01*
X86650667Y-115591201D01*
X86650667Y-115591202D01*
X86709260Y-115732658D01*
X86709261Y-115732659D01*
X86802469Y-115854131D01*
X86923941Y-115947339D01*
X87065398Y-116005933D01*
X87179084Y-116020900D01*
X87179091Y-116020900D01*
X88779309Y-116020900D01*
X88779316Y-116020900D01*
X88893002Y-116005933D01*
X89034459Y-115947339D01*
X89155931Y-115854131D01*
X89249139Y-115732659D01*
X89307733Y-115591202D01*
X89317632Y-115516009D01*
X91416201Y-115516009D01*
X91419117Y-115559032D01*
X91419117Y-115559034D01*
X91465365Y-115745002D01*
X91550507Y-115916675D01*
X91670565Y-116066033D01*
X91670566Y-116066034D01*
X91819925Y-116186092D01*
X91819924Y-116186092D01*
X91991597Y-116271234D01*
X92177561Y-116317481D01*
X92177557Y-116317481D01*
X92220595Y-116320399D01*
X92809199Y-116320399D01*
X92809200Y-116320398D01*
X92809200Y-115308400D01*
X91416201Y-115308400D01*
X91416201Y-115516009D01*
X89317632Y-115516009D01*
X89322700Y-115477516D01*
X89322700Y-114639284D01*
X89317633Y-114600795D01*
X91416200Y-114600795D01*
X91416200Y-114808400D01*
X92809200Y-114808400D01*
X92809200Y-113796400D01*
X92220594Y-113796400D01*
X92220590Y-113796401D01*
X92177567Y-113799317D01*
X92177565Y-113799317D01*
X91991597Y-113845565D01*
X91819924Y-113930707D01*
X91670566Y-114050765D01*
X91670565Y-114050766D01*
X91550507Y-114200124D01*
X91465365Y-114371797D01*
X91419118Y-114557759D01*
X91416200Y-114600795D01*
X89317633Y-114600795D01*
X89307733Y-114525598D01*
X89249139Y-114384141D01*
X89155931Y-114262669D01*
X89034459Y-114169461D01*
X89034458Y-114169460D01*
X88951595Y-114135137D01*
X88893002Y-114110867D01*
X88878791Y-114108996D01*
X88779323Y-114095900D01*
X88779316Y-114095900D01*
X87179084Y-114095900D01*
X87179076Y-114095900D01*
X87065398Y-114110867D01*
X87065397Y-114110867D01*
X86923941Y-114169460D01*
X86802469Y-114262669D01*
X86709260Y-114384141D01*
X86650667Y-114525597D01*
X86650667Y-114525598D01*
X86635700Y-114639276D01*
X74227200Y-114639276D01*
X74227200Y-112742843D01*
X78170399Y-112742843D01*
X78208847Y-112936129D01*
X78208850Y-112936139D01*
X78284264Y-113118207D01*
X78284271Y-113118220D01*
X78393760Y-113282081D01*
X78393763Y-113282085D01*
X78533114Y-113421436D01*
X78533118Y-113421439D01*
X78696979Y-113530928D01*
X78696992Y-113530935D01*
X78879060Y-113606349D01*
X78879065Y-113606351D01*
X78879069Y-113606351D01*
X78879070Y-113606352D01*
X79072356Y-113644800D01*
X79072359Y-113644800D01*
X79269443Y-113644800D01*
X79399482Y-113618932D01*
X79462735Y-113606351D01*
X79644814Y-113530932D01*
X79808682Y-113421439D01*
X79948039Y-113282082D01*
X80057532Y-113118214D01*
X80132951Y-112936135D01*
X80171400Y-112742841D01*
X80171400Y-112545759D01*
X80171400Y-112545756D01*
X80132952Y-112352470D01*
X80132951Y-112352469D01*
X80132951Y-112352465D01*
X80127280Y-112338774D01*
X80057535Y-112170392D01*
X80057528Y-112170379D01*
X79948039Y-112006518D01*
X79948036Y-112006514D01*
X79808685Y-111867163D01*
X79808681Y-111867160D01*
X79644820Y-111757671D01*
X79644807Y-111757664D01*
X79462739Y-111682250D01*
X79462729Y-111682247D01*
X79269443Y-111643800D01*
X79269441Y-111643800D01*
X79072359Y-111643800D01*
X79072357Y-111643800D01*
X78879070Y-111682247D01*
X78879060Y-111682250D01*
X78696992Y-111757664D01*
X78696979Y-111757671D01*
X78533118Y-111867160D01*
X78533114Y-111867163D01*
X78393763Y-112006514D01*
X78393760Y-112006518D01*
X78284271Y-112170379D01*
X78284264Y-112170392D01*
X78208850Y-112352460D01*
X78208847Y-112352470D01*
X78170400Y-112545756D01*
X78170400Y-112545759D01*
X78170400Y-112742841D01*
X78170400Y-112742843D01*
X78170399Y-112742843D01*
X74227200Y-112742843D01*
X74227200Y-111156982D01*
X75030900Y-111156982D01*
X75030900Y-111361617D01*
X75062909Y-111563717D01*
X75126144Y-111758331D01*
X75219041Y-111940650D01*
X75219047Y-111940659D01*
X75251423Y-111985221D01*
X75251424Y-111985222D01*
X75847937Y-111388708D01*
X75864975Y-111452293D01*
X75930801Y-111566307D01*
X76023893Y-111659399D01*
X76137907Y-111725225D01*
X76201490Y-111742262D01*
X75604976Y-112338774D01*
X75649550Y-112371159D01*
X75831868Y-112464055D01*
X76026482Y-112527290D01*
X76228583Y-112559300D01*
X76433217Y-112559300D01*
X76635317Y-112527290D01*
X76829934Y-112464054D01*
X76898372Y-112429183D01*
X76898374Y-112429182D01*
X77012249Y-112371159D01*
X77056821Y-112338774D01*
X76460309Y-111742262D01*
X76523893Y-111725225D01*
X76637907Y-111659399D01*
X76730999Y-111566307D01*
X76796825Y-111452293D01*
X76813862Y-111388709D01*
X77410374Y-111985221D01*
X77442759Y-111940649D01*
X77535655Y-111758331D01*
X77598890Y-111563717D01*
X77630900Y-111361617D01*
X77630900Y-111156982D01*
X77598890Y-110954884D01*
X77595625Y-110944835D01*
X77595624Y-110944833D01*
X77535655Y-110760268D01*
X77442759Y-110577950D01*
X77410374Y-110533377D01*
X77410374Y-110533376D01*
X76813862Y-111129889D01*
X76796825Y-111066307D01*
X76730999Y-110952293D01*
X76637907Y-110859201D01*
X76523893Y-110793375D01*
X76460308Y-110776337D01*
X77056822Y-110179824D01*
X77056821Y-110179823D01*
X77012259Y-110147447D01*
X77012250Y-110147441D01*
X76829931Y-110054544D01*
X76635317Y-109991309D01*
X76433217Y-109959300D01*
X76228583Y-109959300D01*
X76026482Y-109991309D01*
X75831868Y-110054544D01*
X75649544Y-110147443D01*
X75604977Y-110179823D01*
X75604977Y-110179824D01*
X76201491Y-110776337D01*
X76137907Y-110793375D01*
X76023893Y-110859201D01*
X75930801Y-110952293D01*
X75864975Y-111066307D01*
X75847937Y-111129890D01*
X75251424Y-110533377D01*
X75251423Y-110533377D01*
X75219043Y-110577944D01*
X75126144Y-110760268D01*
X75062909Y-110954882D01*
X75030900Y-111156982D01*
X74227200Y-111156982D01*
X74227200Y-109771982D01*
X77870900Y-109771982D01*
X77870900Y-109976617D01*
X77902909Y-110178717D01*
X77966144Y-110373331D01*
X78059041Y-110555650D01*
X78059047Y-110555659D01*
X78091423Y-110600221D01*
X78091424Y-110600222D01*
X78687937Y-110003709D01*
X78704975Y-110067293D01*
X78770801Y-110181307D01*
X78863893Y-110274399D01*
X78977907Y-110340225D01*
X79041490Y-110357262D01*
X78444976Y-110953774D01*
X78489550Y-110986159D01*
X78671868Y-111079055D01*
X78866482Y-111142290D01*
X79068583Y-111174300D01*
X79273217Y-111174300D01*
X79475317Y-111142290D01*
X79669931Y-111079055D01*
X79852249Y-110986159D01*
X79896821Y-110953774D01*
X79300309Y-110357262D01*
X79363893Y-110340225D01*
X79477907Y-110274399D01*
X79570999Y-110181307D01*
X79636825Y-110067293D01*
X79653862Y-110003709D01*
X80250374Y-110600221D01*
X80282759Y-110555649D01*
X80375655Y-110373331D01*
X80438890Y-110178717D01*
X80470900Y-109976617D01*
X80470900Y-109771982D01*
X80438890Y-109569882D01*
X80375655Y-109375268D01*
X80282759Y-109192950D01*
X80250374Y-109148377D01*
X80250374Y-109148376D01*
X79653862Y-109744889D01*
X79636825Y-109681307D01*
X79570999Y-109567293D01*
X79477907Y-109474201D01*
X79363893Y-109408375D01*
X79300308Y-109391337D01*
X79896822Y-108794824D01*
X79896821Y-108794823D01*
X79852259Y-108762447D01*
X79852250Y-108762441D01*
X79669931Y-108669544D01*
X79475317Y-108606309D01*
X79273217Y-108574300D01*
X79068583Y-108574300D01*
X78866482Y-108606309D01*
X78671868Y-108669544D01*
X78489544Y-108762443D01*
X78444977Y-108794823D01*
X78444977Y-108794824D01*
X79041491Y-109391337D01*
X78977907Y-109408375D01*
X78863893Y-109474201D01*
X78770801Y-109567293D01*
X78704975Y-109681307D01*
X78687937Y-109744890D01*
X78091424Y-109148377D01*
X78091423Y-109148377D01*
X78059043Y-109192944D01*
X77966144Y-109375268D01*
X77902909Y-109569882D01*
X77870900Y-109771982D01*
X74227200Y-109771982D01*
X74227200Y-108587843D01*
X75330399Y-108587843D01*
X75368847Y-108781129D01*
X75368850Y-108781139D01*
X75444264Y-108963207D01*
X75444271Y-108963220D01*
X75553760Y-109127081D01*
X75553763Y-109127085D01*
X75693114Y-109266436D01*
X75693118Y-109266439D01*
X75856979Y-109375928D01*
X75856992Y-109375935D01*
X76039060Y-109451349D01*
X76039065Y-109451351D01*
X76039069Y-109451351D01*
X76039070Y-109451352D01*
X76232356Y-109489800D01*
X76232359Y-109489800D01*
X76429443Y-109489800D01*
X76559482Y-109463932D01*
X76622735Y-109451351D01*
X76804814Y-109375932D01*
X76968682Y-109266439D01*
X77108039Y-109127082D01*
X77217532Y-108963214D01*
X77292951Y-108781135D01*
X77315148Y-108669544D01*
X77331400Y-108587843D01*
X77331400Y-108390756D01*
X77292952Y-108197470D01*
X77292951Y-108197469D01*
X77292951Y-108197465D01*
X77238643Y-108066352D01*
X77217535Y-108015392D01*
X77217528Y-108015379D01*
X77108039Y-107851518D01*
X77108036Y-107851514D01*
X76968685Y-107712163D01*
X76968681Y-107712160D01*
X76804820Y-107602671D01*
X76804807Y-107602664D01*
X76622739Y-107527250D01*
X76622729Y-107527247D01*
X76429443Y-107488800D01*
X76429441Y-107488800D01*
X76232359Y-107488800D01*
X76232357Y-107488800D01*
X76039070Y-107527247D01*
X76039060Y-107527250D01*
X75856992Y-107602664D01*
X75856979Y-107602671D01*
X75693118Y-107712160D01*
X75693114Y-107712163D01*
X75553763Y-107851514D01*
X75553760Y-107851518D01*
X75444271Y-108015379D01*
X75444264Y-108015392D01*
X75368850Y-108197460D01*
X75368847Y-108197470D01*
X75330400Y-108390756D01*
X75330400Y-108390759D01*
X75330400Y-108587841D01*
X75330400Y-108587843D01*
X75330399Y-108587843D01*
X74227200Y-108587843D01*
X74227200Y-105817843D01*
X75330399Y-105817843D01*
X75368847Y-106011129D01*
X75368850Y-106011139D01*
X75444264Y-106193207D01*
X75444271Y-106193220D01*
X75553760Y-106357081D01*
X75553763Y-106357085D01*
X75693114Y-106496436D01*
X75693118Y-106496439D01*
X75856979Y-106605928D01*
X75856992Y-106605935D01*
X76039060Y-106681349D01*
X76039065Y-106681351D01*
X76039069Y-106681351D01*
X76039070Y-106681352D01*
X76232356Y-106719800D01*
X76232359Y-106719800D01*
X76429443Y-106719800D01*
X76559482Y-106693932D01*
X76622735Y-106681351D01*
X76804814Y-106605932D01*
X76968682Y-106496439D01*
X77108039Y-106357082D01*
X77217532Y-106193214D01*
X77235861Y-106148965D01*
X77247300Y-106121348D01*
X77291140Y-106066944D01*
X77357434Y-106044879D01*
X77361861Y-106044800D01*
X78546927Y-106044800D01*
X78613966Y-106064485D01*
X78659721Y-106117289D01*
X78669665Y-106186447D01*
X78640640Y-106250003D01*
X78615818Y-106271902D01*
X78533118Y-106327160D01*
X78533114Y-106327163D01*
X78393763Y-106466514D01*
X78393760Y-106466518D01*
X78284271Y-106630379D01*
X78284264Y-106630392D01*
X78208850Y-106812460D01*
X78208847Y-106812470D01*
X78170400Y-107005756D01*
X78170400Y-107005759D01*
X78170400Y-107202841D01*
X78170400Y-107202843D01*
X78170399Y-107202843D01*
X78208847Y-107396129D01*
X78208850Y-107396139D01*
X78284264Y-107578207D01*
X78284271Y-107578220D01*
X78393760Y-107742081D01*
X78393763Y-107742085D01*
X78533114Y-107881436D01*
X78533118Y-107881439D01*
X78696979Y-107990928D01*
X78696992Y-107990935D01*
X78879060Y-108066349D01*
X78879065Y-108066351D01*
X78879069Y-108066351D01*
X78879070Y-108066352D01*
X79072356Y-108104800D01*
X79072359Y-108104800D01*
X79269443Y-108104800D01*
X79399482Y-108078932D01*
X79462735Y-108066351D01*
X79644814Y-107990932D01*
X79808682Y-107881439D01*
X79948039Y-107742082D01*
X80057532Y-107578214D01*
X80132951Y-107396135D01*
X80171400Y-107202841D01*
X80171400Y-107005759D01*
X80171400Y-107005756D01*
X80132952Y-106812470D01*
X80132951Y-106812469D01*
X80132951Y-106812465D01*
X80078643Y-106681352D01*
X80057535Y-106630392D01*
X80057528Y-106630379D01*
X79948039Y-106466518D01*
X79948036Y-106466514D01*
X79808685Y-106327163D01*
X79808681Y-106327160D01*
X79725982Y-106271902D01*
X79681177Y-106218290D01*
X79672470Y-106148965D01*
X79702625Y-106085937D01*
X79762068Y-106049218D01*
X79794873Y-106044800D01*
X79995651Y-106044800D01*
X79995653Y-106044800D01*
X80078439Y-106022618D01*
X80152662Y-105979765D01*
X80595508Y-105536919D01*
X80656831Y-105503434D01*
X80683189Y-105500600D01*
X82787870Y-105500600D01*
X82854909Y-105520285D01*
X82875379Y-105539122D01*
X82876433Y-105538069D01*
X82882180Y-105543816D01*
X82993984Y-105655620D01*
X82993986Y-105655621D01*
X82993990Y-105655624D01*
X83130909Y-105734673D01*
X83130916Y-105734677D01*
X83283643Y-105775600D01*
X83283645Y-105775600D01*
X83441755Y-105775600D01*
X83441757Y-105775600D01*
X83594484Y-105734677D01*
X83731416Y-105655620D01*
X83843220Y-105543816D01*
X83922277Y-105406884D01*
X83963200Y-105254157D01*
X83963200Y-105096043D01*
X83922277Y-104943316D01*
X83905718Y-104914635D01*
X83843224Y-104806390D01*
X83843218Y-104806382D01*
X83731417Y-104694581D01*
X83731409Y-104694575D01*
X83594490Y-104615526D01*
X83594486Y-104615524D01*
X83594484Y-104615523D01*
X83441757Y-104574600D01*
X83283643Y-104574600D01*
X83130916Y-104615523D01*
X83130909Y-104615526D01*
X82993990Y-104694575D01*
X82993982Y-104694581D01*
X82876433Y-104812131D01*
X82874187Y-104809885D01*
X82829845Y-104842279D01*
X82787870Y-104849600D01*
X80817950Y-104849600D01*
X80750911Y-104829915D01*
X80705156Y-104777111D01*
X80695212Y-104707953D01*
X80724237Y-104644397D01*
X80755949Y-104618214D01*
X80774687Y-104607394D01*
X80796562Y-104594765D01*
X83237197Y-102154127D01*
X83298518Y-102120644D01*
X83326315Y-102119490D01*
X83326315Y-102118000D01*
X83492555Y-102118000D01*
X83492557Y-102118000D01*
X83645284Y-102077077D01*
X83782216Y-101998020D01*
X83894020Y-101886216D01*
X83973077Y-101749284D01*
X84014000Y-101596557D01*
X84014000Y-101438443D01*
X83973077Y-101285716D01*
X83902921Y-101164201D01*
X83894024Y-101148790D01*
X83894018Y-101148782D01*
X83782217Y-101036981D01*
X83782209Y-101036975D01*
X83645290Y-100957926D01*
X83645286Y-100957924D01*
X83645284Y-100957923D01*
X83492557Y-100917000D01*
X83334443Y-100917000D01*
X83181716Y-100957923D01*
X83181709Y-100957926D01*
X83044790Y-101036975D01*
X83044782Y-101036981D01*
X82932981Y-101148782D01*
X82932975Y-101148790D01*
X82853926Y-101285709D01*
X82853923Y-101285716D01*
X82813000Y-101438443D01*
X82813000Y-101604684D01*
X82809831Y-101604684D01*
X82801356Y-101658985D01*
X82776870Y-101693802D01*
X80498192Y-103972481D01*
X80471264Y-103987184D01*
X80445446Y-104003777D01*
X80439245Y-104004668D01*
X80436869Y-104005966D01*
X80410511Y-104008800D01*
X80201861Y-104008800D01*
X80134822Y-103989115D01*
X80089067Y-103936311D01*
X80087300Y-103932252D01*
X80057535Y-103860392D01*
X80057528Y-103860379D01*
X79948039Y-103696518D01*
X79948036Y-103696514D01*
X79808685Y-103557163D01*
X79808681Y-103557160D01*
X79644820Y-103447671D01*
X79644807Y-103447664D01*
X79462739Y-103372250D01*
X79462729Y-103372247D01*
X79269443Y-103333800D01*
X79269441Y-103333800D01*
X79072359Y-103333800D01*
X79072357Y-103333800D01*
X78879070Y-103372247D01*
X78879060Y-103372250D01*
X78696992Y-103447664D01*
X78696979Y-103447671D01*
X78533118Y-103557160D01*
X78533114Y-103557163D01*
X78393763Y-103696514D01*
X78393760Y-103696518D01*
X78284271Y-103860379D01*
X78284264Y-103860392D01*
X78208850Y-104042460D01*
X78208847Y-104042470D01*
X78170400Y-104235756D01*
X78170400Y-104235759D01*
X78170400Y-104432841D01*
X78170400Y-104432843D01*
X78170399Y-104432843D01*
X78208847Y-104626129D01*
X78208850Y-104626139D01*
X78284264Y-104808207D01*
X78284271Y-104808220D01*
X78393760Y-104972081D01*
X78393763Y-104972085D01*
X78533114Y-105111436D01*
X78533118Y-105111439D01*
X78615818Y-105166698D01*
X78660623Y-105220310D01*
X78669330Y-105289635D01*
X78639175Y-105352663D01*
X78579732Y-105389382D01*
X78546927Y-105393800D01*
X77361861Y-105393800D01*
X77294822Y-105374115D01*
X77249067Y-105321311D01*
X77247300Y-105317252D01*
X77217535Y-105245392D01*
X77217528Y-105245379D01*
X77108039Y-105081518D01*
X77108036Y-105081514D01*
X76968685Y-104942163D01*
X76968681Y-104942160D01*
X76804820Y-104832671D01*
X76804807Y-104832664D01*
X76622739Y-104757250D01*
X76622729Y-104757247D01*
X76429443Y-104718800D01*
X76429441Y-104718800D01*
X76232359Y-104718800D01*
X76232357Y-104718800D01*
X76039070Y-104757247D01*
X76039060Y-104757250D01*
X75856992Y-104832664D01*
X75856979Y-104832671D01*
X75693118Y-104942160D01*
X75693114Y-104942163D01*
X75553763Y-105081514D01*
X75553760Y-105081518D01*
X75444271Y-105245379D01*
X75444264Y-105245392D01*
X75368850Y-105427460D01*
X75368847Y-105427470D01*
X75330400Y-105620756D01*
X75330400Y-105620759D01*
X75330400Y-105817841D01*
X75330400Y-105817843D01*
X75330399Y-105817843D01*
X74227200Y-105817843D01*
X74227200Y-103047843D01*
X75330399Y-103047843D01*
X75368847Y-103241129D01*
X75368850Y-103241139D01*
X75444264Y-103423207D01*
X75444271Y-103423220D01*
X75553760Y-103587081D01*
X75553763Y-103587085D01*
X75693114Y-103726436D01*
X75693118Y-103726439D01*
X75856979Y-103835928D01*
X75856992Y-103835935D01*
X76039060Y-103911349D01*
X76039065Y-103911351D01*
X76039069Y-103911351D01*
X76039070Y-103911352D01*
X76232356Y-103949800D01*
X76232359Y-103949800D01*
X76429443Y-103949800D01*
X76559482Y-103923932D01*
X76622735Y-103911351D01*
X76804814Y-103835932D01*
X76968682Y-103726439D01*
X77108039Y-103587082D01*
X77217532Y-103423214D01*
X77292951Y-103241135D01*
X77331400Y-103047841D01*
X77331400Y-102850759D01*
X77331400Y-102850756D01*
X77292952Y-102657470D01*
X77292951Y-102657469D01*
X77292951Y-102657465D01*
X77292949Y-102657460D01*
X77217535Y-102475392D01*
X77217528Y-102475379D01*
X77108039Y-102311518D01*
X77108036Y-102311514D01*
X76968685Y-102172163D01*
X76968681Y-102172160D01*
X76804820Y-102062671D01*
X76804807Y-102062664D01*
X76622739Y-101987250D01*
X76622729Y-101987247D01*
X76429443Y-101948800D01*
X76429441Y-101948800D01*
X76232359Y-101948800D01*
X76232357Y-101948800D01*
X76039070Y-101987247D01*
X76039060Y-101987250D01*
X75856992Y-102062664D01*
X75856979Y-102062671D01*
X75693118Y-102172160D01*
X75693114Y-102172163D01*
X75553763Y-102311514D01*
X75553760Y-102311518D01*
X75444271Y-102475379D01*
X75444264Y-102475392D01*
X75368850Y-102657460D01*
X75368847Y-102657470D01*
X75330400Y-102850756D01*
X75330400Y-102850759D01*
X75330400Y-103047841D01*
X75330400Y-103047843D01*
X75330399Y-103047843D01*
X74227200Y-103047843D01*
X74227200Y-100716455D01*
X77870900Y-100716455D01*
X77870900Y-101314300D01*
X78737888Y-101314300D01*
X78704975Y-101371307D01*
X78670900Y-101498474D01*
X78670900Y-101630126D01*
X78704975Y-101757293D01*
X78737888Y-101814300D01*
X77870900Y-101814300D01*
X77870900Y-102412144D01*
X77877301Y-102471672D01*
X77877303Y-102471679D01*
X77927545Y-102606386D01*
X77927549Y-102606393D01*
X78013709Y-102721487D01*
X78013712Y-102721490D01*
X78128806Y-102807650D01*
X78128813Y-102807654D01*
X78263520Y-102857896D01*
X78263527Y-102857898D01*
X78323055Y-102864299D01*
X78323072Y-102864300D01*
X78920900Y-102864300D01*
X78920900Y-101997312D01*
X78977907Y-102030225D01*
X79105074Y-102064300D01*
X79236726Y-102064300D01*
X79363893Y-102030225D01*
X79420900Y-101997312D01*
X79420900Y-102864300D01*
X80018728Y-102864300D01*
X80018744Y-102864299D01*
X80078272Y-102857898D01*
X80078279Y-102857896D01*
X80212986Y-102807654D01*
X80212993Y-102807650D01*
X80328087Y-102721490D01*
X80328090Y-102721487D01*
X80414250Y-102606393D01*
X80414254Y-102606386D01*
X80464496Y-102471679D01*
X80464498Y-102471672D01*
X80470899Y-102412144D01*
X80470900Y-102412127D01*
X80470900Y-101814300D01*
X79603912Y-101814300D01*
X79636825Y-101757293D01*
X79670900Y-101630126D01*
X79670900Y-101498474D01*
X79636825Y-101371307D01*
X79603912Y-101314300D01*
X80470900Y-101314300D01*
X80470900Y-100716472D01*
X80470899Y-100716455D01*
X80464498Y-100656927D01*
X80464496Y-100656920D01*
X80414254Y-100522213D01*
X80414250Y-100522206D01*
X80328090Y-100407112D01*
X80328087Y-100407109D01*
X80212993Y-100320949D01*
X80212986Y-100320945D01*
X80078279Y-100270703D01*
X80078272Y-100270701D01*
X80018744Y-100264300D01*
X79420900Y-100264300D01*
X79420900Y-101131288D01*
X79363893Y-101098375D01*
X79236726Y-101064300D01*
X79105074Y-101064300D01*
X78977907Y-101098375D01*
X78920900Y-101131288D01*
X78920900Y-100264300D01*
X78323055Y-100264300D01*
X78263527Y-100270701D01*
X78263520Y-100270703D01*
X78128813Y-100320945D01*
X78128806Y-100320949D01*
X78013712Y-100407109D01*
X78013709Y-100407112D01*
X77927549Y-100522206D01*
X77927545Y-100522213D01*
X77877303Y-100656920D01*
X77877301Y-100656927D01*
X77870900Y-100716455D01*
X74227200Y-100716455D01*
X74227200Y-92079153D01*
X74246885Y-92012114D01*
X74299689Y-91966359D01*
X74351150Y-91955153D01*
X78148305Y-91953736D01*
X78215349Y-91973396D01*
X78261123Y-92026182D01*
X78271092Y-92095337D01*
X78242091Y-92158904D01*
X78183327Y-92196700D01*
X78179852Y-92197607D01*
X78177719Y-92198222D01*
X77912682Y-92290962D01*
X77659699Y-92412792D01*
X77421943Y-92562184D01*
X77288641Y-92668487D01*
X77930201Y-93310047D01*
X77828570Y-93383888D01*
X77650488Y-93561970D01*
X77576647Y-93663601D01*
X76935087Y-93022041D01*
X76828784Y-93155343D01*
X76679392Y-93393099D01*
X76557562Y-93646082D01*
X76464822Y-93911119D01*
X76464821Y-93911121D01*
X76402339Y-94184875D01*
X76402337Y-94184887D01*
X76370900Y-94463898D01*
X76370900Y-94744701D01*
X76402337Y-95023712D01*
X76402339Y-95023724D01*
X76464821Y-95297478D01*
X76464822Y-95297480D01*
X76557562Y-95562517D01*
X76679392Y-95815500D01*
X76828784Y-96053256D01*
X76935087Y-96186557D01*
X77576647Y-95544997D01*
X77650488Y-95646630D01*
X77828570Y-95824712D01*
X77930200Y-95898551D01*
X77288641Y-96540110D01*
X77288641Y-96540111D01*
X77421943Y-96646415D01*
X77659699Y-96795807D01*
X77912682Y-96917637D01*
X78177719Y-97010377D01*
X78177721Y-97010378D01*
X78451475Y-97072860D01*
X78451487Y-97072862D01*
X78730498Y-97104299D01*
X78730500Y-97104300D01*
X79011300Y-97104300D01*
X79011301Y-97104299D01*
X79290312Y-97072862D01*
X79290324Y-97072860D01*
X79564078Y-97010378D01*
X79564080Y-97010377D01*
X79829117Y-96917637D01*
X80082100Y-96795807D01*
X80319856Y-96646416D01*
X80453157Y-96540110D01*
X79811598Y-95898551D01*
X79913230Y-95824712D01*
X80091312Y-95646630D01*
X80165151Y-95544998D01*
X80806710Y-96186557D01*
X80913016Y-96053256D01*
X81062407Y-95815500D01*
X81184237Y-95562517D01*
X81276977Y-95297480D01*
X81276978Y-95297478D01*
X81339460Y-95023724D01*
X81339462Y-95023712D01*
X81370899Y-94744701D01*
X81370900Y-94744699D01*
X81370900Y-94463900D01*
X81370899Y-94463898D01*
X81339462Y-94184887D01*
X81339460Y-94184875D01*
X81276978Y-93911121D01*
X81276977Y-93911119D01*
X81184237Y-93646082D01*
X81062407Y-93393099D01*
X80913015Y-93155343D01*
X80806710Y-93022041D01*
X80165151Y-93663600D01*
X80091312Y-93561970D01*
X79913230Y-93383888D01*
X79811597Y-93310047D01*
X80453157Y-92668487D01*
X80319856Y-92562184D01*
X80082100Y-92412792D01*
X79829117Y-92290962D01*
X79564080Y-92198222D01*
X79564067Y-92198218D01*
X79563487Y-92198086D01*
X79563359Y-92198014D01*
X79560740Y-92197260D01*
X79560916Y-92196647D01*
X79502512Y-92163972D01*
X79469661Y-92102307D01*
X79475363Y-92032670D01*
X79517808Y-91977171D01*
X79583520Y-91953429D01*
X79591026Y-91953198D01*
X89698325Y-91949427D01*
X89765372Y-91969087D01*
G37*
%TD.AperFunction*%
%TD*%
%TA.AperFunction,Conductor*%
%TO.N,GND*%
G36*
X139943039Y-51019685D02*
G01*
X139988794Y-51072489D01*
X140000000Y-51124000D01*
X140000000Y-58000000D01*
X146876000Y-58000000D01*
X146943039Y-58019685D01*
X146988794Y-58072489D01*
X147000000Y-58124000D01*
X147000000Y-79699312D01*
X146980315Y-79766351D01*
X146927511Y-79812106D01*
X146858353Y-79822050D01*
X146794797Y-79793025D01*
X146788319Y-79786993D01*
X145965365Y-78964039D01*
X145931880Y-78902716D01*
X145931429Y-78852170D01*
X145946900Y-78774393D01*
X145946900Y-78636407D01*
X145946900Y-78636404D01*
X145919981Y-78501077D01*
X145919980Y-78501076D01*
X145919980Y-78501072D01*
X145919978Y-78501067D01*
X145867178Y-78373595D01*
X145867171Y-78373582D01*
X145807762Y-78284671D01*
X145786884Y-78217994D01*
X145805368Y-78150614D01*
X145841972Y-78112679D01*
X145890952Y-78079952D01*
X145935267Y-78013631D01*
X145935267Y-78013629D01*
X145935268Y-78013629D01*
X145946899Y-77955152D01*
X145946900Y-77955150D01*
X145946900Y-76915649D01*
X145946899Y-76915647D01*
X145935268Y-76857170D01*
X145935267Y-76857169D01*
X145890952Y-76790847D01*
X145824630Y-76746532D01*
X145824629Y-76746531D01*
X145766152Y-76734900D01*
X145766148Y-76734900D01*
X144726652Y-76734900D01*
X144726647Y-76734900D01*
X144668170Y-76746531D01*
X144668169Y-76746532D01*
X144601847Y-76790847D01*
X144557532Y-76857169D01*
X144557531Y-76857170D01*
X144545900Y-76915647D01*
X144545900Y-76985900D01*
X144526215Y-77052939D01*
X144473411Y-77098694D01*
X144421900Y-77109900D01*
X135932547Y-77109900D01*
X135849759Y-77132082D01*
X135775538Y-77174935D01*
X135775535Y-77174937D01*
X123213901Y-89736570D01*
X123152578Y-89770055D01*
X123124784Y-89771214D01*
X123124784Y-89772700D01*
X122958543Y-89772700D01*
X122805816Y-89813623D01*
X122805809Y-89813626D01*
X122668890Y-89892675D01*
X122668882Y-89892681D01*
X122557081Y-90004482D01*
X122557075Y-90004490D01*
X122478026Y-90141409D01*
X122478023Y-90141416D01*
X122437100Y-90294143D01*
X122437100Y-90452257D01*
X122477246Y-90602082D01*
X122478023Y-90604983D01*
X122478026Y-90604990D01*
X122557075Y-90741909D01*
X122557079Y-90741914D01*
X122557080Y-90741916D01*
X122668884Y-90853720D01*
X122668886Y-90853721D01*
X122668890Y-90853724D01*
X122749825Y-90900451D01*
X122805816Y-90932777D01*
X122958543Y-90973700D01*
X122958545Y-90973700D01*
X123116655Y-90973700D01*
X123116657Y-90973700D01*
X123269384Y-90932777D01*
X123406316Y-90853720D01*
X123518120Y-90741916D01*
X123597177Y-90604984D01*
X123638100Y-90452257D01*
X123638100Y-90294143D01*
X123638100Y-90286015D01*
X123641280Y-90286015D01*
X123649712Y-90231779D01*
X123674226Y-90196899D01*
X133994223Y-79876904D01*
X144246400Y-79876904D01*
X144246400Y-80073895D01*
X144284827Y-80267081D01*
X144284830Y-80267093D01*
X144360208Y-80449073D01*
X144360209Y-80449075D01*
X144383825Y-80484419D01*
X144892846Y-79975400D01*
X144892846Y-79975399D01*
X144383826Y-79466378D01*
X144383826Y-79466379D01*
X144360213Y-79501718D01*
X144360209Y-79501725D01*
X144284829Y-79683710D01*
X144284827Y-79683718D01*
X144246400Y-79876904D01*
X133994223Y-79876904D01*
X136073908Y-77797219D01*
X136135231Y-77763734D01*
X136161589Y-77760900D01*
X144421900Y-77760900D01*
X144488939Y-77780585D01*
X144534694Y-77833389D01*
X144545900Y-77884900D01*
X144545900Y-77955152D01*
X144557531Y-78013629D01*
X144557532Y-78013630D01*
X144557533Y-78013631D01*
X144601848Y-78079952D01*
X144650826Y-78112679D01*
X144695631Y-78166289D01*
X144704338Y-78235614D01*
X144685037Y-78284670D01*
X144625631Y-78373577D01*
X144625621Y-78373595D01*
X144572821Y-78501067D01*
X144572818Y-78501077D01*
X144545900Y-78636404D01*
X144545900Y-78636407D01*
X144545900Y-78774393D01*
X144545900Y-78774395D01*
X144545899Y-78774395D01*
X144572818Y-78909722D01*
X144572821Y-78909732D01*
X144625621Y-79037204D01*
X144625628Y-79037217D01*
X144702285Y-79151941D01*
X144702288Y-79151945D01*
X144799854Y-79249511D01*
X144799858Y-79249514D01*
X144914582Y-79326171D01*
X144914589Y-79326175D01*
X144953494Y-79342290D01*
X144993723Y-79369170D01*
X145249954Y-79625400D01*
X145200322Y-79625400D01*
X145111305Y-79649252D01*
X145031495Y-79695330D01*
X144966330Y-79760495D01*
X144920252Y-79840305D01*
X144896400Y-79929322D01*
X144896400Y-80021478D01*
X144920252Y-80110495D01*
X144966330Y-80190305D01*
X145031495Y-80255470D01*
X145111305Y-80301548D01*
X145200322Y-80325400D01*
X145292478Y-80325400D01*
X145381495Y-80301548D01*
X145461305Y-80255470D01*
X145526470Y-80190305D01*
X145572548Y-80110495D01*
X145596400Y-80021478D01*
X145596400Y-79971846D01*
X146108972Y-80484420D01*
X146108973Y-80484419D01*
X146132587Y-80449081D01*
X146140138Y-80430852D01*
X146183978Y-80376448D01*
X146250272Y-80354382D01*
X146317972Y-80371660D01*
X146365583Y-80422797D01*
X146378700Y-80478303D01*
X146378700Y-85513411D01*
X146359015Y-85580450D01*
X146342381Y-85601092D01*
X146103892Y-85839581D01*
X146042569Y-85873066D01*
X146016211Y-85875900D01*
X131481885Y-85875900D01*
X131481869Y-85875899D01*
X131474273Y-85875899D01*
X131388567Y-85875899D01*
X131333376Y-85890687D01*
X131305780Y-85898082D01*
X131287225Y-85908795D01*
X131268670Y-85919508D01*
X131231558Y-85940935D01*
X131231555Y-85940937D01*
X127247537Y-89924955D01*
X127247533Y-89924961D01*
X127204682Y-89999180D01*
X127204649Y-89999305D01*
X127203260Y-90004490D01*
X127182500Y-90081967D01*
X127182500Y-95538769D01*
X127162815Y-95605808D01*
X127143982Y-95626284D01*
X127145031Y-95627333D01*
X127027481Y-95744882D01*
X127027475Y-95744890D01*
X126948426Y-95881809D01*
X126948423Y-95881816D01*
X126907500Y-96034543D01*
X126907500Y-96192656D01*
X126948423Y-96345383D01*
X126948426Y-96345390D01*
X127027475Y-96482309D01*
X127027479Y-96482314D01*
X127027480Y-96482316D01*
X127139284Y-96594120D01*
X127139286Y-96594121D01*
X127139290Y-96594124D01*
X127276209Y-96673173D01*
X127276216Y-96673177D01*
X127428943Y-96714100D01*
X127428945Y-96714100D01*
X127587055Y-96714100D01*
X127587057Y-96714100D01*
X127739784Y-96673177D01*
X127876716Y-96594120D01*
X127988520Y-96482316D01*
X128067577Y-96345384D01*
X128108500Y-96192657D01*
X128108500Y-96034543D01*
X128067577Y-95881816D01*
X128040200Y-95834397D01*
X127988524Y-95744890D01*
X127988518Y-95744882D01*
X127870969Y-95627333D01*
X127873207Y-95625094D01*
X127840798Y-95580680D01*
X127833500Y-95538769D01*
X127833500Y-90311008D01*
X127853185Y-90243969D01*
X127869819Y-90223327D01*
X128204597Y-89888549D01*
X142299500Y-89888549D01*
X142299500Y-90111450D01*
X142299501Y-90111466D01*
X142328594Y-90332452D01*
X142328595Y-90332457D01*
X142328596Y-90332463D01*
X142375638Y-90508027D01*
X142386290Y-90547780D01*
X142386293Y-90547790D01*
X142469113Y-90747735D01*
X142471595Y-90753726D01*
X142583052Y-90946774D01*
X142583057Y-90946780D01*
X142583058Y-90946782D01*
X142718751Y-91123622D01*
X142718757Y-91123629D01*
X142876370Y-91281242D01*
X142876376Y-91281247D01*
X143053226Y-91416948D01*
X143246274Y-91528405D01*
X143452219Y-91613710D01*
X143667537Y-91671404D01*
X143888543Y-91700500D01*
X143888550Y-91700500D01*
X144111450Y-91700500D01*
X144111457Y-91700500D01*
X144332463Y-91671404D01*
X144547781Y-91613710D01*
X144753726Y-91528405D01*
X144946774Y-91416948D01*
X145123624Y-91281247D01*
X145281247Y-91123624D01*
X145416948Y-90946774D01*
X145528405Y-90753726D01*
X145613710Y-90547781D01*
X145671404Y-90332463D01*
X145700500Y-90111457D01*
X145700500Y-89888543D01*
X145671404Y-89667537D01*
X145613710Y-89452219D01*
X145528405Y-89246274D01*
X145416948Y-89053226D01*
X145281247Y-88876376D01*
X145281242Y-88876370D01*
X145123629Y-88718757D01*
X145123622Y-88718751D01*
X144946782Y-88583058D01*
X144946780Y-88583057D01*
X144946774Y-88583052D01*
X144753726Y-88471595D01*
X144753722Y-88471593D01*
X144547790Y-88386293D01*
X144547783Y-88386291D01*
X144547781Y-88386290D01*
X144332463Y-88328596D01*
X144332457Y-88328595D01*
X144332452Y-88328594D01*
X144111466Y-88299501D01*
X144111463Y-88299500D01*
X144111457Y-88299500D01*
X143888543Y-88299500D01*
X143888537Y-88299500D01*
X143888533Y-88299501D01*
X143667547Y-88328594D01*
X143667540Y-88328595D01*
X143667537Y-88328596D01*
X143452219Y-88386290D01*
X143452209Y-88386293D01*
X143246277Y-88471593D01*
X143246273Y-88471595D01*
X143053226Y-88583052D01*
X143053217Y-88583058D01*
X142876377Y-88718751D01*
X142876370Y-88718757D01*
X142718757Y-88876370D01*
X142718751Y-88876377D01*
X142583058Y-89053217D01*
X142583052Y-89053226D01*
X142471595Y-89246273D01*
X142471593Y-89246277D01*
X142386293Y-89452209D01*
X142386290Y-89452219D01*
X142328597Y-89667534D01*
X142328594Y-89667547D01*
X142299501Y-89888533D01*
X142299500Y-89888549D01*
X128204597Y-89888549D01*
X131529927Y-86563219D01*
X131591250Y-86529734D01*
X131617608Y-86526900D01*
X146245251Y-86526900D01*
X146245253Y-86526900D01*
X146328039Y-86504718D01*
X146402262Y-86461865D01*
X146788319Y-86075808D01*
X146849642Y-86042323D01*
X146919334Y-86047307D01*
X146975267Y-86089179D01*
X146999684Y-86154643D01*
X147000000Y-86163489D01*
X147000000Y-93446354D01*
X146237625Y-94208728D01*
X146143412Y-94079054D01*
X146013746Y-93949388D01*
X145884071Y-93855173D01*
X146659467Y-93079777D01*
X146507515Y-92963180D01*
X146507507Y-92963174D01*
X146252092Y-92815709D01*
X146252081Y-92815704D01*
X145979600Y-92702838D01*
X145979590Y-92702835D01*
X145694697Y-92626499D01*
X145694684Y-92626496D01*
X145402283Y-92588001D01*
X145402266Y-92588000D01*
X145107334Y-92588000D01*
X145107316Y-92588001D01*
X144814915Y-92626496D01*
X144814902Y-92626499D01*
X144530009Y-92702835D01*
X144529999Y-92702838D01*
X144257518Y-92815704D01*
X144257507Y-92815709D01*
X144002092Y-92963174D01*
X144002076Y-92963185D01*
X143850131Y-93079775D01*
X143850131Y-93079777D01*
X144625528Y-93855174D01*
X144495854Y-93949388D01*
X144366188Y-94079054D01*
X144271974Y-94208728D01*
X143496577Y-93433331D01*
X143496575Y-93433331D01*
X143379985Y-93585276D01*
X143379974Y-93585292D01*
X143232509Y-93840707D01*
X143232504Y-93840718D01*
X143119638Y-94113199D01*
X143119635Y-94113209D01*
X143043299Y-94398102D01*
X143043296Y-94398115D01*
X143004801Y-94690516D01*
X143004800Y-94690533D01*
X143004800Y-94985466D01*
X143004801Y-94985483D01*
X143043296Y-95277884D01*
X143043299Y-95277897D01*
X143119635Y-95562790D01*
X143119638Y-95562800D01*
X143232504Y-95835281D01*
X143232509Y-95835292D01*
X143379974Y-96090707D01*
X143379980Y-96090715D01*
X143496577Y-96242667D01*
X144271973Y-95467270D01*
X144366188Y-95596946D01*
X144495854Y-95726612D01*
X144625527Y-95820825D01*
X143850131Y-96596221D01*
X144002084Y-96712819D01*
X144002092Y-96712825D01*
X144257507Y-96860290D01*
X144257518Y-96860295D01*
X144529999Y-96973161D01*
X144530009Y-96973164D01*
X144814902Y-97049500D01*
X144814915Y-97049503D01*
X145107316Y-97087998D01*
X145107334Y-97088000D01*
X145402266Y-97088000D01*
X145402283Y-97087998D01*
X145694684Y-97049503D01*
X145694697Y-97049500D01*
X145979590Y-96973164D01*
X145979600Y-96973161D01*
X146252081Y-96860295D01*
X146252092Y-96860290D01*
X146507507Y-96712825D01*
X146507525Y-96712813D01*
X146659467Y-96596222D01*
X146659467Y-96596220D01*
X145884072Y-95820825D01*
X146013746Y-95726612D01*
X146143412Y-95596946D01*
X146237625Y-95467271D01*
X147000000Y-96229646D01*
X147000000Y-105486354D01*
X146237625Y-106248728D01*
X146143412Y-106119054D01*
X146013746Y-105989388D01*
X145884071Y-105895173D01*
X146659467Y-105119777D01*
X146507515Y-105003180D01*
X146507507Y-105003174D01*
X146252092Y-104855709D01*
X146252081Y-104855704D01*
X145979600Y-104742838D01*
X145979590Y-104742835D01*
X145694697Y-104666499D01*
X145694684Y-104666496D01*
X145402283Y-104628001D01*
X145402266Y-104628000D01*
X145107334Y-104628000D01*
X145107316Y-104628001D01*
X144814915Y-104666496D01*
X144814902Y-104666499D01*
X144530009Y-104742835D01*
X144529999Y-104742838D01*
X144257518Y-104855704D01*
X144257507Y-104855709D01*
X144002092Y-105003174D01*
X144002076Y-105003185D01*
X143850131Y-105119775D01*
X143850131Y-105119777D01*
X144625528Y-105895174D01*
X144495854Y-105989388D01*
X144366188Y-106119054D01*
X144271974Y-106248728D01*
X143496577Y-105473331D01*
X143496575Y-105473331D01*
X143379985Y-105625276D01*
X143379974Y-105625292D01*
X143232509Y-105880707D01*
X143232504Y-105880718D01*
X143119638Y-106153199D01*
X143119635Y-106153209D01*
X143043299Y-106438102D01*
X143043296Y-106438115D01*
X143004801Y-106730516D01*
X143004800Y-106730533D01*
X143004800Y-107025466D01*
X143004801Y-107025483D01*
X143043296Y-107317884D01*
X143043299Y-107317897D01*
X143119635Y-107602790D01*
X143119638Y-107602800D01*
X143232504Y-107875281D01*
X143232509Y-107875292D01*
X143379974Y-108130707D01*
X143379980Y-108130715D01*
X143496577Y-108282667D01*
X144271973Y-107507270D01*
X144366188Y-107636946D01*
X144495854Y-107766612D01*
X144625527Y-107860825D01*
X143850131Y-108636221D01*
X144002084Y-108752819D01*
X144002092Y-108752825D01*
X144257507Y-108900290D01*
X144257518Y-108900295D01*
X144529999Y-109013161D01*
X144530009Y-109013164D01*
X144814902Y-109089500D01*
X144814915Y-109089503D01*
X145107316Y-109127998D01*
X145107334Y-109128000D01*
X145402266Y-109128000D01*
X145402283Y-109127998D01*
X145694684Y-109089503D01*
X145694697Y-109089500D01*
X145979590Y-109013164D01*
X145979600Y-109013161D01*
X146252081Y-108900295D01*
X146252092Y-108900290D01*
X146507507Y-108752825D01*
X146507525Y-108752813D01*
X146659467Y-108636222D01*
X146659467Y-108636220D01*
X145884072Y-107860825D01*
X146013746Y-107766612D01*
X146143412Y-107636946D01*
X146237625Y-107507271D01*
X147000000Y-108269646D01*
X147000000Y-108498627D01*
X147000000Y-122376000D01*
X146980315Y-122443039D01*
X146927511Y-122488794D01*
X146876000Y-122500000D01*
X140000000Y-122500000D01*
X140000000Y-128876000D01*
X139980315Y-128943039D01*
X139927511Y-128988794D01*
X139876000Y-129000000D01*
X97624000Y-129000000D01*
X97556961Y-128980315D01*
X97511206Y-128927511D01*
X97500000Y-128876000D01*
X97500000Y-120207395D01*
X99978699Y-120207395D01*
X100005618Y-120342722D01*
X100005621Y-120342732D01*
X100058421Y-120470204D01*
X100058428Y-120470217D01*
X100135085Y-120584941D01*
X100135088Y-120584945D01*
X100232654Y-120682511D01*
X100232658Y-120682514D01*
X100347382Y-120759171D01*
X100347395Y-120759178D01*
X100474867Y-120811978D01*
X100474872Y-120811980D01*
X100474876Y-120811980D01*
X100474877Y-120811981D01*
X100610204Y-120838900D01*
X100610207Y-120838900D01*
X100748195Y-120838900D01*
X100839241Y-120820789D01*
X100883528Y-120811980D01*
X101011011Y-120759175D01*
X101125742Y-120682514D01*
X101223314Y-120584942D01*
X101299975Y-120470211D01*
X101352780Y-120342728D01*
X101379700Y-120207393D01*
X101379700Y-120126365D01*
X101399385Y-120059326D01*
X101416019Y-120038684D01*
X102072801Y-119381902D01*
X141857100Y-119381902D01*
X141857100Y-119618097D01*
X141894046Y-119851368D01*
X141967033Y-120075996D01*
X141992698Y-120126365D01*
X142074257Y-120286433D01*
X142213083Y-120477510D01*
X142380090Y-120644517D01*
X142571167Y-120783343D01*
X142670591Y-120834002D01*
X142781603Y-120890566D01*
X142781605Y-120890566D01*
X142781608Y-120890568D01*
X142902012Y-120929689D01*
X143006231Y-120963553D01*
X143239503Y-121000500D01*
X143239508Y-121000500D01*
X143475697Y-121000500D01*
X143708968Y-120963553D01*
X143933592Y-120890568D01*
X144144033Y-120783343D01*
X144335110Y-120644517D01*
X144502117Y-120477510D01*
X144640943Y-120286433D01*
X144748168Y-120075992D01*
X144821153Y-119851368D01*
X144828245Y-119806589D01*
X144858100Y-119618097D01*
X144858100Y-119381902D01*
X144821153Y-119148631D01*
X144748166Y-118924003D01*
X144640942Y-118713566D01*
X144502117Y-118522490D01*
X144335110Y-118355483D01*
X144144033Y-118216657D01*
X143933596Y-118109433D01*
X143708968Y-118036446D01*
X143475697Y-117999500D01*
X143475692Y-117999500D01*
X143239508Y-117999500D01*
X143239503Y-117999500D01*
X143006231Y-118036446D01*
X142781603Y-118109433D01*
X142571166Y-118216657D01*
X142462150Y-118295862D01*
X142380090Y-118355483D01*
X142380088Y-118355485D01*
X142380087Y-118355485D01*
X142213085Y-118522487D01*
X142213085Y-118522488D01*
X142213083Y-118522490D01*
X142153462Y-118604550D01*
X142074257Y-118713566D01*
X141967033Y-118924003D01*
X141894046Y-119148631D01*
X141857100Y-119381902D01*
X102072801Y-119381902D01*
X102165348Y-119289355D01*
X103455203Y-117999500D01*
X104754490Y-116700213D01*
X104813799Y-116597486D01*
X104844500Y-116482909D01*
X104844500Y-113400013D01*
X141557600Y-113400013D01*
X141557600Y-114250000D01*
X142757599Y-114250000D01*
X142732579Y-114310402D01*
X142707600Y-114435981D01*
X142707600Y-114564019D01*
X142732579Y-114689598D01*
X142757599Y-114750000D01*
X141557601Y-114750000D01*
X141557601Y-115599986D01*
X141568094Y-115702697D01*
X141623241Y-115869119D01*
X141623243Y-115869124D01*
X141715284Y-116018345D01*
X141839254Y-116142315D01*
X141988475Y-116234356D01*
X141988480Y-116234358D01*
X142154902Y-116289505D01*
X142154909Y-116289506D01*
X142257619Y-116299999D01*
X143107599Y-116299999D01*
X143107600Y-116299998D01*
X143107600Y-115100001D01*
X143168002Y-115125021D01*
X143293581Y-115150000D01*
X143421619Y-115150000D01*
X143547198Y-115125021D01*
X143607600Y-115100001D01*
X143607600Y-116299999D01*
X144457572Y-116299999D01*
X144457586Y-116299998D01*
X144560297Y-116289505D01*
X144726719Y-116234358D01*
X144726724Y-116234356D01*
X144875945Y-116142315D01*
X144999915Y-116018345D01*
X145091956Y-115869124D01*
X145091958Y-115869119D01*
X145147105Y-115702697D01*
X145147106Y-115702690D01*
X145157599Y-115599986D01*
X145157600Y-115599973D01*
X145157600Y-114750000D01*
X143957601Y-114750000D01*
X143982621Y-114689598D01*
X144007600Y-114564019D01*
X144007600Y-114435981D01*
X143982621Y-114310402D01*
X143957601Y-114250000D01*
X145157599Y-114250000D01*
X145157599Y-113400028D01*
X145157598Y-113400013D01*
X145147105Y-113297302D01*
X145091958Y-113130880D01*
X145091956Y-113130875D01*
X144999915Y-112981654D01*
X144875945Y-112857684D01*
X144726724Y-112765643D01*
X144726719Y-112765641D01*
X144560297Y-112710494D01*
X144560290Y-112710493D01*
X144457586Y-112700000D01*
X143607600Y-112700000D01*
X143607600Y-113899998D01*
X143547198Y-113874979D01*
X143421619Y-113850000D01*
X143293581Y-113850000D01*
X143168002Y-113874979D01*
X143107600Y-113899998D01*
X143107600Y-112700000D01*
X142257628Y-112700000D01*
X142257612Y-112700001D01*
X142154902Y-112710494D01*
X141988480Y-112765641D01*
X141988475Y-112765643D01*
X141839254Y-112857684D01*
X141715284Y-112981654D01*
X141623243Y-113130875D01*
X141623241Y-113130880D01*
X141568094Y-113297302D01*
X141568093Y-113297309D01*
X141557600Y-113400013D01*
X104844500Y-113400013D01*
X104844500Y-112842500D01*
X104864185Y-112775461D01*
X104916989Y-112729706D01*
X104968500Y-112718500D01*
X123291308Y-112718500D01*
X123291309Y-112718500D01*
X123381673Y-112694286D01*
X123405887Y-112687799D01*
X123508614Y-112628489D01*
X125268198Y-110868905D01*
X127500000Y-110868905D01*
X127500000Y-111131094D01*
X127534220Y-111391009D01*
X127534222Y-111391020D01*
X127602075Y-111644255D01*
X127702404Y-111886471D01*
X127702409Y-111886482D01*
X127833488Y-112113516D01*
X127833494Y-112113524D01*
X127920080Y-112226365D01*
X128822421Y-111324024D01*
X128835359Y-111355258D01*
X128917437Y-111478097D01*
X129021903Y-111582563D01*
X129144742Y-111664641D01*
X129175974Y-111677577D01*
X128273633Y-112579917D01*
X128273633Y-112579918D01*
X128386475Y-112666505D01*
X128386483Y-112666511D01*
X128613517Y-112797590D01*
X128613528Y-112797595D01*
X128855744Y-112897924D01*
X129108979Y-112965777D01*
X129108990Y-112965779D01*
X129368905Y-112999999D01*
X129368920Y-113000000D01*
X129631080Y-113000000D01*
X129631094Y-112999999D01*
X129891009Y-112965779D01*
X129891020Y-112965777D01*
X130144255Y-112897924D01*
X130386471Y-112797595D01*
X130386482Y-112797590D01*
X130613516Y-112666511D01*
X130613534Y-112666499D01*
X130726365Y-112579919D01*
X130726365Y-112579917D01*
X129824025Y-111677578D01*
X129855258Y-111664641D01*
X129978097Y-111582563D01*
X130082563Y-111478097D01*
X130164641Y-111355258D01*
X130177577Y-111324025D01*
X131079917Y-112226365D01*
X131079919Y-112226365D01*
X131166499Y-112113534D01*
X131166511Y-112113516D01*
X131297590Y-111886482D01*
X131297595Y-111886471D01*
X131397924Y-111644255D01*
X131465777Y-111391020D01*
X131465779Y-111391009D01*
X131499999Y-111131094D01*
X131500000Y-111131080D01*
X131500000Y-110868919D01*
X131499999Y-110868905D01*
X131465779Y-110608990D01*
X131465777Y-110608979D01*
X131397924Y-110355744D01*
X131297595Y-110113528D01*
X131297590Y-110113517D01*
X131166511Y-109886483D01*
X131166505Y-109886475D01*
X131079918Y-109773633D01*
X131079917Y-109773633D01*
X130177577Y-110675973D01*
X130164641Y-110644742D01*
X130082563Y-110521903D01*
X129978097Y-110417437D01*
X129855258Y-110335359D01*
X129824023Y-110322421D01*
X130726365Y-109420080D01*
X130613524Y-109333494D01*
X130613516Y-109333488D01*
X130386482Y-109202409D01*
X130386471Y-109202404D01*
X130144255Y-109102075D01*
X129891020Y-109034222D01*
X129891009Y-109034220D01*
X129631094Y-109000000D01*
X129368905Y-109000000D01*
X129108990Y-109034220D01*
X129108979Y-109034222D01*
X128855744Y-109102075D01*
X128613528Y-109202404D01*
X128613517Y-109202409D01*
X128386471Y-109333496D01*
X128273633Y-109420079D01*
X128273633Y-109420080D01*
X129175974Y-110322421D01*
X129144742Y-110335359D01*
X129021903Y-110417437D01*
X128917437Y-110521903D01*
X128835359Y-110644742D01*
X128822421Y-110675974D01*
X127920080Y-109773633D01*
X127920079Y-109773633D01*
X127833496Y-109886471D01*
X127702409Y-110113517D01*
X127702404Y-110113528D01*
X127602075Y-110355744D01*
X127534222Y-110608979D01*
X127534220Y-110608990D01*
X127500000Y-110868905D01*
X125268198Y-110868905D01*
X128591776Y-107545326D01*
X128653097Y-107511843D01*
X128722788Y-107516827D01*
X128741449Y-107525619D01*
X128746274Y-107528405D01*
X128746279Y-107528407D01*
X128746283Y-107528409D01*
X128952209Y-107613706D01*
X128952219Y-107613710D01*
X129167537Y-107671404D01*
X129388543Y-107700500D01*
X129388550Y-107700500D01*
X129611450Y-107700500D01*
X129611457Y-107700500D01*
X129832463Y-107671404D01*
X130047781Y-107613710D01*
X130253726Y-107528405D01*
X130446774Y-107416948D01*
X130623624Y-107281247D01*
X130781247Y-107123624D01*
X130916948Y-106946774D01*
X131028405Y-106753726D01*
X131113710Y-106547781D01*
X131123510Y-106511203D01*
X131159876Y-106451545D01*
X131222723Y-106421017D01*
X131243285Y-106419300D01*
X133317282Y-106419300D01*
X133384321Y-106438985D01*
X133404958Y-106455614D01*
X133460549Y-106511205D01*
X133462259Y-106512915D01*
X133576982Y-106589571D01*
X133576995Y-106589578D01*
X133630903Y-106611907D01*
X133704472Y-106642380D01*
X133704476Y-106642380D01*
X133704477Y-106642381D01*
X133839804Y-106669300D01*
X133839807Y-106669300D01*
X133977795Y-106669300D01*
X134068841Y-106651189D01*
X134113128Y-106642380D01*
X134240611Y-106589575D01*
X134355342Y-106512914D01*
X134452914Y-106415342D01*
X134529575Y-106300611D01*
X134582380Y-106173128D01*
X134609300Y-106037793D01*
X134609300Y-105899807D01*
X134609300Y-105899804D01*
X134582381Y-105764477D01*
X134582380Y-105764476D01*
X134582380Y-105764472D01*
X134561060Y-105713000D01*
X134529578Y-105636995D01*
X134529571Y-105636982D01*
X134452915Y-105522259D01*
X134429271Y-105498615D01*
X134397877Y-105467221D01*
X134383059Y-105440083D01*
X134366450Y-105414020D01*
X134365631Y-105408166D01*
X134364394Y-105405901D01*
X134361561Y-105379074D01*
X134384069Y-99504530D01*
X139494300Y-99504530D01*
X139494300Y-99711469D01*
X139534668Y-99914412D01*
X139534670Y-99914420D01*
X139613859Y-100105598D01*
X139671341Y-100191626D01*
X139728824Y-100277657D01*
X139875142Y-100423975D01*
X139875145Y-100423977D01*
X140047202Y-100538941D01*
X140238380Y-100618130D01*
X140433839Y-100657009D01*
X140441330Y-100658499D01*
X140441334Y-100658500D01*
X140441335Y-100658500D01*
X140648266Y-100658500D01*
X140648267Y-100658499D01*
X140851220Y-100618130D01*
X141042398Y-100538941D01*
X141214455Y-100423977D01*
X141360777Y-100277655D01*
X141441698Y-100156546D01*
X141495309Y-100111742D01*
X141564634Y-100103035D01*
X141627662Y-100133189D01*
X141647900Y-100156545D01*
X141697724Y-100231112D01*
X141728824Y-100277657D01*
X141875142Y-100423975D01*
X141875145Y-100423977D01*
X142047202Y-100538941D01*
X142157790Y-100584748D01*
X142212193Y-100628589D01*
X142234258Y-100694883D01*
X142216979Y-100762582D01*
X142165842Y-100810193D01*
X142148656Y-100817240D01*
X142026581Y-100856905D01*
X141837239Y-100953380D01*
X141783082Y-100992727D01*
X141783082Y-100992728D01*
X142448051Y-101657697D01*
X142367247Y-101679349D01*
X142262354Y-101739909D01*
X142176709Y-101825554D01*
X142116149Y-101930447D01*
X142094497Y-102011251D01*
X141631619Y-101548373D01*
X141598134Y-101487050D01*
X141595300Y-101460692D01*
X141595300Y-101238249D01*
X141595299Y-101238247D01*
X141583668Y-101179770D01*
X141583667Y-101179769D01*
X141539352Y-101113447D01*
X141473030Y-101069132D01*
X141473029Y-101069131D01*
X141414552Y-101057500D01*
X141414548Y-101057500D01*
X139675052Y-101057500D01*
X139675047Y-101057500D01*
X139616570Y-101069131D01*
X139616569Y-101069132D01*
X139550247Y-101113447D01*
X139505932Y-101179769D01*
X139505931Y-101179770D01*
X139494300Y-101238247D01*
X139494300Y-102977752D01*
X139505931Y-103036229D01*
X139505932Y-103036230D01*
X139550247Y-103102552D01*
X139616569Y-103146867D01*
X139616570Y-103146868D01*
X139675047Y-103158499D01*
X139675050Y-103158500D01*
X139675052Y-103158500D01*
X141414550Y-103158500D01*
X141414551Y-103158499D01*
X141429368Y-103155552D01*
X141473029Y-103146868D01*
X141473029Y-103146867D01*
X141473031Y-103146867D01*
X141539352Y-103102552D01*
X141583667Y-103036231D01*
X141583667Y-103036229D01*
X141583668Y-103036229D01*
X141595299Y-102977752D01*
X141595300Y-102977750D01*
X141595300Y-102755308D01*
X141614985Y-102688269D01*
X141631619Y-102667627D01*
X142094497Y-102204748D01*
X142116149Y-102285553D01*
X142176709Y-102390446D01*
X142262354Y-102476091D01*
X142367247Y-102536651D01*
X142448050Y-102558302D01*
X141783082Y-103223269D01*
X141783082Y-103223270D01*
X141837249Y-103262624D01*
X142026582Y-103359095D01*
X142228670Y-103424757D01*
X142438554Y-103458000D01*
X142651046Y-103458000D01*
X142860927Y-103424757D01*
X142860930Y-103424757D01*
X143063017Y-103359095D01*
X143252354Y-103262622D01*
X143306516Y-103223270D01*
X143306517Y-103223270D01*
X142641549Y-102558302D01*
X142722353Y-102536651D01*
X142827246Y-102476091D01*
X142912891Y-102390446D01*
X142973451Y-102285553D01*
X142995102Y-102204749D01*
X143660070Y-102869717D01*
X143660070Y-102869716D01*
X143699422Y-102815554D01*
X143795895Y-102626217D01*
X143861557Y-102424130D01*
X143861557Y-102424127D01*
X143894800Y-102214246D01*
X143894800Y-102001753D01*
X143861557Y-101791872D01*
X143861557Y-101791869D01*
X143795895Y-101589782D01*
X143699424Y-101400449D01*
X143660070Y-101346282D01*
X143660069Y-101346282D01*
X142995102Y-102011250D01*
X142973451Y-101930447D01*
X142912891Y-101825554D01*
X142827246Y-101739909D01*
X142722353Y-101679349D01*
X142641549Y-101657697D01*
X143306516Y-100992728D01*
X143252350Y-100953375D01*
X143063016Y-100856904D01*
X142940944Y-100817240D01*
X142883268Y-100777802D01*
X142856070Y-100713444D01*
X142867985Y-100644597D01*
X142915229Y-100593122D01*
X142931806Y-100584749D01*
X143042398Y-100538941D01*
X143214455Y-100423977D01*
X143360777Y-100277655D01*
X143475741Y-100105598D01*
X143554930Y-99914420D01*
X143595300Y-99711465D01*
X143595300Y-99504535D01*
X143554930Y-99301580D01*
X143475741Y-99110402D01*
X143360777Y-98938345D01*
X143360775Y-98938342D01*
X143214457Y-98792024D01*
X143067713Y-98693974D01*
X143042398Y-98677059D01*
X142910254Y-98622323D01*
X142851220Y-98597870D01*
X142851212Y-98597868D01*
X142648269Y-98557500D01*
X142648265Y-98557500D01*
X142441335Y-98557500D01*
X142441330Y-98557500D01*
X142238387Y-98597868D01*
X142238379Y-98597870D01*
X142047203Y-98677058D01*
X141875142Y-98792024D01*
X141728825Y-98938341D01*
X141728819Y-98938349D01*
X141647902Y-99059451D01*
X141594290Y-99104257D01*
X141524965Y-99112964D01*
X141461938Y-99082810D01*
X141441698Y-99059451D01*
X141360780Y-98938349D01*
X141360774Y-98938341D01*
X141214457Y-98792024D01*
X141067713Y-98693974D01*
X141042398Y-98677059D01*
X140910254Y-98622323D01*
X140851220Y-98597870D01*
X140851212Y-98597868D01*
X140648269Y-98557500D01*
X140648265Y-98557500D01*
X140441335Y-98557500D01*
X140441330Y-98557500D01*
X140238387Y-98597868D01*
X140238379Y-98597870D01*
X140047203Y-98677058D01*
X139875142Y-98792024D01*
X139728824Y-98938342D01*
X139613858Y-99110403D01*
X139534670Y-99301579D01*
X139534668Y-99301587D01*
X139494300Y-99504530D01*
X134384069Y-99504530D01*
X134407829Y-93303313D01*
X134414599Y-93280577D01*
X134417005Y-93256973D01*
X134425386Y-93244353D01*
X134427770Y-93236350D01*
X134434846Y-93226520D01*
X134439199Y-93221056D01*
X134503714Y-93156542D01*
X134580375Y-93041811D01*
X134633180Y-92914328D01*
X134660100Y-92778993D01*
X134660100Y-92641007D01*
X134660100Y-92641004D01*
X134633181Y-92505677D01*
X134633180Y-92505676D01*
X134633180Y-92505672D01*
X134615181Y-92462219D01*
X134580378Y-92378195D01*
X134580371Y-92378182D01*
X134503714Y-92263458D01*
X134503711Y-92263454D01*
X134406145Y-92165888D01*
X134406141Y-92165885D01*
X134291417Y-92089228D01*
X134291404Y-92089221D01*
X134163932Y-92036421D01*
X134163922Y-92036418D01*
X134028595Y-92009500D01*
X134028593Y-92009500D01*
X133890607Y-92009500D01*
X133890605Y-92009500D01*
X133755277Y-92036418D01*
X133755267Y-92036421D01*
X133627795Y-92089221D01*
X133627782Y-92089228D01*
X133513058Y-92165885D01*
X133513054Y-92165888D01*
X133415488Y-92263454D01*
X133415485Y-92263458D01*
X133338828Y-92378182D01*
X133338821Y-92378195D01*
X133286021Y-92505667D01*
X133286018Y-92505677D01*
X133259100Y-92641004D01*
X133259100Y-92641007D01*
X133259100Y-92778993D01*
X133259100Y-92778995D01*
X133259099Y-92778995D01*
X133286018Y-92914322D01*
X133286021Y-92914332D01*
X133338821Y-93041804D01*
X133338828Y-93041817D01*
X133415484Y-93156540D01*
X133415485Y-93156541D01*
X133415486Y-93156542D01*
X133470520Y-93211576D01*
X133504004Y-93272897D01*
X133506837Y-93299731D01*
X133460569Y-105375484D01*
X133451877Y-105404671D01*
X133445405Y-105434430D01*
X133441436Y-105439731D01*
X133440628Y-105442448D01*
X133424256Y-105462686D01*
X133404967Y-105481977D01*
X133343645Y-105515465D01*
X133317281Y-105518300D01*
X131223936Y-105518300D01*
X131156897Y-105498615D01*
X131111142Y-105445811D01*
X131109375Y-105441753D01*
X131054460Y-105309176D01*
X131028405Y-105246274D01*
X130916948Y-105053226D01*
X130781247Y-104876376D01*
X130781242Y-104876370D01*
X130623629Y-104718757D01*
X130623622Y-104718751D01*
X130446782Y-104583058D01*
X130446780Y-104583057D01*
X130446774Y-104583052D01*
X130253726Y-104471595D01*
X130253722Y-104471593D01*
X130047790Y-104386293D01*
X130047783Y-104386291D01*
X130047781Y-104386290D01*
X129832463Y-104328596D01*
X129832457Y-104328595D01*
X129832452Y-104328594D01*
X129611466Y-104299501D01*
X129611463Y-104299500D01*
X129611457Y-104299500D01*
X129388543Y-104299500D01*
X129388537Y-104299500D01*
X129388533Y-104299501D01*
X129167547Y-104328594D01*
X129167540Y-104328595D01*
X129167537Y-104328596D01*
X128972402Y-104380882D01*
X128952219Y-104386290D01*
X128952209Y-104386293D01*
X128746277Y-104471593D01*
X128746273Y-104471595D01*
X128553226Y-104583052D01*
X128553217Y-104583058D01*
X128376377Y-104718751D01*
X128376370Y-104718757D01*
X128218757Y-104876370D01*
X128218751Y-104876377D01*
X128083058Y-105053217D01*
X128083052Y-105053226D01*
X127971595Y-105246273D01*
X127971593Y-105246277D01*
X127886293Y-105452209D01*
X127886290Y-105452219D01*
X127839916Y-105625292D01*
X127828597Y-105667534D01*
X127828594Y-105667547D01*
X127799501Y-105888533D01*
X127799500Y-105888549D01*
X127799500Y-106111450D01*
X127799501Y-106111466D01*
X127828594Y-106332452D01*
X127828595Y-106332457D01*
X127828596Y-106332463D01*
X127886290Y-106547780D01*
X127886293Y-106547790D01*
X127971593Y-106753722D01*
X127971598Y-106753732D01*
X127974373Y-106758538D01*
X127990849Y-106826437D01*
X127968000Y-106892465D01*
X127954670Y-106908224D01*
X123081716Y-111781181D01*
X123020393Y-111814666D01*
X122994035Y-111817500D01*
X104968500Y-111817500D01*
X104901461Y-111797815D01*
X104855706Y-111745011D01*
X104844500Y-111693500D01*
X104844500Y-104670543D01*
X111413500Y-104670543D01*
X111413500Y-104828657D01*
X111426287Y-104876376D01*
X111454423Y-104981383D01*
X111454426Y-104981390D01*
X111533475Y-105118309D01*
X111533479Y-105118314D01*
X111533480Y-105118316D01*
X111645284Y-105230120D01*
X111645286Y-105230121D01*
X111645290Y-105230124D01*
X111782209Y-105309173D01*
X111782216Y-105309177D01*
X111934943Y-105350100D01*
X111934945Y-105350100D01*
X112093055Y-105350100D01*
X112093057Y-105350100D01*
X112245784Y-105309177D01*
X112382716Y-105230120D01*
X112494520Y-105118316D01*
X112573577Y-104981384D01*
X112614500Y-104828657D01*
X112614500Y-104670543D01*
X112609378Y-104651427D01*
X112611039Y-104581580D01*
X112641468Y-104531657D01*
X112925059Y-104248066D01*
X112925062Y-104248065D01*
X112985665Y-104187462D01*
X113007813Y-104149100D01*
X113028518Y-104113239D01*
X113050701Y-104030453D01*
X113050701Y-103944747D01*
X113050701Y-103937152D01*
X113050700Y-103937134D01*
X113050700Y-102090989D01*
X113070385Y-102023950D01*
X113087019Y-102003308D01*
X114305984Y-100784343D01*
X120582900Y-100784343D01*
X120582900Y-100942457D01*
X120616843Y-101069132D01*
X120623823Y-101095183D01*
X120623826Y-101095190D01*
X120702875Y-101232109D01*
X120702879Y-101232114D01*
X120702880Y-101232116D01*
X120814684Y-101343920D01*
X120814686Y-101343921D01*
X120814690Y-101343924D01*
X120858678Y-101369320D01*
X120951616Y-101422977D01*
X121104343Y-101463900D01*
X121104345Y-101463900D01*
X121262455Y-101463900D01*
X121262457Y-101463900D01*
X121415184Y-101422977D01*
X121552116Y-101343920D01*
X121645417Y-101250619D01*
X121706740Y-101217134D01*
X121733098Y-101214300D01*
X128406370Y-101214300D01*
X128473409Y-101233985D01*
X128493879Y-101252822D01*
X128494933Y-101251769D01*
X128500680Y-101257516D01*
X128612484Y-101369320D01*
X128612486Y-101369321D01*
X128612490Y-101369324D01*
X128749409Y-101448373D01*
X128749416Y-101448377D01*
X128902143Y-101489300D01*
X128902145Y-101489300D01*
X129060255Y-101489300D01*
X129060257Y-101489300D01*
X129212984Y-101448377D01*
X129349916Y-101369320D01*
X129461720Y-101257516D01*
X129540777Y-101120584D01*
X129581700Y-100967857D01*
X129581700Y-100809743D01*
X129540777Y-100657016D01*
X129533607Y-100644597D01*
X129461724Y-100520090D01*
X129461718Y-100520082D01*
X129349917Y-100408281D01*
X129349909Y-100408275D01*
X129212990Y-100329226D01*
X129212986Y-100329224D01*
X129212984Y-100329223D01*
X129060257Y-100288300D01*
X128902143Y-100288300D01*
X128749416Y-100329223D01*
X128749409Y-100329226D01*
X128612490Y-100408275D01*
X128612482Y-100408281D01*
X128494933Y-100525831D01*
X128492687Y-100523585D01*
X128448345Y-100555979D01*
X128406370Y-100563300D01*
X121775127Y-100563300D01*
X121708088Y-100543615D01*
X121667739Y-100501299D01*
X121663923Y-100494690D01*
X121663920Y-100494684D01*
X121552116Y-100382880D01*
X121552114Y-100382879D01*
X121552109Y-100382875D01*
X121415190Y-100303826D01*
X121415186Y-100303824D01*
X121415184Y-100303823D01*
X121262457Y-100262900D01*
X121104343Y-100262900D01*
X120951616Y-100303823D01*
X120951609Y-100303826D01*
X120814690Y-100382875D01*
X120814682Y-100382881D01*
X120702881Y-100494682D01*
X120702875Y-100494690D01*
X120623826Y-100631609D01*
X120623823Y-100631616D01*
X120582900Y-100784343D01*
X114305984Y-100784343D01*
X120935384Y-94154943D01*
X121522700Y-94154943D01*
X121522700Y-94313056D01*
X121563623Y-94465783D01*
X121563626Y-94465790D01*
X121642675Y-94602709D01*
X121642679Y-94602714D01*
X121642680Y-94602716D01*
X121754484Y-94714520D01*
X121754486Y-94714521D01*
X121754490Y-94714524D01*
X121891409Y-94793573D01*
X121891416Y-94793577D01*
X122044143Y-94834500D01*
X122044145Y-94834500D01*
X122202255Y-94834500D01*
X122202257Y-94834500D01*
X122354984Y-94793577D01*
X122491916Y-94714520D01*
X122603720Y-94602716D01*
X122603720Y-94602715D01*
X122609467Y-94596969D01*
X122611712Y-94599214D01*
X122656055Y-94566821D01*
X122698030Y-94559500D01*
X123232851Y-94559500D01*
X123232853Y-94559500D01*
X123315639Y-94537318D01*
X123389862Y-94494465D01*
X126183859Y-91700466D01*
X126183862Y-91700465D01*
X126244465Y-91639862D01*
X126265891Y-91602750D01*
X126287318Y-91565639D01*
X126309501Y-91482853D01*
X126309501Y-91397147D01*
X126309501Y-91389552D01*
X126309500Y-91389534D01*
X126309500Y-90559389D01*
X126329185Y-90492350D01*
X126345819Y-90471708D01*
X131162508Y-85655019D01*
X131223831Y-85621534D01*
X131250189Y-85618700D01*
X143044851Y-85618700D01*
X143044853Y-85618700D01*
X143127639Y-85596518D01*
X143201602Y-85553814D01*
X143269498Y-85537342D01*
X143277958Y-85538100D01*
X143278543Y-85538100D01*
X143436655Y-85538100D01*
X143436657Y-85538100D01*
X143589384Y-85497177D01*
X143726316Y-85418120D01*
X143838120Y-85306316D01*
X143917177Y-85169384D01*
X143958100Y-85016657D01*
X143958100Y-84858543D01*
X143917177Y-84705816D01*
X143917173Y-84705809D01*
X143838124Y-84568890D01*
X143838118Y-84568882D01*
X143726317Y-84457081D01*
X143726309Y-84457075D01*
X143589390Y-84378026D01*
X143589386Y-84378024D01*
X143589384Y-84378023D01*
X143436657Y-84337100D01*
X143278543Y-84337100D01*
X143125816Y-84378023D01*
X143125809Y-84378026D01*
X142988890Y-84457075D01*
X142988882Y-84457081D01*
X142877081Y-84568882D01*
X142877075Y-84568890D01*
X142798026Y-84705809D01*
X142798023Y-84705816D01*
X142757098Y-84858549D01*
X142756922Y-84859891D01*
X142756458Y-84860938D01*
X142754997Y-84866393D01*
X142754146Y-84866165D01*
X142728653Y-84923786D01*
X142670326Y-84962255D01*
X142633984Y-84967700D01*
X131021147Y-84967700D01*
X130938359Y-84989882D01*
X130864138Y-85032735D01*
X130864135Y-85032737D01*
X125723537Y-90173335D01*
X125723535Y-90173338D01*
X125680682Y-90247561D01*
X125668819Y-90291835D01*
X125668819Y-90291836D01*
X125668818Y-90291835D01*
X125658500Y-90330345D01*
X125658500Y-91253811D01*
X125638815Y-91320850D01*
X125622181Y-91341492D01*
X123091492Y-93872181D01*
X123030169Y-93905666D01*
X123003811Y-93908500D01*
X122698030Y-93908500D01*
X122630991Y-93888815D01*
X122610520Y-93869977D01*
X122609467Y-93871031D01*
X122491917Y-93753481D01*
X122491909Y-93753475D01*
X122354990Y-93674426D01*
X122354986Y-93674424D01*
X122354984Y-93674423D01*
X122202257Y-93633500D01*
X122044143Y-93633500D01*
X121891416Y-93674423D01*
X121891409Y-93674426D01*
X121754490Y-93753475D01*
X121754482Y-93753481D01*
X121642681Y-93865282D01*
X121642675Y-93865290D01*
X121563626Y-94002209D01*
X121563623Y-94002216D01*
X121522700Y-94154943D01*
X120935384Y-94154943D01*
X122628108Y-92462219D01*
X122689431Y-92428734D01*
X122715789Y-92425900D01*
X123080451Y-92425900D01*
X123080453Y-92425900D01*
X123163239Y-92403718D01*
X123237462Y-92360865D01*
X124390265Y-91208062D01*
X124697875Y-90900452D01*
X124740728Y-90826229D01*
X124762910Y-90743443D01*
X124762910Y-90657737D01*
X124762910Y-90435198D01*
X124782595Y-90368159D01*
X124799229Y-90347517D01*
X131574527Y-83572219D01*
X131635850Y-83538734D01*
X131662208Y-83535900D01*
X131884747Y-83535900D01*
X143781011Y-83535900D01*
X143848050Y-83555585D01*
X143868692Y-83572219D01*
X144281733Y-83985259D01*
X144281735Y-83985262D01*
X144342338Y-84045865D01*
X144379450Y-84067291D01*
X144388570Y-84072557D01*
X144388573Y-84072559D01*
X144407909Y-84083722D01*
X144416561Y-84088718D01*
X144499347Y-84110900D01*
X144555129Y-84110900D01*
X144622168Y-84130585D01*
X144658231Y-84166010D01*
X144702282Y-84231937D01*
X144702288Y-84231945D01*
X144799854Y-84329511D01*
X144799858Y-84329514D01*
X144914582Y-84406171D01*
X144914595Y-84406178D01*
X145037473Y-84457075D01*
X145042072Y-84458980D01*
X145042076Y-84458980D01*
X145042077Y-84458981D01*
X145177404Y-84485900D01*
X145177407Y-84485900D01*
X145315395Y-84485900D01*
X145406441Y-84467789D01*
X145450728Y-84458980D01*
X145578211Y-84406175D01*
X145692942Y-84329514D01*
X145790514Y-84231942D01*
X145867175Y-84117211D01*
X145919980Y-83989728D01*
X145946900Y-83854393D01*
X145946900Y-83716407D01*
X145946900Y-83716404D01*
X145919981Y-83581077D01*
X145919980Y-83581076D01*
X145919980Y-83581072D01*
X145901269Y-83535900D01*
X145867178Y-83453595D01*
X145867171Y-83453582D01*
X145790514Y-83338858D01*
X145790511Y-83338854D01*
X145689738Y-83238081D01*
X145656253Y-83176758D01*
X145661237Y-83107066D01*
X145689738Y-83062719D01*
X145790511Y-82961945D01*
X145790514Y-82961942D01*
X145867175Y-82847211D01*
X145875881Y-82826194D01*
X145919978Y-82719732D01*
X145919980Y-82719728D01*
X145946900Y-82584393D01*
X145946900Y-82446407D01*
X145946900Y-82446404D01*
X145919981Y-82311077D01*
X145919980Y-82311076D01*
X145919980Y-82311072D01*
X145890566Y-82240060D01*
X145867178Y-82183595D01*
X145867171Y-82183582D01*
X145790514Y-82068858D01*
X145790511Y-82068854D01*
X145689738Y-81968081D01*
X145656253Y-81906758D01*
X145661237Y-81837066D01*
X145689738Y-81792719D01*
X145790511Y-81691945D01*
X145790514Y-81691942D01*
X145867175Y-81577211D01*
X145919980Y-81449728D01*
X145946900Y-81314393D01*
X145946900Y-81176407D01*
X145946900Y-81176404D01*
X145919981Y-81041077D01*
X145919980Y-81041076D01*
X145919980Y-81041072D01*
X145919978Y-81041067D01*
X145867178Y-80913595D01*
X145867171Y-80913582D01*
X145790514Y-80798858D01*
X145790511Y-80798854D01*
X145692945Y-80701288D01*
X145692937Y-80701282D01*
X145578213Y-80624626D01*
X145578212Y-80624625D01*
X145539302Y-80608508D01*
X145499075Y-80581628D01*
X145246401Y-80328953D01*
X144993722Y-80581630D01*
X144953497Y-80608508D01*
X144914585Y-80624626D01*
X144799862Y-80701282D01*
X144799854Y-80701288D01*
X144702288Y-80798854D01*
X144702285Y-80798858D01*
X144625628Y-80913582D01*
X144625621Y-80913595D01*
X144572821Y-81041067D01*
X144572818Y-81041077D01*
X144545900Y-81176404D01*
X144545900Y-81176407D01*
X144545900Y-81314393D01*
X144545900Y-81314395D01*
X144545899Y-81314395D01*
X144572818Y-81449722D01*
X144572821Y-81449732D01*
X144625621Y-81577204D01*
X144625628Y-81577217D01*
X144702285Y-81691941D01*
X144702288Y-81691945D01*
X144803062Y-81792719D01*
X144836547Y-81854042D01*
X144831563Y-81923734D01*
X144803062Y-81968081D01*
X144702288Y-82068854D01*
X144702285Y-82068858D01*
X144625628Y-82183582D01*
X144625621Y-82183595D01*
X144572821Y-82311067D01*
X144572818Y-82311077D01*
X144545900Y-82446404D01*
X144545900Y-82446407D01*
X144545900Y-82584393D01*
X144545900Y-82584395D01*
X144545899Y-82584395D01*
X144572818Y-82719722D01*
X144572821Y-82719732D01*
X144625621Y-82847204D01*
X144625628Y-82847217D01*
X144702285Y-82961941D01*
X144702288Y-82961945D01*
X144803062Y-83062719D01*
X144807399Y-83070663D01*
X144814649Y-83076090D01*
X144823884Y-83100852D01*
X144836547Y-83124042D01*
X144835901Y-83133072D01*
X144839065Y-83141555D01*
X144833448Y-83167375D01*
X144831563Y-83193734D01*
X144825744Y-83202787D01*
X144824213Y-83209828D01*
X144803062Y-83238082D01*
X144716815Y-83324328D01*
X144655491Y-83357812D01*
X144585800Y-83352828D01*
X144541453Y-83324327D01*
X144393884Y-83176758D01*
X144167062Y-82949935D01*
X144129950Y-82928508D01*
X144092840Y-82907082D01*
X144051446Y-82895991D01*
X144010053Y-82884900D01*
X144010052Y-82884900D01*
X131526485Y-82884900D01*
X131526469Y-82884899D01*
X131518873Y-82884899D01*
X131433167Y-82884899D01*
X131377976Y-82899687D01*
X131350380Y-82907082D01*
X131331825Y-82917795D01*
X131313270Y-82928508D01*
X131280320Y-82947532D01*
X131276158Y-82949935D01*
X131276155Y-82949937D01*
X124176947Y-90049145D01*
X124176943Y-90049151D01*
X124134092Y-90123370D01*
X124134059Y-90123495D01*
X124111910Y-90206157D01*
X124111910Y-90514401D01*
X124092225Y-90581440D01*
X124075591Y-90602082D01*
X122939092Y-91738581D01*
X122877769Y-91772066D01*
X122851411Y-91774900D01*
X122486747Y-91774900D01*
X122403962Y-91797082D01*
X122403955Y-91797085D01*
X122329744Y-91839930D01*
X122329736Y-91839936D01*
X112464737Y-101704935D01*
X112464733Y-101704941D01*
X112421881Y-101779161D01*
X112421882Y-101779162D01*
X112399700Y-101861947D01*
X112399700Y-103801411D01*
X112380015Y-103868450D01*
X112363381Y-103889092D01*
X112139692Y-104112781D01*
X112078369Y-104146266D01*
X112052011Y-104149100D01*
X111934943Y-104149100D01*
X111782216Y-104190023D01*
X111782209Y-104190026D01*
X111645290Y-104269075D01*
X111645282Y-104269081D01*
X111533481Y-104380882D01*
X111533475Y-104380890D01*
X111454426Y-104517809D01*
X111454423Y-104517816D01*
X111413500Y-104670543D01*
X104844500Y-104670543D01*
X104844500Y-102566379D01*
X110206900Y-102566379D01*
X110206900Y-102753620D01*
X110243425Y-102937243D01*
X110243427Y-102937251D01*
X110315076Y-103110228D01*
X110315081Y-103110237D01*
X110419097Y-103265907D01*
X110419100Y-103265911D01*
X110551488Y-103398299D01*
X110551492Y-103398302D01*
X110707162Y-103502318D01*
X110707168Y-103502321D01*
X110707169Y-103502322D01*
X110880149Y-103573973D01*
X111063779Y-103610499D01*
X111063783Y-103610500D01*
X111063784Y-103610500D01*
X111251017Y-103610500D01*
X111251018Y-103610499D01*
X111434651Y-103573973D01*
X111607631Y-103502322D01*
X111763308Y-103398302D01*
X111895702Y-103265908D01*
X111999722Y-103110231D01*
X112071373Y-102937251D01*
X112107900Y-102753616D01*
X112107900Y-102566384D01*
X112071373Y-102382749D01*
X112015954Y-102248956D01*
X111999723Y-102209771D01*
X111999718Y-102209762D01*
X111895702Y-102054092D01*
X111895699Y-102054088D01*
X111763311Y-101921700D01*
X111763307Y-101921697D01*
X111607637Y-101817681D01*
X111607628Y-101817676D01*
X111434651Y-101746027D01*
X111434643Y-101746025D01*
X111251020Y-101709500D01*
X111251016Y-101709500D01*
X111063784Y-101709500D01*
X111063779Y-101709500D01*
X110880156Y-101746025D01*
X110880148Y-101746027D01*
X110707171Y-101817676D01*
X110707162Y-101817681D01*
X110551492Y-101921697D01*
X110551488Y-101921700D01*
X110419100Y-102054088D01*
X110419097Y-102054092D01*
X110315081Y-102209762D01*
X110315076Y-102209771D01*
X110243427Y-102382748D01*
X110243425Y-102382756D01*
X110206900Y-102566379D01*
X104844500Y-102566379D01*
X104844500Y-97686379D01*
X110206900Y-97686379D01*
X110206900Y-97873620D01*
X110243425Y-98057243D01*
X110243427Y-98057251D01*
X110315076Y-98230228D01*
X110315081Y-98230237D01*
X110419097Y-98385907D01*
X110419100Y-98385911D01*
X110551488Y-98518299D01*
X110551492Y-98518302D01*
X110707162Y-98622318D01*
X110707168Y-98622321D01*
X110707169Y-98622322D01*
X110880149Y-98693973D01*
X111063779Y-98730499D01*
X111063783Y-98730500D01*
X111063784Y-98730500D01*
X111251017Y-98730500D01*
X111251018Y-98730499D01*
X111434651Y-98693973D01*
X111607631Y-98622322D01*
X111763308Y-98518302D01*
X111895702Y-98385908D01*
X111999722Y-98230231D01*
X112071373Y-98057251D01*
X112107900Y-97873616D01*
X112107900Y-97686384D01*
X112071373Y-97502749D01*
X111999722Y-97329769D01*
X111999721Y-97329768D01*
X111999718Y-97329762D01*
X111895702Y-97174092D01*
X111895699Y-97174088D01*
X111763311Y-97041700D01*
X111763307Y-97041697D01*
X111607637Y-96937681D01*
X111607628Y-96937676D01*
X111434651Y-96866027D01*
X111434643Y-96866025D01*
X111251020Y-96829500D01*
X111251016Y-96829500D01*
X111063784Y-96829500D01*
X111063779Y-96829500D01*
X110880156Y-96866025D01*
X110880148Y-96866027D01*
X110707171Y-96937676D01*
X110707162Y-96937681D01*
X110551492Y-97041697D01*
X110551488Y-97041700D01*
X110419100Y-97174088D01*
X110419097Y-97174092D01*
X110315081Y-97329762D01*
X110315076Y-97329771D01*
X110243427Y-97502748D01*
X110243425Y-97502756D01*
X110206900Y-97686379D01*
X104844500Y-97686379D01*
X104844500Y-87309165D01*
X104864185Y-87242126D01*
X104880819Y-87221484D01*
X107178517Y-84923786D01*
X109530089Y-82572214D01*
X109589398Y-82469487D01*
X109589399Y-82469486D01*
X109620100Y-82354909D01*
X109620100Y-75920943D01*
X117399500Y-75920943D01*
X117399500Y-76079056D01*
X117440423Y-76231783D01*
X117440426Y-76231790D01*
X117519475Y-76368709D01*
X117519479Y-76368714D01*
X117519480Y-76368716D01*
X117631284Y-76480520D01*
X117631286Y-76480521D01*
X117631290Y-76480524D01*
X117768209Y-76559573D01*
X117768216Y-76559577D01*
X117920943Y-76600500D01*
X117920945Y-76600500D01*
X118079055Y-76600500D01*
X118079057Y-76600500D01*
X118231784Y-76559577D01*
X118368716Y-76480520D01*
X118480520Y-76368716D01*
X118527612Y-76287148D01*
X118578179Y-76238933D01*
X118646786Y-76225709D01*
X118711651Y-76251677D01*
X118742387Y-76287147D01*
X118789480Y-76368716D01*
X118901284Y-76480520D01*
X118901286Y-76480521D01*
X118901290Y-76480524D01*
X119038209Y-76559573D01*
X119038216Y-76559577D01*
X119190943Y-76600500D01*
X119190945Y-76600500D01*
X119349055Y-76600500D01*
X119349057Y-76600500D01*
X119501784Y-76559577D01*
X119638716Y-76480520D01*
X119750520Y-76368716D01*
X119829577Y-76231784D01*
X119870500Y-76079057D01*
X119870500Y-75920943D01*
X119870500Y-75912815D01*
X119873680Y-75912815D01*
X119882112Y-75858579D01*
X119906626Y-75823699D01*
X125640307Y-70090019D01*
X125701630Y-70056534D01*
X125727988Y-70053700D01*
X126273170Y-70053700D01*
X126340209Y-70073385D01*
X126360679Y-70092222D01*
X126361733Y-70091169D01*
X126367480Y-70096916D01*
X126479284Y-70208720D01*
X126479286Y-70208721D01*
X126479290Y-70208724D01*
X126616209Y-70287773D01*
X126616216Y-70287777D01*
X126768943Y-70328700D01*
X126768945Y-70328700D01*
X126927055Y-70328700D01*
X126927057Y-70328700D01*
X127079784Y-70287777D01*
X127216716Y-70208720D01*
X127328520Y-70096916D01*
X127407577Y-69959984D01*
X127448500Y-69807257D01*
X127448500Y-69649143D01*
X127407577Y-69496416D01*
X127391018Y-69467735D01*
X127328524Y-69359490D01*
X127328518Y-69359482D01*
X127216717Y-69247681D01*
X127216709Y-69247675D01*
X127079790Y-69168626D01*
X127079786Y-69168624D01*
X127079784Y-69168623D01*
X126927057Y-69127700D01*
X126768943Y-69127700D01*
X126616216Y-69168623D01*
X126616209Y-69168626D01*
X126479290Y-69247675D01*
X126479282Y-69247681D01*
X126361733Y-69365231D01*
X126359487Y-69362985D01*
X126315145Y-69395379D01*
X126273170Y-69402700D01*
X125592265Y-69402700D01*
X125592249Y-69402699D01*
X125584653Y-69402699D01*
X125498947Y-69402699D01*
X125465833Y-69411572D01*
X125416159Y-69424882D01*
X125416158Y-69424883D01*
X125341941Y-69467732D01*
X125341936Y-69467736D01*
X125281333Y-69528340D01*
X119446301Y-75363370D01*
X119384978Y-75396855D01*
X119357184Y-75398014D01*
X119357184Y-75399500D01*
X119190943Y-75399500D01*
X119038216Y-75440423D01*
X119038209Y-75440426D01*
X118901290Y-75519475D01*
X118901282Y-75519481D01*
X118789481Y-75631282D01*
X118789477Y-75631287D01*
X118742387Y-75712851D01*
X118691820Y-75761067D01*
X118623213Y-75774290D01*
X118558348Y-75748322D01*
X118527613Y-75712851D01*
X118480522Y-75631287D01*
X118480518Y-75631282D01*
X118362969Y-75513733D01*
X118365207Y-75511494D01*
X118332798Y-75467080D01*
X118325500Y-75425169D01*
X118325500Y-73211987D01*
X118345185Y-73144948D01*
X118361814Y-73124311D01*
X127088452Y-64397672D01*
X127088457Y-64397669D01*
X127098660Y-64387465D01*
X127098662Y-64387465D01*
X127159265Y-64326862D01*
X127202118Y-64252638D01*
X127224301Y-64169853D01*
X127224301Y-64084147D01*
X127224301Y-64076552D01*
X127224300Y-64076534D01*
X127224300Y-62974630D01*
X127243985Y-62907591D01*
X127262822Y-62887120D01*
X127261769Y-62886067D01*
X127313791Y-62834045D01*
X127379320Y-62768516D01*
X127458377Y-62631584D01*
X127499300Y-62478857D01*
X127499300Y-62320743D01*
X127458377Y-62168016D01*
X127414085Y-62091299D01*
X127379324Y-62031090D01*
X127379318Y-62031082D01*
X127267517Y-61919281D01*
X127267509Y-61919275D01*
X127130590Y-61840226D01*
X127130586Y-61840224D01*
X127130584Y-61840223D01*
X126977857Y-61799300D01*
X126819743Y-61799300D01*
X126667016Y-61840223D01*
X126667009Y-61840226D01*
X126530090Y-61919275D01*
X126530082Y-61919281D01*
X126418281Y-62031082D01*
X126418275Y-62031090D01*
X126339226Y-62168009D01*
X126339223Y-62168016D01*
X126298300Y-62320743D01*
X126298300Y-62478856D01*
X126339223Y-62631583D01*
X126339226Y-62631590D01*
X126418275Y-62768509D01*
X126418281Y-62768517D01*
X126535831Y-62886067D01*
X126533585Y-62888312D01*
X126565979Y-62932655D01*
X126573300Y-62974630D01*
X126573300Y-63940811D01*
X126553615Y-64007850D01*
X126536981Y-64028492D01*
X117739537Y-72825935D01*
X117739533Y-72825941D01*
X117696681Y-72900161D01*
X117696682Y-72900162D01*
X117674500Y-72982947D01*
X117674500Y-75425169D01*
X117654815Y-75492208D01*
X117635982Y-75512684D01*
X117637031Y-75513733D01*
X117519481Y-75631282D01*
X117519475Y-75631290D01*
X117440426Y-75768209D01*
X117440423Y-75768216D01*
X117399500Y-75920943D01*
X109620100Y-75920943D01*
X109620100Y-66145318D01*
X109639785Y-66078279D01*
X109656414Y-66057641D01*
X109713714Y-66000342D01*
X109790375Y-65885611D01*
X109843180Y-65758128D01*
X109870100Y-65622793D01*
X109870100Y-65484807D01*
X109870100Y-65484804D01*
X109843181Y-65349477D01*
X109843180Y-65349476D01*
X109843180Y-65349472D01*
X109843178Y-65349467D01*
X109790378Y-65221995D01*
X109790371Y-65221982D01*
X109713714Y-65107258D01*
X109713711Y-65107254D01*
X109616145Y-65009688D01*
X109616141Y-65009685D01*
X109501417Y-64933028D01*
X109501404Y-64933021D01*
X109373932Y-64880221D01*
X109373922Y-64880218D01*
X109238595Y-64853300D01*
X109238593Y-64853300D01*
X109100607Y-64853300D01*
X109100605Y-64853300D01*
X108965277Y-64880218D01*
X108965267Y-64880221D01*
X108837795Y-64933021D01*
X108837782Y-64933028D01*
X108723058Y-65009685D01*
X108723054Y-65009688D01*
X108625488Y-65107254D01*
X108625485Y-65107258D01*
X108548828Y-65221982D01*
X108548821Y-65221995D01*
X108496021Y-65349467D01*
X108496018Y-65349477D01*
X108469100Y-65484804D01*
X108469100Y-65484807D01*
X108469100Y-65622793D01*
X108469100Y-65622795D01*
X108469099Y-65622795D01*
X108496018Y-65758122D01*
X108496021Y-65758132D01*
X108548821Y-65885604D01*
X108548828Y-65885617D01*
X108625484Y-66000340D01*
X108625485Y-66000341D01*
X108625486Y-66000342D01*
X108682782Y-66057638D01*
X108716266Y-66118959D01*
X108719100Y-66145318D01*
X108719100Y-82057635D01*
X108699415Y-82124674D01*
X108682781Y-82145316D01*
X104243716Y-86584381D01*
X104182393Y-86617866D01*
X104156035Y-86620700D01*
X101333518Y-86620700D01*
X101266479Y-86601015D01*
X101245836Y-86584380D01*
X101197345Y-86535888D01*
X101197341Y-86535885D01*
X101082617Y-86459228D01*
X101082604Y-86459221D01*
X100955132Y-86406421D01*
X100955122Y-86406418D01*
X100819795Y-86379500D01*
X100819793Y-86379500D01*
X100681807Y-86379500D01*
X100681805Y-86379500D01*
X100546477Y-86406418D01*
X100546467Y-86406421D01*
X100418995Y-86459221D01*
X100418982Y-86459228D01*
X100304258Y-86535885D01*
X100304254Y-86535888D01*
X100206688Y-86633454D01*
X100206685Y-86633458D01*
X100130028Y-86748182D01*
X100130021Y-86748195D01*
X100077221Y-86875667D01*
X100077218Y-86875677D01*
X100050300Y-87011004D01*
X100050300Y-87011007D01*
X100050300Y-87148993D01*
X100050300Y-87148995D01*
X100050299Y-87148995D01*
X100077218Y-87284322D01*
X100077221Y-87284332D01*
X100130021Y-87411804D01*
X100130028Y-87411817D01*
X100206685Y-87526541D01*
X100206688Y-87526545D01*
X100304254Y-87624111D01*
X100304258Y-87624114D01*
X100418982Y-87700771D01*
X100418995Y-87700778D01*
X100546467Y-87753578D01*
X100546472Y-87753580D01*
X100546476Y-87753580D01*
X100546477Y-87753581D01*
X100681804Y-87780500D01*
X100681807Y-87780500D01*
X100819795Y-87780500D01*
X100910841Y-87762389D01*
X100955128Y-87753580D01*
X101082611Y-87700775D01*
X101197342Y-87624114D01*
X101227267Y-87594189D01*
X101263438Y-87558019D01*
X101324761Y-87524534D01*
X101351119Y-87521700D01*
X103819500Y-87521700D01*
X103886539Y-87541385D01*
X103932294Y-87594189D01*
X103943500Y-87645700D01*
X103943500Y-116185635D01*
X103923815Y-116252674D01*
X103907181Y-116273316D01*
X100778916Y-119401581D01*
X100717593Y-119435066D01*
X100691235Y-119437900D01*
X100610205Y-119437900D01*
X100474877Y-119464818D01*
X100474867Y-119464821D01*
X100347395Y-119517621D01*
X100347382Y-119517628D01*
X100232658Y-119594285D01*
X100232654Y-119594288D01*
X100135088Y-119691854D01*
X100135085Y-119691858D01*
X100058428Y-119806582D01*
X100058421Y-119806595D01*
X100005621Y-119934067D01*
X100005618Y-119934077D01*
X99978700Y-120069404D01*
X99978700Y-120069407D01*
X99978700Y-120207393D01*
X99978700Y-120207395D01*
X99978699Y-120207395D01*
X97500000Y-120207395D01*
X97500000Y-116444399D01*
X97519685Y-116377360D01*
X97572489Y-116331605D01*
X97624000Y-116320399D01*
X97889200Y-116320399D01*
X97889200Y-115225388D01*
X97899140Y-115242605D01*
X97954995Y-115298460D01*
X98023404Y-115337956D01*
X98099704Y-115358400D01*
X98178696Y-115358400D01*
X98254996Y-115337956D01*
X98323405Y-115298460D01*
X98379260Y-115242605D01*
X98389200Y-115225388D01*
X98389200Y-116320399D01*
X98834807Y-116320399D01*
X98834809Y-116320398D01*
X98877832Y-116317482D01*
X98877834Y-116317482D01*
X99063802Y-116271234D01*
X99235475Y-116186092D01*
X99384833Y-116066034D01*
X99384834Y-116066033D01*
X99504889Y-115916679D01*
X99505204Y-115916187D01*
X99505474Y-115915951D01*
X99509104Y-115911436D01*
X99509913Y-115912086D01*
X99557896Y-115870302D01*
X99627030Y-115860189D01*
X99685167Y-115884592D01*
X99766941Y-115947339D01*
X99908398Y-116005933D01*
X100022084Y-116020900D01*
X100022091Y-116020900D01*
X101336309Y-116020900D01*
X101336316Y-116020900D01*
X101450002Y-116005933D01*
X101591459Y-115947339D01*
X101712931Y-115854131D01*
X101806139Y-115732659D01*
X101864733Y-115591202D01*
X101879700Y-115477516D01*
X101879700Y-114639284D01*
X101864733Y-114525598D01*
X101806139Y-114384141D01*
X101712931Y-114262669D01*
X101591459Y-114169461D01*
X101591458Y-114169460D01*
X101508595Y-114135137D01*
X101450002Y-114110867D01*
X101435791Y-114108996D01*
X101336323Y-114095900D01*
X101336316Y-114095900D01*
X100022084Y-114095900D01*
X100022076Y-114095900D01*
X99908398Y-114110867D01*
X99908397Y-114110867D01*
X99766940Y-114169460D01*
X99685170Y-114232205D01*
X99620001Y-114257399D01*
X99551556Y-114243360D01*
X99509771Y-114204827D01*
X99509104Y-114205364D01*
X99505524Y-114200911D01*
X99505209Y-114200620D01*
X99504891Y-114200123D01*
X99384834Y-114050766D01*
X99384833Y-114050765D01*
X99235474Y-113930707D01*
X99235475Y-113930707D01*
X99063802Y-113845565D01*
X98877838Y-113799318D01*
X98877842Y-113799318D01*
X98834805Y-113796400D01*
X98389200Y-113796400D01*
X98389200Y-114891411D01*
X98379260Y-114874195D01*
X98323405Y-114818340D01*
X98254996Y-114778844D01*
X98178696Y-114758400D01*
X98099704Y-114758400D01*
X98023404Y-114778844D01*
X97954995Y-114818340D01*
X97899140Y-114874195D01*
X97889200Y-114891411D01*
X97889200Y-113796400D01*
X97624000Y-113796400D01*
X97556961Y-113776715D01*
X97511206Y-113723911D01*
X97500000Y-113672400D01*
X97500000Y-83385999D01*
X97519685Y-83318960D01*
X97572489Y-83273205D01*
X97624000Y-83261999D01*
X97960799Y-83261999D01*
X97960800Y-83261998D01*
X97960800Y-82166988D01*
X97970740Y-82184205D01*
X98026595Y-82240060D01*
X98095004Y-82279556D01*
X98171304Y-82300000D01*
X98250296Y-82300000D01*
X98326596Y-82279556D01*
X98395005Y-82240060D01*
X98450860Y-82184205D01*
X98460800Y-82166988D01*
X98460800Y-83261999D01*
X98906407Y-83261999D01*
X98906409Y-83261998D01*
X98949432Y-83259082D01*
X98949434Y-83259082D01*
X99135402Y-83212834D01*
X99307075Y-83127692D01*
X99456433Y-83007634D01*
X99456434Y-83007633D01*
X99576489Y-82858279D01*
X99576804Y-82857787D01*
X99577074Y-82857551D01*
X99580704Y-82853036D01*
X99581513Y-82853686D01*
X99629496Y-82811902D01*
X99698630Y-82801789D01*
X99756767Y-82826192D01*
X99838541Y-82888939D01*
X99979998Y-82947533D01*
X100087932Y-82961742D01*
X100089445Y-82961942D01*
X100093684Y-82962500D01*
X100093691Y-82962500D01*
X101407909Y-82962500D01*
X101407916Y-82962500D01*
X101521602Y-82947533D01*
X101663059Y-82888939D01*
X101784531Y-82795731D01*
X101877739Y-82674259D01*
X101936333Y-82532802D01*
X101951300Y-82419116D01*
X101951300Y-81580884D01*
X101936333Y-81467198D01*
X101877739Y-81325741D01*
X101784531Y-81204269D01*
X101663059Y-81111061D01*
X101663058Y-81111060D01*
X101580195Y-81076737D01*
X101521602Y-81052467D01*
X101507391Y-81050596D01*
X101407923Y-81037500D01*
X101407916Y-81037500D01*
X100093684Y-81037500D01*
X100093676Y-81037500D01*
X99979998Y-81052467D01*
X99979997Y-81052467D01*
X99838540Y-81111060D01*
X99756770Y-81173805D01*
X99691601Y-81198999D01*
X99623156Y-81184960D01*
X99581371Y-81146427D01*
X99580704Y-81146964D01*
X99577124Y-81142511D01*
X99576809Y-81142220D01*
X99576491Y-81141723D01*
X99456434Y-80992366D01*
X99456433Y-80992365D01*
X99307074Y-80872307D01*
X99307075Y-80872307D01*
X99135402Y-80787165D01*
X98949438Y-80740918D01*
X98949442Y-80740918D01*
X98906405Y-80738000D01*
X98460800Y-80738000D01*
X98460800Y-81833011D01*
X98450860Y-81815795D01*
X98395005Y-81759940D01*
X98326596Y-81720444D01*
X98250296Y-81700000D01*
X98171304Y-81700000D01*
X98095004Y-81720444D01*
X98026595Y-81759940D01*
X97970740Y-81815795D01*
X97960800Y-81833011D01*
X97960800Y-80738000D01*
X97624000Y-80738000D01*
X97556961Y-80718315D01*
X97511206Y-80665511D01*
X97500000Y-80614000D01*
X97500000Y-59104730D01*
X118483100Y-59104730D01*
X118483100Y-60513269D01*
X118485953Y-60543699D01*
X118485953Y-60543701D01*
X118522594Y-60648411D01*
X118530807Y-60671882D01*
X118611450Y-60781150D01*
X118720718Y-60861793D01*
X118763445Y-60876744D01*
X118848899Y-60906646D01*
X118879330Y-60909500D01*
X120078517Y-60909500D01*
X120145556Y-60929185D01*
X120191311Y-60981989D01*
X120201255Y-61051147D01*
X120172230Y-61114703D01*
X120134812Y-61143985D01*
X120119833Y-61151616D01*
X120056085Y-61197931D01*
X120056085Y-61197932D01*
X120765014Y-61906861D01*
X120679906Y-61929667D01*
X120577294Y-61988910D01*
X120493510Y-62072694D01*
X120434267Y-62175306D01*
X120411461Y-62260414D01*
X119702532Y-61551485D01*
X119702531Y-61551485D01*
X119656216Y-61615233D01*
X119556167Y-61811589D01*
X119488073Y-62021164D01*
X119453600Y-62238818D01*
X119453600Y-62459181D01*
X119488073Y-62676835D01*
X119556167Y-62886410D01*
X119656211Y-63082756D01*
X119702532Y-63146513D01*
X120411461Y-62437584D01*
X120434267Y-62522694D01*
X120493510Y-62625306D01*
X120577294Y-62709090D01*
X120679906Y-62768333D01*
X120765014Y-62791137D01*
X120056085Y-63500065D01*
X120056085Y-63500066D01*
X120119843Y-63546388D01*
X120316189Y-63646432D01*
X120525764Y-63714526D01*
X120743419Y-63749000D01*
X120963781Y-63749000D01*
X121181435Y-63714526D01*
X121391010Y-63646432D01*
X121587360Y-63546386D01*
X121651113Y-63500066D01*
X121651114Y-63500066D01*
X120942185Y-62791138D01*
X121027294Y-62768333D01*
X121129906Y-62709090D01*
X121213690Y-62625306D01*
X121272933Y-62522694D01*
X121295737Y-62437585D01*
X122004666Y-63146514D01*
X122004666Y-63146513D01*
X122050986Y-63082760D01*
X122151033Y-62886408D01*
X122168047Y-62834045D01*
X122207484Y-62776369D01*
X122271842Y-62749170D01*
X122340689Y-62761084D01*
X122392165Y-62808328D01*
X122396463Y-62816068D01*
X122452366Y-62925786D01*
X122457357Y-62932655D01*
X122554186Y-63065928D01*
X122676672Y-63188414D01*
X122816812Y-63290232D01*
X122971155Y-63368873D01*
X123135899Y-63422402D01*
X123306989Y-63449500D01*
X123306990Y-63449500D01*
X123480210Y-63449500D01*
X123480211Y-63449500D01*
X123651301Y-63422402D01*
X123816045Y-63368873D01*
X123970388Y-63290232D01*
X124110528Y-63188414D01*
X124233014Y-63065928D01*
X124334832Y-62925788D01*
X124413473Y-62771445D01*
X124467002Y-62606701D01*
X124494100Y-62435611D01*
X124494100Y-62262389D01*
X124467002Y-62091299D01*
X124413473Y-61926555D01*
X124334832Y-61772212D01*
X124233014Y-61632072D01*
X124110528Y-61509586D01*
X123970388Y-61407768D01*
X123816045Y-61329127D01*
X123651301Y-61275598D01*
X123651299Y-61275597D01*
X123651298Y-61275597D01*
X123519871Y-61254781D01*
X123480211Y-61248500D01*
X123306989Y-61248500D01*
X123267328Y-61254781D01*
X123135902Y-61275597D01*
X122971152Y-61329128D01*
X122816811Y-61407768D01*
X122736856Y-61465859D01*
X122676672Y-61509586D01*
X122676670Y-61509588D01*
X122676669Y-61509588D01*
X122554188Y-61632069D01*
X122554188Y-61632070D01*
X122554186Y-61632072D01*
X122510459Y-61692256D01*
X122452368Y-61772211D01*
X122396463Y-61881932D01*
X122348488Y-61932728D01*
X122280667Y-61949523D01*
X122214533Y-61926986D01*
X122171081Y-61872271D01*
X122168047Y-61863955D01*
X122151032Y-61811589D01*
X122050988Y-61615243D01*
X122004666Y-61551485D01*
X122004665Y-61551485D01*
X121295737Y-62260413D01*
X121272933Y-62175306D01*
X121213690Y-62072694D01*
X121129906Y-61988910D01*
X121027294Y-61929667D01*
X120942183Y-61906861D01*
X121651113Y-61197932D01*
X121587356Y-61151611D01*
X121391010Y-61051567D01*
X121181435Y-60983473D01*
X120963781Y-60949000D01*
X120743424Y-60949000D01*
X120689464Y-60957546D01*
X120620171Y-60948590D01*
X120566719Y-60903593D01*
X120546080Y-60836842D01*
X120564805Y-60769528D01*
X120570285Y-60761455D01*
X120636393Y-60671882D01*
X120658819Y-60607790D01*
X120681246Y-60543701D01*
X120681246Y-60543699D01*
X120684100Y-60513269D01*
X120684100Y-59722389D01*
X121023100Y-59722389D01*
X121023100Y-59895611D01*
X121050198Y-60066701D01*
X121103727Y-60231445D01*
X121182368Y-60385788D01*
X121284186Y-60525928D01*
X121406672Y-60648414D01*
X121546812Y-60750232D01*
X121701155Y-60828873D01*
X121865899Y-60882402D01*
X122036989Y-60909500D01*
X122036990Y-60909500D01*
X122210210Y-60909500D01*
X122210211Y-60909500D01*
X122381301Y-60882402D01*
X122546045Y-60828873D01*
X122700388Y-60750232D01*
X122840528Y-60648414D01*
X122963014Y-60525928D01*
X123064832Y-60385788D01*
X123143473Y-60231445D01*
X123197002Y-60066701D01*
X123224100Y-59895611D01*
X123224100Y-59722389D01*
X123197002Y-59551299D01*
X123143473Y-59386555D01*
X123064832Y-59232212D01*
X122963014Y-59092072D01*
X122840528Y-58969586D01*
X122700388Y-58867768D01*
X122546045Y-58789127D01*
X122381301Y-58735598D01*
X122381299Y-58735597D01*
X122381298Y-58735597D01*
X122228224Y-58711353D01*
X122210211Y-58708500D01*
X122036989Y-58708500D01*
X122018976Y-58711353D01*
X121865902Y-58735597D01*
X121701152Y-58789128D01*
X121546811Y-58867768D01*
X121466856Y-58925859D01*
X121406672Y-58969586D01*
X121406670Y-58969588D01*
X121406669Y-58969588D01*
X121284188Y-59092069D01*
X121284188Y-59092070D01*
X121284186Y-59092072D01*
X121240459Y-59152256D01*
X121182368Y-59232211D01*
X121103728Y-59386552D01*
X121050197Y-59551302D01*
X121023100Y-59722389D01*
X120684100Y-59722389D01*
X120684100Y-59104730D01*
X120681246Y-59074300D01*
X120681246Y-59074298D01*
X120636393Y-58946119D01*
X120636392Y-58946117D01*
X120578568Y-58867768D01*
X120555750Y-58836850D01*
X120446482Y-58756207D01*
X120446480Y-58756206D01*
X120318300Y-58711353D01*
X120287870Y-58708500D01*
X120287866Y-58708500D01*
X118879334Y-58708500D01*
X118879330Y-58708500D01*
X118848900Y-58711353D01*
X118848898Y-58711353D01*
X118720719Y-58756206D01*
X118720717Y-58756207D01*
X118611450Y-58836850D01*
X118530807Y-58946117D01*
X118530806Y-58946119D01*
X118485953Y-59074298D01*
X118485953Y-59074300D01*
X118483100Y-59104730D01*
X97500000Y-59104730D01*
X97500000Y-53337711D01*
X115823100Y-53337711D01*
X115823100Y-53580288D01*
X115854761Y-53820785D01*
X115917547Y-54055104D01*
X116010373Y-54279205D01*
X116010376Y-54279212D01*
X116131664Y-54489289D01*
X116131666Y-54489292D01*
X116131667Y-54489293D01*
X116279333Y-54681736D01*
X116279339Y-54681743D01*
X116450856Y-54853260D01*
X116450863Y-54853266D01*
X116475411Y-54872102D01*
X116643311Y-55000936D01*
X116853388Y-55122224D01*
X117077500Y-55215054D01*
X117311811Y-55277838D01*
X117492186Y-55301584D01*
X117552311Y-55309500D01*
X117552312Y-55309500D01*
X117794889Y-55309500D01*
X117848766Y-55302407D01*
X118035389Y-55277838D01*
X118269700Y-55215054D01*
X118493812Y-55122224D01*
X118703889Y-55000936D01*
X118896338Y-54853265D01*
X119067865Y-54681738D01*
X119215536Y-54489289D01*
X119336824Y-54279212D01*
X119429654Y-54055100D01*
X119492438Y-53820789D01*
X119524100Y-53580288D01*
X119524100Y-53337712D01*
X119523883Y-53336065D01*
X123298100Y-53336065D01*
X123298100Y-53581934D01*
X123324827Y-53784939D01*
X123330191Y-53825677D01*
X123393822Y-54063152D01*
X123393825Y-54063162D01*
X123483317Y-54279214D01*
X123487906Y-54290292D01*
X123610833Y-54503208D01*
X123610835Y-54503211D01*
X123610836Y-54503212D01*
X123760497Y-54698254D01*
X123760503Y-54698261D01*
X123934338Y-54872096D01*
X123934345Y-54872102D01*
X124048935Y-54960030D01*
X124129392Y-55021767D01*
X124342308Y-55144694D01*
X124569447Y-55238778D01*
X124806923Y-55302409D01*
X125050673Y-55334500D01*
X125050680Y-55334500D01*
X125296520Y-55334500D01*
X125296527Y-55334500D01*
X125540277Y-55302409D01*
X125777753Y-55238778D01*
X126004892Y-55144694D01*
X126217808Y-55021767D01*
X126412856Y-54872101D01*
X126586701Y-54698256D01*
X126736367Y-54503208D01*
X126859294Y-54290292D01*
X126953378Y-54063153D01*
X127017009Y-53825677D01*
X127049100Y-53581927D01*
X127049100Y-53336073D01*
X127017009Y-53092323D01*
X126953378Y-52854847D01*
X126859294Y-52627708D01*
X126736367Y-52414792D01*
X126586701Y-52219744D01*
X126586696Y-52219738D01*
X126412861Y-52045903D01*
X126412854Y-52045897D01*
X126217812Y-51896236D01*
X126217811Y-51896235D01*
X126217808Y-51896233D01*
X126004892Y-51773306D01*
X125934011Y-51743946D01*
X125777762Y-51679225D01*
X125777755Y-51679223D01*
X125777753Y-51679222D01*
X125540277Y-51615591D01*
X125486417Y-51608500D01*
X125296534Y-51583500D01*
X125296527Y-51583500D01*
X125050673Y-51583500D01*
X125050665Y-51583500D01*
X124818659Y-51614045D01*
X124806923Y-51615591D01*
X124680372Y-51649500D01*
X124569447Y-51679222D01*
X124569437Y-51679225D01*
X124342314Y-51773303D01*
X124342305Y-51773307D01*
X124129387Y-51896236D01*
X123934345Y-52045897D01*
X123934338Y-52045903D01*
X123760503Y-52219738D01*
X123760497Y-52219745D01*
X123610836Y-52414787D01*
X123487907Y-52627705D01*
X123487903Y-52627714D01*
X123393825Y-52854837D01*
X123393822Y-52854847D01*
X123330192Y-53092320D01*
X123330190Y-53092331D01*
X123298100Y-53336065D01*
X119523883Y-53336065D01*
X119492438Y-53097211D01*
X119429654Y-52862900D01*
X119336824Y-52638788D01*
X119215536Y-52428711D01*
X119067865Y-52236262D01*
X119067860Y-52236256D01*
X118896343Y-52064739D01*
X118896336Y-52064733D01*
X118703893Y-51917067D01*
X118703892Y-51917066D01*
X118703889Y-51917064D01*
X118493812Y-51795776D01*
X118439567Y-51773307D01*
X118269704Y-51702947D01*
X118152544Y-51671554D01*
X118035389Y-51640162D01*
X118035388Y-51640161D01*
X118035385Y-51640161D01*
X117794889Y-51608500D01*
X117794888Y-51608500D01*
X117552312Y-51608500D01*
X117552311Y-51608500D01*
X117311814Y-51640161D01*
X117077495Y-51702947D01*
X116853394Y-51795773D01*
X116853385Y-51795777D01*
X116643306Y-51917067D01*
X116450863Y-52064733D01*
X116450856Y-52064739D01*
X116279339Y-52236256D01*
X116279333Y-52236263D01*
X116131667Y-52428706D01*
X116010377Y-52638785D01*
X116010373Y-52638794D01*
X115917547Y-52862895D01*
X115854761Y-53097214D01*
X115823100Y-53337711D01*
X97500000Y-53337711D01*
X97500000Y-51124000D01*
X97519685Y-51056961D01*
X97572489Y-51011206D01*
X97624000Y-51000000D01*
X139876000Y-51000000D01*
X139943039Y-51019685D01*
G37*
%TD.AperFunction*%
%TD*%
M02*
