%TF.GenerationSoftware,KiCad,Pcbnew,9.0.0*%
%TF.CreationDate,2025-04-04T18:35:25+03:00*%
%TF.ProjectId,encoder,656e636f-6465-4722-9e6b-696361645f70,rev?*%
%TF.SameCoordinates,Original*%
%TF.FileFunction,Soldermask,Bot*%
%TF.FilePolarity,Negative*%
%FSLAX46Y46*%
G04 Gerber Fmt 4.6, Leading zero omitted, Abs format (unit mm)*
G04 Created by KiCad (PCBNEW 9.0.0) date 2025-04-04 18:35:25*
%MOMM*%
%LPD*%
G01*
G04 APERTURE LIST*
G04 Aperture macros list*
%AMRoundRect*
0 Rectangle with rounded corners*
0 $1 Rounding radius*
0 $2 $3 $4 $5 $6 $7 $8 $9 X,Y pos of 4 corners*
0 Add a 4 corners polygon primitive as box body*
4,1,4,$2,$3,$4,$5,$6,$7,$8,$9,$2,$3,0*
0 Add four circle primitives for the rounded corners*
1,1,$1+$1,$2,$3*
1,1,$1+$1,$4,$5*
1,1,$1+$1,$6,$7*
1,1,$1+$1,$8,$9*
0 Add four rect primitives between the rounded corners*
20,1,$1+$1,$2,$3,$4,$5,0*
20,1,$1+$1,$4,$5,$6,$7,0*
20,1,$1+$1,$6,$7,$8,$9,0*
20,1,$1+$1,$8,$9,$2,$3,0*%
G04 Aperture macros list end*
%ADD10C,3.000000*%
%ADD11C,3.200000*%
%ADD12R,1.000000X1.000000*%
%ADD13C,1.000000*%
%ADD14C,3.250000*%
%ADD15RoundRect,0.250000X-0.650000X-0.650000X0.650000X-0.650000X0.650000X0.650000X-0.650000X0.650000X0*%
%ADD16C,1.800000*%
%ADD17C,1.500000*%
%ADD18RoundRect,0.381000X0.619000X0.381000X-0.619000X0.381000X-0.619000X-0.381000X0.619000X-0.381000X0*%
%ADD19RoundRect,0.381000X0.762000X0.381000X-0.762000X0.381000X-0.762000X-0.381000X0.762000X-0.381000X0*%
%ADD20C,4.000000*%
%ADD21R,1.600000X1.600000*%
%ADD22C,1.600000*%
%ADD23RoundRect,0.250000X-1.050000X1.050000X-1.050000X-1.050000X1.050000X-1.050000X1.050000X1.050000X0*%
%ADD24C,2.600000*%
%ADD25R,1.700000X1.700000*%
%ADD26C,1.700000*%
%ADD27C,3.500000*%
G04 APERTURE END LIST*
D10*
%TO.C,TP2*%
X129500000Y-111000000D03*
%TD*%
D11*
%TO.C,J11*%
X74500000Y-126500000D03*
%TD*%
%TO.C,J5*%
X74500000Y-53500000D03*
%TD*%
D10*
%TO.C,TP1*%
X129500000Y-106000000D03*
%TD*%
D11*
%TO.C,J7*%
X144500000Y-126500000D03*
%TD*%
D10*
%TO.C,TP3*%
X144000000Y-90000000D03*
%TD*%
D11*
%TO.C,J6*%
X144500000Y-53500000D03*
%TD*%
D12*
%TO.C,J3*%
X145246400Y-77435400D03*
D13*
X145246400Y-78705400D03*
X145246400Y-79975400D03*
X145246400Y-81245400D03*
X145246400Y-82515400D03*
X145246400Y-83785400D03*
%TD*%
D14*
%TO.C,J9*%
X117673600Y-53459000D03*
X125173600Y-53459000D03*
D15*
X119583600Y-59809000D03*
D16*
X120853600Y-62349000D03*
X122123600Y-59809000D03*
X123393600Y-62349000D03*
%TD*%
D17*
%TO.C,Y1*%
X111157400Y-97780000D03*
X111157400Y-102660000D03*
%TD*%
D18*
%TO.C,Q3*%
X100750800Y-82000000D03*
X98210800Y-82000000D03*
D19*
X93130800Y-82000000D03*
X88050800Y-82000000D03*
%TD*%
D18*
%TO.C,Q2*%
X100679200Y-115058400D03*
X98139200Y-115058400D03*
D19*
X93059200Y-115058400D03*
X87979200Y-115058400D03*
%TD*%
D20*
%TO.C,J8*%
X78870900Y-119604300D03*
X78870900Y-94604300D03*
D21*
X79170900Y-101564300D03*
D22*
X79170900Y-104334300D03*
X79170900Y-107104300D03*
X79170900Y-109874300D03*
X79170900Y-112644300D03*
X76330900Y-102949300D03*
X76330900Y-105719300D03*
X76330900Y-108489300D03*
X76330900Y-111259300D03*
%TD*%
D23*
%TO.C,J1*%
X143357600Y-114500000D03*
D24*
X143357600Y-119500000D03*
%TD*%
D20*
%TO.C,J10*%
X78942500Y-86545900D03*
X78942500Y-61545900D03*
D21*
X79242500Y-68505900D03*
D22*
X79242500Y-71275900D03*
X79242500Y-74045900D03*
X79242500Y-76815900D03*
X79242500Y-79585900D03*
X76402500Y-69890900D03*
X76402500Y-72660900D03*
X76402500Y-75430900D03*
X76402500Y-78200900D03*
%TD*%
D25*
%TO.C,J2*%
X140544800Y-102108000D03*
D26*
X140544800Y-99608000D03*
X142544800Y-99608000D03*
X142544800Y-102108000D03*
D27*
X145254800Y-94838000D03*
X145254800Y-106878000D03*
%TD*%
M02*
