%TF.GenerationSoftware,KiCad,Pcbnew,6.0.10*%
%TF.CreationDate,2023-03-13T17:30:16+03:00*%
%TF.ProjectId,Canon_manage,43616e6f-6e5f-46d6-916e-6167652e6b69,rev?*%
%TF.SameCoordinates,Original*%
%TF.FileFunction,Paste,Bot*%
%TF.FilePolarity,Positive*%
%FSLAX46Y46*%
G04 Gerber Fmt 4.6, Leading zero omitted, Abs format (unit mm)*
G04 Created by KiCad (PCBNEW 6.0.10) date 2023-03-13 17:30:16*
%MOMM*%
%LPD*%
G01*
G04 APERTURE LIST*
G04 Aperture macros list*
%AMRoundRect*
0 Rectangle with rounded corners*
0 $1 Rounding radius*
0 $2 $3 $4 $5 $6 $7 $8 $9 X,Y pos of 4 corners*
0 Add a 4 corners polygon primitive as box body*
4,1,4,$2,$3,$4,$5,$6,$7,$8,$9,$2,$3,0*
0 Add four circle primitives for the rounded corners*
1,1,$1+$1,$2,$3*
1,1,$1+$1,$4,$5*
1,1,$1+$1,$6,$7*
1,1,$1+$1,$8,$9*
0 Add four rect primitives between the rounded corners*
20,1,$1+$1,$2,$3,$4,$5,0*
20,1,$1+$1,$4,$5,$6,$7,0*
20,1,$1+$1,$6,$7,$8,$9,0*
20,1,$1+$1,$8,$9,$2,$3,0*%
G04 Aperture macros list end*
%ADD10RoundRect,0.237500X0.237500X-0.250000X0.237500X0.250000X-0.237500X0.250000X-0.237500X-0.250000X0*%
%ADD11RoundRect,0.237500X0.300000X0.237500X-0.300000X0.237500X-0.300000X-0.237500X0.300000X-0.237500X0*%
%ADD12R,0.450000X1.500000*%
%ADD13RoundRect,0.237500X-0.237500X0.300000X-0.237500X-0.300000X0.237500X-0.300000X0.237500X0.300000X0*%
%ADD14RoundRect,0.237500X0.250000X0.237500X-0.250000X0.237500X-0.250000X-0.237500X0.250000X-0.237500X0*%
%ADD15RoundRect,0.237500X-0.300000X-0.237500X0.300000X-0.237500X0.300000X0.237500X-0.300000X0.237500X0*%
%ADD16R,1.500000X2.000000*%
%ADD17R,3.800000X2.000000*%
%ADD18R,1.560000X0.650000*%
%ADD19RoundRect,0.250000X0.337500X0.475000X-0.337500X0.475000X-0.337500X-0.475000X0.337500X-0.475000X0*%
%ADD20RoundRect,0.237500X0.237500X-0.300000X0.237500X0.300000X-0.237500X0.300000X-0.237500X-0.300000X0*%
%ADD21R,2.000000X2.400000*%
%ADD22RoundRect,0.250000X-0.875000X-0.925000X0.875000X-0.925000X0.875000X0.925000X-0.875000X0.925000X0*%
%ADD23RoundRect,0.075000X0.075000X-0.662500X0.075000X0.662500X-0.075000X0.662500X-0.075000X-0.662500X0*%
%ADD24RoundRect,0.075000X0.662500X-0.075000X0.662500X0.075000X-0.662500X0.075000X-0.662500X-0.075000X0*%
G04 APERTURE END LIST*
D10*
%TO.C,R6*%
X104343200Y-53238400D03*
X104343200Y-51413400D03*
%TD*%
D11*
%TO.C,C5*%
X73784800Y-81965800D03*
X72059800Y-81965800D03*
%TD*%
D12*
%TO.C,Q1*%
X84774800Y-77022000D03*
X83474800Y-77022000D03*
X84124800Y-74362000D03*
%TD*%
D13*
%TO.C,C1*%
X82499200Y-95657500D03*
X82499200Y-97382500D03*
%TD*%
D14*
%TO.C,R7*%
X105306500Y-59563000D03*
X103481500Y-59563000D03*
%TD*%
D15*
%TO.C,C8*%
X75618000Y-92938600D03*
X77343000Y-92938600D03*
%TD*%
D16*
%TO.C,U2*%
X131227800Y-72135600D03*
X133527800Y-72135600D03*
D17*
X133527800Y-78435600D03*
D16*
X135827800Y-72135600D03*
%TD*%
D10*
%TO.C,R10*%
X81974800Y-76757200D03*
X81974800Y-74932200D03*
%TD*%
D18*
%TO.C,U3*%
X101092000Y-58867000D03*
X101092000Y-59817000D03*
X101092000Y-60767000D03*
X98392000Y-60767000D03*
X98392000Y-59817000D03*
X98392000Y-58867000D03*
%TD*%
D14*
%TO.C,R8*%
X105306500Y-61087000D03*
X103481500Y-61087000D03*
%TD*%
D19*
%TO.C,C3*%
X134518400Y-69392800D03*
X132443400Y-69392800D03*
%TD*%
D20*
%TO.C,C4*%
X82677000Y-82522400D03*
X82677000Y-80797400D03*
%TD*%
D10*
%TO.C,R9*%
X106900000Y-53212500D03*
X106900000Y-51387500D03*
%TD*%
D15*
%TO.C,C6*%
X82755400Y-91160600D03*
X84480400Y-91160600D03*
%TD*%
D21*
%TO.C,Y1*%
X80365600Y-95656400D03*
X76665600Y-95656400D03*
%TD*%
D13*
%TO.C,C2*%
X74574400Y-95657500D03*
X74574400Y-97382500D03*
%TD*%
D15*
%TO.C,C7*%
X133580800Y-81203800D03*
X135305800Y-81203800D03*
%TD*%
D22*
%TO.C,C9*%
X133558600Y-84658200D03*
X138658600Y-84658200D03*
%TD*%
D23*
%TO.C,U1*%
X80837500Y-90852500D03*
X80337500Y-90852500D03*
X79837500Y-90852500D03*
X79337500Y-90852500D03*
X78837500Y-90852500D03*
X78337500Y-90852500D03*
X77837500Y-90852500D03*
X77337500Y-90852500D03*
X76837500Y-90852500D03*
X76337500Y-90852500D03*
X75837500Y-90852500D03*
X75337500Y-90852500D03*
D24*
X73925000Y-89440000D03*
X73925000Y-88940000D03*
X73925000Y-88440000D03*
X73925000Y-87940000D03*
X73925000Y-87440000D03*
X73925000Y-86940000D03*
X73925000Y-86440000D03*
X73925000Y-85940000D03*
X73925000Y-85440000D03*
X73925000Y-84940000D03*
X73925000Y-84440000D03*
X73925000Y-83940000D03*
D23*
X75337500Y-82527500D03*
X75837500Y-82527500D03*
X76337500Y-82527500D03*
X76837500Y-82527500D03*
X77337500Y-82527500D03*
X77837500Y-82527500D03*
X78337500Y-82527500D03*
X78837500Y-82527500D03*
X79337500Y-82527500D03*
X79837500Y-82527500D03*
X80337500Y-82527500D03*
X80837500Y-82527500D03*
D24*
X82250000Y-83940000D03*
X82250000Y-84440000D03*
X82250000Y-84940000D03*
X82250000Y-85440000D03*
X82250000Y-85940000D03*
X82250000Y-86440000D03*
X82250000Y-86940000D03*
X82250000Y-87440000D03*
X82250000Y-87940000D03*
X82250000Y-88440000D03*
X82250000Y-88940000D03*
X82250000Y-89440000D03*
%TD*%
M02*
