%TF.GenerationSoftware,KiCad,Pcbnew,6.0.10*%
%TF.CreationDate,2023-03-13T17:30:16+03:00*%
%TF.ProjectId,Canon_manage,43616e6f-6e5f-46d6-916e-6167652e6b69,rev?*%
%TF.SameCoordinates,Original*%
%TF.FileFunction,Legend,Top*%
%TF.FilePolarity,Positive*%
%FSLAX46Y46*%
G04 Gerber Fmt 4.6, Leading zero omitted, Abs format (unit mm)*
G04 Created by KiCad (PCBNEW 6.0.10) date 2023-03-13 17:30:16*
%MOMM*%
%LPD*%
G01*
G04 APERTURE LIST*
%ADD10C,0.150000*%
%ADD11C,0.400000*%
%ADD12C,0.120000*%
G04 APERTURE END LIST*
D10*
X72728776Y-88035809D02*
X72871633Y-88073904D01*
X73109728Y-88073904D01*
X73204966Y-88035809D01*
X73252585Y-87997714D01*
X73300204Y-87921523D01*
X73300204Y-87845333D01*
X73252585Y-87769142D01*
X73204966Y-87731047D01*
X73109728Y-87692952D01*
X72919252Y-87654857D01*
X72824014Y-87616761D01*
X72776395Y-87578666D01*
X72728776Y-87502476D01*
X72728776Y-87426285D01*
X72776395Y-87350095D01*
X72824014Y-87312000D01*
X72919252Y-87273904D01*
X73157347Y-87273904D01*
X73300204Y-87312000D01*
X73633538Y-87273904D02*
X73871633Y-88073904D01*
X74062109Y-87502476D01*
X74252585Y-88073904D01*
X74490680Y-87273904D01*
X75443061Y-87997714D02*
X75395442Y-88035809D01*
X75252585Y-88073904D01*
X75157347Y-88073904D01*
X75014490Y-88035809D01*
X74919252Y-87959619D01*
X74871633Y-87883428D01*
X74824014Y-87731047D01*
X74824014Y-87616761D01*
X74871633Y-87464380D01*
X74919252Y-87388190D01*
X75014490Y-87312000D01*
X75157347Y-87273904D01*
X75252585Y-87273904D01*
X75395442Y-87312000D01*
X75443061Y-87350095D01*
X76347823Y-88073904D02*
X75871633Y-88073904D01*
X75871633Y-87273904D01*
X76681157Y-88073904D02*
X76681157Y-87273904D01*
X77252585Y-88073904D02*
X76824014Y-87616761D01*
X77252585Y-87273904D02*
X76681157Y-87731047D01*
X72728776Y-89323809D02*
X72871633Y-89361904D01*
X73109728Y-89361904D01*
X73204966Y-89323809D01*
X73252585Y-89285714D01*
X73300204Y-89209523D01*
X73300204Y-89133333D01*
X73252585Y-89057142D01*
X73204966Y-89019047D01*
X73109728Y-88980952D01*
X72919252Y-88942857D01*
X72824014Y-88904761D01*
X72776395Y-88866666D01*
X72728776Y-88790476D01*
X72728776Y-88714285D01*
X72776395Y-88638095D01*
X72824014Y-88600000D01*
X72919252Y-88561904D01*
X73157347Y-88561904D01*
X73300204Y-88600000D01*
X73633538Y-88561904D02*
X73871633Y-89361904D01*
X74062109Y-88790476D01*
X74252585Y-89361904D01*
X74490680Y-88561904D01*
X74871633Y-89361904D02*
X74871633Y-88561904D01*
X75109728Y-88561904D01*
X75252585Y-88600000D01*
X75347823Y-88676190D01*
X75395442Y-88752380D01*
X75443061Y-88904761D01*
X75443061Y-89019047D01*
X75395442Y-89171428D01*
X75347823Y-89247619D01*
X75252585Y-89323809D01*
X75109728Y-89361904D01*
X74871633Y-89361904D01*
X75871633Y-89361904D02*
X75871633Y-88561904D01*
X76538300Y-88561904D02*
X76728776Y-88561904D01*
X76824014Y-88600000D01*
X76919252Y-88676190D01*
X76966871Y-88828571D01*
X76966871Y-89095238D01*
X76919252Y-89247619D01*
X76824014Y-89323809D01*
X76728776Y-89361904D01*
X76538300Y-89361904D01*
X76443061Y-89323809D01*
X76347823Y-89247619D01*
X76300204Y-89095238D01*
X76300204Y-88828571D01*
X76347823Y-88676190D01*
X76443061Y-88600000D01*
X76538300Y-88561904D01*
X73300204Y-89888000D02*
X73204966Y-89849904D01*
X73062109Y-89849904D01*
X72919252Y-89888000D01*
X72824014Y-89964190D01*
X72776395Y-90040380D01*
X72728776Y-90192761D01*
X72728776Y-90307047D01*
X72776395Y-90459428D01*
X72824014Y-90535619D01*
X72919252Y-90611809D01*
X73062109Y-90649904D01*
X73157347Y-90649904D01*
X73300204Y-90611809D01*
X73347823Y-90573714D01*
X73347823Y-90307047D01*
X73157347Y-90307047D01*
X73776395Y-90649904D02*
X73776395Y-89849904D01*
X74347823Y-90649904D01*
X74347823Y-89849904D01*
X74824014Y-90649904D02*
X74824014Y-89849904D01*
X75062109Y-89849904D01*
X75204966Y-89888000D01*
X75300204Y-89964190D01*
X75347823Y-90040380D01*
X75395442Y-90192761D01*
X75395442Y-90307047D01*
X75347823Y-90459428D01*
X75300204Y-90535619D01*
X75204966Y-90611809D01*
X75062109Y-90649904D01*
X74824014Y-90649904D01*
X72681157Y-91137904D02*
X73300204Y-91137904D01*
X72966871Y-91442666D01*
X73109728Y-91442666D01*
X73204966Y-91480761D01*
X73252585Y-91518857D01*
X73300204Y-91595047D01*
X73300204Y-91785523D01*
X73252585Y-91861714D01*
X73204966Y-91899809D01*
X73109728Y-91937904D01*
X72824014Y-91937904D01*
X72728776Y-91899809D01*
X72681157Y-91861714D01*
X73585919Y-91137904D02*
X73919252Y-91937904D01*
X74252585Y-91137904D01*
X74490680Y-91137904D02*
X75109728Y-91137904D01*
X74776395Y-91442666D01*
X74919252Y-91442666D01*
X75014490Y-91480761D01*
X75062109Y-91518857D01*
X75109728Y-91595047D01*
X75109728Y-91785523D01*
X75062109Y-91861714D01*
X75014490Y-91899809D01*
X74919252Y-91937904D01*
X74633538Y-91937904D01*
X74538300Y-91899809D01*
X74490680Y-91861714D01*
X73109728Y-92806857D02*
X73252585Y-92844952D01*
X73300204Y-92883047D01*
X73347823Y-92959238D01*
X73347823Y-93073523D01*
X73300204Y-93149714D01*
X73252585Y-93187809D01*
X73157347Y-93225904D01*
X72776395Y-93225904D01*
X72776395Y-92425904D01*
X73109728Y-92425904D01*
X73204966Y-92464000D01*
X73252585Y-92502095D01*
X73300204Y-92578285D01*
X73300204Y-92654476D01*
X73252585Y-92730666D01*
X73204966Y-92768761D01*
X73109728Y-92806857D01*
X72776395Y-92806857D01*
X73966871Y-92425904D02*
X74157347Y-92425904D01*
X74252585Y-92464000D01*
X74347823Y-92540190D01*
X74395442Y-92692571D01*
X74395442Y-92959238D01*
X74347823Y-93111619D01*
X74252585Y-93187809D01*
X74157347Y-93225904D01*
X73966871Y-93225904D01*
X73871633Y-93187809D01*
X73776395Y-93111619D01*
X73728776Y-92959238D01*
X73728776Y-92692571D01*
X73776395Y-92540190D01*
X73871633Y-92464000D01*
X73966871Y-92425904D01*
X75014490Y-92425904D02*
X75204966Y-92425904D01*
X75300204Y-92464000D01*
X75395442Y-92540190D01*
X75443061Y-92692571D01*
X75443061Y-92959238D01*
X75395442Y-93111619D01*
X75300204Y-93187809D01*
X75204966Y-93225904D01*
X75014490Y-93225904D01*
X74919252Y-93187809D01*
X74824014Y-93111619D01*
X74776395Y-92959238D01*
X74776395Y-92692571D01*
X74824014Y-92540190D01*
X74919252Y-92464000D01*
X75014490Y-92425904D01*
X75728776Y-92425904D02*
X76300204Y-92425904D01*
X76014490Y-93225904D02*
X76014490Y-92425904D01*
X76824014Y-92425904D02*
X76919252Y-92425904D01*
X77014490Y-92464000D01*
X77062109Y-92502095D01*
X77109728Y-92578285D01*
X77157347Y-92730666D01*
X77157347Y-92921142D01*
X77109728Y-93073523D01*
X77062109Y-93149714D01*
X77014490Y-93187809D01*
X76919252Y-93225904D01*
X76824014Y-93225904D01*
X76728776Y-93187809D01*
X76681157Y-93149714D01*
X76633538Y-93073523D01*
X76585919Y-92921142D01*
X76585919Y-92730666D01*
X76633538Y-92578285D01*
X76681157Y-92502095D01*
X76728776Y-92464000D01*
X76824014Y-92425904D01*
X72776395Y-94513904D02*
X72776395Y-93713904D01*
X73347823Y-94513904D01*
X73347823Y-93713904D01*
X74395442Y-94513904D02*
X74062109Y-94132952D01*
X73824014Y-94513904D02*
X73824014Y-93713904D01*
X74204966Y-93713904D01*
X74300204Y-93752000D01*
X74347823Y-93790095D01*
X74395442Y-93866285D01*
X74395442Y-93980571D01*
X74347823Y-94056761D01*
X74300204Y-94094857D01*
X74204966Y-94132952D01*
X73824014Y-94132952D01*
X74776395Y-94475809D02*
X74919252Y-94513904D01*
X75157347Y-94513904D01*
X75252585Y-94475809D01*
X75300204Y-94437714D01*
X75347823Y-94361523D01*
X75347823Y-94285333D01*
X75300204Y-94209142D01*
X75252585Y-94171047D01*
X75157347Y-94132952D01*
X74966871Y-94094857D01*
X74871633Y-94056761D01*
X74824014Y-94018666D01*
X74776395Y-93942476D01*
X74776395Y-93866285D01*
X74824014Y-93790095D01*
X74871633Y-93752000D01*
X74966871Y-93713904D01*
X75204966Y-93713904D01*
X75347823Y-93752000D01*
X75633538Y-93713904D02*
X76204966Y-93713904D01*
X75919252Y-94513904D02*
X75919252Y-93713904D01*
D11*
X127959219Y-92224361D02*
X129197314Y-92224361D01*
X128530647Y-92986266D01*
X128816361Y-92986266D01*
X129006838Y-93081504D01*
X129102076Y-93176742D01*
X129197314Y-93367219D01*
X129197314Y-93843409D01*
X129102076Y-94033885D01*
X129006838Y-94129123D01*
X128816361Y-94224361D01*
X128244933Y-94224361D01*
X128054457Y-94129123D01*
X127959219Y-94033885D01*
X130054457Y-94033885D02*
X130149695Y-94129123D01*
X130054457Y-94224361D01*
X129959219Y-94129123D01*
X130054457Y-94033885D01*
X130054457Y-94224361D01*
X130816361Y-92224361D02*
X132054457Y-92224361D01*
X131387790Y-92986266D01*
X131673504Y-92986266D01*
X131863980Y-93081504D01*
X131959219Y-93176742D01*
X132054457Y-93367219D01*
X132054457Y-93843409D01*
X131959219Y-94033885D01*
X131863980Y-94129123D01*
X131673504Y-94224361D01*
X131102076Y-94224361D01*
X130911600Y-94129123D01*
X130816361Y-94033885D01*
X132625885Y-92224361D02*
X133292552Y-94224361D01*
X133959219Y-92224361D01*
X128073209Y-74576952D02*
X126882733Y-74576952D01*
X126763685Y-75767428D01*
X126882733Y-75648380D01*
X127120828Y-75529333D01*
X127716066Y-75529333D01*
X127954161Y-75648380D01*
X128073209Y-75767428D01*
X128192257Y-76005523D01*
X128192257Y-76600761D01*
X128073209Y-76838857D01*
X127954161Y-76957904D01*
X127716066Y-77076952D01*
X127120828Y-77076952D01*
X126882733Y-76957904D01*
X126763685Y-76838857D01*
X128906542Y-74576952D02*
X129739876Y-77076952D01*
X130573209Y-74576952D01*
X137347485Y-92116400D02*
X137157009Y-92021161D01*
X136871295Y-92021161D01*
X136585580Y-92116400D01*
X136395104Y-92306876D01*
X136299866Y-92497352D01*
X136204628Y-92878304D01*
X136204628Y-93164019D01*
X136299866Y-93544971D01*
X136395104Y-93735447D01*
X136585580Y-93925923D01*
X136871295Y-94021161D01*
X137061771Y-94021161D01*
X137347485Y-93925923D01*
X137442723Y-93830685D01*
X137442723Y-93164019D01*
X137061771Y-93164019D01*
X138299866Y-92687828D02*
X138299866Y-94021161D01*
X138299866Y-92878304D02*
X138395104Y-92783066D01*
X138585580Y-92687828D01*
X138871295Y-92687828D01*
X139061771Y-92783066D01*
X139157009Y-92973542D01*
X139157009Y-94021161D01*
X140966533Y-94021161D02*
X140966533Y-92021161D01*
X140966533Y-93925923D02*
X140776057Y-94021161D01*
X140395104Y-94021161D01*
X140204628Y-93925923D01*
X140109390Y-93830685D01*
X140014152Y-93640209D01*
X140014152Y-93068780D01*
X140109390Y-92878304D01*
X140204628Y-92783066D01*
X140395104Y-92687828D01*
X140776057Y-92687828D01*
X140966533Y-92783066D01*
D10*
%TO.C,J6*%
X104389180Y-63090228D02*
X103389180Y-63090228D01*
X104103466Y-62756895D01*
X103389180Y-62423561D01*
X104389180Y-62423561D01*
X103389180Y-61756895D02*
X103389180Y-61566419D01*
X103436800Y-61471180D01*
X103532038Y-61375942D01*
X103722514Y-61328323D01*
X104055847Y-61328323D01*
X104246323Y-61375942D01*
X104341561Y-61471180D01*
X104389180Y-61566419D01*
X104389180Y-61756895D01*
X104341561Y-61852133D01*
X104246323Y-61947371D01*
X104055847Y-61994990D01*
X103722514Y-61994990D01*
X103532038Y-61947371D01*
X103436800Y-61852133D01*
X103389180Y-61756895D01*
X104341561Y-60947371D02*
X104389180Y-60804514D01*
X104389180Y-60566419D01*
X104341561Y-60471180D01*
X104293942Y-60423561D01*
X104198704Y-60375942D01*
X104103466Y-60375942D01*
X104008228Y-60423561D01*
X103960609Y-60471180D01*
X103912990Y-60566419D01*
X103865371Y-60756895D01*
X103817752Y-60852133D01*
X103770133Y-60899752D01*
X103674895Y-60947371D01*
X103579657Y-60947371D01*
X103484419Y-60899752D01*
X103436800Y-60852133D01*
X103389180Y-60756895D01*
X103389180Y-60518800D01*
X103436800Y-60375942D01*
X104389180Y-59947371D02*
X103389180Y-59947371D01*
%TO.C,J3*%
X112466380Y-63442742D02*
X112466380Y-63918933D01*
X111466380Y-63918933D01*
X112466380Y-62680838D02*
X111466380Y-62680838D01*
X112418761Y-62680838D02*
X112466380Y-62776076D01*
X112466380Y-62966552D01*
X112418761Y-63061790D01*
X112371142Y-63109409D01*
X112275904Y-63157028D01*
X111990190Y-63157028D01*
X111894952Y-63109409D01*
X111847333Y-63061790D01*
X111799714Y-62966552D01*
X111799714Y-62776076D01*
X111847333Y-62680838D01*
X112418761Y-61823695D02*
X112466380Y-61918933D01*
X112466380Y-62109409D01*
X112418761Y-62204647D01*
X112323523Y-62252266D01*
X111942571Y-62252266D01*
X111847333Y-62204647D01*
X111799714Y-62109409D01*
X111799714Y-61918933D01*
X111847333Y-61823695D01*
X111942571Y-61776076D01*
X112037809Y-61776076D01*
X112133047Y-62252266D01*
X111799714Y-61490361D02*
X111799714Y-61109409D01*
X111466380Y-61347504D02*
X112323523Y-61347504D01*
X112418761Y-61299885D01*
X112466380Y-61204647D01*
X112466380Y-61109409D01*
%TO.C,J4*%
X110129580Y-63490266D02*
X109129580Y-63490266D01*
X109129580Y-63109314D01*
X109177200Y-63014076D01*
X109224819Y-62966457D01*
X109320057Y-62918838D01*
X109462914Y-62918838D01*
X109558152Y-62966457D01*
X109605771Y-63014076D01*
X109653390Y-63109314D01*
X109653390Y-63490266D01*
X109177200Y-61966457D02*
X109129580Y-62061695D01*
X109129580Y-62204552D01*
X109177200Y-62347409D01*
X109272438Y-62442647D01*
X109367676Y-62490266D01*
X109558152Y-62537885D01*
X109701009Y-62537885D01*
X109891485Y-62490266D01*
X109986723Y-62442647D01*
X110081961Y-62347409D01*
X110129580Y-62204552D01*
X110129580Y-62109314D01*
X110081961Y-61966457D01*
X110034342Y-61918838D01*
X109701009Y-61918838D01*
X109701009Y-62109314D01*
X109462914Y-61490266D02*
X110129580Y-61490266D01*
X109558152Y-61490266D02*
X109510533Y-61442647D01*
X109462914Y-61347409D01*
X109462914Y-61204552D01*
X109510533Y-61109314D01*
X109605771Y-61061695D01*
X110129580Y-61061695D01*
X110129580Y-60156933D02*
X109129580Y-60156933D01*
X110081961Y-60156933D02*
X110129580Y-60252171D01*
X110129580Y-60442647D01*
X110081961Y-60537885D01*
X110034342Y-60585504D01*
X109939104Y-60633123D01*
X109653390Y-60633123D01*
X109558152Y-60585504D01*
X109510533Y-60537885D01*
X109462914Y-60442647D01*
X109462914Y-60252171D01*
X109510533Y-60156933D01*
%TO.C,J8*%
X99964761Y-64245714D02*
X100012380Y-64102857D01*
X100012380Y-63864761D01*
X99964761Y-63769523D01*
X99917142Y-63721904D01*
X99821904Y-63674285D01*
X99726666Y-63674285D01*
X99631428Y-63721904D01*
X99583809Y-63769523D01*
X99536190Y-63864761D01*
X99488571Y-64055238D01*
X99440952Y-64150476D01*
X99393333Y-64198095D01*
X99298095Y-64245714D01*
X99202857Y-64245714D01*
X99107619Y-64198095D01*
X99060000Y-64150476D01*
X99012380Y-64055238D01*
X99012380Y-63817142D01*
X99060000Y-63674285D01*
X99917142Y-62674285D02*
X99964761Y-62721904D01*
X100012380Y-62864761D01*
X100012380Y-62960000D01*
X99964761Y-63102857D01*
X99869523Y-63198095D01*
X99774285Y-63245714D01*
X99583809Y-63293333D01*
X99440952Y-63293333D01*
X99250476Y-63245714D01*
X99155238Y-63198095D01*
X99060000Y-63102857D01*
X99012380Y-62960000D01*
X99012380Y-62864761D01*
X99060000Y-62721904D01*
X99107619Y-62674285D01*
X100012380Y-62245714D02*
X99012380Y-62245714D01*
X100012380Y-61674285D02*
X99440952Y-62102857D01*
X99012380Y-61674285D02*
X99583809Y-62245714D01*
%TO.C,D1*%
X78702904Y-85415380D02*
X78702904Y-84415380D01*
X78941000Y-84415380D01*
X79083857Y-84463000D01*
X79179095Y-84558238D01*
X79226714Y-84653476D01*
X79274333Y-84843952D01*
X79274333Y-84986809D01*
X79226714Y-85177285D01*
X79179095Y-85272523D01*
X79083857Y-85367761D01*
X78941000Y-85415380D01*
X78702904Y-85415380D01*
X80226714Y-85415380D02*
X79655285Y-85415380D01*
X79941000Y-85415380D02*
X79941000Y-84415380D01*
X79845761Y-84558238D01*
X79750523Y-84653476D01*
X79655285Y-84701095D01*
%TO.C,U4*%
X95402495Y-52690780D02*
X95402495Y-53500304D01*
X95450114Y-53595542D01*
X95497733Y-53643161D01*
X95592971Y-53690780D01*
X95783447Y-53690780D01*
X95878685Y-53643161D01*
X95926304Y-53595542D01*
X95973923Y-53500304D01*
X95973923Y-52690780D01*
X96878685Y-53024114D02*
X96878685Y-53690780D01*
X96640590Y-52643161D02*
X96402495Y-53357447D01*
X97021542Y-53357447D01*
%TO.C,J9*%
X97785180Y-64442838D02*
X97785180Y-64919028D01*
X96785180Y-64919028D01*
X96832800Y-63585695D02*
X96785180Y-63680933D01*
X96785180Y-63823790D01*
X96832800Y-63966647D01*
X96928038Y-64061885D01*
X97023276Y-64109504D01*
X97213752Y-64157123D01*
X97356609Y-64157123D01*
X97547085Y-64109504D01*
X97642323Y-64061885D01*
X97737561Y-63966647D01*
X97785180Y-63823790D01*
X97785180Y-63728552D01*
X97737561Y-63585695D01*
X97689942Y-63538076D01*
X97356609Y-63538076D01*
X97356609Y-63728552D01*
X97118514Y-63109504D02*
X97785180Y-63109504D01*
X97213752Y-63109504D02*
X97166133Y-63061885D01*
X97118514Y-62966647D01*
X97118514Y-62823790D01*
X97166133Y-62728552D01*
X97261371Y-62680933D01*
X97785180Y-62680933D01*
X97785180Y-61776171D02*
X96785180Y-61776171D01*
X97737561Y-61776171D02*
X97785180Y-61871409D01*
X97785180Y-62061885D01*
X97737561Y-62157123D01*
X97689942Y-62204742D01*
X97594704Y-62252361D01*
X97308990Y-62252361D01*
X97213752Y-62204742D01*
X97166133Y-62157123D01*
X97118514Y-62061885D01*
X97118514Y-61871409D01*
X97166133Y-61776171D01*
%TO.C,R3*%
X75609999Y-74925180D02*
X75276666Y-74448990D01*
X75038570Y-74925180D02*
X75038570Y-73925180D01*
X75419523Y-73925180D01*
X75514761Y-73972800D01*
X75562380Y-74020419D01*
X75609999Y-74115657D01*
X75609999Y-74258514D01*
X75562380Y-74353752D01*
X75514761Y-74401371D01*
X75419523Y-74448990D01*
X75038570Y-74448990D01*
X75943332Y-73925180D02*
X76562380Y-73925180D01*
X76229046Y-74306133D01*
X76371904Y-74306133D01*
X76467142Y-74353752D01*
X76514761Y-74401371D01*
X76562380Y-74496609D01*
X76562380Y-74734704D01*
X76514761Y-74829942D01*
X76467142Y-74877561D01*
X76371904Y-74925180D01*
X76086189Y-74925180D01*
X75990951Y-74877561D01*
X75943332Y-74829942D01*
%TO.C,J37*%
X111433076Y-53401980D02*
X111433076Y-54116266D01*
X111385457Y-54259123D01*
X111290219Y-54354361D01*
X111147361Y-54401980D01*
X111052123Y-54401980D01*
X111814028Y-53401980D02*
X112433076Y-53401980D01*
X112099742Y-53782933D01*
X112242600Y-53782933D01*
X112337838Y-53830552D01*
X112385457Y-53878171D01*
X112433076Y-53973409D01*
X112433076Y-54211504D01*
X112385457Y-54306742D01*
X112337838Y-54354361D01*
X112242600Y-54401980D01*
X111956885Y-54401980D01*
X111861647Y-54354361D01*
X111814028Y-54306742D01*
X112766409Y-53401980D02*
X113433076Y-53401980D01*
X113004504Y-54401980D01*
%TO.C,J2*%
X114549180Y-64647676D02*
X113549180Y-64647676D01*
X113549180Y-64266723D01*
X113596800Y-64171485D01*
X113644419Y-64123866D01*
X113739657Y-64076247D01*
X113882514Y-64076247D01*
X113977752Y-64123866D01*
X114025371Y-64171485D01*
X114072990Y-64266723D01*
X114072990Y-64647676D01*
X113549180Y-63790533D02*
X114549180Y-63457200D01*
X113549180Y-63123866D01*
%TO.C,J7*%
X102103180Y-63445828D02*
X101103180Y-63445828D01*
X101817466Y-63112495D01*
X101103180Y-62779161D01*
X102103180Y-62779161D01*
X102103180Y-62302971D02*
X101103180Y-62302971D01*
X102055561Y-61874400D02*
X102103180Y-61731542D01*
X102103180Y-61493447D01*
X102055561Y-61398209D01*
X102007942Y-61350590D01*
X101912704Y-61302971D01*
X101817466Y-61302971D01*
X101722228Y-61350590D01*
X101674609Y-61398209D01*
X101626990Y-61493447D01*
X101579371Y-61683923D01*
X101531752Y-61779161D01*
X101484133Y-61826780D01*
X101388895Y-61874400D01*
X101293657Y-61874400D01*
X101198419Y-61826780D01*
X101150800Y-61779161D01*
X101103180Y-61683923D01*
X101103180Y-61445828D01*
X101150800Y-61302971D01*
X101103180Y-60683923D02*
X101103180Y-60493447D01*
X101150800Y-60398209D01*
X101246038Y-60302971D01*
X101436514Y-60255352D01*
X101769847Y-60255352D01*
X101960323Y-60302971D01*
X102055561Y-60398209D01*
X102103180Y-60493447D01*
X102103180Y-60683923D01*
X102055561Y-60779161D01*
X101960323Y-60874400D01*
X101769847Y-60922019D01*
X101436514Y-60922019D01*
X101246038Y-60874400D01*
X101150800Y-60779161D01*
X101103180Y-60683923D01*
%TO.C,R4*%
X77176333Y-76117080D02*
X76843000Y-75640890D01*
X76604904Y-76117080D02*
X76604904Y-75117080D01*
X76985857Y-75117080D01*
X77081095Y-75164700D01*
X77128714Y-75212319D01*
X77176333Y-75307557D01*
X77176333Y-75450414D01*
X77128714Y-75545652D01*
X77081095Y-75593271D01*
X76985857Y-75640890D01*
X76604904Y-75640890D01*
X78033476Y-75450414D02*
X78033476Y-76117080D01*
X77795380Y-75069461D02*
X77557285Y-75783747D01*
X78176333Y-75783747D01*
%TO.C,J5*%
X106725980Y-62603047D02*
X106725980Y-63079238D01*
X105725980Y-63079238D01*
X105725980Y-62412571D02*
X106725980Y-62079238D01*
X105725980Y-61745904D01*
%TO.C,R2*%
X74001333Y-76040880D02*
X73668000Y-75564690D01*
X73429904Y-76040880D02*
X73429904Y-75040880D01*
X73810857Y-75040880D01*
X73906095Y-75088500D01*
X73953714Y-75136119D01*
X74001333Y-75231357D01*
X74001333Y-75374214D01*
X73953714Y-75469452D01*
X73906095Y-75517071D01*
X73810857Y-75564690D01*
X73429904Y-75564690D01*
X74382285Y-75136119D02*
X74429904Y-75088500D01*
X74525142Y-75040880D01*
X74763238Y-75040880D01*
X74858476Y-75088500D01*
X74906095Y-75136119D01*
X74953714Y-75231357D01*
X74953714Y-75326595D01*
X74906095Y-75469452D01*
X74334666Y-76040880D01*
X74953714Y-76040880D01*
%TO.C,R5*%
X78810399Y-74925180D02*
X78477066Y-74448990D01*
X78238970Y-74925180D02*
X78238970Y-73925180D01*
X78619923Y-73925180D01*
X78715161Y-73972800D01*
X78762780Y-74020419D01*
X78810399Y-74115657D01*
X78810399Y-74258514D01*
X78762780Y-74353752D01*
X78715161Y-74401371D01*
X78619923Y-74448990D01*
X78238970Y-74448990D01*
X79715161Y-73925180D02*
X79238970Y-73925180D01*
X79191351Y-74401371D01*
X79238970Y-74353752D01*
X79334208Y-74306133D01*
X79572304Y-74306133D01*
X79667542Y-74353752D01*
X79715161Y-74401371D01*
X79762780Y-74496609D01*
X79762780Y-74734704D01*
X79715161Y-74829942D01*
X79667542Y-74877561D01*
X79572304Y-74925180D01*
X79334208Y-74925180D01*
X79238970Y-74877561D01*
X79191351Y-74829942D01*
%TO.C,R11*%
X89628742Y-59888380D02*
X89295409Y-59412190D01*
X89057314Y-59888380D02*
X89057314Y-58888380D01*
X89438266Y-58888380D01*
X89533504Y-58936000D01*
X89581123Y-58983619D01*
X89628742Y-59078857D01*
X89628742Y-59221714D01*
X89581123Y-59316952D01*
X89533504Y-59364571D01*
X89438266Y-59412190D01*
X89057314Y-59412190D01*
X90581123Y-59888380D02*
X90009695Y-59888380D01*
X90295409Y-59888380D02*
X90295409Y-58888380D01*
X90200171Y-59031238D01*
X90104933Y-59126476D01*
X90009695Y-59174095D01*
X91533504Y-59888380D02*
X90962076Y-59888380D01*
X91247790Y-59888380D02*
X91247790Y-58888380D01*
X91152552Y-59031238D01*
X91057314Y-59126476D01*
X90962076Y-59174095D01*
%TO.C,J1*%
X70431066Y-82796580D02*
X70431066Y-83510866D01*
X70383447Y-83653723D01*
X70288209Y-83748961D01*
X70145352Y-83796580D01*
X70050114Y-83796580D01*
X71431066Y-83796580D02*
X70859638Y-83796580D01*
X71145352Y-83796580D02*
X71145352Y-82796580D01*
X71050114Y-82939438D01*
X70954876Y-83034676D01*
X70859638Y-83082295D01*
%TO.C,R1*%
X79308033Y-92788980D02*
X78974700Y-92312790D01*
X78736604Y-92788980D02*
X78736604Y-91788980D01*
X79117557Y-91788980D01*
X79212795Y-91836600D01*
X79260414Y-91884219D01*
X79308033Y-91979457D01*
X79308033Y-92122314D01*
X79260414Y-92217552D01*
X79212795Y-92265171D01*
X79117557Y-92312790D01*
X78736604Y-92312790D01*
X80260414Y-92788980D02*
X79688985Y-92788980D01*
X79974700Y-92788980D02*
X79974700Y-91788980D01*
X79879461Y-91931838D01*
X79784223Y-92027076D01*
X79688985Y-92074695D01*
D12*
%TO.C,D1*%
X78283200Y-84906700D02*
X78283200Y-85706700D01*
X75163200Y-84906700D02*
X75163200Y-84106700D01*
X75163200Y-84906700D02*
X75163200Y-85706700D01*
X78283200Y-84906700D02*
X78283200Y-83106700D01*
%TO.C,U4*%
X96946400Y-57658000D02*
X96946400Y-59608000D01*
X91826400Y-57658000D02*
X91826400Y-61108000D01*
X91826400Y-57658000D02*
X91826400Y-55708000D01*
X96946400Y-57658000D02*
X96946400Y-55708000D01*
%TO.C,R3*%
X75254166Y-78232724D02*
X75254166Y-77723276D01*
X76299166Y-78232724D02*
X76299166Y-77723276D01*
%TO.C,J37*%
X100910000Y-49470000D02*
X100910000Y-47570000D01*
X110310000Y-49470000D02*
X110310000Y-47570000D01*
X100910000Y-53370000D02*
X100910000Y-51370000D01*
X110310000Y-47570000D02*
X100910000Y-47570000D01*
X110310000Y-53370000D02*
X110310000Y-51370000D01*
%TO.C,R4*%
X77857032Y-78232724D02*
X77857032Y-77723276D01*
X76812032Y-78232724D02*
X76812032Y-77723276D01*
%TO.C,J35*%
X137303200Y-90830400D02*
X139963200Y-90830400D01*
X137303200Y-89560400D02*
X137303200Y-88230400D01*
X137303200Y-90890400D02*
X139963200Y-90890400D01*
X137303200Y-90830400D02*
X137303200Y-90890400D01*
X139963200Y-90830400D02*
X139963200Y-90890400D01*
X137303200Y-88230400D02*
X138633200Y-88230400D01*
%TO.C,R2*%
X73696300Y-78232724D02*
X73696300Y-77723276D01*
X74741300Y-78232724D02*
X74741300Y-77723276D01*
%TO.C,R5*%
X79414900Y-78232724D02*
X79414900Y-77723276D01*
X78369900Y-78232724D02*
X78369900Y-77723276D01*
%TO.C,R11*%
X90104700Y-57252324D02*
X90104700Y-56742876D01*
X91149700Y-57252324D02*
X91149700Y-56742876D01*
%TO.C,J26*%
X126279600Y-70907600D02*
X127609600Y-70907600D01*
X126279600Y-72237600D02*
X126279600Y-70907600D01*
X126279600Y-73507600D02*
X126279600Y-73567600D01*
X128939600Y-73507600D02*
X128939600Y-73567600D01*
X126279600Y-73567600D02*
X128939600Y-73567600D01*
X126279600Y-73507600D02*
X128939600Y-73507600D01*
%TO.C,J1*%
X69654400Y-84279200D02*
X70764400Y-84279200D01*
X69654400Y-85799200D02*
X69654400Y-92084200D01*
X71071930Y-92084200D02*
X71874400Y-92084200D01*
X69654400Y-85799200D02*
X70200929Y-85799200D01*
X69654400Y-92084200D02*
X70456870Y-92084200D01*
X71327871Y-85799200D02*
X71874400Y-85799200D01*
X69654400Y-85039200D02*
X69654400Y-84279200D01*
X71874400Y-85799200D02*
X71874400Y-92084200D01*
%TO.C,R1*%
X79729424Y-90384100D02*
X79219976Y-90384100D01*
X79729424Y-91429100D02*
X79219976Y-91429100D01*
%TO.C,J36*%
X132020000Y-90830400D02*
X134680000Y-90830400D01*
X132020000Y-89560400D02*
X132020000Y-88230400D01*
X132020000Y-88230400D02*
X133350000Y-88230400D01*
X134680000Y-90830400D02*
X134680000Y-90890400D01*
X132020000Y-90830400D02*
X132020000Y-90890400D01*
X132020000Y-90890400D02*
X134680000Y-90890400D01*
%TD*%
M02*
