M48
; DRILL file {KiCad 6.0.10} date Вт 02 мая 2023 19:03:31
; FORMAT={-:-/ absolute / metric / decimal}
; #@! TF.CreationDate,2023-05-02T19:03:31+03:00
; #@! TF.GenerationSoftware,Kicad,Pcbnew,6.0.10
; #@! TF.FileFunction,MixedPlating,1,2
FMAT,2
METRIC
; #@! TA.AperFunction,Plated,PTH,ViaDrill
T1C0.400
; #@! TA.AperFunction,Plated,PTH,ViaDrill
T2C0.600
; #@! TA.AperFunction,Plated,PTH,ComponentDrill
T3C0.600
; #@! TA.AperFunction,Plated,PTH,ComponentDrill
T4C0.650
; #@! TA.AperFunction,Plated,PTH,ViaDrill
T5C0.800
; #@! TA.AperFunction,Plated,PTH,ComponentDrill
T6C1.000
; #@! TA.AperFunction,Plated,PTH,ComponentDrill
T7C1.500
; #@! TA.AperFunction,NonPlated,NPTH,ComponentDrill
T8C0.650
; #@! TA.AperFunction,NonPlated,NPTH,ComponentDrill
T9C3.200
%
G90
G05
T1
X75.85Y-92.5
X76.352Y-84.023
X78.334Y-89.357
X79.248Y-80.315
X79.5Y-89.65
X80.1Y-88.95
X80.239Y-80.366
X80.85Y-88.45
X82.7Y-73.15
X82.7Y-75.05
X82.75Y-76.75
X84.988Y-74.092
X87.027Y-74.527
X88.5Y-71.312
X90.0Y-71.312
X92.202Y-64.643
X92.481Y-63.729
X93.029Y-59.004
X94.058Y-53.492
X94.691Y-57.404
X95.555Y-63.144
X95.555Y-66.446
X97.979Y-56.464
X100.044Y-119.084
X103.581Y-61.671
X104.826Y-53.95
X107.163Y-54.178
X111.325Y-114.184
X111.912Y-61.646
X130.71Y-100.152
T2
X72.873Y-90.373
X73.254Y-96.393
X73.99Y-80.162
X75.514Y-86.436
X76.327Y-87.3
X76.784Y-69.825
X78.74Y-92.812
X79.502Y-99.238
X79.908Y-87.579
X81.712Y-68.428
X82.88Y-90.526
X83.769Y-103.226
X84.15Y-79.172
X93.029Y-57.734
X104.003Y-120.999
X115.334Y-116.074
X117.312Y-64.563
X127.356Y-92.862
X134.481Y-84.023
X134.695Y-102.042
T4
X70.764Y-85.039
X70.764Y-86.309
X70.764Y-87.579
X70.764Y-88.849
X70.764Y-90.119
X70.764Y-91.389
T5
X78.308Y-86.639
X83.922Y-68.402
X84.277Y-93.548
X95.961Y-56.871
X106.954Y-52.934
X109.677Y-61.874
X125.298Y-74.117
X126.771Y-75.616
T6
X110.05Y-120.1
X121.66Y-115.124
X127.61Y-72.238
X137.897Y-97.206
X139.548Y-84.099
X139.573Y-89.51
T7
X97.31Y-66.26
X99.5Y-65.5
X101.7Y-64.91
X103.98Y-64.57
X106.27Y-64.49
X109.64Y-64.82
X111.93Y-65.33
X114.04Y-66.09
T8
X102.72Y-54.07
X108.5Y-54.07
T9
X86.05Y-63.225
X86.05Y-110.665
X125.88Y-63.225
X125.88Y-110.665
T3
G00X101.29Y-50.72
M15
G01X101.29Y-50.12
M16
G05
G00X101.29Y-55.15
M15
G01X101.29Y-54.05
M16
G05
G00X109.93Y-50.72
M15
G01X109.93Y-50.12
M16
G05
G00X109.93Y-55.15
M15
G01X109.93Y-54.05
M16
G05
T0
M30
