%TF.GenerationSoftware,KiCad,Pcbnew,6.0.5*%
%TF.CreationDate,2022-09-23T09:05:14+03:00*%
%TF.ProjectId,Canon_manage,43616e6f-6e5f-46d6-916e-6167652e6b69,rev?*%
%TF.SameCoordinates,Original*%
%TF.FileFunction,Soldermask,Bot*%
%TF.FilePolarity,Negative*%
%FSLAX46Y46*%
G04 Gerber Fmt 4.6, Leading zero omitted, Abs format (unit mm)*
G04 Created by KiCad (PCBNEW 6.0.5) date 2022-09-23 09:05:14*
%MOMM*%
%LPD*%
G01*
G04 APERTURE LIST*
G04 Aperture macros list*
%AMRoundRect*
0 Rectangle with rounded corners*
0 $1 Rounding radius*
0 $2 $3 $4 $5 $6 $7 $8 $9 X,Y pos of 4 corners*
0 Add a 4 corners polygon primitive as box body*
4,1,4,$2,$3,$4,$5,$6,$7,$8,$9,$2,$3,0*
0 Add four circle primitives for the rounded corners*
1,1,$1+$1,$2,$3*
1,1,$1+$1,$4,$5*
1,1,$1+$1,$6,$7*
1,1,$1+$1,$8,$9*
0 Add four rect primitives between the rounded corners*
20,1,$1+$1,$2,$3,$4,$5,0*
20,1,$1+$1,$4,$5,$6,$7,0*
20,1,$1+$1,$6,$7,$8,$9,0*
20,1,$1+$1,$8,$9,$2,$3,0*%
G04 Aperture macros list end*
%ADD10R,0.850000X0.850000*%
%ADD11C,3.200000*%
%ADD12C,0.650000*%
%ADD13O,1.000000X2.100000*%
%ADD14O,1.000000X1.600000*%
%ADD15R,1.700000X1.700000*%
%ADD16O,0.850000X0.850000*%
%ADD17RoundRect,0.237500X0.250000X0.237500X-0.250000X0.237500X-0.250000X-0.237500X0.250000X-0.237500X0*%
%ADD18RoundRect,0.237500X0.300000X0.237500X-0.300000X0.237500X-0.300000X-0.237500X0.300000X-0.237500X0*%
%ADD19RoundRect,0.237500X-0.300000X-0.237500X0.300000X-0.237500X0.300000X0.237500X-0.300000X0.237500X0*%
%ADD20R,1.500000X2.000000*%
%ADD21R,3.800000X2.000000*%
%ADD22C,1.500000*%
%ADD23RoundRect,0.250000X0.337500X0.475000X-0.337500X0.475000X-0.337500X-0.475000X0.337500X-0.475000X0*%
%ADD24RoundRect,0.237500X0.237500X-0.300000X0.237500X0.300000X-0.237500X0.300000X-0.237500X-0.300000X0*%
%ADD25RoundRect,0.237500X-0.250000X-0.237500X0.250000X-0.237500X0.250000X0.237500X-0.250000X0.237500X0*%
%ADD26RoundRect,0.250000X-0.875000X-0.925000X0.875000X-0.925000X0.875000X0.925000X-0.875000X0.925000X0*%
%ADD27RoundRect,0.075000X0.075000X-0.662500X0.075000X0.662500X-0.075000X0.662500X-0.075000X-0.662500X0*%
%ADD28RoundRect,0.075000X0.662500X-0.075000X0.662500X0.075000X-0.662500X0.075000X-0.662500X-0.075000X0*%
G04 APERTURE END LIST*
D10*
%TO.C,J6*%
X103980000Y-64570000D03*
%TD*%
D11*
%TO.C,REF\u002A\u002A1*%
X125880000Y-63225000D03*
%TD*%
%TO.C,REF\u002A\u002A2*%
X86050000Y-110665000D03*
%TD*%
D10*
%TO.C,J3*%
X111930000Y-65330000D03*
%TD*%
%TO.C,J4*%
X109640000Y-64820000D03*
%TD*%
%TO.C,J8*%
X99500000Y-65500000D03*
%TD*%
%TO.C,J9*%
X97310000Y-66260000D03*
%TD*%
D12*
%TO.C,J37*%
X102720000Y-54070000D03*
X108500000Y-54070000D03*
D13*
X101290000Y-54600000D03*
X109930000Y-54600000D03*
D14*
X109930000Y-50420000D03*
X101290000Y-50420000D03*
%TD*%
D11*
%TO.C,REF\u002A\u002A*%
X86050000Y-63225000D03*
%TD*%
D10*
%TO.C,J2*%
X114040000Y-66090000D03*
%TD*%
D11*
%TO.C,REF\u002A\u002A3*%
X125880000Y-110665000D03*
%TD*%
D10*
%TO.C,J7*%
X101700000Y-64910000D03*
%TD*%
%TO.C,J5*%
X106270000Y-64490000D03*
%TD*%
D15*
%TO.C,J35*%
X138633200Y-89560400D03*
%TD*%
%TO.C,J26*%
X127609600Y-72237600D03*
%TD*%
D10*
%TO.C,J1*%
X70586600Y-85188800D03*
D16*
X70586600Y-86188800D03*
X70586600Y-87188800D03*
X70586600Y-88188800D03*
X70586600Y-89188800D03*
X70586600Y-90188800D03*
%TD*%
D15*
%TO.C,J36*%
X133350000Y-89560400D03*
%TD*%
D17*
%TO.C,R6*%
X100431600Y-59105800D03*
X98606600Y-59105800D03*
%TD*%
D18*
%TO.C,C5*%
X73784800Y-81965800D03*
X72059800Y-81965800D03*
%TD*%
D19*
%TO.C,C8*%
X75618000Y-92938600D03*
X77343000Y-92938600D03*
%TD*%
D20*
%TO.C,U2*%
X131227800Y-72135600D03*
X133527800Y-72135600D03*
D21*
X133527800Y-78435600D03*
D20*
X135827800Y-72135600D03*
%TD*%
D22*
%TO.C,Y1*%
X81647200Y-96600000D03*
X76767200Y-96600000D03*
%TD*%
D23*
%TO.C,C3*%
X134518400Y-69392800D03*
X132443400Y-69392800D03*
%TD*%
D24*
%TO.C,C4*%
X82677000Y-82522400D03*
X82677000Y-80797400D03*
%TD*%
D25*
%TO.C,R9*%
X109096800Y-58470800D03*
X110921800Y-58470800D03*
%TD*%
D19*
%TO.C,C6*%
X82755400Y-91160600D03*
X84480400Y-91160600D03*
%TD*%
%TO.C,C7*%
X133580800Y-81203800D03*
X135305800Y-81203800D03*
%TD*%
D26*
%TO.C,C9*%
X133558600Y-84658200D03*
X138658600Y-84658200D03*
%TD*%
D27*
%TO.C,U1*%
X80837500Y-90852500D03*
X80337500Y-90852500D03*
X79837500Y-90852500D03*
X79337500Y-90852500D03*
X78837500Y-90852500D03*
X78337500Y-90852500D03*
X77837500Y-90852500D03*
X77337500Y-90852500D03*
X76837500Y-90852500D03*
X76337500Y-90852500D03*
X75837500Y-90852500D03*
X75337500Y-90852500D03*
D28*
X73925000Y-89440000D03*
X73925000Y-88940000D03*
X73925000Y-88440000D03*
X73925000Y-87940000D03*
X73925000Y-87440000D03*
X73925000Y-86940000D03*
X73925000Y-86440000D03*
X73925000Y-85940000D03*
X73925000Y-85440000D03*
X73925000Y-84940000D03*
X73925000Y-84440000D03*
X73925000Y-83940000D03*
D27*
X75337500Y-82527500D03*
X75837500Y-82527500D03*
X76337500Y-82527500D03*
X76837500Y-82527500D03*
X77337500Y-82527500D03*
X77837500Y-82527500D03*
X78337500Y-82527500D03*
X78837500Y-82527500D03*
X79337500Y-82527500D03*
X79837500Y-82527500D03*
X80337500Y-82527500D03*
X80837500Y-82527500D03*
D28*
X82250000Y-83940000D03*
X82250000Y-84440000D03*
X82250000Y-84940000D03*
X82250000Y-85440000D03*
X82250000Y-85940000D03*
X82250000Y-86440000D03*
X82250000Y-86940000D03*
X82250000Y-87440000D03*
X82250000Y-87940000D03*
X82250000Y-88440000D03*
X82250000Y-88940000D03*
X82250000Y-89440000D03*
%TD*%
M02*
