%TF.GenerationSoftware,KiCad,Pcbnew,6.0.10*%
%TF.CreationDate,2023-05-02T19:03:39+03:00*%
%TF.ProjectId,Canon_manage,43616e6f-6e5f-46d6-916e-6167652e6b69,rev?*%
%TF.SameCoordinates,Original*%
%TF.FileFunction,Copper,L2,Bot*%
%TF.FilePolarity,Positive*%
%FSLAX46Y46*%
G04 Gerber Fmt 4.6, Leading zero omitted, Abs format (unit mm)*
G04 Created by KiCad (PCBNEW 6.0.10) date 2023-05-02 19:03:39*
%MOMM*%
%LPD*%
G01*
G04 APERTURE LIST*
G04 Aperture macros list*
%AMFreePoly0*
4,1,6,1.000000,0.000000,0.500000,-0.750000,-0.500000,-0.750000,-0.500000,0.750000,0.500000,0.750000,1.000000,0.000000,1.000000,0.000000,$1*%
%AMFreePoly1*
4,1,6,0.500000,-0.750000,-0.650000,-0.750000,-0.150000,0.000000,-0.650000,0.750000,0.500000,0.750000,0.500000,-0.750000,0.500000,-0.750000,$1*%
G04 Aperture macros list end*
%TA.AperFunction,ComponentPad*%
%ADD10O,1.000000X2.100000*%
%TD*%
%TA.AperFunction,ComponentPad*%
%ADD11O,1.000000X1.600000*%
%TD*%
%TA.AperFunction,ComponentPad*%
%ADD12R,1.700000X1.700000*%
%TD*%
%TA.AperFunction,ComponentPad*%
%ADD13C,2.000000*%
%TD*%
%TA.AperFunction,ComponentPad*%
%ADD14R,1.000000X1.000000*%
%TD*%
%TA.AperFunction,ComponentPad*%
%ADD15O,1.000000X1.000000*%
%TD*%
%TA.AperFunction,SMDPad,CuDef*%
%ADD16FreePoly0,180.000000*%
%TD*%
%TA.AperFunction,SMDPad,CuDef*%
%ADD17FreePoly1,180.000000*%
%TD*%
%TA.AperFunction,ViaPad*%
%ADD18C,1.200000*%
%TD*%
%TA.AperFunction,ViaPad*%
%ADD19C,0.700000*%
%TD*%
%TA.AperFunction,ViaPad*%
%ADD20C,0.950000*%
%TD*%
%TA.AperFunction,Conductor*%
%ADD21C,0.250000*%
%TD*%
%TA.AperFunction,Conductor*%
%ADD22C,0.200000*%
%TD*%
%TA.AperFunction,Conductor*%
%ADD23C,1.000000*%
%TD*%
%TA.AperFunction,Conductor*%
%ADD24C,0.500000*%
%TD*%
G04 APERTURE END LIST*
D10*
%TO.P,J37,S1,SHIELD*%
%TO.N,GND*%
X101290000Y-54600000D03*
X109930000Y-54600000D03*
D11*
X109930000Y-50420000D03*
X101290000Y-50420000D03*
%TD*%
D12*
%TO.P,J12,1,Pin_1*%
%TO.N,Net-(J12-Pad1)*%
X137896600Y-97205800D03*
%TD*%
%TO.P,J11,1,Pin_1*%
%TO.N,Net-(J11-Pad1)*%
X121660400Y-115124200D03*
%TD*%
%TO.P,J10,1,Pin_1*%
%TO.N,Net-(J10-Pad1)*%
X110050000Y-120100000D03*
%TD*%
D13*
%TO.P,J6,1,Pin_1*%
%TO.N,Net-(J6-Pad1)*%
X103980000Y-64570000D03*
%TD*%
%TO.P,J3,1,Pin_1*%
%TO.N,Net-(J3-Pad1)*%
X111930000Y-65330000D03*
%TD*%
%TO.P,J4,1,Pin_1*%
%TO.N,GND*%
X109640000Y-64820000D03*
%TD*%
%TO.P,J8,1,Pin_1*%
%TO.N,Net-(J8-Pad1)*%
X99500000Y-65500000D03*
%TD*%
%TO.P,J9,1,Pin_1*%
%TO.N,GND*%
X97310000Y-66260000D03*
%TD*%
%TO.P,J2,1,Pin_1*%
%TO.N,/Vlens*%
X114040000Y-66090000D03*
%TD*%
%TO.P,J7,1,Pin_1*%
%TO.N,Net-(J7-Pad1)*%
X101700000Y-64910000D03*
%TD*%
%TO.P,J5,1,Pin_1*%
%TO.N,/Vlens*%
X106270000Y-64490000D03*
%TD*%
D12*
%TO.P,J35,1,Pin_1*%
%TO.N,GND*%
X139573000Y-89509600D03*
%TD*%
%TO.P,J26,1,Pin_1*%
%TO.N,/VBUS*%
X127609600Y-72237600D03*
%TD*%
D14*
%TO.P,J1,1,Pin_1*%
%TO.N,/SWCLK*%
X70764400Y-85039200D03*
D15*
%TO.P,J1,2,Pin_2*%
%TO.N,/SWDIO*%
X70764400Y-86309200D03*
%TO.P,J1,3,Pin_3*%
%TO.N,GND*%
X70764400Y-87579200D03*
%TO.P,J1,4,Pin_4*%
%TO.N,+3V3*%
X70764400Y-88849200D03*
%TO.P,J1,5,Pin_5*%
%TO.N,/BOOT0*%
X70764400Y-90119200D03*
%TO.P,J1,6,Pin_6*%
%TO.N,/NRST*%
X70764400Y-91389200D03*
%TD*%
D12*
%TO.P,J36,1,Pin_1*%
%TO.N,+3V3*%
X139547600Y-84099400D03*
%TD*%
D16*
%TO.P,JP1,1,A*%
%TO.N,GND*%
X82614600Y-100787200D03*
D17*
%TO.P,JP1,2,B*%
%TO.N,Net-(JP1-Pad2)*%
X81164600Y-100787200D03*
%TD*%
D18*
%TO.N,GND*%
X83921600Y-68402200D03*
%TO.N,/VBUS*%
X106953549Y-52933600D03*
D19*
%TO.N,/CANH*%
X104825800Y-53949600D03*
D20*
%TO.N,GND*%
X73990200Y-80162400D03*
X81711800Y-68427600D03*
D19*
X84988400Y-74091800D03*
%TO.N,Net-(J3-Pad1)*%
X103581200Y-61671200D03*
X95554800Y-66446400D03*
X95554800Y-63144400D03*
D18*
%TO.N,GND*%
X95961200Y-56870600D03*
X109677200Y-61874400D03*
D19*
%TO.N,Net-(J3-Pad1)*%
X111912400Y-61645800D03*
D20*
%TO.N,/VBUS*%
X117312400Y-64563000D03*
D19*
%TO.N,/Ven*%
X92202000Y-64643000D03*
%TO.N,/~{OC}*%
X92481400Y-63728600D03*
%TO.N,/CANTX*%
X94691200Y-57404000D03*
%TO.N,/CANRX*%
X93029000Y-59004200D03*
%TO.N,GND*%
X94058100Y-53492400D03*
D20*
%TO.N,/VBUS*%
X93029000Y-57734200D03*
D19*
%TO.N,/CANH*%
X97979000Y-56464200D03*
X107162600Y-54178200D03*
D18*
%TO.N,/VBUS*%
X125298200Y-74117200D03*
X126771400Y-75615800D03*
D20*
%TO.N,GND*%
X134480500Y-84022800D03*
X127355600Y-92862400D03*
X134694800Y-102042000D03*
X115334400Y-116074200D03*
X104003400Y-120999200D03*
X84150200Y-79171800D03*
X83769200Y-103225600D03*
X79502000Y-99237800D03*
X78740000Y-92811600D03*
X82880200Y-90525600D03*
X73253600Y-96393000D03*
X72872600Y-90373200D03*
X79908400Y-87579200D03*
D19*
%TO.N,/PWM2*%
X130710300Y-100152200D03*
%TO.N,/PWM0*%
X100044300Y-119084000D03*
%TO.N,/PWM1*%
X111324500Y-114184400D03*
%TO.N,/PWM0*%
X79500000Y-89650000D03*
%TO.N,/PWM1*%
X80100000Y-88950000D03*
%TO.N,/PWM2*%
X80850000Y-88450000D03*
%TO.N,Net-(JP1-Pad2)*%
X75850000Y-92500000D03*
%TO.N,/SPI_MISO*%
X82750000Y-76750000D03*
X87026944Y-74526944D03*
%TO.N,/L_DETECT*%
X90000000Y-71312500D03*
%TO.N,/SPI_SCK*%
X88500000Y-71312500D03*
%TO.N,/L_DETECT*%
X82700000Y-75050000D03*
%TO.N,/SPI_SCK*%
X82700000Y-73150000D03*
%TO.N,/Ven*%
X80238600Y-80365600D03*
%TO.N,/~{OC}*%
X79248000Y-80314800D03*
D20*
%TO.N,/VBUS*%
X76784200Y-69824600D03*
%TO.N,/CANTX*%
X76327000Y-87299800D03*
%TO.N,/CANRX*%
X75514200Y-86436200D03*
D18*
%TO.N,+3V3*%
X78308200Y-86639400D03*
D19*
%TO.N,/NRST*%
X78333600Y-89357200D03*
%TO.N,/SWDIO*%
X76352400Y-84023200D03*
D18*
%TO.N,+3V3*%
X84277200Y-93548200D03*
%TD*%
D21*
%TO.N,GND*%
X83896200Y-68427600D02*
X83921600Y-68402200D01*
X81711800Y-68427600D02*
X83896200Y-68427600D01*
%TO.N,/Ven*%
X80238600Y-80365600D02*
X80238600Y-79838600D01*
X80238600Y-79838600D02*
X79850000Y-79450000D01*
X79850000Y-79450000D02*
X79850000Y-71900000D01*
X79850000Y-71900000D02*
X80700000Y-71050000D01*
X80700000Y-71050000D02*
X85795000Y-71050000D01*
X85795000Y-71050000D02*
X92202000Y-64643000D01*
%TO.N,/CANH*%
X102641400Y-56464200D02*
X104825800Y-54279800D01*
X104825800Y-54279800D02*
X104825800Y-53949600D01*
D22*
X104825800Y-53949600D02*
X106934000Y-53949600D01*
X106934000Y-53949600D02*
X107162600Y-54178200D01*
D21*
%TO.N,GND*%
X81711800Y-68427600D02*
X79756000Y-66471800D01*
X79756000Y-66471800D02*
X77419200Y-66471800D01*
X77419200Y-66471800D02*
X73990200Y-69900800D01*
X73990200Y-69900800D02*
X73990200Y-80162400D01*
X82118200Y-75869800D02*
X82118200Y-77139800D01*
X82118200Y-77139800D02*
X84150200Y-79171800D01*
X84988400Y-74091800D02*
X83210400Y-75869800D01*
X83210400Y-75869800D02*
X82118200Y-75869800D01*
%TO.N,/L_DETECT*%
X90000000Y-71312500D02*
X87996850Y-73315650D01*
X87996850Y-73315650D02*
X84434350Y-73315650D01*
X84434350Y-73315650D02*
X82700000Y-75050000D01*
%TO.N,/SPI_SCK*%
X87043650Y-72768850D02*
X83081150Y-72768850D01*
X83081150Y-72768850D02*
X82700000Y-73150000D01*
X87043650Y-72768850D02*
X88500000Y-71312500D01*
D23*
%TO.N,/VBUS*%
X125298200Y-74117200D02*
X126771400Y-75590400D01*
X125298200Y-74117200D02*
X121564400Y-70383400D01*
X121564400Y-70383400D02*
X121564400Y-64465200D01*
D21*
%TO.N,Net-(J3-Pad1)*%
X111099600Y-60833000D02*
X104495600Y-60833000D01*
X103581200Y-61671200D02*
X104419400Y-60833000D01*
X104419400Y-60833000D02*
X104495600Y-60833000D01*
X95554800Y-66446400D02*
X95554800Y-63144400D01*
%TO.N,GND*%
X95961200Y-56972200D02*
X95961200Y-56870600D01*
X95961200Y-56870600D02*
X98231800Y-54600000D01*
X98231800Y-54600000D02*
X101290000Y-54600000D01*
X97310000Y-66260000D02*
X97310000Y-58321000D01*
X97310000Y-58321000D02*
X95961200Y-56972200D01*
X102946200Y-63500000D02*
X103860600Y-62585600D01*
X106451400Y-61874400D02*
X109677200Y-61874400D01*
X103860600Y-62585600D02*
X105740200Y-62585600D01*
X105740200Y-62585600D02*
X106451400Y-61874400D01*
X97310000Y-66260000D02*
X97310000Y-65250000D01*
X97310000Y-65250000D02*
X99060000Y-63500000D01*
X99060000Y-63500000D02*
X102946200Y-63500000D01*
%TO.N,Net-(J3-Pad1)*%
X111912400Y-61645800D02*
X111099600Y-60833000D01*
D23*
%TO.N,/Vlens*%
X114040000Y-63646400D02*
X113487200Y-63093600D01*
X114040000Y-66090000D02*
X114040000Y-63646400D01*
X113487200Y-63093600D02*
X107666400Y-63093600D01*
X107666400Y-63093600D02*
X106270000Y-64490000D01*
%TO.N,/VBUS*%
X121564400Y-64465200D02*
X121564400Y-60782200D01*
X121564400Y-64465200D02*
X117410200Y-64465200D01*
X117410200Y-64465200D02*
X117312400Y-64563000D01*
D21*
%TO.N,/~{OC}*%
X92075000Y-63728600D02*
X92481400Y-63728600D01*
X90779600Y-65024000D02*
X92075000Y-63728600D01*
%TO.N,/CANTX*%
X94691200Y-64211200D02*
X94691200Y-57404000D01*
X93675200Y-65227200D02*
X94691200Y-64211200D01*
%TO.N,/CANRX*%
X80876800Y-81276800D02*
X80876800Y-72223200D01*
X81330200Y-71769800D02*
X86319800Y-71769800D01*
X75514200Y-86436200D02*
X75717400Y-86436200D01*
X80876800Y-72223200D02*
X81330200Y-71769800D01*
X93141800Y-59117000D02*
X93029000Y-59004200D01*
X75717400Y-86436200D02*
X80876800Y-81276800D01*
X86319800Y-71769800D02*
X93141800Y-64947800D01*
X93141800Y-64947800D02*
X93141800Y-59117000D01*
%TO.N,/VBUS*%
X76784200Y-69824600D02*
X84886800Y-69824600D01*
X90601800Y-64109600D02*
X90601800Y-58242200D01*
X84886800Y-69824600D02*
X90601800Y-64109600D01*
X90601800Y-58242200D02*
X91109800Y-57734200D01*
X91109800Y-57734200D02*
X93029000Y-57734200D01*
D22*
%TO.N,GND*%
X96774000Y-52095400D02*
X95455100Y-52095400D01*
X95455100Y-52095400D02*
X94058100Y-53492400D01*
X101290000Y-50420000D02*
X98449400Y-50420000D01*
X98449400Y-50420000D02*
X96774000Y-52095400D01*
D24*
%TO.N,/VBUS*%
X106603800Y-52933600D02*
X97829600Y-52933600D01*
X97829600Y-52933600D02*
X93029000Y-57734200D01*
D21*
%TO.N,/CANH*%
X102641400Y-56464200D02*
X97979000Y-56464200D01*
D23*
%TO.N,/VBUS*%
X121564400Y-60782200D02*
X113732200Y-52950000D01*
X106620200Y-52950000D02*
X106603800Y-52933600D01*
X113732200Y-52950000D02*
X106620200Y-52950000D01*
D24*
%TO.N,GND*%
X139573000Y-89509600D02*
X137896600Y-89509600D01*
X137896600Y-89509600D02*
X134480500Y-86093500D01*
X134480500Y-86093500D02*
X134480500Y-84022800D01*
D22*
X136220200Y-92862400D02*
X136334500Y-92748100D01*
X134694800Y-94387800D02*
X136334500Y-92748100D01*
X136334500Y-92748100D02*
X139573000Y-89509600D01*
X127355600Y-92862400D02*
X136220200Y-92862400D01*
X134694800Y-102042000D02*
X134694800Y-94387800D01*
X115334400Y-116074200D02*
X115334400Y-114256200D01*
X115334400Y-114256200D02*
X127548600Y-102042000D01*
X127548600Y-102042000D02*
X134694800Y-102042000D01*
X83769200Y-103225600D02*
X86436200Y-103225600D01*
X93700600Y-115925600D02*
X98774200Y-120999200D01*
X86436200Y-103225600D02*
X93700600Y-110490000D01*
X93700600Y-110490000D02*
X93700600Y-115925600D01*
X98774200Y-120999200D02*
X104003400Y-120999200D01*
X104003400Y-120999200D02*
X104553400Y-120999200D01*
X104553400Y-120999200D02*
X109478400Y-116074200D01*
X109478400Y-116074200D02*
X115334400Y-116074200D01*
X83769200Y-103225600D02*
X83769200Y-101941800D01*
X83769200Y-101941800D02*
X82614600Y-100787200D01*
X79502000Y-99237800D02*
X82423000Y-99237800D01*
X82423000Y-99237800D02*
X82614600Y-99429400D01*
X82614600Y-99429400D02*
X82614600Y-100787200D01*
X78740000Y-98475800D02*
X79502000Y-99237800D01*
X78740000Y-92811600D02*
X78740000Y-98475800D01*
X79908400Y-87579200D02*
X81203800Y-87579200D01*
X81203800Y-87579200D02*
X82880200Y-89255600D01*
X82880200Y-89255600D02*
X82880200Y-90525600D01*
X73253600Y-95123000D02*
X73253600Y-96393000D01*
X70637400Y-92506800D02*
X73253600Y-95123000D01*
X70764400Y-87579200D02*
X69824600Y-88519000D01*
X69824600Y-88519000D02*
X69824600Y-91694000D01*
X69824600Y-91694000D02*
X70637400Y-92506800D01*
X73660000Y-89585800D02*
X72872600Y-90373200D01*
X76530200Y-89585800D02*
X73660000Y-89585800D01*
X77901800Y-88188800D02*
X77901800Y-88214200D01*
X77901800Y-88214200D02*
X76530200Y-89585800D01*
X79908400Y-87579200D02*
X79298800Y-88188800D01*
X79298800Y-88188800D02*
X77901800Y-88188800D01*
D21*
%TO.N,/PWM2*%
X122850000Y-100150000D02*
X130708100Y-100150000D01*
X130708100Y-100150000D02*
X130710300Y-100152200D01*
%TO.N,/PWM0*%
X100050000Y-108550000D02*
X100050000Y-119078300D01*
X100050000Y-119078300D02*
X100044300Y-119084000D01*
%TO.N,/PWM1*%
X111300000Y-108199999D02*
X111300000Y-114159900D01*
X111300000Y-114159900D02*
X111324500Y-114184400D01*
%TO.N,/PWM0*%
X100050000Y-108549999D02*
G75*
G02*
X85596178Y-96270645I5950000J21649999D01*
G01*
X79500000Y-89650000D02*
X79800000Y-89950000D01*
X79800000Y-89950000D02*
X79800000Y-93350000D01*
X79800000Y-93350000D02*
X82720645Y-96270645D01*
X82720645Y-96270645D02*
X85596177Y-96270645D01*
%TO.N,/PWM1*%
X83184953Y-95484953D02*
X80325000Y-92625000D01*
X80100000Y-88950000D02*
X80325000Y-89175000D01*
X80325000Y-89175000D02*
X80325000Y-92625000D01*
X85767346Y-95484953D02*
X83184953Y-95484953D01*
%TO.N,/PWM2*%
X80850000Y-88450000D02*
X80850000Y-92300000D01*
X80850000Y-92300000D02*
X83442811Y-94892811D01*
X83442811Y-94892811D02*
X86017929Y-94892811D01*
X86017929Y-94892811D02*
G75*
G03*
X122850000Y-100150000I19932071J7992811D01*
G01*
%TO.N,/PWM1*%
X85767347Y-95484953D02*
G75*
G03*
X111300000Y-108199998I20182653J8534953D01*
G01*
%TO.N,Net-(JP1-Pad2)*%
X75850000Y-97200000D02*
X75850000Y-92500000D01*
X79437200Y-100787200D02*
X75850000Y-97200000D01*
X81164600Y-100787200D02*
X79437200Y-100787200D01*
%TO.N,+3V3*%
X70764400Y-88849200D02*
X76098400Y-88849200D01*
X76098400Y-88849200D02*
X78308200Y-86639400D01*
%TO.N,/SPI_MISO*%
X82750000Y-76750000D02*
X84803888Y-76750000D01*
X84803888Y-76750000D02*
X87026944Y-74526944D01*
%TO.N,/CANTX*%
X81623800Y-72276200D02*
X81400000Y-72500000D01*
X93675200Y-65227200D02*
X86626200Y-72276200D01*
X81400000Y-72500000D02*
X81400000Y-81350000D01*
X86626200Y-72276200D02*
X81623800Y-72276200D01*
X81400000Y-81350000D02*
X81495500Y-81445500D01*
X81495500Y-81445500D02*
X76327000Y-86614000D01*
X76327000Y-86614000D02*
X76327000Y-87299800D01*
%TO.N,/~{OC}*%
X79248000Y-80314800D02*
X79248000Y-71702000D01*
X79248000Y-71702000D02*
X80473200Y-70476800D01*
X80473200Y-70476800D02*
X85326800Y-70476800D01*
X85326800Y-70476800D02*
X90779600Y-65024000D01*
%TO.N,/NRST*%
X76301600Y-91389200D02*
X78333600Y-89357200D01*
X70764400Y-91389200D02*
X76301600Y-91389200D01*
%TO.N,/SWDIO*%
X74066400Y-86309200D02*
X76352400Y-84023200D01*
X70764400Y-86309200D02*
X74066400Y-86309200D01*
D24*
%TO.N,+3V3*%
X84277200Y-93548200D02*
X84277200Y-89662000D01*
X84277200Y-89662000D02*
X81254600Y-86639400D01*
X81254600Y-86639400D02*
X78308200Y-86639400D01*
%TD*%
%TA.AperFunction,Conductor*%
%TO.N,GND*%
G36*
X107231877Y-49029835D02*
G01*
X109069568Y-49115491D01*
X109078558Y-49116233D01*
X109208636Y-49131679D01*
X109273923Y-49159574D01*
X109313765Y-49218338D01*
X109315512Y-49289313D01*
X109278610Y-49349965D01*
X109272731Y-49354996D01*
X109226133Y-49392462D01*
X109217368Y-49401046D01*
X109098222Y-49543039D01*
X109091292Y-49553159D01*
X109001998Y-49715585D01*
X108997166Y-49726858D01*
X108941120Y-49903538D01*
X108938570Y-49915532D01*
X108922393Y-50059761D01*
X108922000Y-50066785D01*
X108922000Y-50147885D01*
X108926475Y-50163124D01*
X108927865Y-50164329D01*
X108935548Y-50166000D01*
X110919885Y-50166000D01*
X110935124Y-50161525D01*
X110936329Y-50160135D01*
X110938000Y-50152452D01*
X110938000Y-50073343D01*
X110937699Y-50067195D01*
X110924188Y-49929397D01*
X110921805Y-49917362D01*
X110868233Y-49739924D01*
X110863559Y-49728584D01*
X110776540Y-49564923D01*
X110769748Y-49554700D01*
X110752115Y-49533080D01*
X110724561Y-49467649D01*
X110736757Y-49397707D01*
X110784829Y-49345462D01*
X110853516Y-49327501D01*
X110864609Y-49328323D01*
X111982887Y-49461118D01*
X112582257Y-49532292D01*
X112592343Y-49533907D01*
X112906559Y-49597368D01*
X112937964Y-49608176D01*
X113800483Y-50039436D01*
X113828371Y-50058433D01*
X113946164Y-50164329D01*
X114529882Y-50689097D01*
X114556272Y-50722486D01*
X114976249Y-51492830D01*
X114980570Y-51503488D01*
X114981200Y-51503212D01*
X114984806Y-51511433D01*
X114987209Y-51520082D01*
X114991943Y-51527709D01*
X114991944Y-51527710D01*
X115017340Y-51568620D01*
X115020908Y-51574746D01*
X115028766Y-51589160D01*
X115033391Y-51595354D01*
X115039474Y-51604276D01*
X115059293Y-51636204D01*
X115059297Y-51636209D01*
X115064030Y-51643833D01*
X115071487Y-51650516D01*
X115088355Y-51668965D01*
X115088472Y-51669121D01*
X115093845Y-51676317D01*
X115129516Y-51703150D01*
X115137867Y-51710012D01*
X115172497Y-51741050D01*
X115180594Y-51744924D01*
X115181519Y-51745367D01*
X115202875Y-51758333D01*
X115210246Y-51763877D01*
X115218642Y-51767042D01*
X115218645Y-51767043D01*
X115252106Y-51779654D01*
X115262044Y-51783895D01*
X115273455Y-51789355D01*
X115290947Y-51794609D01*
X115299121Y-51797374D01*
X115346544Y-51815248D01*
X115355499Y-51815929D01*
X115364261Y-51817872D01*
X115364210Y-51818100D01*
X115377179Y-51820512D01*
X117816233Y-52553154D01*
X117828885Y-52557703D01*
X120992061Y-53889710D01*
X120999491Y-53893127D01*
X124167617Y-55476511D01*
X124178334Y-55482538D01*
X127073014Y-57301810D01*
X127088003Y-57312855D01*
X127169066Y-57382391D01*
X127572001Y-57728031D01*
X127596230Y-57755965D01*
X128103913Y-58552916D01*
X128115241Y-58575369D01*
X128454184Y-59456404D01*
X128473148Y-59505699D01*
X128481550Y-59550940D01*
X128481550Y-60564003D01*
X128479799Y-60584935D01*
X128409806Y-61000413D01*
X128406166Y-61022017D01*
X128406069Y-61022585D01*
X128391103Y-61108316D01*
X128392103Y-61117235D01*
X128392103Y-61117237D01*
X128394438Y-61138060D01*
X128395185Y-61155207D01*
X128394832Y-61169525D01*
X128394468Y-61184271D01*
X128403098Y-61216731D01*
X128403414Y-61218119D01*
X128403573Y-61219537D01*
X128414503Y-61259633D01*
X128431891Y-61325039D01*
X128432558Y-61326141D01*
X128432905Y-61327140D01*
X128533397Y-61695791D01*
X128650311Y-62124688D01*
X128653239Y-62142508D01*
X128654395Y-62148158D01*
X128654929Y-62157117D01*
X128657956Y-62165566D01*
X128657957Y-62165569D01*
X128670921Y-62201749D01*
X128673871Y-62211118D01*
X128677154Y-62223161D01*
X128678935Y-62227277D01*
X128683910Y-62238776D01*
X128686885Y-62246305D01*
X128692680Y-62262477D01*
X128695003Y-62266745D01*
X128695006Y-62266751D01*
X128697203Y-62270786D01*
X128702176Y-62280989D01*
X128720349Y-62322989D01*
X128726083Y-62329896D01*
X128727819Y-62331987D01*
X128741538Y-62352227D01*
X128838150Y-62529700D01*
X129204221Y-63202159D01*
X129209274Y-63212549D01*
X129227068Y-63253852D01*
X129232789Y-63260766D01*
X129232791Y-63260769D01*
X129264280Y-63298823D01*
X129268199Y-63303811D01*
X129301220Y-63348091D01*
X129308392Y-63353493D01*
X129308393Y-63353494D01*
X129338817Y-63376409D01*
X129346573Y-63382749D01*
X129538984Y-63553240D01*
X130071171Y-64024798D01*
X130074747Y-64027967D01*
X130080548Y-64033445D01*
X130118024Y-64071150D01*
X130157593Y-64092971D01*
X130159752Y-64094161D01*
X130168253Y-64099296D01*
X130208262Y-64125670D01*
X130263264Y-64142584D01*
X130269360Y-64144631D01*
X130788310Y-64333760D01*
X131156323Y-64467881D01*
X131166727Y-64472209D01*
X131194119Y-64485069D01*
X131207350Y-64491281D01*
X131230784Y-64494930D01*
X131262758Y-64499909D01*
X131269296Y-64501105D01*
X131315397Y-64510798D01*
X131315399Y-64510798D01*
X131324183Y-64512645D01*
X131372875Y-64508876D01*
X131382598Y-64508500D01*
X133066913Y-64508500D01*
X133093304Y-64511295D01*
X134120832Y-64731398D01*
X134154753Y-64743976D01*
X134818218Y-65105686D01*
X134909978Y-65155712D01*
X134924037Y-65163377D01*
X134952820Y-65184908D01*
X135147331Y-65379416D01*
X135654641Y-65886719D01*
X135686610Y-65918688D01*
X135703395Y-65939480D01*
X137258501Y-68350075D01*
X137340606Y-68477348D01*
X137346813Y-68488099D01*
X138917108Y-71546546D01*
X138926529Y-71564895D01*
X138931013Y-71574625D01*
X140247906Y-74785054D01*
X140262768Y-74821287D01*
X140266882Y-74832904D01*
X141195741Y-77929966D01*
X141262925Y-78153976D01*
X141265905Y-78166046D01*
X141328316Y-78485981D01*
X141931909Y-81580131D01*
X141933355Y-81589351D01*
X142349265Y-85080550D01*
X142350150Y-85095455D01*
X142350150Y-88495170D01*
X142349585Y-88507091D01*
X142017767Y-91998590D01*
X142015999Y-92010803D01*
X141865521Y-92781890D01*
X141460633Y-94856642D01*
X141350009Y-95423506D01*
X141347836Y-95432764D01*
X140880332Y-97133093D01*
X140434019Y-98756349D01*
X140429095Y-98770780D01*
X139100953Y-102007270D01*
X139096475Y-102016985D01*
X137514804Y-105097590D01*
X137509396Y-105107084D01*
X136856297Y-106146245D01*
X135688267Y-108004722D01*
X135677206Y-108019730D01*
X135247683Y-108520254D01*
X135226184Y-108540092D01*
X134538918Y-109040020D01*
X134441848Y-109110630D01*
X134404752Y-109129173D01*
X133498552Y-109407738D01*
X133461530Y-109413300D01*
X131935625Y-109413300D01*
X131929582Y-109412948D01*
X131924324Y-109411556D01*
X131915355Y-109411787D01*
X131915353Y-109411787D01*
X131858296Y-109413258D01*
X131855049Y-109413300D01*
X131828137Y-109413300D01*
X131823703Y-109413935D01*
X131821837Y-109414068D01*
X131817796Y-109414264D01*
X131817305Y-109414315D01*
X131812442Y-109414440D01*
X131807658Y-109415312D01*
X131807655Y-109415312D01*
X131786395Y-109419186D01*
X131781672Y-109419954D01*
X131729349Y-109427447D01*
X131729346Y-109427448D01*
X131720463Y-109428720D01*
X131713318Y-109431969D01*
X131703526Y-109434286D01*
X131218647Y-109522641D01*
X130881242Y-109584123D01*
X130866242Y-109585934D01*
X130850922Y-109586857D01*
X130840200Y-109587503D01*
X130840198Y-109587503D01*
X130831241Y-109588043D01*
X130769587Y-109610178D01*
X130766990Y-109611077D01*
X130735226Y-109621691D01*
X130704206Y-109632056D01*
X130696833Y-109637176D01*
X130672044Y-109654390D01*
X130660494Y-109661520D01*
X129891902Y-110080544D01*
X129770376Y-110146798D01*
X129767134Y-110148505D01*
X129709038Y-110178020D01*
X129702497Y-110184169D01*
X129702496Y-110184170D01*
X129682085Y-110203359D01*
X129671167Y-110212517D01*
X129641732Y-110234496D01*
X129636337Y-110241668D01*
X129636335Y-110241670D01*
X129600569Y-110289218D01*
X129599276Y-110290906D01*
X129487620Y-110434242D01*
X129207831Y-110793417D01*
X129050367Y-110995558D01*
X129033973Y-111012697D01*
X129033128Y-111013656D01*
X129026303Y-111019478D01*
X129000351Y-111059083D01*
X128994364Y-111067452D01*
X128988160Y-111075416D01*
X128981606Y-111086876D01*
X128979848Y-111089949D01*
X128975866Y-111096447D01*
X128964961Y-111113088D01*
X128962954Y-111117515D01*
X128961090Y-111121626D01*
X128955706Y-111132156D01*
X128934155Y-111169835D01*
X128931269Y-111181884D01*
X128923496Y-111204554D01*
X128614745Y-111885614D01*
X128529932Y-112072698D01*
X128529229Y-112074221D01*
X128502583Y-112130974D01*
X128502581Y-112130981D01*
X128498769Y-112139100D01*
X128497389Y-112147964D01*
X128497388Y-112147967D01*
X128493866Y-112170589D01*
X128490340Y-112186435D01*
X128483939Y-112208413D01*
X128483938Y-112208418D01*
X128481429Y-112217034D01*
X128481439Y-112226010D01*
X128481550Y-112325687D01*
X128481550Y-114078531D01*
X128478287Y-114107021D01*
X128256745Y-115061443D01*
X128246737Y-115089240D01*
X128087863Y-115407426D01*
X127838046Y-115907750D01*
X127826873Y-115930126D01*
X127798462Y-115967469D01*
X127080750Y-116613755D01*
X127064772Y-116625979D01*
X124505799Y-118277283D01*
X124497398Y-118282253D01*
X122375270Y-119428822D01*
X121425557Y-119941944D01*
X121410878Y-119948697D01*
X118173652Y-121193256D01*
X118164666Y-121196327D01*
X116521278Y-121689680D01*
X114918130Y-122170953D01*
X114827152Y-122198265D01*
X114817929Y-122200658D01*
X111411279Y-122948063D01*
X111396550Y-122950390D01*
X108045200Y-123278070D01*
X107997560Y-123282728D01*
X107985299Y-123283326D01*
X104493876Y-123283326D01*
X104481902Y-123282756D01*
X100984128Y-122948854D01*
X100974932Y-122947633D01*
X97567924Y-122366937D01*
X97552852Y-122363403D01*
X94231032Y-121365782D01*
X94222075Y-121362721D01*
X93273358Y-120998134D01*
X108691500Y-120998134D01*
X108698255Y-121060316D01*
X108749385Y-121196705D01*
X108836739Y-121313261D01*
X108953295Y-121400615D01*
X109089684Y-121451745D01*
X109151866Y-121458500D01*
X110948134Y-121458500D01*
X111010316Y-121451745D01*
X111146705Y-121400615D01*
X111263261Y-121313261D01*
X111350615Y-121196705D01*
X111401745Y-121060316D01*
X111408500Y-120998134D01*
X111408500Y-119201866D01*
X111401745Y-119139684D01*
X111350615Y-119003295D01*
X111263261Y-118886739D01*
X111146705Y-118799385D01*
X111010316Y-118748255D01*
X110948134Y-118741500D01*
X109151866Y-118741500D01*
X109089684Y-118748255D01*
X108953295Y-118799385D01*
X108836739Y-118886739D01*
X108749385Y-119003295D01*
X108698255Y-119139684D01*
X108691500Y-119201866D01*
X108691500Y-120998134D01*
X93273358Y-120998134D01*
X90983858Y-120118291D01*
X90969125Y-120111511D01*
X90655538Y-119941944D01*
X87894182Y-118448788D01*
X87887060Y-118444630D01*
X86278531Y-117433213D01*
X84985005Y-116619865D01*
X84970153Y-116608932D01*
X84469807Y-116180731D01*
X84449851Y-116159133D01*
X83932445Y-115447834D01*
X83879186Y-115374616D01*
X83860671Y-115337615D01*
X83659820Y-114686075D01*
X83580941Y-114430197D01*
X83575350Y-114393080D01*
X83575350Y-112954028D01*
X83575497Y-112951820D01*
X83576100Y-112949679D01*
X83575356Y-112873778D01*
X83575350Y-112872543D01*
X83575350Y-112845387D01*
X83575103Y-112843658D01*
X83575070Y-112842853D01*
X83575051Y-112842635D01*
X83575003Y-112837766D01*
X83569754Y-112806099D01*
X83569331Y-112803357D01*
X83561203Y-112746600D01*
X83561202Y-112746598D01*
X83559930Y-112737713D01*
X83558016Y-112733504D01*
X83556936Y-112728772D01*
X83551409Y-112695425D01*
X83405771Y-111816818D01*
X83404298Y-111803716D01*
X83402504Y-111773639D01*
X83401970Y-111764679D01*
X83382264Y-111709680D01*
X83380766Y-111705238D01*
X83364322Y-111653277D01*
X83364321Y-111653276D01*
X83361614Y-111644721D01*
X83356615Y-111637271D01*
X83356612Y-111637265D01*
X83336564Y-111607388D01*
X83330527Y-111597426D01*
X82895174Y-110797703D01*
X83940743Y-110797703D01*
X83978268Y-111082734D01*
X84054129Y-111360036D01*
X84055813Y-111363984D01*
X84161696Y-111612221D01*
X84166923Y-111624476D01*
X84180882Y-111647799D01*
X84282039Y-111816820D01*
X84314561Y-111871161D01*
X84494313Y-112095528D01*
X84702851Y-112293423D01*
X84936317Y-112461186D01*
X84940112Y-112463195D01*
X84940113Y-112463196D01*
X84961869Y-112474715D01*
X85190392Y-112595712D01*
X85460373Y-112694511D01*
X85741264Y-112755755D01*
X85769841Y-112758004D01*
X85964282Y-112773307D01*
X85964291Y-112773307D01*
X85966739Y-112773500D01*
X86122271Y-112773500D01*
X86124407Y-112773354D01*
X86124418Y-112773354D01*
X86332548Y-112759165D01*
X86332554Y-112759164D01*
X86336825Y-112758873D01*
X86341020Y-112758004D01*
X86341022Y-112758004D01*
X86482178Y-112728772D01*
X86618342Y-112700574D01*
X86889343Y-112604607D01*
X87144812Y-112472750D01*
X87148313Y-112470289D01*
X87148317Y-112470287D01*
X87353862Y-112325827D01*
X87380023Y-112307441D01*
X87590622Y-112111740D01*
X87772713Y-111889268D01*
X87922927Y-111644142D01*
X87925787Y-111637628D01*
X88036757Y-111384830D01*
X88038483Y-111380898D01*
X88117244Y-111104406D01*
X88157751Y-110819784D01*
X88157845Y-110801951D01*
X88159235Y-110536583D01*
X88159235Y-110536576D01*
X88159257Y-110532297D01*
X88146178Y-110432948D01*
X88122292Y-110251522D01*
X88121732Y-110247266D01*
X88109721Y-110203359D01*
X88085989Y-110116611D01*
X88045871Y-109969964D01*
X88030139Y-109933081D01*
X87934763Y-109709476D01*
X87934761Y-109709472D01*
X87933077Y-109705524D01*
X87850691Y-109567867D01*
X87787643Y-109462521D01*
X87787640Y-109462517D01*
X87785439Y-109458839D01*
X87605687Y-109234472D01*
X87418934Y-109057250D01*
X87400258Y-109039527D01*
X87400255Y-109039525D01*
X87397149Y-109036577D01*
X87163683Y-108868814D01*
X87141843Y-108857250D01*
X87118654Y-108844972D01*
X86909608Y-108734288D01*
X86639627Y-108635489D01*
X86358736Y-108574245D01*
X86327685Y-108571801D01*
X86135718Y-108556693D01*
X86135709Y-108556693D01*
X86133261Y-108556500D01*
X85977729Y-108556500D01*
X85975593Y-108556646D01*
X85975582Y-108556646D01*
X85767452Y-108570835D01*
X85767446Y-108570836D01*
X85763175Y-108571127D01*
X85758980Y-108571996D01*
X85758978Y-108571996D01*
X85644047Y-108595797D01*
X85481658Y-108629426D01*
X85210657Y-108725393D01*
X84955188Y-108857250D01*
X84951687Y-108859711D01*
X84951683Y-108859713D01*
X84941594Y-108866804D01*
X84719977Y-109022559D01*
X84701717Y-109039527D01*
X84514295Y-109213691D01*
X84509378Y-109218260D01*
X84327287Y-109440732D01*
X84177073Y-109685858D01*
X84175347Y-109689791D01*
X84175346Y-109689792D01*
X84074939Y-109918526D01*
X84061517Y-109949102D01*
X84060342Y-109953229D01*
X84060341Y-109953230D01*
X84042187Y-110016960D01*
X83982756Y-110225594D01*
X83942249Y-110510216D01*
X83942227Y-110514505D01*
X83942226Y-110514512D01*
X83940772Y-110792094D01*
X83940743Y-110797703D01*
X82895174Y-110797703D01*
X82843938Y-110703585D01*
X82842382Y-110700634D01*
X82815496Y-110647972D01*
X82815495Y-110647971D01*
X82811416Y-110639981D01*
X82805260Y-110633459D01*
X82805258Y-110633456D01*
X82786342Y-110613416D01*
X82776966Y-110602253D01*
X82761048Y-110580908D01*
X82755679Y-110573708D01*
X82720060Y-110546880D01*
X82701419Y-110532839D01*
X82699993Y-110531749D01*
X81993268Y-109983488D01*
X81978261Y-109969145D01*
X81975460Y-109966670D01*
X81969645Y-109959837D01*
X81962144Y-109954909D01*
X81962140Y-109954905D01*
X81928925Y-109933081D01*
X81920883Y-109927334D01*
X81918069Y-109925151D01*
X81912388Y-109920744D01*
X81908498Y-109918529D01*
X81908493Y-109918526D01*
X81903044Y-109915424D01*
X81899090Y-109913173D01*
X81892256Y-109908989D01*
X81876110Y-109898380D01*
X81871679Y-109896365D01*
X81871674Y-109896362D01*
X81866373Y-109893951D01*
X81856202Y-109888756D01*
X81825662Y-109871369D01*
X81825660Y-109871368D01*
X81817861Y-109866928D01*
X81806967Y-109864342D01*
X81783905Y-109856445D01*
X80916332Y-109461863D01*
X80914961Y-109461229D01*
X80909871Y-109458839D01*
X80849550Y-109430519D01*
X80818448Y-109425676D01*
X80802458Y-109422108D01*
X80780851Y-109415787D01*
X80780850Y-109415787D01*
X80772236Y-109413267D01*
X80763259Y-109413266D01*
X80763258Y-109413266D01*
X80626930Y-109413252D01*
X80626579Y-109413252D01*
X80626466Y-109413285D01*
X80626257Y-109413300D01*
X78910929Y-109413300D01*
X78882619Y-109410078D01*
X78872471Y-109407738D01*
X77927143Y-109189766D01*
X77899111Y-109179688D01*
X77060006Y-108760137D01*
X77022731Y-108731763D01*
X76374995Y-108012581D01*
X76362723Y-107996536D01*
X76312862Y-107919204D01*
X75984668Y-107410197D01*
X74712638Y-105437363D01*
X74707691Y-105428998D01*
X73048141Y-102358775D01*
X73041386Y-102344102D01*
X72439653Y-100779990D01*
X71795362Y-99105255D01*
X71792274Y-99096219D01*
X71791242Y-99092776D01*
X70939640Y-96253340D01*
X70791778Y-95760335D01*
X70789402Y-95751176D01*
X70049925Y-92385418D01*
X70054843Y-92314592D01*
X70097272Y-92257668D01*
X70163741Y-92232720D01*
X70234461Y-92248392D01*
X70358694Y-92317824D01*
X70546792Y-92378940D01*
X70743177Y-92402358D01*
X70749312Y-92401886D01*
X70749314Y-92401886D01*
X70934230Y-92387657D01*
X70934234Y-92387656D01*
X70940372Y-92387184D01*
X71130863Y-92333998D01*
X71136367Y-92331218D01*
X71136369Y-92331217D01*
X71301895Y-92247604D01*
X71301897Y-92247603D01*
X71307396Y-92244825D01*
X71463247Y-92123061D01*
X71512182Y-92066369D01*
X71571835Y-92027872D01*
X71607564Y-92022700D01*
X74928980Y-92022700D01*
X74997101Y-92042702D01*
X75043594Y-92096358D01*
X75053698Y-92166632D01*
X75048814Y-92187634D01*
X75005635Y-92320525D01*
X75004945Y-92327088D01*
X75004945Y-92327089D01*
X75004035Y-92335747D01*
X74986771Y-92500000D01*
X75005635Y-92679475D01*
X75061401Y-92851107D01*
X75064704Y-92856829D01*
X75064705Y-92856830D01*
X75116762Y-92946995D01*
X75151633Y-93007393D01*
X75156051Y-93012300D01*
X75156052Y-93012301D01*
X75184136Y-93043491D01*
X75214853Y-93107499D01*
X75216500Y-93127802D01*
X75216500Y-97121233D01*
X75215973Y-97132416D01*
X75214298Y-97139909D01*
X75214547Y-97147835D01*
X75214547Y-97147836D01*
X75216438Y-97207986D01*
X75216500Y-97211945D01*
X75216500Y-97239856D01*
X75216997Y-97243790D01*
X75216997Y-97243791D01*
X75217005Y-97243856D01*
X75217938Y-97255693D01*
X75219327Y-97299889D01*
X75224978Y-97319339D01*
X75228987Y-97338700D01*
X75231526Y-97358797D01*
X75234445Y-97366168D01*
X75234445Y-97366170D01*
X75247804Y-97399912D01*
X75251649Y-97411142D01*
X75263982Y-97453593D01*
X75268015Y-97460412D01*
X75268017Y-97460417D01*
X75274293Y-97471028D01*
X75282988Y-97488776D01*
X75290448Y-97507617D01*
X75295110Y-97514033D01*
X75295110Y-97514034D01*
X75316436Y-97543387D01*
X75322952Y-97553307D01*
X75345458Y-97591362D01*
X75359779Y-97605683D01*
X75372619Y-97620716D01*
X75384528Y-97637107D01*
X75390634Y-97642158D01*
X75418605Y-97665298D01*
X75427384Y-97673288D01*
X78933548Y-101179453D01*
X78941088Y-101187739D01*
X78945200Y-101194218D01*
X78950977Y-101199643D01*
X78994851Y-101240843D01*
X78997693Y-101243598D01*
X79017430Y-101263335D01*
X79020627Y-101265815D01*
X79029647Y-101273518D01*
X79061879Y-101303786D01*
X79068825Y-101307605D01*
X79068828Y-101307607D01*
X79079634Y-101313548D01*
X79096153Y-101324399D01*
X79112159Y-101336814D01*
X79119428Y-101339959D01*
X79119432Y-101339962D01*
X79152737Y-101354374D01*
X79163387Y-101359591D01*
X79202140Y-101380895D01*
X79209815Y-101382866D01*
X79209816Y-101382866D01*
X79221762Y-101385933D01*
X79240467Y-101392337D01*
X79259055Y-101400381D01*
X79266878Y-101401620D01*
X79266888Y-101401623D01*
X79302724Y-101407299D01*
X79314344Y-101409705D01*
X79349489Y-101418728D01*
X79357170Y-101420700D01*
X79377424Y-101420700D01*
X79397134Y-101422251D01*
X79417143Y-101425420D01*
X79425035Y-101424674D01*
X79461161Y-101421259D01*
X79473019Y-101420700D01*
X80025229Y-101420700D01*
X80093350Y-101440702D01*
X80139843Y-101494358D01*
X80150907Y-101537710D01*
X80156100Y-101610311D01*
X80197296Y-101750611D01*
X80202167Y-101758190D01*
X80271478Y-101866041D01*
X80271480Y-101866044D01*
X80276350Y-101873621D01*
X80283160Y-101879522D01*
X80380045Y-101963474D01*
X80380048Y-101963476D01*
X80386857Y-101969376D01*
X80519866Y-102030119D01*
X80664600Y-102050929D01*
X81814600Y-102050929D01*
X81817114Y-102050728D01*
X81889245Y-102044960D01*
X81889247Y-102044960D01*
X81896245Y-102044400D01*
X82035833Y-102000852D01*
X82157497Y-101919743D01*
X82251382Y-101807642D01*
X82254986Y-101799387D01*
X82254988Y-101799383D01*
X82306276Y-101681892D01*
X82306276Y-101681891D01*
X82309882Y-101673631D01*
X82328256Y-101528568D01*
X82305018Y-101384204D01*
X82246679Y-101261939D01*
X82243986Y-101256295D01*
X82243984Y-101256292D01*
X82242048Y-101252234D01*
X82081025Y-101010700D01*
X81978620Y-100857092D01*
X81957476Y-100789317D01*
X81978620Y-100717308D01*
X82240651Y-100324262D01*
X82240655Y-100324256D01*
X82242048Y-100322166D01*
X82281904Y-100250611D01*
X82323100Y-100110311D01*
X82323100Y-99964089D01*
X82304690Y-99901389D01*
X82284443Y-99832435D01*
X82284442Y-99832433D01*
X82281904Y-99823789D01*
X82240560Y-99759457D01*
X82207722Y-99708359D01*
X82207720Y-99708356D01*
X82202850Y-99700779D01*
X82196040Y-99694878D01*
X82099155Y-99610926D01*
X82099152Y-99610924D01*
X82092343Y-99605024D01*
X81959334Y-99544281D01*
X81814600Y-99523471D01*
X80664600Y-99523471D01*
X80655624Y-99524113D01*
X80598227Y-99528218D01*
X80598226Y-99528218D01*
X80591489Y-99528700D01*
X80511982Y-99552045D01*
X80459835Y-99567357D01*
X80459833Y-99567358D01*
X80451189Y-99569896D01*
X80443610Y-99574767D01*
X80335759Y-99644078D01*
X80335756Y-99644080D01*
X80328179Y-99648950D01*
X80322278Y-99655760D01*
X80238326Y-99752645D01*
X80238324Y-99752648D01*
X80232424Y-99759457D01*
X80228680Y-99767654D01*
X80228680Y-99767655D01*
X80210539Y-99807378D01*
X80171681Y-99892466D01*
X80170398Y-99901389D01*
X80159198Y-99979289D01*
X80150871Y-100037200D01*
X80150871Y-100037651D01*
X80126420Y-100103208D01*
X80069584Y-100145755D01*
X80025551Y-100153700D01*
X79751794Y-100153700D01*
X79683673Y-100133698D01*
X79662699Y-100116795D01*
X76520405Y-96974500D01*
X76486379Y-96912188D01*
X76483500Y-96885405D01*
X76483500Y-93127802D01*
X76503502Y-93059681D01*
X76515864Y-93043491D01*
X76543948Y-93012301D01*
X76543949Y-93012300D01*
X76548367Y-93007393D01*
X76583238Y-92946995D01*
X76635295Y-92856830D01*
X76635296Y-92856829D01*
X76638599Y-92851107D01*
X76694365Y-92679475D01*
X76713229Y-92500000D01*
X76695965Y-92335747D01*
X76695055Y-92327089D01*
X76695055Y-92327088D01*
X76694365Y-92320525D01*
X76668536Y-92241029D01*
X76644363Y-92166632D01*
X76638599Y-92148893D01*
X76605236Y-92091107D01*
X76588499Y-92022114D01*
X76611719Y-91955022D01*
X76640298Y-91926171D01*
X76644989Y-91922763D01*
X76654907Y-91916248D01*
X76686135Y-91897780D01*
X76686138Y-91897778D01*
X76692962Y-91893742D01*
X76707283Y-91879421D01*
X76722317Y-91866580D01*
X76732294Y-91859331D01*
X76738707Y-91854672D01*
X76766898Y-91820595D01*
X76774888Y-91811816D01*
X78334100Y-90252605D01*
X78396412Y-90218579D01*
X78410731Y-90217040D01*
X78410663Y-90216390D01*
X78417230Y-90215700D01*
X78423832Y-90215700D01*
X78430285Y-90214328D01*
X78430289Y-90214328D01*
X78512092Y-90196940D01*
X78600352Y-90178180D01*
X78627334Y-90166167D01*
X78673764Y-90145495D01*
X78744131Y-90136061D01*
X78808428Y-90166167D01*
X78818647Y-90176289D01*
X78922387Y-90291504D01*
X79068385Y-90397578D01*
X79074417Y-90400263D01*
X79074421Y-90400266D01*
X79091747Y-90407980D01*
X79145844Y-90453959D01*
X79166500Y-90523087D01*
X79166500Y-93271233D01*
X79165973Y-93282416D01*
X79164298Y-93289909D01*
X79164547Y-93297835D01*
X79164547Y-93297836D01*
X79166438Y-93357986D01*
X79166500Y-93361945D01*
X79166500Y-93389856D01*
X79166997Y-93393790D01*
X79166997Y-93393791D01*
X79167005Y-93393856D01*
X79167938Y-93405693D01*
X79169327Y-93449889D01*
X79174978Y-93469339D01*
X79178987Y-93488700D01*
X79181526Y-93508797D01*
X79184445Y-93516168D01*
X79184445Y-93516170D01*
X79197804Y-93549912D01*
X79201649Y-93561142D01*
X79213982Y-93603593D01*
X79218015Y-93610412D01*
X79218017Y-93610417D01*
X79224293Y-93621028D01*
X79232988Y-93638776D01*
X79240448Y-93657617D01*
X79245110Y-93664033D01*
X79245110Y-93664034D01*
X79266436Y-93693387D01*
X79272952Y-93703307D01*
X79284215Y-93722351D01*
X79295458Y-93741362D01*
X79309779Y-93755683D01*
X79322619Y-93770716D01*
X79334528Y-93787107D01*
X79340634Y-93792158D01*
X79368605Y-93815298D01*
X79377384Y-93823288D01*
X82216993Y-96662898D01*
X82224533Y-96671184D01*
X82228645Y-96677663D01*
X82234422Y-96683088D01*
X82278296Y-96724288D01*
X82281138Y-96727043D01*
X82300875Y-96746780D01*
X82304072Y-96749260D01*
X82313092Y-96756963D01*
X82345324Y-96787231D01*
X82352270Y-96791050D01*
X82352273Y-96791052D01*
X82363079Y-96796993D01*
X82379598Y-96807844D01*
X82395604Y-96820259D01*
X82402873Y-96823404D01*
X82402877Y-96823407D01*
X82436182Y-96837819D01*
X82446832Y-96843036D01*
X82485585Y-96864340D01*
X82493260Y-96866311D01*
X82493261Y-96866311D01*
X82505207Y-96869378D01*
X82523912Y-96875782D01*
X82542500Y-96883826D01*
X82550323Y-96885065D01*
X82550333Y-96885068D01*
X82586169Y-96890744D01*
X82597789Y-96893150D01*
X82632934Y-96902173D01*
X82640615Y-96904145D01*
X82660869Y-96904145D01*
X82680579Y-96905696D01*
X82700588Y-96908865D01*
X82708480Y-96908119D01*
X82744606Y-96904704D01*
X82756464Y-96904145D01*
X85114904Y-96904145D01*
X85183025Y-96924147D01*
X85228341Y-96975300D01*
X85394679Y-97319339D01*
X85414775Y-97360904D01*
X85845499Y-98168456D01*
X85846113Y-98169505D01*
X85846117Y-98169512D01*
X85919051Y-98294097D01*
X86307888Y-98958305D01*
X86801214Y-99729209D01*
X86801904Y-99730199D01*
X86801915Y-99730215D01*
X86873192Y-99832435D01*
X87324703Y-100479958D01*
X87877531Y-101209372D01*
X88458832Y-101916305D01*
X88576111Y-102047931D01*
X88938985Y-102455196D01*
X89067690Y-102599646D01*
X89100642Y-102633802D01*
X89700072Y-103255130D01*
X89703151Y-103258322D01*
X89704038Y-103259171D01*
X90336903Y-103865146D01*
X90364215Y-103891298D01*
X90365154Y-103892129D01*
X90365158Y-103892132D01*
X91048924Y-104496768D01*
X91048942Y-104496784D01*
X91049843Y-104497580D01*
X91050799Y-104498360D01*
X91655968Y-104992173D01*
X91758960Y-105076214D01*
X91759966Y-105076970D01*
X91759973Y-105076976D01*
X92453377Y-105598414D01*
X92490450Y-105626293D01*
X93243164Y-106146951D01*
X93244193Y-106147604D01*
X93244205Y-106147612D01*
X93317159Y-106193911D01*
X94015920Y-106637371D01*
X94807504Y-107096783D01*
X94808585Y-107097354D01*
X94808606Y-107097366D01*
X95106268Y-107254693D01*
X95616673Y-107524464D01*
X96442154Y-107919742D01*
X96443297Y-107920235D01*
X96443300Y-107920236D01*
X97281483Y-108281494D01*
X97281501Y-108281501D01*
X97282651Y-108281997D01*
X97283811Y-108282443D01*
X97283820Y-108282447D01*
X97901879Y-108520254D01*
X98136843Y-108610660D01*
X98138031Y-108611064D01*
X98138037Y-108611066D01*
X98417452Y-108706044D01*
X99003389Y-108905214D01*
X99014690Y-108908562D01*
X99326291Y-109000878D01*
X99385924Y-109039407D01*
X99415261Y-109104059D01*
X99416500Y-109121688D01*
X99416500Y-118449868D01*
X99396498Y-118517989D01*
X99384142Y-118534171D01*
X99345933Y-118576607D01*
X99255701Y-118732893D01*
X99199935Y-118904525D01*
X99181071Y-119084000D01*
X99199935Y-119263475D01*
X99201975Y-119269753D01*
X99201975Y-119269754D01*
X99219458Y-119323562D01*
X99255701Y-119435107D01*
X99345933Y-119591393D01*
X99466687Y-119725504D01*
X99612685Y-119831578D01*
X99618713Y-119834262D01*
X99618715Y-119834263D01*
X99771517Y-119902295D01*
X99777548Y-119904980D01*
X99865808Y-119923740D01*
X99947611Y-119941128D01*
X99947615Y-119941128D01*
X99954068Y-119942500D01*
X100134532Y-119942500D01*
X100140985Y-119941128D01*
X100140989Y-119941128D01*
X100222792Y-119923740D01*
X100311052Y-119904980D01*
X100317083Y-119902295D01*
X100469885Y-119834263D01*
X100469887Y-119834262D01*
X100475915Y-119831578D01*
X100621913Y-119725504D01*
X100742667Y-119591393D01*
X100832899Y-119435107D01*
X100869142Y-119323562D01*
X100886625Y-119269754D01*
X100886625Y-119269753D01*
X100888665Y-119263475D01*
X100907529Y-119084000D01*
X100888665Y-118904525D01*
X100832899Y-118732893D01*
X100742667Y-118576607D01*
X100715862Y-118546837D01*
X100685146Y-118482831D01*
X100683500Y-118462529D01*
X100683500Y-116022334D01*
X120301900Y-116022334D01*
X120308655Y-116084516D01*
X120359785Y-116220905D01*
X120447139Y-116337461D01*
X120563695Y-116424815D01*
X120700084Y-116475945D01*
X120762266Y-116482700D01*
X122558534Y-116482700D01*
X122620716Y-116475945D01*
X122757105Y-116424815D01*
X122873661Y-116337461D01*
X122961015Y-116220905D01*
X123012145Y-116084516D01*
X123018900Y-116022334D01*
X123018900Y-114226066D01*
X123012145Y-114163884D01*
X122961015Y-114027495D01*
X122873661Y-113910939D01*
X122757105Y-113823585D01*
X122620716Y-113772455D01*
X122558534Y-113765700D01*
X120762266Y-113765700D01*
X120700084Y-113772455D01*
X120563695Y-113823585D01*
X120447139Y-113910939D01*
X120359785Y-114027495D01*
X120308655Y-114163884D01*
X120301900Y-114226066D01*
X120301900Y-116022334D01*
X100683500Y-116022334D01*
X100683500Y-109033280D01*
X100703502Y-108965159D01*
X100757158Y-108918666D01*
X100827432Y-108908562D01*
X100836870Y-108910289D01*
X101495926Y-109057019D01*
X102394577Y-109219217D01*
X103299058Y-109344900D01*
X103300326Y-109345024D01*
X103300325Y-109345024D01*
X104142341Y-109427447D01*
X104207885Y-109433863D01*
X104209149Y-109433935D01*
X104209159Y-109433936D01*
X104845190Y-109470280D01*
X105119569Y-109485959D01*
X105120786Y-109485979D01*
X105120808Y-109485980D01*
X105802341Y-109497284D01*
X106032615Y-109501103D01*
X106033868Y-109501073D01*
X106033879Y-109501073D01*
X106944274Y-109479300D01*
X106944278Y-109479300D01*
X106945525Y-109479270D01*
X106946760Y-109479190D01*
X106946768Y-109479190D01*
X107855515Y-109420578D01*
X107856802Y-109420495D01*
X108764954Y-109324876D01*
X109668489Y-109192569D01*
X109669739Y-109192334D01*
X110517212Y-109032953D01*
X110587856Y-109040020D01*
X110643465Y-109084158D01*
X110666500Y-109156782D01*
X110666500Y-113583808D01*
X110646498Y-113651929D01*
X110634136Y-113668119D01*
X110626133Y-113677007D01*
X110535901Y-113833293D01*
X110480135Y-114004925D01*
X110479445Y-114011488D01*
X110479445Y-114011489D01*
X110470145Y-114099967D01*
X110461271Y-114184400D01*
X110461961Y-114190965D01*
X110466010Y-114229483D01*
X110480135Y-114363875D01*
X110535901Y-114535507D01*
X110626133Y-114691793D01*
X110746887Y-114825904D01*
X110892885Y-114931978D01*
X110898913Y-114934662D01*
X110898915Y-114934663D01*
X111051717Y-115002695D01*
X111057748Y-115005380D01*
X111146008Y-115024140D01*
X111227811Y-115041528D01*
X111227815Y-115041528D01*
X111234268Y-115042900D01*
X111414732Y-115042900D01*
X111421185Y-115041528D01*
X111421189Y-115041528D01*
X111502992Y-115024140D01*
X111591252Y-115005380D01*
X111597283Y-115002695D01*
X111750085Y-114934663D01*
X111750087Y-114934662D01*
X111756115Y-114931978D01*
X111902113Y-114825904D01*
X112022867Y-114691793D01*
X112113099Y-114535507D01*
X112168865Y-114363875D01*
X112182991Y-114229483D01*
X112187039Y-114190965D01*
X112187729Y-114184400D01*
X112178855Y-114099967D01*
X112169555Y-114011489D01*
X112169555Y-114011488D01*
X112168865Y-114004925D01*
X112113099Y-113833293D01*
X112022867Y-113677007D01*
X111965864Y-113613699D01*
X111935147Y-113549691D01*
X111933500Y-113529388D01*
X111933500Y-110797703D01*
X123770743Y-110797703D01*
X123808268Y-111082734D01*
X123884129Y-111360036D01*
X123885813Y-111363984D01*
X123991696Y-111612221D01*
X123996923Y-111624476D01*
X124010882Y-111647799D01*
X124112039Y-111816820D01*
X124144561Y-111871161D01*
X124324313Y-112095528D01*
X124532851Y-112293423D01*
X124766317Y-112461186D01*
X124770112Y-112463195D01*
X124770113Y-112463196D01*
X124791869Y-112474715D01*
X125020392Y-112595712D01*
X125290373Y-112694511D01*
X125571264Y-112755755D01*
X125599841Y-112758004D01*
X125794282Y-112773307D01*
X125794291Y-112773307D01*
X125796739Y-112773500D01*
X125952271Y-112773500D01*
X125954407Y-112773354D01*
X125954418Y-112773354D01*
X126162548Y-112759165D01*
X126162554Y-112759164D01*
X126166825Y-112758873D01*
X126171020Y-112758004D01*
X126171022Y-112758004D01*
X126312178Y-112728772D01*
X126448342Y-112700574D01*
X126719343Y-112604607D01*
X126974812Y-112472750D01*
X126978313Y-112470289D01*
X126978317Y-112470287D01*
X127183862Y-112325827D01*
X127210023Y-112307441D01*
X127420622Y-112111740D01*
X127602713Y-111889268D01*
X127752927Y-111644142D01*
X127755787Y-111637628D01*
X127866757Y-111384830D01*
X127868483Y-111380898D01*
X127947244Y-111104406D01*
X127987751Y-110819784D01*
X127987845Y-110801951D01*
X127989235Y-110536583D01*
X127989235Y-110536576D01*
X127989257Y-110532297D01*
X127976178Y-110432948D01*
X127952292Y-110251522D01*
X127951732Y-110247266D01*
X127939721Y-110203359D01*
X127915989Y-110116611D01*
X127875871Y-109969964D01*
X127860139Y-109933081D01*
X127764763Y-109709476D01*
X127764761Y-109709472D01*
X127763077Y-109705524D01*
X127680691Y-109567867D01*
X127617643Y-109462521D01*
X127617640Y-109462517D01*
X127615439Y-109458839D01*
X127435687Y-109234472D01*
X127248934Y-109057250D01*
X127230258Y-109039527D01*
X127230255Y-109039525D01*
X127227149Y-109036577D01*
X126993683Y-108868814D01*
X126971843Y-108857250D01*
X126948654Y-108844972D01*
X126739608Y-108734288D01*
X126469627Y-108635489D01*
X126188736Y-108574245D01*
X126157685Y-108571801D01*
X125965718Y-108556693D01*
X125965709Y-108556693D01*
X125963261Y-108556500D01*
X125807729Y-108556500D01*
X125805593Y-108556646D01*
X125805582Y-108556646D01*
X125597452Y-108570835D01*
X125597446Y-108570836D01*
X125593175Y-108571127D01*
X125588980Y-108571996D01*
X125588978Y-108571996D01*
X125474047Y-108595797D01*
X125311658Y-108629426D01*
X125040657Y-108725393D01*
X124785188Y-108857250D01*
X124781687Y-108859711D01*
X124781683Y-108859713D01*
X124771594Y-108866804D01*
X124549977Y-109022559D01*
X124531717Y-109039527D01*
X124344295Y-109213691D01*
X124339378Y-109218260D01*
X124157287Y-109440732D01*
X124007073Y-109685858D01*
X124005347Y-109689791D01*
X124005346Y-109689792D01*
X123904939Y-109918526D01*
X123891517Y-109949102D01*
X123890342Y-109953229D01*
X123890341Y-109953230D01*
X123872187Y-110016960D01*
X123812756Y-110225594D01*
X123772249Y-110510216D01*
X123772227Y-110514505D01*
X123772226Y-110514512D01*
X123770772Y-110792094D01*
X123770743Y-110797703D01*
X111933500Y-110797703D01*
X111933500Y-108283174D01*
X111953502Y-108215053D01*
X112007158Y-108168560D01*
X112022477Y-108162736D01*
X112510750Y-108012638D01*
X112889081Y-107896337D01*
X113762604Y-107587200D01*
X113763792Y-107586723D01*
X113763815Y-107586714D01*
X114621188Y-107242230D01*
X114621205Y-107242223D01*
X114622409Y-107241739D01*
X115466986Y-106860561D01*
X115725282Y-106730698D01*
X115912240Y-106636701D01*
X116294853Y-106444335D01*
X117104556Y-105993792D01*
X117105667Y-105993111D01*
X117105683Y-105993102D01*
X117703232Y-105627010D01*
X117894673Y-105509723D01*
X118663817Y-104992978D01*
X119410638Y-104444465D01*
X120133823Y-103865146D01*
X120295801Y-103723854D01*
X120831108Y-103256908D01*
X120831113Y-103256903D01*
X120832104Y-103256039D01*
X121504254Y-102618213D01*
X121769885Y-102344102D01*
X122148172Y-101953739D01*
X122148185Y-101953725D01*
X122149093Y-101952788D01*
X122226379Y-101866041D01*
X122764591Y-101261939D01*
X122764595Y-101261934D01*
X122765488Y-101260932D01*
X122775674Y-101248487D01*
X123003189Y-100970495D01*
X123118422Y-100829697D01*
X123177044Y-100789650D01*
X123215928Y-100783500D01*
X130077703Y-100783500D01*
X130145824Y-100803502D01*
X130151757Y-100807559D01*
X130278685Y-100899778D01*
X130284713Y-100902462D01*
X130284715Y-100902463D01*
X130437517Y-100970495D01*
X130443548Y-100973180D01*
X130531808Y-100991940D01*
X130613611Y-101009328D01*
X130613615Y-101009328D01*
X130620068Y-101010700D01*
X130800532Y-101010700D01*
X130806985Y-101009328D01*
X130806989Y-101009328D01*
X130888792Y-100991940D01*
X130977052Y-100973180D01*
X130983083Y-100970495D01*
X131135885Y-100902463D01*
X131135887Y-100902462D01*
X131141915Y-100899778D01*
X131238372Y-100829698D01*
X131282569Y-100797587D01*
X131282571Y-100797585D01*
X131287913Y-100793704D01*
X131408667Y-100659593D01*
X131498899Y-100503307D01*
X131554665Y-100331675D01*
X131555665Y-100322166D01*
X131572839Y-100158765D01*
X131573529Y-100152200D01*
X131554665Y-99972725D01*
X131549051Y-99955445D01*
X131521475Y-99870575D01*
X131498899Y-99801093D01*
X131470928Y-99752645D01*
X131445359Y-99708359D01*
X131408667Y-99644807D01*
X131378161Y-99610926D01*
X131292335Y-99515607D01*
X131292334Y-99515606D01*
X131287913Y-99510696D01*
X131268372Y-99496498D01*
X131147257Y-99408503D01*
X131147256Y-99408502D01*
X131141915Y-99404622D01*
X131135887Y-99401938D01*
X131135885Y-99401937D01*
X130983083Y-99333905D01*
X130983081Y-99333905D01*
X130977052Y-99331220D01*
X130888792Y-99312460D01*
X130806989Y-99295072D01*
X130806985Y-99295072D01*
X130800532Y-99293700D01*
X130620068Y-99293700D01*
X130613615Y-99295072D01*
X130613611Y-99295072D01*
X130531808Y-99312460D01*
X130443548Y-99331220D01*
X130437519Y-99333904D01*
X130437517Y-99333905D01*
X130284716Y-99401937D01*
X130284714Y-99401938D01*
X130278686Y-99404622D01*
X130273345Y-99408502D01*
X130273344Y-99408503D01*
X130157820Y-99492436D01*
X130083759Y-99516500D01*
X123661557Y-99516500D01*
X123593436Y-99496498D01*
X123546943Y-99442842D01*
X123536839Y-99372568D01*
X123558092Y-99318590D01*
X123887474Y-98844672D01*
X123887482Y-98844661D01*
X123888234Y-98843578D01*
X123984656Y-98691642D01*
X124357628Y-98103934D01*
X136538100Y-98103934D01*
X136544855Y-98166116D01*
X136595985Y-98302505D01*
X136683339Y-98419061D01*
X136799895Y-98506415D01*
X136936284Y-98557545D01*
X136998466Y-98564300D01*
X138794734Y-98564300D01*
X138856916Y-98557545D01*
X138993305Y-98506415D01*
X139109861Y-98419061D01*
X139197215Y-98302505D01*
X139248345Y-98166116D01*
X139255100Y-98103934D01*
X139255100Y-96307666D01*
X139248345Y-96245484D01*
X139197215Y-96109095D01*
X139109861Y-95992539D01*
X138993305Y-95905185D01*
X138856916Y-95854055D01*
X138794734Y-95847300D01*
X136998466Y-95847300D01*
X136936284Y-95854055D01*
X136799895Y-95905185D01*
X136683339Y-95992539D01*
X136595985Y-96109095D01*
X136544855Y-96245484D01*
X136538100Y-96307666D01*
X136538100Y-98103934D01*
X124357628Y-98103934D01*
X124370341Y-98083901D01*
X124370353Y-98083882D01*
X124371062Y-98082764D01*
X124821606Y-97302398D01*
X125239077Y-96503850D01*
X125454100Y-96046904D01*
X125622173Y-95689731D01*
X125622180Y-95689716D01*
X125622742Y-95688521D01*
X125623990Y-95685554D01*
X125971431Y-94859022D01*
X125971928Y-94857840D01*
X125999955Y-94782479D01*
X126285567Y-94014490D01*
X126285570Y-94014482D01*
X126286022Y-94013266D01*
X126308497Y-93944097D01*
X126389957Y-93693387D01*
X126564474Y-93156280D01*
X126806794Y-92288385D01*
X126816175Y-92248392D01*
X127012253Y-91412407D01*
X127012559Y-91411104D01*
X127019247Y-91376047D01*
X127073702Y-91090580D01*
X127181406Y-90525976D01*
X127181833Y-90523087D01*
X127199379Y-90404269D01*
X138215001Y-90404269D01*
X138215371Y-90411090D01*
X138220895Y-90461952D01*
X138224521Y-90477204D01*
X138269676Y-90597654D01*
X138278214Y-90613249D01*
X138354715Y-90715324D01*
X138367276Y-90727885D01*
X138469351Y-90804386D01*
X138484946Y-90812924D01*
X138605394Y-90858078D01*
X138620649Y-90861705D01*
X138671514Y-90867231D01*
X138678328Y-90867600D01*
X139300885Y-90867600D01*
X139316124Y-90863125D01*
X139317329Y-90861735D01*
X139319000Y-90854052D01*
X139319000Y-90849484D01*
X139827000Y-90849484D01*
X139831475Y-90864723D01*
X139832865Y-90865928D01*
X139840548Y-90867599D01*
X140467669Y-90867599D01*
X140474490Y-90867229D01*
X140525352Y-90861705D01*
X140540604Y-90858079D01*
X140661054Y-90812924D01*
X140676649Y-90804386D01*
X140778724Y-90727885D01*
X140791285Y-90715324D01*
X140867786Y-90613249D01*
X140876324Y-90597654D01*
X140921478Y-90477206D01*
X140925105Y-90461951D01*
X140930631Y-90411086D01*
X140931000Y-90404272D01*
X140931000Y-89781715D01*
X140926525Y-89766476D01*
X140925135Y-89765271D01*
X140917452Y-89763600D01*
X139845115Y-89763600D01*
X139829876Y-89768075D01*
X139828671Y-89769465D01*
X139827000Y-89777148D01*
X139827000Y-90849484D01*
X139319000Y-90849484D01*
X139319000Y-89781715D01*
X139314525Y-89766476D01*
X139313135Y-89765271D01*
X139305452Y-89763600D01*
X138233116Y-89763600D01*
X138217877Y-89768075D01*
X138216672Y-89769465D01*
X138215001Y-89777148D01*
X138215001Y-90404269D01*
X127199379Y-90404269D01*
X127312849Y-89635849D01*
X127312850Y-89635838D01*
X127313040Y-89634554D01*
X127354773Y-89237485D01*
X138215000Y-89237485D01*
X138219475Y-89252724D01*
X138220865Y-89253929D01*
X138228548Y-89255600D01*
X139300885Y-89255600D01*
X139316124Y-89251125D01*
X139317329Y-89249735D01*
X139319000Y-89242052D01*
X139319000Y-89237485D01*
X139827000Y-89237485D01*
X139831475Y-89252724D01*
X139832865Y-89253929D01*
X139840548Y-89255600D01*
X140912884Y-89255600D01*
X140928123Y-89251125D01*
X140929328Y-89249735D01*
X140930999Y-89242052D01*
X140930999Y-88614931D01*
X140930629Y-88608110D01*
X140925105Y-88557248D01*
X140921479Y-88541996D01*
X140876324Y-88421546D01*
X140867786Y-88405951D01*
X140791285Y-88303876D01*
X140778724Y-88291315D01*
X140676649Y-88214814D01*
X140661054Y-88206276D01*
X140540606Y-88161122D01*
X140525351Y-88157495D01*
X140474486Y-88151969D01*
X140467672Y-88151600D01*
X139845115Y-88151600D01*
X139829876Y-88156075D01*
X139828671Y-88157465D01*
X139827000Y-88165148D01*
X139827000Y-89237485D01*
X139319000Y-89237485D01*
X139319000Y-88169716D01*
X139314525Y-88154477D01*
X139313135Y-88153272D01*
X139305452Y-88151601D01*
X138678331Y-88151601D01*
X138671510Y-88151971D01*
X138620648Y-88157495D01*
X138605396Y-88161121D01*
X138484946Y-88206276D01*
X138469351Y-88214814D01*
X138367276Y-88291315D01*
X138354715Y-88303876D01*
X138278214Y-88405951D01*
X138269676Y-88421546D01*
X138224522Y-88541994D01*
X138220895Y-88557249D01*
X138215369Y-88608114D01*
X138215000Y-88614928D01*
X138215000Y-89237485D01*
X127354773Y-89237485D01*
X127407229Y-88738402D01*
X127443295Y-88165148D01*
X127463727Y-87840401D01*
X127463728Y-87840381D01*
X127463809Y-87839091D01*
X127482680Y-86938200D01*
X127463809Y-86037309D01*
X127461335Y-85997977D01*
X127431936Y-85530700D01*
X127407229Y-85137998D01*
X127392466Y-84997534D01*
X138189100Y-84997534D01*
X138195855Y-85059716D01*
X138246985Y-85196105D01*
X138334339Y-85312661D01*
X138450895Y-85400015D01*
X138587284Y-85451145D01*
X138649466Y-85457900D01*
X140445734Y-85457900D01*
X140507916Y-85451145D01*
X140644305Y-85400015D01*
X140760861Y-85312661D01*
X140848215Y-85196105D01*
X140899345Y-85059716D01*
X140906100Y-84997534D01*
X140906100Y-83201266D01*
X140899345Y-83139084D01*
X140848215Y-83002695D01*
X140760861Y-82886139D01*
X140644305Y-82798785D01*
X140507916Y-82747655D01*
X140445734Y-82740900D01*
X138649466Y-82740900D01*
X138587284Y-82747655D01*
X138450895Y-82798785D01*
X138334339Y-82886139D01*
X138246985Y-83002695D01*
X138195855Y-83139084D01*
X138189100Y-83201266D01*
X138189100Y-84997534D01*
X127392466Y-84997534D01*
X127313040Y-84241846D01*
X127290409Y-84088585D01*
X127181599Y-83351730D01*
X127181598Y-83351723D01*
X127181406Y-83350424D01*
X127065133Y-82740900D01*
X127012811Y-82466616D01*
X127012809Y-82466607D01*
X127012559Y-82465296D01*
X126888365Y-81935793D01*
X126807099Y-81589314D01*
X126807095Y-81589300D01*
X126806794Y-81588015D01*
X126564474Y-80720120D01*
X126316836Y-79957970D01*
X126286430Y-79864389D01*
X126286427Y-79864379D01*
X126286022Y-79863134D01*
X126267425Y-79813128D01*
X125972374Y-79019758D01*
X125972366Y-79019739D01*
X125971928Y-79018560D01*
X125751150Y-78493350D01*
X125623256Y-78189101D01*
X125623250Y-78189088D01*
X125622742Y-78187879D01*
X125606789Y-78153976D01*
X125239630Y-77373725D01*
X125239628Y-77373722D01*
X125239077Y-77372550D01*
X124821606Y-76574002D01*
X124371062Y-75793636D01*
X124370353Y-75792518D01*
X124370341Y-75792499D01*
X123888955Y-75033958D01*
X123888953Y-75033956D01*
X123888234Y-75032822D01*
X123780666Y-74878051D01*
X123374726Y-74293980D01*
X123374721Y-74293973D01*
X123373971Y-74292894D01*
X122829174Y-73575150D01*
X122817138Y-73560600D01*
X122255633Y-72881858D01*
X122255626Y-72881850D01*
X122254798Y-72880849D01*
X122031671Y-72633041D01*
X122000955Y-72569036D01*
X122009719Y-72498582D01*
X122055181Y-72444051D01*
X122122909Y-72422756D01*
X122191398Y-72441457D01*
X122214403Y-72459638D01*
X124237367Y-74482601D01*
X124262697Y-74518944D01*
X124334098Y-74673824D01*
X124451679Y-74840197D01*
X124597610Y-74982357D01*
X124602406Y-74985562D01*
X124602409Y-74985564D01*
X124682846Y-75039310D01*
X124767003Y-75095542D01*
X124772306Y-75097820D01*
X124772309Y-75097822D01*
X124890818Y-75148737D01*
X124930176Y-75175410D01*
X125691654Y-75936889D01*
X125720976Y-75983360D01*
X125722005Y-75987410D01*
X125807298Y-76172424D01*
X125924879Y-76338797D01*
X126070810Y-76480957D01*
X126075606Y-76484162D01*
X126075609Y-76484164D01*
X126143549Y-76529560D01*
X126240203Y-76594142D01*
X126245506Y-76596420D01*
X126245509Y-76596422D01*
X126334515Y-76634662D01*
X126427387Y-76674563D01*
X126495989Y-76690086D01*
X126620455Y-76718250D01*
X126620460Y-76718251D01*
X126626092Y-76719525D01*
X126631863Y-76719752D01*
X126631865Y-76719752D01*
X126694870Y-76722227D01*
X126829663Y-76727523D01*
X127031283Y-76698290D01*
X127036747Y-76696435D01*
X127036752Y-76696434D01*
X127218727Y-76634662D01*
X127218732Y-76634660D01*
X127224199Y-76632804D01*
X127401951Y-76533258D01*
X127558586Y-76402986D01*
X127688858Y-76246351D01*
X127761578Y-76116500D01*
X127785580Y-76073642D01*
X127785581Y-76073640D01*
X127788404Y-76068599D01*
X127790260Y-76063132D01*
X127790262Y-76063127D01*
X127852034Y-75881152D01*
X127852035Y-75881147D01*
X127853890Y-75875683D01*
X127883123Y-75674063D01*
X127884649Y-75615800D01*
X127866008Y-75412926D01*
X127825879Y-75270641D01*
X127812275Y-75222406D01*
X127812274Y-75222404D01*
X127810707Y-75216847D01*
X127793790Y-75182541D01*
X127723156Y-75039310D01*
X127720601Y-75034129D01*
X127716487Y-75028619D01*
X127602158Y-74875515D01*
X127602158Y-74875514D01*
X127598705Y-74870891D01*
X127505847Y-74785054D01*
X127453343Y-74736519D01*
X127453340Y-74736517D01*
X127449103Y-74732600D01*
X127363423Y-74678540D01*
X127281688Y-74626969D01*
X127281683Y-74626967D01*
X127276804Y-74623888D01*
X127224874Y-74603170D01*
X127182469Y-74575235D01*
X126363019Y-73755785D01*
X126338366Y-73717822D01*
X126337506Y-73718246D01*
X126326522Y-73695971D01*
X126314333Y-73626030D01*
X126341893Y-73560600D01*
X126400452Y-73520458D01*
X126471417Y-73518347D01*
X126500039Y-73529725D01*
X126505709Y-73532829D01*
X126512895Y-73538215D01*
X126649284Y-73589345D01*
X126711466Y-73596100D01*
X128507734Y-73596100D01*
X128569916Y-73589345D01*
X128706305Y-73538215D01*
X128822861Y-73450861D01*
X128910215Y-73334305D01*
X128961345Y-73197916D01*
X128968100Y-73135734D01*
X128968100Y-71339466D01*
X128961345Y-71277284D01*
X128910215Y-71140895D01*
X128822861Y-71024339D01*
X128706305Y-70936985D01*
X128569916Y-70885855D01*
X128507734Y-70879100D01*
X126711466Y-70879100D01*
X126649284Y-70885855D01*
X126512895Y-70936985D01*
X126396339Y-71024339D01*
X126308985Y-71140895D01*
X126257855Y-71277284D01*
X126251100Y-71339466D01*
X126251100Y-73135734D01*
X126251469Y-73139129D01*
X126251469Y-73139133D01*
X126257339Y-73193171D01*
X126244810Y-73263054D01*
X126196489Y-73315069D01*
X126127717Y-73332703D01*
X126060329Y-73310356D01*
X126046547Y-73299302D01*
X125980149Y-73237924D01*
X125980143Y-73237919D01*
X125975903Y-73234000D01*
X125906262Y-73190060D01*
X125808488Y-73128369D01*
X125808483Y-73128367D01*
X125803604Y-73125288D01*
X125709414Y-73087710D01*
X125667009Y-73059775D01*
X122609805Y-70002571D01*
X122575779Y-69940259D01*
X122572900Y-69913476D01*
X122572900Y-64525073D01*
X122573590Y-64511903D01*
X122577111Y-64478404D01*
X122577111Y-64478402D01*
X122577755Y-64472275D01*
X122573419Y-64424630D01*
X122572900Y-64413210D01*
X122572900Y-63357703D01*
X123770743Y-63357703D01*
X123771302Y-63361947D01*
X123771302Y-63361951D01*
X123783535Y-63454868D01*
X123808268Y-63642734D01*
X123809401Y-63646874D01*
X123809401Y-63646876D01*
X123822466Y-63694635D01*
X123884129Y-63920036D01*
X123885813Y-63923984D01*
X123994783Y-64179458D01*
X123996923Y-64184476D01*
X124057707Y-64286038D01*
X124141965Y-64426823D01*
X124144561Y-64431161D01*
X124324313Y-64655528D01*
X124424107Y-64750229D01*
X124502826Y-64824930D01*
X124532851Y-64853423D01*
X124766317Y-65021186D01*
X124770112Y-65023195D01*
X124770113Y-65023196D01*
X124789844Y-65033643D01*
X125020392Y-65155712D01*
X125065464Y-65172206D01*
X125209974Y-65225089D01*
X125290373Y-65254511D01*
X125571264Y-65315755D01*
X125599841Y-65318004D01*
X125794282Y-65333307D01*
X125794291Y-65333307D01*
X125796739Y-65333500D01*
X125952271Y-65333500D01*
X125954407Y-65333354D01*
X125954418Y-65333354D01*
X126162548Y-65319165D01*
X126162554Y-65319164D01*
X126166825Y-65318873D01*
X126171020Y-65318004D01*
X126171022Y-65318004D01*
X126341851Y-65282627D01*
X126448342Y-65260574D01*
X126719343Y-65164607D01*
X126833501Y-65105686D01*
X126971005Y-65034715D01*
X126971006Y-65034715D01*
X126974812Y-65032750D01*
X126978313Y-65030289D01*
X126978317Y-65030287D01*
X127142645Y-64914795D01*
X127210023Y-64867441D01*
X127288403Y-64794606D01*
X127417479Y-64674661D01*
X127417481Y-64674658D01*
X127420622Y-64671740D01*
X127602713Y-64449268D01*
X127752927Y-64204142D01*
X127766698Y-64172772D01*
X127866757Y-63944830D01*
X127868483Y-63940898D01*
X127885003Y-63882906D01*
X127939191Y-63692676D01*
X127947244Y-63664406D01*
X127987751Y-63379784D01*
X127987845Y-63361951D01*
X127989235Y-63096583D01*
X127989235Y-63096576D01*
X127989257Y-63092297D01*
X127988573Y-63087096D01*
X127969212Y-62940042D01*
X127951732Y-62807266D01*
X127949776Y-62800114D01*
X127906719Y-62642725D01*
X127875871Y-62529964D01*
X127858609Y-62489495D01*
X127764763Y-62269476D01*
X127764761Y-62269472D01*
X127763077Y-62265524D01*
X127665428Y-62102365D01*
X127617643Y-62022521D01*
X127617640Y-62022517D01*
X127615439Y-62018839D01*
X127435687Y-61794472D01*
X127227149Y-61596577D01*
X126993683Y-61428814D01*
X126971843Y-61417250D01*
X126948654Y-61404972D01*
X126739608Y-61294288D01*
X126527630Y-61216715D01*
X126473658Y-61196964D01*
X126473656Y-61196963D01*
X126469627Y-61195489D01*
X126188736Y-61134245D01*
X126157685Y-61131801D01*
X125965718Y-61116693D01*
X125965709Y-61116693D01*
X125963261Y-61116500D01*
X125807729Y-61116500D01*
X125805593Y-61116646D01*
X125805582Y-61116646D01*
X125597452Y-61130835D01*
X125597446Y-61130836D01*
X125593175Y-61131127D01*
X125588980Y-61131996D01*
X125588978Y-61131996D01*
X125518395Y-61146613D01*
X125311658Y-61189426D01*
X125040657Y-61285393D01*
X124785188Y-61417250D01*
X124781687Y-61419711D01*
X124781683Y-61419713D01*
X124771594Y-61426804D01*
X124549977Y-61582559D01*
X124481922Y-61645800D01*
X124344140Y-61773835D01*
X124339378Y-61778260D01*
X124157287Y-62000732D01*
X124007073Y-62245858D01*
X124005347Y-62249791D01*
X124005346Y-62249792D01*
X123944070Y-62389382D01*
X123891517Y-62509102D01*
X123812756Y-62785594D01*
X123772249Y-63070216D01*
X123772227Y-63074505D01*
X123772226Y-63074512D01*
X123770805Y-63345824D01*
X123770743Y-63357703D01*
X122572900Y-63357703D01*
X122572900Y-60844040D01*
X122573637Y-60830432D01*
X122577059Y-60798936D01*
X122577059Y-60798932D01*
X122577724Y-60792811D01*
X122574863Y-60760106D01*
X122573350Y-60742809D01*
X122573021Y-60737984D01*
X122572900Y-60735513D01*
X122572900Y-60732431D01*
X122569534Y-60698107D01*
X122568709Y-60689689D01*
X122568587Y-60688374D01*
X122561023Y-60601919D01*
X122560487Y-60595787D01*
X122559000Y-60590668D01*
X122558480Y-60585367D01*
X122531599Y-60496333D01*
X122531264Y-60495200D01*
X122507027Y-60411778D01*
X122507025Y-60411774D01*
X122505308Y-60405863D01*
X122502857Y-60401134D01*
X122501316Y-60396031D01*
X122457630Y-60313869D01*
X122457083Y-60312827D01*
X122417128Y-60235745D01*
X122417127Y-60235744D01*
X122414292Y-60230274D01*
X122410969Y-60226111D01*
X122408466Y-60221404D01*
X122402857Y-60214526D01*
X122349663Y-60149305D01*
X122348900Y-60148360D01*
X122317661Y-60109227D01*
X122315170Y-60106736D01*
X122314520Y-60106009D01*
X122310808Y-60101663D01*
X122287355Y-60072908D01*
X122283465Y-60068138D01*
X122278723Y-60064215D01*
X122278721Y-60064213D01*
X122248127Y-60038903D01*
X122239347Y-60030913D01*
X114489055Y-52280621D01*
X114479953Y-52270478D01*
X114460097Y-52245782D01*
X114456232Y-52240975D01*
X114417778Y-52208708D01*
X114414131Y-52205528D01*
X114412319Y-52203885D01*
X114410125Y-52201691D01*
X114376836Y-52174346D01*
X114376018Y-52173667D01*
X114304726Y-52113846D01*
X114300056Y-52111278D01*
X114295939Y-52107897D01*
X114214114Y-52064023D01*
X114212955Y-52063394D01*
X114136819Y-52021538D01*
X114136811Y-52021535D01*
X114131413Y-52018567D01*
X114126331Y-52016955D01*
X114121637Y-52014438D01*
X114032669Y-51987238D01*
X114031641Y-51986918D01*
X113942894Y-51958765D01*
X113937598Y-51958171D01*
X113932502Y-51956613D01*
X113839943Y-51947210D01*
X113838807Y-51947089D01*
X113802793Y-51943050D01*
X113792470Y-51941892D01*
X113792466Y-51941892D01*
X113788973Y-51941500D01*
X113785446Y-51941500D01*
X113784461Y-51941445D01*
X113778781Y-51940998D01*
X113749375Y-51938011D01*
X113741863Y-51937248D01*
X113741861Y-51937248D01*
X113735738Y-51936626D01*
X113693709Y-51940599D01*
X113690091Y-51940941D01*
X113678233Y-51941500D01*
X110224376Y-51941500D01*
X110156255Y-51921498D01*
X110109762Y-51867842D01*
X110099658Y-51797568D01*
X110129152Y-51732988D01*
X110188801Y-51694626D01*
X110303521Y-51660862D01*
X110314889Y-51656269D01*
X110479154Y-51570393D01*
X110489415Y-51563679D01*
X110633873Y-51447532D01*
X110642632Y-51438954D01*
X110761778Y-51296961D01*
X110768708Y-51286841D01*
X110858002Y-51124415D01*
X110862834Y-51113142D01*
X110918880Y-50936462D01*
X110921430Y-50924468D01*
X110937607Y-50780239D01*
X110938000Y-50773215D01*
X110938000Y-50692115D01*
X110933525Y-50676876D01*
X110932135Y-50675671D01*
X110924452Y-50674000D01*
X108940115Y-50674000D01*
X108924876Y-50678475D01*
X108923671Y-50679865D01*
X108922000Y-50687548D01*
X108922000Y-50766657D01*
X108922301Y-50772805D01*
X108935812Y-50910603D01*
X108938195Y-50922638D01*
X108991767Y-51100076D01*
X108996441Y-51111416D01*
X109083460Y-51275077D01*
X109090249Y-51285294D01*
X109207397Y-51428933D01*
X109216041Y-51437637D01*
X109358856Y-51555784D01*
X109369027Y-51562644D01*
X109532076Y-51650804D01*
X109543381Y-51655556D01*
X109671240Y-51695135D01*
X109730400Y-51734386D01*
X109758947Y-51799390D01*
X109747819Y-51869509D01*
X109700547Y-51922481D01*
X109633981Y-51941500D01*
X107482689Y-51941500D01*
X107435999Y-51932530D01*
X107275098Y-51868337D01*
X107269729Y-51866195D01*
X107069915Y-51826449D01*
X107064141Y-51826373D01*
X107064137Y-51826373D01*
X106961001Y-51825024D01*
X106866204Y-51823783D01*
X106860507Y-51824762D01*
X106860506Y-51824762D01*
X106671116Y-51857305D01*
X106665419Y-51858284D01*
X106475089Y-51928501D01*
X106443340Y-51935728D01*
X106410438Y-51938839D01*
X106404536Y-51940598D01*
X106404533Y-51940599D01*
X106226807Y-51993581D01*
X106226805Y-51993582D01*
X106220904Y-51995341D01*
X106045954Y-52087582D01*
X106008632Y-52117805D01*
X105972555Y-52147020D01*
X105907028Y-52174346D01*
X105893260Y-52175100D01*
X97896670Y-52175100D01*
X97877720Y-52173667D01*
X97877622Y-52173652D01*
X97877122Y-52173576D01*
X97863485Y-52171501D01*
X97863481Y-52171501D01*
X97856251Y-52170401D01*
X97848959Y-52170994D01*
X97848956Y-52170994D01*
X97803582Y-52174685D01*
X97793367Y-52175100D01*
X97785307Y-52175100D01*
X97781673Y-52175524D01*
X97781667Y-52175524D01*
X97768642Y-52177043D01*
X97757080Y-52178391D01*
X97752732Y-52178821D01*
X97730659Y-52180616D01*
X97687262Y-52184146D01*
X97687259Y-52184147D01*
X97679964Y-52184740D01*
X97673000Y-52186996D01*
X97667061Y-52188183D01*
X97661190Y-52189570D01*
X97653919Y-52190418D01*
X97647043Y-52192914D01*
X97647034Y-52192916D01*
X97585302Y-52215325D01*
X97581198Y-52216735D01*
X97511701Y-52239248D01*
X97505446Y-52243044D01*
X97499987Y-52245543D01*
X97494539Y-52248271D01*
X97487663Y-52250767D01*
X97426610Y-52290795D01*
X97422927Y-52293119D01*
X97365286Y-52328096D01*
X97365282Y-52328099D01*
X97360493Y-52331005D01*
X97352117Y-52338403D01*
X97352093Y-52338376D01*
X97349111Y-52341021D01*
X97345874Y-52343728D01*
X97339748Y-52347744D01*
X97334712Y-52353060D01*
X97334711Y-52353061D01*
X97286454Y-52404002D01*
X97284076Y-52406444D01*
X92967661Y-56722859D01*
X92905349Y-56756885D01*
X92890005Y-56759243D01*
X92843819Y-56763446D01*
X92658792Y-56817902D01*
X92487866Y-56907260D01*
X92337551Y-57028116D01*
X92317150Y-57052429D01*
X92314413Y-57055691D01*
X92255303Y-57095018D01*
X92217891Y-57100700D01*
X91188563Y-57100700D01*
X91177379Y-57100173D01*
X91169891Y-57098499D01*
X91161968Y-57098748D01*
X91101833Y-57100638D01*
X91097875Y-57100700D01*
X91069944Y-57100700D01*
X91066029Y-57101195D01*
X91066025Y-57101195D01*
X91065967Y-57101203D01*
X91065938Y-57101206D01*
X91054096Y-57102139D01*
X91009910Y-57103527D01*
X90992544Y-57108572D01*
X90990458Y-57109178D01*
X90971106Y-57113186D01*
X90958868Y-57114732D01*
X90958866Y-57114733D01*
X90951003Y-57115726D01*
X90909886Y-57132006D01*
X90898685Y-57135841D01*
X90856206Y-57148182D01*
X90849387Y-57152215D01*
X90849382Y-57152217D01*
X90838771Y-57158493D01*
X90821021Y-57167190D01*
X90802183Y-57174648D01*
X90795767Y-57179309D01*
X90795766Y-57179310D01*
X90766425Y-57200628D01*
X90756501Y-57207147D01*
X90725260Y-57225622D01*
X90725255Y-57225626D01*
X90718437Y-57229658D01*
X90704113Y-57243982D01*
X90689081Y-57256821D01*
X90672693Y-57268728D01*
X90659083Y-57285180D01*
X90644512Y-57302793D01*
X90636522Y-57311573D01*
X90209547Y-57738548D01*
X90201261Y-57746088D01*
X90194782Y-57750200D01*
X90189357Y-57755977D01*
X90148157Y-57799851D01*
X90145402Y-57802693D01*
X90125665Y-57822430D01*
X90123185Y-57825627D01*
X90115482Y-57834647D01*
X90085214Y-57866879D01*
X90081395Y-57873825D01*
X90081393Y-57873828D01*
X90075452Y-57884634D01*
X90064601Y-57901153D01*
X90052186Y-57917159D01*
X90049041Y-57924428D01*
X90049038Y-57924432D01*
X90034626Y-57957737D01*
X90029409Y-57968387D01*
X90008105Y-58007140D01*
X90006134Y-58014815D01*
X90006134Y-58014816D01*
X90003067Y-58026762D01*
X89996663Y-58045466D01*
X89988619Y-58064055D01*
X89987380Y-58071878D01*
X89987377Y-58071888D01*
X89981701Y-58107724D01*
X89979295Y-58119344D01*
X89974305Y-58138781D01*
X89968300Y-58162170D01*
X89968300Y-58182424D01*
X89966749Y-58202134D01*
X89963580Y-58222143D01*
X89964326Y-58230035D01*
X89967741Y-58266161D01*
X89968300Y-58278019D01*
X89968300Y-63795006D01*
X89948298Y-63863127D01*
X89931395Y-63884101D01*
X84661300Y-69154195D01*
X84598988Y-69188221D01*
X84572205Y-69191100D01*
X77596538Y-69191100D01*
X77528417Y-69171098D01*
X77498896Y-69144737D01*
X77489336Y-69133016D01*
X77485440Y-69128239D01*
X77480691Y-69124310D01*
X77341577Y-69009225D01*
X77341574Y-69009223D01*
X77336827Y-69005296D01*
X77167166Y-68913560D01*
X77075042Y-68885043D01*
X76988804Y-68858348D01*
X76988801Y-68858347D01*
X76982917Y-68856526D01*
X76976792Y-68855882D01*
X76976791Y-68855882D01*
X76797227Y-68837009D01*
X76797226Y-68837009D01*
X76791099Y-68836365D01*
X76711388Y-68843619D01*
X76605158Y-68853287D01*
X76605155Y-68853288D01*
X76599019Y-68853846D01*
X76593113Y-68855584D01*
X76593109Y-68855585D01*
X76454995Y-68896234D01*
X76413992Y-68908302D01*
X76243066Y-68997660D01*
X76092751Y-69118516D01*
X76088793Y-69123233D01*
X76088791Y-69123235D01*
X76032160Y-69190726D01*
X75968774Y-69266266D01*
X75965810Y-69271658D01*
X75965807Y-69271662D01*
X75878823Y-69429886D01*
X75875856Y-69435283D01*
X75817537Y-69619129D01*
X75816851Y-69625246D01*
X75816850Y-69625250D01*
X75813247Y-69657371D01*
X75796037Y-69810802D01*
X75812177Y-70003000D01*
X75865340Y-70188402D01*
X75953502Y-70359948D01*
X75957325Y-70364772D01*
X75957328Y-70364776D01*
X76064621Y-70500145D01*
X76073306Y-70511102D01*
X76078000Y-70515097D01*
X76103257Y-70536592D01*
X76220187Y-70636108D01*
X76388551Y-70730204D01*
X76571986Y-70789805D01*
X76763503Y-70812642D01*
X76769638Y-70812170D01*
X76769640Y-70812170D01*
X76949667Y-70798318D01*
X76949671Y-70798317D01*
X76955809Y-70797845D01*
X77141579Y-70745977D01*
X77273020Y-70679582D01*
X77308235Y-70661794D01*
X77308237Y-70661793D01*
X77313736Y-70659015D01*
X77465723Y-70540269D01*
X77473070Y-70531758D01*
X77498955Y-70501769D01*
X77558608Y-70463272D01*
X77594337Y-70458100D01*
X79291805Y-70458100D01*
X79359926Y-70478102D01*
X79406419Y-70531758D01*
X79416523Y-70602032D01*
X79387029Y-70666612D01*
X79380900Y-70673195D01*
X78855747Y-71198348D01*
X78847461Y-71205888D01*
X78840982Y-71210000D01*
X78835557Y-71215777D01*
X78794357Y-71259651D01*
X78791602Y-71262493D01*
X78771865Y-71282230D01*
X78769385Y-71285427D01*
X78761682Y-71294447D01*
X78731414Y-71326679D01*
X78727595Y-71333625D01*
X78727593Y-71333628D01*
X78721652Y-71344434D01*
X78710801Y-71360953D01*
X78698386Y-71376959D01*
X78695241Y-71384228D01*
X78695238Y-71384232D01*
X78680826Y-71417537D01*
X78675609Y-71428187D01*
X78654305Y-71466940D01*
X78652334Y-71474615D01*
X78652334Y-71474616D01*
X78649267Y-71486562D01*
X78642863Y-71505266D01*
X78634819Y-71523855D01*
X78633580Y-71531678D01*
X78633577Y-71531688D01*
X78627901Y-71567524D01*
X78625495Y-71579144D01*
X78614500Y-71621970D01*
X78614500Y-71642224D01*
X78612949Y-71661934D01*
X78609780Y-71681943D01*
X78610526Y-71689835D01*
X78613941Y-71725961D01*
X78614500Y-71737819D01*
X78614500Y-79686998D01*
X78594498Y-79755119D01*
X78582137Y-79771308D01*
X78549633Y-79807407D01*
X78459401Y-79963693D01*
X78403635Y-80135325D01*
X78384771Y-80314800D01*
X78403635Y-80494275D01*
X78459401Y-80665907D01*
X78549633Y-80822193D01*
X78670387Y-80956304D01*
X78816385Y-81062378D01*
X78822413Y-81065062D01*
X78822415Y-81065063D01*
X78930483Y-81113178D01*
X78981248Y-81135780D01*
X79069508Y-81154540D01*
X79151311Y-81171928D01*
X79151315Y-81171928D01*
X79157768Y-81173300D01*
X79338232Y-81173300D01*
X79344685Y-81171928D01*
X79344689Y-81171928D01*
X79426492Y-81154540D01*
X79514752Y-81135780D01*
X79572462Y-81110086D01*
X79648779Y-81076107D01*
X79719146Y-81066673D01*
X79774088Y-81089277D01*
X79806985Y-81113178D01*
X79813020Y-81115865D01*
X79873054Y-81142595D01*
X79927149Y-81188575D01*
X79947798Y-81256503D01*
X79928445Y-81324810D01*
X79910899Y-81346796D01*
X77395422Y-83862273D01*
X77333110Y-83896299D01*
X77262295Y-83891234D01*
X77205459Y-83848687D01*
X77186494Y-83812114D01*
X77143041Y-83678377D01*
X77143040Y-83678375D01*
X77140999Y-83672093D01*
X77050767Y-83515807D01*
X76930013Y-83381696D01*
X76923802Y-83377183D01*
X76789357Y-83279503D01*
X76789356Y-83279502D01*
X76784015Y-83275622D01*
X76777987Y-83272938D01*
X76777985Y-83272937D01*
X76625183Y-83204905D01*
X76625181Y-83204905D01*
X76619152Y-83202220D01*
X76530892Y-83183460D01*
X76449089Y-83166072D01*
X76449085Y-83166072D01*
X76442632Y-83164700D01*
X76262168Y-83164700D01*
X76255715Y-83166072D01*
X76255711Y-83166072D01*
X76173908Y-83183460D01*
X76085648Y-83202220D01*
X76079619Y-83204904D01*
X76079617Y-83204905D01*
X75926816Y-83272937D01*
X75926814Y-83272938D01*
X75920786Y-83275622D01*
X75915445Y-83279502D01*
X75915444Y-83279503D01*
X75780131Y-83377813D01*
X75780129Y-83377815D01*
X75774787Y-83381696D01*
X75654033Y-83515807D01*
X75563801Y-83672093D01*
X75508035Y-83843725D01*
X75507345Y-83850288D01*
X75507345Y-83850289D01*
X75497673Y-83942313D01*
X75470660Y-84007969D01*
X75461458Y-84018237D01*
X73840900Y-85638795D01*
X73778588Y-85672821D01*
X73751805Y-85675700D01*
X71898900Y-85675700D01*
X71830779Y-85655698D01*
X71784286Y-85602042D01*
X71772900Y-85549700D01*
X71772900Y-84491066D01*
X71766145Y-84428884D01*
X71715015Y-84292495D01*
X71627661Y-84175939D01*
X71511105Y-84088585D01*
X71374716Y-84037455D01*
X71312534Y-84030700D01*
X70216266Y-84030700D01*
X70154084Y-84037455D01*
X70017695Y-84088585D01*
X70016626Y-84085733D01*
X69962134Y-84097648D01*
X69895587Y-84072908D01*
X69852980Y-84016118D01*
X69845553Y-83960038D01*
X69960771Y-82747655D01*
X70039808Y-81916000D01*
X70041043Y-81906700D01*
X70056196Y-81818040D01*
X70623110Y-78500935D01*
X70626615Y-78485981D01*
X70682807Y-78298549D01*
X71619971Y-75172549D01*
X71624540Y-75159832D01*
X72956498Y-71996781D01*
X72959924Y-71989332D01*
X74543551Y-68822078D01*
X74549559Y-68811397D01*
X76368618Y-65917070D01*
X76379676Y-65902068D01*
X76675480Y-65557367D01*
X76795979Y-65416949D01*
X76824012Y-65392665D01*
X76825479Y-65391733D01*
X77575901Y-64914795D01*
X77620907Y-64886191D01*
X77643202Y-64874952D01*
X78367384Y-64596003D01*
X78572689Y-64516921D01*
X78617979Y-64508500D01*
X79633279Y-64508500D01*
X79653884Y-64510196D01*
X80095550Y-64583409D01*
X80096613Y-64583590D01*
X80176566Y-64597547D01*
X80207172Y-64594116D01*
X80223974Y-64593363D01*
X80235783Y-64593623D01*
X80253860Y-64594021D01*
X80262531Y-64591691D01*
X80262534Y-64591691D01*
X80286035Y-64585377D01*
X80286920Y-64585174D01*
X80287787Y-64585077D01*
X80290146Y-64584434D01*
X80290159Y-64584431D01*
X80331089Y-64573274D01*
X80331532Y-64573154D01*
X80346797Y-64569053D01*
X80394529Y-64556229D01*
X80395152Y-64555850D01*
X80395672Y-64555668D01*
X81021103Y-64385180D01*
X81192653Y-64338417D01*
X81212808Y-64335098D01*
X81216694Y-64334300D01*
X81225657Y-64333760D01*
X81258633Y-64321921D01*
X81271222Y-64317402D01*
X81280654Y-64314429D01*
X81287083Y-64312676D01*
X81287087Y-64312675D01*
X81291411Y-64311496D01*
X81305952Y-64305205D01*
X81313388Y-64302265D01*
X81330993Y-64295944D01*
X81339972Y-64291048D01*
X81350247Y-64286038D01*
X81383000Y-64271866D01*
X81383001Y-64271866D01*
X81391239Y-64268301D01*
X81400081Y-64260961D01*
X81420242Y-64247287D01*
X82286675Y-63774919D01*
X82289919Y-63773211D01*
X82306914Y-63764577D01*
X82347855Y-63743778D01*
X82369069Y-63723835D01*
X82374779Y-63718467D01*
X82385695Y-63709311D01*
X82407972Y-63692676D01*
X82415168Y-63687303D01*
X82420563Y-63680131D01*
X82420565Y-63680129D01*
X82456501Y-63632355D01*
X82457794Y-63630667D01*
X82670429Y-63357703D01*
X83940743Y-63357703D01*
X83941302Y-63361947D01*
X83941302Y-63361951D01*
X83953535Y-63454868D01*
X83978268Y-63642734D01*
X83979401Y-63646874D01*
X83979401Y-63646876D01*
X83992466Y-63694635D01*
X84054129Y-63920036D01*
X84055813Y-63923984D01*
X84164783Y-64179458D01*
X84166923Y-64184476D01*
X84227707Y-64286038D01*
X84311965Y-64426823D01*
X84314561Y-64431161D01*
X84494313Y-64655528D01*
X84594107Y-64750229D01*
X84672826Y-64824930D01*
X84702851Y-64853423D01*
X84936317Y-65021186D01*
X84940112Y-65023195D01*
X84940113Y-65023196D01*
X84959844Y-65033643D01*
X85190392Y-65155712D01*
X85235464Y-65172206D01*
X85379974Y-65225089D01*
X85460373Y-65254511D01*
X85741264Y-65315755D01*
X85769841Y-65318004D01*
X85964282Y-65333307D01*
X85964291Y-65333307D01*
X85966739Y-65333500D01*
X86122271Y-65333500D01*
X86124407Y-65333354D01*
X86124418Y-65333354D01*
X86332548Y-65319165D01*
X86332554Y-65319164D01*
X86336825Y-65318873D01*
X86341020Y-65318004D01*
X86341022Y-65318004D01*
X86511851Y-65282627D01*
X86618342Y-65260574D01*
X86889343Y-65164607D01*
X87003501Y-65105686D01*
X87141005Y-65034715D01*
X87141006Y-65034715D01*
X87144812Y-65032750D01*
X87148313Y-65030289D01*
X87148317Y-65030287D01*
X87312645Y-64914795D01*
X87380023Y-64867441D01*
X87458403Y-64794606D01*
X87587479Y-64674661D01*
X87587481Y-64674658D01*
X87590622Y-64671740D01*
X87772713Y-64449268D01*
X87922927Y-64204142D01*
X87936698Y-64172772D01*
X88036757Y-63944830D01*
X88038483Y-63940898D01*
X88055003Y-63882906D01*
X88109191Y-63692676D01*
X88117244Y-63664406D01*
X88157751Y-63379784D01*
X88157845Y-63361951D01*
X88159235Y-63096583D01*
X88159235Y-63096576D01*
X88159257Y-63092297D01*
X88158573Y-63087096D01*
X88139212Y-62940042D01*
X88121732Y-62807266D01*
X88119776Y-62800114D01*
X88076719Y-62642725D01*
X88045871Y-62529964D01*
X88028609Y-62489495D01*
X87934763Y-62269476D01*
X87934761Y-62269472D01*
X87933077Y-62265524D01*
X87835428Y-62102365D01*
X87787643Y-62022521D01*
X87787640Y-62022517D01*
X87785439Y-62018839D01*
X87605687Y-61794472D01*
X87397149Y-61596577D01*
X87163683Y-61428814D01*
X87141843Y-61417250D01*
X87118654Y-61404972D01*
X86909608Y-61294288D01*
X86697630Y-61216715D01*
X86643658Y-61196964D01*
X86643656Y-61196963D01*
X86639627Y-61195489D01*
X86358736Y-61134245D01*
X86327685Y-61131801D01*
X86135718Y-61116693D01*
X86135709Y-61116693D01*
X86133261Y-61116500D01*
X85977729Y-61116500D01*
X85975593Y-61116646D01*
X85975582Y-61116646D01*
X85767452Y-61130835D01*
X85767446Y-61130836D01*
X85763175Y-61131127D01*
X85758980Y-61131996D01*
X85758978Y-61131996D01*
X85688395Y-61146613D01*
X85481658Y-61189426D01*
X85210657Y-61285393D01*
X84955188Y-61417250D01*
X84951687Y-61419711D01*
X84951683Y-61419713D01*
X84941594Y-61426804D01*
X84719977Y-61582559D01*
X84651922Y-61645800D01*
X84514140Y-61773835D01*
X84509378Y-61778260D01*
X84327287Y-62000732D01*
X84177073Y-62245858D01*
X84175347Y-62249791D01*
X84175346Y-62249792D01*
X84114070Y-62389382D01*
X84061517Y-62509102D01*
X83982756Y-62785594D01*
X83942249Y-63070216D01*
X83942227Y-63074505D01*
X83942226Y-63074512D01*
X83940805Y-63345824D01*
X83940743Y-63357703D01*
X82670429Y-63357703D01*
X83006518Y-62926260D01*
X83022982Y-62909047D01*
X83023780Y-62908141D01*
X83030605Y-62902320D01*
X83035520Y-62894820D01*
X83035525Y-62894814D01*
X83056592Y-62862664D01*
X83062582Y-62854290D01*
X83065982Y-62849925D01*
X83068739Y-62846386D01*
X83077008Y-62831929D01*
X83080992Y-62825429D01*
X83089277Y-62812787D01*
X83089280Y-62812781D01*
X83091948Y-62808710D01*
X83095845Y-62800114D01*
X83101230Y-62789581D01*
X83118286Y-62759762D01*
X83118287Y-62759759D01*
X83122744Y-62751967D01*
X83124835Y-62743236D01*
X83124837Y-62743231D01*
X83125621Y-62739957D01*
X83133396Y-62717281D01*
X83389342Y-62152691D01*
X83527021Y-61848987D01*
X83527713Y-61847489D01*
X83529299Y-61844111D01*
X83558131Y-61782700D01*
X83563035Y-61751204D01*
X83566558Y-61735371D01*
X83575471Y-61704764D01*
X83575350Y-61595970D01*
X83575350Y-59923613D01*
X83578174Y-59897085D01*
X83693623Y-59361030D01*
X83799571Y-58869091D01*
X83812119Y-58835309D01*
X83817890Y-58824725D01*
X84231415Y-58066217D01*
X84252946Y-58037434D01*
X84988326Y-57302051D01*
X85008463Y-57285691D01*
X87132752Y-55896580D01*
X87140487Y-55891910D01*
X87166351Y-55877532D01*
X90130927Y-54229494D01*
X90144328Y-54223048D01*
X93387316Y-52892806D01*
X93396183Y-52889552D01*
X95238289Y-52290772D01*
X96691530Y-51818393D01*
X96705272Y-51815499D01*
X96705250Y-51815411D01*
X96713966Y-51813250D01*
X96722894Y-51812346D01*
X96731208Y-51808973D01*
X96731214Y-51808972D01*
X96770212Y-51793153D01*
X96778618Y-51790086D01*
X96786897Y-51787395D01*
X96786905Y-51787392D01*
X96791168Y-51786006D01*
X96795195Y-51784028D01*
X96795198Y-51784027D01*
X96799367Y-51781979D01*
X96802984Y-51780203D01*
X96811165Y-51776540D01*
X96849548Y-51760971D01*
X96849552Y-51760969D01*
X96857869Y-51757595D01*
X96864908Y-51752021D01*
X96872660Y-51747503D01*
X96872716Y-51747599D01*
X96873394Y-51747171D01*
X96873327Y-51747073D01*
X96880741Y-51742014D01*
X96888801Y-51738056D01*
X96895425Y-51731996D01*
X96895427Y-51731994D01*
X96925810Y-51704194D01*
X96932617Y-51698396D01*
X96972054Y-51667163D01*
X96977246Y-51659836D01*
X96983421Y-51653322D01*
X96983504Y-51653401D01*
X96984032Y-51652804D01*
X96983943Y-51652731D01*
X96989641Y-51645792D01*
X96996265Y-51639732D01*
X97022342Y-51596746D01*
X97027263Y-51589250D01*
X97033943Y-51579823D01*
X97033944Y-51579822D01*
X97036761Y-51575846D01*
X97038936Y-51571479D01*
X97042390Y-51564543D01*
X97047452Y-51555356D01*
X97067156Y-51522876D01*
X97067156Y-51522875D01*
X97071813Y-51515199D01*
X97074138Y-51506489D01*
X97083085Y-51482817D01*
X97198962Y-51250110D01*
X97209856Y-51232158D01*
X97305934Y-51100076D01*
X97365845Y-51017713D01*
X97548465Y-50766657D01*
X100282000Y-50766657D01*
X100282301Y-50772805D01*
X100295812Y-50910603D01*
X100298195Y-50922638D01*
X100351767Y-51100076D01*
X100356441Y-51111416D01*
X100443460Y-51275077D01*
X100450249Y-51285294D01*
X100567397Y-51428933D01*
X100576041Y-51437637D01*
X100718856Y-51555784D01*
X100729027Y-51562644D01*
X100892076Y-51650804D01*
X100903381Y-51655556D01*
X101018692Y-51691250D01*
X101032795Y-51691456D01*
X101036000Y-51684701D01*
X101036000Y-51677924D01*
X101544000Y-51677924D01*
X101547973Y-51691455D01*
X101555768Y-51692575D01*
X101663521Y-51660862D01*
X101674889Y-51656269D01*
X101839154Y-51570393D01*
X101849415Y-51563679D01*
X101993873Y-51447532D01*
X102002632Y-51438954D01*
X102121778Y-51296961D01*
X102128708Y-51286841D01*
X102218002Y-51124415D01*
X102222834Y-51113142D01*
X102278880Y-50936462D01*
X102281430Y-50924468D01*
X102297607Y-50780239D01*
X102298000Y-50773215D01*
X102298000Y-50692115D01*
X102293525Y-50676876D01*
X102292135Y-50675671D01*
X102284452Y-50674000D01*
X101562115Y-50674000D01*
X101546876Y-50678475D01*
X101545671Y-50679865D01*
X101544000Y-50687548D01*
X101544000Y-51677924D01*
X101036000Y-51677924D01*
X101036000Y-50692115D01*
X101031525Y-50676876D01*
X101030135Y-50675671D01*
X101022452Y-50674000D01*
X100300115Y-50674000D01*
X100284876Y-50678475D01*
X100283671Y-50679865D01*
X100282000Y-50687548D01*
X100282000Y-50766657D01*
X97548465Y-50766657D01*
X97804965Y-50414035D01*
X97828167Y-50389749D01*
X98231524Y-50067195D01*
X98513458Y-49841740D01*
X98555026Y-49819739D01*
X99490137Y-49531467D01*
X99510067Y-49527054D01*
X100295490Y-49418947D01*
X100365700Y-49429473D01*
X100419075Y-49476288D01*
X100438667Y-49544528D01*
X100423084Y-49604471D01*
X100361994Y-49715593D01*
X100357166Y-49726858D01*
X100301120Y-49903538D01*
X100298570Y-49915532D01*
X100282393Y-50059761D01*
X100282000Y-50066785D01*
X100282000Y-50147885D01*
X100286475Y-50163124D01*
X100287865Y-50164329D01*
X100295548Y-50166000D01*
X102279885Y-50166000D01*
X102295124Y-50161525D01*
X102296329Y-50160135D01*
X102298000Y-50152452D01*
X102298000Y-50073343D01*
X102297699Y-50067195D01*
X102284188Y-49929397D01*
X102281805Y-49917362D01*
X102228233Y-49739924D01*
X102223559Y-49728584D01*
X102136540Y-49564923D01*
X102129751Y-49554706D01*
X102012603Y-49411067D01*
X102001771Y-49400160D01*
X101967963Y-49337730D01*
X101973274Y-49266932D01*
X102016019Y-49210245D01*
X102082412Y-49185680D01*
X103309780Y-49100104D01*
X105477951Y-48948932D01*
X105492568Y-48948764D01*
X107231877Y-49029835D01*
G37*
%TD.AperFunction*%
%TA.AperFunction,Conductor*%
G36*
X81926584Y-88384065D02*
G01*
X83481795Y-89939276D01*
X83515821Y-90001588D01*
X83518700Y-90028371D01*
X83518700Y-92681809D01*
X83498698Y-92749930D01*
X83475780Y-92776538D01*
X83474021Y-92778081D01*
X83469678Y-92781890D01*
X83466111Y-92786415D01*
X83466106Y-92786420D01*
X83410600Y-92856830D01*
X83343551Y-92941881D01*
X83248692Y-93122178D01*
X83188278Y-93316743D01*
X83187599Y-93322480D01*
X83173766Y-93439354D01*
X83145895Y-93504651D01*
X83087147Y-93544515D01*
X83016173Y-93546289D01*
X82959544Y-93513639D01*
X81520405Y-92074500D01*
X81486379Y-92012188D01*
X81483500Y-91985405D01*
X81483500Y-89077802D01*
X81503502Y-89009681D01*
X81515864Y-88993491D01*
X81519957Y-88988946D01*
X81534590Y-88972694D01*
X81543948Y-88962301D01*
X81543949Y-88962300D01*
X81548367Y-88957393D01*
X81613316Y-88844899D01*
X81635295Y-88806830D01*
X81635296Y-88806829D01*
X81638599Y-88801107D01*
X81694365Y-88629475D01*
X81712179Y-88459989D01*
X81739192Y-88394332D01*
X81797414Y-88353703D01*
X81868359Y-88351000D01*
X81926584Y-88384065D01*
G37*
%TD.AperFunction*%
%TA.AperFunction,Conductor*%
G36*
X80577689Y-87417902D02*
G01*
X80624182Y-87471558D01*
X80634286Y-87541832D01*
X80604792Y-87606412D01*
X80560817Y-87639007D01*
X80424416Y-87699737D01*
X80424414Y-87699738D01*
X80418386Y-87702422D01*
X80413045Y-87706302D01*
X80413044Y-87706303D01*
X80277731Y-87804613D01*
X80277729Y-87804615D01*
X80272387Y-87808496D01*
X80267966Y-87813406D01*
X80267965Y-87813407D01*
X80176489Y-87915002D01*
X80151633Y-87942607D01*
X80148334Y-87948320D01*
X80148331Y-87948325D01*
X80100954Y-88030385D01*
X80049571Y-88079378D01*
X80009722Y-88091284D01*
X80009768Y-88091500D01*
X79833248Y-88129020D01*
X79827219Y-88131704D01*
X79827217Y-88131705D01*
X79674416Y-88199737D01*
X79674414Y-88199738D01*
X79668386Y-88202422D01*
X79663045Y-88206302D01*
X79663044Y-88206303D01*
X79527731Y-88304613D01*
X79527729Y-88304615D01*
X79522387Y-88308496D01*
X79401633Y-88442607D01*
X79347585Y-88536220D01*
X79318392Y-88586785D01*
X79311401Y-88598893D01*
X79255635Y-88770525D01*
X79253577Y-88769856D01*
X79224645Y-88823451D01*
X79186373Y-88849890D01*
X79159837Y-88861705D01*
X79089470Y-88871140D01*
X79025173Y-88841035D01*
X79014951Y-88830909D01*
X78915635Y-88720607D01*
X78915634Y-88720606D01*
X78911213Y-88715696D01*
X78804971Y-88638506D01*
X78770557Y-88613503D01*
X78770556Y-88613502D01*
X78765215Y-88609622D01*
X78759187Y-88606938D01*
X78759185Y-88606937D01*
X78606383Y-88538905D01*
X78606381Y-88538905D01*
X78600352Y-88536220D01*
X78498510Y-88514573D01*
X78430289Y-88500072D01*
X78430285Y-88500072D01*
X78423832Y-88498700D01*
X78243368Y-88498700D01*
X78236915Y-88500072D01*
X78236911Y-88500072D01*
X78168690Y-88514573D01*
X78066848Y-88536220D01*
X78060819Y-88538904D01*
X78060817Y-88538905D01*
X77908016Y-88606937D01*
X77908014Y-88606938D01*
X77901986Y-88609622D01*
X77896645Y-88613502D01*
X77896644Y-88613503D01*
X77761331Y-88711813D01*
X77761329Y-88711815D01*
X77755987Y-88715696D01*
X77751566Y-88720606D01*
X77751565Y-88720607D01*
X77673930Y-88806830D01*
X77635233Y-88849807D01*
X77545001Y-89006093D01*
X77489235Y-89177725D01*
X77488545Y-89184290D01*
X77478873Y-89276313D01*
X77451860Y-89341970D01*
X77442658Y-89352238D01*
X76076100Y-90718795D01*
X76013788Y-90752821D01*
X75987005Y-90755700D01*
X71779226Y-90755700D01*
X71711105Y-90735698D01*
X71664612Y-90682042D01*
X71654508Y-90611768D01*
X71669669Y-90567466D01*
X71690169Y-90531379D01*
X71752597Y-90343713D01*
X71777385Y-90147495D01*
X71777780Y-90119200D01*
X71758480Y-89922367D01*
X71701316Y-89733031D01*
X71698424Y-89727592D01*
X71698422Y-89727587D01*
X71666661Y-89667852D01*
X71652342Y-89598315D01*
X71677890Y-89532074D01*
X71735195Y-89490162D01*
X71777913Y-89482700D01*
X76019633Y-89482700D01*
X76030816Y-89483227D01*
X76038309Y-89484902D01*
X76046235Y-89484653D01*
X76046236Y-89484653D01*
X76106386Y-89482762D01*
X76110345Y-89482700D01*
X76138256Y-89482700D01*
X76142191Y-89482203D01*
X76142256Y-89482195D01*
X76154093Y-89481262D01*
X76186351Y-89480248D01*
X76190370Y-89480122D01*
X76198289Y-89479873D01*
X76217743Y-89474221D01*
X76237100Y-89470213D01*
X76249330Y-89468668D01*
X76249331Y-89468668D01*
X76257197Y-89467674D01*
X76264568Y-89464755D01*
X76264570Y-89464755D01*
X76298312Y-89451396D01*
X76309542Y-89447551D01*
X76344383Y-89437429D01*
X76344384Y-89437429D01*
X76351993Y-89435218D01*
X76358812Y-89431185D01*
X76358817Y-89431183D01*
X76369428Y-89424907D01*
X76387176Y-89416212D01*
X76406017Y-89408752D01*
X76420602Y-89398156D01*
X76441787Y-89382764D01*
X76451707Y-89376248D01*
X76482935Y-89357780D01*
X76482938Y-89357778D01*
X76489762Y-89353742D01*
X76504083Y-89339421D01*
X76519117Y-89326580D01*
X76529094Y-89319331D01*
X76535507Y-89314672D01*
X76563698Y-89280595D01*
X76571688Y-89271816D01*
X78064186Y-87779319D01*
X78126498Y-87745293D01*
X78162866Y-87743778D01*
X78162892Y-87743125D01*
X78366463Y-87751123D01*
X78568083Y-87721890D01*
X78573547Y-87720035D01*
X78573552Y-87720034D01*
X78755527Y-87658262D01*
X78755532Y-87658260D01*
X78760999Y-87656404D01*
X78938751Y-87556858D01*
X79094857Y-87427026D01*
X79160021Y-87398845D01*
X79175426Y-87397900D01*
X80509568Y-87397900D01*
X80577689Y-87417902D01*
G37*
%TD.AperFunction*%
%TA.AperFunction,Conductor*%
G36*
X89633433Y-72679139D02*
G01*
X89690268Y-72721686D01*
X89715079Y-72788206D01*
X89699988Y-72857580D01*
X89684769Y-72879540D01*
X89684499Y-72879853D01*
X89683602Y-72880849D01*
X89469931Y-73139133D01*
X89121263Y-73560600D01*
X89109226Y-73575150D01*
X88564429Y-74292894D01*
X88563679Y-74293973D01*
X88563674Y-74293980D01*
X88157735Y-74878051D01*
X88050166Y-75032822D01*
X88049447Y-75033956D01*
X88049445Y-75033958D01*
X87568059Y-75792499D01*
X87568047Y-75792518D01*
X87567338Y-75793636D01*
X87116794Y-76574002D01*
X86699323Y-77372550D01*
X86698772Y-77373722D01*
X86698770Y-77373725D01*
X86331612Y-78153976D01*
X86315658Y-78187879D01*
X86315150Y-78189088D01*
X86315144Y-78189101D01*
X86187250Y-78493350D01*
X85966472Y-79018560D01*
X85966034Y-79019739D01*
X85966026Y-79019758D01*
X85670975Y-79813128D01*
X85652378Y-79863134D01*
X85651973Y-79864379D01*
X85651970Y-79864389D01*
X85621564Y-79957970D01*
X85373926Y-80720120D01*
X85131606Y-81588015D01*
X85131305Y-81589300D01*
X85131301Y-81589314D01*
X85050035Y-81935793D01*
X84925841Y-82465296D01*
X84925591Y-82466607D01*
X84925589Y-82466616D01*
X84873267Y-82740900D01*
X84756994Y-83350424D01*
X84756802Y-83351723D01*
X84756801Y-83351730D01*
X84647992Y-84088585D01*
X84625360Y-84241846D01*
X84531171Y-85137998D01*
X84506464Y-85530700D01*
X84477066Y-85997977D01*
X84474591Y-86037309D01*
X84455720Y-86938200D01*
X84474591Y-87839091D01*
X84474672Y-87840381D01*
X84474673Y-87840401D01*
X84495105Y-88165148D01*
X84516713Y-88508591D01*
X84517276Y-88517542D01*
X84501591Y-88586785D01*
X84450961Y-88636555D01*
X84381460Y-88651051D01*
X84315155Y-88625672D01*
X84302430Y-88614549D01*
X81838370Y-86150489D01*
X81825984Y-86136077D01*
X81817451Y-86124482D01*
X81817446Y-86124477D01*
X81813108Y-86118582D01*
X81807530Y-86113843D01*
X81807527Y-86113840D01*
X81772832Y-86084365D01*
X81765316Y-86077435D01*
X81759621Y-86071740D01*
X81753480Y-86066882D01*
X81737349Y-86054119D01*
X81733945Y-86051328D01*
X81683897Y-86008809D01*
X81683895Y-86008808D01*
X81678315Y-86004067D01*
X81671799Y-86000739D01*
X81666750Y-85997372D01*
X81661621Y-85994205D01*
X81655884Y-85989666D01*
X81589725Y-85958745D01*
X81585825Y-85956839D01*
X81520792Y-85923631D01*
X81513684Y-85921892D01*
X81508041Y-85919793D01*
X81502278Y-85917876D01*
X81495650Y-85914778D01*
X81472617Y-85909987D01*
X81424188Y-85899914D01*
X81419899Y-85898943D01*
X81348990Y-85881592D01*
X81343388Y-85881244D01*
X81343385Y-85881244D01*
X81337836Y-85880900D01*
X81337838Y-85880864D01*
X81333845Y-85880625D01*
X81329653Y-85880251D01*
X81322485Y-85878760D01*
X81256275Y-85880551D01*
X81245079Y-85880854D01*
X81241672Y-85880900D01*
X79170117Y-85880900D01*
X79101996Y-85860898D01*
X79084588Y-85847424D01*
X78990148Y-85760124D01*
X78985903Y-85756200D01*
X78853755Y-85672821D01*
X78818488Y-85650569D01*
X78818483Y-85650567D01*
X78813604Y-85647488D01*
X78624380Y-85571995D01*
X78555748Y-85558343D01*
X78492839Y-85525435D01*
X78457707Y-85463740D01*
X78461507Y-85392845D01*
X78491235Y-85345669D01*
X80158527Y-83678378D01*
X81892688Y-81944217D01*
X81910958Y-81929102D01*
X81911213Y-81928929D01*
X81911217Y-81928926D01*
X81917770Y-81924472D01*
X81923009Y-81918530D01*
X81923012Y-81918527D01*
X81954903Y-81882353D01*
X81960322Y-81876583D01*
X81971635Y-81865270D01*
X81974060Y-81862144D01*
X81974065Y-81862138D01*
X81981441Y-81852628D01*
X81986490Y-81846525D01*
X82018377Y-81810357D01*
X82018380Y-81810352D01*
X82023620Y-81804409D01*
X82027356Y-81797077D01*
X82040069Y-81777045D01*
X82040256Y-81776804D01*
X82040257Y-81776803D01*
X82045114Y-81770541D01*
X82048260Y-81763271D01*
X82048263Y-81763266D01*
X82067422Y-81718991D01*
X82070784Y-81711844D01*
X82096285Y-81661796D01*
X82098083Y-81653754D01*
X82105408Y-81631210D01*
X82105534Y-81630919D01*
X82105535Y-81630915D01*
X82108681Y-81623645D01*
X82109920Y-81615822D01*
X82117468Y-81568166D01*
X82118951Y-81560391D01*
X82131201Y-81505591D01*
X82130942Y-81497359D01*
X82132432Y-81473691D01*
X82133720Y-81465557D01*
X82132974Y-81457662D01*
X82128434Y-81409636D01*
X82127937Y-81401736D01*
X82126422Y-81353535D01*
X82126173Y-81345610D01*
X82123875Y-81337701D01*
X82119432Y-81314407D01*
X82119403Y-81314098D01*
X82119403Y-81314097D01*
X82118657Y-81306208D01*
X82114505Y-81294674D01*
X82099634Y-81253368D01*
X82097188Y-81245842D01*
X82083729Y-81199517D01*
X82081518Y-81191906D01*
X82077327Y-81184819D01*
X82067228Y-81163358D01*
X82067125Y-81163073D01*
X82064439Y-81155611D01*
X82055289Y-81142147D01*
X82033500Y-81071323D01*
X82033500Y-77537886D01*
X82053502Y-77469765D01*
X82107158Y-77423272D01*
X82177432Y-77413168D01*
X82233561Y-77435950D01*
X82289068Y-77476278D01*
X82318385Y-77497578D01*
X82324413Y-77500262D01*
X82324415Y-77500263D01*
X82477217Y-77568295D01*
X82483248Y-77570980D01*
X82571508Y-77589740D01*
X82653311Y-77607128D01*
X82653315Y-77607128D01*
X82659768Y-77608500D01*
X82840232Y-77608500D01*
X82846685Y-77607128D01*
X82846689Y-77607128D01*
X82928492Y-77589740D01*
X83016752Y-77570980D01*
X83022783Y-77568295D01*
X83175585Y-77500263D01*
X83175587Y-77500262D01*
X83181615Y-77497578D01*
X83305509Y-77407564D01*
X83372375Y-77383706D01*
X83379569Y-77383500D01*
X84725121Y-77383500D01*
X84736304Y-77384027D01*
X84743797Y-77385702D01*
X84751723Y-77385453D01*
X84751724Y-77385453D01*
X84811874Y-77383562D01*
X84815833Y-77383500D01*
X84843744Y-77383500D01*
X84847679Y-77383003D01*
X84847744Y-77382995D01*
X84859581Y-77382062D01*
X84891839Y-77381048D01*
X84895858Y-77380922D01*
X84903777Y-77380673D01*
X84923231Y-77375021D01*
X84942588Y-77371013D01*
X84954818Y-77369468D01*
X84954819Y-77369468D01*
X84962685Y-77368474D01*
X84970056Y-77365555D01*
X84970058Y-77365555D01*
X85003800Y-77352196D01*
X85015030Y-77348351D01*
X85049871Y-77338229D01*
X85049872Y-77338229D01*
X85057481Y-77336018D01*
X85064300Y-77331985D01*
X85064305Y-77331983D01*
X85074916Y-77325707D01*
X85092664Y-77317012D01*
X85111505Y-77309552D01*
X85147275Y-77283564D01*
X85157195Y-77277048D01*
X85188423Y-77258580D01*
X85188426Y-77258578D01*
X85195250Y-77254542D01*
X85209571Y-77240221D01*
X85224605Y-77227380D01*
X85234582Y-77220131D01*
X85240995Y-77215472D01*
X85269186Y-77181395D01*
X85277176Y-77172616D01*
X87027444Y-75422349D01*
X87089756Y-75388323D01*
X87104075Y-75386784D01*
X87104007Y-75386134D01*
X87110574Y-75385444D01*
X87117176Y-75385444D01*
X87123629Y-75384072D01*
X87123633Y-75384072D01*
X87205436Y-75366684D01*
X87293696Y-75347924D01*
X87299727Y-75345239D01*
X87452529Y-75277207D01*
X87452531Y-75277206D01*
X87458559Y-75274522D01*
X87463901Y-75270641D01*
X87599213Y-75172331D01*
X87599215Y-75172329D01*
X87604557Y-75168448D01*
X87612315Y-75159832D01*
X87720892Y-75039245D01*
X87720893Y-75039244D01*
X87725311Y-75034337D01*
X87815543Y-74878051D01*
X87871309Y-74706419D01*
X87880209Y-74621748D01*
X87889483Y-74533509D01*
X87890173Y-74526944D01*
X87883764Y-74465972D01*
X87871999Y-74354033D01*
X87871999Y-74354032D01*
X87871309Y-74347469D01*
X87815543Y-74175837D01*
X87793783Y-74138148D01*
X87777046Y-74069156D01*
X87800266Y-74002064D01*
X87856073Y-73958176D01*
X87902903Y-73949150D01*
X87918083Y-73949150D01*
X87929266Y-73949677D01*
X87936759Y-73951352D01*
X87944685Y-73951103D01*
X87944686Y-73951103D01*
X88004836Y-73949212D01*
X88008795Y-73949150D01*
X88036706Y-73949150D01*
X88040641Y-73948653D01*
X88040706Y-73948645D01*
X88052543Y-73947712D01*
X88084801Y-73946698D01*
X88088820Y-73946572D01*
X88096739Y-73946323D01*
X88116193Y-73940671D01*
X88135550Y-73936663D01*
X88147780Y-73935118D01*
X88147781Y-73935118D01*
X88155647Y-73934124D01*
X88163018Y-73931205D01*
X88163020Y-73931205D01*
X88196762Y-73917846D01*
X88207992Y-73914001D01*
X88242833Y-73903879D01*
X88242834Y-73903879D01*
X88250443Y-73901668D01*
X88257262Y-73897635D01*
X88257267Y-73897633D01*
X88267878Y-73891357D01*
X88285626Y-73882662D01*
X88304467Y-73875202D01*
X88340237Y-73849214D01*
X88350157Y-73842698D01*
X88381385Y-73824230D01*
X88381388Y-73824228D01*
X88388212Y-73820192D01*
X88402533Y-73805871D01*
X88417567Y-73793030D01*
X88427544Y-73785781D01*
X88433957Y-73781122D01*
X88462148Y-73747045D01*
X88470138Y-73738266D01*
X89500305Y-72708100D01*
X89562617Y-72674074D01*
X89633433Y-72679139D01*
G37*
%TD.AperFunction*%
%TA.AperFunction,Conductor*%
G36*
X74589747Y-86821262D02*
G01*
X74629805Y-86867064D01*
X74632172Y-86871669D01*
X74668964Y-86943259D01*
X74683502Y-86971548D01*
X74687325Y-86976372D01*
X74687328Y-86976376D01*
X74740183Y-87043061D01*
X74803306Y-87122702D01*
X74950187Y-87247708D01*
X75118551Y-87341804D01*
X75272565Y-87391846D01*
X75331169Y-87431918D01*
X75352874Y-87478803D01*
X75354977Y-87478200D01*
X75401088Y-87639007D01*
X75408140Y-87663602D01*
X75410955Y-87669079D01*
X75410956Y-87669082D01*
X75493288Y-87829283D01*
X75496302Y-87835148D01*
X75500125Y-87839972D01*
X75500128Y-87839976D01*
X75607421Y-87975345D01*
X75616106Y-87986302D01*
X75620800Y-87990297D01*
X75620803Y-87990300D01*
X75624851Y-87993745D01*
X75663765Y-88053127D01*
X75664397Y-88124120D01*
X75626547Y-88184186D01*
X75562231Y-88214253D01*
X75543190Y-88215700D01*
X71778650Y-88215700D01*
X71710529Y-88195698D01*
X71664036Y-88142042D01*
X71653932Y-88071768D01*
X71669094Y-88027463D01*
X71686662Y-87996537D01*
X71691656Y-87985321D01*
X71736542Y-87850390D01*
X71737043Y-87836297D01*
X71730854Y-87833200D01*
X70636400Y-87833200D01*
X70568279Y-87813198D01*
X70521786Y-87759542D01*
X70510400Y-87707200D01*
X70510400Y-87451200D01*
X70530402Y-87383079D01*
X70584058Y-87336586D01*
X70636400Y-87325200D01*
X71722583Y-87325200D01*
X71736114Y-87321227D01*
X71737206Y-87313633D01*
X71702631Y-87199119D01*
X71697958Y-87187781D01*
X71666094Y-87127852D01*
X71651775Y-87058315D01*
X71677323Y-86992074D01*
X71734629Y-86950162D01*
X71777346Y-86942700D01*
X73987633Y-86942700D01*
X73998816Y-86943227D01*
X74006309Y-86944902D01*
X74014235Y-86944653D01*
X74014236Y-86944653D01*
X74074386Y-86942762D01*
X74078345Y-86942700D01*
X74106256Y-86942700D01*
X74110191Y-86942203D01*
X74110256Y-86942195D01*
X74122093Y-86941262D01*
X74154351Y-86940248D01*
X74158370Y-86940122D01*
X74166289Y-86939873D01*
X74185743Y-86934221D01*
X74205100Y-86930213D01*
X74217330Y-86928668D01*
X74217331Y-86928668D01*
X74225197Y-86927674D01*
X74232568Y-86924755D01*
X74232570Y-86924755D01*
X74266312Y-86911396D01*
X74277542Y-86907551D01*
X74312383Y-86897429D01*
X74312384Y-86897429D01*
X74319993Y-86895218D01*
X74326812Y-86891185D01*
X74326817Y-86891183D01*
X74337428Y-86884907D01*
X74355176Y-86876212D01*
X74374017Y-86868752D01*
X74388602Y-86858156D01*
X74409787Y-86842764D01*
X74419702Y-86836251D01*
X74453599Y-86816204D01*
X74522415Y-86798745D01*
X74589747Y-86821262D01*
G37*
%TD.AperFunction*%
%TA.AperFunction,Conductor*%
G36*
X86219106Y-73969152D02*
G01*
X86265599Y-74022808D01*
X86275703Y-74093082D01*
X86260105Y-74138147D01*
X86238345Y-74175837D01*
X86182579Y-74347469D01*
X86181889Y-74354033D01*
X86181889Y-74354034D01*
X86172217Y-74446057D01*
X86145204Y-74511714D01*
X86136002Y-74521982D01*
X84578388Y-76079595D01*
X84516076Y-76113621D01*
X84489293Y-76116500D01*
X83379569Y-76116500D01*
X83311448Y-76096498D01*
X83305508Y-76092436D01*
X83279641Y-76073642D01*
X83181615Y-76002422D01*
X83175494Y-75999697D01*
X83175174Y-75999554D01*
X83174976Y-75999386D01*
X83169862Y-75996433D01*
X83170402Y-75995498D01*
X83121076Y-75953577D01*
X83100423Y-75885651D01*
X83119772Y-75817342D01*
X83152356Y-75782509D01*
X83200405Y-75747599D01*
X83277613Y-75691504D01*
X83398367Y-75557393D01*
X83481775Y-75412926D01*
X83485295Y-75406830D01*
X83485296Y-75406829D01*
X83488599Y-75401107D01*
X83544365Y-75229475D01*
X83554727Y-75130887D01*
X83581740Y-75065230D01*
X83590942Y-75054962D01*
X84659849Y-73986055D01*
X84722161Y-73952029D01*
X84748944Y-73949150D01*
X86150985Y-73949150D01*
X86219106Y-73969152D01*
G37*
%TD.AperFunction*%
%TA.AperFunction,Conductor*%
G36*
X94839332Y-65063139D02*
G01*
X94896168Y-65105686D01*
X94920979Y-65172206D01*
X94921300Y-65181195D01*
X94921300Y-65818598D01*
X94901298Y-65886719D01*
X94888936Y-65902909D01*
X94866174Y-65928189D01*
X94856433Y-65939007D01*
X94766201Y-66095293D01*
X94710435Y-66266925D01*
X94691571Y-66446400D01*
X94710435Y-66625875D01*
X94766201Y-66797507D01*
X94856433Y-66953793D01*
X94860851Y-66958700D01*
X94860852Y-66958701D01*
X94893264Y-66994698D01*
X94977187Y-67087904D01*
X94982529Y-67091785D01*
X94982531Y-67091787D01*
X95080791Y-67163177D01*
X95123185Y-67193978D01*
X95129213Y-67196662D01*
X95129215Y-67196663D01*
X95268339Y-67258605D01*
X95288048Y-67267380D01*
X95376308Y-67286140D01*
X95458111Y-67303528D01*
X95458115Y-67303528D01*
X95464568Y-67304900D01*
X95645032Y-67304900D01*
X95651485Y-67303528D01*
X95651489Y-67303528D01*
X95733292Y-67286140D01*
X95821552Y-67267380D01*
X95841261Y-67258605D01*
X95980385Y-67196663D01*
X95980387Y-67196662D01*
X95986415Y-67193978D01*
X96065255Y-67136697D01*
X96085786Y-67125004D01*
X96090560Y-67120230D01*
X96105594Y-67107389D01*
X96127069Y-67091787D01*
X96127071Y-67091785D01*
X96132413Y-67087904D01*
X96216336Y-66994698D01*
X96220877Y-66989913D01*
X97220905Y-65989885D01*
X97283217Y-65955859D01*
X97354032Y-65960924D01*
X97399095Y-65989885D01*
X97580115Y-66170905D01*
X97614141Y-66233217D01*
X97609076Y-66304032D01*
X97580115Y-66349095D01*
X96448920Y-67480290D01*
X96441452Y-67493967D01*
X96464595Y-67556016D01*
X96449504Y-67625390D01*
X96394941Y-67677864D01*
X96002090Y-67872877D01*
X95797355Y-67985431D01*
X95213607Y-68306349D01*
X95213592Y-68306358D01*
X95212460Y-68306980D01*
X94441701Y-68773768D01*
X94440605Y-68774496D01*
X94440599Y-68774500D01*
X93692278Y-69271683D01*
X93692261Y-69271695D01*
X93691165Y-69272423D01*
X93690094Y-69273201D01*
X93690087Y-69273206D01*
X92963235Y-69801295D01*
X92963219Y-69801307D01*
X92962169Y-69802070D01*
X92961158Y-69802871D01*
X92961136Y-69802888D01*
X92708658Y-70003000D01*
X92255992Y-70361779D01*
X91902259Y-70667113D01*
X91638785Y-70894538D01*
X91573872Y-70950569D01*
X91572925Y-70951458D01*
X91572912Y-70951470D01*
X91074592Y-71419424D01*
X91011242Y-71451475D01*
X90940620Y-71444188D01*
X90885149Y-71399877D01*
X90862440Y-71332611D01*
X90862665Y-71325671D01*
X90862539Y-71325671D01*
X90862539Y-71319065D01*
X90863229Y-71312500D01*
X90855693Y-71240800D01*
X90845055Y-71139589D01*
X90845055Y-71139588D01*
X90844365Y-71133025D01*
X90838698Y-71115582D01*
X90790641Y-70967678D01*
X90788599Y-70961393D01*
X90698367Y-70805107D01*
X90690336Y-70796187D01*
X90582035Y-70675907D01*
X90582034Y-70675906D01*
X90577613Y-70670996D01*
X90482693Y-70602032D01*
X90436957Y-70568803D01*
X90436956Y-70568802D01*
X90431615Y-70564922D01*
X90425587Y-70562238D01*
X90425585Y-70562237D01*
X90272783Y-70494205D01*
X90272781Y-70494205D01*
X90266752Y-70491520D01*
X90178492Y-70472760D01*
X90096689Y-70455372D01*
X90096685Y-70455372D01*
X90090232Y-70454000D01*
X89909768Y-70454000D01*
X89903315Y-70455372D01*
X89903311Y-70455372D01*
X89821508Y-70472760D01*
X89733248Y-70491520D01*
X89727219Y-70494204D01*
X89727217Y-70494205D01*
X89585586Y-70557264D01*
X89515219Y-70566698D01*
X89450922Y-70536592D01*
X89413109Y-70476503D01*
X89413784Y-70405510D01*
X89445242Y-70353062D01*
X94151334Y-65646970D01*
X94706205Y-65092100D01*
X94768517Y-65058074D01*
X94839332Y-65063139D01*
G37*
%TD.AperFunction*%
%TA.AperFunction,Conductor*%
G36*
X100243707Y-53712102D02*
G01*
X100290200Y-53765758D01*
X100300304Y-53836032D01*
X100298834Y-53844290D01*
X100298571Y-53845529D01*
X100282393Y-53989761D01*
X100282000Y-53996785D01*
X100282000Y-54327885D01*
X100286475Y-54343124D01*
X100287865Y-54344329D01*
X100295548Y-54346000D01*
X101418000Y-54346000D01*
X101486121Y-54366002D01*
X101532614Y-54419658D01*
X101544000Y-54472000D01*
X101544000Y-54728000D01*
X101523998Y-54796121D01*
X101470342Y-54842614D01*
X101418000Y-54854000D01*
X100300115Y-54854000D01*
X100284876Y-54858475D01*
X100283671Y-54859865D01*
X100282000Y-54867548D01*
X100282000Y-55196657D01*
X100282301Y-55202805D01*
X100295812Y-55340603D01*
X100298195Y-55352638D01*
X100351767Y-55530076D01*
X100356441Y-55541416D01*
X100411808Y-55645547D01*
X100426127Y-55715084D01*
X100400579Y-55781325D01*
X100343274Y-55823238D01*
X100300556Y-55830700D01*
X98608569Y-55830700D01*
X98540448Y-55810698D01*
X98534508Y-55806636D01*
X98516836Y-55793796D01*
X98466248Y-55757042D01*
X98415957Y-55720503D01*
X98415956Y-55720502D01*
X98410615Y-55716622D01*
X98404587Y-55713938D01*
X98404585Y-55713937D01*
X98251783Y-55645905D01*
X98251781Y-55645905D01*
X98245752Y-55643220D01*
X98157492Y-55624460D01*
X98075689Y-55607072D01*
X98075685Y-55607072D01*
X98069232Y-55605700D01*
X97888768Y-55605700D01*
X97882315Y-55607072D01*
X97882311Y-55607072D01*
X97800508Y-55624460D01*
X97712248Y-55643220D01*
X97706219Y-55645904D01*
X97706217Y-55645905D01*
X97553416Y-55713937D01*
X97553414Y-55713938D01*
X97547386Y-55716622D01*
X97542045Y-55720502D01*
X97542044Y-55720503D01*
X97406731Y-55818813D01*
X97406729Y-55818815D01*
X97401387Y-55822696D01*
X97280633Y-55956807D01*
X97259345Y-55993679D01*
X97206300Y-56085556D01*
X97190401Y-56113093D01*
X97134635Y-56284725D01*
X97115771Y-56464200D01*
X97116461Y-56470765D01*
X97117196Y-56477753D01*
X97134635Y-56643675D01*
X97190401Y-56815307D01*
X97280633Y-56971593D01*
X97285051Y-56976500D01*
X97285052Y-56976501D01*
X97396881Y-57100700D01*
X97401387Y-57105704D01*
X97406729Y-57109585D01*
X97406731Y-57109587D01*
X97532038Y-57200628D01*
X97547385Y-57211778D01*
X97553413Y-57214462D01*
X97553415Y-57214463D01*
X97664834Y-57264070D01*
X97712248Y-57285180D01*
X97790487Y-57301810D01*
X97882311Y-57321328D01*
X97882315Y-57321328D01*
X97888768Y-57322700D01*
X98069232Y-57322700D01*
X98075685Y-57321328D01*
X98075689Y-57321328D01*
X98167513Y-57301810D01*
X98245752Y-57285180D01*
X98293166Y-57264070D01*
X98404585Y-57214463D01*
X98404587Y-57214462D01*
X98410615Y-57211778D01*
X98534509Y-57121764D01*
X98601375Y-57097906D01*
X98608569Y-57097700D01*
X102562633Y-57097700D01*
X102573816Y-57098227D01*
X102581309Y-57099902D01*
X102589235Y-57099653D01*
X102589236Y-57099653D01*
X102649386Y-57097762D01*
X102653345Y-57097700D01*
X102681256Y-57097700D01*
X102685191Y-57097203D01*
X102685256Y-57097195D01*
X102697093Y-57096262D01*
X102729351Y-57095248D01*
X102733370Y-57095122D01*
X102741289Y-57094873D01*
X102760743Y-57089221D01*
X102780100Y-57085213D01*
X102792330Y-57083668D01*
X102792331Y-57083668D01*
X102800197Y-57082674D01*
X102807568Y-57079755D01*
X102807570Y-57079755D01*
X102841312Y-57066396D01*
X102852542Y-57062551D01*
X102887383Y-57052429D01*
X102887384Y-57052429D01*
X102894993Y-57050218D01*
X102901812Y-57046185D01*
X102901817Y-57046183D01*
X102912428Y-57039907D01*
X102930176Y-57031212D01*
X102949017Y-57023752D01*
X102984787Y-56997764D01*
X102994707Y-56991248D01*
X103025935Y-56972780D01*
X103025938Y-56972778D01*
X103032762Y-56968742D01*
X103047083Y-56954421D01*
X103062117Y-56941580D01*
X103072094Y-56934331D01*
X103078507Y-56929672D01*
X103106698Y-56895595D01*
X103114688Y-56886816D01*
X105218053Y-54783452D01*
X105226339Y-54775912D01*
X105232818Y-54771800D01*
X105279444Y-54722148D01*
X105282198Y-54719307D01*
X105301935Y-54699570D01*
X105304415Y-54696373D01*
X105312120Y-54687351D01*
X105313771Y-54685593D01*
X105342386Y-54655121D01*
X105346209Y-54648168D01*
X105346836Y-54647029D01*
X105347981Y-54645730D01*
X105350865Y-54641761D01*
X105351240Y-54642034D01*
X105383184Y-54605801D01*
X105403413Y-54591104D01*
X105404673Y-54589705D01*
X105467101Y-54559746D01*
X105487403Y-54558100D01*
X106317879Y-54558100D01*
X106386000Y-54578102D01*
X106426998Y-54621100D01*
X106464233Y-54685593D01*
X106468651Y-54690500D01*
X106468652Y-54690501D01*
X106555675Y-54787150D01*
X106584987Y-54819704D01*
X106590329Y-54823585D01*
X106590331Y-54823587D01*
X106699814Y-54903131D01*
X106730985Y-54925778D01*
X106737013Y-54928462D01*
X106737015Y-54928463D01*
X106889817Y-54996495D01*
X106895848Y-54999180D01*
X106965586Y-55014003D01*
X107065911Y-55035328D01*
X107065915Y-55035328D01*
X107072368Y-55036700D01*
X107252832Y-55036700D01*
X107259285Y-55035328D01*
X107259289Y-55035328D01*
X107359614Y-55014003D01*
X107429352Y-54999180D01*
X107435383Y-54996495D01*
X107588185Y-54928463D01*
X107588187Y-54928462D01*
X107594215Y-54925778D01*
X107625386Y-54903131D01*
X107734869Y-54823587D01*
X107734871Y-54823585D01*
X107740213Y-54819704D01*
X107812477Y-54739447D01*
X107872921Y-54702209D01*
X107943905Y-54703561D01*
X107982640Y-54723663D01*
X108065678Y-54787150D01*
X108159916Y-54831094D01*
X108223631Y-54860805D01*
X108223634Y-54860806D01*
X108229808Y-54863685D01*
X108236456Y-54865171D01*
X108236459Y-54865172D01*
X108332686Y-54886681D01*
X108406543Y-54903190D01*
X108412088Y-54903500D01*
X108545244Y-54903500D01*
X108680037Y-54888857D01*
X108686501Y-54886682D01*
X108686504Y-54886681D01*
X108753716Y-54864061D01*
X108755811Y-54863356D01*
X108826753Y-54860586D01*
X108887932Y-54896609D01*
X108919923Y-54959990D01*
X108922000Y-54982775D01*
X108922000Y-55196657D01*
X108922301Y-55202805D01*
X108935812Y-55340603D01*
X108938195Y-55352638D01*
X108991767Y-55530076D01*
X108996441Y-55541416D01*
X109083460Y-55705077D01*
X109090249Y-55715294D01*
X109207397Y-55858933D01*
X109216041Y-55867637D01*
X109358856Y-55985784D01*
X109369027Y-55992644D01*
X109532076Y-56080804D01*
X109543381Y-56085556D01*
X109658692Y-56121250D01*
X109672795Y-56121456D01*
X109676000Y-56114701D01*
X109676000Y-56107924D01*
X110184000Y-56107924D01*
X110187973Y-56121455D01*
X110195768Y-56122575D01*
X110303521Y-56090862D01*
X110314889Y-56086269D01*
X110479154Y-56000393D01*
X110489415Y-55993679D01*
X110633873Y-55877532D01*
X110642632Y-55868954D01*
X110761778Y-55726961D01*
X110768708Y-55716841D01*
X110858002Y-55554415D01*
X110862834Y-55543142D01*
X110918880Y-55366462D01*
X110921430Y-55354468D01*
X110937607Y-55210239D01*
X110938000Y-55203215D01*
X110938000Y-54872115D01*
X110933525Y-54856876D01*
X110932135Y-54855671D01*
X110924452Y-54854000D01*
X110202115Y-54854000D01*
X110186876Y-54858475D01*
X110185671Y-54859865D01*
X110184000Y-54867548D01*
X110184000Y-56107924D01*
X109676000Y-56107924D01*
X109676000Y-54472000D01*
X109696002Y-54403879D01*
X109749658Y-54357386D01*
X109802000Y-54346000D01*
X110919885Y-54346000D01*
X110935124Y-54341525D01*
X110936329Y-54340135D01*
X110938000Y-54332452D01*
X110938000Y-54084500D01*
X110958002Y-54016379D01*
X111011658Y-53969886D01*
X111064000Y-53958500D01*
X113262275Y-53958500D01*
X113330396Y-53978502D01*
X113351370Y-53995405D01*
X120518995Y-61163030D01*
X120553021Y-61225342D01*
X120555900Y-61252125D01*
X120555900Y-63330700D01*
X120535898Y-63398821D01*
X120482242Y-63445314D01*
X120429900Y-63456700D01*
X117472042Y-63456700D01*
X117458435Y-63455963D01*
X117426937Y-63452541D01*
X117426932Y-63452541D01*
X117420811Y-63451876D01*
X117402811Y-63453451D01*
X117370809Y-63456250D01*
X117365984Y-63456579D01*
X117363513Y-63456700D01*
X117360431Y-63456700D01*
X117337963Y-63458903D01*
X117317689Y-63460891D01*
X117316374Y-63461013D01*
X117284113Y-63463836D01*
X117223787Y-63469113D01*
X117218668Y-63470600D01*
X117213367Y-63471120D01*
X117124366Y-63497991D01*
X117123233Y-63498326D01*
X117039786Y-63522570D01*
X117039782Y-63522572D01*
X117033864Y-63524291D01*
X117029132Y-63526744D01*
X117024031Y-63528284D01*
X117018588Y-63531178D01*
X116941940Y-63571931D01*
X116940774Y-63572543D01*
X116894305Y-63596631D01*
X116858274Y-63615308D01*
X116854111Y-63618631D01*
X116849404Y-63621134D01*
X116777282Y-63679955D01*
X116776426Y-63680646D01*
X116737227Y-63711938D01*
X116734723Y-63714442D01*
X116734005Y-63715084D01*
X116729672Y-63718785D01*
X116696138Y-63746135D01*
X116692210Y-63750883D01*
X116692209Y-63750884D01*
X116666915Y-63781459D01*
X116658927Y-63790238D01*
X116564091Y-63885075D01*
X116470297Y-63999261D01*
X116455630Y-64026615D01*
X116388529Y-64151760D01*
X116376838Y-64173563D01*
X116354298Y-64247287D01*
X116321078Y-64355945D01*
X116319013Y-64362698D01*
X116317443Y-64378151D01*
X116303782Y-64512645D01*
X116299026Y-64559462D01*
X116307791Y-64652186D01*
X116316823Y-64747725D01*
X116317639Y-64756362D01*
X116374141Y-64945896D01*
X116466382Y-65120846D01*
X116470258Y-65125632D01*
X116470259Y-65125634D01*
X116581730Y-65263289D01*
X116590847Y-65274547D01*
X116595582Y-65278492D01*
X116737514Y-65396745D01*
X116742796Y-65401146D01*
X116916441Y-65495822D01*
X117010805Y-65525394D01*
X117099286Y-65553122D01*
X117099289Y-65553123D01*
X117105168Y-65554965D01*
X117111291Y-65555630D01*
X117111295Y-65555631D01*
X117295663Y-65575659D01*
X117295667Y-65575659D01*
X117301788Y-65576324D01*
X117498813Y-65559087D01*
X117504730Y-65557368D01*
X117504735Y-65557367D01*
X117635464Y-65519386D01*
X117688736Y-65503909D01*
X117719746Y-65487835D01*
X117777731Y-65473700D01*
X120429900Y-65473700D01*
X120498021Y-65493702D01*
X120544514Y-65547358D01*
X120555900Y-65599700D01*
X120555900Y-70321557D01*
X120555163Y-70335164D01*
X120552272Y-70361779D01*
X120551076Y-70372788D01*
X120551613Y-70378923D01*
X120555450Y-70422788D01*
X120555779Y-70427614D01*
X120555900Y-70430086D01*
X120555900Y-70433169D01*
X120556201Y-70436237D01*
X120560090Y-70475906D01*
X120560212Y-70477219D01*
X120561698Y-70494205D01*
X120568313Y-70569813D01*
X120569800Y-70574932D01*
X120570320Y-70580233D01*
X120597191Y-70669234D01*
X120597526Y-70670367D01*
X120619976Y-70747636D01*
X120623491Y-70759736D01*
X120625944Y-70764468D01*
X120627484Y-70769569D01*
X120630378Y-70775012D01*
X120671131Y-70851660D01*
X120671743Y-70852826D01*
X120685554Y-70879469D01*
X120714508Y-70935326D01*
X120717831Y-70939489D01*
X120720334Y-70944196D01*
X120721936Y-70946160D01*
X120741982Y-71013263D01*
X120722299Y-71081477D01*
X120668862Y-71128221D01*
X120598636Y-71138654D01*
X120529730Y-71105704D01*
X120365488Y-70951470D01*
X120365475Y-70951458D01*
X120364528Y-70950569D01*
X120299616Y-70894538D01*
X120036141Y-70667113D01*
X119682408Y-70361779D01*
X119229742Y-70003000D01*
X118977264Y-69802888D01*
X118977242Y-69802871D01*
X118976231Y-69802070D01*
X118975181Y-69801307D01*
X118975165Y-69801295D01*
X118248313Y-69273206D01*
X118248306Y-69273201D01*
X118247235Y-69272423D01*
X118246139Y-69271695D01*
X118246122Y-69271683D01*
X117497801Y-68774500D01*
X117497795Y-68774496D01*
X117496699Y-68773768D01*
X116725940Y-68306980D01*
X116724808Y-68306358D01*
X116724793Y-68306349D01*
X116141045Y-67985431D01*
X115936310Y-67872877D01*
X115129194Y-67472221D01*
X115058670Y-67440821D01*
X115004573Y-67394840D01*
X114983924Y-67326913D01*
X115003277Y-67258605D01*
X115028087Y-67229903D01*
X115106213Y-67163177D01*
X115109969Y-67159969D01*
X115264176Y-66979416D01*
X115266755Y-66975208D01*
X115266759Y-66975202D01*
X115385654Y-66781183D01*
X115388240Y-66776963D01*
X115396263Y-66757595D01*
X115477211Y-66562167D01*
X115477212Y-66562165D01*
X115479105Y-66557594D01*
X115505800Y-66446400D01*
X115533380Y-66331524D01*
X115533381Y-66331518D01*
X115534535Y-66326711D01*
X115553165Y-66090000D01*
X115534535Y-65853289D01*
X115526207Y-65818598D01*
X115480260Y-65627218D01*
X115479105Y-65622406D01*
X115469700Y-65599700D01*
X115390135Y-65407611D01*
X115390133Y-65407607D01*
X115388240Y-65403037D01*
X115349626Y-65340025D01*
X115266759Y-65204798D01*
X115266755Y-65204792D01*
X115264176Y-65200584D01*
X115120538Y-65032406D01*
X115113177Y-65023787D01*
X115109969Y-65020031D01*
X115092668Y-65005254D01*
X115053860Y-64945803D01*
X115048500Y-64909444D01*
X115048500Y-63708242D01*
X115049237Y-63694635D01*
X115052659Y-63663137D01*
X115052659Y-63663132D01*
X115053324Y-63657011D01*
X115050526Y-63625030D01*
X115048950Y-63607009D01*
X115048621Y-63602184D01*
X115048500Y-63599713D01*
X115048500Y-63596631D01*
X115045319Y-63564194D01*
X115044309Y-63553889D01*
X115044187Y-63552574D01*
X115040914Y-63515159D01*
X115036087Y-63459987D01*
X115034600Y-63454868D01*
X115034080Y-63449567D01*
X115007230Y-63360635D01*
X115006856Y-63359373D01*
X115003854Y-63349040D01*
X114980909Y-63270063D01*
X114978455Y-63265329D01*
X114976916Y-63260231D01*
X114960663Y-63229664D01*
X114933316Y-63178231D01*
X114932702Y-63177063D01*
X114892726Y-63099941D01*
X114892725Y-63099940D01*
X114889892Y-63094474D01*
X114886569Y-63090311D01*
X114884066Y-63085604D01*
X114825245Y-63013482D01*
X114824554Y-63012626D01*
X114793262Y-62973427D01*
X114790758Y-62970923D01*
X114790116Y-62970205D01*
X114786415Y-62965872D01*
X114759065Y-62932338D01*
X114723736Y-62903112D01*
X114714955Y-62895121D01*
X114244055Y-62424221D01*
X114234953Y-62414078D01*
X114215097Y-62389382D01*
X114211232Y-62384575D01*
X114172778Y-62352308D01*
X114169131Y-62349128D01*
X114167319Y-62347485D01*
X114165125Y-62345291D01*
X114131851Y-62317958D01*
X114131053Y-62317296D01*
X114059726Y-62257446D01*
X114055056Y-62254878D01*
X114050939Y-62251497D01*
X113969114Y-62207623D01*
X113967955Y-62206994D01*
X113891819Y-62165138D01*
X113891811Y-62165135D01*
X113886413Y-62162167D01*
X113881331Y-62160555D01*
X113876637Y-62158038D01*
X113787669Y-62130838D01*
X113786641Y-62130518D01*
X113697894Y-62102365D01*
X113692598Y-62101771D01*
X113687502Y-62100213D01*
X113594943Y-62090810D01*
X113593807Y-62090689D01*
X113560192Y-62086919D01*
X113547470Y-62085492D01*
X113547466Y-62085492D01*
X113543973Y-62085100D01*
X113540446Y-62085100D01*
X113539461Y-62085045D01*
X113533781Y-62084598D01*
X113504375Y-62081611D01*
X113496863Y-62080848D01*
X113496861Y-62080848D01*
X113490738Y-62080226D01*
X113448459Y-62084223D01*
X113445091Y-62084541D01*
X113433233Y-62085100D01*
X112845767Y-62085100D01*
X112777646Y-62065098D01*
X112731153Y-62011442D01*
X112721049Y-61941168D01*
X112725934Y-61920164D01*
X112754725Y-61831554D01*
X112754725Y-61831553D01*
X112756765Y-61825275D01*
X112765395Y-61743173D01*
X112774939Y-61652365D01*
X112775629Y-61645800D01*
X112756765Y-61466325D01*
X112700999Y-61294693D01*
X112694804Y-61283962D01*
X112642256Y-61192947D01*
X112610767Y-61138407D01*
X112591706Y-61117237D01*
X112494435Y-61009207D01*
X112494434Y-61009206D01*
X112490013Y-61004296D01*
X112375280Y-60920937D01*
X112349357Y-60902103D01*
X112349356Y-60902102D01*
X112344015Y-60898222D01*
X112337987Y-60895538D01*
X112337985Y-60895537D01*
X112185183Y-60827505D01*
X112185181Y-60827505D01*
X112179152Y-60824820D01*
X112090892Y-60806060D01*
X112009089Y-60788672D01*
X112009085Y-60788672D01*
X112002632Y-60787300D01*
X111996030Y-60787300D01*
X111989463Y-60786610D01*
X111989768Y-60783710D01*
X111933874Y-60767298D01*
X111912900Y-60750395D01*
X111603252Y-60440747D01*
X111595712Y-60432461D01*
X111591600Y-60425982D01*
X111541948Y-60379356D01*
X111539107Y-60376602D01*
X111519370Y-60356865D01*
X111516173Y-60354385D01*
X111507151Y-60346680D01*
X111493722Y-60334069D01*
X111474921Y-60316414D01*
X111467975Y-60312595D01*
X111467972Y-60312593D01*
X111457166Y-60306652D01*
X111440647Y-60295801D01*
X111440183Y-60295441D01*
X111424641Y-60283386D01*
X111417372Y-60280241D01*
X111417368Y-60280238D01*
X111384063Y-60265826D01*
X111373413Y-60260609D01*
X111334660Y-60239305D01*
X111315037Y-60234267D01*
X111296334Y-60227863D01*
X111285020Y-60222967D01*
X111285019Y-60222967D01*
X111277745Y-60219819D01*
X111269922Y-60218580D01*
X111269912Y-60218577D01*
X111234076Y-60212901D01*
X111222456Y-60210495D01*
X111187311Y-60201472D01*
X111187310Y-60201472D01*
X111179630Y-60199500D01*
X111159376Y-60199500D01*
X111139665Y-60197949D01*
X111127486Y-60196020D01*
X111119657Y-60194780D01*
X111090386Y-60197547D01*
X111075639Y-60198941D01*
X111063781Y-60199500D01*
X104498167Y-60199500D01*
X104486984Y-60198973D01*
X104479491Y-60197298D01*
X104471565Y-60197547D01*
X104471564Y-60197547D01*
X104411401Y-60199438D01*
X104407443Y-60199500D01*
X104379544Y-60199500D01*
X104375554Y-60200004D01*
X104363720Y-60200936D01*
X104319511Y-60202326D01*
X104311897Y-60204538D01*
X104311892Y-60204539D01*
X104300059Y-60207977D01*
X104280696Y-60211988D01*
X104260603Y-60214526D01*
X104253236Y-60217443D01*
X104253231Y-60217444D01*
X104219492Y-60230802D01*
X104208265Y-60234646D01*
X104165807Y-60246982D01*
X104158981Y-60251019D01*
X104148372Y-60257293D01*
X104130624Y-60265988D01*
X104111783Y-60273448D01*
X104105367Y-60278110D01*
X104105366Y-60278110D01*
X104076013Y-60299436D01*
X104066093Y-60305952D01*
X104034865Y-60324420D01*
X104034862Y-60324422D01*
X104028038Y-60328458D01*
X104013717Y-60342779D01*
X103998684Y-60355619D01*
X103982293Y-60367528D01*
X103977242Y-60373633D01*
X103977237Y-60373638D01*
X103954101Y-60401604D01*
X103946113Y-60410382D01*
X103580700Y-60775795D01*
X103518388Y-60809821D01*
X103504069Y-60811360D01*
X103504137Y-60812010D01*
X103497570Y-60812700D01*
X103490968Y-60812700D01*
X103484515Y-60814072D01*
X103484511Y-60814072D01*
X103421315Y-60827505D01*
X103314448Y-60850220D01*
X103308419Y-60852904D01*
X103308417Y-60852905D01*
X103155616Y-60920937D01*
X103155614Y-60920938D01*
X103149586Y-60923622D01*
X103144245Y-60927502D01*
X103144244Y-60927503D01*
X103008931Y-61025813D01*
X103008929Y-61025815D01*
X103003587Y-61029696D01*
X102999166Y-61034606D01*
X102999165Y-61034607D01*
X102898315Y-61146613D01*
X102882833Y-61163807D01*
X102851673Y-61217778D01*
X102806339Y-61296299D01*
X102792601Y-61320093D01*
X102790559Y-61326378D01*
X102744096Y-61469379D01*
X102736835Y-61491725D01*
X102736145Y-61498288D01*
X102736145Y-61498289D01*
X102730981Y-61547418D01*
X102717971Y-61671200D01*
X102718661Y-61677765D01*
X102729573Y-61781579D01*
X102736835Y-61850675D01*
X102792601Y-62022307D01*
X102795904Y-62028029D01*
X102795905Y-62028030D01*
X102826380Y-62080813D01*
X102882833Y-62178593D01*
X102887251Y-62183500D01*
X102887252Y-62183501D01*
X102980143Y-62286667D01*
X103003587Y-62312704D01*
X103008929Y-62316585D01*
X103008931Y-62316587D01*
X103119365Y-62396822D01*
X103149585Y-62418778D01*
X103155613Y-62421462D01*
X103155615Y-62421463D01*
X103161810Y-62424221D01*
X103314448Y-62492180D01*
X103394061Y-62509102D01*
X103484511Y-62528328D01*
X103484515Y-62528328D01*
X103490968Y-62529700D01*
X103671432Y-62529700D01*
X103677885Y-62528328D01*
X103677889Y-62528328D01*
X103768339Y-62509102D01*
X103847952Y-62492180D01*
X104000590Y-62424221D01*
X104006785Y-62421463D01*
X104006787Y-62421462D01*
X104012815Y-62418778D01*
X104043035Y-62396822D01*
X104153469Y-62316587D01*
X104153471Y-62316585D01*
X104158813Y-62312704D01*
X104182257Y-62286667D01*
X104275148Y-62183501D01*
X104275149Y-62183500D01*
X104279567Y-62178593D01*
X104336020Y-62080813D01*
X104366495Y-62028030D01*
X104366496Y-62028029D01*
X104369799Y-62022307D01*
X104425565Y-61850675D01*
X104435927Y-61752087D01*
X104462940Y-61686431D01*
X104472142Y-61676162D01*
X104644901Y-61503404D01*
X104707213Y-61469379D01*
X104733996Y-61466500D01*
X110785006Y-61466500D01*
X110853127Y-61486502D01*
X110874101Y-61503405D01*
X111021458Y-61650762D01*
X111055484Y-61713074D01*
X111057673Y-61726686D01*
X111068035Y-61825275D01*
X111070075Y-61831553D01*
X111070075Y-61831554D01*
X111098866Y-61920164D01*
X111100893Y-61991132D01*
X111064231Y-62051930D01*
X111000518Y-62083255D01*
X110979033Y-62085100D01*
X107728243Y-62085100D01*
X107714636Y-62084363D01*
X107683138Y-62080941D01*
X107683133Y-62080941D01*
X107677012Y-62080276D01*
X107650762Y-62082573D01*
X107627012Y-62084650D01*
X107622186Y-62084979D01*
X107619714Y-62085100D01*
X107616631Y-62085100D01*
X107604662Y-62086274D01*
X107573894Y-62089290D01*
X107572581Y-62089412D01*
X107528316Y-62093285D01*
X107479987Y-62097513D01*
X107474868Y-62099000D01*
X107469567Y-62099520D01*
X107380566Y-62126391D01*
X107379433Y-62126726D01*
X107295986Y-62150970D01*
X107295982Y-62150972D01*
X107290064Y-62152691D01*
X107285332Y-62155144D01*
X107280231Y-62156684D01*
X107274788Y-62159578D01*
X107198140Y-62200331D01*
X107196974Y-62200943D01*
X107149816Y-62225388D01*
X107114474Y-62243708D01*
X107110311Y-62247031D01*
X107105604Y-62249534D01*
X107100829Y-62253428D01*
X107100828Y-62253429D01*
X107033502Y-62308339D01*
X107032475Y-62309167D01*
X106996192Y-62338131D01*
X106996187Y-62338136D01*
X106993428Y-62340338D01*
X106990927Y-62342839D01*
X106990209Y-62343481D01*
X106985861Y-62347194D01*
X106952338Y-62374535D01*
X106948415Y-62379277D01*
X106948413Y-62379279D01*
X106923103Y-62409873D01*
X106915113Y-62418653D01*
X106391663Y-62942103D01*
X106329351Y-62976129D01*
X106292682Y-62978620D01*
X106274931Y-62977223D01*
X106274930Y-62977223D01*
X106270000Y-62976835D01*
X106033289Y-62995465D01*
X106028482Y-62996619D01*
X106028476Y-62996620D01*
X105882609Y-63031640D01*
X105802406Y-63050895D01*
X105797835Y-63052788D01*
X105797833Y-63052789D01*
X105587611Y-63139865D01*
X105587607Y-63139867D01*
X105583037Y-63141760D01*
X105578817Y-63144346D01*
X105384798Y-63263241D01*
X105384792Y-63263245D01*
X105380584Y-63265824D01*
X105286916Y-63345824D01*
X105204025Y-63416620D01*
X105200031Y-63420031D01*
X105179059Y-63444586D01*
X105119611Y-63483393D01*
X105048616Y-63483901D01*
X105001420Y-63458565D01*
X104873182Y-63349040D01*
X104873178Y-63349037D01*
X104869416Y-63345824D01*
X104865208Y-63343245D01*
X104865202Y-63343241D01*
X104671183Y-63224346D01*
X104666963Y-63221760D01*
X104662393Y-63219867D01*
X104662389Y-63219865D01*
X104452167Y-63132789D01*
X104452165Y-63132788D01*
X104447594Y-63130895D01*
X104367391Y-63111640D01*
X104221524Y-63076620D01*
X104221518Y-63076619D01*
X104216711Y-63075465D01*
X103980000Y-63056835D01*
X103743289Y-63075465D01*
X103738482Y-63076619D01*
X103738476Y-63076620D01*
X103592609Y-63111640D01*
X103512406Y-63130895D01*
X103507835Y-63132788D01*
X103507833Y-63132789D01*
X103297611Y-63219865D01*
X103297607Y-63219867D01*
X103293037Y-63221760D01*
X103288817Y-63224346D01*
X103094798Y-63343241D01*
X103094792Y-63343245D01*
X103090584Y-63345824D01*
X102955858Y-63460891D01*
X102918211Y-63493045D01*
X102910031Y-63500031D01*
X102906823Y-63503787D01*
X102764732Y-63670154D01*
X102705281Y-63708963D01*
X102634287Y-63709469D01*
X102594859Y-63690259D01*
X102593183Y-63689041D01*
X102589416Y-63685824D01*
X102579756Y-63679904D01*
X102391183Y-63564346D01*
X102386963Y-63561760D01*
X102382393Y-63559867D01*
X102382389Y-63559865D01*
X102172167Y-63472789D01*
X102172165Y-63472788D01*
X102167594Y-63470895D01*
X102078756Y-63449567D01*
X101941524Y-63416620D01*
X101941518Y-63416619D01*
X101936711Y-63415465D01*
X101700000Y-63396835D01*
X101463289Y-63415465D01*
X101458482Y-63416619D01*
X101458476Y-63416620D01*
X101321244Y-63449567D01*
X101232406Y-63470895D01*
X101227835Y-63472788D01*
X101227833Y-63472789D01*
X101017611Y-63559865D01*
X101017607Y-63559867D01*
X101013037Y-63561760D01*
X101008817Y-63564346D01*
X100814798Y-63683241D01*
X100814792Y-63683245D01*
X100810584Y-63685824D01*
X100630031Y-63840031D01*
X100626823Y-63843787D01*
X100610305Y-63863127D01*
X100475824Y-64020584D01*
X100404359Y-64137204D01*
X100351711Y-64184835D01*
X100281670Y-64196442D01*
X100231091Y-64178801D01*
X100191193Y-64154351D01*
X100191182Y-64154345D01*
X100186963Y-64151760D01*
X100182393Y-64149867D01*
X100182389Y-64149865D01*
X99972167Y-64062789D01*
X99972165Y-64062788D01*
X99967594Y-64060895D01*
X99850799Y-64032855D01*
X99741524Y-64006620D01*
X99741518Y-64006619D01*
X99736711Y-64005465D01*
X99500000Y-63986835D01*
X99263289Y-64005465D01*
X99258482Y-64006619D01*
X99258476Y-64006620D01*
X99149201Y-64032855D01*
X99032406Y-64060895D01*
X99027835Y-64062788D01*
X99027833Y-64062789D01*
X98817611Y-64149865D01*
X98817607Y-64149867D01*
X98813037Y-64151760D01*
X98808817Y-64154346D01*
X98614798Y-64273241D01*
X98614792Y-64273245D01*
X98610584Y-64275824D01*
X98491940Y-64377156D01*
X98440500Y-64421090D01*
X98430031Y-64430031D01*
X98275824Y-64610584D01*
X98273245Y-64614792D01*
X98273241Y-64614798D01*
X98182873Y-64762265D01*
X98151760Y-64813037D01*
X98149867Y-64817608D01*
X98149861Y-64817619D01*
X98142214Y-64836082D01*
X98097667Y-64891364D01*
X98030304Y-64913786D01*
X97977587Y-64904275D01*
X97782013Y-64823266D01*
X97772627Y-64820217D01*
X97551446Y-64767115D01*
X97541699Y-64765572D01*
X97314930Y-64747725D01*
X97305070Y-64747725D01*
X97078301Y-64765572D01*
X97068554Y-64767115D01*
X96847373Y-64820217D01*
X96837988Y-64823266D01*
X96627837Y-64910313D01*
X96619042Y-64914795D01*
X96425101Y-65033643D01*
X96417117Y-65039443D01*
X96396131Y-65057367D01*
X96331341Y-65086398D01*
X96261141Y-65075793D01*
X96207819Y-65028919D01*
X96188300Y-64961556D01*
X96188300Y-63772202D01*
X96208302Y-63704081D01*
X96220664Y-63687891D01*
X96221194Y-63687303D01*
X96253167Y-63651793D01*
X96299101Y-63572234D01*
X96340095Y-63501230D01*
X96340096Y-63501229D01*
X96343399Y-63495507D01*
X96382395Y-63375488D01*
X96397125Y-63330154D01*
X96397125Y-63330153D01*
X96399165Y-63323875D01*
X96401970Y-63297193D01*
X96417339Y-63150965D01*
X96418029Y-63144400D01*
X96410905Y-63076620D01*
X96399855Y-62971489D01*
X96399855Y-62971488D01*
X96399165Y-62964925D01*
X96343399Y-62793293D01*
X96253167Y-62637007D01*
X96156548Y-62529700D01*
X96136835Y-62507807D01*
X96136834Y-62507806D01*
X96132413Y-62502896D01*
X96119553Y-62493552D01*
X95991757Y-62400703D01*
X95991756Y-62400702D01*
X95986415Y-62396822D01*
X95980387Y-62394138D01*
X95980385Y-62394137D01*
X95827583Y-62326105D01*
X95827581Y-62326105D01*
X95821552Y-62323420D01*
X95733292Y-62304660D01*
X95651489Y-62287272D01*
X95651485Y-62287272D01*
X95645032Y-62285900D01*
X95464568Y-62285900D01*
X95462303Y-62286381D01*
X95394028Y-62273892D01*
X95342183Y-62225388D01*
X95324700Y-62161357D01*
X95324700Y-58031802D01*
X95344702Y-57963681D01*
X95357064Y-57947491D01*
X95385148Y-57916301D01*
X95385149Y-57916300D01*
X95389567Y-57911393D01*
X95479799Y-57755107D01*
X95535565Y-57583475D01*
X95554429Y-57404000D01*
X95544210Y-57306778D01*
X95536255Y-57231089D01*
X95536255Y-57231088D01*
X95535565Y-57224525D01*
X95528937Y-57204124D01*
X95494378Y-57097762D01*
X95479799Y-57052893D01*
X95474167Y-57043137D01*
X95397946Y-56911120D01*
X95389567Y-56896607D01*
X95268813Y-56762496D01*
X95264025Y-56759018D01*
X95226921Y-56698789D01*
X95228273Y-56627806D01*
X95259376Y-56576505D01*
X98106876Y-53729005D01*
X98169188Y-53694979D01*
X98195971Y-53692100D01*
X100175586Y-53692100D01*
X100243707Y-53712102D01*
G37*
%TD.AperFunction*%
%TD*%
M02*
