%TF.GenerationSoftware,KiCad,Pcbnew,6.0.10*%
%TF.CreationDate,2023-03-14T09:48:46+03:00*%
%TF.ProjectId,Canon_manage,43616e6f-6e5f-46d6-916e-6167652e6b69,rev?*%
%TF.SameCoordinates,Original*%
%TF.FileFunction,Paste,Top*%
%TF.FilePolarity,Positive*%
%FSLAX46Y46*%
G04 Gerber Fmt 4.6, Leading zero omitted, Abs format (unit mm)*
G04 Created by KiCad (PCBNEW 6.0.10) date 2023-03-14 09:48:46*
%MOMM*%
%LPD*%
G01*
G04 APERTURE LIST*
G04 Aperture macros list*
%AMRoundRect*
0 Rectangle with rounded corners*
0 $1 Rounding radius*
0 $2 $3 $4 $5 $6 $7 $8 $9 X,Y pos of 4 corners*
0 Add a 4 corners polygon primitive as box body*
4,1,4,$2,$3,$4,$5,$6,$7,$8,$9,$2,$3,0*
0 Add four circle primitives for the rounded corners*
1,1,$1+$1,$2,$3*
1,1,$1+$1,$4,$5*
1,1,$1+$1,$6,$7*
1,1,$1+$1,$8,$9*
0 Add four rect primitives between the rounded corners*
20,1,$1+$1,$2,$3,$4,$5,0*
20,1,$1+$1,$4,$5,$6,$7,0*
20,1,$1+$1,$6,$7,$8,$9,0*
20,1,$1+$1,$8,$9,$2,$3,0*%
G04 Aperture macros list end*
%ADD10R,1.560000X0.650000*%
%ADD11RoundRect,0.150000X-0.150000X0.512500X-0.150000X-0.512500X0.150000X-0.512500X0.150000X0.512500X0*%
%ADD12RoundRect,0.150000X0.150000X-0.825000X0.150000X0.825000X-0.150000X0.825000X-0.150000X-0.825000X0*%
%ADD13RoundRect,0.237500X0.237500X-0.250000X0.237500X0.250000X-0.237500X0.250000X-0.237500X-0.250000X0*%
%ADD14R,0.600000X1.450000*%
%ADD15R,0.300000X1.450000*%
%ADD16RoundRect,0.237500X0.250000X0.237500X-0.250000X0.237500X-0.250000X-0.237500X0.250000X-0.237500X0*%
G04 APERTURE END LIST*
D10*
%TO.C,U5*%
X115620800Y-58049200D03*
X115620800Y-57099200D03*
X115620800Y-56149200D03*
X112920800Y-56149200D03*
X112920800Y-58049200D03*
%TD*%
D11*
%TO.C,D1*%
X77673200Y-83769200D03*
X76723200Y-83769200D03*
X75773200Y-83769200D03*
X75773200Y-86044200D03*
X77673200Y-86044200D03*
%TD*%
D12*
%TO.C,U4*%
X92481400Y-60133000D03*
X93751400Y-60133000D03*
X95021400Y-60133000D03*
X96291400Y-60133000D03*
X96291400Y-55183000D03*
X95021400Y-55183000D03*
X93751400Y-55183000D03*
X92481400Y-55183000D03*
%TD*%
D13*
%TO.C,R3*%
X75776666Y-78890500D03*
X75776666Y-77065500D03*
%TD*%
D14*
%TO.C,J37*%
X108860000Y-55515000D03*
X108060000Y-55515000D03*
D15*
X106860000Y-55515000D03*
X105860000Y-55515000D03*
X105360000Y-55515000D03*
X104360000Y-55515000D03*
D14*
X103160000Y-55515000D03*
X102360000Y-55515000D03*
X102360000Y-55515000D03*
X103160000Y-55515000D03*
D15*
X103860000Y-55515000D03*
X104860000Y-55515000D03*
X106360000Y-55515000D03*
X107360000Y-55515000D03*
D14*
X108060000Y-55515000D03*
X108860000Y-55515000D03*
%TD*%
D13*
%TO.C,R4*%
X77334532Y-78890500D03*
X77334532Y-77065500D03*
%TD*%
%TO.C,R2*%
X74218800Y-78890500D03*
X74218800Y-77065500D03*
%TD*%
%TO.C,R5*%
X78892400Y-78890500D03*
X78892400Y-77065500D03*
%TD*%
%TO.C,R11*%
X90627200Y-57910100D03*
X90627200Y-56085100D03*
%TD*%
D16*
%TO.C,R1*%
X80387200Y-90906600D03*
X78562200Y-90906600D03*
%TD*%
M02*
