M48
; DRILL file {KiCad 6.0.5} date Пт 23 сен 2022 09:05:12
; FORMAT={-:-/ absolute / metric / decimal}
; #@! TF.CreationDate,2022-09-23T09:05:12+03:00
; #@! TF.GenerationSoftware,Kicad,Pcbnew,6.0.5
; #@! TF.FileFunction,MixedPlating,1,2
FMAT,2
METRIC
; #@! TA.AperFunction,Plated,PTH,ViaDrill
T1C0.500
; #@! TA.AperFunction,Plated,PTH,ComponentDrill
T2C0.500
; #@! TA.AperFunction,Plated,PTH,ComponentDrill
T3C0.600
; #@! TA.AperFunction,Plated,PTH,ViaDrill
T4C0.800
; #@! TA.AperFunction,Plated,PTH,ComponentDrill
T5C0.800
; #@! TA.AperFunction,Plated,PTH,ComponentDrill
T6C1.000
; #@! TA.AperFunction,NonPlated,NPTH,ComponentDrill
T7C0.650
; #@! TA.AperFunction,NonPlated,NPTH,ComponentDrill
T8C3.200
%
G90
G05
T1
X71.831Y-87.427
X73.889Y-79.096
X75.184Y-77.927
X75.184Y-80.162
X75.641Y-84.785
X76.632Y-69.266
X76.64Y-84.811
X77.64Y-84.811
X77.826Y-89.408
X78.435Y-84.15
X78.791Y-86.189
X79.604Y-72.542
X79.908Y-78.74
X80.446Y-88.464
X80.772Y-85.192
X81.077Y-72.72
X81.636Y-78.283
X82.779Y-78.283
X84.074Y-69.088
X84.582Y-77.064
X84.582Y-80.747
X85.217Y-69.088
X89.51Y-58.522
X91.161Y-61.773
X94.463Y-59.842
X97.993Y-62.128
X103.048Y-58.039
X104.191Y-58.166
X105.512Y-59.309
X105.66Y-57.76
X107.137Y-58.471
T2
X70.587Y-85.189
X70.587Y-86.189
X70.587Y-87.189
X70.587Y-88.189
X70.587Y-89.189
X70.587Y-90.189
X97.31Y-66.26
X99.5Y-65.5
X101.7Y-64.91
X103.98Y-64.57
X106.27Y-64.49
X109.64Y-64.82
X111.93Y-65.33
X114.04Y-66.09
T4
X77.673Y-75.489
X80.162Y-86.843
X80.848Y-75.26
X101.803Y-57.353
X108.052Y-60.35
X109.423Y-115.291
X112.471Y-62.027
X114.3Y-58.522
X131.064Y-84.887
T5
X76.767Y-96.6
X81.647Y-96.6
T6
X127.61Y-72.238
X133.35Y-89.56
X138.633Y-89.56
T7
X102.72Y-54.07
X108.5Y-54.07
T8
X86.05Y-63.225
X86.05Y-110.665
X125.88Y-63.225
X125.88Y-110.665
T3
G00X101.29Y-50.72
M15
G01X101.29Y-50.12
M16
G05
G00X101.29Y-55.15
M15
G01X101.29Y-54.05
M16
G05
G00X109.93Y-50.72
M15
G01X109.93Y-50.12
M16
G05
G00X109.93Y-55.15
M15
G01X109.93Y-54.05
M16
G05
T0
M30
