%TF.GenerationSoftware,KiCad,Pcbnew,6.0.10*%
%TF.CreationDate,2023-05-02T19:03:39+03:00*%
%TF.ProjectId,Canon_manage,43616e6f-6e5f-46d6-916e-6167652e6b69,rev?*%
%TF.SameCoordinates,Original*%
%TF.FileFunction,Legend,Top*%
%TF.FilePolarity,Positive*%
%FSLAX46Y46*%
G04 Gerber Fmt 4.6, Leading zero omitted, Abs format (unit mm)*
G04 Created by KiCad (PCBNEW 6.0.10) date 2023-05-02 19:03:39*
%MOMM*%
%LPD*%
G01*
G04 APERTURE LIST*
%ADD10C,0.400000*%
%ADD11C,0.150000*%
%ADD12C,0.120000*%
G04 APERTURE END LIST*
D10*
X101698895Y-117744761D02*
X101698895Y-115744761D01*
X102460800Y-115744761D01*
X102651276Y-115840000D01*
X102746514Y-115935238D01*
X102841752Y-116125714D01*
X102841752Y-116411428D01*
X102746514Y-116601904D01*
X102651276Y-116697142D01*
X102460800Y-116792380D01*
X101698895Y-116792380D01*
X103508419Y-115744761D02*
X103984609Y-117744761D01*
X104365561Y-116316190D01*
X104746514Y-117744761D01*
X105222704Y-115744761D01*
X105984609Y-117744761D02*
X105984609Y-115744761D01*
X106651276Y-117173333D01*
X107317942Y-115744761D01*
X107317942Y-117744761D01*
X108651276Y-115744761D02*
X108841752Y-115744761D01*
X109032228Y-115840000D01*
X109127466Y-115935238D01*
X109222704Y-116125714D01*
X109317942Y-116506666D01*
X109317942Y-116982857D01*
X109222704Y-117363809D01*
X109127466Y-117554285D01*
X109032228Y-117649523D01*
X108841752Y-117744761D01*
X108651276Y-117744761D01*
X108460800Y-117649523D01*
X108365561Y-117554285D01*
X108270323Y-117363809D01*
X108175085Y-116982857D01*
X108175085Y-116506666D01*
X108270323Y-116125714D01*
X108365561Y-115935238D01*
X108460800Y-115840000D01*
X108651276Y-115744761D01*
X114424295Y-112715561D02*
X114424295Y-110715561D01*
X115186200Y-110715561D01*
X115376676Y-110810800D01*
X115471914Y-110906038D01*
X115567152Y-111096514D01*
X115567152Y-111382228D01*
X115471914Y-111572704D01*
X115376676Y-111667942D01*
X115186200Y-111763180D01*
X114424295Y-111763180D01*
X116233819Y-110715561D02*
X116710009Y-112715561D01*
X117090961Y-111286990D01*
X117471914Y-112715561D01*
X117948104Y-110715561D01*
X118710009Y-112715561D02*
X118710009Y-110715561D01*
X119376676Y-112144133D01*
X120043342Y-110715561D01*
X120043342Y-112715561D01*
X122043342Y-112715561D02*
X120900485Y-112715561D01*
X121471914Y-112715561D02*
X121471914Y-110715561D01*
X121281438Y-111001276D01*
X121090961Y-111191752D01*
X120900485Y-111286990D01*
X127937095Y-97399361D02*
X127937095Y-95399361D01*
X128699000Y-95399361D01*
X128889476Y-95494600D01*
X128984714Y-95589838D01*
X129079952Y-95780314D01*
X129079952Y-96066028D01*
X128984714Y-96256504D01*
X128889476Y-96351742D01*
X128699000Y-96446980D01*
X127937095Y-96446980D01*
X129746619Y-95399361D02*
X130222809Y-97399361D01*
X130603761Y-95970790D01*
X130984714Y-97399361D01*
X131460904Y-95399361D01*
X132222809Y-97399361D02*
X132222809Y-95399361D01*
X132889476Y-96827933D01*
X133556142Y-95399361D01*
X133556142Y-97399361D01*
X134413285Y-95589838D02*
X134508523Y-95494600D01*
X134699000Y-95399361D01*
X135175190Y-95399361D01*
X135365666Y-95494600D01*
X135460904Y-95589838D01*
X135556142Y-95780314D01*
X135556142Y-95970790D01*
X135460904Y-96256504D01*
X134318047Y-97399361D01*
X135556142Y-97399361D01*
D11*
X110192485Y-57833114D02*
X110154390Y-57871209D01*
X110040104Y-57909304D01*
X109963914Y-57909304D01*
X109849628Y-57871209D01*
X109773438Y-57795019D01*
X109735342Y-57718828D01*
X109697247Y-57566447D01*
X109697247Y-57452161D01*
X109735342Y-57299780D01*
X109773438Y-57223590D01*
X109849628Y-57147400D01*
X109963914Y-57109304D01*
X110040104Y-57109304D01*
X110154390Y-57147400D01*
X110192485Y-57185495D01*
X110497247Y-57680733D02*
X110878200Y-57680733D01*
X110421057Y-57909304D02*
X110687723Y-57109304D01*
X110954390Y-57909304D01*
X111221057Y-57909304D02*
X111221057Y-57109304D01*
X111678200Y-57909304D01*
X111678200Y-57109304D01*
X112440104Y-57909304D02*
X112059152Y-57909304D01*
X112059152Y-57109304D01*
X113316295Y-57604542D02*
X113925819Y-57604542D01*
X115373438Y-57833114D02*
X115335342Y-57871209D01*
X115221057Y-57909304D01*
X115144866Y-57909304D01*
X115030580Y-57871209D01*
X114954390Y-57795019D01*
X114916295Y-57718828D01*
X114878200Y-57566447D01*
X114878200Y-57452161D01*
X114916295Y-57299780D01*
X114954390Y-57223590D01*
X115030580Y-57147400D01*
X115144866Y-57109304D01*
X115221057Y-57109304D01*
X115335342Y-57147400D01*
X115373438Y-57185495D01*
X116173438Y-57833114D02*
X116135342Y-57871209D01*
X116021057Y-57909304D01*
X115944866Y-57909304D01*
X115830580Y-57871209D01*
X115754390Y-57795019D01*
X115716295Y-57718828D01*
X115678200Y-57566447D01*
X115678200Y-57452161D01*
X115716295Y-57299780D01*
X115754390Y-57223590D01*
X115830580Y-57147400D01*
X115944866Y-57109304D01*
X116021057Y-57109304D01*
X116135342Y-57147400D01*
X116173438Y-57185495D01*
X116935342Y-57909304D02*
X116478200Y-57909304D01*
X116706771Y-57909304D02*
X116706771Y-57109304D01*
X116630580Y-57223590D01*
X116554390Y-57299780D01*
X116478200Y-57337876D01*
X117849628Y-57071209D02*
X117163914Y-58099780D01*
X118573438Y-57833114D02*
X118535342Y-57871209D01*
X118421057Y-57909304D01*
X118344866Y-57909304D01*
X118230580Y-57871209D01*
X118154390Y-57795019D01*
X118116295Y-57718828D01*
X118078200Y-57566447D01*
X118078200Y-57452161D01*
X118116295Y-57299780D01*
X118154390Y-57223590D01*
X118230580Y-57147400D01*
X118344866Y-57109304D01*
X118421057Y-57109304D01*
X118535342Y-57147400D01*
X118573438Y-57185495D01*
X119373438Y-57833114D02*
X119335342Y-57871209D01*
X119221057Y-57909304D01*
X119144866Y-57909304D01*
X119030580Y-57871209D01*
X118954390Y-57795019D01*
X118916295Y-57718828D01*
X118878200Y-57566447D01*
X118878200Y-57452161D01*
X118916295Y-57299780D01*
X118954390Y-57223590D01*
X119030580Y-57147400D01*
X119144866Y-57109304D01*
X119221057Y-57109304D01*
X119335342Y-57147400D01*
X119373438Y-57185495D01*
X119678200Y-57185495D02*
X119716295Y-57147400D01*
X119792485Y-57109304D01*
X119982961Y-57109304D01*
X120059152Y-57147400D01*
X120097247Y-57185495D01*
X120135342Y-57261685D01*
X120135342Y-57337876D01*
X120097247Y-57452161D01*
X119640104Y-57909304D01*
X120135342Y-57909304D01*
X121316295Y-58214066D02*
X121278200Y-58175971D01*
X121202009Y-58061685D01*
X121163914Y-57985495D01*
X121125819Y-57871209D01*
X121087723Y-57680733D01*
X121087723Y-57528352D01*
X121125819Y-57337876D01*
X121163914Y-57223590D01*
X121202009Y-57147400D01*
X121278200Y-57033114D01*
X121316295Y-56995019D01*
X121582961Y-57680733D02*
X121963914Y-57680733D01*
X121506771Y-57909304D02*
X121773438Y-57109304D01*
X122040104Y-57909304D01*
X122687723Y-57109304D02*
X122306771Y-57109304D01*
X122268676Y-57490257D01*
X122306771Y-57452161D01*
X122382961Y-57414066D01*
X122573438Y-57414066D01*
X122649628Y-57452161D01*
X122687723Y-57490257D01*
X122725819Y-57566447D01*
X122725819Y-57756923D01*
X122687723Y-57833114D01*
X122649628Y-57871209D01*
X122573438Y-57909304D01*
X122382961Y-57909304D01*
X122306771Y-57871209D01*
X122268676Y-57833114D01*
X123640104Y-57071209D02*
X122954390Y-58099780D01*
X124173438Y-57490257D02*
X124287723Y-57528352D01*
X124325819Y-57566447D01*
X124363914Y-57642638D01*
X124363914Y-57756923D01*
X124325819Y-57833114D01*
X124287723Y-57871209D01*
X124211533Y-57909304D01*
X123906771Y-57909304D01*
X123906771Y-57109304D01*
X124173438Y-57109304D01*
X124249628Y-57147400D01*
X124287723Y-57185495D01*
X124325819Y-57261685D01*
X124325819Y-57337876D01*
X124287723Y-57414066D01*
X124249628Y-57452161D01*
X124173438Y-57490257D01*
X123906771Y-57490257D01*
X125087723Y-57109304D02*
X124706771Y-57109304D01*
X124668676Y-57490257D01*
X124706771Y-57452161D01*
X124782961Y-57414066D01*
X124973438Y-57414066D01*
X125049628Y-57452161D01*
X125087723Y-57490257D01*
X125125819Y-57566447D01*
X125125819Y-57756923D01*
X125087723Y-57833114D01*
X125049628Y-57871209D01*
X124973438Y-57909304D01*
X124782961Y-57909304D01*
X124706771Y-57871209D01*
X124668676Y-57833114D01*
X125392485Y-58214066D02*
X125430580Y-58175971D01*
X125506771Y-58061685D01*
X125544866Y-57985495D01*
X125582961Y-57871209D01*
X125621057Y-57680733D01*
X125621057Y-57528352D01*
X125582961Y-57337876D01*
X125544866Y-57223590D01*
X125506771Y-57147400D01*
X125430580Y-57033114D01*
X125392485Y-56995019D01*
X109297247Y-59121114D02*
X109259152Y-59159209D01*
X109144866Y-59197304D01*
X109068676Y-59197304D01*
X108954390Y-59159209D01*
X108878200Y-59083019D01*
X108840104Y-59006828D01*
X108802009Y-58854447D01*
X108802009Y-58740161D01*
X108840104Y-58587780D01*
X108878200Y-58511590D01*
X108954390Y-58435400D01*
X109068676Y-58397304D01*
X109144866Y-58397304D01*
X109259152Y-58435400D01*
X109297247Y-58473495D01*
X109602009Y-58968733D02*
X109982961Y-58968733D01*
X109525819Y-59197304D02*
X109792485Y-58397304D01*
X110059152Y-59197304D01*
X110325819Y-59197304D02*
X110325819Y-58397304D01*
X110782961Y-59197304D01*
X110782961Y-58397304D01*
X111163914Y-59197304D02*
X111163914Y-58397304D01*
X111163914Y-58778257D02*
X111621057Y-58778257D01*
X111621057Y-59197304D02*
X111621057Y-58397304D01*
X112611533Y-58892542D02*
X113221057Y-58892542D01*
X114173438Y-59159209D02*
X114287723Y-59197304D01*
X114478200Y-59197304D01*
X114554390Y-59159209D01*
X114592485Y-59121114D01*
X114630580Y-59044923D01*
X114630580Y-58968733D01*
X114592485Y-58892542D01*
X114554390Y-58854447D01*
X114478200Y-58816352D01*
X114325819Y-58778257D01*
X114249628Y-58740161D01*
X114211533Y-58702066D01*
X114173438Y-58625876D01*
X114173438Y-58549685D01*
X114211533Y-58473495D01*
X114249628Y-58435400D01*
X114325819Y-58397304D01*
X114516295Y-58397304D01*
X114630580Y-58435400D01*
X115240104Y-58778257D02*
X115354390Y-58816352D01*
X115392485Y-58854447D01*
X115430580Y-58930638D01*
X115430580Y-59044923D01*
X115392485Y-59121114D01*
X115354390Y-59159209D01*
X115278200Y-59197304D01*
X114973438Y-59197304D01*
X114973438Y-58397304D01*
X115240104Y-58397304D01*
X115316295Y-58435400D01*
X115354390Y-58473495D01*
X115392485Y-58549685D01*
X115392485Y-58625876D01*
X115354390Y-58702066D01*
X115316295Y-58740161D01*
X115240104Y-58778257D01*
X114973438Y-58778257D01*
X115773438Y-58397304D02*
X115773438Y-59044923D01*
X115811533Y-59121114D01*
X115849628Y-59159209D01*
X115925819Y-59197304D01*
X116078200Y-59197304D01*
X116154390Y-59159209D01*
X116192485Y-59121114D01*
X116230580Y-59044923D01*
X116230580Y-58397304D01*
X117030580Y-59197304D02*
X116573438Y-59197304D01*
X116802009Y-59197304D02*
X116802009Y-58397304D01*
X116725819Y-58511590D01*
X116649628Y-58587780D01*
X116573438Y-58625876D01*
X117944866Y-58359209D02*
X117259152Y-59387780D01*
X118173438Y-59159209D02*
X118287723Y-59197304D01*
X118478200Y-59197304D01*
X118554390Y-59159209D01*
X118592485Y-59121114D01*
X118630580Y-59044923D01*
X118630580Y-58968733D01*
X118592485Y-58892542D01*
X118554390Y-58854447D01*
X118478200Y-58816352D01*
X118325819Y-58778257D01*
X118249628Y-58740161D01*
X118211533Y-58702066D01*
X118173438Y-58625876D01*
X118173438Y-58549685D01*
X118211533Y-58473495D01*
X118249628Y-58435400D01*
X118325819Y-58397304D01*
X118516295Y-58397304D01*
X118630580Y-58435400D01*
X119240104Y-58778257D02*
X119354390Y-58816352D01*
X119392485Y-58854447D01*
X119430580Y-58930638D01*
X119430580Y-59044923D01*
X119392485Y-59121114D01*
X119354390Y-59159209D01*
X119278200Y-59197304D01*
X118973438Y-59197304D01*
X118973438Y-58397304D01*
X119240104Y-58397304D01*
X119316295Y-58435400D01*
X119354390Y-58473495D01*
X119392485Y-58549685D01*
X119392485Y-58625876D01*
X119354390Y-58702066D01*
X119316295Y-58740161D01*
X119240104Y-58778257D01*
X118973438Y-58778257D01*
X119773438Y-58397304D02*
X119773438Y-59044923D01*
X119811533Y-59121114D01*
X119849628Y-59159209D01*
X119925819Y-59197304D01*
X120078200Y-59197304D01*
X120154390Y-59159209D01*
X120192485Y-59121114D01*
X120230580Y-59044923D01*
X120230580Y-58397304D01*
X120573438Y-58473495D02*
X120611533Y-58435400D01*
X120687723Y-58397304D01*
X120878200Y-58397304D01*
X120954390Y-58435400D01*
X120992485Y-58473495D01*
X121030580Y-58549685D01*
X121030580Y-58625876D01*
X120992485Y-58740161D01*
X120535342Y-59197304D01*
X121030580Y-59197304D01*
X122211533Y-59502066D02*
X122173438Y-59463971D01*
X122097247Y-59349685D01*
X122059152Y-59273495D01*
X122021057Y-59159209D01*
X121982961Y-58968733D01*
X121982961Y-58816352D01*
X122021057Y-58625876D01*
X122059152Y-58511590D01*
X122097247Y-58435400D01*
X122173438Y-58321114D01*
X122211533Y-58283019D01*
X122478200Y-58968733D02*
X122859152Y-58968733D01*
X122402009Y-59197304D02*
X122668676Y-58397304D01*
X122935342Y-59197304D01*
X123316295Y-58740161D02*
X123240104Y-58702066D01*
X123202009Y-58663971D01*
X123163914Y-58587780D01*
X123163914Y-58549685D01*
X123202009Y-58473495D01*
X123240104Y-58435400D01*
X123316295Y-58397304D01*
X123468676Y-58397304D01*
X123544866Y-58435400D01*
X123582961Y-58473495D01*
X123621057Y-58549685D01*
X123621057Y-58587780D01*
X123582961Y-58663971D01*
X123544866Y-58702066D01*
X123468676Y-58740161D01*
X123316295Y-58740161D01*
X123240104Y-58778257D01*
X123202009Y-58816352D01*
X123163914Y-58892542D01*
X123163914Y-59044923D01*
X123202009Y-59121114D01*
X123240104Y-59159209D01*
X123316295Y-59197304D01*
X123468676Y-59197304D01*
X123544866Y-59159209D01*
X123582961Y-59121114D01*
X123621057Y-59044923D01*
X123621057Y-58892542D01*
X123582961Y-58816352D01*
X123544866Y-58778257D01*
X123468676Y-58740161D01*
X124535342Y-58359209D02*
X123849628Y-59387780D01*
X125068676Y-58778257D02*
X125182961Y-58816352D01*
X125221057Y-58854447D01*
X125259152Y-58930638D01*
X125259152Y-59044923D01*
X125221057Y-59121114D01*
X125182961Y-59159209D01*
X125106771Y-59197304D01*
X124802009Y-59197304D01*
X124802009Y-58397304D01*
X125068676Y-58397304D01*
X125144866Y-58435400D01*
X125182961Y-58473495D01*
X125221057Y-58549685D01*
X125221057Y-58625876D01*
X125182961Y-58702066D01*
X125144866Y-58740161D01*
X125068676Y-58778257D01*
X124802009Y-58778257D01*
X125716295Y-58740161D02*
X125640104Y-58702066D01*
X125602009Y-58663971D01*
X125563914Y-58587780D01*
X125563914Y-58549685D01*
X125602009Y-58473495D01*
X125640104Y-58435400D01*
X125716295Y-58397304D01*
X125868676Y-58397304D01*
X125944866Y-58435400D01*
X125982961Y-58473495D01*
X126021057Y-58549685D01*
X126021057Y-58587780D01*
X125982961Y-58663971D01*
X125944866Y-58702066D01*
X125868676Y-58740161D01*
X125716295Y-58740161D01*
X125640104Y-58778257D01*
X125602009Y-58816352D01*
X125563914Y-58892542D01*
X125563914Y-59044923D01*
X125602009Y-59121114D01*
X125640104Y-59159209D01*
X125716295Y-59197304D01*
X125868676Y-59197304D01*
X125944866Y-59159209D01*
X125982961Y-59121114D01*
X126021057Y-59044923D01*
X126021057Y-58892542D01*
X125982961Y-58816352D01*
X125944866Y-58778257D01*
X125868676Y-58740161D01*
X126287723Y-59502066D02*
X126325819Y-59463971D01*
X126402009Y-59349685D01*
X126440104Y-59273495D01*
X126478200Y-59159209D01*
X126516295Y-58968733D01*
X126516295Y-58816352D01*
X126478200Y-58625876D01*
X126440104Y-58511590D01*
X126402009Y-58435400D01*
X126325819Y-58321114D01*
X126287723Y-58283019D01*
X76310176Y-101243809D02*
X76453033Y-101281904D01*
X76691128Y-101281904D01*
X76786366Y-101243809D01*
X76833985Y-101205714D01*
X76881604Y-101129523D01*
X76881604Y-101053333D01*
X76833985Y-100977142D01*
X76786366Y-100939047D01*
X76691128Y-100900952D01*
X76500652Y-100862857D01*
X76405414Y-100824761D01*
X76357795Y-100786666D01*
X76310176Y-100710476D01*
X76310176Y-100634285D01*
X76357795Y-100558095D01*
X76405414Y-100520000D01*
X76500652Y-100481904D01*
X76738747Y-100481904D01*
X76881604Y-100520000D01*
X77214938Y-100481904D02*
X77453033Y-101281904D01*
X77643509Y-100710476D01*
X77833985Y-101281904D01*
X78072080Y-100481904D01*
X79024461Y-101205714D02*
X78976842Y-101243809D01*
X78833985Y-101281904D01*
X78738747Y-101281904D01*
X78595890Y-101243809D01*
X78500652Y-101167619D01*
X78453033Y-101091428D01*
X78405414Y-100939047D01*
X78405414Y-100824761D01*
X78453033Y-100672380D01*
X78500652Y-100596190D01*
X78595890Y-100520000D01*
X78738747Y-100481904D01*
X78833985Y-100481904D01*
X78976842Y-100520000D01*
X79024461Y-100558095D01*
X79929223Y-101281904D02*
X79453033Y-101281904D01*
X79453033Y-100481904D01*
X80262557Y-101281904D02*
X80262557Y-100481904D01*
X80833985Y-101281904D02*
X80405414Y-100824761D01*
X80833985Y-100481904D02*
X80262557Y-100939047D01*
X76310176Y-102531809D02*
X76453033Y-102569904D01*
X76691128Y-102569904D01*
X76786366Y-102531809D01*
X76833985Y-102493714D01*
X76881604Y-102417523D01*
X76881604Y-102341333D01*
X76833985Y-102265142D01*
X76786366Y-102227047D01*
X76691128Y-102188952D01*
X76500652Y-102150857D01*
X76405414Y-102112761D01*
X76357795Y-102074666D01*
X76310176Y-101998476D01*
X76310176Y-101922285D01*
X76357795Y-101846095D01*
X76405414Y-101808000D01*
X76500652Y-101769904D01*
X76738747Y-101769904D01*
X76881604Y-101808000D01*
X77214938Y-101769904D02*
X77453033Y-102569904D01*
X77643509Y-101998476D01*
X77833985Y-102569904D01*
X78072080Y-101769904D01*
X78453033Y-102569904D02*
X78453033Y-101769904D01*
X78691128Y-101769904D01*
X78833985Y-101808000D01*
X78929223Y-101884190D01*
X78976842Y-101960380D01*
X79024461Y-102112761D01*
X79024461Y-102227047D01*
X78976842Y-102379428D01*
X78929223Y-102455619D01*
X78833985Y-102531809D01*
X78691128Y-102569904D01*
X78453033Y-102569904D01*
X79453033Y-102569904D02*
X79453033Y-101769904D01*
X80119700Y-101769904D02*
X80310176Y-101769904D01*
X80405414Y-101808000D01*
X80500652Y-101884190D01*
X80548271Y-102036571D01*
X80548271Y-102303238D01*
X80500652Y-102455619D01*
X80405414Y-102531809D01*
X80310176Y-102569904D01*
X80119700Y-102569904D01*
X80024461Y-102531809D01*
X79929223Y-102455619D01*
X79881604Y-102303238D01*
X79881604Y-102036571D01*
X79929223Y-101884190D01*
X80024461Y-101808000D01*
X80119700Y-101769904D01*
X76881604Y-103096000D02*
X76786366Y-103057904D01*
X76643509Y-103057904D01*
X76500652Y-103096000D01*
X76405414Y-103172190D01*
X76357795Y-103248380D01*
X76310176Y-103400761D01*
X76310176Y-103515047D01*
X76357795Y-103667428D01*
X76405414Y-103743619D01*
X76500652Y-103819809D01*
X76643509Y-103857904D01*
X76738747Y-103857904D01*
X76881604Y-103819809D01*
X76929223Y-103781714D01*
X76929223Y-103515047D01*
X76738747Y-103515047D01*
X77357795Y-103857904D02*
X77357795Y-103057904D01*
X77929223Y-103857904D01*
X77929223Y-103057904D01*
X78405414Y-103857904D02*
X78405414Y-103057904D01*
X78643509Y-103057904D01*
X78786366Y-103096000D01*
X78881604Y-103172190D01*
X78929223Y-103248380D01*
X78976842Y-103400761D01*
X78976842Y-103515047D01*
X78929223Y-103667428D01*
X78881604Y-103743619D01*
X78786366Y-103819809D01*
X78643509Y-103857904D01*
X78405414Y-103857904D01*
X76262557Y-104345904D02*
X76881604Y-104345904D01*
X76548271Y-104650666D01*
X76691128Y-104650666D01*
X76786366Y-104688761D01*
X76833985Y-104726857D01*
X76881604Y-104803047D01*
X76881604Y-104993523D01*
X76833985Y-105069714D01*
X76786366Y-105107809D01*
X76691128Y-105145904D01*
X76405414Y-105145904D01*
X76310176Y-105107809D01*
X76262557Y-105069714D01*
X77167319Y-104345904D02*
X77500652Y-105145904D01*
X77833985Y-104345904D01*
X78072080Y-104345904D02*
X78691128Y-104345904D01*
X78357795Y-104650666D01*
X78500652Y-104650666D01*
X78595890Y-104688761D01*
X78643509Y-104726857D01*
X78691128Y-104803047D01*
X78691128Y-104993523D01*
X78643509Y-105069714D01*
X78595890Y-105107809D01*
X78500652Y-105145904D01*
X78214938Y-105145904D01*
X78119700Y-105107809D01*
X78072080Y-105069714D01*
X76691128Y-106014857D02*
X76833985Y-106052952D01*
X76881604Y-106091047D01*
X76929223Y-106167238D01*
X76929223Y-106281523D01*
X76881604Y-106357714D01*
X76833985Y-106395809D01*
X76738747Y-106433904D01*
X76357795Y-106433904D01*
X76357795Y-105633904D01*
X76691128Y-105633904D01*
X76786366Y-105672000D01*
X76833985Y-105710095D01*
X76881604Y-105786285D01*
X76881604Y-105862476D01*
X76833985Y-105938666D01*
X76786366Y-105976761D01*
X76691128Y-106014857D01*
X76357795Y-106014857D01*
X77548271Y-105633904D02*
X77738747Y-105633904D01*
X77833985Y-105672000D01*
X77929223Y-105748190D01*
X77976842Y-105900571D01*
X77976842Y-106167238D01*
X77929223Y-106319619D01*
X77833985Y-106395809D01*
X77738747Y-106433904D01*
X77548271Y-106433904D01*
X77453033Y-106395809D01*
X77357795Y-106319619D01*
X77310176Y-106167238D01*
X77310176Y-105900571D01*
X77357795Y-105748190D01*
X77453033Y-105672000D01*
X77548271Y-105633904D01*
X78595890Y-105633904D02*
X78786366Y-105633904D01*
X78881604Y-105672000D01*
X78976842Y-105748190D01*
X79024461Y-105900571D01*
X79024461Y-106167238D01*
X78976842Y-106319619D01*
X78881604Y-106395809D01*
X78786366Y-106433904D01*
X78595890Y-106433904D01*
X78500652Y-106395809D01*
X78405414Y-106319619D01*
X78357795Y-106167238D01*
X78357795Y-105900571D01*
X78405414Y-105748190D01*
X78500652Y-105672000D01*
X78595890Y-105633904D01*
X79310176Y-105633904D02*
X79881604Y-105633904D01*
X79595890Y-106433904D02*
X79595890Y-105633904D01*
X80405414Y-105633904D02*
X80500652Y-105633904D01*
X80595890Y-105672000D01*
X80643509Y-105710095D01*
X80691128Y-105786285D01*
X80738747Y-105938666D01*
X80738747Y-106129142D01*
X80691128Y-106281523D01*
X80643509Y-106357714D01*
X80595890Y-106395809D01*
X80500652Y-106433904D01*
X80405414Y-106433904D01*
X80310176Y-106395809D01*
X80262557Y-106357714D01*
X80214938Y-106281523D01*
X80167319Y-106129142D01*
X80167319Y-105938666D01*
X80214938Y-105786285D01*
X80262557Y-105710095D01*
X80310176Y-105672000D01*
X80405414Y-105633904D01*
X76357795Y-107721904D02*
X76357795Y-106921904D01*
X76929223Y-107721904D01*
X76929223Y-106921904D01*
X77976842Y-107721904D02*
X77643509Y-107340952D01*
X77405414Y-107721904D02*
X77405414Y-106921904D01*
X77786366Y-106921904D01*
X77881604Y-106960000D01*
X77929223Y-106998095D01*
X77976842Y-107074285D01*
X77976842Y-107188571D01*
X77929223Y-107264761D01*
X77881604Y-107302857D01*
X77786366Y-107340952D01*
X77405414Y-107340952D01*
X78357795Y-107683809D02*
X78500652Y-107721904D01*
X78738747Y-107721904D01*
X78833985Y-107683809D01*
X78881604Y-107645714D01*
X78929223Y-107569523D01*
X78929223Y-107493333D01*
X78881604Y-107417142D01*
X78833985Y-107379047D01*
X78738747Y-107340952D01*
X78548271Y-107302857D01*
X78453033Y-107264761D01*
X78405414Y-107226666D01*
X78357795Y-107150476D01*
X78357795Y-107074285D01*
X78405414Y-106998095D01*
X78453033Y-106960000D01*
X78548271Y-106921904D01*
X78786366Y-106921904D01*
X78929223Y-106960000D01*
X79214938Y-106921904D02*
X79786366Y-106921904D01*
X79500652Y-107721904D02*
X79500652Y-106921904D01*
D10*
X134741019Y-77136761D02*
X135979114Y-77136761D01*
X135312447Y-77898666D01*
X135598161Y-77898666D01*
X135788638Y-77993904D01*
X135883876Y-78089142D01*
X135979114Y-78279619D01*
X135979114Y-78755809D01*
X135883876Y-78946285D01*
X135788638Y-79041523D01*
X135598161Y-79136761D01*
X135026733Y-79136761D01*
X134836257Y-79041523D01*
X134741019Y-78946285D01*
X136836257Y-78946285D02*
X136931495Y-79041523D01*
X136836257Y-79136761D01*
X136741019Y-79041523D01*
X136836257Y-78946285D01*
X136836257Y-79136761D01*
X137598161Y-77136761D02*
X138836257Y-77136761D01*
X138169590Y-77898666D01*
X138455304Y-77898666D01*
X138645780Y-77993904D01*
X138741019Y-78089142D01*
X138836257Y-78279619D01*
X138836257Y-78755809D01*
X138741019Y-78946285D01*
X138645780Y-79041523D01*
X138455304Y-79136761D01*
X137883876Y-79136761D01*
X137693400Y-79041523D01*
X137598161Y-78946285D01*
X139407685Y-77136761D02*
X140074352Y-79136761D01*
X140741019Y-77136761D01*
X129876609Y-67464952D02*
X128686133Y-67464952D01*
X128567085Y-68655428D01*
X128686133Y-68536380D01*
X128924228Y-68417333D01*
X129519466Y-68417333D01*
X129757561Y-68536380D01*
X129876609Y-68655428D01*
X129995657Y-68893523D01*
X129995657Y-69488761D01*
X129876609Y-69726857D01*
X129757561Y-69845904D01*
X129519466Y-69964952D01*
X128924228Y-69964952D01*
X128686133Y-69845904D01*
X128567085Y-69726857D01*
X130709942Y-67464952D02*
X131543276Y-69964952D01*
X132376609Y-67464952D01*
X137830085Y-92014800D02*
X137639609Y-91919561D01*
X137353895Y-91919561D01*
X137068180Y-92014800D01*
X136877704Y-92205276D01*
X136782466Y-92395752D01*
X136687228Y-92776704D01*
X136687228Y-93062419D01*
X136782466Y-93443371D01*
X136877704Y-93633847D01*
X137068180Y-93824323D01*
X137353895Y-93919561D01*
X137544371Y-93919561D01*
X137830085Y-93824323D01*
X137925323Y-93729085D01*
X137925323Y-93062419D01*
X137544371Y-93062419D01*
X138782466Y-92586228D02*
X138782466Y-93919561D01*
X138782466Y-92776704D02*
X138877704Y-92681466D01*
X139068180Y-92586228D01*
X139353895Y-92586228D01*
X139544371Y-92681466D01*
X139639609Y-92871942D01*
X139639609Y-93919561D01*
X141449133Y-93919561D02*
X141449133Y-91919561D01*
X141449133Y-93824323D02*
X141258657Y-93919561D01*
X140877704Y-93919561D01*
X140687228Y-93824323D01*
X140591990Y-93729085D01*
X140496752Y-93538609D01*
X140496752Y-92967180D01*
X140591990Y-92776704D01*
X140687228Y-92681466D01*
X140877704Y-92586228D01*
X141258657Y-92586228D01*
X141449133Y-92681466D01*
D11*
%TO.C,J37*%
X111585476Y-55586380D02*
X111585476Y-56300666D01*
X111537857Y-56443523D01*
X111442619Y-56538761D01*
X111299761Y-56586380D01*
X111204523Y-56586380D01*
X111966428Y-55586380D02*
X112585476Y-55586380D01*
X112252142Y-55967333D01*
X112395000Y-55967333D01*
X112490238Y-56014952D01*
X112537857Y-56062571D01*
X112585476Y-56157809D01*
X112585476Y-56395904D01*
X112537857Y-56491142D01*
X112490238Y-56538761D01*
X112395000Y-56586380D01*
X112109285Y-56586380D01*
X112014047Y-56538761D01*
X111966428Y-56491142D01*
X112918809Y-55586380D02*
X113585476Y-55586380D01*
X113156904Y-56586380D01*
%TO.C,R18*%
X130979942Y-103939580D02*
X130646609Y-103463390D01*
X130408514Y-103939580D02*
X130408514Y-102939580D01*
X130789466Y-102939580D01*
X130884704Y-102987200D01*
X130932323Y-103034819D01*
X130979942Y-103130057D01*
X130979942Y-103272914D01*
X130932323Y-103368152D01*
X130884704Y-103415771D01*
X130789466Y-103463390D01*
X130408514Y-103463390D01*
X131932323Y-103939580D02*
X131360895Y-103939580D01*
X131646609Y-103939580D02*
X131646609Y-102939580D01*
X131551371Y-103082438D01*
X131456133Y-103177676D01*
X131360895Y-103225295D01*
X132503752Y-103368152D02*
X132408514Y-103320533D01*
X132360895Y-103272914D01*
X132313276Y-103177676D01*
X132313276Y-103130057D01*
X132360895Y-103034819D01*
X132408514Y-102987200D01*
X132503752Y-102939580D01*
X132694228Y-102939580D01*
X132789466Y-102987200D01*
X132837085Y-103034819D01*
X132884704Y-103130057D01*
X132884704Y-103177676D01*
X132837085Y-103272914D01*
X132789466Y-103320533D01*
X132694228Y-103368152D01*
X132503752Y-103368152D01*
X132408514Y-103415771D01*
X132360895Y-103463390D01*
X132313276Y-103558628D01*
X132313276Y-103749104D01*
X132360895Y-103844342D01*
X132408514Y-103891961D01*
X132503752Y-103939580D01*
X132694228Y-103939580D01*
X132789466Y-103891961D01*
X132837085Y-103844342D01*
X132884704Y-103749104D01*
X132884704Y-103558628D01*
X132837085Y-103463390D01*
X132789466Y-103415771D01*
X132694228Y-103368152D01*
%TO.C,R17*%
X130979942Y-99174580D02*
X130646609Y-98698390D01*
X130408514Y-99174580D02*
X130408514Y-98174580D01*
X130789466Y-98174580D01*
X130884704Y-98222200D01*
X130932323Y-98269819D01*
X130979942Y-98365057D01*
X130979942Y-98507914D01*
X130932323Y-98603152D01*
X130884704Y-98650771D01*
X130789466Y-98698390D01*
X130408514Y-98698390D01*
X131932323Y-99174580D02*
X131360895Y-99174580D01*
X131646609Y-99174580D02*
X131646609Y-98174580D01*
X131551371Y-98317438D01*
X131456133Y-98412676D01*
X131360895Y-98460295D01*
X132265657Y-98174580D02*
X132932323Y-98174580D01*
X132503752Y-99174580D01*
%TO.C,R16*%
X111594142Y-117971780D02*
X111260809Y-117495590D01*
X111022714Y-117971780D02*
X111022714Y-116971780D01*
X111403666Y-116971780D01*
X111498904Y-117019400D01*
X111546523Y-117067019D01*
X111594142Y-117162257D01*
X111594142Y-117305114D01*
X111546523Y-117400352D01*
X111498904Y-117447971D01*
X111403666Y-117495590D01*
X111022714Y-117495590D01*
X112546523Y-117971780D02*
X111975095Y-117971780D01*
X112260809Y-117971780D02*
X112260809Y-116971780D01*
X112165571Y-117114638D01*
X112070333Y-117209876D01*
X111975095Y-117257495D01*
X113403666Y-116971780D02*
X113213190Y-116971780D01*
X113117952Y-117019400D01*
X113070333Y-117067019D01*
X112975095Y-117209876D01*
X112927476Y-117400352D01*
X112927476Y-117781304D01*
X112975095Y-117876542D01*
X113022714Y-117924161D01*
X113117952Y-117971780D01*
X113308428Y-117971780D01*
X113403666Y-117924161D01*
X113451285Y-117876542D01*
X113498904Y-117781304D01*
X113498904Y-117543209D01*
X113451285Y-117447971D01*
X113403666Y-117400352D01*
X113308428Y-117352733D01*
X113117952Y-117352733D01*
X113022714Y-117400352D01*
X112975095Y-117447971D01*
X112927476Y-117543209D01*
%TO.C,R15*%
X108368342Y-114738380D02*
X108035009Y-114262190D01*
X107796914Y-114738380D02*
X107796914Y-113738380D01*
X108177866Y-113738380D01*
X108273104Y-113786000D01*
X108320723Y-113833619D01*
X108368342Y-113928857D01*
X108368342Y-114071714D01*
X108320723Y-114166952D01*
X108273104Y-114214571D01*
X108177866Y-114262190D01*
X107796914Y-114262190D01*
X109320723Y-114738380D02*
X108749295Y-114738380D01*
X109035009Y-114738380D02*
X109035009Y-113738380D01*
X108939771Y-113881238D01*
X108844533Y-113976476D01*
X108749295Y-114024095D01*
X110225485Y-113738380D02*
X109749295Y-113738380D01*
X109701676Y-114214571D01*
X109749295Y-114166952D01*
X109844533Y-114119333D01*
X110082628Y-114119333D01*
X110177866Y-114166952D01*
X110225485Y-114214571D01*
X110273104Y-114309809D01*
X110273104Y-114547904D01*
X110225485Y-114643142D01*
X110177866Y-114690761D01*
X110082628Y-114738380D01*
X109844533Y-114738380D01*
X109749295Y-114690761D01*
X109701676Y-114643142D01*
%TO.C,R14*%
X100313942Y-122871380D02*
X99980609Y-122395190D01*
X99742514Y-122871380D02*
X99742514Y-121871380D01*
X100123466Y-121871380D01*
X100218704Y-121919000D01*
X100266323Y-121966619D01*
X100313942Y-122061857D01*
X100313942Y-122204714D01*
X100266323Y-122299952D01*
X100218704Y-122347571D01*
X100123466Y-122395190D01*
X99742514Y-122395190D01*
X101266323Y-122871380D02*
X100694895Y-122871380D01*
X100980609Y-122871380D02*
X100980609Y-121871380D01*
X100885371Y-122014238D01*
X100790133Y-122109476D01*
X100694895Y-122157095D01*
X102123466Y-122204714D02*
X102123466Y-122871380D01*
X101885371Y-121823761D02*
X101647276Y-122538047D01*
X102266323Y-122538047D01*
%TO.C,R13*%
X97037342Y-119561780D02*
X96704009Y-119085590D01*
X96465914Y-119561780D02*
X96465914Y-118561780D01*
X96846866Y-118561780D01*
X96942104Y-118609400D01*
X96989723Y-118657019D01*
X97037342Y-118752257D01*
X97037342Y-118895114D01*
X96989723Y-118990352D01*
X96942104Y-119037971D01*
X96846866Y-119085590D01*
X96465914Y-119085590D01*
X97989723Y-119561780D02*
X97418295Y-119561780D01*
X97704009Y-119561780D02*
X97704009Y-118561780D01*
X97608771Y-118704638D01*
X97513533Y-118799876D01*
X97418295Y-118847495D01*
X98323057Y-118561780D02*
X98942104Y-118561780D01*
X98608771Y-118942733D01*
X98751628Y-118942733D01*
X98846866Y-118990352D01*
X98894485Y-119037971D01*
X98942104Y-119133209D01*
X98942104Y-119371304D01*
X98894485Y-119466542D01*
X98846866Y-119514161D01*
X98751628Y-119561780D01*
X98465914Y-119561780D01*
X98370676Y-119514161D01*
X98323057Y-119466542D01*
%TO.C,Q4*%
X137013961Y-104281219D02*
X136918723Y-104233600D01*
X136823485Y-104138361D01*
X136680628Y-103995504D01*
X136585390Y-103947885D01*
X136490152Y-103947885D01*
X136537771Y-104185980D02*
X136442533Y-104138361D01*
X136347295Y-104043123D01*
X136299676Y-103852647D01*
X136299676Y-103519314D01*
X136347295Y-103328838D01*
X136442533Y-103233600D01*
X136537771Y-103185980D01*
X136728247Y-103185980D01*
X136823485Y-103233600D01*
X136918723Y-103328838D01*
X136966342Y-103519314D01*
X136966342Y-103852647D01*
X136918723Y-104043123D01*
X136823485Y-104138361D01*
X136728247Y-104185980D01*
X136537771Y-104185980D01*
X137823485Y-103519314D02*
X137823485Y-104185980D01*
X137585390Y-103138361D02*
X137347295Y-103852647D01*
X137966342Y-103852647D01*
%TO.C,Q3*%
X116408961Y-118211819D02*
X116313723Y-118164200D01*
X116218485Y-118068961D01*
X116075628Y-117926104D01*
X115980390Y-117878485D01*
X115885152Y-117878485D01*
X115932771Y-118116580D02*
X115837533Y-118068961D01*
X115742295Y-117973723D01*
X115694676Y-117783247D01*
X115694676Y-117449914D01*
X115742295Y-117259438D01*
X115837533Y-117164200D01*
X115932771Y-117116580D01*
X116123247Y-117116580D01*
X116218485Y-117164200D01*
X116313723Y-117259438D01*
X116361342Y-117449914D01*
X116361342Y-117783247D01*
X116313723Y-117973723D01*
X116218485Y-118068961D01*
X116123247Y-118116580D01*
X115932771Y-118116580D01*
X116694676Y-117116580D02*
X117313723Y-117116580D01*
X116980390Y-117497533D01*
X117123247Y-117497533D01*
X117218485Y-117545152D01*
X117266104Y-117592771D01*
X117313723Y-117688009D01*
X117313723Y-117926104D01*
X117266104Y-118021342D01*
X117218485Y-118068961D01*
X117123247Y-118116580D01*
X116837533Y-118116580D01*
X116742295Y-118068961D01*
X116694676Y-118021342D01*
%TO.C,Q2*%
X105585961Y-123238419D02*
X105490723Y-123190800D01*
X105395485Y-123095561D01*
X105252628Y-122952704D01*
X105157390Y-122905085D01*
X105062152Y-122905085D01*
X105109771Y-123143180D02*
X105014533Y-123095561D01*
X104919295Y-123000323D01*
X104871676Y-122809847D01*
X104871676Y-122476514D01*
X104919295Y-122286038D01*
X105014533Y-122190800D01*
X105109771Y-122143180D01*
X105300247Y-122143180D01*
X105395485Y-122190800D01*
X105490723Y-122286038D01*
X105538342Y-122476514D01*
X105538342Y-122809847D01*
X105490723Y-123000323D01*
X105395485Y-123095561D01*
X105300247Y-123143180D01*
X105109771Y-123143180D01*
X105919295Y-122238419D02*
X105966914Y-122190800D01*
X106062152Y-122143180D01*
X106300247Y-122143180D01*
X106395485Y-122190800D01*
X106443104Y-122238419D01*
X106490723Y-122333657D01*
X106490723Y-122428895D01*
X106443104Y-122571752D01*
X105871676Y-123143180D01*
X106490723Y-123143180D01*
%TO.C,J6*%
X105379780Y-63420428D02*
X104379780Y-63420428D01*
X105094066Y-63087095D01*
X104379780Y-62753761D01*
X105379780Y-62753761D01*
X104379780Y-62087095D02*
X104379780Y-61896619D01*
X104427400Y-61801380D01*
X104522638Y-61706142D01*
X104713114Y-61658523D01*
X105046447Y-61658523D01*
X105236923Y-61706142D01*
X105332161Y-61801380D01*
X105379780Y-61896619D01*
X105379780Y-62087095D01*
X105332161Y-62182333D01*
X105236923Y-62277571D01*
X105046447Y-62325190D01*
X104713114Y-62325190D01*
X104522638Y-62277571D01*
X104427400Y-62182333D01*
X104379780Y-62087095D01*
X105332161Y-61277571D02*
X105379780Y-61134714D01*
X105379780Y-60896619D01*
X105332161Y-60801380D01*
X105284542Y-60753761D01*
X105189304Y-60706142D01*
X105094066Y-60706142D01*
X104998828Y-60753761D01*
X104951209Y-60801380D01*
X104903590Y-60896619D01*
X104855971Y-61087095D01*
X104808352Y-61182333D01*
X104760733Y-61229952D01*
X104665495Y-61277571D01*
X104570257Y-61277571D01*
X104475019Y-61229952D01*
X104427400Y-61182333D01*
X104379780Y-61087095D01*
X104379780Y-60849000D01*
X104427400Y-60706142D01*
X105379780Y-60277571D02*
X104379780Y-60277571D01*
%TO.C,U5*%
X117500495Y-62266580D02*
X117500495Y-63076104D01*
X117548114Y-63171342D01*
X117595733Y-63218961D01*
X117690971Y-63266580D01*
X117881447Y-63266580D01*
X117976685Y-63218961D01*
X118024304Y-63171342D01*
X118071923Y-63076104D01*
X118071923Y-62266580D01*
X119024304Y-62266580D02*
X118548114Y-62266580D01*
X118500495Y-62742771D01*
X118548114Y-62695152D01*
X118643352Y-62647533D01*
X118881447Y-62647533D01*
X118976685Y-62695152D01*
X119024304Y-62742771D01*
X119071923Y-62838009D01*
X119071923Y-63076104D01*
X119024304Y-63171342D01*
X118976685Y-63218961D01*
X118881447Y-63266580D01*
X118643352Y-63266580D01*
X118548114Y-63218961D01*
X118500495Y-63171342D01*
%TO.C,J3*%
X112466380Y-63442742D02*
X112466380Y-63918933D01*
X111466380Y-63918933D01*
X112466380Y-62680838D02*
X111466380Y-62680838D01*
X112418761Y-62680838D02*
X112466380Y-62776076D01*
X112466380Y-62966552D01*
X112418761Y-63061790D01*
X112371142Y-63109409D01*
X112275904Y-63157028D01*
X111990190Y-63157028D01*
X111894952Y-63109409D01*
X111847333Y-63061790D01*
X111799714Y-62966552D01*
X111799714Y-62776076D01*
X111847333Y-62680838D01*
X112418761Y-61823695D02*
X112466380Y-61918933D01*
X112466380Y-62109409D01*
X112418761Y-62204647D01*
X112323523Y-62252266D01*
X111942571Y-62252266D01*
X111847333Y-62204647D01*
X111799714Y-62109409D01*
X111799714Y-61918933D01*
X111847333Y-61823695D01*
X111942571Y-61776076D01*
X112037809Y-61776076D01*
X112133047Y-62252266D01*
X111799714Y-61490361D02*
X111799714Y-61109409D01*
X111466380Y-61347504D02*
X112323523Y-61347504D01*
X112418761Y-61299885D01*
X112466380Y-61204647D01*
X112466380Y-61109409D01*
%TO.C,J4*%
X110129580Y-63490266D02*
X109129580Y-63490266D01*
X109129580Y-63109314D01*
X109177200Y-63014076D01*
X109224819Y-62966457D01*
X109320057Y-62918838D01*
X109462914Y-62918838D01*
X109558152Y-62966457D01*
X109605771Y-63014076D01*
X109653390Y-63109314D01*
X109653390Y-63490266D01*
X109177200Y-61966457D02*
X109129580Y-62061695D01*
X109129580Y-62204552D01*
X109177200Y-62347409D01*
X109272438Y-62442647D01*
X109367676Y-62490266D01*
X109558152Y-62537885D01*
X109701009Y-62537885D01*
X109891485Y-62490266D01*
X109986723Y-62442647D01*
X110081961Y-62347409D01*
X110129580Y-62204552D01*
X110129580Y-62109314D01*
X110081961Y-61966457D01*
X110034342Y-61918838D01*
X109701009Y-61918838D01*
X109701009Y-62109314D01*
X109462914Y-61490266D02*
X110129580Y-61490266D01*
X109558152Y-61490266D02*
X109510533Y-61442647D01*
X109462914Y-61347409D01*
X109462914Y-61204552D01*
X109510533Y-61109314D01*
X109605771Y-61061695D01*
X110129580Y-61061695D01*
X110129580Y-60156933D02*
X109129580Y-60156933D01*
X110081961Y-60156933D02*
X110129580Y-60252171D01*
X110129580Y-60442647D01*
X110081961Y-60537885D01*
X110034342Y-60585504D01*
X109939104Y-60633123D01*
X109653390Y-60633123D01*
X109558152Y-60585504D01*
X109510533Y-60537885D01*
X109462914Y-60442647D01*
X109462914Y-60252171D01*
X109510533Y-60156933D01*
%TO.C,J8*%
X99964761Y-64245714D02*
X100012380Y-64102857D01*
X100012380Y-63864761D01*
X99964761Y-63769523D01*
X99917142Y-63721904D01*
X99821904Y-63674285D01*
X99726666Y-63674285D01*
X99631428Y-63721904D01*
X99583809Y-63769523D01*
X99536190Y-63864761D01*
X99488571Y-64055238D01*
X99440952Y-64150476D01*
X99393333Y-64198095D01*
X99298095Y-64245714D01*
X99202857Y-64245714D01*
X99107619Y-64198095D01*
X99060000Y-64150476D01*
X99012380Y-64055238D01*
X99012380Y-63817142D01*
X99060000Y-63674285D01*
X99917142Y-62674285D02*
X99964761Y-62721904D01*
X100012380Y-62864761D01*
X100012380Y-62960000D01*
X99964761Y-63102857D01*
X99869523Y-63198095D01*
X99774285Y-63245714D01*
X99583809Y-63293333D01*
X99440952Y-63293333D01*
X99250476Y-63245714D01*
X99155238Y-63198095D01*
X99060000Y-63102857D01*
X99012380Y-62960000D01*
X99012380Y-62864761D01*
X99060000Y-62721904D01*
X99107619Y-62674285D01*
X100012380Y-62245714D02*
X99012380Y-62245714D01*
X100012380Y-61674285D02*
X99440952Y-62102857D01*
X99012380Y-61674285D02*
X99583809Y-62245714D01*
%TO.C,D1*%
X82611904Y-72102380D02*
X82611904Y-71102380D01*
X82850000Y-71102380D01*
X82992857Y-71150000D01*
X83088095Y-71245238D01*
X83135714Y-71340476D01*
X83183333Y-71530952D01*
X83183333Y-71673809D01*
X83135714Y-71864285D01*
X83088095Y-71959523D01*
X82992857Y-72054761D01*
X82850000Y-72102380D01*
X82611904Y-72102380D01*
X84135714Y-72102380D02*
X83564285Y-72102380D01*
X83850000Y-72102380D02*
X83850000Y-71102380D01*
X83754761Y-71245238D01*
X83659523Y-71340476D01*
X83564285Y-71388095D01*
%TO.C,U4*%
X94691295Y-60082180D02*
X94691295Y-60891704D01*
X94738914Y-60986942D01*
X94786533Y-61034561D01*
X94881771Y-61082180D01*
X95072247Y-61082180D01*
X95167485Y-61034561D01*
X95215104Y-60986942D01*
X95262723Y-60891704D01*
X95262723Y-60082180D01*
X96167485Y-60415514D02*
X96167485Y-61082180D01*
X95929390Y-60034561D02*
X95691295Y-60748847D01*
X96310342Y-60748847D01*
%TO.C,J9*%
X97785180Y-64442838D02*
X97785180Y-64919028D01*
X96785180Y-64919028D01*
X96832800Y-63585695D02*
X96785180Y-63680933D01*
X96785180Y-63823790D01*
X96832800Y-63966647D01*
X96928038Y-64061885D01*
X97023276Y-64109504D01*
X97213752Y-64157123D01*
X97356609Y-64157123D01*
X97547085Y-64109504D01*
X97642323Y-64061885D01*
X97737561Y-63966647D01*
X97785180Y-63823790D01*
X97785180Y-63728552D01*
X97737561Y-63585695D01*
X97689942Y-63538076D01*
X97356609Y-63538076D01*
X97356609Y-63728552D01*
X97118514Y-63109504D02*
X97785180Y-63109504D01*
X97213752Y-63109504D02*
X97166133Y-63061885D01*
X97118514Y-62966647D01*
X97118514Y-62823790D01*
X97166133Y-62728552D01*
X97261371Y-62680933D01*
X97785180Y-62680933D01*
X97785180Y-61776171D02*
X96785180Y-61776171D01*
X97737561Y-61776171D02*
X97785180Y-61871409D01*
X97785180Y-62061885D01*
X97737561Y-62157123D01*
X97689942Y-62204742D01*
X97594704Y-62252361D01*
X97308990Y-62252361D01*
X97213752Y-62204742D01*
X97166133Y-62157123D01*
X97118514Y-62061885D01*
X97118514Y-61871409D01*
X97166133Y-61776171D01*
%TO.C,R3*%
X86002380Y-67966666D02*
X85526190Y-68300000D01*
X86002380Y-68538095D02*
X85002380Y-68538095D01*
X85002380Y-68157142D01*
X85050000Y-68061904D01*
X85097619Y-68014285D01*
X85192857Y-67966666D01*
X85335714Y-67966666D01*
X85430952Y-68014285D01*
X85478571Y-68061904D01*
X85526190Y-68157142D01*
X85526190Y-68538095D01*
X85002380Y-67633333D02*
X85002380Y-67014285D01*
X85383333Y-67347619D01*
X85383333Y-67204761D01*
X85430952Y-67109523D01*
X85478571Y-67061904D01*
X85573809Y-67014285D01*
X85811904Y-67014285D01*
X85907142Y-67061904D01*
X85954761Y-67109523D01*
X86002380Y-67204761D01*
X86002380Y-67490476D01*
X85954761Y-67585714D01*
X85907142Y-67633333D01*
%TO.C,R12*%
X84357142Y-77802380D02*
X84023809Y-77326190D01*
X83785714Y-77802380D02*
X83785714Y-76802380D01*
X84166666Y-76802380D01*
X84261904Y-76850000D01*
X84309523Y-76897619D01*
X84357142Y-76992857D01*
X84357142Y-77135714D01*
X84309523Y-77230952D01*
X84261904Y-77278571D01*
X84166666Y-77326190D01*
X83785714Y-77326190D01*
X85309523Y-77802380D02*
X84738095Y-77802380D01*
X85023809Y-77802380D02*
X85023809Y-76802380D01*
X84928571Y-76945238D01*
X84833333Y-77040476D01*
X84738095Y-77088095D01*
X85690476Y-76897619D02*
X85738095Y-76850000D01*
X85833333Y-76802380D01*
X86071428Y-76802380D01*
X86166666Y-76850000D01*
X86214285Y-76897619D01*
X86261904Y-76992857D01*
X86261904Y-77088095D01*
X86214285Y-77230952D01*
X85642857Y-77802380D01*
X86261904Y-77802380D01*
%TO.C,J2*%
X114549180Y-64647676D02*
X113549180Y-64647676D01*
X113549180Y-64266723D01*
X113596800Y-64171485D01*
X113644419Y-64123866D01*
X113739657Y-64076247D01*
X113882514Y-64076247D01*
X113977752Y-64123866D01*
X114025371Y-64171485D01*
X114072990Y-64266723D01*
X114072990Y-64647676D01*
X113549180Y-63790533D02*
X114549180Y-63457200D01*
X113549180Y-63123866D01*
%TO.C,J7*%
X102103180Y-63445828D02*
X101103180Y-63445828D01*
X101817466Y-63112495D01*
X101103180Y-62779161D01*
X102103180Y-62779161D01*
X102103180Y-62302971D02*
X101103180Y-62302971D01*
X102055561Y-61874400D02*
X102103180Y-61731542D01*
X102103180Y-61493447D01*
X102055561Y-61398209D01*
X102007942Y-61350590D01*
X101912704Y-61302971D01*
X101817466Y-61302971D01*
X101722228Y-61350590D01*
X101674609Y-61398209D01*
X101626990Y-61493447D01*
X101579371Y-61683923D01*
X101531752Y-61779161D01*
X101484133Y-61826780D01*
X101388895Y-61874400D01*
X101293657Y-61874400D01*
X101198419Y-61826780D01*
X101150800Y-61779161D01*
X101103180Y-61683923D01*
X101103180Y-61445828D01*
X101150800Y-61302971D01*
X101103180Y-60683923D02*
X101103180Y-60493447D01*
X101150800Y-60398209D01*
X101246038Y-60302971D01*
X101436514Y-60255352D01*
X101769847Y-60255352D01*
X101960323Y-60302971D01*
X102055561Y-60398209D01*
X102103180Y-60493447D01*
X102103180Y-60683923D01*
X102055561Y-60779161D01*
X101960323Y-60874400D01*
X101769847Y-60922019D01*
X101436514Y-60922019D01*
X101246038Y-60874400D01*
X101150800Y-60779161D01*
X101103180Y-60683923D01*
%TO.C,R4*%
X87545514Y-67966666D02*
X87069324Y-68300000D01*
X87545514Y-68538095D02*
X86545514Y-68538095D01*
X86545514Y-68157142D01*
X86593134Y-68061904D01*
X86640753Y-68014285D01*
X86735991Y-67966666D01*
X86878848Y-67966666D01*
X86974086Y-68014285D01*
X87021705Y-68061904D01*
X87069324Y-68157142D01*
X87069324Y-68538095D01*
X86878848Y-67109523D02*
X87545514Y-67109523D01*
X86497895Y-67347619D02*
X87212181Y-67585714D01*
X87212181Y-66966666D01*
%TO.C,J5*%
X106725980Y-62603047D02*
X106725980Y-63079238D01*
X105725980Y-63079238D01*
X105725980Y-62412571D02*
X106725980Y-62079238D01*
X105725980Y-61745904D01*
%TO.C,R2*%
X90502380Y-67966666D02*
X90026190Y-68300000D01*
X90502380Y-68538095D02*
X89502380Y-68538095D01*
X89502380Y-68157142D01*
X89550000Y-68061904D01*
X89597619Y-68014285D01*
X89692857Y-67966666D01*
X89835714Y-67966666D01*
X89930952Y-68014285D01*
X89978571Y-68061904D01*
X90026190Y-68157142D01*
X90026190Y-68538095D01*
X89597619Y-67585714D02*
X89550000Y-67538095D01*
X89502380Y-67442857D01*
X89502380Y-67204761D01*
X89550000Y-67109523D01*
X89597619Y-67061904D01*
X89692857Y-67014285D01*
X89788095Y-67014285D01*
X89930952Y-67061904D01*
X90502380Y-67633333D01*
X90502380Y-67014285D01*
%TO.C,R5*%
X89102380Y-67966666D02*
X88626190Y-68300000D01*
X89102380Y-68538095D02*
X88102380Y-68538095D01*
X88102380Y-68157142D01*
X88150000Y-68061904D01*
X88197619Y-68014285D01*
X88292857Y-67966666D01*
X88435714Y-67966666D01*
X88530952Y-68014285D01*
X88578571Y-68061904D01*
X88626190Y-68157142D01*
X88626190Y-68538095D01*
X88102380Y-67061904D02*
X88102380Y-67538095D01*
X88578571Y-67585714D01*
X88530952Y-67538095D01*
X88483333Y-67442857D01*
X88483333Y-67204761D01*
X88530952Y-67109523D01*
X88578571Y-67061904D01*
X88673809Y-67014285D01*
X88911904Y-67014285D01*
X89007142Y-67061904D01*
X89054761Y-67109523D01*
X89102380Y-67204761D01*
X89102380Y-67442857D01*
X89054761Y-67538095D01*
X89007142Y-67585714D01*
%TO.C,R11*%
X97350342Y-54224180D02*
X97017009Y-53747990D01*
X96778914Y-54224180D02*
X96778914Y-53224180D01*
X97159866Y-53224180D01*
X97255104Y-53271800D01*
X97302723Y-53319419D01*
X97350342Y-53414657D01*
X97350342Y-53557514D01*
X97302723Y-53652752D01*
X97255104Y-53700371D01*
X97159866Y-53747990D01*
X96778914Y-53747990D01*
X98302723Y-54224180D02*
X97731295Y-54224180D01*
X98017009Y-54224180D02*
X98017009Y-53224180D01*
X97921771Y-53367038D01*
X97826533Y-53462276D01*
X97731295Y-53509895D01*
X99255104Y-54224180D02*
X98683676Y-54224180D01*
X98969390Y-54224180D02*
X98969390Y-53224180D01*
X98874152Y-53367038D01*
X98778914Y-53462276D01*
X98683676Y-53509895D01*
%TO.C,J1*%
X70431066Y-82796580D02*
X70431066Y-83510866D01*
X70383447Y-83653723D01*
X70288209Y-83748961D01*
X70145352Y-83796580D01*
X70050114Y-83796580D01*
X71431066Y-83796580D02*
X70859638Y-83796580D01*
X71145352Y-83796580D02*
X71145352Y-82796580D01*
X71050114Y-82939438D01*
X70954876Y-83034676D01*
X70859638Y-83082295D01*
%TO.C,R1*%
X71588333Y-97200980D02*
X71255000Y-96724790D01*
X71016904Y-97200980D02*
X71016904Y-96200980D01*
X71397857Y-96200980D01*
X71493095Y-96248600D01*
X71540714Y-96296219D01*
X71588333Y-96391457D01*
X71588333Y-96534314D01*
X71540714Y-96629552D01*
X71493095Y-96677171D01*
X71397857Y-96724790D01*
X71016904Y-96724790D01*
X72540714Y-97200980D02*
X71969285Y-97200980D01*
X72255000Y-97200980D02*
X72255000Y-96200980D01*
X72159761Y-96343838D01*
X72064523Y-96439076D01*
X71969285Y-96486695D01*
%TO.C,R6*%
X98369380Y-51525466D02*
X97893190Y-51858800D01*
X98369380Y-52096895D02*
X97369380Y-52096895D01*
X97369380Y-51715942D01*
X97417000Y-51620704D01*
X97464619Y-51573085D01*
X97559857Y-51525466D01*
X97702714Y-51525466D01*
X97797952Y-51573085D01*
X97845571Y-51620704D01*
X97893190Y-51715942D01*
X97893190Y-52096895D01*
X97369380Y-50668323D02*
X97369380Y-50858800D01*
X97417000Y-50954038D01*
X97464619Y-51001657D01*
X97607476Y-51096895D01*
X97797952Y-51144514D01*
X98178904Y-51144514D01*
X98274142Y-51096895D01*
X98321761Y-51049276D01*
X98369380Y-50954038D01*
X98369380Y-50763561D01*
X98321761Y-50668323D01*
X98274142Y-50620704D01*
X98178904Y-50573085D01*
X97940809Y-50573085D01*
X97845571Y-50620704D01*
X97797952Y-50668323D01*
X97750333Y-50763561D01*
X97750333Y-50954038D01*
X97797952Y-51049276D01*
X97845571Y-51096895D01*
X97940809Y-51144514D01*
%TO.C,C5*%
X71816933Y-80824342D02*
X71769314Y-80871961D01*
X71626457Y-80919580D01*
X71531219Y-80919580D01*
X71388361Y-80871961D01*
X71293123Y-80776723D01*
X71245504Y-80681485D01*
X71197885Y-80491009D01*
X71197885Y-80348152D01*
X71245504Y-80157676D01*
X71293123Y-80062438D01*
X71388361Y-79967200D01*
X71531219Y-79919580D01*
X71626457Y-79919580D01*
X71769314Y-79967200D01*
X71816933Y-80014819D01*
X72721695Y-79919580D02*
X72245504Y-79919580D01*
X72197885Y-80395771D01*
X72245504Y-80348152D01*
X72340742Y-80300533D01*
X72578838Y-80300533D01*
X72674076Y-80348152D01*
X72721695Y-80395771D01*
X72769314Y-80491009D01*
X72769314Y-80729104D01*
X72721695Y-80824342D01*
X72674076Y-80871961D01*
X72578838Y-80919580D01*
X72340742Y-80919580D01*
X72245504Y-80871961D01*
X72197885Y-80824342D01*
%TO.C,Q1*%
X76688961Y-77458819D02*
X76593723Y-77411200D01*
X76498485Y-77315961D01*
X76355628Y-77173104D01*
X76260390Y-77125485D01*
X76165152Y-77125485D01*
X76212771Y-77363580D02*
X76117533Y-77315961D01*
X76022295Y-77220723D01*
X75974676Y-77030247D01*
X75974676Y-76696914D01*
X76022295Y-76506438D01*
X76117533Y-76411200D01*
X76212771Y-76363580D01*
X76403247Y-76363580D01*
X76498485Y-76411200D01*
X76593723Y-76506438D01*
X76641342Y-76696914D01*
X76641342Y-77030247D01*
X76593723Y-77220723D01*
X76498485Y-77315961D01*
X76403247Y-77363580D01*
X76212771Y-77363580D01*
X77593723Y-77363580D02*
X77022295Y-77363580D01*
X77308009Y-77363580D02*
X77308009Y-76363580D01*
X77212771Y-76506438D01*
X77117533Y-76601676D01*
X77022295Y-76649295D01*
%TO.C,C1*%
X75880933Y-99671142D02*
X75833314Y-99718761D01*
X75690457Y-99766380D01*
X75595219Y-99766380D01*
X75452361Y-99718761D01*
X75357123Y-99623523D01*
X75309504Y-99528285D01*
X75261885Y-99337809D01*
X75261885Y-99194952D01*
X75309504Y-99004476D01*
X75357123Y-98909238D01*
X75452361Y-98814000D01*
X75595219Y-98766380D01*
X75690457Y-98766380D01*
X75833314Y-98814000D01*
X75880933Y-98861619D01*
X76833314Y-99766380D02*
X76261885Y-99766380D01*
X76547600Y-99766380D02*
X76547600Y-98766380D01*
X76452361Y-98909238D01*
X76357123Y-99004476D01*
X76261885Y-99052095D01*
%TO.C,R7*%
X106968633Y-59913780D02*
X106635300Y-59437590D01*
X106397204Y-59913780D02*
X106397204Y-58913780D01*
X106778157Y-58913780D01*
X106873395Y-58961400D01*
X106921014Y-59009019D01*
X106968633Y-59104257D01*
X106968633Y-59247114D01*
X106921014Y-59342352D01*
X106873395Y-59389971D01*
X106778157Y-59437590D01*
X106397204Y-59437590D01*
X107301966Y-58913780D02*
X107968633Y-58913780D01*
X107540061Y-59913780D01*
%TO.C,C8*%
X73239333Y-95581742D02*
X73191714Y-95629361D01*
X73048857Y-95676980D01*
X72953619Y-95676980D01*
X72810761Y-95629361D01*
X72715523Y-95534123D01*
X72667904Y-95438885D01*
X72620285Y-95248409D01*
X72620285Y-95105552D01*
X72667904Y-94915076D01*
X72715523Y-94819838D01*
X72810761Y-94724600D01*
X72953619Y-94676980D01*
X73048857Y-94676980D01*
X73191714Y-94724600D01*
X73239333Y-94772219D01*
X73810761Y-95105552D02*
X73715523Y-95057933D01*
X73667904Y-95010314D01*
X73620285Y-94915076D01*
X73620285Y-94867457D01*
X73667904Y-94772219D01*
X73715523Y-94724600D01*
X73810761Y-94676980D01*
X74001238Y-94676980D01*
X74096476Y-94724600D01*
X74144095Y-94772219D01*
X74191714Y-94867457D01*
X74191714Y-94915076D01*
X74144095Y-95010314D01*
X74096476Y-95057933D01*
X74001238Y-95105552D01*
X73810761Y-95105552D01*
X73715523Y-95153171D01*
X73667904Y-95200790D01*
X73620285Y-95296028D01*
X73620285Y-95486504D01*
X73667904Y-95581742D01*
X73715523Y-95629361D01*
X73810761Y-95676980D01*
X74001238Y-95676980D01*
X74096476Y-95629361D01*
X74144095Y-95581742D01*
X74191714Y-95486504D01*
X74191714Y-95296028D01*
X74144095Y-95200790D01*
X74096476Y-95153171D01*
X74001238Y-95105552D01*
%TO.C,U2*%
X136080795Y-87412180D02*
X136080795Y-88221704D01*
X136128414Y-88316942D01*
X136176033Y-88364561D01*
X136271271Y-88412180D01*
X136461747Y-88412180D01*
X136556985Y-88364561D01*
X136604604Y-88316942D01*
X136652223Y-88221704D01*
X136652223Y-87412180D01*
X137080795Y-87507419D02*
X137128414Y-87459800D01*
X137223652Y-87412180D01*
X137461747Y-87412180D01*
X137556985Y-87459800D01*
X137604604Y-87507419D01*
X137652223Y-87602657D01*
X137652223Y-87697895D01*
X137604604Y-87840752D01*
X137033176Y-88412180D01*
X137652223Y-88412180D01*
%TO.C,R10*%
X77462142Y-74467980D02*
X77128809Y-73991790D01*
X76890714Y-74467980D02*
X76890714Y-73467980D01*
X77271666Y-73467980D01*
X77366904Y-73515600D01*
X77414523Y-73563219D01*
X77462142Y-73658457D01*
X77462142Y-73801314D01*
X77414523Y-73896552D01*
X77366904Y-73944171D01*
X77271666Y-73991790D01*
X76890714Y-73991790D01*
X78414523Y-74467980D02*
X77843095Y-74467980D01*
X78128809Y-74467980D02*
X78128809Y-73467980D01*
X78033571Y-73610838D01*
X77938333Y-73706076D01*
X77843095Y-73753695D01*
X79033571Y-73467980D02*
X79128809Y-73467980D01*
X79224047Y-73515600D01*
X79271666Y-73563219D01*
X79319285Y-73658457D01*
X79366904Y-73848933D01*
X79366904Y-74087028D01*
X79319285Y-74277504D01*
X79271666Y-74372742D01*
X79224047Y-74420361D01*
X79128809Y-74467980D01*
X79033571Y-74467980D01*
X78938333Y-74420361D01*
X78890714Y-74372742D01*
X78843095Y-74277504D01*
X78795476Y-74087028D01*
X78795476Y-73848933D01*
X78843095Y-73658457D01*
X78890714Y-73563219D01*
X78938333Y-73515600D01*
X79033571Y-73467980D01*
%TO.C,U3*%
X77368495Y-66787780D02*
X77368495Y-67597304D01*
X77416114Y-67692542D01*
X77463733Y-67740161D01*
X77558971Y-67787780D01*
X77749447Y-67787780D01*
X77844685Y-67740161D01*
X77892304Y-67692542D01*
X77939923Y-67597304D01*
X77939923Y-66787780D01*
X78320876Y-66787780D02*
X78939923Y-66787780D01*
X78606590Y-67168733D01*
X78749447Y-67168733D01*
X78844685Y-67216352D01*
X78892304Y-67263971D01*
X78939923Y-67359209D01*
X78939923Y-67597304D01*
X78892304Y-67692542D01*
X78844685Y-67740161D01*
X78749447Y-67787780D01*
X78463733Y-67787780D01*
X78368495Y-67740161D01*
X78320876Y-67692542D01*
%TO.C,R8*%
X106843533Y-58161180D02*
X106510200Y-57684990D01*
X106272104Y-58161180D02*
X106272104Y-57161180D01*
X106653057Y-57161180D01*
X106748295Y-57208800D01*
X106795914Y-57256419D01*
X106843533Y-57351657D01*
X106843533Y-57494514D01*
X106795914Y-57589752D01*
X106748295Y-57637371D01*
X106653057Y-57684990D01*
X106272104Y-57684990D01*
X107414961Y-57589752D02*
X107319723Y-57542133D01*
X107272104Y-57494514D01*
X107224485Y-57399276D01*
X107224485Y-57351657D01*
X107272104Y-57256419D01*
X107319723Y-57208800D01*
X107414961Y-57161180D01*
X107605438Y-57161180D01*
X107700676Y-57208800D01*
X107748295Y-57256419D01*
X107795914Y-57351657D01*
X107795914Y-57399276D01*
X107748295Y-57494514D01*
X107700676Y-57542133D01*
X107605438Y-57589752D01*
X107414961Y-57589752D01*
X107319723Y-57637371D01*
X107272104Y-57684990D01*
X107224485Y-57780228D01*
X107224485Y-57970704D01*
X107272104Y-58065942D01*
X107319723Y-58113561D01*
X107414961Y-58161180D01*
X107605438Y-58161180D01*
X107700676Y-58113561D01*
X107748295Y-58065942D01*
X107795914Y-57970704D01*
X107795914Y-57780228D01*
X107748295Y-57684990D01*
X107700676Y-57637371D01*
X107605438Y-57589752D01*
%TO.C,C3*%
X133259533Y-80007942D02*
X133211914Y-80055561D01*
X133069057Y-80103180D01*
X132973819Y-80103180D01*
X132830961Y-80055561D01*
X132735723Y-79960323D01*
X132688104Y-79865085D01*
X132640485Y-79674609D01*
X132640485Y-79531752D01*
X132688104Y-79341276D01*
X132735723Y-79246038D01*
X132830961Y-79150800D01*
X132973819Y-79103180D01*
X133069057Y-79103180D01*
X133211914Y-79150800D01*
X133259533Y-79198419D01*
X133592866Y-79103180D02*
X134211914Y-79103180D01*
X133878580Y-79484133D01*
X134021438Y-79484133D01*
X134116676Y-79531752D01*
X134164295Y-79579371D01*
X134211914Y-79674609D01*
X134211914Y-79912704D01*
X134164295Y-80007942D01*
X134116676Y-80055561D01*
X134021438Y-80103180D01*
X133735723Y-80103180D01*
X133640485Y-80055561D01*
X133592866Y-80007942D01*
%TO.C,C4*%
X84288333Y-81383142D02*
X84240714Y-81430761D01*
X84097857Y-81478380D01*
X84002619Y-81478380D01*
X83859761Y-81430761D01*
X83764523Y-81335523D01*
X83716904Y-81240285D01*
X83669285Y-81049809D01*
X83669285Y-80906952D01*
X83716904Y-80716476D01*
X83764523Y-80621238D01*
X83859761Y-80526000D01*
X84002619Y-80478380D01*
X84097857Y-80478380D01*
X84240714Y-80526000D01*
X84288333Y-80573619D01*
X85145476Y-80811714D02*
X85145476Y-81478380D01*
X84907380Y-80430761D02*
X84669285Y-81145047D01*
X85288333Y-81145047D01*
%TO.C,R9*%
X113574533Y-52776380D02*
X113241200Y-52300190D01*
X113003104Y-52776380D02*
X113003104Y-51776380D01*
X113384057Y-51776380D01*
X113479295Y-51824000D01*
X113526914Y-51871619D01*
X113574533Y-51966857D01*
X113574533Y-52109714D01*
X113526914Y-52204952D01*
X113479295Y-52252571D01*
X113384057Y-52300190D01*
X113003104Y-52300190D01*
X114050723Y-52776380D02*
X114241200Y-52776380D01*
X114336438Y-52728761D01*
X114384057Y-52681142D01*
X114479295Y-52538285D01*
X114526914Y-52347809D01*
X114526914Y-51966857D01*
X114479295Y-51871619D01*
X114431676Y-51824000D01*
X114336438Y-51776380D01*
X114145961Y-51776380D01*
X114050723Y-51824000D01*
X114003104Y-51871619D01*
X113955485Y-51966857D01*
X113955485Y-52204952D01*
X114003104Y-52300190D01*
X114050723Y-52347809D01*
X114145961Y-52395428D01*
X114336438Y-52395428D01*
X114431676Y-52347809D01*
X114479295Y-52300190D01*
X114526914Y-52204952D01*
%TO.C,C6*%
X83093433Y-90875142D02*
X83045814Y-90922761D01*
X82902957Y-90970380D01*
X82807719Y-90970380D01*
X82664861Y-90922761D01*
X82569623Y-90827523D01*
X82522004Y-90732285D01*
X82474385Y-90541809D01*
X82474385Y-90398952D01*
X82522004Y-90208476D01*
X82569623Y-90113238D01*
X82664861Y-90018000D01*
X82807719Y-89970380D01*
X82902957Y-89970380D01*
X83045814Y-90018000D01*
X83093433Y-90065619D01*
X83950576Y-89970380D02*
X83760100Y-89970380D01*
X83664861Y-90018000D01*
X83617242Y-90065619D01*
X83522004Y-90208476D01*
X83474385Y-90398952D01*
X83474385Y-90779904D01*
X83522004Y-90875142D01*
X83569623Y-90922761D01*
X83664861Y-90970380D01*
X83855338Y-90970380D01*
X83950576Y-90922761D01*
X83998195Y-90875142D01*
X84045814Y-90779904D01*
X84045814Y-90541809D01*
X83998195Y-90446571D01*
X83950576Y-90398952D01*
X83855338Y-90351333D01*
X83664861Y-90351333D01*
X83569623Y-90398952D01*
X83522004Y-90446571D01*
X83474385Y-90541809D01*
%TO.C,Y1*%
X81184809Y-94260990D02*
X81184809Y-94737180D01*
X80851476Y-93737180D02*
X81184809Y-94260990D01*
X81518142Y-93737180D01*
X82375285Y-94737180D02*
X81803857Y-94737180D01*
X82089571Y-94737180D02*
X82089571Y-93737180D01*
X81994333Y-93880038D01*
X81899095Y-93975276D01*
X81803857Y-94022895D01*
%TO.C,C2*%
X79081333Y-99696542D02*
X79033714Y-99744161D01*
X78890857Y-99791780D01*
X78795619Y-99791780D01*
X78652761Y-99744161D01*
X78557523Y-99648923D01*
X78509904Y-99553685D01*
X78462285Y-99363209D01*
X78462285Y-99220352D01*
X78509904Y-99029876D01*
X78557523Y-98934638D01*
X78652761Y-98839400D01*
X78795619Y-98791780D01*
X78890857Y-98791780D01*
X79033714Y-98839400D01*
X79081333Y-98887019D01*
X79462285Y-98887019D02*
X79509904Y-98839400D01*
X79605142Y-98791780D01*
X79843238Y-98791780D01*
X79938476Y-98839400D01*
X79986095Y-98887019D01*
X80033714Y-98982257D01*
X80033714Y-99077495D01*
X79986095Y-99220352D01*
X79414666Y-99791780D01*
X80033714Y-99791780D01*
%TO.C,C7*%
X130796833Y-93194142D02*
X130749214Y-93241761D01*
X130606357Y-93289380D01*
X130511119Y-93289380D01*
X130368261Y-93241761D01*
X130273023Y-93146523D01*
X130225404Y-93051285D01*
X130177785Y-92860809D01*
X130177785Y-92717952D01*
X130225404Y-92527476D01*
X130273023Y-92432238D01*
X130368261Y-92337000D01*
X130511119Y-92289380D01*
X130606357Y-92289380D01*
X130749214Y-92337000D01*
X130796833Y-92384619D01*
X131130166Y-92289380D02*
X131796833Y-92289380D01*
X131368261Y-93289380D01*
%TO.C,C9*%
X83526333Y-105843342D02*
X83478714Y-105890961D01*
X83335857Y-105938580D01*
X83240619Y-105938580D01*
X83097761Y-105890961D01*
X83002523Y-105795723D01*
X82954904Y-105700485D01*
X82907285Y-105510009D01*
X82907285Y-105367152D01*
X82954904Y-105176676D01*
X83002523Y-105081438D01*
X83097761Y-104986200D01*
X83240619Y-104938580D01*
X83335857Y-104938580D01*
X83478714Y-104986200D01*
X83526333Y-105033819D01*
X84002523Y-105938580D02*
X84193000Y-105938580D01*
X84288238Y-105890961D01*
X84335857Y-105843342D01*
X84431095Y-105700485D01*
X84478714Y-105510009D01*
X84478714Y-105129057D01*
X84431095Y-105033819D01*
X84383476Y-104986200D01*
X84288238Y-104938580D01*
X84097761Y-104938580D01*
X84002523Y-104986200D01*
X83954904Y-105033819D01*
X83907285Y-105129057D01*
X83907285Y-105367152D01*
X83954904Y-105462390D01*
X84002523Y-105510009D01*
X84097761Y-105557628D01*
X84288238Y-105557628D01*
X84383476Y-105510009D01*
X84431095Y-105462390D01*
X84478714Y-105367152D01*
%TO.C,U1*%
X76327095Y-80275180D02*
X76327095Y-81084704D01*
X76374714Y-81179942D01*
X76422333Y-81227561D01*
X76517571Y-81275180D01*
X76708047Y-81275180D01*
X76803285Y-81227561D01*
X76850904Y-81179942D01*
X76898523Y-81084704D01*
X76898523Y-80275180D01*
X77898523Y-81275180D02*
X77327095Y-81275180D01*
X77612809Y-81275180D02*
X77612809Y-80275180D01*
X77517571Y-80418038D01*
X77422333Y-80513276D01*
X77327095Y-80560895D01*
D12*
%TO.C,J37*%
X100910000Y-49470000D02*
X100910000Y-47570000D01*
X110310000Y-49470000D02*
X110310000Y-47570000D01*
X100910000Y-53370000D02*
X100910000Y-51370000D01*
X110310000Y-47570000D02*
X100910000Y-47570000D01*
X110310000Y-53370000D02*
X110310000Y-51370000D01*
%TO.C,R18*%
X131877524Y-102579700D02*
X131368076Y-102579700D01*
X131877524Y-101534700D02*
X131368076Y-101534700D01*
%TO.C,R17*%
X131368076Y-99629700D02*
X131877524Y-99629700D01*
X131368076Y-100674700D02*
X131877524Y-100674700D01*
%TO.C,R16*%
X112491724Y-116611900D02*
X111982276Y-116611900D01*
X112491724Y-115566900D02*
X111982276Y-115566900D01*
%TO.C,R15*%
X111982276Y-114706900D02*
X112491724Y-114706900D01*
X111982276Y-113661900D02*
X112491724Y-113661900D01*
%TO.C,R14*%
X101211524Y-121511500D02*
X100702076Y-121511500D01*
X101211524Y-120466500D02*
X100702076Y-120466500D01*
%TO.C,R13*%
X100702076Y-118561500D02*
X101211524Y-118561500D01*
X100702076Y-119606500D02*
X101211524Y-119606500D01*
%TO.C,Q4*%
X136954800Y-99512000D02*
X133794800Y-99512000D01*
X136954800Y-102672000D02*
X135494800Y-102672000D01*
X136954800Y-102672000D02*
X136954800Y-101742000D01*
X136954800Y-99512000D02*
X136954800Y-100442000D01*
%TO.C,Q3*%
X117594400Y-113544200D02*
X114434400Y-113544200D01*
X117594400Y-116704200D02*
X116134400Y-116704200D01*
X117594400Y-116704200D02*
X117594400Y-115774200D01*
X117594400Y-113544200D02*
X117594400Y-114474200D01*
%TO.C,Q2*%
X106263400Y-118469200D02*
X103103400Y-118469200D01*
X106263400Y-121629200D02*
X104803400Y-121629200D01*
X106263400Y-121629200D02*
X106263400Y-120699200D01*
X106263400Y-118469200D02*
X106263400Y-119399200D01*
%TO.C,J12*%
X136566600Y-97205800D02*
X136566600Y-95875800D01*
X136566600Y-98475800D02*
X136566600Y-98535800D01*
X139226600Y-98475800D02*
X139226600Y-98535800D01*
X136566600Y-98535800D02*
X139226600Y-98535800D01*
X136566600Y-98475800D02*
X139226600Y-98475800D01*
X136566600Y-95875800D02*
X137896600Y-95875800D01*
%TO.C,J11*%
X120330400Y-113794200D02*
X121660400Y-113794200D01*
X120330400Y-116394200D02*
X122990400Y-116394200D01*
X120330400Y-116454200D02*
X122990400Y-116454200D01*
X122990400Y-116394200D02*
X122990400Y-116454200D01*
X120330400Y-116394200D02*
X120330400Y-116454200D01*
X120330400Y-115124200D02*
X120330400Y-113794200D01*
%TO.C,J10*%
X108720000Y-118770000D02*
X110050000Y-118770000D01*
X108720000Y-121370000D02*
X111380000Y-121370000D01*
X108720000Y-121430000D02*
X111380000Y-121430000D01*
X111380000Y-121370000D02*
X111380000Y-121430000D01*
X108720000Y-121370000D02*
X108720000Y-121430000D01*
X108720000Y-120100000D02*
X108720000Y-118770000D01*
%TO.C,U5*%
X119872400Y-66813000D02*
X119872400Y-65013000D01*
X116652400Y-65013000D02*
X116652400Y-67463000D01*
%TO.C,D1*%
X83850000Y-75660000D02*
X83050000Y-75660000D01*
X83850000Y-72540000D02*
X84650000Y-72540000D01*
X83850000Y-72540000D02*
X83050000Y-72540000D01*
X83850000Y-75660000D02*
X85650000Y-75660000D01*
%TO.C,U4*%
X95504000Y-59659200D02*
X93554000Y-59659200D01*
X95504000Y-54539200D02*
X92054000Y-54539200D01*
X95504000Y-54539200D02*
X97454000Y-54539200D01*
X95504000Y-59659200D02*
X97454000Y-59659200D01*
%TO.C,R3*%
X84977500Y-70654724D02*
X84977500Y-70145276D01*
X86022500Y-70654724D02*
X86022500Y-70145276D01*
%TO.C,R12*%
X82227500Y-77904724D02*
X82227500Y-77395276D01*
X83272500Y-77904724D02*
X83272500Y-77395276D01*
%TO.C,R4*%
X87522500Y-70654724D02*
X87522500Y-70145276D01*
X86477500Y-70654724D02*
X86477500Y-70145276D01*
%TO.C,J35*%
X138243000Y-90779600D02*
X140903000Y-90779600D01*
X138243000Y-89509600D02*
X138243000Y-88179600D01*
X138243000Y-90839600D02*
X140903000Y-90839600D01*
X138243000Y-90779600D02*
X138243000Y-90839600D01*
X140903000Y-90779600D02*
X140903000Y-90839600D01*
X138243000Y-88179600D02*
X139573000Y-88179600D01*
%TO.C,R2*%
X89477500Y-70654724D02*
X89477500Y-70145276D01*
X90522500Y-70654724D02*
X90522500Y-70145276D01*
%TO.C,R5*%
X89022500Y-70654724D02*
X89022500Y-70145276D01*
X87977500Y-70654724D02*
X87977500Y-70145276D01*
%TO.C,R11*%
X94715876Y-54014900D02*
X95225324Y-54014900D01*
X94715876Y-52969900D02*
X95225324Y-52969900D01*
%TO.C,J26*%
X126279600Y-70907600D02*
X127609600Y-70907600D01*
X126279600Y-72237600D02*
X126279600Y-70907600D01*
X126279600Y-73507600D02*
X126279600Y-73567600D01*
X128939600Y-73507600D02*
X128939600Y-73567600D01*
X126279600Y-73567600D02*
X128939600Y-73567600D01*
X126279600Y-73507600D02*
X128939600Y-73507600D01*
%TO.C,J1*%
X69654400Y-84279200D02*
X70764400Y-84279200D01*
X69654400Y-85799200D02*
X69654400Y-92084200D01*
X71071930Y-92084200D02*
X71874400Y-92084200D01*
X69654400Y-85799200D02*
X70200929Y-85799200D01*
X69654400Y-92084200D02*
X70456870Y-92084200D01*
X71327871Y-85799200D02*
X71874400Y-85799200D01*
X69654400Y-85039200D02*
X69654400Y-84279200D01*
X71874400Y-85799200D02*
X71874400Y-92084200D01*
%TO.C,R1*%
X70749900Y-94106276D02*
X70749900Y-94615724D01*
X71794900Y-94106276D02*
X71794900Y-94615724D01*
%TO.C,J36*%
X138217600Y-85369400D02*
X140877600Y-85369400D01*
X138217600Y-84099400D02*
X138217600Y-82769400D01*
X138217600Y-82769400D02*
X139547600Y-82769400D01*
X140877600Y-85369400D02*
X140877600Y-85429400D01*
X138217600Y-85369400D02*
X138217600Y-85429400D01*
X138217600Y-85429400D02*
X140877600Y-85429400D01*
%TO.C,R6*%
X99785700Y-51562724D02*
X99785700Y-51053276D01*
X98740700Y-51562724D02*
X98740700Y-51053276D01*
%TO.C,C5*%
X73068567Y-82450400D02*
X72776033Y-82450400D01*
X73068567Y-81430400D02*
X72776033Y-81430400D01*
%TO.C,Q1*%
X80204800Y-77687800D02*
X80204800Y-76277800D01*
X77884800Y-76277800D02*
X77884800Y-79012800D01*
X77874800Y-76277800D02*
X78544800Y-76277800D01*
X79544800Y-76277800D02*
X80204800Y-76277800D01*
%TO.C,C1*%
X75698133Y-98350800D02*
X75990667Y-98350800D01*
X75698133Y-97330800D02*
X75990667Y-97330800D01*
%TO.C,R7*%
X104699524Y-59856900D02*
X104190076Y-59856900D01*
X104699524Y-58811900D02*
X104190076Y-58811900D01*
%TO.C,C8*%
X73023000Y-92690733D02*
X73023000Y-92983267D01*
X74043000Y-92690733D02*
X74043000Y-92983267D01*
%TO.C,U2*%
X135590500Y-89082800D02*
X134330500Y-89082800D01*
X135590500Y-83072800D02*
X135590500Y-89082800D01*
X128770500Y-89082800D02*
X130030500Y-89082800D01*
X128770500Y-85322800D02*
X128770500Y-89082800D01*
%TO.C,R10*%
X77875676Y-72070700D02*
X78385124Y-72070700D01*
X77875676Y-73115700D02*
X78385124Y-73115700D01*
%TO.C,U3*%
X79030400Y-68214600D02*
X77230400Y-68214600D01*
X77230400Y-71434600D02*
X80180400Y-71434600D01*
%TO.C,R8*%
X104699524Y-57237100D02*
X104190076Y-57237100D01*
X104699524Y-58282100D02*
X104190076Y-58282100D01*
%TO.C,C3*%
X133164948Y-82065800D02*
X133687452Y-82065800D01*
X133164948Y-80595800D02*
X133687452Y-80595800D01*
%TO.C,C4*%
X82217800Y-81198767D02*
X82217800Y-80906233D01*
X83237800Y-81198767D02*
X83237800Y-80906233D01*
%TO.C,R9*%
X112460300Y-51588124D02*
X112460300Y-51078676D01*
X111415300Y-51588124D02*
X111415300Y-51078676D01*
%TO.C,C6*%
X83113833Y-91438000D02*
X83406367Y-91438000D01*
X83113833Y-92458000D02*
X83406367Y-92458000D01*
%TO.C,Y1*%
X80297000Y-93221400D02*
X74547000Y-93221400D01*
X74547000Y-93221400D02*
X74547000Y-96821400D01*
X74547000Y-96821400D02*
X80297000Y-96821400D01*
%TO.C,C2*%
X79445067Y-97330800D02*
X79152533Y-97330800D01*
X79445067Y-98350800D02*
X79152533Y-98350800D01*
%TO.C,C7*%
X128390867Y-92352400D02*
X128098333Y-92352400D01*
X128390867Y-93372400D02*
X128098333Y-93372400D01*
%TO.C,C9*%
X85479200Y-103711000D02*
X85479200Y-96776000D01*
X85479200Y-96776000D02*
X82059200Y-96776000D01*
X82059200Y-96776000D02*
X82059200Y-103711000D01*
%TO.C,U1*%
X74477500Y-83530000D02*
X74477500Y-83080000D01*
X81697500Y-83080000D02*
X81247500Y-83080000D01*
X74477500Y-89850000D02*
X74477500Y-90300000D01*
X74477500Y-90300000D02*
X74927500Y-90300000D01*
X81697500Y-90300000D02*
X81247500Y-90300000D01*
X81697500Y-83530000D02*
X81697500Y-83080000D01*
X81697500Y-89850000D02*
X81697500Y-90300000D01*
X74927500Y-90300000D02*
X74927500Y-91590000D01*
X74477500Y-83080000D02*
X74927500Y-83080000D01*
%TD*%
M02*
