%TF.GenerationSoftware,KiCad,Pcbnew,8.0.6*%
%TF.CreationDate,2025-02-03T11:58:57+03:00*%
%TF.ProjectId,multistepper,6d756c74-6973-4746-9570-7065722e6b69,rev?*%
%TF.SameCoordinates,Original*%
%TF.FileFunction,Legend,Bot*%
%TF.FilePolarity,Positive*%
%FSLAX46Y46*%
G04 Gerber Fmt 4.6, Leading zero omitted, Abs format (unit mm)*
G04 Created by KiCad (PCBNEW 8.0.6) date 2025-02-03 11:58:57*
%MOMM*%
%LPD*%
G01*
G04 APERTURE LIST*
%ADD10C,0.150000*%
%ADD11C,0.350000*%
%ADD12C,0.120000*%
G04 APERTURE END LIST*
D10*
X87000000Y-79800000D02*
X87000000Y-79000000D01*
X86700000Y-84700000D02*
X86700000Y-83900000D01*
X98700000Y-64650000D02*
X103500000Y-64650000D01*
X103500000Y-66250000D01*
X98700000Y-66250000D01*
X98700000Y-64650000D01*
X87800000Y-72200000D02*
X87800000Y-73200000D01*
X106500000Y-68150000D02*
X107900000Y-68150000D01*
X107900000Y-69650000D01*
X106500000Y-69650000D01*
X106500000Y-68150000D01*
X86600000Y-89800000D02*
X86600000Y-89000000D01*
X106500000Y-66450000D02*
X107900000Y-66450000D01*
X107900000Y-67950000D01*
X106500000Y-67950000D01*
X106500000Y-66450000D01*
X98200000Y-60450000D02*
X110500000Y-60450000D01*
X110500000Y-73950000D01*
X98200000Y-73950000D01*
X98200000Y-60450000D01*
X106500000Y-69850000D02*
X107900000Y-69850000D01*
X107900000Y-71350000D01*
X106500000Y-71350000D01*
X106500000Y-69850000D01*
X98700000Y-68250000D02*
X103500000Y-68250000D01*
X103500000Y-69850000D01*
X98700000Y-69850000D01*
X98700000Y-68250000D01*
X89500000Y-73200000D02*
X89500000Y-73600000D01*
X98700000Y-66450000D02*
X103500000Y-66450000D01*
X103500000Y-68050000D01*
X98700000Y-68050000D01*
X98700000Y-66450000D01*
X89600000Y-64900000D02*
X89100000Y-64900000D01*
X102300000Y-71850000D02*
X107100000Y-71850000D01*
X107100000Y-73450000D01*
X102300000Y-73450000D01*
X102300000Y-71850000D01*
X98700000Y-62850000D02*
X103500000Y-62850000D01*
X103500000Y-64450000D01*
X98700000Y-64450000D01*
X98700000Y-62850000D01*
X89100000Y-66500000D02*
X89600000Y-66500000D01*
X87900000Y-74400000D02*
X87900000Y-75100000D01*
X89600000Y-68100000D02*
X89600000Y-64900000D01*
X89100000Y-68100000D02*
X89600000Y-68100000D01*
X87800000Y-73200000D02*
X89500000Y-73200000D01*
X103195237Y-64204819D02*
X103195237Y-63204819D01*
X103195237Y-63204819D02*
X102957142Y-63204819D01*
X102957142Y-63204819D02*
X102814285Y-63252438D01*
X102814285Y-63252438D02*
X102719047Y-63347676D01*
X102719047Y-63347676D02*
X102671428Y-63442914D01*
X102671428Y-63442914D02*
X102623809Y-63633390D01*
X102623809Y-63633390D02*
X102623809Y-63776247D01*
X102623809Y-63776247D02*
X102671428Y-63966723D01*
X102671428Y-63966723D02*
X102719047Y-64061961D01*
X102719047Y-64061961D02*
X102814285Y-64157200D01*
X102814285Y-64157200D02*
X102957142Y-64204819D01*
X102957142Y-64204819D02*
X103195237Y-64204819D01*
X101671428Y-64204819D02*
X102242856Y-64204819D01*
X101957142Y-64204819D02*
X101957142Y-63204819D01*
X101957142Y-63204819D02*
X102052380Y-63347676D01*
X102052380Y-63347676D02*
X102147618Y-63442914D01*
X102147618Y-63442914D02*
X102242856Y-63490533D01*
X100480951Y-64204819D02*
X100480951Y-63204819D01*
X100480951Y-63204819D02*
X100242856Y-63204819D01*
X100242856Y-63204819D02*
X100099999Y-63252438D01*
X100099999Y-63252438D02*
X100004761Y-63347676D01*
X100004761Y-63347676D02*
X99957142Y-63442914D01*
X99957142Y-63442914D02*
X99909523Y-63633390D01*
X99909523Y-63633390D02*
X99909523Y-63776247D01*
X99909523Y-63776247D02*
X99957142Y-63966723D01*
X99957142Y-63966723D02*
X100004761Y-64061961D01*
X100004761Y-64061961D02*
X100099999Y-64157200D01*
X100099999Y-64157200D02*
X100242856Y-64204819D01*
X100242856Y-64204819D02*
X100480951Y-64204819D01*
X99528570Y-63300057D02*
X99480951Y-63252438D01*
X99480951Y-63252438D02*
X99385713Y-63204819D01*
X99385713Y-63204819D02*
X99147618Y-63204819D01*
X99147618Y-63204819D02*
X99052380Y-63252438D01*
X99052380Y-63252438D02*
X99004761Y-63300057D01*
X99004761Y-63300057D02*
X98957142Y-63395295D01*
X98957142Y-63395295D02*
X98957142Y-63490533D01*
X98957142Y-63490533D02*
X99004761Y-63633390D01*
X99004761Y-63633390D02*
X99576189Y-64204819D01*
X99576189Y-64204819D02*
X98957142Y-64204819D01*
X94557142Y-71254819D02*
X94557142Y-70254819D01*
X94557142Y-70254819D02*
X94223809Y-70969104D01*
X94223809Y-70969104D02*
X93890476Y-70254819D01*
X93890476Y-70254819D02*
X93890476Y-71254819D01*
X92842857Y-71159580D02*
X92890476Y-71207200D01*
X92890476Y-71207200D02*
X93033333Y-71254819D01*
X93033333Y-71254819D02*
X93128571Y-71254819D01*
X93128571Y-71254819D02*
X93271428Y-71207200D01*
X93271428Y-71207200D02*
X93366666Y-71111961D01*
X93366666Y-71111961D02*
X93414285Y-71016723D01*
X93414285Y-71016723D02*
X93461904Y-70826247D01*
X93461904Y-70826247D02*
X93461904Y-70683390D01*
X93461904Y-70683390D02*
X93414285Y-70492914D01*
X93414285Y-70492914D02*
X93366666Y-70397676D01*
X93366666Y-70397676D02*
X93271428Y-70302438D01*
X93271428Y-70302438D02*
X93128571Y-70254819D01*
X93128571Y-70254819D02*
X93033333Y-70254819D01*
X93033333Y-70254819D02*
X92890476Y-70302438D01*
X92890476Y-70302438D02*
X92842857Y-70350057D01*
X92414285Y-70254819D02*
X92414285Y-71064342D01*
X92414285Y-71064342D02*
X92366666Y-71159580D01*
X92366666Y-71159580D02*
X92319047Y-71207200D01*
X92319047Y-71207200D02*
X92223809Y-71254819D01*
X92223809Y-71254819D02*
X92033333Y-71254819D01*
X92033333Y-71254819D02*
X91938095Y-71207200D01*
X91938095Y-71207200D02*
X91890476Y-71159580D01*
X91890476Y-71159580D02*
X91842857Y-71064342D01*
X91842857Y-71064342D02*
X91842857Y-70254819D01*
X87985713Y-85954819D02*
X87985713Y-84954819D01*
X87985713Y-84954819D02*
X87652380Y-85669104D01*
X87652380Y-85669104D02*
X87319047Y-84954819D01*
X87319047Y-84954819D02*
X87319047Y-85954819D01*
X86890475Y-85907200D02*
X86747618Y-85954819D01*
X86747618Y-85954819D02*
X86509523Y-85954819D01*
X86509523Y-85954819D02*
X86414285Y-85907200D01*
X86414285Y-85907200D02*
X86366666Y-85859580D01*
X86366666Y-85859580D02*
X86319047Y-85764342D01*
X86319047Y-85764342D02*
X86319047Y-85669104D01*
X86319047Y-85669104D02*
X86366666Y-85573866D01*
X86366666Y-85573866D02*
X86414285Y-85526247D01*
X86414285Y-85526247D02*
X86509523Y-85478628D01*
X86509523Y-85478628D02*
X86699999Y-85431009D01*
X86699999Y-85431009D02*
X86795237Y-85383390D01*
X86795237Y-85383390D02*
X86842856Y-85335771D01*
X86842856Y-85335771D02*
X86890475Y-85240533D01*
X86890475Y-85240533D02*
X86890475Y-85145295D01*
X86890475Y-85145295D02*
X86842856Y-85050057D01*
X86842856Y-85050057D02*
X86795237Y-85002438D01*
X86795237Y-85002438D02*
X86699999Y-84954819D01*
X86699999Y-84954819D02*
X86461904Y-84954819D01*
X86461904Y-84954819D02*
X86319047Y-85002438D01*
X85938094Y-85050057D02*
X85890475Y-85002438D01*
X85890475Y-85002438D02*
X85795237Y-84954819D01*
X85795237Y-84954819D02*
X85557142Y-84954819D01*
X85557142Y-84954819D02*
X85461904Y-85002438D01*
X85461904Y-85002438D02*
X85414285Y-85050057D01*
X85414285Y-85050057D02*
X85366666Y-85145295D01*
X85366666Y-85145295D02*
X85366666Y-85240533D01*
X85366666Y-85240533D02*
X85414285Y-85383390D01*
X85414285Y-85383390D02*
X85985713Y-85954819D01*
X85985713Y-85954819D02*
X85366666Y-85954819D01*
D11*
X60737809Y-125435147D02*
X61213999Y-125435147D01*
X61213999Y-125435147D02*
X61452095Y-125554195D01*
X61452095Y-125554195D02*
X61571142Y-125673242D01*
X61571142Y-125673242D02*
X61809237Y-126030385D01*
X61809237Y-126030385D02*
X61928285Y-126506576D01*
X61928285Y-126506576D02*
X61928285Y-127458957D01*
X61928285Y-127458957D02*
X61809237Y-127697052D01*
X61809237Y-127697052D02*
X61690190Y-127816100D01*
X61690190Y-127816100D02*
X61452095Y-127935147D01*
X61452095Y-127935147D02*
X60975904Y-127935147D01*
X60975904Y-127935147D02*
X60737809Y-127816100D01*
X60737809Y-127816100D02*
X60618761Y-127697052D01*
X60618761Y-127697052D02*
X60499714Y-127458957D01*
X60499714Y-127458957D02*
X60499714Y-126863719D01*
X60499714Y-126863719D02*
X60618761Y-126625623D01*
X60618761Y-126625623D02*
X60737809Y-126506576D01*
X60737809Y-126506576D02*
X60975904Y-126387528D01*
X60975904Y-126387528D02*
X61452095Y-126387528D01*
X61452095Y-126387528D02*
X61690190Y-126506576D01*
X61690190Y-126506576D02*
X61809237Y-126625623D01*
X61809237Y-126625623D02*
X61928285Y-126863719D01*
D10*
X89495237Y-75454819D02*
X89495237Y-76264342D01*
X89495237Y-76264342D02*
X89447618Y-76359580D01*
X89447618Y-76359580D02*
X89399999Y-76407200D01*
X89399999Y-76407200D02*
X89304761Y-76454819D01*
X89304761Y-76454819D02*
X89114285Y-76454819D01*
X89114285Y-76454819D02*
X89019047Y-76407200D01*
X89019047Y-76407200D02*
X88971428Y-76359580D01*
X88971428Y-76359580D02*
X88923809Y-76264342D01*
X88923809Y-76264342D02*
X88923809Y-75454819D01*
X88495237Y-76169104D02*
X88019047Y-76169104D01*
X88590475Y-76454819D02*
X88257142Y-75454819D01*
X88257142Y-75454819D02*
X87923809Y-76454819D01*
X87019047Y-76454819D02*
X87352380Y-75978628D01*
X87590475Y-76454819D02*
X87590475Y-75454819D01*
X87590475Y-75454819D02*
X87209523Y-75454819D01*
X87209523Y-75454819D02*
X87114285Y-75502438D01*
X87114285Y-75502438D02*
X87066666Y-75550057D01*
X87066666Y-75550057D02*
X87019047Y-75645295D01*
X87019047Y-75645295D02*
X87019047Y-75788152D01*
X87019047Y-75788152D02*
X87066666Y-75883390D01*
X87066666Y-75883390D02*
X87114285Y-75931009D01*
X87114285Y-75931009D02*
X87209523Y-75978628D01*
X87209523Y-75978628D02*
X87590475Y-75978628D01*
X86733332Y-75454819D02*
X86161904Y-75454819D01*
X86447618Y-76454819D02*
X86447618Y-75454819D01*
X88610839Y-65059160D02*
X88134649Y-65059160D01*
X88706077Y-65344875D02*
X88372744Y-64344875D01*
X88372744Y-64344875D02*
X88039411Y-65344875D01*
X87706077Y-64963922D02*
X86944173Y-64963922D01*
X85896554Y-65249636D02*
X85944173Y-65297256D01*
X85944173Y-65297256D02*
X86087030Y-65344875D01*
X86087030Y-65344875D02*
X86182268Y-65344875D01*
X86182268Y-65344875D02*
X86325125Y-65297256D01*
X86325125Y-65297256D02*
X86420363Y-65202017D01*
X86420363Y-65202017D02*
X86467982Y-65106779D01*
X86467982Y-65106779D02*
X86515601Y-64916303D01*
X86515601Y-64916303D02*
X86515601Y-64773446D01*
X86515601Y-64773446D02*
X86467982Y-64582970D01*
X86467982Y-64582970D02*
X86420363Y-64487732D01*
X86420363Y-64487732D02*
X86325125Y-64392494D01*
X86325125Y-64392494D02*
X86182268Y-64344875D01*
X86182268Y-64344875D02*
X86087030Y-64344875D01*
X86087030Y-64344875D02*
X85944173Y-64392494D01*
X85944173Y-64392494D02*
X85896554Y-64440113D01*
X84991792Y-65344875D02*
X85467982Y-65344875D01*
X85467982Y-65344875D02*
X85467982Y-64344875D01*
X84658458Y-65344875D02*
X84658458Y-64344875D01*
X84087030Y-65344875D02*
X84515601Y-64773446D01*
X84087030Y-64344875D02*
X84658458Y-64916303D01*
X88229887Y-66431009D02*
X88087030Y-66478628D01*
X88087030Y-66478628D02*
X88039411Y-66526247D01*
X88039411Y-66526247D02*
X87991792Y-66621485D01*
X87991792Y-66621485D02*
X87991792Y-66764342D01*
X87991792Y-66764342D02*
X88039411Y-66859580D01*
X88039411Y-66859580D02*
X88087030Y-66907200D01*
X88087030Y-66907200D02*
X88182268Y-66954819D01*
X88182268Y-66954819D02*
X88563220Y-66954819D01*
X88563220Y-66954819D02*
X88563220Y-65954819D01*
X88563220Y-65954819D02*
X88229887Y-65954819D01*
X88229887Y-65954819D02*
X88134649Y-66002438D01*
X88134649Y-66002438D02*
X88087030Y-66050057D01*
X88087030Y-66050057D02*
X88039411Y-66145295D01*
X88039411Y-66145295D02*
X88039411Y-66240533D01*
X88039411Y-66240533D02*
X88087030Y-66335771D01*
X88087030Y-66335771D02*
X88134649Y-66383390D01*
X88134649Y-66383390D02*
X88229887Y-66431009D01*
X88229887Y-66431009D02*
X88563220Y-66431009D01*
X87563220Y-66573866D02*
X86801316Y-66573866D01*
X86325125Y-65954819D02*
X86325125Y-66764342D01*
X86325125Y-66764342D02*
X86277506Y-66859580D01*
X86277506Y-66859580D02*
X86229887Y-66907200D01*
X86229887Y-66907200D02*
X86134649Y-66954819D01*
X86134649Y-66954819D02*
X85944173Y-66954819D01*
X85944173Y-66954819D02*
X85848935Y-66907200D01*
X85848935Y-66907200D02*
X85801316Y-66859580D01*
X85801316Y-66859580D02*
X85753697Y-66764342D01*
X85753697Y-66764342D02*
X85753697Y-65954819D01*
X85325125Y-66669104D02*
X84848935Y-66669104D01*
X85420363Y-66954819D02*
X85087030Y-65954819D01*
X85087030Y-65954819D02*
X84753697Y-66954819D01*
X83848935Y-66954819D02*
X84182268Y-66478628D01*
X84420363Y-66954819D02*
X84420363Y-65954819D01*
X84420363Y-65954819D02*
X84039411Y-65954819D01*
X84039411Y-65954819D02*
X83944173Y-66002438D01*
X83944173Y-66002438D02*
X83896554Y-66050057D01*
X83896554Y-66050057D02*
X83848935Y-66145295D01*
X83848935Y-66145295D02*
X83848935Y-66288152D01*
X83848935Y-66288152D02*
X83896554Y-66383390D01*
X83896554Y-66383390D02*
X83944173Y-66431009D01*
X83944173Y-66431009D02*
X84039411Y-66478628D01*
X84039411Y-66478628D02*
X84420363Y-66478628D01*
X83563220Y-65954819D02*
X82991792Y-65954819D01*
X83277506Y-66954819D02*
X83277506Y-65954819D01*
X87991792Y-68469524D02*
X88039411Y-68517144D01*
X88039411Y-68517144D02*
X88182268Y-68564763D01*
X88182268Y-68564763D02*
X88277506Y-68564763D01*
X88277506Y-68564763D02*
X88420363Y-68517144D01*
X88420363Y-68517144D02*
X88515601Y-68421905D01*
X88515601Y-68421905D02*
X88563220Y-68326667D01*
X88563220Y-68326667D02*
X88610839Y-68136191D01*
X88610839Y-68136191D02*
X88610839Y-67993334D01*
X88610839Y-67993334D02*
X88563220Y-67802858D01*
X88563220Y-67802858D02*
X88515601Y-67707620D01*
X88515601Y-67707620D02*
X88420363Y-67612382D01*
X88420363Y-67612382D02*
X88277506Y-67564763D01*
X88277506Y-67564763D02*
X88182268Y-67564763D01*
X88182268Y-67564763D02*
X88039411Y-67612382D01*
X88039411Y-67612382D02*
X87991792Y-67660001D01*
X87563220Y-68183810D02*
X86801316Y-68183810D01*
X86372744Y-68517144D02*
X86229887Y-68564763D01*
X86229887Y-68564763D02*
X85991792Y-68564763D01*
X85991792Y-68564763D02*
X85896554Y-68517144D01*
X85896554Y-68517144D02*
X85848935Y-68469524D01*
X85848935Y-68469524D02*
X85801316Y-68374286D01*
X85801316Y-68374286D02*
X85801316Y-68279048D01*
X85801316Y-68279048D02*
X85848935Y-68183810D01*
X85848935Y-68183810D02*
X85896554Y-68136191D01*
X85896554Y-68136191D02*
X85991792Y-68088572D01*
X85991792Y-68088572D02*
X86182268Y-68040953D01*
X86182268Y-68040953D02*
X86277506Y-67993334D01*
X86277506Y-67993334D02*
X86325125Y-67945715D01*
X86325125Y-67945715D02*
X86372744Y-67850477D01*
X86372744Y-67850477D02*
X86372744Y-67755239D01*
X86372744Y-67755239D02*
X86325125Y-67660001D01*
X86325125Y-67660001D02*
X86277506Y-67612382D01*
X86277506Y-67612382D02*
X86182268Y-67564763D01*
X86182268Y-67564763D02*
X85944173Y-67564763D01*
X85944173Y-67564763D02*
X85801316Y-67612382D01*
X85372744Y-68564763D02*
X85372744Y-67564763D01*
X85372744Y-67564763D02*
X84991792Y-67564763D01*
X84991792Y-67564763D02*
X84896554Y-67612382D01*
X84896554Y-67612382D02*
X84848935Y-67660001D01*
X84848935Y-67660001D02*
X84801316Y-67755239D01*
X84801316Y-67755239D02*
X84801316Y-67898096D01*
X84801316Y-67898096D02*
X84848935Y-67993334D01*
X84848935Y-67993334D02*
X84896554Y-68040953D01*
X84896554Y-68040953D02*
X84991792Y-68088572D01*
X84991792Y-68088572D02*
X85372744Y-68088572D01*
X83801316Y-68564763D02*
X84134649Y-68088572D01*
X84372744Y-68564763D02*
X84372744Y-67564763D01*
X84372744Y-67564763D02*
X83991792Y-67564763D01*
X83991792Y-67564763D02*
X83896554Y-67612382D01*
X83896554Y-67612382D02*
X83848935Y-67660001D01*
X83848935Y-67660001D02*
X83801316Y-67755239D01*
X83801316Y-67755239D02*
X83801316Y-67898096D01*
X83801316Y-67898096D02*
X83848935Y-67993334D01*
X83848935Y-67993334D02*
X83896554Y-68040953D01*
X83896554Y-68040953D02*
X83991792Y-68088572D01*
X83991792Y-68088572D02*
X84372744Y-68088572D01*
X83372744Y-68040953D02*
X83039411Y-68040953D01*
X82896554Y-68564763D02*
X83372744Y-68564763D01*
X83372744Y-68564763D02*
X83372744Y-67564763D01*
X83372744Y-67564763D02*
X82896554Y-67564763D01*
X82515601Y-68279048D02*
X82039411Y-68279048D01*
X82610839Y-68564763D02*
X82277506Y-67564763D01*
X82277506Y-67564763D02*
X81944173Y-68564763D01*
X81610839Y-68564763D02*
X81610839Y-67564763D01*
X81610839Y-67564763D02*
X81372744Y-67564763D01*
X81372744Y-67564763D02*
X81229887Y-67612382D01*
X81229887Y-67612382D02*
X81134649Y-67707620D01*
X81134649Y-67707620D02*
X81087030Y-67802858D01*
X81087030Y-67802858D02*
X81039411Y-67993334D01*
X81039411Y-67993334D02*
X81039411Y-68136191D01*
X81039411Y-68136191D02*
X81087030Y-68326667D01*
X81087030Y-68326667D02*
X81134649Y-68421905D01*
X81134649Y-68421905D02*
X81229887Y-68517144D01*
X81229887Y-68517144D02*
X81372744Y-68564763D01*
X81372744Y-68564763D02*
X81610839Y-68564763D01*
D11*
X135504133Y-54823147D02*
X133956514Y-54823147D01*
X133956514Y-54823147D02*
X134789847Y-55775528D01*
X134789847Y-55775528D02*
X134432704Y-55775528D01*
X134432704Y-55775528D02*
X134194609Y-55894576D01*
X134194609Y-55894576D02*
X134075561Y-56013623D01*
X134075561Y-56013623D02*
X133956514Y-56251719D01*
X133956514Y-56251719D02*
X133956514Y-56846957D01*
X133956514Y-56846957D02*
X134075561Y-57085052D01*
X134075561Y-57085052D02*
X134194609Y-57204100D01*
X134194609Y-57204100D02*
X134432704Y-57323147D01*
X134432704Y-57323147D02*
X135146990Y-57323147D01*
X135146990Y-57323147D02*
X135385085Y-57204100D01*
X135385085Y-57204100D02*
X135504133Y-57085052D01*
X108003885Y-54705642D02*
X107884837Y-54586595D01*
X107884837Y-54586595D02*
X107646742Y-54467547D01*
X107646742Y-54467547D02*
X107051504Y-54467547D01*
X107051504Y-54467547D02*
X106813409Y-54586595D01*
X106813409Y-54586595D02*
X106694361Y-54705642D01*
X106694361Y-54705642D02*
X106575314Y-54943738D01*
X106575314Y-54943738D02*
X106575314Y-55181833D01*
X106575314Y-55181833D02*
X106694361Y-55538976D01*
X106694361Y-55538976D02*
X108122933Y-56967547D01*
X108122933Y-56967547D02*
X106575314Y-56967547D01*
D10*
X103099999Y-65481009D02*
X102766666Y-65481009D01*
X102623809Y-66004819D02*
X103099999Y-66004819D01*
X103099999Y-66004819D02*
X103099999Y-65004819D01*
X103099999Y-65004819D02*
X102623809Y-65004819D01*
X101671428Y-66004819D02*
X102242856Y-66004819D01*
X101957142Y-66004819D02*
X101957142Y-65004819D01*
X101957142Y-65004819D02*
X102052380Y-65147676D01*
X102052380Y-65147676D02*
X102147618Y-65242914D01*
X102147618Y-65242914D02*
X102242856Y-65290533D01*
X100480951Y-65481009D02*
X100147618Y-65481009D01*
X100004761Y-66004819D02*
X100480951Y-66004819D01*
X100480951Y-66004819D02*
X100480951Y-65004819D01*
X100480951Y-65004819D02*
X100004761Y-65004819D01*
X99623808Y-65100057D02*
X99576189Y-65052438D01*
X99576189Y-65052438D02*
X99480951Y-65004819D01*
X99480951Y-65004819D02*
X99242856Y-65004819D01*
X99242856Y-65004819D02*
X99147618Y-65052438D01*
X99147618Y-65052438D02*
X99099999Y-65100057D01*
X99099999Y-65100057D02*
X99052380Y-65195295D01*
X99052380Y-65195295D02*
X99052380Y-65290533D01*
X99052380Y-65290533D02*
X99099999Y-65433390D01*
X99099999Y-65433390D02*
X99671427Y-66004819D01*
X99671427Y-66004819D02*
X99052380Y-66004819D01*
X142590478Y-67326037D02*
X142923811Y-67326037D01*
X142923811Y-67849847D02*
X142923811Y-66849847D01*
X142923811Y-66849847D02*
X142447621Y-66849847D01*
X141923811Y-67849847D02*
X142019049Y-67802228D01*
X142019049Y-67802228D02*
X142066668Y-67754608D01*
X142066668Y-67754608D02*
X142114287Y-67659370D01*
X142114287Y-67659370D02*
X142114287Y-67373656D01*
X142114287Y-67373656D02*
X142066668Y-67278418D01*
X142066668Y-67278418D02*
X142019049Y-67230799D01*
X142019049Y-67230799D02*
X141923811Y-67183180D01*
X141923811Y-67183180D02*
X141780954Y-67183180D01*
X141780954Y-67183180D02*
X141685716Y-67230799D01*
X141685716Y-67230799D02*
X141638097Y-67278418D01*
X141638097Y-67278418D02*
X141590478Y-67373656D01*
X141590478Y-67373656D02*
X141590478Y-67659370D01*
X141590478Y-67659370D02*
X141638097Y-67754608D01*
X141638097Y-67754608D02*
X141685716Y-67802228D01*
X141685716Y-67802228D02*
X141780954Y-67849847D01*
X141780954Y-67849847D02*
X141923811Y-67849847D01*
X141161906Y-67849847D02*
X141161906Y-67183180D01*
X141161906Y-67373656D02*
X141114287Y-67278418D01*
X141114287Y-67278418D02*
X141066668Y-67230799D01*
X141066668Y-67230799D02*
X140971430Y-67183180D01*
X140971430Y-67183180D02*
X140876192Y-67183180D01*
X139780953Y-66849847D02*
X139780953Y-67659370D01*
X139780953Y-67659370D02*
X139733334Y-67754608D01*
X139733334Y-67754608D02*
X139685715Y-67802228D01*
X139685715Y-67802228D02*
X139590477Y-67849847D01*
X139590477Y-67849847D02*
X139400001Y-67849847D01*
X139400001Y-67849847D02*
X139304763Y-67802228D01*
X139304763Y-67802228D02*
X139257144Y-67754608D01*
X139257144Y-67754608D02*
X139209525Y-67659370D01*
X139209525Y-67659370D02*
X139209525Y-66849847D01*
X138780953Y-67564132D02*
X138304763Y-67564132D01*
X138876191Y-67849847D02*
X138542858Y-66849847D01*
X138542858Y-66849847D02*
X138209525Y-67849847D01*
X137304763Y-67849847D02*
X137638096Y-67373656D01*
X137876191Y-67849847D02*
X137876191Y-66849847D01*
X137876191Y-66849847D02*
X137495239Y-66849847D01*
X137495239Y-66849847D02*
X137400001Y-66897466D01*
X137400001Y-66897466D02*
X137352382Y-66945085D01*
X137352382Y-66945085D02*
X137304763Y-67040323D01*
X137304763Y-67040323D02*
X137304763Y-67183180D01*
X137304763Y-67183180D02*
X137352382Y-67278418D01*
X137352382Y-67278418D02*
X137400001Y-67326037D01*
X137400001Y-67326037D02*
X137495239Y-67373656D01*
X137495239Y-67373656D02*
X137876191Y-67373656D01*
X137019048Y-66849847D02*
X136447620Y-66849847D01*
X136733334Y-67849847D02*
X136733334Y-66849847D01*
X135400000Y-67802228D02*
X135304762Y-67849847D01*
X135304762Y-67849847D02*
X135114286Y-67849847D01*
X135114286Y-67849847D02*
X135019048Y-67802228D01*
X135019048Y-67802228D02*
X134971429Y-67706989D01*
X134971429Y-67706989D02*
X134971429Y-67659370D01*
X134971429Y-67659370D02*
X135019048Y-67564132D01*
X135019048Y-67564132D02*
X135114286Y-67516513D01*
X135114286Y-67516513D02*
X135257143Y-67516513D01*
X135257143Y-67516513D02*
X135352381Y-67468894D01*
X135352381Y-67468894D02*
X135400000Y-67373656D01*
X135400000Y-67373656D02*
X135400000Y-67326037D01*
X135400000Y-67326037D02*
X135352381Y-67230799D01*
X135352381Y-67230799D02*
X135257143Y-67183180D01*
X135257143Y-67183180D02*
X135114286Y-67183180D01*
X135114286Y-67183180D02*
X135019048Y-67230799D01*
X134400000Y-67849847D02*
X134495238Y-67802228D01*
X134495238Y-67802228D02*
X134542857Y-67754608D01*
X134542857Y-67754608D02*
X134590476Y-67659370D01*
X134590476Y-67659370D02*
X134590476Y-67373656D01*
X134590476Y-67373656D02*
X134542857Y-67278418D01*
X134542857Y-67278418D02*
X134495238Y-67230799D01*
X134495238Y-67230799D02*
X134400000Y-67183180D01*
X134400000Y-67183180D02*
X134257143Y-67183180D01*
X134257143Y-67183180D02*
X134161905Y-67230799D01*
X134161905Y-67230799D02*
X134114286Y-67278418D01*
X134114286Y-67278418D02*
X134066667Y-67373656D01*
X134066667Y-67373656D02*
X134066667Y-67659370D01*
X134066667Y-67659370D02*
X134114286Y-67754608D01*
X134114286Y-67754608D02*
X134161905Y-67802228D01*
X134161905Y-67802228D02*
X134257143Y-67849847D01*
X134257143Y-67849847D02*
X134400000Y-67849847D01*
X133495238Y-67849847D02*
X133590476Y-67802228D01*
X133590476Y-67802228D02*
X133638095Y-67706989D01*
X133638095Y-67706989D02*
X133638095Y-66849847D01*
X132685714Y-67849847D02*
X132685714Y-66849847D01*
X132685714Y-67802228D02*
X132780952Y-67849847D01*
X132780952Y-67849847D02*
X132971428Y-67849847D01*
X132971428Y-67849847D02*
X133066666Y-67802228D01*
X133066666Y-67802228D02*
X133114285Y-67754608D01*
X133114285Y-67754608D02*
X133161904Y-67659370D01*
X133161904Y-67659370D02*
X133161904Y-67373656D01*
X133161904Y-67373656D02*
X133114285Y-67278418D01*
X133114285Y-67278418D02*
X133066666Y-67230799D01*
X133066666Y-67230799D02*
X132971428Y-67183180D01*
X132971428Y-67183180D02*
X132780952Y-67183180D01*
X132780952Y-67183180D02*
X132685714Y-67230799D01*
X131828571Y-67802228D02*
X131923809Y-67849847D01*
X131923809Y-67849847D02*
X132114285Y-67849847D01*
X132114285Y-67849847D02*
X132209523Y-67802228D01*
X132209523Y-67802228D02*
X132257142Y-67706989D01*
X132257142Y-67706989D02*
X132257142Y-67326037D01*
X132257142Y-67326037D02*
X132209523Y-67230799D01*
X132209523Y-67230799D02*
X132114285Y-67183180D01*
X132114285Y-67183180D02*
X131923809Y-67183180D01*
X131923809Y-67183180D02*
X131828571Y-67230799D01*
X131828571Y-67230799D02*
X131780952Y-67326037D01*
X131780952Y-67326037D02*
X131780952Y-67421275D01*
X131780952Y-67421275D02*
X132257142Y-67516513D01*
X131352380Y-67849847D02*
X131352380Y-67183180D01*
X131352380Y-67373656D02*
X131304761Y-67278418D01*
X131304761Y-67278418D02*
X131257142Y-67230799D01*
X131257142Y-67230799D02*
X131161904Y-67183180D01*
X131161904Y-67183180D02*
X131066666Y-67183180D01*
X129971427Y-67849847D02*
X129971427Y-66849847D01*
X129971427Y-66849847D02*
X129733332Y-66849847D01*
X129733332Y-66849847D02*
X129590475Y-66897466D01*
X129590475Y-66897466D02*
X129495237Y-66992704D01*
X129495237Y-66992704D02*
X129447618Y-67087942D01*
X129447618Y-67087942D02*
X129399999Y-67278418D01*
X129399999Y-67278418D02*
X129399999Y-67421275D01*
X129399999Y-67421275D02*
X129447618Y-67611751D01*
X129447618Y-67611751D02*
X129495237Y-67706989D01*
X129495237Y-67706989D02*
X129590475Y-67802228D01*
X129590475Y-67802228D02*
X129733332Y-67849847D01*
X129733332Y-67849847D02*
X129971427Y-67849847D01*
X128447618Y-67849847D02*
X129019046Y-67849847D01*
X128733332Y-67849847D02*
X128733332Y-66849847D01*
X128733332Y-66849847D02*
X128828570Y-66992704D01*
X128828570Y-66992704D02*
X128923808Y-67087942D01*
X128923808Y-67087942D02*
X129019046Y-67135561D01*
X127971427Y-67802228D02*
X127971427Y-67849847D01*
X127971427Y-67849847D02*
X128019046Y-67945085D01*
X128019046Y-67945085D02*
X128066665Y-67992704D01*
X126780951Y-67326037D02*
X126447618Y-67326037D01*
X126304761Y-67849847D02*
X126780951Y-67849847D01*
X126780951Y-67849847D02*
X126780951Y-66849847D01*
X126780951Y-66849847D02*
X126304761Y-66849847D01*
X125352380Y-67849847D02*
X125923808Y-67849847D01*
X125638094Y-67849847D02*
X125638094Y-66849847D01*
X125638094Y-66849847D02*
X125733332Y-66992704D01*
X125733332Y-66992704D02*
X125828570Y-67087942D01*
X125828570Y-67087942D02*
X125923808Y-67135561D01*
X123733332Y-67849847D02*
X123733332Y-67326037D01*
X123733332Y-67326037D02*
X123780951Y-67230799D01*
X123780951Y-67230799D02*
X123876189Y-67183180D01*
X123876189Y-67183180D02*
X124066665Y-67183180D01*
X124066665Y-67183180D02*
X124161903Y-67230799D01*
X123733332Y-67802228D02*
X123828570Y-67849847D01*
X123828570Y-67849847D02*
X124066665Y-67849847D01*
X124066665Y-67849847D02*
X124161903Y-67802228D01*
X124161903Y-67802228D02*
X124209522Y-67706989D01*
X124209522Y-67706989D02*
X124209522Y-67611751D01*
X124209522Y-67611751D02*
X124161903Y-67516513D01*
X124161903Y-67516513D02*
X124066665Y-67468894D01*
X124066665Y-67468894D02*
X123828570Y-67468894D01*
X123828570Y-67468894D02*
X123733332Y-67421275D01*
X123257141Y-67183180D02*
X123257141Y-67849847D01*
X123257141Y-67278418D02*
X123209522Y-67230799D01*
X123209522Y-67230799D02*
X123114284Y-67183180D01*
X123114284Y-67183180D02*
X122971427Y-67183180D01*
X122971427Y-67183180D02*
X122876189Y-67230799D01*
X122876189Y-67230799D02*
X122828570Y-67326037D01*
X122828570Y-67326037D02*
X122828570Y-67849847D01*
X121923808Y-67849847D02*
X121923808Y-66849847D01*
X121923808Y-67802228D02*
X122019046Y-67849847D01*
X122019046Y-67849847D02*
X122209522Y-67849847D01*
X122209522Y-67849847D02*
X122304760Y-67802228D01*
X122304760Y-67802228D02*
X122352379Y-67754608D01*
X122352379Y-67754608D02*
X122399998Y-67659370D01*
X122399998Y-67659370D02*
X122399998Y-67373656D01*
X122399998Y-67373656D02*
X122352379Y-67278418D01*
X122352379Y-67278418D02*
X122304760Y-67230799D01*
X122304760Y-67230799D02*
X122209522Y-67183180D01*
X122209522Y-67183180D02*
X122019046Y-67183180D01*
X122019046Y-67183180D02*
X121923808Y-67230799D01*
X120257141Y-67849847D02*
X120257141Y-67326037D01*
X120257141Y-67326037D02*
X120304760Y-67230799D01*
X120304760Y-67230799D02*
X120399998Y-67183180D01*
X120399998Y-67183180D02*
X120590474Y-67183180D01*
X120590474Y-67183180D02*
X120685712Y-67230799D01*
X120257141Y-67802228D02*
X120352379Y-67849847D01*
X120352379Y-67849847D02*
X120590474Y-67849847D01*
X120590474Y-67849847D02*
X120685712Y-67802228D01*
X120685712Y-67802228D02*
X120733331Y-67706989D01*
X120733331Y-67706989D02*
X120733331Y-67611751D01*
X120733331Y-67611751D02*
X120685712Y-67516513D01*
X120685712Y-67516513D02*
X120590474Y-67468894D01*
X120590474Y-67468894D02*
X120352379Y-67468894D01*
X120352379Y-67468894D02*
X120257141Y-67421275D01*
X119352379Y-67849847D02*
X119352379Y-66849847D01*
X119352379Y-67802228D02*
X119447617Y-67849847D01*
X119447617Y-67849847D02*
X119638093Y-67849847D01*
X119638093Y-67849847D02*
X119733331Y-67802228D01*
X119733331Y-67802228D02*
X119780950Y-67754608D01*
X119780950Y-67754608D02*
X119828569Y-67659370D01*
X119828569Y-67659370D02*
X119828569Y-67373656D01*
X119828569Y-67373656D02*
X119780950Y-67278418D01*
X119780950Y-67278418D02*
X119733331Y-67230799D01*
X119733331Y-67230799D02*
X119638093Y-67183180D01*
X119638093Y-67183180D02*
X119447617Y-67183180D01*
X119447617Y-67183180D02*
X119352379Y-67230799D01*
X118447617Y-67849847D02*
X118447617Y-66849847D01*
X118447617Y-67802228D02*
X118542855Y-67849847D01*
X118542855Y-67849847D02*
X118733331Y-67849847D01*
X118733331Y-67849847D02*
X118828569Y-67802228D01*
X118828569Y-67802228D02*
X118876188Y-67754608D01*
X118876188Y-67754608D02*
X118923807Y-67659370D01*
X118923807Y-67659370D02*
X118923807Y-67373656D01*
X118923807Y-67373656D02*
X118876188Y-67278418D01*
X118876188Y-67278418D02*
X118828569Y-67230799D01*
X118828569Y-67230799D02*
X118733331Y-67183180D01*
X118733331Y-67183180D02*
X118542855Y-67183180D01*
X118542855Y-67183180D02*
X118447617Y-67230799D01*
X117971426Y-67849847D02*
X117971426Y-67183180D01*
X117971426Y-67373656D02*
X117923807Y-67278418D01*
X117923807Y-67278418D02*
X117876188Y-67230799D01*
X117876188Y-67230799D02*
X117780950Y-67183180D01*
X117780950Y-67183180D02*
X117685712Y-67183180D01*
X116971426Y-67802228D02*
X117066664Y-67849847D01*
X117066664Y-67849847D02*
X117257140Y-67849847D01*
X117257140Y-67849847D02*
X117352378Y-67802228D01*
X117352378Y-67802228D02*
X117399997Y-67706989D01*
X117399997Y-67706989D02*
X117399997Y-67326037D01*
X117399997Y-67326037D02*
X117352378Y-67230799D01*
X117352378Y-67230799D02*
X117257140Y-67183180D01*
X117257140Y-67183180D02*
X117066664Y-67183180D01*
X117066664Y-67183180D02*
X116971426Y-67230799D01*
X116971426Y-67230799D02*
X116923807Y-67326037D01*
X116923807Y-67326037D02*
X116923807Y-67421275D01*
X116923807Y-67421275D02*
X117399997Y-67516513D01*
X116542854Y-67802228D02*
X116447616Y-67849847D01*
X116447616Y-67849847D02*
X116257140Y-67849847D01*
X116257140Y-67849847D02*
X116161902Y-67802228D01*
X116161902Y-67802228D02*
X116114283Y-67706989D01*
X116114283Y-67706989D02*
X116114283Y-67659370D01*
X116114283Y-67659370D02*
X116161902Y-67564132D01*
X116161902Y-67564132D02*
X116257140Y-67516513D01*
X116257140Y-67516513D02*
X116399997Y-67516513D01*
X116399997Y-67516513D02*
X116495235Y-67468894D01*
X116495235Y-67468894D02*
X116542854Y-67373656D01*
X116542854Y-67373656D02*
X116542854Y-67326037D01*
X116542854Y-67326037D02*
X116495235Y-67230799D01*
X116495235Y-67230799D02*
X116399997Y-67183180D01*
X116399997Y-67183180D02*
X116257140Y-67183180D01*
X116257140Y-67183180D02*
X116161902Y-67230799D01*
X115733330Y-67802228D02*
X115638092Y-67849847D01*
X115638092Y-67849847D02*
X115447616Y-67849847D01*
X115447616Y-67849847D02*
X115352378Y-67802228D01*
X115352378Y-67802228D02*
X115304759Y-67706989D01*
X115304759Y-67706989D02*
X115304759Y-67659370D01*
X115304759Y-67659370D02*
X115352378Y-67564132D01*
X115352378Y-67564132D02*
X115447616Y-67516513D01*
X115447616Y-67516513D02*
X115590473Y-67516513D01*
X115590473Y-67516513D02*
X115685711Y-67468894D01*
X115685711Y-67468894D02*
X115733330Y-67373656D01*
X115733330Y-67373656D02*
X115733330Y-67326037D01*
X115733330Y-67326037D02*
X115685711Y-67230799D01*
X115685711Y-67230799D02*
X115590473Y-67183180D01*
X115590473Y-67183180D02*
X115447616Y-67183180D01*
X115447616Y-67183180D02*
X115352378Y-67230799D01*
X114876187Y-67754608D02*
X114828568Y-67802228D01*
X114828568Y-67802228D02*
X114876187Y-67849847D01*
X114876187Y-67849847D02*
X114923806Y-67802228D01*
X114923806Y-67802228D02*
X114876187Y-67754608D01*
X114876187Y-67754608D02*
X114876187Y-67849847D01*
X143185715Y-68935981D02*
X143519048Y-68935981D01*
X143519048Y-69459791D02*
X143519048Y-68459791D01*
X143519048Y-68459791D02*
X143042858Y-68459791D01*
X142519048Y-69459791D02*
X142614286Y-69412172D01*
X142614286Y-69412172D02*
X142661905Y-69364552D01*
X142661905Y-69364552D02*
X142709524Y-69269314D01*
X142709524Y-69269314D02*
X142709524Y-68983600D01*
X142709524Y-68983600D02*
X142661905Y-68888362D01*
X142661905Y-68888362D02*
X142614286Y-68840743D01*
X142614286Y-68840743D02*
X142519048Y-68793124D01*
X142519048Y-68793124D02*
X142376191Y-68793124D01*
X142376191Y-68793124D02*
X142280953Y-68840743D01*
X142280953Y-68840743D02*
X142233334Y-68888362D01*
X142233334Y-68888362D02*
X142185715Y-68983600D01*
X142185715Y-68983600D02*
X142185715Y-69269314D01*
X142185715Y-69269314D02*
X142233334Y-69364552D01*
X142233334Y-69364552D02*
X142280953Y-69412172D01*
X142280953Y-69412172D02*
X142376191Y-69459791D01*
X142376191Y-69459791D02*
X142519048Y-69459791D01*
X141757143Y-69459791D02*
X141757143Y-68793124D01*
X141757143Y-68983600D02*
X141709524Y-68888362D01*
X141709524Y-68888362D02*
X141661905Y-68840743D01*
X141661905Y-68840743D02*
X141566667Y-68793124D01*
X141566667Y-68793124D02*
X141471429Y-68793124D01*
X140423809Y-69412172D02*
X140280952Y-69459791D01*
X140280952Y-69459791D02*
X140042857Y-69459791D01*
X140042857Y-69459791D02*
X139947619Y-69412172D01*
X139947619Y-69412172D02*
X139900000Y-69364552D01*
X139900000Y-69364552D02*
X139852381Y-69269314D01*
X139852381Y-69269314D02*
X139852381Y-69174076D01*
X139852381Y-69174076D02*
X139900000Y-69078838D01*
X139900000Y-69078838D02*
X139947619Y-69031219D01*
X139947619Y-69031219D02*
X140042857Y-68983600D01*
X140042857Y-68983600D02*
X140233333Y-68935981D01*
X140233333Y-68935981D02*
X140328571Y-68888362D01*
X140328571Y-68888362D02*
X140376190Y-68840743D01*
X140376190Y-68840743D02*
X140423809Y-68745505D01*
X140423809Y-68745505D02*
X140423809Y-68650267D01*
X140423809Y-68650267D02*
X140376190Y-68555029D01*
X140376190Y-68555029D02*
X140328571Y-68507410D01*
X140328571Y-68507410D02*
X140233333Y-68459791D01*
X140233333Y-68459791D02*
X139995238Y-68459791D01*
X139995238Y-68459791D02*
X139852381Y-68507410D01*
X139423809Y-69459791D02*
X139423809Y-68459791D01*
X139423809Y-68459791D02*
X139042857Y-68459791D01*
X139042857Y-68459791D02*
X138947619Y-68507410D01*
X138947619Y-68507410D02*
X138900000Y-68555029D01*
X138900000Y-68555029D02*
X138852381Y-68650267D01*
X138852381Y-68650267D02*
X138852381Y-68793124D01*
X138852381Y-68793124D02*
X138900000Y-68888362D01*
X138900000Y-68888362D02*
X138947619Y-68935981D01*
X138947619Y-68935981D02*
X139042857Y-68983600D01*
X139042857Y-68983600D02*
X139423809Y-68983600D01*
X138423809Y-69459791D02*
X138423809Y-68459791D01*
X137233333Y-69412172D02*
X137138095Y-69459791D01*
X137138095Y-69459791D02*
X136947619Y-69459791D01*
X136947619Y-69459791D02*
X136852381Y-69412172D01*
X136852381Y-69412172D02*
X136804762Y-69316933D01*
X136804762Y-69316933D02*
X136804762Y-69269314D01*
X136804762Y-69269314D02*
X136852381Y-69174076D01*
X136852381Y-69174076D02*
X136947619Y-69126457D01*
X136947619Y-69126457D02*
X137090476Y-69126457D01*
X137090476Y-69126457D02*
X137185714Y-69078838D01*
X137185714Y-69078838D02*
X137233333Y-68983600D01*
X137233333Y-68983600D02*
X137233333Y-68935981D01*
X137233333Y-68935981D02*
X137185714Y-68840743D01*
X137185714Y-68840743D02*
X137090476Y-68793124D01*
X137090476Y-68793124D02*
X136947619Y-68793124D01*
X136947619Y-68793124D02*
X136852381Y-68840743D01*
X136233333Y-69459791D02*
X136328571Y-69412172D01*
X136328571Y-69412172D02*
X136376190Y-69364552D01*
X136376190Y-69364552D02*
X136423809Y-69269314D01*
X136423809Y-69269314D02*
X136423809Y-68983600D01*
X136423809Y-68983600D02*
X136376190Y-68888362D01*
X136376190Y-68888362D02*
X136328571Y-68840743D01*
X136328571Y-68840743D02*
X136233333Y-68793124D01*
X136233333Y-68793124D02*
X136090476Y-68793124D01*
X136090476Y-68793124D02*
X135995238Y-68840743D01*
X135995238Y-68840743D02*
X135947619Y-68888362D01*
X135947619Y-68888362D02*
X135900000Y-68983600D01*
X135900000Y-68983600D02*
X135900000Y-69269314D01*
X135900000Y-69269314D02*
X135947619Y-69364552D01*
X135947619Y-69364552D02*
X135995238Y-69412172D01*
X135995238Y-69412172D02*
X136090476Y-69459791D01*
X136090476Y-69459791D02*
X136233333Y-69459791D01*
X135328571Y-69459791D02*
X135423809Y-69412172D01*
X135423809Y-69412172D02*
X135471428Y-69316933D01*
X135471428Y-69316933D02*
X135471428Y-68459791D01*
X134519047Y-69459791D02*
X134519047Y-68459791D01*
X134519047Y-69412172D02*
X134614285Y-69459791D01*
X134614285Y-69459791D02*
X134804761Y-69459791D01*
X134804761Y-69459791D02*
X134899999Y-69412172D01*
X134899999Y-69412172D02*
X134947618Y-69364552D01*
X134947618Y-69364552D02*
X134995237Y-69269314D01*
X134995237Y-69269314D02*
X134995237Y-68983600D01*
X134995237Y-68983600D02*
X134947618Y-68888362D01*
X134947618Y-68888362D02*
X134899999Y-68840743D01*
X134899999Y-68840743D02*
X134804761Y-68793124D01*
X134804761Y-68793124D02*
X134614285Y-68793124D01*
X134614285Y-68793124D02*
X134519047Y-68840743D01*
X133661904Y-69412172D02*
X133757142Y-69459791D01*
X133757142Y-69459791D02*
X133947618Y-69459791D01*
X133947618Y-69459791D02*
X134042856Y-69412172D01*
X134042856Y-69412172D02*
X134090475Y-69316933D01*
X134090475Y-69316933D02*
X134090475Y-68935981D01*
X134090475Y-68935981D02*
X134042856Y-68840743D01*
X134042856Y-68840743D02*
X133947618Y-68793124D01*
X133947618Y-68793124D02*
X133757142Y-68793124D01*
X133757142Y-68793124D02*
X133661904Y-68840743D01*
X133661904Y-68840743D02*
X133614285Y-68935981D01*
X133614285Y-68935981D02*
X133614285Y-69031219D01*
X133614285Y-69031219D02*
X134090475Y-69126457D01*
X133185713Y-69459791D02*
X133185713Y-68793124D01*
X133185713Y-68983600D02*
X133138094Y-68888362D01*
X133138094Y-68888362D02*
X133090475Y-68840743D01*
X133090475Y-68840743D02*
X132995237Y-68793124D01*
X132995237Y-68793124D02*
X132899999Y-68793124D01*
X131804760Y-69459791D02*
X131804760Y-68459791D01*
X131804760Y-68459791D02*
X131566665Y-68459791D01*
X131566665Y-68459791D02*
X131423808Y-68507410D01*
X131423808Y-68507410D02*
X131328570Y-68602648D01*
X131328570Y-68602648D02*
X131280951Y-68697886D01*
X131280951Y-68697886D02*
X131233332Y-68888362D01*
X131233332Y-68888362D02*
X131233332Y-69031219D01*
X131233332Y-69031219D02*
X131280951Y-69221695D01*
X131280951Y-69221695D02*
X131328570Y-69316933D01*
X131328570Y-69316933D02*
X131423808Y-69412172D01*
X131423808Y-69412172D02*
X131566665Y-69459791D01*
X131566665Y-69459791D02*
X131804760Y-69459791D01*
X130852379Y-68555029D02*
X130804760Y-68507410D01*
X130804760Y-68507410D02*
X130709522Y-68459791D01*
X130709522Y-68459791D02*
X130471427Y-68459791D01*
X130471427Y-68459791D02*
X130376189Y-68507410D01*
X130376189Y-68507410D02*
X130328570Y-68555029D01*
X130328570Y-68555029D02*
X130280951Y-68650267D01*
X130280951Y-68650267D02*
X130280951Y-68745505D01*
X130280951Y-68745505D02*
X130328570Y-68888362D01*
X130328570Y-68888362D02*
X130899998Y-69459791D01*
X130899998Y-69459791D02*
X130280951Y-69459791D01*
X129804760Y-69412172D02*
X129804760Y-69459791D01*
X129804760Y-69459791D02*
X129852379Y-69555029D01*
X129852379Y-69555029D02*
X129899998Y-69602648D01*
X128614284Y-68935981D02*
X128280951Y-68935981D01*
X128138094Y-69459791D02*
X128614284Y-69459791D01*
X128614284Y-69459791D02*
X128614284Y-68459791D01*
X128614284Y-68459791D02*
X128138094Y-68459791D01*
X127185713Y-69459791D02*
X127757141Y-69459791D01*
X127471427Y-69459791D02*
X127471427Y-68459791D01*
X127471427Y-68459791D02*
X127566665Y-68602648D01*
X127566665Y-68602648D02*
X127661903Y-68697886D01*
X127661903Y-68697886D02*
X127757141Y-68745505D01*
X126709522Y-69412172D02*
X126709522Y-69459791D01*
X126709522Y-69459791D02*
X126757141Y-69555029D01*
X126757141Y-69555029D02*
X126804760Y-69602648D01*
X125185713Y-68935981D02*
X125519046Y-68935981D01*
X125519046Y-69459791D02*
X125519046Y-68459791D01*
X125519046Y-68459791D02*
X125042856Y-68459791D01*
X124138094Y-69459791D02*
X124709522Y-69459791D01*
X124423808Y-69459791D02*
X124423808Y-68459791D01*
X124423808Y-68459791D02*
X124519046Y-68602648D01*
X124519046Y-68602648D02*
X124614284Y-68697886D01*
X124614284Y-68697886D02*
X124709522Y-68745505D01*
X123661903Y-69412172D02*
X123661903Y-69459791D01*
X123661903Y-69459791D02*
X123709522Y-69555029D01*
X123709522Y-69555029D02*
X123757141Y-69602648D01*
X121947618Y-68507410D02*
X122042856Y-68459791D01*
X122042856Y-68459791D02*
X122185713Y-68459791D01*
X122185713Y-68459791D02*
X122328570Y-68507410D01*
X122328570Y-68507410D02*
X122423808Y-68602648D01*
X122423808Y-68602648D02*
X122471427Y-68697886D01*
X122471427Y-68697886D02*
X122519046Y-68888362D01*
X122519046Y-68888362D02*
X122519046Y-69031219D01*
X122519046Y-69031219D02*
X122471427Y-69221695D01*
X122471427Y-69221695D02*
X122423808Y-69316933D01*
X122423808Y-69316933D02*
X122328570Y-69412172D01*
X122328570Y-69412172D02*
X122185713Y-69459791D01*
X122185713Y-69459791D02*
X122090475Y-69459791D01*
X122090475Y-69459791D02*
X121947618Y-69412172D01*
X121947618Y-69412172D02*
X121899999Y-69364552D01*
X121899999Y-69364552D02*
X121899999Y-69031219D01*
X121899999Y-69031219D02*
X122090475Y-69031219D01*
X120947618Y-69459791D02*
X121519046Y-69459791D01*
X121233332Y-69459791D02*
X121233332Y-68459791D01*
X121233332Y-68459791D02*
X121328570Y-68602648D01*
X121328570Y-68602648D02*
X121423808Y-68697886D01*
X121423808Y-68697886D02*
X121519046Y-68745505D01*
X119328570Y-69459791D02*
X119328570Y-68935981D01*
X119328570Y-68935981D02*
X119376189Y-68840743D01*
X119376189Y-68840743D02*
X119471427Y-68793124D01*
X119471427Y-68793124D02*
X119661903Y-68793124D01*
X119661903Y-68793124D02*
X119757141Y-68840743D01*
X119328570Y-69412172D02*
X119423808Y-69459791D01*
X119423808Y-69459791D02*
X119661903Y-69459791D01*
X119661903Y-69459791D02*
X119757141Y-69412172D01*
X119757141Y-69412172D02*
X119804760Y-69316933D01*
X119804760Y-69316933D02*
X119804760Y-69221695D01*
X119804760Y-69221695D02*
X119757141Y-69126457D01*
X119757141Y-69126457D02*
X119661903Y-69078838D01*
X119661903Y-69078838D02*
X119423808Y-69078838D01*
X119423808Y-69078838D02*
X119328570Y-69031219D01*
X118852379Y-68793124D02*
X118852379Y-69459791D01*
X118852379Y-68888362D02*
X118804760Y-68840743D01*
X118804760Y-68840743D02*
X118709522Y-68793124D01*
X118709522Y-68793124D02*
X118566665Y-68793124D01*
X118566665Y-68793124D02*
X118471427Y-68840743D01*
X118471427Y-68840743D02*
X118423808Y-68935981D01*
X118423808Y-68935981D02*
X118423808Y-69459791D01*
X117519046Y-69459791D02*
X117519046Y-68459791D01*
X117519046Y-69412172D02*
X117614284Y-69459791D01*
X117614284Y-69459791D02*
X117804760Y-69459791D01*
X117804760Y-69459791D02*
X117899998Y-69412172D01*
X117899998Y-69412172D02*
X117947617Y-69364552D01*
X117947617Y-69364552D02*
X117995236Y-69269314D01*
X117995236Y-69269314D02*
X117995236Y-68983600D01*
X117995236Y-68983600D02*
X117947617Y-68888362D01*
X117947617Y-68888362D02*
X117899998Y-68840743D01*
X117899998Y-68840743D02*
X117804760Y-68793124D01*
X117804760Y-68793124D02*
X117614284Y-68793124D01*
X117614284Y-68793124D02*
X117519046Y-68840743D01*
X116280950Y-69459791D02*
X116280950Y-68459791D01*
X116280950Y-68935981D02*
X115709522Y-68935981D01*
X115709522Y-69459791D02*
X115709522Y-68459791D01*
X114709522Y-69459791D02*
X115280950Y-69459791D01*
X114995236Y-69459791D02*
X114995236Y-68459791D01*
X114995236Y-68459791D02*
X115090474Y-68602648D01*
X115090474Y-68602648D02*
X115185712Y-68697886D01*
X115185712Y-68697886D02*
X115280950Y-68745505D01*
X114280950Y-69364552D02*
X114233331Y-69412172D01*
X114233331Y-69412172D02*
X114280950Y-69459791D01*
X114280950Y-69459791D02*
X114328569Y-69412172D01*
X114328569Y-69412172D02*
X114280950Y-69364552D01*
X114280950Y-69364552D02*
X114280950Y-69459791D01*
D11*
X72610647Y-68691547D02*
X72372552Y-68691547D01*
X72372552Y-68691547D02*
X72134456Y-68810595D01*
X72134456Y-68810595D02*
X72015409Y-68929642D01*
X72015409Y-68929642D02*
X71896361Y-69167738D01*
X71896361Y-69167738D02*
X71777314Y-69643928D01*
X71777314Y-69643928D02*
X71777314Y-70239166D01*
X71777314Y-70239166D02*
X71896361Y-70715357D01*
X71896361Y-70715357D02*
X72015409Y-70953452D01*
X72015409Y-70953452D02*
X72134456Y-71072500D01*
X72134456Y-71072500D02*
X72372552Y-71191547D01*
X72372552Y-71191547D02*
X72610647Y-71191547D01*
X72610647Y-71191547D02*
X72848742Y-71072500D01*
X72848742Y-71072500D02*
X72967790Y-70953452D01*
X72967790Y-70953452D02*
X73086837Y-70715357D01*
X73086837Y-70715357D02*
X73205885Y-70239166D01*
X73205885Y-70239166D02*
X73205885Y-69643928D01*
X73205885Y-69643928D02*
X73086837Y-69167738D01*
X73086837Y-69167738D02*
X72967790Y-68929642D01*
X72967790Y-68929642D02*
X72848742Y-68810595D01*
X72848742Y-68810595D02*
X72610647Y-68691547D01*
D10*
X106890476Y-71009580D02*
X106938095Y-71057200D01*
X106938095Y-71057200D02*
X107080952Y-71104819D01*
X107080952Y-71104819D02*
X107176190Y-71104819D01*
X107176190Y-71104819D02*
X107319047Y-71057200D01*
X107319047Y-71057200D02*
X107414285Y-70961961D01*
X107414285Y-70961961D02*
X107461904Y-70866723D01*
X107461904Y-70866723D02*
X107509523Y-70676247D01*
X107509523Y-70676247D02*
X107509523Y-70533390D01*
X107509523Y-70533390D02*
X107461904Y-70342914D01*
X107461904Y-70342914D02*
X107414285Y-70247676D01*
X107414285Y-70247676D02*
X107319047Y-70152438D01*
X107319047Y-70152438D02*
X107176190Y-70104819D01*
X107176190Y-70104819D02*
X107080952Y-70104819D01*
X107080952Y-70104819D02*
X106938095Y-70152438D01*
X106938095Y-70152438D02*
X106890476Y-70200057D01*
X87885713Y-91154819D02*
X87885713Y-90154819D01*
X87885713Y-90154819D02*
X87552380Y-90869104D01*
X87552380Y-90869104D02*
X87219047Y-90154819D01*
X87219047Y-90154819D02*
X87219047Y-91154819D01*
X86790475Y-91107200D02*
X86647618Y-91154819D01*
X86647618Y-91154819D02*
X86409523Y-91154819D01*
X86409523Y-91154819D02*
X86314285Y-91107200D01*
X86314285Y-91107200D02*
X86266666Y-91059580D01*
X86266666Y-91059580D02*
X86219047Y-90964342D01*
X86219047Y-90964342D02*
X86219047Y-90869104D01*
X86219047Y-90869104D02*
X86266666Y-90773866D01*
X86266666Y-90773866D02*
X86314285Y-90726247D01*
X86314285Y-90726247D02*
X86409523Y-90678628D01*
X86409523Y-90678628D02*
X86599999Y-90631009D01*
X86599999Y-90631009D02*
X86695237Y-90583390D01*
X86695237Y-90583390D02*
X86742856Y-90535771D01*
X86742856Y-90535771D02*
X86790475Y-90440533D01*
X86790475Y-90440533D02*
X86790475Y-90345295D01*
X86790475Y-90345295D02*
X86742856Y-90250057D01*
X86742856Y-90250057D02*
X86695237Y-90202438D01*
X86695237Y-90202438D02*
X86599999Y-90154819D01*
X86599999Y-90154819D02*
X86361904Y-90154819D01*
X86361904Y-90154819D02*
X86219047Y-90202438D01*
X85266666Y-91154819D02*
X85838094Y-91154819D01*
X85552380Y-91154819D02*
X85552380Y-90154819D01*
X85552380Y-90154819D02*
X85647618Y-90297676D01*
X85647618Y-90297676D02*
X85742856Y-90392914D01*
X85742856Y-90392914D02*
X85838094Y-90440533D01*
X107128571Y-68881009D02*
X106985714Y-68928628D01*
X106985714Y-68928628D02*
X106938095Y-68976247D01*
X106938095Y-68976247D02*
X106890476Y-69071485D01*
X106890476Y-69071485D02*
X106890476Y-69214342D01*
X106890476Y-69214342D02*
X106938095Y-69309580D01*
X106938095Y-69309580D02*
X106985714Y-69357200D01*
X106985714Y-69357200D02*
X107080952Y-69404819D01*
X107080952Y-69404819D02*
X107461904Y-69404819D01*
X107461904Y-69404819D02*
X107461904Y-68404819D01*
X107461904Y-68404819D02*
X107128571Y-68404819D01*
X107128571Y-68404819D02*
X107033333Y-68452438D01*
X107033333Y-68452438D02*
X106985714Y-68500057D01*
X106985714Y-68500057D02*
X106938095Y-68595295D01*
X106938095Y-68595295D02*
X106938095Y-68690533D01*
X106938095Y-68690533D02*
X106985714Y-68785771D01*
X106985714Y-68785771D02*
X107033333Y-68833390D01*
X107033333Y-68833390D02*
X107128571Y-68881009D01*
X107128571Y-68881009D02*
X107461904Y-68881009D01*
X93861903Y-89354819D02*
X93861903Y-88354819D01*
X93861903Y-88354819D02*
X93528570Y-89069104D01*
X93528570Y-89069104D02*
X93195237Y-88354819D01*
X93195237Y-88354819D02*
X93195237Y-89354819D01*
X92528570Y-88354819D02*
X92338094Y-88354819D01*
X92338094Y-88354819D02*
X92242856Y-88402438D01*
X92242856Y-88402438D02*
X92147618Y-88497676D01*
X92147618Y-88497676D02*
X92099999Y-88688152D01*
X92099999Y-88688152D02*
X92099999Y-89021485D01*
X92099999Y-89021485D02*
X92147618Y-89211961D01*
X92147618Y-89211961D02*
X92242856Y-89307200D01*
X92242856Y-89307200D02*
X92338094Y-89354819D01*
X92338094Y-89354819D02*
X92528570Y-89354819D01*
X92528570Y-89354819D02*
X92623808Y-89307200D01*
X92623808Y-89307200D02*
X92719046Y-89211961D01*
X92719046Y-89211961D02*
X92766665Y-89021485D01*
X92766665Y-89021485D02*
X92766665Y-88688152D01*
X92766665Y-88688152D02*
X92719046Y-88497676D01*
X92719046Y-88497676D02*
X92623808Y-88402438D01*
X92623808Y-88402438D02*
X92528570Y-88354819D01*
X91719046Y-89307200D02*
X91576189Y-89354819D01*
X91576189Y-89354819D02*
X91338094Y-89354819D01*
X91338094Y-89354819D02*
X91242856Y-89307200D01*
X91242856Y-89307200D02*
X91195237Y-89259580D01*
X91195237Y-89259580D02*
X91147618Y-89164342D01*
X91147618Y-89164342D02*
X91147618Y-89069104D01*
X91147618Y-89069104D02*
X91195237Y-88973866D01*
X91195237Y-88973866D02*
X91242856Y-88926247D01*
X91242856Y-88926247D02*
X91338094Y-88878628D01*
X91338094Y-88878628D02*
X91528570Y-88831009D01*
X91528570Y-88831009D02*
X91623808Y-88783390D01*
X91623808Y-88783390D02*
X91671427Y-88735771D01*
X91671427Y-88735771D02*
X91719046Y-88640533D01*
X91719046Y-88640533D02*
X91719046Y-88545295D01*
X91719046Y-88545295D02*
X91671427Y-88450057D01*
X91671427Y-88450057D02*
X91623808Y-88402438D01*
X91623808Y-88402438D02*
X91528570Y-88354819D01*
X91528570Y-88354819D02*
X91290475Y-88354819D01*
X91290475Y-88354819D02*
X91147618Y-88402438D01*
X90719046Y-89354819D02*
X90719046Y-88354819D01*
X90242856Y-88973866D02*
X89480952Y-88973866D01*
X89004761Y-89354819D02*
X89004761Y-88354819D01*
X89004761Y-88831009D02*
X88433333Y-88831009D01*
X88433333Y-89354819D02*
X88433333Y-88354819D01*
X87433333Y-89354819D02*
X88004761Y-89354819D01*
X87719047Y-89354819D02*
X87719047Y-88354819D01*
X87719047Y-88354819D02*
X87814285Y-88497676D01*
X87814285Y-88497676D02*
X87909523Y-88592914D01*
X87909523Y-88592914D02*
X88004761Y-88640533D01*
X87004761Y-88973866D02*
X86242857Y-88973866D01*
X85766666Y-89354819D02*
X85766666Y-88354819D01*
X85766666Y-88831009D02*
X85195238Y-88831009D01*
X85195238Y-89354819D02*
X85195238Y-88354819D01*
X84766666Y-88450057D02*
X84719047Y-88402438D01*
X84719047Y-88402438D02*
X84623809Y-88354819D01*
X84623809Y-88354819D02*
X84385714Y-88354819D01*
X84385714Y-88354819D02*
X84290476Y-88402438D01*
X84290476Y-88402438D02*
X84242857Y-88450057D01*
X84242857Y-88450057D02*
X84195238Y-88545295D01*
X84195238Y-88545295D02*
X84195238Y-88640533D01*
X84195238Y-88640533D02*
X84242857Y-88783390D01*
X84242857Y-88783390D02*
X84814285Y-89354819D01*
X84814285Y-89354819D02*
X84195238Y-89354819D01*
X83766666Y-88973866D02*
X83004762Y-88973866D01*
X82623809Y-88354819D02*
X82004762Y-88354819D01*
X82004762Y-88354819D02*
X82338095Y-88735771D01*
X82338095Y-88735771D02*
X82195238Y-88735771D01*
X82195238Y-88735771D02*
X82100000Y-88783390D01*
X82100000Y-88783390D02*
X82052381Y-88831009D01*
X82052381Y-88831009D02*
X82004762Y-88926247D01*
X82004762Y-88926247D02*
X82004762Y-89164342D01*
X82004762Y-89164342D02*
X82052381Y-89259580D01*
X82052381Y-89259580D02*
X82100000Y-89307200D01*
X82100000Y-89307200D02*
X82195238Y-89354819D01*
X82195238Y-89354819D02*
X82480952Y-89354819D01*
X82480952Y-89354819D02*
X82576190Y-89307200D01*
X82576190Y-89307200D02*
X82623809Y-89259580D01*
X81671428Y-88688152D02*
X81433333Y-89354819D01*
X81433333Y-89354819D02*
X81195238Y-88688152D01*
X80909523Y-88354819D02*
X80290476Y-88354819D01*
X80290476Y-88354819D02*
X80623809Y-88735771D01*
X80623809Y-88735771D02*
X80480952Y-88735771D01*
X80480952Y-88735771D02*
X80385714Y-88783390D01*
X80385714Y-88783390D02*
X80338095Y-88831009D01*
X80338095Y-88831009D02*
X80290476Y-88926247D01*
X80290476Y-88926247D02*
X80290476Y-89164342D01*
X80290476Y-89164342D02*
X80338095Y-89259580D01*
X80338095Y-89259580D02*
X80385714Y-89307200D01*
X80385714Y-89307200D02*
X80480952Y-89354819D01*
X80480952Y-89354819D02*
X80766666Y-89354819D01*
X80766666Y-89354819D02*
X80861904Y-89307200D01*
X80861904Y-89307200D02*
X80909523Y-89259580D01*
X106842856Y-73104819D02*
X106842856Y-72104819D01*
X106842856Y-72581009D02*
X106271428Y-72581009D01*
X106271428Y-73104819D02*
X106271428Y-72104819D01*
X105271428Y-73104819D02*
X105842856Y-73104819D01*
X105557142Y-73104819D02*
X105557142Y-72104819D01*
X105557142Y-72104819D02*
X105652380Y-72247676D01*
X105652380Y-72247676D02*
X105747618Y-72342914D01*
X105747618Y-72342914D02*
X105842856Y-72390533D01*
X104080951Y-73104819D02*
X104080951Y-72104819D01*
X104080951Y-72581009D02*
X103509523Y-72581009D01*
X103509523Y-73104819D02*
X103509523Y-72104819D01*
X103080951Y-72200057D02*
X103033332Y-72152438D01*
X103033332Y-72152438D02*
X102938094Y-72104819D01*
X102938094Y-72104819D02*
X102699999Y-72104819D01*
X102699999Y-72104819D02*
X102604761Y-72152438D01*
X102604761Y-72152438D02*
X102557142Y-72200057D01*
X102557142Y-72200057D02*
X102509523Y-72295295D01*
X102509523Y-72295295D02*
X102509523Y-72390533D01*
X102509523Y-72390533D02*
X102557142Y-72533390D01*
X102557142Y-72533390D02*
X103128570Y-73104819D01*
X103128570Y-73104819D02*
X102509523Y-73104819D01*
X102671428Y-68552438D02*
X102766666Y-68504819D01*
X102766666Y-68504819D02*
X102909523Y-68504819D01*
X102909523Y-68504819D02*
X103052380Y-68552438D01*
X103052380Y-68552438D02*
X103147618Y-68647676D01*
X103147618Y-68647676D02*
X103195237Y-68742914D01*
X103195237Y-68742914D02*
X103242856Y-68933390D01*
X103242856Y-68933390D02*
X103242856Y-69076247D01*
X103242856Y-69076247D02*
X103195237Y-69266723D01*
X103195237Y-69266723D02*
X103147618Y-69361961D01*
X103147618Y-69361961D02*
X103052380Y-69457200D01*
X103052380Y-69457200D02*
X102909523Y-69504819D01*
X102909523Y-69504819D02*
X102814285Y-69504819D01*
X102814285Y-69504819D02*
X102671428Y-69457200D01*
X102671428Y-69457200D02*
X102623809Y-69409580D01*
X102623809Y-69409580D02*
X102623809Y-69076247D01*
X102623809Y-69076247D02*
X102814285Y-69076247D01*
X101671428Y-69504819D02*
X102242856Y-69504819D01*
X101957142Y-69504819D02*
X101957142Y-68504819D01*
X101957142Y-68504819D02*
X102052380Y-68647676D01*
X102052380Y-68647676D02*
X102147618Y-68742914D01*
X102147618Y-68742914D02*
X102242856Y-68790533D01*
X99957142Y-68552438D02*
X100052380Y-68504819D01*
X100052380Y-68504819D02*
X100195237Y-68504819D01*
X100195237Y-68504819D02*
X100338094Y-68552438D01*
X100338094Y-68552438D02*
X100433332Y-68647676D01*
X100433332Y-68647676D02*
X100480951Y-68742914D01*
X100480951Y-68742914D02*
X100528570Y-68933390D01*
X100528570Y-68933390D02*
X100528570Y-69076247D01*
X100528570Y-69076247D02*
X100480951Y-69266723D01*
X100480951Y-69266723D02*
X100433332Y-69361961D01*
X100433332Y-69361961D02*
X100338094Y-69457200D01*
X100338094Y-69457200D02*
X100195237Y-69504819D01*
X100195237Y-69504819D02*
X100099999Y-69504819D01*
X100099999Y-69504819D02*
X99957142Y-69457200D01*
X99957142Y-69457200D02*
X99909523Y-69409580D01*
X99909523Y-69409580D02*
X99909523Y-69076247D01*
X99909523Y-69076247D02*
X100099999Y-69076247D01*
X99528570Y-68600057D02*
X99480951Y-68552438D01*
X99480951Y-68552438D02*
X99385713Y-68504819D01*
X99385713Y-68504819D02*
X99147618Y-68504819D01*
X99147618Y-68504819D02*
X99052380Y-68552438D01*
X99052380Y-68552438D02*
X99004761Y-68600057D01*
X99004761Y-68600057D02*
X98957142Y-68695295D01*
X98957142Y-68695295D02*
X98957142Y-68790533D01*
X98957142Y-68790533D02*
X99004761Y-68933390D01*
X99004761Y-68933390D02*
X99576189Y-69504819D01*
X99576189Y-69504819D02*
X98957142Y-69504819D01*
X102719047Y-67181009D02*
X103052380Y-67181009D01*
X103052380Y-67704819D02*
X103052380Y-66704819D01*
X103052380Y-66704819D02*
X102576190Y-66704819D01*
X101671428Y-67704819D02*
X102242856Y-67704819D01*
X101957142Y-67704819D02*
X101957142Y-66704819D01*
X101957142Y-66704819D02*
X102052380Y-66847676D01*
X102052380Y-66847676D02*
X102147618Y-66942914D01*
X102147618Y-66942914D02*
X102242856Y-66990533D01*
X100147618Y-67181009D02*
X100480951Y-67181009D01*
X100480951Y-67704819D02*
X100480951Y-66704819D01*
X100480951Y-66704819D02*
X100004761Y-66704819D01*
X99671427Y-66800057D02*
X99623808Y-66752438D01*
X99623808Y-66752438D02*
X99528570Y-66704819D01*
X99528570Y-66704819D02*
X99290475Y-66704819D01*
X99290475Y-66704819D02*
X99195237Y-66752438D01*
X99195237Y-66752438D02*
X99147618Y-66800057D01*
X99147618Y-66800057D02*
X99099999Y-66895295D01*
X99099999Y-66895295D02*
X99099999Y-66990533D01*
X99099999Y-66990533D02*
X99147618Y-67133390D01*
X99147618Y-67133390D02*
X99719046Y-67704819D01*
X99719046Y-67704819D02*
X99099999Y-67704819D01*
X83457142Y-71254819D02*
X83457142Y-70254819D01*
X83457142Y-70254819D02*
X83123809Y-70969104D01*
X83123809Y-70969104D02*
X82790476Y-70254819D01*
X82790476Y-70254819D02*
X82790476Y-71254819D01*
X81742857Y-71159580D02*
X81790476Y-71207200D01*
X81790476Y-71207200D02*
X81933333Y-71254819D01*
X81933333Y-71254819D02*
X82028571Y-71254819D01*
X82028571Y-71254819D02*
X82171428Y-71207200D01*
X82171428Y-71207200D02*
X82266666Y-71111961D01*
X82266666Y-71111961D02*
X82314285Y-71016723D01*
X82314285Y-71016723D02*
X82361904Y-70826247D01*
X82361904Y-70826247D02*
X82361904Y-70683390D01*
X82361904Y-70683390D02*
X82314285Y-70492914D01*
X82314285Y-70492914D02*
X82266666Y-70397676D01*
X82266666Y-70397676D02*
X82171428Y-70302438D01*
X82171428Y-70302438D02*
X82028571Y-70254819D01*
X82028571Y-70254819D02*
X81933333Y-70254819D01*
X81933333Y-70254819D02*
X81790476Y-70302438D01*
X81790476Y-70302438D02*
X81742857Y-70350057D01*
X81314285Y-70254819D02*
X81314285Y-71064342D01*
X81314285Y-71064342D02*
X81266666Y-71159580D01*
X81266666Y-71159580D02*
X81219047Y-71207200D01*
X81219047Y-71207200D02*
X81123809Y-71254819D01*
X81123809Y-71254819D02*
X80933333Y-71254819D01*
X80933333Y-71254819D02*
X80838095Y-71207200D01*
X80838095Y-71207200D02*
X80790476Y-71159580D01*
X80790476Y-71159580D02*
X80742857Y-71064342D01*
X80742857Y-71064342D02*
X80742857Y-70254819D01*
D11*
X120173809Y-126014480D02*
X120173809Y-127681147D01*
X120769047Y-125062100D02*
X121364285Y-126847814D01*
X121364285Y-126847814D02*
X119816666Y-126847814D01*
D10*
X90190475Y-74231009D02*
X89857142Y-74231009D01*
X89714285Y-74754819D02*
X90190475Y-74754819D01*
X90190475Y-74754819D02*
X90190475Y-73754819D01*
X90190475Y-73754819D02*
X89714285Y-73754819D01*
X88761904Y-74754819D02*
X89333332Y-74754819D01*
X89047618Y-74754819D02*
X89047618Y-73754819D01*
X89047618Y-73754819D02*
X89142856Y-73897676D01*
X89142856Y-73897676D02*
X89238094Y-73992914D01*
X89238094Y-73992914D02*
X89333332Y-74040533D01*
X88333332Y-74373866D02*
X87571428Y-74373866D01*
X87095237Y-74231009D02*
X86761904Y-74231009D01*
X86619047Y-74754819D02*
X87095237Y-74754819D01*
X87095237Y-74754819D02*
X87095237Y-73754819D01*
X87095237Y-73754819D02*
X86619047Y-73754819D01*
X86238094Y-73850057D02*
X86190475Y-73802438D01*
X86190475Y-73802438D02*
X86095237Y-73754819D01*
X86095237Y-73754819D02*
X85857142Y-73754819D01*
X85857142Y-73754819D02*
X85761904Y-73802438D01*
X85761904Y-73802438D02*
X85714285Y-73850057D01*
X85714285Y-73850057D02*
X85666666Y-73945295D01*
X85666666Y-73945295D02*
X85666666Y-74040533D01*
X85666666Y-74040533D02*
X85714285Y-74183390D01*
X85714285Y-74183390D02*
X86285713Y-74754819D01*
X86285713Y-74754819D02*
X85666666Y-74754819D01*
X85238094Y-74373866D02*
X84476190Y-74373866D01*
X84095237Y-73754819D02*
X83476190Y-73754819D01*
X83476190Y-73754819D02*
X83809523Y-74135771D01*
X83809523Y-74135771D02*
X83666666Y-74135771D01*
X83666666Y-74135771D02*
X83571428Y-74183390D01*
X83571428Y-74183390D02*
X83523809Y-74231009D01*
X83523809Y-74231009D02*
X83476190Y-74326247D01*
X83476190Y-74326247D02*
X83476190Y-74564342D01*
X83476190Y-74564342D02*
X83523809Y-74659580D01*
X83523809Y-74659580D02*
X83571428Y-74707200D01*
X83571428Y-74707200D02*
X83666666Y-74754819D01*
X83666666Y-74754819D02*
X83952380Y-74754819D01*
X83952380Y-74754819D02*
X84047618Y-74707200D01*
X84047618Y-74707200D02*
X84095237Y-74659580D01*
X83142856Y-74088152D02*
X82904761Y-74754819D01*
X82904761Y-74754819D02*
X82666666Y-74088152D01*
X82380951Y-73754819D02*
X81761904Y-73754819D01*
X81761904Y-73754819D02*
X82095237Y-74135771D01*
X82095237Y-74135771D02*
X81952380Y-74135771D01*
X81952380Y-74135771D02*
X81857142Y-74183390D01*
X81857142Y-74183390D02*
X81809523Y-74231009D01*
X81809523Y-74231009D02*
X81761904Y-74326247D01*
X81761904Y-74326247D02*
X81761904Y-74564342D01*
X81761904Y-74564342D02*
X81809523Y-74659580D01*
X81809523Y-74659580D02*
X81857142Y-74707200D01*
X81857142Y-74707200D02*
X81952380Y-74754819D01*
X81952380Y-74754819D02*
X82238094Y-74754819D01*
X82238094Y-74754819D02*
X82333332Y-74707200D01*
X82333332Y-74707200D02*
X82380951Y-74659580D01*
X166424513Y-92913113D02*
X166295942Y-92951208D01*
X166295942Y-92951208D02*
X166081656Y-92951208D01*
X166081656Y-92951208D02*
X165995942Y-92913113D01*
X165995942Y-92913113D02*
X165953084Y-92875017D01*
X165953084Y-92875017D02*
X165910227Y-92798827D01*
X165910227Y-92798827D02*
X165910227Y-92722636D01*
X165910227Y-92722636D02*
X165953084Y-92646446D01*
X165953084Y-92646446D02*
X165995942Y-92608351D01*
X165995942Y-92608351D02*
X166081656Y-92570255D01*
X166081656Y-92570255D02*
X166253084Y-92532160D01*
X166253084Y-92532160D02*
X166338799Y-92494065D01*
X166338799Y-92494065D02*
X166381656Y-92455970D01*
X166381656Y-92455970D02*
X166424513Y-92379779D01*
X166424513Y-92379779D02*
X166424513Y-92303589D01*
X166424513Y-92303589D02*
X166381656Y-92227398D01*
X166381656Y-92227398D02*
X166338799Y-92189303D01*
X166338799Y-92189303D02*
X166253084Y-92151208D01*
X166253084Y-92151208D02*
X166038799Y-92151208D01*
X166038799Y-92151208D02*
X165910227Y-92189303D01*
X165610227Y-92151208D02*
X165395941Y-92951208D01*
X165395941Y-92951208D02*
X165224513Y-92379779D01*
X165224513Y-92379779D02*
X165053084Y-92951208D01*
X165053084Y-92951208D02*
X164838799Y-92151208D01*
X163981656Y-92875017D02*
X164024513Y-92913113D01*
X164024513Y-92913113D02*
X164153085Y-92951208D01*
X164153085Y-92951208D02*
X164238799Y-92951208D01*
X164238799Y-92951208D02*
X164367370Y-92913113D01*
X164367370Y-92913113D02*
X164453085Y-92836922D01*
X164453085Y-92836922D02*
X164495942Y-92760732D01*
X164495942Y-92760732D02*
X164538799Y-92608351D01*
X164538799Y-92608351D02*
X164538799Y-92494065D01*
X164538799Y-92494065D02*
X164495942Y-92341684D01*
X164495942Y-92341684D02*
X164453085Y-92265493D01*
X164453085Y-92265493D02*
X164367370Y-92189303D01*
X164367370Y-92189303D02*
X164238799Y-92151208D01*
X164238799Y-92151208D02*
X164153085Y-92151208D01*
X164153085Y-92151208D02*
X164024513Y-92189303D01*
X164024513Y-92189303D02*
X163981656Y-92227398D01*
X163167370Y-92951208D02*
X163595942Y-92951208D01*
X163595942Y-92951208D02*
X163595942Y-92151208D01*
X162867371Y-92951208D02*
X162867371Y-92151208D01*
X162353085Y-92951208D02*
X162738799Y-92494065D01*
X162353085Y-92151208D02*
X162867371Y-92608351D01*
X166295942Y-94201068D02*
X166167371Y-94239163D01*
X166167371Y-94239163D02*
X165953085Y-94239163D01*
X165953085Y-94239163D02*
X165867371Y-94201068D01*
X165867371Y-94201068D02*
X165824513Y-94162972D01*
X165824513Y-94162972D02*
X165781656Y-94086782D01*
X165781656Y-94086782D02*
X165781656Y-94010591D01*
X165781656Y-94010591D02*
X165824513Y-93934401D01*
X165824513Y-93934401D02*
X165867371Y-93896306D01*
X165867371Y-93896306D02*
X165953085Y-93858210D01*
X165953085Y-93858210D02*
X166124513Y-93820115D01*
X166124513Y-93820115D02*
X166210228Y-93782020D01*
X166210228Y-93782020D02*
X166253085Y-93743925D01*
X166253085Y-93743925D02*
X166295942Y-93667734D01*
X166295942Y-93667734D02*
X166295942Y-93591544D01*
X166295942Y-93591544D02*
X166253085Y-93515353D01*
X166253085Y-93515353D02*
X166210228Y-93477258D01*
X166210228Y-93477258D02*
X166124513Y-93439163D01*
X166124513Y-93439163D02*
X165910228Y-93439163D01*
X165910228Y-93439163D02*
X165781656Y-93477258D01*
X165481656Y-93439163D02*
X165267370Y-94239163D01*
X165267370Y-94239163D02*
X165095942Y-93667734D01*
X165095942Y-93667734D02*
X164924513Y-94239163D01*
X164924513Y-94239163D02*
X164710228Y-93439163D01*
X164367371Y-94239163D02*
X164367371Y-93439163D01*
X164367371Y-93439163D02*
X164153085Y-93439163D01*
X164153085Y-93439163D02*
X164024514Y-93477258D01*
X164024514Y-93477258D02*
X163938799Y-93553448D01*
X163938799Y-93553448D02*
X163895942Y-93629639D01*
X163895942Y-93629639D02*
X163853085Y-93782020D01*
X163853085Y-93782020D02*
X163853085Y-93896306D01*
X163853085Y-93896306D02*
X163895942Y-94048687D01*
X163895942Y-94048687D02*
X163938799Y-94124877D01*
X163938799Y-94124877D02*
X164024514Y-94201068D01*
X164024514Y-94201068D02*
X164153085Y-94239163D01*
X164153085Y-94239163D02*
X164367371Y-94239163D01*
X163467371Y-94239163D02*
X163467371Y-93439163D01*
X162867371Y-93439163D02*
X162695943Y-93439163D01*
X162695943Y-93439163D02*
X162610228Y-93477258D01*
X162610228Y-93477258D02*
X162524514Y-93553448D01*
X162524514Y-93553448D02*
X162481657Y-93705829D01*
X162481657Y-93705829D02*
X162481657Y-93972496D01*
X162481657Y-93972496D02*
X162524514Y-94124877D01*
X162524514Y-94124877D02*
X162610228Y-94201068D01*
X162610228Y-94201068D02*
X162695943Y-94239163D01*
X162695943Y-94239163D02*
X162867371Y-94239163D01*
X162867371Y-94239163D02*
X162953086Y-94201068D01*
X162953086Y-94201068D02*
X163038800Y-94124877D01*
X163038800Y-94124877D02*
X163081657Y-93972496D01*
X163081657Y-93972496D02*
X163081657Y-93705829D01*
X163081657Y-93705829D02*
X163038800Y-93553448D01*
X163038800Y-93553448D02*
X162953086Y-93477258D01*
X162953086Y-93477258D02*
X162867371Y-93439163D01*
X165074513Y-94765213D02*
X165160228Y-94727118D01*
X165160228Y-94727118D02*
X165288799Y-94727118D01*
X165288799Y-94727118D02*
X165417370Y-94765213D01*
X165417370Y-94765213D02*
X165503085Y-94841403D01*
X165503085Y-94841403D02*
X165545942Y-94917594D01*
X165545942Y-94917594D02*
X165588799Y-95069975D01*
X165588799Y-95069975D02*
X165588799Y-95184261D01*
X165588799Y-95184261D02*
X165545942Y-95336642D01*
X165545942Y-95336642D02*
X165503085Y-95412832D01*
X165503085Y-95412832D02*
X165417370Y-95489023D01*
X165417370Y-95489023D02*
X165288799Y-95527118D01*
X165288799Y-95527118D02*
X165203085Y-95527118D01*
X165203085Y-95527118D02*
X165074513Y-95489023D01*
X165074513Y-95489023D02*
X165031656Y-95450927D01*
X165031656Y-95450927D02*
X165031656Y-95184261D01*
X165031656Y-95184261D02*
X165203085Y-95184261D01*
X164645942Y-95527118D02*
X164645942Y-94727118D01*
X164645942Y-94727118D02*
X164131656Y-95527118D01*
X164131656Y-95527118D02*
X164131656Y-94727118D01*
X163703085Y-95527118D02*
X163703085Y-94727118D01*
X163703085Y-94727118D02*
X163488799Y-94727118D01*
X163488799Y-94727118D02*
X163360228Y-94765213D01*
X163360228Y-94765213D02*
X163274513Y-94841403D01*
X163274513Y-94841403D02*
X163231656Y-94917594D01*
X163231656Y-94917594D02*
X163188799Y-95069975D01*
X163188799Y-95069975D02*
X163188799Y-95184261D01*
X163188799Y-95184261D02*
X163231656Y-95336642D01*
X163231656Y-95336642D02*
X163274513Y-95412832D01*
X163274513Y-95412832D02*
X163360228Y-95489023D01*
X163360228Y-95489023D02*
X163488799Y-95527118D01*
X163488799Y-95527118D02*
X163703085Y-95527118D01*
X165460228Y-96015073D02*
X164903085Y-96015073D01*
X164903085Y-96015073D02*
X165203085Y-96319835D01*
X165203085Y-96319835D02*
X165074514Y-96319835D01*
X165074514Y-96319835D02*
X164988800Y-96357930D01*
X164988800Y-96357930D02*
X164945942Y-96396025D01*
X164945942Y-96396025D02*
X164903085Y-96472216D01*
X164903085Y-96472216D02*
X164903085Y-96662692D01*
X164903085Y-96662692D02*
X164945942Y-96738882D01*
X164945942Y-96738882D02*
X164988800Y-96776978D01*
X164988800Y-96776978D02*
X165074514Y-96815073D01*
X165074514Y-96815073D02*
X165331657Y-96815073D01*
X165331657Y-96815073D02*
X165417371Y-96776978D01*
X165417371Y-96776978D02*
X165460228Y-96738882D01*
X164603085Y-96281739D02*
X164388799Y-96815073D01*
X164388799Y-96815073D02*
X164174514Y-96281739D01*
X163917371Y-96015073D02*
X163360228Y-96015073D01*
X163360228Y-96015073D02*
X163660228Y-96319835D01*
X163660228Y-96319835D02*
X163531657Y-96319835D01*
X163531657Y-96319835D02*
X163445943Y-96357930D01*
X163445943Y-96357930D02*
X163403085Y-96396025D01*
X163403085Y-96396025D02*
X163360228Y-96472216D01*
X163360228Y-96472216D02*
X163360228Y-96662692D01*
X163360228Y-96662692D02*
X163403085Y-96738882D01*
X163403085Y-96738882D02*
X163445943Y-96776978D01*
X163445943Y-96776978D02*
X163531657Y-96815073D01*
X163531657Y-96815073D02*
X163788800Y-96815073D01*
X163788800Y-96815073D02*
X163874514Y-96776978D01*
X163874514Y-96776978D02*
X163917371Y-96738882D01*
X166038799Y-97683980D02*
X165910227Y-97722075D01*
X165910227Y-97722075D02*
X165867370Y-97760171D01*
X165867370Y-97760171D02*
X165824513Y-97836361D01*
X165824513Y-97836361D02*
X165824513Y-97950647D01*
X165824513Y-97950647D02*
X165867370Y-98026837D01*
X165867370Y-98026837D02*
X165910227Y-98064933D01*
X165910227Y-98064933D02*
X165995942Y-98103028D01*
X165995942Y-98103028D02*
X166338799Y-98103028D01*
X166338799Y-98103028D02*
X166338799Y-97303028D01*
X166338799Y-97303028D02*
X166038799Y-97303028D01*
X166038799Y-97303028D02*
X165953085Y-97341123D01*
X165953085Y-97341123D02*
X165910227Y-97379218D01*
X165910227Y-97379218D02*
X165867370Y-97455409D01*
X165867370Y-97455409D02*
X165867370Y-97531599D01*
X165867370Y-97531599D02*
X165910227Y-97607790D01*
X165910227Y-97607790D02*
X165953085Y-97645885D01*
X165953085Y-97645885D02*
X166038799Y-97683980D01*
X166038799Y-97683980D02*
X166338799Y-97683980D01*
X165267370Y-97303028D02*
X165095942Y-97303028D01*
X165095942Y-97303028D02*
X165010227Y-97341123D01*
X165010227Y-97341123D02*
X164924513Y-97417313D01*
X164924513Y-97417313D02*
X164881656Y-97569694D01*
X164881656Y-97569694D02*
X164881656Y-97836361D01*
X164881656Y-97836361D02*
X164924513Y-97988742D01*
X164924513Y-97988742D02*
X165010227Y-98064933D01*
X165010227Y-98064933D02*
X165095942Y-98103028D01*
X165095942Y-98103028D02*
X165267370Y-98103028D01*
X165267370Y-98103028D02*
X165353085Y-98064933D01*
X165353085Y-98064933D02*
X165438799Y-97988742D01*
X165438799Y-97988742D02*
X165481656Y-97836361D01*
X165481656Y-97836361D02*
X165481656Y-97569694D01*
X165481656Y-97569694D02*
X165438799Y-97417313D01*
X165438799Y-97417313D02*
X165353085Y-97341123D01*
X165353085Y-97341123D02*
X165267370Y-97303028D01*
X164324513Y-97303028D02*
X164153085Y-97303028D01*
X164153085Y-97303028D02*
X164067370Y-97341123D01*
X164067370Y-97341123D02*
X163981656Y-97417313D01*
X163981656Y-97417313D02*
X163938799Y-97569694D01*
X163938799Y-97569694D02*
X163938799Y-97836361D01*
X163938799Y-97836361D02*
X163981656Y-97988742D01*
X163981656Y-97988742D02*
X164067370Y-98064933D01*
X164067370Y-98064933D02*
X164153085Y-98103028D01*
X164153085Y-98103028D02*
X164324513Y-98103028D01*
X164324513Y-98103028D02*
X164410228Y-98064933D01*
X164410228Y-98064933D02*
X164495942Y-97988742D01*
X164495942Y-97988742D02*
X164538799Y-97836361D01*
X164538799Y-97836361D02*
X164538799Y-97569694D01*
X164538799Y-97569694D02*
X164495942Y-97417313D01*
X164495942Y-97417313D02*
X164410228Y-97341123D01*
X164410228Y-97341123D02*
X164324513Y-97303028D01*
X163681656Y-97303028D02*
X163167371Y-97303028D01*
X163424513Y-98103028D02*
X163424513Y-97303028D01*
X162695942Y-97303028D02*
X162610228Y-97303028D01*
X162610228Y-97303028D02*
X162524514Y-97341123D01*
X162524514Y-97341123D02*
X162481657Y-97379218D01*
X162481657Y-97379218D02*
X162438799Y-97455409D01*
X162438799Y-97455409D02*
X162395942Y-97607790D01*
X162395942Y-97607790D02*
X162395942Y-97798266D01*
X162395942Y-97798266D02*
X162438799Y-97950647D01*
X162438799Y-97950647D02*
X162481657Y-98026837D01*
X162481657Y-98026837D02*
X162524514Y-98064933D01*
X162524514Y-98064933D02*
X162610228Y-98103028D01*
X162610228Y-98103028D02*
X162695942Y-98103028D01*
X162695942Y-98103028D02*
X162781657Y-98064933D01*
X162781657Y-98064933D02*
X162824514Y-98026837D01*
X162824514Y-98026837D02*
X162867371Y-97950647D01*
X162867371Y-97950647D02*
X162910228Y-97798266D01*
X162910228Y-97798266D02*
X162910228Y-97607790D01*
X162910228Y-97607790D02*
X162867371Y-97455409D01*
X162867371Y-97455409D02*
X162824514Y-97379218D01*
X162824514Y-97379218D02*
X162781657Y-97341123D01*
X162781657Y-97341123D02*
X162695942Y-97303028D01*
X165867371Y-99390983D02*
X165867371Y-98590983D01*
X165867371Y-98590983D02*
X165353085Y-99390983D01*
X165353085Y-99390983D02*
X165353085Y-98590983D01*
X164410228Y-99390983D02*
X164710228Y-99010030D01*
X164924514Y-99390983D02*
X164924514Y-98590983D01*
X164924514Y-98590983D02*
X164581657Y-98590983D01*
X164581657Y-98590983D02*
X164495942Y-98629078D01*
X164495942Y-98629078D02*
X164453085Y-98667173D01*
X164453085Y-98667173D02*
X164410228Y-98743364D01*
X164410228Y-98743364D02*
X164410228Y-98857649D01*
X164410228Y-98857649D02*
X164453085Y-98933840D01*
X164453085Y-98933840D02*
X164495942Y-98971935D01*
X164495942Y-98971935D02*
X164581657Y-99010030D01*
X164581657Y-99010030D02*
X164924514Y-99010030D01*
X164067371Y-99352888D02*
X163938800Y-99390983D01*
X163938800Y-99390983D02*
X163724514Y-99390983D01*
X163724514Y-99390983D02*
X163638800Y-99352888D01*
X163638800Y-99352888D02*
X163595942Y-99314792D01*
X163595942Y-99314792D02*
X163553085Y-99238602D01*
X163553085Y-99238602D02*
X163553085Y-99162411D01*
X163553085Y-99162411D02*
X163595942Y-99086221D01*
X163595942Y-99086221D02*
X163638800Y-99048126D01*
X163638800Y-99048126D02*
X163724514Y-99010030D01*
X163724514Y-99010030D02*
X163895942Y-98971935D01*
X163895942Y-98971935D02*
X163981657Y-98933840D01*
X163981657Y-98933840D02*
X164024514Y-98895745D01*
X164024514Y-98895745D02*
X164067371Y-98819554D01*
X164067371Y-98819554D02*
X164067371Y-98743364D01*
X164067371Y-98743364D02*
X164024514Y-98667173D01*
X164024514Y-98667173D02*
X163981657Y-98629078D01*
X163981657Y-98629078D02*
X163895942Y-98590983D01*
X163895942Y-98590983D02*
X163681657Y-98590983D01*
X163681657Y-98590983D02*
X163553085Y-98629078D01*
X163295942Y-98590983D02*
X162781657Y-98590983D01*
X163038799Y-99390983D02*
X163038799Y-98590983D01*
X95014284Y-71554819D02*
X95014284Y-72364342D01*
X95014284Y-72364342D02*
X94966665Y-72459580D01*
X94966665Y-72459580D02*
X94919046Y-72507200D01*
X94919046Y-72507200D02*
X94823808Y-72554819D01*
X94823808Y-72554819D02*
X94633332Y-72554819D01*
X94633332Y-72554819D02*
X94538094Y-72507200D01*
X94538094Y-72507200D02*
X94490475Y-72459580D01*
X94490475Y-72459580D02*
X94442856Y-72364342D01*
X94442856Y-72364342D02*
X94442856Y-71554819D01*
X94014284Y-72269104D02*
X93538094Y-72269104D01*
X94109522Y-72554819D02*
X93776189Y-71554819D01*
X93776189Y-71554819D02*
X93442856Y-72554819D01*
X92538094Y-72554819D02*
X92871427Y-72078628D01*
X93109522Y-72554819D02*
X93109522Y-71554819D01*
X93109522Y-71554819D02*
X92728570Y-71554819D01*
X92728570Y-71554819D02*
X92633332Y-71602438D01*
X92633332Y-71602438D02*
X92585713Y-71650057D01*
X92585713Y-71650057D02*
X92538094Y-71745295D01*
X92538094Y-71745295D02*
X92538094Y-71888152D01*
X92538094Y-71888152D02*
X92585713Y-71983390D01*
X92585713Y-71983390D02*
X92633332Y-72031009D01*
X92633332Y-72031009D02*
X92728570Y-72078628D01*
X92728570Y-72078628D02*
X93109522Y-72078628D01*
X92252379Y-71554819D02*
X91680951Y-71554819D01*
X91966665Y-72554819D02*
X91966665Y-71554819D01*
X91347617Y-72173866D02*
X90585713Y-72173866D01*
X90109522Y-72554819D02*
X90109522Y-71554819D01*
X90109522Y-71554819D02*
X89871427Y-71554819D01*
X89871427Y-71554819D02*
X89728570Y-71602438D01*
X89728570Y-71602438D02*
X89633332Y-71697676D01*
X89633332Y-71697676D02*
X89585713Y-71792914D01*
X89585713Y-71792914D02*
X89538094Y-71983390D01*
X89538094Y-71983390D02*
X89538094Y-72126247D01*
X89538094Y-72126247D02*
X89585713Y-72316723D01*
X89585713Y-72316723D02*
X89633332Y-72411961D01*
X89633332Y-72411961D02*
X89728570Y-72507200D01*
X89728570Y-72507200D02*
X89871427Y-72554819D01*
X89871427Y-72554819D02*
X90109522Y-72554819D01*
X88585713Y-72554819D02*
X89157141Y-72554819D01*
X88871427Y-72554819D02*
X88871427Y-71554819D01*
X88871427Y-71554819D02*
X88966665Y-71697676D01*
X88966665Y-71697676D02*
X89061903Y-71792914D01*
X89061903Y-71792914D02*
X89157141Y-71840533D01*
X88157141Y-72173866D02*
X87395237Y-72173866D01*
X86919046Y-72554819D02*
X86919046Y-71554819D01*
X86919046Y-71554819D02*
X86680951Y-71554819D01*
X86680951Y-71554819D02*
X86538094Y-71602438D01*
X86538094Y-71602438D02*
X86442856Y-71697676D01*
X86442856Y-71697676D02*
X86395237Y-71792914D01*
X86395237Y-71792914D02*
X86347618Y-71983390D01*
X86347618Y-71983390D02*
X86347618Y-72126247D01*
X86347618Y-72126247D02*
X86395237Y-72316723D01*
X86395237Y-72316723D02*
X86442856Y-72411961D01*
X86442856Y-72411961D02*
X86538094Y-72507200D01*
X86538094Y-72507200D02*
X86680951Y-72554819D01*
X86680951Y-72554819D02*
X86919046Y-72554819D01*
X85966665Y-71650057D02*
X85919046Y-71602438D01*
X85919046Y-71602438D02*
X85823808Y-71554819D01*
X85823808Y-71554819D02*
X85585713Y-71554819D01*
X85585713Y-71554819D02*
X85490475Y-71602438D01*
X85490475Y-71602438D02*
X85442856Y-71650057D01*
X85442856Y-71650057D02*
X85395237Y-71745295D01*
X85395237Y-71745295D02*
X85395237Y-71840533D01*
X85395237Y-71840533D02*
X85442856Y-71983390D01*
X85442856Y-71983390D02*
X86014284Y-72554819D01*
X86014284Y-72554819D02*
X85395237Y-72554819D01*
X84966665Y-72173866D02*
X84204761Y-72173866D01*
X83728570Y-72554819D02*
X83728570Y-71554819D01*
X83728570Y-71554819D02*
X83395237Y-72269104D01*
X83395237Y-72269104D02*
X83061904Y-71554819D01*
X83061904Y-71554819D02*
X83061904Y-72554819D01*
X82585713Y-72554819D02*
X82585713Y-71554819D01*
X82157142Y-72507200D02*
X82014285Y-72554819D01*
X82014285Y-72554819D02*
X81776190Y-72554819D01*
X81776190Y-72554819D02*
X81680952Y-72507200D01*
X81680952Y-72507200D02*
X81633333Y-72459580D01*
X81633333Y-72459580D02*
X81585714Y-72364342D01*
X81585714Y-72364342D02*
X81585714Y-72269104D01*
X81585714Y-72269104D02*
X81633333Y-72173866D01*
X81633333Y-72173866D02*
X81680952Y-72126247D01*
X81680952Y-72126247D02*
X81776190Y-72078628D01*
X81776190Y-72078628D02*
X81966666Y-72031009D01*
X81966666Y-72031009D02*
X82061904Y-71983390D01*
X82061904Y-71983390D02*
X82109523Y-71935771D01*
X82109523Y-71935771D02*
X82157142Y-71840533D01*
X82157142Y-71840533D02*
X82157142Y-71745295D01*
X82157142Y-71745295D02*
X82109523Y-71650057D01*
X82109523Y-71650057D02*
X82061904Y-71602438D01*
X82061904Y-71602438D02*
X81966666Y-71554819D01*
X81966666Y-71554819D02*
X81728571Y-71554819D01*
X81728571Y-71554819D02*
X81585714Y-71602438D01*
X80966666Y-71554819D02*
X80776190Y-71554819D01*
X80776190Y-71554819D02*
X80680952Y-71602438D01*
X80680952Y-71602438D02*
X80585714Y-71697676D01*
X80585714Y-71697676D02*
X80538095Y-71888152D01*
X80538095Y-71888152D02*
X80538095Y-72221485D01*
X80538095Y-72221485D02*
X80585714Y-72411961D01*
X80585714Y-72411961D02*
X80680952Y-72507200D01*
X80680952Y-72507200D02*
X80776190Y-72554819D01*
X80776190Y-72554819D02*
X80966666Y-72554819D01*
X80966666Y-72554819D02*
X81061904Y-72507200D01*
X81061904Y-72507200D02*
X81157142Y-72411961D01*
X81157142Y-72411961D02*
X81204761Y-72221485D01*
X81204761Y-72221485D02*
X81204761Y-71888152D01*
X81204761Y-71888152D02*
X81157142Y-71697676D01*
X81157142Y-71697676D02*
X81061904Y-71602438D01*
X81061904Y-71602438D02*
X80966666Y-71554819D01*
X87972744Y-100520015D02*
X87877506Y-100520015D01*
X87877506Y-100520015D02*
X87782268Y-100567634D01*
X87782268Y-100567634D02*
X87734649Y-100615253D01*
X87734649Y-100615253D02*
X87687030Y-100710491D01*
X87687030Y-100710491D02*
X87639411Y-100900967D01*
X87639411Y-100900967D02*
X87639411Y-101139062D01*
X87639411Y-101139062D02*
X87687030Y-101329538D01*
X87687030Y-101329538D02*
X87734649Y-101424776D01*
X87734649Y-101424776D02*
X87782268Y-101472396D01*
X87782268Y-101472396D02*
X87877506Y-101520015D01*
X87877506Y-101520015D02*
X87972744Y-101520015D01*
X87972744Y-101520015D02*
X88067982Y-101472396D01*
X88067982Y-101472396D02*
X88115601Y-101424776D01*
X88115601Y-101424776D02*
X88163220Y-101329538D01*
X88163220Y-101329538D02*
X88210839Y-101139062D01*
X88210839Y-101139062D02*
X88210839Y-100900967D01*
X88210839Y-100900967D02*
X88163220Y-100710491D01*
X88163220Y-100710491D02*
X88115601Y-100615253D01*
X88115601Y-100615253D02*
X88067982Y-100567634D01*
X88067982Y-100567634D02*
X87972744Y-100520015D01*
X85544172Y-101520015D02*
X85639410Y-101472396D01*
X85639410Y-101472396D02*
X85687029Y-101424776D01*
X85687029Y-101424776D02*
X85734648Y-101329538D01*
X85734648Y-101329538D02*
X85734648Y-101043824D01*
X85734648Y-101043824D02*
X85687029Y-100948586D01*
X85687029Y-100948586D02*
X85639410Y-100900967D01*
X85639410Y-100900967D02*
X85544172Y-100853348D01*
X85544172Y-100853348D02*
X85401315Y-100853348D01*
X85401315Y-100853348D02*
X85306077Y-100900967D01*
X85306077Y-100900967D02*
X85258458Y-100948586D01*
X85258458Y-100948586D02*
X85210839Y-101043824D01*
X85210839Y-101043824D02*
X85210839Y-101329538D01*
X85210839Y-101329538D02*
X85258458Y-101424776D01*
X85258458Y-101424776D02*
X85306077Y-101472396D01*
X85306077Y-101472396D02*
X85401315Y-101520015D01*
X85401315Y-101520015D02*
X85544172Y-101520015D01*
X83115600Y-101520015D02*
X83210838Y-101472396D01*
X83210838Y-101472396D02*
X83258457Y-101424776D01*
X83258457Y-101424776D02*
X83306076Y-101329538D01*
X83306076Y-101329538D02*
X83306076Y-101043824D01*
X83306076Y-101043824D02*
X83258457Y-100948586D01*
X83258457Y-100948586D02*
X83210838Y-100900967D01*
X83210838Y-100900967D02*
X83115600Y-100853348D01*
X83115600Y-100853348D02*
X82972743Y-100853348D01*
X82972743Y-100853348D02*
X82877505Y-100900967D01*
X82877505Y-100900967D02*
X82829886Y-100948586D01*
X82829886Y-100948586D02*
X82782267Y-101043824D01*
X82782267Y-101043824D02*
X82782267Y-101329538D01*
X82782267Y-101329538D02*
X82829886Y-101424776D01*
X82829886Y-101424776D02*
X82877505Y-101472396D01*
X82877505Y-101472396D02*
X82972743Y-101520015D01*
X82972743Y-101520015D02*
X83115600Y-101520015D01*
X87639411Y-103129959D02*
X88210839Y-103129959D01*
X87925125Y-103129959D02*
X87925125Y-102129959D01*
X87925125Y-102129959D02*
X88020363Y-102272816D01*
X88020363Y-102272816D02*
X88115601Y-102368054D01*
X88115601Y-102368054D02*
X88210839Y-102415673D01*
X85544172Y-103129959D02*
X85639410Y-103082340D01*
X85639410Y-103082340D02*
X85687029Y-103034720D01*
X85687029Y-103034720D02*
X85734648Y-102939482D01*
X85734648Y-102939482D02*
X85734648Y-102653768D01*
X85734648Y-102653768D02*
X85687029Y-102558530D01*
X85687029Y-102558530D02*
X85639410Y-102510911D01*
X85639410Y-102510911D02*
X85544172Y-102463292D01*
X85544172Y-102463292D02*
X85401315Y-102463292D01*
X85401315Y-102463292D02*
X85306077Y-102510911D01*
X85306077Y-102510911D02*
X85258458Y-102558530D01*
X85258458Y-102558530D02*
X85210839Y-102653768D01*
X85210839Y-102653768D02*
X85210839Y-102939482D01*
X85210839Y-102939482D02*
X85258458Y-103034720D01*
X85258458Y-103034720D02*
X85306077Y-103082340D01*
X85306077Y-103082340D02*
X85401315Y-103129959D01*
X85401315Y-103129959D02*
X85544172Y-103129959D01*
X83353695Y-103129959D02*
X82829886Y-102463292D01*
X83353695Y-102463292D02*
X82829886Y-103129959D01*
X88210839Y-103835141D02*
X88163220Y-103787522D01*
X88163220Y-103787522D02*
X88067982Y-103739903D01*
X88067982Y-103739903D02*
X87829887Y-103739903D01*
X87829887Y-103739903D02*
X87734649Y-103787522D01*
X87734649Y-103787522D02*
X87687030Y-103835141D01*
X87687030Y-103835141D02*
X87639411Y-103930379D01*
X87639411Y-103930379D02*
X87639411Y-104025617D01*
X87639411Y-104025617D02*
X87687030Y-104168474D01*
X87687030Y-104168474D02*
X88258458Y-104739903D01*
X88258458Y-104739903D02*
X87639411Y-104739903D01*
X85782267Y-104739903D02*
X85258458Y-104073236D01*
X85782267Y-104073236D02*
X85258458Y-104739903D01*
X83210838Y-104739903D02*
X83306076Y-104692284D01*
X83306076Y-104692284D02*
X83353695Y-104644664D01*
X83353695Y-104644664D02*
X83401314Y-104549426D01*
X83401314Y-104549426D02*
X83401314Y-104263712D01*
X83401314Y-104263712D02*
X83353695Y-104168474D01*
X83353695Y-104168474D02*
X83306076Y-104120855D01*
X83306076Y-104120855D02*
X83210838Y-104073236D01*
X83210838Y-104073236D02*
X83067981Y-104073236D01*
X83067981Y-104073236D02*
X82972743Y-104120855D01*
X82972743Y-104120855D02*
X82925124Y-104168474D01*
X82925124Y-104168474D02*
X82877505Y-104263712D01*
X82877505Y-104263712D02*
X82877505Y-104549426D01*
X82877505Y-104549426D02*
X82925124Y-104644664D01*
X82925124Y-104644664D02*
X82972743Y-104692284D01*
X82972743Y-104692284D02*
X83067981Y-104739903D01*
X83067981Y-104739903D02*
X83210838Y-104739903D01*
X88258458Y-105349847D02*
X87639411Y-105349847D01*
X87639411Y-105349847D02*
X87972744Y-105730799D01*
X87972744Y-105730799D02*
X87829887Y-105730799D01*
X87829887Y-105730799D02*
X87734649Y-105778418D01*
X87734649Y-105778418D02*
X87687030Y-105826037D01*
X87687030Y-105826037D02*
X87639411Y-105921275D01*
X87639411Y-105921275D02*
X87639411Y-106159370D01*
X87639411Y-106159370D02*
X87687030Y-106254608D01*
X87687030Y-106254608D02*
X87734649Y-106302228D01*
X87734649Y-106302228D02*
X87829887Y-106349847D01*
X87829887Y-106349847D02*
X88115601Y-106349847D01*
X88115601Y-106349847D02*
X88210839Y-106302228D01*
X88210839Y-106302228D02*
X88258458Y-106254608D01*
X85782267Y-106349847D02*
X85258458Y-105683180D01*
X85782267Y-105683180D02*
X85258458Y-106349847D01*
X83448933Y-106349847D02*
X82925124Y-105683180D01*
X83448933Y-105683180D02*
X82925124Y-106349847D01*
X87734649Y-107293124D02*
X87734649Y-107959791D01*
X87972744Y-106912172D02*
X88210839Y-107626457D01*
X88210839Y-107626457D02*
X87591792Y-107626457D01*
X85544172Y-107959791D02*
X85639410Y-107912172D01*
X85639410Y-107912172D02*
X85687029Y-107864552D01*
X85687029Y-107864552D02*
X85734648Y-107769314D01*
X85734648Y-107769314D02*
X85734648Y-107483600D01*
X85734648Y-107483600D02*
X85687029Y-107388362D01*
X85687029Y-107388362D02*
X85639410Y-107340743D01*
X85639410Y-107340743D02*
X85544172Y-107293124D01*
X85544172Y-107293124D02*
X85401315Y-107293124D01*
X85401315Y-107293124D02*
X85306077Y-107340743D01*
X85306077Y-107340743D02*
X85258458Y-107388362D01*
X85258458Y-107388362D02*
X85210839Y-107483600D01*
X85210839Y-107483600D02*
X85210839Y-107769314D01*
X85210839Y-107769314D02*
X85258458Y-107864552D01*
X85258458Y-107864552D02*
X85306077Y-107912172D01*
X85306077Y-107912172D02*
X85401315Y-107959791D01*
X85401315Y-107959791D02*
X85544172Y-107959791D01*
X83115600Y-107959791D02*
X83210838Y-107912172D01*
X83210838Y-107912172D02*
X83258457Y-107864552D01*
X83258457Y-107864552D02*
X83306076Y-107769314D01*
X83306076Y-107769314D02*
X83306076Y-107483600D01*
X83306076Y-107483600D02*
X83258457Y-107388362D01*
X83258457Y-107388362D02*
X83210838Y-107340743D01*
X83210838Y-107340743D02*
X83115600Y-107293124D01*
X83115600Y-107293124D02*
X82972743Y-107293124D01*
X82972743Y-107293124D02*
X82877505Y-107340743D01*
X82877505Y-107340743D02*
X82829886Y-107388362D01*
X82829886Y-107388362D02*
X82782267Y-107483600D01*
X82782267Y-107483600D02*
X82782267Y-107769314D01*
X82782267Y-107769314D02*
X82829886Y-107864552D01*
X82829886Y-107864552D02*
X82877505Y-107912172D01*
X82877505Y-107912172D02*
X82972743Y-107959791D01*
X82972743Y-107959791D02*
X83115600Y-107959791D01*
X87687030Y-108569735D02*
X88163220Y-108569735D01*
X88163220Y-108569735D02*
X88210839Y-109045925D01*
X88210839Y-109045925D02*
X88163220Y-108998306D01*
X88163220Y-108998306D02*
X88067982Y-108950687D01*
X88067982Y-108950687D02*
X87829887Y-108950687D01*
X87829887Y-108950687D02*
X87734649Y-108998306D01*
X87734649Y-108998306D02*
X87687030Y-109045925D01*
X87687030Y-109045925D02*
X87639411Y-109141163D01*
X87639411Y-109141163D02*
X87639411Y-109379258D01*
X87639411Y-109379258D02*
X87687030Y-109474496D01*
X87687030Y-109474496D02*
X87734649Y-109522116D01*
X87734649Y-109522116D02*
X87829887Y-109569735D01*
X87829887Y-109569735D02*
X88067982Y-109569735D01*
X88067982Y-109569735D02*
X88163220Y-109522116D01*
X88163220Y-109522116D02*
X88210839Y-109474496D01*
X85544172Y-109569735D02*
X85639410Y-109522116D01*
X85639410Y-109522116D02*
X85687029Y-109474496D01*
X85687029Y-109474496D02*
X85734648Y-109379258D01*
X85734648Y-109379258D02*
X85734648Y-109093544D01*
X85734648Y-109093544D02*
X85687029Y-108998306D01*
X85687029Y-108998306D02*
X85639410Y-108950687D01*
X85639410Y-108950687D02*
X85544172Y-108903068D01*
X85544172Y-108903068D02*
X85401315Y-108903068D01*
X85401315Y-108903068D02*
X85306077Y-108950687D01*
X85306077Y-108950687D02*
X85258458Y-108998306D01*
X85258458Y-108998306D02*
X85210839Y-109093544D01*
X85210839Y-109093544D02*
X85210839Y-109379258D01*
X85210839Y-109379258D02*
X85258458Y-109474496D01*
X85258458Y-109474496D02*
X85306077Y-109522116D01*
X85306077Y-109522116D02*
X85401315Y-109569735D01*
X85401315Y-109569735D02*
X85544172Y-109569735D01*
X83353695Y-109569735D02*
X82829886Y-108903068D01*
X83353695Y-108903068D02*
X82829886Y-109569735D01*
X87734649Y-110179679D02*
X87925125Y-110179679D01*
X87925125Y-110179679D02*
X88020363Y-110227298D01*
X88020363Y-110227298D02*
X88067982Y-110274917D01*
X88067982Y-110274917D02*
X88163220Y-110417774D01*
X88163220Y-110417774D02*
X88210839Y-110608250D01*
X88210839Y-110608250D02*
X88210839Y-110989202D01*
X88210839Y-110989202D02*
X88163220Y-111084440D01*
X88163220Y-111084440D02*
X88115601Y-111132060D01*
X88115601Y-111132060D02*
X88020363Y-111179679D01*
X88020363Y-111179679D02*
X87829887Y-111179679D01*
X87829887Y-111179679D02*
X87734649Y-111132060D01*
X87734649Y-111132060D02*
X87687030Y-111084440D01*
X87687030Y-111084440D02*
X87639411Y-110989202D01*
X87639411Y-110989202D02*
X87639411Y-110751107D01*
X87639411Y-110751107D02*
X87687030Y-110655869D01*
X87687030Y-110655869D02*
X87734649Y-110608250D01*
X87734649Y-110608250D02*
X87829887Y-110560631D01*
X87829887Y-110560631D02*
X88020363Y-110560631D01*
X88020363Y-110560631D02*
X88115601Y-110608250D01*
X88115601Y-110608250D02*
X88163220Y-110655869D01*
X88163220Y-110655869D02*
X88210839Y-110751107D01*
X85782267Y-111179679D02*
X85258458Y-110513012D01*
X85782267Y-110513012D02*
X85258458Y-111179679D01*
X83210838Y-111179679D02*
X83306076Y-111132060D01*
X83306076Y-111132060D02*
X83353695Y-111084440D01*
X83353695Y-111084440D02*
X83401314Y-110989202D01*
X83401314Y-110989202D02*
X83401314Y-110703488D01*
X83401314Y-110703488D02*
X83353695Y-110608250D01*
X83353695Y-110608250D02*
X83306076Y-110560631D01*
X83306076Y-110560631D02*
X83210838Y-110513012D01*
X83210838Y-110513012D02*
X83067981Y-110513012D01*
X83067981Y-110513012D02*
X82972743Y-110560631D01*
X82972743Y-110560631D02*
X82925124Y-110608250D01*
X82925124Y-110608250D02*
X82877505Y-110703488D01*
X82877505Y-110703488D02*
X82877505Y-110989202D01*
X82877505Y-110989202D02*
X82925124Y-111084440D01*
X82925124Y-111084440D02*
X82972743Y-111132060D01*
X82972743Y-111132060D02*
X83067981Y-111179679D01*
X83067981Y-111179679D02*
X83210838Y-111179679D01*
X88258458Y-111789623D02*
X87591792Y-111789623D01*
X87591792Y-111789623D02*
X88020363Y-112789623D01*
X85782267Y-112789623D02*
X85258458Y-112122956D01*
X85782267Y-112122956D02*
X85258458Y-112789623D01*
X83448933Y-112789623D02*
X82925124Y-112122956D01*
X83448933Y-112122956D02*
X82925124Y-112789623D01*
X94666666Y-79354819D02*
X95142856Y-79354819D01*
X95142856Y-79354819D02*
X95142856Y-78354819D01*
X93809523Y-79354819D02*
X94380951Y-79354819D01*
X94095237Y-79354819D02*
X94095237Y-78354819D01*
X94095237Y-78354819D02*
X94190475Y-78497676D01*
X94190475Y-78497676D02*
X94285713Y-78592914D01*
X94285713Y-78592914D02*
X94380951Y-78640533D01*
X92666666Y-78307200D02*
X93523808Y-79592914D01*
X91761904Y-79259580D02*
X91809523Y-79307200D01*
X91809523Y-79307200D02*
X91952380Y-79354819D01*
X91952380Y-79354819D02*
X92047618Y-79354819D01*
X92047618Y-79354819D02*
X92190475Y-79307200D01*
X92190475Y-79307200D02*
X92285713Y-79211961D01*
X92285713Y-79211961D02*
X92333332Y-79116723D01*
X92333332Y-79116723D02*
X92380951Y-78926247D01*
X92380951Y-78926247D02*
X92380951Y-78783390D01*
X92380951Y-78783390D02*
X92333332Y-78592914D01*
X92333332Y-78592914D02*
X92285713Y-78497676D01*
X92285713Y-78497676D02*
X92190475Y-78402438D01*
X92190475Y-78402438D02*
X92047618Y-78354819D01*
X92047618Y-78354819D02*
X91952380Y-78354819D01*
X91952380Y-78354819D02*
X91809523Y-78402438D01*
X91809523Y-78402438D02*
X91761904Y-78450057D01*
X91380951Y-79307200D02*
X91238094Y-79354819D01*
X91238094Y-79354819D02*
X90999999Y-79354819D01*
X90999999Y-79354819D02*
X90904761Y-79307200D01*
X90904761Y-79307200D02*
X90857142Y-79259580D01*
X90857142Y-79259580D02*
X90809523Y-79164342D01*
X90809523Y-79164342D02*
X90809523Y-79069104D01*
X90809523Y-79069104D02*
X90857142Y-78973866D01*
X90857142Y-78973866D02*
X90904761Y-78926247D01*
X90904761Y-78926247D02*
X90999999Y-78878628D01*
X90999999Y-78878628D02*
X91190475Y-78831009D01*
X91190475Y-78831009D02*
X91285713Y-78783390D01*
X91285713Y-78783390D02*
X91333332Y-78735771D01*
X91333332Y-78735771D02*
X91380951Y-78640533D01*
X91380951Y-78640533D02*
X91380951Y-78545295D01*
X91380951Y-78545295D02*
X91333332Y-78450057D01*
X91333332Y-78450057D02*
X91285713Y-78402438D01*
X91285713Y-78402438D02*
X91190475Y-78354819D01*
X91190475Y-78354819D02*
X90952380Y-78354819D01*
X90952380Y-78354819D02*
X90809523Y-78402438D01*
X90380951Y-78973866D02*
X89619047Y-78973866D01*
X88809523Y-78831009D02*
X89142856Y-78831009D01*
X89142856Y-79354819D02*
X89142856Y-78354819D01*
X89142856Y-78354819D02*
X88666666Y-78354819D01*
X87761904Y-79354819D02*
X88333332Y-79354819D01*
X88047618Y-79354819D02*
X88047618Y-78354819D01*
X88047618Y-78354819D02*
X88142856Y-78497676D01*
X88142856Y-78497676D02*
X88238094Y-78592914D01*
X88238094Y-78592914D02*
X88333332Y-78640533D01*
X87333332Y-78973866D02*
X86571428Y-78973866D01*
X85761904Y-78831009D02*
X86095237Y-78831009D01*
X86095237Y-79354819D02*
X86095237Y-78354819D01*
X86095237Y-78354819D02*
X85619047Y-78354819D01*
X85285713Y-78450057D02*
X85238094Y-78402438D01*
X85238094Y-78402438D02*
X85142856Y-78354819D01*
X85142856Y-78354819D02*
X84904761Y-78354819D01*
X84904761Y-78354819D02*
X84809523Y-78402438D01*
X84809523Y-78402438D02*
X84761904Y-78450057D01*
X84761904Y-78450057D02*
X84714285Y-78545295D01*
X84714285Y-78545295D02*
X84714285Y-78640533D01*
X84714285Y-78640533D02*
X84761904Y-78783390D01*
X84761904Y-78783390D02*
X85333332Y-79354819D01*
X85333332Y-79354819D02*
X84714285Y-79354819D01*
X84285713Y-78973866D02*
X83523809Y-78973866D01*
X83142856Y-78354819D02*
X82523809Y-78354819D01*
X82523809Y-78354819D02*
X82857142Y-78735771D01*
X82857142Y-78735771D02*
X82714285Y-78735771D01*
X82714285Y-78735771D02*
X82619047Y-78783390D01*
X82619047Y-78783390D02*
X82571428Y-78831009D01*
X82571428Y-78831009D02*
X82523809Y-78926247D01*
X82523809Y-78926247D02*
X82523809Y-79164342D01*
X82523809Y-79164342D02*
X82571428Y-79259580D01*
X82571428Y-79259580D02*
X82619047Y-79307200D01*
X82619047Y-79307200D02*
X82714285Y-79354819D01*
X82714285Y-79354819D02*
X82999999Y-79354819D01*
X82999999Y-79354819D02*
X83095237Y-79307200D01*
X83095237Y-79307200D02*
X83142856Y-79259580D01*
X82190475Y-78688152D02*
X81952380Y-79354819D01*
X81952380Y-79354819D02*
X81714285Y-78688152D01*
X81428570Y-78354819D02*
X80809523Y-78354819D01*
X80809523Y-78354819D02*
X81142856Y-78735771D01*
X81142856Y-78735771D02*
X80999999Y-78735771D01*
X80999999Y-78735771D02*
X80904761Y-78783390D01*
X80904761Y-78783390D02*
X80857142Y-78831009D01*
X80857142Y-78831009D02*
X80809523Y-78926247D01*
X80809523Y-78926247D02*
X80809523Y-79164342D01*
X80809523Y-79164342D02*
X80857142Y-79259580D01*
X80857142Y-79259580D02*
X80904761Y-79307200D01*
X80904761Y-79307200D02*
X80999999Y-79354819D01*
X80999999Y-79354819D02*
X81285713Y-79354819D01*
X81285713Y-79354819D02*
X81380951Y-79307200D01*
X81380951Y-79307200D02*
X81428570Y-79259580D01*
X89566666Y-81107200D02*
X89423809Y-81154819D01*
X89423809Y-81154819D02*
X89185714Y-81154819D01*
X89185714Y-81154819D02*
X89090476Y-81107200D01*
X89090476Y-81107200D02*
X89042857Y-81059580D01*
X89042857Y-81059580D02*
X88995238Y-80964342D01*
X88995238Y-80964342D02*
X88995238Y-80869104D01*
X88995238Y-80869104D02*
X89042857Y-80773866D01*
X89042857Y-80773866D02*
X89090476Y-80726247D01*
X89090476Y-80726247D02*
X89185714Y-80678628D01*
X89185714Y-80678628D02*
X89376190Y-80631009D01*
X89376190Y-80631009D02*
X89471428Y-80583390D01*
X89471428Y-80583390D02*
X89519047Y-80535771D01*
X89519047Y-80535771D02*
X89566666Y-80440533D01*
X89566666Y-80440533D02*
X89566666Y-80345295D01*
X89566666Y-80345295D02*
X89519047Y-80250057D01*
X89519047Y-80250057D02*
X89471428Y-80202438D01*
X89471428Y-80202438D02*
X89376190Y-80154819D01*
X89376190Y-80154819D02*
X89138095Y-80154819D01*
X89138095Y-80154819D02*
X88995238Y-80202438D01*
X88566666Y-81154819D02*
X88566666Y-80154819D01*
X88566666Y-80154819D02*
X88185714Y-80154819D01*
X88185714Y-80154819D02*
X88090476Y-80202438D01*
X88090476Y-80202438D02*
X88042857Y-80250057D01*
X88042857Y-80250057D02*
X87995238Y-80345295D01*
X87995238Y-80345295D02*
X87995238Y-80488152D01*
X87995238Y-80488152D02*
X88042857Y-80583390D01*
X88042857Y-80583390D02*
X88090476Y-80631009D01*
X88090476Y-80631009D02*
X88185714Y-80678628D01*
X88185714Y-80678628D02*
X88566666Y-80678628D01*
X86995238Y-81154819D02*
X87328571Y-80678628D01*
X87566666Y-81154819D02*
X87566666Y-80154819D01*
X87566666Y-80154819D02*
X87185714Y-80154819D01*
X87185714Y-80154819D02*
X87090476Y-80202438D01*
X87090476Y-80202438D02*
X87042857Y-80250057D01*
X87042857Y-80250057D02*
X86995238Y-80345295D01*
X86995238Y-80345295D02*
X86995238Y-80488152D01*
X86995238Y-80488152D02*
X87042857Y-80583390D01*
X87042857Y-80583390D02*
X87090476Y-80631009D01*
X87090476Y-80631009D02*
X87185714Y-80678628D01*
X87185714Y-80678628D02*
X87566666Y-80678628D01*
X86566666Y-80631009D02*
X86233333Y-80631009D01*
X86090476Y-81154819D02*
X86566666Y-81154819D01*
X86566666Y-81154819D02*
X86566666Y-80154819D01*
X86566666Y-80154819D02*
X86090476Y-80154819D01*
X85709523Y-80869104D02*
X85233333Y-80869104D01*
X85804761Y-81154819D02*
X85471428Y-80154819D01*
X85471428Y-80154819D02*
X85138095Y-81154819D01*
X84804761Y-81154819D02*
X84804761Y-80154819D01*
X84804761Y-80154819D02*
X84566666Y-80154819D01*
X84566666Y-80154819D02*
X84423809Y-80202438D01*
X84423809Y-80202438D02*
X84328571Y-80297676D01*
X84328571Y-80297676D02*
X84280952Y-80392914D01*
X84280952Y-80392914D02*
X84233333Y-80583390D01*
X84233333Y-80583390D02*
X84233333Y-80726247D01*
X84233333Y-80726247D02*
X84280952Y-80916723D01*
X84280952Y-80916723D02*
X84328571Y-81011961D01*
X84328571Y-81011961D02*
X84423809Y-81107200D01*
X84423809Y-81107200D02*
X84566666Y-81154819D01*
X84566666Y-81154819D02*
X84804761Y-81154819D01*
D11*
X79194114Y-57373947D02*
X80622685Y-57373947D01*
X79908399Y-57373947D02*
X79908399Y-54873947D01*
X79908399Y-54873947D02*
X80146495Y-55231090D01*
X80146495Y-55231090D02*
X80384590Y-55469185D01*
X80384590Y-55469185D02*
X80622685Y-55588233D01*
D10*
X91380952Y-94139903D02*
X91380952Y-94949426D01*
X91380952Y-94949426D02*
X91333333Y-95044664D01*
X91333333Y-95044664D02*
X91285714Y-95092284D01*
X91285714Y-95092284D02*
X91190476Y-95139903D01*
X91190476Y-95139903D02*
X91000000Y-95139903D01*
X91000000Y-95139903D02*
X90904762Y-95092284D01*
X90904762Y-95092284D02*
X90857143Y-95044664D01*
X90857143Y-95044664D02*
X90809524Y-94949426D01*
X90809524Y-94949426D02*
X90809524Y-94139903D01*
X90380952Y-94854188D02*
X89904762Y-94854188D01*
X90476190Y-95139903D02*
X90142857Y-94139903D01*
X90142857Y-94139903D02*
X89809524Y-95139903D01*
X88904762Y-95139903D02*
X89238095Y-94663712D01*
X89476190Y-95139903D02*
X89476190Y-94139903D01*
X89476190Y-94139903D02*
X89095238Y-94139903D01*
X89095238Y-94139903D02*
X89000000Y-94187522D01*
X89000000Y-94187522D02*
X88952381Y-94235141D01*
X88952381Y-94235141D02*
X88904762Y-94330379D01*
X88904762Y-94330379D02*
X88904762Y-94473236D01*
X88904762Y-94473236D02*
X88952381Y-94568474D01*
X88952381Y-94568474D02*
X89000000Y-94616093D01*
X89000000Y-94616093D02*
X89095238Y-94663712D01*
X89095238Y-94663712D02*
X89476190Y-94663712D01*
X88619047Y-94139903D02*
X88047619Y-94139903D01*
X88333333Y-95139903D02*
X88333333Y-94139903D01*
X86523809Y-95139903D02*
X86523809Y-94616093D01*
X86523809Y-94616093D02*
X86571428Y-94520855D01*
X86571428Y-94520855D02*
X86666666Y-94473236D01*
X86666666Y-94473236D02*
X86857142Y-94473236D01*
X86857142Y-94473236D02*
X86952380Y-94520855D01*
X86523809Y-95092284D02*
X86619047Y-95139903D01*
X86619047Y-95139903D02*
X86857142Y-95139903D01*
X86857142Y-95139903D02*
X86952380Y-95092284D01*
X86952380Y-95092284D02*
X86999999Y-94997045D01*
X86999999Y-94997045D02*
X86999999Y-94901807D01*
X86999999Y-94901807D02*
X86952380Y-94806569D01*
X86952380Y-94806569D02*
X86857142Y-94758950D01*
X86857142Y-94758950D02*
X86619047Y-94758950D01*
X86619047Y-94758950D02*
X86523809Y-94711331D01*
X85619047Y-95139903D02*
X85619047Y-94139903D01*
X85619047Y-95092284D02*
X85714285Y-95139903D01*
X85714285Y-95139903D02*
X85904761Y-95139903D01*
X85904761Y-95139903D02*
X85999999Y-95092284D01*
X85999999Y-95092284D02*
X86047618Y-95044664D01*
X86047618Y-95044664D02*
X86095237Y-94949426D01*
X86095237Y-94949426D02*
X86095237Y-94663712D01*
X86095237Y-94663712D02*
X86047618Y-94568474D01*
X86047618Y-94568474D02*
X85999999Y-94520855D01*
X85999999Y-94520855D02*
X85904761Y-94473236D01*
X85904761Y-94473236D02*
X85714285Y-94473236D01*
X85714285Y-94473236D02*
X85619047Y-94520855D01*
X84714285Y-95139903D02*
X84714285Y-94139903D01*
X84714285Y-95092284D02*
X84809523Y-95139903D01*
X84809523Y-95139903D02*
X84999999Y-95139903D01*
X84999999Y-95139903D02*
X85095237Y-95092284D01*
X85095237Y-95092284D02*
X85142856Y-95044664D01*
X85142856Y-95044664D02*
X85190475Y-94949426D01*
X85190475Y-94949426D02*
X85190475Y-94663712D01*
X85190475Y-94663712D02*
X85142856Y-94568474D01*
X85142856Y-94568474D02*
X85095237Y-94520855D01*
X85095237Y-94520855D02*
X84999999Y-94473236D01*
X84999999Y-94473236D02*
X84809523Y-94473236D01*
X84809523Y-94473236D02*
X84714285Y-94520855D01*
X84238094Y-95139903D02*
X84238094Y-94473236D01*
X84238094Y-94663712D02*
X84190475Y-94568474D01*
X84190475Y-94568474D02*
X84142856Y-94520855D01*
X84142856Y-94520855D02*
X84047618Y-94473236D01*
X84047618Y-94473236D02*
X83952380Y-94473236D01*
X83238094Y-95092284D02*
X83333332Y-95139903D01*
X83333332Y-95139903D02*
X83523808Y-95139903D01*
X83523808Y-95139903D02*
X83619046Y-95092284D01*
X83619046Y-95092284D02*
X83666665Y-94997045D01*
X83666665Y-94997045D02*
X83666665Y-94616093D01*
X83666665Y-94616093D02*
X83619046Y-94520855D01*
X83619046Y-94520855D02*
X83523808Y-94473236D01*
X83523808Y-94473236D02*
X83333332Y-94473236D01*
X83333332Y-94473236D02*
X83238094Y-94520855D01*
X83238094Y-94520855D02*
X83190475Y-94616093D01*
X83190475Y-94616093D02*
X83190475Y-94711331D01*
X83190475Y-94711331D02*
X83666665Y-94806569D01*
X82809522Y-95092284D02*
X82714284Y-95139903D01*
X82714284Y-95139903D02*
X82523808Y-95139903D01*
X82523808Y-95139903D02*
X82428570Y-95092284D01*
X82428570Y-95092284D02*
X82380951Y-94997045D01*
X82380951Y-94997045D02*
X82380951Y-94949426D01*
X82380951Y-94949426D02*
X82428570Y-94854188D01*
X82428570Y-94854188D02*
X82523808Y-94806569D01*
X82523808Y-94806569D02*
X82666665Y-94806569D01*
X82666665Y-94806569D02*
X82761903Y-94758950D01*
X82761903Y-94758950D02*
X82809522Y-94663712D01*
X82809522Y-94663712D02*
X82809522Y-94616093D01*
X82809522Y-94616093D02*
X82761903Y-94520855D01*
X82761903Y-94520855D02*
X82666665Y-94473236D01*
X82666665Y-94473236D02*
X82523808Y-94473236D01*
X82523808Y-94473236D02*
X82428570Y-94520855D01*
X81999998Y-95092284D02*
X81904760Y-95139903D01*
X81904760Y-95139903D02*
X81714284Y-95139903D01*
X81714284Y-95139903D02*
X81619046Y-95092284D01*
X81619046Y-95092284D02*
X81571427Y-94997045D01*
X81571427Y-94997045D02*
X81571427Y-94949426D01*
X81571427Y-94949426D02*
X81619046Y-94854188D01*
X81619046Y-94854188D02*
X81714284Y-94806569D01*
X81714284Y-94806569D02*
X81857141Y-94806569D01*
X81857141Y-94806569D02*
X81952379Y-94758950D01*
X81952379Y-94758950D02*
X81999998Y-94663712D01*
X81999998Y-94663712D02*
X81999998Y-94616093D01*
X81999998Y-94616093D02*
X81952379Y-94520855D01*
X81952379Y-94520855D02*
X81857141Y-94473236D01*
X81857141Y-94473236D02*
X81714284Y-94473236D01*
X81714284Y-94473236D02*
X81619046Y-94520855D01*
X91523810Y-97130799D02*
X91571429Y-97083180D01*
X91571429Y-97083180D02*
X91666667Y-96940323D01*
X91666667Y-96940323D02*
X91714286Y-96845085D01*
X91714286Y-96845085D02*
X91761905Y-96702228D01*
X91761905Y-96702228D02*
X91809524Y-96464132D01*
X91809524Y-96464132D02*
X91809524Y-96273656D01*
X91809524Y-96273656D02*
X91761905Y-96035561D01*
X91761905Y-96035561D02*
X91714286Y-95892704D01*
X91714286Y-95892704D02*
X91666667Y-95797466D01*
X91666667Y-95797466D02*
X91571429Y-95654608D01*
X91571429Y-95654608D02*
X91523810Y-95606989D01*
X91238095Y-96749847D02*
X90714286Y-96083180D01*
X91238095Y-96083180D02*
X90714286Y-96749847D01*
X89571428Y-96368894D02*
X88809524Y-96368894D01*
X87619047Y-96702228D02*
X87523809Y-96749847D01*
X87523809Y-96749847D02*
X87333333Y-96749847D01*
X87333333Y-96749847D02*
X87238095Y-96702228D01*
X87238095Y-96702228D02*
X87190476Y-96606989D01*
X87190476Y-96606989D02*
X87190476Y-96559370D01*
X87190476Y-96559370D02*
X87238095Y-96464132D01*
X87238095Y-96464132D02*
X87333333Y-96416513D01*
X87333333Y-96416513D02*
X87476190Y-96416513D01*
X87476190Y-96416513D02*
X87571428Y-96368894D01*
X87571428Y-96368894D02*
X87619047Y-96273656D01*
X87619047Y-96273656D02*
X87619047Y-96226037D01*
X87619047Y-96226037D02*
X87571428Y-96130799D01*
X87571428Y-96130799D02*
X87476190Y-96083180D01*
X87476190Y-96083180D02*
X87333333Y-96083180D01*
X87333333Y-96083180D02*
X87238095Y-96130799D01*
X86619047Y-96749847D02*
X86714285Y-96702228D01*
X86714285Y-96702228D02*
X86761904Y-96654608D01*
X86761904Y-96654608D02*
X86809523Y-96559370D01*
X86809523Y-96559370D02*
X86809523Y-96273656D01*
X86809523Y-96273656D02*
X86761904Y-96178418D01*
X86761904Y-96178418D02*
X86714285Y-96130799D01*
X86714285Y-96130799D02*
X86619047Y-96083180D01*
X86619047Y-96083180D02*
X86476190Y-96083180D01*
X86476190Y-96083180D02*
X86380952Y-96130799D01*
X86380952Y-96130799D02*
X86333333Y-96178418D01*
X86333333Y-96178418D02*
X86285714Y-96273656D01*
X86285714Y-96273656D02*
X86285714Y-96559370D01*
X86285714Y-96559370D02*
X86333333Y-96654608D01*
X86333333Y-96654608D02*
X86380952Y-96702228D01*
X86380952Y-96702228D02*
X86476190Y-96749847D01*
X86476190Y-96749847D02*
X86619047Y-96749847D01*
X85714285Y-96749847D02*
X85809523Y-96702228D01*
X85809523Y-96702228D02*
X85857142Y-96606989D01*
X85857142Y-96606989D02*
X85857142Y-95749847D01*
X84904761Y-96749847D02*
X84904761Y-95749847D01*
X84904761Y-96702228D02*
X84999999Y-96749847D01*
X84999999Y-96749847D02*
X85190475Y-96749847D01*
X85190475Y-96749847D02*
X85285713Y-96702228D01*
X85285713Y-96702228D02*
X85333332Y-96654608D01*
X85333332Y-96654608D02*
X85380951Y-96559370D01*
X85380951Y-96559370D02*
X85380951Y-96273656D01*
X85380951Y-96273656D02*
X85333332Y-96178418D01*
X85333332Y-96178418D02*
X85285713Y-96130799D01*
X85285713Y-96130799D02*
X85190475Y-96083180D01*
X85190475Y-96083180D02*
X84999999Y-96083180D01*
X84999999Y-96083180D02*
X84904761Y-96130799D01*
X84047618Y-96702228D02*
X84142856Y-96749847D01*
X84142856Y-96749847D02*
X84333332Y-96749847D01*
X84333332Y-96749847D02*
X84428570Y-96702228D01*
X84428570Y-96702228D02*
X84476189Y-96606989D01*
X84476189Y-96606989D02*
X84476189Y-96226037D01*
X84476189Y-96226037D02*
X84428570Y-96130799D01*
X84428570Y-96130799D02*
X84333332Y-96083180D01*
X84333332Y-96083180D02*
X84142856Y-96083180D01*
X84142856Y-96083180D02*
X84047618Y-96130799D01*
X84047618Y-96130799D02*
X83999999Y-96226037D01*
X83999999Y-96226037D02*
X83999999Y-96321275D01*
X83999999Y-96321275D02*
X84476189Y-96416513D01*
X83571427Y-96749847D02*
X83571427Y-96083180D01*
X83571427Y-96273656D02*
X83523808Y-96178418D01*
X83523808Y-96178418D02*
X83476189Y-96130799D01*
X83476189Y-96130799D02*
X83380951Y-96083180D01*
X83380951Y-96083180D02*
X83285713Y-96083180D01*
X82571427Y-96702228D02*
X82666665Y-96749847D01*
X82666665Y-96749847D02*
X82857141Y-96749847D01*
X82857141Y-96749847D02*
X82952379Y-96702228D01*
X82952379Y-96702228D02*
X82999998Y-96606989D01*
X82999998Y-96606989D02*
X82999998Y-96226037D01*
X82999998Y-96226037D02*
X82952379Y-96130799D01*
X82952379Y-96130799D02*
X82857141Y-96083180D01*
X82857141Y-96083180D02*
X82666665Y-96083180D01*
X82666665Y-96083180D02*
X82571427Y-96130799D01*
X82571427Y-96130799D02*
X82523808Y-96226037D01*
X82523808Y-96226037D02*
X82523808Y-96321275D01*
X82523808Y-96321275D02*
X82999998Y-96416513D01*
X81666665Y-96749847D02*
X81666665Y-95749847D01*
X81666665Y-96702228D02*
X81761903Y-96749847D01*
X81761903Y-96749847D02*
X81952379Y-96749847D01*
X81952379Y-96749847D02*
X82047617Y-96702228D01*
X82047617Y-96702228D02*
X82095236Y-96654608D01*
X82095236Y-96654608D02*
X82142855Y-96559370D01*
X82142855Y-96559370D02*
X82142855Y-96273656D01*
X82142855Y-96273656D02*
X82095236Y-96178418D01*
X82095236Y-96178418D02*
X82047617Y-96130799D01*
X82047617Y-96130799D02*
X81952379Y-96083180D01*
X81952379Y-96083180D02*
X81761903Y-96083180D01*
X81761903Y-96083180D02*
X81666665Y-96130799D01*
X81142855Y-96702228D02*
X81142855Y-96749847D01*
X81142855Y-96749847D02*
X81190474Y-96845085D01*
X81190474Y-96845085D02*
X81238093Y-96892704D01*
X93285715Y-98359791D02*
X93380953Y-98312172D01*
X93380953Y-98312172D02*
X93428572Y-98264552D01*
X93428572Y-98264552D02*
X93476191Y-98169314D01*
X93476191Y-98169314D02*
X93476191Y-97883600D01*
X93476191Y-97883600D02*
X93428572Y-97788362D01*
X93428572Y-97788362D02*
X93380953Y-97740743D01*
X93380953Y-97740743D02*
X93285715Y-97693124D01*
X93285715Y-97693124D02*
X93142858Y-97693124D01*
X93142858Y-97693124D02*
X93047620Y-97740743D01*
X93047620Y-97740743D02*
X93000001Y-97788362D01*
X93000001Y-97788362D02*
X92952382Y-97883600D01*
X92952382Y-97883600D02*
X92952382Y-98169314D01*
X92952382Y-98169314D02*
X93000001Y-98264552D01*
X93000001Y-98264552D02*
X93047620Y-98312172D01*
X93047620Y-98312172D02*
X93142858Y-98359791D01*
X93142858Y-98359791D02*
X93285715Y-98359791D01*
X91761905Y-97978838D02*
X91000001Y-97978838D01*
X89761905Y-97693124D02*
X89761905Y-98359791D01*
X89761905Y-97788362D02*
X89714286Y-97740743D01*
X89714286Y-97740743D02*
X89619048Y-97693124D01*
X89619048Y-97693124D02*
X89476191Y-97693124D01*
X89476191Y-97693124D02*
X89380953Y-97740743D01*
X89380953Y-97740743D02*
X89333334Y-97835981D01*
X89333334Y-97835981D02*
X89333334Y-98359791D01*
X88714286Y-98359791D02*
X88809524Y-98312172D01*
X88809524Y-98312172D02*
X88857143Y-98264552D01*
X88857143Y-98264552D02*
X88904762Y-98169314D01*
X88904762Y-98169314D02*
X88904762Y-97883600D01*
X88904762Y-97883600D02*
X88857143Y-97788362D01*
X88857143Y-97788362D02*
X88809524Y-97740743D01*
X88809524Y-97740743D02*
X88714286Y-97693124D01*
X88714286Y-97693124D02*
X88571429Y-97693124D01*
X88571429Y-97693124D02*
X88476191Y-97740743D01*
X88476191Y-97740743D02*
X88428572Y-97788362D01*
X88428572Y-97788362D02*
X88380953Y-97883600D01*
X88380953Y-97883600D02*
X88380953Y-98169314D01*
X88380953Y-98169314D02*
X88428572Y-98264552D01*
X88428572Y-98264552D02*
X88476191Y-98312172D01*
X88476191Y-98312172D02*
X88571429Y-98359791D01*
X88571429Y-98359791D02*
X88714286Y-98359791D01*
X88095238Y-97693124D02*
X87714286Y-97693124D01*
X87952381Y-97359791D02*
X87952381Y-98216933D01*
X87952381Y-98216933D02*
X87904762Y-98312172D01*
X87904762Y-98312172D02*
X87809524Y-98359791D01*
X87809524Y-98359791D02*
X87714286Y-98359791D01*
X86666666Y-98312172D02*
X86571428Y-98359791D01*
X86571428Y-98359791D02*
X86380952Y-98359791D01*
X86380952Y-98359791D02*
X86285714Y-98312172D01*
X86285714Y-98312172D02*
X86238095Y-98216933D01*
X86238095Y-98216933D02*
X86238095Y-98169314D01*
X86238095Y-98169314D02*
X86285714Y-98074076D01*
X86285714Y-98074076D02*
X86380952Y-98026457D01*
X86380952Y-98026457D02*
X86523809Y-98026457D01*
X86523809Y-98026457D02*
X86619047Y-97978838D01*
X86619047Y-97978838D02*
X86666666Y-97883600D01*
X86666666Y-97883600D02*
X86666666Y-97835981D01*
X86666666Y-97835981D02*
X86619047Y-97740743D01*
X86619047Y-97740743D02*
X86523809Y-97693124D01*
X86523809Y-97693124D02*
X86380952Y-97693124D01*
X86380952Y-97693124D02*
X86285714Y-97740743D01*
X85666666Y-98359791D02*
X85761904Y-98312172D01*
X85761904Y-98312172D02*
X85809523Y-98264552D01*
X85809523Y-98264552D02*
X85857142Y-98169314D01*
X85857142Y-98169314D02*
X85857142Y-97883600D01*
X85857142Y-97883600D02*
X85809523Y-97788362D01*
X85809523Y-97788362D02*
X85761904Y-97740743D01*
X85761904Y-97740743D02*
X85666666Y-97693124D01*
X85666666Y-97693124D02*
X85523809Y-97693124D01*
X85523809Y-97693124D02*
X85428571Y-97740743D01*
X85428571Y-97740743D02*
X85380952Y-97788362D01*
X85380952Y-97788362D02*
X85333333Y-97883600D01*
X85333333Y-97883600D02*
X85333333Y-98169314D01*
X85333333Y-98169314D02*
X85380952Y-98264552D01*
X85380952Y-98264552D02*
X85428571Y-98312172D01*
X85428571Y-98312172D02*
X85523809Y-98359791D01*
X85523809Y-98359791D02*
X85666666Y-98359791D01*
X84761904Y-98359791D02*
X84857142Y-98312172D01*
X84857142Y-98312172D02*
X84904761Y-98216933D01*
X84904761Y-98216933D02*
X84904761Y-97359791D01*
X83952380Y-98359791D02*
X83952380Y-97359791D01*
X83952380Y-98312172D02*
X84047618Y-98359791D01*
X84047618Y-98359791D02*
X84238094Y-98359791D01*
X84238094Y-98359791D02*
X84333332Y-98312172D01*
X84333332Y-98312172D02*
X84380951Y-98264552D01*
X84380951Y-98264552D02*
X84428570Y-98169314D01*
X84428570Y-98169314D02*
X84428570Y-97883600D01*
X84428570Y-97883600D02*
X84380951Y-97788362D01*
X84380951Y-97788362D02*
X84333332Y-97740743D01*
X84333332Y-97740743D02*
X84238094Y-97693124D01*
X84238094Y-97693124D02*
X84047618Y-97693124D01*
X84047618Y-97693124D02*
X83952380Y-97740743D01*
X83095237Y-98312172D02*
X83190475Y-98359791D01*
X83190475Y-98359791D02*
X83380951Y-98359791D01*
X83380951Y-98359791D02*
X83476189Y-98312172D01*
X83476189Y-98312172D02*
X83523808Y-98216933D01*
X83523808Y-98216933D02*
X83523808Y-97835981D01*
X83523808Y-97835981D02*
X83476189Y-97740743D01*
X83476189Y-97740743D02*
X83380951Y-97693124D01*
X83380951Y-97693124D02*
X83190475Y-97693124D01*
X83190475Y-97693124D02*
X83095237Y-97740743D01*
X83095237Y-97740743D02*
X83047618Y-97835981D01*
X83047618Y-97835981D02*
X83047618Y-97931219D01*
X83047618Y-97931219D02*
X83523808Y-98026457D01*
X82619046Y-98359791D02*
X82619046Y-97693124D01*
X82619046Y-97883600D02*
X82571427Y-97788362D01*
X82571427Y-97788362D02*
X82523808Y-97740743D01*
X82523808Y-97740743D02*
X82428570Y-97693124D01*
X82428570Y-97693124D02*
X82333332Y-97693124D01*
X81619046Y-98312172D02*
X81714284Y-98359791D01*
X81714284Y-98359791D02*
X81904760Y-98359791D01*
X81904760Y-98359791D02*
X81999998Y-98312172D01*
X81999998Y-98312172D02*
X82047617Y-98216933D01*
X82047617Y-98216933D02*
X82047617Y-97835981D01*
X82047617Y-97835981D02*
X81999998Y-97740743D01*
X81999998Y-97740743D02*
X81904760Y-97693124D01*
X81904760Y-97693124D02*
X81714284Y-97693124D01*
X81714284Y-97693124D02*
X81619046Y-97740743D01*
X81619046Y-97740743D02*
X81571427Y-97835981D01*
X81571427Y-97835981D02*
X81571427Y-97931219D01*
X81571427Y-97931219D02*
X82047617Y-98026457D01*
X80714284Y-98359791D02*
X80714284Y-97359791D01*
X80714284Y-98312172D02*
X80809522Y-98359791D01*
X80809522Y-98359791D02*
X80999998Y-98359791D01*
X80999998Y-98359791D02*
X81095236Y-98312172D01*
X81095236Y-98312172D02*
X81142855Y-98264552D01*
X81142855Y-98264552D02*
X81190474Y-98169314D01*
X81190474Y-98169314D02*
X81190474Y-97883600D01*
X81190474Y-97883600D02*
X81142855Y-97788362D01*
X81142855Y-97788362D02*
X81095236Y-97740743D01*
X81095236Y-97740743D02*
X80999998Y-97693124D01*
X80999998Y-97693124D02*
X80809522Y-97693124D01*
X80809522Y-97693124D02*
X80714284Y-97740743D01*
X80333331Y-98740743D02*
X80285712Y-98693124D01*
X80285712Y-98693124D02*
X80190474Y-98550267D01*
X80190474Y-98550267D02*
X80142855Y-98455029D01*
X80142855Y-98455029D02*
X80095236Y-98312172D01*
X80095236Y-98312172D02*
X80047617Y-98074076D01*
X80047617Y-98074076D02*
X80047617Y-97883600D01*
X80047617Y-97883600D02*
X80095236Y-97645505D01*
X80095236Y-97645505D02*
X80142855Y-97502648D01*
X80142855Y-97502648D02*
X80190474Y-97407410D01*
X80190474Y-97407410D02*
X80285712Y-97264552D01*
X80285712Y-97264552D02*
X80333331Y-97216933D01*
X79571426Y-98264552D02*
X79523807Y-98312172D01*
X79523807Y-98312172D02*
X79571426Y-98359791D01*
X79571426Y-98359791D02*
X79619045Y-98312172D01*
X79619045Y-98312172D02*
X79571426Y-98264552D01*
X79571426Y-98264552D02*
X79571426Y-98359791D01*
X79571426Y-97740743D02*
X79523807Y-97788362D01*
X79523807Y-97788362D02*
X79571426Y-97835981D01*
X79571426Y-97835981D02*
X79619045Y-97788362D01*
X79619045Y-97788362D02*
X79571426Y-97740743D01*
X79571426Y-97740743D02*
X79571426Y-97835981D01*
X90976190Y-99969735D02*
X90976190Y-98969735D01*
X90976190Y-98969735D02*
X90642857Y-99684020D01*
X90642857Y-99684020D02*
X90309524Y-98969735D01*
X90309524Y-98969735D02*
X90309524Y-99969735D01*
X89642857Y-98969735D02*
X89452381Y-98969735D01*
X89452381Y-98969735D02*
X89357143Y-99017354D01*
X89357143Y-99017354D02*
X89261905Y-99112592D01*
X89261905Y-99112592D02*
X89214286Y-99303068D01*
X89214286Y-99303068D02*
X89214286Y-99636401D01*
X89214286Y-99636401D02*
X89261905Y-99826877D01*
X89261905Y-99826877D02*
X89357143Y-99922116D01*
X89357143Y-99922116D02*
X89452381Y-99969735D01*
X89452381Y-99969735D02*
X89642857Y-99969735D01*
X89642857Y-99969735D02*
X89738095Y-99922116D01*
X89738095Y-99922116D02*
X89833333Y-99826877D01*
X89833333Y-99826877D02*
X89880952Y-99636401D01*
X89880952Y-99636401D02*
X89880952Y-99303068D01*
X89880952Y-99303068D02*
X89833333Y-99112592D01*
X89833333Y-99112592D02*
X89738095Y-99017354D01*
X89738095Y-99017354D02*
X89642857Y-98969735D01*
X88928571Y-98969735D02*
X88357143Y-98969735D01*
X88642857Y-99969735D02*
X88642857Y-98969735D01*
X88071428Y-99303068D02*
X87357143Y-99303068D01*
X87785714Y-98874496D02*
X88071428Y-100160211D01*
X87452381Y-99731639D02*
X88166666Y-99731639D01*
X87738095Y-100160211D02*
X87452381Y-98874496D01*
X85738095Y-99017354D02*
X85833333Y-98969735D01*
X85833333Y-98969735D02*
X85976190Y-98969735D01*
X85976190Y-98969735D02*
X86119047Y-99017354D01*
X86119047Y-99017354D02*
X86214285Y-99112592D01*
X86214285Y-99112592D02*
X86261904Y-99207830D01*
X86261904Y-99207830D02*
X86309523Y-99398306D01*
X86309523Y-99398306D02*
X86309523Y-99541163D01*
X86309523Y-99541163D02*
X86261904Y-99731639D01*
X86261904Y-99731639D02*
X86214285Y-99826877D01*
X86214285Y-99826877D02*
X86119047Y-99922116D01*
X86119047Y-99922116D02*
X85976190Y-99969735D01*
X85976190Y-99969735D02*
X85880952Y-99969735D01*
X85880952Y-99969735D02*
X85738095Y-99922116D01*
X85738095Y-99922116D02*
X85690476Y-99874496D01*
X85690476Y-99874496D02*
X85690476Y-99541163D01*
X85690476Y-99541163D02*
X85880952Y-99541163D01*
X85309523Y-99064973D02*
X85261904Y-99017354D01*
X85261904Y-99017354D02*
X85166666Y-98969735D01*
X85166666Y-98969735D02*
X84928571Y-98969735D01*
X84928571Y-98969735D02*
X84833333Y-99017354D01*
X84833333Y-99017354D02*
X84785714Y-99064973D01*
X84785714Y-99064973D02*
X84738095Y-99160211D01*
X84738095Y-99160211D02*
X84738095Y-99255449D01*
X84738095Y-99255449D02*
X84785714Y-99398306D01*
X84785714Y-99398306D02*
X85357142Y-99969735D01*
X85357142Y-99969735D02*
X84738095Y-99969735D01*
X83547618Y-99969735D02*
X83547618Y-98969735D01*
X83547618Y-99445925D02*
X82976190Y-99445925D01*
X82976190Y-99969735D02*
X82976190Y-98969735D01*
X82547618Y-99064973D02*
X82499999Y-99017354D01*
X82499999Y-99017354D02*
X82404761Y-98969735D01*
X82404761Y-98969735D02*
X82166666Y-98969735D01*
X82166666Y-98969735D02*
X82071428Y-99017354D01*
X82071428Y-99017354D02*
X82023809Y-99064973D01*
X82023809Y-99064973D02*
X81976190Y-99160211D01*
X81976190Y-99160211D02*
X81976190Y-99255449D01*
X81976190Y-99255449D02*
X82023809Y-99398306D01*
X82023809Y-99398306D02*
X82595237Y-99969735D01*
X82595237Y-99969735D02*
X81976190Y-99969735D01*
D11*
X73426533Y-96733147D02*
X71759866Y-96733147D01*
X71759866Y-96733147D02*
X72831295Y-99233147D01*
X90336761Y-125231947D02*
X91527237Y-125231947D01*
X91527237Y-125231947D02*
X91646285Y-126422423D01*
X91646285Y-126422423D02*
X91527237Y-126303376D01*
X91527237Y-126303376D02*
X91289142Y-126184328D01*
X91289142Y-126184328D02*
X90693904Y-126184328D01*
X90693904Y-126184328D02*
X90455809Y-126303376D01*
X90455809Y-126303376D02*
X90336761Y-126422423D01*
X90336761Y-126422423D02*
X90217714Y-126660519D01*
X90217714Y-126660519D02*
X90217714Y-127255757D01*
X90217714Y-127255757D02*
X90336761Y-127493852D01*
X90336761Y-127493852D02*
X90455809Y-127612900D01*
X90455809Y-127612900D02*
X90693904Y-127731947D01*
X90693904Y-127731947D02*
X91289142Y-127731947D01*
X91289142Y-127731947D02*
X91527237Y-127612900D01*
X91527237Y-127612900D02*
X91646285Y-127493852D01*
D10*
X107438094Y-67419104D02*
X106961904Y-67419104D01*
X107533332Y-67704819D02*
X107199999Y-66704819D01*
X107199999Y-66704819D02*
X106866666Y-67704819D01*
X110033333Y-61952228D02*
X109890476Y-61999847D01*
X109890476Y-61999847D02*
X109652381Y-61999847D01*
X109652381Y-61999847D02*
X109557143Y-61952228D01*
X109557143Y-61952228D02*
X109509524Y-61904608D01*
X109509524Y-61904608D02*
X109461905Y-61809370D01*
X109461905Y-61809370D02*
X109461905Y-61714132D01*
X109461905Y-61714132D02*
X109509524Y-61618894D01*
X109509524Y-61618894D02*
X109557143Y-61571275D01*
X109557143Y-61571275D02*
X109652381Y-61523656D01*
X109652381Y-61523656D02*
X109842857Y-61476037D01*
X109842857Y-61476037D02*
X109938095Y-61428418D01*
X109938095Y-61428418D02*
X109985714Y-61380799D01*
X109985714Y-61380799D02*
X110033333Y-61285561D01*
X110033333Y-61285561D02*
X110033333Y-61190323D01*
X110033333Y-61190323D02*
X109985714Y-61095085D01*
X109985714Y-61095085D02*
X109938095Y-61047466D01*
X109938095Y-61047466D02*
X109842857Y-60999847D01*
X109842857Y-60999847D02*
X109604762Y-60999847D01*
X109604762Y-60999847D02*
X109461905Y-61047466D01*
X108890476Y-61999847D02*
X108985714Y-61952228D01*
X108985714Y-61952228D02*
X109033333Y-61904608D01*
X109033333Y-61904608D02*
X109080952Y-61809370D01*
X109080952Y-61809370D02*
X109080952Y-61523656D01*
X109080952Y-61523656D02*
X109033333Y-61428418D01*
X109033333Y-61428418D02*
X108985714Y-61380799D01*
X108985714Y-61380799D02*
X108890476Y-61333180D01*
X108890476Y-61333180D02*
X108747619Y-61333180D01*
X108747619Y-61333180D02*
X108652381Y-61380799D01*
X108652381Y-61380799D02*
X108604762Y-61428418D01*
X108604762Y-61428418D02*
X108557143Y-61523656D01*
X108557143Y-61523656D02*
X108557143Y-61809370D01*
X108557143Y-61809370D02*
X108604762Y-61904608D01*
X108604762Y-61904608D02*
X108652381Y-61952228D01*
X108652381Y-61952228D02*
X108747619Y-61999847D01*
X108747619Y-61999847D02*
X108890476Y-61999847D01*
X107985714Y-61999847D02*
X108080952Y-61952228D01*
X108080952Y-61952228D02*
X108128571Y-61856989D01*
X108128571Y-61856989D02*
X108128571Y-60999847D01*
X107176190Y-61999847D02*
X107176190Y-60999847D01*
X107176190Y-61952228D02*
X107271428Y-61999847D01*
X107271428Y-61999847D02*
X107461904Y-61999847D01*
X107461904Y-61999847D02*
X107557142Y-61952228D01*
X107557142Y-61952228D02*
X107604761Y-61904608D01*
X107604761Y-61904608D02*
X107652380Y-61809370D01*
X107652380Y-61809370D02*
X107652380Y-61523656D01*
X107652380Y-61523656D02*
X107604761Y-61428418D01*
X107604761Y-61428418D02*
X107557142Y-61380799D01*
X107557142Y-61380799D02*
X107461904Y-61333180D01*
X107461904Y-61333180D02*
X107271428Y-61333180D01*
X107271428Y-61333180D02*
X107176190Y-61380799D01*
X106319047Y-61952228D02*
X106414285Y-61999847D01*
X106414285Y-61999847D02*
X106604761Y-61999847D01*
X106604761Y-61999847D02*
X106699999Y-61952228D01*
X106699999Y-61952228D02*
X106747618Y-61856989D01*
X106747618Y-61856989D02*
X106747618Y-61476037D01*
X106747618Y-61476037D02*
X106699999Y-61380799D01*
X106699999Y-61380799D02*
X106604761Y-61333180D01*
X106604761Y-61333180D02*
X106414285Y-61333180D01*
X106414285Y-61333180D02*
X106319047Y-61380799D01*
X106319047Y-61380799D02*
X106271428Y-61476037D01*
X106271428Y-61476037D02*
X106271428Y-61571275D01*
X106271428Y-61571275D02*
X106747618Y-61666513D01*
X105842856Y-61999847D02*
X105842856Y-61333180D01*
X105842856Y-61523656D02*
X105795237Y-61428418D01*
X105795237Y-61428418D02*
X105747618Y-61380799D01*
X105747618Y-61380799D02*
X105652380Y-61333180D01*
X105652380Y-61333180D02*
X105557142Y-61333180D01*
X105223808Y-61999847D02*
X105223808Y-61333180D01*
X105223808Y-60999847D02*
X105271427Y-61047466D01*
X105271427Y-61047466D02*
X105223808Y-61095085D01*
X105223808Y-61095085D02*
X105176189Y-61047466D01*
X105176189Y-61047466D02*
X105223808Y-60999847D01*
X105223808Y-60999847D02*
X105223808Y-61095085D01*
X104747618Y-61333180D02*
X104747618Y-61999847D01*
X104747618Y-61428418D02*
X104699999Y-61380799D01*
X104699999Y-61380799D02*
X104604761Y-61333180D01*
X104604761Y-61333180D02*
X104461904Y-61333180D01*
X104461904Y-61333180D02*
X104366666Y-61380799D01*
X104366666Y-61380799D02*
X104319047Y-61476037D01*
X104319047Y-61476037D02*
X104319047Y-61999847D01*
X103414285Y-61333180D02*
X103414285Y-62142704D01*
X103414285Y-62142704D02*
X103461904Y-62237942D01*
X103461904Y-62237942D02*
X103509523Y-62285561D01*
X103509523Y-62285561D02*
X103604761Y-62333180D01*
X103604761Y-62333180D02*
X103747618Y-62333180D01*
X103747618Y-62333180D02*
X103842856Y-62285561D01*
X103414285Y-61952228D02*
X103509523Y-61999847D01*
X103509523Y-61999847D02*
X103699999Y-61999847D01*
X103699999Y-61999847D02*
X103795237Y-61952228D01*
X103795237Y-61952228D02*
X103842856Y-61904608D01*
X103842856Y-61904608D02*
X103890475Y-61809370D01*
X103890475Y-61809370D02*
X103890475Y-61523656D01*
X103890475Y-61523656D02*
X103842856Y-61428418D01*
X103842856Y-61428418D02*
X103795237Y-61380799D01*
X103795237Y-61380799D02*
X103699999Y-61333180D01*
X103699999Y-61333180D02*
X103509523Y-61333180D01*
X103509523Y-61333180D02*
X103414285Y-61380799D01*
X109414285Y-62943124D02*
X109414285Y-63800267D01*
X109414285Y-63800267D02*
X109461904Y-63895505D01*
X109461904Y-63895505D02*
X109557142Y-63943124D01*
X109557142Y-63943124D02*
X109604761Y-63943124D01*
X109414285Y-62609791D02*
X109461904Y-62657410D01*
X109461904Y-62657410D02*
X109414285Y-62705029D01*
X109414285Y-62705029D02*
X109366666Y-62657410D01*
X109366666Y-62657410D02*
X109414285Y-62609791D01*
X109414285Y-62609791D02*
X109414285Y-62705029D01*
X108509524Y-62943124D02*
X108509524Y-63609791D01*
X108938095Y-62943124D02*
X108938095Y-63466933D01*
X108938095Y-63466933D02*
X108890476Y-63562172D01*
X108890476Y-63562172D02*
X108795238Y-63609791D01*
X108795238Y-63609791D02*
X108652381Y-63609791D01*
X108652381Y-63609791D02*
X108557143Y-63562172D01*
X108557143Y-63562172D02*
X108509524Y-63514552D01*
X108033333Y-63609791D02*
X108033333Y-62943124D01*
X108033333Y-63038362D02*
X107985714Y-62990743D01*
X107985714Y-62990743D02*
X107890476Y-62943124D01*
X107890476Y-62943124D02*
X107747619Y-62943124D01*
X107747619Y-62943124D02*
X107652381Y-62990743D01*
X107652381Y-62990743D02*
X107604762Y-63085981D01*
X107604762Y-63085981D02*
X107604762Y-63609791D01*
X107604762Y-63085981D02*
X107557143Y-62990743D01*
X107557143Y-62990743D02*
X107461905Y-62943124D01*
X107461905Y-62943124D02*
X107319048Y-62943124D01*
X107319048Y-62943124D02*
X107223809Y-62990743D01*
X107223809Y-62990743D02*
X107176190Y-63085981D01*
X107176190Y-63085981D02*
X107176190Y-63609791D01*
X106700000Y-62943124D02*
X106700000Y-63943124D01*
X106700000Y-62990743D02*
X106604762Y-62943124D01*
X106604762Y-62943124D02*
X106414286Y-62943124D01*
X106414286Y-62943124D02*
X106319048Y-62990743D01*
X106319048Y-62990743D02*
X106271429Y-63038362D01*
X106271429Y-63038362D02*
X106223810Y-63133600D01*
X106223810Y-63133600D02*
X106223810Y-63419314D01*
X106223810Y-63419314D02*
X106271429Y-63514552D01*
X106271429Y-63514552D02*
X106319048Y-63562172D01*
X106319048Y-63562172D02*
X106414286Y-63609791D01*
X106414286Y-63609791D02*
X106604762Y-63609791D01*
X106604762Y-63609791D02*
X106700000Y-63562172D01*
X105414286Y-63562172D02*
X105509524Y-63609791D01*
X105509524Y-63609791D02*
X105700000Y-63609791D01*
X105700000Y-63609791D02*
X105795238Y-63562172D01*
X105795238Y-63562172D02*
X105842857Y-63466933D01*
X105842857Y-63466933D02*
X105842857Y-63085981D01*
X105842857Y-63085981D02*
X105795238Y-62990743D01*
X105795238Y-62990743D02*
X105700000Y-62943124D01*
X105700000Y-62943124D02*
X105509524Y-62943124D01*
X105509524Y-62943124D02*
X105414286Y-62990743D01*
X105414286Y-62990743D02*
X105366667Y-63085981D01*
X105366667Y-63085981D02*
X105366667Y-63181219D01*
X105366667Y-63181219D02*
X105842857Y-63276457D01*
X104938095Y-63609791D02*
X104938095Y-62943124D01*
X104938095Y-63133600D02*
X104890476Y-63038362D01*
X104890476Y-63038362D02*
X104842857Y-62990743D01*
X104842857Y-62990743D02*
X104747619Y-62943124D01*
X104747619Y-62943124D02*
X104652381Y-62943124D01*
X104366666Y-63562172D02*
X104271428Y-63609791D01*
X104271428Y-63609791D02*
X104080952Y-63609791D01*
X104080952Y-63609791D02*
X103985714Y-63562172D01*
X103985714Y-63562172D02*
X103938095Y-63466933D01*
X103938095Y-63466933D02*
X103938095Y-63419314D01*
X103938095Y-63419314D02*
X103985714Y-63324076D01*
X103985714Y-63324076D02*
X104080952Y-63276457D01*
X104080952Y-63276457D02*
X104223809Y-63276457D01*
X104223809Y-63276457D02*
X104319047Y-63228838D01*
X104319047Y-63228838D02*
X104366666Y-63133600D01*
X104366666Y-63133600D02*
X104366666Y-63085981D01*
X104366666Y-63085981D02*
X104319047Y-62990743D01*
X104319047Y-62990743D02*
X104223809Y-62943124D01*
X104223809Y-62943124D02*
X104080952Y-62943124D01*
X104080952Y-62943124D02*
X103985714Y-62990743D01*
X93228570Y-84207200D02*
X93085713Y-84254819D01*
X93085713Y-84254819D02*
X92847618Y-84254819D01*
X92847618Y-84254819D02*
X92752380Y-84207200D01*
X92752380Y-84207200D02*
X92704761Y-84159580D01*
X92704761Y-84159580D02*
X92657142Y-84064342D01*
X92657142Y-84064342D02*
X92657142Y-83969104D01*
X92657142Y-83969104D02*
X92704761Y-83873866D01*
X92704761Y-83873866D02*
X92752380Y-83826247D01*
X92752380Y-83826247D02*
X92847618Y-83778628D01*
X92847618Y-83778628D02*
X93038094Y-83731009D01*
X93038094Y-83731009D02*
X93133332Y-83683390D01*
X93133332Y-83683390D02*
X93180951Y-83635771D01*
X93180951Y-83635771D02*
X93228570Y-83540533D01*
X93228570Y-83540533D02*
X93228570Y-83445295D01*
X93228570Y-83445295D02*
X93180951Y-83350057D01*
X93180951Y-83350057D02*
X93133332Y-83302438D01*
X93133332Y-83302438D02*
X93038094Y-83254819D01*
X93038094Y-83254819D02*
X92799999Y-83254819D01*
X92799999Y-83254819D02*
X92657142Y-83302438D01*
X91657142Y-84159580D02*
X91704761Y-84207200D01*
X91704761Y-84207200D02*
X91847618Y-84254819D01*
X91847618Y-84254819D02*
X91942856Y-84254819D01*
X91942856Y-84254819D02*
X92085713Y-84207200D01*
X92085713Y-84207200D02*
X92180951Y-84111961D01*
X92180951Y-84111961D02*
X92228570Y-84016723D01*
X92228570Y-84016723D02*
X92276189Y-83826247D01*
X92276189Y-83826247D02*
X92276189Y-83683390D01*
X92276189Y-83683390D02*
X92228570Y-83492914D01*
X92228570Y-83492914D02*
X92180951Y-83397676D01*
X92180951Y-83397676D02*
X92085713Y-83302438D01*
X92085713Y-83302438D02*
X91942856Y-83254819D01*
X91942856Y-83254819D02*
X91847618Y-83254819D01*
X91847618Y-83254819D02*
X91704761Y-83302438D01*
X91704761Y-83302438D02*
X91657142Y-83350057D01*
X91228570Y-84254819D02*
X91228570Y-83254819D01*
X90657142Y-84254819D02*
X91085713Y-83683390D01*
X90657142Y-83254819D02*
X91228570Y-83826247D01*
X90228570Y-83873866D02*
X89466666Y-83873866D01*
X88466666Y-83302438D02*
X88561904Y-83254819D01*
X88561904Y-83254819D02*
X88704761Y-83254819D01*
X88704761Y-83254819D02*
X88847618Y-83302438D01*
X88847618Y-83302438D02*
X88942856Y-83397676D01*
X88942856Y-83397676D02*
X88990475Y-83492914D01*
X88990475Y-83492914D02*
X89038094Y-83683390D01*
X89038094Y-83683390D02*
X89038094Y-83826247D01*
X89038094Y-83826247D02*
X88990475Y-84016723D01*
X88990475Y-84016723D02*
X88942856Y-84111961D01*
X88942856Y-84111961D02*
X88847618Y-84207200D01*
X88847618Y-84207200D02*
X88704761Y-84254819D01*
X88704761Y-84254819D02*
X88609523Y-84254819D01*
X88609523Y-84254819D02*
X88466666Y-84207200D01*
X88466666Y-84207200D02*
X88419047Y-84159580D01*
X88419047Y-84159580D02*
X88419047Y-83826247D01*
X88419047Y-83826247D02*
X88609523Y-83826247D01*
X87466666Y-84254819D02*
X88038094Y-84254819D01*
X87752380Y-84254819D02*
X87752380Y-83254819D01*
X87752380Y-83254819D02*
X87847618Y-83397676D01*
X87847618Y-83397676D02*
X87942856Y-83492914D01*
X87942856Y-83492914D02*
X88038094Y-83540533D01*
X87038094Y-83873866D02*
X86276190Y-83873866D01*
X85276190Y-83302438D02*
X85371428Y-83254819D01*
X85371428Y-83254819D02*
X85514285Y-83254819D01*
X85514285Y-83254819D02*
X85657142Y-83302438D01*
X85657142Y-83302438D02*
X85752380Y-83397676D01*
X85752380Y-83397676D02*
X85799999Y-83492914D01*
X85799999Y-83492914D02*
X85847618Y-83683390D01*
X85847618Y-83683390D02*
X85847618Y-83826247D01*
X85847618Y-83826247D02*
X85799999Y-84016723D01*
X85799999Y-84016723D02*
X85752380Y-84111961D01*
X85752380Y-84111961D02*
X85657142Y-84207200D01*
X85657142Y-84207200D02*
X85514285Y-84254819D01*
X85514285Y-84254819D02*
X85419047Y-84254819D01*
X85419047Y-84254819D02*
X85276190Y-84207200D01*
X85276190Y-84207200D02*
X85228571Y-84159580D01*
X85228571Y-84159580D02*
X85228571Y-83826247D01*
X85228571Y-83826247D02*
X85419047Y-83826247D01*
X84847618Y-83350057D02*
X84799999Y-83302438D01*
X84799999Y-83302438D02*
X84704761Y-83254819D01*
X84704761Y-83254819D02*
X84466666Y-83254819D01*
X84466666Y-83254819D02*
X84371428Y-83302438D01*
X84371428Y-83302438D02*
X84323809Y-83350057D01*
X84323809Y-83350057D02*
X84276190Y-83445295D01*
X84276190Y-83445295D02*
X84276190Y-83540533D01*
X84276190Y-83540533D02*
X84323809Y-83683390D01*
X84323809Y-83683390D02*
X84895237Y-84254819D01*
X84895237Y-84254819D02*
X84276190Y-84254819D01*
X83847618Y-83873866D02*
X83085714Y-83873866D01*
X82704761Y-83254819D02*
X82085714Y-83254819D01*
X82085714Y-83254819D02*
X82419047Y-83635771D01*
X82419047Y-83635771D02*
X82276190Y-83635771D01*
X82276190Y-83635771D02*
X82180952Y-83683390D01*
X82180952Y-83683390D02*
X82133333Y-83731009D01*
X82133333Y-83731009D02*
X82085714Y-83826247D01*
X82085714Y-83826247D02*
X82085714Y-84064342D01*
X82085714Y-84064342D02*
X82133333Y-84159580D01*
X82133333Y-84159580D02*
X82180952Y-84207200D01*
X82180952Y-84207200D02*
X82276190Y-84254819D01*
X82276190Y-84254819D02*
X82561904Y-84254819D01*
X82561904Y-84254819D02*
X82657142Y-84207200D01*
X82657142Y-84207200D02*
X82704761Y-84159580D01*
X81752380Y-83588152D02*
X81514285Y-84254819D01*
X81514285Y-84254819D02*
X81276190Y-83588152D01*
X80990475Y-83254819D02*
X80371428Y-83254819D01*
X80371428Y-83254819D02*
X80704761Y-83635771D01*
X80704761Y-83635771D02*
X80561904Y-83635771D01*
X80561904Y-83635771D02*
X80466666Y-83683390D01*
X80466666Y-83683390D02*
X80419047Y-83731009D01*
X80419047Y-83731009D02*
X80371428Y-83826247D01*
X80371428Y-83826247D02*
X80371428Y-84064342D01*
X80371428Y-84064342D02*
X80419047Y-84159580D01*
X80419047Y-84159580D02*
X80466666Y-84207200D01*
X80466666Y-84207200D02*
X80561904Y-84254819D01*
X80561904Y-84254819D02*
X80847618Y-84254819D01*
X80847618Y-84254819D02*
X80942856Y-84207200D01*
X80942856Y-84207200D02*
X80990475Y-84159580D01*
D12*
%TO.C,D3*%
X116326500Y-73370000D02*
X115526500Y-73370000D01*
X116326500Y-73370000D02*
X117126500Y-73370000D01*
X116326500Y-76490000D02*
X114526500Y-76490000D01*
X116326500Y-76490000D02*
X117126500Y-76490000D01*
%TO.C,JP36*%
X125332450Y-51892000D02*
X125632450Y-52192000D01*
X125332450Y-52492000D02*
X125332450Y-51892000D01*
X125632450Y-52192000D02*
X125332450Y-52492000D01*
X125882450Y-48042000D02*
X125882450Y-53542000D01*
X125882450Y-53542000D02*
X127832450Y-53542000D01*
X127832450Y-48042000D02*
X125882450Y-48042000D01*
X127832450Y-53542000D02*
X127832450Y-48042000D01*
%TO.C,JP51*%
X99674000Y-128958000D02*
X99674000Y-134458000D01*
X99674000Y-134458000D02*
X101624000Y-134458000D01*
X101624000Y-128958000D02*
X99674000Y-128958000D01*
X101624000Y-134458000D02*
X101624000Y-128958000D01*
X101874000Y-130308000D02*
X102174000Y-130008000D01*
X102174000Y-130008000D02*
X102174000Y-130608000D01*
X102174000Y-130608000D02*
X101874000Y-130308000D01*
%TO.C,JP1*%
X143627600Y-58239200D02*
X143627600Y-61039200D01*
X143627600Y-61039200D02*
X145627600Y-61039200D01*
X145627600Y-58239200D02*
X143627600Y-58239200D01*
X145627600Y-61039200D02*
X145627600Y-58239200D01*
%TO.C,JP42*%
X136592000Y-125596000D02*
X136592000Y-131096000D01*
X136592000Y-131096000D02*
X138542000Y-131096000D01*
X138542000Y-125596000D02*
X136592000Y-125596000D01*
X138542000Y-131096000D02*
X138542000Y-125596000D01*
X138792000Y-126946000D02*
X139092000Y-126646000D01*
X139092000Y-126646000D02*
X139092000Y-127246000D01*
X139092000Y-127246000D02*
X138792000Y-126946000D01*
%TO.C,JP67*%
X64948000Y-105895600D02*
X64948000Y-107845600D01*
X64948000Y-107845600D02*
X70448000Y-107845600D01*
X68798000Y-108395600D02*
X69098000Y-108095600D01*
X69098000Y-108095600D02*
X69398000Y-108395600D01*
X69398000Y-108395600D02*
X68798000Y-108395600D01*
X70448000Y-105895600D02*
X64948000Y-105895600D01*
X70448000Y-107845600D02*
X70448000Y-105895600D01*
%TO.C,JP46*%
X129480000Y-124914000D02*
X129480000Y-127714000D01*
X129480000Y-127714000D02*
X131480000Y-127714000D01*
X131480000Y-124914000D02*
X129480000Y-124914000D01*
X131480000Y-127714000D02*
X131480000Y-124914000D01*
%TO.C,JP64*%
X64948000Y-100815600D02*
X64948000Y-102765600D01*
X64948000Y-102765600D02*
X70448000Y-102765600D01*
X68798000Y-103315600D02*
X69098000Y-103015600D01*
X69098000Y-103015600D02*
X69398000Y-103315600D01*
X69398000Y-103315600D02*
X68798000Y-103315600D01*
X70448000Y-100815600D02*
X64948000Y-100815600D01*
X70448000Y-102765600D02*
X70448000Y-100815600D01*
%TO.C,JP26*%
X88829075Y-55255827D02*
X89129075Y-55555827D01*
X88829075Y-55855827D02*
X88829075Y-55255827D01*
X89129075Y-55555827D02*
X88829075Y-55855827D01*
X89379075Y-51405827D02*
X89379075Y-56905827D01*
X89379075Y-56905827D02*
X91329075Y-56905827D01*
X91329075Y-51405827D02*
X89379075Y-51405827D01*
X91329075Y-56905827D02*
X91329075Y-51405827D01*
%TO.C,JP18*%
X61408000Y-55317654D02*
X61708000Y-55617654D01*
X61408000Y-55917654D02*
X61408000Y-55317654D01*
X61708000Y-55617654D02*
X61408000Y-55917654D01*
X61958000Y-51467654D02*
X61958000Y-56967654D01*
X61958000Y-56967654D02*
X63908000Y-56967654D01*
X63908000Y-51467654D02*
X61958000Y-51467654D01*
X63908000Y-56967654D02*
X63908000Y-51467654D01*
%TO.C,JP5*%
X126158800Y-81753200D02*
X126158800Y-83753200D01*
X126158800Y-83753200D02*
X128958800Y-83753200D01*
X128958800Y-81753200D02*
X126158800Y-81753200D01*
X128958800Y-83753200D02*
X128958800Y-81753200D01*
%TO.C,R5*%
X138429276Y-102753900D02*
X138938724Y-102753900D01*
X138429276Y-103798900D02*
X138938724Y-103798900D01*
%TO.C,TP7*%
X159781200Y-98364000D02*
X159781200Y-100264000D01*
X159781200Y-100264000D02*
X161681200Y-100264000D01*
X161681200Y-98364000D02*
X159781200Y-98364000D01*
X161681200Y-100264000D02*
X161681200Y-98364000D01*
%TO.C,JP38*%
X123546450Y-54726000D02*
X123546450Y-57526000D01*
X123546450Y-57526000D02*
X125546450Y-57526000D01*
X125546450Y-54726000D02*
X123546450Y-54726000D01*
X125546450Y-57526000D02*
X125546450Y-54726000D01*
%TO.C,R8*%
X118871276Y-97013500D02*
X119380724Y-97013500D01*
X118871276Y-98058500D02*
X119380724Y-98058500D01*
%TO.C,R12*%
X119277676Y-92390700D02*
X119787124Y-92390700D01*
X119277676Y-93435700D02*
X119787124Y-93435700D01*
%TO.C,C28*%
X148975800Y-133826500D02*
X150845800Y-133826500D01*
X148975800Y-137911500D02*
X148975800Y-133826500D01*
X150845800Y-133826500D02*
X150845800Y-137911500D01*
%TO.C,D20*%
X115990000Y-95981600D02*
X115990000Y-92831600D01*
X117690000Y-95981600D02*
X115990000Y-95981600D01*
X117690000Y-95981600D02*
X117690000Y-92831600D01*
%TO.C,D23*%
X111973600Y-80633200D02*
X115123600Y-80633200D01*
X111973600Y-82333200D02*
X111973600Y-80633200D01*
X111973600Y-82333200D02*
X115123600Y-82333200D01*
%TO.C,JP7*%
X145564400Y-131588000D02*
X145564400Y-133588000D01*
X145564400Y-133588000D02*
X148364400Y-133588000D01*
X148364400Y-131588000D02*
X145564400Y-131588000D01*
X148364400Y-133588000D02*
X148364400Y-131588000D01*
%TO.C,RN3*%
X144141400Y-77503400D02*
X144141400Y-78503400D01*
X147501400Y-77503400D02*
X147501400Y-78503400D01*
%TO.C,JP29*%
X93901075Y-54787827D02*
X93901075Y-57587827D01*
X93901075Y-57587827D02*
X95901075Y-57587827D01*
X95901075Y-54787827D02*
X93901075Y-54787827D01*
X95901075Y-57587827D02*
X95901075Y-54787827D01*
%TO.C,JP70*%
X71632000Y-105641600D02*
X71632000Y-107641600D01*
X71632000Y-107641600D02*
X74432000Y-107641600D01*
X74432000Y-105641600D02*
X71632000Y-105641600D01*
X74432000Y-107641600D02*
X74432000Y-105641600D01*
%TO.C,D10*%
X99734000Y-100706000D02*
X99734000Y-97556000D01*
X101434000Y-100706000D02*
X99734000Y-100706000D01*
X101434000Y-100706000D02*
X101434000Y-97556000D01*
%TO.C,D17*%
X99734000Y-96642000D02*
X99734000Y-93492000D01*
X101434000Y-96642000D02*
X99734000Y-96642000D01*
X101434000Y-96642000D02*
X101434000Y-93492000D01*
%TO.C,JP49*%
X92054000Y-128958000D02*
X92054000Y-134458000D01*
X92054000Y-134458000D02*
X94004000Y-134458000D01*
X94004000Y-128958000D02*
X92054000Y-128958000D01*
X94004000Y-134458000D02*
X94004000Y-128958000D01*
X94254000Y-130308000D02*
X94554000Y-130008000D01*
X94554000Y-130008000D02*
X94554000Y-130608000D01*
X94554000Y-130608000D02*
X94254000Y-130308000D01*
%TO.C,JP27*%
X95687075Y-51953827D02*
X95987075Y-52253827D01*
X95687075Y-52553827D02*
X95687075Y-51953827D01*
X95987075Y-52253827D02*
X95687075Y-52553827D01*
X96237075Y-48103827D02*
X96237075Y-53603827D01*
X96237075Y-53603827D02*
X98187075Y-53603827D01*
X98187075Y-48103827D02*
X96237075Y-48103827D01*
X98187075Y-53603827D02*
X98187075Y-48103827D01*
%TO.C,JP50*%
X106532000Y-125656000D02*
X106532000Y-131156000D01*
X106532000Y-131156000D02*
X108482000Y-131156000D01*
X108482000Y-125656000D02*
X106532000Y-125656000D01*
X108482000Y-131156000D02*
X108482000Y-125656000D01*
X108732000Y-127006000D02*
X109032000Y-126706000D01*
X109032000Y-126706000D02*
X109032000Y-127306000D01*
X109032000Y-127306000D02*
X108732000Y-127006000D01*
%TO.C,RN4*%
X139184000Y-94382800D02*
X138184000Y-94382800D01*
X139184000Y-97742800D02*
X138184000Y-97742800D01*
%TO.C,JP24*%
X100767075Y-51953827D02*
X101067075Y-52253827D01*
X100767075Y-52553827D02*
X100767075Y-51953827D01*
X101067075Y-52253827D02*
X100767075Y-52553827D01*
X101317075Y-48103827D02*
X101317075Y-53603827D01*
X101317075Y-53603827D02*
X103267075Y-53603827D01*
X103267075Y-48103827D02*
X101317075Y-48103827D01*
X103267075Y-53603827D02*
X103267075Y-48103827D01*
%TO.C,D24*%
X159766000Y-57977600D02*
X159116000Y-57977600D01*
X159766000Y-57977600D02*
X160416000Y-57977600D01*
X159766000Y-61097600D02*
X158091000Y-61097600D01*
X159766000Y-61097600D02*
X160416000Y-61097600D01*
%TO.C,D4*%
X103240400Y-89204800D02*
X103240400Y-87404800D01*
X103240400Y-89204800D02*
X103240400Y-90004800D01*
X106360400Y-89204800D02*
X106360400Y-88404800D01*
X106360400Y-89204800D02*
X106360400Y-90004800D01*
%TO.C,JP15*%
X71660000Y-75914000D02*
X71660000Y-77914000D01*
X71660000Y-77914000D02*
X74460000Y-77914000D01*
X74460000Y-75914000D02*
X71660000Y-75914000D01*
X74460000Y-77914000D02*
X74460000Y-75914000D01*
%TO.C,R16*%
X158242724Y-80001500D02*
X157733276Y-80001500D01*
X158242724Y-81046500D02*
X157733276Y-81046500D01*
%TO.C,R6*%
X109930476Y-80757500D02*
X110439924Y-80757500D01*
X109930476Y-81802500D02*
X110439924Y-81802500D01*
%TO.C,JP10*%
X68278000Y-85566000D02*
X68278000Y-87516000D01*
X68278000Y-87516000D02*
X73778000Y-87516000D01*
X72128000Y-88066000D02*
X72428000Y-87766000D01*
X72428000Y-87766000D02*
X72728000Y-88066000D01*
X72728000Y-88066000D02*
X72128000Y-88066000D01*
X73778000Y-85566000D02*
X68278000Y-85566000D01*
X73778000Y-87516000D02*
X73778000Y-85566000D01*
%TO.C,JP13*%
X71660000Y-80994000D02*
X71660000Y-82994000D01*
X71660000Y-82994000D02*
X74460000Y-82994000D01*
X74460000Y-80994000D02*
X71660000Y-80994000D01*
X74460000Y-82994000D02*
X74460000Y-80994000D01*
%TO.C,C29*%
X147318000Y-135591333D02*
X147318000Y-135883867D01*
X148338000Y-135591333D02*
X148338000Y-135883867D01*
%TO.C,JP8*%
X64976000Y-73628000D02*
X64976000Y-75578000D01*
X64976000Y-75578000D02*
X70476000Y-75578000D01*
X68826000Y-76128000D02*
X69126000Y-75828000D01*
X69126000Y-75828000D02*
X69426000Y-76128000D01*
X69426000Y-76128000D02*
X68826000Y-76128000D01*
X70476000Y-73628000D02*
X64976000Y-73628000D01*
X70476000Y-75578000D02*
X70476000Y-73628000D01*
%TO.C,R34*%
X146965124Y-67981300D02*
X146455676Y-67981300D01*
X146965124Y-69026300D02*
X146455676Y-69026300D01*
%TO.C,U7*%
X104140000Y-74696000D02*
X102190000Y-74696000D01*
X104140000Y-74696000D02*
X107590000Y-74696000D01*
X104140000Y-84816000D02*
X102190000Y-84816000D01*
X104140000Y-84816000D02*
X106090000Y-84816000D01*
%TO.C,D12*%
X105796000Y-98464000D02*
X108946000Y-98464000D01*
X105796000Y-100164000D02*
X105796000Y-98464000D01*
X105796000Y-100164000D02*
X108946000Y-100164000D01*
%TO.C,D2*%
X125354500Y-73370000D02*
X124554500Y-73370000D01*
X125354500Y-73370000D02*
X127154500Y-73370000D01*
X125354500Y-76490000D02*
X124554500Y-76490000D01*
X125354500Y-76490000D02*
X126154500Y-76490000D01*
%TO.C,JP66*%
X68250000Y-112753600D02*
X68250000Y-114703600D01*
X68250000Y-114703600D02*
X73750000Y-114703600D01*
X72100000Y-115253600D02*
X72400000Y-114953600D01*
X72400000Y-114953600D02*
X72700000Y-115253600D01*
X72700000Y-115253600D02*
X72100000Y-115253600D01*
X73750000Y-112753600D02*
X68250000Y-112753600D01*
X73750000Y-114703600D02*
X73750000Y-112753600D01*
%TO.C,JP48*%
X94594000Y-128958000D02*
X94594000Y-134458000D01*
X94594000Y-134458000D02*
X96544000Y-134458000D01*
X96544000Y-128958000D02*
X94594000Y-128958000D01*
X96544000Y-134458000D02*
X96544000Y-128958000D01*
X96794000Y-130308000D02*
X97094000Y-130008000D01*
X97094000Y-130008000D02*
X97094000Y-130608000D01*
X97094000Y-130608000D02*
X96794000Y-130308000D01*
%TO.C,U3*%
X153924000Y-78202000D02*
X153124000Y-78202000D01*
X153924000Y-78202000D02*
X155724000Y-78202000D01*
X153924000Y-81322000D02*
X153124000Y-81322000D01*
X153924000Y-81322000D02*
X154724000Y-81322000D01*
%TO.C,R28*%
X136329426Y-45900700D02*
X136838874Y-45900700D01*
X136329426Y-46945700D02*
X136838874Y-46945700D01*
%TO.C,JP63*%
X67018925Y-124974000D02*
X67018925Y-127774000D01*
X67018925Y-127774000D02*
X69018925Y-127774000D01*
X69018925Y-124974000D02*
X67018925Y-124974000D01*
X69018925Y-127774000D02*
X69018925Y-124974000D01*
%TO.C,R37*%
X123912100Y-98525876D02*
X123912100Y-99035324D01*
X124957100Y-98525876D02*
X124957100Y-99035324D01*
%TO.C,D19*%
X109596000Y-94146000D02*
X106446000Y-94146000D01*
X109596000Y-94146000D02*
X109596000Y-95846000D01*
X109596000Y-95846000D02*
X106446000Y-95846000D01*
%TO.C,R26*%
X81802976Y-46024354D02*
X82312424Y-46024354D01*
X81802976Y-47069354D02*
X82312424Y-47069354D01*
%TO.C,JP17*%
X75886000Y-52015654D02*
X76186000Y-52315654D01*
X75886000Y-52615654D02*
X75886000Y-52015654D01*
X76186000Y-52315654D02*
X75886000Y-52615654D01*
X76436000Y-48165654D02*
X76436000Y-53665654D01*
X76436000Y-53665654D02*
X78386000Y-53665654D01*
X78386000Y-48165654D02*
X76436000Y-48165654D01*
X78386000Y-53665654D02*
X78386000Y-48165654D01*
%TO.C,R27*%
X109224051Y-45962527D02*
X109733499Y-45962527D01*
X109224051Y-47007527D02*
X109733499Y-47007527D01*
%TO.C,JP45*%
X132020000Y-124914000D02*
X132020000Y-127714000D01*
X132020000Y-127714000D02*
X134020000Y-127714000D01*
X134020000Y-124914000D02*
X132020000Y-124914000D01*
X134020000Y-127714000D02*
X134020000Y-124914000D01*
%TO.C,JP25*%
X103307075Y-51953827D02*
X103607075Y-52253827D01*
X103307075Y-52553827D02*
X103307075Y-51953827D01*
X103607075Y-52253827D02*
X103307075Y-52553827D01*
X103857075Y-48103827D02*
X103857075Y-53603827D01*
X103857075Y-53603827D02*
X105807075Y-53603827D01*
X105807075Y-48103827D02*
X103857075Y-48103827D01*
X105807075Y-53603827D02*
X105807075Y-48103827D01*
%TO.C,C10*%
X143859467Y-53846000D02*
X143566933Y-53846000D01*
X143859467Y-54866000D02*
X143566933Y-54866000D01*
%TO.C,R32*%
X62806700Y-94858624D02*
X62806700Y-94349176D01*
X63851700Y-94858624D02*
X63851700Y-94349176D01*
%TO.C,D9*%
X97702000Y-100706000D02*
X97702000Y-97556000D01*
X99402000Y-100706000D02*
X97702000Y-100706000D01*
X99402000Y-100706000D02*
X99402000Y-97556000D01*
%TO.C,D15*%
X109453600Y-78550400D02*
X112603600Y-78550400D01*
X109453600Y-80250400D02*
X109453600Y-78550400D01*
X109453600Y-80250400D02*
X112603600Y-80250400D01*
%TO.C,JP28*%
X98227075Y-51953827D02*
X98527075Y-52253827D01*
X98227075Y-52553827D02*
X98227075Y-51953827D01*
X98527075Y-52253827D02*
X98227075Y-52553827D01*
X98777075Y-48103827D02*
X98777075Y-53603827D01*
X98777075Y-53603827D02*
X100727075Y-53603827D01*
X100727075Y-48103827D02*
X98777075Y-48103827D01*
X100727075Y-53603827D02*
X100727075Y-48103827D01*
%TO.C,D25*%
X151694000Y-109708400D02*
X151694000Y-106848400D01*
X153614000Y-106848400D02*
X153614000Y-109708400D01*
X153614000Y-109708400D02*
X151694000Y-109708400D01*
%TO.C,R19*%
X155599676Y-105243100D02*
X156109124Y-105243100D01*
X155599676Y-106288100D02*
X156109124Y-106288100D01*
%TO.C,JP37*%
X121006450Y-54726000D02*
X121006450Y-57526000D01*
X121006450Y-57526000D02*
X123006450Y-57526000D01*
X123006450Y-54726000D02*
X121006450Y-54726000D01*
X123006450Y-57526000D02*
X123006450Y-54726000D01*
%TO.C,D21*%
X114533600Y-88456400D02*
X117683600Y-88456400D01*
X114533600Y-90156400D02*
X114533600Y-88456400D01*
X114533600Y-90156400D02*
X117683600Y-90156400D01*
%TO.C,JP19*%
X68266000Y-52015654D02*
X68566000Y-52315654D01*
X68266000Y-52615654D02*
X68266000Y-52015654D01*
X68566000Y-52315654D02*
X68266000Y-52615654D01*
X68816000Y-48165654D02*
X68816000Y-53665654D01*
X68816000Y-53665654D02*
X70766000Y-53665654D01*
X70766000Y-48165654D02*
X68816000Y-48165654D01*
X70766000Y-53665654D02*
X70766000Y-48165654D01*
%TO.C,R7*%
X116334624Y-90561900D02*
X115825176Y-90561900D01*
X116334624Y-91606900D02*
X115825176Y-91606900D01*
%TO.C,RN1*%
X137461200Y-73601200D02*
X137461200Y-72601200D01*
X140821200Y-73601200D02*
X140821200Y-72601200D01*
%TO.C,JP4*%
X134679400Y-109236000D02*
X134679400Y-111236000D01*
X134679400Y-111236000D02*
X137479400Y-111236000D01*
X137479400Y-109236000D02*
X134679400Y-109236000D01*
X137479400Y-111236000D02*
X137479400Y-109236000D01*
%TO.C,D7*%
X132298000Y-98298000D02*
X132298000Y-96498000D01*
X132298000Y-98298000D02*
X132298000Y-99098000D01*
X135418000Y-98298000D02*
X135418000Y-97498000D01*
X135418000Y-98298000D02*
X135418000Y-99098000D01*
%TO.C,JP32*%
X127872450Y-51892000D02*
X128172450Y-52192000D01*
X127872450Y-52492000D02*
X127872450Y-51892000D01*
X128172450Y-52192000D02*
X127872450Y-52492000D01*
X128422450Y-48042000D02*
X128422450Y-53542000D01*
X128422450Y-53542000D02*
X130372450Y-53542000D01*
X130372450Y-48042000D02*
X128422450Y-48042000D01*
X130372450Y-53542000D02*
X130372450Y-48042000D01*
%TO.C,JP2*%
X154197900Y-87578600D02*
X154197900Y-90378600D01*
X154197900Y-90378600D02*
X156197900Y-90378600D01*
X156197900Y-87578600D02*
X154197900Y-87578600D01*
X156197900Y-90378600D02*
X156197900Y-87578600D01*
%TO.C,JP35*%
X122792450Y-51892000D02*
X123092450Y-52192000D01*
X122792450Y-52492000D02*
X122792450Y-51892000D01*
X123092450Y-52192000D02*
X122792450Y-52492000D01*
X123342450Y-48042000D02*
X123342450Y-53542000D01*
X123342450Y-53542000D02*
X125292450Y-53542000D01*
X125292450Y-48042000D02*
X123342450Y-48042000D01*
X125292450Y-53542000D02*
X125292450Y-48042000D01*
%TO.C,D27*%
X146948000Y-118648400D02*
X146948000Y-125948400D01*
X146948000Y-118648400D02*
X151248000Y-118648400D01*
X151248000Y-118648400D02*
X151248000Y-125948400D01*
%TO.C,JP61*%
X72098925Y-124974000D02*
X72098925Y-127774000D01*
X72098925Y-127774000D02*
X74098925Y-127774000D01*
X74098925Y-124974000D02*
X72098925Y-124974000D01*
X74098925Y-127774000D02*
X74098925Y-124974000D01*
%TO.C,JP3*%
X126101600Y-95882000D02*
X126101600Y-98682000D01*
X126101600Y-98682000D02*
X128101600Y-98682000D01*
X128101600Y-95882000D02*
X126101600Y-95882000D01*
X128101600Y-98682000D02*
X128101600Y-95882000D01*
%TO.C,JP58*%
X76670925Y-125656000D02*
X76670925Y-131156000D01*
X76670925Y-131156000D02*
X78620925Y-131156000D01*
X78620925Y-125656000D02*
X76670925Y-125656000D01*
X78620925Y-131156000D02*
X78620925Y-125656000D01*
X78870925Y-127006000D02*
X79170925Y-126706000D01*
X79170925Y-126706000D02*
X79170925Y-127306000D01*
X79170925Y-127306000D02*
X78870925Y-127006000D01*
%TO.C,JP44*%
X127194000Y-128898000D02*
X127194000Y-134398000D01*
X127194000Y-134398000D02*
X129144000Y-134398000D01*
X129144000Y-128898000D02*
X127194000Y-128898000D01*
X129144000Y-134398000D02*
X129144000Y-128898000D01*
X129394000Y-130248000D02*
X129694000Y-129948000D01*
X129694000Y-129948000D02*
X129694000Y-130548000D01*
X129694000Y-130548000D02*
X129394000Y-130248000D01*
%TO.C,D11*%
X101766000Y-100706000D02*
X101766000Y-97556000D01*
X103466000Y-100706000D02*
X101766000Y-100706000D01*
X103466000Y-100706000D02*
X103466000Y-97556000D01*
%TO.C,JP14*%
X71660000Y-78454000D02*
X71660000Y-80454000D01*
X71660000Y-80454000D02*
X74460000Y-80454000D01*
X74460000Y-78454000D02*
X71660000Y-78454000D01*
X74460000Y-80454000D02*
X74460000Y-78454000D01*
%TO.C,JP39*%
X126086450Y-54726000D02*
X126086450Y-57526000D01*
X126086450Y-57526000D02*
X128086450Y-57526000D01*
X128086450Y-54726000D02*
X126086450Y-54726000D01*
X128086450Y-57526000D02*
X128086450Y-54726000D01*
%TO.C,R30*%
X88637024Y-135554300D02*
X88127576Y-135554300D01*
X88637024Y-136599300D02*
X88127576Y-136599300D01*
%TO.C,JP57*%
X62192925Y-128958000D02*
X62192925Y-134458000D01*
X62192925Y-134458000D02*
X64142925Y-134458000D01*
X64142925Y-128958000D02*
X62192925Y-128958000D01*
X64142925Y-134458000D02*
X64142925Y-128958000D01*
X64392925Y-130308000D02*
X64692925Y-130008000D01*
X64692925Y-130008000D02*
X64692925Y-130608000D01*
X64692925Y-130608000D02*
X64392925Y-130308000D01*
%TO.C,C27*%
X149502400Y-131870667D02*
X149502400Y-131578133D01*
X150522400Y-131870667D02*
X150522400Y-131578133D01*
%TO.C,JP40*%
X124654000Y-128898000D02*
X124654000Y-134398000D01*
X124654000Y-134398000D02*
X126604000Y-134398000D01*
X126604000Y-128898000D02*
X124654000Y-128898000D01*
X126604000Y-134398000D02*
X126604000Y-128898000D01*
X126854000Y-130248000D02*
X127154000Y-129948000D01*
X127154000Y-129948000D02*
X127154000Y-130548000D01*
X127154000Y-130548000D02*
X126854000Y-130248000D01*
%TO.C,C11*%
X149702567Y-53846000D02*
X149410033Y-53846000D01*
X149702567Y-54866000D02*
X149410033Y-54866000D01*
%TO.C,JP30*%
X96441075Y-54787827D02*
X96441075Y-57587827D01*
X96441075Y-57587827D02*
X98441075Y-57587827D01*
X98441075Y-54787827D02*
X96441075Y-54787827D01*
X98441075Y-57587827D02*
X98441075Y-54787827D01*
%TO.C,JP21*%
X66480000Y-54849654D02*
X66480000Y-57649654D01*
X66480000Y-57649654D02*
X68480000Y-57649654D01*
X68480000Y-54849654D02*
X66480000Y-54849654D01*
X68480000Y-57649654D02*
X68480000Y-54849654D01*
%TO.C,C13*%
X160932400Y-116478267D02*
X160932400Y-116185733D01*
X161952400Y-116478267D02*
X161952400Y-116185733D01*
%TO.C,JP23*%
X71560000Y-54849654D02*
X71560000Y-57649654D01*
X71560000Y-57649654D02*
X73560000Y-57649654D01*
X73560000Y-54849654D02*
X71560000Y-54849654D01*
X73560000Y-57649654D02*
X73560000Y-54849654D01*
%TO.C,U8*%
X151500000Y-138284000D02*
X157510000Y-138284000D01*
X153750000Y-131464000D02*
X157510000Y-131464000D01*
X157510000Y-131464000D02*
X157510000Y-132724000D01*
X157510000Y-138284000D02*
X157510000Y-137024000D01*
%TO.C,JP20*%
X70806000Y-52015654D02*
X71106000Y-52315654D01*
X70806000Y-52615654D02*
X70806000Y-52015654D01*
X71106000Y-52315654D02*
X70806000Y-52615654D01*
X71356000Y-48165654D02*
X71356000Y-53665654D01*
X71356000Y-53665654D02*
X73306000Y-53665654D01*
X73306000Y-48165654D02*
X71356000Y-48165654D01*
X73306000Y-53665654D02*
X73306000Y-48165654D01*
%TO.C,JP12*%
X64976000Y-76168000D02*
X64976000Y-78118000D01*
X64976000Y-78118000D02*
X70476000Y-78118000D01*
X68826000Y-78668000D02*
X69126000Y-78368000D01*
X69126000Y-78368000D02*
X69426000Y-78668000D01*
X69426000Y-78668000D02*
X68826000Y-78668000D01*
X70476000Y-76168000D02*
X64976000Y-76168000D01*
X70476000Y-78118000D02*
X70476000Y-76168000D01*
%TO.C,D6*%
X125186000Y-104648000D02*
X125186000Y-102848000D01*
X125186000Y-104648000D02*
X125186000Y-105448000D01*
X128306000Y-104648000D02*
X128306000Y-103848000D01*
X128306000Y-104648000D02*
X128306000Y-105448000D01*
%TO.C,R17*%
X158242724Y-78477500D02*
X157733276Y-78477500D01*
X158242724Y-79522500D02*
X157733276Y-79522500D01*
%TO.C,D22*%
X153396000Y-82773000D02*
X160696000Y-82773000D01*
X153396000Y-87073000D02*
X153396000Y-82773000D01*
X153396000Y-87073000D02*
X160696000Y-87073000D01*
%TO.C,C12*%
X132492533Y-111808800D02*
X132785067Y-111808800D01*
X132492533Y-112828800D02*
X132785067Y-112828800D01*
%TO.C,C16*%
X129875000Y-93933400D02*
X131745000Y-93933400D01*
X129875000Y-98018400D02*
X129875000Y-93933400D01*
X131745000Y-93933400D02*
X131745000Y-98018400D01*
%TO.C,C18*%
X129995200Y-91992667D02*
X129995200Y-91700133D01*
X131015200Y-91992667D02*
X131015200Y-91700133D01*
%TO.C,JP22*%
X69020000Y-54849654D02*
X69020000Y-57649654D01*
X69020000Y-57649654D02*
X71020000Y-57649654D01*
X71020000Y-54849654D02*
X69020000Y-54849654D01*
X71020000Y-57649654D02*
X71020000Y-54849654D01*
%TO.C,R22*%
X118349500Y-80368224D02*
X118349500Y-79858776D01*
X119394500Y-80368224D02*
X119394500Y-79858776D01*
%TO.C,D16*%
X97702000Y-96642000D02*
X97702000Y-93492000D01*
X99402000Y-96642000D02*
X97702000Y-96642000D01*
X99402000Y-96642000D02*
X99402000Y-93492000D01*
%TO.C,JP6*%
X142618000Y-137836400D02*
X142618000Y-139836400D01*
X142618000Y-139836400D02*
X145418000Y-139836400D01*
X145418000Y-137836400D02*
X142618000Y-137836400D01*
X145418000Y-139836400D02*
X145418000Y-137836400D01*
%TO.C,R31*%
X58775949Y-135554300D02*
X58266501Y-135554300D01*
X58775949Y-136599300D02*
X58266501Y-136599300D01*
%TO.C,D13*%
X122824000Y-94806400D02*
X119674000Y-94806400D01*
X122824000Y-94806400D02*
X122824000Y-96506400D01*
X122824000Y-96506400D02*
X119674000Y-96506400D01*
%TO.C,JP56*%
X64732925Y-128958000D02*
X64732925Y-134458000D01*
X64732925Y-134458000D02*
X66682925Y-134458000D01*
X66682925Y-128958000D02*
X64732925Y-128958000D01*
X66682925Y-134458000D02*
X66682925Y-128958000D01*
X66932925Y-130308000D02*
X67232925Y-130008000D01*
X67232925Y-130008000D02*
X67232925Y-130608000D01*
X67232925Y-130608000D02*
X66932925Y-130308000D01*
%TO.C,JP60*%
X67272925Y-128958000D02*
X67272925Y-134458000D01*
X67272925Y-134458000D02*
X69222925Y-134458000D01*
X69222925Y-128958000D02*
X67272925Y-128958000D01*
X69222925Y-134458000D02*
X69222925Y-128958000D01*
X69472925Y-130308000D02*
X69772925Y-130008000D01*
X69772925Y-130008000D02*
X69772925Y-130608000D01*
X69772925Y-130608000D02*
X69472925Y-130308000D01*
%TO.C,JP65*%
X64948000Y-98275600D02*
X64948000Y-100225600D01*
X64948000Y-100225600D02*
X70448000Y-100225600D01*
X68798000Y-100775600D02*
X69098000Y-100475600D01*
X69098000Y-100475600D02*
X69398000Y-100775600D01*
X69398000Y-100775600D02*
X68798000Y-100775600D01*
X70448000Y-98275600D02*
X64948000Y-98275600D01*
X70448000Y-100225600D02*
X70448000Y-98275600D01*
%TO.C,D1*%
X131823000Y-83698500D02*
X131823000Y-81898500D01*
X131823000Y-83698500D02*
X131823000Y-84498500D01*
X134943000Y-83698500D02*
X134943000Y-82898500D01*
X134943000Y-83698500D02*
X134943000Y-84498500D01*
%TO.C,D18*%
X101766000Y-96642000D02*
X101766000Y-93492000D01*
X103466000Y-96642000D02*
X101766000Y-96642000D01*
X103466000Y-96642000D02*
X103466000Y-93492000D01*
%TO.C,R15*%
X138429276Y-101077500D02*
X138938724Y-101077500D01*
X138429276Y-102122500D02*
X138938724Y-102122500D01*
%TO.C,JP41*%
X122114000Y-128898000D02*
X122114000Y-134398000D01*
X122114000Y-134398000D02*
X124064000Y-134398000D01*
X124064000Y-128898000D02*
X122114000Y-128898000D01*
X124064000Y-134398000D02*
X124064000Y-128898000D01*
X124314000Y-130248000D02*
X124614000Y-129948000D01*
X124614000Y-129948000D02*
X124614000Y-130548000D01*
X124614000Y-130548000D02*
X124314000Y-130248000D01*
%TO.C,R1*%
X147203900Y-85497124D02*
X147203900Y-84987676D01*
X148248900Y-85497124D02*
X148248900Y-84987676D01*
%TO.C,JP55*%
X96880000Y-124974000D02*
X96880000Y-127774000D01*
X96880000Y-127774000D02*
X98880000Y-127774000D01*
X98880000Y-124974000D02*
X96880000Y-124974000D01*
X98880000Y-127774000D02*
X98880000Y-124974000D01*
%TO.C,C17*%
X151716200Y-124223200D02*
X158651200Y-124223200D01*
X151716200Y-127643200D02*
X151716200Y-124223200D01*
X158651200Y-127643200D02*
X151716200Y-127643200D01*
%TO.C,D8*%
X131823000Y-91318500D02*
X131823000Y-89518500D01*
X131823000Y-91318500D02*
X131823000Y-92118500D01*
X134943000Y-91318500D02*
X134943000Y-90518500D01*
X134943000Y-91318500D02*
X134943000Y-92118500D01*
%TO.C,C8*%
X114602800Y-93872267D02*
X114602800Y-93579733D01*
X115622800Y-93872267D02*
X115622800Y-93579733D01*
%TO.C,JP54*%
X99420000Y-124974000D02*
X99420000Y-127774000D01*
X99420000Y-127774000D02*
X101420000Y-127774000D01*
X101420000Y-124974000D02*
X99420000Y-124974000D01*
X101420000Y-127774000D02*
X101420000Y-124974000D01*
%TO.C,RN2*%
X130157600Y-103171200D02*
X131157600Y-103171200D01*
X130157600Y-106531200D02*
X131157600Y-106531200D01*
%TO.C,R29*%
X118697024Y-135494300D02*
X118187576Y-135494300D01*
X118697024Y-136539300D02*
X118187576Y-136539300D01*
%TO.C,JP33*%
X130412450Y-51892000D02*
X130712450Y-52192000D01*
X130412450Y-52492000D02*
X130412450Y-51892000D01*
X130712450Y-52192000D02*
X130412450Y-52492000D01*
X130962450Y-48042000D02*
X130962450Y-53542000D01*
X130962450Y-53542000D02*
X132912450Y-53542000D01*
X132912450Y-48042000D02*
X130962450Y-48042000D01*
X132912450Y-53542000D02*
X132912450Y-48042000D01*
%TO.C,C15*%
X127603467Y-84326000D02*
X127310933Y-84326000D01*
X127603467Y-85346000D02*
X127310933Y-85346000D01*
%TO.C,JP16*%
X73346000Y-52015654D02*
X73646000Y-52315654D01*
X73346000Y-52615654D02*
X73346000Y-52015654D01*
X73646000Y-52315654D02*
X73346000Y-52615654D01*
X73896000Y-48165654D02*
X73896000Y-53665654D01*
X73896000Y-53665654D02*
X75846000Y-53665654D01*
X75846000Y-48165654D02*
X73896000Y-48165654D01*
X75846000Y-53665654D02*
X75846000Y-48165654D01*
%TO.C,D5*%
X115280000Y-100584000D02*
X115280000Y-98784000D01*
X115280000Y-100584000D02*
X115280000Y-101384000D01*
X118400000Y-100584000D02*
X118400000Y-99784000D01*
X118400000Y-100584000D02*
X118400000Y-101384000D01*
%TO.C,C3*%
X147216400Y-88499733D02*
X147216400Y-88792267D01*
X148236400Y-88499733D02*
X148236400Y-88792267D01*
%TO.C,R20*%
X132384076Y-110221500D02*
X132893524Y-110221500D01*
X132384076Y-111266500D02*
X132893524Y-111266500D01*
%TO.C,R21*%
X122286500Y-98525876D02*
X122286500Y-99035324D01*
X123331500Y-98525876D02*
X123331500Y-99035324D01*
%TO.C,R4*%
X155778924Y-95464100D02*
X155269476Y-95464100D01*
X155778924Y-96509100D02*
X155269476Y-96509100D01*
%TO.C,R3*%
X155625076Y-73823300D02*
X156134524Y-73823300D01*
X155625076Y-74868300D02*
X156134524Y-74868300D01*
%TO.C,JP47*%
X126940000Y-124914000D02*
X126940000Y-127714000D01*
X126940000Y-127714000D02*
X128940000Y-127714000D01*
X128940000Y-124914000D02*
X126940000Y-124914000D01*
X128940000Y-127714000D02*
X128940000Y-124914000D01*
%TO.C,R13*%
X119736324Y-90561900D02*
X119226876Y-90561900D01*
X119736324Y-91606900D02*
X119226876Y-91606900D01*
%TO.C,JP31*%
X98981075Y-54787827D02*
X98981075Y-57587827D01*
X98981075Y-57587827D02*
X100981075Y-57587827D01*
X100981075Y-54787827D02*
X98981075Y-54787827D01*
X100981075Y-57587827D02*
X100981075Y-54787827D01*
%TO.C,R38*%
X116749300Y-81685676D02*
X116749300Y-82195124D01*
X117794300Y-81685676D02*
X117794300Y-82195124D01*
%TO.C,D14*%
X118333600Y-86424400D02*
X115183600Y-86424400D01*
X118333600Y-86424400D02*
X118333600Y-88124400D01*
X118333600Y-88124400D02*
X115183600Y-88124400D01*
%TO.C,U4*%
X128430800Y-110098200D02*
X128430800Y-108688200D01*
X129090800Y-108688200D02*
X128430800Y-108688200D01*
X130750800Y-108688200D02*
X130750800Y-111423200D01*
X130760800Y-108688200D02*
X130090800Y-108688200D01*
%TO.C,Q2*%
X157480000Y-106914000D02*
X155530000Y-106914000D01*
X157480000Y-106914000D02*
X159430000Y-106914000D01*
X157480000Y-112034000D02*
X154030000Y-112034000D01*
X157480000Y-112034000D02*
X159430000Y-112034000D01*
%TO.C,JP59*%
X69812925Y-128958000D02*
X69812925Y-134458000D01*
X69812925Y-134458000D02*
X71762925Y-134458000D01*
X71762925Y-128958000D02*
X69812925Y-128958000D01*
X71762925Y-134458000D02*
X71762925Y-128958000D01*
X72012925Y-130308000D02*
X72312925Y-130008000D01*
X72312925Y-130008000D02*
X72312925Y-130608000D01*
X72312925Y-130608000D02*
X72012925Y-130308000D01*
%TO.C,R24*%
X116229676Y-107884700D02*
X116739124Y-107884700D01*
X116229676Y-108929700D02*
X116739124Y-108929700D01*
%TO.C,JP34*%
X115934450Y-55194000D02*
X116234450Y-55494000D01*
X115934450Y-55794000D02*
X115934450Y-55194000D01*
X116234450Y-55494000D02*
X115934450Y-55794000D01*
X116484450Y-51344000D02*
X116484450Y-56844000D01*
X116484450Y-56844000D02*
X118434450Y-56844000D01*
X118434450Y-51344000D02*
X116484450Y-51344000D01*
X118434450Y-56844000D02*
X118434450Y-51344000D01*
%TO.C,JP43*%
X129734000Y-128898000D02*
X129734000Y-134398000D01*
X129734000Y-134398000D02*
X131684000Y-134398000D01*
X131684000Y-128898000D02*
X129734000Y-128898000D01*
X131684000Y-134398000D02*
X131684000Y-128898000D01*
X131934000Y-130248000D02*
X132234000Y-129948000D01*
X132234000Y-129948000D02*
X132234000Y-130548000D01*
X132234000Y-130548000D02*
X131934000Y-130248000D01*
%TO.C,R14*%
X138429276Y-99401100D02*
X138938724Y-99401100D01*
X138429276Y-100446100D02*
X138938724Y-100446100D01*
%TO.C,JP68*%
X64948000Y-103355600D02*
X64948000Y-105305600D01*
X64948000Y-105305600D02*
X70448000Y-105305600D01*
X68798000Y-105855600D02*
X69098000Y-105555600D01*
X69098000Y-105555600D02*
X69398000Y-105855600D01*
X69398000Y-105855600D02*
X68798000Y-105855600D01*
X70448000Y-103355600D02*
X64948000Y-103355600D01*
X70448000Y-105305600D02*
X70448000Y-103355600D01*
%TO.C,R25*%
X116229676Y-106360700D02*
X116739124Y-106360700D01*
X116229676Y-107405700D02*
X116739124Y-107405700D01*
%TO.C,U6*%
X122624800Y-85918000D02*
X122624800Y-91928000D01*
X122624800Y-91928000D02*
X123884800Y-91928000D01*
X129444800Y-88168000D02*
X129444800Y-91928000D01*
X129444800Y-91928000D02*
X128184800Y-91928000D01*
%TO.C,JP71*%
X71632000Y-103101600D02*
X71632000Y-105101600D01*
X71632000Y-105101600D02*
X74432000Y-105101600D01*
X74432000Y-103101600D02*
X71632000Y-103101600D01*
X74432000Y-105101600D02*
X74432000Y-103101600D01*
%TO.C,JP69*%
X71632000Y-108181600D02*
X71632000Y-110181600D01*
X71632000Y-110181600D02*
X74432000Y-110181600D01*
X74432000Y-108181600D02*
X71632000Y-108181600D01*
X74432000Y-110181600D02*
X74432000Y-108181600D01*
%TO.C,JP62*%
X69558925Y-124974000D02*
X69558925Y-127774000D01*
X69558925Y-127774000D02*
X71558925Y-127774000D01*
X71558925Y-124974000D02*
X69558925Y-124974000D01*
X71558925Y-127774000D02*
X71558925Y-124974000D01*
%TO.C,R18*%
X153940600Y-55664263D02*
X153940600Y-57111737D01*
X156650600Y-55664263D02*
X156650600Y-57111737D01*
%TO.C,JP11*%
X64976000Y-78708000D02*
X64976000Y-80658000D01*
X64976000Y-80658000D02*
X70476000Y-80658000D01*
X68826000Y-81208000D02*
X69126000Y-80908000D01*
X69126000Y-80908000D02*
X69426000Y-81208000D01*
X69426000Y-81208000D02*
X68826000Y-81208000D01*
X70476000Y-78708000D02*
X64976000Y-78708000D01*
X70476000Y-80658000D02*
X70476000Y-78708000D01*
%TO.C,JP52*%
X97134000Y-128958000D02*
X97134000Y-134458000D01*
X97134000Y-134458000D02*
X99084000Y-134458000D01*
X99084000Y-128958000D02*
X97134000Y-128958000D01*
X99084000Y-134458000D02*
X99084000Y-128958000D01*
X99334000Y-130308000D02*
X99634000Y-130008000D01*
X99634000Y-130008000D02*
X99634000Y-130608000D01*
X99634000Y-130608000D02*
X99334000Y-130308000D01*
%TO.C,R23*%
X62834700Y-67671024D02*
X62834700Y-67161576D01*
X63879700Y-67671024D02*
X63879700Y-67161576D01*
%TO.C,JP9*%
X64976000Y-71088000D02*
X64976000Y-73038000D01*
X64976000Y-73038000D02*
X70476000Y-73038000D01*
X68826000Y-73588000D02*
X69126000Y-73288000D01*
X69126000Y-73288000D02*
X69426000Y-73588000D01*
X69426000Y-73588000D02*
X68826000Y-73588000D01*
X70476000Y-71088000D02*
X64976000Y-71088000D01*
X70476000Y-73038000D02*
X70476000Y-71088000D01*
%TO.C,JP53*%
X101960000Y-124974000D02*
X101960000Y-127774000D01*
X101960000Y-127774000D02*
X103960000Y-127774000D01*
X103960000Y-124974000D02*
X101960000Y-124974000D01*
X103960000Y-127774000D02*
X103960000Y-124974000D01*
%TD*%
M02*
