%TF.GenerationSoftware,KiCad,Pcbnew,6.0.5*%
%TF.CreationDate,2022-11-27T13:32:37+03:00*%
%TF.ProjectId,multistepper,6d756c74-6973-4746-9570-7065722e6b69,rev?*%
%TF.SameCoordinates,Original*%
%TF.FileFunction,Soldermask,Bot*%
%TF.FilePolarity,Negative*%
%FSLAX46Y46*%
G04 Gerber Fmt 4.6, Leading zero omitted, Abs format (unit mm)*
G04 Created by KiCad (PCBNEW 6.0.5) date 2022-11-27 13:32:37*
%MOMM*%
%LPD*%
G01*
G04 APERTURE LIST*
G04 Aperture macros list*
%AMRoundRect*
0 Rectangle with rounded corners*
0 $1 Rounding radius*
0 $2 $3 $4 $5 $6 $7 $8 $9 X,Y pos of 4 corners*
0 Add a 4 corners polygon primitive as box body*
4,1,4,$2,$3,$4,$5,$6,$7,$8,$9,$2,$3,0*
0 Add four circle primitives for the rounded corners*
1,1,$1+$1,$2,$3*
1,1,$1+$1,$4,$5*
1,1,$1+$1,$6,$7*
1,1,$1+$1,$8,$9*
0 Add four rect primitives between the rounded corners*
20,1,$1+$1,$2,$3,$4,$5,0*
20,1,$1+$1,$4,$5,$6,$7,0*
20,1,$1+$1,$6,$7,$8,$9,0*
20,1,$1+$1,$8,$9,$2,$3,0*%
%AMFreePoly0*
4,1,6,1.000000,0.000000,0.500000,-0.750000,-0.500000,-0.750000,-0.500000,0.750000,0.500000,0.750000,1.000000,0.000000,1.000000,0.000000,$1*%
%AMFreePoly1*
4,1,6,0.500000,-0.750000,-0.650000,-0.750000,-0.150000,0.000000,-0.650000,0.750000,0.500000,0.750000,0.500000,-0.750000,0.500000,-0.750000,$1*%
G04 Aperture macros list end*
%ADD10O,1.700000X1.950000*%
%ADD11RoundRect,0.250000X0.600000X0.725000X-0.600000X0.725000X-0.600000X-0.725000X0.600000X-0.725000X0*%
%ADD12R,2.000000X1.500000*%
%ADD13R,2.000000X3.800000*%
%ADD14R,1.500000X1.500000*%
%ADD15FreePoly0,0.000000*%
%ADD16FreePoly1,0.000000*%
%ADD17RoundRect,0.237500X-0.237500X0.300000X-0.237500X-0.300000X0.237500X-0.300000X0.237500X0.300000X0*%
%ADD18RoundRect,0.250000X-0.425000X0.537500X-0.425000X-0.537500X0.425000X-0.537500X0.425000X0.537500X0*%
%ADD19RoundRect,0.237500X0.237500X-0.300000X0.237500X0.300000X-0.237500X0.300000X-0.237500X-0.300000X0*%
%ADD20C,5.600000*%
%ADD21O,1.950000X1.700000*%
%ADD22RoundRect,0.250000X-0.725000X0.600000X-0.725000X-0.600000X0.725000X-0.600000X0.725000X0.600000X0*%
%ADD23O,1.750000X1.200000*%
%ADD24RoundRect,0.250000X0.625000X-0.350000X0.625000X0.350000X-0.625000X0.350000X-0.625000X-0.350000X0*%
%ADD25C,1.700000*%
%ADD26RoundRect,0.250000X-0.600000X0.600000X-0.600000X-0.600000X0.600000X-0.600000X0.600000X0.600000X0*%
%ADD27RoundRect,0.250000X0.725000X-0.600000X0.725000X0.600000X-0.725000X0.600000X-0.725000X-0.600000X0*%
%ADD28R,1.600000X1.600000*%
%ADD29O,1.600000X1.600000*%
%ADD30C,1.600000*%
%ADD31O,1.200000X1.750000*%
%ADD32RoundRect,0.250000X-0.350000X-0.625000X0.350000X-0.625000X0.350000X0.625000X-0.350000X0.625000X0*%
%ADD33RoundRect,0.250000X-0.600000X-0.725000X0.600000X-0.725000X0.600000X0.725000X-0.600000X0.725000X0*%
%ADD34C,2.000000*%
%ADD35C,2.600000*%
%ADD36R,2.600000X2.600000*%
%ADD37O,1.000000X1.000000*%
%ADD38R,1.000000X1.000000*%
%ADD39C,1.500000*%
%ADD40O,2.600000X2.600000*%
%ADD41O,1.800000X1.800000*%
%ADD42R,1.800000X1.800000*%
%ADD43C,3.500000*%
%ADD44R,1.700000X1.700000*%
%ADD45RoundRect,0.150000X-0.512500X-0.150000X0.512500X-0.150000X0.512500X0.150000X-0.512500X0.150000X0*%
%ADD46FreePoly0,90.000000*%
%ADD47FreePoly0,270.000000*%
%ADD48FreePoly1,90.000000*%
%ADD49FreePoly0,180.000000*%
%ADD50RoundRect,0.237500X-0.250000X-0.237500X0.250000X-0.237500X0.250000X0.237500X-0.250000X0.237500X0*%
%ADD51FreePoly1,270.000000*%
%ADD52R,0.500000X0.800000*%
%ADD53R,0.400000X0.800000*%
%ADD54R,0.800000X0.500000*%
%ADD55R,0.800000X0.400000*%
%ADD56RoundRect,0.150000X-0.587500X-0.150000X0.587500X-0.150000X0.587500X0.150000X-0.587500X0.150000X0*%
%ADD57RoundRect,0.150000X-0.150000X0.512500X-0.150000X-0.512500X0.150000X-0.512500X0.150000X0.512500X0*%
%ADD58RoundRect,0.237500X0.250000X0.237500X-0.250000X0.237500X-0.250000X-0.237500X0.250000X-0.237500X0*%
%ADD59RoundRect,0.150000X0.825000X0.150000X-0.825000X0.150000X-0.825000X-0.150000X0.825000X-0.150000X0*%
%ADD60RoundRect,0.150000X0.512500X0.150000X-0.512500X0.150000X-0.512500X-0.150000X0.512500X-0.150000X0*%
%ADD61RoundRect,0.237500X0.300000X0.237500X-0.300000X0.237500X-0.300000X-0.237500X0.300000X-0.237500X0*%
%ADD62RoundRect,0.237500X0.237500X-0.250000X0.237500X0.250000X-0.237500X0.250000X-0.237500X-0.250000X0*%
%ADD63RoundRect,0.250000X0.450000X-0.325000X0.450000X0.325000X-0.450000X0.325000X-0.450000X-0.325000X0*%
%ADD64FreePoly1,180.000000*%
%ADD65R,2.300000X3.500000*%
%ADD66R,3.500000X2.300000*%
%ADD67RoundRect,0.237500X-0.300000X-0.237500X0.300000X-0.237500X0.300000X0.237500X-0.300000X0.237500X0*%
%ADD68RoundRect,0.250000X-0.875000X-0.925000X0.875000X-0.925000X0.875000X0.925000X-0.875000X0.925000X0*%
%ADD69RoundRect,0.237500X-0.237500X0.250000X-0.237500X-0.250000X0.237500X-0.250000X0.237500X0.250000X0*%
%ADD70R,0.450000X1.500000*%
%ADD71RoundRect,0.150000X-0.725000X-0.150000X0.725000X-0.150000X0.725000X0.150000X-0.725000X0.150000X0*%
%ADD72R,1.500000X2.000000*%
%ADD73R,3.800000X2.000000*%
%ADD74RoundRect,0.250000X-1.075000X0.400000X-1.075000X-0.400000X1.075000X-0.400000X1.075000X0.400000X0*%
G04 APERTURE END LIST*
D10*
%TO.C,J15*%
X65144000Y-41563654D03*
X67644000Y-41563654D03*
X70144000Y-41563654D03*
D11*
X72644000Y-41563654D03*
%TD*%
D12*
%TO.C,U8*%
X152450000Y-132574000D03*
X152450000Y-134874000D03*
D13*
X158750000Y-134874000D03*
D12*
X152450000Y-137174000D03*
%TD*%
D14*
%TO.C,TP8*%
X162255200Y-134823200D03*
%TD*%
D15*
%TO.C,JP7*%
X146239400Y-132588000D03*
D16*
X147689400Y-132588000D03*
%TD*%
D17*
%TO.C,C29*%
X147828000Y-136600100D03*
X147828000Y-134875100D03*
%TD*%
D18*
%TO.C,C28*%
X149910800Y-137749000D03*
X149910800Y-134874000D03*
%TD*%
D19*
%TO.C,C27*%
X150012400Y-130861900D03*
X150012400Y-132586900D03*
%TD*%
D20*
%TO.C,H4*%
X165500000Y-140500000D03*
%TD*%
%TO.C,H3*%
X59000000Y-140500000D03*
%TD*%
%TO.C,H2*%
X165500000Y-42000000D03*
%TD*%
%TO.C,H1*%
X59000000Y-42000000D03*
%TD*%
D11*
%TO.C,J17*%
X99921075Y-41501827D03*
D10*
X97421075Y-41501827D03*
X94921075Y-41501827D03*
X92421075Y-41501827D03*
%TD*%
D21*
%TO.C,J12*%
X58374000Y-84474000D03*
X58374000Y-81974000D03*
X58374000Y-79474000D03*
D22*
X58374000Y-76974000D03*
%TD*%
D23*
%TO.C,J6*%
X95758000Y-96902000D03*
X95758000Y-98902000D03*
X95758000Y-100902000D03*
X95758000Y-102902000D03*
D24*
X95758000Y-104902000D03*
%TD*%
D25*
%TO.C,J2*%
X142798800Y-74380700D03*
X142798800Y-71840700D03*
X145338800Y-74380700D03*
X145338800Y-71840700D03*
X147878800Y-74380700D03*
X147878800Y-71840700D03*
X150418800Y-74380700D03*
X150418800Y-71840700D03*
X152958800Y-74380700D03*
D26*
X152958800Y-71840700D03*
%TD*%
D21*
%TO.C,J22*%
X87466000Y-126434000D03*
X87466000Y-128934000D03*
X87466000Y-131434000D03*
D27*
X87466000Y-133934000D03*
%TD*%
D14*
%TO.C,TP7*%
X161544000Y-91948000D03*
%TD*%
D28*
%TO.C,SW3*%
X155295600Y-52832000D03*
D29*
X155295600Y-60452000D03*
%TD*%
D30*
%TO.C,C24*%
X105246000Y-129478000D03*
D28*
X105246000Y-132978000D03*
%TD*%
D31*
%TO.C,J5*%
X109934000Y-103733600D03*
X107934000Y-103733600D03*
X105934000Y-103733600D03*
D32*
X103934000Y-103733600D03*
%TD*%
D33*
%TO.C,J11*%
X65500000Y-66500000D03*
D10*
X68000000Y-66500000D03*
X70500000Y-66500000D03*
X73000000Y-66500000D03*
%TD*%
D34*
%TO.C,XX5*%
X140640000Y-123774000D03*
X138100000Y-123774000D03*
X135560000Y-123774000D03*
X133020000Y-123774000D03*
X130480000Y-123774000D03*
X127940000Y-123774000D03*
X125400000Y-123774000D03*
X122860000Y-123774000D03*
X122860000Y-136474000D03*
X125400000Y-136474000D03*
X127940000Y-136474000D03*
X130480000Y-136474000D03*
X133020000Y-136474000D03*
X135560000Y-136474000D03*
X138100000Y-136474000D03*
X140640000Y-136474000D03*
X140640000Y-126314000D03*
X140640000Y-128854000D03*
%TD*%
D31*
%TO.C,J13*%
X121380000Y-110194000D03*
X119380000Y-110194000D03*
D32*
X117380000Y-110194000D03*
%TD*%
D34*
%TO.C,XX8*%
X75572000Y-116801600D03*
X75572000Y-114261600D03*
X75572000Y-111721600D03*
X75572000Y-109181600D03*
X75572000Y-106641600D03*
X75572000Y-104101600D03*
X75572000Y-101561600D03*
X75572000Y-99021600D03*
X62872000Y-99021600D03*
X62872000Y-101561600D03*
X62872000Y-104101600D03*
X62872000Y-106641600D03*
X62872000Y-109181600D03*
X62872000Y-111721600D03*
X62872000Y-114261600D03*
X62872000Y-116801600D03*
X73032000Y-116801600D03*
X70492000Y-116801600D03*
%TD*%
%TO.C,XX3*%
X87281075Y-53647827D03*
X87281075Y-56187827D03*
X87281075Y-46027827D03*
X89821075Y-46027827D03*
X92361075Y-46027827D03*
X94901075Y-46027827D03*
X97441075Y-46027827D03*
X99981075Y-46027827D03*
X102521075Y-46027827D03*
X105061075Y-46027827D03*
X105061075Y-58727827D03*
X102521075Y-58727827D03*
X99981075Y-58727827D03*
X97441075Y-58727827D03*
X94901075Y-58727827D03*
X92361075Y-58727827D03*
X89821075Y-58727827D03*
X87281075Y-58727827D03*
%TD*%
D35*
%TO.C,J10*%
X163576000Y-107482000D03*
D36*
X163576000Y-112482000D03*
%TD*%
D25*
%TO.C,J3*%
X146304000Y-100584000D03*
X146304000Y-98044000D03*
X148844000Y-100584000D03*
X148844000Y-98044000D03*
X151384000Y-100584000D03*
X151384000Y-98044000D03*
X153924000Y-100584000D03*
X153924000Y-98044000D03*
X156464000Y-100584000D03*
D26*
X156464000Y-98044000D03*
%TD*%
D14*
%TO.C,TP3*%
X167132000Y-91948000D03*
%TD*%
D37*
%TO.C,J1*%
X145821000Y-89027000D03*
X145821000Y-87757000D03*
X145821000Y-86487000D03*
X145821000Y-85217000D03*
X145821000Y-83947000D03*
D38*
X145821000Y-82677000D03*
%TD*%
D27*
%TO.C,J24*%
X57604925Y-133934000D03*
D21*
X57604925Y-131434000D03*
X57604925Y-128934000D03*
X57604925Y-126434000D03*
%TD*%
D28*
%TO.C,C23*%
X135306000Y-132918000D03*
D30*
X135306000Y-129418000D03*
%TD*%
D11*
%TO.C,J19*%
X127026450Y-41440000D03*
D10*
X124526450Y-41440000D03*
X122026450Y-41440000D03*
X119526450Y-41440000D03*
%TD*%
D14*
%TO.C,TP2*%
X167132000Y-95250000D03*
%TD*%
D22*
%TO.C,J14*%
X82974000Y-48689654D03*
D21*
X82974000Y-51189654D03*
X82974000Y-53689654D03*
X82974000Y-56189654D03*
%TD*%
D33*
%TO.C,J23*%
X97940000Y-141060000D03*
D10*
X100440000Y-141060000D03*
X102940000Y-141060000D03*
X105440000Y-141060000D03*
%TD*%
%TO.C,J25*%
X75578925Y-141060000D03*
X73078925Y-141060000D03*
X70578925Y-141060000D03*
D33*
X68078925Y-141060000D03*
%TD*%
D34*
%TO.C,XX4*%
X114386450Y-53586000D03*
X114386450Y-56126000D03*
X114386450Y-45966000D03*
X116926450Y-45966000D03*
X119466450Y-45966000D03*
X122006450Y-45966000D03*
X124546450Y-45966000D03*
X127086450Y-45966000D03*
X129626450Y-45966000D03*
X132166450Y-45966000D03*
X132166450Y-58666000D03*
X129626450Y-58666000D03*
X127086450Y-58666000D03*
X124546450Y-58666000D03*
X122006450Y-58666000D03*
X119466450Y-58666000D03*
X116926450Y-58666000D03*
X114386450Y-58666000D03*
%TD*%
D10*
%TO.C,J21*%
X135500000Y-141000000D03*
X133000000Y-141000000D03*
X130500000Y-141000000D03*
D33*
X128000000Y-141000000D03*
%TD*%
D30*
%TO.C,C21*%
X92615075Y-53083827D03*
D28*
X92615075Y-49583827D03*
%TD*%
D30*
%TO.C,C22*%
X119720450Y-53022000D03*
D28*
X119720450Y-49522000D03*
%TD*%
D21*
%TO.C,J18*%
X137500450Y-56066000D03*
X137500450Y-53566000D03*
X137500450Y-51066000D03*
D22*
X137500450Y-48566000D03*
%TD*%
D39*
%TO.C,Q1*%
X150418800Y-56083200D03*
X147878800Y-56083200D03*
X145338800Y-56083200D03*
X142798800Y-56083200D03*
%TD*%
D34*
%TO.C,XX6*%
X110580000Y-128914000D03*
X110580000Y-126374000D03*
X110580000Y-136534000D03*
X108040000Y-136534000D03*
X105500000Y-136534000D03*
X102960000Y-136534000D03*
X100420000Y-136534000D03*
X97880000Y-136534000D03*
X95340000Y-136534000D03*
X92800000Y-136534000D03*
X92800000Y-123834000D03*
X95340000Y-123834000D03*
X97880000Y-123834000D03*
X100420000Y-123834000D03*
X102960000Y-123834000D03*
X105500000Y-123834000D03*
X108040000Y-123834000D03*
X110580000Y-123834000D03*
%TD*%
D40*
%TO.C,D26*%
X149250400Y-111384400D03*
D36*
X149250400Y-115194400D03*
%TD*%
D14*
%TO.C,TP6*%
X127000000Y-109728000D03*
%TD*%
D28*
%TO.C,C19*%
X66456000Y-84280000D03*
D30*
X69956000Y-84280000D03*
%TD*%
D41*
%TO.C,U5*%
X164287200Y-124402000D03*
X160587200Y-122702000D03*
X164287200Y-121002000D03*
X160587200Y-119302000D03*
D42*
X164287200Y-117602000D03*
%TD*%
D21*
%TO.C,J27*%
X58346000Y-111661600D03*
X58346000Y-109161600D03*
X58346000Y-106661600D03*
D22*
X58346000Y-104161600D03*
%TD*%
D31*
%TO.C,J7*%
X139144000Y-107704800D03*
X137144000Y-107704800D03*
X135144000Y-107704800D03*
D32*
X133144000Y-107704800D03*
%TD*%
D14*
%TO.C,TP4*%
X167132000Y-98552000D03*
%TD*%
D34*
%TO.C,L1*%
X153162000Y-129409200D03*
X153162000Y-119409200D03*
%TD*%
D28*
%TO.C,C20*%
X65194000Y-49645654D03*
D30*
X65194000Y-53145654D03*
%TD*%
D34*
%TO.C,XX2*%
X59860000Y-58789654D03*
X62400000Y-58789654D03*
X64940000Y-58789654D03*
X67480000Y-58789654D03*
X70020000Y-58789654D03*
X72560000Y-58789654D03*
X75100000Y-58789654D03*
X77640000Y-58789654D03*
X77640000Y-46089654D03*
X75100000Y-46089654D03*
X72560000Y-46089654D03*
X70020000Y-46089654D03*
X67480000Y-46089654D03*
X64940000Y-46089654D03*
X62400000Y-46089654D03*
X59860000Y-46089654D03*
X59860000Y-56249654D03*
X59860000Y-53709654D03*
%TD*%
D36*
%TO.C,J9*%
X163576000Y-64516000D03*
D35*
X163576000Y-59516000D03*
X163576000Y-54516000D03*
%TD*%
D28*
%TO.C,C25*%
X75384925Y-132978000D03*
D30*
X75384925Y-129478000D03*
%TD*%
D34*
%TO.C,XX7*%
X80718925Y-123834000D03*
X78178925Y-123834000D03*
X75638925Y-123834000D03*
X73098925Y-123834000D03*
X70558925Y-123834000D03*
X68018925Y-123834000D03*
X65478925Y-123834000D03*
X62938925Y-123834000D03*
X62938925Y-136534000D03*
X65478925Y-136534000D03*
X68018925Y-136534000D03*
X70558925Y-136534000D03*
X73098925Y-136534000D03*
X75638925Y-136534000D03*
X78178925Y-136534000D03*
X80718925Y-136534000D03*
X80718925Y-126374000D03*
X80718925Y-128914000D03*
%TD*%
D33*
%TO.C,J26*%
X65472000Y-93687600D03*
D10*
X67972000Y-93687600D03*
X70472000Y-93687600D03*
X72972000Y-93687600D03*
%TD*%
D31*
%TO.C,J4*%
X109934000Y-109321600D03*
X107934000Y-109321600D03*
X105934000Y-109321600D03*
D32*
X103934000Y-109321600D03*
%TD*%
D27*
%TO.C,J20*%
X117526000Y-133874000D03*
D21*
X117526000Y-131374000D03*
X117526000Y-128874000D03*
X117526000Y-126374000D03*
%TD*%
%TO.C,J16*%
X110395075Y-56127827D03*
X110395075Y-53627827D03*
X110395075Y-51127827D03*
D22*
X110395075Y-48627827D03*
%TD*%
D14*
%TO.C,TP5*%
X130810000Y-101244400D03*
%TD*%
D28*
%TO.C,C26*%
X66428000Y-111467600D03*
D30*
X69928000Y-111467600D03*
%TD*%
D34*
%TO.C,XX1*%
X75600000Y-89614000D03*
X75600000Y-87074000D03*
X75600000Y-84534000D03*
X75600000Y-81994000D03*
X75600000Y-79454000D03*
X75600000Y-76914000D03*
X75600000Y-74374000D03*
X75600000Y-71834000D03*
X62900000Y-71834000D03*
X62900000Y-74374000D03*
X62900000Y-76914000D03*
X62900000Y-79454000D03*
X62900000Y-81994000D03*
X62900000Y-84534000D03*
X62900000Y-87074000D03*
X62900000Y-89614000D03*
X73060000Y-89614000D03*
X70520000Y-89614000D03*
%TD*%
D43*
%TO.C,J8*%
X166000000Y-85000000D03*
X166000000Y-72960000D03*
D25*
X163290000Y-77730000D03*
X163290000Y-80230000D03*
X161290000Y-80230000D03*
D44*
X161290000Y-77730000D03*
%TD*%
D14*
%TO.C,TP1*%
X158167500Y-89348000D03*
%TD*%
D45*
%TO.C,D3*%
X117464000Y-75880000D03*
X117464000Y-74930000D03*
X117464000Y-73980000D03*
X115189000Y-73980000D03*
X115189000Y-74930000D03*
X115189000Y-75880000D03*
%TD*%
D14*
%TO.C,JP36*%
X126832450Y-49592000D03*
X126832450Y-51992000D03*
D46*
X126832450Y-52792000D03*
D47*
X126832450Y-48792000D03*
%TD*%
D14*
%TO.C,JP51*%
X100674000Y-132908000D03*
X100674000Y-130508000D03*
D47*
X100674000Y-129708000D03*
D46*
X100674000Y-133708000D03*
%TD*%
%TO.C,JP1*%
X144627600Y-60364200D03*
D48*
X144627600Y-58914200D03*
%TD*%
D46*
%TO.C,JP42*%
X137592000Y-130346000D03*
D47*
X137592000Y-126346000D03*
D14*
X137592000Y-127146000D03*
X137592000Y-129546000D03*
%TD*%
D15*
%TO.C,JP67*%
X65698000Y-106895600D03*
D49*
X69698000Y-106895600D03*
D14*
X66498000Y-106895600D03*
X68898000Y-106895600D03*
%TD*%
D48*
%TO.C,JP46*%
X130480000Y-125589000D03*
D46*
X130480000Y-127039000D03*
%TD*%
D15*
%TO.C,JP64*%
X65698000Y-101815600D03*
D49*
X69698000Y-101815600D03*
D14*
X68898000Y-101815600D03*
X66498000Y-101815600D03*
%TD*%
%TO.C,JP26*%
X90329075Y-52955827D03*
X90329075Y-55355827D03*
D46*
X90329075Y-56155827D03*
D47*
X90329075Y-52155827D03*
%TD*%
%TO.C,JP18*%
X62908000Y-52217654D03*
D46*
X62908000Y-56217654D03*
D14*
X62908000Y-53017654D03*
X62908000Y-55417654D03*
%TD*%
D15*
%TO.C,JP5*%
X126833800Y-82753200D03*
D16*
X128283800Y-82753200D03*
%TD*%
D50*
%TO.C,R5*%
X137771500Y-103276400D03*
X139596500Y-103276400D03*
%TD*%
D47*
%TO.C,JP38*%
X124546450Y-55401000D03*
D51*
X124546450Y-56851000D03*
%TD*%
D50*
%TO.C,R8*%
X118213500Y-97536000D03*
X120038500Y-97536000D03*
%TD*%
%TO.C,R12*%
X118619900Y-92913200D03*
X120444900Y-92913200D03*
%TD*%
D38*
%TO.C,D20*%
X116840000Y-92831600D03*
X116840000Y-95331600D03*
%TD*%
%TO.C,D23*%
X115123600Y-81483200D03*
X112623600Y-81483200D03*
%TD*%
D52*
%TO.C,RN3*%
X147021400Y-78903400D03*
D53*
X146221400Y-78903400D03*
X145421400Y-78903400D03*
D52*
X144621400Y-78903400D03*
X144621400Y-77103400D03*
D53*
X145421400Y-77103400D03*
X146221400Y-77103400D03*
D52*
X147021400Y-77103400D03*
%TD*%
D47*
%TO.C,JP29*%
X94901075Y-55462827D03*
D51*
X94901075Y-56912827D03*
%TD*%
D16*
%TO.C,JP70*%
X73757000Y-106641600D03*
D15*
X72307000Y-106641600D03*
%TD*%
D38*
%TO.C,D10*%
X100584000Y-97556000D03*
X100584000Y-100056000D03*
%TD*%
%TO.C,D17*%
X100584000Y-93492000D03*
X100584000Y-95992000D03*
%TD*%
D14*
%TO.C,JP49*%
X93054000Y-130508000D03*
X93054000Y-132908000D03*
D47*
X93054000Y-129708000D03*
D46*
X93054000Y-133708000D03*
%TD*%
D14*
%TO.C,JP27*%
X97187075Y-49653827D03*
X97187075Y-52053827D03*
D46*
X97187075Y-52853827D03*
D47*
X97187075Y-48853827D03*
%TD*%
D14*
%TO.C,JP50*%
X107532000Y-127206000D03*
X107532000Y-129606000D03*
D47*
X107532000Y-126406000D03*
D46*
X107532000Y-130406000D03*
%TD*%
D54*
%TO.C,RN4*%
X137784000Y-97262800D03*
D55*
X137784000Y-96462800D03*
X137784000Y-95662800D03*
D54*
X137784000Y-94862800D03*
X139584000Y-94862800D03*
D55*
X139584000Y-95662800D03*
X139584000Y-96462800D03*
D54*
X139584000Y-97262800D03*
%TD*%
D14*
%TO.C,JP24*%
X102267075Y-52053827D03*
X102267075Y-49653827D03*
D46*
X102267075Y-52853827D03*
D47*
X102267075Y-48853827D03*
%TD*%
D56*
%TO.C,D24*%
X158828500Y-60487600D03*
X158828500Y-58587600D03*
X160703500Y-59537600D03*
%TD*%
D57*
%TO.C,D4*%
X103850400Y-90342300D03*
X104800400Y-90342300D03*
X105750400Y-90342300D03*
X105750400Y-88067300D03*
X104800400Y-88067300D03*
X103850400Y-88067300D03*
%TD*%
D16*
%TO.C,JP15*%
X73785000Y-76914000D03*
D15*
X72335000Y-76914000D03*
%TD*%
D58*
%TO.C,R16*%
X158900500Y-80524000D03*
X157075500Y-80524000D03*
%TD*%
D50*
%TO.C,R6*%
X109272700Y-81280000D03*
X111097700Y-81280000D03*
%TD*%
D15*
%TO.C,JP10*%
X69028000Y-86566000D03*
D49*
X73028000Y-86566000D03*
D14*
X69828000Y-86566000D03*
X72228000Y-86566000D03*
%TD*%
D16*
%TO.C,JP13*%
X73785000Y-81994000D03*
D15*
X72335000Y-81994000D03*
%TD*%
%TO.C,JP8*%
X65726000Y-74628000D03*
D49*
X69726000Y-74628000D03*
D14*
X68926000Y-74628000D03*
X66526000Y-74628000D03*
%TD*%
D59*
%TO.C,U7*%
X101665000Y-75311000D03*
X101665000Y-76581000D03*
X101665000Y-77851000D03*
X101665000Y-79121000D03*
X101665000Y-80391000D03*
X101665000Y-81661000D03*
X101665000Y-82931000D03*
X101665000Y-84201000D03*
X106615000Y-84201000D03*
X106615000Y-82931000D03*
X106615000Y-81661000D03*
X106615000Y-80391000D03*
X106615000Y-79121000D03*
X106615000Y-77851000D03*
X106615000Y-76581000D03*
X106615000Y-75311000D03*
%TD*%
D38*
%TO.C,D12*%
X108946000Y-99314000D03*
X106446000Y-99314000D03*
%TD*%
D60*
%TO.C,D2*%
X124217000Y-73980000D03*
X124217000Y-74930000D03*
X124217000Y-75880000D03*
X126492000Y-75880000D03*
X126492000Y-74930000D03*
X126492000Y-73980000D03*
%TD*%
D15*
%TO.C,JP66*%
X69000000Y-113753600D03*
D49*
X73000000Y-113753600D03*
D14*
X72200000Y-113753600D03*
X69800000Y-113753600D03*
%TD*%
%TO.C,JP48*%
X95594000Y-132908000D03*
X95594000Y-130508000D03*
D47*
X95594000Y-129708000D03*
D46*
X95594000Y-133708000D03*
%TD*%
D60*
%TO.C,U3*%
X152786500Y-78812000D03*
X152786500Y-79762000D03*
X152786500Y-80712000D03*
X155061500Y-80712000D03*
X155061500Y-79762000D03*
X155061500Y-78812000D03*
%TD*%
D50*
%TO.C,R28*%
X135671650Y-46423200D03*
X137496650Y-46423200D03*
%TD*%
D48*
%TO.C,JP63*%
X68018925Y-125649000D03*
D46*
X68018925Y-127099000D03*
%TD*%
D38*
%TO.C,D19*%
X106446000Y-94996000D03*
X108946000Y-94996000D03*
%TD*%
D50*
%TO.C,R26*%
X82970200Y-46546854D03*
X81145200Y-46546854D03*
%TD*%
D47*
%TO.C,JP17*%
X77386000Y-48915654D03*
D46*
X77386000Y-52915654D03*
D14*
X77386000Y-52115654D03*
X77386000Y-49715654D03*
%TD*%
D50*
%TO.C,R27*%
X108566275Y-46485027D03*
X110391275Y-46485027D03*
%TD*%
D48*
%TO.C,JP45*%
X133020000Y-125589000D03*
D46*
X133020000Y-127039000D03*
%TD*%
D14*
%TO.C,JP25*%
X104807075Y-52053827D03*
X104807075Y-49653827D03*
D46*
X104807075Y-52853827D03*
D47*
X104807075Y-48853827D03*
%TD*%
D61*
%TO.C,C10*%
X142850700Y-54356000D03*
X144575700Y-54356000D03*
%TD*%
D62*
%TO.C,R32*%
X63329200Y-93691400D03*
X63329200Y-95516400D03*
%TD*%
D38*
%TO.C,D9*%
X98552000Y-97556000D03*
X98552000Y-100056000D03*
%TD*%
%TO.C,D15*%
X112603600Y-79400400D03*
X110103600Y-79400400D03*
%TD*%
D14*
%TO.C,JP28*%
X99727075Y-49653827D03*
X99727075Y-52053827D03*
D46*
X99727075Y-52853827D03*
D47*
X99727075Y-48853827D03*
%TD*%
D63*
%TO.C,D25*%
X152654000Y-108873400D03*
X152654000Y-106823400D03*
%TD*%
D50*
%TO.C,R19*%
X156766900Y-105765600D03*
X154941900Y-105765600D03*
%TD*%
D47*
%TO.C,JP37*%
X122006450Y-55401000D03*
D51*
X122006450Y-56851000D03*
%TD*%
D38*
%TO.C,D21*%
X117683600Y-89306400D03*
X115183600Y-89306400D03*
%TD*%
D47*
%TO.C,JP19*%
X69766000Y-48915654D03*
D46*
X69766000Y-52915654D03*
D14*
X69766000Y-52115654D03*
X69766000Y-49715654D03*
%TD*%
D58*
%TO.C,R7*%
X116992400Y-91084400D03*
X115167400Y-91084400D03*
%TD*%
D52*
%TO.C,RN1*%
X137941200Y-72201200D03*
D53*
X138741200Y-72201200D03*
X139541200Y-72201200D03*
D52*
X140341200Y-72201200D03*
X140341200Y-74001200D03*
D53*
X139541200Y-74001200D03*
X138741200Y-74001200D03*
D52*
X137941200Y-74001200D03*
%TD*%
D49*
%TO.C,JP4*%
X136804400Y-110236000D03*
D64*
X135354400Y-110236000D03*
%TD*%
D57*
%TO.C,D7*%
X132908000Y-99435500D03*
X133858000Y-99435500D03*
X134808000Y-99435500D03*
X134808000Y-97160500D03*
X133858000Y-97160500D03*
X132908000Y-97160500D03*
%TD*%
D14*
%TO.C,JP32*%
X129372450Y-51992000D03*
X129372450Y-49592000D03*
D46*
X129372450Y-52792000D03*
D47*
X129372450Y-48792000D03*
%TD*%
D46*
%TO.C,JP2*%
X155197900Y-89703600D03*
D48*
X155197900Y-88253600D03*
%TD*%
D14*
%TO.C,JP35*%
X124292450Y-49592000D03*
X124292450Y-51992000D03*
D46*
X124292450Y-52792000D03*
D47*
X124292450Y-48792000D03*
%TD*%
D65*
%TO.C,D27*%
X149098000Y-120548400D03*
X149098000Y-125948400D03*
%TD*%
D48*
%TO.C,JP61*%
X73098925Y-125649000D03*
D46*
X73098925Y-127099000D03*
%TD*%
D47*
%TO.C,JP3*%
X127101600Y-96557000D03*
D51*
X127101600Y-98007000D03*
%TD*%
D46*
%TO.C,JP58*%
X77670925Y-130406000D03*
D47*
X77670925Y-126406000D03*
D14*
X77670925Y-127206000D03*
X77670925Y-129606000D03*
%TD*%
D46*
%TO.C,JP44*%
X128194000Y-133648000D03*
D47*
X128194000Y-129648000D03*
D14*
X128194000Y-130448000D03*
X128194000Y-132848000D03*
%TD*%
D38*
%TO.C,D11*%
X102616000Y-97556000D03*
X102616000Y-100056000D03*
%TD*%
D16*
%TO.C,JP14*%
X73785000Y-79454000D03*
D15*
X72335000Y-79454000D03*
%TD*%
D47*
%TO.C,JP39*%
X127086450Y-55401000D03*
D51*
X127086450Y-56851000D03*
%TD*%
D58*
%TO.C,R30*%
X89294800Y-136076800D03*
X87469800Y-136076800D03*
%TD*%
D46*
%TO.C,JP57*%
X63192925Y-133708000D03*
D47*
X63192925Y-129708000D03*
D14*
X63192925Y-132908000D03*
X63192925Y-130508000D03*
%TD*%
D46*
%TO.C,JP40*%
X125654000Y-133648000D03*
D47*
X125654000Y-129648000D03*
D14*
X125654000Y-132848000D03*
X125654000Y-130448000D03*
%TD*%
D61*
%TO.C,C11*%
X150418800Y-54356000D03*
X148693800Y-54356000D03*
%TD*%
D47*
%TO.C,JP30*%
X97441075Y-55462827D03*
D51*
X97441075Y-56912827D03*
%TD*%
%TO.C,JP21*%
X67480000Y-56974654D03*
D47*
X67480000Y-55524654D03*
%TD*%
D19*
%TO.C,C13*%
X161442400Y-115469500D03*
X161442400Y-117194500D03*
%TD*%
D51*
%TO.C,JP23*%
X72560000Y-56974654D03*
D47*
X72560000Y-55524654D03*
%TD*%
%TO.C,JP20*%
X72306000Y-48915654D03*
D46*
X72306000Y-52915654D03*
D14*
X72306000Y-52115654D03*
X72306000Y-49715654D03*
%TD*%
D15*
%TO.C,JP12*%
X65726000Y-77168000D03*
D49*
X69726000Y-77168000D03*
D14*
X66526000Y-77168000D03*
X68926000Y-77168000D03*
%TD*%
D57*
%TO.C,D6*%
X125796000Y-105785500D03*
X126746000Y-105785500D03*
X127696000Y-105785500D03*
X127696000Y-103510500D03*
X126746000Y-103510500D03*
X125796000Y-103510500D03*
%TD*%
D58*
%TO.C,R17*%
X158900500Y-79000000D03*
X157075500Y-79000000D03*
%TD*%
D66*
%TO.C,D22*%
X155296000Y-84923000D03*
X160696000Y-84923000D03*
%TD*%
D67*
%TO.C,C12*%
X133501300Y-112318800D03*
X131776300Y-112318800D03*
%TD*%
D18*
%TO.C,C16*%
X130810000Y-94980900D03*
X130810000Y-97855900D03*
%TD*%
D19*
%TO.C,C18*%
X130505200Y-90983900D03*
X130505200Y-92708900D03*
%TD*%
D51*
%TO.C,JP22*%
X70020000Y-56974654D03*
D47*
X70020000Y-55524654D03*
%TD*%
D62*
%TO.C,R22*%
X118872000Y-81026000D03*
X118872000Y-79201000D03*
%TD*%
D38*
%TO.C,D16*%
X98552000Y-93492000D03*
X98552000Y-95992000D03*
%TD*%
D49*
%TO.C,JP6*%
X144743000Y-138836400D03*
D64*
X143293000Y-138836400D03*
%TD*%
D58*
%TO.C,R31*%
X57608725Y-136076800D03*
X59433725Y-136076800D03*
%TD*%
D38*
%TO.C,D13*%
X119674000Y-95656400D03*
X122174000Y-95656400D03*
%TD*%
D46*
%TO.C,JP56*%
X65732925Y-133708000D03*
D47*
X65732925Y-129708000D03*
D14*
X65732925Y-130508000D03*
X65732925Y-132908000D03*
%TD*%
D46*
%TO.C,JP60*%
X68272925Y-133708000D03*
D47*
X68272925Y-129708000D03*
D14*
X68272925Y-132908000D03*
X68272925Y-130508000D03*
%TD*%
D15*
%TO.C,JP65*%
X65698000Y-99275600D03*
D49*
X69698000Y-99275600D03*
D14*
X66498000Y-99275600D03*
X68898000Y-99275600D03*
%TD*%
D57*
%TO.C,D1*%
X132433000Y-84836000D03*
X133383000Y-84836000D03*
X134333000Y-84836000D03*
X134333000Y-82561000D03*
X133383000Y-82561000D03*
X132433000Y-82561000D03*
%TD*%
D38*
%TO.C,D18*%
X102616000Y-93492000D03*
X102616000Y-95992000D03*
%TD*%
D50*
%TO.C,R15*%
X137771500Y-101600000D03*
X139596500Y-101600000D03*
%TD*%
D46*
%TO.C,JP41*%
X123114000Y-133648000D03*
D47*
X123114000Y-129648000D03*
D14*
X123114000Y-130448000D03*
X123114000Y-132848000D03*
%TD*%
D62*
%TO.C,R1*%
X147726400Y-84329900D03*
X147726400Y-86154900D03*
%TD*%
D46*
%TO.C,JP55*%
X97880000Y-127099000D03*
D48*
X97880000Y-125649000D03*
%TD*%
D68*
%TO.C,C17*%
X158201200Y-125933200D03*
X153101200Y-125933200D03*
%TD*%
D57*
%TO.C,D8*%
X132433000Y-92456000D03*
X133383000Y-92456000D03*
X134333000Y-92456000D03*
X134333000Y-90181000D03*
X133383000Y-90181000D03*
X132433000Y-90181000D03*
%TD*%
D19*
%TO.C,C8*%
X115112800Y-92863500D03*
X115112800Y-94588500D03*
%TD*%
D46*
%TO.C,JP54*%
X100420000Y-127099000D03*
D48*
X100420000Y-125649000D03*
%TD*%
D54*
%TO.C,RN2*%
X131557600Y-103651200D03*
D55*
X131557600Y-104451200D03*
X131557600Y-105251200D03*
D54*
X131557600Y-106051200D03*
X129757600Y-106051200D03*
D55*
X129757600Y-105251200D03*
X129757600Y-104451200D03*
D54*
X129757600Y-103651200D03*
%TD*%
D58*
%TO.C,R29*%
X117529800Y-136016800D03*
X119354800Y-136016800D03*
%TD*%
D14*
%TO.C,JP33*%
X131912450Y-49592000D03*
X131912450Y-51992000D03*
D46*
X131912450Y-52792000D03*
D47*
X131912450Y-48792000D03*
%TD*%
D61*
%TO.C,C15*%
X126594700Y-84836000D03*
X128319700Y-84836000D03*
%TD*%
D47*
%TO.C,JP16*%
X74846000Y-48915654D03*
D46*
X74846000Y-52915654D03*
D14*
X74846000Y-52115654D03*
X74846000Y-49715654D03*
%TD*%
D57*
%TO.C,D5*%
X115890000Y-101721500D03*
X116840000Y-101721500D03*
X117790000Y-101721500D03*
X117790000Y-99446500D03*
X116840000Y-99446500D03*
X115890000Y-99446500D03*
%TD*%
D17*
%TO.C,C3*%
X147726400Y-89508500D03*
X147726400Y-87783500D03*
%TD*%
D50*
%TO.C,R20*%
X131726300Y-110744000D03*
X133551300Y-110744000D03*
%TD*%
D69*
%TO.C,R21*%
X123952000Y-99615000D03*
X123952000Y-97790000D03*
%TD*%
D58*
%TO.C,R4*%
X156462100Y-94538800D03*
X154637100Y-94538800D03*
%TD*%
D50*
%TO.C,R3*%
X154967300Y-74345800D03*
X156792300Y-74345800D03*
%TD*%
D48*
%TO.C,JP47*%
X127940000Y-125589000D03*
D46*
X127940000Y-127039000D03*
%TD*%
D58*
%TO.C,R13*%
X118569100Y-91084400D03*
X120394100Y-91084400D03*
%TD*%
D47*
%TO.C,JP31*%
X99981075Y-55462827D03*
D51*
X99981075Y-56912827D03*
%TD*%
D38*
%TO.C,D14*%
X115183600Y-87274400D03*
X117683600Y-87274400D03*
%TD*%
D70*
%TO.C,U4*%
X129590800Y-108093200D03*
X128940800Y-110753200D03*
X130240800Y-110753200D03*
%TD*%
D71*
%TO.C,Q2*%
X154905000Y-111379000D03*
X154905000Y-110109000D03*
X154905000Y-108839000D03*
X154905000Y-107569000D03*
X160055000Y-107569000D03*
X160055000Y-108839000D03*
X160055000Y-110109000D03*
X160055000Y-111379000D03*
%TD*%
D46*
%TO.C,JP59*%
X70812925Y-133708000D03*
D47*
X70812925Y-129708000D03*
D14*
X70812925Y-132908000D03*
X70812925Y-130508000D03*
%TD*%
D50*
%TO.C,R24*%
X115571900Y-108407200D03*
X117396900Y-108407200D03*
%TD*%
D14*
%TO.C,JP34*%
X117434450Y-55294000D03*
X117434450Y-52894000D03*
D46*
X117434450Y-56094000D03*
D47*
X117434450Y-52094000D03*
%TD*%
D46*
%TO.C,JP43*%
X130734000Y-133648000D03*
D47*
X130734000Y-129648000D03*
D14*
X130734000Y-132848000D03*
X130734000Y-130448000D03*
%TD*%
D50*
%TO.C,R14*%
X137771500Y-99923600D03*
X139596500Y-99923600D03*
%TD*%
D15*
%TO.C,JP68*%
X65698000Y-104355600D03*
D49*
X69698000Y-104355600D03*
D14*
X66498000Y-104355600D03*
X68898000Y-104355600D03*
%TD*%
D50*
%TO.C,R25*%
X115571900Y-106883200D03*
X117396900Y-106883200D03*
%TD*%
D72*
%TO.C,U6*%
X123734800Y-86868000D03*
D73*
X126034800Y-93168000D03*
D72*
X126034800Y-86868000D03*
X128334800Y-86868000D03*
%TD*%
D16*
%TO.C,JP71*%
X73757000Y-104101600D03*
D15*
X72307000Y-104101600D03*
%TD*%
D16*
%TO.C,JP69*%
X73757000Y-109181600D03*
D15*
X72307000Y-109181600D03*
%TD*%
D48*
%TO.C,JP62*%
X70558925Y-125649000D03*
D46*
X70558925Y-127099000D03*
%TD*%
D74*
%TO.C,R18*%
X155295600Y-54838000D03*
X155295600Y-57938000D03*
%TD*%
D15*
%TO.C,JP11*%
X65726000Y-79708000D03*
D49*
X69726000Y-79708000D03*
D14*
X66526000Y-79708000D03*
X68926000Y-79708000D03*
%TD*%
%TO.C,JP52*%
X98134000Y-132908000D03*
X98134000Y-130508000D03*
D47*
X98134000Y-129708000D03*
D46*
X98134000Y-133708000D03*
%TD*%
D62*
%TO.C,R23*%
X63357200Y-66503800D03*
X63357200Y-68328800D03*
%TD*%
D15*
%TO.C,JP9*%
X65726000Y-72088000D03*
D49*
X69726000Y-72088000D03*
D14*
X66526000Y-72088000D03*
X68926000Y-72088000D03*
%TD*%
D46*
%TO.C,JP53*%
X102960000Y-127099000D03*
D48*
X102960000Y-125649000D03*
%TD*%
M02*
