G04 #@! TF.GenerationSoftware,KiCad,Pcbnew,5.1.6*
G04 #@! TF.CreationDate,2020-10-24T20:22:56+03:00*
G04 #@! TF.ProjectId,stm32,73746d33-322e-46b6-9963-61645f706362,rev?*
G04 #@! TF.SameCoordinates,Original*
G04 #@! TF.FileFunction,Soldermask,Bot*
G04 #@! TF.FilePolarity,Negative*
%FSLAX46Y46*%
G04 Gerber Fmt 4.6, Leading zero omitted, Abs format (unit mm)*
G04 Created by KiCad (PCBNEW 5.1.6) date 2020-10-24 20:22:56*
%MOMM*%
%LPD*%
G01*
G04 APERTURE LIST*
G04 #@! TA.AperFunction,Profile*
%ADD10C,0.150000*%
G04 #@! TD*
%ADD11R,2.130000X2.430000*%
%ADD12O,2.130000X2.430000*%
%ADD13R,3.000000X3.000000*%
%ADD14C,3.000000*%
%ADD15R,2.100000X2.100000*%
%ADD16O,2.100000X2.100000*%
%ADD17O,2.100000X2.400000*%
%ADD18C,3.400000*%
%ADD19C,2.900000*%
%ADD20C,2.100000*%
%ADD21C,3.900000*%
%ADD22C,3.600000*%
%ADD23R,2.400000X2.305000*%
%ADD24O,2.400000X2.305000*%
%ADD25R,2.000000X2.000000*%
%ADD26C,2.000000*%
G04 APERTURE END LIST*
D10*
X38000000Y-104500000D02*
X38000000Y-52000000D01*
X113500000Y-104500000D02*
X38000000Y-104500000D01*
X113500000Y-52000000D02*
X113500000Y-104500000D01*
X38000000Y-52000000D02*
X113500000Y-52000000D01*
D11*
X94500000Y-56000000D03*
D12*
X97040000Y-56000000D03*
X99580000Y-56000000D03*
X102120000Y-56000000D03*
X86620000Y-56000000D03*
X84080000Y-56000000D03*
X81540000Y-56000000D03*
D11*
X79000000Y-56000000D03*
D13*
X52000000Y-98500000D03*
D14*
X57000000Y-98500000D03*
D15*
X74602000Y-98255500D03*
D16*
X74602000Y-100795500D03*
X72062000Y-98255500D03*
X72062000Y-100795500D03*
X69522000Y-98255500D03*
X69522000Y-100795500D03*
X66982000Y-98255500D03*
X66982000Y-100795500D03*
D17*
X109000000Y-68500000D03*
G36*
G01*
X105450000Y-69391177D02*
X105450000Y-67608823D01*
G75*
G02*
X105758823Y-67300000I308823J0D01*
G01*
X107241177Y-67300000D01*
G75*
G02*
X107550000Y-67608823I0J-308823D01*
G01*
X107550000Y-69391177D01*
G75*
G02*
X107241177Y-69700000I-308823J0D01*
G01*
X105758823Y-69700000D01*
G75*
G02*
X105450000Y-69391177I0J308823D01*
G01*
G37*
G36*
G01*
X65950000Y-55891177D02*
X65950000Y-54108823D01*
G75*
G02*
X66258823Y-53800000I308823J0D01*
G01*
X67741177Y-53800000D01*
G75*
G02*
X68050000Y-54108823I0J-308823D01*
G01*
X68050000Y-55891177D01*
G75*
G02*
X67741177Y-56200000I-308823J0D01*
G01*
X66258823Y-56200000D01*
G75*
G02*
X65950000Y-55891177I0J308823D01*
G01*
G37*
X69500000Y-55000000D03*
D13*
X56885500Y-58000000D03*
D14*
X51885500Y-58000000D03*
D18*
X57025200Y-74107720D03*
D19*
X55075200Y-68157720D03*
D18*
X42825200Y-68107720D03*
X42875200Y-80157720D03*
D19*
X55075200Y-80157720D03*
D15*
X105463000Y-82063000D03*
D20*
X105463000Y-79563000D03*
X107463000Y-79563000D03*
X107463000Y-82063000D03*
D21*
X110173000Y-86833000D03*
X110173000Y-74793000D03*
D22*
X44500000Y-100500000D03*
X107500000Y-61000000D03*
X44500000Y-61000000D03*
X107500000Y-100500000D03*
D16*
X89588000Y-94001000D03*
D15*
X89588000Y-96541000D03*
X93334500Y-96541000D03*
D16*
X93334500Y-94001000D03*
D23*
X42153500Y-88349500D03*
D24*
X42153500Y-90889500D03*
X42153500Y-93429500D03*
D15*
X79682000Y-70950500D03*
D16*
X82222000Y-70950500D03*
X71460000Y-77872000D03*
D15*
X74000000Y-77872000D03*
D25*
X63844500Y-82734000D03*
D26*
X63844500Y-86234000D03*
M02*
