G04 #@! TF.GenerationSoftware,KiCad,Pcbnew,5.1.5*
G04 #@! TF.CreationDate,2020-01-17T21:00:46+03:00*
G04 #@! TF.ProjectId,chrono,6368726f-6e6f-42e6-9b69-6361645f7063,rev?*
G04 #@! TF.SameCoordinates,Original*
G04 #@! TF.FileFunction,Soldermask,Top*
G04 #@! TF.FilePolarity,Negative*
%FSLAX46Y46*%
G04 Gerber Fmt 4.6, Leading zero omitted, Abs format (unit mm)*
G04 Created by KiCad (PCBNEW 5.1.5) date 2020-01-17 21:00:46*
%MOMM*%
%LPD*%
G04 APERTURE LIST*
%ADD10C,0.050000*%
%ADD11C,0.100000*%
G04 APERTURE END LIST*
D10*
X30000000Y-74000000D02*
X30000000Y-133500000D01*
X127500000Y-133500000D02*
X30000000Y-133500000D01*
X127500000Y-74000000D02*
X127500000Y-133500000D01*
X30000000Y-74000000D02*
X127500000Y-74000000D01*
D11*
G36*
X124875256Y-128891298D02*
G01*
X124981579Y-128912447D01*
X125282042Y-129036903D01*
X125552451Y-129217585D01*
X125782415Y-129447549D01*
X125782416Y-129447551D01*
X125963098Y-129717960D01*
X126087553Y-130018422D01*
X126151000Y-130337389D01*
X126151000Y-130662611D01*
X126108702Y-130875256D01*
X126087553Y-130981579D01*
X125963097Y-131282042D01*
X125782415Y-131552451D01*
X125552451Y-131782415D01*
X125282042Y-131963097D01*
X124981579Y-132087553D01*
X124875256Y-132108702D01*
X124662611Y-132151000D01*
X124337389Y-132151000D01*
X124124744Y-132108702D01*
X124018421Y-132087553D01*
X123717958Y-131963097D01*
X123447549Y-131782415D01*
X123217585Y-131552451D01*
X123036903Y-131282042D01*
X122912447Y-130981579D01*
X122891298Y-130875256D01*
X122849000Y-130662611D01*
X122849000Y-130337389D01*
X122912447Y-130018422D01*
X123036902Y-129717960D01*
X123217584Y-129447551D01*
X123217585Y-129447549D01*
X123447549Y-129217585D01*
X123717958Y-129036903D01*
X124018421Y-128912447D01*
X124124744Y-128891298D01*
X124337389Y-128849000D01*
X124662611Y-128849000D01*
X124875256Y-128891298D01*
G37*
G36*
X116990000Y-132078500D02*
G01*
X113388000Y-132078500D01*
X113388000Y-130176500D01*
X116990000Y-130176500D01*
X116990000Y-132078500D01*
G37*
G36*
X111990000Y-132078500D02*
G01*
X108388000Y-132078500D01*
X108388000Y-130176500D01*
X111990000Y-130176500D01*
X111990000Y-132078500D01*
G37*
G36*
X88336631Y-128383615D02*
G01*
X88481579Y-128412447D01*
X88782042Y-128536903D01*
X89052451Y-128717585D01*
X89282415Y-128947549D01*
X89463097Y-129217958D01*
X89558198Y-129447551D01*
X89587553Y-129518422D01*
X89627244Y-129717958D01*
X89651000Y-129837391D01*
X89651000Y-130162609D01*
X89587553Y-130481579D01*
X89463097Y-130782042D01*
X89282415Y-131052451D01*
X89052451Y-131282415D01*
X88782042Y-131463097D01*
X88481579Y-131587553D01*
X88375256Y-131608702D01*
X88162611Y-131651000D01*
X87837389Y-131651000D01*
X87624744Y-131608702D01*
X87518421Y-131587553D01*
X87217958Y-131463097D01*
X86947549Y-131282415D01*
X86717585Y-131052451D01*
X86536903Y-130782042D01*
X86412447Y-130481579D01*
X86349000Y-130162609D01*
X86349000Y-129837391D01*
X86372757Y-129717958D01*
X86412447Y-129518422D01*
X86441803Y-129447551D01*
X86536903Y-129217958D01*
X86717585Y-128947549D01*
X86947549Y-128717585D01*
X87217958Y-128536903D01*
X87518421Y-128412447D01*
X87663369Y-128383615D01*
X87837389Y-128349000D01*
X88162611Y-128349000D01*
X88336631Y-128383615D01*
G37*
G36*
X33836631Y-128383615D02*
G01*
X33981579Y-128412447D01*
X34282042Y-128536903D01*
X34552451Y-128717585D01*
X34782415Y-128947549D01*
X34963097Y-129217958D01*
X35058198Y-129447551D01*
X35087553Y-129518422D01*
X35127244Y-129717958D01*
X35151000Y-129837391D01*
X35151000Y-130162609D01*
X35087553Y-130481579D01*
X34963097Y-130782042D01*
X34782415Y-131052451D01*
X34552451Y-131282415D01*
X34282042Y-131463097D01*
X33981579Y-131587553D01*
X33875256Y-131608702D01*
X33662611Y-131651000D01*
X33337389Y-131651000D01*
X33124744Y-131608702D01*
X33018421Y-131587553D01*
X32717958Y-131463097D01*
X32447549Y-131282415D01*
X32217585Y-131052451D01*
X32036903Y-130782042D01*
X31912447Y-130481579D01*
X31849000Y-130162609D01*
X31849000Y-129837391D01*
X31872757Y-129717958D01*
X31912447Y-129518422D01*
X31941803Y-129447551D01*
X32036903Y-129217958D01*
X32217585Y-128947549D01*
X32447549Y-128717585D01*
X32717958Y-128536903D01*
X33018421Y-128412447D01*
X33163369Y-128383615D01*
X33337389Y-128349000D01*
X33662611Y-128349000D01*
X33836631Y-128383615D01*
G37*
G36*
X76530572Y-126716918D02*
G01*
X76737812Y-126802759D01*
X76776439Y-126818759D01*
X76887828Y-126893187D01*
X76973767Y-126950610D01*
X76997712Y-126966610D01*
X77185890Y-127154788D01*
X77318702Y-127353553D01*
X77333742Y-127376063D01*
X77435582Y-127621928D01*
X77487500Y-127882937D01*
X77487500Y-128149063D01*
X77435582Y-128410072D01*
X77340369Y-128639939D01*
X77333741Y-128655939D01*
X77185890Y-128877212D01*
X76997712Y-129065390D01*
X76776439Y-129213241D01*
X76776438Y-129213242D01*
X76776437Y-129213242D01*
X76530572Y-129315082D01*
X76269563Y-129367000D01*
X76003437Y-129367000D01*
X75742428Y-129315082D01*
X75496563Y-129213242D01*
X75496562Y-129213242D01*
X75496561Y-129213241D01*
X75275288Y-129065390D01*
X75087110Y-128877212D01*
X74939259Y-128655939D01*
X74932632Y-128639939D01*
X74837418Y-128410072D01*
X74785500Y-128149063D01*
X74785500Y-127882937D01*
X74837418Y-127621928D01*
X74939258Y-127376063D01*
X74954299Y-127353553D01*
X75087110Y-127154788D01*
X75275288Y-126966610D01*
X75299234Y-126950610D01*
X75385172Y-126893187D01*
X75496561Y-126818759D01*
X75535189Y-126802759D01*
X75742428Y-126716918D01*
X76003437Y-126665000D01*
X76269563Y-126665000D01*
X76530572Y-126716918D01*
G37*
G36*
X47007500Y-129367000D02*
G01*
X44305500Y-129367000D01*
X44305500Y-126665000D01*
X47007500Y-126665000D01*
X47007500Y-129367000D01*
G37*
G36*
X40970572Y-126716918D02*
G01*
X41177812Y-126802759D01*
X41216439Y-126818759D01*
X41327828Y-126893187D01*
X41413767Y-126950610D01*
X41437712Y-126966610D01*
X41625890Y-127154788D01*
X41758702Y-127353553D01*
X41773742Y-127376063D01*
X41875582Y-127621928D01*
X41927500Y-127882937D01*
X41927500Y-128149063D01*
X41875582Y-128410072D01*
X41780369Y-128639939D01*
X41773741Y-128655939D01*
X41625890Y-128877212D01*
X41437712Y-129065390D01*
X41216439Y-129213241D01*
X41216438Y-129213242D01*
X41216437Y-129213242D01*
X40970572Y-129315082D01*
X40709563Y-129367000D01*
X40443437Y-129367000D01*
X40182428Y-129315082D01*
X39936563Y-129213242D01*
X39936562Y-129213242D01*
X39936561Y-129213241D01*
X39715288Y-129065390D01*
X39527110Y-128877212D01*
X39379259Y-128655939D01*
X39372632Y-128639939D01*
X39277418Y-128410072D01*
X39225500Y-128149063D01*
X39225500Y-127882937D01*
X39277418Y-127621928D01*
X39379258Y-127376063D01*
X39394299Y-127353553D01*
X39527110Y-127154788D01*
X39715288Y-126966610D01*
X39739234Y-126950610D01*
X39825172Y-126893187D01*
X39936561Y-126818759D01*
X39975189Y-126802759D01*
X40182428Y-126716918D01*
X40443437Y-126665000D01*
X40709563Y-126665000D01*
X40970572Y-126716918D01*
G37*
G36*
X58369572Y-126716918D02*
G01*
X58576812Y-126802759D01*
X58615439Y-126818759D01*
X58726828Y-126893187D01*
X58812767Y-126950610D01*
X58836712Y-126966610D01*
X59024890Y-127154788D01*
X59157702Y-127353553D01*
X59172742Y-127376063D01*
X59274582Y-127621928D01*
X59326500Y-127882937D01*
X59326500Y-128149063D01*
X59274582Y-128410072D01*
X59179369Y-128639939D01*
X59172741Y-128655939D01*
X59024890Y-128877212D01*
X58836712Y-129065390D01*
X58615439Y-129213241D01*
X58615438Y-129213242D01*
X58615437Y-129213242D01*
X58369572Y-129315082D01*
X58108563Y-129367000D01*
X57842437Y-129367000D01*
X57581428Y-129315082D01*
X57335563Y-129213242D01*
X57335562Y-129213242D01*
X57335561Y-129213241D01*
X57114288Y-129065390D01*
X56926110Y-128877212D01*
X56778259Y-128655939D01*
X56771632Y-128639939D01*
X56676418Y-128410072D01*
X56624500Y-128149063D01*
X56624500Y-127882937D01*
X56676418Y-127621928D01*
X56778258Y-127376063D01*
X56793299Y-127353553D01*
X56926110Y-127154788D01*
X57114288Y-126966610D01*
X57138234Y-126950610D01*
X57224172Y-126893187D01*
X57335561Y-126818759D01*
X57374189Y-126802759D01*
X57581428Y-126716918D01*
X57842437Y-126665000D01*
X58108563Y-126665000D01*
X58369572Y-126716918D01*
G37*
G36*
X64406500Y-129367000D02*
G01*
X61704500Y-129367000D01*
X61704500Y-126665000D01*
X64406500Y-126665000D01*
X64406500Y-129367000D01*
G37*
G36*
X82567500Y-129367000D02*
G01*
X79865500Y-129367000D01*
X79865500Y-126665000D01*
X82567500Y-126665000D01*
X82567500Y-129367000D01*
G37*
G36*
X100859000Y-129351000D02*
G01*
X98157000Y-129351000D01*
X98157000Y-126649000D01*
X100859000Y-126649000D01*
X100859000Y-129351000D01*
G37*
G36*
X94822072Y-126700918D02*
G01*
X94858986Y-126716208D01*
X95067939Y-126802759D01*
X95179328Y-126877187D01*
X95289211Y-126950609D01*
X95477391Y-127138789D01*
X95625242Y-127360063D01*
X95727082Y-127605928D01*
X95779000Y-127866937D01*
X95779000Y-128133063D01*
X95727082Y-128394072D01*
X95625242Y-128639937D01*
X95477391Y-128861211D01*
X95289211Y-129049391D01*
X95265265Y-129065391D01*
X95067939Y-129197241D01*
X95067938Y-129197242D01*
X95067937Y-129197242D01*
X94822072Y-129299082D01*
X94561063Y-129351000D01*
X94294937Y-129351000D01*
X94033928Y-129299082D01*
X93788063Y-129197242D01*
X93788062Y-129197242D01*
X93788061Y-129197241D01*
X93590735Y-129065391D01*
X93566789Y-129049391D01*
X93378609Y-128861211D01*
X93230758Y-128639937D01*
X93128918Y-128394072D01*
X93077000Y-128133063D01*
X93077000Y-127866937D01*
X93128918Y-127605928D01*
X93230758Y-127360063D01*
X93378609Y-127138789D01*
X93566789Y-126950609D01*
X93676672Y-126877187D01*
X93788061Y-126802759D01*
X93997015Y-126716208D01*
X94033928Y-126700918D01*
X94294937Y-126649000D01*
X94561063Y-126649000D01*
X94822072Y-126700918D01*
G37*
G36*
X52815499Y-127352945D02*
G01*
X52852995Y-127364320D01*
X52887554Y-127382792D01*
X52917847Y-127407653D01*
X52942708Y-127437946D01*
X52961180Y-127472505D01*
X52972555Y-127510001D01*
X52977000Y-127555138D01*
X52977000Y-128293862D01*
X52972555Y-128338999D01*
X52961180Y-128376495D01*
X52942708Y-128411054D01*
X52917847Y-128441347D01*
X52887554Y-128466208D01*
X52852995Y-128484680D01*
X52815499Y-128496055D01*
X52770362Y-128500500D01*
X52131638Y-128500500D01*
X52086501Y-128496055D01*
X52049005Y-128484680D01*
X52014446Y-128466208D01*
X51984153Y-128441347D01*
X51959292Y-128411054D01*
X51940820Y-128376495D01*
X51929445Y-128338999D01*
X51925000Y-128293862D01*
X51925000Y-127555138D01*
X51929445Y-127510001D01*
X51940820Y-127472505D01*
X51959292Y-127437946D01*
X51984153Y-127407653D01*
X52014446Y-127382792D01*
X52049005Y-127364320D01*
X52086501Y-127352945D01*
X52131638Y-127348500D01*
X52770362Y-127348500D01*
X52815499Y-127352945D01*
G37*
G36*
X112923500Y-128247000D02*
G01*
X107421500Y-128247000D01*
X107421500Y-125245000D01*
X112923500Y-125245000D01*
X112923500Y-128247000D01*
G37*
G36*
X123315500Y-127252500D02*
G01*
X121413500Y-127252500D01*
X121413500Y-125350500D01*
X123315500Y-125350500D01*
X123315500Y-127252500D01*
G37*
G36*
X52815499Y-125602945D02*
G01*
X52852995Y-125614320D01*
X52887554Y-125632792D01*
X52917847Y-125657653D01*
X52942708Y-125687946D01*
X52961180Y-125722505D01*
X52972555Y-125760001D01*
X52977000Y-125805138D01*
X52977000Y-126543862D01*
X52972555Y-126588999D01*
X52961180Y-126626495D01*
X52942708Y-126661054D01*
X52917847Y-126691347D01*
X52887554Y-126716208D01*
X52852995Y-126734680D01*
X52815499Y-126746055D01*
X52770362Y-126750500D01*
X52131638Y-126750500D01*
X52086501Y-126746055D01*
X52049005Y-126734680D01*
X52014446Y-126716208D01*
X51984153Y-126691347D01*
X51959292Y-126661054D01*
X51940820Y-126626495D01*
X51929445Y-126588999D01*
X51925000Y-126543862D01*
X51925000Y-125805138D01*
X51929445Y-125760001D01*
X51940820Y-125722505D01*
X51959292Y-125687946D01*
X51984153Y-125657653D01*
X52014446Y-125632792D01*
X52049005Y-125614320D01*
X52086501Y-125602945D01*
X52131638Y-125598500D01*
X52770362Y-125598500D01*
X52815499Y-125602945D01*
G37*
G36*
X118941895Y-123687046D02*
G01*
X119114966Y-123758734D01*
X119114967Y-123758735D01*
X119270727Y-123862810D01*
X119403190Y-123995273D01*
X119403191Y-123995275D01*
X119507266Y-124151034D01*
X119578954Y-124324105D01*
X119615500Y-124507833D01*
X119615500Y-124695167D01*
X119578954Y-124878895D01*
X119507266Y-125051966D01*
X119507265Y-125051967D01*
X119403190Y-125207727D01*
X119270727Y-125340190D01*
X119255297Y-125350500D01*
X119114966Y-125444266D01*
X118941895Y-125515954D01*
X118758167Y-125552500D01*
X118570833Y-125552500D01*
X118387105Y-125515954D01*
X118214034Y-125444266D01*
X118073703Y-125350500D01*
X118058273Y-125340190D01*
X117925810Y-125207727D01*
X117821735Y-125051967D01*
X117821734Y-125051966D01*
X117750046Y-124878895D01*
X117713500Y-124695167D01*
X117713500Y-124507833D01*
X117750046Y-124324105D01*
X117821734Y-124151034D01*
X117925809Y-123995275D01*
X117925810Y-123995273D01*
X118058273Y-123862810D01*
X118214033Y-123758735D01*
X118214034Y-123758734D01*
X118387105Y-123687046D01*
X118570833Y-123650500D01*
X118758167Y-123650500D01*
X118941895Y-123687046D01*
G37*
G36*
X50906500Y-124907500D02*
G01*
X49804500Y-124907500D01*
X49804500Y-123805500D01*
X50906500Y-123805500D01*
X50906500Y-124907500D01*
G37*
G36*
X52815499Y-123415945D02*
G01*
X52852995Y-123427320D01*
X52887554Y-123445792D01*
X52917847Y-123470653D01*
X52942708Y-123500946D01*
X52961180Y-123535505D01*
X52972555Y-123573001D01*
X52977000Y-123618138D01*
X52977000Y-124356862D01*
X52972555Y-124401999D01*
X52961180Y-124439495D01*
X52942708Y-124474054D01*
X52917847Y-124504347D01*
X52887554Y-124529208D01*
X52852995Y-124547680D01*
X52815499Y-124559055D01*
X52770362Y-124563500D01*
X52131638Y-124563500D01*
X52086501Y-124559055D01*
X52049005Y-124547680D01*
X52014446Y-124529208D01*
X51984153Y-124504347D01*
X51959292Y-124474054D01*
X51940820Y-124439495D01*
X51929445Y-124401999D01*
X51925000Y-124356862D01*
X51925000Y-123618138D01*
X51929445Y-123573001D01*
X51940820Y-123535505D01*
X51959292Y-123500946D01*
X51984153Y-123470653D01*
X52014446Y-123445792D01*
X52049005Y-123427320D01*
X52086501Y-123415945D01*
X52131638Y-123411500D01*
X52770362Y-123411500D01*
X52815499Y-123415945D01*
G37*
G36*
X122641895Y-121987046D02*
G01*
X122814966Y-122058734D01*
X122814967Y-122058735D01*
X122970727Y-122162810D01*
X123103190Y-122295273D01*
X123103191Y-122295275D01*
X123207266Y-122451034D01*
X123278954Y-122624105D01*
X123315500Y-122807833D01*
X123315500Y-122995167D01*
X123278954Y-123178895D01*
X123207266Y-123351966D01*
X123164110Y-123416553D01*
X123103190Y-123507727D01*
X122970727Y-123640190D01*
X122955297Y-123650500D01*
X122814966Y-123744266D01*
X122641895Y-123815954D01*
X122458167Y-123852500D01*
X122270833Y-123852500D01*
X122087105Y-123815954D01*
X121914034Y-123744266D01*
X121773703Y-123650500D01*
X121758273Y-123640190D01*
X121625810Y-123507727D01*
X121564890Y-123416553D01*
X121521734Y-123351966D01*
X121450046Y-123178895D01*
X121413500Y-122995167D01*
X121413500Y-122807833D01*
X121450046Y-122624105D01*
X121521734Y-122451034D01*
X121625809Y-122295275D01*
X121625810Y-122295273D01*
X121758273Y-122162810D01*
X121914033Y-122058735D01*
X121914034Y-122058734D01*
X122087105Y-121987046D01*
X122270833Y-121950500D01*
X122458167Y-121950500D01*
X122641895Y-121987046D01*
G37*
G36*
X88897999Y-121969945D02*
G01*
X88935495Y-121981320D01*
X88970054Y-121999792D01*
X89000347Y-122024653D01*
X89025208Y-122054946D01*
X89043680Y-122089505D01*
X89055055Y-122127001D01*
X89059500Y-122172138D01*
X89059500Y-122810862D01*
X89055055Y-122855999D01*
X89043680Y-122893495D01*
X89025208Y-122928054D01*
X89000347Y-122958347D01*
X88970054Y-122983208D01*
X88935495Y-123001680D01*
X88897999Y-123013055D01*
X88852862Y-123017500D01*
X88114138Y-123017500D01*
X88069001Y-123013055D01*
X88031505Y-123001680D01*
X87996946Y-122983208D01*
X87966653Y-122958347D01*
X87941792Y-122928054D01*
X87923320Y-122893495D01*
X87911945Y-122855999D01*
X87907500Y-122810862D01*
X87907500Y-122172138D01*
X87911945Y-122127001D01*
X87923320Y-122089505D01*
X87941792Y-122054946D01*
X87966653Y-122024653D01*
X87996946Y-121999792D01*
X88031505Y-121981320D01*
X88069001Y-121969945D01*
X88114138Y-121965500D01*
X88852862Y-121965500D01*
X88897999Y-121969945D01*
G37*
G36*
X90647999Y-121969945D02*
G01*
X90685495Y-121981320D01*
X90720054Y-121999792D01*
X90750347Y-122024653D01*
X90775208Y-122054946D01*
X90793680Y-122089505D01*
X90805055Y-122127001D01*
X90809500Y-122172138D01*
X90809500Y-122810862D01*
X90805055Y-122855999D01*
X90793680Y-122893495D01*
X90775208Y-122928054D01*
X90750347Y-122958347D01*
X90720054Y-122983208D01*
X90685495Y-123001680D01*
X90647999Y-123013055D01*
X90602862Y-123017500D01*
X89864138Y-123017500D01*
X89819001Y-123013055D01*
X89781505Y-123001680D01*
X89746946Y-122983208D01*
X89716653Y-122958347D01*
X89691792Y-122928054D01*
X89673320Y-122893495D01*
X89661945Y-122855999D01*
X89657500Y-122810862D01*
X89657500Y-122172138D01*
X89661945Y-122127001D01*
X89673320Y-122089505D01*
X89691792Y-122054946D01*
X89716653Y-122024653D01*
X89746946Y-121999792D01*
X89781505Y-121981320D01*
X89819001Y-121969945D01*
X89864138Y-121965500D01*
X90602862Y-121965500D01*
X90647999Y-121969945D01*
G37*
G36*
X52815499Y-121665945D02*
G01*
X52852995Y-121677320D01*
X52887554Y-121695792D01*
X52917847Y-121720653D01*
X52942708Y-121750946D01*
X52961180Y-121785505D01*
X52972555Y-121823001D01*
X52977000Y-121868138D01*
X52977000Y-122606862D01*
X52972555Y-122651999D01*
X52961180Y-122689495D01*
X52942708Y-122724054D01*
X52917847Y-122754347D01*
X52887554Y-122779208D01*
X52852995Y-122797680D01*
X52815499Y-122809055D01*
X52770362Y-122813500D01*
X52131638Y-122813500D01*
X52086501Y-122809055D01*
X52049005Y-122797680D01*
X52014446Y-122779208D01*
X51984153Y-122754347D01*
X51959292Y-122724054D01*
X51940820Y-122689495D01*
X51929445Y-122651999D01*
X51925000Y-122606862D01*
X51925000Y-121868138D01*
X51929445Y-121823001D01*
X51940820Y-121785505D01*
X51959292Y-121750946D01*
X51984153Y-121720653D01*
X52014446Y-121695792D01*
X52049005Y-121677320D01*
X52086501Y-121665945D01*
X52131638Y-121661500D01*
X52770362Y-121661500D01*
X52815499Y-121665945D01*
G37*
G36*
X50906500Y-122407500D02*
G01*
X49804500Y-122407500D01*
X49804500Y-121305500D01*
X50906500Y-121305500D01*
X50906500Y-122407500D01*
G37*
G36*
X118941895Y-120287046D02*
G01*
X119114966Y-120358734D01*
X119114967Y-120358735D01*
X119270727Y-120462810D01*
X119403190Y-120595273D01*
X119403191Y-120595275D01*
X119507266Y-120751034D01*
X119578954Y-120924105D01*
X119615500Y-121107833D01*
X119615500Y-121295167D01*
X119578954Y-121478895D01*
X119507266Y-121651966D01*
X119477982Y-121695792D01*
X119403190Y-121807727D01*
X119270727Y-121940190D01*
X119200602Y-121987046D01*
X119114966Y-122044266D01*
X118941895Y-122115954D01*
X118758167Y-122152500D01*
X118570833Y-122152500D01*
X118387105Y-122115954D01*
X118214034Y-122044266D01*
X118128398Y-121987046D01*
X118058273Y-121940190D01*
X117925810Y-121807727D01*
X117851018Y-121695792D01*
X117821734Y-121651966D01*
X117750046Y-121478895D01*
X117713500Y-121295167D01*
X117713500Y-121107833D01*
X117750046Y-120924105D01*
X117821734Y-120751034D01*
X117925809Y-120595275D01*
X117925810Y-120595273D01*
X118058273Y-120462810D01*
X118214033Y-120358735D01*
X118214034Y-120358734D01*
X118387105Y-120287046D01*
X118570833Y-120250500D01*
X118758167Y-120250500D01*
X118941895Y-120287046D01*
G37*
G36*
X122641895Y-118587046D02*
G01*
X122814966Y-118658734D01*
X122862507Y-118690500D01*
X122970727Y-118762810D01*
X123103190Y-118895273D01*
X123112746Y-118909575D01*
X123207266Y-119051034D01*
X123278954Y-119224105D01*
X123315500Y-119407833D01*
X123315500Y-119595167D01*
X123278954Y-119778895D01*
X123207266Y-119951966D01*
X123207265Y-119951967D01*
X123103190Y-120107727D01*
X122970727Y-120240190D01*
X122955297Y-120250500D01*
X122814966Y-120344266D01*
X122641895Y-120415954D01*
X122458167Y-120452500D01*
X122270833Y-120452500D01*
X122087105Y-120415954D01*
X121914034Y-120344266D01*
X121773703Y-120250500D01*
X121758273Y-120240190D01*
X121625810Y-120107727D01*
X121521735Y-119951967D01*
X121521734Y-119951966D01*
X121450046Y-119778895D01*
X121413500Y-119595167D01*
X121413500Y-119407833D01*
X121450046Y-119224105D01*
X121521734Y-119051034D01*
X121616254Y-118909575D01*
X121625810Y-118895273D01*
X121758273Y-118762810D01*
X121866493Y-118690500D01*
X121914034Y-118658734D01*
X122087105Y-118587046D01*
X122270833Y-118550500D01*
X122458167Y-118550500D01*
X122641895Y-118587046D01*
G37*
G36*
X94008062Y-118394681D02*
G01*
X94042981Y-118405274D01*
X94075163Y-118422476D01*
X94103373Y-118445627D01*
X94126524Y-118473837D01*
X94143726Y-118506019D01*
X94154319Y-118540938D01*
X94158500Y-118583395D01*
X94158500Y-120049605D01*
X94154319Y-120092062D01*
X94143726Y-120126981D01*
X94126524Y-120159163D01*
X94103373Y-120187373D01*
X94075163Y-120210524D01*
X94042981Y-120227726D01*
X94008062Y-120238319D01*
X93965605Y-120242500D01*
X92824395Y-120242500D01*
X92781938Y-120238319D01*
X92747019Y-120227726D01*
X92714837Y-120210524D01*
X92686627Y-120187373D01*
X92663476Y-120159163D01*
X92646274Y-120126981D01*
X92635681Y-120092062D01*
X92631500Y-120049605D01*
X92631500Y-118583395D01*
X92635681Y-118540938D01*
X92646274Y-118506019D01*
X92663476Y-118473837D01*
X92686627Y-118445627D01*
X92714837Y-118422476D01*
X92747019Y-118405274D01*
X92781938Y-118394681D01*
X92824395Y-118390500D01*
X93965605Y-118390500D01*
X94008062Y-118394681D01*
G37*
G36*
X91033062Y-118394681D02*
G01*
X91067981Y-118405274D01*
X91100163Y-118422476D01*
X91128373Y-118445627D01*
X91151524Y-118473837D01*
X91168726Y-118506019D01*
X91179319Y-118540938D01*
X91183500Y-118583395D01*
X91183500Y-120049605D01*
X91179319Y-120092062D01*
X91168726Y-120126981D01*
X91151524Y-120159163D01*
X91128373Y-120187373D01*
X91100163Y-120210524D01*
X91067981Y-120227726D01*
X91033062Y-120238319D01*
X90990605Y-120242500D01*
X89849395Y-120242500D01*
X89806938Y-120238319D01*
X89772019Y-120227726D01*
X89739837Y-120210524D01*
X89711627Y-120187373D01*
X89688476Y-120159163D01*
X89671274Y-120126981D01*
X89660681Y-120092062D01*
X89656500Y-120049605D01*
X89656500Y-118583395D01*
X89660681Y-118540938D01*
X89671274Y-118506019D01*
X89688476Y-118473837D01*
X89711627Y-118445627D01*
X89739837Y-118422476D01*
X89772019Y-118405274D01*
X89806938Y-118394681D01*
X89849395Y-118390500D01*
X90990605Y-118390500D01*
X91033062Y-118394681D01*
G37*
G36*
X96410174Y-118694965D02*
G01*
X96447867Y-118706399D01*
X96482603Y-118724966D01*
X96513048Y-118749952D01*
X96538034Y-118780397D01*
X96556601Y-118815133D01*
X96568035Y-118852826D01*
X96572500Y-118898161D01*
X96572500Y-119734839D01*
X96568035Y-119780174D01*
X96556601Y-119817867D01*
X96538034Y-119852603D01*
X96513048Y-119883048D01*
X96482603Y-119908034D01*
X96447867Y-119926601D01*
X96410174Y-119938035D01*
X96364839Y-119942500D01*
X95278161Y-119942500D01*
X95232826Y-119938035D01*
X95195133Y-119926601D01*
X95160397Y-119908034D01*
X95129952Y-119883048D01*
X95104966Y-119852603D01*
X95086399Y-119817867D01*
X95074965Y-119780174D01*
X95070500Y-119734839D01*
X95070500Y-118898161D01*
X95074965Y-118852826D01*
X95086399Y-118815133D01*
X95104966Y-118780397D01*
X95129952Y-118749952D01*
X95160397Y-118724966D01*
X95195133Y-118706399D01*
X95232826Y-118694965D01*
X95278161Y-118690500D01*
X96364839Y-118690500D01*
X96410174Y-118694965D01*
G37*
G36*
X99347000Y-119638000D02*
G01*
X97345000Y-119638000D01*
X97345000Y-118736000D01*
X99347000Y-118736000D01*
X99347000Y-119638000D01*
G37*
G36*
X76687500Y-119550000D02*
G01*
X75585500Y-119550000D01*
X75585500Y-118448000D01*
X76687500Y-118448000D01*
X76687500Y-119550000D01*
G37*
G36*
X74187500Y-119550000D02*
G01*
X73085500Y-119550000D01*
X73085500Y-118448000D01*
X74187500Y-118448000D01*
X74187500Y-119550000D01*
G37*
G36*
X78656000Y-119550000D02*
G01*
X77554000Y-119550000D01*
X77554000Y-118448000D01*
X78656000Y-118448000D01*
X78656000Y-119550000D01*
G37*
G36*
X81156000Y-119550000D02*
G01*
X80054000Y-119550000D01*
X80054000Y-118448000D01*
X81156000Y-118448000D01*
X81156000Y-119550000D01*
G37*
G36*
X38587500Y-119550000D02*
G01*
X37485500Y-119550000D01*
X37485500Y-118448000D01*
X38587500Y-118448000D01*
X38587500Y-119550000D01*
G37*
G36*
X42842000Y-119550000D02*
G01*
X41740000Y-119550000D01*
X41740000Y-118448000D01*
X42842000Y-118448000D01*
X42842000Y-119550000D01*
G37*
G36*
X45342000Y-119550000D02*
G01*
X44240000Y-119550000D01*
X44240000Y-118448000D01*
X45342000Y-118448000D01*
X45342000Y-119550000D01*
G37*
G36*
X41087500Y-119550000D02*
G01*
X39985500Y-119550000D01*
X39985500Y-118448000D01*
X41087500Y-118448000D01*
X41087500Y-119550000D01*
G37*
G36*
X58858728Y-117736203D02*
G01*
X59013600Y-117800353D01*
X59152981Y-117893485D01*
X59271515Y-118012019D01*
X59364647Y-118151400D01*
X59428797Y-118306272D01*
X59461500Y-118470684D01*
X59461500Y-118638316D01*
X59428797Y-118802728D01*
X59364647Y-118957600D01*
X59271515Y-119096981D01*
X59152981Y-119215515D01*
X59013600Y-119308647D01*
X58858728Y-119372797D01*
X58694316Y-119405500D01*
X58526684Y-119405500D01*
X58362272Y-119372797D01*
X58207400Y-119308647D01*
X58068019Y-119215515D01*
X57949485Y-119096981D01*
X57856353Y-118957600D01*
X57792203Y-118802728D01*
X57759500Y-118638316D01*
X57759500Y-118470684D01*
X57792203Y-118306272D01*
X57856353Y-118151400D01*
X57949485Y-118012019D01*
X58068019Y-117893485D01*
X58207400Y-117800353D01*
X58362272Y-117736203D01*
X58526684Y-117703500D01*
X58694316Y-117703500D01*
X58858728Y-117736203D01*
G37*
G36*
X61398728Y-117736203D02*
G01*
X61553600Y-117800353D01*
X61692981Y-117893485D01*
X61811515Y-118012019D01*
X61904647Y-118151400D01*
X61968797Y-118306272D01*
X62001500Y-118470684D01*
X62001500Y-118638316D01*
X61968797Y-118802728D01*
X61904647Y-118957600D01*
X61811515Y-119096981D01*
X61692981Y-119215515D01*
X61553600Y-119308647D01*
X61398728Y-119372797D01*
X61234316Y-119405500D01*
X61066684Y-119405500D01*
X60902272Y-119372797D01*
X60747400Y-119308647D01*
X60608019Y-119215515D01*
X60489485Y-119096981D01*
X60396353Y-118957600D01*
X60332203Y-118802728D01*
X60299500Y-118638316D01*
X60299500Y-118470684D01*
X60332203Y-118306272D01*
X60396353Y-118151400D01*
X60489485Y-118012019D01*
X60608019Y-117893485D01*
X60747400Y-117800353D01*
X60902272Y-117736203D01*
X61066684Y-117703500D01*
X61234316Y-117703500D01*
X61398728Y-117736203D01*
G37*
G36*
X69018728Y-117736203D02*
G01*
X69173600Y-117800353D01*
X69312981Y-117893485D01*
X69431515Y-118012019D01*
X69524647Y-118151400D01*
X69588797Y-118306272D01*
X69621500Y-118470684D01*
X69621500Y-118638316D01*
X69588797Y-118802728D01*
X69524647Y-118957600D01*
X69431515Y-119096981D01*
X69312981Y-119215515D01*
X69173600Y-119308647D01*
X69018728Y-119372797D01*
X68854316Y-119405500D01*
X68686684Y-119405500D01*
X68522272Y-119372797D01*
X68367400Y-119308647D01*
X68228019Y-119215515D01*
X68109485Y-119096981D01*
X68016353Y-118957600D01*
X67952203Y-118802728D01*
X67919500Y-118638316D01*
X67919500Y-118470684D01*
X67952203Y-118306272D01*
X68016353Y-118151400D01*
X68109485Y-118012019D01*
X68228019Y-117893485D01*
X68367400Y-117800353D01*
X68522272Y-117736203D01*
X68686684Y-117703500D01*
X68854316Y-117703500D01*
X69018728Y-117736203D01*
G37*
G36*
X66478728Y-117736203D02*
G01*
X66633600Y-117800353D01*
X66772981Y-117893485D01*
X66891515Y-118012019D01*
X66984647Y-118151400D01*
X67048797Y-118306272D01*
X67081500Y-118470684D01*
X67081500Y-118638316D01*
X67048797Y-118802728D01*
X66984647Y-118957600D01*
X66891515Y-119096981D01*
X66772981Y-119215515D01*
X66633600Y-119308647D01*
X66478728Y-119372797D01*
X66314316Y-119405500D01*
X66146684Y-119405500D01*
X65982272Y-119372797D01*
X65827400Y-119308647D01*
X65688019Y-119215515D01*
X65569485Y-119096981D01*
X65476353Y-118957600D01*
X65412203Y-118802728D01*
X65379500Y-118638316D01*
X65379500Y-118470684D01*
X65412203Y-118306272D01*
X65476353Y-118151400D01*
X65569485Y-118012019D01*
X65688019Y-117893485D01*
X65827400Y-117800353D01*
X65982272Y-117736203D01*
X66146684Y-117703500D01*
X66314316Y-117703500D01*
X66478728Y-117736203D01*
G37*
G36*
X102347000Y-118688000D02*
G01*
X100345000Y-118688000D01*
X100345000Y-117786000D01*
X102347000Y-117786000D01*
X102347000Y-118688000D01*
G37*
G36*
X85875256Y-115391298D02*
G01*
X85981579Y-115412447D01*
X86282042Y-115536903D01*
X86552451Y-115717585D01*
X86782415Y-115947549D01*
X86909002Y-116137000D01*
X86963098Y-116217960D01*
X86981641Y-116262728D01*
X87087553Y-116518421D01*
X87104447Y-116603354D01*
X87151000Y-116837389D01*
X87151000Y-117162611D01*
X87130037Y-117267999D01*
X87087553Y-117481579D01*
X87026027Y-117630115D01*
X86968969Y-117767867D01*
X86963097Y-117782042D01*
X86782415Y-118052451D01*
X86552451Y-118282415D01*
X86282042Y-118463097D01*
X86282041Y-118463098D01*
X86282040Y-118463098D01*
X86194037Y-118499550D01*
X85981579Y-118587553D01*
X85888181Y-118606131D01*
X85662611Y-118651000D01*
X85337389Y-118651000D01*
X85111819Y-118606131D01*
X85018421Y-118587553D01*
X84805963Y-118499550D01*
X84717960Y-118463098D01*
X84717959Y-118463098D01*
X84717958Y-118463097D01*
X84447549Y-118282415D01*
X84217585Y-118052451D01*
X84036903Y-117782042D01*
X84031032Y-117767867D01*
X83973973Y-117630115D01*
X83912447Y-117481579D01*
X83869963Y-117267999D01*
X83849000Y-117162611D01*
X83849000Y-116837389D01*
X83895553Y-116603354D01*
X83912447Y-116518421D01*
X84018359Y-116262728D01*
X84036902Y-116217960D01*
X84090998Y-116137000D01*
X84217585Y-115947549D01*
X84447549Y-115717585D01*
X84717958Y-115536903D01*
X85018421Y-115412447D01*
X85124744Y-115391298D01*
X85337389Y-115349000D01*
X85662611Y-115349000D01*
X85875256Y-115391298D01*
G37*
G36*
X112923500Y-118347000D02*
G01*
X107421500Y-118347000D01*
X107421500Y-115345000D01*
X112923500Y-115345000D01*
X112923500Y-118347000D01*
G37*
G36*
X72055999Y-117002445D02*
G01*
X72093495Y-117013820D01*
X72128054Y-117032292D01*
X72158347Y-117057153D01*
X72183208Y-117087446D01*
X72201680Y-117122005D01*
X72213055Y-117159501D01*
X72217500Y-117204638D01*
X72217500Y-117943362D01*
X72213055Y-117988499D01*
X72201680Y-118025995D01*
X72183208Y-118060554D01*
X72158347Y-118090847D01*
X72128054Y-118115708D01*
X72093495Y-118134180D01*
X72055999Y-118145555D01*
X72010862Y-118150000D01*
X71372138Y-118150000D01*
X71327001Y-118145555D01*
X71289505Y-118134180D01*
X71254946Y-118115708D01*
X71224653Y-118090847D01*
X71199792Y-118060554D01*
X71181320Y-118025995D01*
X71169945Y-117988499D01*
X71165500Y-117943362D01*
X71165500Y-117204638D01*
X71169945Y-117159501D01*
X71181320Y-117122005D01*
X71199792Y-117087446D01*
X71224653Y-117057153D01*
X71254946Y-117032292D01*
X71289505Y-117013820D01*
X71327001Y-117002445D01*
X71372138Y-116998000D01*
X72010862Y-116998000D01*
X72055999Y-117002445D01*
G37*
G36*
X96410174Y-116644965D02*
G01*
X96447867Y-116656399D01*
X96482603Y-116674966D01*
X96513048Y-116699952D01*
X96538034Y-116730397D01*
X96556601Y-116765133D01*
X96568035Y-116802826D01*
X96572500Y-116848161D01*
X96572500Y-117684839D01*
X96568035Y-117730174D01*
X96556601Y-117767867D01*
X96538034Y-117802603D01*
X96513048Y-117833048D01*
X96482603Y-117858034D01*
X96447867Y-117876601D01*
X96410174Y-117888035D01*
X96364839Y-117892500D01*
X95278161Y-117892500D01*
X95232826Y-117888035D01*
X95195133Y-117876601D01*
X95160397Y-117858034D01*
X95129952Y-117833048D01*
X95104966Y-117802603D01*
X95086399Y-117767867D01*
X95074965Y-117730174D01*
X95070500Y-117684839D01*
X95070500Y-116848161D01*
X95074965Y-116802826D01*
X95086399Y-116765133D01*
X95104966Y-116730397D01*
X95129952Y-116699952D01*
X95160397Y-116674966D01*
X95195133Y-116656399D01*
X95232826Y-116644965D01*
X95278161Y-116640500D01*
X96364839Y-116640500D01*
X96410174Y-116644965D01*
G37*
G36*
X92263499Y-116699445D02*
G01*
X92300995Y-116710820D01*
X92335554Y-116729292D01*
X92365847Y-116754153D01*
X92390708Y-116784446D01*
X92409180Y-116819005D01*
X92420555Y-116856501D01*
X92425000Y-116901638D01*
X92425000Y-117540362D01*
X92420555Y-117585499D01*
X92409180Y-117622995D01*
X92390708Y-117657554D01*
X92365847Y-117687847D01*
X92335554Y-117712708D01*
X92300995Y-117731180D01*
X92263499Y-117742555D01*
X92218362Y-117747000D01*
X91479638Y-117747000D01*
X91434501Y-117742555D01*
X91397005Y-117731180D01*
X91362446Y-117712708D01*
X91332153Y-117687847D01*
X91307292Y-117657554D01*
X91288820Y-117622995D01*
X91277445Y-117585499D01*
X91273000Y-117540362D01*
X91273000Y-116901638D01*
X91277445Y-116856501D01*
X91288820Y-116819005D01*
X91307292Y-116784446D01*
X91332153Y-116754153D01*
X91362446Y-116729292D01*
X91397005Y-116710820D01*
X91434501Y-116699445D01*
X91479638Y-116695000D01*
X92218362Y-116695000D01*
X92263499Y-116699445D01*
G37*
G36*
X94013499Y-116699445D02*
G01*
X94050995Y-116710820D01*
X94085554Y-116729292D01*
X94115847Y-116754153D01*
X94140708Y-116784446D01*
X94159180Y-116819005D01*
X94170555Y-116856501D01*
X94175000Y-116901638D01*
X94175000Y-117540362D01*
X94170555Y-117585499D01*
X94159180Y-117622995D01*
X94140708Y-117657554D01*
X94115847Y-117687847D01*
X94085554Y-117712708D01*
X94050995Y-117731180D01*
X94013499Y-117742555D01*
X93968362Y-117747000D01*
X93229638Y-117747000D01*
X93184501Y-117742555D01*
X93147005Y-117731180D01*
X93112446Y-117712708D01*
X93082153Y-117687847D01*
X93057292Y-117657554D01*
X93038820Y-117622995D01*
X93027445Y-117585499D01*
X93023000Y-117540362D01*
X93023000Y-116901638D01*
X93027445Y-116856501D01*
X93038820Y-116819005D01*
X93057292Y-116784446D01*
X93082153Y-116754153D01*
X93112446Y-116729292D01*
X93147005Y-116710820D01*
X93184501Y-116699445D01*
X93229638Y-116695000D01*
X93968362Y-116695000D01*
X94013499Y-116699445D01*
G37*
G36*
X99347000Y-117738000D02*
G01*
X97345000Y-117738000D01*
X97345000Y-116836000D01*
X99347000Y-116836000D01*
X99347000Y-117738000D01*
G37*
G36*
X74800999Y-116445445D02*
G01*
X74838495Y-116456820D01*
X74873054Y-116475292D01*
X74903347Y-116500153D01*
X74928208Y-116530446D01*
X74946680Y-116565005D01*
X74958055Y-116602501D01*
X74962500Y-116647638D01*
X74962500Y-117286362D01*
X74958055Y-117331499D01*
X74946680Y-117368995D01*
X74928208Y-117403554D01*
X74903347Y-117433847D01*
X74873054Y-117458708D01*
X74838495Y-117477180D01*
X74800999Y-117488555D01*
X74755862Y-117493000D01*
X74017138Y-117493000D01*
X73972001Y-117488555D01*
X73934505Y-117477180D01*
X73899946Y-117458708D01*
X73869653Y-117433847D01*
X73844792Y-117403554D01*
X73826320Y-117368995D01*
X73814945Y-117331499D01*
X73810500Y-117286362D01*
X73810500Y-116647638D01*
X73814945Y-116602501D01*
X73826320Y-116565005D01*
X73844792Y-116530446D01*
X73869653Y-116500153D01*
X73899946Y-116475292D01*
X73934505Y-116456820D01*
X73972001Y-116445445D01*
X74017138Y-116441000D01*
X74755862Y-116441000D01*
X74800999Y-116445445D01*
G37*
G36*
X80283499Y-116445445D02*
G01*
X80320995Y-116456820D01*
X80355554Y-116475292D01*
X80385847Y-116500153D01*
X80410708Y-116530446D01*
X80429180Y-116565005D01*
X80440555Y-116602501D01*
X80445000Y-116647638D01*
X80445000Y-117286362D01*
X80440555Y-117331499D01*
X80429180Y-117368995D01*
X80410708Y-117403554D01*
X80385847Y-117433847D01*
X80355554Y-117458708D01*
X80320995Y-117477180D01*
X80283499Y-117488555D01*
X80238362Y-117493000D01*
X79499638Y-117493000D01*
X79454501Y-117488555D01*
X79417005Y-117477180D01*
X79382446Y-117458708D01*
X79352153Y-117433847D01*
X79327292Y-117403554D01*
X79308820Y-117368995D01*
X79297445Y-117331499D01*
X79293000Y-117286362D01*
X79293000Y-116647638D01*
X79297445Y-116602501D01*
X79308820Y-116565005D01*
X79327292Y-116530446D01*
X79352153Y-116500153D01*
X79382446Y-116475292D01*
X79417005Y-116456820D01*
X79454501Y-116445445D01*
X79499638Y-116441000D01*
X80238362Y-116441000D01*
X80283499Y-116445445D01*
G37*
G36*
X76550999Y-116445445D02*
G01*
X76588495Y-116456820D01*
X76623054Y-116475292D01*
X76653347Y-116500153D01*
X76678208Y-116530446D01*
X76696680Y-116565005D01*
X76708055Y-116602501D01*
X76712500Y-116647638D01*
X76712500Y-117286362D01*
X76708055Y-117331499D01*
X76696680Y-117368995D01*
X76678208Y-117403554D01*
X76653347Y-117433847D01*
X76623054Y-117458708D01*
X76588495Y-117477180D01*
X76550999Y-117488555D01*
X76505862Y-117493000D01*
X75767138Y-117493000D01*
X75722001Y-117488555D01*
X75684505Y-117477180D01*
X75649946Y-117458708D01*
X75619653Y-117433847D01*
X75594792Y-117403554D01*
X75576320Y-117368995D01*
X75564945Y-117331499D01*
X75560500Y-117286362D01*
X75560500Y-116647638D01*
X75564945Y-116602501D01*
X75576320Y-116565005D01*
X75594792Y-116530446D01*
X75619653Y-116500153D01*
X75649946Y-116475292D01*
X75684505Y-116456820D01*
X75722001Y-116445445D01*
X75767138Y-116441000D01*
X76505862Y-116441000D01*
X76550999Y-116445445D01*
G37*
G36*
X78533499Y-116445445D02*
G01*
X78570995Y-116456820D01*
X78605554Y-116475292D01*
X78635847Y-116500153D01*
X78660708Y-116530446D01*
X78679180Y-116565005D01*
X78690555Y-116602501D01*
X78695000Y-116647638D01*
X78695000Y-117286362D01*
X78690555Y-117331499D01*
X78679180Y-117368995D01*
X78660708Y-117403554D01*
X78635847Y-117433847D01*
X78605554Y-117458708D01*
X78570995Y-117477180D01*
X78533499Y-117488555D01*
X78488362Y-117493000D01*
X77749638Y-117493000D01*
X77704501Y-117488555D01*
X77667005Y-117477180D01*
X77632446Y-117458708D01*
X77602153Y-117433847D01*
X77577292Y-117403554D01*
X77558820Y-117368995D01*
X77547445Y-117331499D01*
X77543000Y-117286362D01*
X77543000Y-116647638D01*
X77547445Y-116602501D01*
X77558820Y-116565005D01*
X77577292Y-116530446D01*
X77602153Y-116500153D01*
X77632446Y-116475292D01*
X77667005Y-116456820D01*
X77704501Y-116445445D01*
X77749638Y-116441000D01*
X78488362Y-116441000D01*
X78533499Y-116445445D01*
G37*
G36*
X44483499Y-116381945D02*
G01*
X44520995Y-116393320D01*
X44555554Y-116411792D01*
X44585847Y-116436653D01*
X44610708Y-116466946D01*
X44629180Y-116501505D01*
X44640555Y-116539001D01*
X44645000Y-116584138D01*
X44645000Y-117222862D01*
X44640555Y-117267999D01*
X44629180Y-117305495D01*
X44610708Y-117340054D01*
X44585847Y-117370347D01*
X44555554Y-117395208D01*
X44520995Y-117413680D01*
X44483499Y-117425055D01*
X44438362Y-117429500D01*
X43699638Y-117429500D01*
X43654501Y-117425055D01*
X43617005Y-117413680D01*
X43582446Y-117395208D01*
X43552153Y-117370347D01*
X43527292Y-117340054D01*
X43508820Y-117305495D01*
X43497445Y-117267999D01*
X43493000Y-117222862D01*
X43493000Y-116584138D01*
X43497445Y-116539001D01*
X43508820Y-116501505D01*
X43527292Y-116466946D01*
X43552153Y-116436653D01*
X43582446Y-116411792D01*
X43617005Y-116393320D01*
X43654501Y-116381945D01*
X43699638Y-116377500D01*
X44438362Y-116377500D01*
X44483499Y-116381945D01*
G37*
G36*
X40899499Y-116381945D02*
G01*
X40936995Y-116393320D01*
X40971554Y-116411792D01*
X41001847Y-116436653D01*
X41026708Y-116466946D01*
X41045180Y-116501505D01*
X41056555Y-116539001D01*
X41061000Y-116584138D01*
X41061000Y-117222862D01*
X41056555Y-117267999D01*
X41045180Y-117305495D01*
X41026708Y-117340054D01*
X41001847Y-117370347D01*
X40971554Y-117395208D01*
X40936995Y-117413680D01*
X40899499Y-117425055D01*
X40854362Y-117429500D01*
X40115638Y-117429500D01*
X40070501Y-117425055D01*
X40033005Y-117413680D01*
X39998446Y-117395208D01*
X39968153Y-117370347D01*
X39943292Y-117340054D01*
X39924820Y-117305495D01*
X39913445Y-117267999D01*
X39909000Y-117222862D01*
X39909000Y-116584138D01*
X39913445Y-116539001D01*
X39924820Y-116501505D01*
X39943292Y-116466946D01*
X39968153Y-116436653D01*
X39998446Y-116411792D01*
X40033005Y-116393320D01*
X40070501Y-116381945D01*
X40115638Y-116377500D01*
X40854362Y-116377500D01*
X40899499Y-116381945D01*
G37*
G36*
X42733499Y-116381945D02*
G01*
X42770995Y-116393320D01*
X42805554Y-116411792D01*
X42835847Y-116436653D01*
X42860708Y-116466946D01*
X42879180Y-116501505D01*
X42890555Y-116539001D01*
X42895000Y-116584138D01*
X42895000Y-117222862D01*
X42890555Y-117267999D01*
X42879180Y-117305495D01*
X42860708Y-117340054D01*
X42835847Y-117370347D01*
X42805554Y-117395208D01*
X42770995Y-117413680D01*
X42733499Y-117425055D01*
X42688362Y-117429500D01*
X41949638Y-117429500D01*
X41904501Y-117425055D01*
X41867005Y-117413680D01*
X41832446Y-117395208D01*
X41802153Y-117370347D01*
X41777292Y-117340054D01*
X41758820Y-117305495D01*
X41747445Y-117267999D01*
X41743000Y-117222862D01*
X41743000Y-116584138D01*
X41747445Y-116539001D01*
X41758820Y-116501505D01*
X41777292Y-116466946D01*
X41802153Y-116436653D01*
X41832446Y-116411792D01*
X41867005Y-116393320D01*
X41904501Y-116381945D01*
X41949638Y-116377500D01*
X42688362Y-116377500D01*
X42733499Y-116381945D01*
G37*
G36*
X39149499Y-116381945D02*
G01*
X39186995Y-116393320D01*
X39221554Y-116411792D01*
X39251847Y-116436653D01*
X39276708Y-116466946D01*
X39295180Y-116501505D01*
X39306555Y-116539001D01*
X39311000Y-116584138D01*
X39311000Y-117222862D01*
X39306555Y-117267999D01*
X39295180Y-117305495D01*
X39276708Y-117340054D01*
X39251847Y-117370347D01*
X39221554Y-117395208D01*
X39186995Y-117413680D01*
X39149499Y-117425055D01*
X39104362Y-117429500D01*
X38365638Y-117429500D01*
X38320501Y-117425055D01*
X38283005Y-117413680D01*
X38248446Y-117395208D01*
X38218153Y-117370347D01*
X38193292Y-117340054D01*
X38174820Y-117305495D01*
X38163445Y-117267999D01*
X38159000Y-117222862D01*
X38159000Y-116584138D01*
X38163445Y-116539001D01*
X38174820Y-116501505D01*
X38193292Y-116466946D01*
X38218153Y-116436653D01*
X38248446Y-116411792D01*
X38283005Y-116393320D01*
X38320501Y-116381945D01*
X38365638Y-116377500D01*
X39104362Y-116377500D01*
X39149499Y-116381945D01*
G37*
G36*
X62001500Y-116865500D02*
G01*
X60299500Y-116865500D01*
X60299500Y-115163500D01*
X62001500Y-115163500D01*
X62001500Y-116865500D01*
G37*
G36*
X58858728Y-115196203D02*
G01*
X59013600Y-115260353D01*
X59152981Y-115353485D01*
X59271515Y-115472019D01*
X59364647Y-115611400D01*
X59428797Y-115766272D01*
X59461500Y-115930684D01*
X59461500Y-116098316D01*
X59428797Y-116262728D01*
X59364647Y-116417600D01*
X59271515Y-116556981D01*
X59152981Y-116675515D01*
X59013600Y-116768647D01*
X58858728Y-116832797D01*
X58694316Y-116865500D01*
X58526684Y-116865500D01*
X58362272Y-116832797D01*
X58207400Y-116768647D01*
X58068019Y-116675515D01*
X57949485Y-116556981D01*
X57856353Y-116417600D01*
X57792203Y-116262728D01*
X57759500Y-116098316D01*
X57759500Y-115930684D01*
X57792203Y-115766272D01*
X57856353Y-115611400D01*
X57949485Y-115472019D01*
X58068019Y-115353485D01*
X58207400Y-115260353D01*
X58362272Y-115196203D01*
X58526684Y-115163500D01*
X58694316Y-115163500D01*
X58858728Y-115196203D01*
G37*
G36*
X66478728Y-115196203D02*
G01*
X66633600Y-115260353D01*
X66772981Y-115353485D01*
X66891515Y-115472019D01*
X66984647Y-115611400D01*
X67048797Y-115766272D01*
X67081500Y-115930684D01*
X67081500Y-116098316D01*
X67048797Y-116262728D01*
X66984647Y-116417600D01*
X66891515Y-116556981D01*
X66772981Y-116675515D01*
X66633600Y-116768647D01*
X66478728Y-116832797D01*
X66314316Y-116865500D01*
X66146684Y-116865500D01*
X65982272Y-116832797D01*
X65827400Y-116768647D01*
X65688019Y-116675515D01*
X65569485Y-116556981D01*
X65476353Y-116417600D01*
X65412203Y-116262728D01*
X65379500Y-116098316D01*
X65379500Y-115930684D01*
X65412203Y-115766272D01*
X65476353Y-115611400D01*
X65569485Y-115472019D01*
X65688019Y-115353485D01*
X65827400Y-115260353D01*
X65982272Y-115196203D01*
X66146684Y-115163500D01*
X66314316Y-115163500D01*
X66478728Y-115196203D01*
G37*
G36*
X69018728Y-115196203D02*
G01*
X69173600Y-115260353D01*
X69312981Y-115353485D01*
X69431515Y-115472019D01*
X69524647Y-115611400D01*
X69588797Y-115766272D01*
X69621500Y-115930684D01*
X69621500Y-116098316D01*
X69588797Y-116262728D01*
X69524647Y-116417600D01*
X69431515Y-116556981D01*
X69312981Y-116675515D01*
X69173600Y-116768647D01*
X69018728Y-116832797D01*
X68854316Y-116865500D01*
X68686684Y-116865500D01*
X68522272Y-116832797D01*
X68367400Y-116768647D01*
X68228019Y-116675515D01*
X68109485Y-116556981D01*
X68016353Y-116417600D01*
X67952203Y-116262728D01*
X67919500Y-116098316D01*
X67919500Y-115930684D01*
X67952203Y-115766272D01*
X68016353Y-115611400D01*
X68109485Y-115472019D01*
X68228019Y-115353485D01*
X68367400Y-115260353D01*
X68522272Y-115196203D01*
X68686684Y-115163500D01*
X68854316Y-115163500D01*
X69018728Y-115196203D01*
G37*
G36*
X72055999Y-115252445D02*
G01*
X72093495Y-115263820D01*
X72128054Y-115282292D01*
X72158347Y-115307153D01*
X72183208Y-115337446D01*
X72201680Y-115372005D01*
X72213055Y-115409501D01*
X72217500Y-115454638D01*
X72217500Y-116193362D01*
X72213055Y-116238499D01*
X72201680Y-116275995D01*
X72183208Y-116310554D01*
X72158347Y-116340847D01*
X72128054Y-116365708D01*
X72093495Y-116384180D01*
X72055999Y-116395555D01*
X72010862Y-116400000D01*
X71372138Y-116400000D01*
X71327001Y-116395555D01*
X71289505Y-116384180D01*
X71254946Y-116365708D01*
X71224653Y-116340847D01*
X71199792Y-116310554D01*
X71181320Y-116275995D01*
X71169945Y-116238499D01*
X71165500Y-116193362D01*
X71165500Y-115454638D01*
X71169945Y-115409501D01*
X71181320Y-115372005D01*
X71199792Y-115337446D01*
X71224653Y-115307153D01*
X71254946Y-115282292D01*
X71289505Y-115263820D01*
X71327001Y-115252445D01*
X71372138Y-115248000D01*
X72010862Y-115248000D01*
X72055999Y-115252445D01*
G37*
G36*
X48483999Y-115048445D02*
G01*
X48521495Y-115059820D01*
X48556054Y-115078292D01*
X48586347Y-115103153D01*
X48611208Y-115133446D01*
X48629680Y-115168005D01*
X48641055Y-115205501D01*
X48645500Y-115250638D01*
X48645500Y-115889362D01*
X48641055Y-115934499D01*
X48629680Y-115971995D01*
X48611208Y-116006554D01*
X48586347Y-116036847D01*
X48556054Y-116061708D01*
X48521495Y-116080180D01*
X48483999Y-116091555D01*
X48438862Y-116096000D01*
X47700138Y-116096000D01*
X47655001Y-116091555D01*
X47617505Y-116080180D01*
X47582946Y-116061708D01*
X47552653Y-116036847D01*
X47527792Y-116006554D01*
X47509320Y-115971995D01*
X47497945Y-115934499D01*
X47493500Y-115889362D01*
X47493500Y-115250638D01*
X47497945Y-115205501D01*
X47509320Y-115168005D01*
X47527792Y-115133446D01*
X47552653Y-115103153D01*
X47582946Y-115078292D01*
X47617505Y-115059820D01*
X47655001Y-115048445D01*
X47700138Y-115044000D01*
X48438862Y-115044000D01*
X48483999Y-115048445D01*
G37*
G36*
X46733999Y-115048445D02*
G01*
X46771495Y-115059820D01*
X46806054Y-115078292D01*
X46836347Y-115103153D01*
X46861208Y-115133446D01*
X46879680Y-115168005D01*
X46891055Y-115205501D01*
X46895500Y-115250638D01*
X46895500Y-115889362D01*
X46891055Y-115934499D01*
X46879680Y-115971995D01*
X46861208Y-116006554D01*
X46836347Y-116036847D01*
X46806054Y-116061708D01*
X46771495Y-116080180D01*
X46733999Y-116091555D01*
X46688862Y-116096000D01*
X45950138Y-116096000D01*
X45905001Y-116091555D01*
X45867505Y-116080180D01*
X45832946Y-116061708D01*
X45802653Y-116036847D01*
X45777792Y-116006554D01*
X45759320Y-115971995D01*
X45747945Y-115934499D01*
X45743500Y-115889362D01*
X45743500Y-115250638D01*
X45747945Y-115205501D01*
X45759320Y-115168005D01*
X45777792Y-115133446D01*
X45802653Y-115103153D01*
X45832946Y-115078292D01*
X45867505Y-115059820D01*
X45905001Y-115048445D01*
X45950138Y-115044000D01*
X46688862Y-115044000D01*
X46733999Y-115048445D01*
G37*
G36*
X56307999Y-114871445D02*
G01*
X56345495Y-114882820D01*
X56380054Y-114901292D01*
X56410347Y-114926153D01*
X56435208Y-114956446D01*
X56453680Y-114991005D01*
X56465055Y-115028501D01*
X56469500Y-115073638D01*
X56469500Y-115812362D01*
X56465055Y-115857499D01*
X56453680Y-115894995D01*
X56435208Y-115929554D01*
X56410347Y-115959847D01*
X56380054Y-115984708D01*
X56345495Y-116003180D01*
X56307999Y-116014555D01*
X56262862Y-116019000D01*
X55624138Y-116019000D01*
X55579001Y-116014555D01*
X55541505Y-116003180D01*
X55506946Y-115984708D01*
X55476653Y-115959847D01*
X55451792Y-115929554D01*
X55433320Y-115894995D01*
X55421945Y-115857499D01*
X55417500Y-115812362D01*
X55417500Y-115073638D01*
X55421945Y-115028501D01*
X55433320Y-114991005D01*
X55451792Y-114956446D01*
X55476653Y-114926153D01*
X55506946Y-114901292D01*
X55541505Y-114882820D01*
X55579001Y-114871445D01*
X55624138Y-114867000D01*
X56262862Y-114867000D01*
X56307999Y-114871445D01*
G37*
G36*
X66478728Y-112656203D02*
G01*
X66633600Y-112720353D01*
X66772981Y-112813485D01*
X66891515Y-112932019D01*
X66984647Y-113071400D01*
X67048797Y-113226272D01*
X67081500Y-113390684D01*
X67081500Y-113558316D01*
X67048797Y-113722728D01*
X66984647Y-113877600D01*
X66891515Y-114016981D01*
X66772981Y-114135515D01*
X66633600Y-114228647D01*
X66478728Y-114292797D01*
X66314316Y-114325500D01*
X66146684Y-114325500D01*
X65982272Y-114292797D01*
X65827400Y-114228647D01*
X65688019Y-114135515D01*
X65569485Y-114016981D01*
X65476353Y-113877600D01*
X65412203Y-113722728D01*
X65379500Y-113558316D01*
X65379500Y-113390684D01*
X65412203Y-113226272D01*
X65476353Y-113071400D01*
X65569485Y-112932019D01*
X65688019Y-112813485D01*
X65827400Y-112720353D01*
X65982272Y-112656203D01*
X66146684Y-112623500D01*
X66314316Y-112623500D01*
X66478728Y-112656203D01*
G37*
G36*
X59461500Y-114325500D02*
G01*
X57759500Y-114325500D01*
X57759500Y-112623500D01*
X59461500Y-112623500D01*
X59461500Y-114325500D01*
G37*
G36*
X56307999Y-113121445D02*
G01*
X56345495Y-113132820D01*
X56380054Y-113151292D01*
X56410347Y-113176153D01*
X56435208Y-113206446D01*
X56453680Y-113241005D01*
X56465055Y-113278501D01*
X56469500Y-113323638D01*
X56469500Y-114062362D01*
X56465055Y-114107499D01*
X56453680Y-114144995D01*
X56435208Y-114179554D01*
X56410347Y-114209847D01*
X56380054Y-114234708D01*
X56345495Y-114253180D01*
X56307999Y-114264555D01*
X56262862Y-114269000D01*
X55624138Y-114269000D01*
X55579001Y-114264555D01*
X55541505Y-114253180D01*
X55506946Y-114234708D01*
X55476653Y-114209847D01*
X55451792Y-114179554D01*
X55433320Y-114144995D01*
X55421945Y-114107499D01*
X55417500Y-114062362D01*
X55417500Y-113323638D01*
X55421945Y-113278501D01*
X55433320Y-113241005D01*
X55451792Y-113206446D01*
X55476653Y-113176153D01*
X55506946Y-113151292D01*
X55541505Y-113132820D01*
X55579001Y-113121445D01*
X55624138Y-113117000D01*
X56262862Y-113117000D01*
X56307999Y-113121445D01*
G37*
G36*
X120774999Y-112952945D02*
G01*
X120812495Y-112964320D01*
X120847054Y-112982792D01*
X120877347Y-113007653D01*
X120902208Y-113037946D01*
X120920680Y-113072505D01*
X120932055Y-113110001D01*
X120936500Y-113155138D01*
X120936500Y-113793862D01*
X120932055Y-113838999D01*
X120920680Y-113876495D01*
X120902208Y-113911054D01*
X120877347Y-113941347D01*
X120847054Y-113966208D01*
X120812495Y-113984680D01*
X120774999Y-113996055D01*
X120729862Y-114000500D01*
X119991138Y-114000500D01*
X119946001Y-113996055D01*
X119908505Y-113984680D01*
X119873946Y-113966208D01*
X119843653Y-113941347D01*
X119818792Y-113911054D01*
X119800320Y-113876495D01*
X119788945Y-113838999D01*
X119784500Y-113793862D01*
X119784500Y-113155138D01*
X119788945Y-113110001D01*
X119800320Y-113072505D01*
X119818792Y-113037946D01*
X119843653Y-113007653D01*
X119873946Y-112982792D01*
X119908505Y-112964320D01*
X119946001Y-112952945D01*
X119991138Y-112948500D01*
X120729862Y-112948500D01*
X120774999Y-112952945D01*
G37*
G36*
X122524999Y-112952945D02*
G01*
X122562495Y-112964320D01*
X122597054Y-112982792D01*
X122627347Y-113007653D01*
X122652208Y-113037946D01*
X122670680Y-113072505D01*
X122682055Y-113110001D01*
X122686500Y-113155138D01*
X122686500Y-113793862D01*
X122682055Y-113838999D01*
X122670680Y-113876495D01*
X122652208Y-113911054D01*
X122627347Y-113941347D01*
X122597054Y-113966208D01*
X122562495Y-113984680D01*
X122524999Y-113996055D01*
X122479862Y-114000500D01*
X121741138Y-114000500D01*
X121696001Y-113996055D01*
X121658505Y-113984680D01*
X121623946Y-113966208D01*
X121593653Y-113941347D01*
X121568792Y-113911054D01*
X121550320Y-113876495D01*
X121538945Y-113838999D01*
X121534500Y-113793862D01*
X121534500Y-113155138D01*
X121538945Y-113110001D01*
X121550320Y-113072505D01*
X121568792Y-113037946D01*
X121593653Y-113007653D01*
X121623946Y-112982792D01*
X121658505Y-112964320D01*
X121696001Y-112952945D01*
X121741138Y-112948500D01*
X122479862Y-112948500D01*
X122524999Y-112952945D01*
G37*
G36*
X78469499Y-112331445D02*
G01*
X78506995Y-112342820D01*
X78541554Y-112361292D01*
X78571847Y-112386153D01*
X78596708Y-112416446D01*
X78615180Y-112451005D01*
X78626555Y-112488501D01*
X78631000Y-112533638D01*
X78631000Y-113272362D01*
X78626555Y-113317499D01*
X78615180Y-113354995D01*
X78596708Y-113389554D01*
X78571847Y-113419847D01*
X78541554Y-113444708D01*
X78506995Y-113463180D01*
X78469499Y-113474555D01*
X78424362Y-113479000D01*
X77785638Y-113479000D01*
X77740501Y-113474555D01*
X77703005Y-113463180D01*
X77668446Y-113444708D01*
X77638153Y-113419847D01*
X77613292Y-113389554D01*
X77594820Y-113354995D01*
X77583445Y-113317499D01*
X77579000Y-113272362D01*
X77579000Y-112533638D01*
X77583445Y-112488501D01*
X77594820Y-112451005D01*
X77613292Y-112416446D01*
X77638153Y-112386153D01*
X77668446Y-112361292D01*
X77703005Y-112342820D01*
X77740501Y-112331445D01*
X77785638Y-112327000D01*
X78424362Y-112327000D01*
X78469499Y-112331445D01*
G37*
G36*
X69071499Y-111795445D02*
G01*
X69108995Y-111806820D01*
X69143554Y-111825292D01*
X69173847Y-111850153D01*
X69198708Y-111880446D01*
X69217180Y-111915005D01*
X69228555Y-111952501D01*
X69233000Y-111997638D01*
X69233000Y-112736362D01*
X69228555Y-112781499D01*
X69217180Y-112818995D01*
X69198708Y-112853554D01*
X69173847Y-112883847D01*
X69143554Y-112908708D01*
X69108995Y-112927180D01*
X69071499Y-112938555D01*
X69026362Y-112943000D01*
X68387638Y-112943000D01*
X68342501Y-112938555D01*
X68305005Y-112927180D01*
X68270446Y-112908708D01*
X68240153Y-112883847D01*
X68215292Y-112853554D01*
X68196820Y-112818995D01*
X68185445Y-112781499D01*
X68181000Y-112736362D01*
X68181000Y-111997638D01*
X68185445Y-111952501D01*
X68196820Y-111915005D01*
X68215292Y-111880446D01*
X68240153Y-111850153D01*
X68270446Y-111825292D01*
X68305005Y-111806820D01*
X68342501Y-111795445D01*
X68387638Y-111791000D01*
X69026362Y-111791000D01*
X69071499Y-111795445D01*
G37*
G36*
X104444012Y-110927427D02*
G01*
X104593312Y-110957124D01*
X104757284Y-111025044D01*
X104904854Y-111123647D01*
X105030353Y-111249146D01*
X105128956Y-111396716D01*
X105196876Y-111560688D01*
X105226372Y-111708980D01*
X105230355Y-111729000D01*
X105231500Y-111734759D01*
X105231500Y-111912241D01*
X105196876Y-112086312D01*
X105128956Y-112250284D01*
X105030353Y-112397854D01*
X104904854Y-112523353D01*
X104757284Y-112621956D01*
X104593312Y-112689876D01*
X104444012Y-112719573D01*
X104419242Y-112724500D01*
X104241758Y-112724500D01*
X104216988Y-112719573D01*
X104067688Y-112689876D01*
X103903716Y-112621956D01*
X103756146Y-112523353D01*
X103630647Y-112397854D01*
X103532044Y-112250284D01*
X103464124Y-112086312D01*
X103429500Y-111912241D01*
X103429500Y-111734759D01*
X103430646Y-111729000D01*
X103434628Y-111708980D01*
X103464124Y-111560688D01*
X103532044Y-111396716D01*
X103630647Y-111249146D01*
X103756146Y-111123647D01*
X103903716Y-111025044D01*
X104067688Y-110957124D01*
X104216988Y-110927427D01*
X104241758Y-110922500D01*
X104419242Y-110922500D01*
X104444012Y-110927427D01*
G37*
G36*
X100151500Y-112724500D02*
G01*
X98349500Y-112724500D01*
X98349500Y-110922500D01*
X100151500Y-110922500D01*
X100151500Y-112724500D01*
G37*
G36*
X101904012Y-110927427D02*
G01*
X102053312Y-110957124D01*
X102217284Y-111025044D01*
X102364854Y-111123647D01*
X102490353Y-111249146D01*
X102588956Y-111396716D01*
X102656876Y-111560688D01*
X102686372Y-111708980D01*
X102690355Y-111729000D01*
X102691500Y-111734759D01*
X102691500Y-111912241D01*
X102656876Y-112086312D01*
X102588956Y-112250284D01*
X102490353Y-112397854D01*
X102364854Y-112523353D01*
X102217284Y-112621956D01*
X102053312Y-112689876D01*
X101904012Y-112719573D01*
X101879242Y-112724500D01*
X101701758Y-112724500D01*
X101676988Y-112719573D01*
X101527688Y-112689876D01*
X101363716Y-112621956D01*
X101216146Y-112523353D01*
X101090647Y-112397854D01*
X100992044Y-112250284D01*
X100924124Y-112086312D01*
X100889500Y-111912241D01*
X100889500Y-111734759D01*
X100890646Y-111729000D01*
X100894628Y-111708980D01*
X100924124Y-111560688D01*
X100992044Y-111396716D01*
X101090647Y-111249146D01*
X101216146Y-111123647D01*
X101363716Y-111025044D01*
X101527688Y-110957124D01*
X101676988Y-110927427D01*
X101701758Y-110922500D01*
X101879242Y-110922500D01*
X101904012Y-110927427D01*
G37*
G36*
X106984012Y-110927427D02*
G01*
X107133312Y-110957124D01*
X107297284Y-111025044D01*
X107444854Y-111123647D01*
X107570353Y-111249146D01*
X107668956Y-111396716D01*
X107736876Y-111560688D01*
X107766372Y-111708980D01*
X107770355Y-111729000D01*
X107771500Y-111734759D01*
X107771500Y-111912241D01*
X107736876Y-112086312D01*
X107668956Y-112250284D01*
X107570353Y-112397854D01*
X107444854Y-112523353D01*
X107297284Y-112621956D01*
X107133312Y-112689876D01*
X106984012Y-112719573D01*
X106959242Y-112724500D01*
X106781758Y-112724500D01*
X106756988Y-112719573D01*
X106607688Y-112689876D01*
X106443716Y-112621956D01*
X106296146Y-112523353D01*
X106170647Y-112397854D01*
X106072044Y-112250284D01*
X106004124Y-112086312D01*
X105969500Y-111912241D01*
X105969500Y-111734759D01*
X105970646Y-111729000D01*
X105974628Y-111708980D01*
X106004124Y-111560688D01*
X106072044Y-111396716D01*
X106170647Y-111249146D01*
X106296146Y-111123647D01*
X106443716Y-111025044D01*
X106607688Y-110957124D01*
X106756988Y-110927427D01*
X106781758Y-110922500D01*
X106959242Y-110922500D01*
X106984012Y-110927427D01*
G37*
G36*
X93088999Y-111428945D02*
G01*
X93126495Y-111440320D01*
X93161054Y-111458792D01*
X93191347Y-111483653D01*
X93216208Y-111513946D01*
X93234680Y-111548505D01*
X93246055Y-111586001D01*
X93250500Y-111631138D01*
X93250500Y-112269862D01*
X93246055Y-112314999D01*
X93234680Y-112352495D01*
X93216208Y-112387054D01*
X93191347Y-112417347D01*
X93161054Y-112442208D01*
X93126495Y-112460680D01*
X93088999Y-112472055D01*
X93043862Y-112476500D01*
X92305138Y-112476500D01*
X92260001Y-112472055D01*
X92222505Y-112460680D01*
X92187946Y-112442208D01*
X92157653Y-112417347D01*
X92132792Y-112387054D01*
X92114320Y-112352495D01*
X92102945Y-112314999D01*
X92098500Y-112269862D01*
X92098500Y-111631138D01*
X92102945Y-111586001D01*
X92114320Y-111548505D01*
X92132792Y-111513946D01*
X92157653Y-111483653D01*
X92187946Y-111458792D01*
X92222505Y-111440320D01*
X92260001Y-111428945D01*
X92305138Y-111424500D01*
X93043862Y-111424500D01*
X93088999Y-111428945D01*
G37*
G36*
X94838999Y-111428945D02*
G01*
X94876495Y-111440320D01*
X94911054Y-111458792D01*
X94941347Y-111483653D01*
X94966208Y-111513946D01*
X94984680Y-111548505D01*
X94996055Y-111586001D01*
X95000500Y-111631138D01*
X95000500Y-112269862D01*
X94996055Y-112314999D01*
X94984680Y-112352495D01*
X94966208Y-112387054D01*
X94941347Y-112417347D01*
X94911054Y-112442208D01*
X94876495Y-112460680D01*
X94838999Y-112472055D01*
X94793862Y-112476500D01*
X94055138Y-112476500D01*
X94010001Y-112472055D01*
X93972505Y-112460680D01*
X93937946Y-112442208D01*
X93907653Y-112417347D01*
X93882792Y-112387054D01*
X93864320Y-112352495D01*
X93852945Y-112314999D01*
X93848500Y-112269862D01*
X93848500Y-111631138D01*
X93852945Y-111586001D01*
X93864320Y-111548505D01*
X93882792Y-111513946D01*
X93907653Y-111483653D01*
X93937946Y-111458792D01*
X93972505Y-111440320D01*
X94010001Y-111428945D01*
X94055138Y-111424500D01*
X94793862Y-111424500D01*
X94838999Y-111428945D01*
G37*
G36*
X78469499Y-110581445D02*
G01*
X78506995Y-110592820D01*
X78541554Y-110611292D01*
X78571847Y-110636153D01*
X78596708Y-110666446D01*
X78615180Y-110701005D01*
X78626555Y-110738501D01*
X78631000Y-110783638D01*
X78631000Y-111522362D01*
X78626555Y-111567499D01*
X78615180Y-111604995D01*
X78596708Y-111639554D01*
X78571847Y-111669847D01*
X78541554Y-111694708D01*
X78506995Y-111713180D01*
X78469499Y-111724555D01*
X78424362Y-111729000D01*
X77785638Y-111729000D01*
X77740501Y-111724555D01*
X77703005Y-111713180D01*
X77668446Y-111694708D01*
X77638153Y-111669847D01*
X77613292Y-111639554D01*
X77594820Y-111604995D01*
X77583445Y-111567499D01*
X77579000Y-111522362D01*
X77579000Y-110783638D01*
X77583445Y-110738501D01*
X77594820Y-110701005D01*
X77613292Y-110666446D01*
X77638153Y-110636153D01*
X77668446Y-110611292D01*
X77703005Y-110592820D01*
X77740501Y-110581445D01*
X77785638Y-110577000D01*
X78424362Y-110577000D01*
X78469499Y-110581445D01*
G37*
G36*
X123914000Y-111722000D02*
G01*
X122212000Y-111722000D01*
X122212000Y-110020000D01*
X123914000Y-110020000D01*
X123914000Y-111722000D01*
G37*
G36*
X119811228Y-110052703D02*
G01*
X119966100Y-110116853D01*
X120105481Y-110209985D01*
X120224015Y-110328519D01*
X120317147Y-110467900D01*
X120381297Y-110622772D01*
X120414000Y-110787184D01*
X120414000Y-110954816D01*
X120381297Y-111119228D01*
X120317147Y-111274100D01*
X120224015Y-111413481D01*
X120105481Y-111532015D01*
X119966100Y-111625147D01*
X119811228Y-111689297D01*
X119646816Y-111722000D01*
X119479184Y-111722000D01*
X119314772Y-111689297D01*
X119159900Y-111625147D01*
X119020519Y-111532015D01*
X118901985Y-111413481D01*
X118808853Y-111274100D01*
X118744703Y-111119228D01*
X118712000Y-110954816D01*
X118712000Y-110787184D01*
X118744703Y-110622772D01*
X118808853Y-110467900D01*
X118901985Y-110328519D01*
X119020519Y-110209985D01*
X119159900Y-110116853D01*
X119314772Y-110052703D01*
X119479184Y-110020000D01*
X119646816Y-110020000D01*
X119811228Y-110052703D01*
G37*
G36*
X69071499Y-110045445D02*
G01*
X69108995Y-110056820D01*
X69143554Y-110075292D01*
X69173847Y-110100153D01*
X69198708Y-110130446D01*
X69217180Y-110165005D01*
X69228555Y-110202501D01*
X69233000Y-110247638D01*
X69233000Y-110986362D01*
X69228555Y-111031499D01*
X69217180Y-111068995D01*
X69198708Y-111103554D01*
X69173847Y-111133847D01*
X69143554Y-111158708D01*
X69108995Y-111177180D01*
X69071499Y-111188555D01*
X69026362Y-111193000D01*
X68387638Y-111193000D01*
X68342501Y-111188555D01*
X68305005Y-111177180D01*
X68270446Y-111158708D01*
X68240153Y-111133847D01*
X68215292Y-111103554D01*
X68196820Y-111068995D01*
X68185445Y-111031499D01*
X68181000Y-110986362D01*
X68181000Y-110247638D01*
X68185445Y-110202501D01*
X68196820Y-110165005D01*
X68215292Y-110130446D01*
X68240153Y-110100153D01*
X68270446Y-110075292D01*
X68305005Y-110056820D01*
X68342501Y-110045445D01*
X68387638Y-110041000D01*
X69026362Y-110041000D01*
X69071499Y-110045445D01*
G37*
G36*
X66644999Y-110031945D02*
G01*
X66682495Y-110043320D01*
X66717054Y-110061792D01*
X66747347Y-110086653D01*
X66772208Y-110116946D01*
X66790680Y-110151505D01*
X66802055Y-110189001D01*
X66806500Y-110234138D01*
X66806500Y-110872862D01*
X66802055Y-110917999D01*
X66790680Y-110955495D01*
X66772208Y-110990054D01*
X66747347Y-111020347D01*
X66717054Y-111045208D01*
X66682495Y-111063680D01*
X66644999Y-111075055D01*
X66599862Y-111079500D01*
X65861138Y-111079500D01*
X65816001Y-111075055D01*
X65778505Y-111063680D01*
X65743946Y-111045208D01*
X65713653Y-111020347D01*
X65688792Y-110990054D01*
X65670320Y-110955495D01*
X65658945Y-110917999D01*
X65654500Y-110872862D01*
X65654500Y-110234138D01*
X65658945Y-110189001D01*
X65670320Y-110151505D01*
X65688792Y-110116946D01*
X65713653Y-110086653D01*
X65743946Y-110061792D01*
X65778505Y-110043320D01*
X65816001Y-110031945D01*
X65861138Y-110027500D01*
X66599862Y-110027500D01*
X66644999Y-110031945D01*
G37*
G36*
X64894999Y-110031945D02*
G01*
X64932495Y-110043320D01*
X64967054Y-110061792D01*
X64997347Y-110086653D01*
X65022208Y-110116946D01*
X65040680Y-110151505D01*
X65052055Y-110189001D01*
X65056500Y-110234138D01*
X65056500Y-110872862D01*
X65052055Y-110917999D01*
X65040680Y-110955495D01*
X65022208Y-110990054D01*
X64997347Y-111020347D01*
X64967054Y-111045208D01*
X64932495Y-111063680D01*
X64894999Y-111075055D01*
X64849862Y-111079500D01*
X64111138Y-111079500D01*
X64066001Y-111075055D01*
X64028505Y-111063680D01*
X63993946Y-111045208D01*
X63963653Y-111020347D01*
X63938792Y-110990054D01*
X63920320Y-110955495D01*
X63908945Y-110917999D01*
X63904500Y-110872862D01*
X63904500Y-110234138D01*
X63908945Y-110189001D01*
X63920320Y-110151505D01*
X63938792Y-110116946D01*
X63963653Y-110086653D01*
X63993946Y-110061792D01*
X64028505Y-110043320D01*
X64066001Y-110031945D01*
X64111138Y-110027500D01*
X64849862Y-110027500D01*
X64894999Y-110031945D01*
G37*
G36*
X114001999Y-109079445D02*
G01*
X114039495Y-109090820D01*
X114074054Y-109109292D01*
X114104347Y-109134153D01*
X114129208Y-109164446D01*
X114147680Y-109199005D01*
X114159055Y-109236501D01*
X114163500Y-109281638D01*
X114163500Y-109920362D01*
X114159055Y-109965499D01*
X114147680Y-110002995D01*
X114129208Y-110037554D01*
X114104347Y-110067847D01*
X114074054Y-110092708D01*
X114039495Y-110111180D01*
X114001999Y-110122555D01*
X113956862Y-110127000D01*
X113218138Y-110127000D01*
X113173001Y-110122555D01*
X113135505Y-110111180D01*
X113100946Y-110092708D01*
X113070653Y-110067847D01*
X113045792Y-110037554D01*
X113027320Y-110002995D01*
X113015945Y-109965499D01*
X113011500Y-109920362D01*
X113011500Y-109281638D01*
X113015945Y-109236501D01*
X113027320Y-109199005D01*
X113045792Y-109164446D01*
X113070653Y-109134153D01*
X113100946Y-109109292D01*
X113135505Y-109090820D01*
X113173001Y-109079445D01*
X113218138Y-109075000D01*
X113956862Y-109075000D01*
X114001999Y-109079445D01*
G37*
G36*
X112251999Y-109079445D02*
G01*
X112289495Y-109090820D01*
X112324054Y-109109292D01*
X112354347Y-109134153D01*
X112379208Y-109164446D01*
X112397680Y-109199005D01*
X112409055Y-109236501D01*
X112413500Y-109281638D01*
X112413500Y-109920362D01*
X112409055Y-109965499D01*
X112397680Y-110002995D01*
X112379208Y-110037554D01*
X112354347Y-110067847D01*
X112324054Y-110092708D01*
X112289495Y-110111180D01*
X112251999Y-110122555D01*
X112206862Y-110127000D01*
X111468138Y-110127000D01*
X111423001Y-110122555D01*
X111385505Y-110111180D01*
X111350946Y-110092708D01*
X111320653Y-110067847D01*
X111295792Y-110037554D01*
X111277320Y-110002995D01*
X111265945Y-109965499D01*
X111261500Y-109920362D01*
X111261500Y-109281638D01*
X111265945Y-109236501D01*
X111277320Y-109199005D01*
X111295792Y-109164446D01*
X111320653Y-109134153D01*
X111350946Y-109109292D01*
X111385505Y-109090820D01*
X111423001Y-109079445D01*
X111468138Y-109075000D01*
X112206862Y-109075000D01*
X112251999Y-109079445D01*
G37*
G36*
X91299512Y-107434927D02*
G01*
X91448812Y-107464624D01*
X91612784Y-107532544D01*
X91760354Y-107631147D01*
X91885853Y-107756646D01*
X91984456Y-107904216D01*
X92052376Y-108068188D01*
X92087000Y-108242259D01*
X92087000Y-108419741D01*
X92052376Y-108593812D01*
X91984456Y-108757784D01*
X91885853Y-108905354D01*
X91760354Y-109030853D01*
X91612784Y-109129456D01*
X91448812Y-109197376D01*
X91299512Y-109227073D01*
X91274742Y-109232000D01*
X91097258Y-109232000D01*
X91072488Y-109227073D01*
X90923188Y-109197376D01*
X90759216Y-109129456D01*
X90611646Y-109030853D01*
X90486147Y-108905354D01*
X90387544Y-108757784D01*
X90319624Y-108593812D01*
X90285000Y-108419741D01*
X90285000Y-108242259D01*
X90319624Y-108068188D01*
X90387544Y-107904216D01*
X90486147Y-107756646D01*
X90611646Y-107631147D01*
X90759216Y-107532544D01*
X90923188Y-107464624D01*
X91072488Y-107434927D01*
X91097258Y-107430000D01*
X91274742Y-107430000D01*
X91299512Y-107434927D01*
G37*
G36*
X86219512Y-107434927D02*
G01*
X86368812Y-107464624D01*
X86532784Y-107532544D01*
X86680354Y-107631147D01*
X86805853Y-107756646D01*
X86904456Y-107904216D01*
X86972376Y-108068188D01*
X87007000Y-108242259D01*
X87007000Y-108419741D01*
X86972376Y-108593812D01*
X86904456Y-108757784D01*
X86805853Y-108905354D01*
X86680354Y-109030853D01*
X86532784Y-109129456D01*
X86368812Y-109197376D01*
X86219512Y-109227073D01*
X86194742Y-109232000D01*
X86017258Y-109232000D01*
X85992488Y-109227073D01*
X85843188Y-109197376D01*
X85679216Y-109129456D01*
X85531646Y-109030853D01*
X85406147Y-108905354D01*
X85307544Y-108757784D01*
X85239624Y-108593812D01*
X85205000Y-108419741D01*
X85205000Y-108242259D01*
X85239624Y-108068188D01*
X85307544Y-107904216D01*
X85406147Y-107756646D01*
X85531646Y-107631147D01*
X85679216Y-107532544D01*
X85843188Y-107464624D01*
X85992488Y-107434927D01*
X86017258Y-107430000D01*
X86194742Y-107430000D01*
X86219512Y-107434927D01*
G37*
G36*
X83679512Y-107434927D02*
G01*
X83828812Y-107464624D01*
X83992784Y-107532544D01*
X84140354Y-107631147D01*
X84265853Y-107756646D01*
X84364456Y-107904216D01*
X84432376Y-108068188D01*
X84467000Y-108242259D01*
X84467000Y-108419741D01*
X84432376Y-108593812D01*
X84364456Y-108757784D01*
X84265853Y-108905354D01*
X84140354Y-109030853D01*
X83992784Y-109129456D01*
X83828812Y-109197376D01*
X83679512Y-109227073D01*
X83654742Y-109232000D01*
X83477258Y-109232000D01*
X83452488Y-109227073D01*
X83303188Y-109197376D01*
X83139216Y-109129456D01*
X82991646Y-109030853D01*
X82866147Y-108905354D01*
X82767544Y-108757784D01*
X82699624Y-108593812D01*
X82665000Y-108419741D01*
X82665000Y-108242259D01*
X82699624Y-108068188D01*
X82767544Y-107904216D01*
X82866147Y-107756646D01*
X82991646Y-107631147D01*
X83139216Y-107532544D01*
X83303188Y-107464624D01*
X83452488Y-107434927D01*
X83477258Y-107430000D01*
X83654742Y-107430000D01*
X83679512Y-107434927D01*
G37*
G36*
X88759512Y-107434927D02*
G01*
X88908812Y-107464624D01*
X89072784Y-107532544D01*
X89220354Y-107631147D01*
X89345853Y-107756646D01*
X89444456Y-107904216D01*
X89512376Y-108068188D01*
X89547000Y-108242259D01*
X89547000Y-108419741D01*
X89512376Y-108593812D01*
X89444456Y-108757784D01*
X89345853Y-108905354D01*
X89220354Y-109030853D01*
X89072784Y-109129456D01*
X88908812Y-109197376D01*
X88759512Y-109227073D01*
X88734742Y-109232000D01*
X88557258Y-109232000D01*
X88532488Y-109227073D01*
X88383188Y-109197376D01*
X88219216Y-109129456D01*
X88071646Y-109030853D01*
X87946147Y-108905354D01*
X87847544Y-108757784D01*
X87779624Y-108593812D01*
X87745000Y-108419741D01*
X87745000Y-108242259D01*
X87779624Y-108068188D01*
X87847544Y-107904216D01*
X87946147Y-107756646D01*
X88071646Y-107631147D01*
X88219216Y-107532544D01*
X88383188Y-107464624D01*
X88532488Y-107434927D01*
X88557258Y-107430000D01*
X88734742Y-107430000D01*
X88759512Y-107434927D01*
G37*
G36*
X94627000Y-109232000D02*
G01*
X92825000Y-109232000D01*
X92825000Y-107430000D01*
X94627000Y-107430000D01*
X94627000Y-109232000D01*
G37*
G36*
X101612000Y-107200000D02*
G01*
X99810000Y-107200000D01*
X99810000Y-105398000D01*
X101612000Y-105398000D01*
X101612000Y-107200000D01*
G37*
G36*
X113524512Y-105402927D02*
G01*
X113673812Y-105432624D01*
X113837784Y-105500544D01*
X113985354Y-105599147D01*
X114110853Y-105724646D01*
X114209456Y-105872216D01*
X114277376Y-106036188D01*
X114312000Y-106210259D01*
X114312000Y-106387741D01*
X114277376Y-106561812D01*
X114209456Y-106725784D01*
X114110853Y-106873354D01*
X113985354Y-106998853D01*
X113837784Y-107097456D01*
X113673812Y-107165376D01*
X113524512Y-107195073D01*
X113499742Y-107200000D01*
X113322258Y-107200000D01*
X113297488Y-107195073D01*
X113148188Y-107165376D01*
X112984216Y-107097456D01*
X112836646Y-106998853D01*
X112711147Y-106873354D01*
X112612544Y-106725784D01*
X112544624Y-106561812D01*
X112510000Y-106387741D01*
X112510000Y-106210259D01*
X112544624Y-106036188D01*
X112612544Y-105872216D01*
X112711147Y-105724646D01*
X112836646Y-105599147D01*
X112984216Y-105500544D01*
X113148188Y-105432624D01*
X113297488Y-105402927D01*
X113322258Y-105398000D01*
X113499742Y-105398000D01*
X113524512Y-105402927D01*
G37*
G36*
X110984512Y-105402927D02*
G01*
X111133812Y-105432624D01*
X111297784Y-105500544D01*
X111445354Y-105599147D01*
X111570853Y-105724646D01*
X111669456Y-105872216D01*
X111737376Y-106036188D01*
X111772000Y-106210259D01*
X111772000Y-106387741D01*
X111737376Y-106561812D01*
X111669456Y-106725784D01*
X111570853Y-106873354D01*
X111445354Y-106998853D01*
X111297784Y-107097456D01*
X111133812Y-107165376D01*
X110984512Y-107195073D01*
X110959742Y-107200000D01*
X110782258Y-107200000D01*
X110757488Y-107195073D01*
X110608188Y-107165376D01*
X110444216Y-107097456D01*
X110296646Y-106998853D01*
X110171147Y-106873354D01*
X110072544Y-106725784D01*
X110004624Y-106561812D01*
X109970000Y-106387741D01*
X109970000Y-106210259D01*
X110004624Y-106036188D01*
X110072544Y-105872216D01*
X110171147Y-105724646D01*
X110296646Y-105599147D01*
X110444216Y-105500544D01*
X110608188Y-105432624D01*
X110757488Y-105402927D01*
X110782258Y-105398000D01*
X110959742Y-105398000D01*
X110984512Y-105402927D01*
G37*
G36*
X108444512Y-105402927D02*
G01*
X108593812Y-105432624D01*
X108757784Y-105500544D01*
X108905354Y-105599147D01*
X109030853Y-105724646D01*
X109129456Y-105872216D01*
X109197376Y-106036188D01*
X109232000Y-106210259D01*
X109232000Y-106387741D01*
X109197376Y-106561812D01*
X109129456Y-106725784D01*
X109030853Y-106873354D01*
X108905354Y-106998853D01*
X108757784Y-107097456D01*
X108593812Y-107165376D01*
X108444512Y-107195073D01*
X108419742Y-107200000D01*
X108242258Y-107200000D01*
X108217488Y-107195073D01*
X108068188Y-107165376D01*
X107904216Y-107097456D01*
X107756646Y-106998853D01*
X107631147Y-106873354D01*
X107532544Y-106725784D01*
X107464624Y-106561812D01*
X107430000Y-106387741D01*
X107430000Y-106210259D01*
X107464624Y-106036188D01*
X107532544Y-105872216D01*
X107631147Y-105724646D01*
X107756646Y-105599147D01*
X107904216Y-105500544D01*
X108068188Y-105432624D01*
X108217488Y-105402927D01*
X108242258Y-105398000D01*
X108419742Y-105398000D01*
X108444512Y-105402927D01*
G37*
G36*
X105904512Y-105402927D02*
G01*
X106053812Y-105432624D01*
X106217784Y-105500544D01*
X106365354Y-105599147D01*
X106490853Y-105724646D01*
X106589456Y-105872216D01*
X106657376Y-106036188D01*
X106692000Y-106210259D01*
X106692000Y-106387741D01*
X106657376Y-106561812D01*
X106589456Y-106725784D01*
X106490853Y-106873354D01*
X106365354Y-106998853D01*
X106217784Y-107097456D01*
X106053812Y-107165376D01*
X105904512Y-107195073D01*
X105879742Y-107200000D01*
X105702258Y-107200000D01*
X105677488Y-107195073D01*
X105528188Y-107165376D01*
X105364216Y-107097456D01*
X105216646Y-106998853D01*
X105091147Y-106873354D01*
X104992544Y-106725784D01*
X104924624Y-106561812D01*
X104890000Y-106387741D01*
X104890000Y-106210259D01*
X104924624Y-106036188D01*
X104992544Y-105872216D01*
X105091147Y-105724646D01*
X105216646Y-105599147D01*
X105364216Y-105500544D01*
X105528188Y-105432624D01*
X105677488Y-105402927D01*
X105702258Y-105398000D01*
X105879742Y-105398000D01*
X105904512Y-105402927D01*
G37*
G36*
X103364512Y-105402927D02*
G01*
X103513812Y-105432624D01*
X103677784Y-105500544D01*
X103825354Y-105599147D01*
X103950853Y-105724646D01*
X104049456Y-105872216D01*
X104117376Y-106036188D01*
X104152000Y-106210259D01*
X104152000Y-106387741D01*
X104117376Y-106561812D01*
X104049456Y-106725784D01*
X103950853Y-106873354D01*
X103825354Y-106998853D01*
X103677784Y-107097456D01*
X103513812Y-107165376D01*
X103364512Y-107195073D01*
X103339742Y-107200000D01*
X103162258Y-107200000D01*
X103137488Y-107195073D01*
X102988188Y-107165376D01*
X102824216Y-107097456D01*
X102676646Y-106998853D01*
X102551147Y-106873354D01*
X102452544Y-106725784D01*
X102384624Y-106561812D01*
X102350000Y-106387741D01*
X102350000Y-106210259D01*
X102384624Y-106036188D01*
X102452544Y-105872216D01*
X102551147Y-105724646D01*
X102676646Y-105599147D01*
X102824216Y-105500544D01*
X102988188Y-105432624D01*
X103137488Y-105402927D01*
X103162258Y-105398000D01*
X103339742Y-105398000D01*
X103364512Y-105402927D01*
G37*
G36*
X97011499Y-104302445D02*
G01*
X97048995Y-104313820D01*
X97083554Y-104332292D01*
X97113847Y-104357153D01*
X97138708Y-104387446D01*
X97157180Y-104422005D01*
X97168555Y-104459501D01*
X97173000Y-104504638D01*
X97173000Y-105243362D01*
X97168555Y-105288499D01*
X97157180Y-105325995D01*
X97138708Y-105360554D01*
X97113847Y-105390847D01*
X97083554Y-105415708D01*
X97048995Y-105434180D01*
X97011499Y-105445555D01*
X96966362Y-105450000D01*
X96327638Y-105450000D01*
X96282501Y-105445555D01*
X96245005Y-105434180D01*
X96210446Y-105415708D01*
X96180153Y-105390847D01*
X96155292Y-105360554D01*
X96136820Y-105325995D01*
X96125445Y-105288499D01*
X96121000Y-105243362D01*
X96121000Y-104504638D01*
X96125445Y-104459501D01*
X96136820Y-104422005D01*
X96155292Y-104387446D01*
X96180153Y-104357153D01*
X96210446Y-104332292D01*
X96245005Y-104313820D01*
X96282501Y-104302445D01*
X96327638Y-104298000D01*
X96966362Y-104298000D01*
X97011499Y-104302445D01*
G37*
G36*
X125123331Y-101653711D02*
G01*
X125451092Y-101789474D01*
X125746070Y-101986572D01*
X125996928Y-102237430D01*
X126194026Y-102532408D01*
X126329789Y-102860169D01*
X126399000Y-103208116D01*
X126399000Y-103562884D01*
X126329789Y-103910831D01*
X126194026Y-104238592D01*
X125996928Y-104533570D01*
X125746070Y-104784428D01*
X125451092Y-104981526D01*
X125123331Y-105117289D01*
X124775384Y-105186500D01*
X124420616Y-105186500D01*
X124072669Y-105117289D01*
X123744908Y-104981526D01*
X123449930Y-104784428D01*
X123199072Y-104533570D01*
X123001974Y-104238592D01*
X122866211Y-103910831D01*
X122797000Y-103562884D01*
X122797000Y-103208116D01*
X122866211Y-102860169D01*
X123001974Y-102532408D01*
X123199072Y-102237430D01*
X123449930Y-101986572D01*
X123744908Y-101789474D01*
X124072669Y-101653711D01*
X124420616Y-101584500D01*
X124775384Y-101584500D01*
X125123331Y-101653711D01*
G37*
G36*
X97011499Y-102552445D02*
G01*
X97048995Y-102563820D01*
X97083554Y-102582292D01*
X97113847Y-102607153D01*
X97138708Y-102637446D01*
X97157180Y-102672005D01*
X97168555Y-102709501D01*
X97173000Y-102754638D01*
X97173000Y-103493362D01*
X97168555Y-103538499D01*
X97157180Y-103575995D01*
X97138708Y-103610554D01*
X97113847Y-103640847D01*
X97083554Y-103665708D01*
X97048995Y-103684180D01*
X97011499Y-103695555D01*
X96966362Y-103700000D01*
X96327638Y-103700000D01*
X96282501Y-103695555D01*
X96245005Y-103684180D01*
X96210446Y-103665708D01*
X96180153Y-103640847D01*
X96155292Y-103610554D01*
X96136820Y-103575995D01*
X96125445Y-103538499D01*
X96121000Y-103493362D01*
X96121000Y-102754638D01*
X96125445Y-102709501D01*
X96136820Y-102672005D01*
X96155292Y-102637446D01*
X96180153Y-102607153D01*
X96210446Y-102582292D01*
X96245005Y-102563820D01*
X96282501Y-102552445D01*
X96327638Y-102548000D01*
X96966362Y-102548000D01*
X97011499Y-102552445D01*
G37*
G36*
X89622295Y-101800323D02*
G01*
X89629309Y-101802451D01*
X89643077Y-101809810D01*
X89665716Y-101819187D01*
X89689749Y-101823967D01*
X89714253Y-101823967D01*
X89738286Y-101819186D01*
X89760923Y-101809810D01*
X89774691Y-101802451D01*
X89781705Y-101800323D01*
X89795140Y-101799000D01*
X90108860Y-101799000D01*
X90122295Y-101800323D01*
X90129309Y-101802451D01*
X90143077Y-101809810D01*
X90165716Y-101819187D01*
X90189749Y-101823967D01*
X90214253Y-101823967D01*
X90238286Y-101819186D01*
X90260923Y-101809810D01*
X90274691Y-101802451D01*
X90281705Y-101800323D01*
X90295140Y-101799000D01*
X90608860Y-101799000D01*
X90622295Y-101800323D01*
X90629309Y-101802451D01*
X90643077Y-101809810D01*
X90665716Y-101819187D01*
X90689749Y-101823967D01*
X90714253Y-101823967D01*
X90738286Y-101819186D01*
X90760923Y-101809810D01*
X90774691Y-101802451D01*
X90781705Y-101800323D01*
X90795140Y-101799000D01*
X91108860Y-101799000D01*
X91122295Y-101800323D01*
X91129309Y-101802451D01*
X91143077Y-101809810D01*
X91165716Y-101819187D01*
X91189749Y-101823967D01*
X91214253Y-101823967D01*
X91238286Y-101819186D01*
X91260923Y-101809810D01*
X91274691Y-101802451D01*
X91281705Y-101800323D01*
X91295140Y-101799000D01*
X91608860Y-101799000D01*
X91622295Y-101800323D01*
X91629309Y-101802451D01*
X91643077Y-101809810D01*
X91665716Y-101819187D01*
X91689749Y-101823967D01*
X91714253Y-101823967D01*
X91738286Y-101819186D01*
X91760923Y-101809810D01*
X91774691Y-101802451D01*
X91781705Y-101800323D01*
X91795140Y-101799000D01*
X92108860Y-101799000D01*
X92122295Y-101800323D01*
X92129309Y-101802451D01*
X92143077Y-101809810D01*
X92165716Y-101819187D01*
X92189749Y-101823967D01*
X92214253Y-101823967D01*
X92238286Y-101819186D01*
X92260923Y-101809810D01*
X92274691Y-101802451D01*
X92281705Y-101800323D01*
X92295140Y-101799000D01*
X92608860Y-101799000D01*
X92622295Y-101800323D01*
X92629309Y-101802451D01*
X92643077Y-101809810D01*
X92665716Y-101819187D01*
X92689749Y-101823967D01*
X92714253Y-101823967D01*
X92738286Y-101819186D01*
X92760923Y-101809810D01*
X92774691Y-101802451D01*
X92781705Y-101800323D01*
X92795140Y-101799000D01*
X93108860Y-101799000D01*
X93122295Y-101800323D01*
X93129309Y-101802451D01*
X93143077Y-101809810D01*
X93165716Y-101819187D01*
X93189749Y-101823967D01*
X93214253Y-101823967D01*
X93238286Y-101819186D01*
X93260923Y-101809810D01*
X93274691Y-101802451D01*
X93281705Y-101800323D01*
X93295140Y-101799000D01*
X93608860Y-101799000D01*
X93622295Y-101800323D01*
X93629309Y-101802451D01*
X93643077Y-101809810D01*
X93665716Y-101819187D01*
X93689749Y-101823967D01*
X93714253Y-101823967D01*
X93738286Y-101819186D01*
X93760923Y-101809810D01*
X93774691Y-101802451D01*
X93781705Y-101800323D01*
X93795140Y-101799000D01*
X94108860Y-101799000D01*
X94122295Y-101800323D01*
X94129309Y-101802451D01*
X94143077Y-101809810D01*
X94165716Y-101819187D01*
X94189749Y-101823967D01*
X94214253Y-101823967D01*
X94238286Y-101819186D01*
X94260923Y-101809810D01*
X94274691Y-101802451D01*
X94281705Y-101800323D01*
X94295140Y-101799000D01*
X94608860Y-101799000D01*
X94622295Y-101800323D01*
X94629309Y-101802451D01*
X94643077Y-101809810D01*
X94665716Y-101819187D01*
X94689749Y-101823967D01*
X94714253Y-101823967D01*
X94738286Y-101819186D01*
X94760923Y-101809810D01*
X94774691Y-101802451D01*
X94781705Y-101800323D01*
X94795140Y-101799000D01*
X95108860Y-101799000D01*
X95122295Y-101800323D01*
X95129310Y-101802451D01*
X95135776Y-101805908D01*
X95141442Y-101810558D01*
X95146092Y-101816224D01*
X95149549Y-101822690D01*
X95151677Y-101829705D01*
X95153000Y-101843140D01*
X95153000Y-103331860D01*
X95151677Y-103345295D01*
X95149549Y-103352310D01*
X95146092Y-103358776D01*
X95141442Y-103364442D01*
X95135776Y-103369092D01*
X95129310Y-103372549D01*
X95122295Y-103374677D01*
X95108860Y-103376000D01*
X94795140Y-103376000D01*
X94781705Y-103374677D01*
X94774691Y-103372549D01*
X94760923Y-103365190D01*
X94738284Y-103355813D01*
X94714251Y-103351033D01*
X94689747Y-103351033D01*
X94665714Y-103355814D01*
X94643077Y-103365190D01*
X94629309Y-103372549D01*
X94622295Y-103374677D01*
X94608860Y-103376000D01*
X94295140Y-103376000D01*
X94281705Y-103374677D01*
X94274691Y-103372549D01*
X94260923Y-103365190D01*
X94238284Y-103355813D01*
X94214251Y-103351033D01*
X94189747Y-103351033D01*
X94165714Y-103355814D01*
X94143077Y-103365190D01*
X94129309Y-103372549D01*
X94122295Y-103374677D01*
X94108860Y-103376000D01*
X93795140Y-103376000D01*
X93781705Y-103374677D01*
X93774691Y-103372549D01*
X93760923Y-103365190D01*
X93738284Y-103355813D01*
X93714251Y-103351033D01*
X93689747Y-103351033D01*
X93665714Y-103355814D01*
X93643077Y-103365190D01*
X93629309Y-103372549D01*
X93622295Y-103374677D01*
X93608860Y-103376000D01*
X93295140Y-103376000D01*
X93281705Y-103374677D01*
X93274691Y-103372549D01*
X93260923Y-103365190D01*
X93238284Y-103355813D01*
X93214251Y-103351033D01*
X93189747Y-103351033D01*
X93165714Y-103355814D01*
X93143077Y-103365190D01*
X93129309Y-103372549D01*
X93122295Y-103374677D01*
X93108860Y-103376000D01*
X92795140Y-103376000D01*
X92781705Y-103374677D01*
X92774691Y-103372549D01*
X92760923Y-103365190D01*
X92738284Y-103355813D01*
X92714251Y-103351033D01*
X92689747Y-103351033D01*
X92665714Y-103355814D01*
X92643077Y-103365190D01*
X92629309Y-103372549D01*
X92622295Y-103374677D01*
X92608860Y-103376000D01*
X92295140Y-103376000D01*
X92281705Y-103374677D01*
X92274691Y-103372549D01*
X92260923Y-103365190D01*
X92238284Y-103355813D01*
X92214251Y-103351033D01*
X92189747Y-103351033D01*
X92165714Y-103355814D01*
X92143077Y-103365190D01*
X92129309Y-103372549D01*
X92122295Y-103374677D01*
X92108860Y-103376000D01*
X91795140Y-103376000D01*
X91781705Y-103374677D01*
X91774691Y-103372549D01*
X91760923Y-103365190D01*
X91738284Y-103355813D01*
X91714251Y-103351033D01*
X91689747Y-103351033D01*
X91665714Y-103355814D01*
X91643077Y-103365190D01*
X91629309Y-103372549D01*
X91622295Y-103374677D01*
X91608860Y-103376000D01*
X91295140Y-103376000D01*
X91281705Y-103374677D01*
X91274691Y-103372549D01*
X91260923Y-103365190D01*
X91238284Y-103355813D01*
X91214251Y-103351033D01*
X91189747Y-103351033D01*
X91165714Y-103355814D01*
X91143077Y-103365190D01*
X91129309Y-103372549D01*
X91122295Y-103374677D01*
X91108860Y-103376000D01*
X90795140Y-103376000D01*
X90781705Y-103374677D01*
X90774691Y-103372549D01*
X90760923Y-103365190D01*
X90738284Y-103355813D01*
X90714251Y-103351033D01*
X90689747Y-103351033D01*
X90665714Y-103355814D01*
X90643077Y-103365190D01*
X90629309Y-103372549D01*
X90622295Y-103374677D01*
X90608860Y-103376000D01*
X90295140Y-103376000D01*
X90281705Y-103374677D01*
X90274691Y-103372549D01*
X90260923Y-103365190D01*
X90238284Y-103355813D01*
X90214251Y-103351033D01*
X90189747Y-103351033D01*
X90165714Y-103355814D01*
X90143077Y-103365190D01*
X90129309Y-103372549D01*
X90122295Y-103374677D01*
X90108860Y-103376000D01*
X89795140Y-103376000D01*
X89781705Y-103374677D01*
X89774691Y-103372549D01*
X89760923Y-103365190D01*
X89738284Y-103355813D01*
X89714251Y-103351033D01*
X89689747Y-103351033D01*
X89665714Y-103355814D01*
X89643077Y-103365190D01*
X89629309Y-103372549D01*
X89622295Y-103374677D01*
X89608860Y-103376000D01*
X89295140Y-103376000D01*
X89281705Y-103374677D01*
X89274690Y-103372549D01*
X89268224Y-103369092D01*
X89262558Y-103364442D01*
X89257908Y-103358776D01*
X89254451Y-103352310D01*
X89252323Y-103345295D01*
X89251000Y-103331860D01*
X89251000Y-101843140D01*
X89252323Y-101829705D01*
X89254451Y-101822690D01*
X89257908Y-101816224D01*
X89262558Y-101810558D01*
X89268224Y-101805908D01*
X89274690Y-101802451D01*
X89281705Y-101800323D01*
X89295140Y-101799000D01*
X89608860Y-101799000D01*
X89622295Y-101800323D01*
G37*
G36*
X116819500Y-103147000D02*
G01*
X115717500Y-103147000D01*
X115717500Y-102045000D01*
X116819500Y-102045000D01*
X116819500Y-103147000D01*
G37*
G36*
X35897500Y-102778000D02*
G01*
X31795500Y-102778000D01*
X31795500Y-100676000D01*
X35897500Y-100676000D01*
X35897500Y-102778000D01*
G37*
G36*
X51897500Y-102778000D02*
G01*
X47795500Y-102778000D01*
X47795500Y-100676000D01*
X51897500Y-100676000D01*
X51897500Y-102778000D01*
G37*
G36*
X77580499Y-101472945D02*
G01*
X77617995Y-101484320D01*
X77652554Y-101502792D01*
X77682847Y-101527653D01*
X77707708Y-101557946D01*
X77726180Y-101592505D01*
X77737555Y-101630001D01*
X77742000Y-101675138D01*
X77742000Y-102413862D01*
X77737555Y-102458999D01*
X77726180Y-102496495D01*
X77707708Y-102531054D01*
X77682847Y-102561347D01*
X77652554Y-102586208D01*
X77617995Y-102604680D01*
X77580499Y-102616055D01*
X77535362Y-102620500D01*
X76896638Y-102620500D01*
X76851501Y-102616055D01*
X76814005Y-102604680D01*
X76779446Y-102586208D01*
X76749153Y-102561347D01*
X76724292Y-102531054D01*
X76705820Y-102496495D01*
X76694445Y-102458999D01*
X76690000Y-102413862D01*
X76690000Y-101675138D01*
X76694445Y-101630001D01*
X76705820Y-101592505D01*
X76724292Y-101557946D01*
X76749153Y-101527653D01*
X76779446Y-101502792D01*
X76814005Y-101484320D01*
X76851501Y-101472945D01*
X76896638Y-101468500D01*
X77535362Y-101468500D01*
X77580499Y-101472945D01*
G37*
G36*
X65099500Y-102374000D02*
G01*
X63297500Y-102374000D01*
X63297500Y-100572000D01*
X65099500Y-100572000D01*
X65099500Y-102374000D01*
G37*
G36*
X61759810Y-100574500D02*
G01*
X61921312Y-100606624D01*
X62085284Y-100674544D01*
X62232854Y-100773147D01*
X62358353Y-100898646D01*
X62456956Y-101046216D01*
X62524876Y-101210188D01*
X62559500Y-101384259D01*
X62559500Y-101561741D01*
X62524876Y-101735812D01*
X62456956Y-101899784D01*
X62358353Y-102047354D01*
X62232854Y-102172853D01*
X62085284Y-102271456D01*
X61921312Y-102339376D01*
X61772012Y-102369073D01*
X61747242Y-102374000D01*
X61569758Y-102374000D01*
X61544988Y-102369073D01*
X61395688Y-102339376D01*
X61231716Y-102271456D01*
X61084146Y-102172853D01*
X60958647Y-102047354D01*
X60860044Y-101899784D01*
X60792124Y-101735812D01*
X60757500Y-101561741D01*
X60757500Y-101384259D01*
X60792124Y-101210188D01*
X60860044Y-101046216D01*
X60958647Y-100898646D01*
X61084146Y-100773147D01*
X61231716Y-100674544D01*
X61395688Y-100606624D01*
X61557190Y-100574500D01*
X61569758Y-100572000D01*
X61747242Y-100572000D01*
X61759810Y-100574500D01*
G37*
G36*
X79545142Y-100439281D02*
G01*
X79690914Y-100499662D01*
X79690916Y-100499663D01*
X79822108Y-100587322D01*
X79933678Y-100698892D01*
X79997966Y-100795107D01*
X80021338Y-100830086D01*
X80081719Y-100975858D01*
X80112500Y-101130607D01*
X80112500Y-101288393D01*
X80081719Y-101443142D01*
X80052856Y-101512823D01*
X80021337Y-101588916D01*
X79933678Y-101720108D01*
X79822108Y-101831678D01*
X79690916Y-101919337D01*
X79690915Y-101919338D01*
X79690914Y-101919338D01*
X79545142Y-101979719D01*
X79390393Y-102010500D01*
X79232607Y-102010500D01*
X79077858Y-101979719D01*
X78932086Y-101919338D01*
X78932085Y-101919338D01*
X78932084Y-101919337D01*
X78800892Y-101831678D01*
X78689322Y-101720108D01*
X78601663Y-101588916D01*
X78570144Y-101512823D01*
X78541281Y-101443142D01*
X78510500Y-101288393D01*
X78510500Y-101130607D01*
X78541281Y-100975858D01*
X78601662Y-100830086D01*
X78625034Y-100795107D01*
X78689322Y-100698892D01*
X78800892Y-100587322D01*
X78932084Y-100499663D01*
X78932086Y-100499662D01*
X79077858Y-100439281D01*
X79232607Y-100408500D01*
X79390393Y-100408500D01*
X79545142Y-100439281D01*
G37*
G36*
X85200499Y-100520445D02*
G01*
X85237995Y-100531820D01*
X85272554Y-100550292D01*
X85302847Y-100575153D01*
X85327708Y-100605446D01*
X85346180Y-100640005D01*
X85357555Y-100677501D01*
X85362000Y-100722638D01*
X85362000Y-101461362D01*
X85357555Y-101506499D01*
X85346180Y-101543995D01*
X85327708Y-101578554D01*
X85302847Y-101608847D01*
X85272554Y-101633708D01*
X85237995Y-101652180D01*
X85200499Y-101663555D01*
X85155362Y-101668000D01*
X84516638Y-101668000D01*
X84471501Y-101663555D01*
X84434005Y-101652180D01*
X84399446Y-101633708D01*
X84369153Y-101608847D01*
X84344292Y-101578554D01*
X84325820Y-101543995D01*
X84314445Y-101506499D01*
X84310000Y-101461362D01*
X84310000Y-100722638D01*
X84314445Y-100677501D01*
X84325820Y-100640005D01*
X84344292Y-100605446D01*
X84369153Y-100575153D01*
X84399446Y-100550292D01*
X84434005Y-100531820D01*
X84471501Y-100520445D01*
X84516638Y-100516000D01*
X85155362Y-100516000D01*
X85200499Y-100520445D01*
G37*
G36*
X97122295Y-95475323D02*
G01*
X97129310Y-95477451D01*
X97135776Y-95480908D01*
X97141442Y-95485558D01*
X97146092Y-95491224D01*
X97149549Y-95497690D01*
X97151677Y-95504705D01*
X97153000Y-95518140D01*
X97153000Y-95831860D01*
X97151677Y-95845295D01*
X97149549Y-95852309D01*
X97142190Y-95866077D01*
X97132813Y-95888716D01*
X97128033Y-95912749D01*
X97128033Y-95937253D01*
X97132814Y-95961286D01*
X97142190Y-95983923D01*
X97149549Y-95997691D01*
X97151677Y-96004705D01*
X97153000Y-96018140D01*
X97153000Y-96331860D01*
X97151677Y-96345295D01*
X97149549Y-96352309D01*
X97142190Y-96366077D01*
X97132813Y-96388716D01*
X97128033Y-96412749D01*
X97128033Y-96437253D01*
X97132814Y-96461286D01*
X97142190Y-96483923D01*
X97149549Y-96497691D01*
X97151677Y-96504705D01*
X97153000Y-96518140D01*
X97153000Y-96831860D01*
X97151677Y-96845295D01*
X97149549Y-96852309D01*
X97142190Y-96866077D01*
X97132813Y-96888716D01*
X97128033Y-96912749D01*
X97128033Y-96937253D01*
X97132814Y-96961286D01*
X97142190Y-96983923D01*
X97149549Y-96997691D01*
X97151677Y-97004705D01*
X97153000Y-97018140D01*
X97153000Y-97331860D01*
X97151677Y-97345295D01*
X97149549Y-97352309D01*
X97142190Y-97366077D01*
X97132813Y-97388716D01*
X97128033Y-97412749D01*
X97128033Y-97437253D01*
X97132814Y-97461286D01*
X97142190Y-97483923D01*
X97149549Y-97497691D01*
X97151677Y-97504705D01*
X97153000Y-97518140D01*
X97153000Y-97831860D01*
X97151677Y-97845295D01*
X97149549Y-97852309D01*
X97142190Y-97866077D01*
X97132813Y-97888716D01*
X97128033Y-97912749D01*
X97128033Y-97937253D01*
X97132814Y-97961286D01*
X97142190Y-97983923D01*
X97149549Y-97997691D01*
X97151677Y-98004705D01*
X97153000Y-98018140D01*
X97153000Y-98331860D01*
X97151677Y-98345295D01*
X97149549Y-98352309D01*
X97142190Y-98366077D01*
X97132813Y-98388716D01*
X97128033Y-98412749D01*
X97128033Y-98437253D01*
X97132814Y-98461286D01*
X97142190Y-98483923D01*
X97149549Y-98497691D01*
X97151677Y-98504705D01*
X97153000Y-98518140D01*
X97153000Y-98831860D01*
X97151677Y-98845295D01*
X97149549Y-98852309D01*
X97142190Y-98866077D01*
X97132813Y-98888716D01*
X97128033Y-98912749D01*
X97128033Y-98937253D01*
X97132814Y-98961286D01*
X97142190Y-98983923D01*
X97149549Y-98997691D01*
X97151677Y-99004705D01*
X97153000Y-99018140D01*
X97153000Y-99331860D01*
X97151677Y-99345295D01*
X97149549Y-99352309D01*
X97142190Y-99366077D01*
X97132813Y-99388716D01*
X97128033Y-99412749D01*
X97128033Y-99437253D01*
X97132814Y-99461286D01*
X97142190Y-99483923D01*
X97149549Y-99497691D01*
X97151677Y-99504705D01*
X97153000Y-99518140D01*
X97153000Y-99831860D01*
X97151677Y-99845295D01*
X97149549Y-99852309D01*
X97142190Y-99866077D01*
X97132813Y-99888716D01*
X97128033Y-99912749D01*
X97128033Y-99937253D01*
X97132814Y-99961286D01*
X97142190Y-99983923D01*
X97149549Y-99997691D01*
X97151677Y-100004705D01*
X97153000Y-100018140D01*
X97153000Y-100331860D01*
X97151677Y-100345295D01*
X97149549Y-100352309D01*
X97142190Y-100366077D01*
X97132813Y-100388716D01*
X97128033Y-100412749D01*
X97128033Y-100437253D01*
X97132814Y-100461286D01*
X97142190Y-100483923D01*
X97149549Y-100497691D01*
X97151677Y-100504705D01*
X97153000Y-100518140D01*
X97153000Y-100831860D01*
X97151677Y-100845295D01*
X97149549Y-100852309D01*
X97142190Y-100866077D01*
X97132813Y-100888716D01*
X97128033Y-100912749D01*
X97128033Y-100937253D01*
X97132814Y-100961286D01*
X97142190Y-100983923D01*
X97149549Y-100997691D01*
X97151677Y-101004705D01*
X97153000Y-101018140D01*
X97153000Y-101331860D01*
X97151677Y-101345295D01*
X97149549Y-101352310D01*
X97146092Y-101358776D01*
X97141442Y-101364442D01*
X97135776Y-101369092D01*
X97129310Y-101372549D01*
X97122295Y-101374677D01*
X97108860Y-101376000D01*
X95620140Y-101376000D01*
X95606705Y-101374677D01*
X95599690Y-101372549D01*
X95593224Y-101369092D01*
X95587558Y-101364442D01*
X95582908Y-101358776D01*
X95579451Y-101352310D01*
X95577323Y-101345295D01*
X95576000Y-101331860D01*
X95576000Y-101018140D01*
X95577323Y-101004705D01*
X95579451Y-100997691D01*
X95586810Y-100983923D01*
X95596187Y-100961284D01*
X95600967Y-100937251D01*
X95600967Y-100912747D01*
X95596186Y-100888714D01*
X95586810Y-100866077D01*
X95579451Y-100852309D01*
X95577323Y-100845295D01*
X95576000Y-100831860D01*
X95576000Y-100518140D01*
X95577323Y-100504705D01*
X95579451Y-100497691D01*
X95586810Y-100483923D01*
X95596187Y-100461284D01*
X95600967Y-100437251D01*
X95600967Y-100412747D01*
X95596186Y-100388714D01*
X95586810Y-100366077D01*
X95579451Y-100352309D01*
X95577323Y-100345295D01*
X95576000Y-100331860D01*
X95576000Y-100018140D01*
X95577323Y-100004705D01*
X95579451Y-99997691D01*
X95586810Y-99983923D01*
X95596187Y-99961284D01*
X95600967Y-99937251D01*
X95600967Y-99912747D01*
X95596186Y-99888714D01*
X95586810Y-99866077D01*
X95579451Y-99852309D01*
X95577323Y-99845295D01*
X95576000Y-99831860D01*
X95576000Y-99518140D01*
X95577323Y-99504705D01*
X95579451Y-99497691D01*
X95586810Y-99483923D01*
X95596187Y-99461284D01*
X95600967Y-99437251D01*
X95600967Y-99412747D01*
X95596186Y-99388714D01*
X95586810Y-99366077D01*
X95579451Y-99352309D01*
X95577323Y-99345295D01*
X95576000Y-99331860D01*
X95576000Y-99018140D01*
X95577323Y-99004705D01*
X95579451Y-98997691D01*
X95586810Y-98983923D01*
X95596187Y-98961284D01*
X95600967Y-98937251D01*
X95600967Y-98912747D01*
X95596186Y-98888714D01*
X95586810Y-98866077D01*
X95579451Y-98852309D01*
X95577323Y-98845295D01*
X95576000Y-98831860D01*
X95576000Y-98518140D01*
X95577323Y-98504705D01*
X95579451Y-98497691D01*
X95586810Y-98483923D01*
X95596187Y-98461284D01*
X95600967Y-98437251D01*
X95600967Y-98412747D01*
X95596186Y-98388714D01*
X95586810Y-98366077D01*
X95579451Y-98352309D01*
X95577323Y-98345295D01*
X95576000Y-98331860D01*
X95576000Y-98018140D01*
X95577323Y-98004705D01*
X95579451Y-97997691D01*
X95586810Y-97983923D01*
X95596187Y-97961284D01*
X95600967Y-97937251D01*
X95600967Y-97912747D01*
X95596186Y-97888714D01*
X95586810Y-97866077D01*
X95579451Y-97852309D01*
X95577323Y-97845295D01*
X95576000Y-97831860D01*
X95576000Y-97518140D01*
X95577323Y-97504705D01*
X95579451Y-97497691D01*
X95586810Y-97483923D01*
X95596187Y-97461284D01*
X95600967Y-97437251D01*
X95600967Y-97412747D01*
X95596186Y-97388714D01*
X95586810Y-97366077D01*
X95579451Y-97352309D01*
X95577323Y-97345295D01*
X95576000Y-97331860D01*
X95576000Y-97018140D01*
X95577323Y-97004705D01*
X95579451Y-96997691D01*
X95586810Y-96983923D01*
X95596187Y-96961284D01*
X95600967Y-96937251D01*
X95600967Y-96912747D01*
X95596186Y-96888714D01*
X95586810Y-96866077D01*
X95579451Y-96852309D01*
X95577323Y-96845295D01*
X95576000Y-96831860D01*
X95576000Y-96518140D01*
X95577323Y-96504705D01*
X95579451Y-96497691D01*
X95586810Y-96483923D01*
X95596187Y-96461284D01*
X95600967Y-96437251D01*
X95600967Y-96412747D01*
X95596186Y-96388714D01*
X95586810Y-96366077D01*
X95579451Y-96352309D01*
X95577323Y-96345295D01*
X95576000Y-96331860D01*
X95576000Y-96018140D01*
X95577323Y-96004705D01*
X95579451Y-95997691D01*
X95586810Y-95983923D01*
X95596187Y-95961284D01*
X95600967Y-95937251D01*
X95600967Y-95912747D01*
X95596186Y-95888714D01*
X95586810Y-95866077D01*
X95579451Y-95852309D01*
X95577323Y-95845295D01*
X95576000Y-95831860D01*
X95576000Y-95518140D01*
X95577323Y-95504705D01*
X95579451Y-95497690D01*
X95582908Y-95491224D01*
X95587558Y-95485558D01*
X95593224Y-95480908D01*
X95599690Y-95477451D01*
X95606705Y-95475323D01*
X95620140Y-95474000D01*
X97108860Y-95474000D01*
X97122295Y-95475323D01*
G37*
G36*
X88797295Y-95475323D02*
G01*
X88804310Y-95477451D01*
X88810776Y-95480908D01*
X88816442Y-95485558D01*
X88821092Y-95491224D01*
X88824549Y-95497690D01*
X88826677Y-95504705D01*
X88828000Y-95518140D01*
X88828000Y-95831860D01*
X88826677Y-95845295D01*
X88824549Y-95852309D01*
X88817190Y-95866077D01*
X88807813Y-95888716D01*
X88803033Y-95912749D01*
X88803033Y-95937253D01*
X88807814Y-95961286D01*
X88817190Y-95983923D01*
X88824549Y-95997691D01*
X88826677Y-96004705D01*
X88828000Y-96018140D01*
X88828000Y-96331860D01*
X88826677Y-96345295D01*
X88824549Y-96352309D01*
X88817190Y-96366077D01*
X88807813Y-96388716D01*
X88803033Y-96412749D01*
X88803033Y-96437253D01*
X88807814Y-96461286D01*
X88817190Y-96483923D01*
X88824549Y-96497691D01*
X88826677Y-96504705D01*
X88828000Y-96518140D01*
X88828000Y-96831860D01*
X88826677Y-96845295D01*
X88824549Y-96852309D01*
X88817190Y-96866077D01*
X88807813Y-96888716D01*
X88803033Y-96912749D01*
X88803033Y-96937253D01*
X88807814Y-96961286D01*
X88817190Y-96983923D01*
X88824549Y-96997691D01*
X88826677Y-97004705D01*
X88828000Y-97018140D01*
X88828000Y-97331860D01*
X88826677Y-97345295D01*
X88824549Y-97352309D01*
X88817190Y-97366077D01*
X88807813Y-97388716D01*
X88803033Y-97412749D01*
X88803033Y-97437253D01*
X88807814Y-97461286D01*
X88817190Y-97483923D01*
X88824549Y-97497691D01*
X88826677Y-97504705D01*
X88828000Y-97518140D01*
X88828000Y-97831860D01*
X88826677Y-97845295D01*
X88824549Y-97852309D01*
X88817190Y-97866077D01*
X88807813Y-97888716D01*
X88803033Y-97912749D01*
X88803033Y-97937253D01*
X88807814Y-97961286D01*
X88817190Y-97983923D01*
X88824549Y-97997691D01*
X88826677Y-98004705D01*
X88828000Y-98018140D01*
X88828000Y-98331860D01*
X88826677Y-98345295D01*
X88824549Y-98352309D01*
X88817190Y-98366077D01*
X88807813Y-98388716D01*
X88803033Y-98412749D01*
X88803033Y-98437253D01*
X88807814Y-98461286D01*
X88817190Y-98483923D01*
X88824549Y-98497691D01*
X88826677Y-98504705D01*
X88828000Y-98518140D01*
X88828000Y-98831860D01*
X88826677Y-98845295D01*
X88824549Y-98852309D01*
X88817190Y-98866077D01*
X88807813Y-98888716D01*
X88803033Y-98912749D01*
X88803033Y-98937253D01*
X88807814Y-98961286D01*
X88817190Y-98983923D01*
X88824549Y-98997691D01*
X88826677Y-99004705D01*
X88828000Y-99018140D01*
X88828000Y-99331860D01*
X88826677Y-99345295D01*
X88824549Y-99352309D01*
X88817190Y-99366077D01*
X88807813Y-99388716D01*
X88803033Y-99412749D01*
X88803033Y-99437253D01*
X88807814Y-99461286D01*
X88817190Y-99483923D01*
X88824549Y-99497691D01*
X88826677Y-99504705D01*
X88828000Y-99518140D01*
X88828000Y-99831860D01*
X88826677Y-99845295D01*
X88824549Y-99852309D01*
X88817190Y-99866077D01*
X88807813Y-99888716D01*
X88803033Y-99912749D01*
X88803033Y-99937253D01*
X88807814Y-99961286D01*
X88817190Y-99983923D01*
X88824549Y-99997691D01*
X88826677Y-100004705D01*
X88828000Y-100018140D01*
X88828000Y-100331860D01*
X88826677Y-100345295D01*
X88824549Y-100352309D01*
X88817190Y-100366077D01*
X88807813Y-100388716D01*
X88803033Y-100412749D01*
X88803033Y-100437253D01*
X88807814Y-100461286D01*
X88817190Y-100483923D01*
X88824549Y-100497691D01*
X88826677Y-100504705D01*
X88828000Y-100518140D01*
X88828000Y-100831860D01*
X88826677Y-100845295D01*
X88824549Y-100852309D01*
X88817190Y-100866077D01*
X88807813Y-100888716D01*
X88803033Y-100912749D01*
X88803033Y-100937253D01*
X88807814Y-100961286D01*
X88817190Y-100983923D01*
X88824549Y-100997691D01*
X88826677Y-101004705D01*
X88828000Y-101018140D01*
X88828000Y-101331860D01*
X88826677Y-101345295D01*
X88824549Y-101352310D01*
X88821092Y-101358776D01*
X88816442Y-101364442D01*
X88810776Y-101369092D01*
X88804310Y-101372549D01*
X88797295Y-101374677D01*
X88783860Y-101376000D01*
X87295140Y-101376000D01*
X87281705Y-101374677D01*
X87274690Y-101372549D01*
X87268224Y-101369092D01*
X87262558Y-101364442D01*
X87257908Y-101358776D01*
X87254451Y-101352310D01*
X87252323Y-101345295D01*
X87251000Y-101331860D01*
X87251000Y-101018140D01*
X87252323Y-101004705D01*
X87254451Y-100997691D01*
X87261810Y-100983923D01*
X87271187Y-100961284D01*
X87275967Y-100937251D01*
X87275967Y-100912747D01*
X87271186Y-100888714D01*
X87261810Y-100866077D01*
X87254451Y-100852309D01*
X87252323Y-100845295D01*
X87251000Y-100831860D01*
X87251000Y-100518140D01*
X87252323Y-100504705D01*
X87254451Y-100497691D01*
X87261810Y-100483923D01*
X87271187Y-100461284D01*
X87275967Y-100437251D01*
X87275967Y-100412747D01*
X87271186Y-100388714D01*
X87261810Y-100366077D01*
X87254451Y-100352309D01*
X87252323Y-100345295D01*
X87251000Y-100331860D01*
X87251000Y-100018140D01*
X87252323Y-100004705D01*
X87254451Y-99997691D01*
X87261810Y-99983923D01*
X87271187Y-99961284D01*
X87275967Y-99937251D01*
X87275967Y-99912747D01*
X87271186Y-99888714D01*
X87261810Y-99866077D01*
X87254451Y-99852309D01*
X87252323Y-99845295D01*
X87251000Y-99831860D01*
X87251000Y-99518140D01*
X87252323Y-99504705D01*
X87254451Y-99497691D01*
X87261810Y-99483923D01*
X87271187Y-99461284D01*
X87275967Y-99437251D01*
X87275967Y-99412747D01*
X87271186Y-99388714D01*
X87261810Y-99366077D01*
X87254451Y-99352309D01*
X87252323Y-99345295D01*
X87251000Y-99331860D01*
X87251000Y-99018140D01*
X87252323Y-99004705D01*
X87254451Y-98997691D01*
X87261810Y-98983923D01*
X87271187Y-98961284D01*
X87275967Y-98937251D01*
X87275967Y-98912747D01*
X87271186Y-98888714D01*
X87261810Y-98866077D01*
X87254451Y-98852309D01*
X87252323Y-98845295D01*
X87251000Y-98831860D01*
X87251000Y-98518140D01*
X87252323Y-98504705D01*
X87254451Y-98497691D01*
X87261810Y-98483923D01*
X87271187Y-98461284D01*
X87275967Y-98437251D01*
X87275967Y-98412747D01*
X87271186Y-98388714D01*
X87261810Y-98366077D01*
X87254451Y-98352309D01*
X87252323Y-98345295D01*
X87251000Y-98331860D01*
X87251000Y-98018140D01*
X87252323Y-98004705D01*
X87254451Y-97997691D01*
X87261810Y-97983923D01*
X87271187Y-97961284D01*
X87275967Y-97937251D01*
X87275967Y-97912747D01*
X87271186Y-97888714D01*
X87261810Y-97866077D01*
X87254451Y-97852309D01*
X87252323Y-97845295D01*
X87251000Y-97831860D01*
X87251000Y-97518140D01*
X87252323Y-97504705D01*
X87254451Y-97497691D01*
X87261810Y-97483923D01*
X87271187Y-97461284D01*
X87275967Y-97437251D01*
X87275967Y-97412747D01*
X87271186Y-97388714D01*
X87261810Y-97366077D01*
X87254451Y-97352309D01*
X87252323Y-97345295D01*
X87251000Y-97331860D01*
X87251000Y-97018140D01*
X87252323Y-97004705D01*
X87254451Y-96997691D01*
X87261810Y-96983923D01*
X87271187Y-96961284D01*
X87275967Y-96937251D01*
X87275967Y-96912747D01*
X87271186Y-96888714D01*
X87261810Y-96866077D01*
X87254451Y-96852309D01*
X87252323Y-96845295D01*
X87251000Y-96831860D01*
X87251000Y-96518140D01*
X87252323Y-96504705D01*
X87254451Y-96497691D01*
X87261810Y-96483923D01*
X87271187Y-96461284D01*
X87275967Y-96437251D01*
X87275967Y-96412747D01*
X87271186Y-96388714D01*
X87261810Y-96366077D01*
X87254451Y-96352309D01*
X87252323Y-96345295D01*
X87251000Y-96331860D01*
X87251000Y-96018140D01*
X87252323Y-96004705D01*
X87254451Y-95997691D01*
X87261810Y-95983923D01*
X87271187Y-95961284D01*
X87275967Y-95937251D01*
X87275967Y-95912747D01*
X87271186Y-95888714D01*
X87261810Y-95866077D01*
X87254451Y-95852309D01*
X87252323Y-95845295D01*
X87251000Y-95831860D01*
X87251000Y-95518140D01*
X87252323Y-95504705D01*
X87254451Y-95497690D01*
X87257908Y-95491224D01*
X87262558Y-95485558D01*
X87268224Y-95480908D01*
X87274690Y-95477451D01*
X87281705Y-95475323D01*
X87295140Y-95474000D01*
X88783860Y-95474000D01*
X88797295Y-95475323D01*
G37*
G36*
X77580499Y-99722945D02*
G01*
X77617995Y-99734320D01*
X77652554Y-99752792D01*
X77682847Y-99777653D01*
X77707708Y-99807946D01*
X77726180Y-99842505D01*
X77737555Y-99880001D01*
X77742000Y-99925138D01*
X77742000Y-100663862D01*
X77737555Y-100708999D01*
X77726180Y-100746495D01*
X77707708Y-100781054D01*
X77682847Y-100811347D01*
X77652554Y-100836208D01*
X77617995Y-100854680D01*
X77580499Y-100866055D01*
X77535362Y-100870500D01*
X76896638Y-100870500D01*
X76851501Y-100866055D01*
X76814005Y-100854680D01*
X76779446Y-100836208D01*
X76749153Y-100811347D01*
X76724292Y-100781054D01*
X76705820Y-100746495D01*
X76694445Y-100708999D01*
X76690000Y-100663862D01*
X76690000Y-99925138D01*
X76694445Y-99880001D01*
X76705820Y-99842505D01*
X76724292Y-99807946D01*
X76749153Y-99777653D01*
X76779446Y-99752792D01*
X76814005Y-99734320D01*
X76851501Y-99722945D01*
X76896638Y-99718500D01*
X77535362Y-99718500D01*
X77580499Y-99722945D01*
G37*
G36*
X116819500Y-100647000D02*
G01*
X115717500Y-100647000D01*
X115717500Y-99545000D01*
X116819500Y-99545000D01*
X116819500Y-100647000D01*
G37*
G36*
X70362242Y-99175404D02*
G01*
X70399337Y-99186657D01*
X70433515Y-99204925D01*
X70463481Y-99229519D01*
X70488075Y-99259485D01*
X70506343Y-99293663D01*
X70517596Y-99330758D01*
X70522000Y-99375474D01*
X70522000Y-100268526D01*
X70517596Y-100313242D01*
X70506343Y-100350337D01*
X70488075Y-100384515D01*
X70463481Y-100414481D01*
X70433515Y-100439075D01*
X70399337Y-100457343D01*
X70362242Y-100468596D01*
X70317526Y-100473000D01*
X68874474Y-100473000D01*
X68829758Y-100468596D01*
X68792663Y-100457343D01*
X68758485Y-100439075D01*
X68728519Y-100414481D01*
X68703925Y-100384515D01*
X68685657Y-100350337D01*
X68674404Y-100313242D01*
X68670000Y-100268526D01*
X68670000Y-99375474D01*
X68674404Y-99330758D01*
X68685657Y-99293663D01*
X68703925Y-99259485D01*
X68728519Y-99229519D01*
X68758485Y-99204925D01*
X68792663Y-99186657D01*
X68829758Y-99175404D01*
X68874474Y-99171000D01*
X70317526Y-99171000D01*
X70362242Y-99175404D01*
G37*
G36*
X51897500Y-100238000D02*
G01*
X47795500Y-100238000D01*
X47795500Y-98136000D01*
X51897500Y-98136000D01*
X51897500Y-100238000D01*
G37*
G36*
X35897500Y-100238000D02*
G01*
X31795500Y-100238000D01*
X31795500Y-98136000D01*
X35897500Y-98136000D01*
X35897500Y-100238000D01*
G37*
G36*
X85200499Y-98770445D02*
G01*
X85237995Y-98781820D01*
X85272554Y-98800292D01*
X85302847Y-98825153D01*
X85327708Y-98855446D01*
X85346180Y-98890005D01*
X85357555Y-98927501D01*
X85362000Y-98972638D01*
X85362000Y-99711362D01*
X85357555Y-99756499D01*
X85346180Y-99793995D01*
X85327708Y-99828554D01*
X85302847Y-99858847D01*
X85272554Y-99883708D01*
X85237995Y-99902180D01*
X85200499Y-99913555D01*
X85155362Y-99918000D01*
X84516638Y-99918000D01*
X84471501Y-99913555D01*
X84434005Y-99902180D01*
X84399446Y-99883708D01*
X84369153Y-99858847D01*
X84344292Y-99828554D01*
X84325820Y-99793995D01*
X84314445Y-99756499D01*
X84310000Y-99711362D01*
X84310000Y-98972638D01*
X84314445Y-98927501D01*
X84325820Y-98890005D01*
X84344292Y-98855446D01*
X84369153Y-98825153D01*
X84399446Y-98800292D01*
X84434005Y-98781820D01*
X84471501Y-98770445D01*
X84516638Y-98766000D01*
X85155362Y-98766000D01*
X85200499Y-98770445D01*
G37*
G36*
X120789000Y-98285883D02*
G01*
X120791402Y-98310269D01*
X120798515Y-98333718D01*
X120810066Y-98355329D01*
X120825611Y-98374271D01*
X120844553Y-98389816D01*
X120866164Y-98401367D01*
X120889613Y-98408480D01*
X120913999Y-98410882D01*
X120938385Y-98408480D01*
X120961834Y-98401367D01*
X120983445Y-98389816D01*
X121002387Y-98374271D01*
X121017932Y-98355329D01*
X121029477Y-98333729D01*
X121089544Y-98188716D01*
X121188147Y-98041146D01*
X121313646Y-97915647D01*
X121461216Y-97817044D01*
X121625188Y-97749124D01*
X121779149Y-97718500D01*
X121799258Y-97714500D01*
X121976742Y-97714500D01*
X121996851Y-97718500D01*
X122150812Y-97749124D01*
X122314784Y-97817044D01*
X122462354Y-97915647D01*
X122587853Y-98041146D01*
X122686456Y-98188716D01*
X122754376Y-98352688D01*
X122781875Y-98490937D01*
X122788642Y-98524956D01*
X122789000Y-98526759D01*
X122789000Y-98704241D01*
X122754376Y-98878312D01*
X122686456Y-99042284D01*
X122587853Y-99189854D01*
X122462354Y-99315353D01*
X122314784Y-99413956D01*
X122150812Y-99481876D01*
X122001512Y-99511573D01*
X121976742Y-99516500D01*
X121799258Y-99516500D01*
X121774488Y-99511573D01*
X121625188Y-99481876D01*
X121461216Y-99413956D01*
X121313646Y-99315353D01*
X121188147Y-99189854D01*
X121089544Y-99042284D01*
X121029477Y-98897271D01*
X121017932Y-98875671D01*
X121002387Y-98856729D01*
X120983445Y-98841184D01*
X120961834Y-98829633D01*
X120938385Y-98822520D01*
X120913999Y-98820118D01*
X120889613Y-98822520D01*
X120866164Y-98829633D01*
X120844553Y-98841184D01*
X120825611Y-98856729D01*
X120810066Y-98875671D01*
X120798515Y-98897282D01*
X120791402Y-98920731D01*
X120789000Y-98945117D01*
X120789000Y-99516500D01*
X118987000Y-99516500D01*
X118987000Y-97714500D01*
X120789000Y-97714500D01*
X120789000Y-98285883D01*
G37*
G36*
X101788499Y-98093945D02*
G01*
X101825995Y-98105320D01*
X101860554Y-98123792D01*
X101890847Y-98148653D01*
X101915708Y-98178946D01*
X101934180Y-98213505D01*
X101945555Y-98251001D01*
X101950000Y-98296138D01*
X101950000Y-98934862D01*
X101945555Y-98979999D01*
X101934180Y-99017495D01*
X101915708Y-99052054D01*
X101890847Y-99082347D01*
X101860554Y-99107208D01*
X101825995Y-99125680D01*
X101788499Y-99137055D01*
X101743362Y-99141500D01*
X101004638Y-99141500D01*
X100959501Y-99137055D01*
X100922005Y-99125680D01*
X100887446Y-99107208D01*
X100857153Y-99082347D01*
X100832292Y-99052054D01*
X100813820Y-99017495D01*
X100802445Y-98979999D01*
X100798000Y-98934862D01*
X100798000Y-98296138D01*
X100802445Y-98251001D01*
X100813820Y-98213505D01*
X100832292Y-98178946D01*
X100857153Y-98148653D01*
X100887446Y-98123792D01*
X100922005Y-98105320D01*
X100959501Y-98093945D01*
X101004638Y-98089500D01*
X101743362Y-98089500D01*
X101788499Y-98093945D01*
G37*
G36*
X103538499Y-98093945D02*
G01*
X103575995Y-98105320D01*
X103610554Y-98123792D01*
X103640847Y-98148653D01*
X103665708Y-98178946D01*
X103684180Y-98213505D01*
X103695555Y-98251001D01*
X103700000Y-98296138D01*
X103700000Y-98934862D01*
X103695555Y-98979999D01*
X103684180Y-99017495D01*
X103665708Y-99052054D01*
X103640847Y-99082347D01*
X103610554Y-99107208D01*
X103575995Y-99125680D01*
X103538499Y-99137055D01*
X103493362Y-99141500D01*
X102754638Y-99141500D01*
X102709501Y-99137055D01*
X102672005Y-99125680D01*
X102637446Y-99107208D01*
X102607153Y-99082347D01*
X102582292Y-99052054D01*
X102563820Y-99017495D01*
X102552445Y-98979999D01*
X102548000Y-98934862D01*
X102548000Y-98296138D01*
X102552445Y-98251001D01*
X102563820Y-98213505D01*
X102582292Y-98178946D01*
X102607153Y-98148653D01*
X102637446Y-98123792D01*
X102672005Y-98105320D01*
X102709501Y-98093945D01*
X102754638Y-98089500D01*
X103493362Y-98089500D01*
X103538499Y-98093945D01*
G37*
G36*
X109987500Y-99116000D02*
G01*
X108325500Y-99116000D01*
X108325500Y-96464000D01*
X109987500Y-96464000D01*
X109987500Y-99116000D01*
G37*
G36*
X107287500Y-99116000D02*
G01*
X105625500Y-99116000D01*
X105625500Y-96464000D01*
X107287500Y-96464000D01*
X107287500Y-99116000D01*
G37*
G36*
X61772012Y-96830427D02*
G01*
X61921312Y-96860124D01*
X62085284Y-96928044D01*
X62232854Y-97026647D01*
X62358353Y-97152146D01*
X62456956Y-97299716D01*
X62524876Y-97463688D01*
X62546353Y-97571664D01*
X62559500Y-97637758D01*
X62559500Y-97815242D01*
X62558156Y-97822000D01*
X62524876Y-97989312D01*
X62456956Y-98153284D01*
X62358353Y-98300854D01*
X62232854Y-98426353D01*
X62085284Y-98524956D01*
X61921312Y-98592876D01*
X61772012Y-98622573D01*
X61747242Y-98627500D01*
X61569758Y-98627500D01*
X61544988Y-98622573D01*
X61395688Y-98592876D01*
X61231716Y-98524956D01*
X61084146Y-98426353D01*
X60958647Y-98300854D01*
X60860044Y-98153284D01*
X60792124Y-97989312D01*
X60758844Y-97822000D01*
X60757500Y-97815242D01*
X60757500Y-97637758D01*
X60770647Y-97571664D01*
X60792124Y-97463688D01*
X60860044Y-97299716D01*
X60958647Y-97152146D01*
X61084146Y-97026647D01*
X61231716Y-96928044D01*
X61395688Y-96860124D01*
X61544988Y-96830427D01*
X61569758Y-96825500D01*
X61747242Y-96825500D01*
X61772012Y-96830427D01*
G37*
G36*
X65099500Y-98627500D02*
G01*
X63297500Y-98627500D01*
X63297500Y-96825500D01*
X65099500Y-96825500D01*
X65099500Y-98627500D01*
G37*
G36*
X69934855Y-97174140D02*
G01*
X69998618Y-97180420D01*
X70089404Y-97207960D01*
X70121336Y-97217646D01*
X70234425Y-97278094D01*
X70333554Y-97359446D01*
X70414906Y-97458575D01*
X70475354Y-97571664D01*
X70475355Y-97571668D01*
X70512580Y-97694382D01*
X70525149Y-97822000D01*
X70512580Y-97949618D01*
X70500539Y-97989311D01*
X70475354Y-98072336D01*
X70414906Y-98185425D01*
X70333554Y-98284554D01*
X70234425Y-98365906D01*
X70121336Y-98426354D01*
X70089404Y-98436040D01*
X69998618Y-98463580D01*
X69934855Y-98469860D01*
X69902974Y-98473000D01*
X69289026Y-98473000D01*
X69257145Y-98469860D01*
X69193382Y-98463580D01*
X69102596Y-98436040D01*
X69070664Y-98426354D01*
X68957575Y-98365906D01*
X68858446Y-98284554D01*
X68777094Y-98185425D01*
X68716646Y-98072336D01*
X68691461Y-97989311D01*
X68679420Y-97949618D01*
X68666851Y-97822000D01*
X68679420Y-97694382D01*
X68716645Y-97571668D01*
X68716646Y-97571664D01*
X68777094Y-97458575D01*
X68858446Y-97359446D01*
X68957575Y-97278094D01*
X69070664Y-97217646D01*
X69102596Y-97207960D01*
X69193382Y-97180420D01*
X69257145Y-97174140D01*
X69289026Y-97171000D01*
X69902974Y-97171000D01*
X69934855Y-97174140D01*
G37*
G36*
X77580499Y-96618945D02*
G01*
X77617995Y-96630320D01*
X77652554Y-96648792D01*
X77682847Y-96673653D01*
X77707708Y-96703946D01*
X77726180Y-96738505D01*
X77737555Y-96776001D01*
X77742000Y-96821138D01*
X77742000Y-97559862D01*
X77737555Y-97604999D01*
X77726180Y-97642495D01*
X77707708Y-97677054D01*
X77682847Y-97707347D01*
X77652554Y-97732208D01*
X77617995Y-97750680D01*
X77580499Y-97762055D01*
X77535362Y-97766500D01*
X76896638Y-97766500D01*
X76851501Y-97762055D01*
X76814005Y-97750680D01*
X76779446Y-97732208D01*
X76749153Y-97707347D01*
X76724292Y-97677054D01*
X76705820Y-97642495D01*
X76694445Y-97604999D01*
X76690000Y-97559862D01*
X76690000Y-96821138D01*
X76694445Y-96776001D01*
X76705820Y-96738505D01*
X76724292Y-96703946D01*
X76749153Y-96673653D01*
X76779446Y-96648792D01*
X76814005Y-96630320D01*
X76851501Y-96618945D01*
X76896638Y-96614500D01*
X77535362Y-96614500D01*
X77580499Y-96618945D01*
G37*
G36*
X57417562Y-96195681D02*
G01*
X57452481Y-96206274D01*
X57484663Y-96223476D01*
X57512873Y-96246627D01*
X57536024Y-96274837D01*
X57553226Y-96307019D01*
X57563819Y-96341938D01*
X57568000Y-96384395D01*
X57568000Y-97525605D01*
X57563819Y-97568062D01*
X57553226Y-97602981D01*
X57536024Y-97635163D01*
X57512873Y-97663373D01*
X57484663Y-97686524D01*
X57452481Y-97703726D01*
X57417562Y-97714319D01*
X57375105Y-97718500D01*
X55908895Y-97718500D01*
X55866438Y-97714319D01*
X55831519Y-97703726D01*
X55799337Y-97686524D01*
X55771127Y-97663373D01*
X55747976Y-97635163D01*
X55730774Y-97602981D01*
X55720181Y-97568062D01*
X55716000Y-97525605D01*
X55716000Y-96384395D01*
X55720181Y-96341938D01*
X55730774Y-96307019D01*
X55747976Y-96274837D01*
X55771127Y-96246627D01*
X55799337Y-96223476D01*
X55831519Y-96206274D01*
X55866438Y-96195681D01*
X55908895Y-96191500D01*
X57375105Y-96191500D01*
X57417562Y-96195681D01*
G37*
G36*
X35897500Y-97698000D02*
G01*
X31795500Y-97698000D01*
X31795500Y-95596000D01*
X35897500Y-95596000D01*
X35897500Y-97698000D01*
G37*
G36*
X51897500Y-97698000D02*
G01*
X47795500Y-97698000D01*
X47795500Y-95596000D01*
X51897500Y-95596000D01*
X51897500Y-97698000D01*
G37*
G36*
X101788499Y-96442945D02*
G01*
X101825995Y-96454320D01*
X101860554Y-96472792D01*
X101890847Y-96497653D01*
X101915708Y-96527946D01*
X101934180Y-96562505D01*
X101945555Y-96600001D01*
X101950000Y-96645138D01*
X101950000Y-97283862D01*
X101945555Y-97328999D01*
X101934180Y-97366495D01*
X101915708Y-97401054D01*
X101890847Y-97431347D01*
X101860554Y-97456208D01*
X101825995Y-97474680D01*
X101788499Y-97486055D01*
X101743362Y-97490500D01*
X101004638Y-97490500D01*
X100959501Y-97486055D01*
X100922005Y-97474680D01*
X100887446Y-97456208D01*
X100857153Y-97431347D01*
X100832292Y-97401054D01*
X100813820Y-97366495D01*
X100802445Y-97328999D01*
X100798000Y-97283862D01*
X100798000Y-96645138D01*
X100802445Y-96600001D01*
X100813820Y-96562505D01*
X100832292Y-96527946D01*
X100857153Y-96497653D01*
X100887446Y-96472792D01*
X100922005Y-96454320D01*
X100959501Y-96442945D01*
X101004638Y-96438500D01*
X101743362Y-96438500D01*
X101788499Y-96442945D01*
G37*
G36*
X103538499Y-96442945D02*
G01*
X103575995Y-96454320D01*
X103610554Y-96472792D01*
X103640847Y-96497653D01*
X103665708Y-96527946D01*
X103684180Y-96562505D01*
X103695555Y-96600001D01*
X103700000Y-96645138D01*
X103700000Y-97283862D01*
X103695555Y-97328999D01*
X103684180Y-97366495D01*
X103665708Y-97401054D01*
X103640847Y-97431347D01*
X103610554Y-97456208D01*
X103575995Y-97474680D01*
X103538499Y-97486055D01*
X103493362Y-97490500D01*
X102754638Y-97490500D01*
X102709501Y-97486055D01*
X102672005Y-97474680D01*
X102637446Y-97456208D01*
X102607153Y-97431347D01*
X102582292Y-97401054D01*
X102563820Y-97366495D01*
X102552445Y-97328999D01*
X102548000Y-97283862D01*
X102548000Y-96645138D01*
X102552445Y-96600001D01*
X102563820Y-96562505D01*
X102582292Y-96527946D01*
X102607153Y-96497653D01*
X102637446Y-96472792D01*
X102672005Y-96454320D01*
X102709501Y-96442945D01*
X102754638Y-96438500D01*
X103493362Y-96438500D01*
X103538499Y-96442945D01*
G37*
G36*
X79545142Y-95559281D02*
G01*
X79690914Y-95619662D01*
X79690916Y-95619663D01*
X79822108Y-95707322D01*
X79933678Y-95818892D01*
X80021337Y-95950084D01*
X80021338Y-95950086D01*
X80081719Y-96095858D01*
X80112500Y-96250607D01*
X80112500Y-96408393D01*
X80081719Y-96563142D01*
X80029233Y-96689853D01*
X80021337Y-96708916D01*
X79933678Y-96840108D01*
X79822108Y-96951678D01*
X79690916Y-97039337D01*
X79690915Y-97039338D01*
X79690914Y-97039338D01*
X79545142Y-97099719D01*
X79390393Y-97130500D01*
X79232607Y-97130500D01*
X79077858Y-97099719D01*
X78932086Y-97039338D01*
X78932085Y-97039338D01*
X78932084Y-97039337D01*
X78800892Y-96951678D01*
X78689322Y-96840108D01*
X78601663Y-96708916D01*
X78593767Y-96689853D01*
X78541281Y-96563142D01*
X78510500Y-96408393D01*
X78510500Y-96250607D01*
X78541281Y-96095858D01*
X78601662Y-95950086D01*
X78601663Y-95950084D01*
X78689322Y-95818892D01*
X78800892Y-95707322D01*
X78932084Y-95619663D01*
X78932086Y-95619662D01*
X79077858Y-95559281D01*
X79232607Y-95528500D01*
X79390393Y-95528500D01*
X79545142Y-95559281D01*
G37*
G36*
X120001512Y-95219427D02*
G01*
X120150812Y-95249124D01*
X120314784Y-95317044D01*
X120462354Y-95415647D01*
X120587853Y-95541146D01*
X120686456Y-95688716D01*
X120754376Y-95852688D01*
X120765405Y-95908138D01*
X120772516Y-95931578D01*
X120784067Y-95953189D01*
X120799613Y-95972131D01*
X120818555Y-95987676D01*
X120840165Y-95999227D01*
X120863614Y-96006340D01*
X120888000Y-96008742D01*
X120912387Y-96006340D01*
X120935835Y-95999227D01*
X120957446Y-95987676D01*
X120976388Y-95972130D01*
X120991933Y-95953188D01*
X121003484Y-95931578D01*
X121010595Y-95908138D01*
X121021624Y-95852688D01*
X121089544Y-95688716D01*
X121188147Y-95541146D01*
X121313646Y-95415647D01*
X121461216Y-95317044D01*
X121625188Y-95249124D01*
X121774488Y-95219427D01*
X121799258Y-95214500D01*
X121976742Y-95214500D01*
X122001512Y-95219427D01*
X122150812Y-95249124D01*
X122314784Y-95317044D01*
X122462354Y-95415647D01*
X122587853Y-95541146D01*
X122686456Y-95688716D01*
X122754376Y-95852688D01*
X122781226Y-95987676D01*
X122786960Y-96016500D01*
X122789000Y-96026759D01*
X122789000Y-96204241D01*
X122754376Y-96378312D01*
X122686456Y-96542284D01*
X122587853Y-96689854D01*
X122462354Y-96815353D01*
X122314784Y-96913956D01*
X122150812Y-96981876D01*
X122001512Y-97011573D01*
X121976742Y-97016500D01*
X121799258Y-97016500D01*
X121774488Y-97011573D01*
X121625188Y-96981876D01*
X121461216Y-96913956D01*
X121313646Y-96815353D01*
X121188147Y-96689854D01*
X121089544Y-96542284D01*
X121021624Y-96378312D01*
X121010595Y-96322862D01*
X121003484Y-96299422D01*
X120991933Y-96277811D01*
X120976387Y-96258869D01*
X120957445Y-96243324D01*
X120935835Y-96231773D01*
X120912386Y-96224660D01*
X120888000Y-96222258D01*
X120863613Y-96224660D01*
X120840165Y-96231773D01*
X120818554Y-96243324D01*
X120799612Y-96258870D01*
X120784067Y-96277812D01*
X120772516Y-96299422D01*
X120765405Y-96322862D01*
X120754376Y-96378312D01*
X120686456Y-96542284D01*
X120587853Y-96689854D01*
X120462354Y-96815353D01*
X120314784Y-96913956D01*
X120150812Y-96981876D01*
X120001512Y-97011573D01*
X119976742Y-97016500D01*
X119799258Y-97016500D01*
X119774488Y-97011573D01*
X119625188Y-96981876D01*
X119461216Y-96913956D01*
X119313646Y-96815353D01*
X119188147Y-96689854D01*
X119089544Y-96542284D01*
X119021624Y-96378312D01*
X118987000Y-96204241D01*
X118987000Y-96026759D01*
X118989041Y-96016500D01*
X118994774Y-95987676D01*
X119021624Y-95852688D01*
X119089544Y-95688716D01*
X119188147Y-95541146D01*
X119313646Y-95415647D01*
X119461216Y-95317044D01*
X119625188Y-95249124D01*
X119774488Y-95219427D01*
X119799258Y-95214500D01*
X119976742Y-95214500D01*
X120001512Y-95219427D01*
G37*
G36*
X54656999Y-95743945D02*
G01*
X54694495Y-95755320D01*
X54729054Y-95773792D01*
X54759347Y-95798653D01*
X54784208Y-95828946D01*
X54802680Y-95863505D01*
X54814055Y-95901001D01*
X54818500Y-95946138D01*
X54818500Y-96684862D01*
X54814055Y-96729999D01*
X54802680Y-96767495D01*
X54784208Y-96802054D01*
X54759347Y-96832347D01*
X54729054Y-96857208D01*
X54694495Y-96875680D01*
X54656999Y-96887055D01*
X54611862Y-96891500D01*
X53973138Y-96891500D01*
X53928001Y-96887055D01*
X53890505Y-96875680D01*
X53855946Y-96857208D01*
X53825653Y-96832347D01*
X53800792Y-96802054D01*
X53782320Y-96767495D01*
X53770945Y-96729999D01*
X53766500Y-96684862D01*
X53766500Y-95946138D01*
X53770945Y-95901001D01*
X53782320Y-95863505D01*
X53800792Y-95828946D01*
X53825653Y-95798653D01*
X53855946Y-95773792D01*
X53890505Y-95755320D01*
X53928001Y-95743945D01*
X53973138Y-95739500D01*
X54611862Y-95739500D01*
X54656999Y-95743945D01*
G37*
G36*
X69934855Y-95174140D02*
G01*
X69998618Y-95180420D01*
X70089404Y-95207960D01*
X70121336Y-95217646D01*
X70234425Y-95278094D01*
X70333554Y-95359446D01*
X70414906Y-95458575D01*
X70475354Y-95571664D01*
X70475355Y-95571668D01*
X70512580Y-95694382D01*
X70525149Y-95822000D01*
X70512580Y-95949618D01*
X70491794Y-96018140D01*
X70475354Y-96072336D01*
X70414906Y-96185425D01*
X70333554Y-96284554D01*
X70234425Y-96365906D01*
X70121336Y-96426354D01*
X70089404Y-96436040D01*
X69998618Y-96463580D01*
X69934855Y-96469860D01*
X69902974Y-96473000D01*
X69289026Y-96473000D01*
X69257145Y-96469860D01*
X69193382Y-96463580D01*
X69102596Y-96436040D01*
X69070664Y-96426354D01*
X68957575Y-96365906D01*
X68858446Y-96284554D01*
X68777094Y-96185425D01*
X68716646Y-96072336D01*
X68700206Y-96018140D01*
X68679420Y-95949618D01*
X68666851Y-95822000D01*
X68679420Y-95694382D01*
X68716645Y-95571668D01*
X68716646Y-95571664D01*
X68777094Y-95458575D01*
X68858446Y-95359446D01*
X68957575Y-95278094D01*
X69070664Y-95217646D01*
X69102596Y-95207960D01*
X69193382Y-95180420D01*
X69257145Y-95174140D01*
X69289026Y-95171000D01*
X69902974Y-95171000D01*
X69934855Y-95174140D01*
G37*
G36*
X77580499Y-94868945D02*
G01*
X77617995Y-94880320D01*
X77652554Y-94898792D01*
X77682847Y-94923653D01*
X77707708Y-94953946D01*
X77726180Y-94988505D01*
X77737555Y-95026001D01*
X77742000Y-95071138D01*
X77742000Y-95809862D01*
X77737555Y-95854999D01*
X77726180Y-95892495D01*
X77707708Y-95927054D01*
X77682847Y-95957347D01*
X77652554Y-95982208D01*
X77617995Y-96000680D01*
X77580499Y-96012055D01*
X77535362Y-96016500D01*
X76896638Y-96016500D01*
X76851501Y-96012055D01*
X76814005Y-96000680D01*
X76779446Y-95982208D01*
X76749153Y-95957347D01*
X76724292Y-95927054D01*
X76705820Y-95892495D01*
X76694445Y-95854999D01*
X76690000Y-95809862D01*
X76690000Y-95071138D01*
X76694445Y-95026001D01*
X76705820Y-94988505D01*
X76724292Y-94953946D01*
X76749153Y-94923653D01*
X76779446Y-94898792D01*
X76814005Y-94880320D01*
X76851501Y-94868945D01*
X76896638Y-94864500D01*
X77535362Y-94864500D01*
X77580499Y-94868945D01*
G37*
G36*
X109520999Y-94396445D02*
G01*
X109558495Y-94407820D01*
X109593054Y-94426292D01*
X109623347Y-94451153D01*
X109648208Y-94481446D01*
X109666680Y-94516005D01*
X109678055Y-94553501D01*
X109682500Y-94598638D01*
X109682500Y-95337362D01*
X109678055Y-95382499D01*
X109666680Y-95419995D01*
X109648208Y-95454554D01*
X109623347Y-95484847D01*
X109593054Y-95509708D01*
X109558495Y-95528180D01*
X109520999Y-95539555D01*
X109475862Y-95544000D01*
X108837138Y-95544000D01*
X108792001Y-95539555D01*
X108754505Y-95528180D01*
X108719946Y-95509708D01*
X108689653Y-95484847D01*
X108664792Y-95454554D01*
X108646320Y-95419995D01*
X108634945Y-95382499D01*
X108630500Y-95337362D01*
X108630500Y-94598638D01*
X108634945Y-94553501D01*
X108646320Y-94516005D01*
X108664792Y-94481446D01*
X108689653Y-94451153D01*
X108719946Y-94426292D01*
X108754505Y-94407820D01*
X108792001Y-94396445D01*
X108837138Y-94392000D01*
X109475862Y-94392000D01*
X109520999Y-94396445D01*
G37*
G36*
X51897500Y-95158000D02*
G01*
X47795500Y-95158000D01*
X47795500Y-93056000D01*
X51897500Y-93056000D01*
X51897500Y-95158000D01*
G37*
G36*
X35897500Y-95158000D02*
G01*
X31795500Y-95158000D01*
X31795500Y-93056000D01*
X35897500Y-93056000D01*
X35897500Y-95158000D01*
G37*
G36*
X54656999Y-93993945D02*
G01*
X54694495Y-94005320D01*
X54729054Y-94023792D01*
X54759347Y-94048653D01*
X54784208Y-94078946D01*
X54802680Y-94113505D01*
X54814055Y-94151001D01*
X54818500Y-94196138D01*
X54818500Y-94934862D01*
X54814055Y-94979999D01*
X54802680Y-95017495D01*
X54784208Y-95052054D01*
X54759347Y-95082347D01*
X54729054Y-95107208D01*
X54694495Y-95125680D01*
X54656999Y-95137055D01*
X54611862Y-95141500D01*
X53973138Y-95141500D01*
X53928001Y-95137055D01*
X53890505Y-95125680D01*
X53855946Y-95107208D01*
X53825653Y-95082347D01*
X53800792Y-95052054D01*
X53782320Y-95017495D01*
X53770945Y-94979999D01*
X53766500Y-94934862D01*
X53766500Y-94196138D01*
X53770945Y-94151001D01*
X53782320Y-94113505D01*
X53800792Y-94078946D01*
X53825653Y-94048653D01*
X53855946Y-94023792D01*
X53890505Y-94005320D01*
X53928001Y-93993945D01*
X53973138Y-93989500D01*
X54611862Y-93989500D01*
X54656999Y-93993945D01*
G37*
G36*
X89622295Y-93475323D02*
G01*
X89629309Y-93477451D01*
X89643077Y-93484810D01*
X89665716Y-93494187D01*
X89689749Y-93498967D01*
X89714253Y-93498967D01*
X89738286Y-93494186D01*
X89760923Y-93484810D01*
X89774691Y-93477451D01*
X89781705Y-93475323D01*
X89795140Y-93474000D01*
X90108860Y-93474000D01*
X90122295Y-93475323D01*
X90129309Y-93477451D01*
X90143077Y-93484810D01*
X90165716Y-93494187D01*
X90189749Y-93498967D01*
X90214253Y-93498967D01*
X90238286Y-93494186D01*
X90260923Y-93484810D01*
X90274691Y-93477451D01*
X90281705Y-93475323D01*
X90295140Y-93474000D01*
X90608860Y-93474000D01*
X90622295Y-93475323D01*
X90629309Y-93477451D01*
X90643077Y-93484810D01*
X90665716Y-93494187D01*
X90689749Y-93498967D01*
X90714253Y-93498967D01*
X90738286Y-93494186D01*
X90760923Y-93484810D01*
X90774691Y-93477451D01*
X90781705Y-93475323D01*
X90795140Y-93474000D01*
X91108860Y-93474000D01*
X91122295Y-93475323D01*
X91129309Y-93477451D01*
X91143077Y-93484810D01*
X91165716Y-93494187D01*
X91189749Y-93498967D01*
X91214253Y-93498967D01*
X91238286Y-93494186D01*
X91260923Y-93484810D01*
X91274691Y-93477451D01*
X91281705Y-93475323D01*
X91295140Y-93474000D01*
X91608860Y-93474000D01*
X91622295Y-93475323D01*
X91629309Y-93477451D01*
X91643077Y-93484810D01*
X91665716Y-93494187D01*
X91689749Y-93498967D01*
X91714253Y-93498967D01*
X91738286Y-93494186D01*
X91760923Y-93484810D01*
X91774691Y-93477451D01*
X91781705Y-93475323D01*
X91795140Y-93474000D01*
X92108860Y-93474000D01*
X92122295Y-93475323D01*
X92129309Y-93477451D01*
X92143077Y-93484810D01*
X92165716Y-93494187D01*
X92189749Y-93498967D01*
X92214253Y-93498967D01*
X92238286Y-93494186D01*
X92260923Y-93484810D01*
X92274691Y-93477451D01*
X92281705Y-93475323D01*
X92295140Y-93474000D01*
X92608860Y-93474000D01*
X92622295Y-93475323D01*
X92629309Y-93477451D01*
X92643077Y-93484810D01*
X92665716Y-93494187D01*
X92689749Y-93498967D01*
X92714253Y-93498967D01*
X92738286Y-93494186D01*
X92760923Y-93484810D01*
X92774691Y-93477451D01*
X92781705Y-93475323D01*
X92795140Y-93474000D01*
X93108860Y-93474000D01*
X93122295Y-93475323D01*
X93129309Y-93477451D01*
X93143077Y-93484810D01*
X93165716Y-93494187D01*
X93189749Y-93498967D01*
X93214253Y-93498967D01*
X93238286Y-93494186D01*
X93260923Y-93484810D01*
X93274691Y-93477451D01*
X93281705Y-93475323D01*
X93295140Y-93474000D01*
X93608860Y-93474000D01*
X93622295Y-93475323D01*
X93629309Y-93477451D01*
X93643077Y-93484810D01*
X93665716Y-93494187D01*
X93689749Y-93498967D01*
X93714253Y-93498967D01*
X93738286Y-93494186D01*
X93760923Y-93484810D01*
X93774691Y-93477451D01*
X93781705Y-93475323D01*
X93795140Y-93474000D01*
X94108860Y-93474000D01*
X94122295Y-93475323D01*
X94129309Y-93477451D01*
X94143077Y-93484810D01*
X94165716Y-93494187D01*
X94189749Y-93498967D01*
X94214253Y-93498967D01*
X94238286Y-93494186D01*
X94260923Y-93484810D01*
X94274691Y-93477451D01*
X94281705Y-93475323D01*
X94295140Y-93474000D01*
X94608860Y-93474000D01*
X94622295Y-93475323D01*
X94629309Y-93477451D01*
X94643077Y-93484810D01*
X94665716Y-93494187D01*
X94689749Y-93498967D01*
X94714253Y-93498967D01*
X94738286Y-93494186D01*
X94760923Y-93484810D01*
X94774691Y-93477451D01*
X94781705Y-93475323D01*
X94795140Y-93474000D01*
X95108860Y-93474000D01*
X95122295Y-93475323D01*
X95129310Y-93477451D01*
X95135776Y-93480908D01*
X95141442Y-93485558D01*
X95146092Y-93491224D01*
X95149549Y-93497690D01*
X95151677Y-93504705D01*
X95153000Y-93518140D01*
X95153000Y-95006860D01*
X95151677Y-95020295D01*
X95149549Y-95027310D01*
X95146092Y-95033776D01*
X95141442Y-95039442D01*
X95135776Y-95044092D01*
X95129310Y-95047549D01*
X95122295Y-95049677D01*
X95108860Y-95051000D01*
X94795140Y-95051000D01*
X94781705Y-95049677D01*
X94774691Y-95047549D01*
X94760923Y-95040190D01*
X94738284Y-95030813D01*
X94714251Y-95026033D01*
X94689747Y-95026033D01*
X94665714Y-95030814D01*
X94643077Y-95040190D01*
X94629309Y-95047549D01*
X94622295Y-95049677D01*
X94608860Y-95051000D01*
X94295140Y-95051000D01*
X94281705Y-95049677D01*
X94274691Y-95047549D01*
X94260923Y-95040190D01*
X94238284Y-95030813D01*
X94214251Y-95026033D01*
X94189747Y-95026033D01*
X94165714Y-95030814D01*
X94143077Y-95040190D01*
X94129309Y-95047549D01*
X94122295Y-95049677D01*
X94108860Y-95051000D01*
X93795140Y-95051000D01*
X93781705Y-95049677D01*
X93774691Y-95047549D01*
X93760923Y-95040190D01*
X93738284Y-95030813D01*
X93714251Y-95026033D01*
X93689747Y-95026033D01*
X93665714Y-95030814D01*
X93643077Y-95040190D01*
X93629309Y-95047549D01*
X93622295Y-95049677D01*
X93608860Y-95051000D01*
X93295140Y-95051000D01*
X93281705Y-95049677D01*
X93274691Y-95047549D01*
X93260923Y-95040190D01*
X93238284Y-95030813D01*
X93214251Y-95026033D01*
X93189747Y-95026033D01*
X93165714Y-95030814D01*
X93143077Y-95040190D01*
X93129309Y-95047549D01*
X93122295Y-95049677D01*
X93108860Y-95051000D01*
X92795140Y-95051000D01*
X92781705Y-95049677D01*
X92774691Y-95047549D01*
X92760923Y-95040190D01*
X92738284Y-95030813D01*
X92714251Y-95026033D01*
X92689747Y-95026033D01*
X92665714Y-95030814D01*
X92643077Y-95040190D01*
X92629309Y-95047549D01*
X92622295Y-95049677D01*
X92608860Y-95051000D01*
X92295140Y-95051000D01*
X92281705Y-95049677D01*
X92274691Y-95047549D01*
X92260923Y-95040190D01*
X92238284Y-95030813D01*
X92214251Y-95026033D01*
X92189747Y-95026033D01*
X92165714Y-95030814D01*
X92143077Y-95040190D01*
X92129309Y-95047549D01*
X92122295Y-95049677D01*
X92108860Y-95051000D01*
X91795140Y-95051000D01*
X91781705Y-95049677D01*
X91774691Y-95047549D01*
X91760923Y-95040190D01*
X91738284Y-95030813D01*
X91714251Y-95026033D01*
X91689747Y-95026033D01*
X91665714Y-95030814D01*
X91643077Y-95040190D01*
X91629309Y-95047549D01*
X91622295Y-95049677D01*
X91608860Y-95051000D01*
X91295140Y-95051000D01*
X91281705Y-95049677D01*
X91274691Y-95047549D01*
X91260923Y-95040190D01*
X91238284Y-95030813D01*
X91214251Y-95026033D01*
X91189747Y-95026033D01*
X91165714Y-95030814D01*
X91143077Y-95040190D01*
X91129309Y-95047549D01*
X91122295Y-95049677D01*
X91108860Y-95051000D01*
X90795140Y-95051000D01*
X90781705Y-95049677D01*
X90774691Y-95047549D01*
X90760923Y-95040190D01*
X90738284Y-95030813D01*
X90714251Y-95026033D01*
X90689747Y-95026033D01*
X90665714Y-95030814D01*
X90643077Y-95040190D01*
X90629309Y-95047549D01*
X90622295Y-95049677D01*
X90608860Y-95051000D01*
X90295140Y-95051000D01*
X90281705Y-95049677D01*
X90274691Y-95047549D01*
X90260923Y-95040190D01*
X90238284Y-95030813D01*
X90214251Y-95026033D01*
X90189747Y-95026033D01*
X90165714Y-95030814D01*
X90143077Y-95040190D01*
X90129309Y-95047549D01*
X90122295Y-95049677D01*
X90108860Y-95051000D01*
X89795140Y-95051000D01*
X89781705Y-95049677D01*
X89774691Y-95047549D01*
X89760923Y-95040190D01*
X89738284Y-95030813D01*
X89714251Y-95026033D01*
X89689747Y-95026033D01*
X89665714Y-95030814D01*
X89643077Y-95040190D01*
X89629309Y-95047549D01*
X89622295Y-95049677D01*
X89608860Y-95051000D01*
X89295140Y-95051000D01*
X89281705Y-95049677D01*
X89274690Y-95047549D01*
X89268224Y-95044092D01*
X89262558Y-95039442D01*
X89257908Y-95033776D01*
X89254451Y-95027310D01*
X89252323Y-95020295D01*
X89251000Y-95006860D01*
X89251000Y-93518140D01*
X89252323Y-93504705D01*
X89254451Y-93497690D01*
X89257908Y-93491224D01*
X89262558Y-93485558D01*
X89268224Y-93480908D01*
X89274690Y-93477451D01*
X89281705Y-93475323D01*
X89295140Y-93474000D01*
X89608860Y-93474000D01*
X89622295Y-93475323D01*
G37*
G36*
X61772012Y-93083927D02*
G01*
X61921312Y-93113624D01*
X62085284Y-93181544D01*
X62232854Y-93280147D01*
X62358353Y-93405646D01*
X62456956Y-93553216D01*
X62524876Y-93717188D01*
X62559500Y-93891259D01*
X62559500Y-94068741D01*
X62524876Y-94242812D01*
X62456956Y-94406784D01*
X62358353Y-94554354D01*
X62232854Y-94679853D01*
X62085284Y-94778456D01*
X61921312Y-94846376D01*
X61772012Y-94876073D01*
X61747242Y-94881000D01*
X61569758Y-94881000D01*
X61544988Y-94876073D01*
X61395688Y-94846376D01*
X61231716Y-94778456D01*
X61084146Y-94679853D01*
X60958647Y-94554354D01*
X60860044Y-94406784D01*
X60792124Y-94242812D01*
X60757500Y-94068741D01*
X60757500Y-93891259D01*
X60792124Y-93717188D01*
X60860044Y-93553216D01*
X60958647Y-93405646D01*
X61084146Y-93280147D01*
X61231716Y-93181544D01*
X61395688Y-93113624D01*
X61544988Y-93083927D01*
X61569758Y-93079000D01*
X61747242Y-93079000D01*
X61772012Y-93083927D01*
G37*
G36*
X65099500Y-94881000D02*
G01*
X63297500Y-94881000D01*
X63297500Y-93079000D01*
X65099500Y-93079000D01*
X65099500Y-94881000D01*
G37*
G36*
X57417562Y-93220681D02*
G01*
X57452481Y-93231274D01*
X57484663Y-93248476D01*
X57512873Y-93271627D01*
X57536024Y-93299837D01*
X57553226Y-93332019D01*
X57563819Y-93366938D01*
X57568000Y-93409395D01*
X57568000Y-94550605D01*
X57563819Y-94593062D01*
X57553226Y-94627981D01*
X57536024Y-94660163D01*
X57512873Y-94688373D01*
X57484663Y-94711524D01*
X57452481Y-94728726D01*
X57417562Y-94739319D01*
X57375105Y-94743500D01*
X55908895Y-94743500D01*
X55866438Y-94739319D01*
X55831519Y-94728726D01*
X55799337Y-94711524D01*
X55771127Y-94688373D01*
X55747976Y-94660163D01*
X55730774Y-94627981D01*
X55720181Y-94593062D01*
X55716000Y-94550605D01*
X55716000Y-93409395D01*
X55720181Y-93366938D01*
X55730774Y-93332019D01*
X55747976Y-93299837D01*
X55771127Y-93271627D01*
X55799337Y-93248476D01*
X55831519Y-93231274D01*
X55866438Y-93220681D01*
X55908895Y-93216500D01*
X57375105Y-93216500D01*
X57417562Y-93220681D01*
G37*
G36*
X98168999Y-93648945D02*
G01*
X98206495Y-93660320D01*
X98241054Y-93678792D01*
X98271347Y-93703653D01*
X98296208Y-93733946D01*
X98314680Y-93768505D01*
X98326055Y-93806001D01*
X98330500Y-93851138D01*
X98330500Y-94489862D01*
X98326055Y-94534999D01*
X98314680Y-94572495D01*
X98296208Y-94607054D01*
X98271347Y-94637347D01*
X98241054Y-94662208D01*
X98206495Y-94680680D01*
X98168999Y-94692055D01*
X98123862Y-94696500D01*
X97385138Y-94696500D01*
X97340001Y-94692055D01*
X97302505Y-94680680D01*
X97267946Y-94662208D01*
X97237653Y-94637347D01*
X97212792Y-94607054D01*
X97194320Y-94572495D01*
X97182945Y-94534999D01*
X97178500Y-94489862D01*
X97178500Y-93851138D01*
X97182945Y-93806001D01*
X97194320Y-93768505D01*
X97212792Y-93733946D01*
X97237653Y-93703653D01*
X97267946Y-93678792D01*
X97302505Y-93660320D01*
X97340001Y-93648945D01*
X97385138Y-93644500D01*
X98123862Y-93644500D01*
X98168999Y-93648945D01*
G37*
G36*
X99918999Y-93648945D02*
G01*
X99956495Y-93660320D01*
X99991054Y-93678792D01*
X100021347Y-93703653D01*
X100046208Y-93733946D01*
X100064680Y-93768505D01*
X100076055Y-93806001D01*
X100080500Y-93851138D01*
X100080500Y-94489862D01*
X100076055Y-94534999D01*
X100064680Y-94572495D01*
X100046208Y-94607054D01*
X100021347Y-94637347D01*
X99991054Y-94662208D01*
X99956495Y-94680680D01*
X99918999Y-94692055D01*
X99873862Y-94696500D01*
X99135138Y-94696500D01*
X99090001Y-94692055D01*
X99052505Y-94680680D01*
X99017946Y-94662208D01*
X98987653Y-94637347D01*
X98962792Y-94607054D01*
X98944320Y-94572495D01*
X98932945Y-94534999D01*
X98928500Y-94489862D01*
X98928500Y-93851138D01*
X98932945Y-93806001D01*
X98944320Y-93768505D01*
X98962792Y-93733946D01*
X98987653Y-93703653D01*
X99017946Y-93678792D01*
X99052505Y-93660320D01*
X99090001Y-93648945D01*
X99135138Y-93644500D01*
X99873862Y-93644500D01*
X99918999Y-93648945D01*
G37*
G36*
X69934855Y-93174140D02*
G01*
X69998618Y-93180420D01*
X70089404Y-93207960D01*
X70121336Y-93217646D01*
X70234425Y-93278094D01*
X70333554Y-93359446D01*
X70414906Y-93458575D01*
X70475354Y-93571664D01*
X70475355Y-93571668D01*
X70512580Y-93694382D01*
X70525149Y-93822000D01*
X70512580Y-93949618D01*
X70498949Y-93994553D01*
X70475354Y-94072336D01*
X70414906Y-94185425D01*
X70333554Y-94284554D01*
X70234425Y-94365906D01*
X70121336Y-94426354D01*
X70097778Y-94433500D01*
X69998618Y-94463580D01*
X69943272Y-94469031D01*
X69902974Y-94473000D01*
X69289026Y-94473000D01*
X69248728Y-94469031D01*
X69193382Y-94463580D01*
X69094222Y-94433500D01*
X69070664Y-94426354D01*
X68957575Y-94365906D01*
X68858446Y-94284554D01*
X68777094Y-94185425D01*
X68716646Y-94072336D01*
X68693051Y-93994553D01*
X68679420Y-93949618D01*
X68666851Y-93822000D01*
X68679420Y-93694382D01*
X68716645Y-93571668D01*
X68716646Y-93571664D01*
X68777094Y-93458575D01*
X68858446Y-93359446D01*
X68957575Y-93278094D01*
X69070664Y-93217646D01*
X69102596Y-93207960D01*
X69193382Y-93180420D01*
X69257145Y-93174140D01*
X69289026Y-93171000D01*
X69902974Y-93171000D01*
X69934855Y-93174140D01*
G37*
G36*
X109520999Y-92646445D02*
G01*
X109558495Y-92657820D01*
X109593054Y-92676292D01*
X109623347Y-92701153D01*
X109648208Y-92731446D01*
X109666680Y-92766005D01*
X109678055Y-92803501D01*
X109682500Y-92848638D01*
X109682500Y-93587362D01*
X109678055Y-93632499D01*
X109666680Y-93669995D01*
X109648208Y-93704554D01*
X109623347Y-93734847D01*
X109593054Y-93759708D01*
X109558495Y-93778180D01*
X109520999Y-93789555D01*
X109475862Y-93794000D01*
X108837138Y-93794000D01*
X108792001Y-93789555D01*
X108754505Y-93778180D01*
X108719946Y-93759708D01*
X108689653Y-93734847D01*
X108664792Y-93704554D01*
X108646320Y-93669995D01*
X108634945Y-93632499D01*
X108630500Y-93587362D01*
X108630500Y-92848638D01*
X108634945Y-92803501D01*
X108646320Y-92766005D01*
X108664792Y-92731446D01*
X108689653Y-92701153D01*
X108719946Y-92676292D01*
X108754505Y-92657820D01*
X108792001Y-92646445D01*
X108837138Y-92642000D01*
X109475862Y-92642000D01*
X109520999Y-92646445D01*
G37*
G36*
X88375499Y-92201945D02*
G01*
X88412995Y-92213320D01*
X88447554Y-92231792D01*
X88477847Y-92256653D01*
X88502708Y-92286946D01*
X88521180Y-92321505D01*
X88532555Y-92359001D01*
X88537000Y-92404138D01*
X88537000Y-93142862D01*
X88532555Y-93187999D01*
X88521180Y-93225495D01*
X88502708Y-93260054D01*
X88477847Y-93290347D01*
X88447554Y-93315208D01*
X88412995Y-93333680D01*
X88375499Y-93345055D01*
X88330362Y-93349500D01*
X87691638Y-93349500D01*
X87646501Y-93345055D01*
X87609005Y-93333680D01*
X87574446Y-93315208D01*
X87544153Y-93290347D01*
X87519292Y-93260054D01*
X87500820Y-93225495D01*
X87489445Y-93187999D01*
X87485000Y-93142862D01*
X87485000Y-92404138D01*
X87489445Y-92359001D01*
X87500820Y-92321505D01*
X87519292Y-92286946D01*
X87544153Y-92256653D01*
X87574446Y-92231792D01*
X87609005Y-92213320D01*
X87646501Y-92201945D01*
X87691638Y-92197500D01*
X88330362Y-92197500D01*
X88375499Y-92201945D01*
G37*
G36*
X125123331Y-89613711D02*
G01*
X125451092Y-89749474D01*
X125746070Y-89946572D01*
X125996928Y-90197430D01*
X126194026Y-90492408D01*
X126329789Y-90820169D01*
X126399000Y-91168116D01*
X126399000Y-91522884D01*
X126329789Y-91870831D01*
X126194026Y-92198592D01*
X125996928Y-92493570D01*
X125746070Y-92744428D01*
X125451092Y-92941526D01*
X125123331Y-93077289D01*
X124775384Y-93146500D01*
X124420616Y-93146500D01*
X124072669Y-93077289D01*
X123744908Y-92941526D01*
X123449930Y-92744428D01*
X123199072Y-92493570D01*
X123001974Y-92198592D01*
X122866211Y-91870831D01*
X122797000Y-91522884D01*
X122797000Y-91168116D01*
X122866211Y-90820169D01*
X123001974Y-90492408D01*
X123199072Y-90197430D01*
X123449930Y-89946572D01*
X123744908Y-89749474D01*
X124072669Y-89613711D01*
X124420616Y-89544500D01*
X124775384Y-89544500D01*
X125123331Y-89613711D01*
G37*
G36*
X51897500Y-92618000D02*
G01*
X47795500Y-92618000D01*
X47795500Y-90516000D01*
X51897500Y-90516000D01*
X51897500Y-92618000D01*
G37*
G36*
X35897500Y-92618000D02*
G01*
X31795500Y-92618000D01*
X31795500Y-90516000D01*
X35897500Y-90516000D01*
X35897500Y-92618000D01*
G37*
G36*
X69934855Y-91174140D02*
G01*
X69998618Y-91180420D01*
X70089404Y-91207960D01*
X70121336Y-91217646D01*
X70234425Y-91278094D01*
X70333554Y-91359446D01*
X70414906Y-91458575D01*
X70475354Y-91571664D01*
X70475355Y-91571668D01*
X70512580Y-91694382D01*
X70525149Y-91822000D01*
X70512580Y-91949618D01*
X70485040Y-92040404D01*
X70475354Y-92072336D01*
X70414906Y-92185425D01*
X70333554Y-92284554D01*
X70234425Y-92365906D01*
X70121336Y-92426354D01*
X70089404Y-92436040D01*
X69998618Y-92463580D01*
X69934855Y-92469860D01*
X69902974Y-92473000D01*
X69289026Y-92473000D01*
X69257145Y-92469860D01*
X69193382Y-92463580D01*
X69102596Y-92436040D01*
X69070664Y-92426354D01*
X68957575Y-92365906D01*
X68858446Y-92284554D01*
X68777094Y-92185425D01*
X68716646Y-92072336D01*
X68706960Y-92040404D01*
X68679420Y-91949618D01*
X68666851Y-91822000D01*
X68679420Y-91694382D01*
X68716645Y-91571668D01*
X68716646Y-91571664D01*
X68777094Y-91458575D01*
X68858446Y-91359446D01*
X68957575Y-91278094D01*
X69070664Y-91217646D01*
X69102596Y-91207960D01*
X69193382Y-91180420D01*
X69257145Y-91174140D01*
X69289026Y-91171000D01*
X69902974Y-91171000D01*
X69934855Y-91174140D01*
G37*
G36*
X88375499Y-90451945D02*
G01*
X88412995Y-90463320D01*
X88447554Y-90481792D01*
X88477847Y-90506653D01*
X88502708Y-90536946D01*
X88521180Y-90571505D01*
X88532555Y-90609001D01*
X88537000Y-90654138D01*
X88537000Y-91392862D01*
X88532555Y-91437999D01*
X88521180Y-91475495D01*
X88502708Y-91510054D01*
X88477847Y-91540347D01*
X88447554Y-91565208D01*
X88412995Y-91583680D01*
X88375499Y-91595055D01*
X88330362Y-91599500D01*
X87691638Y-91599500D01*
X87646501Y-91595055D01*
X87609005Y-91583680D01*
X87574446Y-91565208D01*
X87544153Y-91540347D01*
X87519292Y-91510054D01*
X87500820Y-91475495D01*
X87489445Y-91437999D01*
X87485000Y-91392862D01*
X87485000Y-90654138D01*
X87489445Y-90609001D01*
X87500820Y-90571505D01*
X87519292Y-90536946D01*
X87544153Y-90506653D01*
X87574446Y-90481792D01*
X87609005Y-90463320D01*
X87646501Y-90451945D01*
X87691638Y-90447500D01*
X88330362Y-90447500D01*
X88375499Y-90451945D01*
G37*
G36*
X84329298Y-89843747D02*
G01*
X84364867Y-89854537D01*
X84397639Y-89872054D01*
X84426369Y-89895631D01*
X84449946Y-89924361D01*
X84467463Y-89957133D01*
X84478253Y-89992702D01*
X84482500Y-90035825D01*
X84482500Y-91320175D01*
X84478253Y-91363298D01*
X84467463Y-91398867D01*
X84449946Y-91431639D01*
X84426369Y-91460369D01*
X84397639Y-91483946D01*
X84364867Y-91501463D01*
X84329298Y-91512253D01*
X84286175Y-91516500D01*
X83226825Y-91516500D01*
X83183702Y-91512253D01*
X83148133Y-91501463D01*
X83115361Y-91483946D01*
X83086631Y-91460369D01*
X83063054Y-91431639D01*
X83045537Y-91398867D01*
X83034747Y-91363298D01*
X83030500Y-91320175D01*
X83030500Y-90035825D01*
X83034747Y-89992702D01*
X83045537Y-89957133D01*
X83063054Y-89924361D01*
X83086631Y-89895631D01*
X83115361Y-89872054D01*
X83148133Y-89854537D01*
X83183702Y-89843747D01*
X83226825Y-89839500D01*
X84286175Y-89839500D01*
X84329298Y-89843747D01*
G37*
G36*
X98183000Y-91325000D02*
G01*
X96381000Y-91325000D01*
X96381000Y-89523000D01*
X98183000Y-89523000D01*
X98183000Y-91325000D01*
G37*
G36*
X105015512Y-89527927D02*
G01*
X105164812Y-89557624D01*
X105328784Y-89625544D01*
X105476354Y-89724147D01*
X105601853Y-89849646D01*
X105700456Y-89997216D01*
X105768376Y-90161188D01*
X105803000Y-90335259D01*
X105803000Y-90512741D01*
X105768376Y-90686812D01*
X105700456Y-90850784D01*
X105601853Y-90998354D01*
X105476354Y-91123853D01*
X105328784Y-91222456D01*
X105164812Y-91290376D01*
X105015512Y-91320073D01*
X104990742Y-91325000D01*
X104813258Y-91325000D01*
X104788488Y-91320073D01*
X104639188Y-91290376D01*
X104475216Y-91222456D01*
X104327646Y-91123853D01*
X104202147Y-90998354D01*
X104103544Y-90850784D01*
X104035624Y-90686812D01*
X104001000Y-90512741D01*
X104001000Y-90335259D01*
X104035624Y-90161188D01*
X104103544Y-89997216D01*
X104202147Y-89849646D01*
X104327646Y-89724147D01*
X104475216Y-89625544D01*
X104639188Y-89557624D01*
X104788488Y-89527927D01*
X104813258Y-89523000D01*
X104990742Y-89523000D01*
X105015512Y-89527927D01*
G37*
G36*
X99935512Y-89527927D02*
G01*
X100084812Y-89557624D01*
X100248784Y-89625544D01*
X100396354Y-89724147D01*
X100521853Y-89849646D01*
X100620456Y-89997216D01*
X100688376Y-90161188D01*
X100723000Y-90335259D01*
X100723000Y-90512741D01*
X100688376Y-90686812D01*
X100620456Y-90850784D01*
X100521853Y-90998354D01*
X100396354Y-91123853D01*
X100248784Y-91222456D01*
X100084812Y-91290376D01*
X99935512Y-91320073D01*
X99910742Y-91325000D01*
X99733258Y-91325000D01*
X99708488Y-91320073D01*
X99559188Y-91290376D01*
X99395216Y-91222456D01*
X99247646Y-91123853D01*
X99122147Y-90998354D01*
X99023544Y-90850784D01*
X98955624Y-90686812D01*
X98921000Y-90512741D01*
X98921000Y-90335259D01*
X98955624Y-90161188D01*
X99023544Y-89997216D01*
X99122147Y-89849646D01*
X99247646Y-89724147D01*
X99395216Y-89625544D01*
X99559188Y-89557624D01*
X99708488Y-89527927D01*
X99733258Y-89523000D01*
X99910742Y-89523000D01*
X99935512Y-89527927D01*
G37*
G36*
X102475512Y-89527927D02*
G01*
X102624812Y-89557624D01*
X102788784Y-89625544D01*
X102936354Y-89724147D01*
X103061853Y-89849646D01*
X103160456Y-89997216D01*
X103228376Y-90161188D01*
X103263000Y-90335259D01*
X103263000Y-90512741D01*
X103228376Y-90686812D01*
X103160456Y-90850784D01*
X103061853Y-90998354D01*
X102936354Y-91123853D01*
X102788784Y-91222456D01*
X102624812Y-91290376D01*
X102475512Y-91320073D01*
X102450742Y-91325000D01*
X102273258Y-91325000D01*
X102248488Y-91320073D01*
X102099188Y-91290376D01*
X101935216Y-91222456D01*
X101787646Y-91123853D01*
X101662147Y-90998354D01*
X101563544Y-90850784D01*
X101495624Y-90686812D01*
X101461000Y-90512741D01*
X101461000Y-90335259D01*
X101495624Y-90161188D01*
X101563544Y-89997216D01*
X101662147Y-89849646D01*
X101787646Y-89724147D01*
X101935216Y-89625544D01*
X102099188Y-89557624D01*
X102248488Y-89527927D01*
X102273258Y-89523000D01*
X102450742Y-89523000D01*
X102475512Y-89527927D01*
G37*
G36*
X65099500Y-91134500D02*
G01*
X63297500Y-91134500D01*
X63297500Y-89332500D01*
X65099500Y-89332500D01*
X65099500Y-91134500D01*
G37*
G36*
X61772012Y-89337427D02*
G01*
X61921312Y-89367124D01*
X62085284Y-89435044D01*
X62232854Y-89533647D01*
X62358353Y-89659146D01*
X62456956Y-89806716D01*
X62524876Y-89970688D01*
X62559500Y-90144759D01*
X62559500Y-90322241D01*
X62524876Y-90496312D01*
X62456956Y-90660284D01*
X62358353Y-90807854D01*
X62232854Y-90933353D01*
X62085284Y-91031956D01*
X61921312Y-91099876D01*
X61772012Y-91129573D01*
X61747242Y-91134500D01*
X61569758Y-91134500D01*
X61544988Y-91129573D01*
X61395688Y-91099876D01*
X61231716Y-91031956D01*
X61084146Y-90933353D01*
X60958647Y-90807854D01*
X60860044Y-90660284D01*
X60792124Y-90496312D01*
X60757500Y-90322241D01*
X60757500Y-90144759D01*
X60792124Y-89970688D01*
X60860044Y-89806716D01*
X60958647Y-89659146D01*
X61084146Y-89533647D01*
X61231716Y-89435044D01*
X61395688Y-89367124D01*
X61544988Y-89337427D01*
X61569758Y-89332500D01*
X61747242Y-89332500D01*
X61772012Y-89337427D01*
G37*
G36*
X35897500Y-90078000D02*
G01*
X31795500Y-90078000D01*
X31795500Y-87976000D01*
X35897500Y-87976000D01*
X35897500Y-90078000D01*
G37*
G36*
X51897500Y-90078000D02*
G01*
X47795500Y-90078000D01*
X47795500Y-87976000D01*
X51897500Y-87976000D01*
X51897500Y-90078000D01*
G37*
G36*
X84329298Y-86968747D02*
G01*
X84364867Y-86979537D01*
X84397639Y-86997054D01*
X84426369Y-87020631D01*
X84449946Y-87049361D01*
X84467463Y-87082133D01*
X84478253Y-87117702D01*
X84482500Y-87160825D01*
X84482500Y-88445175D01*
X84478253Y-88488298D01*
X84467463Y-88523867D01*
X84449946Y-88556639D01*
X84426369Y-88585369D01*
X84397639Y-88608946D01*
X84364867Y-88626463D01*
X84329298Y-88637253D01*
X84286175Y-88641500D01*
X83226825Y-88641500D01*
X83183702Y-88637253D01*
X83148133Y-88626463D01*
X83115361Y-88608946D01*
X83086631Y-88585369D01*
X83063054Y-88556639D01*
X83045537Y-88523867D01*
X83034747Y-88488298D01*
X83030500Y-88445175D01*
X83030500Y-87160825D01*
X83034747Y-87117702D01*
X83045537Y-87082133D01*
X83063054Y-87049361D01*
X83086631Y-87020631D01*
X83115361Y-86997054D01*
X83148133Y-86979537D01*
X83183702Y-86968747D01*
X83226825Y-86964500D01*
X84286175Y-86964500D01*
X84329298Y-86968747D01*
G37*
G36*
X120919500Y-87987500D02*
G01*
X119117500Y-87987500D01*
X119117500Y-85885500D01*
X120919500Y-85885500D01*
X120919500Y-87987500D01*
G37*
G36*
X126369500Y-87987500D02*
G01*
X124567500Y-87987500D01*
X124567500Y-85885500D01*
X126369500Y-85885500D01*
X126369500Y-87987500D01*
G37*
G36*
X62009499Y-86854445D02*
G01*
X62046995Y-86865820D01*
X62081554Y-86884292D01*
X62111847Y-86909153D01*
X62136708Y-86939446D01*
X62155180Y-86974005D01*
X62166555Y-87011501D01*
X62171000Y-87056638D01*
X62171000Y-87695362D01*
X62166555Y-87740499D01*
X62155180Y-87777995D01*
X62136708Y-87812554D01*
X62111847Y-87842847D01*
X62081554Y-87867708D01*
X62046995Y-87886180D01*
X62009499Y-87897555D01*
X61964362Y-87902000D01*
X61225638Y-87902000D01*
X61180501Y-87897555D01*
X61143005Y-87886180D01*
X61108446Y-87867708D01*
X61078153Y-87842847D01*
X61053292Y-87812554D01*
X61034820Y-87777995D01*
X61023445Y-87740499D01*
X61019000Y-87695362D01*
X61019000Y-87056638D01*
X61023445Y-87011501D01*
X61034820Y-86974005D01*
X61053292Y-86939446D01*
X61078153Y-86909153D01*
X61108446Y-86884292D01*
X61143005Y-86865820D01*
X61180501Y-86854445D01*
X61225638Y-86850000D01*
X61964362Y-86850000D01*
X62009499Y-86854445D01*
G37*
G36*
X60259499Y-86854445D02*
G01*
X60296995Y-86865820D01*
X60331554Y-86884292D01*
X60361847Y-86909153D01*
X60386708Y-86939446D01*
X60405180Y-86974005D01*
X60416555Y-87011501D01*
X60421000Y-87056638D01*
X60421000Y-87695362D01*
X60416555Y-87740499D01*
X60405180Y-87777995D01*
X60386708Y-87812554D01*
X60361847Y-87842847D01*
X60331554Y-87867708D01*
X60296995Y-87886180D01*
X60259499Y-87897555D01*
X60214362Y-87902000D01*
X59475638Y-87902000D01*
X59430501Y-87897555D01*
X59393005Y-87886180D01*
X59358446Y-87867708D01*
X59328153Y-87842847D01*
X59303292Y-87812554D01*
X59284820Y-87777995D01*
X59273445Y-87740499D01*
X59269000Y-87695362D01*
X59269000Y-87056638D01*
X59273445Y-87011501D01*
X59284820Y-86974005D01*
X59303292Y-86939446D01*
X59328153Y-86909153D01*
X59358446Y-86884292D01*
X59393005Y-86865820D01*
X59430501Y-86854445D01*
X59475638Y-86850000D01*
X60214362Y-86850000D01*
X60259499Y-86854445D01*
G37*
G36*
X115867000Y-87843500D02*
G01*
X114765000Y-87843500D01*
X114765000Y-86741500D01*
X115867000Y-86741500D01*
X115867000Y-87843500D01*
G37*
G36*
X90982012Y-85971927D02*
G01*
X91131312Y-86001624D01*
X91295284Y-86069544D01*
X91442854Y-86168147D01*
X91568353Y-86293646D01*
X91666956Y-86441216D01*
X91734876Y-86605188D01*
X91769500Y-86779259D01*
X91769500Y-86956741D01*
X91734876Y-87130812D01*
X91666956Y-87294784D01*
X91568353Y-87442354D01*
X91442854Y-87567853D01*
X91295284Y-87666456D01*
X91131312Y-87734376D01*
X90982012Y-87764073D01*
X90957242Y-87769000D01*
X90779758Y-87769000D01*
X90754988Y-87764073D01*
X90605688Y-87734376D01*
X90441716Y-87666456D01*
X90294146Y-87567853D01*
X90168647Y-87442354D01*
X90070044Y-87294784D01*
X90002124Y-87130812D01*
X89967500Y-86956741D01*
X89967500Y-86779259D01*
X90002124Y-86605188D01*
X90070044Y-86441216D01*
X90168647Y-86293646D01*
X90294146Y-86168147D01*
X90441716Y-86069544D01*
X90605688Y-86001624D01*
X90754988Y-85971927D01*
X90779758Y-85967000D01*
X90957242Y-85967000D01*
X90982012Y-85971927D01*
G37*
G36*
X96849500Y-87769000D02*
G01*
X95047500Y-87769000D01*
X95047500Y-85967000D01*
X96849500Y-85967000D01*
X96849500Y-87769000D01*
G37*
G36*
X88442012Y-85971927D02*
G01*
X88591312Y-86001624D01*
X88755284Y-86069544D01*
X88902854Y-86168147D01*
X89028353Y-86293646D01*
X89126956Y-86441216D01*
X89194876Y-86605188D01*
X89229500Y-86779259D01*
X89229500Y-86956741D01*
X89194876Y-87130812D01*
X89126956Y-87294784D01*
X89028353Y-87442354D01*
X88902854Y-87567853D01*
X88755284Y-87666456D01*
X88591312Y-87734376D01*
X88442012Y-87764073D01*
X88417242Y-87769000D01*
X88239758Y-87769000D01*
X88214988Y-87764073D01*
X88065688Y-87734376D01*
X87901716Y-87666456D01*
X87754146Y-87567853D01*
X87628647Y-87442354D01*
X87530044Y-87294784D01*
X87462124Y-87130812D01*
X87427500Y-86956741D01*
X87427500Y-86779259D01*
X87462124Y-86605188D01*
X87530044Y-86441216D01*
X87628647Y-86293646D01*
X87754146Y-86168147D01*
X87901716Y-86069544D01*
X88065688Y-86001624D01*
X88214988Y-85971927D01*
X88239758Y-85967000D01*
X88417242Y-85967000D01*
X88442012Y-85971927D01*
G37*
G36*
X93522012Y-85971927D02*
G01*
X93671312Y-86001624D01*
X93835284Y-86069544D01*
X93982854Y-86168147D01*
X94108353Y-86293646D01*
X94206956Y-86441216D01*
X94274876Y-86605188D01*
X94309500Y-86779259D01*
X94309500Y-86956741D01*
X94274876Y-87130812D01*
X94206956Y-87294784D01*
X94108353Y-87442354D01*
X93982854Y-87567853D01*
X93835284Y-87666456D01*
X93671312Y-87734376D01*
X93522012Y-87764073D01*
X93497242Y-87769000D01*
X93319758Y-87769000D01*
X93294988Y-87764073D01*
X93145688Y-87734376D01*
X92981716Y-87666456D01*
X92834146Y-87567853D01*
X92708647Y-87442354D01*
X92610044Y-87294784D01*
X92542124Y-87130812D01*
X92507500Y-86956741D01*
X92507500Y-86779259D01*
X92542124Y-86605188D01*
X92610044Y-86441216D01*
X92708647Y-86293646D01*
X92834146Y-86168147D01*
X92981716Y-86069544D01*
X93145688Y-86001624D01*
X93294988Y-85971927D01*
X93319758Y-85967000D01*
X93497242Y-85967000D01*
X93522012Y-85971927D01*
G37*
G36*
X71357499Y-85153445D02*
G01*
X71394995Y-85164820D01*
X71429554Y-85183292D01*
X71459847Y-85208153D01*
X71484708Y-85238446D01*
X71503180Y-85273005D01*
X71514555Y-85310501D01*
X71519000Y-85355638D01*
X71519000Y-86094362D01*
X71514555Y-86139499D01*
X71503180Y-86176995D01*
X71484708Y-86211554D01*
X71459847Y-86241847D01*
X71429554Y-86266708D01*
X71394995Y-86285180D01*
X71357499Y-86296555D01*
X71312362Y-86301000D01*
X70673638Y-86301000D01*
X70628501Y-86296555D01*
X70591005Y-86285180D01*
X70556446Y-86266708D01*
X70526153Y-86241847D01*
X70501292Y-86211554D01*
X70482820Y-86176995D01*
X70471445Y-86139499D01*
X70467000Y-86094362D01*
X70467000Y-85355638D01*
X70471445Y-85310501D01*
X70482820Y-85273005D01*
X70501292Y-85238446D01*
X70526153Y-85208153D01*
X70556446Y-85183292D01*
X70591005Y-85164820D01*
X70628501Y-85153445D01*
X70673638Y-85149000D01*
X71312362Y-85149000D01*
X71357499Y-85153445D01*
G37*
G36*
X74963499Y-85203445D02*
G01*
X75000995Y-85214820D01*
X75035554Y-85233292D01*
X75065847Y-85258153D01*
X75090708Y-85288446D01*
X75109180Y-85323005D01*
X75120555Y-85360501D01*
X75125000Y-85405638D01*
X75125000Y-86044362D01*
X75120555Y-86089499D01*
X75109180Y-86126995D01*
X75090708Y-86161554D01*
X75065847Y-86191847D01*
X75035554Y-86216708D01*
X75000995Y-86235180D01*
X74963499Y-86246555D01*
X74918362Y-86251000D01*
X74179638Y-86251000D01*
X74134501Y-86246555D01*
X74097005Y-86235180D01*
X74062446Y-86216708D01*
X74032153Y-86191847D01*
X74007292Y-86161554D01*
X73988820Y-86126995D01*
X73977445Y-86089499D01*
X73973000Y-86044362D01*
X73973000Y-85405638D01*
X73977445Y-85360501D01*
X73988820Y-85323005D01*
X74007292Y-85288446D01*
X74032153Y-85258153D01*
X74062446Y-85233292D01*
X74097005Y-85214820D01*
X74134501Y-85203445D01*
X74179638Y-85199000D01*
X74918362Y-85199000D01*
X74963499Y-85203445D01*
G37*
G36*
X73213499Y-85203445D02*
G01*
X73250995Y-85214820D01*
X73285554Y-85233292D01*
X73315847Y-85258153D01*
X73340708Y-85288446D01*
X73359180Y-85323005D01*
X73370555Y-85360501D01*
X73375000Y-85405638D01*
X73375000Y-86044362D01*
X73370555Y-86089499D01*
X73359180Y-86126995D01*
X73340708Y-86161554D01*
X73315847Y-86191847D01*
X73285554Y-86216708D01*
X73250995Y-86235180D01*
X73213499Y-86246555D01*
X73168362Y-86251000D01*
X72429638Y-86251000D01*
X72384501Y-86246555D01*
X72347005Y-86235180D01*
X72312446Y-86216708D01*
X72282153Y-86191847D01*
X72257292Y-86161554D01*
X72238820Y-86126995D01*
X72227445Y-86089499D01*
X72223000Y-86044362D01*
X72223000Y-85405638D01*
X72227445Y-85360501D01*
X72238820Y-85323005D01*
X72257292Y-85288446D01*
X72282153Y-85258153D01*
X72312446Y-85233292D01*
X72347005Y-85214820D01*
X72384501Y-85203445D01*
X72429638Y-85199000D01*
X73168362Y-85199000D01*
X73213499Y-85203445D01*
G37*
G36*
X61945999Y-85076445D02*
G01*
X61983495Y-85087820D01*
X62018054Y-85106292D01*
X62048347Y-85131153D01*
X62073208Y-85161446D01*
X62091680Y-85196005D01*
X62103055Y-85233501D01*
X62107500Y-85278638D01*
X62107500Y-85917362D01*
X62103055Y-85962499D01*
X62091680Y-85999995D01*
X62073208Y-86034554D01*
X62048347Y-86064847D01*
X62018054Y-86089708D01*
X61983495Y-86108180D01*
X61945999Y-86119555D01*
X61900862Y-86124000D01*
X61162138Y-86124000D01*
X61117001Y-86119555D01*
X61079505Y-86108180D01*
X61044946Y-86089708D01*
X61014653Y-86064847D01*
X60989792Y-86034554D01*
X60971320Y-85999995D01*
X60959945Y-85962499D01*
X60955500Y-85917362D01*
X60955500Y-85278638D01*
X60959945Y-85233501D01*
X60971320Y-85196005D01*
X60989792Y-85161446D01*
X61014653Y-85131153D01*
X61044946Y-85106292D01*
X61079505Y-85087820D01*
X61117001Y-85076445D01*
X61162138Y-85072000D01*
X61900862Y-85072000D01*
X61945999Y-85076445D01*
G37*
G36*
X60195999Y-85076445D02*
G01*
X60233495Y-85087820D01*
X60268054Y-85106292D01*
X60298347Y-85131153D01*
X60323208Y-85161446D01*
X60341680Y-85196005D01*
X60353055Y-85233501D01*
X60357500Y-85278638D01*
X60357500Y-85917362D01*
X60353055Y-85962499D01*
X60341680Y-85999995D01*
X60323208Y-86034554D01*
X60298347Y-86064847D01*
X60268054Y-86089708D01*
X60233495Y-86108180D01*
X60195999Y-86119555D01*
X60150862Y-86124000D01*
X59412138Y-86124000D01*
X59367001Y-86119555D01*
X59329505Y-86108180D01*
X59294946Y-86089708D01*
X59264653Y-86064847D01*
X59239792Y-86034554D01*
X59221320Y-85999995D01*
X59209945Y-85962499D01*
X59205500Y-85917362D01*
X59205500Y-85278638D01*
X59209945Y-85233501D01*
X59221320Y-85196005D01*
X59239792Y-85161446D01*
X59264653Y-85131153D01*
X59294946Y-85106292D01*
X59329505Y-85087820D01*
X59367001Y-85076445D01*
X59412138Y-85072000D01*
X60150862Y-85072000D01*
X60195999Y-85076445D01*
G37*
G36*
X115867000Y-85343500D02*
G01*
X114765000Y-85343500D01*
X114765000Y-84241500D01*
X115867000Y-84241500D01*
X115867000Y-85343500D01*
G37*
G36*
X122779221Y-84156674D02*
G01*
X122879495Y-84198209D01*
X122879496Y-84198210D01*
X122969742Y-84258510D01*
X123046490Y-84335258D01*
X123052573Y-84344362D01*
X123106791Y-84425505D01*
X123148326Y-84525779D01*
X123169500Y-84632230D01*
X123169500Y-84740770D01*
X123148326Y-84847221D01*
X123106791Y-84947495D01*
X123106790Y-84947496D01*
X123046490Y-85037742D01*
X122969742Y-85114490D01*
X122944804Y-85131153D01*
X122879495Y-85174791D01*
X122779221Y-85216326D01*
X122672770Y-85237500D01*
X122564230Y-85237500D01*
X122457779Y-85216326D01*
X122357505Y-85174791D01*
X122292196Y-85131153D01*
X122267258Y-85114490D01*
X122190510Y-85037742D01*
X122130210Y-84947496D01*
X122130209Y-84947495D01*
X122088674Y-84847221D01*
X122067500Y-84740770D01*
X122067500Y-84632230D01*
X122088674Y-84525779D01*
X122130209Y-84425505D01*
X122184427Y-84344362D01*
X122190510Y-84335258D01*
X122267258Y-84258510D01*
X122357504Y-84198210D01*
X122357505Y-84198209D01*
X122457779Y-84156674D01*
X122564230Y-84135500D01*
X122672770Y-84135500D01*
X122779221Y-84156674D01*
G37*
G36*
X89278999Y-83679445D02*
G01*
X89316495Y-83690820D01*
X89351054Y-83709292D01*
X89381347Y-83734153D01*
X89406208Y-83764446D01*
X89424680Y-83799005D01*
X89436055Y-83836501D01*
X89440500Y-83881638D01*
X89440500Y-84520362D01*
X89436055Y-84565499D01*
X89424680Y-84602995D01*
X89406208Y-84637554D01*
X89381347Y-84667847D01*
X89351054Y-84692708D01*
X89316495Y-84711180D01*
X89278999Y-84722555D01*
X89233862Y-84727000D01*
X88495138Y-84727000D01*
X88450001Y-84722555D01*
X88412505Y-84711180D01*
X88377946Y-84692708D01*
X88347653Y-84667847D01*
X88322792Y-84637554D01*
X88304320Y-84602995D01*
X88292945Y-84565499D01*
X88288500Y-84520362D01*
X88288500Y-83881638D01*
X88292945Y-83836501D01*
X88304320Y-83799005D01*
X88322792Y-83764446D01*
X88347653Y-83734153D01*
X88377946Y-83709292D01*
X88412505Y-83690820D01*
X88450001Y-83679445D01*
X88495138Y-83675000D01*
X89233862Y-83675000D01*
X89278999Y-83679445D01*
G37*
G36*
X91028999Y-83679445D02*
G01*
X91066495Y-83690820D01*
X91101054Y-83709292D01*
X91131347Y-83734153D01*
X91156208Y-83764446D01*
X91174680Y-83799005D01*
X91186055Y-83836501D01*
X91190500Y-83881638D01*
X91190500Y-84520362D01*
X91186055Y-84565499D01*
X91174680Y-84602995D01*
X91156208Y-84637554D01*
X91131347Y-84667847D01*
X91101054Y-84692708D01*
X91066495Y-84711180D01*
X91028999Y-84722555D01*
X90983862Y-84727000D01*
X90245138Y-84727000D01*
X90200001Y-84722555D01*
X90162505Y-84711180D01*
X90127946Y-84692708D01*
X90097653Y-84667847D01*
X90072792Y-84637554D01*
X90054320Y-84602995D01*
X90042945Y-84565499D01*
X90038500Y-84520362D01*
X90038500Y-83881638D01*
X90042945Y-83836501D01*
X90054320Y-83799005D01*
X90072792Y-83764446D01*
X90097653Y-83734153D01*
X90127946Y-83709292D01*
X90162505Y-83690820D01*
X90200001Y-83679445D01*
X90245138Y-83675000D01*
X90983862Y-83675000D01*
X91028999Y-83679445D01*
G37*
G36*
X71357499Y-83403445D02*
G01*
X71394995Y-83414820D01*
X71429554Y-83433292D01*
X71459847Y-83458153D01*
X71484708Y-83488446D01*
X71503180Y-83523005D01*
X71514555Y-83560501D01*
X71519000Y-83605638D01*
X71519000Y-84344362D01*
X71514555Y-84389499D01*
X71503180Y-84426995D01*
X71484708Y-84461554D01*
X71459847Y-84491847D01*
X71429554Y-84516708D01*
X71394995Y-84535180D01*
X71357499Y-84546555D01*
X71312362Y-84551000D01*
X70673638Y-84551000D01*
X70628501Y-84546555D01*
X70591005Y-84535180D01*
X70556446Y-84516708D01*
X70526153Y-84491847D01*
X70501292Y-84461554D01*
X70482820Y-84426995D01*
X70471445Y-84389499D01*
X70467000Y-84344362D01*
X70467000Y-83605638D01*
X70471445Y-83560501D01*
X70482820Y-83523005D01*
X70501292Y-83488446D01*
X70526153Y-83458153D01*
X70556446Y-83433292D01*
X70591005Y-83414820D01*
X70628501Y-83403445D01*
X70673638Y-83399000D01*
X71312362Y-83399000D01*
X71357499Y-83403445D01*
G37*
G36*
X104252000Y-84461500D02*
G01*
X102250000Y-84461500D01*
X102250000Y-83559500D01*
X104252000Y-83559500D01*
X104252000Y-84461500D01*
G37*
G36*
X73224500Y-84455500D02*
G01*
X72322500Y-84455500D01*
X72322500Y-82453500D01*
X73224500Y-82453500D01*
X73224500Y-84455500D01*
G37*
G36*
X75124500Y-84455500D02*
G01*
X74222500Y-84455500D01*
X74222500Y-82453500D01*
X75124500Y-82453500D01*
X75124500Y-84455500D01*
G37*
G36*
X120969500Y-84387500D02*
G01*
X118867500Y-84387500D01*
X118867500Y-80585500D01*
X120969500Y-80585500D01*
X120969500Y-84387500D01*
G37*
G36*
X101033999Y-83107945D02*
G01*
X101071495Y-83119320D01*
X101106054Y-83137792D01*
X101136347Y-83162653D01*
X101161208Y-83192946D01*
X101179680Y-83227505D01*
X101191055Y-83265001D01*
X101195500Y-83310138D01*
X101195500Y-83948862D01*
X101191055Y-83993999D01*
X101179680Y-84031495D01*
X101161208Y-84066054D01*
X101136347Y-84096347D01*
X101106054Y-84121208D01*
X101071495Y-84139680D01*
X101033999Y-84151055D01*
X100988862Y-84155500D01*
X100250138Y-84155500D01*
X100205001Y-84151055D01*
X100167505Y-84139680D01*
X100132946Y-84121208D01*
X100102653Y-84096347D01*
X100077792Y-84066054D01*
X100059320Y-84031495D01*
X100047945Y-83993999D01*
X100043500Y-83948862D01*
X100043500Y-83310138D01*
X100047945Y-83265001D01*
X100059320Y-83227505D01*
X100077792Y-83192946D01*
X100102653Y-83162653D01*
X100132946Y-83137792D01*
X100167505Y-83119320D01*
X100205001Y-83107945D01*
X100250138Y-83103500D01*
X100988862Y-83103500D01*
X101033999Y-83107945D01*
G37*
G36*
X99283999Y-83107945D02*
G01*
X99321495Y-83119320D01*
X99356054Y-83137792D01*
X99386347Y-83162653D01*
X99411208Y-83192946D01*
X99429680Y-83227505D01*
X99441055Y-83265001D01*
X99445500Y-83310138D01*
X99445500Y-83948862D01*
X99441055Y-83993999D01*
X99429680Y-84031495D01*
X99411208Y-84066054D01*
X99386347Y-84096347D01*
X99356054Y-84121208D01*
X99321495Y-84139680D01*
X99283999Y-84151055D01*
X99238862Y-84155500D01*
X98500138Y-84155500D01*
X98455001Y-84151055D01*
X98417505Y-84139680D01*
X98382946Y-84121208D01*
X98352653Y-84096347D01*
X98327792Y-84066054D01*
X98309320Y-84031495D01*
X98297945Y-83993999D01*
X98293500Y-83948862D01*
X98293500Y-83310138D01*
X98297945Y-83265001D01*
X98309320Y-83227505D01*
X98327792Y-83192946D01*
X98352653Y-83162653D01*
X98382946Y-83137792D01*
X98417505Y-83119320D01*
X98455001Y-83107945D01*
X98500138Y-83103500D01*
X99238862Y-83103500D01*
X99283999Y-83107945D01*
G37*
G36*
X87359499Y-82740445D02*
G01*
X87396995Y-82751820D01*
X87431554Y-82770292D01*
X87461847Y-82795153D01*
X87486708Y-82825446D01*
X87505180Y-82860005D01*
X87516555Y-82897501D01*
X87521000Y-82942638D01*
X87521000Y-83681362D01*
X87516555Y-83726499D01*
X87505180Y-83763995D01*
X87486708Y-83798554D01*
X87461847Y-83828847D01*
X87431554Y-83853708D01*
X87396995Y-83872180D01*
X87359499Y-83883555D01*
X87314362Y-83888000D01*
X86675638Y-83888000D01*
X86630501Y-83883555D01*
X86593005Y-83872180D01*
X86558446Y-83853708D01*
X86528153Y-83828847D01*
X86503292Y-83798554D01*
X86484820Y-83763995D01*
X86473445Y-83726499D01*
X86469000Y-83681362D01*
X86469000Y-82942638D01*
X86473445Y-82897501D01*
X86484820Y-82860005D01*
X86503292Y-82825446D01*
X86528153Y-82795153D01*
X86558446Y-82770292D01*
X86593005Y-82751820D01*
X86630501Y-82740445D01*
X86675638Y-82736000D01*
X87314362Y-82736000D01*
X87359499Y-82740445D01*
G37*
G36*
X80628499Y-82740445D02*
G01*
X80665995Y-82751820D01*
X80700554Y-82770292D01*
X80730847Y-82795153D01*
X80755708Y-82825446D01*
X80774180Y-82860005D01*
X80785555Y-82897501D01*
X80790000Y-82942638D01*
X80790000Y-83681362D01*
X80785555Y-83726499D01*
X80774180Y-83763995D01*
X80755708Y-83798554D01*
X80730847Y-83828847D01*
X80700554Y-83853708D01*
X80665995Y-83872180D01*
X80628499Y-83883555D01*
X80583362Y-83888000D01*
X79944638Y-83888000D01*
X79899501Y-83883555D01*
X79862005Y-83872180D01*
X79827446Y-83853708D01*
X79797153Y-83828847D01*
X79772292Y-83798554D01*
X79753820Y-83763995D01*
X79742445Y-83726499D01*
X79738000Y-83681362D01*
X79738000Y-82942638D01*
X79742445Y-82897501D01*
X79753820Y-82860005D01*
X79772292Y-82825446D01*
X79797153Y-82795153D01*
X79827446Y-82770292D01*
X79862005Y-82751820D01*
X79899501Y-82740445D01*
X79944638Y-82736000D01*
X80583362Y-82736000D01*
X80628499Y-82740445D01*
G37*
G36*
X107252000Y-83511500D02*
G01*
X105250000Y-83511500D01*
X105250000Y-82609500D01*
X107252000Y-82609500D01*
X107252000Y-83511500D01*
G37*
G36*
X45856000Y-83122000D02*
G01*
X44954000Y-83122000D01*
X44954000Y-81120000D01*
X45856000Y-81120000D01*
X45856000Y-83122000D01*
G37*
G36*
X99283999Y-81520445D02*
G01*
X99321495Y-81531820D01*
X99356054Y-81550292D01*
X99386347Y-81575153D01*
X99411208Y-81605446D01*
X99429680Y-81640005D01*
X99441055Y-81677501D01*
X99445500Y-81722638D01*
X99445500Y-82361362D01*
X99441055Y-82406499D01*
X99429680Y-82443995D01*
X99411208Y-82478554D01*
X99386347Y-82508847D01*
X99356054Y-82533708D01*
X99321495Y-82552180D01*
X99283999Y-82563555D01*
X99238862Y-82568000D01*
X98500138Y-82568000D01*
X98455001Y-82563555D01*
X98417505Y-82552180D01*
X98382946Y-82533708D01*
X98352653Y-82508847D01*
X98327792Y-82478554D01*
X98309320Y-82443995D01*
X98297945Y-82406499D01*
X98293500Y-82361362D01*
X98293500Y-81722638D01*
X98297945Y-81677501D01*
X98309320Y-81640005D01*
X98327792Y-81605446D01*
X98352653Y-81575153D01*
X98382946Y-81550292D01*
X98417505Y-81531820D01*
X98455001Y-81520445D01*
X98500138Y-81516000D01*
X99238862Y-81516000D01*
X99283999Y-81520445D01*
G37*
G36*
X101033999Y-81520445D02*
G01*
X101071495Y-81531820D01*
X101106054Y-81550292D01*
X101136347Y-81575153D01*
X101161208Y-81605446D01*
X101179680Y-81640005D01*
X101191055Y-81677501D01*
X101195500Y-81722638D01*
X101195500Y-82361362D01*
X101191055Y-82406499D01*
X101179680Y-82443995D01*
X101161208Y-82478554D01*
X101136347Y-82508847D01*
X101106054Y-82533708D01*
X101071495Y-82552180D01*
X101033999Y-82563555D01*
X100988862Y-82568000D01*
X100250138Y-82568000D01*
X100205001Y-82563555D01*
X100167505Y-82552180D01*
X100132946Y-82533708D01*
X100102653Y-82508847D01*
X100077792Y-82478554D01*
X100059320Y-82443995D01*
X100047945Y-82406499D01*
X100043500Y-82361362D01*
X100043500Y-81722638D01*
X100047945Y-81677501D01*
X100059320Y-81640005D01*
X100077792Y-81605446D01*
X100102653Y-81575153D01*
X100132946Y-81550292D01*
X100167505Y-81531820D01*
X100205001Y-81520445D01*
X100250138Y-81516000D01*
X100988862Y-81516000D01*
X101033999Y-81520445D01*
G37*
G36*
X104252000Y-82561500D02*
G01*
X102250000Y-82561500D01*
X102250000Y-81659500D01*
X104252000Y-81659500D01*
X104252000Y-82561500D01*
G37*
G36*
X80628499Y-80990445D02*
G01*
X80665995Y-81001820D01*
X80700554Y-81020292D01*
X80730847Y-81045153D01*
X80755708Y-81075446D01*
X80774180Y-81110005D01*
X80785555Y-81147501D01*
X80790000Y-81192638D01*
X80790000Y-81931362D01*
X80785555Y-81976499D01*
X80774180Y-82013995D01*
X80755708Y-82048554D01*
X80730847Y-82078847D01*
X80700554Y-82103708D01*
X80665995Y-82122180D01*
X80628499Y-82133555D01*
X80583362Y-82138000D01*
X79944638Y-82138000D01*
X79899501Y-82133555D01*
X79862005Y-82122180D01*
X79827446Y-82103708D01*
X79797153Y-82078847D01*
X79772292Y-82048554D01*
X79753820Y-82013995D01*
X79742445Y-81976499D01*
X79738000Y-81931362D01*
X79738000Y-81192638D01*
X79742445Y-81147501D01*
X79753820Y-81110005D01*
X79772292Y-81075446D01*
X79797153Y-81045153D01*
X79827446Y-81020292D01*
X79862005Y-81001820D01*
X79899501Y-80990445D01*
X79944638Y-80986000D01*
X80583362Y-80986000D01*
X80628499Y-80990445D01*
G37*
G36*
X87359499Y-80990445D02*
G01*
X87396995Y-81001820D01*
X87431554Y-81020292D01*
X87461847Y-81045153D01*
X87486708Y-81075446D01*
X87505180Y-81110005D01*
X87516555Y-81147501D01*
X87521000Y-81192638D01*
X87521000Y-81931362D01*
X87516555Y-81976499D01*
X87505180Y-82013995D01*
X87486708Y-82048554D01*
X87461847Y-82078847D01*
X87431554Y-82103708D01*
X87396995Y-82122180D01*
X87359499Y-82133555D01*
X87314362Y-82138000D01*
X86675638Y-82138000D01*
X86630501Y-82133555D01*
X86593005Y-82122180D01*
X86558446Y-82103708D01*
X86528153Y-82078847D01*
X86503292Y-82048554D01*
X86484820Y-82013995D01*
X86473445Y-81976499D01*
X86469000Y-81931362D01*
X86469000Y-81192638D01*
X86473445Y-81147501D01*
X86484820Y-81110005D01*
X86503292Y-81075446D01*
X86528153Y-81045153D01*
X86558446Y-81020292D01*
X86593005Y-81001820D01*
X86630501Y-80990445D01*
X86675638Y-80986000D01*
X87314362Y-80986000D01*
X87359499Y-80990445D01*
G37*
G36*
X63789000Y-81505500D02*
G01*
X61687000Y-81505500D01*
X61687000Y-79403500D01*
X63789000Y-79403500D01*
X63789000Y-81505500D01*
G37*
G36*
X70644564Y-79443889D02*
G01*
X70835833Y-79523115D01*
X70835835Y-79523116D01*
X71007973Y-79638135D01*
X71154365Y-79784527D01*
X71255082Y-79935260D01*
X71269385Y-79956667D01*
X71348611Y-80147936D01*
X71389000Y-80350984D01*
X71389000Y-80558016D01*
X71348611Y-80761064D01*
X71316950Y-80837500D01*
X71269384Y-80952335D01*
X71154365Y-81124473D01*
X71007973Y-81270865D01*
X70835835Y-81385884D01*
X70835834Y-81385885D01*
X70835833Y-81385885D01*
X70644564Y-81465111D01*
X70441516Y-81505500D01*
X70234484Y-81505500D01*
X70031436Y-81465111D01*
X69840167Y-81385885D01*
X69840166Y-81385885D01*
X69840165Y-81385884D01*
X69668027Y-81270865D01*
X69521635Y-81124473D01*
X69406616Y-80952335D01*
X69359050Y-80837500D01*
X69327389Y-80761064D01*
X69287000Y-80558016D01*
X69287000Y-80350984D01*
X69327389Y-80147936D01*
X69406615Y-79956667D01*
X69420919Y-79935260D01*
X69521635Y-79784527D01*
X69668027Y-79638135D01*
X69840165Y-79523116D01*
X69840167Y-79523115D01*
X70031436Y-79443889D01*
X70234484Y-79403500D01*
X70441516Y-79403500D01*
X70644564Y-79443889D01*
G37*
G36*
X74174500Y-81455500D02*
G01*
X73272500Y-81455500D01*
X73272500Y-79453500D01*
X74174500Y-79453500D01*
X74174500Y-81455500D01*
G37*
G36*
X116596000Y-81396500D02*
G01*
X114494000Y-81396500D01*
X114494000Y-79794500D01*
X116596000Y-79794500D01*
X116596000Y-81396500D01*
G37*
G36*
X122779221Y-79756674D02*
G01*
X122879495Y-79798209D01*
X122879496Y-79798210D01*
X122969742Y-79858510D01*
X123046490Y-79935258D01*
X123060795Y-79956667D01*
X123106791Y-80025505D01*
X123148326Y-80125779D01*
X123169500Y-80232230D01*
X123169500Y-80340770D01*
X123148326Y-80447221D01*
X123106791Y-80547495D01*
X123106790Y-80547496D01*
X123046490Y-80637742D01*
X122969742Y-80714490D01*
X122924312Y-80744845D01*
X122879495Y-80774791D01*
X122779221Y-80816326D01*
X122672770Y-80837500D01*
X122564230Y-80837500D01*
X122457779Y-80816326D01*
X122357505Y-80774791D01*
X122312688Y-80744845D01*
X122267258Y-80714490D01*
X122190510Y-80637742D01*
X122130210Y-80547496D01*
X122130209Y-80547495D01*
X122088674Y-80447221D01*
X122067500Y-80340770D01*
X122067500Y-80232230D01*
X122088674Y-80125779D01*
X122130209Y-80025505D01*
X122176205Y-79956667D01*
X122190510Y-79935258D01*
X122267258Y-79858510D01*
X122357504Y-79798210D01*
X122357505Y-79798209D01*
X122457779Y-79756674D01*
X122564230Y-79735500D01*
X122672770Y-79735500D01*
X122779221Y-79756674D01*
G37*
G36*
X110296000Y-80246500D02*
G01*
X108194000Y-80246500D01*
X108194000Y-76344500D01*
X110296000Y-76344500D01*
X110296000Y-80246500D01*
G37*
G36*
X44906000Y-80122000D02*
G01*
X44004000Y-80122000D01*
X44004000Y-78120000D01*
X44906000Y-78120000D01*
X44906000Y-80122000D01*
G37*
G36*
X46806000Y-80122000D02*
G01*
X45904000Y-80122000D01*
X45904000Y-78120000D01*
X46806000Y-78120000D01*
X46806000Y-80122000D01*
G37*
G36*
X57875256Y-75891298D02*
G01*
X57981579Y-75912447D01*
X58282042Y-76036903D01*
X58552451Y-76217585D01*
X58782415Y-76447549D01*
X58957347Y-76709353D01*
X58963098Y-76717960D01*
X58970891Y-76736775D01*
X59073917Y-76985500D01*
X59087553Y-77018422D01*
X59151000Y-77337389D01*
X59151000Y-77662611D01*
X59124971Y-77793466D01*
X59087553Y-77981579D01*
X58963097Y-78282042D01*
X58782415Y-78552451D01*
X58552451Y-78782415D01*
X58282042Y-78963097D01*
X57981579Y-79087553D01*
X57936599Y-79096500D01*
X57662611Y-79151000D01*
X57337389Y-79151000D01*
X57063401Y-79096500D01*
X57018421Y-79087553D01*
X56717958Y-78963097D01*
X56447549Y-78782415D01*
X56217585Y-78552451D01*
X56036903Y-78282042D01*
X55912447Y-77981579D01*
X55875029Y-77793466D01*
X55849000Y-77662611D01*
X55849000Y-77337389D01*
X55912447Y-77018422D01*
X55926084Y-76985500D01*
X56029109Y-76736775D01*
X56036902Y-76717960D01*
X56042653Y-76709353D01*
X56217585Y-76447549D01*
X56447549Y-76217585D01*
X56717958Y-76036903D01*
X57018421Y-75912447D01*
X57124744Y-75891298D01*
X57337389Y-75849000D01*
X57662611Y-75849000D01*
X57875256Y-75891298D01*
G37*
G36*
X33875256Y-75891298D02*
G01*
X33981579Y-75912447D01*
X34282042Y-76036903D01*
X34552451Y-76217585D01*
X34782415Y-76447549D01*
X34957347Y-76709353D01*
X34963098Y-76717960D01*
X34970891Y-76736775D01*
X35073917Y-76985500D01*
X35087553Y-77018422D01*
X35151000Y-77337389D01*
X35151000Y-77662611D01*
X35124971Y-77793466D01*
X35087553Y-77981579D01*
X34963097Y-78282042D01*
X34782415Y-78552451D01*
X34552451Y-78782415D01*
X34282042Y-78963097D01*
X33981579Y-79087553D01*
X33936599Y-79096500D01*
X33662611Y-79151000D01*
X33337389Y-79151000D01*
X33063401Y-79096500D01*
X33018421Y-79087553D01*
X32717958Y-78963097D01*
X32447549Y-78782415D01*
X32217585Y-78552451D01*
X32036903Y-78282042D01*
X31912447Y-77981579D01*
X31875029Y-77793466D01*
X31849000Y-77662611D01*
X31849000Y-77337389D01*
X31912447Y-77018422D01*
X31926084Y-76985500D01*
X32029109Y-76736775D01*
X32036902Y-76717960D01*
X32042653Y-76709353D01*
X32217585Y-76447549D01*
X32447549Y-76217585D01*
X32717958Y-76036903D01*
X33018421Y-75912447D01*
X33124744Y-75891298D01*
X33337389Y-75849000D01*
X33662611Y-75849000D01*
X33875256Y-75891298D01*
G37*
G36*
X116596000Y-79096500D02*
G01*
X114494000Y-79096500D01*
X114494000Y-77494500D01*
X116596000Y-77494500D01*
X116596000Y-79096500D01*
G37*
G36*
X126369500Y-79087500D02*
G01*
X124567500Y-79087500D01*
X124567500Y-76985500D01*
X126369500Y-76985500D01*
X126369500Y-79087500D01*
G37*
G36*
X120919500Y-79087500D02*
G01*
X119117500Y-79087500D01*
X119117500Y-76985500D01*
X120919500Y-76985500D01*
X120919500Y-79087500D01*
G37*
G36*
X103875256Y-75391298D02*
G01*
X103981579Y-75412447D01*
X104282042Y-75536903D01*
X104552451Y-75717585D01*
X104782415Y-75947549D01*
X104963097Y-76217958D01*
X105080020Y-76500234D01*
X105087553Y-76518422D01*
X105142867Y-76796500D01*
X105151000Y-76837391D01*
X105151000Y-77162609D01*
X105087553Y-77481579D01*
X104963097Y-77782042D01*
X104782415Y-78052451D01*
X104552451Y-78282415D01*
X104282042Y-78463097D01*
X103981579Y-78587553D01*
X103875256Y-78608702D01*
X103662611Y-78651000D01*
X103337389Y-78651000D01*
X103124744Y-78608702D01*
X103018421Y-78587553D01*
X102717958Y-78463097D01*
X102447549Y-78282415D01*
X102217585Y-78052451D01*
X102036903Y-77782042D01*
X101912447Y-77481579D01*
X101849000Y-77162609D01*
X101849000Y-76837391D01*
X101857134Y-76796500D01*
X101912447Y-76518422D01*
X101919981Y-76500234D01*
X102036903Y-76217958D01*
X102217585Y-75947549D01*
X102447549Y-75717585D01*
X102717958Y-75536903D01*
X103018421Y-75412447D01*
X103124744Y-75391298D01*
X103337389Y-75349000D01*
X103662611Y-75349000D01*
X103875256Y-75391298D01*
G37*
G36*
X85406000Y-78294000D02*
G01*
X83504000Y-78294000D01*
X83504000Y-76392000D01*
X85406000Y-76392000D01*
X85406000Y-78294000D01*
G37*
G36*
X87272395Y-76428546D02*
G01*
X87445466Y-76500234D01*
X87472686Y-76518422D01*
X87601227Y-76604310D01*
X87733690Y-76736773D01*
X87733691Y-76736775D01*
X87837766Y-76892534D01*
X87909454Y-77065605D01*
X87946000Y-77249333D01*
X87946000Y-77436667D01*
X87909454Y-77620395D01*
X87837766Y-77793466D01*
X87837765Y-77793467D01*
X87733690Y-77949227D01*
X87601227Y-78081690D01*
X87543892Y-78120000D01*
X87445466Y-78185766D01*
X87272395Y-78257454D01*
X87088667Y-78294000D01*
X86901333Y-78294000D01*
X86717605Y-78257454D01*
X86544534Y-78185766D01*
X86446108Y-78120000D01*
X86388773Y-78081690D01*
X86256310Y-77949227D01*
X86152235Y-77793467D01*
X86152234Y-77793466D01*
X86080546Y-77620395D01*
X86044000Y-77436667D01*
X86044000Y-77249333D01*
X86080546Y-77065605D01*
X86152234Y-76892534D01*
X86256309Y-76736775D01*
X86256310Y-76736773D01*
X86388773Y-76604310D01*
X86517314Y-76518422D01*
X86544534Y-76500234D01*
X86717605Y-76428546D01*
X86901333Y-76392000D01*
X87088667Y-76392000D01*
X87272395Y-76428546D01*
G37*
G36*
X78675000Y-78294000D02*
G01*
X76773000Y-78294000D01*
X76773000Y-76392000D01*
X78675000Y-76392000D01*
X78675000Y-78294000D01*
G37*
G36*
X80541395Y-76428546D02*
G01*
X80714466Y-76500234D01*
X80741686Y-76518422D01*
X80870227Y-76604310D01*
X81002690Y-76736773D01*
X81002691Y-76736775D01*
X81106766Y-76892534D01*
X81178454Y-77065605D01*
X81215000Y-77249333D01*
X81215000Y-77436667D01*
X81178454Y-77620395D01*
X81106766Y-77793466D01*
X81106765Y-77793467D01*
X81002690Y-77949227D01*
X80870227Y-78081690D01*
X80812892Y-78120000D01*
X80714466Y-78185766D01*
X80541395Y-78257454D01*
X80357667Y-78294000D01*
X80170333Y-78294000D01*
X79986605Y-78257454D01*
X79813534Y-78185766D01*
X79715108Y-78120000D01*
X79657773Y-78081690D01*
X79525310Y-77949227D01*
X79421235Y-77793467D01*
X79421234Y-77793466D01*
X79349546Y-77620395D01*
X79313000Y-77436667D01*
X79313000Y-77249333D01*
X79349546Y-77065605D01*
X79421234Y-76892534D01*
X79525309Y-76736775D01*
X79525310Y-76736773D01*
X79657773Y-76604310D01*
X79786314Y-76518422D01*
X79813534Y-76500234D01*
X79986605Y-76428546D01*
X80170333Y-76392000D01*
X80357667Y-76392000D01*
X80541395Y-76428546D01*
G37*
G36*
X39382000Y-76910500D02*
G01*
X37580000Y-76910500D01*
X37580000Y-75108500D01*
X39382000Y-75108500D01*
X39382000Y-76910500D01*
G37*
G36*
X41134512Y-75113427D02*
G01*
X41283812Y-75143124D01*
X41447784Y-75211044D01*
X41595354Y-75309647D01*
X41720853Y-75435146D01*
X41819456Y-75582716D01*
X41887376Y-75746688D01*
X41922000Y-75920759D01*
X41922000Y-76098241D01*
X41887376Y-76272312D01*
X41819456Y-76436284D01*
X41720853Y-76583854D01*
X41595354Y-76709353D01*
X41447784Y-76807956D01*
X41283812Y-76875876D01*
X41134512Y-76905573D01*
X41109742Y-76910500D01*
X40932258Y-76910500D01*
X40907488Y-76905573D01*
X40758188Y-76875876D01*
X40594216Y-76807956D01*
X40446646Y-76709353D01*
X40321147Y-76583854D01*
X40222544Y-76436284D01*
X40154624Y-76272312D01*
X40120000Y-76098241D01*
X40120000Y-75920759D01*
X40154624Y-75746688D01*
X40222544Y-75582716D01*
X40321147Y-75435146D01*
X40446646Y-75309647D01*
X40594216Y-75211044D01*
X40758188Y-75143124D01*
X40907488Y-75113427D01*
X40932258Y-75108500D01*
X41109742Y-75108500D01*
X41134512Y-75113427D01*
G37*
G36*
X116596000Y-76796500D02*
G01*
X114494000Y-76796500D01*
X114494000Y-75194500D01*
X116596000Y-75194500D01*
X116596000Y-76796500D01*
G37*
G36*
X46642499Y-74979945D02*
G01*
X46679995Y-74991320D01*
X46714554Y-75009792D01*
X46744847Y-75034653D01*
X46769708Y-75064946D01*
X46788180Y-75099505D01*
X46799555Y-75137001D01*
X46804000Y-75182138D01*
X46804000Y-75820862D01*
X46799555Y-75865999D01*
X46788180Y-75903495D01*
X46769708Y-75938054D01*
X46744847Y-75968347D01*
X46714554Y-75993208D01*
X46679995Y-76011680D01*
X46642499Y-76023055D01*
X46597362Y-76027500D01*
X45858638Y-76027500D01*
X45813501Y-76023055D01*
X45776005Y-76011680D01*
X45741446Y-75993208D01*
X45711153Y-75968347D01*
X45686292Y-75938054D01*
X45667820Y-75903495D01*
X45656445Y-75865999D01*
X45652000Y-75820862D01*
X45652000Y-75182138D01*
X45656445Y-75137001D01*
X45667820Y-75099505D01*
X45686292Y-75064946D01*
X45711153Y-75034653D01*
X45741446Y-75009792D01*
X45776005Y-74991320D01*
X45813501Y-74979945D01*
X45858638Y-74975500D01*
X46597362Y-74975500D01*
X46642499Y-74979945D01*
G37*
G36*
X44892499Y-74979945D02*
G01*
X44929995Y-74991320D01*
X44964554Y-75009792D01*
X44994847Y-75034653D01*
X45019708Y-75064946D01*
X45038180Y-75099505D01*
X45049555Y-75137001D01*
X45054000Y-75182138D01*
X45054000Y-75820862D01*
X45049555Y-75865999D01*
X45038180Y-75903495D01*
X45019708Y-75938054D01*
X44994847Y-75968347D01*
X44964554Y-75993208D01*
X44929995Y-76011680D01*
X44892499Y-76023055D01*
X44847362Y-76027500D01*
X44108638Y-76027500D01*
X44063501Y-76023055D01*
X44026005Y-76011680D01*
X43991446Y-75993208D01*
X43961153Y-75968347D01*
X43936292Y-75938054D01*
X43917820Y-75903495D01*
X43906445Y-75865999D01*
X43902000Y-75820862D01*
X43902000Y-75182138D01*
X43906445Y-75137001D01*
X43917820Y-75099505D01*
X43936292Y-75064946D01*
X43961153Y-75034653D01*
X43991446Y-75009792D01*
X44026005Y-74991320D01*
X44063501Y-74979945D01*
X44108638Y-74975500D01*
X44847362Y-74975500D01*
X44892499Y-74979945D01*
G37*
M02*
