%TF.GenerationSoftware,KiCad,Pcbnew,5.1.10*%
%TF.CreationDate,2021-08-09T17:29:30+03:00*%
%TF.ProjectId,stm32,73746d33-322e-46b6-9963-61645f706362,rev?*%
%TF.SameCoordinates,Original*%
%TF.FileFunction,Legend,Bot*%
%TF.FilePolarity,Positive*%
%FSLAX46Y46*%
G04 Gerber Fmt 4.6, Leading zero omitted, Abs format (unit mm)*
G04 Created by KiCad (PCBNEW 5.1.10) date 2021-08-09 17:29:30*
%MOMM*%
%LPD*%
G01*
G04 APERTURE LIST*
%ADD10C,0.150000*%
%ADD11C,0.120000*%
G04 APERTURE END LIST*
D10*
X81683123Y-126918980D02*
X81683123Y-125918980D01*
X81111695Y-126918980D01*
X81111695Y-125918980D01*
X80445028Y-125918980D02*
X80254552Y-125918980D01*
X80159314Y-125966600D01*
X80064076Y-126061838D01*
X80016457Y-126252314D01*
X80016457Y-126585647D01*
X80064076Y-126776123D01*
X80159314Y-126871361D01*
X80254552Y-126918980D01*
X80445028Y-126918980D01*
X80540266Y-126871361D01*
X80635504Y-126776123D01*
X80683123Y-126585647D01*
X80683123Y-126252314D01*
X80635504Y-126061838D01*
X80540266Y-125966600D01*
X80445028Y-125918980D01*
X76655514Y-126950742D02*
X76703133Y-126998361D01*
X76845990Y-127045980D01*
X76941228Y-127045980D01*
X77084085Y-126998361D01*
X77179323Y-126903123D01*
X77226942Y-126807885D01*
X77274561Y-126617409D01*
X77274561Y-126474552D01*
X77226942Y-126284076D01*
X77179323Y-126188838D01*
X77084085Y-126093600D01*
X76941228Y-126045980D01*
X76845990Y-126045980D01*
X76703133Y-126093600D01*
X76655514Y-126141219D01*
X76036466Y-126045980D02*
X75845990Y-126045980D01*
X75750752Y-126093600D01*
X75655514Y-126188838D01*
X75607895Y-126379314D01*
X75607895Y-126712647D01*
X75655514Y-126903123D01*
X75750752Y-126998361D01*
X75845990Y-127045980D01*
X76036466Y-127045980D01*
X76131704Y-126998361D01*
X76226942Y-126903123D01*
X76274561Y-126712647D01*
X76274561Y-126379314D01*
X76226942Y-126188838D01*
X76131704Y-126093600D01*
X76036466Y-126045980D01*
X75179323Y-127045980D02*
X75179323Y-126045980D01*
X74845990Y-126760266D01*
X74512657Y-126045980D01*
X74512657Y-127045980D01*
X71651714Y-127020580D02*
X71651714Y-126020580D01*
X71080285Y-127020580D01*
X71080285Y-126020580D01*
X70032666Y-126925342D02*
X70080285Y-126972961D01*
X70223142Y-127020580D01*
X70318380Y-127020580D01*
X70461238Y-126972961D01*
X70556476Y-126877723D01*
X70604095Y-126782485D01*
X70651714Y-126592009D01*
X70651714Y-126449152D01*
X70604095Y-126258676D01*
X70556476Y-126163438D01*
X70461238Y-126068200D01*
X70318380Y-126020580D01*
X70223142Y-126020580D01*
X70080285Y-126068200D01*
X70032666Y-126115819D01*
X66427219Y-88114142D02*
X66474838Y-88161761D01*
X66617695Y-88209380D01*
X66712933Y-88209380D01*
X66855790Y-88161761D01*
X66951028Y-88066523D01*
X66998647Y-87971285D01*
X67046266Y-87780809D01*
X67046266Y-87637952D01*
X66998647Y-87447476D01*
X66951028Y-87352238D01*
X66855790Y-87257000D01*
X66712933Y-87209380D01*
X66617695Y-87209380D01*
X66474838Y-87257000D01*
X66427219Y-87304619D01*
X66046266Y-87923666D02*
X65570076Y-87923666D01*
X66141504Y-88209380D02*
X65808171Y-87209380D01*
X65474838Y-88209380D01*
X65141504Y-88209380D02*
X65141504Y-87209380D01*
X64570076Y-88209380D01*
X64570076Y-87209380D01*
X63617695Y-88209380D02*
X64093885Y-88209380D01*
X64093885Y-87209380D01*
X65895457Y-82278600D02*
X65990695Y-82230980D01*
X66133552Y-82230980D01*
X66276409Y-82278600D01*
X66371647Y-82373838D01*
X66419266Y-82469076D01*
X66466885Y-82659552D01*
X66466885Y-82802409D01*
X66419266Y-82992885D01*
X66371647Y-83088123D01*
X66276409Y-83183361D01*
X66133552Y-83230980D01*
X66038314Y-83230980D01*
X65895457Y-83183361D01*
X65847838Y-83135742D01*
X65847838Y-82802409D01*
X66038314Y-82802409D01*
X65419266Y-82564314D02*
X65419266Y-83230980D01*
X65419266Y-82659552D02*
X65371647Y-82611933D01*
X65276409Y-82564314D01*
X65133552Y-82564314D01*
X65038314Y-82611933D01*
X64990695Y-82707171D01*
X64990695Y-83230980D01*
X64085933Y-83230980D02*
X64085933Y-82230980D01*
X64085933Y-83183361D02*
X64181171Y-83230980D01*
X64371647Y-83230980D01*
X64466885Y-83183361D01*
X64514504Y-83135742D01*
X64562123Y-83040504D01*
X64562123Y-82754790D01*
X64514504Y-82659552D01*
X64466885Y-82611933D01*
X64371647Y-82564314D01*
X64181171Y-82564314D01*
X64085933Y-82611933D01*
X66444666Y-78843142D02*
X66492285Y-78890761D01*
X66635142Y-78938380D01*
X66730380Y-78938380D01*
X66873238Y-78890761D01*
X66968476Y-78795523D01*
X67016095Y-78700285D01*
X67063714Y-78509809D01*
X67063714Y-78366952D01*
X67016095Y-78176476D01*
X66968476Y-78081238D01*
X66873238Y-77986000D01*
X66730380Y-77938380D01*
X66635142Y-77938380D01*
X66492285Y-77986000D01*
X66444666Y-78033619D01*
X66063714Y-78652666D02*
X65587523Y-78652666D01*
X66158952Y-78938380D02*
X65825619Y-77938380D01*
X65492285Y-78938380D01*
X65158952Y-78938380D02*
X65158952Y-77938380D01*
X64587523Y-78938380D01*
X64587523Y-77938380D01*
X64111333Y-78938380D02*
X64111333Y-77938380D01*
X64111333Y-78414571D02*
X63539904Y-78414571D01*
X63539904Y-78938380D02*
X63539904Y-77938380D01*
X99151057Y-88078000D02*
X100008200Y-88078000D01*
X100179628Y-88020857D01*
X100293914Y-87906571D01*
X100351057Y-87735142D01*
X100351057Y-87620857D01*
X99151057Y-89220857D02*
X99151057Y-88649428D01*
X99722485Y-88592285D01*
X99665342Y-88649428D01*
X99608200Y-88763714D01*
X99608200Y-89049428D01*
X99665342Y-89163714D01*
X99722485Y-89220857D01*
X99836771Y-89278000D01*
X100122485Y-89278000D01*
X100236771Y-89220857D01*
X100293914Y-89163714D01*
X100351057Y-89049428D01*
X100351057Y-88763714D01*
X100293914Y-88649428D01*
X100236771Y-88592285D01*
X100236771Y-89792285D02*
X100293914Y-89849428D01*
X100351057Y-89792285D01*
X100293914Y-89735142D01*
X100236771Y-89792285D01*
X100351057Y-89792285D01*
X99608200Y-89792285D02*
X99665342Y-89849428D01*
X99722485Y-89792285D01*
X99665342Y-89735142D01*
X99608200Y-89792285D01*
X99722485Y-89792285D01*
X100351057Y-91278000D02*
X99151057Y-91278000D01*
X99265342Y-91792285D02*
X99208200Y-91849428D01*
X99151057Y-91963714D01*
X99151057Y-92249428D01*
X99208200Y-92363714D01*
X99265342Y-92420857D01*
X99379628Y-92478000D01*
X99493914Y-92478000D01*
X99665342Y-92420857D01*
X100351057Y-91735142D01*
X100351057Y-92478000D01*
X100236771Y-93678000D02*
X100293914Y-93620857D01*
X100351057Y-93449428D01*
X100351057Y-93335142D01*
X100293914Y-93163714D01*
X100179628Y-93049428D01*
X100065342Y-92992285D01*
X99836771Y-92935142D01*
X99665342Y-92935142D01*
X99436771Y-92992285D01*
X99322485Y-93049428D01*
X99208200Y-93163714D01*
X99151057Y-93335142D01*
X99151057Y-93449428D01*
X99208200Y-93620857D01*
X99265342Y-93678000D01*
X101101057Y-89192285D02*
X101101057Y-89935142D01*
X101558200Y-89535142D01*
X101558200Y-89706571D01*
X101615342Y-89820857D01*
X101672485Y-89878000D01*
X101786771Y-89935142D01*
X102072485Y-89935142D01*
X102186771Y-89878000D01*
X102243914Y-89820857D01*
X102301057Y-89706571D01*
X102301057Y-89363714D01*
X102243914Y-89249428D01*
X102186771Y-89192285D01*
X101101057Y-90278000D02*
X102301057Y-90678000D01*
X101101057Y-91078000D01*
X101101057Y-91363714D02*
X101101057Y-92106571D01*
X101558200Y-91706571D01*
X101558200Y-91878000D01*
X101615342Y-91992285D01*
X101672485Y-92049428D01*
X101786771Y-92106571D01*
X102072485Y-92106571D01*
X102186771Y-92049428D01*
X102243914Y-91992285D01*
X102301057Y-91878000D01*
X102301057Y-91535142D01*
X102243914Y-91420857D01*
X102186771Y-91363714D01*
X104193914Y-89249428D02*
X104251057Y-89420857D01*
X104251057Y-89706571D01*
X104193914Y-89820857D01*
X104136771Y-89878000D01*
X104022485Y-89935142D01*
X103908200Y-89935142D01*
X103793914Y-89878000D01*
X103736771Y-89820857D01*
X103679628Y-89706571D01*
X103622485Y-89478000D01*
X103565342Y-89363714D01*
X103508200Y-89306571D01*
X103393914Y-89249428D01*
X103279628Y-89249428D01*
X103165342Y-89306571D01*
X103108200Y-89363714D01*
X103051057Y-89478000D01*
X103051057Y-89763714D01*
X103108200Y-89935142D01*
X104136771Y-91135142D02*
X104193914Y-91078000D01*
X104251057Y-90906571D01*
X104251057Y-90792285D01*
X104193914Y-90620857D01*
X104079628Y-90506571D01*
X103965342Y-90449428D01*
X103736771Y-90392285D01*
X103565342Y-90392285D01*
X103336771Y-90449428D01*
X103222485Y-90506571D01*
X103108200Y-90620857D01*
X103051057Y-90792285D01*
X103051057Y-90906571D01*
X103108200Y-91078000D01*
X103165342Y-91135142D01*
X104251057Y-92220857D02*
X104251057Y-91649428D01*
X103051057Y-91649428D01*
X106143914Y-89220857D02*
X106201057Y-89392285D01*
X106201057Y-89678000D01*
X106143914Y-89792285D01*
X106086771Y-89849428D01*
X105972485Y-89906571D01*
X105858200Y-89906571D01*
X105743914Y-89849428D01*
X105686771Y-89792285D01*
X105629628Y-89678000D01*
X105572485Y-89449428D01*
X105515342Y-89335142D01*
X105458200Y-89278000D01*
X105343914Y-89220857D01*
X105229628Y-89220857D01*
X105115342Y-89278000D01*
X105058200Y-89335142D01*
X105001057Y-89449428D01*
X105001057Y-89735142D01*
X105058200Y-89906571D01*
X106201057Y-90420857D02*
X105001057Y-90420857D01*
X105001057Y-90706571D01*
X105058200Y-90878000D01*
X105172485Y-90992285D01*
X105286771Y-91049428D01*
X105515342Y-91106571D01*
X105686771Y-91106571D01*
X105915342Y-91049428D01*
X106029628Y-90992285D01*
X106143914Y-90878000D01*
X106201057Y-90706571D01*
X106201057Y-90420857D01*
X105858200Y-91563714D02*
X105858200Y-92135142D01*
X106201057Y-91449428D02*
X105001057Y-91849428D01*
X106201057Y-92249428D01*
X107008200Y-89906571D02*
X106951057Y-89792285D01*
X106951057Y-89620857D01*
X107008200Y-89449428D01*
X107122485Y-89335142D01*
X107236771Y-89278000D01*
X107465342Y-89220857D01*
X107636771Y-89220857D01*
X107865342Y-89278000D01*
X107979628Y-89335142D01*
X108093914Y-89449428D01*
X108151057Y-89620857D01*
X108151057Y-89735142D01*
X108093914Y-89906571D01*
X108036771Y-89963714D01*
X107636771Y-89963714D01*
X107636771Y-89735142D01*
X107351057Y-90478000D02*
X108151057Y-90478000D01*
X107465342Y-90478000D02*
X107408200Y-90535142D01*
X107351057Y-90649428D01*
X107351057Y-90820857D01*
X107408200Y-90935142D01*
X107522485Y-90992285D01*
X108151057Y-90992285D01*
X108151057Y-92078000D02*
X106951057Y-92078000D01*
X108093914Y-92078000D02*
X108151057Y-91963714D01*
X108151057Y-91735142D01*
X108093914Y-91620857D01*
X108036771Y-91563714D01*
X107922485Y-91506571D01*
X107579628Y-91506571D01*
X107465342Y-91563714D01*
X107408200Y-91620857D01*
X107351057Y-91735142D01*
X107351057Y-91963714D01*
X107408200Y-92078000D01*
X113401485Y-77460857D02*
X113458628Y-77632285D01*
X113515771Y-77689428D01*
X113630057Y-77746571D01*
X113801485Y-77746571D01*
X113915771Y-77689428D01*
X113972914Y-77632285D01*
X114030057Y-77518000D01*
X114030057Y-77060857D01*
X112830057Y-77060857D01*
X112830057Y-77460857D01*
X112887200Y-77575142D01*
X112944342Y-77632285D01*
X113058628Y-77689428D01*
X113172914Y-77689428D01*
X113287200Y-77632285D01*
X113344342Y-77575142D01*
X113401485Y-77460857D01*
X113401485Y-77060857D01*
X113230057Y-78775142D02*
X114030057Y-78775142D01*
X113230057Y-78260857D02*
X113858628Y-78260857D01*
X113972914Y-78318000D01*
X114030057Y-78432285D01*
X114030057Y-78603714D01*
X113972914Y-78718000D01*
X113915771Y-78775142D01*
X113230057Y-79232285D02*
X113230057Y-79860857D01*
X114030057Y-79232285D01*
X114030057Y-79860857D01*
X113230057Y-80203714D02*
X113230057Y-80832285D01*
X114030057Y-80203714D01*
X114030057Y-80832285D01*
X113972914Y-81746571D02*
X114030057Y-81632285D01*
X114030057Y-81403714D01*
X113972914Y-81289428D01*
X113858628Y-81232285D01*
X113401485Y-81232285D01*
X113287200Y-81289428D01*
X113230057Y-81403714D01*
X113230057Y-81632285D01*
X113287200Y-81746571D01*
X113401485Y-81803714D01*
X113515771Y-81803714D01*
X113630057Y-81232285D01*
X114030057Y-82318000D02*
X113230057Y-82318000D01*
X113458628Y-82318000D02*
X113344342Y-82375142D01*
X113287200Y-82432285D01*
X113230057Y-82546571D01*
X113230057Y-82660857D01*
X113572914Y-83060857D02*
X113572914Y-83975142D01*
X111394885Y-77410057D02*
X111452028Y-77581485D01*
X111509171Y-77638628D01*
X111623457Y-77695771D01*
X111794885Y-77695771D01*
X111909171Y-77638628D01*
X111966314Y-77581485D01*
X112023457Y-77467200D01*
X112023457Y-77010057D01*
X110823457Y-77010057D01*
X110823457Y-77410057D01*
X110880600Y-77524342D01*
X110937742Y-77581485D01*
X111052028Y-77638628D01*
X111166314Y-77638628D01*
X111280600Y-77581485D01*
X111337742Y-77524342D01*
X111394885Y-77410057D01*
X111394885Y-77010057D01*
X111223457Y-78724342D02*
X112023457Y-78724342D01*
X111223457Y-78210057D02*
X111852028Y-78210057D01*
X111966314Y-78267200D01*
X112023457Y-78381485D01*
X112023457Y-78552914D01*
X111966314Y-78667200D01*
X111909171Y-78724342D01*
X111223457Y-79181485D02*
X111223457Y-79810057D01*
X112023457Y-79181485D01*
X112023457Y-79810057D01*
X111223457Y-80152914D02*
X111223457Y-80781485D01*
X112023457Y-80152914D01*
X112023457Y-80781485D01*
X111966314Y-81695771D02*
X112023457Y-81581485D01*
X112023457Y-81352914D01*
X111966314Y-81238628D01*
X111852028Y-81181485D01*
X111394885Y-81181485D01*
X111280600Y-81238628D01*
X111223457Y-81352914D01*
X111223457Y-81581485D01*
X111280600Y-81695771D01*
X111394885Y-81752914D01*
X111509171Y-81752914D01*
X111623457Y-81181485D01*
X112023457Y-82267200D02*
X111223457Y-82267200D01*
X111452028Y-82267200D02*
X111337742Y-82324342D01*
X111280600Y-82381485D01*
X111223457Y-82495771D01*
X111223457Y-82610057D01*
X111566314Y-83010057D02*
X111566314Y-83924342D01*
X112023457Y-83467200D02*
X111109171Y-83467200D01*
X111108547Y-119260495D02*
X111108547Y-120189066D01*
X111170452Y-120374780D01*
X111294261Y-120498590D01*
X111479976Y-120560495D01*
X111603785Y-120560495D01*
X109808547Y-120560495D02*
X110551404Y-120560495D01*
X110179976Y-120560495D02*
X110179976Y-119260495D01*
X110303785Y-119446209D01*
X110427595Y-119570019D01*
X110551404Y-119631923D01*
X108694261Y-119693828D02*
X108694261Y-120560495D01*
X109003785Y-119198590D02*
X109313309Y-120127161D01*
X108508547Y-120127161D01*
X107022833Y-120065257D02*
X106032357Y-120065257D01*
X104484738Y-120498590D02*
X104299023Y-120560495D01*
X103989500Y-120560495D01*
X103865690Y-120498590D01*
X103803785Y-120436685D01*
X103741880Y-120312876D01*
X103741880Y-120189066D01*
X103803785Y-120065257D01*
X103865690Y-120003352D01*
X103989500Y-119941447D01*
X104237119Y-119879542D01*
X104360928Y-119817638D01*
X104422833Y-119755733D01*
X104484738Y-119631923D01*
X104484738Y-119508114D01*
X104422833Y-119384304D01*
X104360928Y-119322400D01*
X104237119Y-119260495D01*
X103927595Y-119260495D01*
X103741880Y-119322400D01*
X103370452Y-119260495D02*
X102627595Y-119260495D01*
X102999023Y-120560495D02*
X102999023Y-119260495D01*
X102194261Y-120560495D02*
X102194261Y-119260495D01*
X101699023Y-119260495D01*
X101575214Y-119322400D01*
X101513309Y-119384304D01*
X101451404Y-119508114D01*
X101451404Y-119693828D01*
X101513309Y-119817638D01*
X101575214Y-119879542D01*
X101699023Y-119941447D01*
X102194261Y-119941447D01*
X100213309Y-120560495D02*
X100956166Y-120560495D01*
X100584738Y-120560495D02*
X100584738Y-119260495D01*
X100708547Y-119446209D01*
X100832357Y-119570019D01*
X100956166Y-119631923D01*
X111108547Y-121360495D02*
X111108547Y-122289066D01*
X111170452Y-122474780D01*
X111294261Y-122598590D01*
X111479976Y-122660495D01*
X111603785Y-122660495D01*
X109808547Y-122660495D02*
X110551404Y-122660495D01*
X110179976Y-122660495D02*
X110179976Y-121360495D01*
X110303785Y-121546209D01*
X110427595Y-121670019D01*
X110551404Y-121731923D01*
X108632357Y-121360495D02*
X109251404Y-121360495D01*
X109313309Y-121979542D01*
X109251404Y-121917638D01*
X109127595Y-121855733D01*
X108818071Y-121855733D01*
X108694261Y-121917638D01*
X108632357Y-121979542D01*
X108570452Y-122103352D01*
X108570452Y-122412876D01*
X108632357Y-122536685D01*
X108694261Y-122598590D01*
X108818071Y-122660495D01*
X109127595Y-122660495D01*
X109251404Y-122598590D01*
X109313309Y-122536685D01*
X107022833Y-122165257D02*
X106032357Y-122165257D01*
X104484738Y-122598590D02*
X104299023Y-122660495D01*
X103989500Y-122660495D01*
X103865690Y-122598590D01*
X103803785Y-122536685D01*
X103741880Y-122412876D01*
X103741880Y-122289066D01*
X103803785Y-122165257D01*
X103865690Y-122103352D01*
X103989500Y-122041447D01*
X104237119Y-121979542D01*
X104360928Y-121917638D01*
X104422833Y-121855733D01*
X104484738Y-121731923D01*
X104484738Y-121608114D01*
X104422833Y-121484304D01*
X104360928Y-121422400D01*
X104237119Y-121360495D01*
X103927595Y-121360495D01*
X103741880Y-121422400D01*
X103370452Y-121360495D02*
X102627595Y-121360495D01*
X102999023Y-122660495D02*
X102999023Y-121360495D01*
X102194261Y-122660495D02*
X102194261Y-121360495D01*
X101699023Y-121360495D01*
X101575214Y-121422400D01*
X101513309Y-121484304D01*
X101451404Y-121608114D01*
X101451404Y-121793828D01*
X101513309Y-121917638D01*
X101575214Y-121979542D01*
X101699023Y-122041447D01*
X102194261Y-122041447D01*
X100956166Y-121484304D02*
X100894261Y-121422400D01*
X100770452Y-121360495D01*
X100460928Y-121360495D01*
X100337119Y-121422400D01*
X100275214Y-121484304D01*
X100213309Y-121608114D01*
X100213309Y-121731923D01*
X100275214Y-121917638D01*
X101018071Y-122660495D01*
X100213309Y-122660495D01*
X111108547Y-123460495D02*
X111108547Y-124389066D01*
X111170452Y-124574780D01*
X111294261Y-124698590D01*
X111479976Y-124760495D01*
X111603785Y-124760495D01*
X109808547Y-124760495D02*
X110551404Y-124760495D01*
X110179976Y-124760495D02*
X110179976Y-123460495D01*
X110303785Y-123646209D01*
X110427595Y-123770019D01*
X110551404Y-123831923D01*
X108694261Y-123460495D02*
X108941880Y-123460495D01*
X109065690Y-123522400D01*
X109127595Y-123584304D01*
X109251404Y-123770019D01*
X109313309Y-124017638D01*
X109313309Y-124512876D01*
X109251404Y-124636685D01*
X109189500Y-124698590D01*
X109065690Y-124760495D01*
X108818071Y-124760495D01*
X108694261Y-124698590D01*
X108632357Y-124636685D01*
X108570452Y-124512876D01*
X108570452Y-124203352D01*
X108632357Y-124079542D01*
X108694261Y-124017638D01*
X108818071Y-123955733D01*
X109065690Y-123955733D01*
X109189500Y-124017638D01*
X109251404Y-124079542D01*
X109313309Y-124203352D01*
X107022833Y-124265257D02*
X106032357Y-124265257D01*
X104484738Y-124698590D02*
X104299023Y-124760495D01*
X103989500Y-124760495D01*
X103865690Y-124698590D01*
X103803785Y-124636685D01*
X103741880Y-124512876D01*
X103741880Y-124389066D01*
X103803785Y-124265257D01*
X103865690Y-124203352D01*
X103989500Y-124141447D01*
X104237119Y-124079542D01*
X104360928Y-124017638D01*
X104422833Y-123955733D01*
X104484738Y-123831923D01*
X104484738Y-123708114D01*
X104422833Y-123584304D01*
X104360928Y-123522400D01*
X104237119Y-123460495D01*
X103927595Y-123460495D01*
X103741880Y-123522400D01*
X103370452Y-123460495D02*
X102627595Y-123460495D01*
X102999023Y-124760495D02*
X102999023Y-123460495D01*
X102194261Y-124760495D02*
X102194261Y-123460495D01*
X101699023Y-123460495D01*
X101575214Y-123522400D01*
X101513309Y-123584304D01*
X101451404Y-123708114D01*
X101451404Y-123893828D01*
X101513309Y-124017638D01*
X101575214Y-124079542D01*
X101699023Y-124141447D01*
X102194261Y-124141447D01*
X101018071Y-123460495D02*
X100213309Y-123460495D01*
X100646642Y-123955733D01*
X100460928Y-123955733D01*
X100337119Y-124017638D01*
X100275214Y-124079542D01*
X100213309Y-124203352D01*
X100213309Y-124512876D01*
X100275214Y-124636685D01*
X100337119Y-124698590D01*
X100460928Y-124760495D01*
X100832357Y-124760495D01*
X100956166Y-124698590D01*
X101018071Y-124636685D01*
X125018371Y-78190742D02*
X124351704Y-78190742D01*
X124065990Y-79238361D02*
X125018371Y-79238361D01*
X125018371Y-77238361D01*
X124065990Y-77238361D01*
X123208847Y-79238361D02*
X123208847Y-77238361D01*
X122065990Y-79238361D01*
X122065990Y-77238361D01*
X119970752Y-79047885D02*
X120065990Y-79143123D01*
X120351704Y-79238361D01*
X120542180Y-79238361D01*
X120827895Y-79143123D01*
X121018371Y-78952647D01*
X121113609Y-78762171D01*
X121208847Y-78381219D01*
X121208847Y-78095504D01*
X121113609Y-77714552D01*
X121018371Y-77524076D01*
X120827895Y-77333600D01*
X120542180Y-77238361D01*
X120351704Y-77238361D01*
X120065990Y-77333600D01*
X119970752Y-77428838D01*
X119304085Y-77238361D02*
X118065990Y-77238361D01*
X118732657Y-78000266D01*
X118446942Y-78000266D01*
X118256466Y-78095504D01*
X118161228Y-78190742D01*
X118065990Y-78381219D01*
X118065990Y-78857409D01*
X118161228Y-79047885D01*
X118256466Y-79143123D01*
X118446942Y-79238361D01*
X119018371Y-79238361D01*
X119208847Y-79143123D01*
X119304085Y-79047885D01*
X137286571Y-78343142D02*
X136619904Y-78343142D01*
X136334190Y-79390761D02*
X137286571Y-79390761D01*
X137286571Y-77390761D01*
X136334190Y-77390761D01*
X135477047Y-79390761D02*
X135477047Y-77390761D01*
X134334190Y-79390761D01*
X134334190Y-77390761D01*
X132238952Y-79200285D02*
X132334190Y-79295523D01*
X132619904Y-79390761D01*
X132810380Y-79390761D01*
X133096095Y-79295523D01*
X133286571Y-79105047D01*
X133381809Y-78914571D01*
X133477047Y-78533619D01*
X133477047Y-78247904D01*
X133381809Y-77866952D01*
X133286571Y-77676476D01*
X133096095Y-77486000D01*
X132810380Y-77390761D01*
X132619904Y-77390761D01*
X132334190Y-77486000D01*
X132238952Y-77581238D01*
X131477047Y-77581238D02*
X131381809Y-77486000D01*
X131191333Y-77390761D01*
X130715142Y-77390761D01*
X130524666Y-77486000D01*
X130429428Y-77581238D01*
X130334190Y-77771714D01*
X130334190Y-77962190D01*
X130429428Y-78247904D01*
X131572285Y-79390761D01*
X130334190Y-79390761D01*
X149656371Y-78419342D02*
X148989704Y-78419342D01*
X148703990Y-79466961D02*
X149656371Y-79466961D01*
X149656371Y-77466961D01*
X148703990Y-77466961D01*
X147846847Y-79466961D02*
X147846847Y-77466961D01*
X146703990Y-79466961D01*
X146703990Y-77466961D01*
X144608752Y-79276485D02*
X144703990Y-79371723D01*
X144989704Y-79466961D01*
X145180180Y-79466961D01*
X145465895Y-79371723D01*
X145656371Y-79181247D01*
X145751609Y-78990771D01*
X145846847Y-78609819D01*
X145846847Y-78324104D01*
X145751609Y-77943152D01*
X145656371Y-77752676D01*
X145465895Y-77562200D01*
X145180180Y-77466961D01*
X144989704Y-77466961D01*
X144703990Y-77562200D01*
X144608752Y-77657438D01*
X142703990Y-79466961D02*
X143846847Y-79466961D01*
X143275419Y-79466961D02*
X143275419Y-77466961D01*
X143465895Y-77752676D01*
X143656371Y-77943152D01*
X143846847Y-78038390D01*
X135676257Y-82810657D02*
X136533400Y-82810657D01*
X136704828Y-82753514D01*
X136819114Y-82639228D01*
X136876257Y-82467800D01*
X136876257Y-82353514D01*
X135790542Y-83324942D02*
X135733400Y-83382085D01*
X135676257Y-83496371D01*
X135676257Y-83782085D01*
X135733400Y-83896371D01*
X135790542Y-83953514D01*
X135904828Y-84010657D01*
X136019114Y-84010657D01*
X136190542Y-83953514D01*
X136876257Y-83267800D01*
X136876257Y-84010657D01*
X136419114Y-84524942D02*
X136419114Y-85439228D01*
X135676257Y-86353514D02*
X136533400Y-86353514D01*
X136704828Y-86296371D01*
X136819114Y-86182085D01*
X136876257Y-86010657D01*
X136876257Y-85896371D01*
X136076257Y-87439228D02*
X136876257Y-87439228D01*
X135619114Y-87153514D02*
X136476257Y-86867800D01*
X136476257Y-87610657D01*
X136761971Y-88067800D02*
X136819114Y-88124942D01*
X136876257Y-88067800D01*
X136819114Y-88010657D01*
X136761971Y-88067800D01*
X136876257Y-88067800D01*
X136133400Y-88067800D02*
X136190542Y-88124942D01*
X136247685Y-88067800D01*
X136190542Y-88010657D01*
X136133400Y-88067800D01*
X136247685Y-88067800D01*
X137683400Y-84353514D02*
X137626257Y-84239228D01*
X137626257Y-84067800D01*
X137683400Y-83896371D01*
X137797685Y-83782085D01*
X137911971Y-83724942D01*
X138140542Y-83667800D01*
X138311971Y-83667800D01*
X138540542Y-83724942D01*
X138654828Y-83782085D01*
X138769114Y-83896371D01*
X138826257Y-84067800D01*
X138826257Y-84182085D01*
X138769114Y-84353514D01*
X138711971Y-84410657D01*
X138311971Y-84410657D01*
X138311971Y-84182085D01*
X138826257Y-84924942D02*
X137626257Y-84924942D01*
X138826257Y-85610657D01*
X137626257Y-85610657D01*
X138826257Y-86182085D02*
X137626257Y-86182085D01*
X137626257Y-86467800D01*
X137683400Y-86639228D01*
X137797685Y-86753514D01*
X137911971Y-86810657D01*
X138140542Y-86867800D01*
X138311971Y-86867800D01*
X138540542Y-86810657D01*
X138654828Y-86753514D01*
X138769114Y-86639228D01*
X138826257Y-86467800D01*
X138826257Y-86182085D01*
X140147685Y-83267800D02*
X140147685Y-83667800D01*
X140776257Y-83839228D02*
X140776257Y-83267800D01*
X139576257Y-83267800D01*
X139576257Y-83839228D01*
X140776257Y-84353514D02*
X139576257Y-84353514D01*
X140776257Y-85039228D01*
X139576257Y-85039228D01*
X140661971Y-86296371D02*
X140719114Y-86239228D01*
X140776257Y-86067800D01*
X140776257Y-85953514D01*
X140719114Y-85782085D01*
X140604828Y-85667800D01*
X140490542Y-85610657D01*
X140261971Y-85553514D01*
X140090542Y-85553514D01*
X139861971Y-85610657D01*
X139747685Y-85667800D01*
X139633400Y-85782085D01*
X139576257Y-85953514D01*
X139576257Y-86067800D01*
X139633400Y-86239228D01*
X139690542Y-86296371D01*
X140433400Y-86753514D02*
X140433400Y-87324942D01*
X140776257Y-86639228D02*
X139576257Y-87039228D01*
X140776257Y-87439228D01*
X142097685Y-83182085D02*
X142097685Y-83582085D01*
X142726257Y-83753514D02*
X142726257Y-83182085D01*
X141526257Y-83182085D01*
X141526257Y-83753514D01*
X142726257Y-84267800D02*
X141526257Y-84267800D01*
X142726257Y-84953514D01*
X141526257Y-84953514D01*
X142611971Y-86210657D02*
X142669114Y-86153514D01*
X142726257Y-85982085D01*
X142726257Y-85867800D01*
X142669114Y-85696371D01*
X142554828Y-85582085D01*
X142440542Y-85524942D01*
X142211971Y-85467800D01*
X142040542Y-85467800D01*
X141811971Y-85524942D01*
X141697685Y-85582085D01*
X141583400Y-85696371D01*
X141526257Y-85867800D01*
X141526257Y-85982085D01*
X141583400Y-86153514D01*
X141640542Y-86210657D01*
X142097685Y-87124942D02*
X142154828Y-87296371D01*
X142211971Y-87353514D01*
X142326257Y-87410657D01*
X142497685Y-87410657D01*
X142611971Y-87353514D01*
X142669114Y-87296371D01*
X142726257Y-87182085D01*
X142726257Y-86724942D01*
X141526257Y-86724942D01*
X141526257Y-87124942D01*
X141583400Y-87239228D01*
X141640542Y-87296371D01*
X141754828Y-87353514D01*
X141869114Y-87353514D01*
X141983400Y-87296371D01*
X142040542Y-87239228D01*
X142097685Y-87124942D01*
X142097685Y-86724942D01*
X143476257Y-84467800D02*
X143476257Y-83896371D01*
X144047685Y-83839228D01*
X143990542Y-83896371D01*
X143933400Y-84010657D01*
X143933400Y-84296371D01*
X143990542Y-84410657D01*
X144047685Y-84467800D01*
X144161971Y-84524942D01*
X144447685Y-84524942D01*
X144561971Y-84467800D01*
X144619114Y-84410657D01*
X144676257Y-84296371D01*
X144676257Y-84010657D01*
X144619114Y-83896371D01*
X144561971Y-83839228D01*
X143476257Y-84867800D02*
X144676257Y-85267800D01*
X143476257Y-85667800D01*
X143476257Y-86296371D02*
X143476257Y-86410657D01*
X143533400Y-86524942D01*
X143590542Y-86582085D01*
X143704828Y-86639228D01*
X143933400Y-86696371D01*
X144219114Y-86696371D01*
X144447685Y-86639228D01*
X144561971Y-86582085D01*
X144619114Y-86524942D01*
X144676257Y-86410657D01*
X144676257Y-86296371D01*
X144619114Y-86182085D01*
X144561971Y-86124942D01*
X144447685Y-86067800D01*
X144219114Y-86010657D01*
X143933400Y-86010657D01*
X143704828Y-86067800D01*
X143590542Y-86124942D01*
X143533400Y-86182085D01*
X143476257Y-86296371D01*
X117953400Y-88306371D02*
X117896257Y-88192085D01*
X117896257Y-88020657D01*
X117953400Y-87849228D01*
X118067685Y-87734942D01*
X118181971Y-87677800D01*
X118410542Y-87620657D01*
X118581971Y-87620657D01*
X118810542Y-87677800D01*
X118924828Y-87734942D01*
X119039114Y-87849228D01*
X119096257Y-88020657D01*
X119096257Y-88134942D01*
X119039114Y-88306371D01*
X118981971Y-88363514D01*
X118581971Y-88363514D01*
X118581971Y-88134942D01*
X118296257Y-88877800D02*
X119096257Y-88877800D01*
X118410542Y-88877800D02*
X118353400Y-88934942D01*
X118296257Y-89049228D01*
X118296257Y-89220657D01*
X118353400Y-89334942D01*
X118467685Y-89392085D01*
X119096257Y-89392085D01*
X119096257Y-90477800D02*
X117896257Y-90477800D01*
X119039114Y-90477800D02*
X119096257Y-90363514D01*
X119096257Y-90134942D01*
X119039114Y-90020657D01*
X118981971Y-89963514D01*
X118867685Y-89906371D01*
X118524828Y-89906371D01*
X118410542Y-89963514D01*
X118353400Y-90020657D01*
X118296257Y-90134942D01*
X118296257Y-90363514D01*
X118353400Y-90477800D01*
X120417685Y-87706371D02*
X120474828Y-87877800D01*
X120531971Y-87934942D01*
X120646257Y-87992085D01*
X120817685Y-87992085D01*
X120931971Y-87934942D01*
X120989114Y-87877800D01*
X121046257Y-87763514D01*
X121046257Y-87306371D01*
X119846257Y-87306371D01*
X119846257Y-87706371D01*
X119903400Y-87820657D01*
X119960542Y-87877800D01*
X120074828Y-87934942D01*
X120189114Y-87934942D01*
X120303400Y-87877800D01*
X120360542Y-87820657D01*
X120417685Y-87706371D01*
X120417685Y-87306371D01*
X120246257Y-88334942D02*
X120246257Y-88792085D01*
X119846257Y-88506371D02*
X120874828Y-88506371D01*
X120989114Y-88563514D01*
X121046257Y-88677800D01*
X121046257Y-88792085D01*
X120246257Y-89192085D02*
X121046257Y-89192085D01*
X120360542Y-89192085D02*
X120303400Y-89249228D01*
X120246257Y-89363514D01*
X120246257Y-89534942D01*
X120303400Y-89649228D01*
X120417685Y-89706371D01*
X121046257Y-89706371D01*
X120246257Y-90792085D02*
X121046257Y-90792085D01*
X119789114Y-90506371D02*
X120646257Y-90220657D01*
X120646257Y-90963514D01*
X122367685Y-87706371D02*
X122424828Y-87877800D01*
X122481971Y-87934942D01*
X122596257Y-87992085D01*
X122767685Y-87992085D01*
X122881971Y-87934942D01*
X122939114Y-87877800D01*
X122996257Y-87763514D01*
X122996257Y-87306371D01*
X121796257Y-87306371D01*
X121796257Y-87706371D01*
X121853400Y-87820657D01*
X121910542Y-87877800D01*
X122024828Y-87934942D01*
X122139114Y-87934942D01*
X122253400Y-87877800D01*
X122310542Y-87820657D01*
X122367685Y-87706371D01*
X122367685Y-87306371D01*
X122196257Y-88334942D02*
X122196257Y-88792085D01*
X121796257Y-88506371D02*
X122824828Y-88506371D01*
X122939114Y-88563514D01*
X122996257Y-88677800D01*
X122996257Y-88792085D01*
X122196257Y-89192085D02*
X122996257Y-89192085D01*
X122310542Y-89192085D02*
X122253400Y-89249228D01*
X122196257Y-89363514D01*
X122196257Y-89534942D01*
X122253400Y-89649228D01*
X122367685Y-89706371D01*
X122996257Y-89706371D01*
X121796257Y-90163514D02*
X121796257Y-90906371D01*
X122253400Y-90506371D01*
X122253400Y-90677800D01*
X122310542Y-90792085D01*
X122367685Y-90849228D01*
X122481971Y-90906371D01*
X122767685Y-90906371D01*
X122881971Y-90849228D01*
X122939114Y-90792085D01*
X122996257Y-90677800D01*
X122996257Y-90334942D01*
X122939114Y-90220657D01*
X122881971Y-90163514D01*
X124317685Y-87706371D02*
X124374828Y-87877800D01*
X124431971Y-87934942D01*
X124546257Y-87992085D01*
X124717685Y-87992085D01*
X124831971Y-87934942D01*
X124889114Y-87877800D01*
X124946257Y-87763514D01*
X124946257Y-87306371D01*
X123746257Y-87306371D01*
X123746257Y-87706371D01*
X123803400Y-87820657D01*
X123860542Y-87877800D01*
X123974828Y-87934942D01*
X124089114Y-87934942D01*
X124203400Y-87877800D01*
X124260542Y-87820657D01*
X124317685Y-87706371D01*
X124317685Y-87306371D01*
X124146257Y-88334942D02*
X124146257Y-88792085D01*
X123746257Y-88506371D02*
X124774828Y-88506371D01*
X124889114Y-88563514D01*
X124946257Y-88677800D01*
X124946257Y-88792085D01*
X124146257Y-89192085D02*
X124946257Y-89192085D01*
X124260542Y-89192085D02*
X124203400Y-89249228D01*
X124146257Y-89363514D01*
X124146257Y-89534942D01*
X124203400Y-89649228D01*
X124317685Y-89706371D01*
X124946257Y-89706371D01*
X123860542Y-90220657D02*
X123803400Y-90277800D01*
X123746257Y-90392085D01*
X123746257Y-90677800D01*
X123803400Y-90792085D01*
X123860542Y-90849228D01*
X123974828Y-90906371D01*
X124089114Y-90906371D01*
X124260542Y-90849228D01*
X124946257Y-90163514D01*
X124946257Y-90906371D01*
X126267685Y-87706371D02*
X126324828Y-87877800D01*
X126381971Y-87934942D01*
X126496257Y-87992085D01*
X126667685Y-87992085D01*
X126781971Y-87934942D01*
X126839114Y-87877800D01*
X126896257Y-87763514D01*
X126896257Y-87306371D01*
X125696257Y-87306371D01*
X125696257Y-87706371D01*
X125753400Y-87820657D01*
X125810542Y-87877800D01*
X125924828Y-87934942D01*
X126039114Y-87934942D01*
X126153400Y-87877800D01*
X126210542Y-87820657D01*
X126267685Y-87706371D01*
X126267685Y-87306371D01*
X126096257Y-88334942D02*
X126096257Y-88792085D01*
X125696257Y-88506371D02*
X126724828Y-88506371D01*
X126839114Y-88563514D01*
X126896257Y-88677800D01*
X126896257Y-88792085D01*
X126096257Y-89192085D02*
X126896257Y-89192085D01*
X126210542Y-89192085D02*
X126153400Y-89249228D01*
X126096257Y-89363514D01*
X126096257Y-89534942D01*
X126153400Y-89649228D01*
X126267685Y-89706371D01*
X126896257Y-89706371D01*
X126896257Y-90906371D02*
X126896257Y-90220657D01*
X126896257Y-90563514D02*
X125696257Y-90563514D01*
X125867685Y-90449228D01*
X125981971Y-90334942D01*
X126039114Y-90220657D01*
X88514714Y-102559114D02*
X88514714Y-103473400D01*
X88971857Y-103016257D02*
X88057571Y-103016257D01*
X87771857Y-103930542D02*
X87771857Y-104673400D01*
X88229000Y-104273400D01*
X88229000Y-104444828D01*
X88286142Y-104559114D01*
X88343285Y-104616257D01*
X88457571Y-104673400D01*
X88743285Y-104673400D01*
X88857571Y-104616257D01*
X88914714Y-104559114D01*
X88971857Y-104444828D01*
X88971857Y-104101971D01*
X88914714Y-103987685D01*
X88857571Y-103930542D01*
X87771857Y-105016257D02*
X88971857Y-105416257D01*
X87771857Y-105816257D01*
X87771857Y-106101971D02*
X87771857Y-106844828D01*
X88229000Y-106444828D01*
X88229000Y-106616257D01*
X88286142Y-106730542D01*
X88343285Y-106787685D01*
X88457571Y-106844828D01*
X88743285Y-106844828D01*
X88857571Y-106787685D01*
X88914714Y-106730542D01*
X88971857Y-106616257D01*
X88971857Y-106273400D01*
X88914714Y-106159114D01*
X88857571Y-106101971D01*
X90293285Y-102587685D02*
X90293285Y-102987685D01*
X90921857Y-103159114D02*
X90921857Y-102587685D01*
X89721857Y-102587685D01*
X89721857Y-103159114D01*
X90864714Y-103616257D02*
X90921857Y-103787685D01*
X90921857Y-104073400D01*
X90864714Y-104187685D01*
X90807571Y-104244828D01*
X90693285Y-104301971D01*
X90579000Y-104301971D01*
X90464714Y-104244828D01*
X90407571Y-104187685D01*
X90350428Y-104073400D01*
X90293285Y-103844828D01*
X90236142Y-103730542D01*
X90179000Y-103673400D01*
X90064714Y-103616257D01*
X89950428Y-103616257D01*
X89836142Y-103673400D01*
X89779000Y-103730542D01*
X89721857Y-103844828D01*
X89721857Y-104130542D01*
X89779000Y-104301971D01*
X89721857Y-104701971D02*
X90921857Y-104987685D01*
X90064714Y-105216257D01*
X90921857Y-105444828D01*
X89721857Y-105730542D01*
X90921857Y-106816257D02*
X90921857Y-106130542D01*
X90921857Y-106473400D02*
X89721857Y-106473400D01*
X89893285Y-106359114D01*
X90007571Y-106244828D01*
X90064714Y-106130542D01*
X92243285Y-102587685D02*
X92243285Y-102987685D01*
X92871857Y-103159114D02*
X92871857Y-102587685D01*
X91671857Y-102587685D01*
X91671857Y-103159114D01*
X92814714Y-103616257D02*
X92871857Y-103787685D01*
X92871857Y-104073400D01*
X92814714Y-104187685D01*
X92757571Y-104244828D01*
X92643285Y-104301971D01*
X92529000Y-104301971D01*
X92414714Y-104244828D01*
X92357571Y-104187685D01*
X92300428Y-104073400D01*
X92243285Y-103844828D01*
X92186142Y-103730542D01*
X92129000Y-103673400D01*
X92014714Y-103616257D01*
X91900428Y-103616257D01*
X91786142Y-103673400D01*
X91729000Y-103730542D01*
X91671857Y-103844828D01*
X91671857Y-104130542D01*
X91729000Y-104301971D01*
X91671857Y-104701971D02*
X92871857Y-104987685D01*
X92014714Y-105216257D01*
X92871857Y-105444828D01*
X91671857Y-105730542D01*
X91786142Y-106130542D02*
X91729000Y-106187685D01*
X91671857Y-106301971D01*
X91671857Y-106587685D01*
X91729000Y-106701971D01*
X91786142Y-106759114D01*
X91900428Y-106816257D01*
X92014714Y-106816257D01*
X92186142Y-106759114D01*
X92871857Y-106073400D01*
X92871857Y-106816257D01*
X94193285Y-102587685D02*
X94193285Y-102987685D01*
X94821857Y-103159114D02*
X94821857Y-102587685D01*
X93621857Y-102587685D01*
X93621857Y-103159114D01*
X94764714Y-103616257D02*
X94821857Y-103787685D01*
X94821857Y-104073400D01*
X94764714Y-104187685D01*
X94707571Y-104244828D01*
X94593285Y-104301971D01*
X94479000Y-104301971D01*
X94364714Y-104244828D01*
X94307571Y-104187685D01*
X94250428Y-104073400D01*
X94193285Y-103844828D01*
X94136142Y-103730542D01*
X94079000Y-103673400D01*
X93964714Y-103616257D01*
X93850428Y-103616257D01*
X93736142Y-103673400D01*
X93679000Y-103730542D01*
X93621857Y-103844828D01*
X93621857Y-104130542D01*
X93679000Y-104301971D01*
X93621857Y-104701971D02*
X94821857Y-104987685D01*
X93964714Y-105216257D01*
X94821857Y-105444828D01*
X93621857Y-105730542D01*
X93621857Y-106073400D02*
X93621857Y-106816257D01*
X94079000Y-106416257D01*
X94079000Y-106587685D01*
X94136142Y-106701971D01*
X94193285Y-106759114D01*
X94307571Y-106816257D01*
X94593285Y-106816257D01*
X94707571Y-106759114D01*
X94764714Y-106701971D01*
X94821857Y-106587685D01*
X94821857Y-106244828D01*
X94764714Y-106130542D01*
X94707571Y-106073400D01*
X95629000Y-103901971D02*
X95571857Y-103787685D01*
X95571857Y-103616257D01*
X95629000Y-103444828D01*
X95743285Y-103330542D01*
X95857571Y-103273400D01*
X96086142Y-103216257D01*
X96257571Y-103216257D01*
X96486142Y-103273400D01*
X96600428Y-103330542D01*
X96714714Y-103444828D01*
X96771857Y-103616257D01*
X96771857Y-103730542D01*
X96714714Y-103901971D01*
X96657571Y-103959114D01*
X96257571Y-103959114D01*
X96257571Y-103730542D01*
X95971857Y-104473400D02*
X96771857Y-104473400D01*
X96086142Y-104473400D02*
X96029000Y-104530542D01*
X95971857Y-104644828D01*
X95971857Y-104816257D01*
X96029000Y-104930542D01*
X96143285Y-104987685D01*
X96771857Y-104987685D01*
X96771857Y-106073400D02*
X95571857Y-106073400D01*
X96714714Y-106073400D02*
X96771857Y-105959114D01*
X96771857Y-105730542D01*
X96714714Y-105616257D01*
X96657571Y-105559114D01*
X96543285Y-105501971D01*
X96200428Y-105501971D01*
X96086142Y-105559114D01*
X96029000Y-105616257D01*
X95971857Y-105730542D01*
X95971857Y-105959114D01*
X96029000Y-106073400D01*
X95554215Y-123677277D02*
X95587887Y-123576262D01*
X95688902Y-123475247D01*
X95823589Y-123407903D01*
X95958276Y-123407903D01*
X96059291Y-123441575D01*
X96227650Y-123542590D01*
X96328665Y-123643606D01*
X96429680Y-123811964D01*
X96463352Y-123912980D01*
X96463352Y-124047667D01*
X96396009Y-124182354D01*
X96328665Y-124249697D01*
X96193978Y-124317041D01*
X96126635Y-124317041D01*
X95890932Y-124081338D01*
X96025619Y-123946651D01*
X95419528Y-124216025D02*
X95890932Y-124687430D01*
X95486871Y-124283369D02*
X95419528Y-124283369D01*
X95318512Y-124317041D01*
X95217497Y-124418056D01*
X95183825Y-124519071D01*
X95217497Y-124620087D01*
X95587887Y-124990476D01*
X94948123Y-125630239D02*
X94241016Y-124923132D01*
X94914451Y-125596567D02*
X95015467Y-125562896D01*
X95150154Y-125428209D01*
X95183825Y-125327193D01*
X95183825Y-125259850D01*
X95150154Y-125158835D01*
X94948123Y-124956804D01*
X94847108Y-124923132D01*
X94779764Y-124923132D01*
X94678749Y-124956804D01*
X94544062Y-125091491D01*
X94510390Y-125192506D01*
X93811434Y-123518068D02*
X93474716Y-123854785D01*
X94080808Y-123652755D02*
X93137999Y-123181350D01*
X93609403Y-124124159D01*
X93373701Y-124359861D02*
X92666594Y-123652755D01*
X92498235Y-123821113D01*
X92430892Y-123955800D01*
X92430892Y-124090487D01*
X92464564Y-124191503D01*
X92565579Y-124359861D01*
X92666594Y-124460877D01*
X92834953Y-124561892D01*
X92935968Y-124595564D01*
X93070655Y-124595564D01*
X93205342Y-124528220D01*
X93373701Y-124359861D01*
X92195190Y-125403686D02*
X92262533Y-125403686D01*
X92397220Y-125336342D01*
X92464564Y-125268999D01*
X92531907Y-125134312D01*
X92531907Y-124999625D01*
X92498235Y-124898609D01*
X92397220Y-124730251D01*
X92296205Y-124629235D01*
X92127846Y-124528220D01*
X92026831Y-124494548D01*
X91892144Y-124494548D01*
X91757457Y-124561892D01*
X91690113Y-124629235D01*
X91622770Y-124763922D01*
X91622770Y-124831266D01*
X91353396Y-125100640D02*
X91286052Y-125100640D01*
X91185037Y-125134312D01*
X91016678Y-125302670D01*
X90983007Y-125403686D01*
X90983007Y-125471029D01*
X91016678Y-125572044D01*
X91084022Y-125639388D01*
X91218709Y-125706731D01*
X92026831Y-125706731D01*
X91589098Y-126144464D01*
X90865034Y-123518068D02*
X90528316Y-123854785D01*
X91134408Y-123652755D02*
X90191599Y-123181350D01*
X90663003Y-124124159D01*
X90427301Y-124359861D02*
X89720194Y-123652755D01*
X89551835Y-123821113D01*
X89484492Y-123955800D01*
X89484492Y-124090487D01*
X89518164Y-124191503D01*
X89619179Y-124359861D01*
X89720194Y-124460877D01*
X89888553Y-124561892D01*
X89989568Y-124595564D01*
X90124255Y-124595564D01*
X90258942Y-124528220D01*
X90427301Y-124359861D01*
X89248790Y-125403686D02*
X89316133Y-125403686D01*
X89450820Y-125336342D01*
X89518164Y-125268999D01*
X89585507Y-125134312D01*
X89585507Y-124999625D01*
X89551835Y-124898609D01*
X89450820Y-124730251D01*
X89349805Y-124629235D01*
X89181446Y-124528220D01*
X89080431Y-124494548D01*
X88945744Y-124494548D01*
X88811057Y-124561892D01*
X88743713Y-124629235D01*
X88676370Y-124763922D01*
X88676370Y-124831266D01*
X88642698Y-126144464D02*
X89046759Y-125740403D01*
X88844729Y-125942434D02*
X88137622Y-125235327D01*
X88305981Y-125268999D01*
X88440668Y-125268999D01*
X88541683Y-125235327D01*
X120249819Y-119266180D02*
X120249819Y-119980466D01*
X120297438Y-120123323D01*
X120392676Y-120218561D01*
X120535533Y-120266180D01*
X120630771Y-120266180D01*
X119249819Y-120266180D02*
X119821247Y-120266180D01*
X119535533Y-120266180D02*
X119535533Y-119266180D01*
X119630771Y-119409038D01*
X119726009Y-119504276D01*
X119821247Y-119551895D01*
X118916485Y-119266180D02*
X118249819Y-119266180D01*
X118678390Y-120266180D01*
X117868866Y-120170942D02*
X117821247Y-120218561D01*
X117868866Y-120266180D01*
X117916485Y-120218561D01*
X117868866Y-120170942D01*
X117868866Y-120266180D01*
X117868866Y-119647133D02*
X117821247Y-119694752D01*
X117868866Y-119742371D01*
X117916485Y-119694752D01*
X117868866Y-119647133D01*
X117868866Y-119742371D01*
X120583152Y-121392371D02*
X120249819Y-121392371D01*
X120106961Y-121916180D02*
X120583152Y-121916180D01*
X120583152Y-120916180D01*
X120106961Y-120916180D01*
X119773628Y-121916180D02*
X119249819Y-121249514D01*
X119773628Y-121249514D02*
X119249819Y-121916180D01*
X119011723Y-121249514D02*
X118630771Y-121249514D01*
X118868866Y-120916180D02*
X118868866Y-121773323D01*
X118821247Y-121868561D01*
X118726009Y-121916180D01*
X118630771Y-121916180D01*
X118106961Y-120916180D02*
X118011723Y-120916180D01*
X117916485Y-120963800D01*
X117868866Y-121011419D01*
X117821247Y-121106657D01*
X117773628Y-121297133D01*
X117773628Y-121535228D01*
X117821247Y-121725704D01*
X117868866Y-121820942D01*
X117916485Y-121868561D01*
X118011723Y-121916180D01*
X118106961Y-121916180D01*
X118202200Y-121868561D01*
X118249819Y-121820942D01*
X118297438Y-121725704D01*
X118345057Y-121535228D01*
X118345057Y-121297133D01*
X118297438Y-121106657D01*
X118249819Y-121011419D01*
X118202200Y-120963800D01*
X118106961Y-120916180D01*
X120583152Y-123042371D02*
X120249819Y-123042371D01*
X120106961Y-123566180D02*
X120583152Y-123566180D01*
X120583152Y-122566180D01*
X120106961Y-122566180D01*
X119773628Y-123566180D02*
X119249819Y-122899514D01*
X119773628Y-122899514D02*
X119249819Y-123566180D01*
X119011723Y-122899514D02*
X118630771Y-122899514D01*
X118868866Y-122566180D02*
X118868866Y-123423323D01*
X118821247Y-123518561D01*
X118726009Y-123566180D01*
X118630771Y-123566180D01*
X117773628Y-123566180D02*
X118345057Y-123566180D01*
X118059342Y-123566180D02*
X118059342Y-122566180D01*
X118154580Y-122709038D01*
X118249819Y-122804276D01*
X118345057Y-122851895D01*
X120583152Y-124692371D02*
X120249819Y-124692371D01*
X120106961Y-125216180D02*
X120583152Y-125216180D01*
X120583152Y-124216180D01*
X120106961Y-124216180D01*
X119773628Y-125216180D02*
X119249819Y-124549514D01*
X119773628Y-124549514D02*
X119249819Y-125216180D01*
X119011723Y-124549514D02*
X118630771Y-124549514D01*
X118868866Y-124216180D02*
X118868866Y-125073323D01*
X118821247Y-125168561D01*
X118726009Y-125216180D01*
X118630771Y-125216180D01*
X118345057Y-124311419D02*
X118297438Y-124263800D01*
X118202200Y-124216180D01*
X117964104Y-124216180D01*
X117868866Y-124263800D01*
X117821247Y-124311419D01*
X117773628Y-124406657D01*
X117773628Y-124501895D01*
X117821247Y-124644752D01*
X118392676Y-125216180D01*
X117773628Y-125216180D01*
X119845057Y-125913800D02*
X119940295Y-125866180D01*
X120083152Y-125866180D01*
X120226009Y-125913800D01*
X120321247Y-126009038D01*
X120368866Y-126104276D01*
X120416485Y-126294752D01*
X120416485Y-126437609D01*
X120368866Y-126628085D01*
X120321247Y-126723323D01*
X120226009Y-126818561D01*
X120083152Y-126866180D01*
X119987914Y-126866180D01*
X119845057Y-126818561D01*
X119797438Y-126770942D01*
X119797438Y-126437609D01*
X119987914Y-126437609D01*
X119368866Y-126199514D02*
X119368866Y-126866180D01*
X119368866Y-126294752D02*
X119321247Y-126247133D01*
X119226009Y-126199514D01*
X119083152Y-126199514D01*
X118987914Y-126247133D01*
X118940295Y-126342371D01*
X118940295Y-126866180D01*
X118035533Y-126866180D02*
X118035533Y-125866180D01*
X118035533Y-126818561D02*
X118130771Y-126866180D01*
X118321247Y-126866180D01*
X118416485Y-126818561D01*
X118464104Y-126770942D01*
X118511723Y-126675704D01*
X118511723Y-126389990D01*
X118464104Y-126294752D01*
X118416485Y-126247133D01*
X118321247Y-126199514D01*
X118130771Y-126199514D01*
X118035533Y-126247133D01*
X86058047Y-116370580D02*
X86058047Y-117084866D01*
X86105666Y-117227723D01*
X86200904Y-117322961D01*
X86343761Y-117370580D01*
X86439000Y-117370580D01*
X85058047Y-117370580D02*
X85629476Y-117370580D01*
X85343761Y-117370580D02*
X85343761Y-116370580D01*
X85439000Y-116513438D01*
X85534238Y-116608676D01*
X85629476Y-116656295D01*
X84200904Y-116703914D02*
X84200904Y-117370580D01*
X84439000Y-116322961D02*
X84677095Y-117037247D01*
X84058047Y-117037247D01*
X83677095Y-116989628D02*
X82915190Y-116989628D01*
X81915190Y-117370580D02*
X82486619Y-117370580D01*
X82200904Y-117370580D02*
X82200904Y-116370580D01*
X82296142Y-116513438D01*
X82391380Y-116608676D01*
X82486619Y-116656295D01*
X81058047Y-116370580D02*
X81248523Y-116370580D01*
X81343761Y-116418200D01*
X81391380Y-116465819D01*
X81486619Y-116608676D01*
X81534238Y-116799152D01*
X81534238Y-117180104D01*
X81486619Y-117275342D01*
X81439000Y-117322961D01*
X81343761Y-117370580D01*
X81153285Y-117370580D01*
X81058047Y-117322961D01*
X81010428Y-117275342D01*
X80962809Y-117180104D01*
X80962809Y-116942009D01*
X81010428Y-116846771D01*
X81058047Y-116799152D01*
X81153285Y-116751533D01*
X81343761Y-116751533D01*
X81439000Y-116799152D01*
X81486619Y-116846771D01*
X81534238Y-116942009D01*
X80534238Y-117275342D02*
X80486619Y-117322961D01*
X80534238Y-117370580D01*
X80581857Y-117322961D01*
X80534238Y-117275342D01*
X80534238Y-117370580D01*
X80534238Y-116751533D02*
X80486619Y-116799152D01*
X80534238Y-116846771D01*
X80581857Y-116799152D01*
X80534238Y-116751533D01*
X80534238Y-116846771D01*
X84200904Y-118068200D02*
X84296142Y-118020580D01*
X84439000Y-118020580D01*
X84581857Y-118068200D01*
X84677095Y-118163438D01*
X84724714Y-118258676D01*
X84772333Y-118449152D01*
X84772333Y-118592009D01*
X84724714Y-118782485D01*
X84677095Y-118877723D01*
X84581857Y-118972961D01*
X84439000Y-119020580D01*
X84343761Y-119020580D01*
X84200904Y-118972961D01*
X84153285Y-118925342D01*
X84153285Y-118592009D01*
X84343761Y-118592009D01*
X83724714Y-119020580D02*
X83724714Y-118020580D01*
X83153285Y-119020580D01*
X83153285Y-118020580D01*
X82677095Y-119020580D02*
X82677095Y-118020580D01*
X82439000Y-118020580D01*
X82296142Y-118068200D01*
X82200904Y-118163438D01*
X82153285Y-118258676D01*
X82105666Y-118449152D01*
X82105666Y-118592009D01*
X82153285Y-118782485D01*
X82200904Y-118877723D01*
X82296142Y-118972961D01*
X82439000Y-119020580D01*
X82677095Y-119020580D01*
X84415190Y-119303200D02*
X83510428Y-119303200D01*
X84177095Y-120146771D02*
X83843761Y-120146771D01*
X83700904Y-120670580D02*
X84177095Y-120670580D01*
X84177095Y-119670580D01*
X83700904Y-119670580D01*
X83510428Y-119303200D02*
X82462809Y-119303200D01*
X83272333Y-120670580D02*
X83272333Y-119670580D01*
X82700904Y-120670580D01*
X82700904Y-119670580D01*
X84439000Y-122320580D02*
X84439000Y-121320580D01*
X84200904Y-121320580D01*
X84058047Y-121368200D01*
X83962809Y-121463438D01*
X83915190Y-121558676D01*
X83867571Y-121749152D01*
X83867571Y-121892009D01*
X83915190Y-122082485D01*
X83962809Y-122177723D01*
X84058047Y-122272961D01*
X84200904Y-122320580D01*
X84439000Y-122320580D01*
X83439000Y-122320580D02*
X83439000Y-121320580D01*
X82391380Y-122320580D02*
X82724714Y-121844390D01*
X82962809Y-122320580D02*
X82962809Y-121320580D01*
X82581857Y-121320580D01*
X82486619Y-121368200D01*
X82439000Y-121415819D01*
X82391380Y-121511057D01*
X82391380Y-121653914D01*
X82439000Y-121749152D01*
X82486619Y-121796771D01*
X82581857Y-121844390D01*
X82962809Y-121844390D01*
X84034238Y-123875342D02*
X84081857Y-123922961D01*
X84224714Y-123970580D01*
X84319952Y-123970580D01*
X84462809Y-123922961D01*
X84558047Y-123827723D01*
X84605666Y-123732485D01*
X84653285Y-123542009D01*
X84653285Y-123399152D01*
X84605666Y-123208676D01*
X84558047Y-123113438D01*
X84462809Y-123018200D01*
X84319952Y-122970580D01*
X84224714Y-122970580D01*
X84081857Y-123018200D01*
X84034238Y-123065819D01*
X83129476Y-123970580D02*
X83605666Y-123970580D01*
X83605666Y-122970580D01*
X82796142Y-123970580D02*
X82796142Y-122970580D01*
X82224714Y-123970580D02*
X82653285Y-123399152D01*
X82224714Y-122970580D02*
X82796142Y-123542009D01*
X126918980Y-126701895D02*
X125918980Y-126701895D01*
X125918980Y-127082847D01*
X125966600Y-127178085D01*
X126014219Y-127225704D01*
X126109457Y-127273323D01*
X126252314Y-127273323D01*
X126347552Y-127225704D01*
X126395171Y-127178085D01*
X126442790Y-127082847D01*
X126442790Y-126701895D01*
X125918980Y-127606657D02*
X126918980Y-127844752D01*
X126204695Y-128035228D01*
X126918980Y-128225704D01*
X125918980Y-128463800D01*
X126918980Y-128844752D02*
X125918980Y-128844752D01*
X126633266Y-129178085D01*
X125918980Y-129511419D01*
X126918980Y-129511419D01*
X126252314Y-130416180D02*
X127061838Y-130416180D01*
X127157076Y-130368561D01*
X127204695Y-130320942D01*
X127252314Y-130225704D01*
X127252314Y-130082847D01*
X127204695Y-129987609D01*
X126871361Y-130416180D02*
X126918980Y-130320942D01*
X126918980Y-130130466D01*
X126871361Y-130035228D01*
X126823742Y-129987609D01*
X126728504Y-129939990D01*
X126442790Y-129939990D01*
X126347552Y-129987609D01*
X126299933Y-130035228D01*
X126252314Y-130130466D01*
X126252314Y-130320942D01*
X126299933Y-130416180D01*
X126252314Y-130892371D02*
X126918980Y-130892371D01*
X126347552Y-130892371D02*
X126299933Y-130939990D01*
X126252314Y-131035228D01*
X126252314Y-131178085D01*
X126299933Y-131273323D01*
X126395171Y-131320942D01*
X126918980Y-131320942D01*
X126918980Y-132225704D02*
X125918980Y-132225704D01*
X126871361Y-132225704D02*
X126918980Y-132130466D01*
X126918980Y-131939990D01*
X126871361Y-131844752D01*
X126823742Y-131797133D01*
X126728504Y-131749514D01*
X126442790Y-131749514D01*
X126347552Y-131797133D01*
X126299933Y-131844752D01*
X126252314Y-131939990D01*
X126252314Y-132130466D01*
X126299933Y-132225704D01*
X123988580Y-130651333D02*
X123988580Y-130175142D01*
X124464771Y-130127523D01*
X124417152Y-130175142D01*
X124369533Y-130270380D01*
X124369533Y-130508476D01*
X124417152Y-130603714D01*
X124464771Y-130651333D01*
X124560009Y-130698952D01*
X124798104Y-130698952D01*
X124893342Y-130651333D01*
X124940961Y-130603714D01*
X124988580Y-130508476D01*
X124988580Y-130270380D01*
X124940961Y-130175142D01*
X124893342Y-130127523D01*
X123988580Y-130984666D02*
X124988580Y-131318000D01*
X123988580Y-131651333D01*
X123988580Y-132175142D02*
X123988580Y-132270380D01*
X124036200Y-132365619D01*
X124083819Y-132413238D01*
X124179057Y-132460857D01*
X124369533Y-132508476D01*
X124607628Y-132508476D01*
X124798104Y-132460857D01*
X124893342Y-132413238D01*
X124940961Y-132365619D01*
X124988580Y-132270380D01*
X124988580Y-132175142D01*
X124940961Y-132079904D01*
X124893342Y-132032285D01*
X124798104Y-131984666D01*
X124607628Y-131937047D01*
X124369533Y-131937047D01*
X124179057Y-131984666D01*
X124083819Y-132032285D01*
X124036200Y-132079904D01*
X123988580Y-132175142D01*
X121219980Y-130054504D02*
X121219980Y-130673552D01*
X121600933Y-130340219D01*
X121600933Y-130483076D01*
X121648552Y-130578314D01*
X121696171Y-130625933D01*
X121791409Y-130673552D01*
X122029504Y-130673552D01*
X122124742Y-130625933D01*
X122172361Y-130578314D01*
X122219980Y-130483076D01*
X122219980Y-130197361D01*
X122172361Y-130102123D01*
X122124742Y-130054504D01*
X121219980Y-130959266D02*
X122219980Y-131292600D01*
X121219980Y-131625933D01*
X121219980Y-131864028D02*
X121219980Y-132483076D01*
X121600933Y-132149742D01*
X121600933Y-132292600D01*
X121648552Y-132387838D01*
X121696171Y-132435457D01*
X121791409Y-132483076D01*
X122029504Y-132483076D01*
X122124742Y-132435457D01*
X122172361Y-132387838D01*
X122219980Y-132292600D01*
X122219980Y-132006885D01*
X122172361Y-131911647D01*
X122124742Y-131864028D01*
X133457580Y-126766628D02*
X132695676Y-126766628D01*
X133076628Y-127147580D02*
X133076628Y-126385676D01*
X132267104Y-126242819D02*
X132219485Y-126195200D01*
X132124247Y-126147580D01*
X131886152Y-126147580D01*
X131790914Y-126195200D01*
X131743295Y-126242819D01*
X131695676Y-126338057D01*
X131695676Y-126433295D01*
X131743295Y-126576152D01*
X132314723Y-127147580D01*
X131695676Y-127147580D01*
X130838533Y-126480914D02*
X130838533Y-127147580D01*
X131076628Y-126099961D02*
X131314723Y-126814247D01*
X130695676Y-126814247D01*
X130457580Y-126147580D02*
X130124247Y-127147580D01*
X129790914Y-126147580D01*
X129314723Y-127147580D02*
X129409961Y-127099961D01*
X129457580Y-127052342D01*
X129505200Y-126957104D01*
X129505200Y-126671390D01*
X129457580Y-126576152D01*
X129409961Y-126528533D01*
X129314723Y-126480914D01*
X129171866Y-126480914D01*
X129076628Y-126528533D01*
X129029009Y-126576152D01*
X128981390Y-126671390D01*
X128981390Y-126957104D01*
X129029009Y-127052342D01*
X129076628Y-127099961D01*
X129171866Y-127147580D01*
X129314723Y-127147580D01*
X128124247Y-126480914D02*
X128124247Y-127147580D01*
X128552819Y-126480914D02*
X128552819Y-127004723D01*
X128505200Y-127099961D01*
X128409961Y-127147580D01*
X128267104Y-127147580D01*
X128171866Y-127099961D01*
X128124247Y-127052342D01*
X127790914Y-126480914D02*
X127409961Y-126480914D01*
X127648057Y-126147580D02*
X127648057Y-127004723D01*
X127600438Y-127099961D01*
X127505200Y-127147580D01*
X127409961Y-127147580D01*
X146038580Y-126639628D02*
X145276676Y-126639628D01*
X145657628Y-127020580D02*
X145657628Y-126258676D01*
X144848104Y-126115819D02*
X144800485Y-126068200D01*
X144705247Y-126020580D01*
X144467152Y-126020580D01*
X144371914Y-126068200D01*
X144324295Y-126115819D01*
X144276676Y-126211057D01*
X144276676Y-126306295D01*
X144324295Y-126449152D01*
X144895723Y-127020580D01*
X144276676Y-127020580D01*
X143419533Y-126353914D02*
X143419533Y-127020580D01*
X143657628Y-125972961D02*
X143895723Y-126687247D01*
X143276676Y-126687247D01*
X143038580Y-126020580D02*
X142705247Y-127020580D01*
X142371914Y-126020580D01*
X142038580Y-127020580D02*
X142038580Y-126353914D01*
X142038580Y-126020580D02*
X142086200Y-126068200D01*
X142038580Y-126115819D01*
X141990961Y-126068200D01*
X142038580Y-126020580D01*
X142038580Y-126115819D01*
X141562390Y-126353914D02*
X141562390Y-127020580D01*
X141562390Y-126449152D02*
X141514771Y-126401533D01*
X141419533Y-126353914D01*
X141276676Y-126353914D01*
X141181438Y-126401533D01*
X141133819Y-126496771D01*
X141133819Y-127020580D01*
X139123657Y-126144400D02*
X139218895Y-126096780D01*
X139361752Y-126096780D01*
X139504609Y-126144400D01*
X139599847Y-126239638D01*
X139647466Y-126334876D01*
X139695085Y-126525352D01*
X139695085Y-126668209D01*
X139647466Y-126858685D01*
X139599847Y-126953923D01*
X139504609Y-127049161D01*
X139361752Y-127096780D01*
X139266514Y-127096780D01*
X139123657Y-127049161D01*
X139076038Y-127001542D01*
X139076038Y-126668209D01*
X139266514Y-126668209D01*
X138647466Y-126430114D02*
X138647466Y-127096780D01*
X138647466Y-126525352D02*
X138599847Y-126477733D01*
X138504609Y-126430114D01*
X138361752Y-126430114D01*
X138266514Y-126477733D01*
X138218895Y-126572971D01*
X138218895Y-127096780D01*
X137314133Y-127096780D02*
X137314133Y-126096780D01*
X137314133Y-127049161D02*
X137409371Y-127096780D01*
X137599847Y-127096780D01*
X137695085Y-127049161D01*
X137742704Y-127001542D01*
X137790323Y-126906304D01*
X137790323Y-126620590D01*
X137742704Y-126525352D01*
X137695085Y-126477733D01*
X137599847Y-126430114D01*
X137409371Y-126430114D01*
X137314133Y-126477733D01*
X149893257Y-126068200D02*
X149988495Y-126020580D01*
X150131352Y-126020580D01*
X150274209Y-126068200D01*
X150369447Y-126163438D01*
X150417066Y-126258676D01*
X150464685Y-126449152D01*
X150464685Y-126592009D01*
X150417066Y-126782485D01*
X150369447Y-126877723D01*
X150274209Y-126972961D01*
X150131352Y-127020580D01*
X150036114Y-127020580D01*
X149893257Y-126972961D01*
X149845638Y-126925342D01*
X149845638Y-126592009D01*
X150036114Y-126592009D01*
X149417066Y-126353914D02*
X149417066Y-127020580D01*
X149417066Y-126449152D02*
X149369447Y-126401533D01*
X149274209Y-126353914D01*
X149131352Y-126353914D01*
X149036114Y-126401533D01*
X148988495Y-126496771D01*
X148988495Y-127020580D01*
X148083733Y-127020580D02*
X148083733Y-126020580D01*
X148083733Y-126972961D02*
X148178971Y-127020580D01*
X148369447Y-127020580D01*
X148464685Y-126972961D01*
X148512304Y-126925342D01*
X148559923Y-126830104D01*
X148559923Y-126544390D01*
X148512304Y-126449152D01*
X148464685Y-126401533D01*
X148369447Y-126353914D01*
X148178971Y-126353914D01*
X148083733Y-126401533D01*
D11*
%TO.C,C2*%
X95778533Y-116829300D02*
X96121067Y-116829300D01*
X95778533Y-115809300D02*
X96121067Y-115809300D01*
%TO.C,C3*%
X91091867Y-116829300D02*
X90749333Y-116829300D01*
X91091867Y-115809300D02*
X90749333Y-115809300D01*
%TO.C,C10*%
X147475200Y-110973502D02*
X148275200Y-110973502D01*
X147875200Y-110573502D02*
X147875200Y-111373502D01*
X149657200Y-119064200D02*
X150723200Y-119064200D01*
X149422200Y-119024200D02*
X150958200Y-119024200D01*
X149242200Y-118984200D02*
X151138200Y-118984200D01*
X149092200Y-118944200D02*
X151288200Y-118944200D01*
X148961200Y-118904200D02*
X151419200Y-118904200D01*
X148844200Y-118864200D02*
X151536200Y-118864200D01*
X148737200Y-118824200D02*
X151643200Y-118824200D01*
X148638200Y-118784200D02*
X151742200Y-118784200D01*
X148545200Y-118744200D02*
X151835200Y-118744200D01*
X148459200Y-118704200D02*
X151921200Y-118704200D01*
X148377200Y-118664200D02*
X152003200Y-118664200D01*
X148300200Y-118624200D02*
X152080200Y-118624200D01*
X148226200Y-118584200D02*
X152154200Y-118584200D01*
X148156200Y-118544200D02*
X152224200Y-118544200D01*
X148088200Y-118504200D02*
X152292200Y-118504200D01*
X148024200Y-118464200D02*
X152356200Y-118464200D01*
X147962200Y-118424200D02*
X152418200Y-118424200D01*
X147903200Y-118384200D02*
X152477200Y-118384200D01*
X147845200Y-118344200D02*
X152535200Y-118344200D01*
X147790200Y-118304200D02*
X152590200Y-118304200D01*
X147736200Y-118264200D02*
X152644200Y-118264200D01*
X147685200Y-118224200D02*
X152695200Y-118224200D01*
X147634200Y-118184200D02*
X152746200Y-118184200D01*
X147586200Y-118144200D02*
X152794200Y-118144200D01*
X147539200Y-118104200D02*
X152841200Y-118104200D01*
X147493200Y-118064200D02*
X152887200Y-118064200D01*
X147449200Y-118024200D02*
X152931200Y-118024200D01*
X147406200Y-117984200D02*
X152974200Y-117984200D01*
X147364200Y-117944200D02*
X153016200Y-117944200D01*
X147323200Y-117904200D02*
X153057200Y-117904200D01*
X147283200Y-117864200D02*
X153097200Y-117864200D01*
X147245200Y-117824200D02*
X153135200Y-117824200D01*
X147207200Y-117784200D02*
X153173200Y-117784200D01*
X151230200Y-117744200D02*
X153209200Y-117744200D01*
X147171200Y-117744200D02*
X149150200Y-117744200D01*
X151230200Y-117704200D02*
X153245200Y-117704200D01*
X147135200Y-117704200D02*
X149150200Y-117704200D01*
X151230200Y-117664200D02*
X153280200Y-117664200D01*
X147100200Y-117664200D02*
X149150200Y-117664200D01*
X151230200Y-117624200D02*
X153314200Y-117624200D01*
X147066200Y-117624200D02*
X149150200Y-117624200D01*
X151230200Y-117584200D02*
X153346200Y-117584200D01*
X147034200Y-117584200D02*
X149150200Y-117584200D01*
X151230200Y-117544200D02*
X153379200Y-117544200D01*
X147001200Y-117544200D02*
X149150200Y-117544200D01*
X151230200Y-117504200D02*
X153410200Y-117504200D01*
X146970200Y-117504200D02*
X149150200Y-117504200D01*
X151230200Y-117464200D02*
X153440200Y-117464200D01*
X146940200Y-117464200D02*
X149150200Y-117464200D01*
X151230200Y-117424200D02*
X153470200Y-117424200D01*
X146910200Y-117424200D02*
X149150200Y-117424200D01*
X151230200Y-117384200D02*
X153499200Y-117384200D01*
X146881200Y-117384200D02*
X149150200Y-117384200D01*
X151230200Y-117344200D02*
X153528200Y-117344200D01*
X146852200Y-117344200D02*
X149150200Y-117344200D01*
X151230200Y-117304200D02*
X153555200Y-117304200D01*
X146825200Y-117304200D02*
X149150200Y-117304200D01*
X151230200Y-117264200D02*
X153582200Y-117264200D01*
X146798200Y-117264200D02*
X149150200Y-117264200D01*
X151230200Y-117224200D02*
X153608200Y-117224200D01*
X146772200Y-117224200D02*
X149150200Y-117224200D01*
X151230200Y-117184200D02*
X153634200Y-117184200D01*
X146746200Y-117184200D02*
X149150200Y-117184200D01*
X151230200Y-117144200D02*
X153659200Y-117144200D01*
X146721200Y-117144200D02*
X149150200Y-117144200D01*
X151230200Y-117104200D02*
X153683200Y-117104200D01*
X146697200Y-117104200D02*
X149150200Y-117104200D01*
X151230200Y-117064200D02*
X153707200Y-117064200D01*
X146673200Y-117064200D02*
X149150200Y-117064200D01*
X151230200Y-117024200D02*
X153730200Y-117024200D01*
X146650200Y-117024200D02*
X149150200Y-117024200D01*
X151230200Y-116984200D02*
X153752200Y-116984200D01*
X146628200Y-116984200D02*
X149150200Y-116984200D01*
X151230200Y-116944200D02*
X153774200Y-116944200D01*
X146606200Y-116944200D02*
X149150200Y-116944200D01*
X151230200Y-116904200D02*
X153796200Y-116904200D01*
X146584200Y-116904200D02*
X149150200Y-116904200D01*
X151230200Y-116864200D02*
X153817200Y-116864200D01*
X146563200Y-116864200D02*
X149150200Y-116864200D01*
X151230200Y-116824200D02*
X153837200Y-116824200D01*
X146543200Y-116824200D02*
X149150200Y-116824200D01*
X151230200Y-116784200D02*
X153856200Y-116784200D01*
X146524200Y-116784200D02*
X149150200Y-116784200D01*
X151230200Y-116744200D02*
X153876200Y-116744200D01*
X146504200Y-116744200D02*
X149150200Y-116744200D01*
X151230200Y-116704200D02*
X153894200Y-116704200D01*
X146486200Y-116704200D02*
X149150200Y-116704200D01*
X151230200Y-116664200D02*
X153912200Y-116664200D01*
X146468200Y-116664200D02*
X149150200Y-116664200D01*
X151230200Y-116624200D02*
X153930200Y-116624200D01*
X146450200Y-116624200D02*
X149150200Y-116624200D01*
X151230200Y-116584200D02*
X153947200Y-116584200D01*
X146433200Y-116584200D02*
X149150200Y-116584200D01*
X151230200Y-116544200D02*
X153964200Y-116544200D01*
X146416200Y-116544200D02*
X149150200Y-116544200D01*
X151230200Y-116504200D02*
X153980200Y-116504200D01*
X146400200Y-116504200D02*
X149150200Y-116504200D01*
X151230200Y-116464200D02*
X153995200Y-116464200D01*
X146385200Y-116464200D02*
X149150200Y-116464200D01*
X151230200Y-116424200D02*
X154011200Y-116424200D01*
X146369200Y-116424200D02*
X149150200Y-116424200D01*
X151230200Y-116384200D02*
X154025200Y-116384200D01*
X146355200Y-116384200D02*
X149150200Y-116384200D01*
X151230200Y-116344200D02*
X154040200Y-116344200D01*
X146340200Y-116344200D02*
X149150200Y-116344200D01*
X151230200Y-116304200D02*
X154053200Y-116304200D01*
X146327200Y-116304200D02*
X149150200Y-116304200D01*
X151230200Y-116264200D02*
X154067200Y-116264200D01*
X146313200Y-116264200D02*
X149150200Y-116264200D01*
X151230200Y-116224200D02*
X154079200Y-116224200D01*
X146301200Y-116224200D02*
X149150200Y-116224200D01*
X151230200Y-116184200D02*
X154092200Y-116184200D01*
X146288200Y-116184200D02*
X149150200Y-116184200D01*
X151230200Y-116144200D02*
X154104200Y-116144200D01*
X146276200Y-116144200D02*
X149150200Y-116144200D01*
X151230200Y-116104200D02*
X154115200Y-116104200D01*
X146265200Y-116104200D02*
X149150200Y-116104200D01*
X151230200Y-116064200D02*
X154126200Y-116064200D01*
X146254200Y-116064200D02*
X149150200Y-116064200D01*
X151230200Y-116024200D02*
X154137200Y-116024200D01*
X146243200Y-116024200D02*
X149150200Y-116024200D01*
X151230200Y-115984200D02*
X154147200Y-115984200D01*
X146233200Y-115984200D02*
X149150200Y-115984200D01*
X151230200Y-115944200D02*
X154157200Y-115944200D01*
X146223200Y-115944200D02*
X149150200Y-115944200D01*
X151230200Y-115904200D02*
X154166200Y-115904200D01*
X146214200Y-115904200D02*
X149150200Y-115904200D01*
X151230200Y-115864200D02*
X154175200Y-115864200D01*
X146205200Y-115864200D02*
X149150200Y-115864200D01*
X151230200Y-115824200D02*
X154184200Y-115824200D01*
X146196200Y-115824200D02*
X149150200Y-115824200D01*
X151230200Y-115784200D02*
X154192200Y-115784200D01*
X146188200Y-115784200D02*
X149150200Y-115784200D01*
X151230200Y-115744200D02*
X154200200Y-115744200D01*
X146180200Y-115744200D02*
X149150200Y-115744200D01*
X151230200Y-115704200D02*
X154207200Y-115704200D01*
X146173200Y-115704200D02*
X149150200Y-115704200D01*
X146166200Y-115663200D02*
X154214200Y-115663200D01*
X146160200Y-115623200D02*
X154220200Y-115623200D01*
X146153200Y-115583200D02*
X154227200Y-115583200D01*
X146148200Y-115543200D02*
X154232200Y-115543200D01*
X146142200Y-115503200D02*
X154238200Y-115503200D01*
X146138200Y-115463200D02*
X154242200Y-115463200D01*
X146133200Y-115423200D02*
X154247200Y-115423200D01*
X146129200Y-115383200D02*
X154251200Y-115383200D01*
X146125200Y-115343200D02*
X154255200Y-115343200D01*
X146122200Y-115303200D02*
X154258200Y-115303200D01*
X146119200Y-115263200D02*
X154261200Y-115263200D01*
X146116200Y-115223200D02*
X154264200Y-115223200D01*
X146114200Y-115183200D02*
X154266200Y-115183200D01*
X146113200Y-115143200D02*
X154267200Y-115143200D01*
X146111200Y-115103200D02*
X154269200Y-115103200D01*
X146110200Y-115063200D02*
X154270200Y-115063200D01*
X146110200Y-115023200D02*
X154270200Y-115023200D01*
X146110200Y-114983200D02*
X154270200Y-114983200D01*
X154310200Y-114983200D02*
G75*
G03*
X154310200Y-114983200I-4120000J0D01*
G01*
%TO.C,C13*%
X85199800Y-101673400D02*
X85199800Y-108608400D01*
X85199800Y-108608400D02*
X81779800Y-108608400D01*
X81779800Y-108608400D02*
X81779800Y-101673400D01*
%TO.C,C14*%
X144937600Y-97462400D02*
G75*
G03*
X144937600Y-97462400I-4120000J0D01*
G01*
X144897600Y-97462400D02*
X136737600Y-97462400D01*
X144897600Y-97422400D02*
X136737600Y-97422400D01*
X144897600Y-97382400D02*
X136737600Y-97382400D01*
X144896600Y-97342400D02*
X136738600Y-97342400D01*
X144894600Y-97302400D02*
X136740600Y-97302400D01*
X144893600Y-97262400D02*
X136741600Y-97262400D01*
X144891600Y-97222400D02*
X136743600Y-97222400D01*
X144888600Y-97182400D02*
X136746600Y-97182400D01*
X144885600Y-97142400D02*
X136749600Y-97142400D01*
X144882600Y-97102400D02*
X136752600Y-97102400D01*
X144878600Y-97062400D02*
X136756600Y-97062400D01*
X144874600Y-97022400D02*
X136760600Y-97022400D01*
X144869600Y-96982400D02*
X136765600Y-96982400D01*
X144865600Y-96942400D02*
X136769600Y-96942400D01*
X144859600Y-96902400D02*
X136775600Y-96902400D01*
X144854600Y-96862400D02*
X136780600Y-96862400D01*
X144847600Y-96822400D02*
X136787600Y-96822400D01*
X144841600Y-96782400D02*
X136793600Y-96782400D01*
X144834600Y-96741400D02*
X141857600Y-96741400D01*
X139777600Y-96741400D02*
X136800600Y-96741400D01*
X144827600Y-96701400D02*
X141857600Y-96701400D01*
X139777600Y-96701400D02*
X136807600Y-96701400D01*
X144819600Y-96661400D02*
X141857600Y-96661400D01*
X139777600Y-96661400D02*
X136815600Y-96661400D01*
X144811600Y-96621400D02*
X141857600Y-96621400D01*
X139777600Y-96621400D02*
X136823600Y-96621400D01*
X144802600Y-96581400D02*
X141857600Y-96581400D01*
X139777600Y-96581400D02*
X136832600Y-96581400D01*
X144793600Y-96541400D02*
X141857600Y-96541400D01*
X139777600Y-96541400D02*
X136841600Y-96541400D01*
X144784600Y-96501400D02*
X141857600Y-96501400D01*
X139777600Y-96501400D02*
X136850600Y-96501400D01*
X144774600Y-96461400D02*
X141857600Y-96461400D01*
X139777600Y-96461400D02*
X136860600Y-96461400D01*
X144764600Y-96421400D02*
X141857600Y-96421400D01*
X139777600Y-96421400D02*
X136870600Y-96421400D01*
X144753600Y-96381400D02*
X141857600Y-96381400D01*
X139777600Y-96381400D02*
X136881600Y-96381400D01*
X144742600Y-96341400D02*
X141857600Y-96341400D01*
X139777600Y-96341400D02*
X136892600Y-96341400D01*
X144731600Y-96301400D02*
X141857600Y-96301400D01*
X139777600Y-96301400D02*
X136903600Y-96301400D01*
X144719600Y-96261400D02*
X141857600Y-96261400D01*
X139777600Y-96261400D02*
X136915600Y-96261400D01*
X144706600Y-96221400D02*
X141857600Y-96221400D01*
X139777600Y-96221400D02*
X136928600Y-96221400D01*
X144694600Y-96181400D02*
X141857600Y-96181400D01*
X139777600Y-96181400D02*
X136940600Y-96181400D01*
X144680600Y-96141400D02*
X141857600Y-96141400D01*
X139777600Y-96141400D02*
X136954600Y-96141400D01*
X144667600Y-96101400D02*
X141857600Y-96101400D01*
X139777600Y-96101400D02*
X136967600Y-96101400D01*
X144652600Y-96061400D02*
X141857600Y-96061400D01*
X139777600Y-96061400D02*
X136982600Y-96061400D01*
X144638600Y-96021400D02*
X141857600Y-96021400D01*
X139777600Y-96021400D02*
X136996600Y-96021400D01*
X144622600Y-95981400D02*
X141857600Y-95981400D01*
X139777600Y-95981400D02*
X137012600Y-95981400D01*
X144607600Y-95941400D02*
X141857600Y-95941400D01*
X139777600Y-95941400D02*
X137027600Y-95941400D01*
X144591600Y-95901400D02*
X141857600Y-95901400D01*
X139777600Y-95901400D02*
X137043600Y-95901400D01*
X144574600Y-95861400D02*
X141857600Y-95861400D01*
X139777600Y-95861400D02*
X137060600Y-95861400D01*
X144557600Y-95821400D02*
X141857600Y-95821400D01*
X139777600Y-95821400D02*
X137077600Y-95821400D01*
X144539600Y-95781400D02*
X141857600Y-95781400D01*
X139777600Y-95781400D02*
X137095600Y-95781400D01*
X144521600Y-95741400D02*
X141857600Y-95741400D01*
X139777600Y-95741400D02*
X137113600Y-95741400D01*
X144503600Y-95701400D02*
X141857600Y-95701400D01*
X139777600Y-95701400D02*
X137131600Y-95701400D01*
X144483600Y-95661400D02*
X141857600Y-95661400D01*
X139777600Y-95661400D02*
X137151600Y-95661400D01*
X144464600Y-95621400D02*
X141857600Y-95621400D01*
X139777600Y-95621400D02*
X137170600Y-95621400D01*
X144444600Y-95581400D02*
X141857600Y-95581400D01*
X139777600Y-95581400D02*
X137190600Y-95581400D01*
X144423600Y-95541400D02*
X141857600Y-95541400D01*
X139777600Y-95541400D02*
X137211600Y-95541400D01*
X144401600Y-95501400D02*
X141857600Y-95501400D01*
X139777600Y-95501400D02*
X137233600Y-95501400D01*
X144379600Y-95461400D02*
X141857600Y-95461400D01*
X139777600Y-95461400D02*
X137255600Y-95461400D01*
X144357600Y-95421400D02*
X141857600Y-95421400D01*
X139777600Y-95421400D02*
X137277600Y-95421400D01*
X144334600Y-95381400D02*
X141857600Y-95381400D01*
X139777600Y-95381400D02*
X137300600Y-95381400D01*
X144310600Y-95341400D02*
X141857600Y-95341400D01*
X139777600Y-95341400D02*
X137324600Y-95341400D01*
X144286600Y-95301400D02*
X141857600Y-95301400D01*
X139777600Y-95301400D02*
X137348600Y-95301400D01*
X144261600Y-95261400D02*
X141857600Y-95261400D01*
X139777600Y-95261400D02*
X137373600Y-95261400D01*
X144235600Y-95221400D02*
X141857600Y-95221400D01*
X139777600Y-95221400D02*
X137399600Y-95221400D01*
X144209600Y-95181400D02*
X141857600Y-95181400D01*
X139777600Y-95181400D02*
X137425600Y-95181400D01*
X144182600Y-95141400D02*
X141857600Y-95141400D01*
X139777600Y-95141400D02*
X137452600Y-95141400D01*
X144155600Y-95101400D02*
X141857600Y-95101400D01*
X139777600Y-95101400D02*
X137479600Y-95101400D01*
X144126600Y-95061400D02*
X141857600Y-95061400D01*
X139777600Y-95061400D02*
X137508600Y-95061400D01*
X144097600Y-95021400D02*
X141857600Y-95021400D01*
X139777600Y-95021400D02*
X137537600Y-95021400D01*
X144067600Y-94981400D02*
X141857600Y-94981400D01*
X139777600Y-94981400D02*
X137567600Y-94981400D01*
X144037600Y-94941400D02*
X141857600Y-94941400D01*
X139777600Y-94941400D02*
X137597600Y-94941400D01*
X144006600Y-94901400D02*
X141857600Y-94901400D01*
X139777600Y-94901400D02*
X137628600Y-94901400D01*
X143973600Y-94861400D02*
X141857600Y-94861400D01*
X139777600Y-94861400D02*
X137661600Y-94861400D01*
X143941600Y-94821400D02*
X141857600Y-94821400D01*
X139777600Y-94821400D02*
X137693600Y-94821400D01*
X143907600Y-94781400D02*
X141857600Y-94781400D01*
X139777600Y-94781400D02*
X137727600Y-94781400D01*
X143872600Y-94741400D02*
X141857600Y-94741400D01*
X139777600Y-94741400D02*
X137762600Y-94741400D01*
X143836600Y-94701400D02*
X141857600Y-94701400D01*
X139777600Y-94701400D02*
X137798600Y-94701400D01*
X143800600Y-94661400D02*
X137834600Y-94661400D01*
X143762600Y-94621400D02*
X137872600Y-94621400D01*
X143724600Y-94581400D02*
X137910600Y-94581400D01*
X143684600Y-94541400D02*
X137950600Y-94541400D01*
X143643600Y-94501400D02*
X137991600Y-94501400D01*
X143601600Y-94461400D02*
X138033600Y-94461400D01*
X143558600Y-94421400D02*
X138076600Y-94421400D01*
X143514600Y-94381400D02*
X138120600Y-94381400D01*
X143468600Y-94341400D02*
X138166600Y-94341400D01*
X143421600Y-94301400D02*
X138213600Y-94301400D01*
X143373600Y-94261400D02*
X138261600Y-94261400D01*
X143322600Y-94221400D02*
X138312600Y-94221400D01*
X143271600Y-94181400D02*
X138363600Y-94181400D01*
X143217600Y-94141400D02*
X138417600Y-94141400D01*
X143162600Y-94101400D02*
X138472600Y-94101400D01*
X143104600Y-94061400D02*
X138530600Y-94061400D01*
X143045600Y-94021400D02*
X138589600Y-94021400D01*
X142983600Y-93981400D02*
X138651600Y-93981400D01*
X142919600Y-93941400D02*
X138715600Y-93941400D01*
X142851600Y-93901400D02*
X138783600Y-93901400D01*
X142781600Y-93861400D02*
X138853600Y-93861400D01*
X142707600Y-93821400D02*
X138927600Y-93821400D01*
X142630600Y-93781400D02*
X139004600Y-93781400D01*
X142548600Y-93741400D02*
X139086600Y-93741400D01*
X142462600Y-93701400D02*
X139172600Y-93701400D01*
X142369600Y-93661400D02*
X139265600Y-93661400D01*
X142270600Y-93621400D02*
X139364600Y-93621400D01*
X142163600Y-93581400D02*
X139471600Y-93581400D01*
X142046600Y-93541400D02*
X139588600Y-93541400D01*
X141915600Y-93501400D02*
X139719600Y-93501400D01*
X141765600Y-93461400D02*
X139869600Y-93461400D01*
X141585600Y-93421400D02*
X140049600Y-93421400D01*
X141350600Y-93381400D02*
X140284600Y-93381400D01*
X143132600Y-101872098D02*
X143132600Y-101072098D01*
X143532600Y-101472098D02*
X142732600Y-101472098D01*
%TO.C,D1*%
X106419000Y-79039600D02*
X103559000Y-79039600D01*
X103559000Y-79039600D02*
X103559000Y-77119600D01*
X103559000Y-77119600D02*
X106419000Y-77119600D01*
%TO.C,D3*%
X106419000Y-82773400D02*
X103559000Y-82773400D01*
X103559000Y-82773400D02*
X103559000Y-80853400D01*
X103559000Y-80853400D02*
X106419000Y-80853400D01*
%TO.C,D4*%
X94244600Y-113390800D02*
X97104600Y-113390800D01*
X94244600Y-115310800D02*
X94244600Y-113390800D01*
X97104600Y-115310800D02*
X94244600Y-115310800D01*
%TO.C,D6*%
X92648600Y-115310800D02*
X89788600Y-115310800D01*
X92648600Y-113390800D02*
X92648600Y-115310800D01*
X89788600Y-113390800D02*
X92648600Y-113390800D01*
%TO.C,D12*%
X138787580Y-114496382D02*
G75*
G03*
X138735639Y-111806200I2309420J1390182D01*
G01*
%TO.C,J12*%
X145447800Y-132994400D02*
G75*
G03*
X145447800Y-132994400I-1680000J0D01*
G01*
X151327800Y-137094400D02*
X141207800Y-137094400D01*
X151327800Y-135594400D02*
X141207800Y-135594400D01*
X151327800Y-130693400D02*
X141207800Y-130693400D01*
X151327800Y-127733400D02*
X141207800Y-127733400D01*
X151327800Y-137654400D02*
X141207800Y-137654400D01*
X151327800Y-127733400D02*
X151327800Y-137654400D01*
X141207800Y-127733400D02*
X141207800Y-137654400D01*
X142492800Y-131925400D02*
X142539800Y-131971400D01*
X144801800Y-134233400D02*
X144836800Y-134268400D01*
X142697800Y-131719400D02*
X142732800Y-131755400D01*
X144994800Y-134017400D02*
X145041800Y-134063400D01*
X151567800Y-137154400D02*
X151567800Y-137894400D01*
X151567800Y-137894400D02*
X151067800Y-137894400D01*
X148084482Y-134529156D02*
G75*
G03*
X148767800Y-134674400I683318J1534756D01*
G01*
X147232374Y-132311358D02*
G75*
G03*
X147232800Y-133678400I1535426J-683042D01*
G01*
X149450842Y-131458974D02*
G75*
G03*
X148083800Y-131459400I-683042J-1535426D01*
G01*
X150303226Y-133677442D02*
G75*
G03*
X150302800Y-132310400I-1535426J683042D01*
G01*
X148738995Y-134674653D02*
G75*
G03*
X149451800Y-134529400I28805J1680253D01*
G01*
%TO.C,J10*%
X77541900Y-133057700D02*
G75*
G03*
X77541900Y-133057700I-1680000J0D01*
G01*
X72541900Y-133057700D02*
G75*
G03*
X72541900Y-133057700I-1680000J0D01*
G01*
X83421900Y-137157700D02*
X68301900Y-137157700D01*
X83421900Y-135657700D02*
X68301900Y-135657700D01*
X83421900Y-130756700D02*
X68301900Y-130756700D01*
X83421900Y-127796700D02*
X68301900Y-127796700D01*
X83421900Y-137717700D02*
X68301900Y-137717700D01*
X83421900Y-127796700D02*
X83421900Y-137717700D01*
X68301900Y-127796700D02*
X68301900Y-137717700D01*
X74586900Y-131988700D02*
X74633900Y-132034700D01*
X76895900Y-134296700D02*
X76930900Y-134331700D01*
X74791900Y-131782700D02*
X74826900Y-131818700D01*
X77088900Y-134080700D02*
X77135900Y-134126700D01*
X69586900Y-131988700D02*
X69633900Y-132034700D01*
X71895900Y-134296700D02*
X71930900Y-134331700D01*
X69791900Y-131782700D02*
X69826900Y-131818700D01*
X72088900Y-134080700D02*
X72135900Y-134126700D01*
X83661900Y-137217700D02*
X83661900Y-137957700D01*
X83661900Y-137957700D02*
X83161900Y-137957700D01*
X80178582Y-134592456D02*
G75*
G03*
X80861900Y-134737700I683318J1534756D01*
G01*
X79326474Y-132374658D02*
G75*
G03*
X79326900Y-133741700I1535426J-683042D01*
G01*
X81544942Y-131522274D02*
G75*
G03*
X80177900Y-131522700I-683042J-1535426D01*
G01*
X82397326Y-133740742D02*
G75*
G03*
X82396900Y-132373700I-1535426J683042D01*
G01*
X80833095Y-134737953D02*
G75*
G03*
X81545900Y-134592700I28805J1680253D01*
G01*
%TO.C,J7*%
X68201200Y-90582400D02*
X68201200Y-90082400D01*
X68941200Y-90582400D02*
X68201200Y-90582400D01*
X72078200Y-79009400D02*
X72032200Y-79056400D01*
X74376200Y-76712400D02*
X74340200Y-76747400D01*
X71862200Y-78816400D02*
X71827200Y-78851400D01*
X74170200Y-76507400D02*
X74124200Y-76554400D01*
X72078200Y-84009400D02*
X72032200Y-84056400D01*
X74376200Y-81712400D02*
X74340200Y-81747400D01*
X71862200Y-83816400D02*
X71827200Y-83851400D01*
X74170200Y-81507400D02*
X74124200Y-81554400D01*
X78362200Y-75222400D02*
X68441200Y-75222400D01*
X78362200Y-90342400D02*
X68441200Y-90342400D01*
X68441200Y-90342400D02*
X68441200Y-75222400D01*
X78362200Y-90342400D02*
X78362200Y-75222400D01*
X75402200Y-90342400D02*
X75402200Y-75222400D01*
X70501200Y-90342400D02*
X70501200Y-75222400D01*
X69001200Y-90342400D02*
X69001200Y-75222400D01*
X74781200Y-77782400D02*
G75*
G03*
X74781200Y-77782400I-1680000J0D01*
G01*
X74781200Y-82782400D02*
G75*
G03*
X74781200Y-82782400I-1680000J0D01*
G01*
X71420947Y-87753595D02*
G75*
G03*
X71566200Y-88466400I1680253J-28805D01*
G01*
X72418158Y-89317826D02*
G75*
G03*
X73785200Y-89317400I683042J1535426D01*
G01*
X74636626Y-88465442D02*
G75*
G03*
X74636200Y-87098400I-1535426J683042D01*
G01*
X73784242Y-86246974D02*
G75*
G03*
X72417200Y-86247400I-683042J-1535426D01*
G01*
X71566444Y-87099082D02*
G75*
G03*
X71421200Y-87782400I1534756J-683318D01*
G01*
%TO.C,K1*%
X71659600Y-105508600D02*
X78259600Y-105508600D01*
X62659600Y-105508600D02*
X69259600Y-105508600D01*
X62659600Y-105508600D02*
X62659600Y-125308600D01*
X62659600Y-125308600D02*
X78259600Y-125308600D01*
X78259600Y-125308600D02*
X78259600Y-105508600D01*
X74659600Y-121058600D02*
X72209600Y-121058600D01*
X66259600Y-121058600D02*
X68759600Y-121058600D01*
X76509600Y-110458600D02*
X76509600Y-112958600D01*
X70509600Y-109558600D02*
X70509600Y-108758600D01*
X64509600Y-112958600D02*
X64509600Y-110458600D01*
X70509600Y-116358600D02*
X70509600Y-117858600D01*
X70509600Y-117858600D02*
X68009600Y-122458600D01*
X74109600Y-116358600D02*
X74109600Y-109558600D01*
X70509600Y-116358600D02*
X74109600Y-116358600D01*
X70509600Y-109558600D02*
X74109600Y-109558600D01*
X64509600Y-112958600D02*
X68709600Y-112958600D01*
X72309600Y-112958600D02*
X76509600Y-112958600D01*
X72309600Y-114958600D02*
X68709600Y-110958600D01*
X72309600Y-110958600D02*
X68709600Y-110958600D01*
X68709600Y-110958600D02*
X68709600Y-114958600D01*
X68709600Y-114958600D02*
X72309600Y-114958600D01*
X72309600Y-114958600D02*
X72309600Y-110958600D01*
%TO.C,R17*%
X108252800Y-97299933D02*
X108252800Y-97642467D01*
X109272800Y-97299933D02*
X109272800Y-97642467D01*
%TO.C,R3*%
X101429667Y-78589600D02*
X101087133Y-78589600D01*
X101429667Y-77569600D02*
X101087133Y-77569600D01*
%TO.C,R13*%
X101429667Y-81024000D02*
X101087133Y-81024000D01*
X101429667Y-82044000D02*
X101087133Y-82044000D01*
%TO.C,SW1*%
X79576400Y-80537000D02*
X79576400Y-87358000D01*
X83796400Y-80537000D02*
X83796400Y-87358000D01*
X79576400Y-80537000D02*
X80646400Y-80537000D01*
X82726400Y-80537000D02*
X83796400Y-80537000D01*
X79576400Y-87358000D02*
X80696400Y-87358000D01*
X82676400Y-87358000D02*
X83796400Y-87358000D01*
X79336400Y-80297000D02*
X79336400Y-81680000D01*
X79336400Y-80297000D02*
X80646400Y-80297000D01*
X81051400Y-82137000D02*
X82321400Y-82137000D01*
X82321400Y-82137000D02*
X82321400Y-85757000D01*
X82321400Y-85757000D02*
X81051400Y-85757000D01*
X81051400Y-85757000D02*
X81051400Y-82137000D01*
X81171400Y-82137000D02*
X81171400Y-83343667D01*
X81291400Y-82137000D02*
X81291400Y-83343667D01*
X81411400Y-82137000D02*
X81411400Y-83343667D01*
X81531400Y-82137000D02*
X81531400Y-83343667D01*
X81651400Y-82137000D02*
X81651400Y-83343667D01*
X81771400Y-82137000D02*
X81771400Y-83343667D01*
X81891400Y-82137000D02*
X81891400Y-83343667D01*
X82011400Y-82137000D02*
X82011400Y-83343667D01*
X82131400Y-82137000D02*
X82131400Y-83343667D01*
X82251400Y-82137000D02*
X82251400Y-83343667D01*
X81051400Y-83343667D02*
X82321400Y-83343667D01*
%TO.C,U1*%
X91744800Y-87438200D02*
X88324800Y-87438200D01*
X88324800Y-87438200D02*
X88324800Y-87148200D01*
X91744800Y-87438200D02*
X95164800Y-87438200D01*
X95164800Y-87438200D02*
X95164800Y-87148200D01*
X91744800Y-78068200D02*
X88324800Y-78068200D01*
X88324800Y-78068200D02*
X88324800Y-78358200D01*
X91744800Y-78068200D02*
X95164800Y-78068200D01*
X95164800Y-78068200D02*
X95164800Y-78358200D01*
X95164800Y-78358200D02*
X97444800Y-78358200D01*
%TO.C,J1*%
X89443500Y-122637800D02*
X89443500Y-117917800D01*
X89443500Y-117917800D02*
X97563500Y-117917800D01*
X97563500Y-117917800D02*
X97563500Y-122637800D01*
X97563500Y-122637800D02*
X89443500Y-122637800D01*
X91203500Y-122637800D02*
X91203500Y-122837800D01*
X91203500Y-122837800D02*
X90903500Y-122837800D01*
X90903500Y-122837800D02*
X90903500Y-122637800D01*
X91203500Y-122737800D02*
X90903500Y-122737800D01*
X92003500Y-122637800D02*
X92003500Y-122027800D01*
X92003500Y-122027800D02*
X90053500Y-122027800D01*
X90053500Y-122027800D02*
X90053500Y-118527800D01*
X90053500Y-118527800D02*
X96953500Y-118527800D01*
X96953500Y-118527800D02*
X96953500Y-122027800D01*
X96953500Y-122027800D02*
X95003500Y-122027800D01*
X95003500Y-122027800D02*
X95003500Y-122637800D01*
X89443500Y-121327800D02*
X90053500Y-121327800D01*
X89443500Y-120027800D02*
X90053500Y-120027800D01*
X97563500Y-121327800D02*
X96953500Y-121327800D01*
X97563500Y-120027800D02*
X96953500Y-120027800D01*
X92403500Y-118527800D02*
X92403500Y-119027800D01*
X92403500Y-119027800D02*
X92603500Y-119027800D01*
X92603500Y-119027800D02*
X92603500Y-118527800D01*
X92503500Y-118527800D02*
X92503500Y-119027800D01*
X94403500Y-118527800D02*
X94403500Y-119027800D01*
X94403500Y-119027800D02*
X94603500Y-119027800D01*
X94603500Y-119027800D02*
X94603500Y-118527800D01*
X94503500Y-118527800D02*
X94503500Y-119027800D01*
X90393500Y-122937800D02*
X89143500Y-122937800D01*
X89143500Y-122937800D02*
X89143500Y-121687800D01*
%TO.C,J2*%
X141348400Y-76320900D02*
X141348400Y-71600900D01*
X141348400Y-71600900D02*
X151468400Y-71600900D01*
X151468400Y-71600900D02*
X151468400Y-76320900D01*
X151468400Y-76320900D02*
X141348400Y-76320900D01*
X143108400Y-76320900D02*
X143108400Y-76520900D01*
X143108400Y-76520900D02*
X142808400Y-76520900D01*
X142808400Y-76520900D02*
X142808400Y-76320900D01*
X143108400Y-76420900D02*
X142808400Y-76420900D01*
X143908400Y-76320900D02*
X143908400Y-75710900D01*
X143908400Y-75710900D02*
X141958400Y-75710900D01*
X141958400Y-75710900D02*
X141958400Y-72210900D01*
X141958400Y-72210900D02*
X150858400Y-72210900D01*
X150858400Y-72210900D02*
X150858400Y-75710900D01*
X150858400Y-75710900D02*
X148908400Y-75710900D01*
X148908400Y-75710900D02*
X148908400Y-76320900D01*
X141348400Y-75010900D02*
X141958400Y-75010900D01*
X141348400Y-73710900D02*
X141958400Y-73710900D01*
X151468400Y-75010900D02*
X150858400Y-75010900D01*
X151468400Y-73710900D02*
X150858400Y-73710900D01*
X144308400Y-72210900D02*
X144308400Y-72710900D01*
X144308400Y-72710900D02*
X144508400Y-72710900D01*
X144508400Y-72710900D02*
X144508400Y-72210900D01*
X144408400Y-72210900D02*
X144408400Y-72710900D01*
X146308400Y-72210900D02*
X146308400Y-72710900D01*
X146308400Y-72710900D02*
X146508400Y-72710900D01*
X146508400Y-72710900D02*
X146508400Y-72210900D01*
X146408400Y-72210900D02*
X146408400Y-72710900D01*
X148308400Y-72210900D02*
X148308400Y-72710900D01*
X148308400Y-72710900D02*
X148508400Y-72710900D01*
X148508400Y-72710900D02*
X148508400Y-72210900D01*
X148408400Y-72210900D02*
X148408400Y-72710900D01*
X142298400Y-76620900D02*
X141048400Y-76620900D01*
X141048400Y-76620900D02*
X141048400Y-75370900D01*
%TO.C,J3*%
X128646850Y-76620900D02*
X128646850Y-75370900D01*
X129896850Y-76620900D02*
X128646850Y-76620900D01*
X136006850Y-72210900D02*
X136006850Y-72710900D01*
X136106850Y-72710900D02*
X136106850Y-72210900D01*
X135906850Y-72710900D02*
X136106850Y-72710900D01*
X135906850Y-72210900D02*
X135906850Y-72710900D01*
X134006850Y-72210900D02*
X134006850Y-72710900D01*
X134106850Y-72710900D02*
X134106850Y-72210900D01*
X133906850Y-72710900D02*
X134106850Y-72710900D01*
X133906850Y-72210900D02*
X133906850Y-72710900D01*
X132006850Y-72210900D02*
X132006850Y-72710900D01*
X132106850Y-72710900D02*
X132106850Y-72210900D01*
X131906850Y-72710900D02*
X132106850Y-72710900D01*
X131906850Y-72210900D02*
X131906850Y-72710900D01*
X139066850Y-73710900D02*
X138456850Y-73710900D01*
X139066850Y-75010900D02*
X138456850Y-75010900D01*
X128946850Y-73710900D02*
X129556850Y-73710900D01*
X128946850Y-75010900D02*
X129556850Y-75010900D01*
X136506850Y-75710900D02*
X136506850Y-76320900D01*
X138456850Y-75710900D02*
X136506850Y-75710900D01*
X138456850Y-72210900D02*
X138456850Y-75710900D01*
X129556850Y-72210900D02*
X138456850Y-72210900D01*
X129556850Y-75710900D02*
X129556850Y-72210900D01*
X131506850Y-75710900D02*
X129556850Y-75710900D01*
X131506850Y-76320900D02*
X131506850Y-75710900D01*
X130706850Y-76420900D02*
X130406850Y-76420900D01*
X130406850Y-76520900D02*
X130406850Y-76320900D01*
X130706850Y-76520900D02*
X130406850Y-76520900D01*
X130706850Y-76320900D02*
X130706850Y-76520900D01*
X139066850Y-76320900D02*
X128946850Y-76320900D01*
X139066850Y-71600900D02*
X139066850Y-76320900D01*
X128946850Y-71600900D02*
X139066850Y-71600900D01*
X128946850Y-76320900D02*
X128946850Y-71600900D01*
%TO.C,J4*%
X116245300Y-76620900D02*
X116245300Y-75370900D01*
X117495300Y-76620900D02*
X116245300Y-76620900D01*
X123605300Y-72210900D02*
X123605300Y-72710900D01*
X123705300Y-72710900D02*
X123705300Y-72210900D01*
X123505300Y-72710900D02*
X123705300Y-72710900D01*
X123505300Y-72210900D02*
X123505300Y-72710900D01*
X121605300Y-72210900D02*
X121605300Y-72710900D01*
X121705300Y-72710900D02*
X121705300Y-72210900D01*
X121505300Y-72710900D02*
X121705300Y-72710900D01*
X121505300Y-72210900D02*
X121505300Y-72710900D01*
X119605300Y-72210900D02*
X119605300Y-72710900D01*
X119705300Y-72710900D02*
X119705300Y-72210900D01*
X119505300Y-72710900D02*
X119705300Y-72710900D01*
X119505300Y-72210900D02*
X119505300Y-72710900D01*
X126665300Y-73710900D02*
X126055300Y-73710900D01*
X126665300Y-75010900D02*
X126055300Y-75010900D01*
X116545300Y-73710900D02*
X117155300Y-73710900D01*
X116545300Y-75010900D02*
X117155300Y-75010900D01*
X124105300Y-75710900D02*
X124105300Y-76320900D01*
X126055300Y-75710900D02*
X124105300Y-75710900D01*
X126055300Y-72210900D02*
X126055300Y-75710900D01*
X117155300Y-72210900D02*
X126055300Y-72210900D01*
X117155300Y-75710900D02*
X117155300Y-72210900D01*
X119105300Y-75710900D02*
X117155300Y-75710900D01*
X119105300Y-76320900D02*
X119105300Y-75710900D01*
X118305300Y-76420900D02*
X118005300Y-76420900D01*
X118005300Y-76520900D02*
X118005300Y-76320900D01*
X118305300Y-76520900D02*
X118005300Y-76520900D01*
X118305300Y-76320900D02*
X118305300Y-76520900D01*
X126665300Y-76320900D02*
X116545300Y-76320900D01*
X126665300Y-71600900D02*
X126665300Y-76320900D01*
X116545300Y-71600900D02*
X126665300Y-71600900D01*
X116545300Y-76320900D02*
X116545300Y-71600900D01*
%TO.C,J5*%
X98046200Y-76608200D02*
X98046200Y-75358200D01*
X99296200Y-76608200D02*
X98046200Y-76608200D01*
X105406200Y-72198200D02*
X105406200Y-72698200D01*
X105506200Y-72698200D02*
X105506200Y-72198200D01*
X105306200Y-72698200D02*
X105506200Y-72698200D01*
X105306200Y-72198200D02*
X105306200Y-72698200D01*
X103406200Y-72198200D02*
X103406200Y-72698200D01*
X103506200Y-72698200D02*
X103506200Y-72198200D01*
X103306200Y-72698200D02*
X103506200Y-72698200D01*
X103306200Y-72198200D02*
X103306200Y-72698200D01*
X101406200Y-72198200D02*
X101406200Y-72698200D01*
X101506200Y-72698200D02*
X101506200Y-72198200D01*
X101306200Y-72698200D02*
X101506200Y-72698200D01*
X101306200Y-72198200D02*
X101306200Y-72698200D01*
X108466200Y-73698200D02*
X107856200Y-73698200D01*
X108466200Y-74998200D02*
X107856200Y-74998200D01*
X98346200Y-73698200D02*
X98956200Y-73698200D01*
X98346200Y-74998200D02*
X98956200Y-74998200D01*
X105906200Y-75698200D02*
X105906200Y-76308200D01*
X107856200Y-75698200D02*
X105906200Y-75698200D01*
X107856200Y-72198200D02*
X107856200Y-75698200D01*
X98956200Y-72198200D02*
X107856200Y-72198200D01*
X98956200Y-75698200D02*
X98956200Y-72198200D01*
X100906200Y-75698200D02*
X98956200Y-75698200D01*
X100906200Y-76308200D02*
X100906200Y-75698200D01*
X100106200Y-76408200D02*
X99806200Y-76408200D01*
X99806200Y-76508200D02*
X99806200Y-76308200D01*
X100106200Y-76508200D02*
X99806200Y-76508200D01*
X100106200Y-76308200D02*
X100106200Y-76508200D01*
X108466200Y-76308200D02*
X98346200Y-76308200D01*
X108466200Y-71588200D02*
X108466200Y-76308200D01*
X98346200Y-71588200D02*
X108466200Y-71588200D01*
X98346200Y-76308200D02*
X98346200Y-71588200D01*
%TO.C,J6*%
X120131500Y-138063500D02*
X120131500Y-136813500D01*
X121381500Y-138063500D02*
X120131500Y-138063500D01*
X125491500Y-133653500D02*
X125491500Y-134153500D01*
X125591500Y-134153500D02*
X125591500Y-133653500D01*
X125391500Y-134153500D02*
X125591500Y-134153500D01*
X125391500Y-133653500D02*
X125391500Y-134153500D01*
X123491500Y-133653500D02*
X123491500Y-134153500D01*
X123591500Y-134153500D02*
X123591500Y-133653500D01*
X123391500Y-134153500D02*
X123591500Y-134153500D01*
X123391500Y-133653500D02*
X123391500Y-134153500D01*
X128551500Y-135153500D02*
X127941500Y-135153500D01*
X128551500Y-136453500D02*
X127941500Y-136453500D01*
X120431500Y-135153500D02*
X121041500Y-135153500D01*
X120431500Y-136453500D02*
X121041500Y-136453500D01*
X125991500Y-137153500D02*
X125991500Y-137763500D01*
X127941500Y-137153500D02*
X125991500Y-137153500D01*
X127941500Y-133653500D02*
X127941500Y-137153500D01*
X121041500Y-133653500D02*
X127941500Y-133653500D01*
X121041500Y-137153500D02*
X121041500Y-133653500D01*
X122991500Y-137153500D02*
X121041500Y-137153500D01*
X122991500Y-137763500D02*
X122991500Y-137153500D01*
X122191500Y-137863500D02*
X121891500Y-137863500D01*
X121891500Y-137963500D02*
X121891500Y-137763500D01*
X122191500Y-137963500D02*
X121891500Y-137963500D01*
X122191500Y-137763500D02*
X122191500Y-137963500D01*
X128551500Y-137763500D02*
X120431500Y-137763500D01*
X128551500Y-133043500D02*
X128551500Y-137763500D01*
X120431500Y-133043500D02*
X128551500Y-133043500D01*
X120431500Y-137763500D02*
X120431500Y-133043500D01*
%TO.C,J8*%
X128940900Y-81621100D02*
X128940900Y-82871100D01*
X127690900Y-81621100D02*
X128940900Y-81621100D01*
X119580900Y-86031100D02*
X119580900Y-85531100D01*
X119480900Y-85531100D02*
X119480900Y-86031100D01*
X119680900Y-85531100D02*
X119480900Y-85531100D01*
X119680900Y-86031100D02*
X119680900Y-85531100D01*
X121580900Y-86031100D02*
X121580900Y-85531100D01*
X121480900Y-85531100D02*
X121480900Y-86031100D01*
X121680900Y-85531100D02*
X121480900Y-85531100D01*
X121680900Y-86031100D02*
X121680900Y-85531100D01*
X123580900Y-86031100D02*
X123580900Y-85531100D01*
X123480900Y-85531100D02*
X123480900Y-86031100D01*
X123680900Y-85531100D02*
X123480900Y-85531100D01*
X123680900Y-86031100D02*
X123680900Y-85531100D01*
X125580900Y-86031100D02*
X125580900Y-85531100D01*
X125480900Y-85531100D02*
X125480900Y-86031100D01*
X125680900Y-85531100D02*
X125480900Y-85531100D01*
X125680900Y-86031100D02*
X125680900Y-85531100D01*
X116520900Y-84531100D02*
X117130900Y-84531100D01*
X116520900Y-83231100D02*
X117130900Y-83231100D01*
X128640900Y-84531100D02*
X128030900Y-84531100D01*
X128640900Y-83231100D02*
X128030900Y-83231100D01*
X119080900Y-82531100D02*
X119080900Y-81921100D01*
X117130900Y-82531100D02*
X119080900Y-82531100D01*
X117130900Y-86031100D02*
X117130900Y-82531100D01*
X128030900Y-86031100D02*
X117130900Y-86031100D01*
X128030900Y-82531100D02*
X128030900Y-86031100D01*
X126080900Y-82531100D02*
X128030900Y-82531100D01*
X126080900Y-81921100D02*
X126080900Y-82531100D01*
X126880900Y-81821100D02*
X127180900Y-81821100D01*
X127180900Y-81721100D02*
X127180900Y-81921100D01*
X126880900Y-81721100D02*
X127180900Y-81721100D01*
X126880900Y-81921100D02*
X126880900Y-81721100D01*
X116520900Y-81921100D02*
X128640900Y-81921100D01*
X116520900Y-86641100D02*
X116520900Y-81921100D01*
X128640900Y-86641100D02*
X116520900Y-86641100D01*
X128640900Y-81921100D02*
X128640900Y-86641100D01*
%TO.C,J9*%
X86447700Y-112417100D02*
X86447700Y-107697100D01*
X86447700Y-107697100D02*
X98567700Y-107697100D01*
X98567700Y-107697100D02*
X98567700Y-112417100D01*
X98567700Y-112417100D02*
X86447700Y-112417100D01*
X88207700Y-112417100D02*
X88207700Y-112617100D01*
X88207700Y-112617100D02*
X87907700Y-112617100D01*
X87907700Y-112617100D02*
X87907700Y-112417100D01*
X88207700Y-112517100D02*
X87907700Y-112517100D01*
X89007700Y-112417100D02*
X89007700Y-111807100D01*
X89007700Y-111807100D02*
X87057700Y-111807100D01*
X87057700Y-111807100D02*
X87057700Y-108307100D01*
X87057700Y-108307100D02*
X97957700Y-108307100D01*
X97957700Y-108307100D02*
X97957700Y-111807100D01*
X97957700Y-111807100D02*
X96007700Y-111807100D01*
X96007700Y-111807100D02*
X96007700Y-112417100D01*
X86447700Y-111107100D02*
X87057700Y-111107100D01*
X86447700Y-109807100D02*
X87057700Y-109807100D01*
X98567700Y-111107100D02*
X97957700Y-111107100D01*
X98567700Y-109807100D02*
X97957700Y-109807100D01*
X89407700Y-108307100D02*
X89407700Y-108807100D01*
X89407700Y-108807100D02*
X89607700Y-108807100D01*
X89607700Y-108807100D02*
X89607700Y-108307100D01*
X89507700Y-108307100D02*
X89507700Y-108807100D01*
X91407700Y-108307100D02*
X91407700Y-108807100D01*
X91407700Y-108807100D02*
X91607700Y-108807100D01*
X91607700Y-108807100D02*
X91607700Y-108307100D01*
X91507700Y-108307100D02*
X91507700Y-108807100D01*
X93407700Y-108307100D02*
X93407700Y-108807100D01*
X93407700Y-108807100D02*
X93607700Y-108807100D01*
X93607700Y-108807100D02*
X93607700Y-108307100D01*
X93507700Y-108307100D02*
X93507700Y-108807100D01*
X95407700Y-108307100D02*
X95407700Y-108807100D01*
X95407700Y-108807100D02*
X95607700Y-108807100D01*
X95607700Y-108807100D02*
X95607700Y-108307100D01*
X95507700Y-108307100D02*
X95507700Y-108807100D01*
X87397700Y-112717100D02*
X86147700Y-112717100D01*
X86147700Y-112717100D02*
X86147700Y-111467100D01*
%TO.C,J13*%
X140214000Y-137894400D02*
X139714000Y-137894400D01*
X140214000Y-137154400D02*
X140214000Y-137894400D01*
X133641000Y-134017400D02*
X133688000Y-134063400D01*
X131344000Y-131719400D02*
X131379000Y-131755400D01*
X133448000Y-134233400D02*
X133483000Y-134268400D01*
X131139000Y-131925400D02*
X131186000Y-131971400D01*
X129854000Y-127733400D02*
X129854000Y-137654400D01*
X139974000Y-127733400D02*
X139974000Y-137654400D01*
X139974000Y-137654400D02*
X129854000Y-137654400D01*
X139974000Y-127733400D02*
X129854000Y-127733400D01*
X139974000Y-130693400D02*
X129854000Y-130693400D01*
X139974000Y-135594400D02*
X129854000Y-135594400D01*
X139974000Y-137094400D02*
X129854000Y-137094400D01*
X134094000Y-132994400D02*
G75*
G03*
X134094000Y-132994400I-1680000J0D01*
G01*
X136730682Y-134529156D02*
G75*
G03*
X137414000Y-134674400I683318J1534756D01*
G01*
X135878574Y-132311358D02*
G75*
G03*
X135879000Y-133678400I1535426J-683042D01*
G01*
X138097042Y-131458974D02*
G75*
G03*
X136730000Y-131459400I-683042J-1535426D01*
G01*
X138949426Y-133677442D02*
G75*
G03*
X138949000Y-132310400I-1535426J683042D01*
G01*
X137385195Y-134674653D02*
G75*
G03*
X138098000Y-134529400I28805J1680253D01*
G01*
%TO.C,J14*%
X93143600Y-138046800D02*
X91893600Y-138046800D01*
X93143600Y-136796800D02*
X93143600Y-138046800D01*
X88733600Y-130686800D02*
X89233600Y-130686800D01*
X89233600Y-130586800D02*
X88733600Y-130586800D01*
X89233600Y-130786800D02*
X89233600Y-130586800D01*
X88733600Y-130786800D02*
X89233600Y-130786800D01*
X88733600Y-132686800D02*
X89233600Y-132686800D01*
X89233600Y-132586800D02*
X88733600Y-132586800D01*
X89233600Y-132786800D02*
X89233600Y-132586800D01*
X88733600Y-132786800D02*
X89233600Y-132786800D01*
X88733600Y-134686800D02*
X89233600Y-134686800D01*
X89233600Y-134586800D02*
X88733600Y-134586800D01*
X89233600Y-134786800D02*
X89233600Y-134586800D01*
X88733600Y-134786800D02*
X89233600Y-134786800D01*
X90233600Y-127626800D02*
X90233600Y-128236800D01*
X91533600Y-127626800D02*
X91533600Y-128236800D01*
X90233600Y-137746800D02*
X90233600Y-137136800D01*
X91533600Y-137746800D02*
X91533600Y-137136800D01*
X92233600Y-130186800D02*
X92843600Y-130186800D01*
X92233600Y-128236800D02*
X92233600Y-130186800D01*
X88733600Y-128236800D02*
X92233600Y-128236800D01*
X88733600Y-137136800D02*
X88733600Y-128236800D01*
X92233600Y-137136800D02*
X88733600Y-137136800D01*
X92233600Y-135186800D02*
X92233600Y-137136800D01*
X92843600Y-135186800D02*
X92233600Y-135186800D01*
X92943600Y-135986800D02*
X92943600Y-136286800D01*
X93043600Y-136286800D02*
X92843600Y-136286800D01*
X93043600Y-135986800D02*
X93043600Y-136286800D01*
X92843600Y-135986800D02*
X93043600Y-135986800D01*
X92843600Y-127626800D02*
X92843600Y-137746800D01*
X88123600Y-127626800D02*
X92843600Y-127626800D01*
X88123600Y-137746800D02*
X88123600Y-127626800D01*
X92843600Y-137746800D02*
X88123600Y-137746800D01*
%TO.C,J15*%
X101166333Y-137746800D02*
X96446333Y-137746800D01*
X96446333Y-137746800D02*
X96446333Y-127626800D01*
X96446333Y-127626800D02*
X101166333Y-127626800D01*
X101166333Y-127626800D02*
X101166333Y-137746800D01*
X101166333Y-135986800D02*
X101366333Y-135986800D01*
X101366333Y-135986800D02*
X101366333Y-136286800D01*
X101366333Y-136286800D02*
X101166333Y-136286800D01*
X101266333Y-135986800D02*
X101266333Y-136286800D01*
X101166333Y-135186800D02*
X100556333Y-135186800D01*
X100556333Y-135186800D02*
X100556333Y-137136800D01*
X100556333Y-137136800D02*
X97056333Y-137136800D01*
X97056333Y-137136800D02*
X97056333Y-128236800D01*
X97056333Y-128236800D02*
X100556333Y-128236800D01*
X100556333Y-128236800D02*
X100556333Y-130186800D01*
X100556333Y-130186800D02*
X101166333Y-130186800D01*
X99856333Y-137746800D02*
X99856333Y-137136800D01*
X98556333Y-137746800D02*
X98556333Y-137136800D01*
X99856333Y-127626800D02*
X99856333Y-128236800D01*
X98556333Y-127626800D02*
X98556333Y-128236800D01*
X97056333Y-134786800D02*
X97556333Y-134786800D01*
X97556333Y-134786800D02*
X97556333Y-134586800D01*
X97556333Y-134586800D02*
X97056333Y-134586800D01*
X97056333Y-134686800D02*
X97556333Y-134686800D01*
X97056333Y-132786800D02*
X97556333Y-132786800D01*
X97556333Y-132786800D02*
X97556333Y-132586800D01*
X97556333Y-132586800D02*
X97056333Y-132586800D01*
X97056333Y-132686800D02*
X97556333Y-132686800D01*
X97056333Y-130786800D02*
X97556333Y-130786800D01*
X97556333Y-130786800D02*
X97556333Y-130586800D01*
X97556333Y-130586800D02*
X97056333Y-130586800D01*
X97056333Y-130686800D02*
X97556333Y-130686800D01*
X101466333Y-136796800D02*
X101466333Y-138046800D01*
X101466333Y-138046800D02*
X100216333Y-138046800D01*
%TO.C,J16*%
X109489066Y-137746800D02*
X104769066Y-137746800D01*
X104769066Y-137746800D02*
X104769066Y-127626800D01*
X104769066Y-127626800D02*
X109489066Y-127626800D01*
X109489066Y-127626800D02*
X109489066Y-137746800D01*
X109489066Y-135986800D02*
X109689066Y-135986800D01*
X109689066Y-135986800D02*
X109689066Y-136286800D01*
X109689066Y-136286800D02*
X109489066Y-136286800D01*
X109589066Y-135986800D02*
X109589066Y-136286800D01*
X109489066Y-135186800D02*
X108879066Y-135186800D01*
X108879066Y-135186800D02*
X108879066Y-137136800D01*
X108879066Y-137136800D02*
X105379066Y-137136800D01*
X105379066Y-137136800D02*
X105379066Y-128236800D01*
X105379066Y-128236800D02*
X108879066Y-128236800D01*
X108879066Y-128236800D02*
X108879066Y-130186800D01*
X108879066Y-130186800D02*
X109489066Y-130186800D01*
X108179066Y-137746800D02*
X108179066Y-137136800D01*
X106879066Y-137746800D02*
X106879066Y-137136800D01*
X108179066Y-127626800D02*
X108179066Y-128236800D01*
X106879066Y-127626800D02*
X106879066Y-128236800D01*
X105379066Y-134786800D02*
X105879066Y-134786800D01*
X105879066Y-134786800D02*
X105879066Y-134586800D01*
X105879066Y-134586800D02*
X105379066Y-134586800D01*
X105379066Y-134686800D02*
X105879066Y-134686800D01*
X105379066Y-132786800D02*
X105879066Y-132786800D01*
X105879066Y-132786800D02*
X105879066Y-132586800D01*
X105879066Y-132586800D02*
X105379066Y-132586800D01*
X105379066Y-132686800D02*
X105879066Y-132686800D01*
X105379066Y-130786800D02*
X105879066Y-130786800D01*
X105879066Y-130786800D02*
X105879066Y-130586800D01*
X105879066Y-130586800D02*
X105379066Y-130586800D01*
X105379066Y-130686800D02*
X105879066Y-130686800D01*
X109789066Y-136796800D02*
X109789066Y-138046800D01*
X109789066Y-138046800D02*
X108539066Y-138046800D01*
%TO.C,J17*%
X117811800Y-137746800D02*
X113091800Y-137746800D01*
X113091800Y-137746800D02*
X113091800Y-127626800D01*
X113091800Y-127626800D02*
X117811800Y-127626800D01*
X117811800Y-127626800D02*
X117811800Y-137746800D01*
X117811800Y-135986800D02*
X118011800Y-135986800D01*
X118011800Y-135986800D02*
X118011800Y-136286800D01*
X118011800Y-136286800D02*
X117811800Y-136286800D01*
X117911800Y-135986800D02*
X117911800Y-136286800D01*
X117811800Y-135186800D02*
X117201800Y-135186800D01*
X117201800Y-135186800D02*
X117201800Y-137136800D01*
X117201800Y-137136800D02*
X113701800Y-137136800D01*
X113701800Y-137136800D02*
X113701800Y-128236800D01*
X113701800Y-128236800D02*
X117201800Y-128236800D01*
X117201800Y-128236800D02*
X117201800Y-130186800D01*
X117201800Y-130186800D02*
X117811800Y-130186800D01*
X116501800Y-137746800D02*
X116501800Y-137136800D01*
X115201800Y-137746800D02*
X115201800Y-137136800D01*
X116501800Y-127626800D02*
X116501800Y-128236800D01*
X115201800Y-127626800D02*
X115201800Y-128236800D01*
X113701800Y-134786800D02*
X114201800Y-134786800D01*
X114201800Y-134786800D02*
X114201800Y-134586800D01*
X114201800Y-134586800D02*
X113701800Y-134586800D01*
X113701800Y-134686800D02*
X114201800Y-134686800D01*
X113701800Y-132786800D02*
X114201800Y-132786800D01*
X114201800Y-132786800D02*
X114201800Y-132586800D01*
X114201800Y-132586800D02*
X113701800Y-132586800D01*
X113701800Y-132686800D02*
X114201800Y-132686800D01*
X113701800Y-130786800D02*
X114201800Y-130786800D01*
X114201800Y-130786800D02*
X114201800Y-130586800D01*
X114201800Y-130586800D02*
X113701800Y-130586800D01*
X113701800Y-130686800D02*
X114201800Y-130686800D01*
X118111800Y-136796800D02*
X118111800Y-138046800D01*
X118111800Y-138046800D02*
X116861800Y-138046800D01*
%TO.C,U3*%
X150194600Y-102995200D02*
X147580600Y-102995200D01*
X150194600Y-106395200D02*
X147580600Y-106395200D01*
X154835600Y-102845200D02*
X153326600Y-102845200D01*
X154835600Y-106545200D02*
X153326600Y-106545200D01*
X153326600Y-109816200D02*
X153326600Y-99575200D01*
X154835600Y-99575200D02*
X150194600Y-99575200D01*
X154835600Y-109816200D02*
X150194600Y-109816200D01*
X150194600Y-100230200D02*
X150194600Y-99575200D01*
X150194600Y-103630200D02*
X150194600Y-102360200D01*
X150194600Y-107045200D02*
X150194600Y-105760200D01*
X150194600Y-109816200D02*
X150194600Y-109145200D01*
X154835600Y-109816200D02*
X154835600Y-99575200D01*
D10*
%TO.C,Q1*%
X91236800Y-77546200D02*
X91236800Y-70942200D01*
X91998800Y-70942200D02*
X91998800Y-77546200D01*
D11*
X85817800Y-71176200D02*
X85817800Y-77176200D01*
X97417800Y-71176200D02*
X97417800Y-77176200D01*
X97417800Y-71176200D02*
X85817800Y-71176200D01*
X97417800Y-77176200D02*
X85817800Y-77176200D01*
%TO.C,J11*%
X148680000Y-88500000D02*
X149180000Y-89000000D01*
X148680000Y-89500000D02*
X148680000Y-88500000D01*
X149180000Y-89000000D02*
X148680000Y-89500000D01*
X166120000Y-81590000D02*
X157760000Y-81590000D01*
X166120000Y-93910000D02*
X166120000Y-81590000D01*
X157760000Y-93910000D02*
X166120000Y-93910000D01*
X149400000Y-81590000D02*
X153660000Y-81590000D01*
X149400000Y-93910000D02*
X149400000Y-81590000D01*
X153660000Y-93910000D02*
X149400000Y-93910000D01*
%TO.C,C16*%
X130887102Y-125066800D02*
X130887102Y-124266800D01*
X130487102Y-124666800D02*
X131287102Y-124666800D01*
X138977800Y-122884800D02*
X138977800Y-121818800D01*
X138937800Y-123119800D02*
X138937800Y-121583800D01*
X138897800Y-123299800D02*
X138897800Y-121403800D01*
X138857800Y-123449800D02*
X138857800Y-121253800D01*
X138817800Y-123580800D02*
X138817800Y-121122800D01*
X138777800Y-123697800D02*
X138777800Y-121005800D01*
X138737800Y-123804800D02*
X138737800Y-120898800D01*
X138697800Y-123903800D02*
X138697800Y-120799800D01*
X138657800Y-123996800D02*
X138657800Y-120706800D01*
X138617800Y-124082800D02*
X138617800Y-120620800D01*
X138577800Y-124164800D02*
X138577800Y-120538800D01*
X138537800Y-124241800D02*
X138537800Y-120461800D01*
X138497800Y-124315800D02*
X138497800Y-120387800D01*
X138457800Y-124385800D02*
X138457800Y-120317800D01*
X138417800Y-124453800D02*
X138417800Y-120249800D01*
X138377800Y-124517800D02*
X138377800Y-120185800D01*
X138337800Y-124579800D02*
X138337800Y-120123800D01*
X138297800Y-124638800D02*
X138297800Y-120064800D01*
X138257800Y-124696800D02*
X138257800Y-120006800D01*
X138217800Y-124751800D02*
X138217800Y-119951800D01*
X138177800Y-124805800D02*
X138177800Y-119897800D01*
X138137800Y-124856800D02*
X138137800Y-119846800D01*
X138097800Y-124907800D02*
X138097800Y-119795800D01*
X138057800Y-124955800D02*
X138057800Y-119747800D01*
X138017800Y-125002800D02*
X138017800Y-119700800D01*
X137977800Y-125048800D02*
X137977800Y-119654800D01*
X137937800Y-125092800D02*
X137937800Y-119610800D01*
X137897800Y-125135800D02*
X137897800Y-119567800D01*
X137857800Y-125177800D02*
X137857800Y-119525800D01*
X137817800Y-125218800D02*
X137817800Y-119484800D01*
X137777800Y-125258800D02*
X137777800Y-119444800D01*
X137737800Y-125296800D02*
X137737800Y-119406800D01*
X137697800Y-125334800D02*
X137697800Y-119368800D01*
X137657800Y-121311800D02*
X137657800Y-119332800D01*
X137657800Y-125370800D02*
X137657800Y-123391800D01*
X137617800Y-121311800D02*
X137617800Y-119296800D01*
X137617800Y-125406800D02*
X137617800Y-123391800D01*
X137577800Y-121311800D02*
X137577800Y-119261800D01*
X137577800Y-125441800D02*
X137577800Y-123391800D01*
X137537800Y-121311800D02*
X137537800Y-119227800D01*
X137537800Y-125475800D02*
X137537800Y-123391800D01*
X137497800Y-121311800D02*
X137497800Y-119195800D01*
X137497800Y-125507800D02*
X137497800Y-123391800D01*
X137457800Y-121311800D02*
X137457800Y-119162800D01*
X137457800Y-125540800D02*
X137457800Y-123391800D01*
X137417800Y-121311800D02*
X137417800Y-119131800D01*
X137417800Y-125571800D02*
X137417800Y-123391800D01*
X137377800Y-121311800D02*
X137377800Y-119101800D01*
X137377800Y-125601800D02*
X137377800Y-123391800D01*
X137337800Y-121311800D02*
X137337800Y-119071800D01*
X137337800Y-125631800D02*
X137337800Y-123391800D01*
X137297800Y-121311800D02*
X137297800Y-119042800D01*
X137297800Y-125660800D02*
X137297800Y-123391800D01*
X137257800Y-121311800D02*
X137257800Y-119013800D01*
X137257800Y-125689800D02*
X137257800Y-123391800D01*
X137217800Y-121311800D02*
X137217800Y-118986800D01*
X137217800Y-125716800D02*
X137217800Y-123391800D01*
X137177800Y-121311800D02*
X137177800Y-118959800D01*
X137177800Y-125743800D02*
X137177800Y-123391800D01*
X137137800Y-121311800D02*
X137137800Y-118933800D01*
X137137800Y-125769800D02*
X137137800Y-123391800D01*
X137097800Y-121311800D02*
X137097800Y-118907800D01*
X137097800Y-125795800D02*
X137097800Y-123391800D01*
X137057800Y-121311800D02*
X137057800Y-118882800D01*
X137057800Y-125820800D02*
X137057800Y-123391800D01*
X137017800Y-121311800D02*
X137017800Y-118858800D01*
X137017800Y-125844800D02*
X137017800Y-123391800D01*
X136977800Y-121311800D02*
X136977800Y-118834800D01*
X136977800Y-125868800D02*
X136977800Y-123391800D01*
X136937800Y-121311800D02*
X136937800Y-118811800D01*
X136937800Y-125891800D02*
X136937800Y-123391800D01*
X136897800Y-121311800D02*
X136897800Y-118789800D01*
X136897800Y-125913800D02*
X136897800Y-123391800D01*
X136857800Y-121311800D02*
X136857800Y-118767800D01*
X136857800Y-125935800D02*
X136857800Y-123391800D01*
X136817800Y-121311800D02*
X136817800Y-118745800D01*
X136817800Y-125957800D02*
X136817800Y-123391800D01*
X136777800Y-121311800D02*
X136777800Y-118724800D01*
X136777800Y-125978800D02*
X136777800Y-123391800D01*
X136737800Y-121311800D02*
X136737800Y-118704800D01*
X136737800Y-125998800D02*
X136737800Y-123391800D01*
X136697800Y-121311800D02*
X136697800Y-118685800D01*
X136697800Y-126017800D02*
X136697800Y-123391800D01*
X136657800Y-121311800D02*
X136657800Y-118665800D01*
X136657800Y-126037800D02*
X136657800Y-123391800D01*
X136617800Y-121311800D02*
X136617800Y-118647800D01*
X136617800Y-126055800D02*
X136617800Y-123391800D01*
X136577800Y-121311800D02*
X136577800Y-118629800D01*
X136577800Y-126073800D02*
X136577800Y-123391800D01*
X136537800Y-121311800D02*
X136537800Y-118611800D01*
X136537800Y-126091800D02*
X136537800Y-123391800D01*
X136497800Y-121311800D02*
X136497800Y-118594800D01*
X136497800Y-126108800D02*
X136497800Y-123391800D01*
X136457800Y-121311800D02*
X136457800Y-118577800D01*
X136457800Y-126125800D02*
X136457800Y-123391800D01*
X136417800Y-121311800D02*
X136417800Y-118561800D01*
X136417800Y-126141800D02*
X136417800Y-123391800D01*
X136377800Y-121311800D02*
X136377800Y-118546800D01*
X136377800Y-126156800D02*
X136377800Y-123391800D01*
X136337800Y-121311800D02*
X136337800Y-118530800D01*
X136337800Y-126172800D02*
X136337800Y-123391800D01*
X136297800Y-121311800D02*
X136297800Y-118516800D01*
X136297800Y-126186800D02*
X136297800Y-123391800D01*
X136257800Y-121311800D02*
X136257800Y-118501800D01*
X136257800Y-126201800D02*
X136257800Y-123391800D01*
X136217800Y-121311800D02*
X136217800Y-118488800D01*
X136217800Y-126214800D02*
X136217800Y-123391800D01*
X136177800Y-121311800D02*
X136177800Y-118474800D01*
X136177800Y-126228800D02*
X136177800Y-123391800D01*
X136137800Y-121311800D02*
X136137800Y-118462800D01*
X136137800Y-126240800D02*
X136137800Y-123391800D01*
X136097800Y-121311800D02*
X136097800Y-118449800D01*
X136097800Y-126253800D02*
X136097800Y-123391800D01*
X136057800Y-121311800D02*
X136057800Y-118437800D01*
X136057800Y-126265800D02*
X136057800Y-123391800D01*
X136017800Y-121311800D02*
X136017800Y-118426800D01*
X136017800Y-126276800D02*
X136017800Y-123391800D01*
X135977800Y-121311800D02*
X135977800Y-118415800D01*
X135977800Y-126287800D02*
X135977800Y-123391800D01*
X135937800Y-121311800D02*
X135937800Y-118404800D01*
X135937800Y-126298800D02*
X135937800Y-123391800D01*
X135897800Y-121311800D02*
X135897800Y-118394800D01*
X135897800Y-126308800D02*
X135897800Y-123391800D01*
X135857800Y-121311800D02*
X135857800Y-118384800D01*
X135857800Y-126318800D02*
X135857800Y-123391800D01*
X135817800Y-121311800D02*
X135817800Y-118375800D01*
X135817800Y-126327800D02*
X135817800Y-123391800D01*
X135777800Y-121311800D02*
X135777800Y-118366800D01*
X135777800Y-126336800D02*
X135777800Y-123391800D01*
X135737800Y-121311800D02*
X135737800Y-118357800D01*
X135737800Y-126345800D02*
X135737800Y-123391800D01*
X135697800Y-121311800D02*
X135697800Y-118349800D01*
X135697800Y-126353800D02*
X135697800Y-123391800D01*
X135657800Y-121311800D02*
X135657800Y-118341800D01*
X135657800Y-126361800D02*
X135657800Y-123391800D01*
X135617800Y-121311800D02*
X135617800Y-118334800D01*
X135617800Y-126368800D02*
X135617800Y-123391800D01*
X135576800Y-126375800D02*
X135576800Y-118327800D01*
X135536800Y-126381800D02*
X135536800Y-118321800D01*
X135496800Y-126388800D02*
X135496800Y-118314800D01*
X135456800Y-126393800D02*
X135456800Y-118309800D01*
X135416800Y-126399800D02*
X135416800Y-118303800D01*
X135376800Y-126403800D02*
X135376800Y-118299800D01*
X135336800Y-126408800D02*
X135336800Y-118294800D01*
X135296800Y-126412800D02*
X135296800Y-118290800D01*
X135256800Y-126416800D02*
X135256800Y-118286800D01*
X135216800Y-126419800D02*
X135216800Y-118283800D01*
X135176800Y-126422800D02*
X135176800Y-118280800D01*
X135136800Y-126425800D02*
X135136800Y-118277800D01*
X135096800Y-126427800D02*
X135096800Y-118275800D01*
X135056800Y-126428800D02*
X135056800Y-118274800D01*
X135016800Y-126430800D02*
X135016800Y-118272800D01*
X134976800Y-126431800D02*
X134976800Y-118271800D01*
X134936800Y-126431800D02*
X134936800Y-118271800D01*
X134896800Y-126431800D02*
X134896800Y-118271800D01*
X139016800Y-122351800D02*
G75*
G03*
X139016800Y-122351800I-4120000J0D01*
G01*
%TO.C,L1*%
X134554600Y-105765600D02*
G75*
G03*
X134554600Y-105765600I-1404000J0D01*
G01*
X136263785Y-107025600D02*
G75*
G02*
X130037415Y-107025600I-3113185J1260000D01*
G01*
X136263785Y-104505600D02*
G75*
G03*
X130037415Y-104505600I-3113185J-1260000D01*
G01*
%TO.C,J18*%
X109427200Y-76308200D02*
X109427200Y-71588200D01*
X109427200Y-71588200D02*
X115547200Y-71588200D01*
X115547200Y-71588200D02*
X115547200Y-76308200D01*
X115547200Y-76308200D02*
X109427200Y-76308200D01*
X111187200Y-76308200D02*
X111187200Y-76508200D01*
X111187200Y-76508200D02*
X110887200Y-76508200D01*
X110887200Y-76508200D02*
X110887200Y-76308200D01*
X111187200Y-76408200D02*
X110887200Y-76408200D01*
X111987200Y-76308200D02*
X111987200Y-75698200D01*
X111987200Y-75698200D02*
X110037200Y-75698200D01*
X110037200Y-75698200D02*
X110037200Y-72198200D01*
X110037200Y-72198200D02*
X114937200Y-72198200D01*
X114937200Y-72198200D02*
X114937200Y-75698200D01*
X114937200Y-75698200D02*
X112987200Y-75698200D01*
X112987200Y-75698200D02*
X112987200Y-76308200D01*
X109427200Y-74998200D02*
X110037200Y-74998200D01*
X109427200Y-73698200D02*
X110037200Y-73698200D01*
X115547200Y-74998200D02*
X114937200Y-74998200D01*
X115547200Y-73698200D02*
X114937200Y-73698200D01*
X112387200Y-72198200D02*
X112387200Y-72698200D01*
X112387200Y-72698200D02*
X112587200Y-72698200D01*
X112587200Y-72698200D02*
X112587200Y-72198200D01*
X112487200Y-72198200D02*
X112487200Y-72698200D01*
X110377200Y-76608200D02*
X109127200Y-76608200D01*
X109127200Y-76608200D02*
X109127200Y-75358200D01*
%TO.C,D12*%
D10*
X137525095Y-115572866D02*
X137048904Y-115572866D01*
X137620333Y-115858580D02*
X137287000Y-114858580D01*
X136953666Y-115858580D01*
%TD*%
M02*
