%TF.GenerationSoftware,KiCad,Pcbnew,5.1.10*%
%TF.CreationDate,2021-08-09T17:29:30+03:00*%
%TF.ProjectId,stm32,73746d33-322e-46b6-9963-61645f706362,rev?*%
%TF.SameCoordinates,Original*%
%TF.FileFunction,Paste,Top*%
%TF.FilePolarity,Positive*%
%FSLAX46Y46*%
G04 Gerber Fmt 4.6, Leading zero omitted, Abs format (unit mm)*
G04 Created by KiCad (PCBNEW 5.1.10) date 2021-08-09 17:29:30*
%MOMM*%
%LPD*%
G01*
G04 APERTURE LIST*
%ADD10R,1.500000X0.600000*%
%ADD11C,0.100000*%
%ADD12R,1.550000X0.600000*%
%ADD13R,0.900000X0.800000*%
%ADD14R,1.900000X0.800000*%
%ADD15R,0.800000X1.900000*%
%ADD16R,3.800000X2.000000*%
%ADD17R,1.500000X2.000000*%
G04 APERTURE END LIST*
D10*
%TO.C,U5*%
X121361200Y-111937800D03*
X121361200Y-113207800D03*
X121361200Y-114477800D03*
X121361200Y-115747800D03*
X121361200Y-117017800D03*
X121361200Y-118287800D03*
X121361200Y-119557800D03*
X121361200Y-120827800D03*
X115961200Y-120827800D03*
X115961200Y-119557800D03*
X115961200Y-118287800D03*
X115961200Y-117017800D03*
X115961200Y-115747800D03*
X115961200Y-114477800D03*
X115961200Y-113207800D03*
X115961200Y-111937800D03*
%TD*%
%TO.C,C1*%
G36*
G01*
X94947000Y-74287801D02*
X94947000Y-73387799D01*
G75*
G02*
X95196999Y-73137800I249999J0D01*
G01*
X95847001Y-73137800D01*
G75*
G02*
X96097000Y-73387799I0J-249999D01*
G01*
X96097000Y-74287801D01*
G75*
G02*
X95847001Y-74537800I-249999J0D01*
G01*
X95196999Y-74537800D01*
G75*
G02*
X94947000Y-74287801I0J249999D01*
G01*
G37*
G36*
G01*
X92897000Y-74287801D02*
X92897000Y-73387799D01*
G75*
G02*
X93146999Y-73137800I249999J0D01*
G01*
X93797001Y-73137800D01*
G75*
G02*
X94047000Y-73387799I0J-249999D01*
G01*
X94047000Y-74287801D01*
G75*
G02*
X93797001Y-74537800I-249999J0D01*
G01*
X93146999Y-74537800D01*
G75*
G02*
X92897000Y-74287801I0J249999D01*
G01*
G37*
%TD*%
%TO.C,C5*%
G36*
G01*
X105935000Y-91354900D02*
X105935000Y-91829900D01*
G75*
G02*
X105697500Y-92067400I-237500J0D01*
G01*
X105122500Y-92067400D01*
G75*
G02*
X104885000Y-91829900I0J237500D01*
G01*
X104885000Y-91354900D01*
G75*
G02*
X105122500Y-91117400I237500J0D01*
G01*
X105697500Y-91117400D01*
G75*
G02*
X105935000Y-91354900I0J-237500D01*
G01*
G37*
G36*
G01*
X104185000Y-91354900D02*
X104185000Y-91829900D01*
G75*
G02*
X103947500Y-92067400I-237500J0D01*
G01*
X103372500Y-92067400D01*
G75*
G02*
X103135000Y-91829900I0J237500D01*
G01*
X103135000Y-91354900D01*
G75*
G02*
X103372500Y-91117400I237500J0D01*
G01*
X103947500Y-91117400D01*
G75*
G02*
X104185000Y-91354900I0J-237500D01*
G01*
G37*
%TD*%
%TO.C,C6*%
G36*
G01*
X116823500Y-93898000D02*
X116348500Y-93898000D01*
G75*
G02*
X116111000Y-93660500I0J237500D01*
G01*
X116111000Y-93085500D01*
G75*
G02*
X116348500Y-92848000I237500J0D01*
G01*
X116823500Y-92848000D01*
G75*
G02*
X117061000Y-93085500I0J-237500D01*
G01*
X117061000Y-93660500D01*
G75*
G02*
X116823500Y-93898000I-237500J0D01*
G01*
G37*
G36*
G01*
X116823500Y-95648000D02*
X116348500Y-95648000D01*
G75*
G02*
X116111000Y-95410500I0J237500D01*
G01*
X116111000Y-94835500D01*
G75*
G02*
X116348500Y-94598000I237500J0D01*
G01*
X116823500Y-94598000D01*
G75*
G02*
X117061000Y-94835500I0J-237500D01*
G01*
X117061000Y-95410500D01*
G75*
G02*
X116823500Y-95648000I-237500J0D01*
G01*
G37*
%TD*%
%TO.C,C7*%
G36*
G01*
X112152000Y-105012500D02*
X112152000Y-104537500D01*
G75*
G02*
X112389500Y-104300000I237500J0D01*
G01*
X112964500Y-104300000D01*
G75*
G02*
X113202000Y-104537500I0J-237500D01*
G01*
X113202000Y-105012500D01*
G75*
G02*
X112964500Y-105250000I-237500J0D01*
G01*
X112389500Y-105250000D01*
G75*
G02*
X112152000Y-105012500I0J237500D01*
G01*
G37*
G36*
G01*
X113902000Y-105012500D02*
X113902000Y-104537500D01*
G75*
G02*
X114139500Y-104300000I237500J0D01*
G01*
X114714500Y-104300000D01*
G75*
G02*
X114952000Y-104537500I0J-237500D01*
G01*
X114952000Y-105012500D01*
G75*
G02*
X114714500Y-105250000I-237500J0D01*
G01*
X114139500Y-105250000D01*
G75*
G02*
X113902000Y-105012500I0J237500D01*
G01*
G37*
%TD*%
%TO.C,C4*%
G36*
G01*
X87334400Y-74287801D02*
X87334400Y-73387799D01*
G75*
G02*
X87584399Y-73137800I249999J0D01*
G01*
X88234401Y-73137800D01*
G75*
G02*
X88484400Y-73387799I0J-249999D01*
G01*
X88484400Y-74287801D01*
G75*
G02*
X88234401Y-74537800I-249999J0D01*
G01*
X87584399Y-74537800D01*
G75*
G02*
X87334400Y-74287801I0J249999D01*
G01*
G37*
G36*
G01*
X89384400Y-74287801D02*
X89384400Y-73387799D01*
G75*
G02*
X89634399Y-73137800I249999J0D01*
G01*
X90284401Y-73137800D01*
G75*
G02*
X90534400Y-73387799I0J-249999D01*
G01*
X90534400Y-74287801D01*
G75*
G02*
X90284401Y-74537800I-249999J0D01*
G01*
X89634399Y-74537800D01*
G75*
G02*
X89384400Y-74287801I0J249999D01*
G01*
G37*
%TD*%
%TO.C,C8*%
G36*
G01*
X100854500Y-99297000D02*
X101329500Y-99297000D01*
G75*
G02*
X101567000Y-99534500I0J-237500D01*
G01*
X101567000Y-100109500D01*
G75*
G02*
X101329500Y-100347000I-237500J0D01*
G01*
X100854500Y-100347000D01*
G75*
G02*
X100617000Y-100109500I0J237500D01*
G01*
X100617000Y-99534500D01*
G75*
G02*
X100854500Y-99297000I237500J0D01*
G01*
G37*
G36*
G01*
X100854500Y-97547000D02*
X101329500Y-97547000D01*
G75*
G02*
X101567000Y-97784500I0J-237500D01*
G01*
X101567000Y-98359500D01*
G75*
G02*
X101329500Y-98597000I-237500J0D01*
G01*
X100854500Y-98597000D01*
G75*
G02*
X100617000Y-98359500I0J237500D01*
G01*
X100617000Y-97784500D01*
G75*
G02*
X100854500Y-97547000I237500J0D01*
G01*
G37*
%TD*%
%TO.C,C9*%
G36*
G01*
X152086300Y-115321800D02*
X152561300Y-115321800D01*
G75*
G02*
X152798800Y-115559300I0J-237500D01*
G01*
X152798800Y-116134300D01*
G75*
G02*
X152561300Y-116371800I-237500J0D01*
G01*
X152086300Y-116371800D01*
G75*
G02*
X151848800Y-116134300I0J237500D01*
G01*
X151848800Y-115559300D01*
G75*
G02*
X152086300Y-115321800I237500J0D01*
G01*
G37*
G36*
G01*
X152086300Y-113571800D02*
X152561300Y-113571800D01*
G75*
G02*
X152798800Y-113809300I0J-237500D01*
G01*
X152798800Y-114384300D01*
G75*
G02*
X152561300Y-114621800I-237500J0D01*
G01*
X152086300Y-114621800D01*
G75*
G02*
X151848800Y-114384300I0J237500D01*
G01*
X151848800Y-113809300D01*
G75*
G02*
X152086300Y-113571800I237500J0D01*
G01*
G37*
%TD*%
%TO.C,C11*%
G36*
G01*
X130414600Y-106003100D02*
X130414600Y-105528100D01*
G75*
G02*
X130652100Y-105290600I237500J0D01*
G01*
X131227100Y-105290600D01*
G75*
G02*
X131464600Y-105528100I0J-237500D01*
G01*
X131464600Y-106003100D01*
G75*
G02*
X131227100Y-106240600I-237500J0D01*
G01*
X130652100Y-106240600D01*
G75*
G02*
X130414600Y-106003100I0J237500D01*
G01*
G37*
G36*
G01*
X132164600Y-106003100D02*
X132164600Y-105528100D01*
G75*
G02*
X132402100Y-105290600I237500J0D01*
G01*
X132977100Y-105290600D01*
G75*
G02*
X133214600Y-105528100I0J-237500D01*
G01*
X133214600Y-106003100D01*
G75*
G02*
X132977100Y-106240600I-237500J0D01*
G01*
X132402100Y-106240600D01*
G75*
G02*
X132164600Y-106003100I0J237500D01*
G01*
G37*
%TD*%
%TO.C,C12*%
G36*
G01*
X87782300Y-97249801D02*
X87782300Y-96399799D01*
G75*
G02*
X88032299Y-96149800I249999J0D01*
G01*
X89107301Y-96149800D01*
G75*
G02*
X89357300Y-96399799I0J-249999D01*
G01*
X89357300Y-97249801D01*
G75*
G02*
X89107301Y-97499800I-249999J0D01*
G01*
X88032299Y-97499800D01*
G75*
G02*
X87782300Y-97249801I0J249999D01*
G01*
G37*
G36*
G01*
X90657300Y-97249801D02*
X90657300Y-96399799D01*
G75*
G02*
X90907299Y-96149800I249999J0D01*
G01*
X91982301Y-96149800D01*
G75*
G02*
X92232300Y-96399799I0J-249999D01*
G01*
X92232300Y-97249801D01*
G75*
G02*
X91982301Y-97499800I-249999J0D01*
G01*
X90907299Y-97499800D01*
G75*
G02*
X90657300Y-97249801I0J249999D01*
G01*
G37*
%TD*%
%TO.C,C15*%
G36*
G01*
X129881200Y-118398300D02*
X129881200Y-117923300D01*
G75*
G02*
X130118700Y-117685800I237500J0D01*
G01*
X130693700Y-117685800D01*
G75*
G02*
X130931200Y-117923300I0J-237500D01*
G01*
X130931200Y-118398300D01*
G75*
G02*
X130693700Y-118635800I-237500J0D01*
G01*
X130118700Y-118635800D01*
G75*
G02*
X129881200Y-118398300I0J237500D01*
G01*
G37*
G36*
G01*
X131631200Y-118398300D02*
X131631200Y-117923300D01*
G75*
G02*
X131868700Y-117685800I237500J0D01*
G01*
X132443700Y-117685800D01*
G75*
G02*
X132681200Y-117923300I0J-237500D01*
G01*
X132681200Y-118398300D01*
G75*
G02*
X132443700Y-118635800I-237500J0D01*
G01*
X131868700Y-118635800D01*
G75*
G02*
X131631200Y-118398300I0J237500D01*
G01*
G37*
%TD*%
D11*
%TO.C,D10*%
G36*
X62707200Y-99854400D02*
G01*
X62707200Y-97554400D01*
X66307200Y-98154400D01*
X66307200Y-99254400D01*
X62707200Y-99854400D01*
G37*
G36*
X72107200Y-97554400D02*
G01*
X72107200Y-99854400D01*
X68507200Y-99254400D01*
X68507200Y-98154400D01*
X72107200Y-97554400D01*
G37*
%TD*%
D12*
%TO.C,D9*%
X146337000Y-89636600D03*
X146337000Y-88366600D03*
X146337000Y-87096600D03*
X146337000Y-85826600D03*
X140937000Y-85826600D03*
X140937000Y-87096600D03*
X140937000Y-88366600D03*
X140937000Y-89636600D03*
%TD*%
%TO.C,D11*%
G36*
G01*
X146421800Y-117558399D02*
X146421800Y-118458401D01*
G75*
G02*
X146171801Y-118708400I-249999J0D01*
G01*
X145521799Y-118708400D01*
G75*
G02*
X145271800Y-118458401I0J249999D01*
G01*
X145271800Y-117558399D01*
G75*
G02*
X145521799Y-117308400I249999J0D01*
G01*
X146171801Y-117308400D01*
G75*
G02*
X146421800Y-117558399I0J-249999D01*
G01*
G37*
G36*
G01*
X144371800Y-117558399D02*
X144371800Y-118458401D01*
G75*
G02*
X144121801Y-118708400I-249999J0D01*
G01*
X143471799Y-118708400D01*
G75*
G02*
X143221800Y-118458401I0J249999D01*
G01*
X143221800Y-117558399D01*
G75*
G02*
X143471799Y-117308400I249999J0D01*
G01*
X144121801Y-117308400D01*
G75*
G02*
X144371800Y-117558399I0J-249999D01*
G01*
G37*
%TD*%
%TO.C,Q5*%
G36*
G01*
X147449400Y-119933600D02*
X147749400Y-119933600D01*
G75*
G02*
X147899400Y-120083600I0J-150000D01*
G01*
X147899400Y-121533600D01*
G75*
G02*
X147749400Y-121683600I-150000J0D01*
G01*
X147449400Y-121683600D01*
G75*
G02*
X147299400Y-121533600I0J150000D01*
G01*
X147299400Y-120083600D01*
G75*
G02*
X147449400Y-119933600I150000J0D01*
G01*
G37*
G36*
G01*
X146179400Y-119933600D02*
X146479400Y-119933600D01*
G75*
G02*
X146629400Y-120083600I0J-150000D01*
G01*
X146629400Y-121533600D01*
G75*
G02*
X146479400Y-121683600I-150000J0D01*
G01*
X146179400Y-121683600D01*
G75*
G02*
X146029400Y-121533600I0J150000D01*
G01*
X146029400Y-120083600D01*
G75*
G02*
X146179400Y-119933600I150000J0D01*
G01*
G37*
G36*
G01*
X144909400Y-119933600D02*
X145209400Y-119933600D01*
G75*
G02*
X145359400Y-120083600I0J-150000D01*
G01*
X145359400Y-121533600D01*
G75*
G02*
X145209400Y-121683600I-150000J0D01*
G01*
X144909400Y-121683600D01*
G75*
G02*
X144759400Y-121533600I0J150000D01*
G01*
X144759400Y-120083600D01*
G75*
G02*
X144909400Y-119933600I150000J0D01*
G01*
G37*
G36*
G01*
X143639400Y-119933600D02*
X143939400Y-119933600D01*
G75*
G02*
X144089400Y-120083600I0J-150000D01*
G01*
X144089400Y-121533600D01*
G75*
G02*
X143939400Y-121683600I-150000J0D01*
G01*
X143639400Y-121683600D01*
G75*
G02*
X143489400Y-121533600I0J150000D01*
G01*
X143489400Y-120083600D01*
G75*
G02*
X143639400Y-119933600I150000J0D01*
G01*
G37*
G36*
G01*
X143639400Y-125083600D02*
X143939400Y-125083600D01*
G75*
G02*
X144089400Y-125233600I0J-150000D01*
G01*
X144089400Y-126683600D01*
G75*
G02*
X143939400Y-126833600I-150000J0D01*
G01*
X143639400Y-126833600D01*
G75*
G02*
X143489400Y-126683600I0J150000D01*
G01*
X143489400Y-125233600D01*
G75*
G02*
X143639400Y-125083600I150000J0D01*
G01*
G37*
G36*
G01*
X144909400Y-125083600D02*
X145209400Y-125083600D01*
G75*
G02*
X145359400Y-125233600I0J-150000D01*
G01*
X145359400Y-126683600D01*
G75*
G02*
X145209400Y-126833600I-150000J0D01*
G01*
X144909400Y-126833600D01*
G75*
G02*
X144759400Y-126683600I0J150000D01*
G01*
X144759400Y-125233600D01*
G75*
G02*
X144909400Y-125083600I150000J0D01*
G01*
G37*
G36*
G01*
X146179400Y-125083600D02*
X146479400Y-125083600D01*
G75*
G02*
X146629400Y-125233600I0J-150000D01*
G01*
X146629400Y-126683600D01*
G75*
G02*
X146479400Y-126833600I-150000J0D01*
G01*
X146179400Y-126833600D01*
G75*
G02*
X146029400Y-126683600I0J150000D01*
G01*
X146029400Y-125233600D01*
G75*
G02*
X146179400Y-125083600I150000J0D01*
G01*
G37*
G36*
G01*
X147449400Y-125083600D02*
X147749400Y-125083600D01*
G75*
G02*
X147899400Y-125233600I0J-150000D01*
G01*
X147899400Y-126683600D01*
G75*
G02*
X147749400Y-126833600I-150000J0D01*
G01*
X147449400Y-126833600D01*
G75*
G02*
X147299400Y-126683600I0J150000D01*
G01*
X147299400Y-125233600D01*
G75*
G02*
X147449400Y-125083600I150000J0D01*
G01*
G37*
%TD*%
%TO.C,R2*%
G36*
G01*
X93734900Y-119051500D02*
X93259900Y-119051500D01*
G75*
G02*
X93022400Y-118814000I0J237500D01*
G01*
X93022400Y-118239000D01*
G75*
G02*
X93259900Y-118001500I237500J0D01*
G01*
X93734900Y-118001500D01*
G75*
G02*
X93972400Y-118239000I0J-237500D01*
G01*
X93972400Y-118814000D01*
G75*
G02*
X93734900Y-119051500I-237500J0D01*
G01*
G37*
G36*
G01*
X93734900Y-117301500D02*
X93259900Y-117301500D01*
G75*
G02*
X93022400Y-117064000I0J237500D01*
G01*
X93022400Y-116489000D01*
G75*
G02*
X93259900Y-116251500I237500J0D01*
G01*
X93734900Y-116251500D01*
G75*
G02*
X93972400Y-116489000I0J-237500D01*
G01*
X93972400Y-117064000D01*
G75*
G02*
X93734900Y-117301500I-237500J0D01*
G01*
G37*
%TD*%
%TO.C,R14*%
G36*
G01*
X102175300Y-78212400D02*
X102650300Y-78212400D01*
G75*
G02*
X102887800Y-78449900I0J-237500D01*
G01*
X102887800Y-79024900D01*
G75*
G02*
X102650300Y-79262400I-237500J0D01*
G01*
X102175300Y-79262400D01*
G75*
G02*
X101937800Y-79024900I0J237500D01*
G01*
X101937800Y-78449900D01*
G75*
G02*
X102175300Y-78212400I237500J0D01*
G01*
G37*
G36*
G01*
X102175300Y-76462400D02*
X102650300Y-76462400D01*
G75*
G02*
X102887800Y-76699900I0J-237500D01*
G01*
X102887800Y-77274900D01*
G75*
G02*
X102650300Y-77512400I-237500J0D01*
G01*
X102175300Y-77512400D01*
G75*
G02*
X101937800Y-77274900I0J237500D01*
G01*
X101937800Y-76699900D01*
G75*
G02*
X102175300Y-76462400I237500J0D01*
G01*
G37*
%TD*%
%TO.C,R15*%
G36*
G01*
X104181900Y-76462400D02*
X104656900Y-76462400D01*
G75*
G02*
X104894400Y-76699900I0J-237500D01*
G01*
X104894400Y-77274900D01*
G75*
G02*
X104656900Y-77512400I-237500J0D01*
G01*
X104181900Y-77512400D01*
G75*
G02*
X103944400Y-77274900I0J237500D01*
G01*
X103944400Y-76699900D01*
G75*
G02*
X104181900Y-76462400I237500J0D01*
G01*
G37*
G36*
G01*
X104181900Y-78212400D02*
X104656900Y-78212400D01*
G75*
G02*
X104894400Y-78449900I0J-237500D01*
G01*
X104894400Y-79024900D01*
G75*
G02*
X104656900Y-79262400I-237500J0D01*
G01*
X104181900Y-79262400D01*
G75*
G02*
X103944400Y-79024900I0J237500D01*
G01*
X103944400Y-78449900D01*
G75*
G02*
X104181900Y-78212400I237500J0D01*
G01*
G37*
%TD*%
%TO.C,R20*%
G36*
G01*
X82987600Y-98027500D02*
X82987600Y-97552500D01*
G75*
G02*
X83225100Y-97315000I237500J0D01*
G01*
X83800100Y-97315000D01*
G75*
G02*
X84037600Y-97552500I0J-237500D01*
G01*
X84037600Y-98027500D01*
G75*
G02*
X83800100Y-98265000I-237500J0D01*
G01*
X83225100Y-98265000D01*
G75*
G02*
X82987600Y-98027500I0J237500D01*
G01*
G37*
G36*
G01*
X81237600Y-98027500D02*
X81237600Y-97552500D01*
G75*
G02*
X81475100Y-97315000I237500J0D01*
G01*
X82050100Y-97315000D01*
G75*
G02*
X82287600Y-97552500I0J-237500D01*
G01*
X82287600Y-98027500D01*
G75*
G02*
X82050100Y-98265000I-237500J0D01*
G01*
X81475100Y-98265000D01*
G75*
G02*
X81237600Y-98027500I0J237500D01*
G01*
G37*
%TD*%
%TO.C,R21*%
G36*
G01*
X81237600Y-99932500D02*
X81237600Y-99457500D01*
G75*
G02*
X81475100Y-99220000I237500J0D01*
G01*
X82050100Y-99220000D01*
G75*
G02*
X82287600Y-99457500I0J-237500D01*
G01*
X82287600Y-99932500D01*
G75*
G02*
X82050100Y-100170000I-237500J0D01*
G01*
X81475100Y-100170000D01*
G75*
G02*
X81237600Y-99932500I0J237500D01*
G01*
G37*
G36*
G01*
X82987600Y-99932500D02*
X82987600Y-99457500D01*
G75*
G02*
X83225100Y-99220000I237500J0D01*
G01*
X83800100Y-99220000D01*
G75*
G02*
X84037600Y-99457500I0J-237500D01*
G01*
X84037600Y-99932500D01*
G75*
G02*
X83800100Y-100170000I-237500J0D01*
G01*
X83225100Y-100170000D01*
G75*
G02*
X82987600Y-99932500I0J237500D01*
G01*
G37*
%TD*%
%TO.C,R30*%
G36*
G01*
X137939000Y-88230700D02*
X137939000Y-88705700D01*
G75*
G02*
X137701500Y-88943200I-237500J0D01*
G01*
X137126500Y-88943200D01*
G75*
G02*
X136889000Y-88705700I0J237500D01*
G01*
X136889000Y-88230700D01*
G75*
G02*
X137126500Y-87993200I237500J0D01*
G01*
X137701500Y-87993200D01*
G75*
G02*
X137939000Y-88230700I0J-237500D01*
G01*
G37*
G36*
G01*
X136189000Y-88230700D02*
X136189000Y-88705700D01*
G75*
G02*
X135951500Y-88943200I-237500J0D01*
G01*
X135376500Y-88943200D01*
G75*
G02*
X135139000Y-88705700I0J237500D01*
G01*
X135139000Y-88230700D01*
G75*
G02*
X135376500Y-87993200I237500J0D01*
G01*
X135951500Y-87993200D01*
G75*
G02*
X136189000Y-88230700I0J-237500D01*
G01*
G37*
%TD*%
%TO.C,R31*%
G36*
G01*
X137939000Y-86630500D02*
X137939000Y-87105500D01*
G75*
G02*
X137701500Y-87343000I-237500J0D01*
G01*
X137126500Y-87343000D01*
G75*
G02*
X136889000Y-87105500I0J237500D01*
G01*
X136889000Y-86630500D01*
G75*
G02*
X137126500Y-86393000I237500J0D01*
G01*
X137701500Y-86393000D01*
G75*
G02*
X137939000Y-86630500I0J-237500D01*
G01*
G37*
G36*
G01*
X136189000Y-86630500D02*
X136189000Y-87105500D01*
G75*
G02*
X135951500Y-87343000I-237500J0D01*
G01*
X135376500Y-87343000D01*
G75*
G02*
X135139000Y-87105500I0J237500D01*
G01*
X135139000Y-86630500D01*
G75*
G02*
X135376500Y-86393000I237500J0D01*
G01*
X135951500Y-86393000D01*
G75*
G02*
X136189000Y-86630500I0J-237500D01*
G01*
G37*
%TD*%
%TO.C,R19*%
G36*
G01*
X82761400Y-78157100D02*
X80611400Y-78157100D01*
G75*
G02*
X80361400Y-77907100I0J250000D01*
G01*
X80361400Y-76982100D01*
G75*
G02*
X80611400Y-76732100I250000J0D01*
G01*
X82761400Y-76732100D01*
G75*
G02*
X83011400Y-76982100I0J-250000D01*
G01*
X83011400Y-77907100D01*
G75*
G02*
X82761400Y-78157100I-250000J0D01*
G01*
G37*
G36*
G01*
X82761400Y-75182100D02*
X80611400Y-75182100D01*
G75*
G02*
X80361400Y-74932100I0J250000D01*
G01*
X80361400Y-74007100D01*
G75*
G02*
X80611400Y-73757100I250000J0D01*
G01*
X82761400Y-73757100D01*
G75*
G02*
X83011400Y-74007100I0J-250000D01*
G01*
X83011400Y-74932100D01*
G75*
G02*
X82761400Y-75182100I-250000J0D01*
G01*
G37*
%TD*%
%TO.C,R1*%
G36*
G01*
X91728300Y-117301500D02*
X91253300Y-117301500D01*
G75*
G02*
X91015800Y-117064000I0J237500D01*
G01*
X91015800Y-116489000D01*
G75*
G02*
X91253300Y-116251500I237500J0D01*
G01*
X91728300Y-116251500D01*
G75*
G02*
X91965800Y-116489000I0J-237500D01*
G01*
X91965800Y-117064000D01*
G75*
G02*
X91728300Y-117301500I-237500J0D01*
G01*
G37*
G36*
G01*
X91728300Y-119051500D02*
X91253300Y-119051500D01*
G75*
G02*
X91015800Y-118814000I0J237500D01*
G01*
X91015800Y-118239000D01*
G75*
G02*
X91253300Y-118001500I237500J0D01*
G01*
X91728300Y-118001500D01*
G75*
G02*
X91965800Y-118239000I0J-237500D01*
G01*
X91965800Y-118814000D01*
G75*
G02*
X91728300Y-119051500I-237500J0D01*
G01*
G37*
%TD*%
%TO.C,R34*%
G36*
G01*
X140174200Y-117770900D02*
X140174200Y-118245900D01*
G75*
G02*
X139936700Y-118483400I-237500J0D01*
G01*
X139361700Y-118483400D01*
G75*
G02*
X139124200Y-118245900I0J237500D01*
G01*
X139124200Y-117770900D01*
G75*
G02*
X139361700Y-117533400I237500J0D01*
G01*
X139936700Y-117533400D01*
G75*
G02*
X140174200Y-117770900I0J-237500D01*
G01*
G37*
G36*
G01*
X141924200Y-117770900D02*
X141924200Y-118245900D01*
G75*
G02*
X141686700Y-118483400I-237500J0D01*
G01*
X141111700Y-118483400D01*
G75*
G02*
X140874200Y-118245900I0J237500D01*
G01*
X140874200Y-117770900D01*
G75*
G02*
X141111700Y-117533400I237500J0D01*
G01*
X141686700Y-117533400D01*
G75*
G02*
X141924200Y-117770900I0J-237500D01*
G01*
G37*
%TD*%
%TO.C,R16*%
G36*
G01*
X120755400Y-130193500D02*
X121230400Y-130193500D01*
G75*
G02*
X121467900Y-130431000I0J-237500D01*
G01*
X121467900Y-131006000D01*
G75*
G02*
X121230400Y-131243500I-237500J0D01*
G01*
X120755400Y-131243500D01*
G75*
G02*
X120517900Y-131006000I0J237500D01*
G01*
X120517900Y-130431000D01*
G75*
G02*
X120755400Y-130193500I237500J0D01*
G01*
G37*
G36*
G01*
X120755400Y-128443500D02*
X121230400Y-128443500D01*
G75*
G02*
X121467900Y-128681000I0J-237500D01*
G01*
X121467900Y-129256000D01*
G75*
G02*
X121230400Y-129493500I-237500J0D01*
G01*
X120755400Y-129493500D01*
G75*
G02*
X120517900Y-129256000I0J237500D01*
G01*
X120517900Y-128681000D01*
G75*
G02*
X120755400Y-128443500I237500J0D01*
G01*
G37*
%TD*%
%TO.C,R18*%
G36*
G01*
X122220500Y-132787400D02*
X122220500Y-132312400D01*
G75*
G02*
X122458000Y-132074900I237500J0D01*
G01*
X123033000Y-132074900D01*
G75*
G02*
X123270500Y-132312400I0J-237500D01*
G01*
X123270500Y-132787400D01*
G75*
G02*
X123033000Y-133024900I-237500J0D01*
G01*
X122458000Y-133024900D01*
G75*
G02*
X122220500Y-132787400I0J237500D01*
G01*
G37*
G36*
G01*
X120470500Y-132787400D02*
X120470500Y-132312400D01*
G75*
G02*
X120708000Y-132074900I237500J0D01*
G01*
X121283000Y-132074900D01*
G75*
G02*
X121520500Y-132312400I0J-237500D01*
G01*
X121520500Y-132787400D01*
G75*
G02*
X121283000Y-133024900I-237500J0D01*
G01*
X120708000Y-133024900D01*
G75*
G02*
X120470500Y-132787400I0J237500D01*
G01*
G37*
%TD*%
D10*
%TO.C,U4*%
X104328000Y-111937800D03*
X104328000Y-113207800D03*
X104328000Y-114477800D03*
X104328000Y-115747800D03*
X104328000Y-117017800D03*
X104328000Y-118287800D03*
X104328000Y-119557800D03*
X104328000Y-120827800D03*
X109728000Y-120827800D03*
X109728000Y-119557800D03*
X109728000Y-118287800D03*
X109728000Y-117017800D03*
X109728000Y-115747800D03*
X109728000Y-114477800D03*
X109728000Y-113207800D03*
X109728000Y-111937800D03*
%TD*%
%TO.C,U2*%
G36*
G01*
X104602500Y-95119000D02*
X104602500Y-94969000D01*
G75*
G02*
X104677500Y-94894000I75000J0D01*
G01*
X106002500Y-94894000D01*
G75*
G02*
X106077500Y-94969000I0J-75000D01*
G01*
X106077500Y-95119000D01*
G75*
G02*
X106002500Y-95194000I-75000J0D01*
G01*
X104677500Y-95194000D01*
G75*
G02*
X104602500Y-95119000I0J75000D01*
G01*
G37*
G36*
G01*
X104602500Y-95619000D02*
X104602500Y-95469000D01*
G75*
G02*
X104677500Y-95394000I75000J0D01*
G01*
X106002500Y-95394000D01*
G75*
G02*
X106077500Y-95469000I0J-75000D01*
G01*
X106077500Y-95619000D01*
G75*
G02*
X106002500Y-95694000I-75000J0D01*
G01*
X104677500Y-95694000D01*
G75*
G02*
X104602500Y-95619000I0J75000D01*
G01*
G37*
G36*
G01*
X104602500Y-96119000D02*
X104602500Y-95969000D01*
G75*
G02*
X104677500Y-95894000I75000J0D01*
G01*
X106002500Y-95894000D01*
G75*
G02*
X106077500Y-95969000I0J-75000D01*
G01*
X106077500Y-96119000D01*
G75*
G02*
X106002500Y-96194000I-75000J0D01*
G01*
X104677500Y-96194000D01*
G75*
G02*
X104602500Y-96119000I0J75000D01*
G01*
G37*
G36*
G01*
X104602500Y-96619000D02*
X104602500Y-96469000D01*
G75*
G02*
X104677500Y-96394000I75000J0D01*
G01*
X106002500Y-96394000D01*
G75*
G02*
X106077500Y-96469000I0J-75000D01*
G01*
X106077500Y-96619000D01*
G75*
G02*
X106002500Y-96694000I-75000J0D01*
G01*
X104677500Y-96694000D01*
G75*
G02*
X104602500Y-96619000I0J75000D01*
G01*
G37*
G36*
G01*
X104602500Y-97119000D02*
X104602500Y-96969000D01*
G75*
G02*
X104677500Y-96894000I75000J0D01*
G01*
X106002500Y-96894000D01*
G75*
G02*
X106077500Y-96969000I0J-75000D01*
G01*
X106077500Y-97119000D01*
G75*
G02*
X106002500Y-97194000I-75000J0D01*
G01*
X104677500Y-97194000D01*
G75*
G02*
X104602500Y-97119000I0J75000D01*
G01*
G37*
G36*
G01*
X104602500Y-97619000D02*
X104602500Y-97469000D01*
G75*
G02*
X104677500Y-97394000I75000J0D01*
G01*
X106002500Y-97394000D01*
G75*
G02*
X106077500Y-97469000I0J-75000D01*
G01*
X106077500Y-97619000D01*
G75*
G02*
X106002500Y-97694000I-75000J0D01*
G01*
X104677500Y-97694000D01*
G75*
G02*
X104602500Y-97619000I0J75000D01*
G01*
G37*
G36*
G01*
X104602500Y-98119000D02*
X104602500Y-97969000D01*
G75*
G02*
X104677500Y-97894000I75000J0D01*
G01*
X106002500Y-97894000D01*
G75*
G02*
X106077500Y-97969000I0J-75000D01*
G01*
X106077500Y-98119000D01*
G75*
G02*
X106002500Y-98194000I-75000J0D01*
G01*
X104677500Y-98194000D01*
G75*
G02*
X104602500Y-98119000I0J75000D01*
G01*
G37*
G36*
G01*
X104602500Y-98619000D02*
X104602500Y-98469000D01*
G75*
G02*
X104677500Y-98394000I75000J0D01*
G01*
X106002500Y-98394000D01*
G75*
G02*
X106077500Y-98469000I0J-75000D01*
G01*
X106077500Y-98619000D01*
G75*
G02*
X106002500Y-98694000I-75000J0D01*
G01*
X104677500Y-98694000D01*
G75*
G02*
X104602500Y-98619000I0J75000D01*
G01*
G37*
G36*
G01*
X104602500Y-99119000D02*
X104602500Y-98969000D01*
G75*
G02*
X104677500Y-98894000I75000J0D01*
G01*
X106002500Y-98894000D01*
G75*
G02*
X106077500Y-98969000I0J-75000D01*
G01*
X106077500Y-99119000D01*
G75*
G02*
X106002500Y-99194000I-75000J0D01*
G01*
X104677500Y-99194000D01*
G75*
G02*
X104602500Y-99119000I0J75000D01*
G01*
G37*
G36*
G01*
X104602500Y-99619000D02*
X104602500Y-99469000D01*
G75*
G02*
X104677500Y-99394000I75000J0D01*
G01*
X106002500Y-99394000D01*
G75*
G02*
X106077500Y-99469000I0J-75000D01*
G01*
X106077500Y-99619000D01*
G75*
G02*
X106002500Y-99694000I-75000J0D01*
G01*
X104677500Y-99694000D01*
G75*
G02*
X104602500Y-99619000I0J75000D01*
G01*
G37*
G36*
G01*
X104602500Y-100119000D02*
X104602500Y-99969000D01*
G75*
G02*
X104677500Y-99894000I75000J0D01*
G01*
X106002500Y-99894000D01*
G75*
G02*
X106077500Y-99969000I0J-75000D01*
G01*
X106077500Y-100119000D01*
G75*
G02*
X106002500Y-100194000I-75000J0D01*
G01*
X104677500Y-100194000D01*
G75*
G02*
X104602500Y-100119000I0J75000D01*
G01*
G37*
G36*
G01*
X104602500Y-100619000D02*
X104602500Y-100469000D01*
G75*
G02*
X104677500Y-100394000I75000J0D01*
G01*
X106002500Y-100394000D01*
G75*
G02*
X106077500Y-100469000I0J-75000D01*
G01*
X106077500Y-100619000D01*
G75*
G02*
X106002500Y-100694000I-75000J0D01*
G01*
X104677500Y-100694000D01*
G75*
G02*
X104602500Y-100619000I0J75000D01*
G01*
G37*
G36*
G01*
X106602500Y-102619000D02*
X106602500Y-101294000D01*
G75*
G02*
X106677500Y-101219000I75000J0D01*
G01*
X106827500Y-101219000D01*
G75*
G02*
X106902500Y-101294000I0J-75000D01*
G01*
X106902500Y-102619000D01*
G75*
G02*
X106827500Y-102694000I-75000J0D01*
G01*
X106677500Y-102694000D01*
G75*
G02*
X106602500Y-102619000I0J75000D01*
G01*
G37*
G36*
G01*
X107102500Y-102619000D02*
X107102500Y-101294000D01*
G75*
G02*
X107177500Y-101219000I75000J0D01*
G01*
X107327500Y-101219000D01*
G75*
G02*
X107402500Y-101294000I0J-75000D01*
G01*
X107402500Y-102619000D01*
G75*
G02*
X107327500Y-102694000I-75000J0D01*
G01*
X107177500Y-102694000D01*
G75*
G02*
X107102500Y-102619000I0J75000D01*
G01*
G37*
G36*
G01*
X107602500Y-102619000D02*
X107602500Y-101294000D01*
G75*
G02*
X107677500Y-101219000I75000J0D01*
G01*
X107827500Y-101219000D01*
G75*
G02*
X107902500Y-101294000I0J-75000D01*
G01*
X107902500Y-102619000D01*
G75*
G02*
X107827500Y-102694000I-75000J0D01*
G01*
X107677500Y-102694000D01*
G75*
G02*
X107602500Y-102619000I0J75000D01*
G01*
G37*
G36*
G01*
X108102500Y-102619000D02*
X108102500Y-101294000D01*
G75*
G02*
X108177500Y-101219000I75000J0D01*
G01*
X108327500Y-101219000D01*
G75*
G02*
X108402500Y-101294000I0J-75000D01*
G01*
X108402500Y-102619000D01*
G75*
G02*
X108327500Y-102694000I-75000J0D01*
G01*
X108177500Y-102694000D01*
G75*
G02*
X108102500Y-102619000I0J75000D01*
G01*
G37*
G36*
G01*
X108602500Y-102619000D02*
X108602500Y-101294000D01*
G75*
G02*
X108677500Y-101219000I75000J0D01*
G01*
X108827500Y-101219000D01*
G75*
G02*
X108902500Y-101294000I0J-75000D01*
G01*
X108902500Y-102619000D01*
G75*
G02*
X108827500Y-102694000I-75000J0D01*
G01*
X108677500Y-102694000D01*
G75*
G02*
X108602500Y-102619000I0J75000D01*
G01*
G37*
G36*
G01*
X109102500Y-102619000D02*
X109102500Y-101294000D01*
G75*
G02*
X109177500Y-101219000I75000J0D01*
G01*
X109327500Y-101219000D01*
G75*
G02*
X109402500Y-101294000I0J-75000D01*
G01*
X109402500Y-102619000D01*
G75*
G02*
X109327500Y-102694000I-75000J0D01*
G01*
X109177500Y-102694000D01*
G75*
G02*
X109102500Y-102619000I0J75000D01*
G01*
G37*
G36*
G01*
X109602500Y-102619000D02*
X109602500Y-101294000D01*
G75*
G02*
X109677500Y-101219000I75000J0D01*
G01*
X109827500Y-101219000D01*
G75*
G02*
X109902500Y-101294000I0J-75000D01*
G01*
X109902500Y-102619000D01*
G75*
G02*
X109827500Y-102694000I-75000J0D01*
G01*
X109677500Y-102694000D01*
G75*
G02*
X109602500Y-102619000I0J75000D01*
G01*
G37*
G36*
G01*
X110102500Y-102619000D02*
X110102500Y-101294000D01*
G75*
G02*
X110177500Y-101219000I75000J0D01*
G01*
X110327500Y-101219000D01*
G75*
G02*
X110402500Y-101294000I0J-75000D01*
G01*
X110402500Y-102619000D01*
G75*
G02*
X110327500Y-102694000I-75000J0D01*
G01*
X110177500Y-102694000D01*
G75*
G02*
X110102500Y-102619000I0J75000D01*
G01*
G37*
G36*
G01*
X110602500Y-102619000D02*
X110602500Y-101294000D01*
G75*
G02*
X110677500Y-101219000I75000J0D01*
G01*
X110827500Y-101219000D01*
G75*
G02*
X110902500Y-101294000I0J-75000D01*
G01*
X110902500Y-102619000D01*
G75*
G02*
X110827500Y-102694000I-75000J0D01*
G01*
X110677500Y-102694000D01*
G75*
G02*
X110602500Y-102619000I0J75000D01*
G01*
G37*
G36*
G01*
X111102500Y-102619000D02*
X111102500Y-101294000D01*
G75*
G02*
X111177500Y-101219000I75000J0D01*
G01*
X111327500Y-101219000D01*
G75*
G02*
X111402500Y-101294000I0J-75000D01*
G01*
X111402500Y-102619000D01*
G75*
G02*
X111327500Y-102694000I-75000J0D01*
G01*
X111177500Y-102694000D01*
G75*
G02*
X111102500Y-102619000I0J75000D01*
G01*
G37*
G36*
G01*
X111602500Y-102619000D02*
X111602500Y-101294000D01*
G75*
G02*
X111677500Y-101219000I75000J0D01*
G01*
X111827500Y-101219000D01*
G75*
G02*
X111902500Y-101294000I0J-75000D01*
G01*
X111902500Y-102619000D01*
G75*
G02*
X111827500Y-102694000I-75000J0D01*
G01*
X111677500Y-102694000D01*
G75*
G02*
X111602500Y-102619000I0J75000D01*
G01*
G37*
G36*
G01*
X112102500Y-102619000D02*
X112102500Y-101294000D01*
G75*
G02*
X112177500Y-101219000I75000J0D01*
G01*
X112327500Y-101219000D01*
G75*
G02*
X112402500Y-101294000I0J-75000D01*
G01*
X112402500Y-102619000D01*
G75*
G02*
X112327500Y-102694000I-75000J0D01*
G01*
X112177500Y-102694000D01*
G75*
G02*
X112102500Y-102619000I0J75000D01*
G01*
G37*
G36*
G01*
X112927500Y-100619000D02*
X112927500Y-100469000D01*
G75*
G02*
X113002500Y-100394000I75000J0D01*
G01*
X114327500Y-100394000D01*
G75*
G02*
X114402500Y-100469000I0J-75000D01*
G01*
X114402500Y-100619000D01*
G75*
G02*
X114327500Y-100694000I-75000J0D01*
G01*
X113002500Y-100694000D01*
G75*
G02*
X112927500Y-100619000I0J75000D01*
G01*
G37*
G36*
G01*
X112927500Y-100119000D02*
X112927500Y-99969000D01*
G75*
G02*
X113002500Y-99894000I75000J0D01*
G01*
X114327500Y-99894000D01*
G75*
G02*
X114402500Y-99969000I0J-75000D01*
G01*
X114402500Y-100119000D01*
G75*
G02*
X114327500Y-100194000I-75000J0D01*
G01*
X113002500Y-100194000D01*
G75*
G02*
X112927500Y-100119000I0J75000D01*
G01*
G37*
G36*
G01*
X112927500Y-99619000D02*
X112927500Y-99469000D01*
G75*
G02*
X113002500Y-99394000I75000J0D01*
G01*
X114327500Y-99394000D01*
G75*
G02*
X114402500Y-99469000I0J-75000D01*
G01*
X114402500Y-99619000D01*
G75*
G02*
X114327500Y-99694000I-75000J0D01*
G01*
X113002500Y-99694000D01*
G75*
G02*
X112927500Y-99619000I0J75000D01*
G01*
G37*
G36*
G01*
X112927500Y-99119000D02*
X112927500Y-98969000D01*
G75*
G02*
X113002500Y-98894000I75000J0D01*
G01*
X114327500Y-98894000D01*
G75*
G02*
X114402500Y-98969000I0J-75000D01*
G01*
X114402500Y-99119000D01*
G75*
G02*
X114327500Y-99194000I-75000J0D01*
G01*
X113002500Y-99194000D01*
G75*
G02*
X112927500Y-99119000I0J75000D01*
G01*
G37*
G36*
G01*
X112927500Y-98619000D02*
X112927500Y-98469000D01*
G75*
G02*
X113002500Y-98394000I75000J0D01*
G01*
X114327500Y-98394000D01*
G75*
G02*
X114402500Y-98469000I0J-75000D01*
G01*
X114402500Y-98619000D01*
G75*
G02*
X114327500Y-98694000I-75000J0D01*
G01*
X113002500Y-98694000D01*
G75*
G02*
X112927500Y-98619000I0J75000D01*
G01*
G37*
G36*
G01*
X112927500Y-98119000D02*
X112927500Y-97969000D01*
G75*
G02*
X113002500Y-97894000I75000J0D01*
G01*
X114327500Y-97894000D01*
G75*
G02*
X114402500Y-97969000I0J-75000D01*
G01*
X114402500Y-98119000D01*
G75*
G02*
X114327500Y-98194000I-75000J0D01*
G01*
X113002500Y-98194000D01*
G75*
G02*
X112927500Y-98119000I0J75000D01*
G01*
G37*
G36*
G01*
X112927500Y-97619000D02*
X112927500Y-97469000D01*
G75*
G02*
X113002500Y-97394000I75000J0D01*
G01*
X114327500Y-97394000D01*
G75*
G02*
X114402500Y-97469000I0J-75000D01*
G01*
X114402500Y-97619000D01*
G75*
G02*
X114327500Y-97694000I-75000J0D01*
G01*
X113002500Y-97694000D01*
G75*
G02*
X112927500Y-97619000I0J75000D01*
G01*
G37*
G36*
G01*
X112927500Y-97119000D02*
X112927500Y-96969000D01*
G75*
G02*
X113002500Y-96894000I75000J0D01*
G01*
X114327500Y-96894000D01*
G75*
G02*
X114402500Y-96969000I0J-75000D01*
G01*
X114402500Y-97119000D01*
G75*
G02*
X114327500Y-97194000I-75000J0D01*
G01*
X113002500Y-97194000D01*
G75*
G02*
X112927500Y-97119000I0J75000D01*
G01*
G37*
G36*
G01*
X112927500Y-96619000D02*
X112927500Y-96469000D01*
G75*
G02*
X113002500Y-96394000I75000J0D01*
G01*
X114327500Y-96394000D01*
G75*
G02*
X114402500Y-96469000I0J-75000D01*
G01*
X114402500Y-96619000D01*
G75*
G02*
X114327500Y-96694000I-75000J0D01*
G01*
X113002500Y-96694000D01*
G75*
G02*
X112927500Y-96619000I0J75000D01*
G01*
G37*
G36*
G01*
X112927500Y-96119000D02*
X112927500Y-95969000D01*
G75*
G02*
X113002500Y-95894000I75000J0D01*
G01*
X114327500Y-95894000D01*
G75*
G02*
X114402500Y-95969000I0J-75000D01*
G01*
X114402500Y-96119000D01*
G75*
G02*
X114327500Y-96194000I-75000J0D01*
G01*
X113002500Y-96194000D01*
G75*
G02*
X112927500Y-96119000I0J75000D01*
G01*
G37*
G36*
G01*
X112927500Y-95619000D02*
X112927500Y-95469000D01*
G75*
G02*
X113002500Y-95394000I75000J0D01*
G01*
X114327500Y-95394000D01*
G75*
G02*
X114402500Y-95469000I0J-75000D01*
G01*
X114402500Y-95619000D01*
G75*
G02*
X114327500Y-95694000I-75000J0D01*
G01*
X113002500Y-95694000D01*
G75*
G02*
X112927500Y-95619000I0J75000D01*
G01*
G37*
G36*
G01*
X112927500Y-95119000D02*
X112927500Y-94969000D01*
G75*
G02*
X113002500Y-94894000I75000J0D01*
G01*
X114327500Y-94894000D01*
G75*
G02*
X114402500Y-94969000I0J-75000D01*
G01*
X114402500Y-95119000D01*
G75*
G02*
X114327500Y-95194000I-75000J0D01*
G01*
X113002500Y-95194000D01*
G75*
G02*
X112927500Y-95119000I0J75000D01*
G01*
G37*
G36*
G01*
X112102500Y-94294000D02*
X112102500Y-92969000D01*
G75*
G02*
X112177500Y-92894000I75000J0D01*
G01*
X112327500Y-92894000D01*
G75*
G02*
X112402500Y-92969000I0J-75000D01*
G01*
X112402500Y-94294000D01*
G75*
G02*
X112327500Y-94369000I-75000J0D01*
G01*
X112177500Y-94369000D01*
G75*
G02*
X112102500Y-94294000I0J75000D01*
G01*
G37*
G36*
G01*
X111602500Y-94294000D02*
X111602500Y-92969000D01*
G75*
G02*
X111677500Y-92894000I75000J0D01*
G01*
X111827500Y-92894000D01*
G75*
G02*
X111902500Y-92969000I0J-75000D01*
G01*
X111902500Y-94294000D01*
G75*
G02*
X111827500Y-94369000I-75000J0D01*
G01*
X111677500Y-94369000D01*
G75*
G02*
X111602500Y-94294000I0J75000D01*
G01*
G37*
G36*
G01*
X111102500Y-94294000D02*
X111102500Y-92969000D01*
G75*
G02*
X111177500Y-92894000I75000J0D01*
G01*
X111327500Y-92894000D01*
G75*
G02*
X111402500Y-92969000I0J-75000D01*
G01*
X111402500Y-94294000D01*
G75*
G02*
X111327500Y-94369000I-75000J0D01*
G01*
X111177500Y-94369000D01*
G75*
G02*
X111102500Y-94294000I0J75000D01*
G01*
G37*
G36*
G01*
X110602500Y-94294000D02*
X110602500Y-92969000D01*
G75*
G02*
X110677500Y-92894000I75000J0D01*
G01*
X110827500Y-92894000D01*
G75*
G02*
X110902500Y-92969000I0J-75000D01*
G01*
X110902500Y-94294000D01*
G75*
G02*
X110827500Y-94369000I-75000J0D01*
G01*
X110677500Y-94369000D01*
G75*
G02*
X110602500Y-94294000I0J75000D01*
G01*
G37*
G36*
G01*
X110102500Y-94294000D02*
X110102500Y-92969000D01*
G75*
G02*
X110177500Y-92894000I75000J0D01*
G01*
X110327500Y-92894000D01*
G75*
G02*
X110402500Y-92969000I0J-75000D01*
G01*
X110402500Y-94294000D01*
G75*
G02*
X110327500Y-94369000I-75000J0D01*
G01*
X110177500Y-94369000D01*
G75*
G02*
X110102500Y-94294000I0J75000D01*
G01*
G37*
G36*
G01*
X109602500Y-94294000D02*
X109602500Y-92969000D01*
G75*
G02*
X109677500Y-92894000I75000J0D01*
G01*
X109827500Y-92894000D01*
G75*
G02*
X109902500Y-92969000I0J-75000D01*
G01*
X109902500Y-94294000D01*
G75*
G02*
X109827500Y-94369000I-75000J0D01*
G01*
X109677500Y-94369000D01*
G75*
G02*
X109602500Y-94294000I0J75000D01*
G01*
G37*
G36*
G01*
X109102500Y-94294000D02*
X109102500Y-92969000D01*
G75*
G02*
X109177500Y-92894000I75000J0D01*
G01*
X109327500Y-92894000D01*
G75*
G02*
X109402500Y-92969000I0J-75000D01*
G01*
X109402500Y-94294000D01*
G75*
G02*
X109327500Y-94369000I-75000J0D01*
G01*
X109177500Y-94369000D01*
G75*
G02*
X109102500Y-94294000I0J75000D01*
G01*
G37*
G36*
G01*
X108602500Y-94294000D02*
X108602500Y-92969000D01*
G75*
G02*
X108677500Y-92894000I75000J0D01*
G01*
X108827500Y-92894000D01*
G75*
G02*
X108902500Y-92969000I0J-75000D01*
G01*
X108902500Y-94294000D01*
G75*
G02*
X108827500Y-94369000I-75000J0D01*
G01*
X108677500Y-94369000D01*
G75*
G02*
X108602500Y-94294000I0J75000D01*
G01*
G37*
G36*
G01*
X108102500Y-94294000D02*
X108102500Y-92969000D01*
G75*
G02*
X108177500Y-92894000I75000J0D01*
G01*
X108327500Y-92894000D01*
G75*
G02*
X108402500Y-92969000I0J-75000D01*
G01*
X108402500Y-94294000D01*
G75*
G02*
X108327500Y-94369000I-75000J0D01*
G01*
X108177500Y-94369000D01*
G75*
G02*
X108102500Y-94294000I0J75000D01*
G01*
G37*
G36*
G01*
X107602500Y-94294000D02*
X107602500Y-92969000D01*
G75*
G02*
X107677500Y-92894000I75000J0D01*
G01*
X107827500Y-92894000D01*
G75*
G02*
X107902500Y-92969000I0J-75000D01*
G01*
X107902500Y-94294000D01*
G75*
G02*
X107827500Y-94369000I-75000J0D01*
G01*
X107677500Y-94369000D01*
G75*
G02*
X107602500Y-94294000I0J75000D01*
G01*
G37*
G36*
G01*
X107102500Y-94294000D02*
X107102500Y-92969000D01*
G75*
G02*
X107177500Y-92894000I75000J0D01*
G01*
X107327500Y-92894000D01*
G75*
G02*
X107402500Y-92969000I0J-75000D01*
G01*
X107402500Y-94294000D01*
G75*
G02*
X107327500Y-94369000I-75000J0D01*
G01*
X107177500Y-94369000D01*
G75*
G02*
X107102500Y-94294000I0J75000D01*
G01*
G37*
G36*
G01*
X106602500Y-94294000D02*
X106602500Y-92969000D01*
G75*
G02*
X106677500Y-92894000I75000J0D01*
G01*
X106827500Y-92894000D01*
G75*
G02*
X106902500Y-92969000I0J-75000D01*
G01*
X106902500Y-94294000D01*
G75*
G02*
X106827500Y-94369000I-75000J0D01*
G01*
X106677500Y-94369000D01*
G75*
G02*
X106602500Y-94294000I0J75000D01*
G01*
G37*
%TD*%
%TO.C,D2*%
G36*
G01*
X130430800Y-78986801D02*
X130430800Y-78086799D01*
G75*
G02*
X130680799Y-77836800I249999J0D01*
G01*
X131330801Y-77836800D01*
G75*
G02*
X131580800Y-78086799I0J-249999D01*
G01*
X131580800Y-78986801D01*
G75*
G02*
X131330801Y-79236800I-249999J0D01*
G01*
X130680799Y-79236800D01*
G75*
G02*
X130430800Y-78986801I0J249999D01*
G01*
G37*
G36*
G01*
X128380800Y-78986801D02*
X128380800Y-78086799D01*
G75*
G02*
X128630799Y-77836800I249999J0D01*
G01*
X129280801Y-77836800D01*
G75*
G02*
X129530800Y-78086799I0J-249999D01*
G01*
X129530800Y-78986801D01*
G75*
G02*
X129280801Y-79236800I-249999J0D01*
G01*
X128630799Y-79236800D01*
G75*
G02*
X128380800Y-78986801I0J249999D01*
G01*
G37*
%TD*%
%TO.C,D5*%
G36*
G01*
X139581800Y-78086799D02*
X139581800Y-78986801D01*
G75*
G02*
X139331801Y-79236800I-249999J0D01*
G01*
X138681799Y-79236800D01*
G75*
G02*
X138431800Y-78986801I0J249999D01*
G01*
X138431800Y-78086799D01*
G75*
G02*
X138681799Y-77836800I249999J0D01*
G01*
X139331801Y-77836800D01*
G75*
G02*
X139581800Y-78086799I0J-249999D01*
G01*
G37*
G36*
G01*
X137531800Y-78086799D02*
X137531800Y-78986801D01*
G75*
G02*
X137281801Y-79236800I-249999J0D01*
G01*
X136631799Y-79236800D01*
G75*
G02*
X136381800Y-78986801I0J249999D01*
G01*
X136381800Y-78086799D01*
G75*
G02*
X136631799Y-77836800I249999J0D01*
G01*
X137281801Y-77836800D01*
G75*
G02*
X137531800Y-78086799I0J-249999D01*
G01*
G37*
%TD*%
%TO.C,R4*%
G36*
G01*
X149165300Y-70191200D02*
X149640300Y-70191200D01*
G75*
G02*
X149877800Y-70428700I0J-237500D01*
G01*
X149877800Y-71003700D01*
G75*
G02*
X149640300Y-71241200I-237500J0D01*
G01*
X149165300Y-71241200D01*
G75*
G02*
X148927800Y-71003700I0J237500D01*
G01*
X148927800Y-70428700D01*
G75*
G02*
X149165300Y-70191200I237500J0D01*
G01*
G37*
G36*
G01*
X149165300Y-71941200D02*
X149640300Y-71941200D01*
G75*
G02*
X149877800Y-72178700I0J-237500D01*
G01*
X149877800Y-72753700D01*
G75*
G02*
X149640300Y-72991200I-237500J0D01*
G01*
X149165300Y-72991200D01*
G75*
G02*
X148927800Y-72753700I0J237500D01*
G01*
X148927800Y-72178700D01*
G75*
G02*
X149165300Y-71941200I237500J0D01*
G01*
G37*
%TD*%
%TO.C,R5*%
G36*
G01*
X147671800Y-77309200D02*
X147196800Y-77309200D01*
G75*
G02*
X146959300Y-77071700I0J237500D01*
G01*
X146959300Y-76496700D01*
G75*
G02*
X147196800Y-76259200I237500J0D01*
G01*
X147671800Y-76259200D01*
G75*
G02*
X147909300Y-76496700I0J-237500D01*
G01*
X147909300Y-77071700D01*
G75*
G02*
X147671800Y-77309200I-237500J0D01*
G01*
G37*
G36*
G01*
X147671800Y-79059200D02*
X147196800Y-79059200D01*
G75*
G02*
X146959300Y-78821700I0J237500D01*
G01*
X146959300Y-78246700D01*
G75*
G02*
X147196800Y-78009200I237500J0D01*
G01*
X147671800Y-78009200D01*
G75*
G02*
X147909300Y-78246700I0J-237500D01*
G01*
X147909300Y-78821700D01*
G75*
G02*
X147671800Y-79059200I-237500J0D01*
G01*
G37*
%TD*%
%TO.C,R6*%
G36*
G01*
X145627100Y-79059200D02*
X145152100Y-79059200D01*
G75*
G02*
X144914600Y-78821700I0J237500D01*
G01*
X144914600Y-78246700D01*
G75*
G02*
X145152100Y-78009200I237500J0D01*
G01*
X145627100Y-78009200D01*
G75*
G02*
X145864600Y-78246700I0J-237500D01*
G01*
X145864600Y-78821700D01*
G75*
G02*
X145627100Y-79059200I-237500J0D01*
G01*
G37*
G36*
G01*
X145627100Y-77309200D02*
X145152100Y-77309200D01*
G75*
G02*
X144914600Y-77071700I0J237500D01*
G01*
X144914600Y-76496700D01*
G75*
G02*
X145152100Y-76259200I237500J0D01*
G01*
X145627100Y-76259200D01*
G75*
G02*
X145864600Y-76496700I0J-237500D01*
G01*
X145864600Y-77071700D01*
G75*
G02*
X145627100Y-77309200I-237500J0D01*
G01*
G37*
%TD*%
%TO.C,R7*%
G36*
G01*
X136795500Y-70191200D02*
X137270500Y-70191200D01*
G75*
G02*
X137508000Y-70428700I0J-237500D01*
G01*
X137508000Y-71003700D01*
G75*
G02*
X137270500Y-71241200I-237500J0D01*
G01*
X136795500Y-71241200D01*
G75*
G02*
X136558000Y-71003700I0J237500D01*
G01*
X136558000Y-70428700D01*
G75*
G02*
X136795500Y-70191200I237500J0D01*
G01*
G37*
G36*
G01*
X136795500Y-71941200D02*
X137270500Y-71941200D01*
G75*
G02*
X137508000Y-72178700I0J-237500D01*
G01*
X137508000Y-72753700D01*
G75*
G02*
X137270500Y-72991200I-237500J0D01*
G01*
X136795500Y-72991200D01*
G75*
G02*
X136558000Y-72753700I0J237500D01*
G01*
X136558000Y-72178700D01*
G75*
G02*
X136795500Y-71941200I237500J0D01*
G01*
G37*
%TD*%
%TO.C,R8*%
G36*
G01*
X135238500Y-77309200D02*
X134763500Y-77309200D01*
G75*
G02*
X134526000Y-77071700I0J237500D01*
G01*
X134526000Y-76496700D01*
G75*
G02*
X134763500Y-76259200I237500J0D01*
G01*
X135238500Y-76259200D01*
G75*
G02*
X135476000Y-76496700I0J-237500D01*
G01*
X135476000Y-77071700D01*
G75*
G02*
X135238500Y-77309200I-237500J0D01*
G01*
G37*
G36*
G01*
X135238500Y-79059200D02*
X134763500Y-79059200D01*
G75*
G02*
X134526000Y-78821700I0J237500D01*
G01*
X134526000Y-78246700D01*
G75*
G02*
X134763500Y-78009200I237500J0D01*
G01*
X135238500Y-78009200D01*
G75*
G02*
X135476000Y-78246700I0J-237500D01*
G01*
X135476000Y-78821700D01*
G75*
G02*
X135238500Y-79059200I-237500J0D01*
G01*
G37*
%TD*%
%TO.C,R9*%
G36*
G01*
X133231900Y-79059200D02*
X132756900Y-79059200D01*
G75*
G02*
X132519400Y-78821700I0J237500D01*
G01*
X132519400Y-78246700D01*
G75*
G02*
X132756900Y-78009200I237500J0D01*
G01*
X133231900Y-78009200D01*
G75*
G02*
X133469400Y-78246700I0J-237500D01*
G01*
X133469400Y-78821700D01*
G75*
G02*
X133231900Y-79059200I-237500J0D01*
G01*
G37*
G36*
G01*
X133231900Y-77309200D02*
X132756900Y-77309200D01*
G75*
G02*
X132519400Y-77071700I0J237500D01*
G01*
X132519400Y-76496700D01*
G75*
G02*
X132756900Y-76259200I237500J0D01*
G01*
X133231900Y-76259200D01*
G75*
G02*
X133469400Y-76496700I0J-237500D01*
G01*
X133469400Y-77071700D01*
G75*
G02*
X133231900Y-77309200I-237500J0D01*
G01*
G37*
%TD*%
%TO.C,R10*%
G36*
G01*
X124349500Y-71941200D02*
X124824500Y-71941200D01*
G75*
G02*
X125062000Y-72178700I0J-237500D01*
G01*
X125062000Y-72753700D01*
G75*
G02*
X124824500Y-72991200I-237500J0D01*
G01*
X124349500Y-72991200D01*
G75*
G02*
X124112000Y-72753700I0J237500D01*
G01*
X124112000Y-72178700D01*
G75*
G02*
X124349500Y-71941200I237500J0D01*
G01*
G37*
G36*
G01*
X124349500Y-70191200D02*
X124824500Y-70191200D01*
G75*
G02*
X125062000Y-70428700I0J-237500D01*
G01*
X125062000Y-71003700D01*
G75*
G02*
X124824500Y-71241200I-237500J0D01*
G01*
X124349500Y-71241200D01*
G75*
G02*
X124112000Y-71003700I0J237500D01*
G01*
X124112000Y-70428700D01*
G75*
G02*
X124349500Y-70191200I237500J0D01*
G01*
G37*
%TD*%
%TO.C,R11*%
G36*
G01*
X122843300Y-79059200D02*
X122368300Y-79059200D01*
G75*
G02*
X122130800Y-78821700I0J237500D01*
G01*
X122130800Y-78246700D01*
G75*
G02*
X122368300Y-78009200I237500J0D01*
G01*
X122843300Y-78009200D01*
G75*
G02*
X123080800Y-78246700I0J-237500D01*
G01*
X123080800Y-78821700D01*
G75*
G02*
X122843300Y-79059200I-237500J0D01*
G01*
G37*
G36*
G01*
X122843300Y-77309200D02*
X122368300Y-77309200D01*
G75*
G02*
X122130800Y-77071700I0J237500D01*
G01*
X122130800Y-76496700D01*
G75*
G02*
X122368300Y-76259200I237500J0D01*
G01*
X122843300Y-76259200D01*
G75*
G02*
X123080800Y-76496700I0J-237500D01*
G01*
X123080800Y-77071700D01*
G75*
G02*
X122843300Y-77309200I-237500J0D01*
G01*
G37*
%TD*%
%TO.C,R12*%
G36*
G01*
X120811300Y-77309200D02*
X120336300Y-77309200D01*
G75*
G02*
X120098800Y-77071700I0J237500D01*
G01*
X120098800Y-76496700D01*
G75*
G02*
X120336300Y-76259200I237500J0D01*
G01*
X120811300Y-76259200D01*
G75*
G02*
X121048800Y-76496700I0J-237500D01*
G01*
X121048800Y-77071700D01*
G75*
G02*
X120811300Y-77309200I-237500J0D01*
G01*
G37*
G36*
G01*
X120811300Y-79059200D02*
X120336300Y-79059200D01*
G75*
G02*
X120098800Y-78821700I0J237500D01*
G01*
X120098800Y-78246700D01*
G75*
G02*
X120336300Y-78009200I237500J0D01*
G01*
X120811300Y-78009200D01*
G75*
G02*
X121048800Y-78246700I0J-237500D01*
G01*
X121048800Y-78821700D01*
G75*
G02*
X120811300Y-79059200I-237500J0D01*
G01*
G37*
%TD*%
%TO.C,R22*%
G36*
G01*
X88796000Y-107068100D02*
X88321000Y-107068100D01*
G75*
G02*
X88083500Y-106830600I0J237500D01*
G01*
X88083500Y-106255600D01*
G75*
G02*
X88321000Y-106018100I237500J0D01*
G01*
X88796000Y-106018100D01*
G75*
G02*
X89033500Y-106255600I0J-237500D01*
G01*
X89033500Y-106830600D01*
G75*
G02*
X88796000Y-107068100I-237500J0D01*
G01*
G37*
G36*
G01*
X88796000Y-108818100D02*
X88321000Y-108818100D01*
G75*
G02*
X88083500Y-108580600I0J237500D01*
G01*
X88083500Y-108005600D01*
G75*
G02*
X88321000Y-107768100I237500J0D01*
G01*
X88796000Y-107768100D01*
G75*
G02*
X89033500Y-108005600I0J-237500D01*
G01*
X89033500Y-108580600D01*
G75*
G02*
X88796000Y-108818100I-237500J0D01*
G01*
G37*
%TD*%
%TO.C,R23*%
G36*
G01*
X90751800Y-107068100D02*
X90276800Y-107068100D01*
G75*
G02*
X90039300Y-106830600I0J237500D01*
G01*
X90039300Y-106255600D01*
G75*
G02*
X90276800Y-106018100I237500J0D01*
G01*
X90751800Y-106018100D01*
G75*
G02*
X90989300Y-106255600I0J-237500D01*
G01*
X90989300Y-106830600D01*
G75*
G02*
X90751800Y-107068100I-237500J0D01*
G01*
G37*
G36*
G01*
X90751800Y-108818100D02*
X90276800Y-108818100D01*
G75*
G02*
X90039300Y-108580600I0J237500D01*
G01*
X90039300Y-108005600D01*
G75*
G02*
X90276800Y-107768100I237500J0D01*
G01*
X90751800Y-107768100D01*
G75*
G02*
X90989300Y-108005600I0J-237500D01*
G01*
X90989300Y-108580600D01*
G75*
G02*
X90751800Y-108818100I-237500J0D01*
G01*
G37*
%TD*%
%TO.C,R24*%
G36*
G01*
X92733000Y-107068100D02*
X92258000Y-107068100D01*
G75*
G02*
X92020500Y-106830600I0J237500D01*
G01*
X92020500Y-106255600D01*
G75*
G02*
X92258000Y-106018100I237500J0D01*
G01*
X92733000Y-106018100D01*
G75*
G02*
X92970500Y-106255600I0J-237500D01*
G01*
X92970500Y-106830600D01*
G75*
G02*
X92733000Y-107068100I-237500J0D01*
G01*
G37*
G36*
G01*
X92733000Y-108818100D02*
X92258000Y-108818100D01*
G75*
G02*
X92020500Y-108580600I0J237500D01*
G01*
X92020500Y-108005600D01*
G75*
G02*
X92258000Y-107768100I237500J0D01*
G01*
X92733000Y-107768100D01*
G75*
G02*
X92970500Y-108005600I0J-237500D01*
G01*
X92970500Y-108580600D01*
G75*
G02*
X92733000Y-108818100I-237500J0D01*
G01*
G37*
%TD*%
%TO.C,R25*%
G36*
G01*
X94714200Y-108818100D02*
X94239200Y-108818100D01*
G75*
G02*
X94001700Y-108580600I0J237500D01*
G01*
X94001700Y-108005600D01*
G75*
G02*
X94239200Y-107768100I237500J0D01*
G01*
X94714200Y-107768100D01*
G75*
G02*
X94951700Y-108005600I0J-237500D01*
G01*
X94951700Y-108580600D01*
G75*
G02*
X94714200Y-108818100I-237500J0D01*
G01*
G37*
G36*
G01*
X94714200Y-107068100D02*
X94239200Y-107068100D01*
G75*
G02*
X94001700Y-106830600I0J237500D01*
G01*
X94001700Y-106255600D01*
G75*
G02*
X94239200Y-106018100I237500J0D01*
G01*
X94714200Y-106018100D01*
G75*
G02*
X94951700Y-106255600I0J-237500D01*
G01*
X94951700Y-106830600D01*
G75*
G02*
X94714200Y-107068100I-237500J0D01*
G01*
G37*
%TD*%
%TO.C,R26*%
G36*
G01*
X126805700Y-86719900D02*
X126330700Y-86719900D01*
G75*
G02*
X126093200Y-86482400I0J237500D01*
G01*
X126093200Y-85907400D01*
G75*
G02*
X126330700Y-85669900I237500J0D01*
G01*
X126805700Y-85669900D01*
G75*
G02*
X127043200Y-85907400I0J-237500D01*
G01*
X127043200Y-86482400D01*
G75*
G02*
X126805700Y-86719900I-237500J0D01*
G01*
G37*
G36*
G01*
X126805700Y-88469900D02*
X126330700Y-88469900D01*
G75*
G02*
X126093200Y-88232400I0J237500D01*
G01*
X126093200Y-87657400D01*
G75*
G02*
X126330700Y-87419900I237500J0D01*
G01*
X126805700Y-87419900D01*
G75*
G02*
X127043200Y-87657400I0J-237500D01*
G01*
X127043200Y-88232400D01*
G75*
G02*
X126805700Y-88469900I-237500J0D01*
G01*
G37*
%TD*%
%TO.C,R27*%
G36*
G01*
X124735600Y-88469900D02*
X124260600Y-88469900D01*
G75*
G02*
X124023100Y-88232400I0J237500D01*
G01*
X124023100Y-87657400D01*
G75*
G02*
X124260600Y-87419900I237500J0D01*
G01*
X124735600Y-87419900D01*
G75*
G02*
X124973100Y-87657400I0J-237500D01*
G01*
X124973100Y-88232400D01*
G75*
G02*
X124735600Y-88469900I-237500J0D01*
G01*
G37*
G36*
G01*
X124735600Y-86719900D02*
X124260600Y-86719900D01*
G75*
G02*
X124023100Y-86482400I0J237500D01*
G01*
X124023100Y-85907400D01*
G75*
G02*
X124260600Y-85669900I237500J0D01*
G01*
X124735600Y-85669900D01*
G75*
G02*
X124973100Y-85907400I0J-237500D01*
G01*
X124973100Y-86482400D01*
G75*
G02*
X124735600Y-86719900I-237500J0D01*
G01*
G37*
%TD*%
%TO.C,R28*%
G36*
G01*
X122830600Y-86719900D02*
X122355600Y-86719900D01*
G75*
G02*
X122118100Y-86482400I0J237500D01*
G01*
X122118100Y-85907400D01*
G75*
G02*
X122355600Y-85669900I237500J0D01*
G01*
X122830600Y-85669900D01*
G75*
G02*
X123068100Y-85907400I0J-237500D01*
G01*
X123068100Y-86482400D01*
G75*
G02*
X122830600Y-86719900I-237500J0D01*
G01*
G37*
G36*
G01*
X122830600Y-88469900D02*
X122355600Y-88469900D01*
G75*
G02*
X122118100Y-88232400I0J237500D01*
G01*
X122118100Y-87657400D01*
G75*
G02*
X122355600Y-87419900I237500J0D01*
G01*
X122830600Y-87419900D01*
G75*
G02*
X123068100Y-87657400I0J-237500D01*
G01*
X123068100Y-88232400D01*
G75*
G02*
X122830600Y-88469900I-237500J0D01*
G01*
G37*
%TD*%
%TO.C,R29*%
G36*
G01*
X120811300Y-88469900D02*
X120336300Y-88469900D01*
G75*
G02*
X120098800Y-88232400I0J237500D01*
G01*
X120098800Y-87657400D01*
G75*
G02*
X120336300Y-87419900I237500J0D01*
G01*
X120811300Y-87419900D01*
G75*
G02*
X121048800Y-87657400I0J-237500D01*
G01*
X121048800Y-88232400D01*
G75*
G02*
X120811300Y-88469900I-237500J0D01*
G01*
G37*
G36*
G01*
X120811300Y-86719900D02*
X120336300Y-86719900D01*
G75*
G02*
X120098800Y-86482400I0J237500D01*
G01*
X120098800Y-85907400D01*
G75*
G02*
X120336300Y-85669900I237500J0D01*
G01*
X120811300Y-85669900D01*
G75*
G02*
X121048800Y-85907400I0J-237500D01*
G01*
X121048800Y-86482400D01*
G75*
G02*
X120811300Y-86719900I-237500J0D01*
G01*
G37*
%TD*%
%TO.C,R32*%
G36*
G01*
X109431600Y-84489300D02*
X109431600Y-84014300D01*
G75*
G02*
X109669100Y-83776800I237500J0D01*
G01*
X110244100Y-83776800D01*
G75*
G02*
X110481600Y-84014300I0J-237500D01*
G01*
X110481600Y-84489300D01*
G75*
G02*
X110244100Y-84726800I-237500J0D01*
G01*
X109669100Y-84726800D01*
G75*
G02*
X109431600Y-84489300I0J237500D01*
G01*
G37*
G36*
G01*
X111181600Y-84489300D02*
X111181600Y-84014300D01*
G75*
G02*
X111419100Y-83776800I237500J0D01*
G01*
X111994100Y-83776800D01*
G75*
G02*
X112231600Y-84014300I0J-237500D01*
G01*
X112231600Y-84489300D01*
G75*
G02*
X111994100Y-84726800I-237500J0D01*
G01*
X111419100Y-84726800D01*
G75*
G02*
X111181600Y-84489300I0J237500D01*
G01*
G37*
%TD*%
%TO.C,R33*%
G36*
G01*
X113800900Y-84774200D02*
X113325900Y-84774200D01*
G75*
G02*
X113088400Y-84536700I0J237500D01*
G01*
X113088400Y-83961700D01*
G75*
G02*
X113325900Y-83724200I237500J0D01*
G01*
X113800900Y-83724200D01*
G75*
G02*
X114038400Y-83961700I0J-237500D01*
G01*
X114038400Y-84536700D01*
G75*
G02*
X113800900Y-84774200I-237500J0D01*
G01*
G37*
G36*
G01*
X113800900Y-83024200D02*
X113325900Y-83024200D01*
G75*
G02*
X113088400Y-82786700I0J237500D01*
G01*
X113088400Y-82211700D01*
G75*
G02*
X113325900Y-81974200I237500J0D01*
G01*
X113800900Y-81974200D01*
G75*
G02*
X114038400Y-82211700I0J-237500D01*
G01*
X114038400Y-82786700D01*
G75*
G02*
X113800900Y-83024200I-237500J0D01*
G01*
G37*
%TD*%
D13*
%TO.C,D8*%
X87801200Y-83754000D03*
X87801200Y-81854000D03*
X85801200Y-82804000D03*
%TD*%
D14*
%TO.C,Q2*%
X123479300Y-128958300D03*
X123479300Y-130858300D03*
X126479300Y-129908300D03*
%TD*%
%TO.C,Q3*%
X78740000Y-99695000D03*
X78740000Y-97795000D03*
X75740000Y-98745000D03*
%TD*%
D15*
%TO.C,Q4*%
X110896400Y-78536800D03*
X111846400Y-81536800D03*
X109946400Y-81536800D03*
%TD*%
D16*
%TO.C,U6*%
X130403600Y-115443000D03*
D17*
X130403600Y-109143000D03*
X128103600Y-109143000D03*
X132703600Y-109143000D03*
%TD*%
%TO.C,D7*%
G36*
G01*
X125137000Y-133927001D02*
X125137000Y-133026999D01*
G75*
G02*
X125386999Y-132777000I249999J0D01*
G01*
X126037001Y-132777000D01*
G75*
G02*
X126287000Y-133026999I0J-249999D01*
G01*
X126287000Y-133927001D01*
G75*
G02*
X126037001Y-134177000I-249999J0D01*
G01*
X125386999Y-134177000D01*
G75*
G02*
X125137000Y-133927001I0J249999D01*
G01*
G37*
G36*
G01*
X127187000Y-133927001D02*
X127187000Y-133026999D01*
G75*
G02*
X127436999Y-132777000I249999J0D01*
G01*
X128087001Y-132777000D01*
G75*
G02*
X128337000Y-133026999I0J-249999D01*
G01*
X128337000Y-133927001D01*
G75*
G02*
X128087001Y-134177000I-249999J0D01*
G01*
X127436999Y-134177000D01*
G75*
G02*
X127187000Y-133927001I0J249999D01*
G01*
G37*
%TD*%
M02*
