%TF.GenerationSoftware,KiCad,Pcbnew,5.1.10*%
%TF.CreationDate,2021-08-09T17:29:30+03:00*%
%TF.ProjectId,stm32,73746d33-322e-46b6-9963-61645f706362,rev?*%
%TF.SameCoordinates,Original*%
%TF.FileFunction,Paste,Bot*%
%TF.FilePolarity,Positive*%
%FSLAX46Y46*%
G04 Gerber Fmt 4.6, Leading zero omitted, Abs format (unit mm)*
G04 Created by KiCad (PCBNEW 5.1.10) date 2021-08-09 17:29:30*
%MOMM*%
%LPD*%
G01*
G04 APERTURE LIST*
G04 APERTURE END LIST*
%TO.C,C2*%
G36*
G01*
X94549800Y-116556800D02*
X94549800Y-116081800D01*
G75*
G02*
X94787300Y-115844300I237500J0D01*
G01*
X95362300Y-115844300D01*
G75*
G02*
X95599800Y-116081800I0J-237500D01*
G01*
X95599800Y-116556800D01*
G75*
G02*
X95362300Y-116794300I-237500J0D01*
G01*
X94787300Y-116794300D01*
G75*
G02*
X94549800Y-116556800I0J237500D01*
G01*
G37*
G36*
G01*
X96299800Y-116556800D02*
X96299800Y-116081800D01*
G75*
G02*
X96537300Y-115844300I237500J0D01*
G01*
X97112300Y-115844300D01*
G75*
G02*
X97349800Y-116081800I0J-237500D01*
G01*
X97349800Y-116556800D01*
G75*
G02*
X97112300Y-116794300I-237500J0D01*
G01*
X96537300Y-116794300D01*
G75*
G02*
X96299800Y-116556800I0J237500D01*
G01*
G37*
%TD*%
%TO.C,C3*%
G36*
G01*
X90570600Y-116081800D02*
X90570600Y-116556800D01*
G75*
G02*
X90333100Y-116794300I-237500J0D01*
G01*
X89758100Y-116794300D01*
G75*
G02*
X89520600Y-116556800I0J237500D01*
G01*
X89520600Y-116081800D01*
G75*
G02*
X89758100Y-115844300I237500J0D01*
G01*
X90333100Y-115844300D01*
G75*
G02*
X90570600Y-116081800I0J-237500D01*
G01*
G37*
G36*
G01*
X92320600Y-116081800D02*
X92320600Y-116556800D01*
G75*
G02*
X92083100Y-116794300I-237500J0D01*
G01*
X91508100Y-116794300D01*
G75*
G02*
X91270600Y-116556800I0J237500D01*
G01*
X91270600Y-116081800D01*
G75*
G02*
X91508100Y-115844300I237500J0D01*
G01*
X92083100Y-115844300D01*
G75*
G02*
X92320600Y-116081800I0J-237500D01*
G01*
G37*
%TD*%
%TO.C,C13*%
G36*
G01*
X84414801Y-108348400D02*
X82564799Y-108348400D01*
G75*
G02*
X82314800Y-108098401I0J249999D01*
G01*
X82314800Y-106348399D01*
G75*
G02*
X82564799Y-106098400I249999J0D01*
G01*
X84414801Y-106098400D01*
G75*
G02*
X84664800Y-106348399I0J-249999D01*
G01*
X84664800Y-108098401D01*
G75*
G02*
X84414801Y-108348400I-249999J0D01*
G01*
G37*
G36*
G01*
X84414801Y-103248400D02*
X82564799Y-103248400D01*
G75*
G02*
X82314800Y-102998401I0J249999D01*
G01*
X82314800Y-101248399D01*
G75*
G02*
X82564799Y-100998400I249999J0D01*
G01*
X84414801Y-100998400D01*
G75*
G02*
X84664800Y-101248399I0J-249999D01*
G01*
X84664800Y-102998401D01*
G75*
G02*
X84414801Y-103248400I-249999J0D01*
G01*
G37*
%TD*%
%TO.C,D1*%
G36*
G01*
X103819000Y-78529601D02*
X103819000Y-77629599D01*
G75*
G02*
X104068999Y-77379600I249999J0D01*
G01*
X104719001Y-77379600D01*
G75*
G02*
X104969000Y-77629599I0J-249999D01*
G01*
X104969000Y-78529601D01*
G75*
G02*
X104719001Y-78779600I-249999J0D01*
G01*
X104068999Y-78779600D01*
G75*
G02*
X103819000Y-78529601I0J249999D01*
G01*
G37*
G36*
G01*
X105869000Y-78529601D02*
X105869000Y-77629599D01*
G75*
G02*
X106118999Y-77379600I249999J0D01*
G01*
X106769001Y-77379600D01*
G75*
G02*
X107019000Y-77629599I0J-249999D01*
G01*
X107019000Y-78529601D01*
G75*
G02*
X106769001Y-78779600I-249999J0D01*
G01*
X106118999Y-78779600D01*
G75*
G02*
X105869000Y-78529601I0J249999D01*
G01*
G37*
%TD*%
%TO.C,D3*%
G36*
G01*
X103819000Y-82263401D02*
X103819000Y-81363399D01*
G75*
G02*
X104068999Y-81113400I249999J0D01*
G01*
X104719001Y-81113400D01*
G75*
G02*
X104969000Y-81363399I0J-249999D01*
G01*
X104969000Y-82263401D01*
G75*
G02*
X104719001Y-82513400I-249999J0D01*
G01*
X104068999Y-82513400D01*
G75*
G02*
X103819000Y-82263401I0J249999D01*
G01*
G37*
G36*
G01*
X105869000Y-82263401D02*
X105869000Y-81363399D01*
G75*
G02*
X106118999Y-81113400I249999J0D01*
G01*
X106769001Y-81113400D01*
G75*
G02*
X107019000Y-81363399I0J-249999D01*
G01*
X107019000Y-82263401D01*
G75*
G02*
X106769001Y-82513400I-249999J0D01*
G01*
X106118999Y-82513400D01*
G75*
G02*
X105869000Y-82263401I0J249999D01*
G01*
G37*
%TD*%
%TO.C,D4*%
G36*
G01*
X96554600Y-114800801D02*
X96554600Y-113900799D01*
G75*
G02*
X96804599Y-113650800I249999J0D01*
G01*
X97454601Y-113650800D01*
G75*
G02*
X97704600Y-113900799I0J-249999D01*
G01*
X97704600Y-114800801D01*
G75*
G02*
X97454601Y-115050800I-249999J0D01*
G01*
X96804599Y-115050800D01*
G75*
G02*
X96554600Y-114800801I0J249999D01*
G01*
G37*
G36*
G01*
X94504600Y-114800801D02*
X94504600Y-113900799D01*
G75*
G02*
X94754599Y-113650800I249999J0D01*
G01*
X95404601Y-113650800D01*
G75*
G02*
X95654600Y-113900799I0J-249999D01*
G01*
X95654600Y-114800801D01*
G75*
G02*
X95404601Y-115050800I-249999J0D01*
G01*
X94754599Y-115050800D01*
G75*
G02*
X94504600Y-114800801I0J249999D01*
G01*
G37*
%TD*%
%TO.C,D6*%
G36*
G01*
X90338600Y-113900799D02*
X90338600Y-114800801D01*
G75*
G02*
X90088601Y-115050800I-249999J0D01*
G01*
X89438599Y-115050800D01*
G75*
G02*
X89188600Y-114800801I0J249999D01*
G01*
X89188600Y-113900799D01*
G75*
G02*
X89438599Y-113650800I249999J0D01*
G01*
X90088601Y-113650800D01*
G75*
G02*
X90338600Y-113900799I0J-249999D01*
G01*
G37*
G36*
G01*
X92388600Y-113900799D02*
X92388600Y-114800801D01*
G75*
G02*
X92138601Y-115050800I-249999J0D01*
G01*
X91488599Y-115050800D01*
G75*
G02*
X91238600Y-114800801I0J249999D01*
G01*
X91238600Y-113900799D01*
G75*
G02*
X91488599Y-113650800I249999J0D01*
G01*
X92138601Y-113650800D01*
G75*
G02*
X92388600Y-113900799I0J-249999D01*
G01*
G37*
%TD*%
%TO.C,R17*%
G36*
G01*
X108525300Y-96071200D02*
X109000300Y-96071200D01*
G75*
G02*
X109237800Y-96308700I0J-237500D01*
G01*
X109237800Y-96883700D01*
G75*
G02*
X109000300Y-97121200I-237500J0D01*
G01*
X108525300Y-97121200D01*
G75*
G02*
X108287800Y-96883700I0J237500D01*
G01*
X108287800Y-96308700D01*
G75*
G02*
X108525300Y-96071200I237500J0D01*
G01*
G37*
G36*
G01*
X108525300Y-97821200D02*
X109000300Y-97821200D01*
G75*
G02*
X109237800Y-98058700I0J-237500D01*
G01*
X109237800Y-98633700D01*
G75*
G02*
X109000300Y-98871200I-237500J0D01*
G01*
X108525300Y-98871200D01*
G75*
G02*
X108287800Y-98633700I0J237500D01*
G01*
X108287800Y-98058700D01*
G75*
G02*
X108525300Y-97821200I237500J0D01*
G01*
G37*
%TD*%
%TO.C,R3*%
G36*
G01*
X100908400Y-77842100D02*
X100908400Y-78317100D01*
G75*
G02*
X100670900Y-78554600I-237500J0D01*
G01*
X100095900Y-78554600D01*
G75*
G02*
X99858400Y-78317100I0J237500D01*
G01*
X99858400Y-77842100D01*
G75*
G02*
X100095900Y-77604600I237500J0D01*
G01*
X100670900Y-77604600D01*
G75*
G02*
X100908400Y-77842100I0J-237500D01*
G01*
G37*
G36*
G01*
X102658400Y-77842100D02*
X102658400Y-78317100D01*
G75*
G02*
X102420900Y-78554600I-237500J0D01*
G01*
X101845900Y-78554600D01*
G75*
G02*
X101608400Y-78317100I0J237500D01*
G01*
X101608400Y-77842100D01*
G75*
G02*
X101845900Y-77604600I237500J0D01*
G01*
X102420900Y-77604600D01*
G75*
G02*
X102658400Y-77842100I0J-237500D01*
G01*
G37*
%TD*%
%TO.C,R13*%
G36*
G01*
X102658400Y-81296500D02*
X102658400Y-81771500D01*
G75*
G02*
X102420900Y-82009000I-237500J0D01*
G01*
X101845900Y-82009000D01*
G75*
G02*
X101608400Y-81771500I0J237500D01*
G01*
X101608400Y-81296500D01*
G75*
G02*
X101845900Y-81059000I237500J0D01*
G01*
X102420900Y-81059000D01*
G75*
G02*
X102658400Y-81296500I0J-237500D01*
G01*
G37*
G36*
G01*
X100908400Y-81296500D02*
X100908400Y-81771500D01*
G75*
G02*
X100670900Y-82009000I-237500J0D01*
G01*
X100095900Y-82009000D01*
G75*
G02*
X99858400Y-81771500I0J237500D01*
G01*
X99858400Y-81296500D01*
G75*
G02*
X100095900Y-81059000I237500J0D01*
G01*
X100670900Y-81059000D01*
G75*
G02*
X100908400Y-81296500I0J-237500D01*
G01*
G37*
%TD*%
%TO.C,U1*%
G36*
G01*
X97444800Y-78780700D02*
X97444800Y-79105700D01*
G75*
G02*
X97282300Y-79268200I-162500J0D01*
G01*
X95257300Y-79268200D01*
G75*
G02*
X95094800Y-79105700I0J162500D01*
G01*
X95094800Y-78780700D01*
G75*
G02*
X95257300Y-78618200I162500J0D01*
G01*
X97282300Y-78618200D01*
G75*
G02*
X97444800Y-78780700I0J-162500D01*
G01*
G37*
G36*
G01*
X97444800Y-81320700D02*
X97444800Y-81645700D01*
G75*
G02*
X97282300Y-81808200I-162500J0D01*
G01*
X95257300Y-81808200D01*
G75*
G02*
X95094800Y-81645700I0J162500D01*
G01*
X95094800Y-81320700D01*
G75*
G02*
X95257300Y-81158200I162500J0D01*
G01*
X97282300Y-81158200D01*
G75*
G02*
X97444800Y-81320700I0J-162500D01*
G01*
G37*
G36*
G01*
X97444800Y-83860700D02*
X97444800Y-84185700D01*
G75*
G02*
X97282300Y-84348200I-162500J0D01*
G01*
X95257300Y-84348200D01*
G75*
G02*
X95094800Y-84185700I0J162500D01*
G01*
X95094800Y-83860700D01*
G75*
G02*
X95257300Y-83698200I162500J0D01*
G01*
X97282300Y-83698200D01*
G75*
G02*
X97444800Y-83860700I0J-162500D01*
G01*
G37*
G36*
G01*
X97444800Y-86400700D02*
X97444800Y-86725700D01*
G75*
G02*
X97282300Y-86888200I-162500J0D01*
G01*
X95257300Y-86888200D01*
G75*
G02*
X95094800Y-86725700I0J162500D01*
G01*
X95094800Y-86400700D01*
G75*
G02*
X95257300Y-86238200I162500J0D01*
G01*
X97282300Y-86238200D01*
G75*
G02*
X97444800Y-86400700I0J-162500D01*
G01*
G37*
G36*
G01*
X88394800Y-86400700D02*
X88394800Y-86725700D01*
G75*
G02*
X88232300Y-86888200I-162500J0D01*
G01*
X86207300Y-86888200D01*
G75*
G02*
X86044800Y-86725700I0J162500D01*
G01*
X86044800Y-86400700D01*
G75*
G02*
X86207300Y-86238200I162500J0D01*
G01*
X88232300Y-86238200D01*
G75*
G02*
X88394800Y-86400700I0J-162500D01*
G01*
G37*
G36*
G01*
X88394800Y-83860700D02*
X88394800Y-84185700D01*
G75*
G02*
X88232300Y-84348200I-162500J0D01*
G01*
X86207300Y-84348200D01*
G75*
G02*
X86044800Y-84185700I0J162500D01*
G01*
X86044800Y-83860700D01*
G75*
G02*
X86207300Y-83698200I162500J0D01*
G01*
X88232300Y-83698200D01*
G75*
G02*
X88394800Y-83860700I0J-162500D01*
G01*
G37*
G36*
G01*
X88394800Y-81320700D02*
X88394800Y-81645700D01*
G75*
G02*
X88232300Y-81808200I-162500J0D01*
G01*
X86207300Y-81808200D01*
G75*
G02*
X86044800Y-81645700I0J162500D01*
G01*
X86044800Y-81320700D01*
G75*
G02*
X86207300Y-81158200I162500J0D01*
G01*
X88232300Y-81158200D01*
G75*
G02*
X88394800Y-81320700I0J-162500D01*
G01*
G37*
G36*
G01*
X88394800Y-78780700D02*
X88394800Y-79105700D01*
G75*
G02*
X88232300Y-79268200I-162500J0D01*
G01*
X86207300Y-79268200D01*
G75*
G02*
X86044800Y-79105700I0J162500D01*
G01*
X86044800Y-78780700D01*
G75*
G02*
X86207300Y-78618200I162500J0D01*
G01*
X88232300Y-78618200D01*
G75*
G02*
X88394800Y-78780700I0J-162500D01*
G01*
G37*
%TD*%
M02*
