<?xml version="1.0" standalone="no"?>
<!DOCTYPE svg PUBLIC "-//W3C//DTD SVG 20010904//EN"
 "http://www.w3.org/TR/2001/REC-SVG-20010904/DTD/svg10.dtd">
<svg version="1.0" xmlns="http://www.w3.org/2000/svg"
 width="1890.000000pt" height="1134.000000pt" viewBox="0 0 1890.000000 1134.000000"
 preserveAspectRatio="xMidYMid meet">
<metadata>
Created by potrace 1.16, written by Peter Selinger 2001-2019
</metadata>
<g transform="translate(0.000000,1134.000000) scale(0.100000,-0.100000)"
fill="#000000" stroke="none">
<path d="M7807 11145 c-685 -260 -1290 -2823 -1581 -6698 -13 -175 -26 -320
-28 -323 -3 -2 -149 -22 -324 -44 -2449 -303 -4253 -742 -5123 -1247 -300
-174 -494 -371 -556 -561 -13 -41 -16 -78 -13 -155 3 -92 7 -109 39 -177 263
-552 1566 -1059 3734 -1454 648 -118 1940 -306 2105 -306 l50 0 0 88 c0 137
19 716 30 942 42 814 135 1677 253 2345 l32 180 190 37 c473 91 1023 181 1563
253 315 42 1152 136 1160 130 1 -1 20 -89 42 -196 165 -805 278 -1750 330
-2749 11 -216 30 -808 30 -947 0 -82 0 -83 25 -83 l25 0 0 213 c0 421 -27
1435 -55 2127 -23 542 -76 1500 -90 1621 l-5 45 287 22 c159 13 320 25 359 29
l71 5 7 -133 c42 -806 334 -1606 827 -2264 645 -862 1608 -1447 2664 -1619
262 -42 372 -49 765 -43 303 4 389 8 505 26 781 118 1441 405 2055 895 165
131 489 457 624 626 112 141 298 414 381 560 281 495 460 1059 520 1632 20
198 20 668 0 866 -79 762 -357 1470 -819 2087 -182 244 -485 555 -726 748
-632 506 -1354 801 -2195 899 -170 20 -703 17 -890 -5 -693 -82 -1313 -312
-1890 -701 -355 -239 -721 -589 -987 -941 -500 -663 -798 -1481 -835 -2290 -6
-137 -7 -146 -27 -149 -32 -6 -700 -35 -705 -30 -2 2 -15 138 -28 301 -196
2488 -544 4515 -960 5583 -67 172 -194 429 -269 543 -82 126 -205 250 -289
292 -52 26 -73 30 -150 32 -59 2 -103 -2 -128 -12z m7148 -2810 c1235 -130
2340 -826 2991 -1882 510 -827 701 -1811 539 -2768 -239 -1412 -1232 -2602
-2578 -3089 -746 -270 -1564 -314 -2322 -125 -692 173 -1316 520 -1824 1014
-611 595 -1002 1324 -1155 2155 -48 263 -60 404 -60 715 0 310 12 450 60 715
122 669 406 1284 839 1815 110 135 346 378 480 494 664 575 1491 913 2372 971
161 11 484 3 658 -15z m-6930 -1720 c464 -97 897 -834 1224 -2082 l40 -153
-32 0 c-18 0 -205 -11 -417 -25 -666 -44 -1335 -99 -1944 -161 -192 -19 -356
-34 -366 -32 -16 3 -14 19 26 187 212 891 511 1609 821 1966 138 159 300 269
443 300 85 18 120 18 205 0z m-1859 -3062 c-4 -71 -13 -247 -21 -393 -42 -778
-85 -2157 -85 -2732 0 -109 -4 -198 -8 -198 -4 0 -143 33 -307 74 -773 192
-1353 390 -1830 626 -488 241 -767 467 -904 730 -58 111 -74 184 -68 310 5
123 30 200 104 320 57 91 242 279 361 365 481 349 1261 657 2327 920 430 106
418 103 429 104 5 1 6 -53 2 -126z"/>
<path d="M14580 6444 c0 -1484 2 -1745 14 -1729 7 11 316 490 686 1065 370
575 674 1047 676 1049 2 2 4 -54 4 -125 l0 -129 -601 -933 c-330 -514 -599
-935 -597 -936 1 -2 260 163 573 366 314 203 582 375 598 384 l27 15 0 -83 0
-83 -660 -425 -659 -425 1652 -5 1652 -5 0 -70 0 -70 -1656 -5 -1656 -5 660
-425 c362 -234 661 -430 663 -436 3 -6 4 -44 2 -86 l-3 -75 -585 379 c-322
208 -593 383 -603 389 -10 6 2 -20 29 -63 26 -40 298 -464 606 -941 l559 -868
-3 -126 -3 -127 -684 1062 c-376 584 -685 1062 -687 1062 -2 0 -4 -792 -4
-1760 l0 -1760 113 6 c922 48 1722 373 2404 976 604 535 1039 1291 1198 2083
54 270 67 391 72 705 5 303 -6 464 -48 715 -203 1203 -993 2253 -2100 2795
-479 234 -951 354 -1521 385 l-118 7 0 -1748z m1960 -579 l0 -1245 -60 0 -60
0 0 1238 c0 681 3 1242 7 1245 3 4 30 7 60 7 l53 0 0 -1245z m0 -3000 l0
-1245 -60 0 -60 0 0 1245 0 1245 60 0 60 0 0 -1245z"/>
<path d="M14130 7989 c-1775 -182 -3174 -1645 -3276 -3426 l-7 -123 1180 0
1180 0 12 85 c55 392 310 754 660 938 136 72 269 114 444 142 l37 6 0 1194 0
1195 -72 -1 c-40 -1 -111 -6 -158 -10z m-701 -1159 c17 -109 60 -193 118 -227
46 -27 175 -63 226 -63 55 0 25 -16 -55 -28 -115 -18 -199 -59 -233 -112 -26
-42 -65 -171 -65 -219 -1 -62 -17 -44 -28 30 -23 147 -65 221 -147 262 -35 17
-162 47 -199 47 -49 0 -26 18 31 25 210 26 282 96 315 304 14 91 20 88 37 -19z
m-995 -1147 c24 -72 68 -137 117 -173 53 -38 164 -73 299 -95 57 -9 106 -17
107 -19 1 -1 -37 -8 -86 -15 -178 -25 -276 -59 -341 -117 -70 -64 -112 -170
-141 -365 l-13 -84 -9 45 c-38 198 -51 251 -71 295 -59 131 -152 183 -405 225
-58 10 -99 19 -91 19 8 1 73 12 145 26 287 54 359 132 411 450 l18 110 22
-126 c12 -69 29 -149 38 -176z"/>
<path d="M14273 5465 c-236 -43 -453 -162 -626 -344 -131 -137 -222 -299 -274
-487 -26 -92 -28 -112 -27 -289 0 -174 2 -198 27 -290 107 -395 427 -710 824
-811 53 -13 111 -24 129 -24 l34 0 0 1130 c0 622 -3 1130 -7 1129 -5 0 -40 -7
-80 -14z"/>
<path d="M10850 4222 c0 -80 28 -349 50 -477 149 -878 626 -1684 1327 -2242
582 -464 1304 -746 2021 -789 l112 -7 0 1186 0 1187 -22 4 c-13 3 -54 10 -91
16 -428 68 -819 402 -971 828 -29 82 -66 252 -66 306 l0 36 -1180 0 -1180 0 0
-48z m2045 -712 c100 -618 222 -744 814 -844 84 -14 164 -26 179 -26 57 0 4
-14 -155 -40 -357 -59 -497 -112 -615 -232 -107 -108 -162 -260 -219 -598 -17
-102 -32 -186 -33 -188 -2 -1 -8 37 -15 85 -21 159 -61 352 -92 445 -97 299
-275 414 -754 488 -207 31 -206 30 -40 56 291 46 459 95 571 170 159 106 243
298 305 701 12 84 24 151 25 150 1 -1 14 -76 29 -167z"/>
</g>
</svg>
