%TF.GenerationSoftware,KiCad,Pcbnew,9.0.0*%
%TF.CreationDate,2025-03-21T17:04:22+03:00*%
%TF.ProjectId,many485,6d616e79-3438-4352-9e6b-696361645f70,rev?*%
%TF.SameCoordinates,Original*%
%TF.FileFunction,Legend,Top*%
%TF.FilePolarity,Positive*%
%FSLAX46Y46*%
G04 Gerber Fmt 4.6, Leading zero omitted, Abs format (unit mm)*
G04 Created by KiCad (PCBNEW 9.0.0) date 2025-03-21 17:04:22*
%MOMM*%
%LPD*%
G01*
G04 APERTURE LIST*
%ADD10C,0.100000*%
%ADD11C,0.150000*%
%ADD12C,0.120000*%
G04 APERTURE END LIST*
D10*
X141327865Y-98364025D02*
X141470722Y-98402120D01*
X141470722Y-98402120D02*
X141708817Y-98402120D01*
X141708817Y-98402120D02*
X141804055Y-98364025D01*
X141804055Y-98364025D02*
X141851674Y-98325929D01*
X141851674Y-98325929D02*
X141899293Y-98249739D01*
X141899293Y-98249739D02*
X141899293Y-98173548D01*
X141899293Y-98173548D02*
X141851674Y-98097358D01*
X141851674Y-98097358D02*
X141804055Y-98059263D01*
X141804055Y-98059263D02*
X141708817Y-98021167D01*
X141708817Y-98021167D02*
X141518341Y-97983072D01*
X141518341Y-97983072D02*
X141423103Y-97944977D01*
X141423103Y-97944977D02*
X141375484Y-97906882D01*
X141375484Y-97906882D02*
X141327865Y-97830691D01*
X141327865Y-97830691D02*
X141327865Y-97754501D01*
X141327865Y-97754501D02*
X141375484Y-97678310D01*
X141375484Y-97678310D02*
X141423103Y-97640215D01*
X141423103Y-97640215D02*
X141518341Y-97602120D01*
X141518341Y-97602120D02*
X141756436Y-97602120D01*
X141756436Y-97602120D02*
X141899293Y-97640215D01*
X142232627Y-97602120D02*
X142470722Y-98402120D01*
X142470722Y-98402120D02*
X142661198Y-97830691D01*
X142661198Y-97830691D02*
X142851674Y-98402120D01*
X142851674Y-98402120D02*
X143089770Y-97602120D01*
X144042150Y-98325929D02*
X143994531Y-98364025D01*
X143994531Y-98364025D02*
X143851674Y-98402120D01*
X143851674Y-98402120D02*
X143756436Y-98402120D01*
X143756436Y-98402120D02*
X143613579Y-98364025D01*
X143613579Y-98364025D02*
X143518341Y-98287834D01*
X143518341Y-98287834D02*
X143470722Y-98211644D01*
X143470722Y-98211644D02*
X143423103Y-98059263D01*
X143423103Y-98059263D02*
X143423103Y-97944977D01*
X143423103Y-97944977D02*
X143470722Y-97792596D01*
X143470722Y-97792596D02*
X143518341Y-97716405D01*
X143518341Y-97716405D02*
X143613579Y-97640215D01*
X143613579Y-97640215D02*
X143756436Y-97602120D01*
X143756436Y-97602120D02*
X143851674Y-97602120D01*
X143851674Y-97602120D02*
X143994531Y-97640215D01*
X143994531Y-97640215D02*
X144042150Y-97678310D01*
X144946912Y-98402120D02*
X144470722Y-98402120D01*
X144470722Y-98402120D02*
X144470722Y-97602120D01*
X145280246Y-98402120D02*
X145280246Y-97602120D01*
X145851674Y-98402120D02*
X145423103Y-97944977D01*
X145851674Y-97602120D02*
X145280246Y-98059263D01*
X141327865Y-99651980D02*
X141470722Y-99690075D01*
X141470722Y-99690075D02*
X141708817Y-99690075D01*
X141708817Y-99690075D02*
X141804055Y-99651980D01*
X141804055Y-99651980D02*
X141851674Y-99613884D01*
X141851674Y-99613884D02*
X141899293Y-99537694D01*
X141899293Y-99537694D02*
X141899293Y-99461503D01*
X141899293Y-99461503D02*
X141851674Y-99385313D01*
X141851674Y-99385313D02*
X141804055Y-99347218D01*
X141804055Y-99347218D02*
X141708817Y-99309122D01*
X141708817Y-99309122D02*
X141518341Y-99271027D01*
X141518341Y-99271027D02*
X141423103Y-99232932D01*
X141423103Y-99232932D02*
X141375484Y-99194837D01*
X141375484Y-99194837D02*
X141327865Y-99118646D01*
X141327865Y-99118646D02*
X141327865Y-99042456D01*
X141327865Y-99042456D02*
X141375484Y-98966265D01*
X141375484Y-98966265D02*
X141423103Y-98928170D01*
X141423103Y-98928170D02*
X141518341Y-98890075D01*
X141518341Y-98890075D02*
X141756436Y-98890075D01*
X141756436Y-98890075D02*
X141899293Y-98928170D01*
X142232627Y-98890075D02*
X142470722Y-99690075D01*
X142470722Y-99690075D02*
X142661198Y-99118646D01*
X142661198Y-99118646D02*
X142851674Y-99690075D01*
X142851674Y-99690075D02*
X143089770Y-98890075D01*
X143470722Y-99690075D02*
X143470722Y-98890075D01*
X143470722Y-98890075D02*
X143708817Y-98890075D01*
X143708817Y-98890075D02*
X143851674Y-98928170D01*
X143851674Y-98928170D02*
X143946912Y-99004360D01*
X143946912Y-99004360D02*
X143994531Y-99080551D01*
X143994531Y-99080551D02*
X144042150Y-99232932D01*
X144042150Y-99232932D02*
X144042150Y-99347218D01*
X144042150Y-99347218D02*
X143994531Y-99499599D01*
X143994531Y-99499599D02*
X143946912Y-99575789D01*
X143946912Y-99575789D02*
X143851674Y-99651980D01*
X143851674Y-99651980D02*
X143708817Y-99690075D01*
X143708817Y-99690075D02*
X143470722Y-99690075D01*
X144470722Y-99690075D02*
X144470722Y-98890075D01*
X145137388Y-98890075D02*
X145327864Y-98890075D01*
X145327864Y-98890075D02*
X145423102Y-98928170D01*
X145423102Y-98928170D02*
X145518340Y-99004360D01*
X145518340Y-99004360D02*
X145565959Y-99156741D01*
X145565959Y-99156741D02*
X145565959Y-99423408D01*
X145565959Y-99423408D02*
X145518340Y-99575789D01*
X145518340Y-99575789D02*
X145423102Y-99651980D01*
X145423102Y-99651980D02*
X145327864Y-99690075D01*
X145327864Y-99690075D02*
X145137388Y-99690075D01*
X145137388Y-99690075D02*
X145042150Y-99651980D01*
X145042150Y-99651980D02*
X144946912Y-99575789D01*
X144946912Y-99575789D02*
X144899293Y-99423408D01*
X144899293Y-99423408D02*
X144899293Y-99156741D01*
X144899293Y-99156741D02*
X144946912Y-99004360D01*
X144946912Y-99004360D02*
X145042150Y-98928170D01*
X145042150Y-98928170D02*
X145137388Y-98890075D01*
X141899293Y-100216125D02*
X141804055Y-100178030D01*
X141804055Y-100178030D02*
X141661198Y-100178030D01*
X141661198Y-100178030D02*
X141518341Y-100216125D01*
X141518341Y-100216125D02*
X141423103Y-100292315D01*
X141423103Y-100292315D02*
X141375484Y-100368506D01*
X141375484Y-100368506D02*
X141327865Y-100520887D01*
X141327865Y-100520887D02*
X141327865Y-100635173D01*
X141327865Y-100635173D02*
X141375484Y-100787554D01*
X141375484Y-100787554D02*
X141423103Y-100863744D01*
X141423103Y-100863744D02*
X141518341Y-100939935D01*
X141518341Y-100939935D02*
X141661198Y-100978030D01*
X141661198Y-100978030D02*
X141756436Y-100978030D01*
X141756436Y-100978030D02*
X141899293Y-100939935D01*
X141899293Y-100939935D02*
X141946912Y-100901839D01*
X141946912Y-100901839D02*
X141946912Y-100635173D01*
X141946912Y-100635173D02*
X141756436Y-100635173D01*
X142375484Y-100978030D02*
X142375484Y-100178030D01*
X142375484Y-100178030D02*
X142946912Y-100978030D01*
X142946912Y-100978030D02*
X142946912Y-100178030D01*
X143423103Y-100978030D02*
X143423103Y-100178030D01*
X143423103Y-100178030D02*
X143661198Y-100178030D01*
X143661198Y-100178030D02*
X143804055Y-100216125D01*
X143804055Y-100216125D02*
X143899293Y-100292315D01*
X143899293Y-100292315D02*
X143946912Y-100368506D01*
X143946912Y-100368506D02*
X143994531Y-100520887D01*
X143994531Y-100520887D02*
X143994531Y-100635173D01*
X143994531Y-100635173D02*
X143946912Y-100787554D01*
X143946912Y-100787554D02*
X143899293Y-100863744D01*
X143899293Y-100863744D02*
X143804055Y-100939935D01*
X143804055Y-100939935D02*
X143661198Y-100978030D01*
X143661198Y-100978030D02*
X143423103Y-100978030D01*
X141280246Y-101465985D02*
X141899293Y-101465985D01*
X141899293Y-101465985D02*
X141565960Y-101770747D01*
X141565960Y-101770747D02*
X141708817Y-101770747D01*
X141708817Y-101770747D02*
X141804055Y-101808842D01*
X141804055Y-101808842D02*
X141851674Y-101846937D01*
X141851674Y-101846937D02*
X141899293Y-101923128D01*
X141899293Y-101923128D02*
X141899293Y-102113604D01*
X141899293Y-102113604D02*
X141851674Y-102189794D01*
X141851674Y-102189794D02*
X141804055Y-102227890D01*
X141804055Y-102227890D02*
X141708817Y-102265985D01*
X141708817Y-102265985D02*
X141423103Y-102265985D01*
X141423103Y-102265985D02*
X141327865Y-102227890D01*
X141327865Y-102227890D02*
X141280246Y-102189794D01*
X142185008Y-101465985D02*
X142518341Y-102265985D01*
X142518341Y-102265985D02*
X142851674Y-101465985D01*
X143089770Y-101465985D02*
X143708817Y-101465985D01*
X143708817Y-101465985D02*
X143375484Y-101770747D01*
X143375484Y-101770747D02*
X143518341Y-101770747D01*
X143518341Y-101770747D02*
X143613579Y-101808842D01*
X143613579Y-101808842D02*
X143661198Y-101846937D01*
X143661198Y-101846937D02*
X143708817Y-101923128D01*
X143708817Y-101923128D02*
X143708817Y-102113604D01*
X143708817Y-102113604D02*
X143661198Y-102189794D01*
X143661198Y-102189794D02*
X143613579Y-102227890D01*
X143613579Y-102227890D02*
X143518341Y-102265985D01*
X143518341Y-102265985D02*
X143232627Y-102265985D01*
X143232627Y-102265985D02*
X143137389Y-102227890D01*
X143137389Y-102227890D02*
X143089770Y-102189794D01*
X141708817Y-103134892D02*
X141851674Y-103172987D01*
X141851674Y-103172987D02*
X141899293Y-103211083D01*
X141899293Y-103211083D02*
X141946912Y-103287273D01*
X141946912Y-103287273D02*
X141946912Y-103401559D01*
X141946912Y-103401559D02*
X141899293Y-103477749D01*
X141899293Y-103477749D02*
X141851674Y-103515845D01*
X141851674Y-103515845D02*
X141756436Y-103553940D01*
X141756436Y-103553940D02*
X141375484Y-103553940D01*
X141375484Y-103553940D02*
X141375484Y-102753940D01*
X141375484Y-102753940D02*
X141708817Y-102753940D01*
X141708817Y-102753940D02*
X141804055Y-102792035D01*
X141804055Y-102792035D02*
X141851674Y-102830130D01*
X141851674Y-102830130D02*
X141899293Y-102906321D01*
X141899293Y-102906321D02*
X141899293Y-102982511D01*
X141899293Y-102982511D02*
X141851674Y-103058702D01*
X141851674Y-103058702D02*
X141804055Y-103096797D01*
X141804055Y-103096797D02*
X141708817Y-103134892D01*
X141708817Y-103134892D02*
X141375484Y-103134892D01*
X142565960Y-102753940D02*
X142756436Y-102753940D01*
X142756436Y-102753940D02*
X142851674Y-102792035D01*
X142851674Y-102792035D02*
X142946912Y-102868225D01*
X142946912Y-102868225D02*
X142994531Y-103020606D01*
X142994531Y-103020606D02*
X142994531Y-103287273D01*
X142994531Y-103287273D02*
X142946912Y-103439654D01*
X142946912Y-103439654D02*
X142851674Y-103515845D01*
X142851674Y-103515845D02*
X142756436Y-103553940D01*
X142756436Y-103553940D02*
X142565960Y-103553940D01*
X142565960Y-103553940D02*
X142470722Y-103515845D01*
X142470722Y-103515845D02*
X142375484Y-103439654D01*
X142375484Y-103439654D02*
X142327865Y-103287273D01*
X142327865Y-103287273D02*
X142327865Y-103020606D01*
X142327865Y-103020606D02*
X142375484Y-102868225D01*
X142375484Y-102868225D02*
X142470722Y-102792035D01*
X142470722Y-102792035D02*
X142565960Y-102753940D01*
X143613579Y-102753940D02*
X143804055Y-102753940D01*
X143804055Y-102753940D02*
X143899293Y-102792035D01*
X143899293Y-102792035D02*
X143994531Y-102868225D01*
X143994531Y-102868225D02*
X144042150Y-103020606D01*
X144042150Y-103020606D02*
X144042150Y-103287273D01*
X144042150Y-103287273D02*
X143994531Y-103439654D01*
X143994531Y-103439654D02*
X143899293Y-103515845D01*
X143899293Y-103515845D02*
X143804055Y-103553940D01*
X143804055Y-103553940D02*
X143613579Y-103553940D01*
X143613579Y-103553940D02*
X143518341Y-103515845D01*
X143518341Y-103515845D02*
X143423103Y-103439654D01*
X143423103Y-103439654D02*
X143375484Y-103287273D01*
X143375484Y-103287273D02*
X143375484Y-103020606D01*
X143375484Y-103020606D02*
X143423103Y-102868225D01*
X143423103Y-102868225D02*
X143518341Y-102792035D01*
X143518341Y-102792035D02*
X143613579Y-102753940D01*
X144327865Y-102753940D02*
X144899293Y-102753940D01*
X144613579Y-103553940D02*
X144613579Y-102753940D01*
X141946912Y-104841895D02*
X141613579Y-104460942D01*
X141375484Y-104841895D02*
X141375484Y-104041895D01*
X141375484Y-104041895D02*
X141756436Y-104041895D01*
X141756436Y-104041895D02*
X141851674Y-104079990D01*
X141851674Y-104079990D02*
X141899293Y-104118085D01*
X141899293Y-104118085D02*
X141946912Y-104194276D01*
X141946912Y-104194276D02*
X141946912Y-104308561D01*
X141946912Y-104308561D02*
X141899293Y-104384752D01*
X141899293Y-104384752D02*
X141851674Y-104422847D01*
X141851674Y-104422847D02*
X141756436Y-104460942D01*
X141756436Y-104460942D02*
X141375484Y-104460942D01*
X142375484Y-104422847D02*
X142708817Y-104422847D01*
X142851674Y-104841895D02*
X142375484Y-104841895D01*
X142375484Y-104841895D02*
X142375484Y-104041895D01*
X142375484Y-104041895D02*
X142851674Y-104041895D01*
X143232627Y-104803800D02*
X143375484Y-104841895D01*
X143375484Y-104841895D02*
X143613579Y-104841895D01*
X143613579Y-104841895D02*
X143708817Y-104803800D01*
X143708817Y-104803800D02*
X143756436Y-104765704D01*
X143756436Y-104765704D02*
X143804055Y-104689514D01*
X143804055Y-104689514D02*
X143804055Y-104613323D01*
X143804055Y-104613323D02*
X143756436Y-104537133D01*
X143756436Y-104537133D02*
X143708817Y-104499038D01*
X143708817Y-104499038D02*
X143613579Y-104460942D01*
X143613579Y-104460942D02*
X143423103Y-104422847D01*
X143423103Y-104422847D02*
X143327865Y-104384752D01*
X143327865Y-104384752D02*
X143280246Y-104346657D01*
X143280246Y-104346657D02*
X143232627Y-104270466D01*
X143232627Y-104270466D02*
X143232627Y-104194276D01*
X143232627Y-104194276D02*
X143280246Y-104118085D01*
X143280246Y-104118085D02*
X143327865Y-104079990D01*
X143327865Y-104079990D02*
X143423103Y-104041895D01*
X143423103Y-104041895D02*
X143661198Y-104041895D01*
X143661198Y-104041895D02*
X143804055Y-104079990D01*
X144232627Y-104422847D02*
X144565960Y-104422847D01*
X144708817Y-104841895D02*
X144232627Y-104841895D01*
X144232627Y-104841895D02*
X144232627Y-104041895D01*
X144232627Y-104041895D02*
X144708817Y-104041895D01*
X144994532Y-104041895D02*
X145565960Y-104041895D01*
X145280246Y-104841895D02*
X145280246Y-104041895D01*
X105472512Y-95833619D02*
X105139179Y-95357428D01*
X104901084Y-95833619D02*
X104901084Y-94833619D01*
X104901084Y-94833619D02*
X105282036Y-94833619D01*
X105282036Y-94833619D02*
X105377274Y-94881238D01*
X105377274Y-94881238D02*
X105424893Y-94928857D01*
X105424893Y-94928857D02*
X105472512Y-95024095D01*
X105472512Y-95024095D02*
X105472512Y-95166952D01*
X105472512Y-95166952D02*
X105424893Y-95262190D01*
X105424893Y-95262190D02*
X105377274Y-95309809D01*
X105377274Y-95309809D02*
X105282036Y-95357428D01*
X105282036Y-95357428D02*
X104901084Y-95357428D01*
X105853465Y-95786000D02*
X105996322Y-95833619D01*
X105996322Y-95833619D02*
X106234417Y-95833619D01*
X106234417Y-95833619D02*
X106329655Y-95786000D01*
X106329655Y-95786000D02*
X106377274Y-95738380D01*
X106377274Y-95738380D02*
X106424893Y-95643142D01*
X106424893Y-95643142D02*
X106424893Y-95547904D01*
X106424893Y-95547904D02*
X106377274Y-95452666D01*
X106377274Y-95452666D02*
X106329655Y-95405047D01*
X106329655Y-95405047D02*
X106234417Y-95357428D01*
X106234417Y-95357428D02*
X106043941Y-95309809D01*
X106043941Y-95309809D02*
X105948703Y-95262190D01*
X105948703Y-95262190D02*
X105901084Y-95214571D01*
X105901084Y-95214571D02*
X105853465Y-95119333D01*
X105853465Y-95119333D02*
X105853465Y-95024095D01*
X105853465Y-95024095D02*
X105901084Y-94928857D01*
X105901084Y-94928857D02*
X105948703Y-94881238D01*
X105948703Y-94881238D02*
X106043941Y-94833619D01*
X106043941Y-94833619D02*
X106282036Y-94833619D01*
X106282036Y-94833619D02*
X106424893Y-94881238D01*
X106853465Y-95452666D02*
X107615370Y-95452666D01*
X108520131Y-95166952D02*
X108520131Y-95833619D01*
X108282036Y-94786000D02*
X108043941Y-95500285D01*
X108043941Y-95500285D02*
X108662988Y-95500285D01*
X109186798Y-95262190D02*
X109091560Y-95214571D01*
X109091560Y-95214571D02*
X109043941Y-95166952D01*
X109043941Y-95166952D02*
X108996322Y-95071714D01*
X108996322Y-95071714D02*
X108996322Y-95024095D01*
X108996322Y-95024095D02*
X109043941Y-94928857D01*
X109043941Y-94928857D02*
X109091560Y-94881238D01*
X109091560Y-94881238D02*
X109186798Y-94833619D01*
X109186798Y-94833619D02*
X109377274Y-94833619D01*
X109377274Y-94833619D02*
X109472512Y-94881238D01*
X109472512Y-94881238D02*
X109520131Y-94928857D01*
X109520131Y-94928857D02*
X109567750Y-95024095D01*
X109567750Y-95024095D02*
X109567750Y-95071714D01*
X109567750Y-95071714D02*
X109520131Y-95166952D01*
X109520131Y-95166952D02*
X109472512Y-95214571D01*
X109472512Y-95214571D02*
X109377274Y-95262190D01*
X109377274Y-95262190D02*
X109186798Y-95262190D01*
X109186798Y-95262190D02*
X109091560Y-95309809D01*
X109091560Y-95309809D02*
X109043941Y-95357428D01*
X109043941Y-95357428D02*
X108996322Y-95452666D01*
X108996322Y-95452666D02*
X108996322Y-95643142D01*
X108996322Y-95643142D02*
X109043941Y-95738380D01*
X109043941Y-95738380D02*
X109091560Y-95786000D01*
X109091560Y-95786000D02*
X109186798Y-95833619D01*
X109186798Y-95833619D02*
X109377274Y-95833619D01*
X109377274Y-95833619D02*
X109472512Y-95786000D01*
X109472512Y-95786000D02*
X109520131Y-95738380D01*
X109520131Y-95738380D02*
X109567750Y-95643142D01*
X109567750Y-95643142D02*
X109567750Y-95452666D01*
X109567750Y-95452666D02*
X109520131Y-95357428D01*
X109520131Y-95357428D02*
X109472512Y-95309809D01*
X109472512Y-95309809D02*
X109377274Y-95262190D01*
X110472512Y-94833619D02*
X109996322Y-94833619D01*
X109996322Y-94833619D02*
X109948703Y-95309809D01*
X109948703Y-95309809D02*
X109996322Y-95262190D01*
X109996322Y-95262190D02*
X110091560Y-95214571D01*
X110091560Y-95214571D02*
X110329655Y-95214571D01*
X110329655Y-95214571D02*
X110424893Y-95262190D01*
X110424893Y-95262190D02*
X110472512Y-95309809D01*
X110472512Y-95309809D02*
X110520131Y-95405047D01*
X110520131Y-95405047D02*
X110520131Y-95643142D01*
X110520131Y-95643142D02*
X110472512Y-95738380D01*
X110472512Y-95738380D02*
X110424893Y-95786000D01*
X110424893Y-95786000D02*
X110329655Y-95833619D01*
X110329655Y-95833619D02*
X110091560Y-95833619D01*
X110091560Y-95833619D02*
X109996322Y-95786000D01*
X109996322Y-95786000D02*
X109948703Y-95738380D01*
X111996322Y-96214571D02*
X111948703Y-96166952D01*
X111948703Y-96166952D02*
X111853465Y-96024095D01*
X111853465Y-96024095D02*
X111805846Y-95928857D01*
X111805846Y-95928857D02*
X111758227Y-95786000D01*
X111758227Y-95786000D02*
X111710608Y-95547904D01*
X111710608Y-95547904D02*
X111710608Y-95357428D01*
X111710608Y-95357428D02*
X111758227Y-95119333D01*
X111758227Y-95119333D02*
X111805846Y-94976476D01*
X111805846Y-94976476D02*
X111853465Y-94881238D01*
X111853465Y-94881238D02*
X111948703Y-94738380D01*
X111948703Y-94738380D02*
X111996322Y-94690761D01*
X112282037Y-94833619D02*
X112901084Y-94833619D01*
X112901084Y-94833619D02*
X112567751Y-95214571D01*
X112567751Y-95214571D02*
X112710608Y-95214571D01*
X112710608Y-95214571D02*
X112805846Y-95262190D01*
X112805846Y-95262190D02*
X112853465Y-95309809D01*
X112853465Y-95309809D02*
X112901084Y-95405047D01*
X112901084Y-95405047D02*
X112901084Y-95643142D01*
X112901084Y-95643142D02*
X112853465Y-95738380D01*
X112853465Y-95738380D02*
X112805846Y-95786000D01*
X112805846Y-95786000D02*
X112710608Y-95833619D01*
X112710608Y-95833619D02*
X112424894Y-95833619D01*
X112424894Y-95833619D02*
X112329656Y-95786000D01*
X112329656Y-95786000D02*
X112282037Y-95738380D01*
X113234418Y-96214571D02*
X113282037Y-96166952D01*
X113282037Y-96166952D02*
X113377275Y-96024095D01*
X113377275Y-96024095D02*
X113424894Y-95928857D01*
X113424894Y-95928857D02*
X113472513Y-95786000D01*
X113472513Y-95786000D02*
X113520132Y-95547904D01*
X113520132Y-95547904D02*
X113520132Y-95357428D01*
X113520132Y-95357428D02*
X113472513Y-95119333D01*
X113472513Y-95119333D02*
X113424894Y-94976476D01*
X113424894Y-94976476D02*
X113377275Y-94881238D01*
X113377275Y-94881238D02*
X113282037Y-94738380D01*
X113282037Y-94738380D02*
X113234418Y-94690761D01*
X121830112Y-93090419D02*
X121496779Y-92614228D01*
X121258684Y-93090419D02*
X121258684Y-92090419D01*
X121258684Y-92090419D02*
X121639636Y-92090419D01*
X121639636Y-92090419D02*
X121734874Y-92138038D01*
X121734874Y-92138038D02*
X121782493Y-92185657D01*
X121782493Y-92185657D02*
X121830112Y-92280895D01*
X121830112Y-92280895D02*
X121830112Y-92423752D01*
X121830112Y-92423752D02*
X121782493Y-92518990D01*
X121782493Y-92518990D02*
X121734874Y-92566609D01*
X121734874Y-92566609D02*
X121639636Y-92614228D01*
X121639636Y-92614228D02*
X121258684Y-92614228D01*
X122211065Y-93042800D02*
X122353922Y-93090419D01*
X122353922Y-93090419D02*
X122592017Y-93090419D01*
X122592017Y-93090419D02*
X122687255Y-93042800D01*
X122687255Y-93042800D02*
X122734874Y-92995180D01*
X122734874Y-92995180D02*
X122782493Y-92899942D01*
X122782493Y-92899942D02*
X122782493Y-92804704D01*
X122782493Y-92804704D02*
X122734874Y-92709466D01*
X122734874Y-92709466D02*
X122687255Y-92661847D01*
X122687255Y-92661847D02*
X122592017Y-92614228D01*
X122592017Y-92614228D02*
X122401541Y-92566609D01*
X122401541Y-92566609D02*
X122306303Y-92518990D01*
X122306303Y-92518990D02*
X122258684Y-92471371D01*
X122258684Y-92471371D02*
X122211065Y-92376133D01*
X122211065Y-92376133D02*
X122211065Y-92280895D01*
X122211065Y-92280895D02*
X122258684Y-92185657D01*
X122258684Y-92185657D02*
X122306303Y-92138038D01*
X122306303Y-92138038D02*
X122401541Y-92090419D01*
X122401541Y-92090419D02*
X122639636Y-92090419D01*
X122639636Y-92090419D02*
X122782493Y-92138038D01*
X123211065Y-92709466D02*
X123972970Y-92709466D01*
X124877731Y-92423752D02*
X124877731Y-93090419D01*
X124639636Y-92042800D02*
X124401541Y-92757085D01*
X124401541Y-92757085D02*
X125020588Y-92757085D01*
X125544398Y-92518990D02*
X125449160Y-92471371D01*
X125449160Y-92471371D02*
X125401541Y-92423752D01*
X125401541Y-92423752D02*
X125353922Y-92328514D01*
X125353922Y-92328514D02*
X125353922Y-92280895D01*
X125353922Y-92280895D02*
X125401541Y-92185657D01*
X125401541Y-92185657D02*
X125449160Y-92138038D01*
X125449160Y-92138038D02*
X125544398Y-92090419D01*
X125544398Y-92090419D02*
X125734874Y-92090419D01*
X125734874Y-92090419D02*
X125830112Y-92138038D01*
X125830112Y-92138038D02*
X125877731Y-92185657D01*
X125877731Y-92185657D02*
X125925350Y-92280895D01*
X125925350Y-92280895D02*
X125925350Y-92328514D01*
X125925350Y-92328514D02*
X125877731Y-92423752D01*
X125877731Y-92423752D02*
X125830112Y-92471371D01*
X125830112Y-92471371D02*
X125734874Y-92518990D01*
X125734874Y-92518990D02*
X125544398Y-92518990D01*
X125544398Y-92518990D02*
X125449160Y-92566609D01*
X125449160Y-92566609D02*
X125401541Y-92614228D01*
X125401541Y-92614228D02*
X125353922Y-92709466D01*
X125353922Y-92709466D02*
X125353922Y-92899942D01*
X125353922Y-92899942D02*
X125401541Y-92995180D01*
X125401541Y-92995180D02*
X125449160Y-93042800D01*
X125449160Y-93042800D02*
X125544398Y-93090419D01*
X125544398Y-93090419D02*
X125734874Y-93090419D01*
X125734874Y-93090419D02*
X125830112Y-93042800D01*
X125830112Y-93042800D02*
X125877731Y-92995180D01*
X125877731Y-92995180D02*
X125925350Y-92899942D01*
X125925350Y-92899942D02*
X125925350Y-92709466D01*
X125925350Y-92709466D02*
X125877731Y-92614228D01*
X125877731Y-92614228D02*
X125830112Y-92566609D01*
X125830112Y-92566609D02*
X125734874Y-92518990D01*
X126830112Y-92090419D02*
X126353922Y-92090419D01*
X126353922Y-92090419D02*
X126306303Y-92566609D01*
X126306303Y-92566609D02*
X126353922Y-92518990D01*
X126353922Y-92518990D02*
X126449160Y-92471371D01*
X126449160Y-92471371D02*
X126687255Y-92471371D01*
X126687255Y-92471371D02*
X126782493Y-92518990D01*
X126782493Y-92518990D02*
X126830112Y-92566609D01*
X126830112Y-92566609D02*
X126877731Y-92661847D01*
X126877731Y-92661847D02*
X126877731Y-92899942D01*
X126877731Y-92899942D02*
X126830112Y-92995180D01*
X126830112Y-92995180D02*
X126782493Y-93042800D01*
X126782493Y-93042800D02*
X126687255Y-93090419D01*
X126687255Y-93090419D02*
X126449160Y-93090419D01*
X126449160Y-93090419D02*
X126353922Y-93042800D01*
X126353922Y-93042800D02*
X126306303Y-92995180D01*
X128353922Y-93471371D02*
X128306303Y-93423752D01*
X128306303Y-93423752D02*
X128211065Y-93280895D01*
X128211065Y-93280895D02*
X128163446Y-93185657D01*
X128163446Y-93185657D02*
X128115827Y-93042800D01*
X128115827Y-93042800D02*
X128068208Y-92804704D01*
X128068208Y-92804704D02*
X128068208Y-92614228D01*
X128068208Y-92614228D02*
X128115827Y-92376133D01*
X128115827Y-92376133D02*
X128163446Y-92233276D01*
X128163446Y-92233276D02*
X128211065Y-92138038D01*
X128211065Y-92138038D02*
X128306303Y-91995180D01*
X128306303Y-91995180D02*
X128353922Y-91947561D01*
X128687256Y-92185657D02*
X128734875Y-92138038D01*
X128734875Y-92138038D02*
X128830113Y-92090419D01*
X128830113Y-92090419D02*
X129068208Y-92090419D01*
X129068208Y-92090419D02*
X129163446Y-92138038D01*
X129163446Y-92138038D02*
X129211065Y-92185657D01*
X129211065Y-92185657D02*
X129258684Y-92280895D01*
X129258684Y-92280895D02*
X129258684Y-92376133D01*
X129258684Y-92376133D02*
X129211065Y-92518990D01*
X129211065Y-92518990D02*
X128639637Y-93090419D01*
X128639637Y-93090419D02*
X129258684Y-93090419D01*
X129592018Y-93471371D02*
X129639637Y-93423752D01*
X129639637Y-93423752D02*
X129734875Y-93280895D01*
X129734875Y-93280895D02*
X129782494Y-93185657D01*
X129782494Y-93185657D02*
X129830113Y-93042800D01*
X129830113Y-93042800D02*
X129877732Y-92804704D01*
X129877732Y-92804704D02*
X129877732Y-92614228D01*
X129877732Y-92614228D02*
X129830113Y-92376133D01*
X129830113Y-92376133D02*
X129782494Y-92233276D01*
X129782494Y-92233276D02*
X129734875Y-92138038D01*
X129734875Y-92138038D02*
X129639637Y-91995180D01*
X129639637Y-91995180D02*
X129592018Y-91947561D01*
X135241312Y-90753619D02*
X134907979Y-90277428D01*
X134669884Y-90753619D02*
X134669884Y-89753619D01*
X134669884Y-89753619D02*
X135050836Y-89753619D01*
X135050836Y-89753619D02*
X135146074Y-89801238D01*
X135146074Y-89801238D02*
X135193693Y-89848857D01*
X135193693Y-89848857D02*
X135241312Y-89944095D01*
X135241312Y-89944095D02*
X135241312Y-90086952D01*
X135241312Y-90086952D02*
X135193693Y-90182190D01*
X135193693Y-90182190D02*
X135146074Y-90229809D01*
X135146074Y-90229809D02*
X135050836Y-90277428D01*
X135050836Y-90277428D02*
X134669884Y-90277428D01*
X135622265Y-90706000D02*
X135765122Y-90753619D01*
X135765122Y-90753619D02*
X136003217Y-90753619D01*
X136003217Y-90753619D02*
X136098455Y-90706000D01*
X136098455Y-90706000D02*
X136146074Y-90658380D01*
X136146074Y-90658380D02*
X136193693Y-90563142D01*
X136193693Y-90563142D02*
X136193693Y-90467904D01*
X136193693Y-90467904D02*
X136146074Y-90372666D01*
X136146074Y-90372666D02*
X136098455Y-90325047D01*
X136098455Y-90325047D02*
X136003217Y-90277428D01*
X136003217Y-90277428D02*
X135812741Y-90229809D01*
X135812741Y-90229809D02*
X135717503Y-90182190D01*
X135717503Y-90182190D02*
X135669884Y-90134571D01*
X135669884Y-90134571D02*
X135622265Y-90039333D01*
X135622265Y-90039333D02*
X135622265Y-89944095D01*
X135622265Y-89944095D02*
X135669884Y-89848857D01*
X135669884Y-89848857D02*
X135717503Y-89801238D01*
X135717503Y-89801238D02*
X135812741Y-89753619D01*
X135812741Y-89753619D02*
X136050836Y-89753619D01*
X136050836Y-89753619D02*
X136193693Y-89801238D01*
X136622265Y-90372666D02*
X137384170Y-90372666D01*
X138288931Y-90086952D02*
X138288931Y-90753619D01*
X138050836Y-89706000D02*
X137812741Y-90420285D01*
X137812741Y-90420285D02*
X138431788Y-90420285D01*
X138955598Y-90182190D02*
X138860360Y-90134571D01*
X138860360Y-90134571D02*
X138812741Y-90086952D01*
X138812741Y-90086952D02*
X138765122Y-89991714D01*
X138765122Y-89991714D02*
X138765122Y-89944095D01*
X138765122Y-89944095D02*
X138812741Y-89848857D01*
X138812741Y-89848857D02*
X138860360Y-89801238D01*
X138860360Y-89801238D02*
X138955598Y-89753619D01*
X138955598Y-89753619D02*
X139146074Y-89753619D01*
X139146074Y-89753619D02*
X139241312Y-89801238D01*
X139241312Y-89801238D02*
X139288931Y-89848857D01*
X139288931Y-89848857D02*
X139336550Y-89944095D01*
X139336550Y-89944095D02*
X139336550Y-89991714D01*
X139336550Y-89991714D02*
X139288931Y-90086952D01*
X139288931Y-90086952D02*
X139241312Y-90134571D01*
X139241312Y-90134571D02*
X139146074Y-90182190D01*
X139146074Y-90182190D02*
X138955598Y-90182190D01*
X138955598Y-90182190D02*
X138860360Y-90229809D01*
X138860360Y-90229809D02*
X138812741Y-90277428D01*
X138812741Y-90277428D02*
X138765122Y-90372666D01*
X138765122Y-90372666D02*
X138765122Y-90563142D01*
X138765122Y-90563142D02*
X138812741Y-90658380D01*
X138812741Y-90658380D02*
X138860360Y-90706000D01*
X138860360Y-90706000D02*
X138955598Y-90753619D01*
X138955598Y-90753619D02*
X139146074Y-90753619D01*
X139146074Y-90753619D02*
X139241312Y-90706000D01*
X139241312Y-90706000D02*
X139288931Y-90658380D01*
X139288931Y-90658380D02*
X139336550Y-90563142D01*
X139336550Y-90563142D02*
X139336550Y-90372666D01*
X139336550Y-90372666D02*
X139288931Y-90277428D01*
X139288931Y-90277428D02*
X139241312Y-90229809D01*
X139241312Y-90229809D02*
X139146074Y-90182190D01*
X140241312Y-89753619D02*
X139765122Y-89753619D01*
X139765122Y-89753619D02*
X139717503Y-90229809D01*
X139717503Y-90229809D02*
X139765122Y-90182190D01*
X139765122Y-90182190D02*
X139860360Y-90134571D01*
X139860360Y-90134571D02*
X140098455Y-90134571D01*
X140098455Y-90134571D02*
X140193693Y-90182190D01*
X140193693Y-90182190D02*
X140241312Y-90229809D01*
X140241312Y-90229809D02*
X140288931Y-90325047D01*
X140288931Y-90325047D02*
X140288931Y-90563142D01*
X140288931Y-90563142D02*
X140241312Y-90658380D01*
X140241312Y-90658380D02*
X140193693Y-90706000D01*
X140193693Y-90706000D02*
X140098455Y-90753619D01*
X140098455Y-90753619D02*
X139860360Y-90753619D01*
X139860360Y-90753619D02*
X139765122Y-90706000D01*
X139765122Y-90706000D02*
X139717503Y-90658380D01*
X141765122Y-91134571D02*
X141717503Y-91086952D01*
X141717503Y-91086952D02*
X141622265Y-90944095D01*
X141622265Y-90944095D02*
X141574646Y-90848857D01*
X141574646Y-90848857D02*
X141527027Y-90706000D01*
X141527027Y-90706000D02*
X141479408Y-90467904D01*
X141479408Y-90467904D02*
X141479408Y-90277428D01*
X141479408Y-90277428D02*
X141527027Y-90039333D01*
X141527027Y-90039333D02*
X141574646Y-89896476D01*
X141574646Y-89896476D02*
X141622265Y-89801238D01*
X141622265Y-89801238D02*
X141717503Y-89658380D01*
X141717503Y-89658380D02*
X141765122Y-89610761D01*
X142669884Y-90753619D02*
X142098456Y-90753619D01*
X142384170Y-90753619D02*
X142384170Y-89753619D01*
X142384170Y-89753619D02*
X142288932Y-89896476D01*
X142288932Y-89896476D02*
X142193694Y-89991714D01*
X142193694Y-89991714D02*
X142098456Y-90039333D01*
X143003218Y-91134571D02*
X143050837Y-91086952D01*
X143050837Y-91086952D02*
X143146075Y-90944095D01*
X143146075Y-90944095D02*
X143193694Y-90848857D01*
X143193694Y-90848857D02*
X143241313Y-90706000D01*
X143241313Y-90706000D02*
X143288932Y-90467904D01*
X143288932Y-90467904D02*
X143288932Y-90277428D01*
X143288932Y-90277428D02*
X143241313Y-90039333D01*
X143241313Y-90039333D02*
X143193694Y-89896476D01*
X143193694Y-89896476D02*
X143146075Y-89801238D01*
X143146075Y-89801238D02*
X143050837Y-89658380D01*
X143050837Y-89658380D02*
X143003218Y-89610761D01*
X84685865Y-91823600D02*
X84828722Y-91871219D01*
X84828722Y-91871219D02*
X85066817Y-91871219D01*
X85066817Y-91871219D02*
X85162055Y-91823600D01*
X85162055Y-91823600D02*
X85209674Y-91775980D01*
X85209674Y-91775980D02*
X85257293Y-91680742D01*
X85257293Y-91680742D02*
X85257293Y-91585504D01*
X85257293Y-91585504D02*
X85209674Y-91490266D01*
X85209674Y-91490266D02*
X85162055Y-91442647D01*
X85162055Y-91442647D02*
X85066817Y-91395028D01*
X85066817Y-91395028D02*
X84876341Y-91347409D01*
X84876341Y-91347409D02*
X84781103Y-91299790D01*
X84781103Y-91299790D02*
X84733484Y-91252171D01*
X84733484Y-91252171D02*
X84685865Y-91156933D01*
X84685865Y-91156933D02*
X84685865Y-91061695D01*
X84685865Y-91061695D02*
X84733484Y-90966457D01*
X84733484Y-90966457D02*
X84781103Y-90918838D01*
X84781103Y-90918838D02*
X84876341Y-90871219D01*
X84876341Y-90871219D02*
X85114436Y-90871219D01*
X85114436Y-90871219D02*
X85257293Y-90918838D01*
X85638246Y-91823600D02*
X85781103Y-91871219D01*
X85781103Y-91871219D02*
X86019198Y-91871219D01*
X86019198Y-91871219D02*
X86114436Y-91823600D01*
X86114436Y-91823600D02*
X86162055Y-91775980D01*
X86162055Y-91775980D02*
X86209674Y-91680742D01*
X86209674Y-91680742D02*
X86209674Y-91585504D01*
X86209674Y-91585504D02*
X86162055Y-91490266D01*
X86162055Y-91490266D02*
X86114436Y-91442647D01*
X86114436Y-91442647D02*
X86019198Y-91395028D01*
X86019198Y-91395028D02*
X85828722Y-91347409D01*
X85828722Y-91347409D02*
X85733484Y-91299790D01*
X85733484Y-91299790D02*
X85685865Y-91252171D01*
X85685865Y-91252171D02*
X85638246Y-91156933D01*
X85638246Y-91156933D02*
X85638246Y-91061695D01*
X85638246Y-91061695D02*
X85685865Y-90966457D01*
X85685865Y-90966457D02*
X85733484Y-90918838D01*
X85733484Y-90918838D02*
X85828722Y-90871219D01*
X85828722Y-90871219D02*
X86066817Y-90871219D01*
X86066817Y-90871219D02*
X86209674Y-90918838D01*
X86638246Y-91871219D02*
X86638246Y-90871219D01*
X87828721Y-90823600D02*
X86971579Y-92109314D01*
X88733483Y-91871219D02*
X88400150Y-91395028D01*
X88162055Y-91871219D02*
X88162055Y-90871219D01*
X88162055Y-90871219D02*
X88543007Y-90871219D01*
X88543007Y-90871219D02*
X88638245Y-90918838D01*
X88638245Y-90918838D02*
X88685864Y-90966457D01*
X88685864Y-90966457D02*
X88733483Y-91061695D01*
X88733483Y-91061695D02*
X88733483Y-91204552D01*
X88733483Y-91204552D02*
X88685864Y-91299790D01*
X88685864Y-91299790D02*
X88638245Y-91347409D01*
X88638245Y-91347409D02*
X88543007Y-91395028D01*
X88543007Y-91395028D02*
X88162055Y-91395028D01*
X89114436Y-91823600D02*
X89257293Y-91871219D01*
X89257293Y-91871219D02*
X89495388Y-91871219D01*
X89495388Y-91871219D02*
X89590626Y-91823600D01*
X89590626Y-91823600D02*
X89638245Y-91775980D01*
X89638245Y-91775980D02*
X89685864Y-91680742D01*
X89685864Y-91680742D02*
X89685864Y-91585504D01*
X89685864Y-91585504D02*
X89638245Y-91490266D01*
X89638245Y-91490266D02*
X89590626Y-91442647D01*
X89590626Y-91442647D02*
X89495388Y-91395028D01*
X89495388Y-91395028D02*
X89304912Y-91347409D01*
X89304912Y-91347409D02*
X89209674Y-91299790D01*
X89209674Y-91299790D02*
X89162055Y-91252171D01*
X89162055Y-91252171D02*
X89114436Y-91156933D01*
X89114436Y-91156933D02*
X89114436Y-91061695D01*
X89114436Y-91061695D02*
X89162055Y-90966457D01*
X89162055Y-90966457D02*
X89209674Y-90918838D01*
X89209674Y-90918838D02*
X89304912Y-90871219D01*
X89304912Y-90871219D02*
X89543007Y-90871219D01*
X89543007Y-90871219D02*
X89685864Y-90918838D01*
X90114436Y-91490266D02*
X90876341Y-91490266D01*
X91781102Y-91204552D02*
X91781102Y-91871219D01*
X91543007Y-90823600D02*
X91304912Y-91537885D01*
X91304912Y-91537885D02*
X91923959Y-91537885D01*
X92257293Y-90966457D02*
X92304912Y-90918838D01*
X92304912Y-90918838D02*
X92400150Y-90871219D01*
X92400150Y-90871219D02*
X92638245Y-90871219D01*
X92638245Y-90871219D02*
X92733483Y-90918838D01*
X92733483Y-90918838D02*
X92781102Y-90966457D01*
X92781102Y-90966457D02*
X92828721Y-91061695D01*
X92828721Y-91061695D02*
X92828721Y-91156933D01*
X92828721Y-91156933D02*
X92781102Y-91299790D01*
X92781102Y-91299790D02*
X92209674Y-91871219D01*
X92209674Y-91871219D02*
X92828721Y-91871219D01*
X93209674Y-90966457D02*
X93257293Y-90918838D01*
X93257293Y-90918838D02*
X93352531Y-90871219D01*
X93352531Y-90871219D02*
X93590626Y-90871219D01*
X93590626Y-90871219D02*
X93685864Y-90918838D01*
X93685864Y-90918838D02*
X93733483Y-90966457D01*
X93733483Y-90966457D02*
X93781102Y-91061695D01*
X93781102Y-91061695D02*
X93781102Y-91156933D01*
X93781102Y-91156933D02*
X93733483Y-91299790D01*
X93733483Y-91299790D02*
X93162055Y-91871219D01*
X93162055Y-91871219D02*
X93781102Y-91871219D01*
X102338285Y-51500875D02*
X102004952Y-51024684D01*
X101766857Y-51500875D02*
X101766857Y-50500875D01*
X101766857Y-50500875D02*
X102147809Y-50500875D01*
X102147809Y-50500875D02*
X102243047Y-50548494D01*
X102243047Y-50548494D02*
X102290666Y-50596113D01*
X102290666Y-50596113D02*
X102338285Y-50691351D01*
X102338285Y-50691351D02*
X102338285Y-50834208D01*
X102338285Y-50834208D02*
X102290666Y-50929446D01*
X102290666Y-50929446D02*
X102243047Y-50977065D01*
X102243047Y-50977065D02*
X102147809Y-51024684D01*
X102147809Y-51024684D02*
X101766857Y-51024684D01*
X102719238Y-51453256D02*
X102862095Y-51500875D01*
X102862095Y-51500875D02*
X103100190Y-51500875D01*
X103100190Y-51500875D02*
X103195428Y-51453256D01*
X103195428Y-51453256D02*
X103243047Y-51405636D01*
X103243047Y-51405636D02*
X103290666Y-51310398D01*
X103290666Y-51310398D02*
X103290666Y-51215160D01*
X103290666Y-51215160D02*
X103243047Y-51119922D01*
X103243047Y-51119922D02*
X103195428Y-51072303D01*
X103195428Y-51072303D02*
X103100190Y-51024684D01*
X103100190Y-51024684D02*
X102909714Y-50977065D01*
X102909714Y-50977065D02*
X102814476Y-50929446D01*
X102814476Y-50929446D02*
X102766857Y-50881827D01*
X102766857Y-50881827D02*
X102719238Y-50786589D01*
X102719238Y-50786589D02*
X102719238Y-50691351D01*
X102719238Y-50691351D02*
X102766857Y-50596113D01*
X102766857Y-50596113D02*
X102814476Y-50548494D01*
X102814476Y-50548494D02*
X102909714Y-50500875D01*
X102909714Y-50500875D02*
X103147809Y-50500875D01*
X103147809Y-50500875D02*
X103290666Y-50548494D01*
X103719238Y-51119922D02*
X104481143Y-51119922D01*
X101885905Y-52206057D02*
X101933524Y-52158438D01*
X101933524Y-52158438D02*
X102028762Y-52110819D01*
X102028762Y-52110819D02*
X102266857Y-52110819D01*
X102266857Y-52110819D02*
X102362095Y-52158438D01*
X102362095Y-52158438D02*
X102409714Y-52206057D01*
X102409714Y-52206057D02*
X102457333Y-52301295D01*
X102457333Y-52301295D02*
X102457333Y-52396533D01*
X102457333Y-52396533D02*
X102409714Y-52539390D01*
X102409714Y-52539390D02*
X101838286Y-53110819D01*
X101838286Y-53110819D02*
X102457333Y-53110819D01*
X102790667Y-52110819D02*
X103409714Y-52110819D01*
X103409714Y-52110819D02*
X103076381Y-52491771D01*
X103076381Y-52491771D02*
X103219238Y-52491771D01*
X103219238Y-52491771D02*
X103314476Y-52539390D01*
X103314476Y-52539390D02*
X103362095Y-52587009D01*
X103362095Y-52587009D02*
X103409714Y-52682247D01*
X103409714Y-52682247D02*
X103409714Y-52920342D01*
X103409714Y-52920342D02*
X103362095Y-53015580D01*
X103362095Y-53015580D02*
X103314476Y-53063200D01*
X103314476Y-53063200D02*
X103219238Y-53110819D01*
X103219238Y-53110819D02*
X102933524Y-53110819D01*
X102933524Y-53110819D02*
X102838286Y-53063200D01*
X102838286Y-53063200D02*
X102790667Y-53015580D01*
X103790667Y-52206057D02*
X103838286Y-52158438D01*
X103838286Y-52158438D02*
X103933524Y-52110819D01*
X103933524Y-52110819D02*
X104171619Y-52110819D01*
X104171619Y-52110819D02*
X104266857Y-52158438D01*
X104266857Y-52158438D02*
X104314476Y-52206057D01*
X104314476Y-52206057D02*
X104362095Y-52301295D01*
X104362095Y-52301295D02*
X104362095Y-52396533D01*
X104362095Y-52396533D02*
X104314476Y-52539390D01*
X104314476Y-52539390D02*
X103743048Y-53110819D01*
X103743048Y-53110819D02*
X104362095Y-53110819D01*
X98766912Y-52913980D02*
X98719293Y-52961600D01*
X98719293Y-52961600D02*
X98576436Y-53009219D01*
X98576436Y-53009219D02*
X98481198Y-53009219D01*
X98481198Y-53009219D02*
X98338341Y-52961600D01*
X98338341Y-52961600D02*
X98243103Y-52866361D01*
X98243103Y-52866361D02*
X98195484Y-52771123D01*
X98195484Y-52771123D02*
X98147865Y-52580647D01*
X98147865Y-52580647D02*
X98147865Y-52437790D01*
X98147865Y-52437790D02*
X98195484Y-52247314D01*
X98195484Y-52247314D02*
X98243103Y-52152076D01*
X98243103Y-52152076D02*
X98338341Y-52056838D01*
X98338341Y-52056838D02*
X98481198Y-52009219D01*
X98481198Y-52009219D02*
X98576436Y-52009219D01*
X98576436Y-52009219D02*
X98719293Y-52056838D01*
X98719293Y-52056838D02*
X98766912Y-52104457D01*
X99147865Y-52723504D02*
X99624055Y-52723504D01*
X99052627Y-53009219D02*
X99385960Y-52009219D01*
X99385960Y-52009219D02*
X99719293Y-53009219D01*
X100052627Y-53009219D02*
X100052627Y-52009219D01*
X100052627Y-52009219D02*
X100624055Y-53009219D01*
X100624055Y-53009219D02*
X100624055Y-52009219D01*
X128335693Y-75374038D02*
X128240455Y-75326419D01*
X128240455Y-75326419D02*
X128097598Y-75326419D01*
X128097598Y-75326419D02*
X127954741Y-75374038D01*
X127954741Y-75374038D02*
X127859503Y-75469276D01*
X127859503Y-75469276D02*
X127811884Y-75564514D01*
X127811884Y-75564514D02*
X127764265Y-75754990D01*
X127764265Y-75754990D02*
X127764265Y-75897847D01*
X127764265Y-75897847D02*
X127811884Y-76088323D01*
X127811884Y-76088323D02*
X127859503Y-76183561D01*
X127859503Y-76183561D02*
X127954741Y-76278800D01*
X127954741Y-76278800D02*
X128097598Y-76326419D01*
X128097598Y-76326419D02*
X128192836Y-76326419D01*
X128192836Y-76326419D02*
X128335693Y-76278800D01*
X128335693Y-76278800D02*
X128383312Y-76231180D01*
X128383312Y-76231180D02*
X128383312Y-75897847D01*
X128383312Y-75897847D02*
X128192836Y-75897847D01*
X128811884Y-75659752D02*
X128811884Y-76326419D01*
X128811884Y-75754990D02*
X128859503Y-75707371D01*
X128859503Y-75707371D02*
X128954741Y-75659752D01*
X128954741Y-75659752D02*
X129097598Y-75659752D01*
X129097598Y-75659752D02*
X129192836Y-75707371D01*
X129192836Y-75707371D02*
X129240455Y-75802609D01*
X129240455Y-75802609D02*
X129240455Y-76326419D01*
X130145217Y-76326419D02*
X130145217Y-75326419D01*
X130145217Y-76278800D02*
X130049979Y-76326419D01*
X130049979Y-76326419D02*
X129859503Y-76326419D01*
X129859503Y-76326419D02*
X129764265Y-76278800D01*
X129764265Y-76278800D02*
X129716646Y-76231180D01*
X129716646Y-76231180D02*
X129669027Y-76135942D01*
X129669027Y-76135942D02*
X129669027Y-75850228D01*
X129669027Y-75850228D02*
X129716646Y-75754990D01*
X129716646Y-75754990D02*
X129764265Y-75707371D01*
X129764265Y-75707371D02*
X129859503Y-75659752D01*
X129859503Y-75659752D02*
X130049979Y-75659752D01*
X130049979Y-75659752D02*
X130145217Y-75707371D01*
X128796074Y-64455219D02*
X128319884Y-64455219D01*
X128319884Y-64455219D02*
X128272265Y-64931409D01*
X128272265Y-64931409D02*
X128319884Y-64883790D01*
X128319884Y-64883790D02*
X128415122Y-64836171D01*
X128415122Y-64836171D02*
X128653217Y-64836171D01*
X128653217Y-64836171D02*
X128748455Y-64883790D01*
X128748455Y-64883790D02*
X128796074Y-64931409D01*
X128796074Y-64931409D02*
X128843693Y-65026647D01*
X128843693Y-65026647D02*
X128843693Y-65264742D01*
X128843693Y-65264742D02*
X128796074Y-65359980D01*
X128796074Y-65359980D02*
X128748455Y-65407600D01*
X128748455Y-65407600D02*
X128653217Y-65455219D01*
X128653217Y-65455219D02*
X128415122Y-65455219D01*
X128415122Y-65455219D02*
X128319884Y-65407600D01*
X128319884Y-65407600D02*
X128272265Y-65359980D01*
X129129408Y-64455219D02*
X129462741Y-65455219D01*
X129462741Y-65455219D02*
X129796074Y-64455219D01*
X121366646Y-69738419D02*
X121985693Y-69738419D01*
X121985693Y-69738419D02*
X121652360Y-70119371D01*
X121652360Y-70119371D02*
X121795217Y-70119371D01*
X121795217Y-70119371D02*
X121890455Y-70166990D01*
X121890455Y-70166990D02*
X121938074Y-70214609D01*
X121938074Y-70214609D02*
X121985693Y-70309847D01*
X121985693Y-70309847D02*
X121985693Y-70547942D01*
X121985693Y-70547942D02*
X121938074Y-70643180D01*
X121938074Y-70643180D02*
X121890455Y-70690800D01*
X121890455Y-70690800D02*
X121795217Y-70738419D01*
X121795217Y-70738419D02*
X121509503Y-70738419D01*
X121509503Y-70738419D02*
X121414265Y-70690800D01*
X121414265Y-70690800D02*
X121366646Y-70643180D01*
X122271408Y-69738419D02*
X122604741Y-70738419D01*
X122604741Y-70738419D02*
X122938074Y-69738419D01*
X123176170Y-69738419D02*
X123795217Y-69738419D01*
X123795217Y-69738419D02*
X123461884Y-70119371D01*
X123461884Y-70119371D02*
X123604741Y-70119371D01*
X123604741Y-70119371D02*
X123699979Y-70166990D01*
X123699979Y-70166990D02*
X123747598Y-70214609D01*
X123747598Y-70214609D02*
X123795217Y-70309847D01*
X123795217Y-70309847D02*
X123795217Y-70547942D01*
X123795217Y-70547942D02*
X123747598Y-70643180D01*
X123747598Y-70643180D02*
X123699979Y-70690800D01*
X123699979Y-70690800D02*
X123604741Y-70738419D01*
X123604741Y-70738419D02*
X123319027Y-70738419D01*
X123319027Y-70738419D02*
X123223789Y-70690800D01*
X123223789Y-70690800D02*
X123176170Y-70643180D01*
D11*
X107797695Y-74943619D02*
X107797695Y-75753142D01*
X107797695Y-75753142D02*
X107845314Y-75848380D01*
X107845314Y-75848380D02*
X107892933Y-75896000D01*
X107892933Y-75896000D02*
X107988171Y-75943619D01*
X107988171Y-75943619D02*
X108178647Y-75943619D01*
X108178647Y-75943619D02*
X108273885Y-75896000D01*
X108273885Y-75896000D02*
X108321504Y-75848380D01*
X108321504Y-75848380D02*
X108369123Y-75753142D01*
X108369123Y-75753142D02*
X108369123Y-74943619D01*
X109273885Y-74943619D02*
X109083409Y-74943619D01*
X109083409Y-74943619D02*
X108988171Y-74991238D01*
X108988171Y-74991238D02*
X108940552Y-75038857D01*
X108940552Y-75038857D02*
X108845314Y-75181714D01*
X108845314Y-75181714D02*
X108797695Y-75372190D01*
X108797695Y-75372190D02*
X108797695Y-75753142D01*
X108797695Y-75753142D02*
X108845314Y-75848380D01*
X108845314Y-75848380D02*
X108892933Y-75896000D01*
X108892933Y-75896000D02*
X108988171Y-75943619D01*
X108988171Y-75943619D02*
X109178647Y-75943619D01*
X109178647Y-75943619D02*
X109273885Y-75896000D01*
X109273885Y-75896000D02*
X109321504Y-75848380D01*
X109321504Y-75848380D02*
X109369123Y-75753142D01*
X109369123Y-75753142D02*
X109369123Y-75515047D01*
X109369123Y-75515047D02*
X109321504Y-75419809D01*
X109321504Y-75419809D02*
X109273885Y-75372190D01*
X109273885Y-75372190D02*
X109178647Y-75324571D01*
X109178647Y-75324571D02*
X108988171Y-75324571D01*
X108988171Y-75324571D02*
X108892933Y-75372190D01*
X108892933Y-75372190D02*
X108845314Y-75419809D01*
X108845314Y-75419809D02*
X108797695Y-75515047D01*
X126141495Y-43955619D02*
X126141495Y-44765142D01*
X126141495Y-44765142D02*
X126189114Y-44860380D01*
X126189114Y-44860380D02*
X126236733Y-44908000D01*
X126236733Y-44908000D02*
X126331971Y-44955619D01*
X126331971Y-44955619D02*
X126522447Y-44955619D01*
X126522447Y-44955619D02*
X126617685Y-44908000D01*
X126617685Y-44908000D02*
X126665304Y-44860380D01*
X126665304Y-44860380D02*
X126712923Y-44765142D01*
X126712923Y-44765142D02*
X126712923Y-43955619D01*
X127141495Y-44050857D02*
X127189114Y-44003238D01*
X127189114Y-44003238D02*
X127284352Y-43955619D01*
X127284352Y-43955619D02*
X127522447Y-43955619D01*
X127522447Y-43955619D02*
X127617685Y-44003238D01*
X127617685Y-44003238D02*
X127665304Y-44050857D01*
X127665304Y-44050857D02*
X127712923Y-44146095D01*
X127712923Y-44146095D02*
X127712923Y-44241333D01*
X127712923Y-44241333D02*
X127665304Y-44384190D01*
X127665304Y-44384190D02*
X127093876Y-44955619D01*
X127093876Y-44955619D02*
X127712923Y-44955619D01*
X96977295Y-49950019D02*
X96977295Y-50759542D01*
X96977295Y-50759542D02*
X97024914Y-50854780D01*
X97024914Y-50854780D02*
X97072533Y-50902400D01*
X97072533Y-50902400D02*
X97167771Y-50950019D01*
X97167771Y-50950019D02*
X97358247Y-50950019D01*
X97358247Y-50950019D02*
X97453485Y-50902400D01*
X97453485Y-50902400D02*
X97501104Y-50854780D01*
X97501104Y-50854780D02*
X97548723Y-50759542D01*
X97548723Y-50759542D02*
X97548723Y-49950019D01*
X98548723Y-50950019D02*
X97977295Y-50950019D01*
X98263009Y-50950019D02*
X98263009Y-49950019D01*
X98263009Y-49950019D02*
X98167771Y-50092876D01*
X98167771Y-50092876D02*
X98072533Y-50188114D01*
X98072533Y-50188114D02*
X97977295Y-50235733D01*
X117398895Y-77979219D02*
X117398895Y-78788742D01*
X117398895Y-78788742D02*
X117446514Y-78883980D01*
X117446514Y-78883980D02*
X117494133Y-78931600D01*
X117494133Y-78931600D02*
X117589371Y-78979219D01*
X117589371Y-78979219D02*
X117779847Y-78979219D01*
X117779847Y-78979219D02*
X117875085Y-78931600D01*
X117875085Y-78931600D02*
X117922704Y-78883980D01*
X117922704Y-78883980D02*
X117970323Y-78788742D01*
X117970323Y-78788742D02*
X117970323Y-77979219D01*
X118922704Y-77979219D02*
X118446514Y-77979219D01*
X118446514Y-77979219D02*
X118398895Y-78455409D01*
X118398895Y-78455409D02*
X118446514Y-78407790D01*
X118446514Y-78407790D02*
X118541752Y-78360171D01*
X118541752Y-78360171D02*
X118779847Y-78360171D01*
X118779847Y-78360171D02*
X118875085Y-78407790D01*
X118875085Y-78407790D02*
X118922704Y-78455409D01*
X118922704Y-78455409D02*
X118970323Y-78550647D01*
X118970323Y-78550647D02*
X118970323Y-78788742D01*
X118970323Y-78788742D02*
X118922704Y-78883980D01*
X118922704Y-78883980D02*
X118875085Y-78931600D01*
X118875085Y-78931600D02*
X118779847Y-78979219D01*
X118779847Y-78979219D02*
X118541752Y-78979219D01*
X118541752Y-78979219D02*
X118446514Y-78931600D01*
X118446514Y-78931600D02*
X118398895Y-78883980D01*
X91389295Y-105576019D02*
X91389295Y-106385542D01*
X91389295Y-106385542D02*
X91436914Y-106480780D01*
X91436914Y-106480780D02*
X91484533Y-106528400D01*
X91484533Y-106528400D02*
X91579771Y-106576019D01*
X91579771Y-106576019D02*
X91770247Y-106576019D01*
X91770247Y-106576019D02*
X91865485Y-106528400D01*
X91865485Y-106528400D02*
X91913104Y-106480780D01*
X91913104Y-106480780D02*
X91960723Y-106385542D01*
X91960723Y-106385542D02*
X91960723Y-105576019D01*
X92341676Y-105576019D02*
X93008342Y-105576019D01*
X93008342Y-105576019D02*
X92579771Y-106576019D01*
X107848495Y-105525219D02*
X107848495Y-106334742D01*
X107848495Y-106334742D02*
X107896114Y-106429980D01*
X107896114Y-106429980D02*
X107943733Y-106477600D01*
X107943733Y-106477600D02*
X108038971Y-106525219D01*
X108038971Y-106525219D02*
X108229447Y-106525219D01*
X108229447Y-106525219D02*
X108324685Y-106477600D01*
X108324685Y-106477600D02*
X108372304Y-106429980D01*
X108372304Y-106429980D02*
X108419923Y-106334742D01*
X108419923Y-106334742D02*
X108419923Y-105525219D01*
X109038971Y-105953790D02*
X108943733Y-105906171D01*
X108943733Y-105906171D02*
X108896114Y-105858552D01*
X108896114Y-105858552D02*
X108848495Y-105763314D01*
X108848495Y-105763314D02*
X108848495Y-105715695D01*
X108848495Y-105715695D02*
X108896114Y-105620457D01*
X108896114Y-105620457D02*
X108943733Y-105572838D01*
X108943733Y-105572838D02*
X109038971Y-105525219D01*
X109038971Y-105525219D02*
X109229447Y-105525219D01*
X109229447Y-105525219D02*
X109324685Y-105572838D01*
X109324685Y-105572838D02*
X109372304Y-105620457D01*
X109372304Y-105620457D02*
X109419923Y-105715695D01*
X109419923Y-105715695D02*
X109419923Y-105763314D01*
X109419923Y-105763314D02*
X109372304Y-105858552D01*
X109372304Y-105858552D02*
X109324685Y-105906171D01*
X109324685Y-105906171D02*
X109229447Y-105953790D01*
X109229447Y-105953790D02*
X109038971Y-105953790D01*
X109038971Y-105953790D02*
X108943733Y-106001409D01*
X108943733Y-106001409D02*
X108896114Y-106049028D01*
X108896114Y-106049028D02*
X108848495Y-106144266D01*
X108848495Y-106144266D02*
X108848495Y-106334742D01*
X108848495Y-106334742D02*
X108896114Y-106429980D01*
X108896114Y-106429980D02*
X108943733Y-106477600D01*
X108943733Y-106477600D02*
X109038971Y-106525219D01*
X109038971Y-106525219D02*
X109229447Y-106525219D01*
X109229447Y-106525219D02*
X109324685Y-106477600D01*
X109324685Y-106477600D02*
X109372304Y-106429980D01*
X109372304Y-106429980D02*
X109419923Y-106334742D01*
X109419923Y-106334742D02*
X109419923Y-106144266D01*
X109419923Y-106144266D02*
X109372304Y-106049028D01*
X109372304Y-106049028D02*
X109324685Y-106001409D01*
X109324685Y-106001409D02*
X109229447Y-105953790D01*
X93370495Y-58636819D02*
X93370495Y-59446342D01*
X93370495Y-59446342D02*
X93418114Y-59541580D01*
X93418114Y-59541580D02*
X93465733Y-59589200D01*
X93465733Y-59589200D02*
X93560971Y-59636819D01*
X93560971Y-59636819D02*
X93751447Y-59636819D01*
X93751447Y-59636819D02*
X93846685Y-59589200D01*
X93846685Y-59589200D02*
X93894304Y-59541580D01*
X93894304Y-59541580D02*
X93941923Y-59446342D01*
X93941923Y-59446342D02*
X93941923Y-58636819D01*
X94322876Y-58636819D02*
X94941923Y-58636819D01*
X94941923Y-58636819D02*
X94608590Y-59017771D01*
X94608590Y-59017771D02*
X94751447Y-59017771D01*
X94751447Y-59017771D02*
X94846685Y-59065390D01*
X94846685Y-59065390D02*
X94894304Y-59113009D01*
X94894304Y-59113009D02*
X94941923Y-59208247D01*
X94941923Y-59208247D02*
X94941923Y-59446342D01*
X94941923Y-59446342D02*
X94894304Y-59541580D01*
X94894304Y-59541580D02*
X94846685Y-59589200D01*
X94846685Y-59589200D02*
X94751447Y-59636819D01*
X94751447Y-59636819D02*
X94465733Y-59636819D01*
X94465733Y-59636819D02*
X94370495Y-59589200D01*
X94370495Y-59589200D02*
X94322876Y-59541580D01*
X124206095Y-105525219D02*
X124206095Y-106334742D01*
X124206095Y-106334742D02*
X124253714Y-106429980D01*
X124253714Y-106429980D02*
X124301333Y-106477600D01*
X124301333Y-106477600D02*
X124396571Y-106525219D01*
X124396571Y-106525219D02*
X124587047Y-106525219D01*
X124587047Y-106525219D02*
X124682285Y-106477600D01*
X124682285Y-106477600D02*
X124729904Y-106429980D01*
X124729904Y-106429980D02*
X124777523Y-106334742D01*
X124777523Y-106334742D02*
X124777523Y-105525219D01*
X125301333Y-106525219D02*
X125491809Y-106525219D01*
X125491809Y-106525219D02*
X125587047Y-106477600D01*
X125587047Y-106477600D02*
X125634666Y-106429980D01*
X125634666Y-106429980D02*
X125729904Y-106287123D01*
X125729904Y-106287123D02*
X125777523Y-106096647D01*
X125777523Y-106096647D02*
X125777523Y-105715695D01*
X125777523Y-105715695D02*
X125729904Y-105620457D01*
X125729904Y-105620457D02*
X125682285Y-105572838D01*
X125682285Y-105572838D02*
X125587047Y-105525219D01*
X125587047Y-105525219D02*
X125396571Y-105525219D01*
X125396571Y-105525219D02*
X125301333Y-105572838D01*
X125301333Y-105572838D02*
X125253714Y-105620457D01*
X125253714Y-105620457D02*
X125206095Y-105715695D01*
X125206095Y-105715695D02*
X125206095Y-105953790D01*
X125206095Y-105953790D02*
X125253714Y-106049028D01*
X125253714Y-106049028D02*
X125301333Y-106096647D01*
X125301333Y-106096647D02*
X125396571Y-106144266D01*
X125396571Y-106144266D02*
X125587047Y-106144266D01*
X125587047Y-106144266D02*
X125682285Y-106096647D01*
X125682285Y-106096647D02*
X125729904Y-106049028D01*
X125729904Y-106049028D02*
X125777523Y-105953790D01*
X79779905Y-66190019D02*
X79779905Y-65190019D01*
X79779905Y-65190019D02*
X80018000Y-65190019D01*
X80018000Y-65190019D02*
X80160857Y-65237638D01*
X80160857Y-65237638D02*
X80256095Y-65332876D01*
X80256095Y-65332876D02*
X80303714Y-65428114D01*
X80303714Y-65428114D02*
X80351333Y-65618590D01*
X80351333Y-65618590D02*
X80351333Y-65761447D01*
X80351333Y-65761447D02*
X80303714Y-65951923D01*
X80303714Y-65951923D02*
X80256095Y-66047161D01*
X80256095Y-66047161D02*
X80160857Y-66142400D01*
X80160857Y-66142400D02*
X80018000Y-66190019D01*
X80018000Y-66190019D02*
X79779905Y-66190019D01*
X81208476Y-65190019D02*
X81018000Y-65190019D01*
X81018000Y-65190019D02*
X80922762Y-65237638D01*
X80922762Y-65237638D02*
X80875143Y-65285257D01*
X80875143Y-65285257D02*
X80779905Y-65428114D01*
X80779905Y-65428114D02*
X80732286Y-65618590D01*
X80732286Y-65618590D02*
X80732286Y-65999542D01*
X80732286Y-65999542D02*
X80779905Y-66094780D01*
X80779905Y-66094780D02*
X80827524Y-66142400D01*
X80827524Y-66142400D02*
X80922762Y-66190019D01*
X80922762Y-66190019D02*
X81113238Y-66190019D01*
X81113238Y-66190019D02*
X81208476Y-66142400D01*
X81208476Y-66142400D02*
X81256095Y-66094780D01*
X81256095Y-66094780D02*
X81303714Y-65999542D01*
X81303714Y-65999542D02*
X81303714Y-65761447D01*
X81303714Y-65761447D02*
X81256095Y-65666209D01*
X81256095Y-65666209D02*
X81208476Y-65618590D01*
X81208476Y-65618590D02*
X81113238Y-65570971D01*
X81113238Y-65570971D02*
X80922762Y-65570971D01*
X80922762Y-65570971D02*
X80827524Y-65618590D01*
X80827524Y-65618590D02*
X80779905Y-65666209D01*
X80779905Y-65666209D02*
X80732286Y-65761447D01*
X110799714Y-110792419D02*
X110799714Y-109792419D01*
X110799714Y-109792419D02*
X111037809Y-109792419D01*
X111037809Y-109792419D02*
X111180666Y-109840038D01*
X111180666Y-109840038D02*
X111275904Y-109935276D01*
X111275904Y-109935276D02*
X111323523Y-110030514D01*
X111323523Y-110030514D02*
X111371142Y-110220990D01*
X111371142Y-110220990D02*
X111371142Y-110363847D01*
X111371142Y-110363847D02*
X111323523Y-110554323D01*
X111323523Y-110554323D02*
X111275904Y-110649561D01*
X111275904Y-110649561D02*
X111180666Y-110744800D01*
X111180666Y-110744800D02*
X111037809Y-110792419D01*
X111037809Y-110792419D02*
X110799714Y-110792419D01*
X112323523Y-110792419D02*
X111752095Y-110792419D01*
X112037809Y-110792419D02*
X112037809Y-109792419D01*
X112037809Y-109792419D02*
X111942571Y-109935276D01*
X111942571Y-109935276D02*
X111847333Y-110030514D01*
X111847333Y-110030514D02*
X111752095Y-110078133D01*
X113275904Y-110792419D02*
X112704476Y-110792419D01*
X112990190Y-110792419D02*
X112990190Y-109792419D01*
X112990190Y-109792419D02*
X112894952Y-109935276D01*
X112894952Y-109935276D02*
X112799714Y-110030514D01*
X112799714Y-110030514D02*
X112704476Y-110078133D01*
X94086514Y-110745319D02*
X94086514Y-109745319D01*
X94086514Y-109745319D02*
X94324609Y-109745319D01*
X94324609Y-109745319D02*
X94467466Y-109792938D01*
X94467466Y-109792938D02*
X94562704Y-109888176D01*
X94562704Y-109888176D02*
X94610323Y-109983414D01*
X94610323Y-109983414D02*
X94657942Y-110173890D01*
X94657942Y-110173890D02*
X94657942Y-110316747D01*
X94657942Y-110316747D02*
X94610323Y-110507223D01*
X94610323Y-110507223D02*
X94562704Y-110602461D01*
X94562704Y-110602461D02*
X94467466Y-110697700D01*
X94467466Y-110697700D02*
X94324609Y-110745319D01*
X94324609Y-110745319D02*
X94086514Y-110745319D01*
X95610323Y-110745319D02*
X95038895Y-110745319D01*
X95324609Y-110745319D02*
X95324609Y-109745319D01*
X95324609Y-109745319D02*
X95229371Y-109888176D01*
X95229371Y-109888176D02*
X95134133Y-109983414D01*
X95134133Y-109983414D02*
X95038895Y-110031033D01*
X96229371Y-109745319D02*
X96324609Y-109745319D01*
X96324609Y-109745319D02*
X96419847Y-109792938D01*
X96419847Y-109792938D02*
X96467466Y-109840557D01*
X96467466Y-109840557D02*
X96515085Y-109935795D01*
X96515085Y-109935795D02*
X96562704Y-110126271D01*
X96562704Y-110126271D02*
X96562704Y-110364366D01*
X96562704Y-110364366D02*
X96515085Y-110554842D01*
X96515085Y-110554842D02*
X96467466Y-110650080D01*
X96467466Y-110650080D02*
X96419847Y-110697700D01*
X96419847Y-110697700D02*
X96324609Y-110745319D01*
X96324609Y-110745319D02*
X96229371Y-110745319D01*
X96229371Y-110745319D02*
X96134133Y-110697700D01*
X96134133Y-110697700D02*
X96086514Y-110650080D01*
X96086514Y-110650080D02*
X96038895Y-110554842D01*
X96038895Y-110554842D02*
X95991276Y-110364366D01*
X95991276Y-110364366D02*
X95991276Y-110126271D01*
X95991276Y-110126271D02*
X96038895Y-109935795D01*
X96038895Y-109935795D02*
X96086514Y-109840557D01*
X96086514Y-109840557D02*
X96134133Y-109792938D01*
X96134133Y-109792938D02*
X96229371Y-109745319D01*
X127208114Y-110792419D02*
X127208114Y-109792419D01*
X127208114Y-109792419D02*
X127446209Y-109792419D01*
X127446209Y-109792419D02*
X127589066Y-109840038D01*
X127589066Y-109840038D02*
X127684304Y-109935276D01*
X127684304Y-109935276D02*
X127731923Y-110030514D01*
X127731923Y-110030514D02*
X127779542Y-110220990D01*
X127779542Y-110220990D02*
X127779542Y-110363847D01*
X127779542Y-110363847D02*
X127731923Y-110554323D01*
X127731923Y-110554323D02*
X127684304Y-110649561D01*
X127684304Y-110649561D02*
X127589066Y-110744800D01*
X127589066Y-110744800D02*
X127446209Y-110792419D01*
X127446209Y-110792419D02*
X127208114Y-110792419D01*
X128731923Y-110792419D02*
X128160495Y-110792419D01*
X128446209Y-110792419D02*
X128446209Y-109792419D01*
X128446209Y-109792419D02*
X128350971Y-109935276D01*
X128350971Y-109935276D02*
X128255733Y-110030514D01*
X128255733Y-110030514D02*
X128160495Y-110078133D01*
X129112876Y-109887657D02*
X129160495Y-109840038D01*
X129160495Y-109840038D02*
X129255733Y-109792419D01*
X129255733Y-109792419D02*
X129493828Y-109792419D01*
X129493828Y-109792419D02*
X129589066Y-109840038D01*
X129589066Y-109840038D02*
X129636685Y-109887657D01*
X129636685Y-109887657D02*
X129684304Y-109982895D01*
X129684304Y-109982895D02*
X129684304Y-110078133D01*
X129684304Y-110078133D02*
X129636685Y-110220990D01*
X129636685Y-110220990D02*
X129065257Y-110792419D01*
X129065257Y-110792419D02*
X129684304Y-110792419D01*
X79627505Y-75232419D02*
X79627505Y-74232419D01*
X79627505Y-74232419D02*
X79865600Y-74232419D01*
X79865600Y-74232419D02*
X80008457Y-74280038D01*
X80008457Y-74280038D02*
X80103695Y-74375276D01*
X80103695Y-74375276D02*
X80151314Y-74470514D01*
X80151314Y-74470514D02*
X80198933Y-74660990D01*
X80198933Y-74660990D02*
X80198933Y-74803847D01*
X80198933Y-74803847D02*
X80151314Y-74994323D01*
X80151314Y-74994323D02*
X80103695Y-75089561D01*
X80103695Y-75089561D02*
X80008457Y-75184800D01*
X80008457Y-75184800D02*
X79865600Y-75232419D01*
X79865600Y-75232419D02*
X79627505Y-75232419D01*
X80770362Y-74660990D02*
X80675124Y-74613371D01*
X80675124Y-74613371D02*
X80627505Y-74565752D01*
X80627505Y-74565752D02*
X80579886Y-74470514D01*
X80579886Y-74470514D02*
X80579886Y-74422895D01*
X80579886Y-74422895D02*
X80627505Y-74327657D01*
X80627505Y-74327657D02*
X80675124Y-74280038D01*
X80675124Y-74280038D02*
X80770362Y-74232419D01*
X80770362Y-74232419D02*
X80960838Y-74232419D01*
X80960838Y-74232419D02*
X81056076Y-74280038D01*
X81056076Y-74280038D02*
X81103695Y-74327657D01*
X81103695Y-74327657D02*
X81151314Y-74422895D01*
X81151314Y-74422895D02*
X81151314Y-74470514D01*
X81151314Y-74470514D02*
X81103695Y-74565752D01*
X81103695Y-74565752D02*
X81056076Y-74613371D01*
X81056076Y-74613371D02*
X80960838Y-74660990D01*
X80960838Y-74660990D02*
X80770362Y-74660990D01*
X80770362Y-74660990D02*
X80675124Y-74708609D01*
X80675124Y-74708609D02*
X80627505Y-74756228D01*
X80627505Y-74756228D02*
X80579886Y-74851466D01*
X80579886Y-74851466D02*
X80579886Y-75041942D01*
X80579886Y-75041942D02*
X80627505Y-75137180D01*
X80627505Y-75137180D02*
X80675124Y-75184800D01*
X80675124Y-75184800D02*
X80770362Y-75232419D01*
X80770362Y-75232419D02*
X80960838Y-75232419D01*
X80960838Y-75232419D02*
X81056076Y-75184800D01*
X81056076Y-75184800D02*
X81103695Y-75137180D01*
X81103695Y-75137180D02*
X81151314Y-75041942D01*
X81151314Y-75041942D02*
X81151314Y-74851466D01*
X81151314Y-74851466D02*
X81103695Y-74756228D01*
X81103695Y-74756228D02*
X81056076Y-74708609D01*
X81056076Y-74708609D02*
X80960838Y-74660990D01*
X93851505Y-42822019D02*
X93851505Y-41822019D01*
X93851505Y-41822019D02*
X94089600Y-41822019D01*
X94089600Y-41822019D02*
X94232457Y-41869638D01*
X94232457Y-41869638D02*
X94327695Y-41964876D01*
X94327695Y-41964876D02*
X94375314Y-42060114D01*
X94375314Y-42060114D02*
X94422933Y-42250590D01*
X94422933Y-42250590D02*
X94422933Y-42393447D01*
X94422933Y-42393447D02*
X94375314Y-42583923D01*
X94375314Y-42583923D02*
X94327695Y-42679161D01*
X94327695Y-42679161D02*
X94232457Y-42774400D01*
X94232457Y-42774400D02*
X94089600Y-42822019D01*
X94089600Y-42822019D02*
X93851505Y-42822019D01*
X95375314Y-42822019D02*
X94803886Y-42822019D01*
X95089600Y-42822019D02*
X95089600Y-41822019D01*
X95089600Y-41822019D02*
X94994362Y-41964876D01*
X94994362Y-41964876D02*
X94899124Y-42060114D01*
X94899124Y-42060114D02*
X94803886Y-42107733D01*
X113250742Y-76000780D02*
X113203123Y-76048400D01*
X113203123Y-76048400D02*
X113060266Y-76096019D01*
X113060266Y-76096019D02*
X112965028Y-76096019D01*
X112965028Y-76096019D02*
X112822171Y-76048400D01*
X112822171Y-76048400D02*
X112726933Y-75953161D01*
X112726933Y-75953161D02*
X112679314Y-75857923D01*
X112679314Y-75857923D02*
X112631695Y-75667447D01*
X112631695Y-75667447D02*
X112631695Y-75524590D01*
X112631695Y-75524590D02*
X112679314Y-75334114D01*
X112679314Y-75334114D02*
X112726933Y-75238876D01*
X112726933Y-75238876D02*
X112822171Y-75143638D01*
X112822171Y-75143638D02*
X112965028Y-75096019D01*
X112965028Y-75096019D02*
X113060266Y-75096019D01*
X113060266Y-75096019D02*
X113203123Y-75143638D01*
X113203123Y-75143638D02*
X113250742Y-75191257D01*
X114203123Y-76096019D02*
X113631695Y-76096019D01*
X113917409Y-76096019D02*
X113917409Y-75096019D01*
X113917409Y-75096019D02*
X113822171Y-75238876D01*
X113822171Y-75238876D02*
X113726933Y-75334114D01*
X113726933Y-75334114D02*
X113631695Y-75381733D01*
X114774552Y-75524590D02*
X114679314Y-75476971D01*
X114679314Y-75476971D02*
X114631695Y-75429352D01*
X114631695Y-75429352D02*
X114584076Y-75334114D01*
X114584076Y-75334114D02*
X114584076Y-75286495D01*
X114584076Y-75286495D02*
X114631695Y-75191257D01*
X114631695Y-75191257D02*
X114679314Y-75143638D01*
X114679314Y-75143638D02*
X114774552Y-75096019D01*
X114774552Y-75096019D02*
X114965028Y-75096019D01*
X114965028Y-75096019D02*
X115060266Y-75143638D01*
X115060266Y-75143638D02*
X115107885Y-75191257D01*
X115107885Y-75191257D02*
X115155504Y-75286495D01*
X115155504Y-75286495D02*
X115155504Y-75334114D01*
X115155504Y-75334114D02*
X115107885Y-75429352D01*
X115107885Y-75429352D02*
X115060266Y-75476971D01*
X115060266Y-75476971D02*
X114965028Y-75524590D01*
X114965028Y-75524590D02*
X114774552Y-75524590D01*
X114774552Y-75524590D02*
X114679314Y-75572209D01*
X114679314Y-75572209D02*
X114631695Y-75619828D01*
X114631695Y-75619828D02*
X114584076Y-75715066D01*
X114584076Y-75715066D02*
X114584076Y-75905542D01*
X114584076Y-75905542D02*
X114631695Y-76000780D01*
X114631695Y-76000780D02*
X114679314Y-76048400D01*
X114679314Y-76048400D02*
X114774552Y-76096019D01*
X114774552Y-76096019D02*
X114965028Y-76096019D01*
X114965028Y-76096019D02*
X115060266Y-76048400D01*
X115060266Y-76048400D02*
X115107885Y-76000780D01*
X115107885Y-76000780D02*
X115155504Y-75905542D01*
X115155504Y-75905542D02*
X115155504Y-75715066D01*
X115155504Y-75715066D02*
X115107885Y-75619828D01*
X115107885Y-75619828D02*
X115060266Y-75572209D01*
X115060266Y-75572209D02*
X114965028Y-75524590D01*
X108436105Y-42212419D02*
X108436105Y-41212419D01*
X108436105Y-41212419D02*
X108674200Y-41212419D01*
X108674200Y-41212419D02*
X108817057Y-41260038D01*
X108817057Y-41260038D02*
X108912295Y-41355276D01*
X108912295Y-41355276D02*
X108959914Y-41450514D01*
X108959914Y-41450514D02*
X109007533Y-41640990D01*
X109007533Y-41640990D02*
X109007533Y-41783847D01*
X109007533Y-41783847D02*
X108959914Y-41974323D01*
X108959914Y-41974323D02*
X108912295Y-42069561D01*
X108912295Y-42069561D02*
X108817057Y-42164800D01*
X108817057Y-42164800D02*
X108674200Y-42212419D01*
X108674200Y-42212419D02*
X108436105Y-42212419D01*
X109388486Y-41307657D02*
X109436105Y-41260038D01*
X109436105Y-41260038D02*
X109531343Y-41212419D01*
X109531343Y-41212419D02*
X109769438Y-41212419D01*
X109769438Y-41212419D02*
X109864676Y-41260038D01*
X109864676Y-41260038D02*
X109912295Y-41307657D01*
X109912295Y-41307657D02*
X109959914Y-41402895D01*
X109959914Y-41402895D02*
X109959914Y-41498133D01*
X109959914Y-41498133D02*
X109912295Y-41640990D01*
X109912295Y-41640990D02*
X109340867Y-42212419D01*
X109340867Y-42212419D02*
X109959914Y-42212419D01*
X108327866Y-101683409D02*
X107994533Y-101683409D01*
X107994533Y-102207219D02*
X107994533Y-101207219D01*
X107994533Y-101207219D02*
X108470723Y-101207219D01*
X109280247Y-101207219D02*
X109089771Y-101207219D01*
X109089771Y-101207219D02*
X108994533Y-101254838D01*
X108994533Y-101254838D02*
X108946914Y-101302457D01*
X108946914Y-101302457D02*
X108851676Y-101445314D01*
X108851676Y-101445314D02*
X108804057Y-101635790D01*
X108804057Y-101635790D02*
X108804057Y-102016742D01*
X108804057Y-102016742D02*
X108851676Y-102111980D01*
X108851676Y-102111980D02*
X108899295Y-102159600D01*
X108899295Y-102159600D02*
X108994533Y-102207219D01*
X108994533Y-102207219D02*
X109185009Y-102207219D01*
X109185009Y-102207219D02*
X109280247Y-102159600D01*
X109280247Y-102159600D02*
X109327866Y-102111980D01*
X109327866Y-102111980D02*
X109375485Y-102016742D01*
X109375485Y-102016742D02*
X109375485Y-101778647D01*
X109375485Y-101778647D02*
X109327866Y-101683409D01*
X109327866Y-101683409D02*
X109280247Y-101635790D01*
X109280247Y-101635790D02*
X109185009Y-101588171D01*
X109185009Y-101588171D02*
X108994533Y-101588171D01*
X108994533Y-101588171D02*
X108899295Y-101635790D01*
X108899295Y-101635790D02*
X108851676Y-101683409D01*
X108851676Y-101683409D02*
X108804057Y-101778647D01*
X85513942Y-74375180D02*
X85466323Y-74422800D01*
X85466323Y-74422800D02*
X85323466Y-74470419D01*
X85323466Y-74470419D02*
X85228228Y-74470419D01*
X85228228Y-74470419D02*
X85085371Y-74422800D01*
X85085371Y-74422800D02*
X84990133Y-74327561D01*
X84990133Y-74327561D02*
X84942514Y-74232323D01*
X84942514Y-74232323D02*
X84894895Y-74041847D01*
X84894895Y-74041847D02*
X84894895Y-73898990D01*
X84894895Y-73898990D02*
X84942514Y-73708514D01*
X84942514Y-73708514D02*
X84990133Y-73613276D01*
X84990133Y-73613276D02*
X85085371Y-73518038D01*
X85085371Y-73518038D02*
X85228228Y-73470419D01*
X85228228Y-73470419D02*
X85323466Y-73470419D01*
X85323466Y-73470419D02*
X85466323Y-73518038D01*
X85466323Y-73518038D02*
X85513942Y-73565657D01*
X86466323Y-74470419D02*
X85894895Y-74470419D01*
X86180609Y-74470419D02*
X86180609Y-73470419D01*
X86180609Y-73470419D02*
X86085371Y-73613276D01*
X86085371Y-73613276D02*
X85990133Y-73708514D01*
X85990133Y-73708514D02*
X85894895Y-73756133D01*
X87323466Y-73803752D02*
X87323466Y-74470419D01*
X87085371Y-73422800D02*
X86847276Y-74137085D01*
X86847276Y-74137085D02*
X87466323Y-74137085D01*
X82535733Y-56493580D02*
X82488114Y-56541200D01*
X82488114Y-56541200D02*
X82345257Y-56588819D01*
X82345257Y-56588819D02*
X82250019Y-56588819D01*
X82250019Y-56588819D02*
X82107162Y-56541200D01*
X82107162Y-56541200D02*
X82011924Y-56445961D01*
X82011924Y-56445961D02*
X81964305Y-56350723D01*
X81964305Y-56350723D02*
X81916686Y-56160247D01*
X81916686Y-56160247D02*
X81916686Y-56017390D01*
X81916686Y-56017390D02*
X81964305Y-55826914D01*
X81964305Y-55826914D02*
X82011924Y-55731676D01*
X82011924Y-55731676D02*
X82107162Y-55636438D01*
X82107162Y-55636438D02*
X82250019Y-55588819D01*
X82250019Y-55588819D02*
X82345257Y-55588819D01*
X82345257Y-55588819D02*
X82488114Y-55636438D01*
X82488114Y-55636438D02*
X82535733Y-55684057D01*
X83011924Y-56588819D02*
X83202400Y-56588819D01*
X83202400Y-56588819D02*
X83297638Y-56541200D01*
X83297638Y-56541200D02*
X83345257Y-56493580D01*
X83345257Y-56493580D02*
X83440495Y-56350723D01*
X83440495Y-56350723D02*
X83488114Y-56160247D01*
X83488114Y-56160247D02*
X83488114Y-55779295D01*
X83488114Y-55779295D02*
X83440495Y-55684057D01*
X83440495Y-55684057D02*
X83392876Y-55636438D01*
X83392876Y-55636438D02*
X83297638Y-55588819D01*
X83297638Y-55588819D02*
X83107162Y-55588819D01*
X83107162Y-55588819D02*
X83011924Y-55636438D01*
X83011924Y-55636438D02*
X82964305Y-55684057D01*
X82964305Y-55684057D02*
X82916686Y-55779295D01*
X82916686Y-55779295D02*
X82916686Y-56017390D01*
X82916686Y-56017390D02*
X82964305Y-56112628D01*
X82964305Y-56112628D02*
X83011924Y-56160247D01*
X83011924Y-56160247D02*
X83107162Y-56207866D01*
X83107162Y-56207866D02*
X83297638Y-56207866D01*
X83297638Y-56207866D02*
X83392876Y-56160247D01*
X83392876Y-56160247D02*
X83440495Y-56112628D01*
X83440495Y-56112628D02*
X83488114Y-56017390D01*
X102314642Y-93853080D02*
X102267023Y-93900700D01*
X102267023Y-93900700D02*
X102124166Y-93948319D01*
X102124166Y-93948319D02*
X102028928Y-93948319D01*
X102028928Y-93948319D02*
X101886071Y-93900700D01*
X101886071Y-93900700D02*
X101790833Y-93805461D01*
X101790833Y-93805461D02*
X101743214Y-93710223D01*
X101743214Y-93710223D02*
X101695595Y-93519747D01*
X101695595Y-93519747D02*
X101695595Y-93376890D01*
X101695595Y-93376890D02*
X101743214Y-93186414D01*
X101743214Y-93186414D02*
X101790833Y-93091176D01*
X101790833Y-93091176D02*
X101886071Y-92995938D01*
X101886071Y-92995938D02*
X102028928Y-92948319D01*
X102028928Y-92948319D02*
X102124166Y-92948319D01*
X102124166Y-92948319D02*
X102267023Y-92995938D01*
X102267023Y-92995938D02*
X102314642Y-93043557D01*
X102695595Y-93043557D02*
X102743214Y-92995938D01*
X102743214Y-92995938D02*
X102838452Y-92948319D01*
X102838452Y-92948319D02*
X103076547Y-92948319D01*
X103076547Y-92948319D02*
X103171785Y-92995938D01*
X103171785Y-92995938D02*
X103219404Y-93043557D01*
X103219404Y-93043557D02*
X103267023Y-93138795D01*
X103267023Y-93138795D02*
X103267023Y-93234033D01*
X103267023Y-93234033D02*
X103219404Y-93376890D01*
X103219404Y-93376890D02*
X102647976Y-93948319D01*
X102647976Y-93948319D02*
X103267023Y-93948319D01*
X104171785Y-92948319D02*
X103695595Y-92948319D01*
X103695595Y-92948319D02*
X103647976Y-93424509D01*
X103647976Y-93424509D02*
X103695595Y-93376890D01*
X103695595Y-93376890D02*
X103790833Y-93329271D01*
X103790833Y-93329271D02*
X104028928Y-93329271D01*
X104028928Y-93329271D02*
X104124166Y-93376890D01*
X104124166Y-93376890D02*
X104171785Y-93424509D01*
X104171785Y-93424509D02*
X104219404Y-93519747D01*
X104219404Y-93519747D02*
X104219404Y-93757842D01*
X104219404Y-93757842D02*
X104171785Y-93853080D01*
X104171785Y-93853080D02*
X104124166Y-93900700D01*
X104124166Y-93900700D02*
X104028928Y-93948319D01*
X104028928Y-93948319D02*
X103790833Y-93948319D01*
X103790833Y-93948319D02*
X103695595Y-93900700D01*
X103695595Y-93900700D02*
X103647976Y-93853080D01*
X94302342Y-82553980D02*
X94254723Y-82601600D01*
X94254723Y-82601600D02*
X94111866Y-82649219D01*
X94111866Y-82649219D02*
X94016628Y-82649219D01*
X94016628Y-82649219D02*
X93873771Y-82601600D01*
X93873771Y-82601600D02*
X93778533Y-82506361D01*
X93778533Y-82506361D02*
X93730914Y-82411123D01*
X93730914Y-82411123D02*
X93683295Y-82220647D01*
X93683295Y-82220647D02*
X93683295Y-82077790D01*
X93683295Y-82077790D02*
X93730914Y-81887314D01*
X93730914Y-81887314D02*
X93778533Y-81792076D01*
X93778533Y-81792076D02*
X93873771Y-81696838D01*
X93873771Y-81696838D02*
X94016628Y-81649219D01*
X94016628Y-81649219D02*
X94111866Y-81649219D01*
X94111866Y-81649219D02*
X94254723Y-81696838D01*
X94254723Y-81696838D02*
X94302342Y-81744457D01*
X94683295Y-81744457D02*
X94730914Y-81696838D01*
X94730914Y-81696838D02*
X94826152Y-81649219D01*
X94826152Y-81649219D02*
X95064247Y-81649219D01*
X95064247Y-81649219D02*
X95159485Y-81696838D01*
X95159485Y-81696838D02*
X95207104Y-81744457D01*
X95207104Y-81744457D02*
X95254723Y-81839695D01*
X95254723Y-81839695D02*
X95254723Y-81934933D01*
X95254723Y-81934933D02*
X95207104Y-82077790D01*
X95207104Y-82077790D02*
X94635676Y-82649219D01*
X94635676Y-82649219D02*
X95254723Y-82649219D01*
X95873771Y-81649219D02*
X95969009Y-81649219D01*
X95969009Y-81649219D02*
X96064247Y-81696838D01*
X96064247Y-81696838D02*
X96111866Y-81744457D01*
X96111866Y-81744457D02*
X96159485Y-81839695D01*
X96159485Y-81839695D02*
X96207104Y-82030171D01*
X96207104Y-82030171D02*
X96207104Y-82268266D01*
X96207104Y-82268266D02*
X96159485Y-82458742D01*
X96159485Y-82458742D02*
X96111866Y-82553980D01*
X96111866Y-82553980D02*
X96064247Y-82601600D01*
X96064247Y-82601600D02*
X95969009Y-82649219D01*
X95969009Y-82649219D02*
X95873771Y-82649219D01*
X95873771Y-82649219D02*
X95778533Y-82601600D01*
X95778533Y-82601600D02*
X95730914Y-82553980D01*
X95730914Y-82553980D02*
X95683295Y-82458742D01*
X95683295Y-82458742D02*
X95635676Y-82268266D01*
X95635676Y-82268266D02*
X95635676Y-82030171D01*
X95635676Y-82030171D02*
X95683295Y-81839695D01*
X95683295Y-81839695D02*
X95730914Y-81744457D01*
X95730914Y-81744457D02*
X95778533Y-81696838D01*
X95778533Y-81696838D02*
X95873771Y-81649219D01*
X123415466Y-96908209D02*
X123082133Y-96908209D01*
X123082133Y-97432019D02*
X123082133Y-96432019D01*
X123082133Y-96432019D02*
X123558323Y-96432019D01*
X124415466Y-96432019D02*
X123939276Y-96432019D01*
X123939276Y-96432019D02*
X123891657Y-96908209D01*
X123891657Y-96908209D02*
X123939276Y-96860590D01*
X123939276Y-96860590D02*
X124034514Y-96812971D01*
X124034514Y-96812971D02*
X124272609Y-96812971D01*
X124272609Y-96812971D02*
X124367847Y-96860590D01*
X124367847Y-96860590D02*
X124415466Y-96908209D01*
X124415466Y-96908209D02*
X124463085Y-97003447D01*
X124463085Y-97003447D02*
X124463085Y-97241542D01*
X124463085Y-97241542D02*
X124415466Y-97336780D01*
X124415466Y-97336780D02*
X124367847Y-97384400D01*
X124367847Y-97384400D02*
X124272609Y-97432019D01*
X124272609Y-97432019D02*
X124034514Y-97432019D01*
X124034514Y-97432019D02*
X123939276Y-97384400D01*
X123939276Y-97384400D02*
X123891657Y-97336780D01*
X115976495Y-61634019D02*
X115976495Y-62443542D01*
X115976495Y-62443542D02*
X116024114Y-62538780D01*
X116024114Y-62538780D02*
X116071733Y-62586400D01*
X116071733Y-62586400D02*
X116166971Y-62634019D01*
X116166971Y-62634019D02*
X116357447Y-62634019D01*
X116357447Y-62634019D02*
X116452685Y-62586400D01*
X116452685Y-62586400D02*
X116500304Y-62538780D01*
X116500304Y-62538780D02*
X116547923Y-62443542D01*
X116547923Y-62443542D02*
X116547923Y-61634019D01*
X117452685Y-61967352D02*
X117452685Y-62634019D01*
X117214590Y-61586400D02*
X116976495Y-62300685D01*
X116976495Y-62300685D02*
X117595542Y-62300685D01*
X145314533Y-53089980D02*
X145266914Y-53137600D01*
X145266914Y-53137600D02*
X145124057Y-53185219D01*
X145124057Y-53185219D02*
X145028819Y-53185219D01*
X145028819Y-53185219D02*
X144885962Y-53137600D01*
X144885962Y-53137600D02*
X144790724Y-53042361D01*
X144790724Y-53042361D02*
X144743105Y-52947123D01*
X144743105Y-52947123D02*
X144695486Y-52756647D01*
X144695486Y-52756647D02*
X144695486Y-52613790D01*
X144695486Y-52613790D02*
X144743105Y-52423314D01*
X144743105Y-52423314D02*
X144790724Y-52328076D01*
X144790724Y-52328076D02*
X144885962Y-52232838D01*
X144885962Y-52232838D02*
X145028819Y-52185219D01*
X145028819Y-52185219D02*
X145124057Y-52185219D01*
X145124057Y-52185219D02*
X145266914Y-52232838D01*
X145266914Y-52232838D02*
X145314533Y-52280457D01*
X145647867Y-52185219D02*
X146314533Y-52185219D01*
X146314533Y-52185219D02*
X145885962Y-53185219D01*
X116857542Y-76096019D02*
X116524209Y-75619828D01*
X116286114Y-76096019D02*
X116286114Y-75096019D01*
X116286114Y-75096019D02*
X116667066Y-75096019D01*
X116667066Y-75096019D02*
X116762304Y-75143638D01*
X116762304Y-75143638D02*
X116809923Y-75191257D01*
X116809923Y-75191257D02*
X116857542Y-75286495D01*
X116857542Y-75286495D02*
X116857542Y-75429352D01*
X116857542Y-75429352D02*
X116809923Y-75524590D01*
X116809923Y-75524590D02*
X116762304Y-75572209D01*
X116762304Y-75572209D02*
X116667066Y-75619828D01*
X116667066Y-75619828D02*
X116286114Y-75619828D01*
X117809923Y-76096019D02*
X117238495Y-76096019D01*
X117524209Y-76096019D02*
X117524209Y-75096019D01*
X117524209Y-75096019D02*
X117428971Y-75238876D01*
X117428971Y-75238876D02*
X117333733Y-75334114D01*
X117333733Y-75334114D02*
X117238495Y-75381733D01*
X118762304Y-76096019D02*
X118190876Y-76096019D01*
X118476590Y-76096019D02*
X118476590Y-75096019D01*
X118476590Y-75096019D02*
X118381352Y-75238876D01*
X118381352Y-75238876D02*
X118286114Y-75334114D01*
X118286114Y-75334114D02*
X118190876Y-75381733D01*
X117721142Y-73003580D02*
X117673523Y-73051200D01*
X117673523Y-73051200D02*
X117530666Y-73098819D01*
X117530666Y-73098819D02*
X117435428Y-73098819D01*
X117435428Y-73098819D02*
X117292571Y-73051200D01*
X117292571Y-73051200D02*
X117197333Y-72955961D01*
X117197333Y-72955961D02*
X117149714Y-72860723D01*
X117149714Y-72860723D02*
X117102095Y-72670247D01*
X117102095Y-72670247D02*
X117102095Y-72527390D01*
X117102095Y-72527390D02*
X117149714Y-72336914D01*
X117149714Y-72336914D02*
X117197333Y-72241676D01*
X117197333Y-72241676D02*
X117292571Y-72146438D01*
X117292571Y-72146438D02*
X117435428Y-72098819D01*
X117435428Y-72098819D02*
X117530666Y-72098819D01*
X117530666Y-72098819D02*
X117673523Y-72146438D01*
X117673523Y-72146438D02*
X117721142Y-72194057D01*
X118673523Y-73098819D02*
X118102095Y-73098819D01*
X118387809Y-73098819D02*
X118387809Y-72098819D01*
X118387809Y-72098819D02*
X118292571Y-72241676D01*
X118292571Y-72241676D02*
X118197333Y-72336914D01*
X118197333Y-72336914D02*
X118102095Y-72384533D01*
X119530666Y-72098819D02*
X119340190Y-72098819D01*
X119340190Y-72098819D02*
X119244952Y-72146438D01*
X119244952Y-72146438D02*
X119197333Y-72194057D01*
X119197333Y-72194057D02*
X119102095Y-72336914D01*
X119102095Y-72336914D02*
X119054476Y-72527390D01*
X119054476Y-72527390D02*
X119054476Y-72908342D01*
X119054476Y-72908342D02*
X119102095Y-73003580D01*
X119102095Y-73003580D02*
X119149714Y-73051200D01*
X119149714Y-73051200D02*
X119244952Y-73098819D01*
X119244952Y-73098819D02*
X119435428Y-73098819D01*
X119435428Y-73098819D02*
X119530666Y-73051200D01*
X119530666Y-73051200D02*
X119578285Y-73003580D01*
X119578285Y-73003580D02*
X119625904Y-72908342D01*
X119625904Y-72908342D02*
X119625904Y-72670247D01*
X119625904Y-72670247D02*
X119578285Y-72575009D01*
X119578285Y-72575009D02*
X119530666Y-72527390D01*
X119530666Y-72527390D02*
X119435428Y-72479771D01*
X119435428Y-72479771D02*
X119244952Y-72479771D01*
X119244952Y-72479771D02*
X119149714Y-72527390D01*
X119149714Y-72527390D02*
X119102095Y-72575009D01*
X119102095Y-72575009D02*
X119054476Y-72670247D01*
X101859642Y-111191080D02*
X101812023Y-111238700D01*
X101812023Y-111238700D02*
X101669166Y-111286319D01*
X101669166Y-111286319D02*
X101573928Y-111286319D01*
X101573928Y-111286319D02*
X101431071Y-111238700D01*
X101431071Y-111238700D02*
X101335833Y-111143461D01*
X101335833Y-111143461D02*
X101288214Y-111048223D01*
X101288214Y-111048223D02*
X101240595Y-110857747D01*
X101240595Y-110857747D02*
X101240595Y-110714890D01*
X101240595Y-110714890D02*
X101288214Y-110524414D01*
X101288214Y-110524414D02*
X101335833Y-110429176D01*
X101335833Y-110429176D02*
X101431071Y-110333938D01*
X101431071Y-110333938D02*
X101573928Y-110286319D01*
X101573928Y-110286319D02*
X101669166Y-110286319D01*
X101669166Y-110286319D02*
X101812023Y-110333938D01*
X101812023Y-110333938D02*
X101859642Y-110381557D01*
X102192976Y-110286319D02*
X102812023Y-110286319D01*
X102812023Y-110286319D02*
X102478690Y-110667271D01*
X102478690Y-110667271D02*
X102621547Y-110667271D01*
X102621547Y-110667271D02*
X102716785Y-110714890D01*
X102716785Y-110714890D02*
X102764404Y-110762509D01*
X102764404Y-110762509D02*
X102812023Y-110857747D01*
X102812023Y-110857747D02*
X102812023Y-111095842D01*
X102812023Y-111095842D02*
X102764404Y-111191080D01*
X102764404Y-111191080D02*
X102716785Y-111238700D01*
X102716785Y-111238700D02*
X102621547Y-111286319D01*
X102621547Y-111286319D02*
X102335833Y-111286319D01*
X102335833Y-111286319D02*
X102240595Y-111238700D01*
X102240595Y-111238700D02*
X102192976Y-111191080D01*
X103431071Y-110286319D02*
X103526309Y-110286319D01*
X103526309Y-110286319D02*
X103621547Y-110333938D01*
X103621547Y-110333938D02*
X103669166Y-110381557D01*
X103669166Y-110381557D02*
X103716785Y-110476795D01*
X103716785Y-110476795D02*
X103764404Y-110667271D01*
X103764404Y-110667271D02*
X103764404Y-110905366D01*
X103764404Y-110905366D02*
X103716785Y-111095842D01*
X103716785Y-111095842D02*
X103669166Y-111191080D01*
X103669166Y-111191080D02*
X103621547Y-111238700D01*
X103621547Y-111238700D02*
X103526309Y-111286319D01*
X103526309Y-111286319D02*
X103431071Y-111286319D01*
X103431071Y-111286319D02*
X103335833Y-111238700D01*
X103335833Y-111238700D02*
X103288214Y-111191080D01*
X103288214Y-111191080D02*
X103240595Y-111095842D01*
X103240595Y-111095842D02*
X103192976Y-110905366D01*
X103192976Y-110905366D02*
X103192976Y-110667271D01*
X103192976Y-110667271D02*
X103240595Y-110476795D01*
X103240595Y-110476795D02*
X103288214Y-110381557D01*
X103288214Y-110381557D02*
X103335833Y-110333938D01*
X103335833Y-110333938D02*
X103431071Y-110286319D01*
X107967542Y-53089980D02*
X107919923Y-53137600D01*
X107919923Y-53137600D02*
X107777066Y-53185219D01*
X107777066Y-53185219D02*
X107681828Y-53185219D01*
X107681828Y-53185219D02*
X107538971Y-53137600D01*
X107538971Y-53137600D02*
X107443733Y-53042361D01*
X107443733Y-53042361D02*
X107396114Y-52947123D01*
X107396114Y-52947123D02*
X107348495Y-52756647D01*
X107348495Y-52756647D02*
X107348495Y-52613790D01*
X107348495Y-52613790D02*
X107396114Y-52423314D01*
X107396114Y-52423314D02*
X107443733Y-52328076D01*
X107443733Y-52328076D02*
X107538971Y-52232838D01*
X107538971Y-52232838D02*
X107681828Y-52185219D01*
X107681828Y-52185219D02*
X107777066Y-52185219D01*
X107777066Y-52185219D02*
X107919923Y-52232838D01*
X107919923Y-52232838D02*
X107967542Y-52280457D01*
X108919923Y-53185219D02*
X108348495Y-53185219D01*
X108634209Y-53185219D02*
X108634209Y-52185219D01*
X108634209Y-52185219D02*
X108538971Y-52328076D01*
X108538971Y-52328076D02*
X108443733Y-52423314D01*
X108443733Y-52423314D02*
X108348495Y-52470933D01*
X109538971Y-52185219D02*
X109634209Y-52185219D01*
X109634209Y-52185219D02*
X109729447Y-52232838D01*
X109729447Y-52232838D02*
X109777066Y-52280457D01*
X109777066Y-52280457D02*
X109824685Y-52375695D01*
X109824685Y-52375695D02*
X109872304Y-52566171D01*
X109872304Y-52566171D02*
X109872304Y-52804266D01*
X109872304Y-52804266D02*
X109824685Y-52994742D01*
X109824685Y-52994742D02*
X109777066Y-53089980D01*
X109777066Y-53089980D02*
X109729447Y-53137600D01*
X109729447Y-53137600D02*
X109634209Y-53185219D01*
X109634209Y-53185219D02*
X109538971Y-53185219D01*
X109538971Y-53185219D02*
X109443733Y-53137600D01*
X109443733Y-53137600D02*
X109396114Y-53089980D01*
X109396114Y-53089980D02*
X109348495Y-52994742D01*
X109348495Y-52994742D02*
X109300876Y-52804266D01*
X109300876Y-52804266D02*
X109300876Y-52566171D01*
X109300876Y-52566171D02*
X109348495Y-52375695D01*
X109348495Y-52375695D02*
X109396114Y-52280457D01*
X109396114Y-52280457D02*
X109443733Y-52232838D01*
X109443733Y-52232838D02*
X109538971Y-52185219D01*
X112152133Y-44600019D02*
X111818800Y-44123828D01*
X111580705Y-44600019D02*
X111580705Y-43600019D01*
X111580705Y-43600019D02*
X111961657Y-43600019D01*
X111961657Y-43600019D02*
X112056895Y-43647638D01*
X112056895Y-43647638D02*
X112104514Y-43695257D01*
X112104514Y-43695257D02*
X112152133Y-43790495D01*
X112152133Y-43790495D02*
X112152133Y-43933352D01*
X112152133Y-43933352D02*
X112104514Y-44028590D01*
X112104514Y-44028590D02*
X112056895Y-44076209D01*
X112056895Y-44076209D02*
X111961657Y-44123828D01*
X111961657Y-44123828D02*
X111580705Y-44123828D01*
X112533086Y-43695257D02*
X112580705Y-43647638D01*
X112580705Y-43647638D02*
X112675943Y-43600019D01*
X112675943Y-43600019D02*
X112914038Y-43600019D01*
X112914038Y-43600019D02*
X113009276Y-43647638D01*
X113009276Y-43647638D02*
X113056895Y-43695257D01*
X113056895Y-43695257D02*
X113104514Y-43790495D01*
X113104514Y-43790495D02*
X113104514Y-43885733D01*
X113104514Y-43885733D02*
X113056895Y-44028590D01*
X113056895Y-44028590D02*
X112485467Y-44600019D01*
X112485467Y-44600019D02*
X113104514Y-44600019D01*
X119945161Y-75226057D02*
X119849923Y-75178438D01*
X119849923Y-75178438D02*
X119754685Y-75083200D01*
X119754685Y-75083200D02*
X119611828Y-74940342D01*
X119611828Y-74940342D02*
X119516590Y-74892723D01*
X119516590Y-74892723D02*
X119421352Y-74892723D01*
X119468971Y-75130819D02*
X119373733Y-75083200D01*
X119373733Y-75083200D02*
X119278495Y-74987961D01*
X119278495Y-74987961D02*
X119230876Y-74797485D01*
X119230876Y-74797485D02*
X119230876Y-74464152D01*
X119230876Y-74464152D02*
X119278495Y-74273676D01*
X119278495Y-74273676D02*
X119373733Y-74178438D01*
X119373733Y-74178438D02*
X119468971Y-74130819D01*
X119468971Y-74130819D02*
X119659447Y-74130819D01*
X119659447Y-74130819D02*
X119754685Y-74178438D01*
X119754685Y-74178438D02*
X119849923Y-74273676D01*
X119849923Y-74273676D02*
X119897542Y-74464152D01*
X119897542Y-74464152D02*
X119897542Y-74797485D01*
X119897542Y-74797485D02*
X119849923Y-74987961D01*
X119849923Y-74987961D02*
X119754685Y-75083200D01*
X119754685Y-75083200D02*
X119659447Y-75130819D01*
X119659447Y-75130819D02*
X119468971Y-75130819D01*
X120849923Y-75130819D02*
X120278495Y-75130819D01*
X120564209Y-75130819D02*
X120564209Y-74130819D01*
X120564209Y-74130819D02*
X120468971Y-74273676D01*
X120468971Y-74273676D02*
X120373733Y-74368914D01*
X120373733Y-74368914D02*
X120278495Y-74416533D01*
X117389533Y-50549980D02*
X117341914Y-50597600D01*
X117341914Y-50597600D02*
X117199057Y-50645219D01*
X117199057Y-50645219D02*
X117103819Y-50645219D01*
X117103819Y-50645219D02*
X116960962Y-50597600D01*
X116960962Y-50597600D02*
X116865724Y-50502361D01*
X116865724Y-50502361D02*
X116818105Y-50407123D01*
X116818105Y-50407123D02*
X116770486Y-50216647D01*
X116770486Y-50216647D02*
X116770486Y-50073790D01*
X116770486Y-50073790D02*
X116818105Y-49883314D01*
X116818105Y-49883314D02*
X116865724Y-49788076D01*
X116865724Y-49788076D02*
X116960962Y-49692838D01*
X116960962Y-49692838D02*
X117103819Y-49645219D01*
X117103819Y-49645219D02*
X117199057Y-49645219D01*
X117199057Y-49645219D02*
X117341914Y-49692838D01*
X117341914Y-49692838D02*
X117389533Y-49740457D01*
X118246676Y-49645219D02*
X118056200Y-49645219D01*
X118056200Y-49645219D02*
X117960962Y-49692838D01*
X117960962Y-49692838D02*
X117913343Y-49740457D01*
X117913343Y-49740457D02*
X117818105Y-49883314D01*
X117818105Y-49883314D02*
X117770486Y-50073790D01*
X117770486Y-50073790D02*
X117770486Y-50454742D01*
X117770486Y-50454742D02*
X117818105Y-50549980D01*
X117818105Y-50549980D02*
X117865724Y-50597600D01*
X117865724Y-50597600D02*
X117960962Y-50645219D01*
X117960962Y-50645219D02*
X118151438Y-50645219D01*
X118151438Y-50645219D02*
X118246676Y-50597600D01*
X118246676Y-50597600D02*
X118294295Y-50549980D01*
X118294295Y-50549980D02*
X118341914Y-50454742D01*
X118341914Y-50454742D02*
X118341914Y-50216647D01*
X118341914Y-50216647D02*
X118294295Y-50121409D01*
X118294295Y-50121409D02*
X118246676Y-50073790D01*
X118246676Y-50073790D02*
X118151438Y-50026171D01*
X118151438Y-50026171D02*
X117960962Y-50026171D01*
X117960962Y-50026171D02*
X117865724Y-50073790D01*
X117865724Y-50073790D02*
X117818105Y-50121409D01*
X117818105Y-50121409D02*
X117770486Y-50216647D01*
X99234666Y-58808209D02*
X98901333Y-58808209D01*
X98901333Y-59332019D02*
X98901333Y-58332019D01*
X98901333Y-58332019D02*
X99377523Y-58332019D01*
X100282285Y-59332019D02*
X99710857Y-59332019D01*
X99996571Y-59332019D02*
X99996571Y-58332019D01*
X99996571Y-58332019D02*
X99901333Y-58474876D01*
X99901333Y-58474876D02*
X99806095Y-58570114D01*
X99806095Y-58570114D02*
X99710857Y-58617733D01*
X81367333Y-42811919D02*
X81034000Y-42335728D01*
X80795905Y-42811919D02*
X80795905Y-41811919D01*
X80795905Y-41811919D02*
X81176857Y-41811919D01*
X81176857Y-41811919D02*
X81272095Y-41859538D01*
X81272095Y-41859538D02*
X81319714Y-41907157D01*
X81319714Y-41907157D02*
X81367333Y-42002395D01*
X81367333Y-42002395D02*
X81367333Y-42145252D01*
X81367333Y-42145252D02*
X81319714Y-42240490D01*
X81319714Y-42240490D02*
X81272095Y-42288109D01*
X81272095Y-42288109D02*
X81176857Y-42335728D01*
X81176857Y-42335728D02*
X80795905Y-42335728D01*
X82319714Y-42811919D02*
X81748286Y-42811919D01*
X82034000Y-42811919D02*
X82034000Y-41811919D01*
X82034000Y-41811919D02*
X81938762Y-41954776D01*
X81938762Y-41954776D02*
X81843524Y-42050014D01*
X81843524Y-42050014D02*
X81748286Y-42097633D01*
X125804705Y-41247219D02*
X125804705Y-40247219D01*
X125804705Y-40247219D02*
X126042800Y-40247219D01*
X126042800Y-40247219D02*
X126185657Y-40294838D01*
X126185657Y-40294838D02*
X126280895Y-40390076D01*
X126280895Y-40390076D02*
X126328514Y-40485314D01*
X126328514Y-40485314D02*
X126376133Y-40675790D01*
X126376133Y-40675790D02*
X126376133Y-40818647D01*
X126376133Y-40818647D02*
X126328514Y-41009123D01*
X126328514Y-41009123D02*
X126280895Y-41104361D01*
X126280895Y-41104361D02*
X126185657Y-41199600D01*
X126185657Y-41199600D02*
X126042800Y-41247219D01*
X126042800Y-41247219D02*
X125804705Y-41247219D01*
X126709467Y-40247219D02*
X127328514Y-40247219D01*
X127328514Y-40247219D02*
X126995181Y-40628171D01*
X126995181Y-40628171D02*
X127138038Y-40628171D01*
X127138038Y-40628171D02*
X127233276Y-40675790D01*
X127233276Y-40675790D02*
X127280895Y-40723409D01*
X127280895Y-40723409D02*
X127328514Y-40818647D01*
X127328514Y-40818647D02*
X127328514Y-41056742D01*
X127328514Y-41056742D02*
X127280895Y-41151980D01*
X127280895Y-41151980D02*
X127233276Y-41199600D01*
X127233276Y-41199600D02*
X127138038Y-41247219D01*
X127138038Y-41247219D02*
X126852324Y-41247219D01*
X126852324Y-41247219D02*
X126757086Y-41199600D01*
X126757086Y-41199600D02*
X126709467Y-41151980D01*
X89198666Y-95130209D02*
X88865333Y-95130209D01*
X88865333Y-95654019D02*
X88865333Y-94654019D01*
X88865333Y-94654019D02*
X89341523Y-94654019D01*
X89627238Y-94654019D02*
X90246285Y-94654019D01*
X90246285Y-94654019D02*
X89912952Y-95034971D01*
X89912952Y-95034971D02*
X90055809Y-95034971D01*
X90055809Y-95034971D02*
X90151047Y-95082590D01*
X90151047Y-95082590D02*
X90198666Y-95130209D01*
X90198666Y-95130209D02*
X90246285Y-95225447D01*
X90246285Y-95225447D02*
X90246285Y-95463542D01*
X90246285Y-95463542D02*
X90198666Y-95558780D01*
X90198666Y-95558780D02*
X90151047Y-95606400D01*
X90151047Y-95606400D02*
X90055809Y-95654019D01*
X90055809Y-95654019D02*
X89770095Y-95654019D01*
X89770095Y-95654019D02*
X89674857Y-95606400D01*
X89674857Y-95606400D02*
X89627238Y-95558780D01*
X97248742Y-78997980D02*
X97201123Y-79045600D01*
X97201123Y-79045600D02*
X97058266Y-79093219D01*
X97058266Y-79093219D02*
X96963028Y-79093219D01*
X96963028Y-79093219D02*
X96820171Y-79045600D01*
X96820171Y-79045600D02*
X96724933Y-78950361D01*
X96724933Y-78950361D02*
X96677314Y-78855123D01*
X96677314Y-78855123D02*
X96629695Y-78664647D01*
X96629695Y-78664647D02*
X96629695Y-78521790D01*
X96629695Y-78521790D02*
X96677314Y-78331314D01*
X96677314Y-78331314D02*
X96724933Y-78236076D01*
X96724933Y-78236076D02*
X96820171Y-78140838D01*
X96820171Y-78140838D02*
X96963028Y-78093219D01*
X96963028Y-78093219D02*
X97058266Y-78093219D01*
X97058266Y-78093219D02*
X97201123Y-78140838D01*
X97201123Y-78140838D02*
X97248742Y-78188457D01*
X98201123Y-79093219D02*
X97629695Y-79093219D01*
X97915409Y-79093219D02*
X97915409Y-78093219D01*
X97915409Y-78093219D02*
X97820171Y-78236076D01*
X97820171Y-78236076D02*
X97724933Y-78331314D01*
X97724933Y-78331314D02*
X97629695Y-78378933D01*
X98677314Y-79093219D02*
X98867790Y-79093219D01*
X98867790Y-79093219D02*
X98963028Y-79045600D01*
X98963028Y-79045600D02*
X99010647Y-78997980D01*
X99010647Y-78997980D02*
X99105885Y-78855123D01*
X99105885Y-78855123D02*
X99153504Y-78664647D01*
X99153504Y-78664647D02*
X99153504Y-78283695D01*
X99153504Y-78283695D02*
X99105885Y-78188457D01*
X99105885Y-78188457D02*
X99058266Y-78140838D01*
X99058266Y-78140838D02*
X98963028Y-78093219D01*
X98963028Y-78093219D02*
X98772552Y-78093219D01*
X98772552Y-78093219D02*
X98677314Y-78140838D01*
X98677314Y-78140838D02*
X98629695Y-78188457D01*
X98629695Y-78188457D02*
X98582076Y-78283695D01*
X98582076Y-78283695D02*
X98582076Y-78521790D01*
X98582076Y-78521790D02*
X98629695Y-78617028D01*
X98629695Y-78617028D02*
X98677314Y-78664647D01*
X98677314Y-78664647D02*
X98772552Y-78712266D01*
X98772552Y-78712266D02*
X98963028Y-78712266D01*
X98963028Y-78712266D02*
X99058266Y-78664647D01*
X99058266Y-78664647D02*
X99105885Y-78617028D01*
X99105885Y-78617028D02*
X99153504Y-78521790D01*
X138553866Y-96603409D02*
X138220533Y-96603409D01*
X138220533Y-97127219D02*
X138220533Y-96127219D01*
X138220533Y-96127219D02*
X138696723Y-96127219D01*
X139506247Y-96460552D02*
X139506247Y-97127219D01*
X139268152Y-96079600D02*
X139030057Y-96793885D01*
X139030057Y-96793885D02*
X139649104Y-96793885D01*
X145619333Y-44498419D02*
X145286000Y-44022228D01*
X145047905Y-44498419D02*
X145047905Y-43498419D01*
X145047905Y-43498419D02*
X145428857Y-43498419D01*
X145428857Y-43498419D02*
X145524095Y-43546038D01*
X145524095Y-43546038D02*
X145571714Y-43593657D01*
X145571714Y-43593657D02*
X145619333Y-43688895D01*
X145619333Y-43688895D02*
X145619333Y-43831752D01*
X145619333Y-43831752D02*
X145571714Y-43926990D01*
X145571714Y-43926990D02*
X145524095Y-43974609D01*
X145524095Y-43974609D02*
X145428857Y-44022228D01*
X145428857Y-44022228D02*
X145047905Y-44022228D01*
X145952667Y-43498419D02*
X146571714Y-43498419D01*
X146571714Y-43498419D02*
X146238381Y-43879371D01*
X146238381Y-43879371D02*
X146381238Y-43879371D01*
X146381238Y-43879371D02*
X146476476Y-43926990D01*
X146476476Y-43926990D02*
X146524095Y-43974609D01*
X146524095Y-43974609D02*
X146571714Y-44069847D01*
X146571714Y-44069847D02*
X146571714Y-44307942D01*
X146571714Y-44307942D02*
X146524095Y-44403180D01*
X146524095Y-44403180D02*
X146476476Y-44450800D01*
X146476476Y-44450800D02*
X146381238Y-44498419D01*
X146381238Y-44498419D02*
X146095524Y-44498419D01*
X146095524Y-44498419D02*
X146000286Y-44450800D01*
X146000286Y-44450800D02*
X145952667Y-44403180D01*
X141362133Y-61439019D02*
X141028800Y-60962828D01*
X140790705Y-61439019D02*
X140790705Y-60439019D01*
X140790705Y-60439019D02*
X141171657Y-60439019D01*
X141171657Y-60439019D02*
X141266895Y-60486638D01*
X141266895Y-60486638D02*
X141314514Y-60534257D01*
X141314514Y-60534257D02*
X141362133Y-60629495D01*
X141362133Y-60629495D02*
X141362133Y-60772352D01*
X141362133Y-60772352D02*
X141314514Y-60867590D01*
X141314514Y-60867590D02*
X141266895Y-60915209D01*
X141266895Y-60915209D02*
X141171657Y-60962828D01*
X141171657Y-60962828D02*
X140790705Y-60962828D01*
X141838324Y-61439019D02*
X142028800Y-61439019D01*
X142028800Y-61439019D02*
X142124038Y-61391400D01*
X142124038Y-61391400D02*
X142171657Y-61343780D01*
X142171657Y-61343780D02*
X142266895Y-61200923D01*
X142266895Y-61200923D02*
X142314514Y-61010447D01*
X142314514Y-61010447D02*
X142314514Y-60629495D01*
X142314514Y-60629495D02*
X142266895Y-60534257D01*
X142266895Y-60534257D02*
X142219276Y-60486638D01*
X142219276Y-60486638D02*
X142124038Y-60439019D01*
X142124038Y-60439019D02*
X141933562Y-60439019D01*
X141933562Y-60439019D02*
X141838324Y-60486638D01*
X141838324Y-60486638D02*
X141790705Y-60534257D01*
X141790705Y-60534257D02*
X141743086Y-60629495D01*
X141743086Y-60629495D02*
X141743086Y-60867590D01*
X141743086Y-60867590D02*
X141790705Y-60962828D01*
X141790705Y-60962828D02*
X141838324Y-61010447D01*
X141838324Y-61010447D02*
X141933562Y-61058066D01*
X141933562Y-61058066D02*
X142124038Y-61058066D01*
X142124038Y-61058066D02*
X142219276Y-61010447D01*
X142219276Y-61010447D02*
X142266895Y-60962828D01*
X142266895Y-60962828D02*
X142314514Y-60867590D01*
X117440333Y-47654380D02*
X117392714Y-47702000D01*
X117392714Y-47702000D02*
X117249857Y-47749619D01*
X117249857Y-47749619D02*
X117154619Y-47749619D01*
X117154619Y-47749619D02*
X117011762Y-47702000D01*
X117011762Y-47702000D02*
X116916524Y-47606761D01*
X116916524Y-47606761D02*
X116868905Y-47511523D01*
X116868905Y-47511523D02*
X116821286Y-47321047D01*
X116821286Y-47321047D02*
X116821286Y-47178190D01*
X116821286Y-47178190D02*
X116868905Y-46987714D01*
X116868905Y-46987714D02*
X116916524Y-46892476D01*
X116916524Y-46892476D02*
X117011762Y-46797238D01*
X117011762Y-46797238D02*
X117154619Y-46749619D01*
X117154619Y-46749619D02*
X117249857Y-46749619D01*
X117249857Y-46749619D02*
X117392714Y-46797238D01*
X117392714Y-46797238D02*
X117440333Y-46844857D01*
X117773667Y-46749619D02*
X118392714Y-46749619D01*
X118392714Y-46749619D02*
X118059381Y-47130571D01*
X118059381Y-47130571D02*
X118202238Y-47130571D01*
X118202238Y-47130571D02*
X118297476Y-47178190D01*
X118297476Y-47178190D02*
X118345095Y-47225809D01*
X118345095Y-47225809D02*
X118392714Y-47321047D01*
X118392714Y-47321047D02*
X118392714Y-47559142D01*
X118392714Y-47559142D02*
X118345095Y-47654380D01*
X118345095Y-47654380D02*
X118297476Y-47702000D01*
X118297476Y-47702000D02*
X118202238Y-47749619D01*
X118202238Y-47749619D02*
X117916524Y-47749619D01*
X117916524Y-47749619D02*
X117821286Y-47702000D01*
X117821286Y-47702000D02*
X117773667Y-47654380D01*
X105122742Y-72184419D02*
X104789409Y-71708228D01*
X104551314Y-72184419D02*
X104551314Y-71184419D01*
X104551314Y-71184419D02*
X104932266Y-71184419D01*
X104932266Y-71184419D02*
X105027504Y-71232038D01*
X105027504Y-71232038D02*
X105075123Y-71279657D01*
X105075123Y-71279657D02*
X105122742Y-71374895D01*
X105122742Y-71374895D02*
X105122742Y-71517752D01*
X105122742Y-71517752D02*
X105075123Y-71612990D01*
X105075123Y-71612990D02*
X105027504Y-71660609D01*
X105027504Y-71660609D02*
X104932266Y-71708228D01*
X104932266Y-71708228D02*
X104551314Y-71708228D01*
X106075123Y-72184419D02*
X105503695Y-72184419D01*
X105789409Y-72184419D02*
X105789409Y-71184419D01*
X105789409Y-71184419D02*
X105694171Y-71327276D01*
X105694171Y-71327276D02*
X105598933Y-71422514D01*
X105598933Y-71422514D02*
X105503695Y-71470133D01*
X106694171Y-71184419D02*
X106789409Y-71184419D01*
X106789409Y-71184419D02*
X106884647Y-71232038D01*
X106884647Y-71232038D02*
X106932266Y-71279657D01*
X106932266Y-71279657D02*
X106979885Y-71374895D01*
X106979885Y-71374895D02*
X107027504Y-71565371D01*
X107027504Y-71565371D02*
X107027504Y-71803466D01*
X107027504Y-71803466D02*
X106979885Y-71993942D01*
X106979885Y-71993942D02*
X106932266Y-72089180D01*
X106932266Y-72089180D02*
X106884647Y-72136800D01*
X106884647Y-72136800D02*
X106789409Y-72184419D01*
X106789409Y-72184419D02*
X106694171Y-72184419D01*
X106694171Y-72184419D02*
X106598933Y-72136800D01*
X106598933Y-72136800D02*
X106551314Y-72089180D01*
X106551314Y-72089180D02*
X106503695Y-71993942D01*
X106503695Y-71993942D02*
X106456076Y-71803466D01*
X106456076Y-71803466D02*
X106456076Y-71565371D01*
X106456076Y-71565371D02*
X106503695Y-71374895D01*
X106503695Y-71374895D02*
X106551314Y-71279657D01*
X106551314Y-71279657D02*
X106598933Y-71232038D01*
X106598933Y-71232038D02*
X106694171Y-71184419D01*
X134859642Y-111191080D02*
X134812023Y-111238700D01*
X134812023Y-111238700D02*
X134669166Y-111286319D01*
X134669166Y-111286319D02*
X134573928Y-111286319D01*
X134573928Y-111286319D02*
X134431071Y-111238700D01*
X134431071Y-111238700D02*
X134335833Y-111143461D01*
X134335833Y-111143461D02*
X134288214Y-111048223D01*
X134288214Y-111048223D02*
X134240595Y-110857747D01*
X134240595Y-110857747D02*
X134240595Y-110714890D01*
X134240595Y-110714890D02*
X134288214Y-110524414D01*
X134288214Y-110524414D02*
X134335833Y-110429176D01*
X134335833Y-110429176D02*
X134431071Y-110333938D01*
X134431071Y-110333938D02*
X134573928Y-110286319D01*
X134573928Y-110286319D02*
X134669166Y-110286319D01*
X134669166Y-110286319D02*
X134812023Y-110333938D01*
X134812023Y-110333938D02*
X134859642Y-110381557D01*
X135192976Y-110286319D02*
X135812023Y-110286319D01*
X135812023Y-110286319D02*
X135478690Y-110667271D01*
X135478690Y-110667271D02*
X135621547Y-110667271D01*
X135621547Y-110667271D02*
X135716785Y-110714890D01*
X135716785Y-110714890D02*
X135764404Y-110762509D01*
X135764404Y-110762509D02*
X135812023Y-110857747D01*
X135812023Y-110857747D02*
X135812023Y-111095842D01*
X135812023Y-111095842D02*
X135764404Y-111191080D01*
X135764404Y-111191080D02*
X135716785Y-111238700D01*
X135716785Y-111238700D02*
X135621547Y-111286319D01*
X135621547Y-111286319D02*
X135335833Y-111286319D01*
X135335833Y-111286319D02*
X135240595Y-111238700D01*
X135240595Y-111238700D02*
X135192976Y-111191080D01*
X136192976Y-110381557D02*
X136240595Y-110333938D01*
X136240595Y-110333938D02*
X136335833Y-110286319D01*
X136335833Y-110286319D02*
X136573928Y-110286319D01*
X136573928Y-110286319D02*
X136669166Y-110333938D01*
X136669166Y-110333938D02*
X136716785Y-110381557D01*
X136716785Y-110381557D02*
X136764404Y-110476795D01*
X136764404Y-110476795D02*
X136764404Y-110572033D01*
X136764404Y-110572033D02*
X136716785Y-110714890D01*
X136716785Y-110714890D02*
X136145357Y-111286319D01*
X136145357Y-111286319D02*
X136764404Y-111286319D01*
X111574342Y-92815580D02*
X111526723Y-92863200D01*
X111526723Y-92863200D02*
X111383866Y-92910819D01*
X111383866Y-92910819D02*
X111288628Y-92910819D01*
X111288628Y-92910819D02*
X111145771Y-92863200D01*
X111145771Y-92863200D02*
X111050533Y-92767961D01*
X111050533Y-92767961D02*
X111002914Y-92672723D01*
X111002914Y-92672723D02*
X110955295Y-92482247D01*
X110955295Y-92482247D02*
X110955295Y-92339390D01*
X110955295Y-92339390D02*
X111002914Y-92148914D01*
X111002914Y-92148914D02*
X111050533Y-92053676D01*
X111050533Y-92053676D02*
X111145771Y-91958438D01*
X111145771Y-91958438D02*
X111288628Y-91910819D01*
X111288628Y-91910819D02*
X111383866Y-91910819D01*
X111383866Y-91910819D02*
X111526723Y-91958438D01*
X111526723Y-91958438D02*
X111574342Y-92006057D01*
X111955295Y-92006057D02*
X112002914Y-91958438D01*
X112002914Y-91958438D02*
X112098152Y-91910819D01*
X112098152Y-91910819D02*
X112336247Y-91910819D01*
X112336247Y-91910819D02*
X112431485Y-91958438D01*
X112431485Y-91958438D02*
X112479104Y-92006057D01*
X112479104Y-92006057D02*
X112526723Y-92101295D01*
X112526723Y-92101295D02*
X112526723Y-92196533D01*
X112526723Y-92196533D02*
X112479104Y-92339390D01*
X112479104Y-92339390D02*
X111907676Y-92910819D01*
X111907676Y-92910819D02*
X112526723Y-92910819D01*
X113383866Y-92244152D02*
X113383866Y-92910819D01*
X113145771Y-91863200D02*
X112907676Y-92577485D01*
X112907676Y-92577485D02*
X113526723Y-92577485D01*
X143132505Y-42212419D02*
X143132505Y-41212419D01*
X143132505Y-41212419D02*
X143370600Y-41212419D01*
X143370600Y-41212419D02*
X143513457Y-41260038D01*
X143513457Y-41260038D02*
X143608695Y-41355276D01*
X143608695Y-41355276D02*
X143656314Y-41450514D01*
X143656314Y-41450514D02*
X143703933Y-41640990D01*
X143703933Y-41640990D02*
X143703933Y-41783847D01*
X143703933Y-41783847D02*
X143656314Y-41974323D01*
X143656314Y-41974323D02*
X143608695Y-42069561D01*
X143608695Y-42069561D02*
X143513457Y-42164800D01*
X143513457Y-42164800D02*
X143370600Y-42212419D01*
X143370600Y-42212419D02*
X143132505Y-42212419D01*
X144608695Y-41212419D02*
X144132505Y-41212419D01*
X144132505Y-41212419D02*
X144084886Y-41688609D01*
X144084886Y-41688609D02*
X144132505Y-41640990D01*
X144132505Y-41640990D02*
X144227743Y-41593371D01*
X144227743Y-41593371D02*
X144465838Y-41593371D01*
X144465838Y-41593371D02*
X144561076Y-41640990D01*
X144561076Y-41640990D02*
X144608695Y-41688609D01*
X144608695Y-41688609D02*
X144656314Y-41783847D01*
X144656314Y-41783847D02*
X144656314Y-42021942D01*
X144656314Y-42021942D02*
X144608695Y-42117180D01*
X144608695Y-42117180D02*
X144561076Y-42164800D01*
X144561076Y-42164800D02*
X144465838Y-42212419D01*
X144465838Y-42212419D02*
X144227743Y-42212419D01*
X144227743Y-42212419D02*
X144132505Y-42164800D01*
X144132505Y-42164800D02*
X144084886Y-42117180D01*
X120921542Y-85798819D02*
X120588209Y-85322628D01*
X120350114Y-85798819D02*
X120350114Y-84798819D01*
X120350114Y-84798819D02*
X120731066Y-84798819D01*
X120731066Y-84798819D02*
X120826304Y-84846438D01*
X120826304Y-84846438D02*
X120873923Y-84894057D01*
X120873923Y-84894057D02*
X120921542Y-84989295D01*
X120921542Y-84989295D02*
X120921542Y-85132152D01*
X120921542Y-85132152D02*
X120873923Y-85227390D01*
X120873923Y-85227390D02*
X120826304Y-85275009D01*
X120826304Y-85275009D02*
X120731066Y-85322628D01*
X120731066Y-85322628D02*
X120350114Y-85322628D01*
X121873923Y-85798819D02*
X121302495Y-85798819D01*
X121588209Y-85798819D02*
X121588209Y-84798819D01*
X121588209Y-84798819D02*
X121492971Y-84941676D01*
X121492971Y-84941676D02*
X121397733Y-85036914D01*
X121397733Y-85036914D02*
X121302495Y-85084533D01*
X122207257Y-84798819D02*
X122873923Y-84798819D01*
X122873923Y-84798819D02*
X122445352Y-85798819D01*
X135314642Y-93853080D02*
X135267023Y-93900700D01*
X135267023Y-93900700D02*
X135124166Y-93948319D01*
X135124166Y-93948319D02*
X135028928Y-93948319D01*
X135028928Y-93948319D02*
X134886071Y-93900700D01*
X134886071Y-93900700D02*
X134790833Y-93805461D01*
X134790833Y-93805461D02*
X134743214Y-93710223D01*
X134743214Y-93710223D02*
X134695595Y-93519747D01*
X134695595Y-93519747D02*
X134695595Y-93376890D01*
X134695595Y-93376890D02*
X134743214Y-93186414D01*
X134743214Y-93186414D02*
X134790833Y-93091176D01*
X134790833Y-93091176D02*
X134886071Y-92995938D01*
X134886071Y-92995938D02*
X135028928Y-92948319D01*
X135028928Y-92948319D02*
X135124166Y-92948319D01*
X135124166Y-92948319D02*
X135267023Y-92995938D01*
X135267023Y-92995938D02*
X135314642Y-93043557D01*
X135695595Y-93043557D02*
X135743214Y-92995938D01*
X135743214Y-92995938D02*
X135838452Y-92948319D01*
X135838452Y-92948319D02*
X136076547Y-92948319D01*
X136076547Y-92948319D02*
X136171785Y-92995938D01*
X136171785Y-92995938D02*
X136219404Y-93043557D01*
X136219404Y-93043557D02*
X136267023Y-93138795D01*
X136267023Y-93138795D02*
X136267023Y-93234033D01*
X136267023Y-93234033D02*
X136219404Y-93376890D01*
X136219404Y-93376890D02*
X135647976Y-93948319D01*
X135647976Y-93948319D02*
X136267023Y-93948319D01*
X136600357Y-92948319D02*
X137267023Y-92948319D01*
X137267023Y-92948319D02*
X136838452Y-93948319D01*
X100399442Y-73968780D02*
X100351823Y-74016400D01*
X100351823Y-74016400D02*
X100208966Y-74064019D01*
X100208966Y-74064019D02*
X100113728Y-74064019D01*
X100113728Y-74064019D02*
X99970871Y-74016400D01*
X99970871Y-74016400D02*
X99875633Y-73921161D01*
X99875633Y-73921161D02*
X99828014Y-73825923D01*
X99828014Y-73825923D02*
X99780395Y-73635447D01*
X99780395Y-73635447D02*
X99780395Y-73492590D01*
X99780395Y-73492590D02*
X99828014Y-73302114D01*
X99828014Y-73302114D02*
X99875633Y-73206876D01*
X99875633Y-73206876D02*
X99970871Y-73111638D01*
X99970871Y-73111638D02*
X100113728Y-73064019D01*
X100113728Y-73064019D02*
X100208966Y-73064019D01*
X100208966Y-73064019D02*
X100351823Y-73111638D01*
X100351823Y-73111638D02*
X100399442Y-73159257D01*
X101351823Y-74064019D02*
X100780395Y-74064019D01*
X101066109Y-74064019D02*
X101066109Y-73064019D01*
X101066109Y-73064019D02*
X100970871Y-73206876D01*
X100970871Y-73206876D02*
X100875633Y-73302114D01*
X100875633Y-73302114D02*
X100780395Y-73349733D01*
X101685157Y-73064019D02*
X102351823Y-73064019D01*
X102351823Y-73064019D02*
X101923252Y-74064019D01*
X117265842Y-85755619D02*
X116932509Y-85279428D01*
X116694414Y-85755619D02*
X116694414Y-84755619D01*
X116694414Y-84755619D02*
X117075366Y-84755619D01*
X117075366Y-84755619D02*
X117170604Y-84803238D01*
X117170604Y-84803238D02*
X117218223Y-84850857D01*
X117218223Y-84850857D02*
X117265842Y-84946095D01*
X117265842Y-84946095D02*
X117265842Y-85088952D01*
X117265842Y-85088952D02*
X117218223Y-85184190D01*
X117218223Y-85184190D02*
X117170604Y-85231809D01*
X117170604Y-85231809D02*
X117075366Y-85279428D01*
X117075366Y-85279428D02*
X116694414Y-85279428D01*
X118218223Y-85755619D02*
X117646795Y-85755619D01*
X117932509Y-85755619D02*
X117932509Y-84755619D01*
X117932509Y-84755619D02*
X117837271Y-84898476D01*
X117837271Y-84898476D02*
X117742033Y-84993714D01*
X117742033Y-84993714D02*
X117646795Y-85041333D01*
X119075366Y-84755619D02*
X118884890Y-84755619D01*
X118884890Y-84755619D02*
X118789652Y-84803238D01*
X118789652Y-84803238D02*
X118742033Y-84850857D01*
X118742033Y-84850857D02*
X118646795Y-84993714D01*
X118646795Y-84993714D02*
X118599176Y-85184190D01*
X118599176Y-85184190D02*
X118599176Y-85565142D01*
X118599176Y-85565142D02*
X118646795Y-85660380D01*
X118646795Y-85660380D02*
X118694414Y-85708000D01*
X118694414Y-85708000D02*
X118789652Y-85755619D01*
X118789652Y-85755619D02*
X118980128Y-85755619D01*
X118980128Y-85755619D02*
X119075366Y-85708000D01*
X119075366Y-85708000D02*
X119122985Y-85660380D01*
X119122985Y-85660380D02*
X119170604Y-85565142D01*
X119170604Y-85565142D02*
X119170604Y-85327047D01*
X119170604Y-85327047D02*
X119122985Y-85231809D01*
X119122985Y-85231809D02*
X119075366Y-85184190D01*
X119075366Y-85184190D02*
X118980128Y-85136571D01*
X118980128Y-85136571D02*
X118789652Y-85136571D01*
X118789652Y-85136571D02*
X118694414Y-85184190D01*
X118694414Y-85184190D02*
X118646795Y-85231809D01*
X118646795Y-85231809D02*
X118599176Y-85327047D01*
X77043542Y-82744819D02*
X76710209Y-82268628D01*
X76472114Y-82744819D02*
X76472114Y-81744819D01*
X76472114Y-81744819D02*
X76853066Y-81744819D01*
X76853066Y-81744819D02*
X76948304Y-81792438D01*
X76948304Y-81792438D02*
X76995923Y-81840057D01*
X76995923Y-81840057D02*
X77043542Y-81935295D01*
X77043542Y-81935295D02*
X77043542Y-82078152D01*
X77043542Y-82078152D02*
X76995923Y-82173390D01*
X76995923Y-82173390D02*
X76948304Y-82221009D01*
X76948304Y-82221009D02*
X76853066Y-82268628D01*
X76853066Y-82268628D02*
X76472114Y-82268628D01*
X77995923Y-82744819D02*
X77424495Y-82744819D01*
X77710209Y-82744819D02*
X77710209Y-81744819D01*
X77710209Y-81744819D02*
X77614971Y-81887676D01*
X77614971Y-81887676D02*
X77519733Y-81982914D01*
X77519733Y-81982914D02*
X77424495Y-82030533D01*
X78853066Y-82078152D02*
X78853066Y-82744819D01*
X78614971Y-81697200D02*
X78376876Y-82411485D01*
X78376876Y-82411485D02*
X78995923Y-82411485D01*
X109064933Y-45837919D02*
X108731600Y-45361728D01*
X108493505Y-45837919D02*
X108493505Y-44837919D01*
X108493505Y-44837919D02*
X108874457Y-44837919D01*
X108874457Y-44837919D02*
X108969695Y-44885538D01*
X108969695Y-44885538D02*
X109017314Y-44933157D01*
X109017314Y-44933157D02*
X109064933Y-45028395D01*
X109064933Y-45028395D02*
X109064933Y-45171252D01*
X109064933Y-45171252D02*
X109017314Y-45266490D01*
X109017314Y-45266490D02*
X108969695Y-45314109D01*
X108969695Y-45314109D02*
X108874457Y-45361728D01*
X108874457Y-45361728D02*
X108493505Y-45361728D01*
X109922076Y-45171252D02*
X109922076Y-45837919D01*
X109683981Y-44790300D02*
X109445886Y-45504585D01*
X109445886Y-45504585D02*
X110064933Y-45504585D01*
X133672342Y-64316780D02*
X133624723Y-64364400D01*
X133624723Y-64364400D02*
X133481866Y-64412019D01*
X133481866Y-64412019D02*
X133386628Y-64412019D01*
X133386628Y-64412019D02*
X133243771Y-64364400D01*
X133243771Y-64364400D02*
X133148533Y-64269161D01*
X133148533Y-64269161D02*
X133100914Y-64173923D01*
X133100914Y-64173923D02*
X133053295Y-63983447D01*
X133053295Y-63983447D02*
X133053295Y-63840590D01*
X133053295Y-63840590D02*
X133100914Y-63650114D01*
X133100914Y-63650114D02*
X133148533Y-63554876D01*
X133148533Y-63554876D02*
X133243771Y-63459638D01*
X133243771Y-63459638D02*
X133386628Y-63412019D01*
X133386628Y-63412019D02*
X133481866Y-63412019D01*
X133481866Y-63412019D02*
X133624723Y-63459638D01*
X133624723Y-63459638D02*
X133672342Y-63507257D01*
X134624723Y-64412019D02*
X134053295Y-64412019D01*
X134339009Y-64412019D02*
X134339009Y-63412019D01*
X134339009Y-63412019D02*
X134243771Y-63554876D01*
X134243771Y-63554876D02*
X134148533Y-63650114D01*
X134148533Y-63650114D02*
X134053295Y-63697733D01*
X134958057Y-63412019D02*
X135577104Y-63412019D01*
X135577104Y-63412019D02*
X135243771Y-63792971D01*
X135243771Y-63792971D02*
X135386628Y-63792971D01*
X135386628Y-63792971D02*
X135481866Y-63840590D01*
X135481866Y-63840590D02*
X135529485Y-63888209D01*
X135529485Y-63888209D02*
X135577104Y-63983447D01*
X135577104Y-63983447D02*
X135577104Y-64221542D01*
X135577104Y-64221542D02*
X135529485Y-64316780D01*
X135529485Y-64316780D02*
X135481866Y-64364400D01*
X135481866Y-64364400D02*
X135386628Y-64412019D01*
X135386628Y-64412019D02*
X135100914Y-64412019D01*
X135100914Y-64412019D02*
X135005676Y-64364400D01*
X135005676Y-64364400D02*
X134958057Y-64316780D01*
X118359642Y-111191080D02*
X118312023Y-111238700D01*
X118312023Y-111238700D02*
X118169166Y-111286319D01*
X118169166Y-111286319D02*
X118073928Y-111286319D01*
X118073928Y-111286319D02*
X117931071Y-111238700D01*
X117931071Y-111238700D02*
X117835833Y-111143461D01*
X117835833Y-111143461D02*
X117788214Y-111048223D01*
X117788214Y-111048223D02*
X117740595Y-110857747D01*
X117740595Y-110857747D02*
X117740595Y-110714890D01*
X117740595Y-110714890D02*
X117788214Y-110524414D01*
X117788214Y-110524414D02*
X117835833Y-110429176D01*
X117835833Y-110429176D02*
X117931071Y-110333938D01*
X117931071Y-110333938D02*
X118073928Y-110286319D01*
X118073928Y-110286319D02*
X118169166Y-110286319D01*
X118169166Y-110286319D02*
X118312023Y-110333938D01*
X118312023Y-110333938D02*
X118359642Y-110381557D01*
X118692976Y-110286319D02*
X119312023Y-110286319D01*
X119312023Y-110286319D02*
X118978690Y-110667271D01*
X118978690Y-110667271D02*
X119121547Y-110667271D01*
X119121547Y-110667271D02*
X119216785Y-110714890D01*
X119216785Y-110714890D02*
X119264404Y-110762509D01*
X119264404Y-110762509D02*
X119312023Y-110857747D01*
X119312023Y-110857747D02*
X119312023Y-111095842D01*
X119312023Y-111095842D02*
X119264404Y-111191080D01*
X119264404Y-111191080D02*
X119216785Y-111238700D01*
X119216785Y-111238700D02*
X119121547Y-111286319D01*
X119121547Y-111286319D02*
X118835833Y-111286319D01*
X118835833Y-111286319D02*
X118740595Y-111238700D01*
X118740595Y-111238700D02*
X118692976Y-111191080D01*
X120264404Y-111286319D02*
X119692976Y-111286319D01*
X119978690Y-111286319D02*
X119978690Y-110286319D01*
X119978690Y-110286319D02*
X119883452Y-110429176D01*
X119883452Y-110429176D02*
X119788214Y-110524414D01*
X119788214Y-110524414D02*
X119692976Y-110572033D01*
X118076742Y-89005580D02*
X118029123Y-89053200D01*
X118029123Y-89053200D02*
X117886266Y-89100819D01*
X117886266Y-89100819D02*
X117791028Y-89100819D01*
X117791028Y-89100819D02*
X117648171Y-89053200D01*
X117648171Y-89053200D02*
X117552933Y-88957961D01*
X117552933Y-88957961D02*
X117505314Y-88862723D01*
X117505314Y-88862723D02*
X117457695Y-88672247D01*
X117457695Y-88672247D02*
X117457695Y-88529390D01*
X117457695Y-88529390D02*
X117505314Y-88338914D01*
X117505314Y-88338914D02*
X117552933Y-88243676D01*
X117552933Y-88243676D02*
X117648171Y-88148438D01*
X117648171Y-88148438D02*
X117791028Y-88100819D01*
X117791028Y-88100819D02*
X117886266Y-88100819D01*
X117886266Y-88100819D02*
X118029123Y-88148438D01*
X118029123Y-88148438D02*
X118076742Y-88196057D01*
X118457695Y-88196057D02*
X118505314Y-88148438D01*
X118505314Y-88148438D02*
X118600552Y-88100819D01*
X118600552Y-88100819D02*
X118838647Y-88100819D01*
X118838647Y-88100819D02*
X118933885Y-88148438D01*
X118933885Y-88148438D02*
X118981504Y-88196057D01*
X118981504Y-88196057D02*
X119029123Y-88291295D01*
X119029123Y-88291295D02*
X119029123Y-88386533D01*
X119029123Y-88386533D02*
X118981504Y-88529390D01*
X118981504Y-88529390D02*
X118410076Y-89100819D01*
X118410076Y-89100819D02*
X119029123Y-89100819D01*
X119410076Y-88196057D02*
X119457695Y-88148438D01*
X119457695Y-88148438D02*
X119552933Y-88100819D01*
X119552933Y-88100819D02*
X119791028Y-88100819D01*
X119791028Y-88100819D02*
X119886266Y-88148438D01*
X119886266Y-88148438D02*
X119933885Y-88196057D01*
X119933885Y-88196057D02*
X119981504Y-88291295D01*
X119981504Y-88291295D02*
X119981504Y-88386533D01*
X119981504Y-88386533D02*
X119933885Y-88529390D01*
X119933885Y-88529390D02*
X119362457Y-89100819D01*
X119362457Y-89100819D02*
X119981504Y-89100819D01*
X108494533Y-61567219D02*
X108161200Y-61091028D01*
X107923105Y-61567219D02*
X107923105Y-60567219D01*
X107923105Y-60567219D02*
X108304057Y-60567219D01*
X108304057Y-60567219D02*
X108399295Y-60614838D01*
X108399295Y-60614838D02*
X108446914Y-60662457D01*
X108446914Y-60662457D02*
X108494533Y-60757695D01*
X108494533Y-60757695D02*
X108494533Y-60900552D01*
X108494533Y-60900552D02*
X108446914Y-60995790D01*
X108446914Y-60995790D02*
X108399295Y-61043409D01*
X108399295Y-61043409D02*
X108304057Y-61091028D01*
X108304057Y-61091028D02*
X107923105Y-61091028D01*
X109065962Y-60995790D02*
X108970724Y-60948171D01*
X108970724Y-60948171D02*
X108923105Y-60900552D01*
X108923105Y-60900552D02*
X108875486Y-60805314D01*
X108875486Y-60805314D02*
X108875486Y-60757695D01*
X108875486Y-60757695D02*
X108923105Y-60662457D01*
X108923105Y-60662457D02*
X108970724Y-60614838D01*
X108970724Y-60614838D02*
X109065962Y-60567219D01*
X109065962Y-60567219D02*
X109256438Y-60567219D01*
X109256438Y-60567219D02*
X109351676Y-60614838D01*
X109351676Y-60614838D02*
X109399295Y-60662457D01*
X109399295Y-60662457D02*
X109446914Y-60757695D01*
X109446914Y-60757695D02*
X109446914Y-60805314D01*
X109446914Y-60805314D02*
X109399295Y-60900552D01*
X109399295Y-60900552D02*
X109351676Y-60948171D01*
X109351676Y-60948171D02*
X109256438Y-60995790D01*
X109256438Y-60995790D02*
X109065962Y-60995790D01*
X109065962Y-60995790D02*
X108970724Y-61043409D01*
X108970724Y-61043409D02*
X108923105Y-61091028D01*
X108923105Y-61091028D02*
X108875486Y-61186266D01*
X108875486Y-61186266D02*
X108875486Y-61376742D01*
X108875486Y-61376742D02*
X108923105Y-61471980D01*
X108923105Y-61471980D02*
X108970724Y-61519600D01*
X108970724Y-61519600D02*
X109065962Y-61567219D01*
X109065962Y-61567219D02*
X109256438Y-61567219D01*
X109256438Y-61567219D02*
X109351676Y-61519600D01*
X109351676Y-61519600D02*
X109399295Y-61471980D01*
X109399295Y-61471980D02*
X109446914Y-61376742D01*
X109446914Y-61376742D02*
X109446914Y-61186266D01*
X109446914Y-61186266D02*
X109399295Y-61091028D01*
X109399295Y-61091028D02*
X109351676Y-61043409D01*
X109351676Y-61043409D02*
X109256438Y-60995790D01*
X136468305Y-78839219D02*
X136468305Y-77839219D01*
X136468305Y-77839219D02*
X136706400Y-77839219D01*
X136706400Y-77839219D02*
X136849257Y-77886838D01*
X136849257Y-77886838D02*
X136944495Y-77982076D01*
X136944495Y-77982076D02*
X136992114Y-78077314D01*
X136992114Y-78077314D02*
X137039733Y-78267790D01*
X137039733Y-78267790D02*
X137039733Y-78410647D01*
X137039733Y-78410647D02*
X136992114Y-78601123D01*
X136992114Y-78601123D02*
X136944495Y-78696361D01*
X136944495Y-78696361D02*
X136849257Y-78791600D01*
X136849257Y-78791600D02*
X136706400Y-78839219D01*
X136706400Y-78839219D02*
X136468305Y-78839219D01*
X137515924Y-78839219D02*
X137706400Y-78839219D01*
X137706400Y-78839219D02*
X137801638Y-78791600D01*
X137801638Y-78791600D02*
X137849257Y-78743980D01*
X137849257Y-78743980D02*
X137944495Y-78601123D01*
X137944495Y-78601123D02*
X137992114Y-78410647D01*
X137992114Y-78410647D02*
X137992114Y-78029695D01*
X137992114Y-78029695D02*
X137944495Y-77934457D01*
X137944495Y-77934457D02*
X137896876Y-77886838D01*
X137896876Y-77886838D02*
X137801638Y-77839219D01*
X137801638Y-77839219D02*
X137611162Y-77839219D01*
X137611162Y-77839219D02*
X137515924Y-77886838D01*
X137515924Y-77886838D02*
X137468305Y-77934457D01*
X137468305Y-77934457D02*
X137420686Y-78029695D01*
X137420686Y-78029695D02*
X137420686Y-78267790D01*
X137420686Y-78267790D02*
X137468305Y-78363028D01*
X137468305Y-78363028D02*
X137515924Y-78410647D01*
X137515924Y-78410647D02*
X137611162Y-78458266D01*
X137611162Y-78458266D02*
X137801638Y-78458266D01*
X137801638Y-78458266D02*
X137896876Y-78410647D01*
X137896876Y-78410647D02*
X137944495Y-78363028D01*
X137944495Y-78363028D02*
X137992114Y-78267790D01*
X118806933Y-45266780D02*
X118759314Y-45314400D01*
X118759314Y-45314400D02*
X118616457Y-45362019D01*
X118616457Y-45362019D02*
X118521219Y-45362019D01*
X118521219Y-45362019D02*
X118378362Y-45314400D01*
X118378362Y-45314400D02*
X118283124Y-45219161D01*
X118283124Y-45219161D02*
X118235505Y-45123923D01*
X118235505Y-45123923D02*
X118187886Y-44933447D01*
X118187886Y-44933447D02*
X118187886Y-44790590D01*
X118187886Y-44790590D02*
X118235505Y-44600114D01*
X118235505Y-44600114D02*
X118283124Y-44504876D01*
X118283124Y-44504876D02*
X118378362Y-44409638D01*
X118378362Y-44409638D02*
X118521219Y-44362019D01*
X118521219Y-44362019D02*
X118616457Y-44362019D01*
X118616457Y-44362019D02*
X118759314Y-44409638D01*
X118759314Y-44409638D02*
X118806933Y-44457257D01*
X119759314Y-45362019D02*
X119187886Y-45362019D01*
X119473600Y-45362019D02*
X119473600Y-44362019D01*
X119473600Y-44362019D02*
X119378362Y-44504876D01*
X119378362Y-44504876D02*
X119283124Y-44600114D01*
X119283124Y-44600114D02*
X119187886Y-44647733D01*
X124579142Y-78940819D02*
X124245809Y-78464628D01*
X124007714Y-78940819D02*
X124007714Y-77940819D01*
X124007714Y-77940819D02*
X124388666Y-77940819D01*
X124388666Y-77940819D02*
X124483904Y-77988438D01*
X124483904Y-77988438D02*
X124531523Y-78036057D01*
X124531523Y-78036057D02*
X124579142Y-78131295D01*
X124579142Y-78131295D02*
X124579142Y-78274152D01*
X124579142Y-78274152D02*
X124531523Y-78369390D01*
X124531523Y-78369390D02*
X124483904Y-78417009D01*
X124483904Y-78417009D02*
X124388666Y-78464628D01*
X124388666Y-78464628D02*
X124007714Y-78464628D01*
X125531523Y-78940819D02*
X124960095Y-78940819D01*
X125245809Y-78940819D02*
X125245809Y-77940819D01*
X125245809Y-77940819D02*
X125150571Y-78083676D01*
X125150571Y-78083676D02*
X125055333Y-78178914D01*
X125055333Y-78178914D02*
X124960095Y-78226533D01*
X125864857Y-77940819D02*
X126483904Y-77940819D01*
X126483904Y-77940819D02*
X126150571Y-78321771D01*
X126150571Y-78321771D02*
X126293428Y-78321771D01*
X126293428Y-78321771D02*
X126388666Y-78369390D01*
X126388666Y-78369390D02*
X126436285Y-78417009D01*
X126436285Y-78417009D02*
X126483904Y-78512247D01*
X126483904Y-78512247D02*
X126483904Y-78750342D01*
X126483904Y-78750342D02*
X126436285Y-78845580D01*
X126436285Y-78845580D02*
X126388666Y-78893200D01*
X126388666Y-78893200D02*
X126293428Y-78940819D01*
X126293428Y-78940819D02*
X126007714Y-78940819D01*
X126007714Y-78940819D02*
X125912476Y-78893200D01*
X125912476Y-78893200D02*
X125864857Y-78845580D01*
X112152133Y-60144819D02*
X111818800Y-59668628D01*
X111580705Y-60144819D02*
X111580705Y-59144819D01*
X111580705Y-59144819D02*
X111961657Y-59144819D01*
X111961657Y-59144819D02*
X112056895Y-59192438D01*
X112056895Y-59192438D02*
X112104514Y-59240057D01*
X112104514Y-59240057D02*
X112152133Y-59335295D01*
X112152133Y-59335295D02*
X112152133Y-59478152D01*
X112152133Y-59478152D02*
X112104514Y-59573390D01*
X112104514Y-59573390D02*
X112056895Y-59621009D01*
X112056895Y-59621009D02*
X111961657Y-59668628D01*
X111961657Y-59668628D02*
X111580705Y-59668628D01*
X113009276Y-59144819D02*
X112818800Y-59144819D01*
X112818800Y-59144819D02*
X112723562Y-59192438D01*
X112723562Y-59192438D02*
X112675943Y-59240057D01*
X112675943Y-59240057D02*
X112580705Y-59382914D01*
X112580705Y-59382914D02*
X112533086Y-59573390D01*
X112533086Y-59573390D02*
X112533086Y-59954342D01*
X112533086Y-59954342D02*
X112580705Y-60049580D01*
X112580705Y-60049580D02*
X112628324Y-60097200D01*
X112628324Y-60097200D02*
X112723562Y-60144819D01*
X112723562Y-60144819D02*
X112914038Y-60144819D01*
X112914038Y-60144819D02*
X113009276Y-60097200D01*
X113009276Y-60097200D02*
X113056895Y-60049580D01*
X113056895Y-60049580D02*
X113104514Y-59954342D01*
X113104514Y-59954342D02*
X113104514Y-59716247D01*
X113104514Y-59716247D02*
X113056895Y-59621009D01*
X113056895Y-59621009D02*
X113009276Y-59573390D01*
X113009276Y-59573390D02*
X112914038Y-59525771D01*
X112914038Y-59525771D02*
X112723562Y-59525771D01*
X112723562Y-59525771D02*
X112628324Y-59573390D01*
X112628324Y-59573390D02*
X112580705Y-59621009D01*
X112580705Y-59621009D02*
X112533086Y-59716247D01*
X82434133Y-45622380D02*
X82386514Y-45670000D01*
X82386514Y-45670000D02*
X82243657Y-45717619D01*
X82243657Y-45717619D02*
X82148419Y-45717619D01*
X82148419Y-45717619D02*
X82005562Y-45670000D01*
X82005562Y-45670000D02*
X81910324Y-45574761D01*
X81910324Y-45574761D02*
X81862705Y-45479523D01*
X81862705Y-45479523D02*
X81815086Y-45289047D01*
X81815086Y-45289047D02*
X81815086Y-45146190D01*
X81815086Y-45146190D02*
X81862705Y-44955714D01*
X81862705Y-44955714D02*
X81910324Y-44860476D01*
X81910324Y-44860476D02*
X82005562Y-44765238D01*
X82005562Y-44765238D02*
X82148419Y-44717619D01*
X82148419Y-44717619D02*
X82243657Y-44717619D01*
X82243657Y-44717619D02*
X82386514Y-44765238D01*
X82386514Y-44765238D02*
X82434133Y-44812857D01*
X82815086Y-44812857D02*
X82862705Y-44765238D01*
X82862705Y-44765238D02*
X82957943Y-44717619D01*
X82957943Y-44717619D02*
X83196038Y-44717619D01*
X83196038Y-44717619D02*
X83291276Y-44765238D01*
X83291276Y-44765238D02*
X83338895Y-44812857D01*
X83338895Y-44812857D02*
X83386514Y-44908095D01*
X83386514Y-44908095D02*
X83386514Y-45003333D01*
X83386514Y-45003333D02*
X83338895Y-45146190D01*
X83338895Y-45146190D02*
X82767467Y-45717619D01*
X82767467Y-45717619D02*
X83386514Y-45717619D01*
X141666933Y-45870019D02*
X141333600Y-45393828D01*
X141095505Y-45870019D02*
X141095505Y-44870019D01*
X141095505Y-44870019D02*
X141476457Y-44870019D01*
X141476457Y-44870019D02*
X141571695Y-44917638D01*
X141571695Y-44917638D02*
X141619314Y-44965257D01*
X141619314Y-44965257D02*
X141666933Y-45060495D01*
X141666933Y-45060495D02*
X141666933Y-45203352D01*
X141666933Y-45203352D02*
X141619314Y-45298590D01*
X141619314Y-45298590D02*
X141571695Y-45346209D01*
X141571695Y-45346209D02*
X141476457Y-45393828D01*
X141476457Y-45393828D02*
X141095505Y-45393828D01*
X142571695Y-44870019D02*
X142095505Y-44870019D01*
X142095505Y-44870019D02*
X142047886Y-45346209D01*
X142047886Y-45346209D02*
X142095505Y-45298590D01*
X142095505Y-45298590D02*
X142190743Y-45250971D01*
X142190743Y-45250971D02*
X142428838Y-45250971D01*
X142428838Y-45250971D02*
X142524076Y-45298590D01*
X142524076Y-45298590D02*
X142571695Y-45346209D01*
X142571695Y-45346209D02*
X142619314Y-45441447D01*
X142619314Y-45441447D02*
X142619314Y-45679542D01*
X142619314Y-45679542D02*
X142571695Y-45774780D01*
X142571695Y-45774780D02*
X142524076Y-45822400D01*
X142524076Y-45822400D02*
X142428838Y-45870019D01*
X142428838Y-45870019D02*
X142190743Y-45870019D01*
X142190743Y-45870019D02*
X142095505Y-45822400D01*
X142095505Y-45822400D02*
X142047886Y-45774780D01*
X118814642Y-93853080D02*
X118767023Y-93900700D01*
X118767023Y-93900700D02*
X118624166Y-93948319D01*
X118624166Y-93948319D02*
X118528928Y-93948319D01*
X118528928Y-93948319D02*
X118386071Y-93900700D01*
X118386071Y-93900700D02*
X118290833Y-93805461D01*
X118290833Y-93805461D02*
X118243214Y-93710223D01*
X118243214Y-93710223D02*
X118195595Y-93519747D01*
X118195595Y-93519747D02*
X118195595Y-93376890D01*
X118195595Y-93376890D02*
X118243214Y-93186414D01*
X118243214Y-93186414D02*
X118290833Y-93091176D01*
X118290833Y-93091176D02*
X118386071Y-92995938D01*
X118386071Y-92995938D02*
X118528928Y-92948319D01*
X118528928Y-92948319D02*
X118624166Y-92948319D01*
X118624166Y-92948319D02*
X118767023Y-92995938D01*
X118767023Y-92995938D02*
X118814642Y-93043557D01*
X119195595Y-93043557D02*
X119243214Y-92995938D01*
X119243214Y-92995938D02*
X119338452Y-92948319D01*
X119338452Y-92948319D02*
X119576547Y-92948319D01*
X119576547Y-92948319D02*
X119671785Y-92995938D01*
X119671785Y-92995938D02*
X119719404Y-93043557D01*
X119719404Y-93043557D02*
X119767023Y-93138795D01*
X119767023Y-93138795D02*
X119767023Y-93234033D01*
X119767023Y-93234033D02*
X119719404Y-93376890D01*
X119719404Y-93376890D02*
X119147976Y-93948319D01*
X119147976Y-93948319D02*
X119767023Y-93948319D01*
X120624166Y-92948319D02*
X120433690Y-92948319D01*
X120433690Y-92948319D02*
X120338452Y-92995938D01*
X120338452Y-92995938D02*
X120290833Y-93043557D01*
X120290833Y-93043557D02*
X120195595Y-93186414D01*
X120195595Y-93186414D02*
X120147976Y-93376890D01*
X120147976Y-93376890D02*
X120147976Y-93757842D01*
X120147976Y-93757842D02*
X120195595Y-93853080D01*
X120195595Y-93853080D02*
X120243214Y-93900700D01*
X120243214Y-93900700D02*
X120338452Y-93948319D01*
X120338452Y-93948319D02*
X120528928Y-93948319D01*
X120528928Y-93948319D02*
X120624166Y-93900700D01*
X120624166Y-93900700D02*
X120671785Y-93853080D01*
X120671785Y-93853080D02*
X120719404Y-93757842D01*
X120719404Y-93757842D02*
X120719404Y-93519747D01*
X120719404Y-93519747D02*
X120671785Y-93424509D01*
X120671785Y-93424509D02*
X120624166Y-93376890D01*
X120624166Y-93376890D02*
X120528928Y-93329271D01*
X120528928Y-93329271D02*
X120338452Y-93329271D01*
X120338452Y-93329271D02*
X120243214Y-93376890D01*
X120243214Y-93376890D02*
X120195595Y-93424509D01*
X120195595Y-93424509D02*
X120147976Y-93519747D01*
X98010742Y-88345180D02*
X97963123Y-88392800D01*
X97963123Y-88392800D02*
X97820266Y-88440419D01*
X97820266Y-88440419D02*
X97725028Y-88440419D01*
X97725028Y-88440419D02*
X97582171Y-88392800D01*
X97582171Y-88392800D02*
X97486933Y-88297561D01*
X97486933Y-88297561D02*
X97439314Y-88202323D01*
X97439314Y-88202323D02*
X97391695Y-88011847D01*
X97391695Y-88011847D02*
X97391695Y-87868990D01*
X97391695Y-87868990D02*
X97439314Y-87678514D01*
X97439314Y-87678514D02*
X97486933Y-87583276D01*
X97486933Y-87583276D02*
X97582171Y-87488038D01*
X97582171Y-87488038D02*
X97725028Y-87440419D01*
X97725028Y-87440419D02*
X97820266Y-87440419D01*
X97820266Y-87440419D02*
X97963123Y-87488038D01*
X97963123Y-87488038D02*
X98010742Y-87535657D01*
X98391695Y-87535657D02*
X98439314Y-87488038D01*
X98439314Y-87488038D02*
X98534552Y-87440419D01*
X98534552Y-87440419D02*
X98772647Y-87440419D01*
X98772647Y-87440419D02*
X98867885Y-87488038D01*
X98867885Y-87488038D02*
X98915504Y-87535657D01*
X98915504Y-87535657D02*
X98963123Y-87630895D01*
X98963123Y-87630895D02*
X98963123Y-87726133D01*
X98963123Y-87726133D02*
X98915504Y-87868990D01*
X98915504Y-87868990D02*
X98344076Y-88440419D01*
X98344076Y-88440419D02*
X98963123Y-88440419D01*
X99915504Y-88440419D02*
X99344076Y-88440419D01*
X99629790Y-88440419D02*
X99629790Y-87440419D01*
X99629790Y-87440419D02*
X99534552Y-87583276D01*
X99534552Y-87583276D02*
X99439314Y-87678514D01*
X99439314Y-87678514D02*
X99344076Y-87726133D01*
X122068442Y-63043180D02*
X122020823Y-63090800D01*
X122020823Y-63090800D02*
X121877966Y-63138419D01*
X121877966Y-63138419D02*
X121782728Y-63138419D01*
X121782728Y-63138419D02*
X121639871Y-63090800D01*
X121639871Y-63090800D02*
X121544633Y-62995561D01*
X121544633Y-62995561D02*
X121497014Y-62900323D01*
X121497014Y-62900323D02*
X121449395Y-62709847D01*
X121449395Y-62709847D02*
X121449395Y-62566990D01*
X121449395Y-62566990D02*
X121497014Y-62376514D01*
X121497014Y-62376514D02*
X121544633Y-62281276D01*
X121544633Y-62281276D02*
X121639871Y-62186038D01*
X121639871Y-62186038D02*
X121782728Y-62138419D01*
X121782728Y-62138419D02*
X121877966Y-62138419D01*
X121877966Y-62138419D02*
X122020823Y-62186038D01*
X122020823Y-62186038D02*
X122068442Y-62233657D01*
X123020823Y-63138419D02*
X122449395Y-63138419D01*
X122735109Y-63138419D02*
X122735109Y-62138419D01*
X122735109Y-62138419D02*
X122639871Y-62281276D01*
X122639871Y-62281276D02*
X122544633Y-62376514D01*
X122544633Y-62376514D02*
X122449395Y-62424133D01*
X123401776Y-62233657D02*
X123449395Y-62186038D01*
X123449395Y-62186038D02*
X123544633Y-62138419D01*
X123544633Y-62138419D02*
X123782728Y-62138419D01*
X123782728Y-62138419D02*
X123877966Y-62186038D01*
X123877966Y-62186038D02*
X123925585Y-62233657D01*
X123925585Y-62233657D02*
X123973204Y-62328895D01*
X123973204Y-62328895D02*
X123973204Y-62424133D01*
X123973204Y-62424133D02*
X123925585Y-62566990D01*
X123925585Y-62566990D02*
X123354157Y-63138419D01*
X123354157Y-63138419D02*
X123973204Y-63138419D01*
X136468305Y-67965219D02*
X136468305Y-66965219D01*
X136468305Y-66965219D02*
X136706400Y-66965219D01*
X136706400Y-66965219D02*
X136849257Y-67012838D01*
X136849257Y-67012838D02*
X136944495Y-67108076D01*
X136944495Y-67108076D02*
X136992114Y-67203314D01*
X136992114Y-67203314D02*
X137039733Y-67393790D01*
X137039733Y-67393790D02*
X137039733Y-67536647D01*
X137039733Y-67536647D02*
X136992114Y-67727123D01*
X136992114Y-67727123D02*
X136944495Y-67822361D01*
X136944495Y-67822361D02*
X136849257Y-67917600D01*
X136849257Y-67917600D02*
X136706400Y-67965219D01*
X136706400Y-67965219D02*
X136468305Y-67965219D01*
X137373067Y-66965219D02*
X138039733Y-66965219D01*
X138039733Y-66965219D02*
X137611162Y-67965219D01*
X120822433Y-54512380D02*
X120774814Y-54560000D01*
X120774814Y-54560000D02*
X120631957Y-54607619D01*
X120631957Y-54607619D02*
X120536719Y-54607619D01*
X120536719Y-54607619D02*
X120393862Y-54560000D01*
X120393862Y-54560000D02*
X120298624Y-54464761D01*
X120298624Y-54464761D02*
X120251005Y-54369523D01*
X120251005Y-54369523D02*
X120203386Y-54179047D01*
X120203386Y-54179047D02*
X120203386Y-54036190D01*
X120203386Y-54036190D02*
X120251005Y-53845714D01*
X120251005Y-53845714D02*
X120298624Y-53750476D01*
X120298624Y-53750476D02*
X120393862Y-53655238D01*
X120393862Y-53655238D02*
X120536719Y-53607619D01*
X120536719Y-53607619D02*
X120631957Y-53607619D01*
X120631957Y-53607619D02*
X120774814Y-53655238D01*
X120774814Y-53655238D02*
X120822433Y-53702857D01*
X121393862Y-54036190D02*
X121298624Y-53988571D01*
X121298624Y-53988571D02*
X121251005Y-53940952D01*
X121251005Y-53940952D02*
X121203386Y-53845714D01*
X121203386Y-53845714D02*
X121203386Y-53798095D01*
X121203386Y-53798095D02*
X121251005Y-53702857D01*
X121251005Y-53702857D02*
X121298624Y-53655238D01*
X121298624Y-53655238D02*
X121393862Y-53607619D01*
X121393862Y-53607619D02*
X121584338Y-53607619D01*
X121584338Y-53607619D02*
X121679576Y-53655238D01*
X121679576Y-53655238D02*
X121727195Y-53702857D01*
X121727195Y-53702857D02*
X121774814Y-53798095D01*
X121774814Y-53798095D02*
X121774814Y-53845714D01*
X121774814Y-53845714D02*
X121727195Y-53940952D01*
X121727195Y-53940952D02*
X121679576Y-53988571D01*
X121679576Y-53988571D02*
X121584338Y-54036190D01*
X121584338Y-54036190D02*
X121393862Y-54036190D01*
X121393862Y-54036190D02*
X121298624Y-54083809D01*
X121298624Y-54083809D02*
X121251005Y-54131428D01*
X121251005Y-54131428D02*
X121203386Y-54226666D01*
X121203386Y-54226666D02*
X121203386Y-54417142D01*
X121203386Y-54417142D02*
X121251005Y-54512380D01*
X121251005Y-54512380D02*
X121298624Y-54560000D01*
X121298624Y-54560000D02*
X121393862Y-54607619D01*
X121393862Y-54607619D02*
X121584338Y-54607619D01*
X121584338Y-54607619D02*
X121679576Y-54560000D01*
X121679576Y-54560000D02*
X121727195Y-54512380D01*
X121727195Y-54512380D02*
X121774814Y-54417142D01*
X121774814Y-54417142D02*
X121774814Y-54226666D01*
X121774814Y-54226666D02*
X121727195Y-54131428D01*
X121727195Y-54131428D02*
X121679576Y-54083809D01*
X121679576Y-54083809D02*
X121584338Y-54036190D01*
X86123542Y-105921980D02*
X86075923Y-105969600D01*
X86075923Y-105969600D02*
X85933066Y-106017219D01*
X85933066Y-106017219D02*
X85837828Y-106017219D01*
X85837828Y-106017219D02*
X85694971Y-105969600D01*
X85694971Y-105969600D02*
X85599733Y-105874361D01*
X85599733Y-105874361D02*
X85552114Y-105779123D01*
X85552114Y-105779123D02*
X85504495Y-105588647D01*
X85504495Y-105588647D02*
X85504495Y-105445790D01*
X85504495Y-105445790D02*
X85552114Y-105255314D01*
X85552114Y-105255314D02*
X85599733Y-105160076D01*
X85599733Y-105160076D02*
X85694971Y-105064838D01*
X85694971Y-105064838D02*
X85837828Y-105017219D01*
X85837828Y-105017219D02*
X85933066Y-105017219D01*
X85933066Y-105017219D02*
X86075923Y-105064838D01*
X86075923Y-105064838D02*
X86123542Y-105112457D01*
X86504495Y-105112457D02*
X86552114Y-105064838D01*
X86552114Y-105064838D02*
X86647352Y-105017219D01*
X86647352Y-105017219D02*
X86885447Y-105017219D01*
X86885447Y-105017219D02*
X86980685Y-105064838D01*
X86980685Y-105064838D02*
X87028304Y-105112457D01*
X87028304Y-105112457D02*
X87075923Y-105207695D01*
X87075923Y-105207695D02*
X87075923Y-105302933D01*
X87075923Y-105302933D02*
X87028304Y-105445790D01*
X87028304Y-105445790D02*
X86456876Y-106017219D01*
X86456876Y-106017219D02*
X87075923Y-106017219D01*
X87552114Y-106017219D02*
X87742590Y-106017219D01*
X87742590Y-106017219D02*
X87837828Y-105969600D01*
X87837828Y-105969600D02*
X87885447Y-105921980D01*
X87885447Y-105921980D02*
X87980685Y-105779123D01*
X87980685Y-105779123D02*
X88028304Y-105588647D01*
X88028304Y-105588647D02*
X88028304Y-105207695D01*
X88028304Y-105207695D02*
X87980685Y-105112457D01*
X87980685Y-105112457D02*
X87933066Y-105064838D01*
X87933066Y-105064838D02*
X87837828Y-105017219D01*
X87837828Y-105017219D02*
X87647352Y-105017219D01*
X87647352Y-105017219D02*
X87552114Y-105064838D01*
X87552114Y-105064838D02*
X87504495Y-105112457D01*
X87504495Y-105112457D02*
X87456876Y-105207695D01*
X87456876Y-105207695D02*
X87456876Y-105445790D01*
X87456876Y-105445790D02*
X87504495Y-105541028D01*
X87504495Y-105541028D02*
X87552114Y-105588647D01*
X87552114Y-105588647D02*
X87647352Y-105636266D01*
X87647352Y-105636266D02*
X87837828Y-105636266D01*
X87837828Y-105636266D02*
X87933066Y-105588647D01*
X87933066Y-105588647D02*
X87980685Y-105541028D01*
X87980685Y-105541028D02*
X88028304Y-105445790D01*
X99028942Y-91291580D02*
X98981323Y-91339200D01*
X98981323Y-91339200D02*
X98838466Y-91386819D01*
X98838466Y-91386819D02*
X98743228Y-91386819D01*
X98743228Y-91386819D02*
X98600371Y-91339200D01*
X98600371Y-91339200D02*
X98505133Y-91243961D01*
X98505133Y-91243961D02*
X98457514Y-91148723D01*
X98457514Y-91148723D02*
X98409895Y-90958247D01*
X98409895Y-90958247D02*
X98409895Y-90815390D01*
X98409895Y-90815390D02*
X98457514Y-90624914D01*
X98457514Y-90624914D02*
X98505133Y-90529676D01*
X98505133Y-90529676D02*
X98600371Y-90434438D01*
X98600371Y-90434438D02*
X98743228Y-90386819D01*
X98743228Y-90386819D02*
X98838466Y-90386819D01*
X98838466Y-90386819D02*
X98981323Y-90434438D01*
X98981323Y-90434438D02*
X99028942Y-90482057D01*
X99409895Y-90482057D02*
X99457514Y-90434438D01*
X99457514Y-90434438D02*
X99552752Y-90386819D01*
X99552752Y-90386819D02*
X99790847Y-90386819D01*
X99790847Y-90386819D02*
X99886085Y-90434438D01*
X99886085Y-90434438D02*
X99933704Y-90482057D01*
X99933704Y-90482057D02*
X99981323Y-90577295D01*
X99981323Y-90577295D02*
X99981323Y-90672533D01*
X99981323Y-90672533D02*
X99933704Y-90815390D01*
X99933704Y-90815390D02*
X99362276Y-91386819D01*
X99362276Y-91386819D02*
X99981323Y-91386819D01*
X100314657Y-90386819D02*
X100933704Y-90386819D01*
X100933704Y-90386819D02*
X100600371Y-90767771D01*
X100600371Y-90767771D02*
X100743228Y-90767771D01*
X100743228Y-90767771D02*
X100838466Y-90815390D01*
X100838466Y-90815390D02*
X100886085Y-90863009D01*
X100886085Y-90863009D02*
X100933704Y-90958247D01*
X100933704Y-90958247D02*
X100933704Y-91196342D01*
X100933704Y-91196342D02*
X100886085Y-91291580D01*
X100886085Y-91291580D02*
X100838466Y-91339200D01*
X100838466Y-91339200D02*
X100743228Y-91386819D01*
X100743228Y-91386819D02*
X100457514Y-91386819D01*
X100457514Y-91386819D02*
X100362276Y-91339200D01*
X100362276Y-91339200D02*
X100314657Y-91291580D01*
X102638266Y-59417809D02*
X102304933Y-59417809D01*
X102304933Y-59941619D02*
X102304933Y-58941619D01*
X102304933Y-58941619D02*
X102781123Y-58941619D01*
X103114457Y-59036857D02*
X103162076Y-58989238D01*
X103162076Y-58989238D02*
X103257314Y-58941619D01*
X103257314Y-58941619D02*
X103495409Y-58941619D01*
X103495409Y-58941619D02*
X103590647Y-58989238D01*
X103590647Y-58989238D02*
X103638266Y-59036857D01*
X103638266Y-59036857D02*
X103685885Y-59132095D01*
X103685885Y-59132095D02*
X103685885Y-59227333D01*
X103685885Y-59227333D02*
X103638266Y-59370190D01*
X103638266Y-59370190D02*
X103066838Y-59941619D01*
X103066838Y-59941619D02*
X103685885Y-59941619D01*
X112152133Y-52683580D02*
X112104514Y-52731200D01*
X112104514Y-52731200D02*
X111961657Y-52778819D01*
X111961657Y-52778819D02*
X111866419Y-52778819D01*
X111866419Y-52778819D02*
X111723562Y-52731200D01*
X111723562Y-52731200D02*
X111628324Y-52635961D01*
X111628324Y-52635961D02*
X111580705Y-52540723D01*
X111580705Y-52540723D02*
X111533086Y-52350247D01*
X111533086Y-52350247D02*
X111533086Y-52207390D01*
X111533086Y-52207390D02*
X111580705Y-52016914D01*
X111580705Y-52016914D02*
X111628324Y-51921676D01*
X111628324Y-51921676D02*
X111723562Y-51826438D01*
X111723562Y-51826438D02*
X111866419Y-51778819D01*
X111866419Y-51778819D02*
X111961657Y-51778819D01*
X111961657Y-51778819D02*
X112104514Y-51826438D01*
X112104514Y-51826438D02*
X112152133Y-51874057D01*
X113056895Y-51778819D02*
X112580705Y-51778819D01*
X112580705Y-51778819D02*
X112533086Y-52255009D01*
X112533086Y-52255009D02*
X112580705Y-52207390D01*
X112580705Y-52207390D02*
X112675943Y-52159771D01*
X112675943Y-52159771D02*
X112914038Y-52159771D01*
X112914038Y-52159771D02*
X113009276Y-52207390D01*
X113009276Y-52207390D02*
X113056895Y-52255009D01*
X113056895Y-52255009D02*
X113104514Y-52350247D01*
X113104514Y-52350247D02*
X113104514Y-52588342D01*
X113104514Y-52588342D02*
X113056895Y-52683580D01*
X113056895Y-52683580D02*
X113009276Y-52731200D01*
X113009276Y-52731200D02*
X112914038Y-52778819D01*
X112914038Y-52778819D02*
X112675943Y-52778819D01*
X112675943Y-52778819D02*
X112580705Y-52731200D01*
X112580705Y-52731200D02*
X112533086Y-52683580D01*
X145172133Y-60652819D02*
X144838800Y-60176628D01*
X144600705Y-60652819D02*
X144600705Y-59652819D01*
X144600705Y-59652819D02*
X144981657Y-59652819D01*
X144981657Y-59652819D02*
X145076895Y-59700438D01*
X145076895Y-59700438D02*
X145124514Y-59748057D01*
X145124514Y-59748057D02*
X145172133Y-59843295D01*
X145172133Y-59843295D02*
X145172133Y-59986152D01*
X145172133Y-59986152D02*
X145124514Y-60081390D01*
X145124514Y-60081390D02*
X145076895Y-60129009D01*
X145076895Y-60129009D02*
X144981657Y-60176628D01*
X144981657Y-60176628D02*
X144600705Y-60176628D01*
X145505467Y-59652819D02*
X146172133Y-59652819D01*
X146172133Y-59652819D02*
X145743562Y-60652819D01*
X124678842Y-83723619D02*
X124345509Y-83247428D01*
X124107414Y-83723619D02*
X124107414Y-82723619D01*
X124107414Y-82723619D02*
X124488366Y-82723619D01*
X124488366Y-82723619D02*
X124583604Y-82771238D01*
X124583604Y-82771238D02*
X124631223Y-82818857D01*
X124631223Y-82818857D02*
X124678842Y-82914095D01*
X124678842Y-82914095D02*
X124678842Y-83056952D01*
X124678842Y-83056952D02*
X124631223Y-83152190D01*
X124631223Y-83152190D02*
X124583604Y-83199809D01*
X124583604Y-83199809D02*
X124488366Y-83247428D01*
X124488366Y-83247428D02*
X124107414Y-83247428D01*
X125631223Y-83723619D02*
X125059795Y-83723619D01*
X125345509Y-83723619D02*
X125345509Y-82723619D01*
X125345509Y-82723619D02*
X125250271Y-82866476D01*
X125250271Y-82866476D02*
X125155033Y-82961714D01*
X125155033Y-82961714D02*
X125059795Y-83009333D01*
X126535985Y-82723619D02*
X126059795Y-82723619D01*
X126059795Y-82723619D02*
X126012176Y-83199809D01*
X126012176Y-83199809D02*
X126059795Y-83152190D01*
X126059795Y-83152190D02*
X126155033Y-83104571D01*
X126155033Y-83104571D02*
X126393128Y-83104571D01*
X126393128Y-83104571D02*
X126488366Y-83152190D01*
X126488366Y-83152190D02*
X126535985Y-83199809D01*
X126535985Y-83199809D02*
X126583604Y-83295047D01*
X126583604Y-83295047D02*
X126583604Y-83533142D01*
X126583604Y-83533142D02*
X126535985Y-83628380D01*
X126535985Y-83628380D02*
X126488366Y-83676000D01*
X126488366Y-83676000D02*
X126393128Y-83723619D01*
X126393128Y-83723619D02*
X126155033Y-83723619D01*
X126155033Y-83723619D02*
X126059795Y-83676000D01*
X126059795Y-83676000D02*
X126012176Y-83628380D01*
X97024042Y-74273580D02*
X96976423Y-74321200D01*
X96976423Y-74321200D02*
X96833566Y-74368819D01*
X96833566Y-74368819D02*
X96738328Y-74368819D01*
X96738328Y-74368819D02*
X96595471Y-74321200D01*
X96595471Y-74321200D02*
X96500233Y-74225961D01*
X96500233Y-74225961D02*
X96452614Y-74130723D01*
X96452614Y-74130723D02*
X96404995Y-73940247D01*
X96404995Y-73940247D02*
X96404995Y-73797390D01*
X96404995Y-73797390D02*
X96452614Y-73606914D01*
X96452614Y-73606914D02*
X96500233Y-73511676D01*
X96500233Y-73511676D02*
X96595471Y-73416438D01*
X96595471Y-73416438D02*
X96738328Y-73368819D01*
X96738328Y-73368819D02*
X96833566Y-73368819D01*
X96833566Y-73368819D02*
X96976423Y-73416438D01*
X96976423Y-73416438D02*
X97024042Y-73464057D01*
X97976423Y-74368819D02*
X97404995Y-74368819D01*
X97690709Y-74368819D02*
X97690709Y-73368819D01*
X97690709Y-73368819D02*
X97595471Y-73511676D01*
X97595471Y-73511676D02*
X97500233Y-73606914D01*
X97500233Y-73606914D02*
X97404995Y-73654533D01*
X98881185Y-73368819D02*
X98404995Y-73368819D01*
X98404995Y-73368819D02*
X98357376Y-73845009D01*
X98357376Y-73845009D02*
X98404995Y-73797390D01*
X98404995Y-73797390D02*
X98500233Y-73749771D01*
X98500233Y-73749771D02*
X98738328Y-73749771D01*
X98738328Y-73749771D02*
X98833566Y-73797390D01*
X98833566Y-73797390D02*
X98881185Y-73845009D01*
X98881185Y-73845009D02*
X98928804Y-73940247D01*
X98928804Y-73940247D02*
X98928804Y-74178342D01*
X98928804Y-74178342D02*
X98881185Y-74273580D01*
X98881185Y-74273580D02*
X98833566Y-74321200D01*
X98833566Y-74321200D02*
X98738328Y-74368819D01*
X98738328Y-74368819D02*
X98500233Y-74368819D01*
X98500233Y-74368819D02*
X98404995Y-74321200D01*
X98404995Y-74321200D02*
X98357376Y-74273580D01*
X126515905Y-43177619D02*
X126515905Y-42177619D01*
X126515905Y-42177619D02*
X126754000Y-42177619D01*
X126754000Y-42177619D02*
X126896857Y-42225238D01*
X126896857Y-42225238D02*
X126992095Y-42320476D01*
X126992095Y-42320476D02*
X127039714Y-42415714D01*
X127039714Y-42415714D02*
X127087333Y-42606190D01*
X127087333Y-42606190D02*
X127087333Y-42749047D01*
X127087333Y-42749047D02*
X127039714Y-42939523D01*
X127039714Y-42939523D02*
X126992095Y-43034761D01*
X126992095Y-43034761D02*
X126896857Y-43130000D01*
X126896857Y-43130000D02*
X126754000Y-43177619D01*
X126754000Y-43177619D02*
X126515905Y-43177619D01*
X127944476Y-42510952D02*
X127944476Y-43177619D01*
X127706381Y-42130000D02*
X127468286Y-42844285D01*
X127468286Y-42844285D02*
X128087333Y-42844285D01*
X86072742Y-98251180D02*
X86025123Y-98298800D01*
X86025123Y-98298800D02*
X85882266Y-98346419D01*
X85882266Y-98346419D02*
X85787028Y-98346419D01*
X85787028Y-98346419D02*
X85644171Y-98298800D01*
X85644171Y-98298800D02*
X85548933Y-98203561D01*
X85548933Y-98203561D02*
X85501314Y-98108323D01*
X85501314Y-98108323D02*
X85453695Y-97917847D01*
X85453695Y-97917847D02*
X85453695Y-97774990D01*
X85453695Y-97774990D02*
X85501314Y-97584514D01*
X85501314Y-97584514D02*
X85548933Y-97489276D01*
X85548933Y-97489276D02*
X85644171Y-97394038D01*
X85644171Y-97394038D02*
X85787028Y-97346419D01*
X85787028Y-97346419D02*
X85882266Y-97346419D01*
X85882266Y-97346419D02*
X86025123Y-97394038D01*
X86025123Y-97394038D02*
X86072742Y-97441657D01*
X86453695Y-97441657D02*
X86501314Y-97394038D01*
X86501314Y-97394038D02*
X86596552Y-97346419D01*
X86596552Y-97346419D02*
X86834647Y-97346419D01*
X86834647Y-97346419D02*
X86929885Y-97394038D01*
X86929885Y-97394038D02*
X86977504Y-97441657D01*
X86977504Y-97441657D02*
X87025123Y-97536895D01*
X87025123Y-97536895D02*
X87025123Y-97632133D01*
X87025123Y-97632133D02*
X86977504Y-97774990D01*
X86977504Y-97774990D02*
X86406076Y-98346419D01*
X86406076Y-98346419D02*
X87025123Y-98346419D01*
X87596552Y-97774990D02*
X87501314Y-97727371D01*
X87501314Y-97727371D02*
X87453695Y-97679752D01*
X87453695Y-97679752D02*
X87406076Y-97584514D01*
X87406076Y-97584514D02*
X87406076Y-97536895D01*
X87406076Y-97536895D02*
X87453695Y-97441657D01*
X87453695Y-97441657D02*
X87501314Y-97394038D01*
X87501314Y-97394038D02*
X87596552Y-97346419D01*
X87596552Y-97346419D02*
X87787028Y-97346419D01*
X87787028Y-97346419D02*
X87882266Y-97394038D01*
X87882266Y-97394038D02*
X87929885Y-97441657D01*
X87929885Y-97441657D02*
X87977504Y-97536895D01*
X87977504Y-97536895D02*
X87977504Y-97584514D01*
X87977504Y-97584514D02*
X87929885Y-97679752D01*
X87929885Y-97679752D02*
X87882266Y-97727371D01*
X87882266Y-97727371D02*
X87787028Y-97774990D01*
X87787028Y-97774990D02*
X87596552Y-97774990D01*
X87596552Y-97774990D02*
X87501314Y-97822609D01*
X87501314Y-97822609D02*
X87453695Y-97870228D01*
X87453695Y-97870228D02*
X87406076Y-97965466D01*
X87406076Y-97965466D02*
X87406076Y-98155942D01*
X87406076Y-98155942D02*
X87453695Y-98251180D01*
X87453695Y-98251180D02*
X87501314Y-98298800D01*
X87501314Y-98298800D02*
X87596552Y-98346419D01*
X87596552Y-98346419D02*
X87787028Y-98346419D01*
X87787028Y-98346419D02*
X87882266Y-98298800D01*
X87882266Y-98298800D02*
X87929885Y-98251180D01*
X87929885Y-98251180D02*
X87977504Y-98155942D01*
X87977504Y-98155942D02*
X87977504Y-97965466D01*
X87977504Y-97965466D02*
X87929885Y-97870228D01*
X87929885Y-97870228D02*
X87882266Y-97822609D01*
X87882266Y-97822609D02*
X87787028Y-97774990D01*
X132273933Y-49584780D02*
X132226314Y-49632400D01*
X132226314Y-49632400D02*
X132083457Y-49680019D01*
X132083457Y-49680019D02*
X131988219Y-49680019D01*
X131988219Y-49680019D02*
X131845362Y-49632400D01*
X131845362Y-49632400D02*
X131750124Y-49537161D01*
X131750124Y-49537161D02*
X131702505Y-49441923D01*
X131702505Y-49441923D02*
X131654886Y-49251447D01*
X131654886Y-49251447D02*
X131654886Y-49108590D01*
X131654886Y-49108590D02*
X131702505Y-48918114D01*
X131702505Y-48918114D02*
X131750124Y-48822876D01*
X131750124Y-48822876D02*
X131845362Y-48727638D01*
X131845362Y-48727638D02*
X131988219Y-48680019D01*
X131988219Y-48680019D02*
X132083457Y-48680019D01*
X132083457Y-48680019D02*
X132226314Y-48727638D01*
X132226314Y-48727638D02*
X132273933Y-48775257D01*
X133131076Y-49013352D02*
X133131076Y-49680019D01*
X132892981Y-48632400D02*
X132654886Y-49346685D01*
X132654886Y-49346685D02*
X133273933Y-49346685D01*
X121277142Y-80363219D02*
X120943809Y-79887028D01*
X120705714Y-80363219D02*
X120705714Y-79363219D01*
X120705714Y-79363219D02*
X121086666Y-79363219D01*
X121086666Y-79363219D02*
X121181904Y-79410838D01*
X121181904Y-79410838D02*
X121229523Y-79458457D01*
X121229523Y-79458457D02*
X121277142Y-79553695D01*
X121277142Y-79553695D02*
X121277142Y-79696552D01*
X121277142Y-79696552D02*
X121229523Y-79791790D01*
X121229523Y-79791790D02*
X121181904Y-79839409D01*
X121181904Y-79839409D02*
X121086666Y-79887028D01*
X121086666Y-79887028D02*
X120705714Y-79887028D01*
X122229523Y-80363219D02*
X121658095Y-80363219D01*
X121943809Y-80363219D02*
X121943809Y-79363219D01*
X121943809Y-79363219D02*
X121848571Y-79506076D01*
X121848571Y-79506076D02*
X121753333Y-79601314D01*
X121753333Y-79601314D02*
X121658095Y-79648933D01*
X122610476Y-79458457D02*
X122658095Y-79410838D01*
X122658095Y-79410838D02*
X122753333Y-79363219D01*
X122753333Y-79363219D02*
X122991428Y-79363219D01*
X122991428Y-79363219D02*
X123086666Y-79410838D01*
X123086666Y-79410838D02*
X123134285Y-79458457D01*
X123134285Y-79458457D02*
X123181904Y-79553695D01*
X123181904Y-79553695D02*
X123181904Y-79648933D01*
X123181904Y-79648933D02*
X123134285Y-79791790D01*
X123134285Y-79791790D02*
X122562857Y-80363219D01*
X122562857Y-80363219D02*
X123181904Y-80363219D01*
X118178342Y-91386819D02*
X117845009Y-90910628D01*
X117606914Y-91386819D02*
X117606914Y-90386819D01*
X117606914Y-90386819D02*
X117987866Y-90386819D01*
X117987866Y-90386819D02*
X118083104Y-90434438D01*
X118083104Y-90434438D02*
X118130723Y-90482057D01*
X118130723Y-90482057D02*
X118178342Y-90577295D01*
X118178342Y-90577295D02*
X118178342Y-90720152D01*
X118178342Y-90720152D02*
X118130723Y-90815390D01*
X118130723Y-90815390D02*
X118083104Y-90863009D01*
X118083104Y-90863009D02*
X117987866Y-90910628D01*
X117987866Y-90910628D02*
X117606914Y-90910628D01*
X119130723Y-91386819D02*
X118559295Y-91386819D01*
X118845009Y-91386819D02*
X118845009Y-90386819D01*
X118845009Y-90386819D02*
X118749771Y-90529676D01*
X118749771Y-90529676D02*
X118654533Y-90624914D01*
X118654533Y-90624914D02*
X118559295Y-90672533D01*
X119702152Y-90815390D02*
X119606914Y-90767771D01*
X119606914Y-90767771D02*
X119559295Y-90720152D01*
X119559295Y-90720152D02*
X119511676Y-90624914D01*
X119511676Y-90624914D02*
X119511676Y-90577295D01*
X119511676Y-90577295D02*
X119559295Y-90482057D01*
X119559295Y-90482057D02*
X119606914Y-90434438D01*
X119606914Y-90434438D02*
X119702152Y-90386819D01*
X119702152Y-90386819D02*
X119892628Y-90386819D01*
X119892628Y-90386819D02*
X119987866Y-90434438D01*
X119987866Y-90434438D02*
X120035485Y-90482057D01*
X120035485Y-90482057D02*
X120083104Y-90577295D01*
X120083104Y-90577295D02*
X120083104Y-90624914D01*
X120083104Y-90624914D02*
X120035485Y-90720152D01*
X120035485Y-90720152D02*
X119987866Y-90767771D01*
X119987866Y-90767771D02*
X119892628Y-90815390D01*
X119892628Y-90815390D02*
X119702152Y-90815390D01*
X119702152Y-90815390D02*
X119606914Y-90863009D01*
X119606914Y-90863009D02*
X119559295Y-90910628D01*
X119559295Y-90910628D02*
X119511676Y-91005866D01*
X119511676Y-91005866D02*
X119511676Y-91196342D01*
X119511676Y-91196342D02*
X119559295Y-91291580D01*
X119559295Y-91291580D02*
X119606914Y-91339200D01*
X119606914Y-91339200D02*
X119702152Y-91386819D01*
X119702152Y-91386819D02*
X119892628Y-91386819D01*
X119892628Y-91386819D02*
X119987866Y-91339200D01*
X119987866Y-91339200D02*
X120035485Y-91291580D01*
X120035485Y-91291580D02*
X120083104Y-91196342D01*
X120083104Y-91196342D02*
X120083104Y-91005866D01*
X120083104Y-91005866D02*
X120035485Y-90910628D01*
X120035485Y-90910628D02*
X119987866Y-90863009D01*
X119987866Y-90863009D02*
X119892628Y-90815390D01*
X140936742Y-53089980D02*
X140889123Y-53137600D01*
X140889123Y-53137600D02*
X140746266Y-53185219D01*
X140746266Y-53185219D02*
X140651028Y-53185219D01*
X140651028Y-53185219D02*
X140508171Y-53137600D01*
X140508171Y-53137600D02*
X140412933Y-53042361D01*
X140412933Y-53042361D02*
X140365314Y-52947123D01*
X140365314Y-52947123D02*
X140317695Y-52756647D01*
X140317695Y-52756647D02*
X140317695Y-52613790D01*
X140317695Y-52613790D02*
X140365314Y-52423314D01*
X140365314Y-52423314D02*
X140412933Y-52328076D01*
X140412933Y-52328076D02*
X140508171Y-52232838D01*
X140508171Y-52232838D02*
X140651028Y-52185219D01*
X140651028Y-52185219D02*
X140746266Y-52185219D01*
X140746266Y-52185219D02*
X140889123Y-52232838D01*
X140889123Y-52232838D02*
X140936742Y-52280457D01*
X141889123Y-53185219D02*
X141317695Y-53185219D01*
X141603409Y-53185219D02*
X141603409Y-52185219D01*
X141603409Y-52185219D02*
X141508171Y-52328076D01*
X141508171Y-52328076D02*
X141412933Y-52423314D01*
X141412933Y-52423314D02*
X141317695Y-52470933D01*
X142841504Y-53185219D02*
X142270076Y-53185219D01*
X142555790Y-53185219D02*
X142555790Y-52185219D01*
X142555790Y-52185219D02*
X142460552Y-52328076D01*
X142460552Y-52328076D02*
X142365314Y-52423314D01*
X142365314Y-52423314D02*
X142270076Y-52470933D01*
D12*
%TO.C,TP1*%
X124331200Y-67767200D02*
G75*
G02*
X120931200Y-67767200I-1700000J0D01*
G01*
X120931200Y-67767200D02*
G75*
G02*
X124331200Y-67767200I1700000J0D01*
G01*
%TO.C,TP3*%
X130732000Y-73406000D02*
G75*
G02*
X127332000Y-73406000I-1700000J0D01*
G01*
X127332000Y-73406000D02*
G75*
G02*
X130732000Y-73406000I1700000J0D01*
G01*
%TO.C,TP2*%
X130681200Y-67716400D02*
G75*
G02*
X127281200Y-67716400I-1700000J0D01*
G01*
X127281200Y-67716400D02*
G75*
G02*
X130681200Y-67716400I1700000J0D01*
G01*
%TO.C,U6*%
X101890000Y-77890000D02*
X101890000Y-78840000D01*
X101890000Y-88110000D02*
X101890000Y-87160000D01*
X102840000Y-77890000D02*
X101890000Y-77890000D01*
X102840000Y-88110000D02*
X101890000Y-88110000D01*
X111160000Y-77890000D02*
X112110000Y-77890000D01*
X111160000Y-88110000D02*
X112110000Y-88110000D01*
X112110000Y-77890000D02*
X112110000Y-78840000D01*
X112110000Y-88110000D02*
X112110000Y-87160000D01*
X101275000Y-78840000D02*
X100935000Y-78370000D01*
X101615000Y-78370000D01*
X101275000Y-78840000D01*
G36*
X101275000Y-78840000D02*
G01*
X100935000Y-78370000D01*
X101615000Y-78370000D01*
X101275000Y-78840000D01*
G37*
%TO.C,U2*%
X126968400Y-45460600D02*
X125018400Y-45460600D01*
X126968400Y-45460600D02*
X128918400Y-45460600D01*
X126968400Y-55580600D02*
X125018400Y-55580600D01*
X126968400Y-55580600D02*
X128918400Y-55580600D01*
X124268400Y-45515600D02*
X124028400Y-45185600D01*
X124508400Y-45185600D01*
X124268400Y-45515600D01*
G36*
X124268400Y-45515600D02*
G01*
X124028400Y-45185600D01*
X124508400Y-45185600D01*
X124268400Y-45515600D01*
G37*
%TO.C,J3*%
X146420000Y-98535000D02*
X146420000Y-104945000D01*
X146420000Y-98535000D02*
X146990000Y-98535000D01*
X146420000Y-104945000D02*
X147442470Y-104945000D01*
X147750000Y-97140000D02*
X149080000Y-97140000D01*
X148057530Y-104945000D02*
X149080000Y-104945000D01*
X148510000Y-98535000D02*
X149080000Y-98535000D01*
X149080000Y-97140000D02*
X149080000Y-97900000D01*
X149080000Y-98535000D02*
X149080000Y-104945000D01*
%TO.C,U1*%
X86983700Y-53905100D02*
X87273700Y-53905100D01*
X96353700Y-53905100D02*
X96063700Y-53905100D01*
X86983700Y-50485100D02*
X86983700Y-53905100D01*
X86983700Y-50485100D02*
X86983700Y-47065100D01*
X96353700Y-50485100D02*
X96353700Y-53905100D01*
X96353700Y-50485100D02*
X96353700Y-47065100D01*
X86983700Y-47065100D02*
X87273700Y-47065100D01*
X96353700Y-47065100D02*
X96063700Y-47065100D01*
X87273700Y-54990100D02*
X86803700Y-55330100D01*
X86803700Y-54650100D01*
X87273700Y-54990100D01*
G36*
X87273700Y-54990100D02*
G01*
X86803700Y-55330100D01*
X86803700Y-54650100D01*
X87273700Y-54990100D01*
G37*
%TO.C,U5*%
X118160800Y-79364400D02*
X117360800Y-79364400D01*
X118160800Y-79364400D02*
X118960800Y-79364400D01*
X118160800Y-82484400D02*
X117360800Y-82484400D01*
X118160800Y-82484400D02*
X118960800Y-82484400D01*
X116860800Y-79414400D02*
X116620800Y-79084400D01*
X117100800Y-79084400D01*
X116860800Y-79414400D01*
G36*
X116860800Y-79414400D02*
G01*
X116620800Y-79084400D01*
X117100800Y-79084400D01*
X116860800Y-79414400D01*
G37*
%TO.C,U7*%
X104035000Y-98290000D02*
X103780000Y-98290000D01*
X93515000Y-98290000D02*
X93770000Y-98290000D01*
X104035000Y-102150000D02*
X104035000Y-98290000D01*
X104035000Y-102150000D02*
X104035000Y-106010000D01*
X93515000Y-102150000D02*
X93515000Y-98290000D01*
X93515000Y-102150000D02*
X93515000Y-106010000D01*
X104035000Y-106010000D02*
X103780000Y-106010000D01*
X93515000Y-106010000D02*
X93770000Y-106010000D01*
X104250000Y-97777500D02*
X103780000Y-97437500D01*
X104250000Y-97097500D01*
X104250000Y-97777500D01*
G36*
X104250000Y-97777500D02*
G01*
X103780000Y-97437500D01*
X104250000Y-97097500D01*
X104250000Y-97777500D01*
G37*
%TO.C,U8*%
X120535000Y-98290000D02*
X120280000Y-98290000D01*
X110015000Y-98290000D02*
X110270000Y-98290000D01*
X120535000Y-102150000D02*
X120535000Y-98290000D01*
X120535000Y-102150000D02*
X120535000Y-106010000D01*
X110015000Y-102150000D02*
X110015000Y-98290000D01*
X110015000Y-102150000D02*
X110015000Y-106010000D01*
X120535000Y-106010000D02*
X120280000Y-106010000D01*
X110015000Y-106010000D02*
X110270000Y-106010000D01*
X120750000Y-97777500D02*
X120280000Y-97437500D01*
X120750000Y-97097500D01*
X120750000Y-97777500D01*
G36*
X120750000Y-97777500D02*
G01*
X120280000Y-97437500D01*
X120750000Y-97097500D01*
X120750000Y-97777500D01*
G37*
%TO.C,U3*%
X97941600Y-70647400D02*
X97941600Y-70392400D01*
X97941600Y-60127400D02*
X97941600Y-60382400D01*
X94081600Y-70647400D02*
X97941600Y-70647400D01*
X94081600Y-70647400D02*
X90221600Y-70647400D01*
X94081600Y-60127400D02*
X97941600Y-60127400D01*
X94081600Y-60127400D02*
X90221600Y-60127400D01*
X90221600Y-70647400D02*
X90221600Y-70392400D01*
X90221600Y-60127400D02*
X90221600Y-60382400D01*
X99134100Y-70862400D02*
X98454100Y-70862400D01*
X98794100Y-70392400D01*
X99134100Y-70862400D01*
G36*
X99134100Y-70862400D02*
G01*
X98454100Y-70862400D01*
X98794100Y-70392400D01*
X99134100Y-70862400D01*
G37*
%TO.C,U9*%
X137035000Y-98290000D02*
X136780000Y-98290000D01*
X126515000Y-98290000D02*
X126770000Y-98290000D01*
X137035000Y-102150000D02*
X137035000Y-98290000D01*
X137035000Y-102150000D02*
X137035000Y-106010000D01*
X126515000Y-102150000D02*
X126515000Y-98290000D01*
X126515000Y-102150000D02*
X126515000Y-106010000D01*
X137035000Y-106010000D02*
X136780000Y-106010000D01*
X126515000Y-106010000D02*
X126770000Y-106010000D01*
X137250000Y-97777500D02*
X136780000Y-97437500D01*
X137250000Y-97097500D01*
X137250000Y-97777500D01*
G36*
X137250000Y-97777500D02*
G01*
X136780000Y-97437500D01*
X137250000Y-97097500D01*
X137250000Y-97777500D01*
G37*
%TO.C,D6*%
X80605100Y-69923200D02*
X81255100Y-69923200D01*
X80605100Y-69923200D02*
X79955100Y-69923200D01*
X80605100Y-66803200D02*
X81255100Y-66803200D01*
X80605100Y-66803200D02*
X79955100Y-66803200D01*
X82007600Y-70203200D02*
X81527600Y-70203200D01*
X81767600Y-69873200D01*
X82007600Y-70203200D01*
G36*
X82007600Y-70203200D02*
G01*
X81527600Y-70203200D01*
X81767600Y-69873200D01*
X82007600Y-70203200D01*
G37*
%TO.C,D11*%
X116787000Y-110593000D02*
X116787000Y-109943000D01*
X116787000Y-110593000D02*
X116787000Y-111243000D01*
X113667000Y-110593000D02*
X113667000Y-109943000D01*
X113667000Y-110593000D02*
X113667000Y-111243000D01*
X117067000Y-109670500D02*
X116737000Y-109430500D01*
X117067000Y-109190500D01*
X117067000Y-109670500D01*
G36*
X117067000Y-109670500D02*
G01*
X116737000Y-109430500D01*
X117067000Y-109190500D01*
X117067000Y-109670500D01*
G37*
%TO.C,D10*%
X100287000Y-110593000D02*
X100287000Y-109943000D01*
X100287000Y-110593000D02*
X100287000Y-111243000D01*
X97167000Y-110593000D02*
X97167000Y-109943000D01*
X97167000Y-110593000D02*
X97167000Y-111243000D01*
X100567000Y-109670500D02*
X100237000Y-109430500D01*
X100567000Y-109190500D01*
X100567000Y-109670500D01*
G36*
X100567000Y-109670500D02*
G01*
X100237000Y-109430500D01*
X100567000Y-109190500D01*
X100567000Y-109670500D01*
G37*
%TO.C,D12*%
X133287000Y-110593000D02*
X133287000Y-109943000D01*
X133287000Y-110593000D02*
X133287000Y-111243000D01*
X130167000Y-110593000D02*
X130167000Y-109943000D01*
X130167000Y-110593000D02*
X130167000Y-111243000D01*
X133567000Y-109670500D02*
X133237000Y-109430500D01*
X133567000Y-109190500D01*
X133567000Y-109670500D01*
G36*
X133567000Y-109670500D02*
G01*
X133237000Y-109430500D01*
X133567000Y-109190500D01*
X133567000Y-109670500D01*
G37*
%TO.C,D8*%
X80554300Y-73580800D02*
X81204300Y-73580800D01*
X80554300Y-73580800D02*
X79904300Y-73580800D01*
X80554300Y-70460800D02*
X81204300Y-70460800D01*
X80554300Y-70460800D02*
X79904300Y-70460800D01*
X81956800Y-73860800D02*
X81476800Y-73860800D01*
X81716800Y-73530800D01*
X81956800Y-73860800D01*
G36*
X81956800Y-73860800D02*
G01*
X81476800Y-73860800D01*
X81716800Y-73530800D01*
X81956800Y-73860800D01*
G37*
%TO.C,D1*%
X93213500Y-42334000D02*
X93213500Y-41684000D01*
X93213500Y-42334000D02*
X93213500Y-42984000D01*
X90093500Y-42334000D02*
X90093500Y-41684000D01*
X90093500Y-42334000D02*
X90093500Y-42984000D01*
X93493500Y-41411500D02*
X93163500Y-41171500D01*
X93493500Y-40931500D01*
X93493500Y-41411500D01*
G36*
X93493500Y-41411500D02*
G01*
X93163500Y-41171500D01*
X93493500Y-40931500D01*
X93493500Y-41411500D01*
G37*
%TO.C,C18*%
X114298000Y-78074567D02*
X114298000Y-77782033D01*
X115318000Y-78074567D02*
X115318000Y-77782033D01*
%TO.C,D2*%
X111081000Y-40056800D02*
X111081000Y-43356800D01*
X111081000Y-40056800D02*
X116591000Y-40056800D01*
X111081000Y-43356800D02*
X116591000Y-43356800D01*
%TO.C,F6*%
X107649600Y-98029136D02*
X107649600Y-99233264D01*
X109469600Y-98029136D02*
X109469600Y-99233264D01*
%TO.C,C14*%
X86396552Y-71451800D02*
X85874048Y-71451800D01*
X86396552Y-72921800D02*
X85874048Y-72921800D01*
%TO.C,C9*%
X84634500Y-53695948D02*
X84634500Y-54218452D01*
X86104500Y-53695948D02*
X86104500Y-54218452D01*
%TO.C,C25*%
X102811233Y-94413500D02*
X103103767Y-94413500D01*
X102811233Y-95433500D02*
X103103767Y-95433500D01*
%TO.C,C20*%
X97591833Y-82243200D02*
X97884367Y-82243200D01*
X97591833Y-83263200D02*
X97884367Y-83263200D01*
%TO.C,F5*%
X124401064Y-94013500D02*
X123196936Y-94013500D01*
X124401064Y-95833500D02*
X123196936Y-95833500D01*
%TO.C,U4*%
X113328400Y-65603600D02*
X114588400Y-65603600D01*
X113328400Y-69363600D02*
X113328400Y-65603600D01*
X120148400Y-65603600D02*
X118888400Y-65603600D01*
X120148400Y-69363600D02*
X120148400Y-65603600D01*
X113428400Y-70643600D02*
X113098400Y-70883600D01*
X113098400Y-70403600D01*
X113428400Y-70643600D01*
G36*
X113428400Y-70643600D02*
G01*
X113098400Y-70883600D01*
X113098400Y-70403600D01*
X113428400Y-70643600D01*
G37*
%TO.C,C7*%
X145235200Y-50134567D02*
X145235200Y-49842033D01*
X146255200Y-50134567D02*
X146255200Y-49842033D01*
%TO.C,R11*%
X117243776Y-76541100D02*
X117753224Y-76541100D01*
X117243776Y-77586100D02*
X117753224Y-77586100D01*
%TO.C,C16*%
X115461167Y-72540400D02*
X115168633Y-72540400D01*
X115461167Y-73560400D02*
X115168633Y-73560400D01*
%TO.C,C30*%
X102648767Y-108891500D02*
X102356233Y-108891500D01*
X102648767Y-109911500D02*
X102356233Y-109911500D01*
%TO.C,C10*%
X108100400Y-54970633D02*
X108100400Y-55263167D01*
X109120400Y-54970633D02*
X109120400Y-55263167D01*
%TO.C,R2*%
X111806300Y-46123776D02*
X111806300Y-46633224D01*
X112851300Y-46123776D02*
X112851300Y-46633224D01*
%TO.C,Q1*%
X121305200Y-75460000D02*
X121305200Y-74000000D01*
X121305200Y-75460000D02*
X122235200Y-75460000D01*
X124465200Y-74660000D02*
X124465200Y-73860000D01*
X124465200Y-74660000D02*
X124465200Y-75460000D01*
X124465200Y-75460000D02*
X123535200Y-75460000D01*
X124825200Y-73600000D02*
X124495200Y-73360000D01*
X124825200Y-73120000D01*
X124825200Y-73600000D01*
G36*
X124825200Y-73600000D02*
G01*
X124495200Y-73360000D01*
X124825200Y-73120000D01*
X124825200Y-73600000D01*
G37*
%TO.C,C6*%
X121250352Y-49303000D02*
X120727848Y-49303000D01*
X121250352Y-50773000D02*
X120727848Y-50773000D01*
%TO.C,F1*%
X98556400Y-56358064D02*
X98556400Y-55153936D01*
X100376400Y-56358064D02*
X100376400Y-55153936D01*
%TO.C,R1*%
X85865237Y-41002100D02*
X84417763Y-41002100D01*
X85865237Y-43712100D02*
X84417763Y-43712100D01*
%TO.C,D3*%
X118561800Y-40056800D02*
X118561800Y-43356800D01*
X118561800Y-40056800D02*
X124071800Y-40056800D01*
X118561800Y-43356800D02*
X124071800Y-43356800D01*
%TO.C,F3*%
X90134064Y-92358800D02*
X88929936Y-92358800D01*
X90134064Y-94178800D02*
X88929936Y-94178800D01*
%TO.C,C19*%
X97594033Y-79601600D02*
X97886567Y-79601600D01*
X97594033Y-80621600D02*
X97886567Y-80621600D01*
%TO.C,F4*%
X137977200Y-92790736D02*
X137977200Y-93994864D01*
X139797200Y-92790736D02*
X139797200Y-93994864D01*
%TO.C,R3*%
X145222700Y-46174576D02*
X145222700Y-46684024D01*
X146267700Y-46174576D02*
X146267700Y-46684024D01*
%TO.C,R9*%
X141057100Y-58879824D02*
X141057100Y-58370376D01*
X142102100Y-58879824D02*
X142102100Y-58370376D01*
%TO.C,C3*%
X119332200Y-47045833D02*
X119332200Y-47338367D01*
X120352200Y-47045833D02*
X120352200Y-47338367D01*
%TO.C,R10*%
X105192300Y-74475424D02*
X105192300Y-73965976D01*
X106237300Y-74475424D02*
X106237300Y-73965976D01*
%TO.C,C32*%
X135648767Y-108891500D02*
X135356233Y-108891500D01*
X135648767Y-109911500D02*
X135356233Y-109911500D01*
%TO.C,C24*%
X112021233Y-90371200D02*
X112313767Y-90371200D01*
X112021233Y-91391200D02*
X112313767Y-91391200D01*
%TO.C,D5*%
X135668200Y-40107600D02*
X135668200Y-43407600D01*
X135668200Y-40107600D02*
X141178200Y-40107600D01*
X135668200Y-43407600D02*
X141178200Y-43407600D01*
%TO.C,R17*%
X121309676Y-83348300D02*
X121819124Y-83348300D01*
X121309676Y-84393300D02*
X121819124Y-84393300D01*
%TO.C,C27*%
X135811233Y-94413500D02*
X136103767Y-94413500D01*
X135811233Y-95433500D02*
X136103767Y-95433500D01*
%TO.C,C17*%
X101188567Y-74572400D02*
X100896033Y-74572400D01*
X101188567Y-75592400D02*
X100896033Y-75592400D01*
%TO.C,R16*%
X118163424Y-83348300D02*
X117653976Y-83348300D01*
X118163424Y-84393300D02*
X117653976Y-84393300D01*
%TO.C,R14*%
X77941124Y-80337500D02*
X77431676Y-80337500D01*
X77941124Y-81382500D02*
X77431676Y-81382500D01*
%TO.C,R4*%
X108097900Y-47495376D02*
X108097900Y-48004824D01*
X109142900Y-47495376D02*
X109142900Y-48004824D01*
%TO.C,C13*%
X133805200Y-66489967D02*
X133805200Y-66197433D01*
X134825200Y-66489967D02*
X134825200Y-66197433D01*
%TO.C,C31*%
X119148767Y-108891500D02*
X118856233Y-108891500D01*
X119148767Y-109911500D02*
X118856233Y-109911500D01*
%TO.C,C22*%
X115768167Y-88085200D02*
X115475633Y-88085200D01*
X115768167Y-89105200D02*
X115475633Y-89105200D01*
%TO.C,R8*%
X108087900Y-58879824D02*
X108087900Y-58370376D01*
X109132900Y-58879824D02*
X109132900Y-58370376D01*
%TO.C,D9*%
X132246400Y-73084800D02*
X132246400Y-77384800D01*
X132246400Y-73084800D02*
X139906400Y-73084800D01*
X132246400Y-77384800D02*
X139906400Y-77384800D01*
%TO.C,C1*%
X121190000Y-46569352D02*
X121190000Y-46046848D01*
X122660000Y-46569352D02*
X122660000Y-46046848D01*
%TO.C,R13*%
X125576424Y-79436700D02*
X125066976Y-79436700D01*
X125576424Y-80481700D02*
X125066976Y-80481700D01*
%TO.C,R6*%
X112101100Y-56998776D02*
X112101100Y-57508224D01*
X113146100Y-56998776D02*
X113146100Y-57508224D01*
%TO.C,C2*%
X84634500Y-46736348D02*
X84634500Y-47258852D01*
X86104500Y-46736348D02*
X86104500Y-47258852D01*
%TO.C,R5*%
X141270300Y-48057524D02*
X141270300Y-47548076D01*
X142315300Y-48057524D02*
X142315300Y-47548076D01*
%TO.C,C26*%
X119311233Y-94413500D02*
X119603767Y-94413500D01*
X119311233Y-95433500D02*
X119603767Y-95433500D01*
%TO.C,C21*%
X98042000Y-85450633D02*
X98042000Y-85743167D01*
X99062000Y-85450633D02*
X99062000Y-85743167D01*
%TO.C,C12*%
X122450048Y-63628600D02*
X122972552Y-63628600D01*
X122450048Y-65098600D02*
X122972552Y-65098600D01*
%TO.C,D7*%
X132246400Y-68360400D02*
X132246400Y-72660400D01*
X132246400Y-68360400D02*
X139906400Y-68360400D01*
X132246400Y-72660400D02*
X139906400Y-72660400D01*
%TO.C,C8*%
X120727848Y-51690600D02*
X121250352Y-51690600D01*
X120727848Y-53160600D02*
X121250352Y-53160600D01*
%TO.C,C29*%
X83990000Y-105416233D02*
X83990000Y-105708767D01*
X85010000Y-105416233D02*
X85010000Y-105708767D01*
%TO.C,C23*%
X102318433Y-90371200D02*
X102610967Y-90371200D01*
X102318433Y-91391200D02*
X102610967Y-91391200D01*
%TO.C,F2*%
X102112400Y-56358064D02*
X102112400Y-55153936D01*
X103932400Y-56358064D02*
X103932400Y-55153936D01*
%TO.C,C5*%
X111818800Y-50032967D02*
X111818800Y-49740433D01*
X112838800Y-50032967D02*
X112838800Y-49740433D01*
%TO.C,R7*%
X144968700Y-58067024D02*
X144968700Y-57557576D01*
X146013700Y-58067024D02*
X146013700Y-57557576D01*
%TO.C,R15*%
X125576424Y-81316300D02*
X125066976Y-81316300D01*
X125576424Y-82361300D02*
X125066976Y-82361300D01*
%TO.C,C15*%
X97405648Y-71451800D02*
X97928152Y-71451800D01*
X97405648Y-72921800D02*
X97928152Y-72921800D01*
%TO.C,D4*%
X128264600Y-40107600D02*
X128264600Y-43407600D01*
X128264600Y-40107600D02*
X133774600Y-40107600D01*
X128264600Y-43407600D02*
X133774600Y-43407600D01*
%TO.C,C28*%
X83990000Y-98086567D02*
X83990000Y-97794033D01*
X85010000Y-98086567D02*
X85010000Y-97794033D01*
%TO.C,C4*%
X131270200Y-46537833D02*
X131270200Y-46830367D01*
X132290200Y-46537833D02*
X132290200Y-46830367D01*
%TO.C,R12*%
X122223624Y-77811100D02*
X121714176Y-77811100D01*
X122223624Y-78856100D02*
X121714176Y-78856100D01*
%TO.C,R18*%
X115924424Y-90358700D02*
X115414976Y-90358700D01*
X115924424Y-91403700D02*
X115414976Y-91403700D01*
%TO.C,C11*%
X141069600Y-54970633D02*
X141069600Y-55263167D01*
X142089600Y-54970633D02*
X142089600Y-55263167D01*
%TD*%
M02*
