<?xml version="1.0" standalone="no"?>
 <!DOCTYPE svg PUBLIC "-//W3C//DTD SVG 1.1//EN" 
 "http://www.w3.org/Graphics/SVG/1.1/DTD/svg11.dtd"> 
<svg xmlns="http://www.w3.org/2000/svg" version="1.1" 
    width="8.6233cm" height="9.55802cm" viewBox="0 0 33950 37630 ">
<title>SVG Picture created as stm32-B.SilkS.svg date 2018/06/18 13:58:33 </title>
  <desc>Picture generated by PCBNEW </desc>
<g style="fill:#000000; fill-opacity:1;stroke:#000000; stroke-opacity:1;
stroke-linecap:round; stroke-linejoin:round; "
 transform="translate(0 0) scale(1 1)">
</g>
<g style="fill:#000000; fill-opacity:0.0; 
stroke:#000000; stroke-width:-0.000393701; stroke-opacity:1; 
stroke-linecap:round; stroke-linejoin:round;">
</g>
<g style="fill:#000000; fill-opacity:0.0; 
stroke:#000000; stroke-width:59.0551; stroke-opacity:1; 
stroke-linecap:round; stroke-linejoin:round;">
<path d="M30252 1927
L4661 1927
" />
<path d="M30252 34998
L30252 1927
" />
<path d="M4661 34998
L30252 34998
" />
<path d="M4661 1927
L4661 34998
" />
<path d="M20256 14138
L20256 13744
L20349 13744
L20406 13763
L20443 13800
L20462 13838
L20481 13913
L20481 13969
L20462 14044
L20443 14082
L20406 14119
L20349 14138
L20256 14138
" />
<path d="M20612 13744
L20856 13744
L20724 13894
L20781 13894
L20818 13913
L20837 13932
L20856 13969
L20856 14063
L20837 14100
L20818 14119
L20781 14138
L20668 14138
L20631 14119
L20612 14100
" />
<path d="M21657 26111
L21619 26092
L21582 26055
L21526 25998
L21488 25980
L21451 25980
" />
<path d="M21469 26073
L21432 26055
L21394 26017
L21376 25942
L21376 25811
L21394 25736
L21432 25698
L21469 25680
L21544 25680
L21582 25698
L21619 25736
L21638 25811
L21638 25942
L21619 26017
L21582 26055
L21544 26073
L21469 26073
" />
<path d="M22013 26073
L21788 26073
" />
<path d="M21901 26073
L21901 25680
L21863 25736
L21826 25773
L21788 25792
" />
<path d="M18229 30006
L18098 29818
" />
<path d="M18004 30006
L18004 29612
L18154 29612
L18191 29631
L18210 29649
L18229 29687
L18229 29743
L18210 29781
L18191 29799
L18154 29818
L18004 29818
" />
<path d="M18360 29612
L18604 29612
L18472 29762
L18529 29762
L18566 29781
L18585 29799
L18604 29837
L18604 29931
L18585 29968
L18566 29987
L18529 30006
L18416 30006
L18379 29987
L18360 29968
" />
<path d="M16341 30014
L16210 29826
" />
<path d="M16116 30014
L16116 29620
L16266 29620
L16303 29639
L16322 29657
L16341 29695
L16341 29751
L16322 29789
L16303 29807
L16266 29826
L16116 29826
" />
<path d="M16678 29751
L16678 30014
" />
<path d="M16584 29601
L16491 29882
L16734 29882
" />
<path d="M18304 31439
L18173 31251
" />
<path d="M18079 31439
L18079 31045
L18229 31045
L18266 31064
L18285 31082
L18304 31120
L18304 31176
L18285 31214
L18266 31232
L18229 31251
L18079 31251
" />
<path d="M18641 31045
L18566 31045
L18529 31064
L18510 31082
L18472 31139
L18454 31214
L18454 31364
L18472 31401
L18491 31420
L18529 31439
L18604 31439
L18641 31420
L18660 31401
L18679 31364
L18679 31270
L18660 31232
L18641 31214
L18604 31195
L18529 31195
L18491 31214
L18472 31232
L18454 31270
" />
<path d="M17528 30878
L17716 30747
" />
<path d="M17528 30653
L17922 30653
L17922 30803
L17903 30840
L17885 30859
L17847 30878
L17791 30878
L17753 30859
L17735 30840
L17716 30803
L17716 30653
" />
<path d="M17922 31009
L17922 31272
L17528 31103
" />
<path d="M21768 14564
L21956 14433
" />
<path d="M21768 14339
L22162 14339
L22162 14489
L22143 14526
L22124 14545
L22087 14564
L22031 14564
L21993 14545
L21974 14526
L21956 14489
L21956 14339
" />
<path d="M21768 14751
L21768 14826
L21787 14864
L21806 14883
L21862 14920
L21937 14939
L22087 14939
L22124 14920
L22143 14901
L22162 14864
L22162 14789
L22143 14751
L22124 14733
L22087 14714
L21993 14714
L21956 14733
L21937 14751
L21918 14789
L21918 14864
L21937 14901
L21956 14920
L21993 14939
" />
<path d="M19262 26626
L19243 26608
L19224 26551
L19224 26514
L19243 26458
L19280 26420
L19318 26401
L19393 26383
L19449 26383
L19524 26401
L19562 26420
L19599 26458
L19618 26514
L19618 26551
L19599 26608
L19580 26626
" />
<path d="M19224 27001
L19224 26776
" />
<path d="M19224 26889
L19618 26889
L19562 26851
L19524 26814
L19505 26776
" />
<path d="M19618 27357
L19618 27170
L19430 27151
L19449 27170
L19468 27208
L19468 27301
L19449 27339
L19430 27357
L19393 27376
L19299 27376
L19262 27357
L19243 27339
L19224 27301
L19224 27208
L19243 27170
L19262 27151
" />
<path d="M21129 32678
L21110 32697
L21054 32715
L21016 32715
L20960 32697
L20923 32659
L20904 32622
L20885 32547
L20885 32490
L20904 32415
L20923 32378
L20960 32340
L21016 32322
L21054 32322
L21110 32340
L21129 32359
" />
<path d="M21504 32715
L21279 32715
" />
<path d="M21391 32715
L21391 32322
L21354 32378
L21316 32415
L21279 32434
" />
<path d="M8307 12979
L8269 12961
L8232 12923
L8176 12867
L8138 12848
L8101 12848
" />
<path d="M8119 12942
L8082 12923
L8044 12886
L8026 12811
L8026 12679
L8044 12604
L8082 12567
L8119 12548
L8194 12548
L8232 12567
L8269 12604
L8288 12679
L8288 12811
L8269 12886
L8232 12923
L8194 12942
L8119 12942
" />
<path d="M8438 12586
L8457 12567
L8494 12548
L8588 12548
L8626 12567
L8644 12586
L8663 12623
L8663 12661
L8644 12717
L8419 12942
L8663 12942
" />
<path d="M9263 15692
L9282 15654
L9319 15617
L9376 15561
L9394 15523
L9394 15486
" />
<path d="M9301 15504
L9319 15467
L9357 15429
L9432 15411
L9563 15411
L9638 15429
L9675 15467
L9694 15504
L9694 15579
L9675 15617
L9638 15654
L9563 15673
L9432 15673
L9357 15654
L9319 15617
L9301 15579
L9301 15504
" />
<path d="M9694 15804
L9694 16048
L9544 15917
L9544 15973
L9526 16011
L9507 16029
L9469 16048
L9376 16048
L9338 16029
L9319 16011
L9301 15973
L9301 15861
L9319 15823
L9338 15804
" />
<path d="M9263 18942
L9282 18904
L9319 18867
L9376 18811
L9394 18773
L9394 18736
" />
<path d="M9301 18754
L9319 18717
L9357 18679
L9432 18661
L9563 18661
L9638 18679
L9675 18717
L9694 18754
L9694 18829
L9675 18867
L9638 18904
L9563 18923
L9432 18923
L9357 18904
L9319 18867
L9301 18829
L9301 18754
" />
<path d="M9563 19261
L9301 19261
" />
<path d="M9713 19167
L9432 19073
L9432 19317
" />
<path d="M8391 22678
L8260 22491
" />
<path d="M8166 22678
L8166 22285
L8316 22285
L8354 22303
L8373 22322
L8391 22360
L8391 22416
L8373 22453
L8354 22472
L8316 22491
L8166 22491
" />
<path d="M8766 22678
L8541 22678
" />
<path d="M8654 22678
L8654 22285
L8616 22341
L8579 22378
L8541 22397
" />
<path d="M9141 22678
L8916 22678
" />
<path d="M9029 22678
L9029 22285
L8991 22341
L8954 22378
L8916 22397
" />
<path d="M8391 23378
L8260 23191
" />
<path d="M8166 23378
L8166 22985
L8316 22985
L8354 23003
L8373 23022
L8391 23060
L8391 23116
L8373 23153
L8354 23172
L8316 23191
L8166 23191
" />
<path d="M8766 23378
L8541 23378
" />
<path d="M8654 23378
L8654 22985
L8616 23041
L8579 23078
L8541 23097
" />
<path d="M8916 23022
L8935 23003
L8972 22985
L9066 22985
L9104 23003
L9122 23022
L9141 23060
L9141 23097
L9122 23153
L8897 23378
L9141 23378
" />
<path d="M22782 30029
L22463 30029
L22425 30048
L22407 30067
L22388 30104
L22388 30179
L22407 30217
L22425 30236
L22463 30254
L22782 30254
" />
<path d="M22388 30648
L22388 30423
" />
<path d="M22388 30536
L22782 30536
L22725 30498
L22688 30461
L22669 30423
" />
<path d="M12451 22589
L12844 22589
L12844 22683
L12825 22739
L12788 22776
L12750 22795
L12676 22814
L12619 22814
L12544 22795
L12507 22776
L12469 22739
L12451 22683
L12451 22589
" />
<path d="M12451 23189
L12451 22964
" />
<path d="M12451 23076
L12844 23076
L12788 23039
L12750 23001
L12732 22964
" />
<path d="M21891 16777
L21760 16589
" />
<path d="M21666 16777
L21666 16383
L21816 16383
L21854 16402
L21873 16421
L21891 16458
L21891 16514
L21873 16552
L21854 16571
L21816 16589
L21666 16589
" />
<path d="M22266 16777
L22041 16777
" />
<path d="M22154 16777
L22154 16383
L22116 16439
L22079 16477
L22041 16496
" />
<path d="M22604 16514
L22604 16777
" />
<path d="M22510 16364
L22416 16646
L22660 16646
" />
<path d="M16604 28992
L16604 28598
L16698 28598
L16754 28617
L16791 28654
L16810 28692
L16829 28767
L16829 28823
L16810 28898
L16791 28936
L16754 28973
L16698 28992
L16604 28992
" />
<path d="M17054 28767
L17016 28748
L16997 28729
L16979 28692
L16979 28673
L16997 28636
L17016 28617
L17054 28598
L17129 28598
L17166 28617
L17185 28636
L17204 28673
L17204 28692
L17185 28729
L17166 28748
L17129 28767
L17054 28767
L17016 28786
L16997 28804
L16979 28842
L16979 28917
L16997 28954
L17016 28973
L17054 28992
L17129 28992
L17166 28973
L17185 28954
L17204 28917
L17204 28842
L17185 28804
L17166 28786
L17129 28767
" />
<path d="M15051 31739
L15444 31739
L15444 31833
L15425 31889
L15388 31926
L15350 31945
L15276 31964
L15219 31964
L15144 31945
L15107 31926
L15069 31889
L15051 31833
L15051 31739
" />
<path d="M15051 32151
L15051 32226
L15069 32264
L15088 32283
L15144 32320
L15219 32339
L15369 32339
L15407 32320
L15425 32301
L15444 32264
L15444 32189
L15425 32151
L15407 32133
L15369 32114
L15276 32114
L15238 32133
L15219 32151
L15201 32189
L15201 32264
L15219 32301
L15238 32320
L15276 32339
" />
</g>
<g style="fill:#000000; fill-opacity:0.0; 
stroke:#000000; stroke-width:47.2441; stroke-opacity:1; 
stroke-linecap:round; stroke-linejoin:round;">
<path d="M20095 14907
L20095 15274
" />
<path d="M20095 16151
L20095 15785
" />
<path d="M20095 16151
L20946 16151
" />
<path d="M20095 14907
L20670 14907
" />
<path d="M21994 27501
L21994 27135
" />
<path d="M21994 26257
L21994 26624
" />
<path d="M21994 26257
L20749 26257
" />
<path d="M21994 27501
L21419 27501
" />
</g>
<g style="fill:#000000; fill-opacity:0.0; 
stroke:#000000; stroke-width:59.0551; stroke-opacity:1; 
stroke-linecap:round; stroke-linejoin:round;">
<path d="M18098 28814
L18491 28814
" />
<path d="M18491 29345
L18098 29345
" />
<path d="M16210 28822
L16603 28822
" />
<path d="M16603 29353
L16210 29353
" />
<path d="M18173 30247
L18566 30247
" />
<path d="M18566 30778
L18173 30778
" />
<path d="M16693 31140
L16693 30747
" />
<path d="M17224 30747
L17224 31140
" />
<path d="M22960 14433
L22960 14826
" />
<path d="M22429 14826
L22429 14433
" />
</g>
<g style="fill:#000000; fill-opacity:0.0; 
stroke:#000000; stroke-width:47.2441; stroke-opacity:1; 
stroke-linecap:round; stroke-linejoin:round;">
<path d="M19658 27017
L19658 26742
" />
<path d="M20131 26742
L20131 27017
" />
<path d="M21057 32793
L21332 32793
" />
<path d="M21332 33266
L21057 33266
" />
<path d="M8045 11157
L8045 11524
" />
<path d="M8045 12401
L8045 12035
" />
<path d="M8045 12401
L9289 12401
" />
<path d="M8045 11157
L8620 11157
" />
<path d="M7872 16029
L8238 16029
" />
<path d="M9116 16029
L8750 16029
" />
<path d="M9116 16029
L9116 14785
" />
<path d="M7872 16029
L7872 15454
" />
<path d="M7872 19279
L8238 19279
" />
<path d="M9116 19279
L8750 19279
" />
<path d="M9116 19279
L9116 18035
" />
<path d="M7872 19279
L7872 18704
" />
<path d="M8448 21662
L8841 21662
" />
<path d="M8841 22197
L8448 22197
" />
<path d="M8448 22362
L8841 22362
" />
<path d="M8841 22897
L8448 22897
" />
<path d="M19452 31081
L19948 31081
" />
<path d="M22137 31081
L21641 31081
" />
<path d="M19452 29601
L19452 31081
" />
<path d="M22137 28715
L22137 31081
" />
<path d="M11022 23179
L11388 23179
" />
<path d="M12266 23179
L11900 23179
" />
<path d="M12266 23179
L12266 22328
" />
<path d="M11022 23179
L11022 22604
" />
<path d="M21908 15583
L22381 15583
" />
<path d="M22381 16276
L21908 16276
" />
<path d="M18233 28479
L18233 27180
" />
<path d="M18233 27180
L16107 27180
" />
<path d="M18233 28479
L16107 28479
" />
<path d="M14894 30691
L13595 30691
" />
<path d="M13595 30691
L13595 32817
" />
<path d="M14894 30691
L14894 32817
" />
</g> 
</svg>
