%FSLAX45Y45*%
G04 Gerber Fmt 4.5, Leading zero omitted, Abs format (unit mm)*
G04 Created by KiCad (PCBNEW 5.1.6) date 2020-10-24 20:22:54*
%MOMM*%
%LPD*%
G01*
G04 APERTURE LIST*
%TA.AperFunction,Profile*%
%ADD10C,0.150000*%
%TD*%
%ADD11C,0.200000*%
%ADD12C,0.300000*%
G04 APERTURE END LIST*
D10*
X3800000Y-10450000D02*
X3800000Y-5200000D01*
X11350000Y-10450000D02*
X3800000Y-10450000D01*
X11350000Y-5200000D02*
X11350000Y-10450000D01*
X3800000Y-5200000D02*
X11350000Y-5200000D01*
D11*
X10590000Y-9890000D02*
X10910000Y-10210000D01*
X10910000Y-9890000D02*
X10590000Y-10210000D01*
X4290000Y-5940000D02*
X4610000Y-6260000D01*
X4610000Y-5940000D02*
X4290000Y-6260000D01*
X10590000Y-5940000D02*
X10910000Y-6260000D01*
X10910000Y-5940000D02*
X10590000Y-6260000D01*
X4290000Y-9890000D02*
X4610000Y-10210000D01*
X4610000Y-9890000D02*
X4290000Y-10210000D01*
D12*
X4078928Y-10923214D02*
X4078928Y-10623214D01*
X4150357Y-10623214D01*
X4193214Y-10637500D01*
X4221786Y-10666072D01*
X4236071Y-10694643D01*
X4250357Y-10751786D01*
X4250357Y-10794643D01*
X4236071Y-10851786D01*
X4221786Y-10880357D01*
X4193214Y-10908929D01*
X4150357Y-10923214D01*
X4078928Y-10923214D01*
X4378928Y-10923214D02*
X4378928Y-10723214D01*
X4378928Y-10780357D02*
X4393214Y-10751786D01*
X4407500Y-10737500D01*
X4436071Y-10723214D01*
X4464643Y-10723214D01*
X4564643Y-10923214D02*
X4564643Y-10723214D01*
X4564643Y-10623214D02*
X4550357Y-10637500D01*
X4564643Y-10651786D01*
X4578928Y-10637500D01*
X4564643Y-10623214D01*
X4564643Y-10651786D01*
X4750357Y-10923214D02*
X4721786Y-10908929D01*
X4707500Y-10880357D01*
X4707500Y-10623214D01*
X4907500Y-10923214D02*
X4878928Y-10908929D01*
X4864643Y-10880357D01*
X4864643Y-10623214D01*
X5250357Y-10923214D02*
X5250357Y-10623214D01*
X5350357Y-10837500D01*
X5450357Y-10623214D01*
X5450357Y-10923214D01*
X5721786Y-10923214D02*
X5721786Y-10766072D01*
X5707500Y-10737500D01*
X5678928Y-10723214D01*
X5621786Y-10723214D01*
X5593214Y-10737500D01*
X5721786Y-10908929D02*
X5693214Y-10923214D01*
X5621786Y-10923214D01*
X5593214Y-10908929D01*
X5578928Y-10880357D01*
X5578928Y-10851786D01*
X5593214Y-10823214D01*
X5621786Y-10808929D01*
X5693214Y-10808929D01*
X5721786Y-10794643D01*
X5864643Y-10723214D02*
X5864643Y-11023214D01*
X5864643Y-10737500D02*
X5893214Y-10723214D01*
X5950357Y-10723214D01*
X5978928Y-10737500D01*
X5993214Y-10751786D01*
X6007500Y-10780357D01*
X6007500Y-10866072D01*
X5993214Y-10894643D01*
X5978928Y-10908929D01*
X5950357Y-10923214D01*
X5893214Y-10923214D01*
X5864643Y-10908929D01*
X6136071Y-10894643D02*
X6150357Y-10908929D01*
X6136071Y-10923214D01*
X6121786Y-10908929D01*
X6136071Y-10894643D01*
X6136071Y-10923214D01*
X6136071Y-10737500D02*
X6150357Y-10751786D01*
X6136071Y-10766072D01*
X6121786Y-10751786D01*
X6136071Y-10737500D01*
X6136071Y-10766072D01*
X3472500Y-11257500D02*
X3792500Y-11577500D01*
X3792500Y-11257500D02*
X3472500Y-11577500D01*
X4050357Y-11253214D02*
X4236071Y-11253214D01*
X4136071Y-11367500D01*
X4178928Y-11367500D01*
X4207500Y-11381786D01*
X4221786Y-11396071D01*
X4236071Y-11424643D01*
X4236071Y-11496071D01*
X4221786Y-11524643D01*
X4207500Y-11538929D01*
X4178928Y-11553214D01*
X4093214Y-11553214D01*
X4064643Y-11538929D01*
X4050357Y-11524643D01*
X4364643Y-11524643D02*
X4378928Y-11538929D01*
X4364643Y-11553214D01*
X4350357Y-11538929D01*
X4364643Y-11524643D01*
X4364643Y-11553214D01*
X4493214Y-11281786D02*
X4507500Y-11267500D01*
X4536071Y-11253214D01*
X4607500Y-11253214D01*
X4636071Y-11267500D01*
X4650357Y-11281786D01*
X4664643Y-11310357D01*
X4664643Y-11338929D01*
X4650357Y-11381786D01*
X4478928Y-11553214D01*
X4664643Y-11553214D01*
X4850357Y-11253214D02*
X4878928Y-11253214D01*
X4907500Y-11267500D01*
X4921786Y-11281786D01*
X4936071Y-11310357D01*
X4950357Y-11367500D01*
X4950357Y-11438929D01*
X4936071Y-11496071D01*
X4921786Y-11524643D01*
X4907500Y-11538929D01*
X4878928Y-11553214D01*
X4850357Y-11553214D01*
X4821786Y-11538929D01*
X4807500Y-11524643D01*
X4793214Y-11496071D01*
X4778928Y-11438929D01*
X4778928Y-11367500D01*
X4793214Y-11310357D01*
X4807500Y-11281786D01*
X4821786Y-11267500D01*
X4850357Y-11253214D01*
X5078928Y-11553214D02*
X5078928Y-11353214D01*
X5078928Y-11381786D02*
X5093214Y-11367500D01*
X5121786Y-11353214D01*
X5164643Y-11353214D01*
X5193214Y-11367500D01*
X5207500Y-11396071D01*
X5207500Y-11553214D01*
X5207500Y-11396071D02*
X5221786Y-11367500D01*
X5250357Y-11353214D01*
X5293214Y-11353214D01*
X5321786Y-11367500D01*
X5336071Y-11396071D01*
X5336071Y-11553214D01*
X5478928Y-11553214D02*
X5478928Y-11353214D01*
X5478928Y-11381786D02*
X5493214Y-11367500D01*
X5521786Y-11353214D01*
X5564643Y-11353214D01*
X5593214Y-11367500D01*
X5607500Y-11396071D01*
X5607500Y-11553214D01*
X5607500Y-11396071D02*
X5621786Y-11367500D01*
X5650357Y-11353214D01*
X5693214Y-11353214D01*
X5721786Y-11367500D01*
X5736071Y-11396071D01*
X5736071Y-11553214D01*
X6321786Y-11238929D02*
X6064643Y-11624643D01*
X6707500Y-11253214D02*
X6736071Y-11253214D01*
X6764643Y-11267500D01*
X6778928Y-11281786D01*
X6793214Y-11310357D01*
X6807500Y-11367500D01*
X6807500Y-11438929D01*
X6793214Y-11496071D01*
X6778928Y-11524643D01*
X6764643Y-11538929D01*
X6736071Y-11553214D01*
X6707500Y-11553214D01*
X6678928Y-11538929D01*
X6664643Y-11524643D01*
X6650357Y-11496071D01*
X6636071Y-11438929D01*
X6636071Y-11367500D01*
X6650357Y-11310357D01*
X6664643Y-11281786D01*
X6678928Y-11267500D01*
X6707500Y-11253214D01*
X6936071Y-11524643D02*
X6950357Y-11538929D01*
X6936071Y-11553214D01*
X6921786Y-11538929D01*
X6936071Y-11524643D01*
X6936071Y-11553214D01*
X7236071Y-11553214D02*
X7064643Y-11553214D01*
X7150357Y-11553214D02*
X7150357Y-11253214D01*
X7121786Y-11296071D01*
X7093214Y-11324643D01*
X7064643Y-11338929D01*
X7350357Y-11281786D02*
X7364643Y-11267500D01*
X7393214Y-11253214D01*
X7464643Y-11253214D01*
X7493214Y-11267500D01*
X7507500Y-11281786D01*
X7521786Y-11310357D01*
X7521786Y-11338929D01*
X7507500Y-11381786D01*
X7336071Y-11553214D01*
X7521786Y-11553214D01*
X7778928Y-11253214D02*
X7721786Y-11253214D01*
X7693214Y-11267500D01*
X7678928Y-11281786D01*
X7650357Y-11324643D01*
X7636071Y-11381786D01*
X7636071Y-11496071D01*
X7650357Y-11524643D01*
X7664643Y-11538929D01*
X7693214Y-11553214D01*
X7750357Y-11553214D01*
X7778928Y-11538929D01*
X7793214Y-11524643D01*
X7807500Y-11496071D01*
X7807500Y-11424643D01*
X7793214Y-11396071D01*
X7778928Y-11381786D01*
X7750357Y-11367500D01*
X7693214Y-11367500D01*
X7664643Y-11381786D01*
X7650357Y-11396071D01*
X7636071Y-11424643D01*
X7921786Y-11253214D02*
X7921786Y-11310357D01*
X8036071Y-11253214D02*
X8036071Y-11310357D01*
X8478928Y-11667500D02*
X8464643Y-11653214D01*
X8436071Y-11610357D01*
X8421786Y-11581786D01*
X8407500Y-11538929D01*
X8393214Y-11467500D01*
X8393214Y-11410357D01*
X8407500Y-11338929D01*
X8421786Y-11296071D01*
X8436071Y-11267500D01*
X8464643Y-11224643D01*
X8478928Y-11210357D01*
X8721786Y-11353214D02*
X8721786Y-11553214D01*
X8650357Y-11238929D02*
X8578928Y-11453214D01*
X8764643Y-11453214D01*
X9107500Y-11553214D02*
X9107500Y-11253214D01*
X9236071Y-11553214D02*
X9236071Y-11396071D01*
X9221786Y-11367500D01*
X9193214Y-11353214D01*
X9150357Y-11353214D01*
X9121786Y-11367500D01*
X9107500Y-11381786D01*
X9421786Y-11553214D02*
X9393214Y-11538929D01*
X9378928Y-11524643D01*
X9364643Y-11496071D01*
X9364643Y-11410357D01*
X9378928Y-11381786D01*
X9393214Y-11367500D01*
X9421786Y-11353214D01*
X9464643Y-11353214D01*
X9493214Y-11367500D01*
X9507500Y-11381786D01*
X9521786Y-11410357D01*
X9521786Y-11496071D01*
X9507500Y-11524643D01*
X9493214Y-11538929D01*
X9464643Y-11553214D01*
X9421786Y-11553214D01*
X9693214Y-11553214D02*
X9664643Y-11538929D01*
X9650357Y-11510357D01*
X9650357Y-11253214D01*
X9921786Y-11538929D02*
X9893214Y-11553214D01*
X9836071Y-11553214D01*
X9807500Y-11538929D01*
X9793214Y-11510357D01*
X9793214Y-11396071D01*
X9807500Y-11367500D01*
X9836071Y-11353214D01*
X9893214Y-11353214D01*
X9921786Y-11367500D01*
X9936071Y-11396071D01*
X9936071Y-11424643D01*
X9793214Y-11453214D01*
X10050357Y-11538929D02*
X10078928Y-11553214D01*
X10136071Y-11553214D01*
X10164643Y-11538929D01*
X10178928Y-11510357D01*
X10178928Y-11496071D01*
X10164643Y-11467500D01*
X10136071Y-11453214D01*
X10093214Y-11453214D01*
X10064643Y-11438929D01*
X10050357Y-11410357D01*
X10050357Y-11396071D01*
X10064643Y-11367500D01*
X10093214Y-11353214D01*
X10136071Y-11353214D01*
X10164643Y-11367500D01*
X10278928Y-11667500D02*
X10293214Y-11653214D01*
X10321786Y-11610357D01*
X10336071Y-11581786D01*
X10350357Y-11538929D01*
X10364643Y-11467500D01*
X10364643Y-11410357D01*
X10350357Y-11338929D01*
X10336071Y-11296071D01*
X10321786Y-11267500D01*
X10293214Y-11224643D01*
X10278928Y-11210357D01*
X10821786Y-11667500D02*
X10807500Y-11653214D01*
X10778928Y-11610357D01*
X10764643Y-11581786D01*
X10750357Y-11538929D01*
X10736071Y-11467500D01*
X10736071Y-11410357D01*
X10750357Y-11338929D01*
X10764643Y-11296071D01*
X10778928Y-11267500D01*
X10807500Y-11224643D01*
X10821786Y-11210357D01*
X10936071Y-11353214D02*
X10936071Y-11553214D01*
X10936071Y-11381786D02*
X10950357Y-11367500D01*
X10978928Y-11353214D01*
X11021786Y-11353214D01*
X11050357Y-11367500D01*
X11064643Y-11396071D01*
X11064643Y-11553214D01*
X11250357Y-11553214D02*
X11221786Y-11538929D01*
X11207500Y-11524643D01*
X11193214Y-11496071D01*
X11193214Y-11410357D01*
X11207500Y-11381786D01*
X11221786Y-11367500D01*
X11250357Y-11353214D01*
X11293214Y-11353214D01*
X11321786Y-11367500D01*
X11336071Y-11381786D01*
X11350357Y-11410357D01*
X11350357Y-11496071D01*
X11336071Y-11524643D01*
X11321786Y-11538929D01*
X11293214Y-11553214D01*
X11250357Y-11553214D01*
X11436071Y-11353214D02*
X11550357Y-11353214D01*
X11478928Y-11253214D02*
X11478928Y-11510357D01*
X11493214Y-11538929D01*
X11521786Y-11553214D01*
X11550357Y-11553214D01*
X11878928Y-11353214D02*
X11878928Y-11653214D01*
X11878928Y-11367500D02*
X11907500Y-11353214D01*
X11964643Y-11353214D01*
X11993214Y-11367500D01*
X12007500Y-11381786D01*
X12021786Y-11410357D01*
X12021786Y-11496071D01*
X12007500Y-11524643D01*
X11993214Y-11538929D01*
X11964643Y-11553214D01*
X11907500Y-11553214D01*
X11878928Y-11538929D01*
X12193214Y-11553214D02*
X12164643Y-11538929D01*
X12150357Y-11510357D01*
X12150357Y-11253214D01*
X12436071Y-11553214D02*
X12436071Y-11396071D01*
X12421786Y-11367500D01*
X12393214Y-11353214D01*
X12336071Y-11353214D01*
X12307500Y-11367500D01*
X12436071Y-11538929D02*
X12407500Y-11553214D01*
X12336071Y-11553214D01*
X12307500Y-11538929D01*
X12293214Y-11510357D01*
X12293214Y-11481786D01*
X12307500Y-11453214D01*
X12336071Y-11438929D01*
X12407500Y-11438929D01*
X12436071Y-11424643D01*
X12536071Y-11353214D02*
X12650357Y-11353214D01*
X12578928Y-11253214D02*
X12578928Y-11510357D01*
X12593214Y-11538929D01*
X12621786Y-11553214D01*
X12650357Y-11553214D01*
X12864643Y-11538929D02*
X12836071Y-11553214D01*
X12778928Y-11553214D01*
X12750357Y-11538929D01*
X12736071Y-11510357D01*
X12736071Y-11396071D01*
X12750357Y-11367500D01*
X12778928Y-11353214D01*
X12836071Y-11353214D01*
X12864643Y-11367500D01*
X12878928Y-11396071D01*
X12878928Y-11424643D01*
X12736071Y-11453214D01*
X13136071Y-11553214D02*
X13136071Y-11253214D01*
X13136071Y-11538929D02*
X13107500Y-11553214D01*
X13050357Y-11553214D01*
X13021786Y-11538929D01*
X13007500Y-11524643D01*
X12993214Y-11496071D01*
X12993214Y-11410357D01*
X13007500Y-11381786D01*
X13021786Y-11367500D01*
X13050357Y-11353214D01*
X13107500Y-11353214D01*
X13136071Y-11367500D01*
X13250357Y-11667500D02*
X13264643Y-11653214D01*
X13293214Y-11610357D01*
X13307500Y-11581786D01*
X13321786Y-11538929D01*
X13336071Y-11467500D01*
X13336071Y-11410357D01*
X13321786Y-11338929D01*
X13307500Y-11296071D01*
X13293214Y-11267500D01*
X13264643Y-11224643D01*
X13250357Y-11210357D01*
M02*
