G04 #@! TF.GenerationSoftware,KiCad,Pcbnew,5.1.6*
G04 #@! TF.CreationDate,2020-10-24T20:22:56+03:00*
G04 #@! TF.ProjectId,stm32,73746d33-322e-46b6-9963-61645f706362,rev?*
G04 #@! TF.SameCoordinates,Original*
G04 #@! TF.FileFunction,Legend,Top*
G04 #@! TF.FilePolarity,Positive*
%FSLAX46Y46*%
G04 Gerber Fmt 4.6, Leading zero omitted, Abs format (unit mm)*
G04 Created by KiCad (PCBNEW 5.1.6) date 2020-10-24 20:22:56*
%MOMM*%
%LPD*%
G01*
G04 APERTURE LIST*
G04 #@! TA.AperFunction,Profile*
%ADD10C,0.150000*%
G04 #@! TD*
%ADD11C,0.120000*%
%ADD12C,0.150000*%
G04 APERTURE END LIST*
D10*
X38000000Y-104500000D02*
X38000000Y-52000000D01*
X113500000Y-104500000D02*
X38000000Y-104500000D01*
X113500000Y-52000000D02*
X113500000Y-104500000D01*
X38000000Y-52000000D02*
X113500000Y-52000000D01*
D11*
X62040000Y-90715267D02*
X62040000Y-90372733D01*
X63060000Y-90715267D02*
X63060000Y-90372733D01*
X67187500Y-90679767D02*
X67187500Y-90337233D01*
X66167500Y-90679767D02*
X66167500Y-90337233D01*
X45267000Y-88954233D02*
X45267000Y-89296767D01*
X44247000Y-88954233D02*
X44247000Y-89296767D01*
X70168000Y-90665767D02*
X70168000Y-90323233D01*
X71188000Y-90665767D02*
X71188000Y-90323233D01*
X75252000Y-90651767D02*
X75252000Y-90309233D01*
X74232000Y-90651767D02*
X74232000Y-90309233D01*
X96892500Y-95494733D02*
X96892500Y-95837267D01*
X95872500Y-95494733D02*
X95872500Y-95837267D01*
X108997500Y-89096000D02*
X108997500Y-96031000D01*
X112417500Y-89096000D02*
X108997500Y-89096000D01*
X112417500Y-96031000D02*
X112417500Y-89096000D01*
X44247000Y-92761267D02*
X44247000Y-92418733D01*
X45267000Y-92761267D02*
X45267000Y-92418733D01*
X48080000Y-92607564D02*
X48080000Y-91403436D01*
X46260000Y-92607564D02*
X46260000Y-91403436D01*
X89872267Y-91590000D02*
X89529733Y-91590000D01*
X89872267Y-90570000D02*
X89529733Y-90570000D01*
X93050233Y-91590000D02*
X93392767Y-91590000D01*
X93050233Y-90570000D02*
X93392767Y-90570000D01*
X85938233Y-88732500D02*
X86280767Y-88732500D01*
X85938233Y-87712500D02*
X86280767Y-87712500D01*
X80794733Y-93177500D02*
X81137267Y-93177500D01*
X80794733Y-92157500D02*
X81137267Y-92157500D01*
X90161500Y-78106767D02*
X90161500Y-77764233D01*
X89141500Y-78106767D02*
X89141500Y-77764233D01*
X84350733Y-93177500D02*
X84693267Y-93177500D01*
X84350733Y-92157500D02*
X84693267Y-92157500D01*
X79676767Y-75778500D02*
X79334233Y-75778500D01*
X79676767Y-74758500D02*
X79334233Y-74758500D01*
X74731000Y-82107267D02*
X74731000Y-81764733D01*
X73711000Y-82107267D02*
X73711000Y-81764733D01*
X99930640Y-89390000D02*
X96780640Y-89390000D01*
X99930640Y-87690000D02*
X96780640Y-87690000D01*
X99930640Y-89390000D02*
X99930640Y-87690000D01*
X104613000Y-87793000D02*
X104613000Y-84643000D01*
X106313000Y-87793000D02*
X106313000Y-84643000D01*
X104613000Y-87793000D02*
X106313000Y-87793000D01*
X50127000Y-89309500D02*
X52987000Y-89309500D01*
X50127000Y-87389500D02*
X50127000Y-89309500D01*
X52987000Y-87389500D02*
X50127000Y-87389500D01*
X82411600Y-57602400D02*
X82411600Y-60752400D01*
X80711600Y-57602400D02*
X80711600Y-60752400D01*
X82411600Y-57602400D02*
X80711600Y-57602400D01*
X97905600Y-57602400D02*
X96205600Y-57602400D01*
X96205600Y-57602400D02*
X96205600Y-60752400D01*
X97905600Y-57602400D02*
X97905600Y-60752400D01*
X66372000Y-57273500D02*
X66372000Y-58973500D01*
X66372000Y-58973500D02*
X69522000Y-58973500D01*
X66372000Y-57273500D02*
X69522000Y-57273500D01*
X81761500Y-93676000D02*
X78901500Y-93676000D01*
X78901500Y-93676000D02*
X78901500Y-95596000D01*
X78901500Y-95596000D02*
X81761500Y-95596000D01*
X62931000Y-80824000D02*
X62931000Y-77674000D01*
X64631000Y-80824000D02*
X64631000Y-77674000D01*
X62931000Y-80824000D02*
X64631000Y-80824000D01*
X70272500Y-81538748D02*
X70272500Y-82061252D01*
X71692500Y-81538748D02*
X71692500Y-82061252D01*
X50420000Y-93260000D02*
X50420000Y-91800000D01*
X53580000Y-93260000D02*
X53580000Y-90100000D01*
X53580000Y-93260000D02*
X52650000Y-93260000D01*
X50420000Y-93260000D02*
X51350000Y-93260000D01*
X78281600Y-62332400D02*
X78281600Y-61402400D01*
X78281600Y-59172400D02*
X78281600Y-60102400D01*
X78281600Y-59172400D02*
X75121600Y-59172400D01*
X78281600Y-62332400D02*
X76821600Y-62332400D01*
X95332200Y-61533240D02*
X95332200Y-62993240D01*
X92172200Y-61533240D02*
X92172200Y-64693240D01*
X92172200Y-61533240D02*
X93102200Y-61533240D01*
X95332200Y-61533240D02*
X94402200Y-61533240D01*
X100405000Y-74943500D02*
X100405000Y-74013500D01*
X100405000Y-71783500D02*
X100405000Y-72713500D01*
X100405000Y-71783500D02*
X97245000Y-71783500D01*
X100405000Y-74943500D02*
X98945000Y-74943500D01*
X69340800Y-63297600D02*
X67880800Y-63297600D01*
X69340800Y-60137600D02*
X66180800Y-60137600D01*
X69340800Y-60137600D02*
X69340800Y-61067600D01*
X69340800Y-63297600D02*
X69340800Y-62367600D01*
X64512840Y-72094280D02*
X65972840Y-72094280D01*
X64512840Y-75254280D02*
X67672840Y-75254280D01*
X64512840Y-75254280D02*
X64512840Y-74324280D01*
X64512840Y-72094280D02*
X64512840Y-73024280D01*
X54661000Y-91557733D02*
X54661000Y-91900267D01*
X55681000Y-91557733D02*
X55681000Y-91900267D01*
X64072000Y-90715267D02*
X64072000Y-90372733D01*
X65092000Y-90715267D02*
X65092000Y-90372733D01*
X63295748Y-94252500D02*
X63818252Y-94252500D01*
X63295748Y-92832500D02*
X63818252Y-92832500D01*
X69219500Y-90651767D02*
X69219500Y-90309233D01*
X68199500Y-90651767D02*
X68199500Y-90309233D01*
X67441248Y-92832500D02*
X67963752Y-92832500D01*
X67441248Y-94252500D02*
X67963752Y-94252500D01*
X73220000Y-90679767D02*
X73220000Y-90337233D01*
X72200000Y-90679767D02*
X72200000Y-90337233D01*
X71423748Y-94252500D02*
X71946252Y-94252500D01*
X71423748Y-92832500D02*
X71946252Y-92832500D01*
X77284000Y-90651767D02*
X77284000Y-90309233D01*
X76264000Y-90651767D02*
X76264000Y-90309233D01*
X75487748Y-94252500D02*
X76010252Y-94252500D01*
X75487748Y-92832500D02*
X76010252Y-92832500D01*
X73177600Y-60490933D02*
X73177600Y-60833467D01*
X74197600Y-60490933D02*
X74197600Y-60833467D01*
X93520133Y-66698000D02*
X93862667Y-66698000D01*
X93520133Y-65678000D02*
X93862667Y-65678000D01*
X95043767Y-72921000D02*
X94701233Y-72921000D01*
X95043767Y-71901000D02*
X94701233Y-71901000D01*
X74733867Y-63954800D02*
X74391333Y-63954800D01*
X74733867Y-62934800D02*
X74391333Y-62934800D01*
X97108400Y-65141733D02*
X97108400Y-65484267D01*
X96088400Y-65141733D02*
X96088400Y-65484267D01*
X65206000Y-61456133D02*
X65206000Y-61798667D01*
X64186000Y-61456133D02*
X64186000Y-61798667D01*
X95015767Y-73806000D02*
X94673233Y-73806000D01*
X95015767Y-74826000D02*
X94673233Y-74826000D01*
X65770267Y-64204800D02*
X65427733Y-64204800D01*
X65770267Y-65224800D02*
X65427733Y-65224800D01*
X83540800Y-60048667D02*
X83540800Y-59706133D01*
X84560800Y-60048667D02*
X84560800Y-59706133D01*
X99034800Y-59997867D02*
X99034800Y-59655333D01*
X100054800Y-59997867D02*
X100054800Y-59655333D01*
X87100800Y-60048667D02*
X87100800Y-59706133D01*
X86080800Y-60048667D02*
X86080800Y-59706133D01*
X102645600Y-59997867D02*
X102645600Y-59655333D01*
X101625600Y-59997867D02*
X101625600Y-59655333D01*
X81492267Y-69083500D02*
X81149733Y-69083500D01*
X81492267Y-68063500D02*
X81149733Y-68063500D01*
X76060500Y-71682233D02*
X76060500Y-72024767D01*
X77080500Y-71682233D02*
X77080500Y-72024767D01*
X91114000Y-86767233D02*
X91114000Y-87109767D01*
X90094000Y-86767233D02*
X90094000Y-87109767D01*
X91808500Y-86767233D02*
X91808500Y-87109767D01*
X92828500Y-86767233D02*
X92828500Y-87109767D01*
X57972233Y-88828000D02*
X58314767Y-88828000D01*
X57972233Y-89848000D02*
X58314767Y-89848000D01*
X58251267Y-88070000D02*
X57908733Y-88070000D01*
X58251267Y-87050000D02*
X57908733Y-87050000D01*
X102346267Y-86633000D02*
X102003733Y-86633000D01*
X102346267Y-87653000D02*
X102003733Y-87653000D01*
X102003733Y-84664500D02*
X102346267Y-84664500D01*
X102003733Y-85684500D02*
X102346267Y-85684500D01*
X94091267Y-80537000D02*
X93748733Y-80537000D01*
X94091267Y-81557000D02*
X93748733Y-81557000D01*
X94091267Y-79969500D02*
X93748733Y-79969500D01*
X94091267Y-78949500D02*
X93748733Y-78949500D01*
X67450973Y-77018920D02*
X67793507Y-77018920D01*
X67450973Y-75998920D02*
X67793507Y-75998920D01*
X106324500Y-96776000D02*
X100314500Y-96776000D01*
X104074500Y-89956000D02*
X100314500Y-89956000D01*
X100314500Y-96776000D02*
X100314500Y-95516000D01*
X100314500Y-89956000D02*
X100314500Y-91216000D01*
X79366500Y-78453500D02*
X78076500Y-78453500D01*
X79366500Y-78003500D02*
X79366500Y-78453500D01*
X79816500Y-78003500D02*
X79366500Y-78003500D01*
X86586500Y-78003500D02*
X86586500Y-78453500D01*
X86136500Y-78003500D02*
X86586500Y-78003500D01*
X79366500Y-85223500D02*
X79366500Y-84773500D01*
X79816500Y-85223500D02*
X79366500Y-85223500D01*
X86586500Y-85223500D02*
X86586500Y-84773500D01*
X86136500Y-85223500D02*
X86586500Y-85223500D01*
X100119500Y-78675000D02*
X97669500Y-78675000D01*
X98319500Y-81895000D02*
X100119500Y-81895000D01*
X69535560Y-73849387D02*
X69535560Y-73506853D01*
X68515560Y-73849387D02*
X68515560Y-73506853D01*
D12*
X62446833Y-88248142D02*
X62399214Y-88295761D01*
X62256357Y-88343380D01*
X62161119Y-88343380D01*
X62018261Y-88295761D01*
X61923023Y-88200523D01*
X61875404Y-88105285D01*
X61827785Y-87914809D01*
X61827785Y-87771952D01*
X61875404Y-87581476D01*
X61923023Y-87486238D01*
X62018261Y-87391000D01*
X62161119Y-87343380D01*
X62256357Y-87343380D01*
X62399214Y-87391000D01*
X62446833Y-87438619D01*
X63399214Y-88343380D02*
X62827785Y-88343380D01*
X63113500Y-88343380D02*
X63113500Y-87343380D01*
X63018261Y-87486238D01*
X62923023Y-87581476D01*
X62827785Y-87629095D01*
X66510833Y-88212642D02*
X66463214Y-88260261D01*
X66320357Y-88307880D01*
X66225119Y-88307880D01*
X66082261Y-88260261D01*
X65987023Y-88165023D01*
X65939404Y-88069785D01*
X65891785Y-87879309D01*
X65891785Y-87736452D01*
X65939404Y-87545976D01*
X65987023Y-87450738D01*
X66082261Y-87355500D01*
X66225119Y-87307880D01*
X66320357Y-87307880D01*
X66463214Y-87355500D01*
X66510833Y-87403119D01*
X66891785Y-87403119D02*
X66939404Y-87355500D01*
X67034642Y-87307880D01*
X67272738Y-87307880D01*
X67367976Y-87355500D01*
X67415595Y-87403119D01*
X67463214Y-87498357D01*
X67463214Y-87593595D01*
X67415595Y-87736452D01*
X66844166Y-88307880D01*
X67463214Y-88307880D01*
X44526833Y-87055642D02*
X44479214Y-87103261D01*
X44336357Y-87150880D01*
X44241119Y-87150880D01*
X44098261Y-87103261D01*
X44003023Y-87008023D01*
X43955404Y-86912785D01*
X43907785Y-86722309D01*
X43907785Y-86579452D01*
X43955404Y-86388976D01*
X44003023Y-86293738D01*
X44098261Y-86198500D01*
X44241119Y-86150880D01*
X44336357Y-86150880D01*
X44479214Y-86198500D01*
X44526833Y-86246119D01*
X44860166Y-86150880D02*
X45479214Y-86150880D01*
X45145880Y-86531833D01*
X45288738Y-86531833D01*
X45383976Y-86579452D01*
X45431595Y-86627071D01*
X45479214Y-86722309D01*
X45479214Y-86960404D01*
X45431595Y-87055642D01*
X45383976Y-87103261D01*
X45288738Y-87150880D01*
X45003023Y-87150880D01*
X44907785Y-87103261D01*
X44860166Y-87055642D01*
X70511333Y-88135142D02*
X70463714Y-88182761D01*
X70320857Y-88230380D01*
X70225619Y-88230380D01*
X70082761Y-88182761D01*
X69987523Y-88087523D01*
X69939904Y-87992285D01*
X69892285Y-87801809D01*
X69892285Y-87658952D01*
X69939904Y-87468476D01*
X69987523Y-87373238D01*
X70082761Y-87278000D01*
X70225619Y-87230380D01*
X70320857Y-87230380D01*
X70463714Y-87278000D01*
X70511333Y-87325619D01*
X71368476Y-87563714D02*
X71368476Y-88230380D01*
X71130380Y-87182761D02*
X70892285Y-87897047D01*
X71511333Y-87897047D01*
X74638833Y-88184642D02*
X74591214Y-88232261D01*
X74448357Y-88279880D01*
X74353119Y-88279880D01*
X74210261Y-88232261D01*
X74115023Y-88137023D01*
X74067404Y-88041785D01*
X74019785Y-87851309D01*
X74019785Y-87708452D01*
X74067404Y-87517976D01*
X74115023Y-87422738D01*
X74210261Y-87327500D01*
X74353119Y-87279880D01*
X74448357Y-87279880D01*
X74591214Y-87327500D01*
X74638833Y-87375119D01*
X75543595Y-87279880D02*
X75067404Y-87279880D01*
X75019785Y-87756071D01*
X75067404Y-87708452D01*
X75162642Y-87660833D01*
X75400738Y-87660833D01*
X75495976Y-87708452D01*
X75543595Y-87756071D01*
X75591214Y-87851309D01*
X75591214Y-88089404D01*
X75543595Y-88184642D01*
X75495976Y-88232261D01*
X75400738Y-88279880D01*
X75162642Y-88279880D01*
X75067404Y-88232261D01*
X75019785Y-88184642D01*
X96215833Y-98485642D02*
X96168214Y-98533261D01*
X96025357Y-98580880D01*
X95930119Y-98580880D01*
X95787261Y-98533261D01*
X95692023Y-98438023D01*
X95644404Y-98342785D01*
X95596785Y-98152309D01*
X95596785Y-98009452D01*
X95644404Y-97818976D01*
X95692023Y-97723738D01*
X95787261Y-97628500D01*
X95930119Y-97580880D01*
X96025357Y-97580880D01*
X96168214Y-97628500D01*
X96215833Y-97676119D01*
X97072976Y-97580880D02*
X96882500Y-97580880D01*
X96787261Y-97628500D01*
X96739642Y-97676119D01*
X96644404Y-97818976D01*
X96596785Y-98009452D01*
X96596785Y-98390404D01*
X96644404Y-98485642D01*
X96692023Y-98533261D01*
X96787261Y-98580880D01*
X96977738Y-98580880D01*
X97072976Y-98533261D01*
X97120595Y-98485642D01*
X97168214Y-98390404D01*
X97168214Y-98152309D01*
X97120595Y-98057071D01*
X97072976Y-98009452D01*
X96977738Y-97961833D01*
X96787261Y-97961833D01*
X96692023Y-98009452D01*
X96644404Y-98057071D01*
X96596785Y-98152309D01*
X112188333Y-98448642D02*
X112140714Y-98496261D01*
X111997857Y-98543880D01*
X111902619Y-98543880D01*
X111759761Y-98496261D01*
X111664523Y-98401023D01*
X111616904Y-98305785D01*
X111569285Y-98115309D01*
X111569285Y-97972452D01*
X111616904Y-97781976D01*
X111664523Y-97686738D01*
X111759761Y-97591500D01*
X111902619Y-97543880D01*
X111997857Y-97543880D01*
X112140714Y-97591500D01*
X112188333Y-97639119D01*
X112521666Y-97543880D02*
X113188333Y-97543880D01*
X112759761Y-98543880D01*
X44653833Y-95501142D02*
X44606214Y-95548761D01*
X44463357Y-95596380D01*
X44368119Y-95596380D01*
X44225261Y-95548761D01*
X44130023Y-95453523D01*
X44082404Y-95358285D01*
X44034785Y-95167809D01*
X44034785Y-95024952D01*
X44082404Y-94834476D01*
X44130023Y-94739238D01*
X44225261Y-94644000D01*
X44368119Y-94596380D01*
X44463357Y-94596380D01*
X44606214Y-94644000D01*
X44653833Y-94691619D01*
X45225261Y-95024952D02*
X45130023Y-94977333D01*
X45082404Y-94929714D01*
X45034785Y-94834476D01*
X45034785Y-94786857D01*
X45082404Y-94691619D01*
X45130023Y-94644000D01*
X45225261Y-94596380D01*
X45415738Y-94596380D01*
X45510976Y-94644000D01*
X45558595Y-94691619D01*
X45606214Y-94786857D01*
X45606214Y-94834476D01*
X45558595Y-94929714D01*
X45510976Y-94977333D01*
X45415738Y-95024952D01*
X45225261Y-95024952D01*
X45130023Y-95072571D01*
X45082404Y-95120190D01*
X45034785Y-95215428D01*
X45034785Y-95405904D01*
X45082404Y-95501142D01*
X45130023Y-95548761D01*
X45225261Y-95596380D01*
X45415738Y-95596380D01*
X45510976Y-95548761D01*
X45558595Y-95501142D01*
X45606214Y-95405904D01*
X45606214Y-95215428D01*
X45558595Y-95120190D01*
X45510976Y-95072571D01*
X45415738Y-95024952D01*
X46812833Y-89033642D02*
X46765214Y-89081261D01*
X46622357Y-89128880D01*
X46527119Y-89128880D01*
X46384261Y-89081261D01*
X46289023Y-88986023D01*
X46241404Y-88890785D01*
X46193785Y-88700309D01*
X46193785Y-88557452D01*
X46241404Y-88366976D01*
X46289023Y-88271738D01*
X46384261Y-88176500D01*
X46527119Y-88128880D01*
X46622357Y-88128880D01*
X46765214Y-88176500D01*
X46812833Y-88224119D01*
X47289023Y-89128880D02*
X47479500Y-89128880D01*
X47574738Y-89081261D01*
X47622357Y-89033642D01*
X47717595Y-88890785D01*
X47765214Y-88700309D01*
X47765214Y-88319357D01*
X47717595Y-88224119D01*
X47669976Y-88176500D01*
X47574738Y-88128880D01*
X47384261Y-88128880D01*
X47289023Y-88176500D01*
X47241404Y-88224119D01*
X47193785Y-88319357D01*
X47193785Y-88557452D01*
X47241404Y-88652690D01*
X47289023Y-88700309D01*
X47384261Y-88747928D01*
X47574738Y-88747928D01*
X47669976Y-88700309D01*
X47717595Y-88652690D01*
X47765214Y-88557452D01*
X89058142Y-89976642D02*
X89010523Y-90024261D01*
X88867666Y-90071880D01*
X88772428Y-90071880D01*
X88629571Y-90024261D01*
X88534333Y-89929023D01*
X88486714Y-89833785D01*
X88439095Y-89643309D01*
X88439095Y-89500452D01*
X88486714Y-89309976D01*
X88534333Y-89214738D01*
X88629571Y-89119500D01*
X88772428Y-89071880D01*
X88867666Y-89071880D01*
X89010523Y-89119500D01*
X89058142Y-89167119D01*
X90010523Y-90071880D02*
X89439095Y-90071880D01*
X89724809Y-90071880D02*
X89724809Y-89071880D01*
X89629571Y-89214738D01*
X89534333Y-89309976D01*
X89439095Y-89357595D01*
X90343857Y-89071880D02*
X90962904Y-89071880D01*
X90629571Y-89452833D01*
X90772428Y-89452833D01*
X90867666Y-89500452D01*
X90915285Y-89548071D01*
X90962904Y-89643309D01*
X90962904Y-89881404D01*
X90915285Y-89976642D01*
X90867666Y-90024261D01*
X90772428Y-90071880D01*
X90486714Y-90071880D01*
X90391476Y-90024261D01*
X90343857Y-89976642D01*
X92529142Y-89976642D02*
X92481523Y-90024261D01*
X92338666Y-90071880D01*
X92243428Y-90071880D01*
X92100571Y-90024261D01*
X92005333Y-89929023D01*
X91957714Y-89833785D01*
X91910095Y-89643309D01*
X91910095Y-89500452D01*
X91957714Y-89309976D01*
X92005333Y-89214738D01*
X92100571Y-89119500D01*
X92243428Y-89071880D01*
X92338666Y-89071880D01*
X92481523Y-89119500D01*
X92529142Y-89167119D01*
X93481523Y-90071880D02*
X92910095Y-90071880D01*
X93195809Y-90071880D02*
X93195809Y-89071880D01*
X93100571Y-89214738D01*
X93005333Y-89309976D01*
X92910095Y-89357595D01*
X94338666Y-89405214D02*
X94338666Y-90071880D01*
X94100571Y-89024261D02*
X93862476Y-89738547D01*
X94481523Y-89738547D01*
X85579642Y-90103642D02*
X85532023Y-90151261D01*
X85389166Y-90198880D01*
X85293928Y-90198880D01*
X85151071Y-90151261D01*
X85055833Y-90056023D01*
X85008214Y-89960785D01*
X84960595Y-89770309D01*
X84960595Y-89627452D01*
X85008214Y-89436976D01*
X85055833Y-89341738D01*
X85151071Y-89246500D01*
X85293928Y-89198880D01*
X85389166Y-89198880D01*
X85532023Y-89246500D01*
X85579642Y-89294119D01*
X86532023Y-90198880D02*
X85960595Y-90198880D01*
X86246309Y-90198880D02*
X86246309Y-89198880D01*
X86151071Y-89341738D01*
X86055833Y-89436976D01*
X85960595Y-89484595D01*
X87436785Y-89198880D02*
X86960595Y-89198880D01*
X86912976Y-89675071D01*
X86960595Y-89627452D01*
X87055833Y-89579833D01*
X87293928Y-89579833D01*
X87389166Y-89627452D01*
X87436785Y-89675071D01*
X87484404Y-89770309D01*
X87484404Y-90008404D01*
X87436785Y-90103642D01*
X87389166Y-90151261D01*
X87293928Y-90198880D01*
X87055833Y-90198880D01*
X86960595Y-90151261D01*
X86912976Y-90103642D01*
X80309142Y-91547642D02*
X80261523Y-91595261D01*
X80118666Y-91642880D01*
X80023428Y-91642880D01*
X79880571Y-91595261D01*
X79785333Y-91500023D01*
X79737714Y-91404785D01*
X79690095Y-91214309D01*
X79690095Y-91071452D01*
X79737714Y-90880976D01*
X79785333Y-90785738D01*
X79880571Y-90690500D01*
X80023428Y-90642880D01*
X80118666Y-90642880D01*
X80261523Y-90690500D01*
X80309142Y-90738119D01*
X81261523Y-91642880D02*
X80690095Y-91642880D01*
X80975809Y-91642880D02*
X80975809Y-90642880D01*
X80880571Y-90785738D01*
X80785333Y-90880976D01*
X80690095Y-90928595D01*
X82118666Y-90642880D02*
X81928190Y-90642880D01*
X81832952Y-90690500D01*
X81785333Y-90738119D01*
X81690095Y-90880976D01*
X81642476Y-91071452D01*
X81642476Y-91452404D01*
X81690095Y-91547642D01*
X81737714Y-91595261D01*
X81832952Y-91642880D01*
X82023428Y-91642880D01*
X82118666Y-91595261D01*
X82166285Y-91547642D01*
X82213904Y-91452404D01*
X82213904Y-91214309D01*
X82166285Y-91119071D01*
X82118666Y-91071452D01*
X82023428Y-91023833D01*
X81832952Y-91023833D01*
X81737714Y-91071452D01*
X81690095Y-91119071D01*
X81642476Y-91214309D01*
X91231142Y-76818142D02*
X91183523Y-76865761D01*
X91040666Y-76913380D01*
X90945428Y-76913380D01*
X90802571Y-76865761D01*
X90707333Y-76770523D01*
X90659714Y-76675285D01*
X90612095Y-76484809D01*
X90612095Y-76341952D01*
X90659714Y-76151476D01*
X90707333Y-76056238D01*
X90802571Y-75961000D01*
X90945428Y-75913380D01*
X91040666Y-75913380D01*
X91183523Y-75961000D01*
X91231142Y-76008619D01*
X92183523Y-76913380D02*
X91612095Y-76913380D01*
X91897809Y-76913380D02*
X91897809Y-75913380D01*
X91802571Y-76056238D01*
X91707333Y-76151476D01*
X91612095Y-76199095D01*
X92516857Y-75913380D02*
X93183523Y-75913380D01*
X92754952Y-76913380D01*
X84982142Y-91627642D02*
X84934523Y-91675261D01*
X84791666Y-91722880D01*
X84696428Y-91722880D01*
X84553571Y-91675261D01*
X84458333Y-91580023D01*
X84410714Y-91484785D01*
X84363095Y-91294309D01*
X84363095Y-91151452D01*
X84410714Y-90960976D01*
X84458333Y-90865738D01*
X84553571Y-90770500D01*
X84696428Y-90722880D01*
X84791666Y-90722880D01*
X84934523Y-90770500D01*
X84982142Y-90818119D01*
X85934523Y-91722880D02*
X85363095Y-91722880D01*
X85648809Y-91722880D02*
X85648809Y-90722880D01*
X85553571Y-90865738D01*
X85458333Y-90960976D01*
X85363095Y-91008595D01*
X86505952Y-91151452D02*
X86410714Y-91103833D01*
X86363095Y-91056214D01*
X86315476Y-90960976D01*
X86315476Y-90913357D01*
X86363095Y-90818119D01*
X86410714Y-90770500D01*
X86505952Y-90722880D01*
X86696428Y-90722880D01*
X86791666Y-90770500D01*
X86839285Y-90818119D01*
X86886904Y-90913357D01*
X86886904Y-90960976D01*
X86839285Y-91056214D01*
X86791666Y-91103833D01*
X86696428Y-91151452D01*
X86505952Y-91151452D01*
X86410714Y-91199071D01*
X86363095Y-91246690D01*
X86315476Y-91341928D01*
X86315476Y-91532404D01*
X86363095Y-91627642D01*
X86410714Y-91675261D01*
X86505952Y-91722880D01*
X86696428Y-91722880D01*
X86791666Y-91675261D01*
X86839285Y-91627642D01*
X86886904Y-91532404D01*
X86886904Y-91341928D01*
X86839285Y-91246690D01*
X86791666Y-91199071D01*
X86696428Y-91151452D01*
X78060642Y-74201142D02*
X78013023Y-74248761D01*
X77870166Y-74296380D01*
X77774928Y-74296380D01*
X77632071Y-74248761D01*
X77536833Y-74153523D01*
X77489214Y-74058285D01*
X77441595Y-73867809D01*
X77441595Y-73724952D01*
X77489214Y-73534476D01*
X77536833Y-73439238D01*
X77632071Y-73344000D01*
X77774928Y-73296380D01*
X77870166Y-73296380D01*
X78013023Y-73344000D01*
X78060642Y-73391619D01*
X79013023Y-74296380D02*
X78441595Y-74296380D01*
X78727309Y-74296380D02*
X78727309Y-73296380D01*
X78632071Y-73439238D01*
X78536833Y-73534476D01*
X78441595Y-73582095D01*
X79489214Y-74296380D02*
X79679690Y-74296380D01*
X79774928Y-74248761D01*
X79822547Y-74201142D01*
X79917785Y-74058285D01*
X79965404Y-73867809D01*
X79965404Y-73486857D01*
X79917785Y-73391619D01*
X79870166Y-73344000D01*
X79774928Y-73296380D01*
X79584452Y-73296380D01*
X79489214Y-73344000D01*
X79441595Y-73391619D01*
X79393976Y-73486857D01*
X79393976Y-73724952D01*
X79441595Y-73820190D01*
X79489214Y-73867809D01*
X79584452Y-73915428D01*
X79774928Y-73915428D01*
X79870166Y-73867809D01*
X79917785Y-73820190D01*
X79965404Y-73724952D01*
X73959142Y-84680742D02*
X73911523Y-84728361D01*
X73768666Y-84775980D01*
X73673428Y-84775980D01*
X73530571Y-84728361D01*
X73435333Y-84633123D01*
X73387714Y-84537885D01*
X73340095Y-84347409D01*
X73340095Y-84204552D01*
X73387714Y-84014076D01*
X73435333Y-83918838D01*
X73530571Y-83823600D01*
X73673428Y-83775980D01*
X73768666Y-83775980D01*
X73911523Y-83823600D01*
X73959142Y-83871219D01*
X74340095Y-83871219D02*
X74387714Y-83823600D01*
X74482952Y-83775980D01*
X74721047Y-83775980D01*
X74816285Y-83823600D01*
X74863904Y-83871219D01*
X74911523Y-83966457D01*
X74911523Y-84061695D01*
X74863904Y-84204552D01*
X74292476Y-84775980D01*
X74911523Y-84775980D01*
X75530571Y-83775980D02*
X75625809Y-83775980D01*
X75721047Y-83823600D01*
X75768666Y-83871219D01*
X75816285Y-83966457D01*
X75863904Y-84156933D01*
X75863904Y-84395028D01*
X75816285Y-84585504D01*
X75768666Y-84680742D01*
X75721047Y-84728361D01*
X75625809Y-84775980D01*
X75530571Y-84775980D01*
X75435333Y-84728361D01*
X75387714Y-84680742D01*
X75340095Y-84585504D01*
X75292476Y-84395028D01*
X75292476Y-84156933D01*
X75340095Y-83966457D01*
X75387714Y-83871219D01*
X75435333Y-83823600D01*
X75530571Y-83775980D01*
X97434464Y-87280420D02*
X97434464Y-86280420D01*
X97672560Y-86280420D01*
X97815417Y-86328040D01*
X97910655Y-86423278D01*
X97958274Y-86518516D01*
X98005893Y-86708992D01*
X98005893Y-86851849D01*
X97958274Y-87042325D01*
X97910655Y-87137563D01*
X97815417Y-87232801D01*
X97672560Y-87280420D01*
X97434464Y-87280420D01*
X98958274Y-87280420D02*
X98386845Y-87280420D01*
X98672560Y-87280420D02*
X98672560Y-86280420D01*
X98577321Y-86423278D01*
X98482083Y-86518516D01*
X98386845Y-86566135D01*
X106756904Y-85245880D02*
X106756904Y-84245880D01*
X106995000Y-84245880D01*
X107137857Y-84293500D01*
X107233095Y-84388738D01*
X107280714Y-84483976D01*
X107328333Y-84674452D01*
X107328333Y-84817309D01*
X107280714Y-85007785D01*
X107233095Y-85103023D01*
X107137857Y-85198261D01*
X106995000Y-85245880D01*
X106756904Y-85245880D01*
X107709285Y-84341119D02*
X107756904Y-84293500D01*
X107852142Y-84245880D01*
X108090238Y-84245880D01*
X108185476Y-84293500D01*
X108233095Y-84341119D01*
X108280714Y-84436357D01*
X108280714Y-84531595D01*
X108233095Y-84674452D01*
X107661666Y-85245880D01*
X108280714Y-85245880D01*
X51248904Y-87151880D02*
X51248904Y-86151880D01*
X51487000Y-86151880D01*
X51629857Y-86199500D01*
X51725095Y-86294738D01*
X51772714Y-86389976D01*
X51820333Y-86580452D01*
X51820333Y-86723309D01*
X51772714Y-86913785D01*
X51725095Y-87009023D01*
X51629857Y-87104261D01*
X51487000Y-87151880D01*
X51248904Y-87151880D01*
X52153666Y-86151880D02*
X52772714Y-86151880D01*
X52439380Y-86532833D01*
X52582238Y-86532833D01*
X52677476Y-86580452D01*
X52725095Y-86628071D01*
X52772714Y-86723309D01*
X52772714Y-86961404D01*
X52725095Y-87056642D01*
X52677476Y-87104261D01*
X52582238Y-87151880D01*
X52296523Y-87151880D01*
X52201285Y-87104261D01*
X52153666Y-87056642D01*
X80721904Y-62728780D02*
X80721904Y-61728780D01*
X80960000Y-61728780D01*
X81102857Y-61776400D01*
X81198095Y-61871638D01*
X81245714Y-61966876D01*
X81293333Y-62157352D01*
X81293333Y-62300209D01*
X81245714Y-62490685D01*
X81198095Y-62585923D01*
X81102857Y-62681161D01*
X80960000Y-62728780D01*
X80721904Y-62728780D01*
X82150476Y-62062114D02*
X82150476Y-62728780D01*
X81912380Y-61681161D02*
X81674285Y-62395447D01*
X82293333Y-62395447D01*
X96114304Y-62728780D02*
X96114304Y-61728780D01*
X96352400Y-61728780D01*
X96495257Y-61776400D01*
X96590495Y-61871638D01*
X96638114Y-61966876D01*
X96685733Y-62157352D01*
X96685733Y-62300209D01*
X96638114Y-62490685D01*
X96590495Y-62585923D01*
X96495257Y-62681161D01*
X96352400Y-62728780D01*
X96114304Y-62728780D01*
X97590495Y-61728780D02*
X97114304Y-61728780D01*
X97066685Y-62204971D01*
X97114304Y-62157352D01*
X97209542Y-62109733D01*
X97447638Y-62109733D01*
X97542876Y-62157352D01*
X97590495Y-62204971D01*
X97638114Y-62300209D01*
X97638114Y-62538304D01*
X97590495Y-62633542D01*
X97542876Y-62681161D01*
X97447638Y-62728780D01*
X97209542Y-62728780D01*
X97114304Y-62681161D01*
X97066685Y-62633542D01*
X64415104Y-58715580D02*
X64415104Y-57715580D01*
X64653200Y-57715580D01*
X64796057Y-57763200D01*
X64891295Y-57858438D01*
X64938914Y-57953676D01*
X64986533Y-58144152D01*
X64986533Y-58287009D01*
X64938914Y-58477485D01*
X64891295Y-58572723D01*
X64796057Y-58667961D01*
X64653200Y-58715580D01*
X64415104Y-58715580D01*
X65843676Y-57715580D02*
X65653200Y-57715580D01*
X65557961Y-57763200D01*
X65510342Y-57810819D01*
X65415104Y-57953676D01*
X65367485Y-58144152D01*
X65367485Y-58525104D01*
X65415104Y-58620342D01*
X65462723Y-58667961D01*
X65557961Y-58715580D01*
X65748438Y-58715580D01*
X65843676Y-58667961D01*
X65891295Y-58620342D01*
X65938914Y-58525104D01*
X65938914Y-58287009D01*
X65891295Y-58191771D01*
X65843676Y-58144152D01*
X65748438Y-58096533D01*
X65557961Y-58096533D01*
X65462723Y-58144152D01*
X65415104Y-58191771D01*
X65367485Y-58287009D01*
X80023404Y-96866380D02*
X80023404Y-95866380D01*
X80261500Y-95866380D01*
X80404357Y-95914000D01*
X80499595Y-96009238D01*
X80547214Y-96104476D01*
X80594833Y-96294952D01*
X80594833Y-96437809D01*
X80547214Y-96628285D01*
X80499595Y-96723523D01*
X80404357Y-96818761D01*
X80261500Y-96866380D01*
X80023404Y-96866380D01*
X80928166Y-95866380D02*
X81594833Y-95866380D01*
X81166261Y-96866380D01*
X60947404Y-77725380D02*
X60947404Y-76725380D01*
X61185500Y-76725380D01*
X61328357Y-76773000D01*
X61423595Y-76868238D01*
X61471214Y-76963476D01*
X61518833Y-77153952D01*
X61518833Y-77296809D01*
X61471214Y-77487285D01*
X61423595Y-77582523D01*
X61328357Y-77677761D01*
X61185500Y-77725380D01*
X60947404Y-77725380D01*
X61995023Y-77725380D02*
X62185500Y-77725380D01*
X62280738Y-77677761D01*
X62328357Y-77630142D01*
X62423595Y-77487285D01*
X62471214Y-77296809D01*
X62471214Y-76915857D01*
X62423595Y-76820619D01*
X62375976Y-76773000D01*
X62280738Y-76725380D01*
X62090261Y-76725380D01*
X61995023Y-76773000D01*
X61947404Y-76820619D01*
X61899785Y-76915857D01*
X61899785Y-77153952D01*
X61947404Y-77249190D01*
X61995023Y-77296809D01*
X62090261Y-77344428D01*
X62280738Y-77344428D01*
X62375976Y-77296809D01*
X62423595Y-77249190D01*
X62471214Y-77153952D01*
X70980933Y-84826780D02*
X70504742Y-84826780D01*
X70504742Y-83826780D01*
X71838076Y-84826780D02*
X71266647Y-84826780D01*
X71552361Y-84826780D02*
X71552361Y-83826780D01*
X71457123Y-83969638D01*
X71361885Y-84064876D01*
X71266647Y-84112495D01*
X52027761Y-96453619D02*
X51932523Y-96406000D01*
X51837285Y-96310761D01*
X51694428Y-96167904D01*
X51599190Y-96120285D01*
X51503952Y-96120285D01*
X51551571Y-96358380D02*
X51456333Y-96310761D01*
X51361095Y-96215523D01*
X51313476Y-96025047D01*
X51313476Y-95691714D01*
X51361095Y-95501238D01*
X51456333Y-95406000D01*
X51551571Y-95358380D01*
X51742047Y-95358380D01*
X51837285Y-95406000D01*
X51932523Y-95501238D01*
X51980142Y-95691714D01*
X51980142Y-96025047D01*
X51932523Y-96215523D01*
X51837285Y-96310761D01*
X51742047Y-96358380D01*
X51551571Y-96358380D01*
X52932523Y-96358380D02*
X52361095Y-96358380D01*
X52646809Y-96358380D02*
X52646809Y-95358380D01*
X52551571Y-95501238D01*
X52456333Y-95596476D01*
X52361095Y-95644095D01*
X77199161Y-58760019D02*
X77103923Y-58712400D01*
X77008685Y-58617161D01*
X76865828Y-58474304D01*
X76770590Y-58426685D01*
X76675352Y-58426685D01*
X76722971Y-58664780D02*
X76627733Y-58617161D01*
X76532495Y-58521923D01*
X76484876Y-58331447D01*
X76484876Y-57998114D01*
X76532495Y-57807638D01*
X76627733Y-57712400D01*
X76722971Y-57664780D01*
X76913447Y-57664780D01*
X77008685Y-57712400D01*
X77103923Y-57807638D01*
X77151542Y-57998114D01*
X77151542Y-58331447D01*
X77103923Y-58521923D01*
X77008685Y-58617161D01*
X76913447Y-58664780D01*
X76722971Y-58664780D01*
X77532495Y-57760019D02*
X77580114Y-57712400D01*
X77675352Y-57664780D01*
X77913447Y-57664780D01*
X78008685Y-57712400D01*
X78056304Y-57760019D01*
X78103923Y-57855257D01*
X78103923Y-57950495D01*
X78056304Y-58093352D01*
X77484876Y-58664780D01*
X78103923Y-58664780D01*
X90813561Y-64398819D02*
X90718323Y-64351200D01*
X90623085Y-64255961D01*
X90480228Y-64113104D01*
X90384990Y-64065485D01*
X90289752Y-64065485D01*
X90337371Y-64303580D02*
X90242133Y-64255961D01*
X90146895Y-64160723D01*
X90099276Y-63970247D01*
X90099276Y-63636914D01*
X90146895Y-63446438D01*
X90242133Y-63351200D01*
X90337371Y-63303580D01*
X90527847Y-63303580D01*
X90623085Y-63351200D01*
X90718323Y-63446438D01*
X90765942Y-63636914D01*
X90765942Y-63970247D01*
X90718323Y-64160723D01*
X90623085Y-64255961D01*
X90527847Y-64303580D01*
X90337371Y-64303580D01*
X91099276Y-63303580D02*
X91718323Y-63303580D01*
X91384990Y-63684533D01*
X91527847Y-63684533D01*
X91623085Y-63732152D01*
X91670704Y-63779771D01*
X91718323Y-63875009D01*
X91718323Y-64113104D01*
X91670704Y-64208342D01*
X91623085Y-64255961D01*
X91527847Y-64303580D01*
X91242133Y-64303580D01*
X91146895Y-64255961D01*
X91099276Y-64208342D01*
X99549761Y-71411119D02*
X99454523Y-71363500D01*
X99359285Y-71268261D01*
X99216428Y-71125404D01*
X99121190Y-71077785D01*
X99025952Y-71077785D01*
X99073571Y-71315880D02*
X98978333Y-71268261D01*
X98883095Y-71173023D01*
X98835476Y-70982547D01*
X98835476Y-70649214D01*
X98883095Y-70458738D01*
X98978333Y-70363500D01*
X99073571Y-70315880D01*
X99264047Y-70315880D01*
X99359285Y-70363500D01*
X99454523Y-70458738D01*
X99502142Y-70649214D01*
X99502142Y-70982547D01*
X99454523Y-71173023D01*
X99359285Y-71268261D01*
X99264047Y-71315880D01*
X99073571Y-71315880D01*
X100359285Y-70649214D02*
X100359285Y-71315880D01*
X100121190Y-70268261D02*
X99883095Y-70982547D01*
X100502142Y-70982547D01*
X69121961Y-64805219D02*
X69026723Y-64757600D01*
X68931485Y-64662361D01*
X68788628Y-64519504D01*
X68693390Y-64471885D01*
X68598152Y-64471885D01*
X68645771Y-64709980D02*
X68550533Y-64662361D01*
X68455295Y-64567123D01*
X68407676Y-64376647D01*
X68407676Y-64043314D01*
X68455295Y-63852838D01*
X68550533Y-63757600D01*
X68645771Y-63709980D01*
X68836247Y-63709980D01*
X68931485Y-63757600D01*
X69026723Y-63852838D01*
X69074342Y-64043314D01*
X69074342Y-64376647D01*
X69026723Y-64567123D01*
X68931485Y-64662361D01*
X68836247Y-64709980D01*
X68645771Y-64709980D01*
X69979104Y-63709980D02*
X69502914Y-63709980D01*
X69455295Y-64186171D01*
X69502914Y-64138552D01*
X69598152Y-64090933D01*
X69836247Y-64090933D01*
X69931485Y-64138552D01*
X69979104Y-64186171D01*
X70026723Y-64281409D01*
X70026723Y-64519504D01*
X69979104Y-64614742D01*
X69931485Y-64662361D01*
X69836247Y-64709980D01*
X69598152Y-64709980D01*
X69502914Y-64662361D01*
X69455295Y-64614742D01*
X64500561Y-76893979D02*
X64405323Y-76846360D01*
X64310085Y-76751121D01*
X64167228Y-76608264D01*
X64071990Y-76560645D01*
X63976752Y-76560645D01*
X64024371Y-76798740D02*
X63929133Y-76751121D01*
X63833895Y-76655883D01*
X63786276Y-76465407D01*
X63786276Y-76132074D01*
X63833895Y-75941598D01*
X63929133Y-75846360D01*
X64024371Y-75798740D01*
X64214847Y-75798740D01*
X64310085Y-75846360D01*
X64405323Y-75941598D01*
X64452942Y-76132074D01*
X64452942Y-76465407D01*
X64405323Y-76655883D01*
X64310085Y-76751121D01*
X64214847Y-76798740D01*
X64024371Y-76798740D01*
X65310085Y-75798740D02*
X65119609Y-75798740D01*
X65024371Y-75846360D01*
X64976752Y-75893979D01*
X64881514Y-76036836D01*
X64833895Y-76227312D01*
X64833895Y-76608264D01*
X64881514Y-76703502D01*
X64929133Y-76751121D01*
X65024371Y-76798740D01*
X65214847Y-76798740D01*
X65310085Y-76751121D01*
X65357704Y-76703502D01*
X65405323Y-76608264D01*
X65405323Y-76370169D01*
X65357704Y-76274931D01*
X65310085Y-76227312D01*
X65214847Y-76179693D01*
X65024371Y-76179693D01*
X64929133Y-76227312D01*
X64881514Y-76274931D01*
X64833895Y-76370169D01*
X55067833Y-94707380D02*
X54734500Y-94231190D01*
X54496404Y-94707380D02*
X54496404Y-93707380D01*
X54877357Y-93707380D01*
X54972595Y-93755000D01*
X55020214Y-93802619D01*
X55067833Y-93897857D01*
X55067833Y-94040714D01*
X55020214Y-94135952D01*
X54972595Y-94183571D01*
X54877357Y-94231190D01*
X54496404Y-94231190D01*
X56020214Y-94707380D02*
X55448785Y-94707380D01*
X55734500Y-94707380D02*
X55734500Y-93707380D01*
X55639261Y-93850238D01*
X55544023Y-93945476D01*
X55448785Y-93993095D01*
X64542333Y-88329380D02*
X64209000Y-87853190D01*
X63970904Y-88329380D02*
X63970904Y-87329380D01*
X64351857Y-87329380D01*
X64447095Y-87377000D01*
X64494714Y-87424619D01*
X64542333Y-87519857D01*
X64542333Y-87662714D01*
X64494714Y-87757952D01*
X64447095Y-87805571D01*
X64351857Y-87853190D01*
X63970904Y-87853190D01*
X64923285Y-87424619D02*
X64970904Y-87377000D01*
X65066142Y-87329380D01*
X65304238Y-87329380D01*
X65399476Y-87377000D01*
X65447095Y-87424619D01*
X65494714Y-87519857D01*
X65494714Y-87615095D01*
X65447095Y-87757952D01*
X64875666Y-88329380D01*
X65494714Y-88329380D01*
X63272333Y-96090380D02*
X62939000Y-95614190D01*
X62700904Y-96090380D02*
X62700904Y-95090380D01*
X63081857Y-95090380D01*
X63177095Y-95138000D01*
X63224714Y-95185619D01*
X63272333Y-95280857D01*
X63272333Y-95423714D01*
X63224714Y-95518952D01*
X63177095Y-95566571D01*
X63081857Y-95614190D01*
X62700904Y-95614190D01*
X63605666Y-95090380D02*
X64224714Y-95090380D01*
X63891380Y-95471333D01*
X64034238Y-95471333D01*
X64129476Y-95518952D01*
X64177095Y-95566571D01*
X64224714Y-95661809D01*
X64224714Y-95899904D01*
X64177095Y-95995142D01*
X64129476Y-96042761D01*
X64034238Y-96090380D01*
X63748523Y-96090380D01*
X63653285Y-96042761D01*
X63605666Y-95995142D01*
X68606333Y-88265880D02*
X68273000Y-87789690D01*
X68034904Y-88265880D02*
X68034904Y-87265880D01*
X68415857Y-87265880D01*
X68511095Y-87313500D01*
X68558714Y-87361119D01*
X68606333Y-87456357D01*
X68606333Y-87599214D01*
X68558714Y-87694452D01*
X68511095Y-87742071D01*
X68415857Y-87789690D01*
X68034904Y-87789690D01*
X69463476Y-87599214D02*
X69463476Y-88265880D01*
X69225380Y-87218261D02*
X68987285Y-87932547D01*
X69606333Y-87932547D01*
X67535833Y-95963380D02*
X67202500Y-95487190D01*
X66964404Y-95963380D02*
X66964404Y-94963380D01*
X67345357Y-94963380D01*
X67440595Y-95011000D01*
X67488214Y-95058619D01*
X67535833Y-95153857D01*
X67535833Y-95296714D01*
X67488214Y-95391952D01*
X67440595Y-95439571D01*
X67345357Y-95487190D01*
X66964404Y-95487190D01*
X68440595Y-94963380D02*
X67964404Y-94963380D01*
X67916785Y-95439571D01*
X67964404Y-95391952D01*
X68059642Y-95344333D01*
X68297738Y-95344333D01*
X68392976Y-95391952D01*
X68440595Y-95439571D01*
X68488214Y-95534809D01*
X68488214Y-95772904D01*
X68440595Y-95868142D01*
X68392976Y-95915761D01*
X68297738Y-95963380D01*
X68059642Y-95963380D01*
X67964404Y-95915761D01*
X67916785Y-95868142D01*
X72543333Y-88307880D02*
X72210000Y-87831690D01*
X71971904Y-88307880D02*
X71971904Y-87307880D01*
X72352857Y-87307880D01*
X72448095Y-87355500D01*
X72495714Y-87403119D01*
X72543333Y-87498357D01*
X72543333Y-87641214D01*
X72495714Y-87736452D01*
X72448095Y-87784071D01*
X72352857Y-87831690D01*
X71971904Y-87831690D01*
X73400476Y-87307880D02*
X73210000Y-87307880D01*
X73114761Y-87355500D01*
X73067142Y-87403119D01*
X72971904Y-87545976D01*
X72924285Y-87736452D01*
X72924285Y-88117404D01*
X72971904Y-88212642D01*
X73019523Y-88260261D01*
X73114761Y-88307880D01*
X73305238Y-88307880D01*
X73400476Y-88260261D01*
X73448095Y-88212642D01*
X73495714Y-88117404D01*
X73495714Y-87879309D01*
X73448095Y-87784071D01*
X73400476Y-87736452D01*
X73305238Y-87688833D01*
X73114761Y-87688833D01*
X73019523Y-87736452D01*
X72971904Y-87784071D01*
X72924285Y-87879309D01*
X71518333Y-96026880D02*
X71185000Y-95550690D01*
X70946904Y-96026880D02*
X70946904Y-95026880D01*
X71327857Y-95026880D01*
X71423095Y-95074500D01*
X71470714Y-95122119D01*
X71518333Y-95217357D01*
X71518333Y-95360214D01*
X71470714Y-95455452D01*
X71423095Y-95503071D01*
X71327857Y-95550690D01*
X70946904Y-95550690D01*
X71851666Y-95026880D02*
X72518333Y-95026880D01*
X72089761Y-96026880D01*
X76607333Y-88279880D02*
X76274000Y-87803690D01*
X76035904Y-88279880D02*
X76035904Y-87279880D01*
X76416857Y-87279880D01*
X76512095Y-87327500D01*
X76559714Y-87375119D01*
X76607333Y-87470357D01*
X76607333Y-87613214D01*
X76559714Y-87708452D01*
X76512095Y-87756071D01*
X76416857Y-87803690D01*
X76035904Y-87803690D01*
X77178761Y-87708452D02*
X77083523Y-87660833D01*
X77035904Y-87613214D01*
X76988285Y-87517976D01*
X76988285Y-87470357D01*
X77035904Y-87375119D01*
X77083523Y-87327500D01*
X77178761Y-87279880D01*
X77369238Y-87279880D01*
X77464476Y-87327500D01*
X77512095Y-87375119D01*
X77559714Y-87470357D01*
X77559714Y-87517976D01*
X77512095Y-87613214D01*
X77464476Y-87660833D01*
X77369238Y-87708452D01*
X77178761Y-87708452D01*
X77083523Y-87756071D01*
X77035904Y-87803690D01*
X76988285Y-87898928D01*
X76988285Y-88089404D01*
X77035904Y-88184642D01*
X77083523Y-88232261D01*
X77178761Y-88279880D01*
X77369238Y-88279880D01*
X77464476Y-88232261D01*
X77512095Y-88184642D01*
X77559714Y-88089404D01*
X77559714Y-87898928D01*
X77512095Y-87803690D01*
X77464476Y-87756071D01*
X77369238Y-87708452D01*
X75582333Y-96026880D02*
X75249000Y-95550690D01*
X75010904Y-96026880D02*
X75010904Y-95026880D01*
X75391857Y-95026880D01*
X75487095Y-95074500D01*
X75534714Y-95122119D01*
X75582333Y-95217357D01*
X75582333Y-95360214D01*
X75534714Y-95455452D01*
X75487095Y-95503071D01*
X75391857Y-95550690D01*
X75010904Y-95550690D01*
X76058523Y-96026880D02*
X76249000Y-96026880D01*
X76344238Y-95979261D01*
X76391857Y-95931642D01*
X76487095Y-95788785D01*
X76534714Y-95598309D01*
X76534714Y-95217357D01*
X76487095Y-95122119D01*
X76439476Y-95074500D01*
X76344238Y-95026880D01*
X76153761Y-95026880D01*
X76058523Y-95074500D01*
X76010904Y-95122119D01*
X75963285Y-95217357D01*
X75963285Y-95455452D01*
X76010904Y-95550690D01*
X76058523Y-95598309D01*
X76153761Y-95645928D01*
X76344238Y-95645928D01*
X76439476Y-95598309D01*
X76487095Y-95550690D01*
X76534714Y-95455452D01*
X72790742Y-58687580D02*
X72457409Y-58211390D01*
X72219314Y-58687580D02*
X72219314Y-57687580D01*
X72600266Y-57687580D01*
X72695504Y-57735200D01*
X72743123Y-57782819D01*
X72790742Y-57878057D01*
X72790742Y-58020914D01*
X72743123Y-58116152D01*
X72695504Y-58163771D01*
X72600266Y-58211390D01*
X72219314Y-58211390D01*
X73743123Y-58687580D02*
X73171695Y-58687580D01*
X73457409Y-58687580D02*
X73457409Y-57687580D01*
X73362171Y-57830438D01*
X73266933Y-57925676D01*
X73171695Y-57973295D01*
X74362171Y-57687580D02*
X74457409Y-57687580D01*
X74552647Y-57735200D01*
X74600266Y-57782819D01*
X74647885Y-57878057D01*
X74695504Y-58068533D01*
X74695504Y-58306628D01*
X74647885Y-58497104D01*
X74600266Y-58592342D01*
X74552647Y-58639961D01*
X74457409Y-58687580D01*
X74362171Y-58687580D01*
X74266933Y-58639961D01*
X74219314Y-58592342D01*
X74171695Y-58497104D01*
X74124076Y-58306628D01*
X74124076Y-58068533D01*
X74171695Y-57878057D01*
X74219314Y-57782819D01*
X74266933Y-57735200D01*
X74362171Y-57687580D01*
X92704342Y-68164380D02*
X92371009Y-67688190D01*
X92132914Y-68164380D02*
X92132914Y-67164380D01*
X92513866Y-67164380D01*
X92609104Y-67212000D01*
X92656723Y-67259619D01*
X92704342Y-67354857D01*
X92704342Y-67497714D01*
X92656723Y-67592952D01*
X92609104Y-67640571D01*
X92513866Y-67688190D01*
X92132914Y-67688190D01*
X93656723Y-68164380D02*
X93085295Y-68164380D01*
X93371009Y-68164380D02*
X93371009Y-67164380D01*
X93275771Y-67307238D01*
X93180533Y-67402476D01*
X93085295Y-67450095D01*
X94609104Y-68164380D02*
X94037676Y-68164380D01*
X94323390Y-68164380D02*
X94323390Y-67164380D01*
X94228152Y-67307238D01*
X94132914Y-67402476D01*
X94037676Y-67450095D01*
X94053142Y-71339380D02*
X93719809Y-70863190D01*
X93481714Y-71339380D02*
X93481714Y-70339380D01*
X93862666Y-70339380D01*
X93957904Y-70387000D01*
X94005523Y-70434619D01*
X94053142Y-70529857D01*
X94053142Y-70672714D01*
X94005523Y-70767952D01*
X93957904Y-70815571D01*
X93862666Y-70863190D01*
X93481714Y-70863190D01*
X95005523Y-71339380D02*
X94434095Y-71339380D01*
X94719809Y-71339380D02*
X94719809Y-70339380D01*
X94624571Y-70482238D01*
X94529333Y-70577476D01*
X94434095Y-70625095D01*
X95386476Y-70434619D02*
X95434095Y-70387000D01*
X95529333Y-70339380D01*
X95767428Y-70339380D01*
X95862666Y-70387000D01*
X95910285Y-70434619D01*
X95957904Y-70529857D01*
X95957904Y-70625095D01*
X95910285Y-70767952D01*
X95338857Y-71339380D01*
X95957904Y-71339380D01*
X75203142Y-65469880D02*
X74869809Y-64993690D01*
X74631714Y-65469880D02*
X74631714Y-64469880D01*
X75012666Y-64469880D01*
X75107904Y-64517500D01*
X75155523Y-64565119D01*
X75203142Y-64660357D01*
X75203142Y-64803214D01*
X75155523Y-64898452D01*
X75107904Y-64946071D01*
X75012666Y-64993690D01*
X74631714Y-64993690D01*
X76155523Y-65469880D02*
X75584095Y-65469880D01*
X75869809Y-65469880D02*
X75869809Y-64469880D01*
X75774571Y-64612738D01*
X75679333Y-64707976D01*
X75584095Y-64755595D01*
X76488857Y-64469880D02*
X77107904Y-64469880D01*
X76774571Y-64850833D01*
X76917428Y-64850833D01*
X77012666Y-64898452D01*
X77060285Y-64946071D01*
X77107904Y-65041309D01*
X77107904Y-65279404D01*
X77060285Y-65374642D01*
X77012666Y-65422261D01*
X76917428Y-65469880D01*
X76631714Y-65469880D01*
X76536476Y-65422261D01*
X76488857Y-65374642D01*
X96006342Y-68469180D02*
X95673009Y-67992990D01*
X95434914Y-68469180D02*
X95434914Y-67469180D01*
X95815866Y-67469180D01*
X95911104Y-67516800D01*
X95958723Y-67564419D01*
X96006342Y-67659657D01*
X96006342Y-67802514D01*
X95958723Y-67897752D01*
X95911104Y-67945371D01*
X95815866Y-67992990D01*
X95434914Y-67992990D01*
X96958723Y-68469180D02*
X96387295Y-68469180D01*
X96673009Y-68469180D02*
X96673009Y-67469180D01*
X96577771Y-67612038D01*
X96482533Y-67707276D01*
X96387295Y-67754895D01*
X97815866Y-67802514D02*
X97815866Y-68469180D01*
X97577771Y-67421561D02*
X97339676Y-68135847D01*
X97958723Y-68135847D01*
X61767142Y-62119180D02*
X61433809Y-61642990D01*
X61195714Y-62119180D02*
X61195714Y-61119180D01*
X61576666Y-61119180D01*
X61671904Y-61166800D01*
X61719523Y-61214419D01*
X61767142Y-61309657D01*
X61767142Y-61452514D01*
X61719523Y-61547752D01*
X61671904Y-61595371D01*
X61576666Y-61642990D01*
X61195714Y-61642990D01*
X62719523Y-62119180D02*
X62148095Y-62119180D01*
X62433809Y-62119180D02*
X62433809Y-61119180D01*
X62338571Y-61262038D01*
X62243333Y-61357276D01*
X62148095Y-61404895D01*
X63624285Y-61119180D02*
X63148095Y-61119180D01*
X63100476Y-61595371D01*
X63148095Y-61547752D01*
X63243333Y-61500133D01*
X63481428Y-61500133D01*
X63576666Y-61547752D01*
X63624285Y-61595371D01*
X63671904Y-61690609D01*
X63671904Y-61928704D01*
X63624285Y-62023942D01*
X63576666Y-62071561D01*
X63481428Y-62119180D01*
X63243333Y-62119180D01*
X63148095Y-62071561D01*
X63100476Y-62023942D01*
X94201642Y-76198380D02*
X93868309Y-75722190D01*
X93630214Y-76198380D02*
X93630214Y-75198380D01*
X94011166Y-75198380D01*
X94106404Y-75246000D01*
X94154023Y-75293619D01*
X94201642Y-75388857D01*
X94201642Y-75531714D01*
X94154023Y-75626952D01*
X94106404Y-75674571D01*
X94011166Y-75722190D01*
X93630214Y-75722190D01*
X95154023Y-76198380D02*
X94582595Y-76198380D01*
X94868309Y-76198380D02*
X94868309Y-75198380D01*
X94773071Y-75341238D01*
X94677833Y-75436476D01*
X94582595Y-75484095D01*
X96011166Y-75198380D02*
X95820690Y-75198380D01*
X95725452Y-75246000D01*
X95677833Y-75293619D01*
X95582595Y-75436476D01*
X95534976Y-75626952D01*
X95534976Y-76007904D01*
X95582595Y-76103142D01*
X95630214Y-76150761D01*
X95725452Y-76198380D01*
X95915928Y-76198380D01*
X96011166Y-76150761D01*
X96058785Y-76103142D01*
X96106404Y-76007904D01*
X96106404Y-75769809D01*
X96058785Y-75674571D01*
X96011166Y-75626952D01*
X95915928Y-75579333D01*
X95725452Y-75579333D01*
X95630214Y-75626952D01*
X95582595Y-75674571D01*
X95534976Y-75769809D01*
X64956142Y-66597180D02*
X64622809Y-66120990D01*
X64384714Y-66597180D02*
X64384714Y-65597180D01*
X64765666Y-65597180D01*
X64860904Y-65644800D01*
X64908523Y-65692419D01*
X64956142Y-65787657D01*
X64956142Y-65930514D01*
X64908523Y-66025752D01*
X64860904Y-66073371D01*
X64765666Y-66120990D01*
X64384714Y-66120990D01*
X65908523Y-66597180D02*
X65337095Y-66597180D01*
X65622809Y-66597180D02*
X65622809Y-65597180D01*
X65527571Y-65740038D01*
X65432333Y-65835276D01*
X65337095Y-65882895D01*
X66241857Y-65597180D02*
X66908523Y-65597180D01*
X66479952Y-66597180D01*
X83814342Y-62677980D02*
X83481009Y-62201790D01*
X83242914Y-62677980D02*
X83242914Y-61677980D01*
X83623866Y-61677980D01*
X83719104Y-61725600D01*
X83766723Y-61773219D01*
X83814342Y-61868457D01*
X83814342Y-62011314D01*
X83766723Y-62106552D01*
X83719104Y-62154171D01*
X83623866Y-62201790D01*
X83242914Y-62201790D01*
X84766723Y-62677980D02*
X84195295Y-62677980D01*
X84481009Y-62677980D02*
X84481009Y-61677980D01*
X84385771Y-61820838D01*
X84290533Y-61916076D01*
X84195295Y-61963695D01*
X85338152Y-62106552D02*
X85242914Y-62058933D01*
X85195295Y-62011314D01*
X85147676Y-61916076D01*
X85147676Y-61868457D01*
X85195295Y-61773219D01*
X85242914Y-61725600D01*
X85338152Y-61677980D01*
X85528628Y-61677980D01*
X85623866Y-61725600D01*
X85671485Y-61773219D01*
X85719104Y-61868457D01*
X85719104Y-61916076D01*
X85671485Y-62011314D01*
X85623866Y-62058933D01*
X85528628Y-62106552D01*
X85338152Y-62106552D01*
X85242914Y-62154171D01*
X85195295Y-62201790D01*
X85147676Y-62297028D01*
X85147676Y-62487504D01*
X85195295Y-62582742D01*
X85242914Y-62630361D01*
X85338152Y-62677980D01*
X85528628Y-62677980D01*
X85623866Y-62630361D01*
X85671485Y-62582742D01*
X85719104Y-62487504D01*
X85719104Y-62297028D01*
X85671485Y-62201790D01*
X85623866Y-62154171D01*
X85528628Y-62106552D01*
X98800342Y-62818980D02*
X98467009Y-62342790D01*
X98228914Y-62818980D02*
X98228914Y-61818980D01*
X98609866Y-61818980D01*
X98705104Y-61866600D01*
X98752723Y-61914219D01*
X98800342Y-62009457D01*
X98800342Y-62152314D01*
X98752723Y-62247552D01*
X98705104Y-62295171D01*
X98609866Y-62342790D01*
X98228914Y-62342790D01*
X99752723Y-62818980D02*
X99181295Y-62818980D01*
X99467009Y-62818980D02*
X99467009Y-61818980D01*
X99371771Y-61961838D01*
X99276533Y-62057076D01*
X99181295Y-62104695D01*
X100228914Y-62818980D02*
X100419390Y-62818980D01*
X100514628Y-62771361D01*
X100562247Y-62723742D01*
X100657485Y-62580885D01*
X100705104Y-62390409D01*
X100705104Y-62009457D01*
X100657485Y-61914219D01*
X100609866Y-61866600D01*
X100514628Y-61818980D01*
X100324152Y-61818980D01*
X100228914Y-61866600D01*
X100181295Y-61914219D01*
X100133676Y-62009457D01*
X100133676Y-62247552D01*
X100181295Y-62342790D01*
X100228914Y-62390409D01*
X100324152Y-62438028D01*
X100514628Y-62438028D01*
X100609866Y-62390409D01*
X100657485Y-62342790D01*
X100705104Y-62247552D01*
X88132342Y-61306380D02*
X87799009Y-60830190D01*
X87560914Y-61306380D02*
X87560914Y-60306380D01*
X87941866Y-60306380D01*
X88037104Y-60354000D01*
X88084723Y-60401619D01*
X88132342Y-60496857D01*
X88132342Y-60639714D01*
X88084723Y-60734952D01*
X88037104Y-60782571D01*
X87941866Y-60830190D01*
X87560914Y-60830190D01*
X88513295Y-60401619D02*
X88560914Y-60354000D01*
X88656152Y-60306380D01*
X88894247Y-60306380D01*
X88989485Y-60354000D01*
X89037104Y-60401619D01*
X89084723Y-60496857D01*
X89084723Y-60592095D01*
X89037104Y-60734952D01*
X88465676Y-61306380D01*
X89084723Y-61306380D01*
X89703771Y-60306380D02*
X89799009Y-60306380D01*
X89894247Y-60354000D01*
X89941866Y-60401619D01*
X89989485Y-60496857D01*
X90037104Y-60687333D01*
X90037104Y-60925428D01*
X89989485Y-61115904D01*
X89941866Y-61211142D01*
X89894247Y-61258761D01*
X89799009Y-61306380D01*
X89703771Y-61306380D01*
X89608533Y-61258761D01*
X89560914Y-61211142D01*
X89513295Y-61115904D01*
X89465676Y-60925428D01*
X89465676Y-60687333D01*
X89513295Y-60496857D01*
X89560914Y-60401619D01*
X89608533Y-60354000D01*
X89703771Y-60306380D01*
X102051542Y-62881180D02*
X101718209Y-62404990D01*
X101480114Y-62881180D02*
X101480114Y-61881180D01*
X101861066Y-61881180D01*
X101956304Y-61928800D01*
X102003923Y-61976419D01*
X102051542Y-62071657D01*
X102051542Y-62214514D01*
X102003923Y-62309752D01*
X101956304Y-62357371D01*
X101861066Y-62404990D01*
X101480114Y-62404990D01*
X102432495Y-61976419D02*
X102480114Y-61928800D01*
X102575352Y-61881180D01*
X102813447Y-61881180D01*
X102908685Y-61928800D01*
X102956304Y-61976419D01*
X103003923Y-62071657D01*
X103003923Y-62166895D01*
X102956304Y-62309752D01*
X102384876Y-62881180D01*
X103003923Y-62881180D01*
X103956304Y-62881180D02*
X103384876Y-62881180D01*
X103670590Y-62881180D02*
X103670590Y-61881180D01*
X103575352Y-62024038D01*
X103480114Y-62119276D01*
X103384876Y-62166895D01*
X80678142Y-67565380D02*
X80344809Y-67089190D01*
X80106714Y-67565380D02*
X80106714Y-66565380D01*
X80487666Y-66565380D01*
X80582904Y-66613000D01*
X80630523Y-66660619D01*
X80678142Y-66755857D01*
X80678142Y-66898714D01*
X80630523Y-66993952D01*
X80582904Y-67041571D01*
X80487666Y-67089190D01*
X80106714Y-67089190D01*
X81059095Y-66660619D02*
X81106714Y-66613000D01*
X81201952Y-66565380D01*
X81440047Y-66565380D01*
X81535285Y-66613000D01*
X81582904Y-66660619D01*
X81630523Y-66755857D01*
X81630523Y-66851095D01*
X81582904Y-66993952D01*
X81011476Y-67565380D01*
X81630523Y-67565380D01*
X82011476Y-66660619D02*
X82059095Y-66613000D01*
X82154333Y-66565380D01*
X82392428Y-66565380D01*
X82487666Y-66613000D01*
X82535285Y-66660619D01*
X82582904Y-66755857D01*
X82582904Y-66851095D01*
X82535285Y-66993952D01*
X81963857Y-67565380D01*
X82582904Y-67565380D01*
X73768642Y-72496380D02*
X73435309Y-72020190D01*
X73197214Y-72496380D02*
X73197214Y-71496380D01*
X73578166Y-71496380D01*
X73673404Y-71544000D01*
X73721023Y-71591619D01*
X73768642Y-71686857D01*
X73768642Y-71829714D01*
X73721023Y-71924952D01*
X73673404Y-71972571D01*
X73578166Y-72020190D01*
X73197214Y-72020190D01*
X74149595Y-71591619D02*
X74197214Y-71544000D01*
X74292452Y-71496380D01*
X74530547Y-71496380D01*
X74625785Y-71544000D01*
X74673404Y-71591619D01*
X74721023Y-71686857D01*
X74721023Y-71782095D01*
X74673404Y-71924952D01*
X74101976Y-72496380D01*
X74721023Y-72496380D01*
X75054357Y-71496380D02*
X75673404Y-71496380D01*
X75340071Y-71877333D01*
X75482928Y-71877333D01*
X75578166Y-71924952D01*
X75625785Y-71972571D01*
X75673404Y-72067809D01*
X75673404Y-72305904D01*
X75625785Y-72401142D01*
X75578166Y-72448761D01*
X75482928Y-72496380D01*
X75197214Y-72496380D01*
X75101976Y-72448761D01*
X75054357Y-72401142D01*
X87611642Y-86261880D02*
X87278309Y-85785690D01*
X87040214Y-86261880D02*
X87040214Y-85261880D01*
X87421166Y-85261880D01*
X87516404Y-85309500D01*
X87564023Y-85357119D01*
X87611642Y-85452357D01*
X87611642Y-85595214D01*
X87564023Y-85690452D01*
X87516404Y-85738071D01*
X87421166Y-85785690D01*
X87040214Y-85785690D01*
X87992595Y-85357119D02*
X88040214Y-85309500D01*
X88135452Y-85261880D01*
X88373547Y-85261880D01*
X88468785Y-85309500D01*
X88516404Y-85357119D01*
X88564023Y-85452357D01*
X88564023Y-85547595D01*
X88516404Y-85690452D01*
X87944976Y-86261880D01*
X88564023Y-86261880D01*
X89421166Y-85595214D02*
X89421166Y-86261880D01*
X89183071Y-85214261D02*
X88944976Y-85928547D01*
X89564023Y-85928547D01*
X93834642Y-87390880D02*
X93501309Y-86914690D01*
X93263214Y-87390880D02*
X93263214Y-86390880D01*
X93644166Y-86390880D01*
X93739404Y-86438500D01*
X93787023Y-86486119D01*
X93834642Y-86581357D01*
X93834642Y-86724214D01*
X93787023Y-86819452D01*
X93739404Y-86867071D01*
X93644166Y-86914690D01*
X93263214Y-86914690D01*
X94215595Y-86486119D02*
X94263214Y-86438500D01*
X94358452Y-86390880D01*
X94596547Y-86390880D01*
X94691785Y-86438500D01*
X94739404Y-86486119D01*
X94787023Y-86581357D01*
X94787023Y-86676595D01*
X94739404Y-86819452D01*
X94167976Y-87390880D01*
X94787023Y-87390880D01*
X95691785Y-86390880D02*
X95215595Y-86390880D01*
X95167976Y-86867071D01*
X95215595Y-86819452D01*
X95310833Y-86771833D01*
X95548928Y-86771833D01*
X95644166Y-86819452D01*
X95691785Y-86867071D01*
X95739404Y-86962309D01*
X95739404Y-87200404D01*
X95691785Y-87295642D01*
X95644166Y-87343261D01*
X95548928Y-87390880D01*
X95310833Y-87390880D01*
X95215595Y-87343261D01*
X95167976Y-87295642D01*
X57451142Y-91250880D02*
X57117809Y-90774690D01*
X56879714Y-91250880D02*
X56879714Y-90250880D01*
X57260666Y-90250880D01*
X57355904Y-90298500D01*
X57403523Y-90346119D01*
X57451142Y-90441357D01*
X57451142Y-90584214D01*
X57403523Y-90679452D01*
X57355904Y-90727071D01*
X57260666Y-90774690D01*
X56879714Y-90774690D01*
X57832095Y-90346119D02*
X57879714Y-90298500D01*
X57974952Y-90250880D01*
X58213047Y-90250880D01*
X58308285Y-90298500D01*
X58355904Y-90346119D01*
X58403523Y-90441357D01*
X58403523Y-90536595D01*
X58355904Y-90679452D01*
X57784476Y-91250880D01*
X58403523Y-91250880D01*
X59260666Y-90250880D02*
X59070190Y-90250880D01*
X58974952Y-90298500D01*
X58927333Y-90346119D01*
X58832095Y-90488976D01*
X58784476Y-90679452D01*
X58784476Y-91060404D01*
X58832095Y-91155642D01*
X58879714Y-91203261D01*
X58974952Y-91250880D01*
X59165428Y-91250880D01*
X59260666Y-91203261D01*
X59308285Y-91155642D01*
X59355904Y-91060404D01*
X59355904Y-90822309D01*
X59308285Y-90727071D01*
X59260666Y-90679452D01*
X59165428Y-90631833D01*
X58974952Y-90631833D01*
X58879714Y-90679452D01*
X58832095Y-90727071D01*
X58784476Y-90822309D01*
X57412142Y-86501880D02*
X57078809Y-86025690D01*
X56840714Y-86501880D02*
X56840714Y-85501880D01*
X57221666Y-85501880D01*
X57316904Y-85549500D01*
X57364523Y-85597119D01*
X57412142Y-85692357D01*
X57412142Y-85835214D01*
X57364523Y-85930452D01*
X57316904Y-85978071D01*
X57221666Y-86025690D01*
X56840714Y-86025690D01*
X57793095Y-85597119D02*
X57840714Y-85549500D01*
X57935952Y-85501880D01*
X58174047Y-85501880D01*
X58269285Y-85549500D01*
X58316904Y-85597119D01*
X58364523Y-85692357D01*
X58364523Y-85787595D01*
X58316904Y-85930452D01*
X57745476Y-86501880D01*
X58364523Y-86501880D01*
X58697857Y-85501880D02*
X59364523Y-85501880D01*
X58935952Y-86501880D01*
X101518142Y-89055880D02*
X101184809Y-88579690D01*
X100946714Y-89055880D02*
X100946714Y-88055880D01*
X101327666Y-88055880D01*
X101422904Y-88103500D01*
X101470523Y-88151119D01*
X101518142Y-88246357D01*
X101518142Y-88389214D01*
X101470523Y-88484452D01*
X101422904Y-88532071D01*
X101327666Y-88579690D01*
X100946714Y-88579690D01*
X101899095Y-88151119D02*
X101946714Y-88103500D01*
X102041952Y-88055880D01*
X102280047Y-88055880D01*
X102375285Y-88103500D01*
X102422904Y-88151119D01*
X102470523Y-88246357D01*
X102470523Y-88341595D01*
X102422904Y-88484452D01*
X101851476Y-89055880D01*
X102470523Y-89055880D01*
X103041952Y-88484452D02*
X102946714Y-88436833D01*
X102899095Y-88389214D01*
X102851476Y-88293976D01*
X102851476Y-88246357D01*
X102899095Y-88151119D01*
X102946714Y-88103500D01*
X103041952Y-88055880D01*
X103232428Y-88055880D01*
X103327666Y-88103500D01*
X103375285Y-88151119D01*
X103422904Y-88246357D01*
X103422904Y-88293976D01*
X103375285Y-88389214D01*
X103327666Y-88436833D01*
X103232428Y-88484452D01*
X103041952Y-88484452D01*
X102946714Y-88532071D01*
X102899095Y-88579690D01*
X102851476Y-88674928D01*
X102851476Y-88865404D01*
X102899095Y-88960642D01*
X102946714Y-89008261D01*
X103041952Y-89055880D01*
X103232428Y-89055880D01*
X103327666Y-89008261D01*
X103375285Y-88960642D01*
X103422904Y-88865404D01*
X103422904Y-88674928D01*
X103375285Y-88579690D01*
X103327666Y-88532071D01*
X103232428Y-88484452D01*
X101532142Y-84196880D02*
X101198809Y-83720690D01*
X100960714Y-84196880D02*
X100960714Y-83196880D01*
X101341666Y-83196880D01*
X101436904Y-83244500D01*
X101484523Y-83292119D01*
X101532142Y-83387357D01*
X101532142Y-83530214D01*
X101484523Y-83625452D01*
X101436904Y-83673071D01*
X101341666Y-83720690D01*
X100960714Y-83720690D01*
X101913095Y-83292119D02*
X101960714Y-83244500D01*
X102055952Y-83196880D01*
X102294047Y-83196880D01*
X102389285Y-83244500D01*
X102436904Y-83292119D01*
X102484523Y-83387357D01*
X102484523Y-83482595D01*
X102436904Y-83625452D01*
X101865476Y-84196880D01*
X102484523Y-84196880D01*
X102960714Y-84196880D02*
X103151190Y-84196880D01*
X103246428Y-84149261D01*
X103294047Y-84101642D01*
X103389285Y-83958785D01*
X103436904Y-83768309D01*
X103436904Y-83387357D01*
X103389285Y-83292119D01*
X103341666Y-83244500D01*
X103246428Y-83196880D01*
X103055952Y-83196880D01*
X102960714Y-83244500D01*
X102913095Y-83292119D01*
X102865476Y-83387357D01*
X102865476Y-83625452D01*
X102913095Y-83720690D01*
X102960714Y-83768309D01*
X103055952Y-83815928D01*
X103246428Y-83815928D01*
X103341666Y-83768309D01*
X103389285Y-83720690D01*
X103436904Y-83625452D01*
X93277142Y-82929380D02*
X92943809Y-82453190D01*
X92705714Y-82929380D02*
X92705714Y-81929380D01*
X93086666Y-81929380D01*
X93181904Y-81977000D01*
X93229523Y-82024619D01*
X93277142Y-82119857D01*
X93277142Y-82262714D01*
X93229523Y-82357952D01*
X93181904Y-82405571D01*
X93086666Y-82453190D01*
X92705714Y-82453190D01*
X93610476Y-81929380D02*
X94229523Y-81929380D01*
X93896190Y-82310333D01*
X94039047Y-82310333D01*
X94134285Y-82357952D01*
X94181904Y-82405571D01*
X94229523Y-82500809D01*
X94229523Y-82738904D01*
X94181904Y-82834142D01*
X94134285Y-82881761D01*
X94039047Y-82929380D01*
X93753333Y-82929380D01*
X93658095Y-82881761D01*
X93610476Y-82834142D01*
X94848571Y-81929380D02*
X94943809Y-81929380D01*
X95039047Y-81977000D01*
X95086666Y-82024619D01*
X95134285Y-82119857D01*
X95181904Y-82310333D01*
X95181904Y-82548428D01*
X95134285Y-82738904D01*
X95086666Y-82834142D01*
X95039047Y-82881761D01*
X94943809Y-82929380D01*
X94848571Y-82929380D01*
X94753333Y-82881761D01*
X94705714Y-82834142D01*
X94658095Y-82738904D01*
X94610476Y-82548428D01*
X94610476Y-82310333D01*
X94658095Y-82119857D01*
X94705714Y-82024619D01*
X94753333Y-81977000D01*
X94848571Y-81929380D01*
X93291142Y-78514880D02*
X92957809Y-78038690D01*
X92719714Y-78514880D02*
X92719714Y-77514880D01*
X93100666Y-77514880D01*
X93195904Y-77562500D01*
X93243523Y-77610119D01*
X93291142Y-77705357D01*
X93291142Y-77848214D01*
X93243523Y-77943452D01*
X93195904Y-77991071D01*
X93100666Y-78038690D01*
X92719714Y-78038690D01*
X93624476Y-77514880D02*
X94243523Y-77514880D01*
X93910190Y-77895833D01*
X94053047Y-77895833D01*
X94148285Y-77943452D01*
X94195904Y-77991071D01*
X94243523Y-78086309D01*
X94243523Y-78324404D01*
X94195904Y-78419642D01*
X94148285Y-78467261D01*
X94053047Y-78514880D01*
X93767333Y-78514880D01*
X93672095Y-78467261D01*
X93624476Y-78419642D01*
X95195904Y-78514880D02*
X94624476Y-78514880D01*
X94910190Y-78514880D02*
X94910190Y-77514880D01*
X94814952Y-77657738D01*
X94719714Y-77752976D01*
X94624476Y-77800595D01*
X66965382Y-78429420D02*
X66632049Y-77953230D01*
X66393954Y-78429420D02*
X66393954Y-77429420D01*
X66774906Y-77429420D01*
X66870144Y-77477040D01*
X66917763Y-77524659D01*
X66965382Y-77619897D01*
X66965382Y-77762754D01*
X66917763Y-77857992D01*
X66870144Y-77905611D01*
X66774906Y-77953230D01*
X66393954Y-77953230D01*
X67298716Y-77429420D02*
X67917763Y-77429420D01*
X67584430Y-77810373D01*
X67727287Y-77810373D01*
X67822525Y-77857992D01*
X67870144Y-77905611D01*
X67917763Y-78000849D01*
X67917763Y-78238944D01*
X67870144Y-78334182D01*
X67822525Y-78381801D01*
X67727287Y-78429420D01*
X67441573Y-78429420D01*
X67346335Y-78381801D01*
X67298716Y-78334182D01*
X68298716Y-77524659D02*
X68346335Y-77477040D01*
X68441573Y-77429420D01*
X68679668Y-77429420D01*
X68774906Y-77477040D01*
X68822525Y-77524659D01*
X68870144Y-77619897D01*
X68870144Y-77715135D01*
X68822525Y-77857992D01*
X68251097Y-78429420D01*
X68870144Y-78429420D01*
X101462595Y-97318380D02*
X101462595Y-98127904D01*
X101510214Y-98223142D01*
X101557833Y-98270761D01*
X101653071Y-98318380D01*
X101843547Y-98318380D01*
X101938785Y-98270761D01*
X101986404Y-98223142D01*
X102034023Y-98127904D01*
X102034023Y-97318380D01*
X103034023Y-98318380D02*
X102462595Y-98318380D01*
X102748309Y-98318380D02*
X102748309Y-97318380D01*
X102653071Y-97461238D01*
X102557833Y-97556476D01*
X102462595Y-97604095D01*
X82214595Y-75215880D02*
X82214595Y-76025404D01*
X82262214Y-76120642D01*
X82309833Y-76168261D01*
X82405071Y-76215880D01*
X82595547Y-76215880D01*
X82690785Y-76168261D01*
X82738404Y-76120642D01*
X82786023Y-76025404D01*
X82786023Y-75215880D01*
X83166976Y-75215880D02*
X83786023Y-75215880D01*
X83452690Y-75596833D01*
X83595547Y-75596833D01*
X83690785Y-75644452D01*
X83738404Y-75692071D01*
X83786023Y-75787309D01*
X83786023Y-76025404D01*
X83738404Y-76120642D01*
X83690785Y-76168261D01*
X83595547Y-76215880D01*
X83309833Y-76215880D01*
X83214595Y-76168261D01*
X83166976Y-76120642D01*
X98457595Y-76837380D02*
X98457595Y-77646904D01*
X98505214Y-77742142D01*
X98552833Y-77789761D01*
X98648071Y-77837380D01*
X98838547Y-77837380D01*
X98933785Y-77789761D01*
X98981404Y-77742142D01*
X99029023Y-77646904D01*
X99029023Y-76837380D01*
X99933785Y-77170714D02*
X99933785Y-77837380D01*
X99695690Y-76789761D02*
X99457595Y-77504047D01*
X100076642Y-77504047D01*
X68387782Y-71751900D02*
X68054449Y-71275710D01*
X67816354Y-71751900D02*
X67816354Y-70751900D01*
X68197306Y-70751900D01*
X68292544Y-70799520D01*
X68340163Y-70847139D01*
X68387782Y-70942377D01*
X68387782Y-71085234D01*
X68340163Y-71180472D01*
X68292544Y-71228091D01*
X68197306Y-71275710D01*
X67816354Y-71275710D01*
X68721116Y-70751900D02*
X69340163Y-70751900D01*
X69006830Y-71132853D01*
X69149687Y-71132853D01*
X69244925Y-71180472D01*
X69292544Y-71228091D01*
X69340163Y-71323329D01*
X69340163Y-71561424D01*
X69292544Y-71656662D01*
X69244925Y-71704281D01*
X69149687Y-71751900D01*
X68863973Y-71751900D01*
X68768735Y-71704281D01*
X68721116Y-71656662D01*
X70197306Y-71085234D02*
X70197306Y-71751900D01*
X69959211Y-70704281D02*
X69721116Y-71418567D01*
X70340163Y-71418567D01*
M02*
