%TF.GenerationSoftware,KiCad,Pcbnew,7.0.5*%
%TF.CreationDate,2023-08-10T10:01:06+03:00*%
%TF.ProjectId,shutter,73687574-7465-4722-9e6b-696361645f70,rev?*%
%TF.SameCoordinates,Original*%
%TF.FileFunction,Copper,L2,Bot*%
%TF.FilePolarity,Positive*%
%FSLAX46Y46*%
G04 Gerber Fmt 4.6, Leading zero omitted, Abs format (unit mm)*
G04 Created by KiCad (PCBNEW 7.0.5) date 2023-08-10 10:01:06*
%MOMM*%
%LPD*%
G01*
G04 APERTURE LIST*
G04 Aperture macros list*
%AMRoundRect*
0 Rectangle with rounded corners*
0 $1 Rounding radius*
0 $2 $3 $4 $5 $6 $7 $8 $9 X,Y pos of 4 corners*
0 Add a 4 corners polygon primitive as box body*
4,1,4,$2,$3,$4,$5,$6,$7,$8,$9,$2,$3,0*
0 Add four circle primitives for the rounded corners*
1,1,$1+$1,$2,$3*
1,1,$1+$1,$4,$5*
1,1,$1+$1,$6,$7*
1,1,$1+$1,$8,$9*
0 Add four rect primitives between the rounded corners*
20,1,$1+$1,$2,$3,$4,$5,0*
20,1,$1+$1,$4,$5,$6,$7,0*
20,1,$1+$1,$6,$7,$8,$9,0*
20,1,$1+$1,$8,$9,$2,$3,0*%
G04 Aperture macros list end*
%TA.AperFunction,ComponentPad*%
%ADD10RoundRect,0.250000X-0.625000X0.350000X-0.625000X-0.350000X0.625000X-0.350000X0.625000X0.350000X0*%
%TD*%
%TA.AperFunction,ComponentPad*%
%ADD11O,1.750000X1.200000*%
%TD*%
%TA.AperFunction,ComponentPad*%
%ADD12R,1.700000X1.700000*%
%TD*%
%TA.AperFunction,ComponentPad*%
%ADD13R,1.000000X1.000000*%
%TD*%
%TA.AperFunction,ComponentPad*%
%ADD14O,1.000000X1.000000*%
%TD*%
%TA.AperFunction,ComponentPad*%
%ADD15C,2.400000*%
%TD*%
%TA.AperFunction,ComponentPad*%
%ADD16O,2.400000X2.400000*%
%TD*%
%TA.AperFunction,ComponentPad*%
%ADD17R,2.400000X2.400000*%
%TD*%
%TA.AperFunction,ComponentPad*%
%ADD18R,1.800000X1.800000*%
%TD*%
%TA.AperFunction,ComponentPad*%
%ADD19O,1.800000X1.800000*%
%TD*%
%TA.AperFunction,ComponentPad*%
%ADD20RoundRect,0.250000X0.350000X0.625000X-0.350000X0.625000X-0.350000X-0.625000X0.350000X-0.625000X0*%
%TD*%
%TA.AperFunction,ComponentPad*%
%ADD21O,1.200000X1.750000*%
%TD*%
%TA.AperFunction,ComponentPad*%
%ADD22R,1.600000X1.600000*%
%TD*%
%TA.AperFunction,ComponentPad*%
%ADD23C,1.600000*%
%TD*%
%TA.AperFunction,ComponentPad*%
%ADD24C,4.000000*%
%TD*%
%TA.AperFunction,ComponentPad*%
%ADD25R,2.600000X2.600000*%
%TD*%
%TA.AperFunction,ComponentPad*%
%ADD26C,2.600000*%
%TD*%
%TA.AperFunction,ViaPad*%
%ADD27C,1.200000*%
%TD*%
%TA.AperFunction,ViaPad*%
%ADD28C,1.000000*%
%TD*%
%TA.AperFunction,Conductor*%
%ADD29C,0.300000*%
%TD*%
%TA.AperFunction,Conductor*%
%ADD30C,1.000000*%
%TD*%
G04 APERTURE END LIST*
D10*
%TO.P,J9,1,Pin_1*%
%TO.N,GND*%
X169750000Y-108250000D03*
D11*
%TO.P,J9,2,Pin_2*%
%TO.N,Net-(J9-Pin_2)*%
X169750000Y-110250000D03*
%TD*%
D12*
%TO.P,J6,1,Pin_1*%
%TO.N,+3V3*%
X155500000Y-100250000D03*
%TD*%
%TO.P,J4,1,Pin_1*%
%TO.N,/VBUS*%
X169748200Y-97409000D03*
%TD*%
D13*
%TO.P,J3,1,Pin_1*%
%TO.N,/SWCLK*%
X148515000Y-74000000D03*
D14*
%TO.P,J3,2,Pin_2*%
%TO.N,/SWDIO*%
X147245000Y-74000000D03*
%TO.P,J3,3,Pin_3*%
%TO.N,GND*%
X145975000Y-74000000D03*
%TO.P,J3,4,Pin_4*%
%TO.N,Net-(J3-Pin_4)*%
X144705000Y-74000000D03*
%TO.P,J3,5,Pin_5*%
%TO.N,/BOOT0*%
X143435000Y-74000000D03*
%TO.P,J3,6,Pin_6*%
%TO.N,/NRST*%
X142165000Y-74000000D03*
%TD*%
D12*
%TO.P,J5,1,Pin_1*%
%TO.N,GND*%
X169799000Y-102412800D03*
%TD*%
D15*
%TO.P,R4,1*%
%TO.N,/Uin*%
X118350000Y-102250000D03*
D16*
%TO.P,R4,2*%
%TO.N,Net-(DA1-Vs)*%
X140750000Y-102250000D03*
%TD*%
D17*
%TO.P,C1,1*%
%TO.N,Net-(DA1-Vs)*%
X127750000Y-85250000D03*
D15*
%TO.P,C1,2*%
%TO.N,GND*%
X120250000Y-85250000D03*
%TD*%
D18*
%TO.P,DA1,1,OUT1*%
%TO.N,Net-(D1-A)*%
X151560000Y-113250000D03*
D19*
%TO.P,DA1,2,EF*%
%TO.N,/SHTR_FB*%
X150290000Y-117050000D03*
%TO.P,DA1,3,IN1*%
%TO.N,/SHTR_A*%
X149020000Y-113250000D03*
%TO.P,DA1,4,GND*%
%TO.N,GND*%
X147750000Y-117050000D03*
%TO.P,DA1,5,IN2*%
%TO.N,/SHTR_B*%
X146480000Y-113250000D03*
%TO.P,DA1,6,Vs*%
%TO.N,Net-(DA1-Vs)*%
X145210000Y-117050000D03*
%TO.P,DA1,7,OUT2*%
%TO.N,Net-(D4-A)*%
X143940000Y-113250000D03*
%TD*%
D20*
%TO.P,J8,1,Pin_1*%
%TO.N,GND*%
X158750000Y-116250000D03*
D21*
%TO.P,J8,2,Pin_2*%
%TO.N,Net-(J8-Pin_2)*%
X156750000Y-116250000D03*
%TD*%
D22*
%TO.P,J7,1,VBUS*%
%TO.N,/VBUS*%
X165462500Y-87500000D03*
D23*
%TO.P,J7,2,D-*%
%TO.N,Net-(J7-D-)*%
X165462500Y-85000000D03*
%TO.P,J7,3,D+*%
%TO.N,Net-(J7-D+)*%
X167462500Y-85000000D03*
%TO.P,J7,4,GND*%
%TO.N,GND*%
X167462500Y-87500000D03*
D24*
%TO.P,J7,5,Shield*%
X170322500Y-80250000D03*
X170322500Y-92250000D03*
%TD*%
D25*
%TO.P,J1,1,Pin_1*%
%TO.N,Net-(D4-A)*%
X139250000Y-113250000D03*
D26*
%TO.P,J1,2,Pin_2*%
%TO.N,Net-(D1-A)*%
X134170000Y-113250000D03*
%TD*%
D25*
%TO.P,J2,1,Pin_1*%
%TO.N,GND*%
X127750000Y-113250000D03*
D26*
%TO.P,J2,2,Pin_2*%
%TO.N,/Uin*%
X122670000Y-113250000D03*
%TD*%
D27*
%TO.N,GND*%
X136220200Y-92354400D03*
X138896900Y-82473800D03*
X142225000Y-79868000D03*
X148767800Y-102946200D03*
X152450800Y-92354400D03*
X140520000Y-96970000D03*
%TO.N,+3V3*%
X146608327Y-94666273D03*
X154740000Y-96690000D03*
%TO.N,Net-(D1-A)*%
X154127200Y-109448600D03*
X134188200Y-106680000D03*
D28*
%TO.N,/SWDIO*%
X153000000Y-81750000D03*
X147250000Y-76000000D03*
%TO.N,/NRST*%
X137947400Y-86918800D03*
X139832500Y-76332500D03*
%TO.N,/USBDP*%
X151206200Y-84632800D03*
X151079200Y-86995000D03*
%TD*%
D29*
%TO.N,GND*%
X152450800Y-92354400D02*
X140620000Y-92354400D01*
X141502700Y-79868000D02*
X138896900Y-82473800D01*
X142225000Y-79868000D02*
X141502700Y-79868000D01*
X138896900Y-92344700D02*
X138887200Y-92354400D01*
X140520000Y-96970000D02*
X140520000Y-92454400D01*
X140520000Y-92454400D02*
X140520000Y-84096900D01*
X146496200Y-102946200D02*
X148767800Y-102946200D01*
X138887200Y-92354400D02*
X136220200Y-92354400D01*
X140520000Y-84096900D02*
X138896900Y-82473800D01*
X140520000Y-96970000D02*
X146496200Y-102946200D01*
X140620000Y-92354400D02*
X138887200Y-92354400D01*
X140520000Y-92454400D02*
X140620000Y-92354400D01*
%TO.N,+3V3*%
X146608327Y-94666273D02*
X152716273Y-94666273D01*
X152716273Y-94666273D02*
X154740000Y-96690000D01*
D30*
%TO.N,Net-(D1-A)*%
X154127200Y-109448600D02*
X136956800Y-109448600D01*
X136956800Y-109448600D02*
X134188200Y-106680000D01*
D29*
%TO.N,/SWDIO*%
X147250000Y-76650000D02*
X152350000Y-81750000D01*
X152350000Y-81750000D02*
X153000000Y-81750000D01*
X147250000Y-76000000D02*
X147250000Y-76650000D01*
%TO.N,/NRST*%
X137947400Y-86918800D02*
X137718800Y-86690200D01*
X137718800Y-78446200D02*
X139832500Y-76332500D01*
X137718800Y-86690200D02*
X137718800Y-78446200D01*
%TO.N,/USBDP*%
X151079200Y-84759800D02*
X151206200Y-84632800D01*
X151079200Y-86995000D02*
X151079200Y-84759800D01*
%TD*%
%TA.AperFunction,Conductor*%
%TO.N,GND*%
G36*
X172943039Y-71019685D02*
G01*
X172988794Y-71072489D01*
X173000000Y-71124000D01*
X173000000Y-79632384D01*
X172980315Y-79699423D01*
X172927511Y-79745178D01*
X172858353Y-79755122D01*
X172794797Y-79726097D01*
X172757023Y-79667319D01*
X172754197Y-79655620D01*
X172748746Y-79627048D01*
X172748746Y-79627046D01*
X172651536Y-79327867D01*
X172651534Y-79327862D01*
X172517599Y-79043238D01*
X172517596Y-79043232D01*
X172349042Y-78777632D01*
X172349039Y-78777628D01*
X172258212Y-78667838D01*
X171293060Y-79632991D01*
X171244152Y-79554001D01*
X171100569Y-79396499D01*
X170942110Y-79276835D01*
X171907527Y-78311419D01*
X171907526Y-78311417D01*
X171664727Y-78135014D01*
X171664709Y-78135003D01*
X171389052Y-77983459D01*
X171389044Y-77983455D01*
X171096573Y-77867659D01*
X170791879Y-77789426D01*
X170791870Y-77789424D01*
X170479798Y-77750000D01*
X170165201Y-77750000D01*
X169853129Y-77789424D01*
X169853120Y-77789426D01*
X169548426Y-77867659D01*
X169255955Y-77983455D01*
X169255947Y-77983459D01*
X168980287Y-78135004D01*
X168980282Y-78135007D01*
X168737472Y-78311418D01*
X168737471Y-78311419D01*
X169702888Y-79276836D01*
X169544431Y-79396499D01*
X169400848Y-79554001D01*
X169351939Y-79632991D01*
X168386786Y-78667838D01*
X168386785Y-78667838D01*
X168295959Y-78777629D01*
X168295957Y-78777632D01*
X168127403Y-79043232D01*
X168127400Y-79043238D01*
X167993465Y-79327862D01*
X167993463Y-79327867D01*
X167896255Y-79627041D01*
X167837308Y-79936050D01*
X167837307Y-79936057D01*
X167817557Y-80249994D01*
X167817557Y-80250005D01*
X167837307Y-80563942D01*
X167837308Y-80563949D01*
X167896255Y-80872958D01*
X167993463Y-81172132D01*
X167993465Y-81172137D01*
X168127400Y-81456761D01*
X168127403Y-81456767D01*
X168295957Y-81722367D01*
X168295960Y-81722371D01*
X168386786Y-81832160D01*
X169351938Y-80867007D01*
X169400848Y-80945999D01*
X169544431Y-81103501D01*
X169702888Y-81223163D01*
X168737471Y-82188579D01*
X168737472Y-82188581D01*
X168980272Y-82364985D01*
X168980290Y-82364996D01*
X169255947Y-82516540D01*
X169255955Y-82516544D01*
X169548426Y-82632340D01*
X169853120Y-82710573D01*
X169853129Y-82710575D01*
X170165201Y-82749999D01*
X170165215Y-82750000D01*
X170479785Y-82750000D01*
X170479798Y-82749999D01*
X170791870Y-82710575D01*
X170791879Y-82710573D01*
X171096573Y-82632340D01*
X171389044Y-82516544D01*
X171389052Y-82516540D01*
X171664709Y-82364996D01*
X171664719Y-82364990D01*
X171907526Y-82188579D01*
X171907527Y-82188579D01*
X170942111Y-81223163D01*
X171100569Y-81103501D01*
X171244152Y-80945999D01*
X171293060Y-80867008D01*
X172258212Y-81832160D01*
X172349044Y-81722364D01*
X172517596Y-81456767D01*
X172517599Y-81456761D01*
X172651534Y-81172137D01*
X172651536Y-81172132D01*
X172748744Y-80872958D01*
X172754196Y-80844380D01*
X172786094Y-80782216D01*
X172846536Y-80747166D01*
X172916333Y-80750358D01*
X172973324Y-80790778D01*
X172999416Y-80855593D01*
X173000000Y-80867615D01*
X173000000Y-91632384D01*
X172980315Y-91699423D01*
X172927511Y-91745178D01*
X172858353Y-91755122D01*
X172794797Y-91726097D01*
X172757023Y-91667319D01*
X172754197Y-91655620D01*
X172748746Y-91627048D01*
X172748746Y-91627046D01*
X172651536Y-91327867D01*
X172651534Y-91327862D01*
X172517599Y-91043238D01*
X172517596Y-91043232D01*
X172349042Y-90777632D01*
X172349039Y-90777628D01*
X172258212Y-90667838D01*
X171293059Y-91632990D01*
X171244152Y-91554001D01*
X171100569Y-91396499D01*
X170942111Y-91276836D01*
X171907527Y-90311419D01*
X171907526Y-90311417D01*
X171664727Y-90135014D01*
X171664709Y-90135003D01*
X171389052Y-89983459D01*
X171389044Y-89983455D01*
X171096573Y-89867659D01*
X170791879Y-89789426D01*
X170791870Y-89789424D01*
X170479798Y-89750000D01*
X170165201Y-89750000D01*
X169853129Y-89789424D01*
X169853120Y-89789426D01*
X169548426Y-89867659D01*
X169255955Y-89983455D01*
X169255947Y-89983459D01*
X168980287Y-90135004D01*
X168980282Y-90135007D01*
X168737472Y-90311418D01*
X168737471Y-90311419D01*
X169702888Y-91276836D01*
X169544431Y-91396499D01*
X169400848Y-91554001D01*
X169351939Y-91632991D01*
X168386786Y-90667838D01*
X168386785Y-90667838D01*
X168295959Y-90777629D01*
X168295957Y-90777632D01*
X168127403Y-91043232D01*
X168127400Y-91043238D01*
X167993465Y-91327862D01*
X167993463Y-91327867D01*
X167896255Y-91627041D01*
X167837308Y-91936050D01*
X167837307Y-91936057D01*
X167817557Y-92249994D01*
X167817557Y-92250005D01*
X167837307Y-92563942D01*
X167837308Y-92563949D01*
X167896255Y-92872958D01*
X167993463Y-93172132D01*
X167993465Y-93172137D01*
X168127400Y-93456761D01*
X168127403Y-93456767D01*
X168295957Y-93722367D01*
X168295960Y-93722371D01*
X168386786Y-93832160D01*
X169351938Y-92867007D01*
X169400848Y-92945999D01*
X169544431Y-93103501D01*
X169702888Y-93223163D01*
X168737471Y-94188579D01*
X168737472Y-94188581D01*
X168980272Y-94364985D01*
X168980290Y-94364996D01*
X169255947Y-94516540D01*
X169255955Y-94516544D01*
X169548426Y-94632340D01*
X169853120Y-94710573D01*
X169853129Y-94710575D01*
X170165201Y-94749999D01*
X170165215Y-94750000D01*
X170479785Y-94750000D01*
X170479798Y-94749999D01*
X170791870Y-94710575D01*
X170791879Y-94710573D01*
X171096573Y-94632340D01*
X171389044Y-94516544D01*
X171389052Y-94516540D01*
X171664709Y-94364996D01*
X171664719Y-94364990D01*
X171907526Y-94188579D01*
X171907527Y-94188579D01*
X170942111Y-93223163D01*
X171100569Y-93103501D01*
X171244152Y-92945999D01*
X171293060Y-92867007D01*
X172258212Y-93832160D01*
X172349044Y-93722364D01*
X172517596Y-93456767D01*
X172517599Y-93456761D01*
X172651534Y-93172137D01*
X172651536Y-93172132D01*
X172748744Y-92872958D01*
X172754196Y-92844380D01*
X172786094Y-92782216D01*
X172846536Y-92747166D01*
X172916333Y-92750358D01*
X172973324Y-92790778D01*
X172999416Y-92855593D01*
X173000000Y-92867615D01*
X173000000Y-119376000D01*
X172980315Y-119443039D01*
X172927511Y-119488794D01*
X172876000Y-119500000D01*
X113124000Y-119500000D01*
X113056961Y-119480315D01*
X113011206Y-119427511D01*
X113000000Y-119376000D01*
X113000000Y-116567763D01*
X114145787Y-116567763D01*
X114175413Y-116837013D01*
X114175415Y-116837024D01*
X114231096Y-117050006D01*
X114243928Y-117099088D01*
X114349870Y-117348390D01*
X114490979Y-117579605D01*
X114490986Y-117579615D01*
X114664253Y-117787819D01*
X114664259Y-117787824D01*
X114705891Y-117825126D01*
X114865998Y-117968582D01*
X115091910Y-118118044D01*
X115337176Y-118233020D01*
X115337183Y-118233022D01*
X115337185Y-118233023D01*
X115596557Y-118311057D01*
X115596564Y-118311058D01*
X115596569Y-118311060D01*
X115864561Y-118350500D01*
X115864566Y-118350500D01*
X116067629Y-118350500D01*
X116067631Y-118350500D01*
X116067636Y-118350499D01*
X116067648Y-118350499D01*
X116105191Y-118347750D01*
X116270156Y-118335677D01*
X116382758Y-118310593D01*
X116534546Y-118276782D01*
X116534548Y-118276781D01*
X116534553Y-118276780D01*
X116787558Y-118180014D01*
X117023777Y-118047441D01*
X117238177Y-117881888D01*
X117426186Y-117686881D01*
X117583799Y-117466579D01*
X117686687Y-117266461D01*
X117707649Y-117225690D01*
X117707651Y-117225684D01*
X117707656Y-117225675D01*
X117767586Y-117050006D01*
X143804700Y-117050006D01*
X143823864Y-117281297D01*
X143823866Y-117281308D01*
X143880842Y-117506300D01*
X143974075Y-117718848D01*
X144101016Y-117913147D01*
X144101019Y-117913151D01*
X144101021Y-117913153D01*
X144258216Y-118083913D01*
X144258219Y-118083915D01*
X144258222Y-118083918D01*
X144441365Y-118226464D01*
X144441371Y-118226468D01*
X144441374Y-118226470D01*
X144597677Y-118311057D01*
X144644652Y-118336479D01*
X144645497Y-118336936D01*
X144685005Y-118350499D01*
X144865015Y-118412297D01*
X144865017Y-118412297D01*
X144865019Y-118412298D01*
X145093951Y-118450500D01*
X145093952Y-118450500D01*
X145326048Y-118450500D01*
X145326049Y-118450500D01*
X145554981Y-118412298D01*
X145774503Y-118336936D01*
X145978626Y-118226470D01*
X145979170Y-118226047D01*
X146117935Y-118118042D01*
X146161784Y-118083913D01*
X146318979Y-117913153D01*
X146376490Y-117825124D01*
X146429635Y-117779769D01*
X146498866Y-117770345D01*
X146562202Y-117799846D01*
X146584107Y-117825126D01*
X146641414Y-117912842D01*
X146798558Y-118083545D01*
X146798562Y-118083548D01*
X146981644Y-118226047D01*
X146981648Y-118226050D01*
X147185697Y-118336476D01*
X147185706Y-118336479D01*
X147405139Y-118411811D01*
X147499999Y-118427640D01*
X147500000Y-118427639D01*
X147500000Y-117541683D01*
X147528819Y-117559209D01*
X147674404Y-117600000D01*
X147787622Y-117600000D01*
X147899783Y-117584584D01*
X147999999Y-117541053D01*
X148000000Y-118427639D01*
X148000000Y-118427640D01*
X148094860Y-118411811D01*
X148314293Y-118336479D01*
X148314302Y-118336476D01*
X148518351Y-118226050D01*
X148518355Y-118226047D01*
X148701437Y-118083548D01*
X148701441Y-118083545D01*
X148858584Y-117912842D01*
X148915892Y-117825126D01*
X148969038Y-117779769D01*
X149038269Y-117770345D01*
X149101605Y-117799846D01*
X149123510Y-117825126D01*
X149181016Y-117913147D01*
X149181019Y-117913151D01*
X149181021Y-117913153D01*
X149338216Y-118083913D01*
X149338219Y-118083915D01*
X149338222Y-118083918D01*
X149521365Y-118226464D01*
X149521371Y-118226468D01*
X149521374Y-118226470D01*
X149677677Y-118311057D01*
X149724652Y-118336479D01*
X149725497Y-118336936D01*
X149765005Y-118350499D01*
X149945015Y-118412297D01*
X149945017Y-118412297D01*
X149945019Y-118412298D01*
X150173951Y-118450500D01*
X150173952Y-118450500D01*
X150406048Y-118450500D01*
X150406049Y-118450500D01*
X150634981Y-118412298D01*
X150854503Y-118336936D01*
X151058626Y-118226470D01*
X151059170Y-118226047D01*
X151197935Y-118118042D01*
X151241784Y-118083913D01*
X151398979Y-117913153D01*
X151525924Y-117718849D01*
X151619157Y-117506300D01*
X151676134Y-117281305D01*
X151679895Y-117235915D01*
X151695300Y-117050006D01*
X151695300Y-117049993D01*
X151676135Y-116818702D01*
X151676133Y-116818691D01*
X151619157Y-116593699D01*
X151612019Y-116577425D01*
X155649500Y-116577425D01*
X155664472Y-116734218D01*
X155723684Y-116935875D01*
X155782519Y-117050000D01*
X155819991Y-117122686D01*
X155949905Y-117287883D01*
X155949909Y-117287887D01*
X156108746Y-117425521D01*
X156290750Y-117530601D01*
X156290752Y-117530601D01*
X156290756Y-117530604D01*
X156489367Y-117599344D01*
X156697398Y-117629254D01*
X156907330Y-117619254D01*
X157111576Y-117569704D01*
X157250411Y-117506300D01*
X157302743Y-117482401D01*
X157302746Y-117482399D01*
X157302753Y-117482396D01*
X157473952Y-117360486D01*
X157572107Y-117257543D01*
X157632615Y-117222609D01*
X157702406Y-117225933D01*
X157759320Y-117266461D01*
X157767389Y-117278016D01*
X157807684Y-117343345D01*
X157931654Y-117467315D01*
X158080875Y-117559356D01*
X158080880Y-117559358D01*
X158247302Y-117614505D01*
X158247309Y-117614506D01*
X158350019Y-117624999D01*
X158499999Y-117624999D01*
X158500000Y-117624998D01*
X158500000Y-116530617D01*
X158569052Y-116584363D01*
X158687424Y-116625000D01*
X158781073Y-116625000D01*
X158873446Y-116609586D01*
X158983514Y-116550019D01*
X159000000Y-116532110D01*
X159000000Y-117624999D01*
X159149972Y-117624999D01*
X159149986Y-117624998D01*
X159252697Y-117614505D01*
X159419119Y-117559358D01*
X159419124Y-117559356D01*
X159568345Y-117467315D01*
X159692315Y-117343345D01*
X159784356Y-117194124D01*
X159784358Y-117194119D01*
X159839505Y-117027697D01*
X159839506Y-117027690D01*
X159849999Y-116924986D01*
X159850000Y-116924973D01*
X159850000Y-116567763D01*
X168145787Y-116567763D01*
X168175413Y-116837013D01*
X168175415Y-116837024D01*
X168231096Y-117050006D01*
X168243928Y-117099088D01*
X168349870Y-117348390D01*
X168490979Y-117579605D01*
X168490986Y-117579615D01*
X168664253Y-117787819D01*
X168664259Y-117787824D01*
X168705891Y-117825126D01*
X168865998Y-117968582D01*
X169091910Y-118118044D01*
X169337176Y-118233020D01*
X169337183Y-118233022D01*
X169337185Y-118233023D01*
X169596557Y-118311057D01*
X169596564Y-118311058D01*
X169596569Y-118311060D01*
X169864561Y-118350500D01*
X169864566Y-118350500D01*
X170067629Y-118350500D01*
X170067631Y-118350500D01*
X170067636Y-118350499D01*
X170067648Y-118350499D01*
X170105191Y-118347750D01*
X170270156Y-118335677D01*
X170382758Y-118310593D01*
X170534546Y-118276782D01*
X170534548Y-118276781D01*
X170534553Y-118276780D01*
X170787558Y-118180014D01*
X171023777Y-118047441D01*
X171238177Y-117881888D01*
X171426186Y-117686881D01*
X171583799Y-117466579D01*
X171686687Y-117266461D01*
X171707649Y-117225690D01*
X171707651Y-117225684D01*
X171707656Y-117225675D01*
X171795118Y-116969305D01*
X171844319Y-116702933D01*
X171854212Y-116432235D01*
X171824586Y-116162982D01*
X171756072Y-115900912D01*
X171650130Y-115651610D01*
X171509018Y-115420390D01*
X171507845Y-115418981D01*
X171335746Y-115212180D01*
X171335740Y-115212175D01*
X171134002Y-115031418D01*
X170908092Y-114881957D01*
X170905507Y-114880745D01*
X170662824Y-114766980D01*
X170662819Y-114766978D01*
X170662814Y-114766976D01*
X170403442Y-114688942D01*
X170403428Y-114688939D01*
X170287791Y-114671921D01*
X170135439Y-114649500D01*
X169932369Y-114649500D01*
X169932351Y-114649500D01*
X169729844Y-114664323D01*
X169729831Y-114664325D01*
X169465453Y-114723217D01*
X169465446Y-114723220D01*
X169212439Y-114819987D01*
X168976226Y-114952557D01*
X168976224Y-114952558D01*
X168976223Y-114952559D01*
X168923391Y-114993354D01*
X168761822Y-115118112D01*
X168573822Y-115313109D01*
X168573816Y-115313116D01*
X168416202Y-115533419D01*
X168416199Y-115533424D01*
X168292350Y-115774309D01*
X168292343Y-115774327D01*
X168204884Y-116030685D01*
X168204882Y-116030695D01*
X168159781Y-116274873D01*
X168155681Y-116297068D01*
X168155680Y-116297075D01*
X168145787Y-116567763D01*
X159850000Y-116567763D01*
X159850000Y-116500000D01*
X159029560Y-116500000D01*
X159068278Y-116457941D01*
X159118551Y-116343330D01*
X159128886Y-116218605D01*
X159098163Y-116097281D01*
X159034606Y-116000000D01*
X159849999Y-116000000D01*
X159849999Y-115575028D01*
X159849998Y-115575013D01*
X159839505Y-115472302D01*
X159784358Y-115305880D01*
X159784356Y-115305875D01*
X159692315Y-115156654D01*
X159568345Y-115032684D01*
X159419124Y-114940643D01*
X159419119Y-114940641D01*
X159252697Y-114885494D01*
X159252690Y-114885493D01*
X159149986Y-114875000D01*
X159000000Y-114875000D01*
X159000000Y-115969382D01*
X158930948Y-115915637D01*
X158812576Y-115875000D01*
X158718927Y-115875000D01*
X158626554Y-115890414D01*
X158516486Y-115949981D01*
X158500000Y-115967889D01*
X158500000Y-114875000D01*
X158350027Y-114875000D01*
X158350012Y-114875001D01*
X158247302Y-114885494D01*
X158080880Y-114940641D01*
X158080875Y-114940643D01*
X157931654Y-115032684D01*
X157807682Y-115156656D01*
X157768513Y-115220159D01*
X157716564Y-115266883D01*
X157647602Y-115278104D01*
X157583520Y-115250260D01*
X157565504Y-115231712D01*
X157550092Y-115212114D01*
X157550090Y-115212112D01*
X157391253Y-115074478D01*
X157209249Y-114969398D01*
X157209245Y-114969396D01*
X157209244Y-114969396D01*
X157010633Y-114900656D01*
X156802602Y-114870746D01*
X156802598Y-114870746D01*
X156592672Y-114880745D01*
X156388421Y-114930296D01*
X156388417Y-114930298D01*
X156197256Y-115017598D01*
X156197251Y-115017601D01*
X156026046Y-115139515D01*
X156026040Y-115139520D01*
X155881014Y-115291620D01*
X155767388Y-115468425D01*
X155689274Y-115663544D01*
X155667923Y-115774325D01*
X155649500Y-115869915D01*
X155649500Y-116577425D01*
X151612019Y-116577425D01*
X151525924Y-116381151D01*
X151398983Y-116186852D01*
X151398980Y-116186849D01*
X151398979Y-116186847D01*
X151241784Y-116016087D01*
X151241779Y-116016083D01*
X151241777Y-116016081D01*
X151058634Y-115873535D01*
X151058628Y-115873531D01*
X150854504Y-115763064D01*
X150854495Y-115763061D01*
X150634984Y-115687702D01*
X150463282Y-115659050D01*
X150406049Y-115649500D01*
X150173951Y-115649500D01*
X150128164Y-115657140D01*
X149945015Y-115687702D01*
X149725504Y-115763061D01*
X149725495Y-115763064D01*
X149521371Y-115873531D01*
X149521365Y-115873535D01*
X149338222Y-116016081D01*
X149338219Y-116016084D01*
X149338216Y-116016086D01*
X149338216Y-116016087D01*
X149202991Y-116162982D01*
X149181015Y-116186854D01*
X149123509Y-116274874D01*
X149070363Y-116320230D01*
X149001132Y-116329654D01*
X148937796Y-116300152D01*
X148915892Y-116274873D01*
X148858585Y-116187157D01*
X148701441Y-116016454D01*
X148701437Y-116016451D01*
X148518355Y-115873952D01*
X148518351Y-115873949D01*
X148314302Y-115763523D01*
X148314293Y-115763520D01*
X148094861Y-115688188D01*
X148000000Y-115672359D01*
X147999999Y-115672359D01*
X147999999Y-116558315D01*
X147971181Y-116540791D01*
X147825596Y-116500000D01*
X147712378Y-116500000D01*
X147600217Y-116515416D01*
X147500000Y-116558946D01*
X147500000Y-115672359D01*
X147499999Y-115672359D01*
X147405138Y-115688188D01*
X147185706Y-115763520D01*
X147185697Y-115763523D01*
X146981648Y-115873949D01*
X146981644Y-115873952D01*
X146798562Y-116016451D01*
X146798558Y-116016454D01*
X146641413Y-116187159D01*
X146584106Y-116274874D01*
X146530960Y-116320231D01*
X146461728Y-116329654D01*
X146398393Y-116300152D01*
X146376489Y-116274873D01*
X146318983Y-116186852D01*
X146318980Y-116186849D01*
X146318979Y-116186847D01*
X146161784Y-116016087D01*
X146161779Y-116016083D01*
X146161777Y-116016081D01*
X145978634Y-115873535D01*
X145978628Y-115873531D01*
X145774504Y-115763064D01*
X145774495Y-115763061D01*
X145554984Y-115687702D01*
X145383282Y-115659050D01*
X145326049Y-115649500D01*
X145093951Y-115649500D01*
X145048164Y-115657140D01*
X144865015Y-115687702D01*
X144645504Y-115763061D01*
X144645495Y-115763064D01*
X144441371Y-115873531D01*
X144441365Y-115873535D01*
X144258222Y-116016081D01*
X144258219Y-116016084D01*
X144258216Y-116016086D01*
X144258216Y-116016087D01*
X144244765Y-116030699D01*
X144101016Y-116186852D01*
X143974075Y-116381151D01*
X143880842Y-116593699D01*
X143823866Y-116818691D01*
X143823864Y-116818702D01*
X143804700Y-117049993D01*
X143804700Y-117050006D01*
X117767586Y-117050006D01*
X117795118Y-116969305D01*
X117844319Y-116702933D01*
X117854212Y-116432235D01*
X117824586Y-116162982D01*
X117756072Y-115900912D01*
X117650130Y-115651610D01*
X117509018Y-115420390D01*
X117507845Y-115418981D01*
X117335746Y-115212180D01*
X117335740Y-115212175D01*
X117134002Y-115031418D01*
X116908092Y-114881957D01*
X116905507Y-114880745D01*
X116662824Y-114766980D01*
X116662819Y-114766978D01*
X116662814Y-114766976D01*
X116403442Y-114688942D01*
X116403428Y-114688939D01*
X116287791Y-114671921D01*
X116135439Y-114649500D01*
X115932369Y-114649500D01*
X115932351Y-114649500D01*
X115729844Y-114664323D01*
X115729831Y-114664325D01*
X115465453Y-114723217D01*
X115465446Y-114723220D01*
X115212439Y-114819987D01*
X114976226Y-114952557D01*
X114976224Y-114952558D01*
X114976223Y-114952559D01*
X114923391Y-114993354D01*
X114761822Y-115118112D01*
X114573822Y-115313109D01*
X114573816Y-115313116D01*
X114416202Y-115533419D01*
X114416199Y-115533424D01*
X114292350Y-115774309D01*
X114292343Y-115774327D01*
X114204884Y-116030685D01*
X114204882Y-116030695D01*
X114159781Y-116274873D01*
X114155681Y-116297068D01*
X114155680Y-116297075D01*
X114145787Y-116567763D01*
X113000000Y-116567763D01*
X113000000Y-113250004D01*
X120864451Y-113250004D01*
X120884616Y-113519101D01*
X120944664Y-113782188D01*
X120944666Y-113782195D01*
X121018689Y-113970802D01*
X121043257Y-114033398D01*
X121178185Y-114267102D01*
X121305276Y-114426468D01*
X121346442Y-114478089D01*
X121491085Y-114612297D01*
X121544259Y-114661635D01*
X121767226Y-114813651D01*
X122010359Y-114930738D01*
X122268228Y-115010280D01*
X122268229Y-115010280D01*
X122268232Y-115010281D01*
X122535063Y-115050499D01*
X122535068Y-115050499D01*
X122535071Y-115050500D01*
X122535072Y-115050500D01*
X122804928Y-115050500D01*
X122804929Y-115050500D01*
X122804936Y-115050499D01*
X123071767Y-115010281D01*
X123071768Y-115010280D01*
X123071772Y-115010280D01*
X123329641Y-114930738D01*
X123572775Y-114813651D01*
X123795741Y-114661635D01*
X123864491Y-114597844D01*
X125950000Y-114597844D01*
X125956401Y-114657372D01*
X125956403Y-114657379D01*
X126006645Y-114792086D01*
X126006649Y-114792093D01*
X126092809Y-114907187D01*
X126092812Y-114907190D01*
X126207906Y-114993350D01*
X126207913Y-114993354D01*
X126342620Y-115043596D01*
X126342627Y-115043598D01*
X126402155Y-115049999D01*
X126402172Y-115050000D01*
X127500000Y-115050000D01*
X127500000Y-113854310D01*
X127508817Y-113859158D01*
X127667886Y-113900000D01*
X127790894Y-113900000D01*
X127912933Y-113884583D01*
X128000000Y-113850110D01*
X128000000Y-115050000D01*
X129097828Y-115050000D01*
X129097844Y-115049999D01*
X129157372Y-115043598D01*
X129157379Y-115043596D01*
X129292086Y-114993354D01*
X129292093Y-114993350D01*
X129407187Y-114907190D01*
X129407190Y-114907187D01*
X129493350Y-114792093D01*
X129493354Y-114792086D01*
X129543596Y-114657379D01*
X129543598Y-114657372D01*
X129549999Y-114597844D01*
X129550000Y-114597827D01*
X129550000Y-113500000D01*
X128350728Y-113500000D01*
X128373100Y-113452457D01*
X128403873Y-113291138D01*
X128401285Y-113250004D01*
X132364451Y-113250004D01*
X132384616Y-113519101D01*
X132444664Y-113782188D01*
X132444666Y-113782195D01*
X132518689Y-113970802D01*
X132543257Y-114033398D01*
X132678185Y-114267102D01*
X132805276Y-114426468D01*
X132846442Y-114478089D01*
X132991085Y-114612297D01*
X133044259Y-114661635D01*
X133267226Y-114813651D01*
X133510359Y-114930738D01*
X133768228Y-115010280D01*
X133768229Y-115010280D01*
X133768232Y-115010281D01*
X134035063Y-115050499D01*
X134035068Y-115050499D01*
X134035071Y-115050500D01*
X134035072Y-115050500D01*
X134304928Y-115050500D01*
X134304929Y-115050500D01*
X134304936Y-115050499D01*
X134571767Y-115010281D01*
X134571768Y-115010280D01*
X134571772Y-115010280D01*
X134829641Y-114930738D01*
X135072775Y-114813651D01*
X135295741Y-114661635D01*
X135364463Y-114597870D01*
X137449500Y-114597870D01*
X137449501Y-114597876D01*
X137455908Y-114657483D01*
X137506202Y-114792328D01*
X137506206Y-114792335D01*
X137592452Y-114907544D01*
X137592455Y-114907547D01*
X137707664Y-114993793D01*
X137707671Y-114993797D01*
X137842517Y-115044091D01*
X137842516Y-115044091D01*
X137849444Y-115044835D01*
X137902127Y-115050500D01*
X140597872Y-115050499D01*
X140657483Y-115044091D01*
X140792331Y-114993796D01*
X140907546Y-114907546D01*
X140993796Y-114792331D01*
X141044091Y-114657483D01*
X141050500Y-114597873D01*
X141050500Y-113250006D01*
X142534700Y-113250006D01*
X142553864Y-113481297D01*
X142553866Y-113481308D01*
X142610842Y-113706300D01*
X142704075Y-113918848D01*
X142831016Y-114113147D01*
X142831019Y-114113151D01*
X142831021Y-114113153D01*
X142988216Y-114283913D01*
X142988219Y-114283915D01*
X142988222Y-114283918D01*
X143171365Y-114426464D01*
X143171371Y-114426468D01*
X143171374Y-114426470D01*
X143375497Y-114536936D01*
X143489487Y-114576068D01*
X143595015Y-114612297D01*
X143595017Y-114612297D01*
X143595019Y-114612298D01*
X143823951Y-114650500D01*
X143823952Y-114650500D01*
X144056048Y-114650500D01*
X144056049Y-114650500D01*
X144284981Y-114612298D01*
X144504503Y-114536936D01*
X144708626Y-114426470D01*
X144891784Y-114283913D01*
X145048979Y-114113153D01*
X145106191Y-114025582D01*
X145159337Y-113980226D01*
X145228568Y-113970802D01*
X145291904Y-114000304D01*
X145313809Y-114025583D01*
X145371016Y-114113147D01*
X145371019Y-114113151D01*
X145371021Y-114113153D01*
X145528216Y-114283913D01*
X145528219Y-114283915D01*
X145528222Y-114283918D01*
X145711365Y-114426464D01*
X145711371Y-114426468D01*
X145711374Y-114426470D01*
X145915497Y-114536936D01*
X146029487Y-114576068D01*
X146135015Y-114612297D01*
X146135017Y-114612297D01*
X146135019Y-114612298D01*
X146363951Y-114650500D01*
X146363952Y-114650500D01*
X146596048Y-114650500D01*
X146596049Y-114650500D01*
X146824981Y-114612298D01*
X147044503Y-114536936D01*
X147248626Y-114426470D01*
X147431784Y-114283913D01*
X147588979Y-114113153D01*
X147646191Y-114025582D01*
X147699337Y-113980226D01*
X147768568Y-113970802D01*
X147831904Y-114000304D01*
X147853809Y-114025583D01*
X147911016Y-114113147D01*
X147911019Y-114113151D01*
X147911021Y-114113153D01*
X148068216Y-114283913D01*
X148068219Y-114283915D01*
X148068222Y-114283918D01*
X148251365Y-114426464D01*
X148251371Y-114426468D01*
X148251374Y-114426470D01*
X148455497Y-114536936D01*
X148569487Y-114576068D01*
X148675015Y-114612297D01*
X148675017Y-114612297D01*
X148675019Y-114612298D01*
X148903951Y-114650500D01*
X148903952Y-114650500D01*
X149136048Y-114650500D01*
X149136049Y-114650500D01*
X149364981Y-114612298D01*
X149584503Y-114536936D01*
X149788626Y-114426470D01*
X149971784Y-114283913D01*
X149980130Y-114274846D01*
X150040010Y-114238854D01*
X150109849Y-114240949D01*
X150167468Y-114280469D01*
X150187544Y-114315491D01*
X150216203Y-114392330D01*
X150216206Y-114392335D01*
X150302452Y-114507544D01*
X150302455Y-114507547D01*
X150417664Y-114593793D01*
X150417671Y-114593797D01*
X150552517Y-114644091D01*
X150552516Y-114644091D01*
X150559444Y-114644835D01*
X150612127Y-114650500D01*
X152507872Y-114650499D01*
X152567483Y-114644091D01*
X152702331Y-114593796D01*
X152817546Y-114507546D01*
X152903796Y-114392331D01*
X152954091Y-114257483D01*
X152960500Y-114197873D01*
X152960499Y-112302128D01*
X152954091Y-112242517D01*
X152950503Y-112232898D01*
X152903797Y-112107671D01*
X152903793Y-112107664D01*
X152817547Y-111992455D01*
X152817544Y-111992452D01*
X152702335Y-111906206D01*
X152702328Y-111906202D01*
X152567482Y-111855908D01*
X152567483Y-111855908D01*
X152507883Y-111849501D01*
X152507881Y-111849500D01*
X152507873Y-111849500D01*
X152507864Y-111849500D01*
X150612129Y-111849500D01*
X150612123Y-111849501D01*
X150552516Y-111855908D01*
X150417671Y-111906202D01*
X150417664Y-111906206D01*
X150302455Y-111992452D01*
X150302452Y-111992455D01*
X150216206Y-112107664D01*
X150216203Y-112107670D01*
X150187544Y-112184508D01*
X150145672Y-112240441D01*
X150080208Y-112264858D01*
X150011935Y-112250006D01*
X149980135Y-112225158D01*
X149971784Y-112216087D01*
X149971778Y-112216082D01*
X149971777Y-112216081D01*
X149788634Y-112073535D01*
X149788628Y-112073531D01*
X149584504Y-111963064D01*
X149584495Y-111963061D01*
X149364984Y-111887702D01*
X149174450Y-111855908D01*
X149136049Y-111849500D01*
X148903951Y-111849500D01*
X148865550Y-111855908D01*
X148675015Y-111887702D01*
X148455504Y-111963061D01*
X148455495Y-111963064D01*
X148251371Y-112073531D01*
X148251365Y-112073535D01*
X148068222Y-112216081D01*
X148068219Y-112216084D01*
X148068216Y-112216086D01*
X148068216Y-112216087D01*
X148023319Y-112264858D01*
X147911016Y-112386852D01*
X147853809Y-112474416D01*
X147800662Y-112519773D01*
X147731431Y-112529197D01*
X147668095Y-112499695D01*
X147646191Y-112474416D01*
X147588983Y-112386852D01*
X147588980Y-112386849D01*
X147588979Y-112386847D01*
X147431784Y-112216087D01*
X147431779Y-112216083D01*
X147431777Y-112216081D01*
X147248634Y-112073535D01*
X147248628Y-112073531D01*
X147044504Y-111963064D01*
X147044495Y-111963061D01*
X146824984Y-111887702D01*
X146634450Y-111855908D01*
X146596049Y-111849500D01*
X146363951Y-111849500D01*
X146325550Y-111855908D01*
X146135015Y-111887702D01*
X145915504Y-111963061D01*
X145915495Y-111963064D01*
X145711371Y-112073531D01*
X145711365Y-112073535D01*
X145528222Y-112216081D01*
X145528219Y-112216084D01*
X145528216Y-112216086D01*
X145528216Y-112216087D01*
X145483319Y-112264858D01*
X145371016Y-112386852D01*
X145313809Y-112474416D01*
X145260662Y-112519773D01*
X145191431Y-112529197D01*
X145128095Y-112499695D01*
X145106191Y-112474416D01*
X145048983Y-112386852D01*
X145048980Y-112386849D01*
X145048979Y-112386847D01*
X144891784Y-112216087D01*
X144891779Y-112216083D01*
X144891777Y-112216081D01*
X144708634Y-112073535D01*
X144708628Y-112073531D01*
X144504504Y-111963064D01*
X144504495Y-111963061D01*
X144284984Y-111887702D01*
X144094450Y-111855908D01*
X144056049Y-111849500D01*
X143823951Y-111849500D01*
X143785550Y-111855908D01*
X143595015Y-111887702D01*
X143375504Y-111963061D01*
X143375495Y-111963064D01*
X143171371Y-112073531D01*
X143171365Y-112073535D01*
X142988222Y-112216081D01*
X142988219Y-112216084D01*
X142988216Y-112216086D01*
X142988216Y-112216087D01*
X142943319Y-112264858D01*
X142831016Y-112386852D01*
X142704075Y-112581151D01*
X142610842Y-112793699D01*
X142553866Y-113018691D01*
X142553864Y-113018702D01*
X142534700Y-113249993D01*
X142534700Y-113250006D01*
X141050500Y-113250006D01*
X141050499Y-111902128D01*
X141044091Y-111842517D01*
X141042542Y-111838365D01*
X140993797Y-111707671D01*
X140993793Y-111707664D01*
X140907547Y-111592455D01*
X140907544Y-111592452D01*
X140792335Y-111506206D01*
X140792328Y-111506202D01*
X140657482Y-111455908D01*
X140657483Y-111455908D01*
X140597883Y-111449501D01*
X140597881Y-111449500D01*
X140597873Y-111449500D01*
X140597864Y-111449500D01*
X137902129Y-111449500D01*
X137902123Y-111449501D01*
X137842516Y-111455908D01*
X137707671Y-111506202D01*
X137707664Y-111506206D01*
X137592455Y-111592452D01*
X137592452Y-111592455D01*
X137506206Y-111707664D01*
X137506202Y-111707671D01*
X137455908Y-111842517D01*
X137451051Y-111887702D01*
X137449501Y-111902123D01*
X137449500Y-111902135D01*
X137449500Y-114597870D01*
X135364463Y-114597870D01*
X135449259Y-114519190D01*
X135493557Y-114478089D01*
X135493557Y-114478087D01*
X135493561Y-114478085D01*
X135661815Y-114267102D01*
X135796743Y-114033398D01*
X135895334Y-113782195D01*
X135955383Y-113519103D01*
X135975549Y-113250000D01*
X135975548Y-113249993D01*
X135958216Y-113018702D01*
X135955383Y-112980897D01*
X135895334Y-112717805D01*
X135796743Y-112466602D01*
X135661815Y-112232898D01*
X135493561Y-112021915D01*
X135493560Y-112021914D01*
X135493557Y-112021910D01*
X135295741Y-111838365D01*
X135072775Y-111686349D01*
X135072769Y-111686346D01*
X135072768Y-111686345D01*
X135072767Y-111686344D01*
X134829643Y-111569263D01*
X134829645Y-111569263D01*
X134571773Y-111489720D01*
X134571767Y-111489718D01*
X134304936Y-111449500D01*
X134304929Y-111449500D01*
X134035071Y-111449500D01*
X134035063Y-111449500D01*
X133768232Y-111489718D01*
X133768226Y-111489720D01*
X133510358Y-111569262D01*
X133267230Y-111686346D01*
X133044258Y-111838365D01*
X132846442Y-112021910D01*
X132678185Y-112232898D01*
X132543258Y-112466599D01*
X132543256Y-112466603D01*
X132444666Y-112717804D01*
X132444664Y-112717811D01*
X132384616Y-112980898D01*
X132364451Y-113249995D01*
X132364451Y-113250004D01*
X128401285Y-113250004D01*
X128393561Y-113127234D01*
X128352220Y-113000000D01*
X129550000Y-113000000D01*
X129550000Y-111902172D01*
X129549999Y-111902155D01*
X129543598Y-111842627D01*
X129543596Y-111842620D01*
X129493354Y-111707913D01*
X129493350Y-111707906D01*
X129407190Y-111592812D01*
X129407187Y-111592809D01*
X129292093Y-111506649D01*
X129292086Y-111506645D01*
X129157379Y-111456403D01*
X129157372Y-111456401D01*
X129097844Y-111450000D01*
X128000000Y-111450000D01*
X128000000Y-112645689D01*
X127991183Y-112640842D01*
X127832114Y-112600000D01*
X127709106Y-112600000D01*
X127587067Y-112615417D01*
X127500000Y-112649889D01*
X127500000Y-111450000D01*
X126402155Y-111450000D01*
X126342627Y-111456401D01*
X126342620Y-111456403D01*
X126207913Y-111506645D01*
X126207906Y-111506649D01*
X126092812Y-111592809D01*
X126092809Y-111592812D01*
X126006649Y-111707906D01*
X126006645Y-111707913D01*
X125956403Y-111842620D01*
X125956401Y-111842627D01*
X125950000Y-111902155D01*
X125950000Y-113000000D01*
X127149272Y-113000000D01*
X127126900Y-113047543D01*
X127096127Y-113208862D01*
X127106439Y-113372766D01*
X127147780Y-113500000D01*
X125950000Y-113500000D01*
X125950000Y-114597844D01*
X123864491Y-114597844D01*
X123949259Y-114519190D01*
X123993557Y-114478089D01*
X123993557Y-114478087D01*
X123993561Y-114478085D01*
X124161815Y-114267102D01*
X124296743Y-114033398D01*
X124395334Y-113782195D01*
X124455383Y-113519103D01*
X124475549Y-113250000D01*
X124475548Y-113249993D01*
X124458216Y-113018702D01*
X124455383Y-112980897D01*
X124395334Y-112717805D01*
X124296743Y-112466602D01*
X124161815Y-112232898D01*
X123993561Y-112021915D01*
X123993560Y-112021914D01*
X123993557Y-112021910D01*
X123795741Y-111838365D01*
X123572775Y-111686349D01*
X123572769Y-111686346D01*
X123572768Y-111686345D01*
X123572767Y-111686344D01*
X123329643Y-111569263D01*
X123329645Y-111569263D01*
X123071773Y-111489720D01*
X123071767Y-111489718D01*
X122804936Y-111449500D01*
X122804929Y-111449500D01*
X122535071Y-111449500D01*
X122535063Y-111449500D01*
X122268232Y-111489718D01*
X122268226Y-111489720D01*
X122010358Y-111569262D01*
X121767230Y-111686346D01*
X121544258Y-111838365D01*
X121346442Y-112021910D01*
X121178185Y-112232898D01*
X121043258Y-112466599D01*
X121043256Y-112466603D01*
X120944666Y-112717804D01*
X120944664Y-112717811D01*
X120884616Y-112980898D01*
X120864451Y-113249995D01*
X120864451Y-113250004D01*
X113000000Y-113250004D01*
X113000000Y-106680000D01*
X133082985Y-106680000D01*
X133101802Y-106883082D01*
X133157617Y-107079247D01*
X133157622Y-107079260D01*
X133248527Y-107261821D01*
X133371437Y-107424581D01*
X133522158Y-107561980D01*
X133522160Y-107561982D01*
X133552682Y-107580880D01*
X133695563Y-107669348D01*
X133780648Y-107702309D01*
X133823534Y-107730255D01*
X136239842Y-110146563D01*
X136240901Y-110147650D01*
X136301737Y-110211650D01*
X136301741Y-110211653D01*
X136352081Y-110246692D01*
X136355843Y-110249528D01*
X136403387Y-110288294D01*
X136403390Y-110288295D01*
X136403393Y-110288298D01*
X136433845Y-110304204D01*
X136440558Y-110308272D01*
X136468751Y-110327895D01*
X136525129Y-110352089D01*
X136529378Y-110354107D01*
X136583751Y-110382509D01*
X136611289Y-110390388D01*
X136616774Y-110391958D01*
X136624168Y-110394590D01*
X136655742Y-110408140D01*
X136655745Y-110408140D01*
X136655746Y-110408141D01*
X136715822Y-110420487D01*
X136720400Y-110421610D01*
X136734301Y-110425587D01*
X136779382Y-110438487D01*
X136813639Y-110441095D01*
X136821414Y-110442186D01*
X136855055Y-110449100D01*
X136855059Y-110449100D01*
X136916399Y-110449100D01*
X136921105Y-110449278D01*
X136955863Y-110451925D01*
X136982276Y-110453937D01*
X136982276Y-110453936D01*
X136982277Y-110453937D01*
X137016360Y-110449596D01*
X137024190Y-110449100D01*
X153640169Y-110449100D01*
X153684963Y-110457473D01*
X153824744Y-110511624D01*
X154025224Y-110549100D01*
X154025226Y-110549100D01*
X154229174Y-110549100D01*
X154229176Y-110549100D01*
X154429656Y-110511624D01*
X154619837Y-110437948D01*
X154793241Y-110330581D01*
X154939333Y-110197401D01*
X168370746Y-110197401D01*
X168380745Y-110407327D01*
X168430296Y-110611578D01*
X168430298Y-110611582D01*
X168517598Y-110802743D01*
X168517601Y-110802748D01*
X168517602Y-110802750D01*
X168517604Y-110802753D01*
X168580627Y-110891256D01*
X168639515Y-110973953D01*
X168639520Y-110973959D01*
X168791620Y-111118985D01*
X168886578Y-111180011D01*
X168968428Y-111232613D01*
X169163543Y-111310725D01*
X169266728Y-111330612D01*
X169369914Y-111350500D01*
X169369915Y-111350500D01*
X170077419Y-111350500D01*
X170077425Y-111350500D01*
X170234218Y-111335528D01*
X170435875Y-111276316D01*
X170622682Y-111180011D01*
X170787886Y-111050092D01*
X170925519Y-110891256D01*
X171030604Y-110709244D01*
X171099344Y-110510633D01*
X171129254Y-110302602D01*
X171119254Y-110092670D01*
X171069704Y-109888424D01*
X171051179Y-109847860D01*
X170982401Y-109697256D01*
X170982398Y-109697251D01*
X170982397Y-109697250D01*
X170982396Y-109697247D01*
X170860486Y-109526048D01*
X170860484Y-109526046D01*
X170757543Y-109427892D01*
X170722608Y-109367383D01*
X170725933Y-109297593D01*
X170766461Y-109240678D01*
X170778017Y-109232610D01*
X170843343Y-109192317D01*
X170967315Y-109068345D01*
X171059356Y-108919124D01*
X171059358Y-108919119D01*
X171114505Y-108752697D01*
X171114506Y-108752690D01*
X171124999Y-108649986D01*
X171125000Y-108649973D01*
X171125000Y-108500000D01*
X170029560Y-108500000D01*
X170068278Y-108457941D01*
X170118551Y-108343330D01*
X170128886Y-108218605D01*
X170098163Y-108097281D01*
X170034606Y-108000000D01*
X171124999Y-108000000D01*
X171124999Y-107850028D01*
X171124998Y-107850013D01*
X171114505Y-107747302D01*
X171059358Y-107580880D01*
X171059356Y-107580875D01*
X170967315Y-107431654D01*
X170843345Y-107307684D01*
X170694124Y-107215643D01*
X170694119Y-107215641D01*
X170527697Y-107160494D01*
X170527690Y-107160493D01*
X170424986Y-107150000D01*
X170000000Y-107150000D01*
X170000000Y-107969382D01*
X169930948Y-107915637D01*
X169812576Y-107875000D01*
X169718927Y-107875000D01*
X169626554Y-107890414D01*
X169516486Y-107949981D01*
X169499999Y-107967889D01*
X169499999Y-107150000D01*
X169075028Y-107150000D01*
X169075012Y-107150001D01*
X168972302Y-107160494D01*
X168805880Y-107215641D01*
X168805875Y-107215643D01*
X168656654Y-107307684D01*
X168532684Y-107431654D01*
X168440643Y-107580875D01*
X168440641Y-107580880D01*
X168385494Y-107747302D01*
X168385493Y-107747309D01*
X168375000Y-107850013D01*
X168375000Y-108000000D01*
X169470440Y-108000000D01*
X169431722Y-108042059D01*
X169381449Y-108156670D01*
X169371114Y-108281395D01*
X169401837Y-108402719D01*
X169465394Y-108500000D01*
X168375001Y-108500000D01*
X168375001Y-108649986D01*
X168385494Y-108752697D01*
X168440641Y-108919119D01*
X168440643Y-108919124D01*
X168532684Y-109068345D01*
X168656654Y-109192315D01*
X168720158Y-109231485D01*
X168766882Y-109283433D01*
X168778105Y-109352396D01*
X168750261Y-109416478D01*
X168731715Y-109434493D01*
X168712113Y-109449908D01*
X168712112Y-109449909D01*
X168574478Y-109608746D01*
X168469398Y-109790750D01*
X168400656Y-109989365D01*
X168400656Y-109989367D01*
X168371353Y-110193181D01*
X168370746Y-110197401D01*
X154939333Y-110197401D01*
X154943964Y-110193179D01*
X155066873Y-110030421D01*
X155157782Y-109847850D01*
X155213597Y-109651683D01*
X155232415Y-109448600D01*
X155213597Y-109245517D01*
X155157782Y-109049350D01*
X155066873Y-108866779D01*
X154943964Y-108704021D01*
X154943962Y-108704018D01*
X154793241Y-108566619D01*
X154793239Y-108566617D01*
X154619842Y-108459255D01*
X154619835Y-108459251D01*
X154473907Y-108402719D01*
X154429656Y-108385576D01*
X154229176Y-108348100D01*
X154025224Y-108348100D01*
X153824744Y-108385576D01*
X153824741Y-108385576D01*
X153824741Y-108385577D01*
X153684963Y-108439727D01*
X153640169Y-108448100D01*
X137422582Y-108448100D01*
X137355543Y-108428415D01*
X137334901Y-108411781D01*
X135246709Y-106323589D01*
X135221942Y-106285580D01*
X135221338Y-106285882D01*
X135127874Y-106098180D01*
X135004962Y-105935418D01*
X134854241Y-105798019D01*
X134854239Y-105798017D01*
X134680842Y-105690655D01*
X134680835Y-105690651D01*
X134585746Y-105653814D01*
X134490656Y-105616976D01*
X134290176Y-105579500D01*
X134086224Y-105579500D01*
X133885744Y-105616976D01*
X133885741Y-105616976D01*
X133885741Y-105616977D01*
X133695564Y-105690651D01*
X133695557Y-105690655D01*
X133522160Y-105798017D01*
X133522158Y-105798019D01*
X133371437Y-105935418D01*
X133248527Y-106098178D01*
X133157622Y-106280739D01*
X133157617Y-106280752D01*
X133101802Y-106476917D01*
X133082985Y-106679999D01*
X133082985Y-106680000D01*
X113000000Y-106680000D01*
X113000000Y-102250004D01*
X116644732Y-102250004D01*
X116663777Y-102504154D01*
X116663778Y-102504157D01*
X116720492Y-102752637D01*
X116813607Y-102989888D01*
X116941041Y-103210612D01*
X117099950Y-103409877D01*
X117286783Y-103583232D01*
X117497366Y-103726805D01*
X117497371Y-103726807D01*
X117497372Y-103726808D01*
X117497373Y-103726809D01*
X117558812Y-103756396D01*
X117726992Y-103837387D01*
X117726993Y-103837387D01*
X117726996Y-103837389D01*
X117970542Y-103912513D01*
X118222565Y-103950500D01*
X118477435Y-103950500D01*
X118729458Y-103912513D01*
X118973004Y-103837389D01*
X119202634Y-103726805D01*
X119413217Y-103583232D01*
X119600050Y-103409877D01*
X119758959Y-103210612D01*
X119886393Y-102989888D01*
X119979508Y-102752637D01*
X120036222Y-102504157D01*
X120055268Y-102250004D01*
X139044732Y-102250004D01*
X139063777Y-102504154D01*
X139063778Y-102504157D01*
X139120492Y-102752637D01*
X139213607Y-102989888D01*
X139341041Y-103210612D01*
X139499950Y-103409877D01*
X139686783Y-103583232D01*
X139897366Y-103726805D01*
X139897371Y-103726807D01*
X139897372Y-103726808D01*
X139897373Y-103726809D01*
X139958812Y-103756396D01*
X140126992Y-103837387D01*
X140126993Y-103837387D01*
X140126996Y-103837389D01*
X140370542Y-103912513D01*
X140622565Y-103950500D01*
X140877435Y-103950500D01*
X141129458Y-103912513D01*
X141373004Y-103837389D01*
X141602634Y-103726805D01*
X141813217Y-103583232D01*
X142000050Y-103409877D01*
X142079186Y-103310644D01*
X168449000Y-103310644D01*
X168455401Y-103370172D01*
X168455403Y-103370179D01*
X168505645Y-103504886D01*
X168505649Y-103504893D01*
X168591809Y-103619987D01*
X168591812Y-103619990D01*
X168706906Y-103706150D01*
X168706913Y-103706154D01*
X168841620Y-103756396D01*
X168841627Y-103756398D01*
X168901155Y-103762799D01*
X168901172Y-103762800D01*
X169549000Y-103762800D01*
X169549000Y-102848301D01*
X169656685Y-102897480D01*
X169763237Y-102912800D01*
X169834763Y-102912800D01*
X169941315Y-102897480D01*
X170049000Y-102848301D01*
X170049000Y-103762800D01*
X170696828Y-103762800D01*
X170696844Y-103762799D01*
X170756372Y-103756398D01*
X170756379Y-103756396D01*
X170891086Y-103706154D01*
X170891093Y-103706150D01*
X171006187Y-103619990D01*
X171006190Y-103619987D01*
X171092350Y-103504893D01*
X171092354Y-103504886D01*
X171142596Y-103370179D01*
X171142598Y-103370172D01*
X171148999Y-103310644D01*
X171149000Y-103310627D01*
X171149000Y-102662800D01*
X170232686Y-102662800D01*
X170258493Y-102622644D01*
X170299000Y-102484689D01*
X170299000Y-102340911D01*
X170258493Y-102202956D01*
X170232686Y-102162800D01*
X171149000Y-102162800D01*
X171149000Y-101514972D01*
X171148999Y-101514955D01*
X171142598Y-101455427D01*
X171142596Y-101455420D01*
X171092354Y-101320713D01*
X171092350Y-101320706D01*
X171006190Y-101205612D01*
X171006187Y-101205609D01*
X170891093Y-101119449D01*
X170891086Y-101119445D01*
X170756379Y-101069203D01*
X170756372Y-101069201D01*
X170696844Y-101062800D01*
X170049000Y-101062800D01*
X170049000Y-101977298D01*
X169941315Y-101928120D01*
X169834763Y-101912800D01*
X169763237Y-101912800D01*
X169656685Y-101928120D01*
X169549000Y-101977298D01*
X169549000Y-101062800D01*
X168901155Y-101062800D01*
X168841627Y-101069201D01*
X168841620Y-101069203D01*
X168706913Y-101119445D01*
X168706906Y-101119449D01*
X168591812Y-101205609D01*
X168591809Y-101205612D01*
X168505649Y-101320706D01*
X168505645Y-101320713D01*
X168455403Y-101455420D01*
X168455401Y-101455427D01*
X168449000Y-101514955D01*
X168449000Y-102162800D01*
X169365314Y-102162800D01*
X169339507Y-102202956D01*
X169299000Y-102340911D01*
X169299000Y-102484689D01*
X169339507Y-102622644D01*
X169365314Y-102662800D01*
X168449000Y-102662800D01*
X168449000Y-103310644D01*
X142079186Y-103310644D01*
X142158959Y-103210612D01*
X142286393Y-102989888D01*
X142379508Y-102752637D01*
X142436222Y-102504157D01*
X142455268Y-102250000D01*
X142448733Y-102162800D01*
X142436222Y-101995845D01*
X142420764Y-101928120D01*
X142379508Y-101747363D01*
X142286393Y-101510112D01*
X142158959Y-101289388D01*
X142046102Y-101147870D01*
X154149500Y-101147870D01*
X154149501Y-101147876D01*
X154155908Y-101207483D01*
X154206202Y-101342328D01*
X154206206Y-101342335D01*
X154292452Y-101457544D01*
X154292455Y-101457547D01*
X154407664Y-101543793D01*
X154407671Y-101543797D01*
X154542517Y-101594091D01*
X154542516Y-101594091D01*
X154549444Y-101594835D01*
X154602127Y-101600500D01*
X156397872Y-101600499D01*
X156457483Y-101594091D01*
X156592331Y-101543796D01*
X156707546Y-101457546D01*
X156793796Y-101342331D01*
X156844091Y-101207483D01*
X156850500Y-101147873D01*
X156850499Y-99352128D01*
X156844091Y-99292517D01*
X156814464Y-99213084D01*
X156793797Y-99157671D01*
X156793793Y-99157664D01*
X156707547Y-99042455D01*
X156707544Y-99042452D01*
X156592335Y-98956206D01*
X156592328Y-98956202D01*
X156457482Y-98905908D01*
X156457483Y-98905908D01*
X156397883Y-98899501D01*
X156397881Y-98899500D01*
X156397873Y-98899500D01*
X156397864Y-98899500D01*
X154602129Y-98899500D01*
X154602123Y-98899501D01*
X154542516Y-98905908D01*
X154407671Y-98956202D01*
X154407664Y-98956206D01*
X154292455Y-99042452D01*
X154292452Y-99042455D01*
X154206206Y-99157664D01*
X154206202Y-99157671D01*
X154155908Y-99292517D01*
X154152795Y-99321476D01*
X154149501Y-99352123D01*
X154149500Y-99352135D01*
X154149500Y-101147870D01*
X142046102Y-101147870D01*
X142000050Y-101090123D01*
X141813217Y-100916768D01*
X141602634Y-100773195D01*
X141602630Y-100773193D01*
X141602627Y-100773191D01*
X141602626Y-100773190D01*
X141373006Y-100662612D01*
X141373008Y-100662612D01*
X141129466Y-100587489D01*
X141129462Y-100587488D01*
X141129458Y-100587487D01*
X141008231Y-100569214D01*
X140877440Y-100549500D01*
X140877435Y-100549500D01*
X140622565Y-100549500D01*
X140622559Y-100549500D01*
X140477277Y-100571399D01*
X140370542Y-100587487D01*
X140370538Y-100587488D01*
X140370539Y-100587488D01*
X140370533Y-100587489D01*
X140126992Y-100662612D01*
X139897373Y-100773190D01*
X139897372Y-100773191D01*
X139686782Y-100916768D01*
X139499952Y-101090121D01*
X139499950Y-101090123D01*
X139341041Y-101289388D01*
X139213608Y-101510109D01*
X139120492Y-101747362D01*
X139120490Y-101747369D01*
X139063777Y-101995845D01*
X139044732Y-102249995D01*
X139044732Y-102250004D01*
X120055268Y-102250004D01*
X120055268Y-102250000D01*
X120048733Y-102162800D01*
X120036222Y-101995845D01*
X120020764Y-101928120D01*
X119979508Y-101747363D01*
X119886393Y-101510112D01*
X119758959Y-101289388D01*
X119600050Y-101090123D01*
X119413217Y-100916768D01*
X119202634Y-100773195D01*
X119202630Y-100773193D01*
X119202627Y-100773191D01*
X119202626Y-100773190D01*
X118973006Y-100662612D01*
X118973008Y-100662612D01*
X118729466Y-100587489D01*
X118729462Y-100587488D01*
X118729458Y-100587487D01*
X118608231Y-100569214D01*
X118477440Y-100549500D01*
X118477435Y-100549500D01*
X118222565Y-100549500D01*
X118222559Y-100549500D01*
X118077277Y-100571399D01*
X117970542Y-100587487D01*
X117970538Y-100587488D01*
X117970539Y-100587488D01*
X117970533Y-100587489D01*
X117726992Y-100662612D01*
X117497373Y-100773190D01*
X117497372Y-100773191D01*
X117286782Y-100916768D01*
X117099952Y-101090121D01*
X117099950Y-101090123D01*
X116941041Y-101289388D01*
X116813608Y-101510109D01*
X116720492Y-101747362D01*
X116720490Y-101747369D01*
X116663777Y-101995845D01*
X116644732Y-102249995D01*
X116644732Y-102250004D01*
X113000000Y-102250004D01*
X113000000Y-98350000D01*
X145494671Y-98350000D01*
X145496835Y-98383027D01*
X145496933Y-98389155D01*
X145495723Y-98425367D01*
X145495723Y-98425377D01*
X145506772Y-98535210D01*
X145506951Y-98537360D01*
X145513965Y-98644376D01*
X145513966Y-98644389D01*
X145521050Y-98680003D01*
X145521930Y-98685891D01*
X145525882Y-98725164D01*
X145550727Y-98829421D01*
X145551225Y-98831698D01*
X145571516Y-98933711D01*
X145571518Y-98933719D01*
X145584230Y-98971171D01*
X145585831Y-98976727D01*
X145595729Y-99018255D01*
X145595730Y-99018258D01*
X145595731Y-99018261D01*
X145606410Y-99045989D01*
X145633094Y-99115273D01*
X145633940Y-99117609D01*
X145666348Y-99213077D01*
X145678294Y-99237301D01*
X145685263Y-99251433D01*
X145687515Y-99256573D01*
X145704019Y-99299428D01*
X145704023Y-99299436D01*
X145732893Y-99352116D01*
X145752441Y-99387789D01*
X145753665Y-99390141D01*
X145796822Y-99477655D01*
X145796833Y-99477673D01*
X145822380Y-99515907D01*
X145825199Y-99520557D01*
X145848822Y-99563659D01*
X145848829Y-99563671D01*
X145906671Y-99642175D01*
X145908308Y-99644507D01*
X145949366Y-99705955D01*
X145960727Y-99722957D01*
X145993182Y-99759965D01*
X145996482Y-99764068D01*
X146027551Y-99806235D01*
X146093114Y-99874028D01*
X146095160Y-99876249D01*
X146155242Y-99944758D01*
X146190025Y-99975262D01*
X146194670Y-99979336D01*
X146198358Y-99982849D01*
X146237018Y-100022822D01*
X146237020Y-100022824D01*
X146246934Y-100030653D01*
X146308495Y-100079267D01*
X146310950Y-100081311D01*
X146377040Y-100139270D01*
X146377040Y-100139271D01*
X146423336Y-100170205D01*
X146427307Y-100173092D01*
X146473484Y-100209558D01*
X146473485Y-100209558D01*
X146549059Y-100254320D01*
X146551897Y-100256106D01*
X146603622Y-100290668D01*
X146622338Y-100303174D01*
X146639190Y-100311484D01*
X146675187Y-100329236D01*
X146679318Y-100331473D01*
X146713458Y-100351694D01*
X146732717Y-100363102D01*
X146732722Y-100363104D01*
X146732730Y-100363109D01*
X146810665Y-100396156D01*
X146813826Y-100397604D01*
X146886923Y-100433652D01*
X146945759Y-100453624D01*
X146950014Y-100455245D01*
X147010128Y-100480736D01*
X147088640Y-100502242D01*
X147092160Y-100503320D01*
X147166278Y-100528481D01*
X147224967Y-100540154D01*
X147230384Y-100541232D01*
X147234658Y-100542241D01*
X147300729Y-100560340D01*
X147378224Y-100570761D01*
X147382037Y-100571397D01*
X147455620Y-100586034D01*
X147524067Y-100590519D01*
X147528246Y-100590937D01*
X147599347Y-100600500D01*
X147674302Y-100600500D01*
X147678349Y-100600632D01*
X147710372Y-100602731D01*
X147749994Y-100605329D01*
X147750000Y-100605329D01*
X147750004Y-100605329D01*
X147759771Y-100604688D01*
X147821141Y-100600666D01*
X147823032Y-100600573D01*
X147825218Y-100600500D01*
X147825244Y-100600500D01*
X147898670Y-100595584D01*
X147898845Y-100595623D01*
X147898842Y-100595574D01*
X147991347Y-100589509D01*
X148044380Y-100586034D01*
X148044411Y-100586027D01*
X148045522Y-100585882D01*
X148049478Y-100585489D01*
X148050634Y-100585412D01*
X148193658Y-100556341D01*
X148333722Y-100528481D01*
X148334442Y-100528236D01*
X148342018Y-100526185D01*
X148345903Y-100525396D01*
X148480821Y-100478547D01*
X148613077Y-100433652D01*
X148616687Y-100431871D01*
X148623754Y-100428914D01*
X148630537Y-100426560D01*
X148755220Y-100363554D01*
X148877665Y-100303172D01*
X148883700Y-100299138D01*
X148890164Y-100295364D01*
X148899459Y-100290668D01*
X149012040Y-100213385D01*
X149122957Y-100139273D01*
X149130840Y-100132358D01*
X149136622Y-100127863D01*
X149147869Y-100120144D01*
X149246824Y-100030643D01*
X149344758Y-99944758D01*
X149353799Y-99934446D01*
X149358823Y-99929345D01*
X149371333Y-99918032D01*
X149455443Y-99818545D01*
X149539273Y-99722957D01*
X149548687Y-99708866D01*
X149552895Y-99703279D01*
X149565863Y-99687941D01*
X149565865Y-99687939D01*
X149633941Y-99581298D01*
X149634592Y-99580301D01*
X149703172Y-99477665D01*
X149712098Y-99459562D01*
X149715441Y-99453631D01*
X149727993Y-99433970D01*
X149779920Y-99322067D01*
X149780527Y-99320802D01*
X149794477Y-99292516D01*
X149833652Y-99213077D01*
X149841179Y-99190899D01*
X149843641Y-99184752D01*
X149854823Y-99160658D01*
X149890417Y-99045909D01*
X149890858Y-99044551D01*
X149928481Y-98933722D01*
X149933677Y-98907597D01*
X149935271Y-98901316D01*
X149935834Y-98899500D01*
X149944093Y-98872879D01*
X149963534Y-98757623D01*
X149963847Y-98755921D01*
X149986034Y-98644380D01*
X149987986Y-98614576D01*
X149988714Y-98608342D01*
X149994209Y-98575770D01*
X149998006Y-98462169D01*
X149998104Y-98460218D01*
X150005329Y-98350005D01*
X150005329Y-98350001D01*
X150005329Y-98350000D01*
X150003162Y-98316955D01*
X150003065Y-98310849D01*
X150003198Y-98306872D01*
X150003198Y-98306870D01*
X168397700Y-98306870D01*
X168397701Y-98306876D01*
X168404108Y-98366483D01*
X168454402Y-98501328D01*
X168454406Y-98501335D01*
X168540652Y-98616544D01*
X168540655Y-98616547D01*
X168655864Y-98702793D01*
X168655871Y-98702797D01*
X168790717Y-98753091D01*
X168790716Y-98753091D01*
X168797644Y-98753835D01*
X168850327Y-98759500D01*
X170646072Y-98759499D01*
X170705683Y-98753091D01*
X170840531Y-98702796D01*
X170955746Y-98616546D01*
X171041996Y-98501331D01*
X171092291Y-98366483D01*
X171098700Y-98306873D01*
X171098699Y-96511128D01*
X171092291Y-96451517D01*
X171089793Y-96444820D01*
X171041997Y-96316671D01*
X171041993Y-96316664D01*
X170955747Y-96201455D01*
X170955744Y-96201452D01*
X170840535Y-96115206D01*
X170840528Y-96115202D01*
X170705682Y-96064908D01*
X170705683Y-96064908D01*
X170646083Y-96058501D01*
X170646081Y-96058500D01*
X170646073Y-96058500D01*
X170646064Y-96058500D01*
X168850329Y-96058500D01*
X168850323Y-96058501D01*
X168790716Y-96064908D01*
X168655871Y-96115202D01*
X168655864Y-96115206D01*
X168540655Y-96201452D01*
X168540652Y-96201455D01*
X168454406Y-96316664D01*
X168454402Y-96316671D01*
X168404108Y-96451517D01*
X168397701Y-96511116D01*
X168397701Y-96511123D01*
X168397700Y-96511135D01*
X168397700Y-98306870D01*
X150003198Y-98306870D01*
X150004277Y-98274631D01*
X149993228Y-98164808D01*
X149993050Y-98162661D01*
X149986035Y-98055632D01*
X149986034Y-98055623D01*
X149986034Y-98055620D01*
X149978944Y-98019977D01*
X149978068Y-98014107D01*
X149974118Y-97974841D01*
X149974118Y-97974838D01*
X149949265Y-97870555D01*
X149948777Y-97868319D01*
X149928481Y-97766278D01*
X149915764Y-97728816D01*
X149914169Y-97723283D01*
X149904269Y-97681739D01*
X149866899Y-97584709D01*
X149866057Y-97582385D01*
X149862526Y-97571982D01*
X149833652Y-97486923D01*
X149814732Y-97448556D01*
X149812485Y-97443429D01*
X149795977Y-97400566D01*
X149747555Y-97312207D01*
X149746334Y-97309862D01*
X149703172Y-97222336D01*
X149677604Y-97184070D01*
X149674794Y-97179435D01*
X149651176Y-97136337D01*
X149651175Y-97136335D01*
X149593312Y-97057802D01*
X149591706Y-97055514D01*
X149539273Y-96977043D01*
X149506817Y-96940033D01*
X149503516Y-96935930D01*
X149472450Y-96893768D01*
X149472446Y-96893762D01*
X149452801Y-96873449D01*
X149406884Y-96825970D01*
X149404838Y-96823749D01*
X149344760Y-96755244D01*
X149305322Y-96720656D01*
X149301635Y-96717144D01*
X149262981Y-96677176D01*
X149191514Y-96620740D01*
X149189059Y-96618696D01*
X149122960Y-96560729D01*
X149076656Y-96529788D01*
X149072677Y-96526894D01*
X149026517Y-96490443D01*
X149011677Y-96481653D01*
X148950918Y-96445666D01*
X148948089Y-96443884D01*
X148877666Y-96396828D01*
X148824821Y-96370767D01*
X148820668Y-96368518D01*
X148767270Y-96336891D01*
X148767266Y-96336889D01*
X148767262Y-96336887D01*
X148719586Y-96316671D01*
X148689346Y-96303847D01*
X148686157Y-96302386D01*
X148613075Y-96266347D01*
X148554243Y-96246375D01*
X148549969Y-96244746D01*
X148511174Y-96228297D01*
X148489872Y-96219264D01*
X148489868Y-96219263D01*
X148489866Y-96219262D01*
X148411365Y-96197757D01*
X148407815Y-96196670D01*
X148333734Y-96171522D01*
X148333723Y-96171519D01*
X148333722Y-96171519D01*
X148269608Y-96158765D01*
X148265333Y-96157756D01*
X148199281Y-96139662D01*
X148199265Y-96139658D01*
X148121792Y-96129239D01*
X148117962Y-96128601D01*
X148071006Y-96119262D01*
X148044380Y-96113966D01*
X148044377Y-96113965D01*
X148044374Y-96113965D01*
X147975959Y-96109481D01*
X147971750Y-96109061D01*
X147937282Y-96104426D01*
X147900653Y-96099500D01*
X147900650Y-96099500D01*
X147825698Y-96099500D01*
X147821650Y-96099367D01*
X147789627Y-96097268D01*
X147750006Y-96094671D01*
X147750002Y-96094671D01*
X147750000Y-96094671D01*
X147720972Y-96096573D01*
X147678971Y-96099326D01*
X147676997Y-96099424D01*
X147674764Y-96099498D01*
X147613977Y-96103567D01*
X147601157Y-96104426D01*
X147557461Y-96107290D01*
X147455620Y-96113965D01*
X147454420Y-96114123D01*
X147450506Y-96114511D01*
X147449375Y-96114587D01*
X147449372Y-96114587D01*
X147449366Y-96114588D01*
X147335446Y-96137742D01*
X147306399Y-96143646D01*
X147166277Y-96171518D01*
X147166270Y-96171520D01*
X147165508Y-96171779D01*
X147157943Y-96173822D01*
X147154095Y-96174603D01*
X147019244Y-96221428D01*
X146886921Y-96266348D01*
X146883320Y-96268124D01*
X146876241Y-96271086D01*
X146869461Y-96273440D01*
X146869457Y-96273442D01*
X146744703Y-96336482D01*
X146622337Y-96396827D01*
X146622328Y-96396832D01*
X146616301Y-96400858D01*
X146609828Y-96404637D01*
X146600544Y-96409329D01*
X146487944Y-96486624D01*
X146377040Y-96560729D01*
X146373307Y-96564002D01*
X146369156Y-96567642D01*
X146363373Y-96572138D01*
X146352132Y-96579854D01*
X146253178Y-96669352D01*
X146155241Y-96755242D01*
X146146196Y-96765555D01*
X146141175Y-96770653D01*
X146128667Y-96781967D01*
X146128660Y-96781974D01*
X146044575Y-96881431D01*
X145960726Y-96977043D01*
X145951308Y-96991136D01*
X145947106Y-96996716D01*
X145934141Y-97012052D01*
X145934140Y-97012053D01*
X145866072Y-97118677D01*
X145865365Y-97119759D01*
X145796828Y-97222336D01*
X145787905Y-97240427D01*
X145784560Y-97246362D01*
X145774198Y-97262597D01*
X145772007Y-97266030D01*
X145769320Y-97271821D01*
X145720103Y-97377877D01*
X145719470Y-97379200D01*
X145666347Y-97486924D01*
X145666345Y-97486930D01*
X145658822Y-97509089D01*
X145656353Y-97515257D01*
X145645176Y-97539344D01*
X145645176Y-97539345D01*
X145609610Y-97653998D01*
X145609103Y-97655558D01*
X145571522Y-97766266D01*
X145571516Y-97766288D01*
X145566320Y-97792410D01*
X145564728Y-97798683D01*
X145555905Y-97827125D01*
X145536472Y-97942327D01*
X145536145Y-97944107D01*
X145513965Y-98055623D01*
X145513964Y-98055628D01*
X145512012Y-98085416D01*
X145511281Y-98091673D01*
X145505791Y-98124230D01*
X145501994Y-98237771D01*
X145501895Y-98239752D01*
X145494671Y-98350000D01*
X113000000Y-98350000D01*
X113000000Y-94666273D01*
X145503112Y-94666273D01*
X145521929Y-94869355D01*
X145577744Y-95065520D01*
X145577749Y-95065533D01*
X145668654Y-95248094D01*
X145791564Y-95410854D01*
X145942285Y-95548253D01*
X145942287Y-95548255D01*
X145954242Y-95555657D01*
X146115690Y-95655621D01*
X146305871Y-95729297D01*
X146506351Y-95766773D01*
X146506353Y-95766773D01*
X146710301Y-95766773D01*
X146710303Y-95766773D01*
X146910783Y-95729297D01*
X147100964Y-95655621D01*
X147274368Y-95548254D01*
X147425091Y-95410852D01*
X147458926Y-95366046D01*
X147515036Y-95324410D01*
X147557881Y-95316773D01*
X152395465Y-95316773D01*
X152462504Y-95336458D01*
X152483146Y-95353092D01*
X153609335Y-96479281D01*
X153642820Y-96540604D01*
X153645125Y-96578402D01*
X153634785Y-96689998D01*
X153634785Y-96690000D01*
X153653602Y-96893082D01*
X153709417Y-97089247D01*
X153709422Y-97089260D01*
X153800327Y-97271821D01*
X153923237Y-97434581D01*
X154073958Y-97571980D01*
X154073960Y-97571982D01*
X154173141Y-97633392D01*
X154247363Y-97679348D01*
X154437544Y-97753024D01*
X154638024Y-97790500D01*
X154638026Y-97790500D01*
X154841974Y-97790500D01*
X154841976Y-97790500D01*
X155042456Y-97753024D01*
X155232637Y-97679348D01*
X155406041Y-97571981D01*
X155544190Y-97446042D01*
X155556762Y-97434581D01*
X155582449Y-97400566D01*
X155679673Y-97271821D01*
X155770582Y-97089250D01*
X155826397Y-96893083D01*
X155845215Y-96690000D01*
X155830369Y-96529788D01*
X155826397Y-96486917D01*
X155793349Y-96370767D01*
X155770582Y-96290750D01*
X155760163Y-96269826D01*
X155723736Y-96196670D01*
X155679673Y-96108179D01*
X155556764Y-95945421D01*
X155556762Y-95945418D01*
X155406041Y-95808019D01*
X155406039Y-95808017D01*
X155232642Y-95700655D01*
X155232635Y-95700651D01*
X155116387Y-95655617D01*
X155042456Y-95626976D01*
X154841976Y-95589500D01*
X154638024Y-95589500D01*
X154638020Y-95589500D01*
X154636053Y-95589868D01*
X154635098Y-95589771D01*
X154632318Y-95590029D01*
X154632267Y-95589484D01*
X154566539Y-95582828D01*
X154525603Y-95555657D01*
X153236707Y-94266761D01*
X153226634Y-94254187D01*
X153226447Y-94254343D01*
X153221471Y-94248328D01*
X153188655Y-94217513D01*
X153169705Y-94199718D01*
X153168331Y-94198385D01*
X153147308Y-94177362D01*
X153141513Y-94172867D01*
X153137071Y-94169072D01*
X153101669Y-94135827D01*
X153101661Y-94135821D01*
X153083065Y-94125598D01*
X153066804Y-94114917D01*
X153050036Y-94101910D01*
X153026568Y-94091755D01*
X153005451Y-94082616D01*
X153000229Y-94080059D01*
X152957641Y-94056646D01*
X152957638Y-94056645D01*
X152937074Y-94051365D01*
X152918669Y-94045063D01*
X152899200Y-94036638D01*
X152899194Y-94036636D01*
X152851224Y-94029039D01*
X152845509Y-94027855D01*
X152829045Y-94023628D01*
X152798453Y-94015773D01*
X152798450Y-94015773D01*
X152777228Y-94015773D01*
X152757828Y-94014246D01*
X152736869Y-94010926D01*
X152736868Y-94010926D01*
X152713059Y-94013176D01*
X152688503Y-94015498D01*
X152682665Y-94015773D01*
X147557881Y-94015773D01*
X147490842Y-93996088D01*
X147458927Y-93966500D01*
X147425089Y-93921692D01*
X147274368Y-93784292D01*
X147274366Y-93784290D01*
X147100969Y-93676928D01*
X147100962Y-93676924D01*
X147005873Y-93640087D01*
X146910783Y-93603249D01*
X146710303Y-93565773D01*
X146506351Y-93565773D01*
X146305871Y-93603249D01*
X146305868Y-93603249D01*
X146305868Y-93603250D01*
X146115691Y-93676924D01*
X146115684Y-93676928D01*
X145942287Y-93784290D01*
X145942285Y-93784292D01*
X145791564Y-93921691D01*
X145668654Y-94084451D01*
X145577749Y-94267012D01*
X145577744Y-94267025D01*
X145521929Y-94463190D01*
X145503112Y-94666272D01*
X145503112Y-94666273D01*
X113000000Y-94666273D01*
X113000000Y-85250004D01*
X118545233Y-85250004D01*
X118564273Y-85504079D01*
X118620968Y-85752477D01*
X118620973Y-85752494D01*
X118714058Y-85989671D01*
X118714057Y-85989671D01*
X118841457Y-86210332D01*
X118883452Y-86262993D01*
X119687226Y-85459219D01*
X119725901Y-85552588D01*
X119822075Y-85677925D01*
X119947412Y-85774099D01*
X120040779Y-85812772D01*
X119236813Y-86616737D01*
X119397623Y-86726375D01*
X119397624Y-86726376D01*
X119627176Y-86836921D01*
X119627174Y-86836921D01*
X119870652Y-86912024D01*
X119870658Y-86912026D01*
X120122595Y-86949999D01*
X120122604Y-86950000D01*
X120377396Y-86950000D01*
X120377404Y-86949999D01*
X120629341Y-86912026D01*
X120629347Y-86912024D01*
X120872824Y-86836921D01*
X121102381Y-86726373D01*
X121263185Y-86616737D01*
X121144318Y-86497870D01*
X126049500Y-86497870D01*
X126049501Y-86497876D01*
X126055908Y-86557483D01*
X126106202Y-86692328D01*
X126106206Y-86692335D01*
X126192452Y-86807544D01*
X126192455Y-86807547D01*
X126307664Y-86893793D01*
X126307671Y-86893797D01*
X126442517Y-86944091D01*
X126442516Y-86944091D01*
X126449444Y-86944835D01*
X126502127Y-86950500D01*
X128997872Y-86950499D01*
X129057483Y-86944091D01*
X129125292Y-86918800D01*
X136942059Y-86918800D01*
X136961375Y-87114929D01*
X137018588Y-87303533D01*
X137111486Y-87477332D01*
X137111490Y-87477339D01*
X137236516Y-87629683D01*
X137388860Y-87754709D01*
X137388867Y-87754713D01*
X137562666Y-87847611D01*
X137562669Y-87847611D01*
X137562673Y-87847614D01*
X137751268Y-87904824D01*
X137947400Y-87924141D01*
X138143532Y-87904824D01*
X138332127Y-87847614D01*
X138363373Y-87830913D01*
X138505932Y-87754713D01*
X138505938Y-87754710D01*
X138658283Y-87629683D01*
X138783310Y-87477338D01*
X138876214Y-87303527D01*
X138933424Y-87114932D01*
X138945236Y-86995000D01*
X150073859Y-86995000D01*
X150093175Y-87191129D01*
X150150388Y-87379733D01*
X150243286Y-87553532D01*
X150243290Y-87553539D01*
X150368316Y-87705883D01*
X150520660Y-87830909D01*
X150520667Y-87830913D01*
X150694466Y-87923811D01*
X150694469Y-87923811D01*
X150694473Y-87923814D01*
X150883068Y-87981024D01*
X151079200Y-88000341D01*
X151275332Y-87981024D01*
X151463927Y-87923814D01*
X151637738Y-87830910D01*
X151790083Y-87705883D01*
X151915110Y-87553538D01*
X152008014Y-87379727D01*
X152065224Y-87191132D01*
X152084541Y-86995000D01*
X152065224Y-86798868D01*
X152008014Y-86610273D01*
X152008011Y-86610269D01*
X152008011Y-86610266D01*
X151915113Y-86436467D01*
X151915109Y-86436460D01*
X151790084Y-86284118D01*
X151775033Y-86271765D01*
X151735700Y-86214019D01*
X151729700Y-86175914D01*
X151729700Y-85556112D01*
X151749385Y-85489073D01*
X151775033Y-85460260D01*
X151917083Y-85343683D01*
X152042110Y-85191338D01*
X152135014Y-85017527D01*
X152140330Y-85000001D01*
X164157032Y-85000001D01*
X164176864Y-85226686D01*
X164176866Y-85226697D01*
X164235758Y-85446488D01*
X164235761Y-85446497D01*
X164331931Y-85652732D01*
X164331932Y-85652734D01*
X164462454Y-85839141D01*
X164619586Y-85996273D01*
X164653071Y-86057596D01*
X164648087Y-86127288D01*
X164606215Y-86183221D01*
X164560432Y-86204628D01*
X164555022Y-86205906D01*
X164420171Y-86256202D01*
X164420164Y-86256206D01*
X164304955Y-86342452D01*
X164304952Y-86342455D01*
X164218706Y-86457664D01*
X164218702Y-86457671D01*
X164168408Y-86592517D01*
X164162001Y-86652116D01*
X164162000Y-86652135D01*
X164162000Y-88347870D01*
X164162001Y-88347876D01*
X164168408Y-88407483D01*
X164218702Y-88542328D01*
X164218706Y-88542335D01*
X164304952Y-88657544D01*
X164304955Y-88657547D01*
X164420164Y-88743793D01*
X164420171Y-88743797D01*
X164555017Y-88794091D01*
X164555016Y-88794091D01*
X164561944Y-88794835D01*
X164614627Y-88800500D01*
X166310372Y-88800499D01*
X166369983Y-88794091D01*
X166504831Y-88743796D01*
X166620046Y-88657546D01*
X166626850Y-88648455D01*
X166682780Y-88606584D01*
X166752471Y-88601597D01*
X166797240Y-88621188D01*
X166810012Y-88630130D01*
X166810018Y-88630134D01*
X167016173Y-88726265D01*
X167016182Y-88726269D01*
X167235889Y-88785139D01*
X167235900Y-88785141D01*
X167462498Y-88804966D01*
X167462502Y-88804966D01*
X167689099Y-88785141D01*
X167689110Y-88785139D01*
X167908817Y-88726269D01*
X167908831Y-88726264D01*
X168114978Y-88630136D01*
X168187972Y-88579025D01*
X167572950Y-87964004D01*
X167597699Y-87960446D01*
X167721945Y-87903705D01*
X167825173Y-87814258D01*
X167899019Y-87699351D01*
X167925435Y-87609382D01*
X168541525Y-88225472D01*
X168592636Y-88152478D01*
X168688764Y-87946331D01*
X168688769Y-87946317D01*
X168747639Y-87726610D01*
X168747641Y-87726599D01*
X168767466Y-87500002D01*
X168767466Y-87499997D01*
X168747641Y-87273400D01*
X168747639Y-87273389D01*
X168688769Y-87053682D01*
X168688765Y-87053673D01*
X168592633Y-86847516D01*
X168592631Y-86847512D01*
X168541526Y-86774526D01*
X168541525Y-86774526D01*
X167925435Y-87390616D01*
X167899019Y-87300649D01*
X167825173Y-87185742D01*
X167721945Y-87096295D01*
X167597699Y-87039554D01*
X167572951Y-87035995D01*
X168187972Y-86420974D01*
X168187971Y-86420973D01*
X168114983Y-86369866D01*
X168114981Y-86369865D01*
X168099523Y-86362657D01*
X168047084Y-86316484D01*
X168027932Y-86249290D01*
X168048148Y-86182409D01*
X168099523Y-86137893D01*
X168115234Y-86130568D01*
X168301639Y-86000047D01*
X168462547Y-85839139D01*
X168593068Y-85652734D01*
X168689239Y-85446496D01*
X168748135Y-85226692D01*
X168767968Y-85000000D01*
X168748135Y-84773308D01*
X168689239Y-84553504D01*
X168593068Y-84347266D01*
X168462547Y-84160861D01*
X168462545Y-84160858D01*
X168301641Y-83999954D01*
X168115234Y-83869432D01*
X168115232Y-83869431D01*
X167908997Y-83773261D01*
X167908988Y-83773258D01*
X167689197Y-83714366D01*
X167689193Y-83714365D01*
X167689192Y-83714365D01*
X167689191Y-83714364D01*
X167689186Y-83714364D01*
X167462502Y-83694532D01*
X167462498Y-83694532D01*
X167235813Y-83714364D01*
X167235802Y-83714366D01*
X167016011Y-83773258D01*
X167016002Y-83773261D01*
X166809767Y-83869431D01*
X166809765Y-83869432D01*
X166623358Y-83999954D01*
X166550181Y-84073132D01*
X166488858Y-84106617D01*
X166419166Y-84101633D01*
X166374819Y-84073132D01*
X166301641Y-83999954D01*
X166115234Y-83869432D01*
X166115232Y-83869431D01*
X165908997Y-83773261D01*
X165908988Y-83773258D01*
X165689197Y-83714366D01*
X165689193Y-83714365D01*
X165689192Y-83714365D01*
X165689191Y-83714364D01*
X165689186Y-83714364D01*
X165462502Y-83694532D01*
X165462498Y-83694532D01*
X165235813Y-83714364D01*
X165235802Y-83714366D01*
X165016011Y-83773258D01*
X165016002Y-83773261D01*
X164809767Y-83869431D01*
X164809765Y-83869432D01*
X164623358Y-83999954D01*
X164462454Y-84160858D01*
X164331932Y-84347265D01*
X164331931Y-84347267D01*
X164235761Y-84553502D01*
X164235758Y-84553511D01*
X164176866Y-84773302D01*
X164176864Y-84773313D01*
X164157032Y-84999998D01*
X164157032Y-85000001D01*
X152140330Y-85000001D01*
X152192224Y-84828932D01*
X152211541Y-84632800D01*
X152192224Y-84436668D01*
X152135014Y-84248073D01*
X152135011Y-84248069D01*
X152135011Y-84248066D01*
X152042113Y-84074267D01*
X152042109Y-84074260D01*
X151917083Y-83921916D01*
X151764739Y-83796890D01*
X151764732Y-83796886D01*
X151590933Y-83703988D01*
X151590927Y-83703986D01*
X151402332Y-83646776D01*
X151402329Y-83646775D01*
X151206200Y-83627459D01*
X151010070Y-83646775D01*
X150821466Y-83703988D01*
X150647667Y-83796886D01*
X150647660Y-83796890D01*
X150495316Y-83921916D01*
X150370290Y-84074260D01*
X150370286Y-84074267D01*
X150277388Y-84248066D01*
X150220175Y-84436670D01*
X150200859Y-84632800D01*
X150220175Y-84828929D01*
X150277388Y-85017533D01*
X150370286Y-85191332D01*
X150370291Y-85191340D01*
X150400552Y-85228212D01*
X150427866Y-85292522D01*
X150428700Y-85306878D01*
X150428700Y-86175914D01*
X150409015Y-86242953D01*
X150383367Y-86271765D01*
X150368315Y-86284118D01*
X150243290Y-86436460D01*
X150243286Y-86436467D01*
X150150388Y-86610266D01*
X150093175Y-86798870D01*
X150073859Y-86995000D01*
X138945236Y-86995000D01*
X138952741Y-86918800D01*
X138933424Y-86722668D01*
X138876214Y-86534073D01*
X138876211Y-86534067D01*
X138876211Y-86534066D01*
X138783313Y-86360267D01*
X138783309Y-86360260D01*
X138658283Y-86207916D01*
X138505941Y-86082892D01*
X138505939Y-86082891D01*
X138505938Y-86082890D01*
X138458617Y-86057596D01*
X138434846Y-86044890D01*
X138385002Y-85995927D01*
X138369300Y-85935532D01*
X138369300Y-78767007D01*
X138388985Y-78699968D01*
X138405614Y-78679331D01*
X139713292Y-77371652D01*
X139774613Y-77338169D01*
X139813122Y-77335932D01*
X139832500Y-77337841D01*
X140028632Y-77318524D01*
X140217227Y-77261314D01*
X140391038Y-77168410D01*
X140543383Y-77043383D01*
X140668410Y-76891038D01*
X140761314Y-76717227D01*
X140818524Y-76528632D01*
X140837841Y-76332500D01*
X140818524Y-76136368D01*
X140761314Y-75947773D01*
X140761311Y-75947769D01*
X140761311Y-75947766D01*
X140668413Y-75773967D01*
X140668409Y-75773960D01*
X140543383Y-75621616D01*
X140391039Y-75496590D01*
X140391032Y-75496586D01*
X140217233Y-75403688D01*
X140217227Y-75403686D01*
X140028632Y-75346476D01*
X140028629Y-75346475D01*
X139832500Y-75327159D01*
X139636370Y-75346475D01*
X139447766Y-75403688D01*
X139273967Y-75496586D01*
X139273960Y-75496590D01*
X139121616Y-75621616D01*
X138996590Y-75773960D01*
X138996586Y-75773967D01*
X138903688Y-75947766D01*
X138846475Y-76136370D01*
X138827159Y-76332499D01*
X138829067Y-76351872D01*
X138816048Y-76420519D01*
X138793345Y-76451707D01*
X137319283Y-77925769D01*
X137306710Y-77935843D01*
X137306865Y-77936030D01*
X137300858Y-77940998D01*
X137252268Y-77992742D01*
X137250914Y-77994138D01*
X137229890Y-78015163D01*
X137229878Y-78015177D01*
X137225387Y-78020965D01*
X137221601Y-78025397D01*
X137188352Y-78060806D01*
X137178122Y-78079413D01*
X137167446Y-78095664D01*
X137154440Y-78112432D01*
X137154436Y-78112438D01*
X137135148Y-78157011D01*
X137132577Y-78162258D01*
X137109172Y-78204830D01*
X137109172Y-78204831D01*
X137103891Y-78225399D01*
X137097591Y-78243801D01*
X137089164Y-78263273D01*
X137081566Y-78311247D01*
X137080381Y-78316970D01*
X137068300Y-78364018D01*
X137068300Y-78385244D01*
X137066773Y-78404644D01*
X137063453Y-78425603D01*
X137068025Y-78473967D01*
X137068300Y-78479806D01*
X137068300Y-86410004D01*
X137053658Y-86468457D01*
X137018588Y-86534067D01*
X136961375Y-86722670D01*
X136942059Y-86918800D01*
X129125292Y-86918800D01*
X129192331Y-86893796D01*
X129307546Y-86807546D01*
X129393796Y-86692331D01*
X129444091Y-86557483D01*
X129450500Y-86497873D01*
X129450499Y-84002128D01*
X129444091Y-83942517D01*
X129436407Y-83921916D01*
X129393797Y-83807671D01*
X129393793Y-83807664D01*
X129307547Y-83692455D01*
X129307544Y-83692452D01*
X129192335Y-83606206D01*
X129192328Y-83606202D01*
X129057482Y-83555908D01*
X129057483Y-83555908D01*
X128997883Y-83549501D01*
X128997881Y-83549500D01*
X128997873Y-83549500D01*
X128997864Y-83549500D01*
X126502129Y-83549500D01*
X126502123Y-83549501D01*
X126442516Y-83555908D01*
X126307671Y-83606202D01*
X126307664Y-83606206D01*
X126192455Y-83692452D01*
X126192452Y-83692455D01*
X126106206Y-83807664D01*
X126106202Y-83807671D01*
X126055908Y-83942517D01*
X126049501Y-84002116D01*
X126049501Y-84002123D01*
X126049500Y-84002135D01*
X126049500Y-86497870D01*
X121144318Y-86497870D01*
X120459220Y-85812772D01*
X120552588Y-85774099D01*
X120677925Y-85677925D01*
X120774099Y-85552589D01*
X120812772Y-85459220D01*
X121616545Y-86262993D01*
X121658545Y-86210327D01*
X121785941Y-85989671D01*
X121879026Y-85752494D01*
X121879031Y-85752477D01*
X121935726Y-85504079D01*
X121954767Y-85250004D01*
X121954767Y-85249995D01*
X121935726Y-84995920D01*
X121879031Y-84747522D01*
X121879026Y-84747505D01*
X121785941Y-84510328D01*
X121785942Y-84510328D01*
X121658544Y-84289671D01*
X121616545Y-84237005D01*
X120812772Y-85040778D01*
X120774099Y-84947412D01*
X120677925Y-84822075D01*
X120552588Y-84725901D01*
X120459219Y-84687226D01*
X121263185Y-83883261D01*
X121102377Y-83773624D01*
X121102376Y-83773623D01*
X120872823Y-83663078D01*
X120872825Y-83663078D01*
X120629347Y-83587975D01*
X120629341Y-83587973D01*
X120377404Y-83550000D01*
X120122595Y-83550000D01*
X119870658Y-83587973D01*
X119870652Y-83587975D01*
X119627175Y-83663078D01*
X119397624Y-83773623D01*
X119397616Y-83773628D01*
X119236813Y-83883261D01*
X120040778Y-84687227D01*
X119947412Y-84725901D01*
X119822075Y-84822075D01*
X119725901Y-84947411D01*
X119687226Y-85040779D01*
X118883453Y-84237006D01*
X118841455Y-84289670D01*
X118714058Y-84510328D01*
X118620973Y-84747505D01*
X118620968Y-84747522D01*
X118564273Y-84995920D01*
X118545233Y-85249995D01*
X118545233Y-85250004D01*
X113000000Y-85250004D01*
X113000000Y-74067763D01*
X114145787Y-74067763D01*
X114175413Y-74337013D01*
X114175415Y-74337024D01*
X114233327Y-74558539D01*
X114243928Y-74599088D01*
X114349870Y-74848390D01*
X114445656Y-75005340D01*
X114490979Y-75079605D01*
X114490986Y-75079615D01*
X114664253Y-75287819D01*
X114664259Y-75287824D01*
X114793572Y-75403688D01*
X114865998Y-75468582D01*
X115091910Y-75618044D01*
X115337176Y-75733020D01*
X115337183Y-75733022D01*
X115337185Y-75733023D01*
X115596557Y-75811057D01*
X115596564Y-75811058D01*
X115596569Y-75811060D01*
X115864561Y-75850500D01*
X115864566Y-75850500D01*
X116067629Y-75850500D01*
X116067631Y-75850500D01*
X116067636Y-75850499D01*
X116067648Y-75850499D01*
X116105191Y-75847750D01*
X116270156Y-75835677D01*
X116382758Y-75810593D01*
X116534546Y-75776782D01*
X116534548Y-75776781D01*
X116534553Y-75776780D01*
X116787558Y-75680014D01*
X117023777Y-75547441D01*
X117238177Y-75381888D01*
X117426186Y-75186881D01*
X117583799Y-74966579D01*
X117664093Y-74810405D01*
X117707649Y-74725690D01*
X117707651Y-74725684D01*
X117707656Y-74725675D01*
X117795118Y-74469305D01*
X117844319Y-74202933D01*
X117851735Y-74000000D01*
X141159659Y-74000000D01*
X141178975Y-74196129D01*
X141236188Y-74384733D01*
X141329086Y-74558532D01*
X141329090Y-74558539D01*
X141454116Y-74710883D01*
X141606460Y-74835909D01*
X141606467Y-74835913D01*
X141780266Y-74928811D01*
X141780269Y-74928811D01*
X141780273Y-74928814D01*
X141968868Y-74986024D01*
X142165000Y-75005341D01*
X142361132Y-74986024D01*
X142549727Y-74928814D01*
X142723538Y-74835910D01*
X142723544Y-74835904D01*
X142728607Y-74832523D01*
X142729703Y-74834164D01*
X142785639Y-74810405D01*
X142854507Y-74822194D01*
X142871148Y-74832888D01*
X142871393Y-74832523D01*
X142876458Y-74835907D01*
X142876462Y-74835910D01*
X143050273Y-74928814D01*
X143238868Y-74986024D01*
X143435000Y-75005341D01*
X143631132Y-74986024D01*
X143819727Y-74928814D01*
X143993538Y-74835910D01*
X143993544Y-74835904D01*
X143998607Y-74832523D01*
X143999703Y-74834164D01*
X144055639Y-74810405D01*
X144124507Y-74822194D01*
X144141148Y-74832888D01*
X144141393Y-74832523D01*
X144146458Y-74835907D01*
X144146462Y-74835910D01*
X144320273Y-74928814D01*
X144508868Y-74986024D01*
X144705000Y-75005341D01*
X144901132Y-74986024D01*
X145089727Y-74928814D01*
X145263538Y-74835910D01*
X145263544Y-74835904D01*
X145268607Y-74832523D01*
X145269624Y-74834045D01*
X145326021Y-74810084D01*
X145394890Y-74821866D01*
X145411424Y-74832489D01*
X145411678Y-74832110D01*
X145416738Y-74835491D01*
X145590465Y-74928349D01*
X145725000Y-74969159D01*
X145725000Y-74207672D01*
X145762871Y-74252805D01*
X145862129Y-74310112D01*
X145946564Y-74325000D01*
X146003436Y-74325000D01*
X146087871Y-74310112D01*
X146187129Y-74252805D01*
X146225000Y-74207672D01*
X146225000Y-74969159D01*
X146359534Y-74928349D01*
X146533259Y-74835492D01*
X146538320Y-74832111D01*
X146539444Y-74833793D01*
X146595203Y-74810086D01*
X146664075Y-74821851D01*
X146681186Y-74832843D01*
X146681399Y-74832526D01*
X146686457Y-74835906D01*
X146686462Y-74835910D01*
X146791358Y-74891978D01*
X146841202Y-74940941D01*
X146856662Y-75009078D01*
X146832830Y-75074758D01*
X146791357Y-75110694D01*
X146691467Y-75164085D01*
X146691460Y-75164090D01*
X146539116Y-75289116D01*
X146414090Y-75441460D01*
X146414086Y-75441467D01*
X146321188Y-75615266D01*
X146263975Y-75803870D01*
X146244659Y-76000000D01*
X146263975Y-76196129D01*
X146263976Y-76196132D01*
X146311219Y-76351872D01*
X146321188Y-76384733D01*
X146414086Y-76558532D01*
X146414090Y-76558539D01*
X146539114Y-76710881D01*
X146571129Y-76737155D01*
X146610463Y-76794901D01*
X146612833Y-76805543D01*
X146612990Y-76805503D01*
X146614931Y-76813064D01*
X146632813Y-76858230D01*
X146634705Y-76863758D01*
X146648254Y-76910395D01*
X146648255Y-76910397D01*
X146659060Y-76928666D01*
X146667617Y-76946134D01*
X146673226Y-76960300D01*
X146675432Y-76965872D01*
X146703983Y-77005170D01*
X146707191Y-77010053D01*
X146726902Y-77043383D01*
X146731919Y-77051865D01*
X146731923Y-77051869D01*
X146746925Y-77066871D01*
X146759563Y-77081669D01*
X146772033Y-77098833D01*
X146772036Y-77098836D01*
X146772037Y-77098837D01*
X146809476Y-77129809D01*
X146813776Y-77133722D01*
X149335674Y-79655620D01*
X151829564Y-82149510D01*
X151839635Y-82162080D01*
X151839822Y-82161926D01*
X151844795Y-82167937D01*
X151896542Y-82216531D01*
X151897909Y-82217855D01*
X151918965Y-82238911D01*
X151918968Y-82238913D01*
X151924757Y-82243405D01*
X151929197Y-82247197D01*
X151958498Y-82274711D01*
X151964607Y-82280448D01*
X151964609Y-82280449D01*
X151983205Y-82290672D01*
X151999470Y-82301357D01*
X152016232Y-82314360D01*
X152016235Y-82314361D01*
X152016236Y-82314362D01*
X152060823Y-82333656D01*
X152066059Y-82336221D01*
X152108632Y-82359627D01*
X152124340Y-82363659D01*
X152129186Y-82364904D01*
X152147598Y-82371207D01*
X152167073Y-82379635D01*
X152184153Y-82382340D01*
X152247287Y-82412266D01*
X152260606Y-82426143D01*
X152289117Y-82460883D01*
X152289119Y-82460885D01*
X152441460Y-82585909D01*
X152441467Y-82585913D01*
X152615266Y-82678811D01*
X152615269Y-82678811D01*
X152615273Y-82678814D01*
X152803868Y-82736024D01*
X153000000Y-82755341D01*
X153196132Y-82736024D01*
X153384727Y-82678814D01*
X153558538Y-82585910D01*
X153710883Y-82460883D01*
X153835910Y-82308538D01*
X153900028Y-82188581D01*
X153928811Y-82134733D01*
X153928811Y-82134732D01*
X153928814Y-82134727D01*
X153986024Y-81946132D01*
X154005341Y-81750000D01*
X153986024Y-81553868D01*
X153928814Y-81365273D01*
X153928811Y-81365269D01*
X153928811Y-81365266D01*
X153835913Y-81191467D01*
X153835909Y-81191460D01*
X153710883Y-81039116D01*
X153558539Y-80914090D01*
X153558532Y-80914086D01*
X153384733Y-80821188D01*
X153384727Y-80821186D01*
X153196132Y-80763976D01*
X153196129Y-80763975D01*
X153000000Y-80744659D01*
X152803870Y-80763975D01*
X152743739Y-80782216D01*
X152615273Y-80821186D01*
X152615271Y-80821186D01*
X152615271Y-80821187D01*
X152517727Y-80873325D01*
X152449324Y-80887566D01*
X152384080Y-80862565D01*
X152371593Y-80851647D01*
X148148352Y-76628406D01*
X148114867Y-76567083D01*
X148119851Y-76497391D01*
X148126671Y-76482278D01*
X148178814Y-76384727D01*
X148236024Y-76196132D01*
X148255341Y-76000000D01*
X148236024Y-75803868D01*
X148178814Y-75615273D01*
X148178811Y-75615269D01*
X148178811Y-75615266D01*
X148085913Y-75441467D01*
X148085909Y-75441460D01*
X147960883Y-75289116D01*
X147876382Y-75219768D01*
X147837048Y-75162022D01*
X147835177Y-75092178D01*
X147871365Y-75032409D01*
X147934121Y-75001694D01*
X147963794Y-75000769D01*
X147963806Y-75000564D01*
X147963806Y-75000500D01*
X147963809Y-75000499D01*
X147963819Y-75000322D01*
X147967100Y-75000497D01*
X147967127Y-75000500D01*
X149062872Y-75000499D01*
X149122483Y-74994091D01*
X149257331Y-74943796D01*
X149372546Y-74857546D01*
X149458796Y-74742331D01*
X149509091Y-74607483D01*
X149515500Y-74547873D01*
X149515500Y-74067763D01*
X168145787Y-74067763D01*
X168175413Y-74337013D01*
X168175415Y-74337024D01*
X168233327Y-74558539D01*
X168243928Y-74599088D01*
X168349870Y-74848390D01*
X168445656Y-75005340D01*
X168490979Y-75079605D01*
X168490986Y-75079615D01*
X168664253Y-75287819D01*
X168664259Y-75287824D01*
X168793572Y-75403688D01*
X168865998Y-75468582D01*
X169091910Y-75618044D01*
X169337176Y-75733020D01*
X169337183Y-75733022D01*
X169337185Y-75733023D01*
X169596557Y-75811057D01*
X169596564Y-75811058D01*
X169596569Y-75811060D01*
X169864561Y-75850500D01*
X169864566Y-75850500D01*
X170067629Y-75850500D01*
X170067631Y-75850500D01*
X170067636Y-75850499D01*
X170067648Y-75850499D01*
X170105191Y-75847750D01*
X170270156Y-75835677D01*
X170382758Y-75810593D01*
X170534546Y-75776782D01*
X170534548Y-75776781D01*
X170534553Y-75776780D01*
X170787558Y-75680014D01*
X171023777Y-75547441D01*
X171238177Y-75381888D01*
X171426186Y-75186881D01*
X171583799Y-74966579D01*
X171664093Y-74810405D01*
X171707649Y-74725690D01*
X171707651Y-74725684D01*
X171707656Y-74725675D01*
X171795118Y-74469305D01*
X171844319Y-74202933D01*
X171854212Y-73932235D01*
X171824586Y-73662982D01*
X171756072Y-73400912D01*
X171650130Y-73151610D01*
X171509018Y-72920390D01*
X171419747Y-72813119D01*
X171335746Y-72712180D01*
X171335740Y-72712175D01*
X171134002Y-72531418D01*
X170908092Y-72381957D01*
X170908090Y-72381956D01*
X170662824Y-72266980D01*
X170662819Y-72266978D01*
X170662814Y-72266976D01*
X170403442Y-72188942D01*
X170403428Y-72188939D01*
X170287791Y-72171921D01*
X170135439Y-72149500D01*
X169932369Y-72149500D01*
X169932351Y-72149500D01*
X169729844Y-72164323D01*
X169729831Y-72164325D01*
X169465453Y-72223217D01*
X169465446Y-72223220D01*
X169212439Y-72319987D01*
X168976226Y-72452557D01*
X168761822Y-72618112D01*
X168573822Y-72813109D01*
X168573816Y-72813116D01*
X168416202Y-73033419D01*
X168416199Y-73033424D01*
X168292350Y-73274309D01*
X168292343Y-73274327D01*
X168204884Y-73530685D01*
X168204881Y-73530699D01*
X168155681Y-73797068D01*
X168155680Y-73797075D01*
X168145787Y-74067763D01*
X149515500Y-74067763D01*
X149515499Y-73452128D01*
X149509091Y-73392517D01*
X149470525Y-73289117D01*
X149458797Y-73257671D01*
X149458793Y-73257664D01*
X149372547Y-73142455D01*
X149372544Y-73142452D01*
X149257335Y-73056206D01*
X149257328Y-73056202D01*
X149122482Y-73005908D01*
X149122483Y-73005908D01*
X149062883Y-72999501D01*
X149062881Y-72999500D01*
X149062873Y-72999500D01*
X149062864Y-72999500D01*
X147967129Y-72999500D01*
X147967123Y-72999501D01*
X147907516Y-73005908D01*
X147772671Y-73056202D01*
X147772666Y-73056205D01*
X147764614Y-73062233D01*
X147699149Y-73086648D01*
X147635530Y-73073104D01*
X147635359Y-73073518D01*
X147633123Y-73072592D01*
X147631850Y-73072321D01*
X147629729Y-73071187D01*
X147629728Y-73071186D01*
X147629727Y-73071186D01*
X147441132Y-73013976D01*
X147441129Y-73013975D01*
X147245000Y-72994659D01*
X147048870Y-73013975D01*
X146860266Y-73071188D01*
X146686467Y-73164086D01*
X146681399Y-73167473D01*
X146680386Y-73165958D01*
X146623936Y-73189920D01*
X146555071Y-73178115D01*
X146538574Y-73167511D01*
X146538322Y-73167890D01*
X146533253Y-73164503D01*
X146359541Y-73071652D01*
X146225000Y-73030839D01*
X146225000Y-73792327D01*
X146187129Y-73747195D01*
X146087871Y-73689888D01*
X146003436Y-73675000D01*
X145946564Y-73675000D01*
X145862129Y-73689888D01*
X145762871Y-73747195D01*
X145725000Y-73792327D01*
X145725000Y-73030839D01*
X145724999Y-73030839D01*
X145590458Y-73071652D01*
X145416742Y-73164505D01*
X145411673Y-73167893D01*
X145410556Y-73166221D01*
X145354715Y-73189921D01*
X145285851Y-73178111D01*
X145268811Y-73167158D01*
X145268601Y-73167473D01*
X145263532Y-73164086D01*
X145089733Y-73071188D01*
X145089727Y-73071186D01*
X144901132Y-73013976D01*
X144901129Y-73013975D01*
X144705000Y-72994659D01*
X144508870Y-73013975D01*
X144320266Y-73071188D01*
X144146467Y-73164086D01*
X144141399Y-73167473D01*
X144140305Y-73165836D01*
X144084337Y-73189596D01*
X144015471Y-73177795D01*
X143998843Y-73167109D01*
X143998601Y-73167473D01*
X143993532Y-73164086D01*
X143819733Y-73071188D01*
X143819727Y-73071186D01*
X143631132Y-73013976D01*
X143631129Y-73013975D01*
X143435000Y-72994659D01*
X143238870Y-73013975D01*
X143050266Y-73071188D01*
X142876467Y-73164086D01*
X142871399Y-73167473D01*
X142870305Y-73165836D01*
X142814337Y-73189596D01*
X142745471Y-73177795D01*
X142728843Y-73167109D01*
X142728601Y-73167473D01*
X142723532Y-73164086D01*
X142549733Y-73071188D01*
X142549727Y-73071186D01*
X142361132Y-73013976D01*
X142361129Y-73013975D01*
X142165000Y-72994659D01*
X141968870Y-73013975D01*
X141780266Y-73071188D01*
X141606467Y-73164086D01*
X141606460Y-73164090D01*
X141454116Y-73289116D01*
X141329090Y-73441460D01*
X141329086Y-73441467D01*
X141236188Y-73615266D01*
X141178975Y-73803870D01*
X141159659Y-74000000D01*
X117851735Y-74000000D01*
X117854212Y-73932235D01*
X117824586Y-73662982D01*
X117756072Y-73400912D01*
X117650130Y-73151610D01*
X117509018Y-72920390D01*
X117419747Y-72813119D01*
X117335746Y-72712180D01*
X117335740Y-72712175D01*
X117134002Y-72531418D01*
X116908092Y-72381957D01*
X116908090Y-72381956D01*
X116662824Y-72266980D01*
X116662819Y-72266978D01*
X116662814Y-72266976D01*
X116403442Y-72188942D01*
X116403428Y-72188939D01*
X116287791Y-72171921D01*
X116135439Y-72149500D01*
X115932369Y-72149500D01*
X115932351Y-72149500D01*
X115729844Y-72164323D01*
X115729831Y-72164325D01*
X115465453Y-72223217D01*
X115465446Y-72223220D01*
X115212439Y-72319987D01*
X114976226Y-72452557D01*
X114761822Y-72618112D01*
X114573822Y-72813109D01*
X114573816Y-72813116D01*
X114416202Y-73033419D01*
X114416199Y-73033424D01*
X114292350Y-73274309D01*
X114292343Y-73274327D01*
X114204884Y-73530685D01*
X114204881Y-73530699D01*
X114155681Y-73797068D01*
X114155680Y-73797075D01*
X114145787Y-74067763D01*
X113000000Y-74067763D01*
X113000000Y-71124000D01*
X113019685Y-71056961D01*
X113072489Y-71011206D01*
X113124000Y-71000000D01*
X172876000Y-71000000D01*
X172943039Y-71019685D01*
G37*
%TD.AperFunction*%
%TD*%
M02*
