M48
; DRILL file {KiCad 6.0.5} date Вт 27 сен 2022 17:44:25
; FORMAT={-:-/ absolute / metric / decimal}
; #@! TF.CreationDate,2022-09-27T17:44:25+03:00
; #@! TF.GenerationSoftware,Kicad,Pcbnew,6.0.5
; #@! TF.FileFunction,MixedPlating,1,2
FMAT,2
METRIC
; #@! TA.AperFunction,Plated,PTH,ViaDrill
T1C0.400
; #@! TA.AperFunction,Plated,PTH,ViaDrill
T2C0.600
; #@! TA.AperFunction,Plated,PTH,ComponentDrill
T3C0.600
; #@! TA.AperFunction,Plated,PTH,ComponentDrill
T4C0.700
; #@! TA.AperFunction,Plated,PTH,ComponentDrill
T5C0.750
; #@! TA.AperFunction,Plated,PTH,ViaDrill
T6C0.800
; #@! TA.AperFunction,Plated,PTH,ComponentDrill
T7C0.800
; #@! TA.AperFunction,Plated,PTH,ComponentDrill
T8C0.920
; #@! TA.AperFunction,Plated,PTH,ComponentDrill
T9C1.000
; #@! TA.AperFunction,Plated,PTH,ComponentDrill
T10C1.100
; #@! TA.AperFunction,Plated,PTH,ComponentDrill
T11C1.200
; #@! TA.AperFunction,Plated,PTH,ComponentDrill
T12C1.300
; #@! TA.AperFunction,Plated,PTH,ComponentDrill
T13C1.500
; #@! TA.AperFunction,Plated,PTH,ComponentDrill
T14C2.330
; #@! TA.AperFunction,Plated,PTH,ComponentDrill
T15C3.000
; #@! TA.AperFunction,Plated,PTH,ComponentDrill
T16C3.200
%
G90
G05
T1
X19.71Y-58.014
X23.571Y-59.741
X28.078Y-81.378
X28.078Y-87.118
X28.078Y-93.112
X28.078Y-98.7
X28.078Y-104.238
X28.078Y-109.724
X28.078Y-115.312
X29.566Y-66.853
X35.509Y-39.319
X36.779Y-39.319
X36.932Y-107.696
X37.186Y-47.447
X39.421Y-45.923
X39.827Y-54.051
X40.996Y-53.137
X41.295Y-130.265
X41.402Y-46.38
X43.332Y-102.667
X44.45Y-47.346
X44.45Y-53.848
X45.263Y-53.238
X46.888Y-106.985
X46.888Y-110.49
X46.888Y-116.84
X47.193Y-98.908
X48.428Y-97.857
X50.038Y-53.442
X50.952Y-96.825
X50.957Y-105.725
X51.719Y-104.937
X52.883Y-99.365
X53.696Y-98.095
X54.638Y-98.429
X55.677Y-48.463
X56.189Y-114.716
X56.722Y-115.885
X56.794Y-48.463
X57.31Y-34.755
X57.428Y-101.801
X57.963Y-66.154
X58.255Y-102.362
X58.623Y-58.166
X58.725Y-66.904
X58.91Y-43.137
X59.215Y-34.704
X60.147Y-68.834
X60.652Y-97.787
X60.713Y-34.933
X63.551Y-68.783
X64.618Y-73.203
X64.668Y-79.604
X65.007Y-128.338
X65.989Y-79.451
X66.396Y-124.866
X67.158Y-78.994
X67.92Y-80.162
X68.808Y-68.859
X68.986Y-115.519
X69.037Y-75.438
X69.342Y-58.115
X69.647Y-63.246
X69.799Y-73.914
X70.669Y-101.167
X70.714Y-64.414
X71.476Y-65.38
X71.614Y-74.066
X71.831Y-84.938
X72.644Y-67.818
X72.644Y-73.965
X72.847Y-72.695
X72.898Y-85.75
X73.66Y-73.558
X74.93Y-65.532
X75.387Y-67.818
X76.181Y-101.167
X77.318Y-64.821
X78.029Y-81.432
X79.146Y-78.74
X79.807Y-41.605
X80.327Y-80.924
X80.62Y-79.858
X81.128Y-77.927
X81.534Y-50.546
X81.788Y-77.114
X82.753Y-84.176
X82.804Y-76.759
X83.668Y-83.16
X83.668Y-128.981
X86.309Y-75.082
X87.173Y-74.32
X87.173Y-128.88
X93.0Y-103.0
X97.993Y-74.371
X112.279Y-78.129
X112.279Y-80.135
X113.995Y-48.108
X114.794Y-84.047
X116.445Y-78.484
X121.195Y-82.523
T2
X36.932Y-41.859
X38.71Y-48.311
X38.71Y-52.832
X40.742Y-93.624
X56.49Y-105.562
X56.49Y-107.899
X65.278Y-104.8
X66.497Y-104.8
X70.764Y-76.459
X73.965Y-135.433
X83.668Y-144.628
X85.5Y-118.5
X86.614Y-145.694
X91.897Y-97.688
X98.4Y-81.991
T3
X32.106Y-127.48
X32.106Y-130.02
X32.106Y-135.1
X32.106Y-140.18
T4
X28.525Y-55.825
X28.525Y-57.095
X28.525Y-58.365
X28.525Y-59.635
X28.525Y-60.905
X28.525Y-62.175
T5
X63.339Y-141.059
X65.339Y-141.059
X67.339Y-141.059
X70.5Y-108.099
X72.5Y-108.099
X74.5Y-108.099
X76.5Y-108.099
X79.764Y-55.492
X79.764Y-57.492
X79.764Y-59.492
X79.764Y-61.492
T6
X26.72Y-75.794
X38.71Y-65.38
X43.378Y-145.082
X51.664Y-50.952
X54.254Y-50.14
X85.115Y-101.524
X85.521Y-34.698
X85.688Y-29.324
X86.639Y-100.0
X88.138Y-98.501
X89.291Y-29.324
X94.666Y-91.973
X96.088Y-90.551
X97.336Y-89.386
X103.581Y-88.087
X106.284Y-59.192
X108.316Y-57.16
X110.413Y-55.063
X120.701Y-99.924
T7
X26.0Y-78.934
X26.0Y-81.474
X26.0Y-84.697
X26.0Y-87.237
X26.0Y-90.46
X26.0Y-93.0
X26.0Y-96.223
X26.0Y-98.763
X26.0Y-101.986
X26.0Y-104.526
X26.0Y-107.749
X26.0Y-110.289
X26.0Y-113.511
X26.0Y-116.051
X26.0Y-119.274
X26.0Y-121.814
X26.025Y-70.781
X28.565Y-70.781
X31.105Y-70.781
X32.949Y-35.843
X33.0Y-24.515
X33.62Y-78.934
X33.62Y-81.474
X33.62Y-84.697
X33.62Y-87.237
X33.62Y-90.46
X33.62Y-93.0
X33.62Y-96.223
X33.62Y-98.763
X33.62Y-101.986
X33.62Y-104.526
X33.62Y-107.749
X33.62Y-110.289
X33.62Y-113.511
X33.62Y-116.051
X33.62Y-119.274
X33.62Y-121.814
X33.645Y-70.781
X35.489Y-35.843
X35.54Y-24.515
X38.029Y-35.843
X38.08Y-24.515
X47.655Y-120.718
X47.655Y-128.338
X49.385Y-37.523
X49.385Y-40.063
X49.385Y-42.603
X49.385Y-45.143
X50.195Y-120.718
X50.195Y-128.338
X52.735Y-120.718
X52.735Y-128.338
X55.275Y-120.718
X55.275Y-128.338
X57.679Y-72.276
X57.679Y-77.156
X62.195Y-36.805
X69.815Y-36.805
X95.298Y-32.413
X98.798Y-32.413
X116.89Y-23.013
X116.89Y-26.513
X118.541Y-34.444
X118.541Y-37.944
T8
X127.29Y-76.429
X127.29Y-78.929
X129.29Y-76.429
X129.29Y-78.929
T9
X38.7Y-60.0
X41.914Y-106.995
X41.914Y-110.5
X41.914Y-114.056
X41.914Y-117.612
X46.3Y-60.0
X54.071Y-26.416
X55.456Y-23.576
X56.841Y-26.416
X58.226Y-23.576
X59.611Y-26.416
X60.996Y-23.576
X61.472Y-106.969
X61.472Y-110.525
X61.472Y-114.081
X61.472Y-117.637
X62.381Y-26.416
X63.766Y-23.576
X65.151Y-26.416
X74.879Y-63.094
X75.59Y-90.983
X75.59Y-94.691
X82.29Y-148.696
X82.29Y-151.236
X82.29Y-153.776
X87.0Y-45.0
X90.17Y-75.946
X91.0Y-45.0
X91.42Y-113.0
X91.475Y-106.0
X93.96Y-113.0
X94.015Y-106.0
X96.165Y-148.358
X96.5Y-113.0
X96.555Y-106.0
X97.55Y-151.198
X98.935Y-148.358
X100.32Y-151.198
X101.396Y-52.65
X101.705Y-148.358
X103.0Y-33.809
X103.09Y-151.198
X104.475Y-148.358
X105.86Y-151.198
X107.245Y-148.358
X113.0Y-33.809
X121.583Y-148.696
X121.583Y-151.236
X121.583Y-153.776
X130.0Y-57.5
X130.0Y-61.5
T10
X101.298Y-24.488
X102.998Y-28.188
X104.698Y-24.488
X106.398Y-28.188
X108.098Y-24.488
T11
X18.683Y-80.399
X18.683Y-85.479
X18.683Y-90.559
X18.683Y-95.639
X18.683Y-100.719
X18.683Y-105.799
X18.683Y-110.879
X18.683Y-115.959
X18.683Y-121.039
X18.683Y-126.119
X94.082Y-142.291
X101.702Y-121.971
X104.242Y-142.291
X106.782Y-121.971
X108.0Y-51.5
X108.0Y-66.5
X114.402Y-142.291
T12
X18.526Y-25.5
X18.526Y-30.5
X18.526Y-35.5
X24.75Y-150.788
X29.75Y-150.788
X34.75Y-150.788
X39.75Y-150.788
X44.75Y-150.788
X49.75Y-150.788
X84.291Y-25.351
X89.291Y-25.351
X99.217Y-40.413
X103.027Y-40.413
X129.805Y-91.0
X129.805Y-96.0
X129.805Y-101.0
X129.805Y-107.0
X129.805Y-112.0
X129.805Y-117.0
X130.047Y-34.183
X130.047Y-39.183
X130.098Y-22.713
X130.098Y-27.713
T13
X113.207Y-92.292
X113.207Y-107.292
X113.207Y-112.292
X113.207Y-117.292
X120.707Y-92.292
X120.707Y-107.292
X120.707Y-112.292
X120.707Y-117.292
T14
X132.0Y-71.659
X132.0Y-83.699
T15
X18.5Y-49.5
X18.5Y-151.0
X74.5Y-49.5
X74.5Y-151.0
X130.0Y-49.5
X130.0Y-151.0
T16
X47.111Y-26.116
X72.111Y-26.116
X89.205Y-148.658
X114.205Y-148.658
T0
M30
