%FSLAX45Y45*%
G04 Gerber Fmt 4.5, Leading zero omitted, Abs format (unit mm)*
G04 Created by KiCad (PCBNEW 6.0.5) date 2022-09-27 17:44:24*
%MOMM*%
%LPD*%
G01*
G04 APERTURE LIST*
%TA.AperFunction,Profile*%
%ADD10C,0.150000*%
%TD*%
%ADD11C,0.200000*%
%ADD12C,0.040000*%
%ADD13C,0.060000*%
%ADD14C,0.070000*%
%ADD15C,0.075000*%
%ADD16C,0.080000*%
%ADD17C,0.092000*%
%ADD18C,0.100000*%
%ADD19C,0.110000*%
%ADD20C,0.120000*%
%ADD21C,0.130000*%
%ADD22C,0.150000*%
%ADD23C,0.233000*%
%ADD24C,0.300000*%
%ADD25C,0.320000*%
G04 APERTURE END LIST*
D10*
X7874000Y-13614400D02*
G75*
G03*
X7874000Y-13716000I0J-50800D01*
G01*
X9245600Y-13716000D02*
G75*
G03*
X9245600Y-13614400I0J50800D01*
G01*
X9245600Y-13716000D02*
X7874000Y-13716000D01*
X7874000Y-13614400D02*
X9245600Y-13614400D01*
X12395200Y-9855200D02*
G75*
G03*
X12496800Y-9855200I50800J0D01*
G01*
X12496800Y-8890000D02*
X12496800Y-9855200D01*
X12395200Y-8890000D02*
X12395200Y-9855200D01*
X12547600Y-8737600D02*
G75*
G03*
X12395200Y-8890000I0J-152400D01*
G01*
X12547600Y-8839200D02*
G75*
G03*
X12496800Y-8890000I0J-50800D01*
G01*
X13309600Y-8839200D02*
G75*
G03*
X13309600Y-8737600I0J50800D01*
G01*
X13309600Y-8737600D02*
X12547600Y-8737600D01*
X13309600Y-8839200D02*
X12547600Y-8839200D01*
X10922000Y-12903200D02*
G75*
G03*
X11023600Y-12903200I50800J0D01*
G01*
X11023600Y-10007600D02*
G75*
G03*
X10922000Y-10007600I-50800J0D01*
G01*
X11023600Y-12903200D02*
X11023600Y-10007600D01*
X10922000Y-10007600D02*
X10922000Y-12903200D01*
X2691880Y-13234740D02*
G75*
G03*
X2691880Y-13285540I0J-25400D01*
G01*
X4435560Y-4107947D02*
G75*
G03*
X4435560Y-4158747I0J-25400D01*
G01*
X3008940Y-6971409D02*
G75*
G03*
X2958140Y-6971409I-25400J0D01*
G01*
X1350000Y-15600000D02*
X13500000Y-15600000D01*
X13500000Y-1950000D02*
X13500000Y-15600000D01*
X1350000Y-1950000D02*
X1350000Y-15600000D01*
X1350000Y-1950000D02*
X13500000Y-1950000D01*
X6162760Y-4158747D02*
G75*
G03*
X6162760Y-4107947I0J25400D01*
G01*
X4435560Y-4158747D02*
X6162760Y-4158747D01*
X4435560Y-4107947D02*
X6162760Y-4107947D01*
X10514200Y-8704420D02*
G75*
G03*
X10565000Y-8704420I25400J0D01*
G01*
X10565000Y-7510620D02*
G75*
G03*
X10514200Y-7510620I-25400J0D01*
G01*
X10565000Y-8704420D02*
X10565000Y-7510620D01*
X10514200Y-7510620D02*
X10514200Y-8704420D01*
X4474960Y-13285540D02*
G75*
G03*
X4474960Y-13234740I0J25400D01*
G01*
X4474960Y-13234740D02*
X2691880Y-13234740D01*
X2691880Y-13285540D02*
X4474960Y-13285540D01*
X2958140Y-6971409D02*
X2958140Y-12450189D01*
X3008940Y-6971409D02*
X3008940Y-12450189D01*
X2958140Y-12450189D02*
G75*
G03*
X3008940Y-12450189I25400J0D01*
G01*
D11*
D12*
X1951040Y-5781360D02*
X1991040Y-5821360D01*
X1991040Y-5781360D02*
X1951040Y-5821360D01*
X2337120Y-5954080D02*
X2377120Y-5994080D01*
X2377120Y-5954080D02*
X2337120Y-5994080D01*
X2787788Y-8117761D02*
X2827788Y-8157761D01*
X2827788Y-8117761D02*
X2787788Y-8157761D01*
X2787788Y-8691801D02*
X2827788Y-8731801D01*
X2827788Y-8691801D02*
X2787788Y-8731801D01*
X2787788Y-9291241D02*
X2827788Y-9331241D01*
X2827788Y-9291241D02*
X2787788Y-9331241D01*
X2787788Y-9850041D02*
X2827788Y-9890041D01*
X2827788Y-9850041D02*
X2787788Y-9890041D01*
X2787788Y-10403761D02*
X2827788Y-10443761D01*
X2827788Y-10403761D02*
X2787788Y-10443761D01*
X2787788Y-10952401D02*
X2827788Y-10992401D01*
X2827788Y-10952401D02*
X2787788Y-10992401D01*
X2787788Y-11511201D02*
X2827788Y-11551201D01*
X2827788Y-11511201D02*
X2787788Y-11551201D01*
X2936560Y-6665280D02*
X2976560Y-6705280D01*
X2976560Y-6665280D02*
X2936560Y-6705280D01*
X3530920Y-3911920D02*
X3570920Y-3951920D01*
X3570920Y-3911920D02*
X3530920Y-3951920D01*
X3657920Y-3911920D02*
X3697920Y-3951920D01*
X3697920Y-3911920D02*
X3657920Y-3951920D01*
X3673160Y-10749600D02*
X3713160Y-10789600D01*
X3713160Y-10749600D02*
X3673160Y-10789600D01*
X3698560Y-4724720D02*
X3738560Y-4764720D01*
X3738560Y-4724720D02*
X3698560Y-4764720D01*
X3922080Y-4572320D02*
X3962080Y-4612320D01*
X3962080Y-4572320D02*
X3922080Y-4612320D01*
X3962720Y-5385120D02*
X4002720Y-5425120D01*
X4002720Y-5385120D02*
X3962720Y-5425120D01*
X4079560Y-5293680D02*
X4119560Y-5333680D01*
X4119560Y-5293680D02*
X4079560Y-5333680D01*
X4109520Y-13006460D02*
X4149520Y-13046460D01*
X4149520Y-13006460D02*
X4109520Y-13046460D01*
X4120200Y-4618040D02*
X4160200Y-4658040D01*
X4160200Y-4618040D02*
X4120200Y-4658040D01*
X4313240Y-10246680D02*
X4353240Y-10286680D01*
X4353240Y-10246680D02*
X4313240Y-10286680D01*
X4425000Y-4714560D02*
X4465000Y-4754560D01*
X4465000Y-4714560D02*
X4425000Y-4754560D01*
X4425000Y-5364800D02*
X4465000Y-5404800D01*
X4465000Y-5364800D02*
X4425000Y-5404800D01*
X4506280Y-5303840D02*
X4546280Y-5343840D01*
X4546280Y-5303840D02*
X4506280Y-5343840D01*
X4668840Y-10678480D02*
X4708840Y-10718480D01*
X4708840Y-10678480D02*
X4668840Y-10718480D01*
X4668840Y-11029000D02*
X4708840Y-11069000D01*
X4708840Y-11029000D02*
X4668840Y-11069000D01*
X4668840Y-11664000D02*
X4708840Y-11704000D01*
X4708840Y-11664000D02*
X4668840Y-11704000D01*
X4699320Y-9870760D02*
X4739320Y-9910760D01*
X4739320Y-9870760D02*
X4699320Y-9910760D01*
X4822820Y-9765660D02*
X4862820Y-9805660D01*
X4862820Y-9765660D02*
X4822820Y-9805660D01*
X4983800Y-5324160D02*
X5023800Y-5364160D01*
X5023800Y-5324160D02*
X4983800Y-5364160D01*
X5075240Y-9662480D02*
X5115240Y-9702480D01*
X5115240Y-9662480D02*
X5075240Y-9702480D01*
X5075660Y-10552480D02*
X5115660Y-10592480D01*
X5115660Y-10552480D02*
X5075660Y-10592480D01*
X5151860Y-10473740D02*
X5191860Y-10513740D01*
X5191860Y-10473740D02*
X5151860Y-10513740D01*
X5268280Y-9916480D02*
X5308280Y-9956480D01*
X5308280Y-9916480D02*
X5268280Y-9956480D01*
X5349560Y-9789480D02*
X5389560Y-9829480D01*
X5389560Y-9789480D02*
X5349560Y-9829480D01*
X5443756Y-9822904D02*
X5483756Y-9862904D01*
X5483756Y-9822904D02*
X5443756Y-9862904D01*
X5547680Y-4826320D02*
X5587680Y-4866320D01*
X5587680Y-4826320D02*
X5547680Y-4866320D01*
X5598900Y-11451640D02*
X5638900Y-11491640D01*
X5638900Y-11451640D02*
X5598900Y-11491640D01*
X5652240Y-11568480D02*
X5692240Y-11608480D01*
X5692240Y-11568480D02*
X5652240Y-11608480D01*
X5659440Y-4826320D02*
X5699440Y-4866320D01*
X5699440Y-4826320D02*
X5659440Y-4866320D01*
X5710960Y-3455487D02*
X5750960Y-3495487D01*
X5750960Y-3455487D02*
X5710960Y-3495487D01*
X5722773Y-10160122D02*
X5762773Y-10200122D01*
X5762773Y-10160122D02*
X5722773Y-10200122D01*
X5776280Y-6595410D02*
X5816280Y-6635410D01*
X5816280Y-6595410D02*
X5776280Y-6635410D01*
X5805510Y-10216200D02*
X5845510Y-10256200D01*
X5845510Y-10216200D02*
X5805510Y-10256200D01*
X5842320Y-5796600D02*
X5882320Y-5836600D01*
X5882320Y-5796600D02*
X5842320Y-5836600D01*
X5852480Y-6670360D02*
X5892480Y-6710360D01*
X5892480Y-6670360D02*
X5852480Y-6710360D01*
X5870980Y-4293687D02*
X5910980Y-4333687D01*
X5910980Y-4293687D02*
X5870980Y-4333687D01*
X5901460Y-3450407D02*
X5941460Y-3490407D01*
X5941460Y-3450407D02*
X5901460Y-3490407D01*
X5994720Y-6863400D02*
X6034720Y-6903400D01*
X6034720Y-6863400D02*
X5994720Y-6903400D01*
X6045178Y-9758658D02*
X6085178Y-9798658D01*
X6085178Y-9758658D02*
X6045178Y-9798658D01*
X6051320Y-3473267D02*
X6091320Y-3513267D01*
X6091320Y-3473267D02*
X6051320Y-3513267D01*
X6335080Y-6858320D02*
X6375080Y-6898320D01*
X6375080Y-6858320D02*
X6335080Y-6898320D01*
X6441760Y-7300280D02*
X6481760Y-7340280D01*
X6481760Y-7300280D02*
X6441760Y-7340280D01*
X6446840Y-7940360D02*
X6486840Y-7980360D01*
X6486840Y-7940360D02*
X6446840Y-7980360D01*
X6480690Y-12813790D02*
X6520690Y-12853790D01*
X6520690Y-12813790D02*
X6480690Y-12853790D01*
X6578920Y-7925120D02*
X6618920Y-7965120D01*
X6618920Y-7925120D02*
X6578920Y-7965120D01*
X6619560Y-12466640D02*
X6659560Y-12506640D01*
X6659560Y-12466640D02*
X6619560Y-12506640D01*
X6695760Y-7879400D02*
X6735760Y-7919400D01*
X6735760Y-7879400D02*
X6695760Y-7919400D01*
X6771960Y-7996240D02*
X6811960Y-8036240D01*
X6811960Y-7996240D02*
X6771960Y-8036240D01*
X6860800Y-6865880D02*
X6900800Y-6905880D01*
X6900800Y-6865880D02*
X6860800Y-6905880D01*
X6878640Y-11531920D02*
X6918640Y-11571920D01*
X6918640Y-11531920D02*
X6878640Y-11571920D01*
X6883720Y-7523800D02*
X6923720Y-7563800D01*
X6923720Y-7523800D02*
X6883720Y-7563800D01*
X6914200Y-5791520D02*
X6954200Y-5831520D01*
X6954200Y-5791520D02*
X6914200Y-5831520D01*
X6944680Y-6304600D02*
X6984680Y-6344600D01*
X6984680Y-6304600D02*
X6944680Y-6344600D01*
X6959920Y-7371400D02*
X6999920Y-7411400D01*
X6999920Y-7371400D02*
X6959920Y-7411400D01*
X7046940Y-10096660D02*
X7086940Y-10136660D01*
X7086940Y-10096660D02*
X7046940Y-10136660D01*
X7051360Y-6421440D02*
X7091360Y-6461440D01*
X7091360Y-6421440D02*
X7051360Y-6461440D01*
X7127560Y-6517960D02*
X7167560Y-6557960D01*
X7167560Y-6517960D02*
X7127560Y-6557960D01*
X7141390Y-7386640D02*
X7181390Y-7426640D01*
X7181390Y-7386640D02*
X7141390Y-7426640D01*
X7163120Y-8473760D02*
X7203120Y-8513760D01*
X7203120Y-8473760D02*
X7163120Y-8513760D01*
X7244400Y-6761800D02*
X7284400Y-6801800D01*
X7284400Y-6761800D02*
X7244400Y-6801800D01*
X7244400Y-7376480D02*
X7284400Y-7416480D01*
X7284400Y-7376480D02*
X7244400Y-7416480D01*
X7264720Y-7249480D02*
X7304720Y-7289480D01*
X7304720Y-7249480D02*
X7264720Y-7289480D01*
X7269800Y-8555040D02*
X7309800Y-8595040D01*
X7309800Y-8555040D02*
X7269800Y-8595040D01*
X7346000Y-7335840D02*
X7386000Y-7375840D01*
X7386000Y-7335840D02*
X7346000Y-7375840D01*
X7473000Y-6533200D02*
X7513000Y-6573200D01*
X7513000Y-6533200D02*
X7473000Y-6573200D01*
X7518720Y-6761800D02*
X7558720Y-6801800D01*
X7558720Y-6761800D02*
X7518720Y-6801800D01*
X7598120Y-10096660D02*
X7638120Y-10136660D01*
X7638120Y-10096660D02*
X7598120Y-10136660D01*
X7711760Y-6462080D02*
X7751760Y-6502080D01*
X7751760Y-6462080D02*
X7711760Y-6502080D01*
X7782880Y-8123240D02*
X7822880Y-8163240D01*
X7822880Y-8123240D02*
X7782880Y-8163240D01*
X7894640Y-7854000D02*
X7934640Y-7894000D01*
X7934640Y-7854000D02*
X7894640Y-7894000D01*
X7960680Y-4140520D02*
X8000680Y-4180520D01*
X8000680Y-4140520D02*
X7960680Y-4180520D01*
X8012730Y-8072440D02*
X8052730Y-8112440D01*
X8052730Y-8072440D02*
X8012730Y-8112440D01*
X8041960Y-7965760D02*
X8081960Y-8005760D01*
X8081960Y-7965760D02*
X8041960Y-8005760D01*
X8092760Y-7772720D02*
X8132760Y-7812720D01*
X8132760Y-7772720D02*
X8092760Y-7812720D01*
X8133400Y-5034600D02*
X8173400Y-5074600D01*
X8173400Y-5034600D02*
X8133400Y-5074600D01*
X8158800Y-7691440D02*
X8198800Y-7731440D01*
X8198800Y-7691440D02*
X8158800Y-7731440D01*
X8255320Y-8397560D02*
X8295320Y-8437560D01*
X8295320Y-8397560D02*
X8255320Y-8437560D01*
X8260400Y-7655880D02*
X8300400Y-7695880D01*
X8300400Y-7655880D02*
X8260400Y-7695880D01*
X8346760Y-8295960D02*
X8386760Y-8335960D01*
X8386760Y-8295960D02*
X8346760Y-8335960D01*
X8346760Y-12878120D02*
X8386760Y-12918120D01*
X8386760Y-12878120D02*
X8346760Y-12918120D01*
X8610920Y-7488240D02*
X8650920Y-7528240D01*
X8650920Y-7488240D02*
X8610920Y-7528240D01*
X8697280Y-7412040D02*
X8737280Y-7452040D01*
X8737280Y-7412040D02*
X8697280Y-7452040D01*
X8697280Y-12867960D02*
X8737280Y-12907960D01*
X8737280Y-12867960D02*
X8697280Y-12907960D01*
X9280000Y-10280000D02*
X9320000Y-10320000D01*
X9320000Y-10280000D02*
X9280000Y-10320000D01*
X9779320Y-7417120D02*
X9819320Y-7457120D01*
X9819320Y-7417120D02*
X9779320Y-7457120D01*
X11207940Y-7792880D02*
X11247940Y-7832880D01*
X11247940Y-7792880D02*
X11207940Y-7832880D01*
X11207940Y-7993540D02*
X11247940Y-8033540D01*
X11247940Y-7993540D02*
X11207940Y-8033540D01*
X11379520Y-4790760D02*
X11419520Y-4830760D01*
X11419520Y-4790760D02*
X11379520Y-4830760D01*
X11459400Y-8384700D02*
X11499400Y-8424700D01*
X11499400Y-8384700D02*
X11459400Y-8424700D01*
X11624500Y-7828440D02*
X11664500Y-7868440D01*
X11664500Y-7828440D02*
X11624500Y-7868440D01*
X12099480Y-8232300D02*
X12139480Y-8272300D01*
X12139480Y-8232300D02*
X12099480Y-8272300D01*
D13*
X3723160Y-4185920D02*
G75*
G03*
X3723160Y-4185920I-30000J0D01*
G01*
X3900960Y-4831080D02*
G75*
G03*
X3900960Y-4831080I-30000J0D01*
G01*
X3900960Y-5283200D02*
G75*
G03*
X3900960Y-5283200I-30000J0D01*
G01*
X4104160Y-9362440D02*
G75*
G03*
X4104160Y-9362440I-30000J0D01*
G01*
X5678960Y-10556240D02*
G75*
G03*
X5678960Y-10556240I-30000J0D01*
G01*
X5678960Y-10789920D02*
G75*
G03*
X5678960Y-10789920I-30000J0D01*
G01*
X6557800Y-10480040D02*
G75*
G03*
X6557800Y-10480040I-30000J0D01*
G01*
X6679720Y-10480040D02*
G75*
G03*
X6679720Y-10480040I-30000J0D01*
G01*
X7106440Y-7645880D02*
G75*
G03*
X7106440Y-7645880I-30000J0D01*
G01*
X7426480Y-13543280D02*
G75*
G03*
X7426480Y-13543280I-30000J0D01*
G01*
X8396760Y-14462760D02*
G75*
G03*
X8396760Y-14462760I-30000J0D01*
G01*
X8580000Y-11850000D02*
G75*
G03*
X8580000Y-11850000I-30000J0D01*
G01*
X8691400Y-14569440D02*
G75*
G03*
X8691400Y-14569440I-30000J0D01*
G01*
X9219720Y-9768840D02*
G75*
G03*
X9219720Y-9768840I-30000J0D01*
G01*
X9869960Y-8199120D02*
G75*
G03*
X9869960Y-8199120I-30000J0D01*
G01*
X3210560Y-12718040D02*
X3210560Y-12778040D01*
X3180560Y-12748040D02*
X3240560Y-12748040D01*
X3210560Y-12972040D02*
X3210560Y-13032040D01*
X3180560Y-13002040D02*
X3240560Y-13002040D01*
X3210560Y-13480040D02*
X3210560Y-13540040D01*
X3180560Y-13510040D02*
X3240560Y-13510040D01*
X3210560Y-13988040D02*
X3210560Y-14048040D01*
X3180560Y-14018040D02*
X3240560Y-14018040D01*
D14*
X2877249Y-5607249D02*
X2877249Y-5557751D01*
X2827751Y-5557751D01*
X2827751Y-5607249D01*
X2877249Y-5607249D01*
X2877249Y-5734249D02*
X2877249Y-5684751D01*
X2827751Y-5684751D01*
X2827751Y-5734249D01*
X2877249Y-5734249D01*
X2877249Y-5861249D02*
X2877249Y-5811751D01*
X2827751Y-5811751D01*
X2827751Y-5861249D01*
X2877249Y-5861249D01*
X2877249Y-5988249D02*
X2877249Y-5938751D01*
X2827751Y-5938751D01*
X2827751Y-5988249D01*
X2877249Y-5988249D01*
X2877249Y-6115249D02*
X2877249Y-6065751D01*
X2827751Y-6065751D01*
X2827751Y-6115249D01*
X2877249Y-6115249D01*
X2877249Y-6242249D02*
X2877249Y-6192751D01*
X2827751Y-6192751D01*
X2827751Y-6242249D01*
X2877249Y-6242249D01*
D15*
X6333860Y-14143400D02*
X6371360Y-14105900D01*
X6333860Y-14068400D01*
X6296360Y-14105900D01*
X6333860Y-14143400D01*
X6533860Y-14143400D02*
X6571360Y-14105900D01*
X6533860Y-14068400D01*
X6496360Y-14105900D01*
X6533860Y-14143400D01*
X6733860Y-14143400D02*
X6771360Y-14105900D01*
X6733860Y-14068400D01*
X6696360Y-14105900D01*
X6733860Y-14143400D01*
X7050000Y-10847440D02*
X7087500Y-10809940D01*
X7050000Y-10772440D01*
X7012500Y-10809940D01*
X7050000Y-10847440D01*
X7250000Y-10847440D02*
X7287500Y-10809940D01*
X7250000Y-10772440D01*
X7212500Y-10809940D01*
X7250000Y-10847440D01*
X7450000Y-10847440D02*
X7487500Y-10809940D01*
X7450000Y-10772440D01*
X7412500Y-10809940D01*
X7450000Y-10847440D01*
X7650000Y-10847440D02*
X7687500Y-10809940D01*
X7650000Y-10772440D01*
X7612500Y-10809940D01*
X7650000Y-10847440D01*
X7976400Y-5586700D02*
X8013900Y-5549200D01*
X7976400Y-5511700D01*
X7938900Y-5549200D01*
X7976400Y-5586700D01*
X7976400Y-5786700D02*
X8013900Y-5749200D01*
X7976400Y-5711700D01*
X7938900Y-5749200D01*
X7976400Y-5786700D01*
X7976400Y-5986700D02*
X8013900Y-5949200D01*
X7976400Y-5911700D01*
X7938900Y-5949200D01*
X7976400Y-5986700D01*
X7976400Y-6186700D02*
X8013900Y-6149200D01*
X7976400Y-6111700D01*
X7938900Y-6149200D01*
X7976400Y-6186700D01*
D16*
X2632046Y-7539394D02*
X2712046Y-7619394D01*
X2712046Y-7539394D02*
X2632046Y-7619394D01*
X2712046Y-7579394D02*
G75*
G03*
X2712046Y-7579394I-40000J0D01*
G01*
X3830960Y-6497960D02*
X3910960Y-6577960D01*
X3910960Y-6497960D02*
X3830960Y-6577960D01*
X3910960Y-6537960D02*
G75*
G03*
X3910960Y-6537960I-40000J0D01*
G01*
X4297800Y-14468180D02*
X4377800Y-14548180D01*
X4377800Y-14468180D02*
X4297800Y-14548180D01*
X4377800Y-14508180D02*
G75*
G03*
X4377800Y-14508180I-40000J0D01*
G01*
X5126360Y-5055240D02*
X5206360Y-5135240D01*
X5206360Y-5055240D02*
X5126360Y-5135240D01*
X5206360Y-5095240D02*
G75*
G03*
X5206360Y-5095240I-40000J0D01*
G01*
X5385440Y-4973960D02*
X5465440Y-5053960D01*
X5465440Y-4973960D02*
X5385440Y-5053960D01*
X5465440Y-5013960D02*
G75*
G03*
X5465440Y-5013960I-40000J0D01*
G01*
X8471540Y-10112380D02*
X8551540Y-10192380D01*
X8551540Y-10112380D02*
X8471540Y-10192380D01*
X8551540Y-10152380D02*
G75*
G03*
X8551540Y-10152380I-40000J0D01*
G01*
X8512100Y-3429850D02*
X8592100Y-3509850D01*
X8592100Y-3429850D02*
X8512100Y-3509850D01*
X8592100Y-3469850D02*
G75*
G03*
X8592100Y-3469850I-40000J0D01*
G01*
X8528800Y-2892450D02*
X8608800Y-2972450D01*
X8608800Y-2892450D02*
X8528800Y-2972450D01*
X8608800Y-2932450D02*
G75*
G03*
X8608800Y-2932450I-40000J0D01*
G01*
X8623940Y-9959980D02*
X8703940Y-10039980D01*
X8703940Y-9959980D02*
X8623940Y-10039980D01*
X8703940Y-9999980D02*
G75*
G03*
X8703940Y-9999980I-40000J0D01*
G01*
X8773800Y-9810120D02*
X8853800Y-9890120D01*
X8853800Y-9810120D02*
X8773800Y-9890120D01*
X8853800Y-9850120D02*
G75*
G03*
X8853800Y-9850120I-40000J0D01*
G01*
X8889100Y-2892450D02*
X8969100Y-2972450D01*
X8969100Y-2892450D02*
X8889100Y-2972450D01*
X8969100Y-2932450D02*
G75*
G03*
X8969100Y-2932450I-40000J0D01*
G01*
X9426580Y-9157340D02*
X9506580Y-9237340D01*
X9506580Y-9157340D02*
X9426580Y-9237340D01*
X9506580Y-9197340D02*
G75*
G03*
X9506580Y-9197340I-40000J0D01*
G01*
X9568820Y-9015100D02*
X9648820Y-9095100D01*
X9648820Y-9015100D02*
X9568820Y-9095100D01*
X9648820Y-9055100D02*
G75*
G03*
X9648820Y-9055100I-40000J0D01*
G01*
X9693628Y-8898590D02*
X9773628Y-8978590D01*
X9773628Y-8898590D02*
X9693628Y-8978590D01*
X9773628Y-8938590D02*
G75*
G03*
X9773628Y-8938590I-40000J0D01*
G01*
X10318120Y-8768720D02*
X10398120Y-8848720D01*
X10398120Y-8768720D02*
X10318120Y-8848720D01*
X10398120Y-8808720D02*
G75*
G03*
X10398120Y-8808720I-40000J0D01*
G01*
X10588380Y-5879220D02*
X10668380Y-5959220D01*
X10668380Y-5879220D02*
X10588380Y-5959220D01*
X10668380Y-5919220D02*
G75*
G03*
X10668380Y-5919220I-40000J0D01*
G01*
X10791580Y-5676020D02*
X10871580Y-5756020D01*
X10871580Y-5676020D02*
X10791580Y-5756020D01*
X10871580Y-5716020D02*
G75*
G03*
X10871580Y-5716020I-40000J0D01*
G01*
X11001300Y-5466300D02*
X11081300Y-5546300D01*
X11081300Y-5466300D02*
X11001300Y-5546300D01*
X11081300Y-5506300D02*
G75*
G03*
X11081300Y-5506300I-40000J0D01*
G01*
X12030080Y-9952360D02*
X12110080Y-10032360D01*
X12110080Y-9952360D02*
X12030080Y-10032360D01*
X12110080Y-9992360D02*
G75*
G03*
X12110080Y-9992360I-40000J0D01*
G01*
X2560000Y-7853429D02*
X2640000Y-7933429D01*
X2640000Y-7853429D02*
X2560000Y-7933429D01*
X2600000Y-7853429D02*
X2600000Y-7933429D01*
X2560000Y-7893429D02*
X2640000Y-7893429D01*
X2560000Y-8107429D02*
X2640000Y-8187429D01*
X2640000Y-8107429D02*
X2560000Y-8187429D01*
X2600000Y-8107429D02*
X2600000Y-8187429D01*
X2560000Y-8147429D02*
X2640000Y-8147429D01*
X2560000Y-8429714D02*
X2640000Y-8509714D01*
X2640000Y-8429714D02*
X2560000Y-8509714D01*
X2600000Y-8429714D02*
X2600000Y-8509714D01*
X2560000Y-8469714D02*
X2640000Y-8469714D01*
X2560000Y-8683714D02*
X2640000Y-8763714D01*
X2640000Y-8683714D02*
X2560000Y-8763714D01*
X2600000Y-8683714D02*
X2600000Y-8763714D01*
X2560000Y-8723714D02*
X2640000Y-8723714D01*
X2560000Y-9006000D02*
X2640000Y-9086000D01*
X2640000Y-9006000D02*
X2560000Y-9086000D01*
X2600000Y-9006000D02*
X2600000Y-9086000D01*
X2560000Y-9046000D02*
X2640000Y-9046000D01*
X2560000Y-9260000D02*
X2640000Y-9340000D01*
X2640000Y-9260000D02*
X2560000Y-9340000D01*
X2600000Y-9260000D02*
X2600000Y-9340000D01*
X2560000Y-9300000D02*
X2640000Y-9300000D01*
X2560000Y-9582286D02*
X2640000Y-9662286D01*
X2640000Y-9582286D02*
X2560000Y-9662286D01*
X2600000Y-9582286D02*
X2600000Y-9662286D01*
X2560000Y-9622286D02*
X2640000Y-9622286D01*
X2560000Y-9836286D02*
X2640000Y-9916286D01*
X2640000Y-9836286D02*
X2560000Y-9916286D01*
X2600000Y-9836286D02*
X2600000Y-9916286D01*
X2560000Y-9876286D02*
X2640000Y-9876286D01*
X2560000Y-10158571D02*
X2640000Y-10238571D01*
X2640000Y-10158571D02*
X2560000Y-10238571D01*
X2600000Y-10158571D02*
X2600000Y-10238571D01*
X2560000Y-10198571D02*
X2640000Y-10198571D01*
X2560000Y-10412571D02*
X2640000Y-10492571D01*
X2640000Y-10412571D02*
X2560000Y-10492571D01*
X2600000Y-10412571D02*
X2600000Y-10492571D01*
X2560000Y-10452571D02*
X2640000Y-10452571D01*
X2560000Y-10734857D02*
X2640000Y-10814857D01*
X2640000Y-10734857D02*
X2560000Y-10814857D01*
X2600000Y-10734857D02*
X2600000Y-10814857D01*
X2560000Y-10774857D02*
X2640000Y-10774857D01*
X2560000Y-10988857D02*
X2640000Y-11068857D01*
X2640000Y-10988857D02*
X2560000Y-11068857D01*
X2600000Y-10988857D02*
X2600000Y-11068857D01*
X2560000Y-11028857D02*
X2640000Y-11028857D01*
X2560000Y-11311143D02*
X2640000Y-11391143D01*
X2640000Y-11311143D02*
X2560000Y-11391143D01*
X2600000Y-11311143D02*
X2600000Y-11391143D01*
X2560000Y-11351143D02*
X2640000Y-11351143D01*
X2560000Y-11565143D02*
X2640000Y-11645143D01*
X2640000Y-11565143D02*
X2560000Y-11645143D01*
X2600000Y-11565143D02*
X2600000Y-11645143D01*
X2560000Y-11605143D02*
X2640000Y-11605143D01*
X2560000Y-11887429D02*
X2640000Y-11967429D01*
X2640000Y-11887429D02*
X2560000Y-11967429D01*
X2600000Y-11887429D02*
X2600000Y-11967429D01*
X2560000Y-11927429D02*
X2640000Y-11927429D01*
X2560000Y-12141429D02*
X2640000Y-12221429D01*
X2640000Y-12141429D02*
X2560000Y-12221429D01*
X2600000Y-12141429D02*
X2600000Y-12221429D01*
X2560000Y-12181429D02*
X2640000Y-12181429D01*
X2562540Y-7038089D02*
X2642540Y-7118089D01*
X2642540Y-7038089D02*
X2562540Y-7118089D01*
X2602540Y-7038089D02*
X2602540Y-7118089D01*
X2562540Y-7078089D02*
X2642540Y-7078089D01*
X2816540Y-7038089D02*
X2896540Y-7118089D01*
X2896540Y-7038089D02*
X2816540Y-7118089D01*
X2856540Y-7038089D02*
X2856540Y-7118089D01*
X2816540Y-7078089D02*
X2896540Y-7078089D01*
X3070540Y-7038089D02*
X3150540Y-7118089D01*
X3150540Y-7038089D02*
X3070540Y-7118089D01*
X3110540Y-7038089D02*
X3110540Y-7118089D01*
X3070540Y-7078089D02*
X3150540Y-7078089D01*
X3254900Y-3544300D02*
X3334900Y-3624300D01*
X3334900Y-3544300D02*
X3254900Y-3624300D01*
X3294900Y-3544300D02*
X3294900Y-3624300D01*
X3254900Y-3584300D02*
X3334900Y-3584300D01*
X3259980Y-2411460D02*
X3339980Y-2491460D01*
X3339980Y-2411460D02*
X3259980Y-2491460D01*
X3299980Y-2411460D02*
X3299980Y-2491460D01*
X3259980Y-2451460D02*
X3339980Y-2451460D01*
X3322000Y-7853429D02*
X3402000Y-7933429D01*
X3402000Y-7853429D02*
X3322000Y-7933429D01*
X3362000Y-7853429D02*
X3362000Y-7933429D01*
X3322000Y-7893429D02*
X3402000Y-7893429D01*
X3322000Y-8107429D02*
X3402000Y-8187429D01*
X3402000Y-8107429D02*
X3322000Y-8187429D01*
X3362000Y-8107429D02*
X3362000Y-8187429D01*
X3322000Y-8147429D02*
X3402000Y-8147429D01*
X3322000Y-8429714D02*
X3402000Y-8509714D01*
X3402000Y-8429714D02*
X3322000Y-8509714D01*
X3362000Y-8429714D02*
X3362000Y-8509714D01*
X3322000Y-8469714D02*
X3402000Y-8469714D01*
X3322000Y-8683714D02*
X3402000Y-8763714D01*
X3402000Y-8683714D02*
X3322000Y-8763714D01*
X3362000Y-8683714D02*
X3362000Y-8763714D01*
X3322000Y-8723714D02*
X3402000Y-8723714D01*
X3322000Y-9006000D02*
X3402000Y-9086000D01*
X3402000Y-9006000D02*
X3322000Y-9086000D01*
X3362000Y-9006000D02*
X3362000Y-9086000D01*
X3322000Y-9046000D02*
X3402000Y-9046000D01*
X3322000Y-9260000D02*
X3402000Y-9340000D01*
X3402000Y-9260000D02*
X3322000Y-9340000D01*
X3362000Y-9260000D02*
X3362000Y-9340000D01*
X3322000Y-9300000D02*
X3402000Y-9300000D01*
X3322000Y-9582286D02*
X3402000Y-9662286D01*
X3402000Y-9582286D02*
X3322000Y-9662286D01*
X3362000Y-9582286D02*
X3362000Y-9662286D01*
X3322000Y-9622286D02*
X3402000Y-9622286D01*
X3322000Y-9836286D02*
X3402000Y-9916286D01*
X3402000Y-9836286D02*
X3322000Y-9916286D01*
X3362000Y-9836286D02*
X3362000Y-9916286D01*
X3322000Y-9876286D02*
X3402000Y-9876286D01*
X3322000Y-10158571D02*
X3402000Y-10238571D01*
X3402000Y-10158571D02*
X3322000Y-10238571D01*
X3362000Y-10158571D02*
X3362000Y-10238571D01*
X3322000Y-10198571D02*
X3402000Y-10198571D01*
X3322000Y-10412571D02*
X3402000Y-10492571D01*
X3402000Y-10412571D02*
X3322000Y-10492571D01*
X3362000Y-10412571D02*
X3362000Y-10492571D01*
X3322000Y-10452571D02*
X3402000Y-10452571D01*
X3322000Y-10734857D02*
X3402000Y-10814857D01*
X3402000Y-10734857D02*
X3322000Y-10814857D01*
X3362000Y-10734857D02*
X3362000Y-10814857D01*
X3322000Y-10774857D02*
X3402000Y-10774857D01*
X3322000Y-10988857D02*
X3402000Y-11068857D01*
X3402000Y-10988857D02*
X3322000Y-11068857D01*
X3362000Y-10988857D02*
X3362000Y-11068857D01*
X3322000Y-11028857D02*
X3402000Y-11028857D01*
X3322000Y-11311143D02*
X3402000Y-11391143D01*
X3402000Y-11311143D02*
X3322000Y-11391143D01*
X3362000Y-11311143D02*
X3362000Y-11391143D01*
X3322000Y-11351143D02*
X3402000Y-11351143D01*
X3322000Y-11565143D02*
X3402000Y-11645143D01*
X3402000Y-11565143D02*
X3322000Y-11645143D01*
X3362000Y-11565143D02*
X3362000Y-11645143D01*
X3322000Y-11605143D02*
X3402000Y-11605143D01*
X3322000Y-11887429D02*
X3402000Y-11967429D01*
X3402000Y-11887429D02*
X3322000Y-11967429D01*
X3362000Y-11887429D02*
X3362000Y-11967429D01*
X3322000Y-11927429D02*
X3402000Y-11927429D01*
X3322000Y-12141429D02*
X3402000Y-12221429D01*
X3402000Y-12141429D02*
X3322000Y-12221429D01*
X3362000Y-12141429D02*
X3362000Y-12221429D01*
X3322000Y-12181429D02*
X3402000Y-12181429D01*
X3324540Y-7038089D02*
X3404540Y-7118089D01*
X3404540Y-7038089D02*
X3324540Y-7118089D01*
X3364540Y-7038089D02*
X3364540Y-7118089D01*
X3324540Y-7078089D02*
X3404540Y-7078089D01*
X3508900Y-3544300D02*
X3588900Y-3624300D01*
X3588900Y-3544300D02*
X3508900Y-3624300D01*
X3548900Y-3544300D02*
X3548900Y-3624300D01*
X3508900Y-3584300D02*
X3588900Y-3584300D01*
X3513980Y-2411460D02*
X3593980Y-2491460D01*
X3593980Y-2411460D02*
X3513980Y-2491460D01*
X3553980Y-2411460D02*
X3553980Y-2491460D01*
X3513980Y-2451460D02*
X3593980Y-2451460D01*
X3762900Y-3544300D02*
X3842900Y-3624300D01*
X3842900Y-3544300D02*
X3762900Y-3624300D01*
X3802900Y-3544300D02*
X3802900Y-3624300D01*
X3762900Y-3584300D02*
X3842900Y-3584300D01*
X3767980Y-2411460D02*
X3847980Y-2491460D01*
X3847980Y-2411460D02*
X3767980Y-2491460D01*
X3807980Y-2411460D02*
X3807980Y-2491460D01*
X3767980Y-2451460D02*
X3847980Y-2451460D01*
X4725460Y-12031790D02*
X4805460Y-12111790D01*
X4805460Y-12031790D02*
X4725460Y-12111790D01*
X4765460Y-12031790D02*
X4765460Y-12111790D01*
X4725460Y-12071790D02*
X4805460Y-12071790D01*
X4725460Y-12793790D02*
X4805460Y-12873790D01*
X4805460Y-12793790D02*
X4725460Y-12873790D01*
X4765460Y-12793790D02*
X4765460Y-12873790D01*
X4725460Y-12833790D02*
X4805460Y-12833790D01*
X4898480Y-3712347D02*
X4978480Y-3792347D01*
X4978480Y-3712347D02*
X4898480Y-3792347D01*
X4938480Y-3712347D02*
X4938480Y-3792347D01*
X4898480Y-3752347D02*
X4978480Y-3752347D01*
X4898480Y-3966347D02*
X4978480Y-4046347D01*
X4978480Y-3966347D02*
X4898480Y-4046347D01*
X4938480Y-3966347D02*
X4938480Y-4046347D01*
X4898480Y-4006347D02*
X4978480Y-4006347D01*
X4898480Y-4220347D02*
X4978480Y-4300347D01*
X4978480Y-4220347D02*
X4898480Y-4300347D01*
X4938480Y-4220347D02*
X4938480Y-4300347D01*
X4898480Y-4260347D02*
X4978480Y-4260347D01*
X4898480Y-4474347D02*
X4978480Y-4554347D01*
X4978480Y-4474347D02*
X4898480Y-4554347D01*
X4938480Y-4474347D02*
X4938480Y-4554347D01*
X4898480Y-4514347D02*
X4978480Y-4514347D01*
X4979460Y-12031790D02*
X5059460Y-12111790D01*
X5059460Y-12031790D02*
X4979460Y-12111790D01*
X5019460Y-12031790D02*
X5019460Y-12111790D01*
X4979460Y-12071790D02*
X5059460Y-12071790D01*
X4979460Y-12793790D02*
X5059460Y-12873790D01*
X5059460Y-12793790D02*
X4979460Y-12873790D01*
X5019460Y-12793790D02*
X5019460Y-12873790D01*
X4979460Y-12833790D02*
X5059460Y-12833790D01*
X5233460Y-12031790D02*
X5313460Y-12111790D01*
X5313460Y-12031790D02*
X5233460Y-12111790D01*
X5273460Y-12031790D02*
X5273460Y-12111790D01*
X5233460Y-12071790D02*
X5313460Y-12071790D01*
X5233460Y-12793790D02*
X5313460Y-12873790D01*
X5313460Y-12793790D02*
X5233460Y-12873790D01*
X5273460Y-12793790D02*
X5273460Y-12873790D01*
X5233460Y-12833790D02*
X5313460Y-12833790D01*
X5487460Y-12031790D02*
X5567460Y-12111790D01*
X5567460Y-12031790D02*
X5487460Y-12111790D01*
X5527460Y-12031790D02*
X5527460Y-12111790D01*
X5487460Y-12071790D02*
X5567460Y-12071790D01*
X5487460Y-12793790D02*
X5567460Y-12873790D01*
X5567460Y-12793790D02*
X5487460Y-12873790D01*
X5527460Y-12793790D02*
X5527460Y-12873790D01*
X5487460Y-12833790D02*
X5567460Y-12833790D01*
X5727860Y-7187620D02*
X5807860Y-7267620D01*
X5807860Y-7187620D02*
X5727860Y-7267620D01*
X5767860Y-7187620D02*
X5767860Y-7267620D01*
X5727860Y-7227620D02*
X5807860Y-7227620D01*
X5727860Y-7675620D02*
X5807860Y-7755620D01*
X5807860Y-7675620D02*
X5727860Y-7755620D01*
X5767860Y-7675620D02*
X5767860Y-7755620D01*
X5727860Y-7715620D02*
X5807860Y-7715620D01*
X6179460Y-3640460D02*
X6259460Y-3720460D01*
X6259460Y-3640460D02*
X6179460Y-3720460D01*
X6219460Y-3640460D02*
X6219460Y-3720460D01*
X6179460Y-3680460D02*
X6259460Y-3680460D01*
X6941460Y-3640460D02*
X7021460Y-3720460D01*
X7021460Y-3640460D02*
X6941460Y-3720460D01*
X6981460Y-3640460D02*
X6981460Y-3720460D01*
X6941460Y-3680460D02*
X7021460Y-3680460D01*
X9489835Y-3201250D02*
X9569835Y-3281250D01*
X9569835Y-3201250D02*
X9489835Y-3281250D01*
X9529835Y-3201250D02*
X9529835Y-3281250D01*
X9489835Y-3241250D02*
X9569835Y-3241250D01*
X9839835Y-3201250D02*
X9919835Y-3281250D01*
X9919835Y-3201250D02*
X9839835Y-3281250D01*
X9879835Y-3201250D02*
X9879835Y-3281250D01*
X9839835Y-3241250D02*
X9919835Y-3241250D01*
X11649000Y-2261285D02*
X11729000Y-2341285D01*
X11729000Y-2261285D02*
X11649000Y-2341285D01*
X11689000Y-2261285D02*
X11689000Y-2341285D01*
X11649000Y-2301285D02*
X11729000Y-2301285D01*
X11649000Y-2611285D02*
X11729000Y-2691285D01*
X11729000Y-2611285D02*
X11649000Y-2691285D01*
X11689000Y-2611285D02*
X11689000Y-2691285D01*
X11649000Y-2651285D02*
X11729000Y-2651285D01*
X11814100Y-3404450D02*
X11894100Y-3484450D01*
X11894100Y-3404450D02*
X11814100Y-3484450D01*
X11854100Y-3404450D02*
X11854100Y-3484450D01*
X11814100Y-3444450D02*
X11894100Y-3444450D01*
X11814100Y-3754450D02*
X11894100Y-3834450D01*
X11894100Y-3754450D02*
X11814100Y-3834450D01*
X11854100Y-3754450D02*
X11854100Y-3834450D01*
X11814100Y-3794450D02*
X11894100Y-3794450D01*
D17*
X12683000Y-7596920D02*
X12775000Y-7688920D01*
X12775000Y-7596920D02*
X12683000Y-7688920D01*
X12761527Y-7675447D02*
X12761527Y-7610393D01*
X12696473Y-7610393D01*
X12696473Y-7675447D01*
X12761527Y-7675447D01*
X12683000Y-7846920D02*
X12775000Y-7938920D01*
X12775000Y-7846920D02*
X12683000Y-7938920D01*
X12761527Y-7925447D02*
X12761527Y-7860393D01*
X12696473Y-7860393D01*
X12696473Y-7925447D01*
X12761527Y-7925447D01*
X12883000Y-7596920D02*
X12975000Y-7688920D01*
X12975000Y-7596920D02*
X12883000Y-7688920D01*
X12961527Y-7675447D02*
X12961527Y-7610393D01*
X12896473Y-7610393D01*
X12896473Y-7675447D01*
X12961527Y-7675447D01*
X12883000Y-7846920D02*
X12975000Y-7938920D01*
X12975000Y-7846920D02*
X12883000Y-7938920D01*
X12961527Y-7925447D02*
X12961527Y-7860393D01*
X12896473Y-7860393D01*
X12896473Y-7925447D01*
X12961527Y-7925447D01*
D18*
X3820000Y-5950000D02*
X3920000Y-6050000D01*
X3920000Y-5950000D02*
X3820000Y-6050000D01*
X3870000Y-6050000D02*
X3920000Y-6000000D01*
X3870000Y-5950000D01*
X3820000Y-6000000D01*
X3870000Y-6050000D01*
X4141420Y-10649480D02*
X4241420Y-10749480D01*
X4241420Y-10649480D02*
X4141420Y-10749480D01*
X4191420Y-10749480D02*
X4241420Y-10699480D01*
X4191420Y-10649480D01*
X4141420Y-10699480D01*
X4191420Y-10749480D01*
X4141420Y-11000000D02*
X4241420Y-11100000D01*
X4241420Y-11000000D02*
X4141420Y-11100000D01*
X4191420Y-11100000D02*
X4241420Y-11050000D01*
X4191420Y-11000000D01*
X4141420Y-11050000D01*
X4191420Y-11100000D01*
X4141420Y-11355600D02*
X4241420Y-11455600D01*
X4241420Y-11355600D02*
X4141420Y-11455600D01*
X4191420Y-11455600D02*
X4241420Y-11405600D01*
X4191420Y-11355600D01*
X4141420Y-11405600D01*
X4191420Y-11455600D01*
X4141420Y-11711200D02*
X4241420Y-11811200D01*
X4241420Y-11711200D02*
X4141420Y-11811200D01*
X4191420Y-11811200D02*
X4241420Y-11761200D01*
X4191420Y-11711200D01*
X4141420Y-11761200D01*
X4191420Y-11811200D01*
X4580000Y-5950000D02*
X4680000Y-6050000D01*
X4680000Y-5950000D02*
X4580000Y-6050000D01*
X4630000Y-6050000D02*
X4680000Y-6000000D01*
X4630000Y-5950000D01*
X4580000Y-6000000D01*
X4630000Y-6050000D01*
X5357100Y-2591600D02*
X5457100Y-2691600D01*
X5457100Y-2591600D02*
X5357100Y-2691600D01*
X5407100Y-2691600D02*
X5457100Y-2641600D01*
X5407100Y-2591600D01*
X5357100Y-2641600D01*
X5407100Y-2691600D01*
X5495600Y-2307600D02*
X5595600Y-2407600D01*
X5595600Y-2307600D02*
X5495600Y-2407600D01*
X5545600Y-2407600D02*
X5595600Y-2357600D01*
X5545600Y-2307600D01*
X5495600Y-2357600D01*
X5545600Y-2407600D01*
X5634100Y-2591600D02*
X5734100Y-2691600D01*
X5734100Y-2591600D02*
X5634100Y-2691600D01*
X5684100Y-2691600D02*
X5734100Y-2641600D01*
X5684100Y-2591600D01*
X5634100Y-2641600D01*
X5684100Y-2691600D01*
X5772600Y-2307600D02*
X5872600Y-2407600D01*
X5872600Y-2307600D02*
X5772600Y-2407600D01*
X5822600Y-2407600D02*
X5872600Y-2357600D01*
X5822600Y-2307600D01*
X5772600Y-2357600D01*
X5822600Y-2407600D01*
X5911100Y-2591600D02*
X6011100Y-2691600D01*
X6011100Y-2591600D02*
X5911100Y-2691600D01*
X5961100Y-2691600D02*
X6011100Y-2641600D01*
X5961100Y-2591600D01*
X5911100Y-2641600D01*
X5961100Y-2691600D01*
X6049600Y-2307600D02*
X6149600Y-2407600D01*
X6149600Y-2307600D02*
X6049600Y-2407600D01*
X6099600Y-2407600D02*
X6149600Y-2357600D01*
X6099600Y-2307600D01*
X6049600Y-2357600D01*
X6099600Y-2407600D01*
X6097220Y-10646940D02*
X6197220Y-10746940D01*
X6197220Y-10646940D02*
X6097220Y-10746940D01*
X6147220Y-10746940D02*
X6197220Y-10696940D01*
X6147220Y-10646940D01*
X6097220Y-10696940D01*
X6147220Y-10746940D01*
X6097220Y-11002540D02*
X6197220Y-11102540D01*
X6197220Y-11002540D02*
X6097220Y-11102540D01*
X6147220Y-11102540D02*
X6197220Y-11052540D01*
X6147220Y-11002540D01*
X6097220Y-11052540D01*
X6147220Y-11102540D01*
X6097220Y-11358140D02*
X6197220Y-11458140D01*
X6197220Y-11358140D02*
X6097220Y-11458140D01*
X6147220Y-11458140D02*
X6197220Y-11408140D01*
X6147220Y-11358140D01*
X6097220Y-11408140D01*
X6147220Y-11458140D01*
X6097220Y-11713740D02*
X6197220Y-11813740D01*
X6197220Y-11713740D02*
X6097220Y-11813740D01*
X6147220Y-11813740D02*
X6197220Y-11763740D01*
X6147220Y-11713740D01*
X6097220Y-11763740D01*
X6147220Y-11813740D01*
X6188100Y-2591600D02*
X6288100Y-2691600D01*
X6288100Y-2591600D02*
X6188100Y-2691600D01*
X6238100Y-2691600D02*
X6288100Y-2641600D01*
X6238100Y-2591600D01*
X6188100Y-2641600D01*
X6238100Y-2691600D01*
X6326600Y-2307600D02*
X6426600Y-2407600D01*
X6426600Y-2307600D02*
X6326600Y-2407600D01*
X6376600Y-2407600D02*
X6426600Y-2357600D01*
X6376600Y-2307600D01*
X6326600Y-2357600D01*
X6376600Y-2407600D01*
X6465100Y-2591600D02*
X6565100Y-2691600D01*
X6565100Y-2591600D02*
X6465100Y-2691600D01*
X6515100Y-2691600D02*
X6565100Y-2641600D01*
X6515100Y-2591600D01*
X6465100Y-2641600D01*
X6515100Y-2691600D01*
X7437920Y-6259360D02*
X7537920Y-6359360D01*
X7537920Y-6259360D02*
X7437920Y-6359360D01*
X7487920Y-6359360D02*
X7537920Y-6309360D01*
X7487920Y-6259360D01*
X7437920Y-6309360D01*
X7487920Y-6359360D01*
X7509040Y-9048280D02*
X7609040Y-9148280D01*
X7609040Y-9048280D02*
X7509040Y-9148280D01*
X7559040Y-9148280D02*
X7609040Y-9098280D01*
X7559040Y-9048280D01*
X7509040Y-9098280D01*
X7559040Y-9148280D01*
X7509040Y-9419120D02*
X7609040Y-9519120D01*
X7609040Y-9419120D02*
X7509040Y-9519120D01*
X7559040Y-9519120D02*
X7609040Y-9469120D01*
X7559040Y-9419120D01*
X7509040Y-9469120D01*
X7559040Y-9519120D01*
X8178960Y-14819570D02*
X8278960Y-14919570D01*
X8278960Y-14819570D02*
X8178960Y-14919570D01*
X8228960Y-14919570D02*
X8278960Y-14869570D01*
X8228960Y-14819570D01*
X8178960Y-14869570D01*
X8228960Y-14919570D01*
X8178960Y-15073570D02*
X8278960Y-15173570D01*
X8278960Y-15073570D02*
X8178960Y-15173570D01*
X8228960Y-15173570D02*
X8278960Y-15123570D01*
X8228960Y-15073570D01*
X8178960Y-15123570D01*
X8228960Y-15173570D01*
X8178960Y-15327570D02*
X8278960Y-15427570D01*
X8278960Y-15327570D02*
X8178960Y-15427570D01*
X8228960Y-15427570D02*
X8278960Y-15377570D01*
X8228960Y-15327570D01*
X8178960Y-15377570D01*
X8228960Y-15427570D01*
X8650000Y-4450000D02*
X8750000Y-4550000D01*
X8750000Y-4450000D02*
X8650000Y-4550000D01*
X8700000Y-4550000D02*
X8750000Y-4500000D01*
X8700000Y-4450000D01*
X8650000Y-4500000D01*
X8700000Y-4550000D01*
X8967000Y-7544600D02*
X9067000Y-7644600D01*
X9067000Y-7544600D02*
X8967000Y-7644600D01*
X9017000Y-7644600D02*
X9067000Y-7594600D01*
X9017000Y-7544600D01*
X8967000Y-7594600D01*
X9017000Y-7644600D01*
X9050000Y-4450000D02*
X9150000Y-4550000D01*
X9150000Y-4450000D02*
X9050000Y-4550000D01*
X9100000Y-4550000D02*
X9150000Y-4500000D01*
X9100000Y-4450000D01*
X9050000Y-4500000D01*
X9100000Y-4550000D01*
X9092000Y-11250000D02*
X9192000Y-11350000D01*
X9192000Y-11250000D02*
X9092000Y-11350000D01*
X9142000Y-11350000D02*
X9192000Y-11300000D01*
X9142000Y-11250000D01*
X9092000Y-11300000D01*
X9142000Y-11350000D01*
X9097500Y-10550000D02*
X9197500Y-10650000D01*
X9197500Y-10550000D02*
X9097500Y-10650000D01*
X9147500Y-10650000D02*
X9197500Y-10600000D01*
X9147500Y-10550000D01*
X9097500Y-10600000D01*
X9147500Y-10650000D01*
X9346000Y-11250000D02*
X9446000Y-11350000D01*
X9446000Y-11250000D02*
X9346000Y-11350000D01*
X9396000Y-11350000D02*
X9446000Y-11300000D01*
X9396000Y-11250000D01*
X9346000Y-11300000D01*
X9396000Y-11350000D01*
X9351500Y-10550000D02*
X9451500Y-10650000D01*
X9451500Y-10550000D02*
X9351500Y-10650000D01*
X9401500Y-10650000D02*
X9451500Y-10600000D01*
X9401500Y-10550000D01*
X9351500Y-10600000D01*
X9401500Y-10650000D01*
X9566520Y-14785817D02*
X9666520Y-14885817D01*
X9666520Y-14785817D02*
X9566520Y-14885817D01*
X9616520Y-14885817D02*
X9666520Y-14835817D01*
X9616520Y-14785817D01*
X9566520Y-14835817D01*
X9616520Y-14885817D01*
X9600000Y-11250000D02*
X9700000Y-11350000D01*
X9700000Y-11250000D02*
X9600000Y-11350000D01*
X9650000Y-11350000D02*
X9700000Y-11300000D01*
X9650000Y-11250000D01*
X9600000Y-11300000D01*
X9650000Y-11350000D01*
X9605500Y-10550000D02*
X9705500Y-10650000D01*
X9705500Y-10550000D02*
X9605500Y-10650000D01*
X9655500Y-10650000D02*
X9705500Y-10600000D01*
X9655500Y-10550000D01*
X9605500Y-10600000D01*
X9655500Y-10650000D01*
X9705020Y-15069817D02*
X9805020Y-15169817D01*
X9805020Y-15069817D02*
X9705020Y-15169817D01*
X9755020Y-15169817D02*
X9805020Y-15119817D01*
X9755020Y-15069817D01*
X9705020Y-15119817D01*
X9755020Y-15169817D01*
X9843520Y-14785817D02*
X9943520Y-14885817D01*
X9943520Y-14785817D02*
X9843520Y-14885817D01*
X9893520Y-14885817D02*
X9943520Y-14835817D01*
X9893520Y-14785817D01*
X9843520Y-14835817D01*
X9893520Y-14885817D01*
X9982020Y-15069817D02*
X10082020Y-15169817D01*
X10082020Y-15069817D02*
X9982020Y-15169817D01*
X10032020Y-15169817D02*
X10082020Y-15119817D01*
X10032020Y-15069817D01*
X9982020Y-15119817D01*
X10032020Y-15169817D01*
X10089600Y-5215000D02*
X10189600Y-5315000D01*
X10189600Y-5215000D02*
X10089600Y-5315000D01*
X10139600Y-5315000D02*
X10189600Y-5265000D01*
X10139600Y-5215000D01*
X10089600Y-5265000D01*
X10139600Y-5315000D01*
X10120520Y-14785817D02*
X10220520Y-14885817D01*
X10220520Y-14785817D02*
X10120520Y-14885817D01*
X10170520Y-14885817D02*
X10220520Y-14835817D01*
X10170520Y-14785817D01*
X10120520Y-14835817D01*
X10170520Y-14885817D01*
X10250000Y-3330950D02*
X10350000Y-3430950D01*
X10350000Y-3330950D02*
X10250000Y-3430950D01*
X10300000Y-3430950D02*
X10350000Y-3380950D01*
X10300000Y-3330950D01*
X10250000Y-3380950D01*
X10300000Y-3430950D01*
X10259020Y-15069817D02*
X10359020Y-15169817D01*
X10359020Y-15069817D02*
X10259020Y-15169817D01*
X10309020Y-15169817D02*
X10359020Y-15119817D01*
X10309020Y-15069817D01*
X10259020Y-15119817D01*
X10309020Y-15169817D01*
X10397520Y-14785817D02*
X10497520Y-14885817D01*
X10497520Y-14785817D02*
X10397520Y-14885817D01*
X10447520Y-14885817D02*
X10497520Y-14835817D01*
X10447520Y-14785817D01*
X10397520Y-14835817D01*
X10447520Y-14885817D01*
X10536020Y-15069817D02*
X10636020Y-15169817D01*
X10636020Y-15069817D02*
X10536020Y-15169817D01*
X10586020Y-15169817D02*
X10636020Y-15119817D01*
X10586020Y-15069817D01*
X10536020Y-15119817D01*
X10586020Y-15169817D01*
X10674520Y-14785817D02*
X10774520Y-14885817D01*
X10774520Y-14785817D02*
X10674520Y-14885817D01*
X10724520Y-14885817D02*
X10774520Y-14835817D01*
X10724520Y-14785817D01*
X10674520Y-14835817D01*
X10724520Y-14885817D01*
X11250000Y-3330950D02*
X11350000Y-3430950D01*
X11350000Y-3330950D02*
X11250000Y-3430950D01*
X11300000Y-3430950D02*
X11350000Y-3380950D01*
X11300000Y-3330950D01*
X11250000Y-3380950D01*
X11300000Y-3430950D01*
X12108340Y-14819570D02*
X12208340Y-14919570D01*
X12208340Y-14819570D02*
X12108340Y-14919570D01*
X12158340Y-14919570D02*
X12208340Y-14869570D01*
X12158340Y-14819570D01*
X12108340Y-14869570D01*
X12158340Y-14919570D01*
X12108340Y-15073570D02*
X12208340Y-15173570D01*
X12208340Y-15073570D02*
X12108340Y-15173570D01*
X12158340Y-15173570D02*
X12208340Y-15123570D01*
X12158340Y-15073570D01*
X12108340Y-15123570D01*
X12158340Y-15173570D01*
X12108340Y-15327570D02*
X12208340Y-15427570D01*
X12208340Y-15327570D02*
X12108340Y-15427570D01*
X12158340Y-15427570D02*
X12208340Y-15377570D01*
X12158340Y-15327570D01*
X12108340Y-15377570D01*
X12158340Y-15427570D01*
X12950000Y-5700000D02*
X13050000Y-5800000D01*
X13050000Y-5700000D02*
X12950000Y-5800000D01*
X13000000Y-5800000D02*
X13050000Y-5750000D01*
X13000000Y-5700000D01*
X12950000Y-5750000D01*
X13000000Y-5800000D01*
X12950000Y-6100000D02*
X13050000Y-6200000D01*
X13050000Y-6100000D02*
X12950000Y-6200000D01*
X13000000Y-6200000D02*
X13050000Y-6150000D01*
X13000000Y-6100000D01*
X12950000Y-6150000D01*
X13000000Y-6200000D01*
D19*
X10129800Y-2393850D02*
X10129800Y-2503850D01*
X10074800Y-2448850D02*
X10184800Y-2448850D01*
X10184800Y-2448850D02*
G75*
G03*
X10184800Y-2448850I-55000J0D01*
G01*
X10299800Y-2763850D02*
X10299800Y-2873850D01*
X10244800Y-2818850D02*
X10354800Y-2818850D01*
X10354800Y-2818850D02*
G75*
G03*
X10354800Y-2818850I-55000J0D01*
G01*
X10469800Y-2393850D02*
X10469800Y-2503850D01*
X10414800Y-2448850D02*
X10524800Y-2448850D01*
X10524800Y-2448850D02*
G75*
G03*
X10524800Y-2448850I-55000J0D01*
G01*
X10639800Y-2763850D02*
X10639800Y-2873850D01*
X10584800Y-2818850D02*
X10694800Y-2818850D01*
X10694800Y-2818850D02*
G75*
G03*
X10694800Y-2818850I-55000J0D01*
G01*
X10809800Y-2393850D02*
X10809800Y-2503850D01*
X10754800Y-2448850D02*
X10864800Y-2448850D01*
X10864800Y-2448850D02*
G75*
G03*
X10864800Y-2448850I-55000J0D01*
G01*
D20*
X1910767Y-8082323D02*
X1910767Y-7997469D01*
X1825913Y-7997469D01*
X1825913Y-8082323D01*
X1910767Y-8082323D01*
X1928340Y-8039896D02*
G75*
G03*
X1928340Y-8039896I-60000J0D01*
G01*
X1910767Y-8590323D02*
X1910767Y-8505469D01*
X1825913Y-8505469D01*
X1825913Y-8590323D01*
X1910767Y-8590323D01*
X1928340Y-8547896D02*
G75*
G03*
X1928340Y-8547896I-60000J0D01*
G01*
X1910767Y-9098323D02*
X1910767Y-9013469D01*
X1825913Y-9013469D01*
X1825913Y-9098323D01*
X1910767Y-9098323D01*
X1928340Y-9055896D02*
G75*
G03*
X1928340Y-9055896I-60000J0D01*
G01*
X1910767Y-9606323D02*
X1910767Y-9521469D01*
X1825913Y-9521469D01*
X1825913Y-9606323D01*
X1910767Y-9606323D01*
X1928340Y-9563896D02*
G75*
G03*
X1928340Y-9563896I-60000J0D01*
G01*
X1910767Y-10114323D02*
X1910767Y-10029469D01*
X1825913Y-10029469D01*
X1825913Y-10114323D01*
X1910767Y-10114323D01*
X1928340Y-10071896D02*
G75*
G03*
X1928340Y-10071896I-60000J0D01*
G01*
X1910767Y-10622323D02*
X1910767Y-10537469D01*
X1825913Y-10537469D01*
X1825913Y-10622323D01*
X1910767Y-10622323D01*
X1928340Y-10579896D02*
G75*
G03*
X1928340Y-10579896I-60000J0D01*
G01*
X1910767Y-11130323D02*
X1910767Y-11045469D01*
X1825913Y-11045469D01*
X1825913Y-11130323D01*
X1910767Y-11130323D01*
X1928340Y-11087896D02*
G75*
G03*
X1928340Y-11087896I-60000J0D01*
G01*
X1910767Y-11638323D02*
X1910767Y-11553469D01*
X1825913Y-11553469D01*
X1825913Y-11638323D01*
X1910767Y-11638323D01*
X1928340Y-11595896D02*
G75*
G03*
X1928340Y-11595896I-60000J0D01*
G01*
X1910767Y-12146323D02*
X1910767Y-12061469D01*
X1825913Y-12061469D01*
X1825913Y-12146323D01*
X1910767Y-12146323D01*
X1928340Y-12103896D02*
G75*
G03*
X1928340Y-12103896I-60000J0D01*
G01*
X1910767Y-12654323D02*
X1910767Y-12569469D01*
X1825913Y-12569469D01*
X1825913Y-12654323D01*
X1910767Y-12654323D01*
X1928340Y-12611896D02*
G75*
G03*
X1928340Y-12611896I-60000J0D01*
G01*
X9450587Y-14271507D02*
X9450587Y-14186653D01*
X9365733Y-14186653D01*
X9365733Y-14271507D01*
X9450587Y-14271507D01*
X9468160Y-14229080D02*
G75*
G03*
X9468160Y-14229080I-60000J0D01*
G01*
X10212587Y-12239507D02*
X10212587Y-12154653D01*
X10127733Y-12154653D01*
X10127733Y-12239507D01*
X10212587Y-12239507D01*
X10230160Y-12197080D02*
G75*
G03*
X10230160Y-12197080I-60000J0D01*
G01*
X10466587Y-14271507D02*
X10466587Y-14186653D01*
X10381733Y-14186653D01*
X10381733Y-14271507D01*
X10466587Y-14271507D01*
X10484160Y-14229080D02*
G75*
G03*
X10484160Y-14229080I-60000J0D01*
G01*
X10720587Y-12239507D02*
X10720587Y-12154653D01*
X10635733Y-12154653D01*
X10635733Y-12239507D01*
X10720587Y-12239507D01*
X10738160Y-12197080D02*
G75*
G03*
X10738160Y-12197080I-60000J0D01*
G01*
X10842427Y-5192427D02*
X10842427Y-5107573D01*
X10757573Y-5107573D01*
X10757573Y-5192427D01*
X10842427Y-5192427D01*
X10860000Y-5150000D02*
G75*
G03*
X10860000Y-5150000I-60000J0D01*
G01*
X10842427Y-6692427D02*
X10842427Y-6607573D01*
X10757573Y-6607573D01*
X10757573Y-6692427D01*
X10842427Y-6692427D01*
X10860000Y-6650000D02*
G75*
G03*
X10860000Y-6650000I-60000J0D01*
G01*
X11482587Y-14271507D02*
X11482587Y-14186653D01*
X11397733Y-14186653D01*
X11397733Y-14271507D01*
X11482587Y-14271507D01*
X11500160Y-14229080D02*
G75*
G03*
X11500160Y-14229080I-60000J0D01*
G01*
D21*
X1852600Y-2615000D02*
X1917600Y-2550000D01*
X1852600Y-2485000D01*
X1787600Y-2550000D01*
X1852600Y-2615000D01*
X1917600Y-2550000D02*
G75*
G03*
X1917600Y-2550000I-65000J0D01*
G01*
X1852600Y-3115000D02*
X1917600Y-3050000D01*
X1852600Y-2985000D01*
X1787600Y-3050000D01*
X1852600Y-3115000D01*
X1917600Y-3050000D02*
G75*
G03*
X1917600Y-3050000I-65000J0D01*
G01*
X1852600Y-3615000D02*
X1917600Y-3550000D01*
X1852600Y-3485000D01*
X1787600Y-3550000D01*
X1852600Y-3615000D01*
X1917600Y-3550000D02*
G75*
G03*
X1917600Y-3550000I-65000J0D01*
G01*
X2474960Y-15143780D02*
X2539960Y-15078780D01*
X2474960Y-15013780D01*
X2409960Y-15078780D01*
X2474960Y-15143780D01*
X2539960Y-15078780D02*
G75*
G03*
X2539960Y-15078780I-65000J0D01*
G01*
X2974960Y-15143780D02*
X3039960Y-15078780D01*
X2974960Y-15013780D01*
X2909960Y-15078780D01*
X2974960Y-15143780D01*
X3039960Y-15078780D02*
G75*
G03*
X3039960Y-15078780I-65000J0D01*
G01*
X3474960Y-15143780D02*
X3539960Y-15078780D01*
X3474960Y-15013780D01*
X3409960Y-15078780D01*
X3474960Y-15143780D01*
X3539960Y-15078780D02*
G75*
G03*
X3539960Y-15078780I-65000J0D01*
G01*
X3974960Y-15143780D02*
X4039960Y-15078780D01*
X3974960Y-15013780D01*
X3909960Y-15078780D01*
X3974960Y-15143780D01*
X4039960Y-15078780D02*
G75*
G03*
X4039960Y-15078780I-65000J0D01*
G01*
X4474960Y-15143780D02*
X4539960Y-15078780D01*
X4474960Y-15013780D01*
X4409960Y-15078780D01*
X4474960Y-15143780D01*
X4539960Y-15078780D02*
G75*
G03*
X4539960Y-15078780I-65000J0D01*
G01*
X4974960Y-15143780D02*
X5039960Y-15078780D01*
X4974960Y-15013780D01*
X4909960Y-15078780D01*
X4974960Y-15143780D01*
X5039960Y-15078780D02*
G75*
G03*
X5039960Y-15078780I-65000J0D01*
G01*
X8429100Y-2600150D02*
X8494100Y-2535150D01*
X8429100Y-2470150D01*
X8364100Y-2535150D01*
X8429100Y-2600150D01*
X8494100Y-2535150D02*
G75*
G03*
X8494100Y-2535150I-65000J0D01*
G01*
X8929100Y-2600150D02*
X8994100Y-2535150D01*
X8929100Y-2470150D01*
X8864100Y-2535150D01*
X8929100Y-2600150D01*
X8994100Y-2535150D02*
G75*
G03*
X8994100Y-2535150I-65000J0D01*
G01*
X9921700Y-4106350D02*
X9986700Y-4041350D01*
X9921700Y-3976350D01*
X9856700Y-4041350D01*
X9921700Y-4106350D01*
X9986700Y-4041350D02*
G75*
G03*
X9986700Y-4041350I-65000J0D01*
G01*
X10302700Y-4106350D02*
X10367700Y-4041350D01*
X10302700Y-3976350D01*
X10237700Y-4041350D01*
X10302700Y-4106350D01*
X10367700Y-4041350D02*
G75*
G03*
X10367700Y-4041350I-65000J0D01*
G01*
X12980500Y-9165000D02*
X13045500Y-9100000D01*
X12980500Y-9035000D01*
X12915500Y-9100000D01*
X12980500Y-9165000D01*
X13045500Y-9100000D02*
G75*
G03*
X13045500Y-9100000I-65000J0D01*
G01*
X12980500Y-9665000D02*
X13045500Y-9600000D01*
X12980500Y-9535000D01*
X12915500Y-9600000D01*
X12980500Y-9665000D01*
X13045500Y-9600000D02*
G75*
G03*
X13045500Y-9600000I-65000J0D01*
G01*
X12980500Y-10165000D02*
X13045500Y-10100000D01*
X12980500Y-10035000D01*
X12915500Y-10100000D01*
X12980500Y-10165000D01*
X13045500Y-10100000D02*
G75*
G03*
X13045500Y-10100000I-65000J0D01*
G01*
X12980500Y-10765000D02*
X13045500Y-10700000D01*
X12980500Y-10635000D01*
X12915500Y-10700000D01*
X12980500Y-10765000D01*
X13045500Y-10700000D02*
G75*
G03*
X13045500Y-10700000I-65000J0D01*
G01*
X12980500Y-11265000D02*
X13045500Y-11200000D01*
X12980500Y-11135000D01*
X12915500Y-11200000D01*
X12980500Y-11265000D01*
X13045500Y-11200000D02*
G75*
G03*
X13045500Y-11200000I-65000J0D01*
G01*
X12980500Y-11765000D02*
X13045500Y-11700000D01*
X12980500Y-11635000D01*
X12915500Y-11700000D01*
X12980500Y-11765000D01*
X13045500Y-11700000D02*
G75*
G03*
X13045500Y-11700000I-65000J0D01*
G01*
X13004700Y-3483350D02*
X13069700Y-3418350D01*
X13004700Y-3353350D01*
X12939700Y-3418350D01*
X13004700Y-3483350D01*
X13069700Y-3418350D02*
G75*
G03*
X13069700Y-3418350I-65000J0D01*
G01*
X13004700Y-3983350D02*
X13069700Y-3918350D01*
X13004700Y-3853350D01*
X12939700Y-3918350D01*
X13004700Y-3983350D01*
X13069700Y-3918350D02*
G75*
G03*
X13069700Y-3918350I-65000J0D01*
G01*
X13009800Y-2336350D02*
X13074800Y-2271350D01*
X13009800Y-2206350D01*
X12944800Y-2271350D01*
X13009800Y-2336350D01*
X13074800Y-2271350D02*
G75*
G03*
X13074800Y-2271350I-65000J0D01*
G01*
X13009800Y-2836350D02*
X13074800Y-2771350D01*
X13009800Y-2706350D01*
X12944800Y-2771350D01*
X13009800Y-2836350D01*
X13074800Y-2771350D02*
G75*
G03*
X13074800Y-2771350I-65000J0D01*
G01*
D22*
X11320750Y-9154250D02*
X11320750Y-9304250D01*
X11245750Y-9229250D02*
X11395750Y-9229250D01*
X11373783Y-9282284D02*
X11373783Y-9176217D01*
X11267716Y-9176217D01*
X11267716Y-9282284D01*
X11373783Y-9282284D01*
X11320750Y-10654250D02*
X11320750Y-10804250D01*
X11245750Y-10729250D02*
X11395750Y-10729250D01*
X11373783Y-10782284D02*
X11373783Y-10676217D01*
X11267716Y-10676217D01*
X11267716Y-10782284D01*
X11373783Y-10782284D01*
X11320750Y-11154250D02*
X11320750Y-11304250D01*
X11245750Y-11229250D02*
X11395750Y-11229250D01*
X11373783Y-11282283D02*
X11373783Y-11176217D01*
X11267716Y-11176217D01*
X11267716Y-11282283D01*
X11373783Y-11282283D01*
X11320750Y-11654250D02*
X11320750Y-11804250D01*
X11245750Y-11729250D02*
X11395750Y-11729250D01*
X11373783Y-11782283D02*
X11373783Y-11676216D01*
X11267716Y-11676216D01*
X11267716Y-11782283D01*
X11373783Y-11782283D01*
X12070750Y-9154250D02*
X12070750Y-9304250D01*
X11995750Y-9229250D02*
X12145750Y-9229250D01*
X12123783Y-9282284D02*
X12123783Y-9176217D01*
X12017716Y-9176217D01*
X12017716Y-9282284D01*
X12123783Y-9282284D01*
X12070750Y-10654250D02*
X12070750Y-10804250D01*
X11995750Y-10729250D02*
X12145750Y-10729250D01*
X12123783Y-10782284D02*
X12123783Y-10676217D01*
X12017716Y-10676217D01*
X12017716Y-10782284D01*
X12123783Y-10782284D01*
X12070750Y-11154250D02*
X12070750Y-11304250D01*
X11995750Y-11229250D02*
X12145750Y-11229250D01*
X12123783Y-11282283D02*
X12123783Y-11176217D01*
X12017716Y-11176217D01*
X12017716Y-11282283D01*
X12123783Y-11282283D01*
X12070750Y-11654250D02*
X12070750Y-11804250D01*
X11995750Y-11729250D02*
X12145750Y-11729250D01*
X12123783Y-11782283D02*
X12123783Y-11676216D01*
X12017716Y-11676216D01*
X12017716Y-11782283D01*
X12123783Y-11782283D01*
D23*
X13200000Y-7049420D02*
X13200000Y-7282420D01*
X13083500Y-7165920D02*
X13316500Y-7165920D01*
X13200000Y-7282420D02*
X13316500Y-7165920D01*
X13200000Y-7049420D01*
X13083500Y-7165920D01*
X13200000Y-7282420D01*
X13200000Y-8253420D02*
X13200000Y-8486420D01*
X13083500Y-8369920D02*
X13316500Y-8369920D01*
X13200000Y-8486420D02*
X13316500Y-8369920D01*
X13200000Y-8253420D01*
X13083500Y-8369920D01*
X13200000Y-8486420D01*
D24*
X1850000Y-5100000D02*
X2000000Y-4950000D01*
X1850000Y-4800000D01*
X1700000Y-4950000D01*
X1850000Y-5100000D01*
X1956067Y-5056067D02*
X1956067Y-4843933D01*
X1743933Y-4843933D01*
X1743933Y-5056067D01*
X1956067Y-5056067D01*
X1850000Y-15250000D02*
X2000000Y-15100000D01*
X1850000Y-14950000D01*
X1700000Y-15100000D01*
X1850000Y-15250000D01*
X1956067Y-15206067D02*
X1956067Y-14993933D01*
X1743933Y-14993933D01*
X1743933Y-15206067D01*
X1956067Y-15206067D01*
X7450000Y-5100000D02*
X7600000Y-4950000D01*
X7450000Y-4800000D01*
X7300000Y-4950000D01*
X7450000Y-5100000D01*
X7556067Y-5056067D02*
X7556067Y-4843933D01*
X7343933Y-4843933D01*
X7343933Y-5056067D01*
X7556067Y-5056067D01*
X7450000Y-15250000D02*
X7600000Y-15100000D01*
X7450000Y-14950000D01*
X7300000Y-15100000D01*
X7450000Y-15250000D01*
X7556067Y-15206067D02*
X7556067Y-14993933D01*
X7343933Y-14993933D01*
X7343933Y-15206067D01*
X7556067Y-15206067D01*
X13000000Y-5100000D02*
X13150000Y-4950000D01*
X13000000Y-4800000D01*
X12850000Y-4950000D01*
X13000000Y-5100000D01*
X13106067Y-5056067D02*
X13106067Y-4843933D01*
X12893933Y-4843933D01*
X12893933Y-5056067D01*
X13106067Y-5056067D01*
X13000000Y-15250000D02*
X13150000Y-15100000D01*
X13000000Y-14950000D01*
X12850000Y-15100000D01*
X13000000Y-15250000D01*
X13106067Y-15206067D02*
X13106067Y-14993933D01*
X12893933Y-14993933D01*
X12893933Y-15206067D01*
X13106067Y-15206067D01*
D25*
X4551100Y-2451600D02*
X4871100Y-2771600D01*
X4871100Y-2451600D02*
X4551100Y-2771600D01*
X4711100Y-2451600D02*
X4711100Y-2771600D01*
X4551100Y-2611600D02*
X4871100Y-2611600D01*
X4871100Y-2611600D02*
G75*
G03*
X4871100Y-2611600I-160000J0D01*
G01*
X7051100Y-2451600D02*
X7371100Y-2771600D01*
X7371100Y-2451600D02*
X7051100Y-2771600D01*
X7211100Y-2451600D02*
X7211100Y-2771600D01*
X7051100Y-2611600D02*
X7371100Y-2611600D01*
X7371100Y-2611600D02*
G75*
G03*
X7371100Y-2611600I-160000J0D01*
G01*
X8760520Y-14705817D02*
X9080520Y-15025817D01*
X9080520Y-14705817D02*
X8760520Y-15025817D01*
X8920520Y-14705817D02*
X8920520Y-15025817D01*
X8760520Y-14865817D02*
X9080520Y-14865817D01*
X9080520Y-14865817D02*
G75*
G03*
X9080520Y-14865817I-160000J0D01*
G01*
X11260520Y-14705817D02*
X11580520Y-15025817D01*
X11580520Y-14705817D02*
X11260520Y-15025817D01*
X11420520Y-14705817D02*
X11420520Y-15025817D01*
X11260520Y-14865817D02*
X11580520Y-14865817D01*
X11580520Y-14865817D02*
G75*
G03*
X11580520Y-14865817I-160000J0D01*
G01*
D11*
X1600119Y-15917976D02*
X1600119Y-15717976D01*
X1647738Y-15717976D01*
X1676309Y-15727500D01*
X1695357Y-15746548D01*
X1704881Y-15765595D01*
X1714405Y-15803690D01*
X1714405Y-15832262D01*
X1704881Y-15870357D01*
X1695357Y-15889405D01*
X1676309Y-15908452D01*
X1647738Y-15917976D01*
X1600119Y-15917976D01*
X1800119Y-15917976D02*
X1800119Y-15784643D01*
X1800119Y-15822738D02*
X1809643Y-15803690D01*
X1819167Y-15794167D01*
X1838214Y-15784643D01*
X1857262Y-15784643D01*
X1923928Y-15917976D02*
X1923928Y-15784643D01*
X1923928Y-15717976D02*
X1914405Y-15727500D01*
X1923928Y-15737024D01*
X1933452Y-15727500D01*
X1923928Y-15717976D01*
X1923928Y-15737024D01*
X2047738Y-15917976D02*
X2028690Y-15908452D01*
X2019167Y-15889405D01*
X2019167Y-15717976D01*
X2152500Y-15917976D02*
X2133452Y-15908452D01*
X2123929Y-15889405D01*
X2123929Y-15717976D01*
X2381071Y-15917976D02*
X2381071Y-15717976D01*
X2447738Y-15860833D01*
X2514405Y-15717976D01*
X2514405Y-15917976D01*
X2695357Y-15917976D02*
X2695357Y-15813214D01*
X2685833Y-15794167D01*
X2666786Y-15784643D01*
X2628690Y-15784643D01*
X2609643Y-15794167D01*
X2695357Y-15908452D02*
X2676310Y-15917976D01*
X2628690Y-15917976D01*
X2609643Y-15908452D01*
X2600119Y-15889405D01*
X2600119Y-15870357D01*
X2609643Y-15851309D01*
X2628690Y-15841786D01*
X2676310Y-15841786D01*
X2695357Y-15832262D01*
X2790595Y-15784643D02*
X2790595Y-15984643D01*
X2790595Y-15794167D02*
X2809643Y-15784643D01*
X2847738Y-15784643D01*
X2866786Y-15794167D01*
X2876309Y-15803690D01*
X2885833Y-15822738D01*
X2885833Y-15879881D01*
X2876309Y-15898928D01*
X2866786Y-15908452D01*
X2847738Y-15917976D01*
X2809643Y-15917976D01*
X2790595Y-15908452D01*
X2971548Y-15898928D02*
X2981071Y-15908452D01*
X2971548Y-15917976D01*
X2962024Y-15908452D01*
X2971548Y-15898928D01*
X2971548Y-15917976D01*
X2971548Y-15794167D02*
X2981071Y-15803690D01*
X2971548Y-15813214D01*
X2962024Y-15803690D01*
X2971548Y-15794167D01*
X2971548Y-15813214D01*
D12*
X1302500Y-16227500D02*
X1342500Y-16267500D01*
X1342500Y-16227500D02*
X1302500Y-16267500D01*
D11*
X1638214Y-16137976D02*
X1657262Y-16137976D01*
X1676309Y-16147500D01*
X1685833Y-16157024D01*
X1695357Y-16176071D01*
X1704881Y-16214167D01*
X1704881Y-16261786D01*
X1695357Y-16299881D01*
X1685833Y-16318928D01*
X1676309Y-16328452D01*
X1657262Y-16337976D01*
X1638214Y-16337976D01*
X1619167Y-16328452D01*
X1609643Y-16318928D01*
X1600119Y-16299881D01*
X1590595Y-16261786D01*
X1590595Y-16214167D01*
X1600119Y-16176071D01*
X1609643Y-16157024D01*
X1619167Y-16147500D01*
X1638214Y-16137976D01*
X1790595Y-16318928D02*
X1800119Y-16328452D01*
X1790595Y-16337976D01*
X1781071Y-16328452D01*
X1790595Y-16318928D01*
X1790595Y-16337976D01*
X1971548Y-16204643D02*
X1971548Y-16337976D01*
X1923928Y-16128452D02*
X1876309Y-16271309D01*
X2000119Y-16271309D01*
X2114405Y-16137976D02*
X2133452Y-16137976D01*
X2152500Y-16147500D01*
X2162024Y-16157024D01*
X2171548Y-16176071D01*
X2181071Y-16214167D01*
X2181071Y-16261786D01*
X2171548Y-16299881D01*
X2162024Y-16318928D01*
X2152500Y-16328452D01*
X2133452Y-16337976D01*
X2114405Y-16337976D01*
X2095357Y-16328452D01*
X2085833Y-16318928D01*
X2076309Y-16299881D01*
X2066786Y-16261786D01*
X2066786Y-16214167D01*
X2076309Y-16176071D01*
X2085833Y-16157024D01*
X2095357Y-16147500D01*
X2114405Y-16137976D01*
X2304881Y-16137976D02*
X2323929Y-16137976D01*
X2342976Y-16147500D01*
X2352500Y-16157024D01*
X2362024Y-16176071D01*
X2371548Y-16214167D01*
X2371548Y-16261786D01*
X2362024Y-16299881D01*
X2352500Y-16318928D01*
X2342976Y-16328452D01*
X2323929Y-16337976D01*
X2304881Y-16337976D01*
X2285833Y-16328452D01*
X2276310Y-16318928D01*
X2266786Y-16299881D01*
X2257262Y-16261786D01*
X2257262Y-16214167D01*
X2266786Y-16176071D01*
X2276310Y-16157024D01*
X2285833Y-16147500D01*
X2304881Y-16137976D01*
X2457262Y-16337976D02*
X2457262Y-16204643D01*
X2457262Y-16223690D02*
X2466786Y-16214167D01*
X2485833Y-16204643D01*
X2514405Y-16204643D01*
X2533452Y-16214167D01*
X2542976Y-16233214D01*
X2542976Y-16337976D01*
X2542976Y-16233214D02*
X2552500Y-16214167D01*
X2571548Y-16204643D01*
X2600119Y-16204643D01*
X2619167Y-16214167D01*
X2628690Y-16233214D01*
X2628690Y-16337976D01*
X2723929Y-16337976D02*
X2723929Y-16204643D01*
X2723929Y-16223690D02*
X2733452Y-16214167D01*
X2752500Y-16204643D01*
X2781071Y-16204643D01*
X2800119Y-16214167D01*
X2809643Y-16233214D01*
X2809643Y-16337976D01*
X2809643Y-16233214D02*
X2819167Y-16214167D01*
X2838214Y-16204643D01*
X2866786Y-16204643D01*
X2885833Y-16214167D01*
X2895357Y-16233214D01*
X2895357Y-16337976D01*
X3285833Y-16128452D02*
X3114405Y-16385595D01*
X3542976Y-16137976D02*
X3562024Y-16137976D01*
X3581071Y-16147500D01*
X3590595Y-16157024D01*
X3600119Y-16176071D01*
X3609643Y-16214167D01*
X3609643Y-16261786D01*
X3600119Y-16299881D01*
X3590595Y-16318928D01*
X3581071Y-16328452D01*
X3562024Y-16337976D01*
X3542976Y-16337976D01*
X3523928Y-16328452D01*
X3514405Y-16318928D01*
X3504881Y-16299881D01*
X3495357Y-16261786D01*
X3495357Y-16214167D01*
X3504881Y-16176071D01*
X3514405Y-16157024D01*
X3523928Y-16147500D01*
X3542976Y-16137976D01*
X3695357Y-16318928D02*
X3704881Y-16328452D01*
X3695357Y-16337976D01*
X3685833Y-16328452D01*
X3695357Y-16318928D01*
X3695357Y-16337976D01*
X3828690Y-16137976D02*
X3847738Y-16137976D01*
X3866786Y-16147500D01*
X3876309Y-16157024D01*
X3885833Y-16176071D01*
X3895357Y-16214167D01*
X3895357Y-16261786D01*
X3885833Y-16299881D01*
X3876309Y-16318928D01*
X3866786Y-16328452D01*
X3847738Y-16337976D01*
X3828690Y-16337976D01*
X3809643Y-16328452D01*
X3800119Y-16318928D01*
X3790595Y-16299881D01*
X3781071Y-16261786D01*
X3781071Y-16214167D01*
X3790595Y-16176071D01*
X3800119Y-16157024D01*
X3809643Y-16147500D01*
X3828690Y-16137976D01*
X4085833Y-16337976D02*
X3971548Y-16337976D01*
X4028690Y-16337976D02*
X4028690Y-16137976D01*
X4009643Y-16166548D01*
X3990595Y-16185595D01*
X3971548Y-16195119D01*
X4266786Y-16137976D02*
X4171548Y-16137976D01*
X4162024Y-16233214D01*
X4171548Y-16223690D01*
X4190595Y-16214167D01*
X4238214Y-16214167D01*
X4257262Y-16223690D01*
X4266786Y-16233214D01*
X4276310Y-16252262D01*
X4276310Y-16299881D01*
X4266786Y-16318928D01*
X4257262Y-16328452D01*
X4238214Y-16337976D01*
X4190595Y-16337976D01*
X4171548Y-16328452D01*
X4162024Y-16318928D01*
X4342976Y-16137976D02*
X4476310Y-16137976D01*
X4390595Y-16337976D01*
X4542976Y-16137976D02*
X4542976Y-16176071D01*
X4619167Y-16137976D02*
X4619167Y-16176071D01*
X4914405Y-16414167D02*
X4904881Y-16404643D01*
X4885833Y-16376071D01*
X4876310Y-16357024D01*
X4866786Y-16328452D01*
X4857262Y-16280833D01*
X4857262Y-16242738D01*
X4866786Y-16195119D01*
X4876310Y-16166548D01*
X4885833Y-16147500D01*
X4904881Y-16118928D01*
X4914405Y-16109405D01*
X5095357Y-16337976D02*
X4981071Y-16337976D01*
X5038214Y-16337976D02*
X5038214Y-16137976D01*
X5019167Y-16166548D01*
X5000119Y-16185595D01*
X4981071Y-16195119D01*
X5219167Y-16137976D02*
X5238214Y-16137976D01*
X5257262Y-16147500D01*
X5266786Y-16157024D01*
X5276310Y-16176071D01*
X5285833Y-16214167D01*
X5285833Y-16261786D01*
X5276310Y-16299881D01*
X5266786Y-16318928D01*
X5257262Y-16328452D01*
X5238214Y-16337976D01*
X5219167Y-16337976D01*
X5200119Y-16328452D01*
X5190595Y-16318928D01*
X5181071Y-16299881D01*
X5171548Y-16261786D01*
X5171548Y-16214167D01*
X5181071Y-16176071D01*
X5190595Y-16157024D01*
X5200119Y-16147500D01*
X5219167Y-16137976D01*
X5476310Y-16337976D02*
X5362024Y-16337976D01*
X5419167Y-16337976D02*
X5419167Y-16137976D01*
X5400119Y-16166548D01*
X5381071Y-16185595D01*
X5362024Y-16195119D01*
X5714405Y-16337976D02*
X5714405Y-16137976D01*
X5800119Y-16337976D02*
X5800119Y-16233214D01*
X5790595Y-16214167D01*
X5771548Y-16204643D01*
X5742976Y-16204643D01*
X5723928Y-16214167D01*
X5714405Y-16223690D01*
X5923928Y-16337976D02*
X5904881Y-16328452D01*
X5895357Y-16318928D01*
X5885833Y-16299881D01*
X5885833Y-16242738D01*
X5895357Y-16223690D01*
X5904881Y-16214167D01*
X5923928Y-16204643D01*
X5952500Y-16204643D01*
X5971548Y-16214167D01*
X5981071Y-16223690D01*
X5990595Y-16242738D01*
X5990595Y-16299881D01*
X5981071Y-16318928D01*
X5971548Y-16328452D01*
X5952500Y-16337976D01*
X5923928Y-16337976D01*
X6104881Y-16337976D02*
X6085833Y-16328452D01*
X6076309Y-16309405D01*
X6076309Y-16137976D01*
X6257262Y-16328452D02*
X6238214Y-16337976D01*
X6200119Y-16337976D01*
X6181071Y-16328452D01*
X6171548Y-16309405D01*
X6171548Y-16233214D01*
X6181071Y-16214167D01*
X6200119Y-16204643D01*
X6238214Y-16204643D01*
X6257262Y-16214167D01*
X6266786Y-16233214D01*
X6266786Y-16252262D01*
X6171548Y-16271309D01*
X6342976Y-16328452D02*
X6362024Y-16337976D01*
X6400119Y-16337976D01*
X6419167Y-16328452D01*
X6428690Y-16309405D01*
X6428690Y-16299881D01*
X6419167Y-16280833D01*
X6400119Y-16271309D01*
X6371548Y-16271309D01*
X6352500Y-16261786D01*
X6342976Y-16242738D01*
X6342976Y-16233214D01*
X6352500Y-16214167D01*
X6371548Y-16204643D01*
X6400119Y-16204643D01*
X6419167Y-16214167D01*
X6495357Y-16414167D02*
X6504881Y-16404643D01*
X6523928Y-16376071D01*
X6533452Y-16357024D01*
X6542976Y-16328452D01*
X6552500Y-16280833D01*
X6552500Y-16242738D01*
X6542976Y-16195119D01*
X6533452Y-16166548D01*
X6523928Y-16147500D01*
X6504881Y-16118928D01*
X6495357Y-16109405D01*
D13*
X1342500Y-16511500D02*
G75*
G03*
X1342500Y-16511500I-30000J0D01*
G01*
D11*
X1638214Y-16401976D02*
X1657262Y-16401976D01*
X1676309Y-16411500D01*
X1685833Y-16421024D01*
X1695357Y-16440071D01*
X1704881Y-16478167D01*
X1704881Y-16525786D01*
X1695357Y-16563881D01*
X1685833Y-16582928D01*
X1676309Y-16592452D01*
X1657262Y-16601976D01*
X1638214Y-16601976D01*
X1619167Y-16592452D01*
X1609643Y-16582928D01*
X1600119Y-16563881D01*
X1590595Y-16525786D01*
X1590595Y-16478167D01*
X1600119Y-16440071D01*
X1609643Y-16421024D01*
X1619167Y-16411500D01*
X1638214Y-16401976D01*
X1790595Y-16582928D02*
X1800119Y-16592452D01*
X1790595Y-16601976D01*
X1781071Y-16592452D01*
X1790595Y-16582928D01*
X1790595Y-16601976D01*
X1971548Y-16401976D02*
X1933452Y-16401976D01*
X1914405Y-16411500D01*
X1904881Y-16421024D01*
X1885833Y-16449595D01*
X1876309Y-16487690D01*
X1876309Y-16563881D01*
X1885833Y-16582928D01*
X1895357Y-16592452D01*
X1914405Y-16601976D01*
X1952500Y-16601976D01*
X1971548Y-16592452D01*
X1981071Y-16582928D01*
X1990595Y-16563881D01*
X1990595Y-16516262D01*
X1981071Y-16497214D01*
X1971548Y-16487690D01*
X1952500Y-16478167D01*
X1914405Y-16478167D01*
X1895357Y-16487690D01*
X1885833Y-16497214D01*
X1876309Y-16516262D01*
X2114405Y-16401976D02*
X2133452Y-16401976D01*
X2152500Y-16411500D01*
X2162024Y-16421024D01*
X2171548Y-16440071D01*
X2181071Y-16478167D01*
X2181071Y-16525786D01*
X2171548Y-16563881D01*
X2162024Y-16582928D01*
X2152500Y-16592452D01*
X2133452Y-16601976D01*
X2114405Y-16601976D01*
X2095357Y-16592452D01*
X2085833Y-16582928D01*
X2076309Y-16563881D01*
X2066786Y-16525786D01*
X2066786Y-16478167D01*
X2076309Y-16440071D01*
X2085833Y-16421024D01*
X2095357Y-16411500D01*
X2114405Y-16401976D01*
X2304881Y-16401976D02*
X2323929Y-16401976D01*
X2342976Y-16411500D01*
X2352500Y-16421024D01*
X2362024Y-16440071D01*
X2371548Y-16478167D01*
X2371548Y-16525786D01*
X2362024Y-16563881D01*
X2352500Y-16582928D01*
X2342976Y-16592452D01*
X2323929Y-16601976D01*
X2304881Y-16601976D01*
X2285833Y-16592452D01*
X2276310Y-16582928D01*
X2266786Y-16563881D01*
X2257262Y-16525786D01*
X2257262Y-16478167D01*
X2266786Y-16440071D01*
X2276310Y-16421024D01*
X2285833Y-16411500D01*
X2304881Y-16401976D01*
X2457262Y-16601976D02*
X2457262Y-16468643D01*
X2457262Y-16487690D02*
X2466786Y-16478167D01*
X2485833Y-16468643D01*
X2514405Y-16468643D01*
X2533452Y-16478167D01*
X2542976Y-16497214D01*
X2542976Y-16601976D01*
X2542976Y-16497214D02*
X2552500Y-16478167D01*
X2571548Y-16468643D01*
X2600119Y-16468643D01*
X2619167Y-16478167D01*
X2628690Y-16497214D01*
X2628690Y-16601976D01*
X2723929Y-16601976D02*
X2723929Y-16468643D01*
X2723929Y-16487690D02*
X2733452Y-16478167D01*
X2752500Y-16468643D01*
X2781071Y-16468643D01*
X2800119Y-16478167D01*
X2809643Y-16497214D01*
X2809643Y-16601976D01*
X2809643Y-16497214D02*
X2819167Y-16478167D01*
X2838214Y-16468643D01*
X2866786Y-16468643D01*
X2885833Y-16478167D01*
X2895357Y-16497214D01*
X2895357Y-16601976D01*
X3285833Y-16392452D02*
X3114405Y-16649595D01*
X3542976Y-16401976D02*
X3562024Y-16401976D01*
X3581071Y-16411500D01*
X3590595Y-16421024D01*
X3600119Y-16440071D01*
X3609643Y-16478167D01*
X3609643Y-16525786D01*
X3600119Y-16563881D01*
X3590595Y-16582928D01*
X3581071Y-16592452D01*
X3562024Y-16601976D01*
X3542976Y-16601976D01*
X3523928Y-16592452D01*
X3514405Y-16582928D01*
X3504881Y-16563881D01*
X3495357Y-16525786D01*
X3495357Y-16478167D01*
X3504881Y-16440071D01*
X3514405Y-16421024D01*
X3523928Y-16411500D01*
X3542976Y-16401976D01*
X3695357Y-16582928D02*
X3704881Y-16592452D01*
X3695357Y-16601976D01*
X3685833Y-16592452D01*
X3695357Y-16582928D01*
X3695357Y-16601976D01*
X3828690Y-16401976D02*
X3847738Y-16401976D01*
X3866786Y-16411500D01*
X3876309Y-16421024D01*
X3885833Y-16440071D01*
X3895357Y-16478167D01*
X3895357Y-16525786D01*
X3885833Y-16563881D01*
X3876309Y-16582928D01*
X3866786Y-16592452D01*
X3847738Y-16601976D01*
X3828690Y-16601976D01*
X3809643Y-16592452D01*
X3800119Y-16582928D01*
X3790595Y-16563881D01*
X3781071Y-16525786D01*
X3781071Y-16478167D01*
X3790595Y-16440071D01*
X3800119Y-16421024D01*
X3809643Y-16411500D01*
X3828690Y-16401976D01*
X3971548Y-16421024D02*
X3981071Y-16411500D01*
X4000119Y-16401976D01*
X4047738Y-16401976D01*
X4066786Y-16411500D01*
X4076309Y-16421024D01*
X4085833Y-16440071D01*
X4085833Y-16459119D01*
X4076309Y-16487690D01*
X3962024Y-16601976D01*
X4085833Y-16601976D01*
X4152500Y-16401976D02*
X4276310Y-16401976D01*
X4209643Y-16478167D01*
X4238214Y-16478167D01*
X4257262Y-16487690D01*
X4266786Y-16497214D01*
X4276310Y-16516262D01*
X4276310Y-16563881D01*
X4266786Y-16582928D01*
X4257262Y-16592452D01*
X4238214Y-16601976D01*
X4181071Y-16601976D01*
X4162024Y-16592452D01*
X4152500Y-16582928D01*
X4447738Y-16401976D02*
X4409643Y-16401976D01*
X4390595Y-16411500D01*
X4381071Y-16421024D01*
X4362024Y-16449595D01*
X4352500Y-16487690D01*
X4352500Y-16563881D01*
X4362024Y-16582928D01*
X4371548Y-16592452D01*
X4390595Y-16601976D01*
X4428690Y-16601976D01*
X4447738Y-16592452D01*
X4457262Y-16582928D01*
X4466786Y-16563881D01*
X4466786Y-16516262D01*
X4457262Y-16497214D01*
X4447738Y-16487690D01*
X4428690Y-16478167D01*
X4390595Y-16478167D01*
X4371548Y-16487690D01*
X4362024Y-16497214D01*
X4352500Y-16516262D01*
X4542976Y-16401976D02*
X4542976Y-16440071D01*
X4619167Y-16401976D02*
X4619167Y-16440071D01*
X4914405Y-16678167D02*
X4904881Y-16668643D01*
X4885833Y-16640071D01*
X4876310Y-16621024D01*
X4866786Y-16592452D01*
X4857262Y-16544833D01*
X4857262Y-16506738D01*
X4866786Y-16459119D01*
X4876310Y-16430548D01*
X4885833Y-16411500D01*
X4904881Y-16382928D01*
X4914405Y-16373405D01*
X5095357Y-16601976D02*
X4981071Y-16601976D01*
X5038214Y-16601976D02*
X5038214Y-16401976D01*
X5019167Y-16430548D01*
X5000119Y-16449595D01*
X4981071Y-16459119D01*
X5276310Y-16401976D02*
X5181071Y-16401976D01*
X5171548Y-16497214D01*
X5181071Y-16487690D01*
X5200119Y-16478167D01*
X5247738Y-16478167D01*
X5266786Y-16487690D01*
X5276310Y-16497214D01*
X5285833Y-16516262D01*
X5285833Y-16563881D01*
X5276310Y-16582928D01*
X5266786Y-16592452D01*
X5247738Y-16601976D01*
X5200119Y-16601976D01*
X5181071Y-16592452D01*
X5171548Y-16582928D01*
X5523929Y-16601976D02*
X5523929Y-16401976D01*
X5609643Y-16601976D02*
X5609643Y-16497214D01*
X5600119Y-16478167D01*
X5581071Y-16468643D01*
X5552500Y-16468643D01*
X5533452Y-16478167D01*
X5523929Y-16487690D01*
X5733452Y-16601976D02*
X5714405Y-16592452D01*
X5704881Y-16582928D01*
X5695357Y-16563881D01*
X5695357Y-16506738D01*
X5704881Y-16487690D01*
X5714405Y-16478167D01*
X5733452Y-16468643D01*
X5762024Y-16468643D01*
X5781071Y-16478167D01*
X5790595Y-16487690D01*
X5800119Y-16506738D01*
X5800119Y-16563881D01*
X5790595Y-16582928D01*
X5781071Y-16592452D01*
X5762024Y-16601976D01*
X5733452Y-16601976D01*
X5914405Y-16601976D02*
X5895357Y-16592452D01*
X5885833Y-16573405D01*
X5885833Y-16401976D01*
X6066786Y-16592452D02*
X6047738Y-16601976D01*
X6009643Y-16601976D01*
X5990595Y-16592452D01*
X5981071Y-16573405D01*
X5981071Y-16497214D01*
X5990595Y-16478167D01*
X6009643Y-16468643D01*
X6047738Y-16468643D01*
X6066786Y-16478167D01*
X6076309Y-16497214D01*
X6076309Y-16516262D01*
X5981071Y-16535309D01*
X6152500Y-16592452D02*
X6171548Y-16601976D01*
X6209643Y-16601976D01*
X6228690Y-16592452D01*
X6238214Y-16573405D01*
X6238214Y-16563881D01*
X6228690Y-16544833D01*
X6209643Y-16535309D01*
X6181071Y-16535309D01*
X6162024Y-16525786D01*
X6152500Y-16506738D01*
X6152500Y-16497214D01*
X6162024Y-16478167D01*
X6181071Y-16468643D01*
X6209643Y-16468643D01*
X6228690Y-16478167D01*
X6304881Y-16678167D02*
X6314405Y-16668643D01*
X6333452Y-16640071D01*
X6342976Y-16621024D01*
X6352500Y-16592452D01*
X6362024Y-16544833D01*
X6362024Y-16506738D01*
X6352500Y-16459119D01*
X6342976Y-16430548D01*
X6333452Y-16411500D01*
X6314405Y-16382928D01*
X6304881Y-16373405D01*
D13*
X1312500Y-16745500D02*
X1312500Y-16805500D01*
X1282500Y-16775500D02*
X1342500Y-16775500D01*
D11*
X1638214Y-16665976D02*
X1657262Y-16665976D01*
X1676309Y-16675500D01*
X1685833Y-16685024D01*
X1695357Y-16704071D01*
X1704881Y-16742167D01*
X1704881Y-16789786D01*
X1695357Y-16827881D01*
X1685833Y-16846929D01*
X1676309Y-16856452D01*
X1657262Y-16865976D01*
X1638214Y-16865976D01*
X1619167Y-16856452D01*
X1609643Y-16846929D01*
X1600119Y-16827881D01*
X1590595Y-16789786D01*
X1590595Y-16742167D01*
X1600119Y-16704071D01*
X1609643Y-16685024D01*
X1619167Y-16675500D01*
X1638214Y-16665976D01*
X1790595Y-16846929D02*
X1800119Y-16856452D01*
X1790595Y-16865976D01*
X1781071Y-16856452D01*
X1790595Y-16846929D01*
X1790595Y-16865976D01*
X1971548Y-16665976D02*
X1933452Y-16665976D01*
X1914405Y-16675500D01*
X1904881Y-16685024D01*
X1885833Y-16713595D01*
X1876309Y-16751690D01*
X1876309Y-16827881D01*
X1885833Y-16846929D01*
X1895357Y-16856452D01*
X1914405Y-16865976D01*
X1952500Y-16865976D01*
X1971548Y-16856452D01*
X1981071Y-16846929D01*
X1990595Y-16827881D01*
X1990595Y-16780262D01*
X1981071Y-16761214D01*
X1971548Y-16751690D01*
X1952500Y-16742167D01*
X1914405Y-16742167D01*
X1895357Y-16751690D01*
X1885833Y-16761214D01*
X1876309Y-16780262D01*
X2114405Y-16665976D02*
X2133452Y-16665976D01*
X2152500Y-16675500D01*
X2162024Y-16685024D01*
X2171548Y-16704071D01*
X2181071Y-16742167D01*
X2181071Y-16789786D01*
X2171548Y-16827881D01*
X2162024Y-16846929D01*
X2152500Y-16856452D01*
X2133452Y-16865976D01*
X2114405Y-16865976D01*
X2095357Y-16856452D01*
X2085833Y-16846929D01*
X2076309Y-16827881D01*
X2066786Y-16789786D01*
X2066786Y-16742167D01*
X2076309Y-16704071D01*
X2085833Y-16685024D01*
X2095357Y-16675500D01*
X2114405Y-16665976D01*
X2304881Y-16665976D02*
X2323929Y-16665976D01*
X2342976Y-16675500D01*
X2352500Y-16685024D01*
X2362024Y-16704071D01*
X2371548Y-16742167D01*
X2371548Y-16789786D01*
X2362024Y-16827881D01*
X2352500Y-16846929D01*
X2342976Y-16856452D01*
X2323929Y-16865976D01*
X2304881Y-16865976D01*
X2285833Y-16856452D01*
X2276310Y-16846929D01*
X2266786Y-16827881D01*
X2257262Y-16789786D01*
X2257262Y-16742167D01*
X2266786Y-16704071D01*
X2276310Y-16685024D01*
X2285833Y-16675500D01*
X2304881Y-16665976D01*
X2457262Y-16865976D02*
X2457262Y-16732643D01*
X2457262Y-16751690D02*
X2466786Y-16742167D01*
X2485833Y-16732643D01*
X2514405Y-16732643D01*
X2533452Y-16742167D01*
X2542976Y-16761214D01*
X2542976Y-16865976D01*
X2542976Y-16761214D02*
X2552500Y-16742167D01*
X2571548Y-16732643D01*
X2600119Y-16732643D01*
X2619167Y-16742167D01*
X2628690Y-16761214D01*
X2628690Y-16865976D01*
X2723929Y-16865976D02*
X2723929Y-16732643D01*
X2723929Y-16751690D02*
X2733452Y-16742167D01*
X2752500Y-16732643D01*
X2781071Y-16732643D01*
X2800119Y-16742167D01*
X2809643Y-16761214D01*
X2809643Y-16865976D01*
X2809643Y-16761214D02*
X2819167Y-16742167D01*
X2838214Y-16732643D01*
X2866786Y-16732643D01*
X2885833Y-16742167D01*
X2895357Y-16761214D01*
X2895357Y-16865976D01*
X3285833Y-16656452D02*
X3114405Y-16913595D01*
X3542976Y-16665976D02*
X3562024Y-16665976D01*
X3581071Y-16675500D01*
X3590595Y-16685024D01*
X3600119Y-16704071D01*
X3609643Y-16742167D01*
X3609643Y-16789786D01*
X3600119Y-16827881D01*
X3590595Y-16846929D01*
X3581071Y-16856452D01*
X3562024Y-16865976D01*
X3542976Y-16865976D01*
X3523928Y-16856452D01*
X3514405Y-16846929D01*
X3504881Y-16827881D01*
X3495357Y-16789786D01*
X3495357Y-16742167D01*
X3504881Y-16704071D01*
X3514405Y-16685024D01*
X3523928Y-16675500D01*
X3542976Y-16665976D01*
X3695357Y-16846929D02*
X3704881Y-16856452D01*
X3695357Y-16865976D01*
X3685833Y-16856452D01*
X3695357Y-16846929D01*
X3695357Y-16865976D01*
X3828690Y-16665976D02*
X3847738Y-16665976D01*
X3866786Y-16675500D01*
X3876309Y-16685024D01*
X3885833Y-16704071D01*
X3895357Y-16742167D01*
X3895357Y-16789786D01*
X3885833Y-16827881D01*
X3876309Y-16846929D01*
X3866786Y-16856452D01*
X3847738Y-16865976D01*
X3828690Y-16865976D01*
X3809643Y-16856452D01*
X3800119Y-16846929D01*
X3790595Y-16827881D01*
X3781071Y-16789786D01*
X3781071Y-16742167D01*
X3790595Y-16704071D01*
X3800119Y-16685024D01*
X3809643Y-16675500D01*
X3828690Y-16665976D01*
X3971548Y-16685024D02*
X3981071Y-16675500D01*
X4000119Y-16665976D01*
X4047738Y-16665976D01*
X4066786Y-16675500D01*
X4076309Y-16685024D01*
X4085833Y-16704071D01*
X4085833Y-16723119D01*
X4076309Y-16751690D01*
X3962024Y-16865976D01*
X4085833Y-16865976D01*
X4152500Y-16665976D02*
X4276310Y-16665976D01*
X4209643Y-16742167D01*
X4238214Y-16742167D01*
X4257262Y-16751690D01*
X4266786Y-16761214D01*
X4276310Y-16780262D01*
X4276310Y-16827881D01*
X4266786Y-16846929D01*
X4257262Y-16856452D01*
X4238214Y-16865976D01*
X4181071Y-16865976D01*
X4162024Y-16856452D01*
X4152500Y-16846929D01*
X4447738Y-16665976D02*
X4409643Y-16665976D01*
X4390595Y-16675500D01*
X4381071Y-16685024D01*
X4362024Y-16713595D01*
X4352500Y-16751690D01*
X4352500Y-16827881D01*
X4362024Y-16846929D01*
X4371548Y-16856452D01*
X4390595Y-16865976D01*
X4428690Y-16865976D01*
X4447738Y-16856452D01*
X4457262Y-16846929D01*
X4466786Y-16827881D01*
X4466786Y-16780262D01*
X4457262Y-16761214D01*
X4447738Y-16751690D01*
X4428690Y-16742167D01*
X4390595Y-16742167D01*
X4371548Y-16751690D01*
X4362024Y-16761214D01*
X4352500Y-16780262D01*
X4542976Y-16665976D02*
X4542976Y-16704071D01*
X4619167Y-16665976D02*
X4619167Y-16704071D01*
X4914405Y-16942167D02*
X4904881Y-16932643D01*
X4885833Y-16904071D01*
X4876310Y-16885024D01*
X4866786Y-16856452D01*
X4857262Y-16808833D01*
X4857262Y-16770738D01*
X4866786Y-16723119D01*
X4876310Y-16694548D01*
X4885833Y-16675500D01*
X4904881Y-16646928D01*
X4914405Y-16637405D01*
X5076310Y-16732643D02*
X5076310Y-16865976D01*
X5028690Y-16656452D02*
X4981071Y-16799310D01*
X5104881Y-16799310D01*
X5333452Y-16865976D02*
X5333452Y-16665976D01*
X5419167Y-16865976D02*
X5419167Y-16761214D01*
X5409643Y-16742167D01*
X5390595Y-16732643D01*
X5362024Y-16732643D01*
X5342976Y-16742167D01*
X5333452Y-16751690D01*
X5542976Y-16865976D02*
X5523929Y-16856452D01*
X5514405Y-16846929D01*
X5504881Y-16827881D01*
X5504881Y-16770738D01*
X5514405Y-16751690D01*
X5523929Y-16742167D01*
X5542976Y-16732643D01*
X5571548Y-16732643D01*
X5590595Y-16742167D01*
X5600119Y-16751690D01*
X5609643Y-16770738D01*
X5609643Y-16827881D01*
X5600119Y-16846929D01*
X5590595Y-16856452D01*
X5571548Y-16865976D01*
X5542976Y-16865976D01*
X5723928Y-16865976D02*
X5704881Y-16856452D01*
X5695357Y-16837405D01*
X5695357Y-16665976D01*
X5876309Y-16856452D02*
X5857262Y-16865976D01*
X5819167Y-16865976D01*
X5800119Y-16856452D01*
X5790595Y-16837405D01*
X5790595Y-16761214D01*
X5800119Y-16742167D01*
X5819167Y-16732643D01*
X5857262Y-16732643D01*
X5876309Y-16742167D01*
X5885833Y-16761214D01*
X5885833Y-16780262D01*
X5790595Y-16799310D01*
X5962024Y-16856452D02*
X5981071Y-16865976D01*
X6019167Y-16865976D01*
X6038214Y-16856452D01*
X6047738Y-16837405D01*
X6047738Y-16827881D01*
X6038214Y-16808833D01*
X6019167Y-16799310D01*
X5990595Y-16799310D01*
X5971548Y-16789786D01*
X5962024Y-16770738D01*
X5962024Y-16761214D01*
X5971548Y-16742167D01*
X5990595Y-16732643D01*
X6019167Y-16732643D01*
X6038214Y-16742167D01*
X6114405Y-16942167D02*
X6123928Y-16932643D01*
X6142976Y-16904071D01*
X6152500Y-16885024D01*
X6162024Y-16856452D01*
X6171548Y-16808833D01*
X6171548Y-16770738D01*
X6162024Y-16723119D01*
X6152500Y-16694548D01*
X6142976Y-16675500D01*
X6123928Y-16646928D01*
X6114405Y-16637405D01*
D14*
X1332249Y-17064249D02*
X1332249Y-17014751D01*
X1282751Y-17014751D01*
X1282751Y-17064249D01*
X1332249Y-17064249D01*
D11*
X1638214Y-16929976D02*
X1657262Y-16929976D01*
X1676309Y-16939500D01*
X1685833Y-16949024D01*
X1695357Y-16968071D01*
X1704881Y-17006167D01*
X1704881Y-17053786D01*
X1695357Y-17091881D01*
X1685833Y-17110929D01*
X1676309Y-17120452D01*
X1657262Y-17129976D01*
X1638214Y-17129976D01*
X1619167Y-17120452D01*
X1609643Y-17110929D01*
X1600119Y-17091881D01*
X1590595Y-17053786D01*
X1590595Y-17006167D01*
X1600119Y-16968071D01*
X1609643Y-16949024D01*
X1619167Y-16939500D01*
X1638214Y-16929976D01*
X1790595Y-17110929D02*
X1800119Y-17120452D01*
X1790595Y-17129976D01*
X1781071Y-17120452D01*
X1790595Y-17110929D01*
X1790595Y-17129976D01*
X1866786Y-16929976D02*
X2000119Y-16929976D01*
X1914405Y-17129976D01*
X2114405Y-16929976D02*
X2133452Y-16929976D01*
X2152500Y-16939500D01*
X2162024Y-16949024D01*
X2171548Y-16968071D01*
X2181071Y-17006167D01*
X2181071Y-17053786D01*
X2171548Y-17091881D01*
X2162024Y-17110929D01*
X2152500Y-17120452D01*
X2133452Y-17129976D01*
X2114405Y-17129976D01*
X2095357Y-17120452D01*
X2085833Y-17110929D01*
X2076309Y-17091881D01*
X2066786Y-17053786D01*
X2066786Y-17006167D01*
X2076309Y-16968071D01*
X2085833Y-16949024D01*
X2095357Y-16939500D01*
X2114405Y-16929976D01*
X2304881Y-16929976D02*
X2323929Y-16929976D01*
X2342976Y-16939500D01*
X2352500Y-16949024D01*
X2362024Y-16968071D01*
X2371548Y-17006167D01*
X2371548Y-17053786D01*
X2362024Y-17091881D01*
X2352500Y-17110929D01*
X2342976Y-17120452D01*
X2323929Y-17129976D01*
X2304881Y-17129976D01*
X2285833Y-17120452D01*
X2276310Y-17110929D01*
X2266786Y-17091881D01*
X2257262Y-17053786D01*
X2257262Y-17006167D01*
X2266786Y-16968071D01*
X2276310Y-16949024D01*
X2285833Y-16939500D01*
X2304881Y-16929976D01*
X2457262Y-17129976D02*
X2457262Y-16996643D01*
X2457262Y-17015690D02*
X2466786Y-17006167D01*
X2485833Y-16996643D01*
X2514405Y-16996643D01*
X2533452Y-17006167D01*
X2542976Y-17025214D01*
X2542976Y-17129976D01*
X2542976Y-17025214D02*
X2552500Y-17006167D01*
X2571548Y-16996643D01*
X2600119Y-16996643D01*
X2619167Y-17006167D01*
X2628690Y-17025214D01*
X2628690Y-17129976D01*
X2723929Y-17129976D02*
X2723929Y-16996643D01*
X2723929Y-17015690D02*
X2733452Y-17006167D01*
X2752500Y-16996643D01*
X2781071Y-16996643D01*
X2800119Y-17006167D01*
X2809643Y-17025214D01*
X2809643Y-17129976D01*
X2809643Y-17025214D02*
X2819167Y-17006167D01*
X2838214Y-16996643D01*
X2866786Y-16996643D01*
X2885833Y-17006167D01*
X2895357Y-17025214D01*
X2895357Y-17129976D01*
X3285833Y-16920452D02*
X3114405Y-17177595D01*
X3542976Y-16929976D02*
X3562024Y-16929976D01*
X3581071Y-16939500D01*
X3590595Y-16949024D01*
X3600119Y-16968071D01*
X3609643Y-17006167D01*
X3609643Y-17053786D01*
X3600119Y-17091881D01*
X3590595Y-17110929D01*
X3581071Y-17120452D01*
X3562024Y-17129976D01*
X3542976Y-17129976D01*
X3523928Y-17120452D01*
X3514405Y-17110929D01*
X3504881Y-17091881D01*
X3495357Y-17053786D01*
X3495357Y-17006167D01*
X3504881Y-16968071D01*
X3514405Y-16949024D01*
X3523928Y-16939500D01*
X3542976Y-16929976D01*
X3695357Y-17110929D02*
X3704881Y-17120452D01*
X3695357Y-17129976D01*
X3685833Y-17120452D01*
X3695357Y-17110929D01*
X3695357Y-17129976D01*
X3828690Y-16929976D02*
X3847738Y-16929976D01*
X3866786Y-16939500D01*
X3876309Y-16949024D01*
X3885833Y-16968071D01*
X3895357Y-17006167D01*
X3895357Y-17053786D01*
X3885833Y-17091881D01*
X3876309Y-17110929D01*
X3866786Y-17120452D01*
X3847738Y-17129976D01*
X3828690Y-17129976D01*
X3809643Y-17120452D01*
X3800119Y-17110929D01*
X3790595Y-17091881D01*
X3781071Y-17053786D01*
X3781071Y-17006167D01*
X3790595Y-16968071D01*
X3800119Y-16949024D01*
X3809643Y-16939500D01*
X3828690Y-16929976D01*
X3971548Y-16949024D02*
X3981071Y-16939500D01*
X4000119Y-16929976D01*
X4047738Y-16929976D01*
X4066786Y-16939500D01*
X4076309Y-16949024D01*
X4085833Y-16968071D01*
X4085833Y-16987119D01*
X4076309Y-17015690D01*
X3962024Y-17129976D01*
X4085833Y-17129976D01*
X4152500Y-16929976D02*
X4285833Y-16929976D01*
X4200119Y-17129976D01*
X4447738Y-16929976D02*
X4409643Y-16929976D01*
X4390595Y-16939500D01*
X4381071Y-16949024D01*
X4362024Y-16977595D01*
X4352500Y-17015690D01*
X4352500Y-17091881D01*
X4362024Y-17110929D01*
X4371548Y-17120452D01*
X4390595Y-17129976D01*
X4428690Y-17129976D01*
X4447738Y-17120452D01*
X4457262Y-17110929D01*
X4466786Y-17091881D01*
X4466786Y-17044262D01*
X4457262Y-17025214D01*
X4447738Y-17015690D01*
X4428690Y-17006167D01*
X4390595Y-17006167D01*
X4371548Y-17015690D01*
X4362024Y-17025214D01*
X4352500Y-17044262D01*
X4542976Y-16929976D02*
X4542976Y-16968071D01*
X4619167Y-16929976D02*
X4619167Y-16968071D01*
X4914405Y-17206167D02*
X4904881Y-17196643D01*
X4885833Y-17168071D01*
X4876310Y-17149024D01*
X4866786Y-17120452D01*
X4857262Y-17072833D01*
X4857262Y-17034738D01*
X4866786Y-16987119D01*
X4876310Y-16958548D01*
X4885833Y-16939500D01*
X4904881Y-16910929D01*
X4914405Y-16901405D01*
X5076310Y-16929976D02*
X5038214Y-16929976D01*
X5019167Y-16939500D01*
X5009643Y-16949024D01*
X4990595Y-16977595D01*
X4981071Y-17015690D01*
X4981071Y-17091881D01*
X4990595Y-17110929D01*
X5000119Y-17120452D01*
X5019167Y-17129976D01*
X5057262Y-17129976D01*
X5076310Y-17120452D01*
X5085833Y-17110929D01*
X5095357Y-17091881D01*
X5095357Y-17044262D01*
X5085833Y-17025214D01*
X5076310Y-17015690D01*
X5057262Y-17006167D01*
X5019167Y-17006167D01*
X5000119Y-17015690D01*
X4990595Y-17025214D01*
X4981071Y-17044262D01*
X5333452Y-17129976D02*
X5333452Y-16929976D01*
X5419167Y-17129976D02*
X5419167Y-17025214D01*
X5409643Y-17006167D01*
X5390595Y-16996643D01*
X5362024Y-16996643D01*
X5342976Y-17006167D01*
X5333452Y-17015690D01*
X5542976Y-17129976D02*
X5523929Y-17120452D01*
X5514405Y-17110929D01*
X5504881Y-17091881D01*
X5504881Y-17034738D01*
X5514405Y-17015690D01*
X5523929Y-17006167D01*
X5542976Y-16996643D01*
X5571548Y-16996643D01*
X5590595Y-17006167D01*
X5600119Y-17015690D01*
X5609643Y-17034738D01*
X5609643Y-17091881D01*
X5600119Y-17110929D01*
X5590595Y-17120452D01*
X5571548Y-17129976D01*
X5542976Y-17129976D01*
X5723928Y-17129976D02*
X5704881Y-17120452D01*
X5695357Y-17101405D01*
X5695357Y-16929976D01*
X5876309Y-17120452D02*
X5857262Y-17129976D01*
X5819167Y-17129976D01*
X5800119Y-17120452D01*
X5790595Y-17101405D01*
X5790595Y-17025214D01*
X5800119Y-17006167D01*
X5819167Y-16996643D01*
X5857262Y-16996643D01*
X5876309Y-17006167D01*
X5885833Y-17025214D01*
X5885833Y-17044262D01*
X5790595Y-17063310D01*
X5962024Y-17120452D02*
X5981071Y-17129976D01*
X6019167Y-17129976D01*
X6038214Y-17120452D01*
X6047738Y-17101405D01*
X6047738Y-17091881D01*
X6038214Y-17072833D01*
X6019167Y-17063310D01*
X5990595Y-17063310D01*
X5971548Y-17053786D01*
X5962024Y-17034738D01*
X5962024Y-17025214D01*
X5971548Y-17006167D01*
X5990595Y-16996643D01*
X6019167Y-16996643D01*
X6038214Y-17006167D01*
X6114405Y-17206167D02*
X6123928Y-17196643D01*
X6142976Y-17168071D01*
X6152500Y-17149024D01*
X6162024Y-17120452D01*
X6171548Y-17072833D01*
X6171548Y-17034738D01*
X6162024Y-16987119D01*
X6152500Y-16958548D01*
X6142976Y-16939500D01*
X6123928Y-16910929D01*
X6114405Y-16901405D01*
D15*
X1305000Y-17341000D02*
X1342500Y-17303500D01*
X1305000Y-17266000D01*
X1267500Y-17303500D01*
X1305000Y-17341000D01*
D11*
X1638214Y-17193976D02*
X1657262Y-17193976D01*
X1676309Y-17203500D01*
X1685833Y-17213024D01*
X1695357Y-17232071D01*
X1704881Y-17270167D01*
X1704881Y-17317786D01*
X1695357Y-17355881D01*
X1685833Y-17374929D01*
X1676309Y-17384452D01*
X1657262Y-17393976D01*
X1638214Y-17393976D01*
X1619167Y-17384452D01*
X1609643Y-17374929D01*
X1600119Y-17355881D01*
X1590595Y-17317786D01*
X1590595Y-17270167D01*
X1600119Y-17232071D01*
X1609643Y-17213024D01*
X1619167Y-17203500D01*
X1638214Y-17193976D01*
X1790595Y-17374929D02*
X1800119Y-17384452D01*
X1790595Y-17393976D01*
X1781071Y-17384452D01*
X1790595Y-17374929D01*
X1790595Y-17393976D01*
X1866786Y-17193976D02*
X2000119Y-17193976D01*
X1914405Y-17393976D01*
X2171548Y-17193976D02*
X2076309Y-17193976D01*
X2066786Y-17289214D01*
X2076309Y-17279690D01*
X2095357Y-17270167D01*
X2142976Y-17270167D01*
X2162024Y-17279690D01*
X2171548Y-17289214D01*
X2181071Y-17308262D01*
X2181071Y-17355881D01*
X2171548Y-17374929D01*
X2162024Y-17384452D01*
X2142976Y-17393976D01*
X2095357Y-17393976D01*
X2076309Y-17384452D01*
X2066786Y-17374929D01*
X2304881Y-17193976D02*
X2323929Y-17193976D01*
X2342976Y-17203500D01*
X2352500Y-17213024D01*
X2362024Y-17232071D01*
X2371548Y-17270167D01*
X2371548Y-17317786D01*
X2362024Y-17355881D01*
X2352500Y-17374929D01*
X2342976Y-17384452D01*
X2323929Y-17393976D01*
X2304881Y-17393976D01*
X2285833Y-17384452D01*
X2276310Y-17374929D01*
X2266786Y-17355881D01*
X2257262Y-17317786D01*
X2257262Y-17270167D01*
X2266786Y-17232071D01*
X2276310Y-17213024D01*
X2285833Y-17203500D01*
X2304881Y-17193976D01*
X2457262Y-17393976D02*
X2457262Y-17260643D01*
X2457262Y-17279690D02*
X2466786Y-17270167D01*
X2485833Y-17260643D01*
X2514405Y-17260643D01*
X2533452Y-17270167D01*
X2542976Y-17289214D01*
X2542976Y-17393976D01*
X2542976Y-17289214D02*
X2552500Y-17270167D01*
X2571548Y-17260643D01*
X2600119Y-17260643D01*
X2619167Y-17270167D01*
X2628690Y-17289214D01*
X2628690Y-17393976D01*
X2723929Y-17393976D02*
X2723929Y-17260643D01*
X2723929Y-17279690D02*
X2733452Y-17270167D01*
X2752500Y-17260643D01*
X2781071Y-17260643D01*
X2800119Y-17270167D01*
X2809643Y-17289214D01*
X2809643Y-17393976D01*
X2809643Y-17289214D02*
X2819167Y-17270167D01*
X2838214Y-17260643D01*
X2866786Y-17260643D01*
X2885833Y-17270167D01*
X2895357Y-17289214D01*
X2895357Y-17393976D01*
X3285833Y-17184452D02*
X3114405Y-17441595D01*
X3542976Y-17193976D02*
X3562024Y-17193976D01*
X3581071Y-17203500D01*
X3590595Y-17213024D01*
X3600119Y-17232071D01*
X3609643Y-17270167D01*
X3609643Y-17317786D01*
X3600119Y-17355881D01*
X3590595Y-17374929D01*
X3581071Y-17384452D01*
X3562024Y-17393976D01*
X3542976Y-17393976D01*
X3523928Y-17384452D01*
X3514405Y-17374929D01*
X3504881Y-17355881D01*
X3495357Y-17317786D01*
X3495357Y-17270167D01*
X3504881Y-17232071D01*
X3514405Y-17213024D01*
X3523928Y-17203500D01*
X3542976Y-17193976D01*
X3695357Y-17374929D02*
X3704881Y-17384452D01*
X3695357Y-17393976D01*
X3685833Y-17384452D01*
X3695357Y-17374929D01*
X3695357Y-17393976D01*
X3828690Y-17193976D02*
X3847738Y-17193976D01*
X3866786Y-17203500D01*
X3876309Y-17213024D01*
X3885833Y-17232071D01*
X3895357Y-17270167D01*
X3895357Y-17317786D01*
X3885833Y-17355881D01*
X3876309Y-17374929D01*
X3866786Y-17384452D01*
X3847738Y-17393976D01*
X3828690Y-17393976D01*
X3809643Y-17384452D01*
X3800119Y-17374929D01*
X3790595Y-17355881D01*
X3781071Y-17317786D01*
X3781071Y-17270167D01*
X3790595Y-17232071D01*
X3800119Y-17213024D01*
X3809643Y-17203500D01*
X3828690Y-17193976D01*
X3971548Y-17213024D02*
X3981071Y-17203500D01*
X4000119Y-17193976D01*
X4047738Y-17193976D01*
X4066786Y-17203500D01*
X4076309Y-17213024D01*
X4085833Y-17232071D01*
X4085833Y-17251119D01*
X4076309Y-17279690D01*
X3962024Y-17393976D01*
X4085833Y-17393976D01*
X4181071Y-17393976D02*
X4219167Y-17393976D01*
X4238214Y-17384452D01*
X4247738Y-17374929D01*
X4266786Y-17346357D01*
X4276310Y-17308262D01*
X4276310Y-17232071D01*
X4266786Y-17213024D01*
X4257262Y-17203500D01*
X4238214Y-17193976D01*
X4200119Y-17193976D01*
X4181071Y-17203500D01*
X4171548Y-17213024D01*
X4162024Y-17232071D01*
X4162024Y-17279690D01*
X4171548Y-17298738D01*
X4181071Y-17308262D01*
X4200119Y-17317786D01*
X4238214Y-17317786D01*
X4257262Y-17308262D01*
X4266786Y-17298738D01*
X4276310Y-17279690D01*
X4457262Y-17193976D02*
X4362024Y-17193976D01*
X4352500Y-17289214D01*
X4362024Y-17279690D01*
X4381071Y-17270167D01*
X4428690Y-17270167D01*
X4447738Y-17279690D01*
X4457262Y-17289214D01*
X4466786Y-17308262D01*
X4466786Y-17355881D01*
X4457262Y-17374929D01*
X4447738Y-17384452D01*
X4428690Y-17393976D01*
X4381071Y-17393976D01*
X4362024Y-17384452D01*
X4352500Y-17374929D01*
X4542976Y-17193976D02*
X4542976Y-17232071D01*
X4619167Y-17193976D02*
X4619167Y-17232071D01*
X4914405Y-17470167D02*
X4904881Y-17460643D01*
X4885833Y-17432071D01*
X4876310Y-17413024D01*
X4866786Y-17384452D01*
X4857262Y-17336833D01*
X4857262Y-17298738D01*
X4866786Y-17251119D01*
X4876310Y-17222548D01*
X4885833Y-17203500D01*
X4904881Y-17174929D01*
X4914405Y-17165405D01*
X5095357Y-17393976D02*
X4981071Y-17393976D01*
X5038214Y-17393976D02*
X5038214Y-17193976D01*
X5019167Y-17222548D01*
X5000119Y-17241595D01*
X4981071Y-17251119D01*
X5285833Y-17393976D02*
X5171548Y-17393976D01*
X5228690Y-17393976D02*
X5228690Y-17193976D01*
X5209643Y-17222548D01*
X5190595Y-17241595D01*
X5171548Y-17251119D01*
X5523929Y-17393976D02*
X5523929Y-17193976D01*
X5609643Y-17393976D02*
X5609643Y-17289214D01*
X5600119Y-17270167D01*
X5581071Y-17260643D01*
X5552500Y-17260643D01*
X5533452Y-17270167D01*
X5523929Y-17279690D01*
X5733452Y-17393976D02*
X5714405Y-17384452D01*
X5704881Y-17374929D01*
X5695357Y-17355881D01*
X5695357Y-17298738D01*
X5704881Y-17279690D01*
X5714405Y-17270167D01*
X5733452Y-17260643D01*
X5762024Y-17260643D01*
X5781071Y-17270167D01*
X5790595Y-17279690D01*
X5800119Y-17298738D01*
X5800119Y-17355881D01*
X5790595Y-17374929D01*
X5781071Y-17384452D01*
X5762024Y-17393976D01*
X5733452Y-17393976D01*
X5914405Y-17393976D02*
X5895357Y-17384452D01*
X5885833Y-17365405D01*
X5885833Y-17193976D01*
X6066786Y-17384452D02*
X6047738Y-17393976D01*
X6009643Y-17393976D01*
X5990595Y-17384452D01*
X5981071Y-17365405D01*
X5981071Y-17289214D01*
X5990595Y-17270167D01*
X6009643Y-17260643D01*
X6047738Y-17260643D01*
X6066786Y-17270167D01*
X6076309Y-17289214D01*
X6076309Y-17308262D01*
X5981071Y-17327310D01*
X6152500Y-17384452D02*
X6171548Y-17393976D01*
X6209643Y-17393976D01*
X6228690Y-17384452D01*
X6238214Y-17365405D01*
X6238214Y-17355881D01*
X6228690Y-17336833D01*
X6209643Y-17327310D01*
X6181071Y-17327310D01*
X6162024Y-17317786D01*
X6152500Y-17298738D01*
X6152500Y-17289214D01*
X6162024Y-17270167D01*
X6181071Y-17260643D01*
X6209643Y-17260643D01*
X6228690Y-17270167D01*
X6304881Y-17470167D02*
X6314405Y-17460643D01*
X6333452Y-17432071D01*
X6342976Y-17413024D01*
X6352500Y-17384452D01*
X6362024Y-17336833D01*
X6362024Y-17298738D01*
X6352500Y-17251119D01*
X6342976Y-17222548D01*
X6333452Y-17203500D01*
X6314405Y-17174929D01*
X6304881Y-17165405D01*
D16*
X1262500Y-17527500D02*
X1342500Y-17607500D01*
X1342500Y-17527500D02*
X1262500Y-17607500D01*
X1342500Y-17567500D02*
G75*
G03*
X1342500Y-17567500I-40000J0D01*
G01*
D11*
X1638214Y-17457976D02*
X1657262Y-17457976D01*
X1676309Y-17467500D01*
X1685833Y-17477024D01*
X1695357Y-17496071D01*
X1704881Y-17534167D01*
X1704881Y-17581786D01*
X1695357Y-17619881D01*
X1685833Y-17638929D01*
X1676309Y-17648452D01*
X1657262Y-17657976D01*
X1638214Y-17657976D01*
X1619167Y-17648452D01*
X1609643Y-17638929D01*
X1600119Y-17619881D01*
X1590595Y-17581786D01*
X1590595Y-17534167D01*
X1600119Y-17496071D01*
X1609643Y-17477024D01*
X1619167Y-17467500D01*
X1638214Y-17457976D01*
X1790595Y-17638929D02*
X1800119Y-17648452D01*
X1790595Y-17657976D01*
X1781071Y-17648452D01*
X1790595Y-17638929D01*
X1790595Y-17657976D01*
X1914405Y-17543690D02*
X1895357Y-17534167D01*
X1885833Y-17524643D01*
X1876309Y-17505595D01*
X1876309Y-17496071D01*
X1885833Y-17477024D01*
X1895357Y-17467500D01*
X1914405Y-17457976D01*
X1952500Y-17457976D01*
X1971548Y-17467500D01*
X1981071Y-17477024D01*
X1990595Y-17496071D01*
X1990595Y-17505595D01*
X1981071Y-17524643D01*
X1971548Y-17534167D01*
X1952500Y-17543690D01*
X1914405Y-17543690D01*
X1895357Y-17553214D01*
X1885833Y-17562738D01*
X1876309Y-17581786D01*
X1876309Y-17619881D01*
X1885833Y-17638929D01*
X1895357Y-17648452D01*
X1914405Y-17657976D01*
X1952500Y-17657976D01*
X1971548Y-17648452D01*
X1981071Y-17638929D01*
X1990595Y-17619881D01*
X1990595Y-17581786D01*
X1981071Y-17562738D01*
X1971548Y-17553214D01*
X1952500Y-17543690D01*
X2114405Y-17457976D02*
X2133452Y-17457976D01*
X2152500Y-17467500D01*
X2162024Y-17477024D01*
X2171548Y-17496071D01*
X2181071Y-17534167D01*
X2181071Y-17581786D01*
X2171548Y-17619881D01*
X2162024Y-17638929D01*
X2152500Y-17648452D01*
X2133452Y-17657976D01*
X2114405Y-17657976D01*
X2095357Y-17648452D01*
X2085833Y-17638929D01*
X2076309Y-17619881D01*
X2066786Y-17581786D01*
X2066786Y-17534167D01*
X2076309Y-17496071D01*
X2085833Y-17477024D01*
X2095357Y-17467500D01*
X2114405Y-17457976D01*
X2304881Y-17457976D02*
X2323929Y-17457976D01*
X2342976Y-17467500D01*
X2352500Y-17477024D01*
X2362024Y-17496071D01*
X2371548Y-17534167D01*
X2371548Y-17581786D01*
X2362024Y-17619881D01*
X2352500Y-17638929D01*
X2342976Y-17648452D01*
X2323929Y-17657976D01*
X2304881Y-17657976D01*
X2285833Y-17648452D01*
X2276310Y-17638929D01*
X2266786Y-17619881D01*
X2257262Y-17581786D01*
X2257262Y-17534167D01*
X2266786Y-17496071D01*
X2276310Y-17477024D01*
X2285833Y-17467500D01*
X2304881Y-17457976D01*
X2457262Y-17657976D02*
X2457262Y-17524643D01*
X2457262Y-17543690D02*
X2466786Y-17534167D01*
X2485833Y-17524643D01*
X2514405Y-17524643D01*
X2533452Y-17534167D01*
X2542976Y-17553214D01*
X2542976Y-17657976D01*
X2542976Y-17553214D02*
X2552500Y-17534167D01*
X2571548Y-17524643D01*
X2600119Y-17524643D01*
X2619167Y-17534167D01*
X2628690Y-17553214D01*
X2628690Y-17657976D01*
X2723929Y-17657976D02*
X2723929Y-17524643D01*
X2723929Y-17543690D02*
X2733452Y-17534167D01*
X2752500Y-17524643D01*
X2781071Y-17524643D01*
X2800119Y-17534167D01*
X2809643Y-17553214D01*
X2809643Y-17657976D01*
X2809643Y-17553214D02*
X2819167Y-17534167D01*
X2838214Y-17524643D01*
X2866786Y-17524643D01*
X2885833Y-17534167D01*
X2895357Y-17553214D01*
X2895357Y-17657976D01*
X3285833Y-17448452D02*
X3114405Y-17705595D01*
X3542976Y-17457976D02*
X3562024Y-17457976D01*
X3581071Y-17467500D01*
X3590595Y-17477024D01*
X3600119Y-17496071D01*
X3609643Y-17534167D01*
X3609643Y-17581786D01*
X3600119Y-17619881D01*
X3590595Y-17638929D01*
X3581071Y-17648452D01*
X3562024Y-17657976D01*
X3542976Y-17657976D01*
X3523928Y-17648452D01*
X3514405Y-17638929D01*
X3504881Y-17619881D01*
X3495357Y-17581786D01*
X3495357Y-17534167D01*
X3504881Y-17496071D01*
X3514405Y-17477024D01*
X3523928Y-17467500D01*
X3542976Y-17457976D01*
X3695357Y-17638929D02*
X3704881Y-17648452D01*
X3695357Y-17657976D01*
X3685833Y-17648452D01*
X3695357Y-17638929D01*
X3695357Y-17657976D01*
X3828690Y-17457976D02*
X3847738Y-17457976D01*
X3866786Y-17467500D01*
X3876309Y-17477024D01*
X3885833Y-17496071D01*
X3895357Y-17534167D01*
X3895357Y-17581786D01*
X3885833Y-17619881D01*
X3876309Y-17638929D01*
X3866786Y-17648452D01*
X3847738Y-17657976D01*
X3828690Y-17657976D01*
X3809643Y-17648452D01*
X3800119Y-17638929D01*
X3790595Y-17619881D01*
X3781071Y-17581786D01*
X3781071Y-17534167D01*
X3790595Y-17496071D01*
X3800119Y-17477024D01*
X3809643Y-17467500D01*
X3828690Y-17457976D01*
X3962024Y-17457976D02*
X4085833Y-17457976D01*
X4019167Y-17534167D01*
X4047738Y-17534167D01*
X4066786Y-17543690D01*
X4076309Y-17553214D01*
X4085833Y-17572262D01*
X4085833Y-17619881D01*
X4076309Y-17638929D01*
X4066786Y-17648452D01*
X4047738Y-17657976D01*
X3990595Y-17657976D01*
X3971548Y-17648452D01*
X3962024Y-17638929D01*
X4276310Y-17657976D02*
X4162024Y-17657976D01*
X4219167Y-17657976D02*
X4219167Y-17457976D01*
X4200119Y-17486548D01*
X4181071Y-17505595D01*
X4162024Y-17515119D01*
X4457262Y-17457976D02*
X4362024Y-17457976D01*
X4352500Y-17553214D01*
X4362024Y-17543690D01*
X4381071Y-17534167D01*
X4428690Y-17534167D01*
X4447738Y-17543690D01*
X4457262Y-17553214D01*
X4466786Y-17572262D01*
X4466786Y-17619881D01*
X4457262Y-17638929D01*
X4447738Y-17648452D01*
X4428690Y-17657976D01*
X4381071Y-17657976D01*
X4362024Y-17648452D01*
X4352500Y-17638929D01*
X4542976Y-17457976D02*
X4542976Y-17496071D01*
X4619167Y-17457976D02*
X4619167Y-17496071D01*
X4914405Y-17734167D02*
X4904881Y-17724643D01*
X4885833Y-17696071D01*
X4876310Y-17677024D01*
X4866786Y-17648452D01*
X4857262Y-17600833D01*
X4857262Y-17562738D01*
X4866786Y-17515119D01*
X4876310Y-17486548D01*
X4885833Y-17467500D01*
X4904881Y-17438929D01*
X4914405Y-17429405D01*
X5095357Y-17657976D02*
X4981071Y-17657976D01*
X5038214Y-17657976D02*
X5038214Y-17457976D01*
X5019167Y-17486548D01*
X5000119Y-17505595D01*
X4981071Y-17515119D01*
X5190595Y-17657976D02*
X5228690Y-17657976D01*
X5247738Y-17648452D01*
X5257262Y-17638929D01*
X5276310Y-17610357D01*
X5285833Y-17572262D01*
X5285833Y-17496071D01*
X5276310Y-17477024D01*
X5266786Y-17467500D01*
X5247738Y-17457976D01*
X5209643Y-17457976D01*
X5190595Y-17467500D01*
X5181071Y-17477024D01*
X5171548Y-17496071D01*
X5171548Y-17543690D01*
X5181071Y-17562738D01*
X5190595Y-17572262D01*
X5209643Y-17581786D01*
X5247738Y-17581786D01*
X5266786Y-17572262D01*
X5276310Y-17562738D01*
X5285833Y-17543690D01*
X5523929Y-17657976D02*
X5523929Y-17457976D01*
X5609643Y-17657976D02*
X5609643Y-17553214D01*
X5600119Y-17534167D01*
X5581071Y-17524643D01*
X5552500Y-17524643D01*
X5533452Y-17534167D01*
X5523929Y-17543690D01*
X5733452Y-17657976D02*
X5714405Y-17648452D01*
X5704881Y-17638929D01*
X5695357Y-17619881D01*
X5695357Y-17562738D01*
X5704881Y-17543690D01*
X5714405Y-17534167D01*
X5733452Y-17524643D01*
X5762024Y-17524643D01*
X5781071Y-17534167D01*
X5790595Y-17543690D01*
X5800119Y-17562738D01*
X5800119Y-17619881D01*
X5790595Y-17638929D01*
X5781071Y-17648452D01*
X5762024Y-17657976D01*
X5733452Y-17657976D01*
X5914405Y-17657976D02*
X5895357Y-17648452D01*
X5885833Y-17629405D01*
X5885833Y-17457976D01*
X6066786Y-17648452D02*
X6047738Y-17657976D01*
X6009643Y-17657976D01*
X5990595Y-17648452D01*
X5981071Y-17629405D01*
X5981071Y-17553214D01*
X5990595Y-17534167D01*
X6009643Y-17524643D01*
X6047738Y-17524643D01*
X6066786Y-17534167D01*
X6076309Y-17553214D01*
X6076309Y-17572262D01*
X5981071Y-17591310D01*
X6152500Y-17648452D02*
X6171548Y-17657976D01*
X6209643Y-17657976D01*
X6228690Y-17648452D01*
X6238214Y-17629405D01*
X6238214Y-17619881D01*
X6228690Y-17600833D01*
X6209643Y-17591310D01*
X6181071Y-17591310D01*
X6162024Y-17581786D01*
X6152500Y-17562738D01*
X6152500Y-17553214D01*
X6162024Y-17534167D01*
X6181071Y-17524643D01*
X6209643Y-17524643D01*
X6228690Y-17534167D01*
X6304881Y-17734167D02*
X6314405Y-17724643D01*
X6333452Y-17696071D01*
X6342976Y-17677024D01*
X6352500Y-17648452D01*
X6362024Y-17600833D01*
X6362024Y-17562738D01*
X6352500Y-17515119D01*
X6342976Y-17486548D01*
X6333452Y-17467500D01*
X6314405Y-17438929D01*
X6304881Y-17429405D01*
D16*
X1262500Y-17791500D02*
X1342500Y-17871500D01*
X1342500Y-17791500D02*
X1262500Y-17871500D01*
X1302500Y-17791500D02*
X1302500Y-17871500D01*
X1262500Y-17831500D02*
X1342500Y-17831500D01*
D11*
X1638214Y-17721976D02*
X1657262Y-17721976D01*
X1676309Y-17731500D01*
X1685833Y-17741024D01*
X1695357Y-17760071D01*
X1704881Y-17798167D01*
X1704881Y-17845786D01*
X1695357Y-17883881D01*
X1685833Y-17902929D01*
X1676309Y-17912452D01*
X1657262Y-17921976D01*
X1638214Y-17921976D01*
X1619167Y-17912452D01*
X1609643Y-17902929D01*
X1600119Y-17883881D01*
X1590595Y-17845786D01*
X1590595Y-17798167D01*
X1600119Y-17760071D01*
X1609643Y-17741024D01*
X1619167Y-17731500D01*
X1638214Y-17721976D01*
X1790595Y-17902929D02*
X1800119Y-17912452D01*
X1790595Y-17921976D01*
X1781071Y-17912452D01*
X1790595Y-17902929D01*
X1790595Y-17921976D01*
X1914405Y-17807690D02*
X1895357Y-17798167D01*
X1885833Y-17788643D01*
X1876309Y-17769595D01*
X1876309Y-17760071D01*
X1885833Y-17741024D01*
X1895357Y-17731500D01*
X1914405Y-17721976D01*
X1952500Y-17721976D01*
X1971548Y-17731500D01*
X1981071Y-17741024D01*
X1990595Y-17760071D01*
X1990595Y-17769595D01*
X1981071Y-17788643D01*
X1971548Y-17798167D01*
X1952500Y-17807690D01*
X1914405Y-17807690D01*
X1895357Y-17817214D01*
X1885833Y-17826738D01*
X1876309Y-17845786D01*
X1876309Y-17883881D01*
X1885833Y-17902929D01*
X1895357Y-17912452D01*
X1914405Y-17921976D01*
X1952500Y-17921976D01*
X1971548Y-17912452D01*
X1981071Y-17902929D01*
X1990595Y-17883881D01*
X1990595Y-17845786D01*
X1981071Y-17826738D01*
X1971548Y-17817214D01*
X1952500Y-17807690D01*
X2114405Y-17721976D02*
X2133452Y-17721976D01*
X2152500Y-17731500D01*
X2162024Y-17741024D01*
X2171548Y-17760071D01*
X2181071Y-17798167D01*
X2181071Y-17845786D01*
X2171548Y-17883881D01*
X2162024Y-17902929D01*
X2152500Y-17912452D01*
X2133452Y-17921976D01*
X2114405Y-17921976D01*
X2095357Y-17912452D01*
X2085833Y-17902929D01*
X2076309Y-17883881D01*
X2066786Y-17845786D01*
X2066786Y-17798167D01*
X2076309Y-17760071D01*
X2085833Y-17741024D01*
X2095357Y-17731500D01*
X2114405Y-17721976D01*
X2304881Y-17721976D02*
X2323929Y-17721976D01*
X2342976Y-17731500D01*
X2352500Y-17741024D01*
X2362024Y-17760071D01*
X2371548Y-17798167D01*
X2371548Y-17845786D01*
X2362024Y-17883881D01*
X2352500Y-17902929D01*
X2342976Y-17912452D01*
X2323929Y-17921976D01*
X2304881Y-17921976D01*
X2285833Y-17912452D01*
X2276310Y-17902929D01*
X2266786Y-17883881D01*
X2257262Y-17845786D01*
X2257262Y-17798167D01*
X2266786Y-17760071D01*
X2276310Y-17741024D01*
X2285833Y-17731500D01*
X2304881Y-17721976D01*
X2457262Y-17921976D02*
X2457262Y-17788643D01*
X2457262Y-17807690D02*
X2466786Y-17798167D01*
X2485833Y-17788643D01*
X2514405Y-17788643D01*
X2533452Y-17798167D01*
X2542976Y-17817214D01*
X2542976Y-17921976D01*
X2542976Y-17817214D02*
X2552500Y-17798167D01*
X2571548Y-17788643D01*
X2600119Y-17788643D01*
X2619167Y-17798167D01*
X2628690Y-17817214D01*
X2628690Y-17921976D01*
X2723929Y-17921976D02*
X2723929Y-17788643D01*
X2723929Y-17807690D02*
X2733452Y-17798167D01*
X2752500Y-17788643D01*
X2781071Y-17788643D01*
X2800119Y-17798167D01*
X2809643Y-17817214D01*
X2809643Y-17921976D01*
X2809643Y-17817214D02*
X2819167Y-17798167D01*
X2838214Y-17788643D01*
X2866786Y-17788643D01*
X2885833Y-17798167D01*
X2895357Y-17817214D01*
X2895357Y-17921976D01*
X3285833Y-17712452D02*
X3114405Y-17969595D01*
X3542976Y-17721976D02*
X3562024Y-17721976D01*
X3581071Y-17731500D01*
X3590595Y-17741024D01*
X3600119Y-17760071D01*
X3609643Y-17798167D01*
X3609643Y-17845786D01*
X3600119Y-17883881D01*
X3590595Y-17902929D01*
X3581071Y-17912452D01*
X3562024Y-17921976D01*
X3542976Y-17921976D01*
X3523928Y-17912452D01*
X3514405Y-17902929D01*
X3504881Y-17883881D01*
X3495357Y-17845786D01*
X3495357Y-17798167D01*
X3504881Y-17760071D01*
X3514405Y-17741024D01*
X3523928Y-17731500D01*
X3542976Y-17721976D01*
X3695357Y-17902929D02*
X3704881Y-17912452D01*
X3695357Y-17921976D01*
X3685833Y-17912452D01*
X3695357Y-17902929D01*
X3695357Y-17921976D01*
X3828690Y-17721976D02*
X3847738Y-17721976D01*
X3866786Y-17731500D01*
X3876309Y-17741024D01*
X3885833Y-17760071D01*
X3895357Y-17798167D01*
X3895357Y-17845786D01*
X3885833Y-17883881D01*
X3876309Y-17902929D01*
X3866786Y-17912452D01*
X3847738Y-17921976D01*
X3828690Y-17921976D01*
X3809643Y-17912452D01*
X3800119Y-17902929D01*
X3790595Y-17883881D01*
X3781071Y-17845786D01*
X3781071Y-17798167D01*
X3790595Y-17760071D01*
X3800119Y-17741024D01*
X3809643Y-17731500D01*
X3828690Y-17721976D01*
X3962024Y-17721976D02*
X4085833Y-17721976D01*
X4019167Y-17798167D01*
X4047738Y-17798167D01*
X4066786Y-17807690D01*
X4076309Y-17817214D01*
X4085833Y-17836262D01*
X4085833Y-17883881D01*
X4076309Y-17902929D01*
X4066786Y-17912452D01*
X4047738Y-17921976D01*
X3990595Y-17921976D01*
X3971548Y-17912452D01*
X3962024Y-17902929D01*
X4276310Y-17921976D02*
X4162024Y-17921976D01*
X4219167Y-17921976D02*
X4219167Y-17721976D01*
X4200119Y-17750548D01*
X4181071Y-17769595D01*
X4162024Y-17779119D01*
X4457262Y-17721976D02*
X4362024Y-17721976D01*
X4352500Y-17817214D01*
X4362024Y-17807690D01*
X4381071Y-17798167D01*
X4428690Y-17798167D01*
X4447738Y-17807690D01*
X4457262Y-17817214D01*
X4466786Y-17836262D01*
X4466786Y-17883881D01*
X4457262Y-17902929D01*
X4447738Y-17912452D01*
X4428690Y-17921976D01*
X4381071Y-17921976D01*
X4362024Y-17912452D01*
X4352500Y-17902929D01*
X4542976Y-17721976D02*
X4542976Y-17760071D01*
X4619167Y-17721976D02*
X4619167Y-17760071D01*
X4914405Y-17998167D02*
X4904881Y-17988643D01*
X4885833Y-17960071D01*
X4876310Y-17941024D01*
X4866786Y-17912452D01*
X4857262Y-17864833D01*
X4857262Y-17826738D01*
X4866786Y-17779119D01*
X4876310Y-17750548D01*
X4885833Y-17731500D01*
X4904881Y-17702929D01*
X4914405Y-17693405D01*
X5076310Y-17721976D02*
X5038214Y-17721976D01*
X5019167Y-17731500D01*
X5009643Y-17741024D01*
X4990595Y-17769595D01*
X4981071Y-17807690D01*
X4981071Y-17883881D01*
X4990595Y-17902929D01*
X5000119Y-17912452D01*
X5019167Y-17921976D01*
X5057262Y-17921976D01*
X5076310Y-17912452D01*
X5085833Y-17902929D01*
X5095357Y-17883881D01*
X5095357Y-17836262D01*
X5085833Y-17817214D01*
X5076310Y-17807690D01*
X5057262Y-17798167D01*
X5019167Y-17798167D01*
X5000119Y-17807690D01*
X4990595Y-17817214D01*
X4981071Y-17836262D01*
X5266786Y-17788643D02*
X5266786Y-17921976D01*
X5219167Y-17712452D02*
X5171548Y-17855310D01*
X5295357Y-17855310D01*
X5523929Y-17921976D02*
X5523929Y-17721976D01*
X5609643Y-17921976D02*
X5609643Y-17817214D01*
X5600119Y-17798167D01*
X5581071Y-17788643D01*
X5552500Y-17788643D01*
X5533452Y-17798167D01*
X5523929Y-17807690D01*
X5733452Y-17921976D02*
X5714405Y-17912452D01*
X5704881Y-17902929D01*
X5695357Y-17883881D01*
X5695357Y-17826738D01*
X5704881Y-17807690D01*
X5714405Y-17798167D01*
X5733452Y-17788643D01*
X5762024Y-17788643D01*
X5781071Y-17798167D01*
X5790595Y-17807690D01*
X5800119Y-17826738D01*
X5800119Y-17883881D01*
X5790595Y-17902929D01*
X5781071Y-17912452D01*
X5762024Y-17921976D01*
X5733452Y-17921976D01*
X5914405Y-17921976D02*
X5895357Y-17912452D01*
X5885833Y-17893405D01*
X5885833Y-17721976D01*
X6066786Y-17912452D02*
X6047738Y-17921976D01*
X6009643Y-17921976D01*
X5990595Y-17912452D01*
X5981071Y-17893405D01*
X5981071Y-17817214D01*
X5990595Y-17798167D01*
X6009643Y-17788643D01*
X6047738Y-17788643D01*
X6066786Y-17798167D01*
X6076309Y-17817214D01*
X6076309Y-17836262D01*
X5981071Y-17855310D01*
X6152500Y-17912452D02*
X6171548Y-17921976D01*
X6209643Y-17921976D01*
X6228690Y-17912452D01*
X6238214Y-17893405D01*
X6238214Y-17883881D01*
X6228690Y-17864833D01*
X6209643Y-17855310D01*
X6181071Y-17855310D01*
X6162024Y-17845786D01*
X6152500Y-17826738D01*
X6152500Y-17817214D01*
X6162024Y-17798167D01*
X6181071Y-17788643D01*
X6209643Y-17788643D01*
X6228690Y-17798167D01*
X6304881Y-17998167D02*
X6314405Y-17988643D01*
X6333452Y-17960071D01*
X6342976Y-17941024D01*
X6352500Y-17912452D01*
X6362024Y-17864833D01*
X6362024Y-17826738D01*
X6352500Y-17779119D01*
X6342976Y-17750548D01*
X6333452Y-17731500D01*
X6314405Y-17702929D01*
X6304881Y-17693405D01*
D17*
X1250500Y-18049500D02*
X1342500Y-18141500D01*
X1342500Y-18049500D02*
X1250500Y-18141500D01*
X1329027Y-18128027D02*
X1329027Y-18062973D01*
X1263973Y-18062973D01*
X1263973Y-18128027D01*
X1329027Y-18128027D01*
D11*
X1638214Y-17985976D02*
X1657262Y-17985976D01*
X1676309Y-17995500D01*
X1685833Y-18005024D01*
X1695357Y-18024071D01*
X1704881Y-18062167D01*
X1704881Y-18109786D01*
X1695357Y-18147881D01*
X1685833Y-18166929D01*
X1676309Y-18176452D01*
X1657262Y-18185976D01*
X1638214Y-18185976D01*
X1619167Y-18176452D01*
X1609643Y-18166929D01*
X1600119Y-18147881D01*
X1590595Y-18109786D01*
X1590595Y-18062167D01*
X1600119Y-18024071D01*
X1609643Y-18005024D01*
X1619167Y-17995500D01*
X1638214Y-17985976D01*
X1790595Y-18166929D02*
X1800119Y-18176452D01*
X1790595Y-18185976D01*
X1781071Y-18176452D01*
X1790595Y-18166929D01*
X1790595Y-18185976D01*
X1895357Y-18185976D02*
X1933452Y-18185976D01*
X1952500Y-18176452D01*
X1962024Y-18166929D01*
X1981071Y-18138357D01*
X1990595Y-18100262D01*
X1990595Y-18024071D01*
X1981071Y-18005024D01*
X1971548Y-17995500D01*
X1952500Y-17985976D01*
X1914405Y-17985976D01*
X1895357Y-17995500D01*
X1885833Y-18005024D01*
X1876309Y-18024071D01*
X1876309Y-18071690D01*
X1885833Y-18090738D01*
X1895357Y-18100262D01*
X1914405Y-18109786D01*
X1952500Y-18109786D01*
X1971548Y-18100262D01*
X1981071Y-18090738D01*
X1990595Y-18071690D01*
X2066786Y-18005024D02*
X2076309Y-17995500D01*
X2095357Y-17985976D01*
X2142976Y-17985976D01*
X2162024Y-17995500D01*
X2171548Y-18005024D01*
X2181071Y-18024071D01*
X2181071Y-18043119D01*
X2171548Y-18071690D01*
X2057262Y-18185976D01*
X2181071Y-18185976D01*
X2304881Y-17985976D02*
X2323929Y-17985976D01*
X2342976Y-17995500D01*
X2352500Y-18005024D01*
X2362024Y-18024071D01*
X2371548Y-18062167D01*
X2371548Y-18109786D01*
X2362024Y-18147881D01*
X2352500Y-18166929D01*
X2342976Y-18176452D01*
X2323929Y-18185976D01*
X2304881Y-18185976D01*
X2285833Y-18176452D01*
X2276310Y-18166929D01*
X2266786Y-18147881D01*
X2257262Y-18109786D01*
X2257262Y-18062167D01*
X2266786Y-18024071D01*
X2276310Y-18005024D01*
X2285833Y-17995500D01*
X2304881Y-17985976D01*
X2457262Y-18185976D02*
X2457262Y-18052643D01*
X2457262Y-18071690D02*
X2466786Y-18062167D01*
X2485833Y-18052643D01*
X2514405Y-18052643D01*
X2533452Y-18062167D01*
X2542976Y-18081214D01*
X2542976Y-18185976D01*
X2542976Y-18081214D02*
X2552500Y-18062167D01*
X2571548Y-18052643D01*
X2600119Y-18052643D01*
X2619167Y-18062167D01*
X2628690Y-18081214D01*
X2628690Y-18185976D01*
X2723929Y-18185976D02*
X2723929Y-18052643D01*
X2723929Y-18071690D02*
X2733452Y-18062167D01*
X2752500Y-18052643D01*
X2781071Y-18052643D01*
X2800119Y-18062167D01*
X2809643Y-18081214D01*
X2809643Y-18185976D01*
X2809643Y-18081214D02*
X2819167Y-18062167D01*
X2838214Y-18052643D01*
X2866786Y-18052643D01*
X2885833Y-18062167D01*
X2895357Y-18081214D01*
X2895357Y-18185976D01*
X3285833Y-17976452D02*
X3114405Y-18233595D01*
X3542976Y-17985976D02*
X3562024Y-17985976D01*
X3581071Y-17995500D01*
X3590595Y-18005024D01*
X3600119Y-18024071D01*
X3609643Y-18062167D01*
X3609643Y-18109786D01*
X3600119Y-18147881D01*
X3590595Y-18166929D01*
X3581071Y-18176452D01*
X3562024Y-18185976D01*
X3542976Y-18185976D01*
X3523928Y-18176452D01*
X3514405Y-18166929D01*
X3504881Y-18147881D01*
X3495357Y-18109786D01*
X3495357Y-18062167D01*
X3504881Y-18024071D01*
X3514405Y-18005024D01*
X3523928Y-17995500D01*
X3542976Y-17985976D01*
X3695357Y-18166929D02*
X3704881Y-18176452D01*
X3695357Y-18185976D01*
X3685833Y-18176452D01*
X3695357Y-18166929D01*
X3695357Y-18185976D01*
X3828690Y-17985976D02*
X3847738Y-17985976D01*
X3866786Y-17995500D01*
X3876309Y-18005024D01*
X3885833Y-18024071D01*
X3895357Y-18062167D01*
X3895357Y-18109786D01*
X3885833Y-18147881D01*
X3876309Y-18166929D01*
X3866786Y-18176452D01*
X3847738Y-18185976D01*
X3828690Y-18185976D01*
X3809643Y-18176452D01*
X3800119Y-18166929D01*
X3790595Y-18147881D01*
X3781071Y-18109786D01*
X3781071Y-18062167D01*
X3790595Y-18024071D01*
X3800119Y-18005024D01*
X3809643Y-17995500D01*
X3828690Y-17985976D01*
X3962024Y-17985976D02*
X4085833Y-17985976D01*
X4019167Y-18062167D01*
X4047738Y-18062167D01*
X4066786Y-18071690D01*
X4076309Y-18081214D01*
X4085833Y-18100262D01*
X4085833Y-18147881D01*
X4076309Y-18166929D01*
X4066786Y-18176452D01*
X4047738Y-18185976D01*
X3990595Y-18185976D01*
X3971548Y-18176452D01*
X3962024Y-18166929D01*
X4257262Y-17985976D02*
X4219167Y-17985976D01*
X4200119Y-17995500D01*
X4190595Y-18005024D01*
X4171548Y-18033595D01*
X4162024Y-18071690D01*
X4162024Y-18147881D01*
X4171548Y-18166929D01*
X4181071Y-18176452D01*
X4200119Y-18185976D01*
X4238214Y-18185976D01*
X4257262Y-18176452D01*
X4266786Y-18166929D01*
X4276310Y-18147881D01*
X4276310Y-18100262D01*
X4266786Y-18081214D01*
X4257262Y-18071690D01*
X4238214Y-18062167D01*
X4200119Y-18062167D01*
X4181071Y-18071690D01*
X4171548Y-18081214D01*
X4162024Y-18100262D01*
X4352500Y-18005024D02*
X4362024Y-17995500D01*
X4381071Y-17985976D01*
X4428690Y-17985976D01*
X4447738Y-17995500D01*
X4457262Y-18005024D01*
X4466786Y-18024071D01*
X4466786Y-18043119D01*
X4457262Y-18071690D01*
X4342976Y-18185976D01*
X4466786Y-18185976D01*
X4542976Y-17985976D02*
X4542976Y-18024071D01*
X4619167Y-17985976D02*
X4619167Y-18024071D01*
X4914405Y-18262167D02*
X4904881Y-18252643D01*
X4885833Y-18224071D01*
X4876310Y-18205024D01*
X4866786Y-18176452D01*
X4857262Y-18128833D01*
X4857262Y-18090738D01*
X4866786Y-18043119D01*
X4876310Y-18014548D01*
X4885833Y-17995500D01*
X4904881Y-17966929D01*
X4914405Y-17957405D01*
X5076310Y-18052643D02*
X5076310Y-18185976D01*
X5028690Y-17976452D02*
X4981071Y-18119310D01*
X5104881Y-18119310D01*
X5333452Y-18185976D02*
X5333452Y-17985976D01*
X5419167Y-18185976D02*
X5419167Y-18081214D01*
X5409643Y-18062167D01*
X5390595Y-18052643D01*
X5362024Y-18052643D01*
X5342976Y-18062167D01*
X5333452Y-18071690D01*
X5542976Y-18185976D02*
X5523929Y-18176452D01*
X5514405Y-18166929D01*
X5504881Y-18147881D01*
X5504881Y-18090738D01*
X5514405Y-18071690D01*
X5523929Y-18062167D01*
X5542976Y-18052643D01*
X5571548Y-18052643D01*
X5590595Y-18062167D01*
X5600119Y-18071690D01*
X5609643Y-18090738D01*
X5609643Y-18147881D01*
X5600119Y-18166929D01*
X5590595Y-18176452D01*
X5571548Y-18185976D01*
X5542976Y-18185976D01*
X5723928Y-18185976D02*
X5704881Y-18176452D01*
X5695357Y-18157405D01*
X5695357Y-17985976D01*
X5876309Y-18176452D02*
X5857262Y-18185976D01*
X5819167Y-18185976D01*
X5800119Y-18176452D01*
X5790595Y-18157405D01*
X5790595Y-18081214D01*
X5800119Y-18062167D01*
X5819167Y-18052643D01*
X5857262Y-18052643D01*
X5876309Y-18062167D01*
X5885833Y-18081214D01*
X5885833Y-18100262D01*
X5790595Y-18119310D01*
X5962024Y-18176452D02*
X5981071Y-18185976D01*
X6019167Y-18185976D01*
X6038214Y-18176452D01*
X6047738Y-18157405D01*
X6047738Y-18147881D01*
X6038214Y-18128833D01*
X6019167Y-18119310D01*
X5990595Y-18119310D01*
X5971548Y-18109786D01*
X5962024Y-18090738D01*
X5962024Y-18081214D01*
X5971548Y-18062167D01*
X5990595Y-18052643D01*
X6019167Y-18052643D01*
X6038214Y-18062167D01*
X6114405Y-18262167D02*
X6123928Y-18252643D01*
X6142976Y-18224071D01*
X6152500Y-18205024D01*
X6162024Y-18176452D01*
X6171548Y-18128833D01*
X6171548Y-18090738D01*
X6162024Y-18043119D01*
X6152500Y-18014548D01*
X6142976Y-17995500D01*
X6123928Y-17966929D01*
X6114405Y-17957405D01*
D18*
X1242500Y-18309500D02*
X1342500Y-18409500D01*
X1342500Y-18309500D02*
X1242500Y-18409500D01*
X1292500Y-18409500D02*
X1342500Y-18359500D01*
X1292500Y-18309500D01*
X1242500Y-18359500D01*
X1292500Y-18409500D01*
D11*
X1704881Y-18449976D02*
X1590595Y-18449976D01*
X1647738Y-18449976D02*
X1647738Y-18249976D01*
X1628690Y-18278548D01*
X1609643Y-18297595D01*
X1590595Y-18307119D01*
X1790595Y-18430929D02*
X1800119Y-18440452D01*
X1790595Y-18449976D01*
X1781071Y-18440452D01*
X1790595Y-18430929D01*
X1790595Y-18449976D01*
X1923928Y-18249976D02*
X1942976Y-18249976D01*
X1962024Y-18259500D01*
X1971548Y-18269024D01*
X1981071Y-18288071D01*
X1990595Y-18326167D01*
X1990595Y-18373786D01*
X1981071Y-18411881D01*
X1971548Y-18430929D01*
X1962024Y-18440452D01*
X1942976Y-18449976D01*
X1923928Y-18449976D01*
X1904881Y-18440452D01*
X1895357Y-18430929D01*
X1885833Y-18411881D01*
X1876309Y-18373786D01*
X1876309Y-18326167D01*
X1885833Y-18288071D01*
X1895357Y-18269024D01*
X1904881Y-18259500D01*
X1923928Y-18249976D01*
X2114405Y-18249976D02*
X2133452Y-18249976D01*
X2152500Y-18259500D01*
X2162024Y-18269024D01*
X2171548Y-18288071D01*
X2181071Y-18326167D01*
X2181071Y-18373786D01*
X2171548Y-18411881D01*
X2162024Y-18430929D01*
X2152500Y-18440452D01*
X2133452Y-18449976D01*
X2114405Y-18449976D01*
X2095357Y-18440452D01*
X2085833Y-18430929D01*
X2076309Y-18411881D01*
X2066786Y-18373786D01*
X2066786Y-18326167D01*
X2076309Y-18288071D01*
X2085833Y-18269024D01*
X2095357Y-18259500D01*
X2114405Y-18249976D01*
X2304881Y-18249976D02*
X2323929Y-18249976D01*
X2342976Y-18259500D01*
X2352500Y-18269024D01*
X2362024Y-18288071D01*
X2371548Y-18326167D01*
X2371548Y-18373786D01*
X2362024Y-18411881D01*
X2352500Y-18430929D01*
X2342976Y-18440452D01*
X2323929Y-18449976D01*
X2304881Y-18449976D01*
X2285833Y-18440452D01*
X2276310Y-18430929D01*
X2266786Y-18411881D01*
X2257262Y-18373786D01*
X2257262Y-18326167D01*
X2266786Y-18288071D01*
X2276310Y-18269024D01*
X2285833Y-18259500D01*
X2304881Y-18249976D01*
X2457262Y-18449976D02*
X2457262Y-18316643D01*
X2457262Y-18335690D02*
X2466786Y-18326167D01*
X2485833Y-18316643D01*
X2514405Y-18316643D01*
X2533452Y-18326167D01*
X2542976Y-18345214D01*
X2542976Y-18449976D01*
X2542976Y-18345214D02*
X2552500Y-18326167D01*
X2571548Y-18316643D01*
X2600119Y-18316643D01*
X2619167Y-18326167D01*
X2628690Y-18345214D01*
X2628690Y-18449976D01*
X2723929Y-18449976D02*
X2723929Y-18316643D01*
X2723929Y-18335690D02*
X2733452Y-18326167D01*
X2752500Y-18316643D01*
X2781071Y-18316643D01*
X2800119Y-18326167D01*
X2809643Y-18345214D01*
X2809643Y-18449976D01*
X2809643Y-18345214D02*
X2819167Y-18326167D01*
X2838214Y-18316643D01*
X2866786Y-18316643D01*
X2885833Y-18326167D01*
X2895357Y-18345214D01*
X2895357Y-18449976D01*
X3285833Y-18240452D02*
X3114405Y-18497595D01*
X3542976Y-18249976D02*
X3562024Y-18249976D01*
X3581071Y-18259500D01*
X3590595Y-18269024D01*
X3600119Y-18288071D01*
X3609643Y-18326167D01*
X3609643Y-18373786D01*
X3600119Y-18411881D01*
X3590595Y-18430929D01*
X3581071Y-18440452D01*
X3562024Y-18449976D01*
X3542976Y-18449976D01*
X3523928Y-18440452D01*
X3514405Y-18430929D01*
X3504881Y-18411881D01*
X3495357Y-18373786D01*
X3495357Y-18326167D01*
X3504881Y-18288071D01*
X3514405Y-18269024D01*
X3523928Y-18259500D01*
X3542976Y-18249976D01*
X3695357Y-18430929D02*
X3704881Y-18440452D01*
X3695357Y-18449976D01*
X3685833Y-18440452D01*
X3695357Y-18430929D01*
X3695357Y-18449976D01*
X3828690Y-18249976D02*
X3847738Y-18249976D01*
X3866786Y-18259500D01*
X3876309Y-18269024D01*
X3885833Y-18288071D01*
X3895357Y-18326167D01*
X3895357Y-18373786D01*
X3885833Y-18411881D01*
X3876309Y-18430929D01*
X3866786Y-18440452D01*
X3847738Y-18449976D01*
X3828690Y-18449976D01*
X3809643Y-18440452D01*
X3800119Y-18430929D01*
X3790595Y-18411881D01*
X3781071Y-18373786D01*
X3781071Y-18326167D01*
X3790595Y-18288071D01*
X3800119Y-18269024D01*
X3809643Y-18259500D01*
X3828690Y-18249976D01*
X3962024Y-18249976D02*
X4085833Y-18249976D01*
X4019167Y-18326167D01*
X4047738Y-18326167D01*
X4066786Y-18335690D01*
X4076309Y-18345214D01*
X4085833Y-18364262D01*
X4085833Y-18411881D01*
X4076309Y-18430929D01*
X4066786Y-18440452D01*
X4047738Y-18449976D01*
X3990595Y-18449976D01*
X3971548Y-18440452D01*
X3962024Y-18430929D01*
X4181071Y-18449976D02*
X4219167Y-18449976D01*
X4238214Y-18440452D01*
X4247738Y-18430929D01*
X4266786Y-18402357D01*
X4276310Y-18364262D01*
X4276310Y-18288071D01*
X4266786Y-18269024D01*
X4257262Y-18259500D01*
X4238214Y-18249976D01*
X4200119Y-18249976D01*
X4181071Y-18259500D01*
X4171548Y-18269024D01*
X4162024Y-18288071D01*
X4162024Y-18335690D01*
X4171548Y-18354738D01*
X4181071Y-18364262D01*
X4200119Y-18373786D01*
X4238214Y-18373786D01*
X4257262Y-18364262D01*
X4266786Y-18354738D01*
X4276310Y-18335690D01*
X4447738Y-18316643D02*
X4447738Y-18449976D01*
X4400119Y-18240452D02*
X4352500Y-18383310D01*
X4476310Y-18383310D01*
X4542976Y-18249976D02*
X4542976Y-18288071D01*
X4619167Y-18249976D02*
X4619167Y-18288071D01*
X4914405Y-18526167D02*
X4904881Y-18516643D01*
X4885833Y-18488071D01*
X4876310Y-18469024D01*
X4866786Y-18440452D01*
X4857262Y-18392833D01*
X4857262Y-18354738D01*
X4866786Y-18307119D01*
X4876310Y-18278548D01*
X4885833Y-18259500D01*
X4904881Y-18230929D01*
X4914405Y-18221405D01*
X5085833Y-18249976D02*
X4990595Y-18249976D01*
X4981071Y-18345214D01*
X4990595Y-18335690D01*
X5009643Y-18326167D01*
X5057262Y-18326167D01*
X5076310Y-18335690D01*
X5085833Y-18345214D01*
X5095357Y-18364262D01*
X5095357Y-18411881D01*
X5085833Y-18430929D01*
X5076310Y-18440452D01*
X5057262Y-18449976D01*
X5009643Y-18449976D01*
X4990595Y-18440452D01*
X4981071Y-18430929D01*
X5285833Y-18449976D02*
X5171548Y-18449976D01*
X5228690Y-18449976D02*
X5228690Y-18249976D01*
X5209643Y-18278548D01*
X5190595Y-18297595D01*
X5171548Y-18307119D01*
X5523929Y-18449976D02*
X5523929Y-18249976D01*
X5609643Y-18449976D02*
X5609643Y-18345214D01*
X5600119Y-18326167D01*
X5581071Y-18316643D01*
X5552500Y-18316643D01*
X5533452Y-18326167D01*
X5523929Y-18335690D01*
X5733452Y-18449976D02*
X5714405Y-18440452D01*
X5704881Y-18430929D01*
X5695357Y-18411881D01*
X5695357Y-18354738D01*
X5704881Y-18335690D01*
X5714405Y-18326167D01*
X5733452Y-18316643D01*
X5762024Y-18316643D01*
X5781071Y-18326167D01*
X5790595Y-18335690D01*
X5800119Y-18354738D01*
X5800119Y-18411881D01*
X5790595Y-18430929D01*
X5781071Y-18440452D01*
X5762024Y-18449976D01*
X5733452Y-18449976D01*
X5914405Y-18449976D02*
X5895357Y-18440452D01*
X5885833Y-18421405D01*
X5885833Y-18249976D01*
X6066786Y-18440452D02*
X6047738Y-18449976D01*
X6009643Y-18449976D01*
X5990595Y-18440452D01*
X5981071Y-18421405D01*
X5981071Y-18345214D01*
X5990595Y-18326167D01*
X6009643Y-18316643D01*
X6047738Y-18316643D01*
X6066786Y-18326167D01*
X6076309Y-18345214D01*
X6076309Y-18364262D01*
X5981071Y-18383310D01*
X6152500Y-18440452D02*
X6171548Y-18449976D01*
X6209643Y-18449976D01*
X6228690Y-18440452D01*
X6238214Y-18421405D01*
X6238214Y-18411881D01*
X6228690Y-18392833D01*
X6209643Y-18383310D01*
X6181071Y-18383310D01*
X6162024Y-18373786D01*
X6152500Y-18354738D01*
X6152500Y-18345214D01*
X6162024Y-18326167D01*
X6181071Y-18316643D01*
X6209643Y-18316643D01*
X6228690Y-18326167D01*
X6304881Y-18526167D02*
X6314405Y-18516643D01*
X6333452Y-18488071D01*
X6342976Y-18469024D01*
X6352500Y-18440452D01*
X6362024Y-18392833D01*
X6362024Y-18354738D01*
X6352500Y-18307119D01*
X6342976Y-18278548D01*
X6333452Y-18259500D01*
X6314405Y-18230929D01*
X6304881Y-18221405D01*
D19*
X1287500Y-18568500D02*
X1287500Y-18678500D01*
X1232500Y-18623500D02*
X1342500Y-18623500D01*
X1342500Y-18623500D02*
G75*
G03*
X1342500Y-18623500I-55000J0D01*
G01*
D11*
X1704881Y-18713976D02*
X1590595Y-18713976D01*
X1647738Y-18713976D02*
X1647738Y-18513976D01*
X1628690Y-18542548D01*
X1609643Y-18561595D01*
X1590595Y-18571119D01*
X1790595Y-18694929D02*
X1800119Y-18704452D01*
X1790595Y-18713976D01*
X1781071Y-18704452D01*
X1790595Y-18694929D01*
X1790595Y-18713976D01*
X1990595Y-18713976D02*
X1876309Y-18713976D01*
X1933452Y-18713976D02*
X1933452Y-18513976D01*
X1914405Y-18542548D01*
X1895357Y-18561595D01*
X1876309Y-18571119D01*
X2114405Y-18513976D02*
X2133452Y-18513976D01*
X2152500Y-18523500D01*
X2162024Y-18533024D01*
X2171548Y-18552071D01*
X2181071Y-18590167D01*
X2181071Y-18637786D01*
X2171548Y-18675881D01*
X2162024Y-18694929D01*
X2152500Y-18704452D01*
X2133452Y-18713976D01*
X2114405Y-18713976D01*
X2095357Y-18704452D01*
X2085833Y-18694929D01*
X2076309Y-18675881D01*
X2066786Y-18637786D01*
X2066786Y-18590167D01*
X2076309Y-18552071D01*
X2085833Y-18533024D01*
X2095357Y-18523500D01*
X2114405Y-18513976D01*
X2304881Y-18513976D02*
X2323929Y-18513976D01*
X2342976Y-18523500D01*
X2352500Y-18533024D01*
X2362024Y-18552071D01*
X2371548Y-18590167D01*
X2371548Y-18637786D01*
X2362024Y-18675881D01*
X2352500Y-18694929D01*
X2342976Y-18704452D01*
X2323929Y-18713976D01*
X2304881Y-18713976D01*
X2285833Y-18704452D01*
X2276310Y-18694929D01*
X2266786Y-18675881D01*
X2257262Y-18637786D01*
X2257262Y-18590167D01*
X2266786Y-18552071D01*
X2276310Y-18533024D01*
X2285833Y-18523500D01*
X2304881Y-18513976D01*
X2457262Y-18713976D02*
X2457262Y-18580643D01*
X2457262Y-18599690D02*
X2466786Y-18590167D01*
X2485833Y-18580643D01*
X2514405Y-18580643D01*
X2533452Y-18590167D01*
X2542976Y-18609214D01*
X2542976Y-18713976D01*
X2542976Y-18609214D02*
X2552500Y-18590167D01*
X2571548Y-18580643D01*
X2600119Y-18580643D01*
X2619167Y-18590167D01*
X2628690Y-18609214D01*
X2628690Y-18713976D01*
X2723929Y-18713976D02*
X2723929Y-18580643D01*
X2723929Y-18599690D02*
X2733452Y-18590167D01*
X2752500Y-18580643D01*
X2781071Y-18580643D01*
X2800119Y-18590167D01*
X2809643Y-18609214D01*
X2809643Y-18713976D01*
X2809643Y-18609214D02*
X2819167Y-18590167D01*
X2838214Y-18580643D01*
X2866786Y-18580643D01*
X2885833Y-18590167D01*
X2895357Y-18609214D01*
X2895357Y-18713976D01*
X3285833Y-18504452D02*
X3114405Y-18761595D01*
X3542976Y-18513976D02*
X3562024Y-18513976D01*
X3581071Y-18523500D01*
X3590595Y-18533024D01*
X3600119Y-18552071D01*
X3609643Y-18590167D01*
X3609643Y-18637786D01*
X3600119Y-18675881D01*
X3590595Y-18694929D01*
X3581071Y-18704452D01*
X3562024Y-18713976D01*
X3542976Y-18713976D01*
X3523928Y-18704452D01*
X3514405Y-18694929D01*
X3504881Y-18675881D01*
X3495357Y-18637786D01*
X3495357Y-18590167D01*
X3504881Y-18552071D01*
X3514405Y-18533024D01*
X3523928Y-18523500D01*
X3542976Y-18513976D01*
X3695357Y-18694929D02*
X3704881Y-18704452D01*
X3695357Y-18713976D01*
X3685833Y-18704452D01*
X3695357Y-18694929D01*
X3695357Y-18713976D01*
X3828690Y-18513976D02*
X3847738Y-18513976D01*
X3866786Y-18523500D01*
X3876309Y-18533024D01*
X3885833Y-18552071D01*
X3895357Y-18590167D01*
X3895357Y-18637786D01*
X3885833Y-18675881D01*
X3876309Y-18694929D01*
X3866786Y-18704452D01*
X3847738Y-18713976D01*
X3828690Y-18713976D01*
X3809643Y-18704452D01*
X3800119Y-18694929D01*
X3790595Y-18675881D01*
X3781071Y-18637786D01*
X3781071Y-18590167D01*
X3790595Y-18552071D01*
X3800119Y-18533024D01*
X3809643Y-18523500D01*
X3828690Y-18513976D01*
X4066786Y-18580643D02*
X4066786Y-18713976D01*
X4019167Y-18504452D02*
X3971548Y-18647310D01*
X4095357Y-18647310D01*
X4152500Y-18513976D02*
X4276310Y-18513976D01*
X4209643Y-18590167D01*
X4238214Y-18590167D01*
X4257262Y-18599690D01*
X4266786Y-18609214D01*
X4276310Y-18628262D01*
X4276310Y-18675881D01*
X4266786Y-18694929D01*
X4257262Y-18704452D01*
X4238214Y-18713976D01*
X4181071Y-18713976D01*
X4162024Y-18704452D01*
X4152500Y-18694929D01*
X4342976Y-18513976D02*
X4466786Y-18513976D01*
X4400119Y-18590167D01*
X4428690Y-18590167D01*
X4447738Y-18599690D01*
X4457262Y-18609214D01*
X4466786Y-18628262D01*
X4466786Y-18675881D01*
X4457262Y-18694929D01*
X4447738Y-18704452D01*
X4428690Y-18713976D01*
X4371548Y-18713976D01*
X4352500Y-18704452D01*
X4342976Y-18694929D01*
X4542976Y-18513976D02*
X4542976Y-18552071D01*
X4619167Y-18513976D02*
X4619167Y-18552071D01*
X4914405Y-18790167D02*
X4904881Y-18780643D01*
X4885833Y-18752071D01*
X4876310Y-18733024D01*
X4866786Y-18704452D01*
X4857262Y-18656833D01*
X4857262Y-18618738D01*
X4866786Y-18571119D01*
X4876310Y-18542548D01*
X4885833Y-18523500D01*
X4904881Y-18494929D01*
X4914405Y-18485405D01*
X5085833Y-18513976D02*
X4990595Y-18513976D01*
X4981071Y-18609214D01*
X4990595Y-18599690D01*
X5009643Y-18590167D01*
X5057262Y-18590167D01*
X5076310Y-18599690D01*
X5085833Y-18609214D01*
X5095357Y-18628262D01*
X5095357Y-18675881D01*
X5085833Y-18694929D01*
X5076310Y-18704452D01*
X5057262Y-18713976D01*
X5009643Y-18713976D01*
X4990595Y-18704452D01*
X4981071Y-18694929D01*
X5333452Y-18713976D02*
X5333452Y-18513976D01*
X5419167Y-18713976D02*
X5419167Y-18609214D01*
X5409643Y-18590167D01*
X5390595Y-18580643D01*
X5362024Y-18580643D01*
X5342976Y-18590167D01*
X5333452Y-18599690D01*
X5542976Y-18713976D02*
X5523929Y-18704452D01*
X5514405Y-18694929D01*
X5504881Y-18675881D01*
X5504881Y-18618738D01*
X5514405Y-18599690D01*
X5523929Y-18590167D01*
X5542976Y-18580643D01*
X5571548Y-18580643D01*
X5590595Y-18590167D01*
X5600119Y-18599690D01*
X5609643Y-18618738D01*
X5609643Y-18675881D01*
X5600119Y-18694929D01*
X5590595Y-18704452D01*
X5571548Y-18713976D01*
X5542976Y-18713976D01*
X5723928Y-18713976D02*
X5704881Y-18704452D01*
X5695357Y-18685405D01*
X5695357Y-18513976D01*
X5876309Y-18704452D02*
X5857262Y-18713976D01*
X5819167Y-18713976D01*
X5800119Y-18704452D01*
X5790595Y-18685405D01*
X5790595Y-18609214D01*
X5800119Y-18590167D01*
X5819167Y-18580643D01*
X5857262Y-18580643D01*
X5876309Y-18590167D01*
X5885833Y-18609214D01*
X5885833Y-18628262D01*
X5790595Y-18647310D01*
X5962024Y-18704452D02*
X5981071Y-18713976D01*
X6019167Y-18713976D01*
X6038214Y-18704452D01*
X6047738Y-18685405D01*
X6047738Y-18675881D01*
X6038214Y-18656833D01*
X6019167Y-18647310D01*
X5990595Y-18647310D01*
X5971548Y-18637786D01*
X5962024Y-18618738D01*
X5962024Y-18609214D01*
X5971548Y-18590167D01*
X5990595Y-18580643D01*
X6019167Y-18580643D01*
X6038214Y-18590167D01*
X6114405Y-18790167D02*
X6123928Y-18780643D01*
X6142976Y-18752071D01*
X6152500Y-18733024D01*
X6162024Y-18704452D01*
X6171548Y-18656833D01*
X6171548Y-18618738D01*
X6162024Y-18571119D01*
X6152500Y-18542548D01*
X6142976Y-18523500D01*
X6123928Y-18494929D01*
X6114405Y-18485405D01*
D20*
X1324927Y-18929927D02*
X1324927Y-18845073D01*
X1240073Y-18845073D01*
X1240073Y-18929927D01*
X1324927Y-18929927D01*
X1342500Y-18887500D02*
G75*
G03*
X1342500Y-18887500I-60000J0D01*
G01*
D11*
X1704881Y-18977976D02*
X1590595Y-18977976D01*
X1647738Y-18977976D02*
X1647738Y-18777976D01*
X1628690Y-18806548D01*
X1609643Y-18825595D01*
X1590595Y-18835119D01*
X1790595Y-18958929D02*
X1800119Y-18968452D01*
X1790595Y-18977976D01*
X1781071Y-18968452D01*
X1790595Y-18958929D01*
X1790595Y-18977976D01*
X1876309Y-18797024D02*
X1885833Y-18787500D01*
X1904881Y-18777976D01*
X1952500Y-18777976D01*
X1971548Y-18787500D01*
X1981071Y-18797024D01*
X1990595Y-18816071D01*
X1990595Y-18835119D01*
X1981071Y-18863690D01*
X1866786Y-18977976D01*
X1990595Y-18977976D01*
X2114405Y-18777976D02*
X2133452Y-18777976D01*
X2152500Y-18787500D01*
X2162024Y-18797024D01*
X2171548Y-18816071D01*
X2181071Y-18854167D01*
X2181071Y-18901786D01*
X2171548Y-18939881D01*
X2162024Y-18958929D01*
X2152500Y-18968452D01*
X2133452Y-18977976D01*
X2114405Y-18977976D01*
X2095357Y-18968452D01*
X2085833Y-18958929D01*
X2076309Y-18939881D01*
X2066786Y-18901786D01*
X2066786Y-18854167D01*
X2076309Y-18816071D01*
X2085833Y-18797024D01*
X2095357Y-18787500D01*
X2114405Y-18777976D01*
X2304881Y-18777976D02*
X2323929Y-18777976D01*
X2342976Y-18787500D01*
X2352500Y-18797024D01*
X2362024Y-18816071D01*
X2371548Y-18854167D01*
X2371548Y-18901786D01*
X2362024Y-18939881D01*
X2352500Y-18958929D01*
X2342976Y-18968452D01*
X2323929Y-18977976D01*
X2304881Y-18977976D01*
X2285833Y-18968452D01*
X2276310Y-18958929D01*
X2266786Y-18939881D01*
X2257262Y-18901786D01*
X2257262Y-18854167D01*
X2266786Y-18816071D01*
X2276310Y-18797024D01*
X2285833Y-18787500D01*
X2304881Y-18777976D01*
X2457262Y-18977976D02*
X2457262Y-18844643D01*
X2457262Y-18863690D02*
X2466786Y-18854167D01*
X2485833Y-18844643D01*
X2514405Y-18844643D01*
X2533452Y-18854167D01*
X2542976Y-18873214D01*
X2542976Y-18977976D01*
X2542976Y-18873214D02*
X2552500Y-18854167D01*
X2571548Y-18844643D01*
X2600119Y-18844643D01*
X2619167Y-18854167D01*
X2628690Y-18873214D01*
X2628690Y-18977976D01*
X2723929Y-18977976D02*
X2723929Y-18844643D01*
X2723929Y-18863690D02*
X2733452Y-18854167D01*
X2752500Y-18844643D01*
X2781071Y-18844643D01*
X2800119Y-18854167D01*
X2809643Y-18873214D01*
X2809643Y-18977976D01*
X2809643Y-18873214D02*
X2819167Y-18854167D01*
X2838214Y-18844643D01*
X2866786Y-18844643D01*
X2885833Y-18854167D01*
X2895357Y-18873214D01*
X2895357Y-18977976D01*
X3285833Y-18768452D02*
X3114405Y-19025595D01*
X3542976Y-18777976D02*
X3562024Y-18777976D01*
X3581071Y-18787500D01*
X3590595Y-18797024D01*
X3600119Y-18816071D01*
X3609643Y-18854167D01*
X3609643Y-18901786D01*
X3600119Y-18939881D01*
X3590595Y-18958929D01*
X3581071Y-18968452D01*
X3562024Y-18977976D01*
X3542976Y-18977976D01*
X3523928Y-18968452D01*
X3514405Y-18958929D01*
X3504881Y-18939881D01*
X3495357Y-18901786D01*
X3495357Y-18854167D01*
X3504881Y-18816071D01*
X3514405Y-18797024D01*
X3523928Y-18787500D01*
X3542976Y-18777976D01*
X3695357Y-18958929D02*
X3704881Y-18968452D01*
X3695357Y-18977976D01*
X3685833Y-18968452D01*
X3695357Y-18958929D01*
X3695357Y-18977976D01*
X3828690Y-18777976D02*
X3847738Y-18777976D01*
X3866786Y-18787500D01*
X3876309Y-18797024D01*
X3885833Y-18816071D01*
X3895357Y-18854167D01*
X3895357Y-18901786D01*
X3885833Y-18939881D01*
X3876309Y-18958929D01*
X3866786Y-18968452D01*
X3847738Y-18977976D01*
X3828690Y-18977976D01*
X3809643Y-18968452D01*
X3800119Y-18958929D01*
X3790595Y-18939881D01*
X3781071Y-18901786D01*
X3781071Y-18854167D01*
X3790595Y-18816071D01*
X3800119Y-18797024D01*
X3809643Y-18787500D01*
X3828690Y-18777976D01*
X4066786Y-18844643D02*
X4066786Y-18977976D01*
X4019167Y-18768452D02*
X3971548Y-18911310D01*
X4095357Y-18911310D01*
X4152500Y-18777976D02*
X4285833Y-18777976D01*
X4200119Y-18977976D01*
X4352500Y-18797024D02*
X4362024Y-18787500D01*
X4381071Y-18777976D01*
X4428690Y-18777976D01*
X4447738Y-18787500D01*
X4457262Y-18797024D01*
X4466786Y-18816071D01*
X4466786Y-18835119D01*
X4457262Y-18863690D01*
X4342976Y-18977976D01*
X4466786Y-18977976D01*
X4542976Y-18777976D02*
X4542976Y-18816071D01*
X4619167Y-18777976D02*
X4619167Y-18816071D01*
X4914405Y-19054167D02*
X4904881Y-19044643D01*
X4885833Y-19016071D01*
X4876310Y-18997024D01*
X4866786Y-18968452D01*
X4857262Y-18920833D01*
X4857262Y-18882738D01*
X4866786Y-18835119D01*
X4876310Y-18806548D01*
X4885833Y-18787500D01*
X4904881Y-18758929D01*
X4914405Y-18749405D01*
X5095357Y-18977976D02*
X4981071Y-18977976D01*
X5038214Y-18977976D02*
X5038214Y-18777976D01*
X5019167Y-18806548D01*
X5000119Y-18825595D01*
X4981071Y-18835119D01*
X5162024Y-18777976D02*
X5295357Y-18777976D01*
X5209643Y-18977976D01*
X5523929Y-18977976D02*
X5523929Y-18777976D01*
X5609643Y-18977976D02*
X5609643Y-18873214D01*
X5600119Y-18854167D01*
X5581071Y-18844643D01*
X5552500Y-18844643D01*
X5533452Y-18854167D01*
X5523929Y-18863690D01*
X5733452Y-18977976D02*
X5714405Y-18968452D01*
X5704881Y-18958929D01*
X5695357Y-18939881D01*
X5695357Y-18882738D01*
X5704881Y-18863690D01*
X5714405Y-18854167D01*
X5733452Y-18844643D01*
X5762024Y-18844643D01*
X5781071Y-18854167D01*
X5790595Y-18863690D01*
X5800119Y-18882738D01*
X5800119Y-18939881D01*
X5790595Y-18958929D01*
X5781071Y-18968452D01*
X5762024Y-18977976D01*
X5733452Y-18977976D01*
X5914405Y-18977976D02*
X5895357Y-18968452D01*
X5885833Y-18949405D01*
X5885833Y-18777976D01*
X6066786Y-18968452D02*
X6047738Y-18977976D01*
X6009643Y-18977976D01*
X5990595Y-18968452D01*
X5981071Y-18949405D01*
X5981071Y-18873214D01*
X5990595Y-18854167D01*
X6009643Y-18844643D01*
X6047738Y-18844643D01*
X6066786Y-18854167D01*
X6076309Y-18873214D01*
X6076309Y-18892262D01*
X5981071Y-18911310D01*
X6152500Y-18968452D02*
X6171548Y-18977976D01*
X6209643Y-18977976D01*
X6228690Y-18968452D01*
X6238214Y-18949405D01*
X6238214Y-18939881D01*
X6228690Y-18920833D01*
X6209643Y-18911310D01*
X6181071Y-18911310D01*
X6162024Y-18901786D01*
X6152500Y-18882738D01*
X6152500Y-18873214D01*
X6162024Y-18854167D01*
X6181071Y-18844643D01*
X6209643Y-18844643D01*
X6228690Y-18854167D01*
X6304881Y-19054167D02*
X6314405Y-19044643D01*
X6333452Y-19016071D01*
X6342976Y-18997024D01*
X6352500Y-18968452D01*
X6362024Y-18920833D01*
X6362024Y-18882738D01*
X6352500Y-18835119D01*
X6342976Y-18806548D01*
X6333452Y-18787500D01*
X6314405Y-18758929D01*
X6304881Y-18749405D01*
D21*
X1277500Y-19216500D02*
X1342500Y-19151500D01*
X1277500Y-19086500D01*
X1212500Y-19151500D01*
X1277500Y-19216500D01*
X1342500Y-19151500D02*
G75*
G03*
X1342500Y-19151500I-65000J0D01*
G01*
D11*
X1704881Y-19241976D02*
X1590595Y-19241976D01*
X1647738Y-19241976D02*
X1647738Y-19041976D01*
X1628690Y-19070548D01*
X1609643Y-19089595D01*
X1590595Y-19099119D01*
X1790595Y-19222929D02*
X1800119Y-19232452D01*
X1790595Y-19241976D01*
X1781071Y-19232452D01*
X1790595Y-19222929D01*
X1790595Y-19241976D01*
X1866786Y-19041976D02*
X1990595Y-19041976D01*
X1923928Y-19118167D01*
X1952500Y-19118167D01*
X1971548Y-19127690D01*
X1981071Y-19137214D01*
X1990595Y-19156262D01*
X1990595Y-19203881D01*
X1981071Y-19222929D01*
X1971548Y-19232452D01*
X1952500Y-19241976D01*
X1895357Y-19241976D01*
X1876309Y-19232452D01*
X1866786Y-19222929D01*
X2114405Y-19041976D02*
X2133452Y-19041976D01*
X2152500Y-19051500D01*
X2162024Y-19061024D01*
X2171548Y-19080071D01*
X2181071Y-19118167D01*
X2181071Y-19165786D01*
X2171548Y-19203881D01*
X2162024Y-19222929D01*
X2152500Y-19232452D01*
X2133452Y-19241976D01*
X2114405Y-19241976D01*
X2095357Y-19232452D01*
X2085833Y-19222929D01*
X2076309Y-19203881D01*
X2066786Y-19165786D01*
X2066786Y-19118167D01*
X2076309Y-19080071D01*
X2085833Y-19061024D01*
X2095357Y-19051500D01*
X2114405Y-19041976D01*
X2304881Y-19041976D02*
X2323929Y-19041976D01*
X2342976Y-19051500D01*
X2352500Y-19061024D01*
X2362024Y-19080071D01*
X2371548Y-19118167D01*
X2371548Y-19165786D01*
X2362024Y-19203881D01*
X2352500Y-19222929D01*
X2342976Y-19232452D01*
X2323929Y-19241976D01*
X2304881Y-19241976D01*
X2285833Y-19232452D01*
X2276310Y-19222929D01*
X2266786Y-19203881D01*
X2257262Y-19165786D01*
X2257262Y-19118167D01*
X2266786Y-19080071D01*
X2276310Y-19061024D01*
X2285833Y-19051500D01*
X2304881Y-19041976D01*
X2457262Y-19241976D02*
X2457262Y-19108643D01*
X2457262Y-19127690D02*
X2466786Y-19118167D01*
X2485833Y-19108643D01*
X2514405Y-19108643D01*
X2533452Y-19118167D01*
X2542976Y-19137214D01*
X2542976Y-19241976D01*
X2542976Y-19137214D02*
X2552500Y-19118167D01*
X2571548Y-19108643D01*
X2600119Y-19108643D01*
X2619167Y-19118167D01*
X2628690Y-19137214D01*
X2628690Y-19241976D01*
X2723929Y-19241976D02*
X2723929Y-19108643D01*
X2723929Y-19127690D02*
X2733452Y-19118167D01*
X2752500Y-19108643D01*
X2781071Y-19108643D01*
X2800119Y-19118167D01*
X2809643Y-19137214D01*
X2809643Y-19241976D01*
X2809643Y-19137214D02*
X2819167Y-19118167D01*
X2838214Y-19108643D01*
X2866786Y-19108643D01*
X2885833Y-19118167D01*
X2895357Y-19137214D01*
X2895357Y-19241976D01*
X3285833Y-19032452D02*
X3114405Y-19289595D01*
X3542976Y-19041976D02*
X3562024Y-19041976D01*
X3581071Y-19051500D01*
X3590595Y-19061024D01*
X3600119Y-19080071D01*
X3609643Y-19118167D01*
X3609643Y-19165786D01*
X3600119Y-19203881D01*
X3590595Y-19222929D01*
X3581071Y-19232452D01*
X3562024Y-19241976D01*
X3542976Y-19241976D01*
X3523928Y-19232452D01*
X3514405Y-19222929D01*
X3504881Y-19203881D01*
X3495357Y-19165786D01*
X3495357Y-19118167D01*
X3504881Y-19080071D01*
X3514405Y-19061024D01*
X3523928Y-19051500D01*
X3542976Y-19041976D01*
X3695357Y-19222929D02*
X3704881Y-19232452D01*
X3695357Y-19241976D01*
X3685833Y-19232452D01*
X3695357Y-19222929D01*
X3695357Y-19241976D01*
X3828690Y-19041976D02*
X3847738Y-19041976D01*
X3866786Y-19051500D01*
X3876309Y-19061024D01*
X3885833Y-19080071D01*
X3895357Y-19118167D01*
X3895357Y-19165786D01*
X3885833Y-19203881D01*
X3876309Y-19222929D01*
X3866786Y-19232452D01*
X3847738Y-19241976D01*
X3828690Y-19241976D01*
X3809643Y-19232452D01*
X3800119Y-19222929D01*
X3790595Y-19203881D01*
X3781071Y-19165786D01*
X3781071Y-19118167D01*
X3790595Y-19080071D01*
X3800119Y-19061024D01*
X3809643Y-19051500D01*
X3828690Y-19041976D01*
X4076309Y-19041976D02*
X3981071Y-19041976D01*
X3971548Y-19137214D01*
X3981071Y-19127690D01*
X4000119Y-19118167D01*
X4047738Y-19118167D01*
X4066786Y-19127690D01*
X4076309Y-19137214D01*
X4085833Y-19156262D01*
X4085833Y-19203881D01*
X4076309Y-19222929D01*
X4066786Y-19232452D01*
X4047738Y-19241976D01*
X4000119Y-19241976D01*
X3981071Y-19232452D01*
X3971548Y-19222929D01*
X4276310Y-19241976D02*
X4162024Y-19241976D01*
X4219167Y-19241976D02*
X4219167Y-19041976D01*
X4200119Y-19070548D01*
X4181071Y-19089595D01*
X4162024Y-19099119D01*
X4352500Y-19061024D02*
X4362024Y-19051500D01*
X4381071Y-19041976D01*
X4428690Y-19041976D01*
X4447738Y-19051500D01*
X4457262Y-19061024D01*
X4466786Y-19080071D01*
X4466786Y-19099119D01*
X4457262Y-19127690D01*
X4342976Y-19241976D01*
X4466786Y-19241976D01*
X4542976Y-19041976D02*
X4542976Y-19080071D01*
X4619167Y-19041976D02*
X4619167Y-19080071D01*
X4914405Y-19318167D02*
X4904881Y-19308643D01*
X4885833Y-19280071D01*
X4876310Y-19261024D01*
X4866786Y-19232452D01*
X4857262Y-19184833D01*
X4857262Y-19146738D01*
X4866786Y-19099119D01*
X4876310Y-19070548D01*
X4885833Y-19051500D01*
X4904881Y-19022929D01*
X4914405Y-19013405D01*
X4981071Y-19061024D02*
X4990595Y-19051500D01*
X5009643Y-19041976D01*
X5057262Y-19041976D01*
X5076310Y-19051500D01*
X5085833Y-19061024D01*
X5095357Y-19080071D01*
X5095357Y-19099119D01*
X5085833Y-19127690D01*
X4971548Y-19241976D01*
X5095357Y-19241976D01*
X5162024Y-19041976D02*
X5285833Y-19041976D01*
X5219167Y-19118167D01*
X5247738Y-19118167D01*
X5266786Y-19127690D01*
X5276310Y-19137214D01*
X5285833Y-19156262D01*
X5285833Y-19203881D01*
X5276310Y-19222929D01*
X5266786Y-19232452D01*
X5247738Y-19241976D01*
X5190595Y-19241976D01*
X5171548Y-19232452D01*
X5162024Y-19222929D01*
X5523929Y-19241976D02*
X5523929Y-19041976D01*
X5609643Y-19241976D02*
X5609643Y-19137214D01*
X5600119Y-19118167D01*
X5581071Y-19108643D01*
X5552500Y-19108643D01*
X5533452Y-19118167D01*
X5523929Y-19127690D01*
X5733452Y-19241976D02*
X5714405Y-19232452D01*
X5704881Y-19222929D01*
X5695357Y-19203881D01*
X5695357Y-19146738D01*
X5704881Y-19127690D01*
X5714405Y-19118167D01*
X5733452Y-19108643D01*
X5762024Y-19108643D01*
X5781071Y-19118167D01*
X5790595Y-19127690D01*
X5800119Y-19146738D01*
X5800119Y-19203881D01*
X5790595Y-19222929D01*
X5781071Y-19232452D01*
X5762024Y-19241976D01*
X5733452Y-19241976D01*
X5914405Y-19241976D02*
X5895357Y-19232452D01*
X5885833Y-19213405D01*
X5885833Y-19041976D01*
X6066786Y-19232452D02*
X6047738Y-19241976D01*
X6009643Y-19241976D01*
X5990595Y-19232452D01*
X5981071Y-19213405D01*
X5981071Y-19137214D01*
X5990595Y-19118167D01*
X6009643Y-19108643D01*
X6047738Y-19108643D01*
X6066786Y-19118167D01*
X6076309Y-19137214D01*
X6076309Y-19156262D01*
X5981071Y-19175310D01*
X6152500Y-19232452D02*
X6171548Y-19241976D01*
X6209643Y-19241976D01*
X6228690Y-19232452D01*
X6238214Y-19213405D01*
X6238214Y-19203881D01*
X6228690Y-19184833D01*
X6209643Y-19175310D01*
X6181071Y-19175310D01*
X6162024Y-19165786D01*
X6152500Y-19146738D01*
X6152500Y-19137214D01*
X6162024Y-19118167D01*
X6181071Y-19108643D01*
X6209643Y-19108643D01*
X6228690Y-19118167D01*
X6304881Y-19318167D02*
X6314405Y-19308643D01*
X6333452Y-19280071D01*
X6342976Y-19261024D01*
X6352500Y-19232452D01*
X6362024Y-19184833D01*
X6362024Y-19146738D01*
X6352500Y-19099119D01*
X6342976Y-19070548D01*
X6333452Y-19051500D01*
X6314405Y-19022929D01*
X6304881Y-19013405D01*
D22*
X1267500Y-19340500D02*
X1267500Y-19490500D01*
X1192500Y-19415500D02*
X1342500Y-19415500D01*
X1320534Y-19468534D02*
X1320534Y-19362467D01*
X1214467Y-19362467D01*
X1214467Y-19468534D01*
X1320534Y-19468534D01*
D11*
X1704881Y-19505976D02*
X1590595Y-19505976D01*
X1647738Y-19505976D02*
X1647738Y-19305976D01*
X1628690Y-19334548D01*
X1609643Y-19353595D01*
X1590595Y-19363119D01*
X1790595Y-19486929D02*
X1800119Y-19496452D01*
X1790595Y-19505976D01*
X1781071Y-19496452D01*
X1790595Y-19486929D01*
X1790595Y-19505976D01*
X1981071Y-19305976D02*
X1885833Y-19305976D01*
X1876309Y-19401214D01*
X1885833Y-19391690D01*
X1904881Y-19382167D01*
X1952500Y-19382167D01*
X1971548Y-19391690D01*
X1981071Y-19401214D01*
X1990595Y-19420262D01*
X1990595Y-19467881D01*
X1981071Y-19486929D01*
X1971548Y-19496452D01*
X1952500Y-19505976D01*
X1904881Y-19505976D01*
X1885833Y-19496452D01*
X1876309Y-19486929D01*
X2114405Y-19305976D02*
X2133452Y-19305976D01*
X2152500Y-19315500D01*
X2162024Y-19325024D01*
X2171548Y-19344071D01*
X2181071Y-19382167D01*
X2181071Y-19429786D01*
X2171548Y-19467881D01*
X2162024Y-19486929D01*
X2152500Y-19496452D01*
X2133452Y-19505976D01*
X2114405Y-19505976D01*
X2095357Y-19496452D01*
X2085833Y-19486929D01*
X2076309Y-19467881D01*
X2066786Y-19429786D01*
X2066786Y-19382167D01*
X2076309Y-19344071D01*
X2085833Y-19325024D01*
X2095357Y-19315500D01*
X2114405Y-19305976D01*
X2304881Y-19305976D02*
X2323929Y-19305976D01*
X2342976Y-19315500D01*
X2352500Y-19325024D01*
X2362024Y-19344071D01*
X2371548Y-19382167D01*
X2371548Y-19429786D01*
X2362024Y-19467881D01*
X2352500Y-19486929D01*
X2342976Y-19496452D01*
X2323929Y-19505976D01*
X2304881Y-19505976D01*
X2285833Y-19496452D01*
X2276310Y-19486929D01*
X2266786Y-19467881D01*
X2257262Y-19429786D01*
X2257262Y-19382167D01*
X2266786Y-19344071D01*
X2276310Y-19325024D01*
X2285833Y-19315500D01*
X2304881Y-19305976D01*
X2457262Y-19505976D02*
X2457262Y-19372643D01*
X2457262Y-19391690D02*
X2466786Y-19382167D01*
X2485833Y-19372643D01*
X2514405Y-19372643D01*
X2533452Y-19382167D01*
X2542976Y-19401214D01*
X2542976Y-19505976D01*
X2542976Y-19401214D02*
X2552500Y-19382167D01*
X2571548Y-19372643D01*
X2600119Y-19372643D01*
X2619167Y-19382167D01*
X2628690Y-19401214D01*
X2628690Y-19505976D01*
X2723929Y-19505976D02*
X2723929Y-19372643D01*
X2723929Y-19391690D02*
X2733452Y-19382167D01*
X2752500Y-19372643D01*
X2781071Y-19372643D01*
X2800119Y-19382167D01*
X2809643Y-19401214D01*
X2809643Y-19505976D01*
X2809643Y-19401214D02*
X2819167Y-19382167D01*
X2838214Y-19372643D01*
X2866786Y-19372643D01*
X2885833Y-19382167D01*
X2895357Y-19401214D01*
X2895357Y-19505976D01*
X3285833Y-19296452D02*
X3114405Y-19553595D01*
X3542976Y-19305976D02*
X3562024Y-19305976D01*
X3581071Y-19315500D01*
X3590595Y-19325024D01*
X3600119Y-19344071D01*
X3609643Y-19382167D01*
X3609643Y-19429786D01*
X3600119Y-19467881D01*
X3590595Y-19486929D01*
X3581071Y-19496452D01*
X3562024Y-19505976D01*
X3542976Y-19505976D01*
X3523928Y-19496452D01*
X3514405Y-19486929D01*
X3504881Y-19467881D01*
X3495357Y-19429786D01*
X3495357Y-19382167D01*
X3504881Y-19344071D01*
X3514405Y-19325024D01*
X3523928Y-19315500D01*
X3542976Y-19305976D01*
X3695357Y-19486929D02*
X3704881Y-19496452D01*
X3695357Y-19505976D01*
X3685833Y-19496452D01*
X3695357Y-19486929D01*
X3695357Y-19505976D01*
X3828690Y-19305976D02*
X3847738Y-19305976D01*
X3866786Y-19315500D01*
X3876309Y-19325024D01*
X3885833Y-19344071D01*
X3895357Y-19382167D01*
X3895357Y-19429786D01*
X3885833Y-19467881D01*
X3876309Y-19486929D01*
X3866786Y-19496452D01*
X3847738Y-19505976D01*
X3828690Y-19505976D01*
X3809643Y-19496452D01*
X3800119Y-19486929D01*
X3790595Y-19467881D01*
X3781071Y-19429786D01*
X3781071Y-19382167D01*
X3790595Y-19344071D01*
X3800119Y-19325024D01*
X3809643Y-19315500D01*
X3828690Y-19305976D01*
X4076309Y-19305976D02*
X3981071Y-19305976D01*
X3971548Y-19401214D01*
X3981071Y-19391690D01*
X4000119Y-19382167D01*
X4047738Y-19382167D01*
X4066786Y-19391690D01*
X4076309Y-19401214D01*
X4085833Y-19420262D01*
X4085833Y-19467881D01*
X4076309Y-19486929D01*
X4066786Y-19496452D01*
X4047738Y-19505976D01*
X4000119Y-19505976D01*
X3981071Y-19496452D01*
X3971548Y-19486929D01*
X4181071Y-19505976D02*
X4219167Y-19505976D01*
X4238214Y-19496452D01*
X4247738Y-19486929D01*
X4266786Y-19458357D01*
X4276310Y-19420262D01*
X4276310Y-19344071D01*
X4266786Y-19325024D01*
X4257262Y-19315500D01*
X4238214Y-19305976D01*
X4200119Y-19305976D01*
X4181071Y-19315500D01*
X4171548Y-19325024D01*
X4162024Y-19344071D01*
X4162024Y-19391690D01*
X4171548Y-19410738D01*
X4181071Y-19420262D01*
X4200119Y-19429786D01*
X4238214Y-19429786D01*
X4257262Y-19420262D01*
X4266786Y-19410738D01*
X4276310Y-19391690D01*
X4466786Y-19505976D02*
X4352500Y-19505976D01*
X4409643Y-19505976D02*
X4409643Y-19305976D01*
X4390595Y-19334548D01*
X4371548Y-19353595D01*
X4352500Y-19363119D01*
X4542976Y-19305976D02*
X4542976Y-19344071D01*
X4619167Y-19305976D02*
X4619167Y-19344071D01*
X4914405Y-19582167D02*
X4904881Y-19572643D01*
X4885833Y-19544071D01*
X4876310Y-19525024D01*
X4866786Y-19496452D01*
X4857262Y-19448833D01*
X4857262Y-19410738D01*
X4866786Y-19363119D01*
X4876310Y-19334548D01*
X4885833Y-19315500D01*
X4904881Y-19286929D01*
X4914405Y-19277405D01*
X5019167Y-19391690D02*
X5000119Y-19382167D01*
X4990595Y-19372643D01*
X4981071Y-19353595D01*
X4981071Y-19344071D01*
X4990595Y-19325024D01*
X5000119Y-19315500D01*
X5019167Y-19305976D01*
X5057262Y-19305976D01*
X5076310Y-19315500D01*
X5085833Y-19325024D01*
X5095357Y-19344071D01*
X5095357Y-19353595D01*
X5085833Y-19372643D01*
X5076310Y-19382167D01*
X5057262Y-19391690D01*
X5019167Y-19391690D01*
X5000119Y-19401214D01*
X4990595Y-19410738D01*
X4981071Y-19429786D01*
X4981071Y-19467881D01*
X4990595Y-19486929D01*
X5000119Y-19496452D01*
X5019167Y-19505976D01*
X5057262Y-19505976D01*
X5076310Y-19496452D01*
X5085833Y-19486929D01*
X5095357Y-19467881D01*
X5095357Y-19429786D01*
X5085833Y-19410738D01*
X5076310Y-19401214D01*
X5057262Y-19391690D01*
X5333452Y-19505976D02*
X5333452Y-19305976D01*
X5419167Y-19505976D02*
X5419167Y-19401214D01*
X5409643Y-19382167D01*
X5390595Y-19372643D01*
X5362024Y-19372643D01*
X5342976Y-19382167D01*
X5333452Y-19391690D01*
X5542976Y-19505976D02*
X5523929Y-19496452D01*
X5514405Y-19486929D01*
X5504881Y-19467881D01*
X5504881Y-19410738D01*
X5514405Y-19391690D01*
X5523929Y-19382167D01*
X5542976Y-19372643D01*
X5571548Y-19372643D01*
X5590595Y-19382167D01*
X5600119Y-19391690D01*
X5609643Y-19410738D01*
X5609643Y-19467881D01*
X5600119Y-19486929D01*
X5590595Y-19496452D01*
X5571548Y-19505976D01*
X5542976Y-19505976D01*
X5723928Y-19505976D02*
X5704881Y-19496452D01*
X5695357Y-19477405D01*
X5695357Y-19305976D01*
X5876309Y-19496452D02*
X5857262Y-19505976D01*
X5819167Y-19505976D01*
X5800119Y-19496452D01*
X5790595Y-19477405D01*
X5790595Y-19401214D01*
X5800119Y-19382167D01*
X5819167Y-19372643D01*
X5857262Y-19372643D01*
X5876309Y-19382167D01*
X5885833Y-19401214D01*
X5885833Y-19420262D01*
X5790595Y-19439310D01*
X5962024Y-19496452D02*
X5981071Y-19505976D01*
X6019167Y-19505976D01*
X6038214Y-19496452D01*
X6047738Y-19477405D01*
X6047738Y-19467881D01*
X6038214Y-19448833D01*
X6019167Y-19439310D01*
X5990595Y-19439310D01*
X5971548Y-19429786D01*
X5962024Y-19410738D01*
X5962024Y-19401214D01*
X5971548Y-19382167D01*
X5990595Y-19372643D01*
X6019167Y-19372643D01*
X6038214Y-19382167D01*
X6114405Y-19582167D02*
X6123928Y-19572643D01*
X6142976Y-19544071D01*
X6152500Y-19525024D01*
X6162024Y-19496452D01*
X6171548Y-19448833D01*
X6171548Y-19410738D01*
X6162024Y-19363119D01*
X6152500Y-19334548D01*
X6142976Y-19315500D01*
X6123928Y-19286929D01*
X6114405Y-19277405D01*
X1242500Y-19585500D02*
X1242500Y-19785500D01*
X1142500Y-19685500D02*
X1342500Y-19685500D01*
X1242500Y-19785500D02*
X1342500Y-19685500D01*
X1242500Y-19585500D01*
X1142500Y-19685500D01*
X1242500Y-19785500D01*
X1590595Y-19595024D02*
X1600119Y-19585500D01*
X1619167Y-19575976D01*
X1666786Y-19575976D01*
X1685833Y-19585500D01*
X1695357Y-19595024D01*
X1704881Y-19614071D01*
X1704881Y-19633119D01*
X1695357Y-19661690D01*
X1581071Y-19775976D01*
X1704881Y-19775976D01*
X1790595Y-19756929D02*
X1800119Y-19766452D01*
X1790595Y-19775976D01*
X1781071Y-19766452D01*
X1790595Y-19756929D01*
X1790595Y-19775976D01*
X1866786Y-19575976D02*
X1990595Y-19575976D01*
X1923928Y-19652167D01*
X1952500Y-19652167D01*
X1971548Y-19661690D01*
X1981071Y-19671214D01*
X1990595Y-19690262D01*
X1990595Y-19737881D01*
X1981071Y-19756929D01*
X1971548Y-19766452D01*
X1952500Y-19775976D01*
X1895357Y-19775976D01*
X1876309Y-19766452D01*
X1866786Y-19756929D01*
X2057262Y-19575976D02*
X2181071Y-19575976D01*
X2114405Y-19652167D01*
X2142976Y-19652167D01*
X2162024Y-19661690D01*
X2171548Y-19671214D01*
X2181071Y-19690262D01*
X2181071Y-19737881D01*
X2171548Y-19756929D01*
X2162024Y-19766452D01*
X2142976Y-19775976D01*
X2085833Y-19775976D01*
X2066786Y-19766452D01*
X2057262Y-19756929D01*
X2304881Y-19575976D02*
X2323929Y-19575976D01*
X2342976Y-19585500D01*
X2352500Y-19595024D01*
X2362024Y-19614071D01*
X2371548Y-19652167D01*
X2371548Y-19699786D01*
X2362024Y-19737881D01*
X2352500Y-19756929D01*
X2342976Y-19766452D01*
X2323929Y-19775976D01*
X2304881Y-19775976D01*
X2285833Y-19766452D01*
X2276310Y-19756929D01*
X2266786Y-19737881D01*
X2257262Y-19699786D01*
X2257262Y-19652167D01*
X2266786Y-19614071D01*
X2276310Y-19595024D01*
X2285833Y-19585500D01*
X2304881Y-19575976D01*
X2457262Y-19775976D02*
X2457262Y-19642643D01*
X2457262Y-19661690D02*
X2466786Y-19652167D01*
X2485833Y-19642643D01*
X2514405Y-19642643D01*
X2533452Y-19652167D01*
X2542976Y-19671214D01*
X2542976Y-19775976D01*
X2542976Y-19671214D02*
X2552500Y-19652167D01*
X2571548Y-19642643D01*
X2600119Y-19642643D01*
X2619167Y-19652167D01*
X2628690Y-19671214D01*
X2628690Y-19775976D01*
X2723929Y-19775976D02*
X2723929Y-19642643D01*
X2723929Y-19661690D02*
X2733452Y-19652167D01*
X2752500Y-19642643D01*
X2781071Y-19642643D01*
X2800119Y-19652167D01*
X2809643Y-19671214D01*
X2809643Y-19775976D01*
X2809643Y-19671214D02*
X2819167Y-19652167D01*
X2838214Y-19642643D01*
X2866786Y-19642643D01*
X2885833Y-19652167D01*
X2895357Y-19671214D01*
X2895357Y-19775976D01*
X3285833Y-19566452D02*
X3114405Y-19823595D01*
X3542976Y-19575976D02*
X3562024Y-19575976D01*
X3581071Y-19585500D01*
X3590595Y-19595024D01*
X3600119Y-19614071D01*
X3609643Y-19652167D01*
X3609643Y-19699786D01*
X3600119Y-19737881D01*
X3590595Y-19756929D01*
X3581071Y-19766452D01*
X3562024Y-19775976D01*
X3542976Y-19775976D01*
X3523928Y-19766452D01*
X3514405Y-19756929D01*
X3504881Y-19737881D01*
X3495357Y-19699786D01*
X3495357Y-19652167D01*
X3504881Y-19614071D01*
X3514405Y-19595024D01*
X3523928Y-19585500D01*
X3542976Y-19575976D01*
X3695357Y-19756929D02*
X3704881Y-19766452D01*
X3695357Y-19775976D01*
X3685833Y-19766452D01*
X3695357Y-19756929D01*
X3695357Y-19775976D01*
X3828690Y-19575976D02*
X3847738Y-19575976D01*
X3866786Y-19585500D01*
X3876309Y-19595024D01*
X3885833Y-19614071D01*
X3895357Y-19652167D01*
X3895357Y-19699786D01*
X3885833Y-19737881D01*
X3876309Y-19756929D01*
X3866786Y-19766452D01*
X3847738Y-19775976D01*
X3828690Y-19775976D01*
X3809643Y-19766452D01*
X3800119Y-19756929D01*
X3790595Y-19737881D01*
X3781071Y-19699786D01*
X3781071Y-19652167D01*
X3790595Y-19614071D01*
X3800119Y-19595024D01*
X3809643Y-19585500D01*
X3828690Y-19575976D01*
X3990595Y-19775976D02*
X4028690Y-19775976D01*
X4047738Y-19766452D01*
X4057262Y-19756929D01*
X4076309Y-19728357D01*
X4085833Y-19690262D01*
X4085833Y-19614071D01*
X4076309Y-19595024D01*
X4066786Y-19585500D01*
X4047738Y-19575976D01*
X4009643Y-19575976D01*
X3990595Y-19585500D01*
X3981071Y-19595024D01*
X3971548Y-19614071D01*
X3971548Y-19661690D01*
X3981071Y-19680738D01*
X3990595Y-19690262D01*
X4009643Y-19699786D01*
X4047738Y-19699786D01*
X4066786Y-19690262D01*
X4076309Y-19680738D01*
X4085833Y-19661690D01*
X4276310Y-19775976D02*
X4162024Y-19775976D01*
X4219167Y-19775976D02*
X4219167Y-19575976D01*
X4200119Y-19604548D01*
X4181071Y-19623595D01*
X4162024Y-19633119D01*
X4342976Y-19575976D02*
X4476310Y-19575976D01*
X4390595Y-19775976D01*
X4542976Y-19575976D02*
X4542976Y-19614071D01*
X4619167Y-19575976D02*
X4619167Y-19614071D01*
X4914405Y-19852167D02*
X4904881Y-19842643D01*
X4885833Y-19814071D01*
X4876310Y-19795024D01*
X4866786Y-19766452D01*
X4857262Y-19718833D01*
X4857262Y-19680738D01*
X4866786Y-19633119D01*
X4876310Y-19604548D01*
X4885833Y-19585500D01*
X4904881Y-19556929D01*
X4914405Y-19547405D01*
X4981071Y-19595024D02*
X4990595Y-19585500D01*
X5009643Y-19575976D01*
X5057262Y-19575976D01*
X5076310Y-19585500D01*
X5085833Y-19595024D01*
X5095357Y-19614071D01*
X5095357Y-19633119D01*
X5085833Y-19661690D01*
X4971548Y-19775976D01*
X5095357Y-19775976D01*
X5333452Y-19775976D02*
X5333452Y-19575976D01*
X5419167Y-19775976D02*
X5419167Y-19671214D01*
X5409643Y-19652167D01*
X5390595Y-19642643D01*
X5362024Y-19642643D01*
X5342976Y-19652167D01*
X5333452Y-19661690D01*
X5542976Y-19775976D02*
X5523929Y-19766452D01*
X5514405Y-19756929D01*
X5504881Y-19737881D01*
X5504881Y-19680738D01*
X5514405Y-19661690D01*
X5523929Y-19652167D01*
X5542976Y-19642643D01*
X5571548Y-19642643D01*
X5590595Y-19652167D01*
X5600119Y-19661690D01*
X5609643Y-19680738D01*
X5609643Y-19737881D01*
X5600119Y-19756929D01*
X5590595Y-19766452D01*
X5571548Y-19775976D01*
X5542976Y-19775976D01*
X5723928Y-19775976D02*
X5704881Y-19766452D01*
X5695357Y-19747405D01*
X5695357Y-19575976D01*
X5876309Y-19766452D02*
X5857262Y-19775976D01*
X5819167Y-19775976D01*
X5800119Y-19766452D01*
X5790595Y-19747405D01*
X5790595Y-19671214D01*
X5800119Y-19652167D01*
X5819167Y-19642643D01*
X5857262Y-19642643D01*
X5876309Y-19652167D01*
X5885833Y-19671214D01*
X5885833Y-19690262D01*
X5790595Y-19709310D01*
X5962024Y-19766452D02*
X5981071Y-19775976D01*
X6019167Y-19775976D01*
X6038214Y-19766452D01*
X6047738Y-19747405D01*
X6047738Y-19737881D01*
X6038214Y-19718833D01*
X6019167Y-19709310D01*
X5990595Y-19709310D01*
X5971548Y-19699786D01*
X5962024Y-19680738D01*
X5962024Y-19671214D01*
X5971548Y-19652167D01*
X5990595Y-19642643D01*
X6019167Y-19642643D01*
X6038214Y-19652167D01*
X6114405Y-19852167D02*
X6123928Y-19842643D01*
X6142976Y-19814071D01*
X6152500Y-19795024D01*
X6162024Y-19766452D01*
X6171548Y-19718833D01*
X6171548Y-19680738D01*
X6162024Y-19633119D01*
X6152500Y-19604548D01*
X6142976Y-19585500D01*
X6123928Y-19556929D01*
X6114405Y-19547405D01*
X1242500Y-20105500D02*
X1342500Y-20005500D01*
X1242500Y-19905500D01*
X1142500Y-20005500D01*
X1242500Y-20105500D01*
X1313211Y-20076211D02*
X1313211Y-19934789D01*
X1171789Y-19934789D01*
X1171789Y-20076211D01*
X1313211Y-20076211D01*
X1581071Y-19895976D02*
X1704881Y-19895976D01*
X1638214Y-19972167D01*
X1666786Y-19972167D01*
X1685833Y-19981690D01*
X1695357Y-19991214D01*
X1704881Y-20010262D01*
X1704881Y-20057881D01*
X1695357Y-20076929D01*
X1685833Y-20086452D01*
X1666786Y-20095976D01*
X1609643Y-20095976D01*
X1590595Y-20086452D01*
X1581071Y-20076929D01*
X1790595Y-20076929D02*
X1800119Y-20086452D01*
X1790595Y-20095976D01*
X1781071Y-20086452D01*
X1790595Y-20076929D01*
X1790595Y-20095976D01*
X1923928Y-19895976D02*
X1942976Y-19895976D01*
X1962024Y-19905500D01*
X1971548Y-19915024D01*
X1981071Y-19934071D01*
X1990595Y-19972167D01*
X1990595Y-20019786D01*
X1981071Y-20057881D01*
X1971548Y-20076929D01*
X1962024Y-20086452D01*
X1942976Y-20095976D01*
X1923928Y-20095976D01*
X1904881Y-20086452D01*
X1895357Y-20076929D01*
X1885833Y-20057881D01*
X1876309Y-20019786D01*
X1876309Y-19972167D01*
X1885833Y-19934071D01*
X1895357Y-19915024D01*
X1904881Y-19905500D01*
X1923928Y-19895976D01*
X2114405Y-19895976D02*
X2133452Y-19895976D01*
X2152500Y-19905500D01*
X2162024Y-19915024D01*
X2171548Y-19934071D01*
X2181071Y-19972167D01*
X2181071Y-20019786D01*
X2171548Y-20057881D01*
X2162024Y-20076929D01*
X2152500Y-20086452D01*
X2133452Y-20095976D01*
X2114405Y-20095976D01*
X2095357Y-20086452D01*
X2085833Y-20076929D01*
X2076309Y-20057881D01*
X2066786Y-20019786D01*
X2066786Y-19972167D01*
X2076309Y-19934071D01*
X2085833Y-19915024D01*
X2095357Y-19905500D01*
X2114405Y-19895976D01*
X2304881Y-19895976D02*
X2323929Y-19895976D01*
X2342976Y-19905500D01*
X2352500Y-19915024D01*
X2362024Y-19934071D01*
X2371548Y-19972167D01*
X2371548Y-20019786D01*
X2362024Y-20057881D01*
X2352500Y-20076929D01*
X2342976Y-20086452D01*
X2323929Y-20095976D01*
X2304881Y-20095976D01*
X2285833Y-20086452D01*
X2276310Y-20076929D01*
X2266786Y-20057881D01*
X2257262Y-20019786D01*
X2257262Y-19972167D01*
X2266786Y-19934071D01*
X2276310Y-19915024D01*
X2285833Y-19905500D01*
X2304881Y-19895976D01*
X2457262Y-20095976D02*
X2457262Y-19962643D01*
X2457262Y-19981690D02*
X2466786Y-19972167D01*
X2485833Y-19962643D01*
X2514405Y-19962643D01*
X2533452Y-19972167D01*
X2542976Y-19991214D01*
X2542976Y-20095976D01*
X2542976Y-19991214D02*
X2552500Y-19972167D01*
X2571548Y-19962643D01*
X2600119Y-19962643D01*
X2619167Y-19972167D01*
X2628690Y-19991214D01*
X2628690Y-20095976D01*
X2723929Y-20095976D02*
X2723929Y-19962643D01*
X2723929Y-19981690D02*
X2733452Y-19972167D01*
X2752500Y-19962643D01*
X2781071Y-19962643D01*
X2800119Y-19972167D01*
X2809643Y-19991214D01*
X2809643Y-20095976D01*
X2809643Y-19991214D02*
X2819167Y-19972167D01*
X2838214Y-19962643D01*
X2866786Y-19962643D01*
X2885833Y-19972167D01*
X2895357Y-19991214D01*
X2895357Y-20095976D01*
X3285833Y-19886452D02*
X3114405Y-20143595D01*
X3542976Y-19895976D02*
X3562024Y-19895976D01*
X3581071Y-19905500D01*
X3590595Y-19915024D01*
X3600119Y-19934071D01*
X3609643Y-19972167D01*
X3609643Y-20019786D01*
X3600119Y-20057881D01*
X3590595Y-20076929D01*
X3581071Y-20086452D01*
X3562024Y-20095976D01*
X3542976Y-20095976D01*
X3523928Y-20086452D01*
X3514405Y-20076929D01*
X3504881Y-20057881D01*
X3495357Y-20019786D01*
X3495357Y-19972167D01*
X3504881Y-19934071D01*
X3514405Y-19915024D01*
X3523928Y-19905500D01*
X3542976Y-19895976D01*
X3695357Y-20076929D02*
X3704881Y-20086452D01*
X3695357Y-20095976D01*
X3685833Y-20086452D01*
X3695357Y-20076929D01*
X3695357Y-20095976D01*
X3895357Y-20095976D02*
X3781071Y-20095976D01*
X3838214Y-20095976D02*
X3838214Y-19895976D01*
X3819167Y-19924548D01*
X3800119Y-19943595D01*
X3781071Y-19953119D01*
X4085833Y-20095976D02*
X3971548Y-20095976D01*
X4028690Y-20095976D02*
X4028690Y-19895976D01*
X4009643Y-19924548D01*
X3990595Y-19943595D01*
X3971548Y-19953119D01*
X4200119Y-19981690D02*
X4181071Y-19972167D01*
X4171548Y-19962643D01*
X4162024Y-19943595D01*
X4162024Y-19934071D01*
X4171548Y-19915024D01*
X4181071Y-19905500D01*
X4200119Y-19895976D01*
X4238214Y-19895976D01*
X4257262Y-19905500D01*
X4266786Y-19915024D01*
X4276310Y-19934071D01*
X4276310Y-19943595D01*
X4266786Y-19962643D01*
X4257262Y-19972167D01*
X4238214Y-19981690D01*
X4200119Y-19981690D01*
X4181071Y-19991214D01*
X4171548Y-20000738D01*
X4162024Y-20019786D01*
X4162024Y-20057881D01*
X4171548Y-20076929D01*
X4181071Y-20086452D01*
X4200119Y-20095976D01*
X4238214Y-20095976D01*
X4257262Y-20086452D01*
X4266786Y-20076929D01*
X4276310Y-20057881D01*
X4276310Y-20019786D01*
X4266786Y-20000738D01*
X4257262Y-19991214D01*
X4238214Y-19981690D01*
X4466786Y-20095976D02*
X4352500Y-20095976D01*
X4409643Y-20095976D02*
X4409643Y-19895976D01*
X4390595Y-19924548D01*
X4371548Y-19943595D01*
X4352500Y-19953119D01*
X4542976Y-19895976D02*
X4542976Y-19934071D01*
X4619167Y-19895976D02*
X4619167Y-19934071D01*
X4914405Y-20172167D02*
X4904881Y-20162643D01*
X4885833Y-20134071D01*
X4876310Y-20115024D01*
X4866786Y-20086452D01*
X4857262Y-20038833D01*
X4857262Y-20000738D01*
X4866786Y-19953119D01*
X4876310Y-19924548D01*
X4885833Y-19905500D01*
X4904881Y-19876929D01*
X4914405Y-19867405D01*
X5076310Y-19895976D02*
X5038214Y-19895976D01*
X5019167Y-19905500D01*
X5009643Y-19915024D01*
X4990595Y-19943595D01*
X4981071Y-19981690D01*
X4981071Y-20057881D01*
X4990595Y-20076929D01*
X5000119Y-20086452D01*
X5019167Y-20095976D01*
X5057262Y-20095976D01*
X5076310Y-20086452D01*
X5085833Y-20076929D01*
X5095357Y-20057881D01*
X5095357Y-20010262D01*
X5085833Y-19991214D01*
X5076310Y-19981690D01*
X5057262Y-19972167D01*
X5019167Y-19972167D01*
X5000119Y-19981690D01*
X4990595Y-19991214D01*
X4981071Y-20010262D01*
X5333452Y-20095976D02*
X5333452Y-19895976D01*
X5419167Y-20095976D02*
X5419167Y-19991214D01*
X5409643Y-19972167D01*
X5390595Y-19962643D01*
X5362024Y-19962643D01*
X5342976Y-19972167D01*
X5333452Y-19981690D01*
X5542976Y-20095976D02*
X5523929Y-20086452D01*
X5514405Y-20076929D01*
X5504881Y-20057881D01*
X5504881Y-20000738D01*
X5514405Y-19981690D01*
X5523929Y-19972167D01*
X5542976Y-19962643D01*
X5571548Y-19962643D01*
X5590595Y-19972167D01*
X5600119Y-19981690D01*
X5609643Y-20000738D01*
X5609643Y-20057881D01*
X5600119Y-20076929D01*
X5590595Y-20086452D01*
X5571548Y-20095976D01*
X5542976Y-20095976D01*
X5723928Y-20095976D02*
X5704881Y-20086452D01*
X5695357Y-20067405D01*
X5695357Y-19895976D01*
X5876309Y-20086452D02*
X5857262Y-20095976D01*
X5819167Y-20095976D01*
X5800119Y-20086452D01*
X5790595Y-20067405D01*
X5790595Y-19991214D01*
X5800119Y-19972167D01*
X5819167Y-19962643D01*
X5857262Y-19962643D01*
X5876309Y-19972167D01*
X5885833Y-19991214D01*
X5885833Y-20010262D01*
X5790595Y-20029310D01*
X5962024Y-20086452D02*
X5981071Y-20095976D01*
X6019167Y-20095976D01*
X6038214Y-20086452D01*
X6047738Y-20067405D01*
X6047738Y-20057881D01*
X6038214Y-20038833D01*
X6019167Y-20029310D01*
X5990595Y-20029310D01*
X5971548Y-20019786D01*
X5962024Y-20000738D01*
X5962024Y-19991214D01*
X5971548Y-19972167D01*
X5990595Y-19962643D01*
X6019167Y-19962643D01*
X6038214Y-19972167D01*
X6114405Y-20172167D02*
X6123928Y-20162643D01*
X6142976Y-20134071D01*
X6152500Y-20115024D01*
X6162024Y-20086452D01*
X6171548Y-20038833D01*
X6171548Y-20000738D01*
X6162024Y-19953119D01*
X6152500Y-19924548D01*
X6142976Y-19905500D01*
X6123928Y-19876929D01*
X6114405Y-19867405D01*
X1142500Y-20225500D02*
X1342500Y-20425500D01*
X1342500Y-20225500D02*
X1142500Y-20425500D01*
X1242500Y-20225500D02*
X1242500Y-20425500D01*
X1142500Y-20325500D02*
X1342500Y-20325500D01*
X1342500Y-20325500D02*
G75*
G03*
X1342500Y-20325500I-100000J0D01*
G01*
X1581071Y-20215976D02*
X1704881Y-20215976D01*
X1638214Y-20292167D01*
X1666786Y-20292167D01*
X1685833Y-20301690D01*
X1695357Y-20311214D01*
X1704881Y-20330262D01*
X1704881Y-20377881D01*
X1695357Y-20396929D01*
X1685833Y-20406452D01*
X1666786Y-20415976D01*
X1609643Y-20415976D01*
X1590595Y-20406452D01*
X1581071Y-20396929D01*
X1790595Y-20396929D02*
X1800119Y-20406452D01*
X1790595Y-20415976D01*
X1781071Y-20406452D01*
X1790595Y-20396929D01*
X1790595Y-20415976D01*
X1876309Y-20235024D02*
X1885833Y-20225500D01*
X1904881Y-20215976D01*
X1952500Y-20215976D01*
X1971548Y-20225500D01*
X1981071Y-20235024D01*
X1990595Y-20254071D01*
X1990595Y-20273119D01*
X1981071Y-20301690D01*
X1866786Y-20415976D01*
X1990595Y-20415976D01*
X2114405Y-20215976D02*
X2133452Y-20215976D01*
X2152500Y-20225500D01*
X2162024Y-20235024D01*
X2171548Y-20254071D01*
X2181071Y-20292167D01*
X2181071Y-20339786D01*
X2171548Y-20377881D01*
X2162024Y-20396929D01*
X2152500Y-20406452D01*
X2133452Y-20415976D01*
X2114405Y-20415976D01*
X2095357Y-20406452D01*
X2085833Y-20396929D01*
X2076309Y-20377881D01*
X2066786Y-20339786D01*
X2066786Y-20292167D01*
X2076309Y-20254071D01*
X2085833Y-20235024D01*
X2095357Y-20225500D01*
X2114405Y-20215976D01*
X2304881Y-20215976D02*
X2323929Y-20215976D01*
X2342976Y-20225500D01*
X2352500Y-20235024D01*
X2362024Y-20254071D01*
X2371548Y-20292167D01*
X2371548Y-20339786D01*
X2362024Y-20377881D01*
X2352500Y-20396929D01*
X2342976Y-20406452D01*
X2323929Y-20415976D01*
X2304881Y-20415976D01*
X2285833Y-20406452D01*
X2276310Y-20396929D01*
X2266786Y-20377881D01*
X2257262Y-20339786D01*
X2257262Y-20292167D01*
X2266786Y-20254071D01*
X2276310Y-20235024D01*
X2285833Y-20225500D01*
X2304881Y-20215976D01*
X2457262Y-20415976D02*
X2457262Y-20282643D01*
X2457262Y-20301690D02*
X2466786Y-20292167D01*
X2485833Y-20282643D01*
X2514405Y-20282643D01*
X2533452Y-20292167D01*
X2542976Y-20311214D01*
X2542976Y-20415976D01*
X2542976Y-20311214D02*
X2552500Y-20292167D01*
X2571548Y-20282643D01*
X2600119Y-20282643D01*
X2619167Y-20292167D01*
X2628690Y-20311214D01*
X2628690Y-20415976D01*
X2723929Y-20415976D02*
X2723929Y-20282643D01*
X2723929Y-20301690D02*
X2733452Y-20292167D01*
X2752500Y-20282643D01*
X2781071Y-20282643D01*
X2800119Y-20292167D01*
X2809643Y-20311214D01*
X2809643Y-20415976D01*
X2809643Y-20311214D02*
X2819167Y-20292167D01*
X2838214Y-20282643D01*
X2866786Y-20282643D01*
X2885833Y-20292167D01*
X2895357Y-20311214D01*
X2895357Y-20415976D01*
X3285833Y-20206452D02*
X3114405Y-20463595D01*
X3542976Y-20215976D02*
X3562024Y-20215976D01*
X3581071Y-20225500D01*
X3590595Y-20235024D01*
X3600119Y-20254071D01*
X3609643Y-20292167D01*
X3609643Y-20339786D01*
X3600119Y-20377881D01*
X3590595Y-20396929D01*
X3581071Y-20406452D01*
X3562024Y-20415976D01*
X3542976Y-20415976D01*
X3523928Y-20406452D01*
X3514405Y-20396929D01*
X3504881Y-20377881D01*
X3495357Y-20339786D01*
X3495357Y-20292167D01*
X3504881Y-20254071D01*
X3514405Y-20235024D01*
X3523928Y-20225500D01*
X3542976Y-20215976D01*
X3695357Y-20396929D02*
X3704881Y-20406452D01*
X3695357Y-20415976D01*
X3685833Y-20406452D01*
X3695357Y-20396929D01*
X3695357Y-20415976D01*
X3895357Y-20415976D02*
X3781071Y-20415976D01*
X3838214Y-20415976D02*
X3838214Y-20215976D01*
X3819167Y-20244548D01*
X3800119Y-20263595D01*
X3781071Y-20273119D01*
X3971548Y-20235024D02*
X3981071Y-20225500D01*
X4000119Y-20215976D01*
X4047738Y-20215976D01*
X4066786Y-20225500D01*
X4076309Y-20235024D01*
X4085833Y-20254071D01*
X4085833Y-20273119D01*
X4076309Y-20301690D01*
X3962024Y-20415976D01*
X4085833Y-20415976D01*
X4257262Y-20215976D02*
X4219167Y-20215976D01*
X4200119Y-20225500D01*
X4190595Y-20235024D01*
X4171548Y-20263595D01*
X4162024Y-20301690D01*
X4162024Y-20377881D01*
X4171548Y-20396929D01*
X4181071Y-20406452D01*
X4200119Y-20415976D01*
X4238214Y-20415976D01*
X4257262Y-20406452D01*
X4266786Y-20396929D01*
X4276310Y-20377881D01*
X4276310Y-20330262D01*
X4266786Y-20311214D01*
X4257262Y-20301690D01*
X4238214Y-20292167D01*
X4200119Y-20292167D01*
X4181071Y-20301690D01*
X4171548Y-20311214D01*
X4162024Y-20330262D01*
X4400119Y-20215976D02*
X4419167Y-20215976D01*
X4438214Y-20225500D01*
X4447738Y-20235024D01*
X4457262Y-20254071D01*
X4466786Y-20292167D01*
X4466786Y-20339786D01*
X4457262Y-20377881D01*
X4447738Y-20396929D01*
X4438214Y-20406452D01*
X4419167Y-20415976D01*
X4400119Y-20415976D01*
X4381071Y-20406452D01*
X4371548Y-20396929D01*
X4362024Y-20377881D01*
X4352500Y-20339786D01*
X4352500Y-20292167D01*
X4362024Y-20254071D01*
X4371548Y-20235024D01*
X4381071Y-20225500D01*
X4400119Y-20215976D01*
X4542976Y-20215976D02*
X4542976Y-20254071D01*
X4619167Y-20215976D02*
X4619167Y-20254071D01*
X4914405Y-20492167D02*
X4904881Y-20482643D01*
X4885833Y-20454071D01*
X4876310Y-20435024D01*
X4866786Y-20406452D01*
X4857262Y-20358833D01*
X4857262Y-20320738D01*
X4866786Y-20273119D01*
X4876310Y-20244548D01*
X4885833Y-20225500D01*
X4904881Y-20196929D01*
X4914405Y-20187405D01*
X5076310Y-20282643D02*
X5076310Y-20415976D01*
X5028690Y-20206452D02*
X4981071Y-20349310D01*
X5104881Y-20349310D01*
X5333452Y-20415976D02*
X5333452Y-20215976D01*
X5419167Y-20415976D02*
X5419167Y-20311214D01*
X5409643Y-20292167D01*
X5390595Y-20282643D01*
X5362024Y-20282643D01*
X5342976Y-20292167D01*
X5333452Y-20301690D01*
X5542976Y-20415976D02*
X5523929Y-20406452D01*
X5514405Y-20396929D01*
X5504881Y-20377881D01*
X5504881Y-20320738D01*
X5514405Y-20301690D01*
X5523929Y-20292167D01*
X5542976Y-20282643D01*
X5571548Y-20282643D01*
X5590595Y-20292167D01*
X5600119Y-20301690D01*
X5609643Y-20320738D01*
X5609643Y-20377881D01*
X5600119Y-20396929D01*
X5590595Y-20406452D01*
X5571548Y-20415976D01*
X5542976Y-20415976D01*
X5723928Y-20415976D02*
X5704881Y-20406452D01*
X5695357Y-20387405D01*
X5695357Y-20215976D01*
X5876309Y-20406452D02*
X5857262Y-20415976D01*
X5819167Y-20415976D01*
X5800119Y-20406452D01*
X5790595Y-20387405D01*
X5790595Y-20311214D01*
X5800119Y-20292167D01*
X5819167Y-20282643D01*
X5857262Y-20282643D01*
X5876309Y-20292167D01*
X5885833Y-20311214D01*
X5885833Y-20330262D01*
X5790595Y-20349310D01*
X5962024Y-20406452D02*
X5981071Y-20415976D01*
X6019167Y-20415976D01*
X6038214Y-20406452D01*
X6047738Y-20387405D01*
X6047738Y-20377881D01*
X6038214Y-20358833D01*
X6019167Y-20349310D01*
X5990595Y-20349310D01*
X5971548Y-20339786D01*
X5962024Y-20320738D01*
X5962024Y-20311214D01*
X5971548Y-20292167D01*
X5990595Y-20282643D01*
X6019167Y-20282643D01*
X6038214Y-20292167D01*
X6114405Y-20492167D02*
X6123928Y-20482643D01*
X6142976Y-20454071D01*
X6152500Y-20435024D01*
X6162024Y-20406452D01*
X6171548Y-20358833D01*
X6171548Y-20320738D01*
X6162024Y-20273119D01*
X6152500Y-20244548D01*
X6142976Y-20225500D01*
X6123928Y-20196929D01*
X6114405Y-20187405D01*
M02*
