G04 #@! TF.GenerationSoftware,KiCad,Pcbnew,5.1.4*
G04 #@! TF.CreationDate,2020-05-23T13:02:16+03:00*
G04 #@! TF.ProjectId,stm32,73746d33-322e-46b6-9963-61645f706362,rev?*
G04 #@! TF.SameCoordinates,Original*
G04 #@! TF.FileFunction,Soldermask,Bot*
G04 #@! TF.FilePolarity,Negative*
%FSLAX46Y46*%
G04 Gerber Fmt 4.6, Leading zero omitted, Abs format (unit mm)*
G04 Created by KiCad (PCBNEW 5.1.4) date 2020-05-23 13:02:16*
%MOMM*%
%LPD*%
G04 APERTURE LIST*
%ADD10C,0.150000*%
%ADD11O,2.000000X2.000000*%
%ADD12C,2.000000*%
%ADD13R,2.400000X1.900000*%
%ADD14R,2.400000X4.200000*%
%ADD15C,0.100000*%
%ADD16C,1.350000*%
%ADD17C,1.750000*%
%ADD18C,3.000000*%
%ADD19R,3.000000X3.000000*%
%ADD20R,2.100000X2.100000*%
%ADD21O,2.100000X2.100000*%
%ADD22C,2.100000*%
%ADD23C,3.900000*%
%ADD24C,5.400000*%
%ADD25C,1.900000*%
%ADD26C,1.825000*%
%ADD27R,2.000000X2.000000*%
%ADD28C,1.050000*%
G04 APERTURE END LIST*
D10*
X61000000Y-75500000D02*
X125500000Y-75500000D01*
X61000000Y-49500000D02*
X61000000Y-75500000D01*
X125500000Y-50000000D02*
X125500000Y-49500000D01*
X61000000Y-49500000D02*
X125500000Y-49500000D01*
X83248500Y-55054500D02*
G75*
G02X84010500Y-55054500I381000J0D01*
G01*
X84010500Y-70612000D02*
G75*
G02X83248500Y-70612000I-381000J0D01*
G01*
X84010500Y-55054500D02*
X84010500Y-70612000D01*
X83248500Y-55054500D02*
X83248500Y-70612000D01*
X125500000Y-75500000D02*
X125500000Y-50000000D01*
D11*
X80645000Y-71247000D03*
D12*
X85725000Y-71247000D03*
D13*
X106920500Y-70181500D03*
X106920500Y-65581500D03*
X106920500Y-67881500D03*
D14*
X113220500Y-67881500D03*
D15*
G36*
X106733081Y-60744625D02*
G01*
X106765843Y-60749485D01*
X106797971Y-60757533D01*
X106829156Y-60768691D01*
X106859096Y-60782852D01*
X106887505Y-60799879D01*
X106914108Y-60819609D01*
X106938649Y-60841851D01*
X106960891Y-60866392D01*
X106980621Y-60892995D01*
X106997648Y-60921404D01*
X107011809Y-60951344D01*
X107022967Y-60982529D01*
X107031015Y-61014657D01*
X107035875Y-61047419D01*
X107037500Y-61080500D01*
X107037500Y-61855500D01*
X107035875Y-61888581D01*
X107031015Y-61921343D01*
X107022967Y-61953471D01*
X107011809Y-61984656D01*
X106997648Y-62014596D01*
X106980621Y-62043005D01*
X106960891Y-62069608D01*
X106938649Y-62094149D01*
X106914108Y-62116391D01*
X106887505Y-62136121D01*
X106859096Y-62153148D01*
X106829156Y-62167309D01*
X106797971Y-62178467D01*
X106765843Y-62186515D01*
X106733081Y-62191375D01*
X106700000Y-62193000D01*
X106025000Y-62193000D01*
X105991919Y-62191375D01*
X105959157Y-62186515D01*
X105927029Y-62178467D01*
X105895844Y-62167309D01*
X105865904Y-62153148D01*
X105837495Y-62136121D01*
X105810892Y-62116391D01*
X105786351Y-62094149D01*
X105764109Y-62069608D01*
X105744379Y-62043005D01*
X105727352Y-62014596D01*
X105713191Y-61984656D01*
X105702033Y-61953471D01*
X105693985Y-61921343D01*
X105689125Y-61888581D01*
X105687500Y-61855500D01*
X105687500Y-61080500D01*
X105689125Y-61047419D01*
X105693985Y-61014657D01*
X105702033Y-60982529D01*
X105713191Y-60951344D01*
X105727352Y-60921404D01*
X105744379Y-60892995D01*
X105764109Y-60866392D01*
X105786351Y-60841851D01*
X105810892Y-60819609D01*
X105837495Y-60799879D01*
X105865904Y-60782852D01*
X105895844Y-60768691D01*
X105927029Y-60757533D01*
X105959157Y-60749485D01*
X105991919Y-60744625D01*
X106025000Y-60743000D01*
X106700000Y-60743000D01*
X106733081Y-60744625D01*
X106733081Y-60744625D01*
G37*
D16*
X106362500Y-61468000D03*
D15*
G36*
X106733081Y-62494625D02*
G01*
X106765843Y-62499485D01*
X106797971Y-62507533D01*
X106829156Y-62518691D01*
X106859096Y-62532852D01*
X106887505Y-62549879D01*
X106914108Y-62569609D01*
X106938649Y-62591851D01*
X106960891Y-62616392D01*
X106980621Y-62642995D01*
X106997648Y-62671404D01*
X107011809Y-62701344D01*
X107022967Y-62732529D01*
X107031015Y-62764657D01*
X107035875Y-62797419D01*
X107037500Y-62830500D01*
X107037500Y-63605500D01*
X107035875Y-63638581D01*
X107031015Y-63671343D01*
X107022967Y-63703471D01*
X107011809Y-63734656D01*
X106997648Y-63764596D01*
X106980621Y-63793005D01*
X106960891Y-63819608D01*
X106938649Y-63844149D01*
X106914108Y-63866391D01*
X106887505Y-63886121D01*
X106859096Y-63903148D01*
X106829156Y-63917309D01*
X106797971Y-63928467D01*
X106765843Y-63936515D01*
X106733081Y-63941375D01*
X106700000Y-63943000D01*
X106025000Y-63943000D01*
X105991919Y-63941375D01*
X105959157Y-63936515D01*
X105927029Y-63928467D01*
X105895844Y-63917309D01*
X105865904Y-63903148D01*
X105837495Y-63886121D01*
X105810892Y-63866391D01*
X105786351Y-63844149D01*
X105764109Y-63819608D01*
X105744379Y-63793005D01*
X105727352Y-63764596D01*
X105713191Y-63734656D01*
X105702033Y-63703471D01*
X105693985Y-63671343D01*
X105689125Y-63638581D01*
X105687500Y-63605500D01*
X105687500Y-62830500D01*
X105689125Y-62797419D01*
X105693985Y-62764657D01*
X105702033Y-62732529D01*
X105713191Y-62701344D01*
X105727352Y-62671404D01*
X105744379Y-62642995D01*
X105764109Y-62616392D01*
X105786351Y-62591851D01*
X105810892Y-62569609D01*
X105837495Y-62549879D01*
X105865904Y-62532852D01*
X105895844Y-62518691D01*
X105927029Y-62507533D01*
X105959157Y-62499485D01*
X105991919Y-62494625D01*
X106025000Y-62493000D01*
X106700000Y-62493000D01*
X106733081Y-62494625D01*
X106733081Y-62494625D01*
G37*
D16*
X106362500Y-63218000D03*
D15*
G36*
X104087692Y-66959061D02*
G01*
X104119151Y-66963727D01*
X104150000Y-66971454D01*
X104179944Y-66982169D01*
X104208694Y-66995766D01*
X104235972Y-67012116D01*
X104261517Y-67031061D01*
X104285081Y-67052419D01*
X104306439Y-67075983D01*
X104325384Y-67101528D01*
X104341734Y-67128806D01*
X104355331Y-67157556D01*
X104366046Y-67187500D01*
X104373773Y-67218349D01*
X104378439Y-67249808D01*
X104380000Y-67281573D01*
X104380000Y-68608427D01*
X104378439Y-68640192D01*
X104373773Y-68671651D01*
X104366046Y-68702500D01*
X104355331Y-68732444D01*
X104341734Y-68761194D01*
X104325384Y-68788472D01*
X104306439Y-68814017D01*
X104285081Y-68837581D01*
X104261517Y-68858939D01*
X104235972Y-68877884D01*
X104208694Y-68894234D01*
X104179944Y-68907831D01*
X104150000Y-68918546D01*
X104119151Y-68926273D01*
X104087692Y-68930939D01*
X104055927Y-68932500D01*
X102954073Y-68932500D01*
X102922308Y-68930939D01*
X102890849Y-68926273D01*
X102860000Y-68918546D01*
X102830056Y-68907831D01*
X102801306Y-68894234D01*
X102774028Y-68877884D01*
X102748483Y-68858939D01*
X102724919Y-68837581D01*
X102703561Y-68814017D01*
X102684616Y-68788472D01*
X102668266Y-68761194D01*
X102654669Y-68732444D01*
X102643954Y-68702500D01*
X102636227Y-68671651D01*
X102631561Y-68640192D01*
X102630000Y-68608427D01*
X102630000Y-67281573D01*
X102631561Y-67249808D01*
X102636227Y-67218349D01*
X102643954Y-67187500D01*
X102654669Y-67157556D01*
X102668266Y-67128806D01*
X102684616Y-67101528D01*
X102703561Y-67075983D01*
X102724919Y-67052419D01*
X102748483Y-67031061D01*
X102774028Y-67012116D01*
X102801306Y-66995766D01*
X102830056Y-66982169D01*
X102860000Y-66971454D01*
X102890849Y-66963727D01*
X102922308Y-66959061D01*
X102954073Y-66957500D01*
X104055927Y-66957500D01*
X104087692Y-66959061D01*
X104087692Y-66959061D01*
G37*
D17*
X103505000Y-67945000D03*
D15*
G36*
X104087692Y-69834061D02*
G01*
X104119151Y-69838727D01*
X104150000Y-69846454D01*
X104179944Y-69857169D01*
X104208694Y-69870766D01*
X104235972Y-69887116D01*
X104261517Y-69906061D01*
X104285081Y-69927419D01*
X104306439Y-69950983D01*
X104325384Y-69976528D01*
X104341734Y-70003806D01*
X104355331Y-70032556D01*
X104366046Y-70062500D01*
X104373773Y-70093349D01*
X104378439Y-70124808D01*
X104380000Y-70156573D01*
X104380000Y-71483427D01*
X104378439Y-71515192D01*
X104373773Y-71546651D01*
X104366046Y-71577500D01*
X104355331Y-71607444D01*
X104341734Y-71636194D01*
X104325384Y-71663472D01*
X104306439Y-71689017D01*
X104285081Y-71712581D01*
X104261517Y-71733939D01*
X104235972Y-71752884D01*
X104208694Y-71769234D01*
X104179944Y-71782831D01*
X104150000Y-71793546D01*
X104119151Y-71801273D01*
X104087692Y-71805939D01*
X104055927Y-71807500D01*
X102954073Y-71807500D01*
X102922308Y-71805939D01*
X102890849Y-71801273D01*
X102860000Y-71793546D01*
X102830056Y-71782831D01*
X102801306Y-71769234D01*
X102774028Y-71752884D01*
X102748483Y-71733939D01*
X102724919Y-71712581D01*
X102703561Y-71689017D01*
X102684616Y-71663472D01*
X102668266Y-71636194D01*
X102654669Y-71607444D01*
X102643954Y-71577500D01*
X102636227Y-71546651D01*
X102631561Y-71515192D01*
X102630000Y-71483427D01*
X102630000Y-70156573D01*
X102631561Y-70124808D01*
X102636227Y-70093349D01*
X102643954Y-70062500D01*
X102654669Y-70032556D01*
X102668266Y-70003806D01*
X102684616Y-69976528D01*
X102703561Y-69950983D01*
X102724919Y-69927419D01*
X102748483Y-69906061D01*
X102774028Y-69887116D01*
X102801306Y-69870766D01*
X102830056Y-69857169D01*
X102860000Y-69846454D01*
X102890849Y-69838727D01*
X102922308Y-69834061D01*
X102954073Y-69832500D01*
X104055927Y-69832500D01*
X104087692Y-69834061D01*
X104087692Y-69834061D01*
G37*
D17*
X103505000Y-70820000D03*
D15*
G36*
X107382581Y-72034125D02*
G01*
X107415343Y-72038985D01*
X107447471Y-72047033D01*
X107478656Y-72058191D01*
X107508596Y-72072352D01*
X107537005Y-72089379D01*
X107563608Y-72109109D01*
X107588149Y-72131351D01*
X107610391Y-72155892D01*
X107630121Y-72182495D01*
X107647148Y-72210904D01*
X107661309Y-72240844D01*
X107672467Y-72272029D01*
X107680515Y-72304157D01*
X107685375Y-72336919D01*
X107687000Y-72370000D01*
X107687000Y-73045000D01*
X107685375Y-73078081D01*
X107680515Y-73110843D01*
X107672467Y-73142971D01*
X107661309Y-73174156D01*
X107647148Y-73204096D01*
X107630121Y-73232505D01*
X107610391Y-73259108D01*
X107588149Y-73283649D01*
X107563608Y-73305891D01*
X107537005Y-73325621D01*
X107508596Y-73342648D01*
X107478656Y-73356809D01*
X107447471Y-73367967D01*
X107415343Y-73376015D01*
X107382581Y-73380875D01*
X107349500Y-73382500D01*
X106574500Y-73382500D01*
X106541419Y-73380875D01*
X106508657Y-73376015D01*
X106476529Y-73367967D01*
X106445344Y-73356809D01*
X106415404Y-73342648D01*
X106386995Y-73325621D01*
X106360392Y-73305891D01*
X106335851Y-73283649D01*
X106313609Y-73259108D01*
X106293879Y-73232505D01*
X106276852Y-73204096D01*
X106262691Y-73174156D01*
X106251533Y-73142971D01*
X106243485Y-73110843D01*
X106238625Y-73078081D01*
X106237000Y-73045000D01*
X106237000Y-72370000D01*
X106238625Y-72336919D01*
X106243485Y-72304157D01*
X106251533Y-72272029D01*
X106262691Y-72240844D01*
X106276852Y-72210904D01*
X106293879Y-72182495D01*
X106313609Y-72155892D01*
X106335851Y-72131351D01*
X106360392Y-72109109D01*
X106386995Y-72089379D01*
X106415404Y-72072352D01*
X106445344Y-72058191D01*
X106476529Y-72047033D01*
X106508657Y-72038985D01*
X106541419Y-72034125D01*
X106574500Y-72032500D01*
X107349500Y-72032500D01*
X107382581Y-72034125D01*
X107382581Y-72034125D01*
G37*
D16*
X106962000Y-72707500D03*
D15*
G36*
X109132581Y-72034125D02*
G01*
X109165343Y-72038985D01*
X109197471Y-72047033D01*
X109228656Y-72058191D01*
X109258596Y-72072352D01*
X109287005Y-72089379D01*
X109313608Y-72109109D01*
X109338149Y-72131351D01*
X109360391Y-72155892D01*
X109380121Y-72182495D01*
X109397148Y-72210904D01*
X109411309Y-72240844D01*
X109422467Y-72272029D01*
X109430515Y-72304157D01*
X109435375Y-72336919D01*
X109437000Y-72370000D01*
X109437000Y-73045000D01*
X109435375Y-73078081D01*
X109430515Y-73110843D01*
X109422467Y-73142971D01*
X109411309Y-73174156D01*
X109397148Y-73204096D01*
X109380121Y-73232505D01*
X109360391Y-73259108D01*
X109338149Y-73283649D01*
X109313608Y-73305891D01*
X109287005Y-73325621D01*
X109258596Y-73342648D01*
X109228656Y-73356809D01*
X109197471Y-73367967D01*
X109165343Y-73376015D01*
X109132581Y-73380875D01*
X109099500Y-73382500D01*
X108324500Y-73382500D01*
X108291419Y-73380875D01*
X108258657Y-73376015D01*
X108226529Y-73367967D01*
X108195344Y-73356809D01*
X108165404Y-73342648D01*
X108136995Y-73325621D01*
X108110392Y-73305891D01*
X108085851Y-73283649D01*
X108063609Y-73259108D01*
X108043879Y-73232505D01*
X108026852Y-73204096D01*
X108012691Y-73174156D01*
X108001533Y-73142971D01*
X107993485Y-73110843D01*
X107988625Y-73078081D01*
X107987000Y-73045000D01*
X107987000Y-72370000D01*
X107988625Y-72336919D01*
X107993485Y-72304157D01*
X108001533Y-72272029D01*
X108012691Y-72240844D01*
X108026852Y-72210904D01*
X108043879Y-72182495D01*
X108063609Y-72155892D01*
X108085851Y-72131351D01*
X108110392Y-72109109D01*
X108136995Y-72089379D01*
X108165404Y-72072352D01*
X108195344Y-72058191D01*
X108226529Y-72047033D01*
X108258657Y-72038985D01*
X108291419Y-72034125D01*
X108324500Y-72032500D01*
X109099500Y-72032500D01*
X109132581Y-72034125D01*
X109132581Y-72034125D01*
G37*
D16*
X108712000Y-72707500D03*
D18*
X66802000Y-67658000D03*
X66802000Y-62658000D03*
D19*
X66802000Y-57658000D03*
D20*
X91567000Y-52451000D03*
D21*
X94107000Y-52451000D03*
X96647000Y-52451000D03*
X99187000Y-52451000D03*
X101727000Y-52451000D03*
X104267000Y-52451000D03*
D20*
X117221000Y-64071500D03*
D22*
X117221000Y-61571500D03*
X119221000Y-61571500D03*
X119221000Y-64071500D03*
D23*
X121931000Y-68841500D03*
X121931000Y-56801500D03*
D24*
X74500000Y-53500000D03*
X117500000Y-53500000D03*
X117500000Y-72000000D03*
X74500000Y-72000000D03*
D25*
X87439500Y-58801000D03*
X84899500Y-58801000D03*
X82359500Y-58801000D03*
X79819500Y-58801000D03*
D15*
G36*
X76039207Y-60557042D02*
G01*
X76070287Y-60561652D01*
X76100766Y-60569287D01*
X76130350Y-60579872D01*
X76158754Y-60593306D01*
X76185704Y-60609459D01*
X76210942Y-60628177D01*
X76234223Y-60649277D01*
X76255323Y-60672558D01*
X76274041Y-60697796D01*
X76290194Y-60724746D01*
X76303628Y-60753150D01*
X76314213Y-60782734D01*
X76321848Y-60813213D01*
X76326458Y-60844293D01*
X76328000Y-60875676D01*
X76328000Y-62060324D01*
X76326458Y-62091707D01*
X76321848Y-62122787D01*
X76314213Y-62153266D01*
X76303628Y-62182850D01*
X76290194Y-62211254D01*
X76274041Y-62238204D01*
X76255323Y-62263442D01*
X76234223Y-62286723D01*
X76210942Y-62307823D01*
X76185704Y-62326541D01*
X76158754Y-62342694D01*
X76130350Y-62356128D01*
X76100766Y-62366713D01*
X76070287Y-62374348D01*
X76039207Y-62378958D01*
X76007824Y-62380500D01*
X73598176Y-62380500D01*
X73566793Y-62378958D01*
X73535713Y-62374348D01*
X73505234Y-62366713D01*
X73475650Y-62356128D01*
X73447246Y-62342694D01*
X73420296Y-62326541D01*
X73395058Y-62307823D01*
X73371777Y-62286723D01*
X73350677Y-62263442D01*
X73331959Y-62238204D01*
X73315806Y-62211254D01*
X73302372Y-62182850D01*
X73291787Y-62153266D01*
X73284152Y-62122787D01*
X73279542Y-62091707D01*
X73278000Y-62060324D01*
X73278000Y-60875676D01*
X73279542Y-60844293D01*
X73284152Y-60813213D01*
X73291787Y-60782734D01*
X73302372Y-60753150D01*
X73315806Y-60724746D01*
X73331959Y-60697796D01*
X73350677Y-60672558D01*
X73371777Y-60649277D01*
X73395058Y-60628177D01*
X73420296Y-60609459D01*
X73447246Y-60593306D01*
X73475650Y-60579872D01*
X73505234Y-60569287D01*
X73535713Y-60561652D01*
X73566793Y-60557042D01*
X73598176Y-60555500D01*
X76007824Y-60555500D01*
X76039207Y-60557042D01*
X76039207Y-60557042D01*
G37*
D26*
X74803000Y-61468000D03*
D15*
G36*
X76039207Y-63532042D02*
G01*
X76070287Y-63536652D01*
X76100766Y-63544287D01*
X76130350Y-63554872D01*
X76158754Y-63568306D01*
X76185704Y-63584459D01*
X76210942Y-63603177D01*
X76234223Y-63624277D01*
X76255323Y-63647558D01*
X76274041Y-63672796D01*
X76290194Y-63699746D01*
X76303628Y-63728150D01*
X76314213Y-63757734D01*
X76321848Y-63788213D01*
X76326458Y-63819293D01*
X76328000Y-63850676D01*
X76328000Y-65035324D01*
X76326458Y-65066707D01*
X76321848Y-65097787D01*
X76314213Y-65128266D01*
X76303628Y-65157850D01*
X76290194Y-65186254D01*
X76274041Y-65213204D01*
X76255323Y-65238442D01*
X76234223Y-65261723D01*
X76210942Y-65282823D01*
X76185704Y-65301541D01*
X76158754Y-65317694D01*
X76130350Y-65331128D01*
X76100766Y-65341713D01*
X76070287Y-65349348D01*
X76039207Y-65353958D01*
X76007824Y-65355500D01*
X73598176Y-65355500D01*
X73566793Y-65353958D01*
X73535713Y-65349348D01*
X73505234Y-65341713D01*
X73475650Y-65331128D01*
X73447246Y-65317694D01*
X73420296Y-65301541D01*
X73395058Y-65282823D01*
X73371777Y-65261723D01*
X73350677Y-65238442D01*
X73331959Y-65213204D01*
X73315806Y-65186254D01*
X73302372Y-65157850D01*
X73291787Y-65128266D01*
X73284152Y-65097787D01*
X73279542Y-65066707D01*
X73278000Y-65035324D01*
X73278000Y-63850676D01*
X73279542Y-63819293D01*
X73284152Y-63788213D01*
X73291787Y-63757734D01*
X73302372Y-63728150D01*
X73315806Y-63699746D01*
X73331959Y-63672796D01*
X73350677Y-63647558D01*
X73371777Y-63624277D01*
X73395058Y-63603177D01*
X73420296Y-63584459D01*
X73447246Y-63568306D01*
X73475650Y-63554872D01*
X73505234Y-63544287D01*
X73535713Y-63536652D01*
X73566793Y-63532042D01*
X73598176Y-63530500D01*
X76007824Y-63530500D01*
X76039207Y-63532042D01*
X76039207Y-63532042D01*
G37*
D26*
X74803000Y-64443000D03*
D27*
X74803000Y-66992500D03*
D11*
X74803000Y-59372500D03*
D15*
G36*
X89292729Y-60563264D02*
G01*
X89318211Y-60567044D01*
X89343200Y-60573303D01*
X89367454Y-60581982D01*
X89390742Y-60592996D01*
X89412837Y-60606239D01*
X89433528Y-60621585D01*
X89452616Y-60638884D01*
X89469915Y-60657972D01*
X89485261Y-60678663D01*
X89498504Y-60700758D01*
X89509518Y-60724046D01*
X89518197Y-60748300D01*
X89524456Y-60773289D01*
X89528236Y-60798771D01*
X89529500Y-60824500D01*
X89529500Y-61349500D01*
X89528236Y-61375229D01*
X89524456Y-61400711D01*
X89518197Y-61425700D01*
X89509518Y-61449954D01*
X89498504Y-61473242D01*
X89485261Y-61495337D01*
X89469915Y-61516028D01*
X89452616Y-61535116D01*
X89433528Y-61552415D01*
X89412837Y-61567761D01*
X89390742Y-61581004D01*
X89367454Y-61592018D01*
X89343200Y-61600697D01*
X89318211Y-61606956D01*
X89292729Y-61610736D01*
X89267000Y-61612000D01*
X87042000Y-61612000D01*
X87016271Y-61610736D01*
X86990789Y-61606956D01*
X86965800Y-61600697D01*
X86941546Y-61592018D01*
X86918258Y-61581004D01*
X86896163Y-61567761D01*
X86875472Y-61552415D01*
X86856384Y-61535116D01*
X86839085Y-61516028D01*
X86823739Y-61495337D01*
X86810496Y-61473242D01*
X86799482Y-61449954D01*
X86790803Y-61425700D01*
X86784544Y-61400711D01*
X86780764Y-61375229D01*
X86779500Y-61349500D01*
X86779500Y-60824500D01*
X86780764Y-60798771D01*
X86784544Y-60773289D01*
X86790803Y-60748300D01*
X86799482Y-60724046D01*
X86810496Y-60700758D01*
X86823739Y-60678663D01*
X86839085Y-60657972D01*
X86856384Y-60638884D01*
X86875472Y-60621585D01*
X86896163Y-60606239D01*
X86918258Y-60592996D01*
X86941546Y-60581982D01*
X86965800Y-60573303D01*
X86990789Y-60567044D01*
X87016271Y-60563264D01*
X87042000Y-60562000D01*
X89267000Y-60562000D01*
X89292729Y-60563264D01*
X89292729Y-60563264D01*
G37*
D28*
X88154500Y-61087000D03*
D15*
G36*
X89292729Y-63103264D02*
G01*
X89318211Y-63107044D01*
X89343200Y-63113303D01*
X89367454Y-63121982D01*
X89390742Y-63132996D01*
X89412837Y-63146239D01*
X89433528Y-63161585D01*
X89452616Y-63178884D01*
X89469915Y-63197972D01*
X89485261Y-63218663D01*
X89498504Y-63240758D01*
X89509518Y-63264046D01*
X89518197Y-63288300D01*
X89524456Y-63313289D01*
X89528236Y-63338771D01*
X89529500Y-63364500D01*
X89529500Y-63889500D01*
X89528236Y-63915229D01*
X89524456Y-63940711D01*
X89518197Y-63965700D01*
X89509518Y-63989954D01*
X89498504Y-64013242D01*
X89485261Y-64035337D01*
X89469915Y-64056028D01*
X89452616Y-64075116D01*
X89433528Y-64092415D01*
X89412837Y-64107761D01*
X89390742Y-64121004D01*
X89367454Y-64132018D01*
X89343200Y-64140697D01*
X89318211Y-64146956D01*
X89292729Y-64150736D01*
X89267000Y-64152000D01*
X87042000Y-64152000D01*
X87016271Y-64150736D01*
X86990789Y-64146956D01*
X86965800Y-64140697D01*
X86941546Y-64132018D01*
X86918258Y-64121004D01*
X86896163Y-64107761D01*
X86875472Y-64092415D01*
X86856384Y-64075116D01*
X86839085Y-64056028D01*
X86823739Y-64035337D01*
X86810496Y-64013242D01*
X86799482Y-63989954D01*
X86790803Y-63965700D01*
X86784544Y-63940711D01*
X86780764Y-63915229D01*
X86779500Y-63889500D01*
X86779500Y-63364500D01*
X86780764Y-63338771D01*
X86784544Y-63313289D01*
X86790803Y-63288300D01*
X86799482Y-63264046D01*
X86810496Y-63240758D01*
X86823739Y-63218663D01*
X86839085Y-63197972D01*
X86856384Y-63178884D01*
X86875472Y-63161585D01*
X86896163Y-63146239D01*
X86918258Y-63132996D01*
X86941546Y-63121982D01*
X86965800Y-63113303D01*
X86990789Y-63107044D01*
X87016271Y-63103264D01*
X87042000Y-63102000D01*
X89267000Y-63102000D01*
X89292729Y-63103264D01*
X89292729Y-63103264D01*
G37*
D28*
X88154500Y-63627000D03*
D15*
G36*
X89292729Y-65643264D02*
G01*
X89318211Y-65647044D01*
X89343200Y-65653303D01*
X89367454Y-65661982D01*
X89390742Y-65672996D01*
X89412837Y-65686239D01*
X89433528Y-65701585D01*
X89452616Y-65718884D01*
X89469915Y-65737972D01*
X89485261Y-65758663D01*
X89498504Y-65780758D01*
X89509518Y-65804046D01*
X89518197Y-65828300D01*
X89524456Y-65853289D01*
X89528236Y-65878771D01*
X89529500Y-65904500D01*
X89529500Y-66429500D01*
X89528236Y-66455229D01*
X89524456Y-66480711D01*
X89518197Y-66505700D01*
X89509518Y-66529954D01*
X89498504Y-66553242D01*
X89485261Y-66575337D01*
X89469915Y-66596028D01*
X89452616Y-66615116D01*
X89433528Y-66632415D01*
X89412837Y-66647761D01*
X89390742Y-66661004D01*
X89367454Y-66672018D01*
X89343200Y-66680697D01*
X89318211Y-66686956D01*
X89292729Y-66690736D01*
X89267000Y-66692000D01*
X87042000Y-66692000D01*
X87016271Y-66690736D01*
X86990789Y-66686956D01*
X86965800Y-66680697D01*
X86941546Y-66672018D01*
X86918258Y-66661004D01*
X86896163Y-66647761D01*
X86875472Y-66632415D01*
X86856384Y-66615116D01*
X86839085Y-66596028D01*
X86823739Y-66575337D01*
X86810496Y-66553242D01*
X86799482Y-66529954D01*
X86790803Y-66505700D01*
X86784544Y-66480711D01*
X86780764Y-66455229D01*
X86779500Y-66429500D01*
X86779500Y-65904500D01*
X86780764Y-65878771D01*
X86784544Y-65853289D01*
X86790803Y-65828300D01*
X86799482Y-65804046D01*
X86810496Y-65780758D01*
X86823739Y-65758663D01*
X86839085Y-65737972D01*
X86856384Y-65718884D01*
X86875472Y-65701585D01*
X86896163Y-65686239D01*
X86918258Y-65672996D01*
X86941546Y-65661982D01*
X86965800Y-65653303D01*
X86990789Y-65647044D01*
X87016271Y-65643264D01*
X87042000Y-65642000D01*
X89267000Y-65642000D01*
X89292729Y-65643264D01*
X89292729Y-65643264D01*
G37*
D28*
X88154500Y-66167000D03*
D15*
G36*
X89292729Y-68183264D02*
G01*
X89318211Y-68187044D01*
X89343200Y-68193303D01*
X89367454Y-68201982D01*
X89390742Y-68212996D01*
X89412837Y-68226239D01*
X89433528Y-68241585D01*
X89452616Y-68258884D01*
X89469915Y-68277972D01*
X89485261Y-68298663D01*
X89498504Y-68320758D01*
X89509518Y-68344046D01*
X89518197Y-68368300D01*
X89524456Y-68393289D01*
X89528236Y-68418771D01*
X89529500Y-68444500D01*
X89529500Y-68969500D01*
X89528236Y-68995229D01*
X89524456Y-69020711D01*
X89518197Y-69045700D01*
X89509518Y-69069954D01*
X89498504Y-69093242D01*
X89485261Y-69115337D01*
X89469915Y-69136028D01*
X89452616Y-69155116D01*
X89433528Y-69172415D01*
X89412837Y-69187761D01*
X89390742Y-69201004D01*
X89367454Y-69212018D01*
X89343200Y-69220697D01*
X89318211Y-69226956D01*
X89292729Y-69230736D01*
X89267000Y-69232000D01*
X87042000Y-69232000D01*
X87016271Y-69230736D01*
X86990789Y-69226956D01*
X86965800Y-69220697D01*
X86941546Y-69212018D01*
X86918258Y-69201004D01*
X86896163Y-69187761D01*
X86875472Y-69172415D01*
X86856384Y-69155116D01*
X86839085Y-69136028D01*
X86823739Y-69115337D01*
X86810496Y-69093242D01*
X86799482Y-69069954D01*
X86790803Y-69045700D01*
X86784544Y-69020711D01*
X86780764Y-68995229D01*
X86779500Y-68969500D01*
X86779500Y-68444500D01*
X86780764Y-68418771D01*
X86784544Y-68393289D01*
X86790803Y-68368300D01*
X86799482Y-68344046D01*
X86810496Y-68320758D01*
X86823739Y-68298663D01*
X86839085Y-68277972D01*
X86856384Y-68258884D01*
X86875472Y-68241585D01*
X86896163Y-68226239D01*
X86918258Y-68212996D01*
X86941546Y-68201982D01*
X86965800Y-68193303D01*
X86990789Y-68187044D01*
X87016271Y-68183264D01*
X87042000Y-68182000D01*
X89267000Y-68182000D01*
X89292729Y-68183264D01*
X89292729Y-68183264D01*
G37*
D28*
X88154500Y-68707000D03*
D15*
G36*
X80242729Y-68183264D02*
G01*
X80268211Y-68187044D01*
X80293200Y-68193303D01*
X80317454Y-68201982D01*
X80340742Y-68212996D01*
X80362837Y-68226239D01*
X80383528Y-68241585D01*
X80402616Y-68258884D01*
X80419915Y-68277972D01*
X80435261Y-68298663D01*
X80448504Y-68320758D01*
X80459518Y-68344046D01*
X80468197Y-68368300D01*
X80474456Y-68393289D01*
X80478236Y-68418771D01*
X80479500Y-68444500D01*
X80479500Y-68969500D01*
X80478236Y-68995229D01*
X80474456Y-69020711D01*
X80468197Y-69045700D01*
X80459518Y-69069954D01*
X80448504Y-69093242D01*
X80435261Y-69115337D01*
X80419915Y-69136028D01*
X80402616Y-69155116D01*
X80383528Y-69172415D01*
X80362837Y-69187761D01*
X80340742Y-69201004D01*
X80317454Y-69212018D01*
X80293200Y-69220697D01*
X80268211Y-69226956D01*
X80242729Y-69230736D01*
X80217000Y-69232000D01*
X77992000Y-69232000D01*
X77966271Y-69230736D01*
X77940789Y-69226956D01*
X77915800Y-69220697D01*
X77891546Y-69212018D01*
X77868258Y-69201004D01*
X77846163Y-69187761D01*
X77825472Y-69172415D01*
X77806384Y-69155116D01*
X77789085Y-69136028D01*
X77773739Y-69115337D01*
X77760496Y-69093242D01*
X77749482Y-69069954D01*
X77740803Y-69045700D01*
X77734544Y-69020711D01*
X77730764Y-68995229D01*
X77729500Y-68969500D01*
X77729500Y-68444500D01*
X77730764Y-68418771D01*
X77734544Y-68393289D01*
X77740803Y-68368300D01*
X77749482Y-68344046D01*
X77760496Y-68320758D01*
X77773739Y-68298663D01*
X77789085Y-68277972D01*
X77806384Y-68258884D01*
X77825472Y-68241585D01*
X77846163Y-68226239D01*
X77868258Y-68212996D01*
X77891546Y-68201982D01*
X77915800Y-68193303D01*
X77940789Y-68187044D01*
X77966271Y-68183264D01*
X77992000Y-68182000D01*
X80217000Y-68182000D01*
X80242729Y-68183264D01*
X80242729Y-68183264D01*
G37*
D28*
X79104500Y-68707000D03*
D15*
G36*
X80242729Y-65643264D02*
G01*
X80268211Y-65647044D01*
X80293200Y-65653303D01*
X80317454Y-65661982D01*
X80340742Y-65672996D01*
X80362837Y-65686239D01*
X80383528Y-65701585D01*
X80402616Y-65718884D01*
X80419915Y-65737972D01*
X80435261Y-65758663D01*
X80448504Y-65780758D01*
X80459518Y-65804046D01*
X80468197Y-65828300D01*
X80474456Y-65853289D01*
X80478236Y-65878771D01*
X80479500Y-65904500D01*
X80479500Y-66429500D01*
X80478236Y-66455229D01*
X80474456Y-66480711D01*
X80468197Y-66505700D01*
X80459518Y-66529954D01*
X80448504Y-66553242D01*
X80435261Y-66575337D01*
X80419915Y-66596028D01*
X80402616Y-66615116D01*
X80383528Y-66632415D01*
X80362837Y-66647761D01*
X80340742Y-66661004D01*
X80317454Y-66672018D01*
X80293200Y-66680697D01*
X80268211Y-66686956D01*
X80242729Y-66690736D01*
X80217000Y-66692000D01*
X77992000Y-66692000D01*
X77966271Y-66690736D01*
X77940789Y-66686956D01*
X77915800Y-66680697D01*
X77891546Y-66672018D01*
X77868258Y-66661004D01*
X77846163Y-66647761D01*
X77825472Y-66632415D01*
X77806384Y-66615116D01*
X77789085Y-66596028D01*
X77773739Y-66575337D01*
X77760496Y-66553242D01*
X77749482Y-66529954D01*
X77740803Y-66505700D01*
X77734544Y-66480711D01*
X77730764Y-66455229D01*
X77729500Y-66429500D01*
X77729500Y-65904500D01*
X77730764Y-65878771D01*
X77734544Y-65853289D01*
X77740803Y-65828300D01*
X77749482Y-65804046D01*
X77760496Y-65780758D01*
X77773739Y-65758663D01*
X77789085Y-65737972D01*
X77806384Y-65718884D01*
X77825472Y-65701585D01*
X77846163Y-65686239D01*
X77868258Y-65672996D01*
X77891546Y-65661982D01*
X77915800Y-65653303D01*
X77940789Y-65647044D01*
X77966271Y-65643264D01*
X77992000Y-65642000D01*
X80217000Y-65642000D01*
X80242729Y-65643264D01*
X80242729Y-65643264D01*
G37*
D28*
X79104500Y-66167000D03*
D15*
G36*
X80242729Y-63103264D02*
G01*
X80268211Y-63107044D01*
X80293200Y-63113303D01*
X80317454Y-63121982D01*
X80340742Y-63132996D01*
X80362837Y-63146239D01*
X80383528Y-63161585D01*
X80402616Y-63178884D01*
X80419915Y-63197972D01*
X80435261Y-63218663D01*
X80448504Y-63240758D01*
X80459518Y-63264046D01*
X80468197Y-63288300D01*
X80474456Y-63313289D01*
X80478236Y-63338771D01*
X80479500Y-63364500D01*
X80479500Y-63889500D01*
X80478236Y-63915229D01*
X80474456Y-63940711D01*
X80468197Y-63965700D01*
X80459518Y-63989954D01*
X80448504Y-64013242D01*
X80435261Y-64035337D01*
X80419915Y-64056028D01*
X80402616Y-64075116D01*
X80383528Y-64092415D01*
X80362837Y-64107761D01*
X80340742Y-64121004D01*
X80317454Y-64132018D01*
X80293200Y-64140697D01*
X80268211Y-64146956D01*
X80242729Y-64150736D01*
X80217000Y-64152000D01*
X77992000Y-64152000D01*
X77966271Y-64150736D01*
X77940789Y-64146956D01*
X77915800Y-64140697D01*
X77891546Y-64132018D01*
X77868258Y-64121004D01*
X77846163Y-64107761D01*
X77825472Y-64092415D01*
X77806384Y-64075116D01*
X77789085Y-64056028D01*
X77773739Y-64035337D01*
X77760496Y-64013242D01*
X77749482Y-63989954D01*
X77740803Y-63965700D01*
X77734544Y-63940711D01*
X77730764Y-63915229D01*
X77729500Y-63889500D01*
X77729500Y-63364500D01*
X77730764Y-63338771D01*
X77734544Y-63313289D01*
X77740803Y-63288300D01*
X77749482Y-63264046D01*
X77760496Y-63240758D01*
X77773739Y-63218663D01*
X77789085Y-63197972D01*
X77806384Y-63178884D01*
X77825472Y-63161585D01*
X77846163Y-63146239D01*
X77868258Y-63132996D01*
X77891546Y-63121982D01*
X77915800Y-63113303D01*
X77940789Y-63107044D01*
X77966271Y-63103264D01*
X77992000Y-63102000D01*
X80217000Y-63102000D01*
X80242729Y-63103264D01*
X80242729Y-63103264D01*
G37*
D28*
X79104500Y-63627000D03*
D15*
G36*
X80242729Y-60563264D02*
G01*
X80268211Y-60567044D01*
X80293200Y-60573303D01*
X80317454Y-60581982D01*
X80340742Y-60592996D01*
X80362837Y-60606239D01*
X80383528Y-60621585D01*
X80402616Y-60638884D01*
X80419915Y-60657972D01*
X80435261Y-60678663D01*
X80448504Y-60700758D01*
X80459518Y-60724046D01*
X80468197Y-60748300D01*
X80474456Y-60773289D01*
X80478236Y-60798771D01*
X80479500Y-60824500D01*
X80479500Y-61349500D01*
X80478236Y-61375229D01*
X80474456Y-61400711D01*
X80468197Y-61425700D01*
X80459518Y-61449954D01*
X80448504Y-61473242D01*
X80435261Y-61495337D01*
X80419915Y-61516028D01*
X80402616Y-61535116D01*
X80383528Y-61552415D01*
X80362837Y-61567761D01*
X80340742Y-61581004D01*
X80317454Y-61592018D01*
X80293200Y-61600697D01*
X80268211Y-61606956D01*
X80242729Y-61610736D01*
X80217000Y-61612000D01*
X77992000Y-61612000D01*
X77966271Y-61610736D01*
X77940789Y-61606956D01*
X77915800Y-61600697D01*
X77891546Y-61592018D01*
X77868258Y-61581004D01*
X77846163Y-61567761D01*
X77825472Y-61552415D01*
X77806384Y-61535116D01*
X77789085Y-61516028D01*
X77773739Y-61495337D01*
X77760496Y-61473242D01*
X77749482Y-61449954D01*
X77740803Y-61425700D01*
X77734544Y-61400711D01*
X77730764Y-61375229D01*
X77729500Y-61349500D01*
X77729500Y-60824500D01*
X77730764Y-60798771D01*
X77734544Y-60773289D01*
X77740803Y-60748300D01*
X77749482Y-60724046D01*
X77760496Y-60700758D01*
X77773739Y-60678663D01*
X77789085Y-60657972D01*
X77806384Y-60638884D01*
X77825472Y-60621585D01*
X77846163Y-60606239D01*
X77868258Y-60592996D01*
X77891546Y-60581982D01*
X77915800Y-60573303D01*
X77940789Y-60567044D01*
X77966271Y-60563264D01*
X77992000Y-60562000D01*
X80217000Y-60562000D01*
X80242729Y-60563264D01*
X80242729Y-60563264D01*
G37*
D28*
X79104500Y-61087000D03*
M02*
