M48
; DRILL file {KiCad 6.0.10} date Пн 30 янв 2023 14:27:05
; FORMAT={-:-/ absolute / metric / decimal}
; #@! TF.CreationDate,2023-01-30T14:27:05+03:00
; #@! TF.GenerationSoftware,Kicad,Pcbnew,6.0.10
; #@! TF.FileFunction,MixedPlating,1,2
FMAT,2
METRIC
; #@! TA.AperFunction,Plated,PTH,ViaDrill
T1C0.400
; #@! TA.AperFunction,Plated,PTH,ComponentDrill
T2C0.800
; #@! TA.AperFunction,Plated,PTH,ComponentDrill
T3C1.000
; #@! TA.AperFunction,NonPlated,NPTH,ComponentDrill
T4C2.000
; #@! TA.AperFunction,NonPlated,NPTH,ComponentDrill
T5C2.200
; #@! TA.AperFunction,NonPlated,NPTH,ComponentDrill
T6C2.400
; #@! TA.AperFunction,NonPlated,NPTH,ComponentDrill
T7C3.200
%
G90
G05
T1
X46.1Y-43.8
X50.2Y-57.8
X50.4Y-44.8
X52.4Y-54.8
X79.4Y-43.8
X79.4Y-56.8
X112.7Y-43.8
X117.0Y-56.8
X119.4Y-46.8
X119.6Y-55.8
X146.0Y-54.8
X146.1Y-43.8
X179.4Y-43.8
X183.6Y-45.8
X183.6Y-55.8
X185.6Y-46.8
X211.2Y-45.8
X212.7Y-43.8
X213.2Y-55.825
X214.9Y-56.0
X215.2Y-45.8
X215.2Y-46.9
X216.0Y-55.124
T2
X36.0Y-44.8
X36.0Y-46.8
X36.0Y-48.8
X36.0Y-50.8
X36.0Y-52.8
X36.0Y-54.8
X36.0Y-56.8
X46.07Y-49.8
X46.07Y-51.8
X79.4Y-49.8
X79.4Y-51.8
X112.73Y-49.8
X112.73Y-51.8
X146.06Y-49.8
X146.06Y-51.8
X179.39Y-49.8
X179.39Y-51.8
X212.72Y-49.8
X212.72Y-51.8
T3
X215.76Y-49.301
X215.76Y-52.299
X218.3Y-48.082
X218.3Y-50.8
X218.3Y-53.518
X220.84Y-48.717
X220.84Y-50.8
X220.84Y-52.883
T4
X32.07Y-43.8
X32.07Y-57.8
X227.07Y-43.8
X227.07Y-57.8
T5
X219.57Y-43.282
X219.57Y-58.318
T6
X223.583Y-42.418
X223.583Y-59.182
T7
X69.57Y-50.8
X107.57Y-50.8
X151.57Y-50.8
X189.57Y-50.8
T0
M30
