%TF.GenerationSoftware,KiCad,Pcbnew,6.0.10*%
%TF.CreationDate,2023-01-30T14:27:04+03:00*%
%TF.ProjectId,sensors,73656e73-6f72-4732-9e6b-696361645f70,rev?*%
%TF.SameCoordinates,Original*%
%TF.FileFunction,Drillmap*%
%TF.FilePolarity,Positive*%
%FSLAX45Y45*%
G04 Gerber Fmt 4.5, Leading zero omitted, Abs format (unit mm)*
G04 Created by KiCad (PCBNEW 6.0.10) date 2023-01-30 14:27:04*
%MOMM*%
%LPD*%
G01*
G04 APERTURE LIST*
%ADD10C,0.100000*%
%ADD11C,0.200000*%
%ADD12C,0.040000*%
%ADD13C,0.080000*%
%ADD14C,0.220000*%
%ADD15C,0.240000*%
%ADD16C,0.320000*%
G04 APERTURE END LIST*
D10*
X2960000Y-4030000D02*
X22960000Y-4030000D01*
X22960000Y-4030000D02*
X22960000Y-6130000D01*
X22960000Y-6130000D02*
X2960000Y-6130000D01*
X2960000Y-6130000D02*
X2960000Y-4030000D01*
D11*
D12*
X4590000Y-4360000D02*
X4630000Y-4400000D01*
X4630000Y-4360000D02*
X4590000Y-4400000D01*
X5000000Y-5760000D02*
X5040000Y-5800000D01*
X5040000Y-5760000D02*
X5000000Y-5800000D01*
X5020000Y-4460000D02*
X5060000Y-4500000D01*
X5060000Y-4460000D02*
X5020000Y-4500000D01*
X5220000Y-5460000D02*
X5260000Y-5500000D01*
X5260000Y-5460000D02*
X5220000Y-5500000D01*
X7920000Y-4360000D02*
X7960000Y-4400000D01*
X7960000Y-4360000D02*
X7920000Y-4400000D01*
X7920000Y-5660000D02*
X7960000Y-5700000D01*
X7960000Y-5660000D02*
X7920000Y-5700000D01*
X11250000Y-4360000D02*
X11290000Y-4400000D01*
X11290000Y-4360000D02*
X11250000Y-4400000D01*
X11680000Y-5660000D02*
X11720000Y-5700000D01*
X11720000Y-5660000D02*
X11680000Y-5700000D01*
X11920000Y-4660000D02*
X11960000Y-4700000D01*
X11960000Y-4660000D02*
X11920000Y-4700000D01*
X11940000Y-5560000D02*
X11980000Y-5600000D01*
X11980000Y-5560000D02*
X11940000Y-5600000D01*
X14580000Y-5460000D02*
X14620000Y-5500000D01*
X14620000Y-5460000D02*
X14580000Y-5500000D01*
X14590000Y-4360000D02*
X14630000Y-4400000D01*
X14630000Y-4360000D02*
X14590000Y-4400000D01*
X17920000Y-4360000D02*
X17960000Y-4400000D01*
X17960000Y-4360000D02*
X17920000Y-4400000D01*
X18340000Y-4560000D02*
X18380000Y-4600000D01*
X18380000Y-4560000D02*
X18340000Y-4600000D01*
X18340000Y-5560000D02*
X18380000Y-5600000D01*
X18380000Y-5560000D02*
X18340000Y-5600000D01*
X18540000Y-4660000D02*
X18580000Y-4700000D01*
X18580000Y-4660000D02*
X18540000Y-4700000D01*
X21100000Y-4560000D02*
X21140000Y-4600000D01*
X21140000Y-4560000D02*
X21100000Y-4600000D01*
X21250000Y-4360000D02*
X21290000Y-4400000D01*
X21290000Y-4360000D02*
X21250000Y-4400000D01*
X21300000Y-5562450D02*
X21340000Y-5602450D01*
X21340000Y-5562450D02*
X21300000Y-5602450D01*
X21470000Y-5580000D02*
X21510000Y-5620000D01*
X21510000Y-5580000D02*
X21470000Y-5620000D01*
X21500000Y-4560000D02*
X21540000Y-4600000D01*
X21540000Y-4560000D02*
X21500000Y-4600000D01*
X21500000Y-4670000D02*
X21540000Y-4710000D01*
X21540000Y-4670000D02*
X21500000Y-4710000D01*
X21580000Y-5492450D02*
X21620000Y-5532450D01*
X21620000Y-5492450D02*
X21580000Y-5532450D01*
D13*
X3640000Y-4480000D02*
G75*
G03*
X3640000Y-4480000I-40000J0D01*
G01*
X3640000Y-4680000D02*
G75*
G03*
X3640000Y-4680000I-40000J0D01*
G01*
X3640000Y-4880000D02*
G75*
G03*
X3640000Y-4880000I-40000J0D01*
G01*
X3640000Y-5080000D02*
G75*
G03*
X3640000Y-5080000I-40000J0D01*
G01*
X3640000Y-5280000D02*
G75*
G03*
X3640000Y-5280000I-40000J0D01*
G01*
X3640000Y-5480000D02*
G75*
G03*
X3640000Y-5480000I-40000J0D01*
G01*
X3640000Y-5680000D02*
G75*
G03*
X3640000Y-5680000I-40000J0D01*
G01*
X4647000Y-4980000D02*
G75*
G03*
X4647000Y-4980000I-40000J0D01*
G01*
X4647000Y-5180000D02*
G75*
G03*
X4647000Y-5180000I-40000J0D01*
G01*
X7980000Y-4980000D02*
G75*
G03*
X7980000Y-4980000I-40000J0D01*
G01*
X7980000Y-5180000D02*
G75*
G03*
X7980000Y-5180000I-40000J0D01*
G01*
X11313000Y-4980000D02*
G75*
G03*
X11313000Y-4980000I-40000J0D01*
G01*
X11313000Y-5180000D02*
G75*
G03*
X11313000Y-5180000I-40000J0D01*
G01*
X14646000Y-4980000D02*
G75*
G03*
X14646000Y-4980000I-40000J0D01*
G01*
X14646000Y-5180000D02*
G75*
G03*
X14646000Y-5180000I-40000J0D01*
G01*
X17979000Y-4980000D02*
G75*
G03*
X17979000Y-4980000I-40000J0D01*
G01*
X17979000Y-5180000D02*
G75*
G03*
X17979000Y-5180000I-40000J0D01*
G01*
X21312000Y-4980000D02*
G75*
G03*
X21312000Y-4980000I-40000J0D01*
G01*
X21312000Y-5180000D02*
G75*
G03*
X21312000Y-5180000I-40000J0D01*
G01*
D10*
X21576000Y-4880140D02*
X21576000Y-4980140D01*
X21526000Y-4930140D02*
X21626000Y-4930140D01*
X21576000Y-5179860D02*
X21576000Y-5279860D01*
X21526000Y-5229860D02*
X21626000Y-5229860D01*
X21830000Y-4758220D02*
X21830000Y-4858220D01*
X21780000Y-4808220D02*
X21880000Y-4808220D01*
X21830000Y-5030000D02*
X21830000Y-5130000D01*
X21780000Y-5080000D02*
X21880000Y-5080000D01*
X21830000Y-5301780D02*
X21830000Y-5401780D01*
X21780000Y-5351780D02*
X21880000Y-5351780D01*
X22084000Y-4821720D02*
X22084000Y-4921720D01*
X22034000Y-4871720D02*
X22134000Y-4871720D01*
X22084000Y-5030000D02*
X22084000Y-5130000D01*
X22034000Y-5080000D02*
X22134000Y-5080000D01*
X22084000Y-5238280D02*
X22084000Y-5338280D01*
X22034000Y-5288280D02*
X22134000Y-5288280D01*
D11*
X3277711Y-4450711D02*
X3277711Y-4309289D01*
X3136289Y-4309289D01*
X3136289Y-4450711D01*
X3277711Y-4450711D01*
X3277711Y-5850711D02*
X3277711Y-5709289D01*
X3136289Y-5709289D01*
X3136289Y-5850711D01*
X3277711Y-5850711D01*
X22777711Y-4450711D02*
X22777711Y-4309289D01*
X22636289Y-4309289D01*
X22636289Y-4450711D01*
X22777711Y-4450711D01*
X22777711Y-5850711D02*
X22777711Y-5709289D01*
X22636289Y-5709289D01*
X22636289Y-5850711D01*
X22777711Y-5850711D01*
D14*
X21957000Y-4438160D02*
X22067000Y-4328160D01*
X21957000Y-4218160D01*
X21847000Y-4328160D01*
X21957000Y-4438160D01*
X21957000Y-5941840D02*
X22067000Y-5831840D01*
X21957000Y-5721840D01*
X21847000Y-5831840D01*
X21957000Y-5941840D01*
D15*
X22238320Y-4121800D02*
X22478320Y-4361800D01*
X22478320Y-4121800D02*
X22238320Y-4361800D01*
X22478320Y-4241800D02*
G75*
G03*
X22478320Y-4241800I-120000J0D01*
G01*
X22238320Y-5798200D02*
X22478320Y-6038200D01*
X22478320Y-5798200D02*
X22238320Y-6038200D01*
X22478320Y-5918200D02*
G75*
G03*
X22478320Y-5918200I-120000J0D01*
G01*
D16*
X6797000Y-4920000D02*
X7117000Y-5240000D01*
X7117000Y-4920000D02*
X6797000Y-5240000D01*
X6957000Y-4920000D02*
X6957000Y-5240000D01*
X6797000Y-5080000D02*
X7117000Y-5080000D01*
X10597000Y-4920000D02*
X10917000Y-5240000D01*
X10917000Y-4920000D02*
X10597000Y-5240000D01*
X10757000Y-4920000D02*
X10757000Y-5240000D01*
X10597000Y-5080000D02*
X10917000Y-5080000D01*
X14997000Y-4920000D02*
X15317000Y-5240000D01*
X15317000Y-4920000D02*
X14997000Y-5240000D01*
X15157000Y-4920000D02*
X15157000Y-5240000D01*
X14997000Y-5080000D02*
X15317000Y-5080000D01*
X18797000Y-4920000D02*
X19117000Y-5240000D01*
X19117000Y-4920000D02*
X18797000Y-5240000D01*
X18957000Y-4920000D02*
X18957000Y-5240000D01*
X18797000Y-5080000D02*
X19117000Y-5080000D01*
D11*
X3212619Y-6445476D02*
X3212619Y-6245476D01*
X3260238Y-6245476D01*
X3288809Y-6255000D01*
X3307857Y-6274048D01*
X3317381Y-6293095D01*
X3326905Y-6331190D01*
X3326905Y-6359762D01*
X3317381Y-6397857D01*
X3307857Y-6416905D01*
X3288809Y-6435952D01*
X3260238Y-6445476D01*
X3212619Y-6445476D01*
X3412619Y-6445476D02*
X3412619Y-6312143D01*
X3412619Y-6350238D02*
X3422143Y-6331190D01*
X3431667Y-6321667D01*
X3450714Y-6312143D01*
X3469762Y-6312143D01*
X3536428Y-6445476D02*
X3536428Y-6312143D01*
X3536428Y-6245476D02*
X3526905Y-6255000D01*
X3536428Y-6264524D01*
X3545952Y-6255000D01*
X3536428Y-6245476D01*
X3536428Y-6264524D01*
X3660238Y-6445476D02*
X3641190Y-6435952D01*
X3631667Y-6416905D01*
X3631667Y-6245476D01*
X3765000Y-6445476D02*
X3745952Y-6435952D01*
X3736428Y-6416905D01*
X3736428Y-6245476D01*
X3993571Y-6445476D02*
X3993571Y-6245476D01*
X4060238Y-6388333D01*
X4126905Y-6245476D01*
X4126905Y-6445476D01*
X4307857Y-6445476D02*
X4307857Y-6340714D01*
X4298333Y-6321667D01*
X4279286Y-6312143D01*
X4241190Y-6312143D01*
X4222143Y-6321667D01*
X4307857Y-6435952D02*
X4288810Y-6445476D01*
X4241190Y-6445476D01*
X4222143Y-6435952D01*
X4212619Y-6416905D01*
X4212619Y-6397857D01*
X4222143Y-6378809D01*
X4241190Y-6369286D01*
X4288810Y-6369286D01*
X4307857Y-6359762D01*
X4403095Y-6312143D02*
X4403095Y-6512143D01*
X4403095Y-6321667D02*
X4422143Y-6312143D01*
X4460238Y-6312143D01*
X4479286Y-6321667D01*
X4488810Y-6331190D01*
X4498333Y-6350238D01*
X4498333Y-6407381D01*
X4488810Y-6426428D01*
X4479286Y-6435952D01*
X4460238Y-6445476D01*
X4422143Y-6445476D01*
X4403095Y-6435952D01*
X4584048Y-6426428D02*
X4593571Y-6435952D01*
X4584048Y-6445476D01*
X4574524Y-6435952D01*
X4584048Y-6426428D01*
X4584048Y-6445476D01*
X4584048Y-6321667D02*
X4593571Y-6331190D01*
X4584048Y-6340714D01*
X4574524Y-6331190D01*
X4584048Y-6321667D01*
X4584048Y-6340714D01*
D12*
X2915000Y-6755000D02*
X2955000Y-6795000D01*
X2955000Y-6755000D02*
X2915000Y-6795000D01*
D11*
X3250714Y-6665476D02*
X3269762Y-6665476D01*
X3288809Y-6675000D01*
X3298333Y-6684524D01*
X3307857Y-6703571D01*
X3317381Y-6741667D01*
X3317381Y-6789286D01*
X3307857Y-6827381D01*
X3298333Y-6846428D01*
X3288809Y-6855952D01*
X3269762Y-6865476D01*
X3250714Y-6865476D01*
X3231667Y-6855952D01*
X3222143Y-6846428D01*
X3212619Y-6827381D01*
X3203095Y-6789286D01*
X3203095Y-6741667D01*
X3212619Y-6703571D01*
X3222143Y-6684524D01*
X3231667Y-6675000D01*
X3250714Y-6665476D01*
X3403095Y-6846428D02*
X3412619Y-6855952D01*
X3403095Y-6865476D01*
X3393571Y-6855952D01*
X3403095Y-6846428D01*
X3403095Y-6865476D01*
X3584048Y-6732143D02*
X3584048Y-6865476D01*
X3536428Y-6655952D02*
X3488809Y-6798809D01*
X3612619Y-6798809D01*
X3726905Y-6665476D02*
X3745952Y-6665476D01*
X3765000Y-6675000D01*
X3774524Y-6684524D01*
X3784048Y-6703571D01*
X3793571Y-6741667D01*
X3793571Y-6789286D01*
X3784048Y-6827381D01*
X3774524Y-6846428D01*
X3765000Y-6855952D01*
X3745952Y-6865476D01*
X3726905Y-6865476D01*
X3707857Y-6855952D01*
X3698333Y-6846428D01*
X3688809Y-6827381D01*
X3679286Y-6789286D01*
X3679286Y-6741667D01*
X3688809Y-6703571D01*
X3698333Y-6684524D01*
X3707857Y-6675000D01*
X3726905Y-6665476D01*
X3917381Y-6665476D02*
X3936428Y-6665476D01*
X3955476Y-6675000D01*
X3965000Y-6684524D01*
X3974524Y-6703571D01*
X3984048Y-6741667D01*
X3984048Y-6789286D01*
X3974524Y-6827381D01*
X3965000Y-6846428D01*
X3955476Y-6855952D01*
X3936428Y-6865476D01*
X3917381Y-6865476D01*
X3898333Y-6855952D01*
X3888809Y-6846428D01*
X3879286Y-6827381D01*
X3869762Y-6789286D01*
X3869762Y-6741667D01*
X3879286Y-6703571D01*
X3888809Y-6684524D01*
X3898333Y-6675000D01*
X3917381Y-6665476D01*
X4069762Y-6865476D02*
X4069762Y-6732143D01*
X4069762Y-6751190D02*
X4079286Y-6741667D01*
X4098333Y-6732143D01*
X4126905Y-6732143D01*
X4145952Y-6741667D01*
X4155476Y-6760714D01*
X4155476Y-6865476D01*
X4155476Y-6760714D02*
X4165000Y-6741667D01*
X4184048Y-6732143D01*
X4212619Y-6732143D01*
X4231667Y-6741667D01*
X4241190Y-6760714D01*
X4241190Y-6865476D01*
X4336429Y-6865476D02*
X4336429Y-6732143D01*
X4336429Y-6751190D02*
X4345952Y-6741667D01*
X4365000Y-6732143D01*
X4393571Y-6732143D01*
X4412619Y-6741667D01*
X4422143Y-6760714D01*
X4422143Y-6865476D01*
X4422143Y-6760714D02*
X4431667Y-6741667D01*
X4450714Y-6732143D01*
X4479286Y-6732143D01*
X4498333Y-6741667D01*
X4507857Y-6760714D01*
X4507857Y-6865476D01*
X4898333Y-6655952D02*
X4726905Y-6913095D01*
X5155476Y-6665476D02*
X5174524Y-6665476D01*
X5193571Y-6675000D01*
X5203095Y-6684524D01*
X5212619Y-6703571D01*
X5222143Y-6741667D01*
X5222143Y-6789286D01*
X5212619Y-6827381D01*
X5203095Y-6846428D01*
X5193571Y-6855952D01*
X5174524Y-6865476D01*
X5155476Y-6865476D01*
X5136429Y-6855952D01*
X5126905Y-6846428D01*
X5117381Y-6827381D01*
X5107857Y-6789286D01*
X5107857Y-6741667D01*
X5117381Y-6703571D01*
X5126905Y-6684524D01*
X5136429Y-6675000D01*
X5155476Y-6665476D01*
X5307857Y-6846428D02*
X5317381Y-6855952D01*
X5307857Y-6865476D01*
X5298333Y-6855952D01*
X5307857Y-6846428D01*
X5307857Y-6865476D01*
X5441190Y-6665476D02*
X5460238Y-6665476D01*
X5479286Y-6675000D01*
X5488810Y-6684524D01*
X5498333Y-6703571D01*
X5507857Y-6741667D01*
X5507857Y-6789286D01*
X5498333Y-6827381D01*
X5488810Y-6846428D01*
X5479286Y-6855952D01*
X5460238Y-6865476D01*
X5441190Y-6865476D01*
X5422143Y-6855952D01*
X5412619Y-6846428D01*
X5403095Y-6827381D01*
X5393571Y-6789286D01*
X5393571Y-6741667D01*
X5403095Y-6703571D01*
X5412619Y-6684524D01*
X5422143Y-6675000D01*
X5441190Y-6665476D01*
X5698333Y-6865476D02*
X5584048Y-6865476D01*
X5641190Y-6865476D02*
X5641190Y-6665476D01*
X5622143Y-6694048D01*
X5603095Y-6713095D01*
X5584048Y-6722619D01*
X5879286Y-6665476D02*
X5784048Y-6665476D01*
X5774524Y-6760714D01*
X5784048Y-6751190D01*
X5803095Y-6741667D01*
X5850714Y-6741667D01*
X5869762Y-6751190D01*
X5879286Y-6760714D01*
X5888809Y-6779762D01*
X5888809Y-6827381D01*
X5879286Y-6846428D01*
X5869762Y-6855952D01*
X5850714Y-6865476D01*
X5803095Y-6865476D01*
X5784048Y-6855952D01*
X5774524Y-6846428D01*
X5955476Y-6665476D02*
X6088809Y-6665476D01*
X6003095Y-6865476D01*
X6155476Y-6665476D02*
X6155476Y-6703571D01*
X6231667Y-6665476D02*
X6231667Y-6703571D01*
X6526905Y-6941667D02*
X6517381Y-6932143D01*
X6498333Y-6903571D01*
X6488809Y-6884524D01*
X6479286Y-6855952D01*
X6469762Y-6808333D01*
X6469762Y-6770238D01*
X6479286Y-6722619D01*
X6488809Y-6694048D01*
X6498333Y-6675000D01*
X6517381Y-6646428D01*
X6526905Y-6636905D01*
X6593571Y-6684524D02*
X6603095Y-6675000D01*
X6622143Y-6665476D01*
X6669762Y-6665476D01*
X6688809Y-6675000D01*
X6698333Y-6684524D01*
X6707857Y-6703571D01*
X6707857Y-6722619D01*
X6698333Y-6751190D01*
X6584048Y-6865476D01*
X6707857Y-6865476D01*
X6774524Y-6665476D02*
X6898333Y-6665476D01*
X6831667Y-6741667D01*
X6860238Y-6741667D01*
X6879286Y-6751190D01*
X6888809Y-6760714D01*
X6898333Y-6779762D01*
X6898333Y-6827381D01*
X6888809Y-6846428D01*
X6879286Y-6855952D01*
X6860238Y-6865476D01*
X6803095Y-6865476D01*
X6784048Y-6855952D01*
X6774524Y-6846428D01*
X7136428Y-6865476D02*
X7136428Y-6665476D01*
X7222143Y-6865476D02*
X7222143Y-6760714D01*
X7212619Y-6741667D01*
X7193571Y-6732143D01*
X7165000Y-6732143D01*
X7145952Y-6741667D01*
X7136428Y-6751190D01*
X7345952Y-6865476D02*
X7326905Y-6855952D01*
X7317381Y-6846428D01*
X7307857Y-6827381D01*
X7307857Y-6770238D01*
X7317381Y-6751190D01*
X7326905Y-6741667D01*
X7345952Y-6732143D01*
X7374524Y-6732143D01*
X7393571Y-6741667D01*
X7403095Y-6751190D01*
X7412619Y-6770238D01*
X7412619Y-6827381D01*
X7403095Y-6846428D01*
X7393571Y-6855952D01*
X7374524Y-6865476D01*
X7345952Y-6865476D01*
X7526905Y-6865476D02*
X7507857Y-6855952D01*
X7498333Y-6836905D01*
X7498333Y-6665476D01*
X7679286Y-6855952D02*
X7660238Y-6865476D01*
X7622143Y-6865476D01*
X7603095Y-6855952D01*
X7593571Y-6836905D01*
X7593571Y-6760714D01*
X7603095Y-6741667D01*
X7622143Y-6732143D01*
X7660238Y-6732143D01*
X7679286Y-6741667D01*
X7688809Y-6760714D01*
X7688809Y-6779762D01*
X7593571Y-6798809D01*
X7765000Y-6855952D02*
X7784048Y-6865476D01*
X7822143Y-6865476D01*
X7841190Y-6855952D01*
X7850714Y-6836905D01*
X7850714Y-6827381D01*
X7841190Y-6808333D01*
X7822143Y-6798809D01*
X7793571Y-6798809D01*
X7774524Y-6789286D01*
X7765000Y-6770238D01*
X7765000Y-6760714D01*
X7774524Y-6741667D01*
X7793571Y-6732143D01*
X7822143Y-6732143D01*
X7841190Y-6741667D01*
X7917381Y-6941667D02*
X7926905Y-6932143D01*
X7945952Y-6903571D01*
X7955476Y-6884524D01*
X7965000Y-6855952D01*
X7974524Y-6808333D01*
X7974524Y-6770238D01*
X7965000Y-6722619D01*
X7955476Y-6694048D01*
X7945952Y-6675000D01*
X7926905Y-6646428D01*
X7917381Y-6636905D01*
D13*
X2955000Y-7039000D02*
G75*
G03*
X2955000Y-7039000I-40000J0D01*
G01*
D11*
X3250714Y-6929476D02*
X3269762Y-6929476D01*
X3288809Y-6939000D01*
X3298333Y-6948524D01*
X3307857Y-6967571D01*
X3317381Y-7005667D01*
X3317381Y-7053286D01*
X3307857Y-7091381D01*
X3298333Y-7110428D01*
X3288809Y-7119952D01*
X3269762Y-7129476D01*
X3250714Y-7129476D01*
X3231667Y-7119952D01*
X3222143Y-7110428D01*
X3212619Y-7091381D01*
X3203095Y-7053286D01*
X3203095Y-7005667D01*
X3212619Y-6967571D01*
X3222143Y-6948524D01*
X3231667Y-6939000D01*
X3250714Y-6929476D01*
X3403095Y-7110428D02*
X3412619Y-7119952D01*
X3403095Y-7129476D01*
X3393571Y-7119952D01*
X3403095Y-7110428D01*
X3403095Y-7129476D01*
X3526905Y-7015190D02*
X3507857Y-7005667D01*
X3498333Y-6996143D01*
X3488809Y-6977095D01*
X3488809Y-6967571D01*
X3498333Y-6948524D01*
X3507857Y-6939000D01*
X3526905Y-6929476D01*
X3565000Y-6929476D01*
X3584048Y-6939000D01*
X3593571Y-6948524D01*
X3603095Y-6967571D01*
X3603095Y-6977095D01*
X3593571Y-6996143D01*
X3584048Y-7005667D01*
X3565000Y-7015190D01*
X3526905Y-7015190D01*
X3507857Y-7024714D01*
X3498333Y-7034238D01*
X3488809Y-7053286D01*
X3488809Y-7091381D01*
X3498333Y-7110428D01*
X3507857Y-7119952D01*
X3526905Y-7129476D01*
X3565000Y-7129476D01*
X3584048Y-7119952D01*
X3593571Y-7110428D01*
X3603095Y-7091381D01*
X3603095Y-7053286D01*
X3593571Y-7034238D01*
X3584048Y-7024714D01*
X3565000Y-7015190D01*
X3726905Y-6929476D02*
X3745952Y-6929476D01*
X3765000Y-6939000D01*
X3774524Y-6948524D01*
X3784048Y-6967571D01*
X3793571Y-7005667D01*
X3793571Y-7053286D01*
X3784048Y-7091381D01*
X3774524Y-7110428D01*
X3765000Y-7119952D01*
X3745952Y-7129476D01*
X3726905Y-7129476D01*
X3707857Y-7119952D01*
X3698333Y-7110428D01*
X3688809Y-7091381D01*
X3679286Y-7053286D01*
X3679286Y-7005667D01*
X3688809Y-6967571D01*
X3698333Y-6948524D01*
X3707857Y-6939000D01*
X3726905Y-6929476D01*
X3917381Y-6929476D02*
X3936428Y-6929476D01*
X3955476Y-6939000D01*
X3965000Y-6948524D01*
X3974524Y-6967571D01*
X3984048Y-7005667D01*
X3984048Y-7053286D01*
X3974524Y-7091381D01*
X3965000Y-7110428D01*
X3955476Y-7119952D01*
X3936428Y-7129476D01*
X3917381Y-7129476D01*
X3898333Y-7119952D01*
X3888809Y-7110428D01*
X3879286Y-7091381D01*
X3869762Y-7053286D01*
X3869762Y-7005667D01*
X3879286Y-6967571D01*
X3888809Y-6948524D01*
X3898333Y-6939000D01*
X3917381Y-6929476D01*
X4069762Y-7129476D02*
X4069762Y-6996143D01*
X4069762Y-7015190D02*
X4079286Y-7005667D01*
X4098333Y-6996143D01*
X4126905Y-6996143D01*
X4145952Y-7005667D01*
X4155476Y-7024714D01*
X4155476Y-7129476D01*
X4155476Y-7024714D02*
X4165000Y-7005667D01*
X4184048Y-6996143D01*
X4212619Y-6996143D01*
X4231667Y-7005667D01*
X4241190Y-7024714D01*
X4241190Y-7129476D01*
X4336429Y-7129476D02*
X4336429Y-6996143D01*
X4336429Y-7015190D02*
X4345952Y-7005667D01*
X4365000Y-6996143D01*
X4393571Y-6996143D01*
X4412619Y-7005667D01*
X4422143Y-7024714D01*
X4422143Y-7129476D01*
X4422143Y-7024714D02*
X4431667Y-7005667D01*
X4450714Y-6996143D01*
X4479286Y-6996143D01*
X4498333Y-7005667D01*
X4507857Y-7024714D01*
X4507857Y-7129476D01*
X4898333Y-6919952D02*
X4726905Y-7177095D01*
X5155476Y-6929476D02*
X5174524Y-6929476D01*
X5193571Y-6939000D01*
X5203095Y-6948524D01*
X5212619Y-6967571D01*
X5222143Y-7005667D01*
X5222143Y-7053286D01*
X5212619Y-7091381D01*
X5203095Y-7110428D01*
X5193571Y-7119952D01*
X5174524Y-7129476D01*
X5155476Y-7129476D01*
X5136429Y-7119952D01*
X5126905Y-7110428D01*
X5117381Y-7091381D01*
X5107857Y-7053286D01*
X5107857Y-7005667D01*
X5117381Y-6967571D01*
X5126905Y-6948524D01*
X5136429Y-6939000D01*
X5155476Y-6929476D01*
X5307857Y-7110428D02*
X5317381Y-7119952D01*
X5307857Y-7129476D01*
X5298333Y-7119952D01*
X5307857Y-7110428D01*
X5307857Y-7129476D01*
X5441190Y-6929476D02*
X5460238Y-6929476D01*
X5479286Y-6939000D01*
X5488810Y-6948524D01*
X5498333Y-6967571D01*
X5507857Y-7005667D01*
X5507857Y-7053286D01*
X5498333Y-7091381D01*
X5488810Y-7110428D01*
X5479286Y-7119952D01*
X5460238Y-7129476D01*
X5441190Y-7129476D01*
X5422143Y-7119952D01*
X5412619Y-7110428D01*
X5403095Y-7091381D01*
X5393571Y-7053286D01*
X5393571Y-7005667D01*
X5403095Y-6967571D01*
X5412619Y-6948524D01*
X5422143Y-6939000D01*
X5441190Y-6929476D01*
X5574524Y-6929476D02*
X5698333Y-6929476D01*
X5631667Y-7005667D01*
X5660238Y-7005667D01*
X5679286Y-7015190D01*
X5688809Y-7024714D01*
X5698333Y-7043762D01*
X5698333Y-7091381D01*
X5688809Y-7110428D01*
X5679286Y-7119952D01*
X5660238Y-7129476D01*
X5603095Y-7129476D01*
X5584048Y-7119952D01*
X5574524Y-7110428D01*
X5888809Y-7129476D02*
X5774524Y-7129476D01*
X5831667Y-7129476D02*
X5831667Y-6929476D01*
X5812619Y-6958048D01*
X5793571Y-6977095D01*
X5774524Y-6986619D01*
X6069762Y-6929476D02*
X5974524Y-6929476D01*
X5965000Y-7024714D01*
X5974524Y-7015190D01*
X5993571Y-7005667D01*
X6041190Y-7005667D01*
X6060238Y-7015190D01*
X6069762Y-7024714D01*
X6079286Y-7043762D01*
X6079286Y-7091381D01*
X6069762Y-7110428D01*
X6060238Y-7119952D01*
X6041190Y-7129476D01*
X5993571Y-7129476D01*
X5974524Y-7119952D01*
X5965000Y-7110428D01*
X6155476Y-6929476D02*
X6155476Y-6967571D01*
X6231667Y-6929476D02*
X6231667Y-6967571D01*
X6526905Y-7205667D02*
X6517381Y-7196143D01*
X6498333Y-7167571D01*
X6488809Y-7148524D01*
X6479286Y-7119952D01*
X6469762Y-7072333D01*
X6469762Y-7034238D01*
X6479286Y-6986619D01*
X6488809Y-6958048D01*
X6498333Y-6939000D01*
X6517381Y-6910428D01*
X6526905Y-6900905D01*
X6707857Y-7129476D02*
X6593571Y-7129476D01*
X6650714Y-7129476D02*
X6650714Y-6929476D01*
X6631667Y-6958048D01*
X6612619Y-6977095D01*
X6593571Y-6986619D01*
X6803095Y-7129476D02*
X6841190Y-7129476D01*
X6860238Y-7119952D01*
X6869762Y-7110428D01*
X6888809Y-7081857D01*
X6898333Y-7043762D01*
X6898333Y-6967571D01*
X6888809Y-6948524D01*
X6879286Y-6939000D01*
X6860238Y-6929476D01*
X6822143Y-6929476D01*
X6803095Y-6939000D01*
X6793571Y-6948524D01*
X6784048Y-6967571D01*
X6784048Y-7015190D01*
X6793571Y-7034238D01*
X6803095Y-7043762D01*
X6822143Y-7053286D01*
X6860238Y-7053286D01*
X6879286Y-7043762D01*
X6888809Y-7034238D01*
X6898333Y-7015190D01*
X7136428Y-7129476D02*
X7136428Y-6929476D01*
X7222143Y-7129476D02*
X7222143Y-7024714D01*
X7212619Y-7005667D01*
X7193571Y-6996143D01*
X7165000Y-6996143D01*
X7145952Y-7005667D01*
X7136428Y-7015190D01*
X7345952Y-7129476D02*
X7326905Y-7119952D01*
X7317381Y-7110428D01*
X7307857Y-7091381D01*
X7307857Y-7034238D01*
X7317381Y-7015190D01*
X7326905Y-7005667D01*
X7345952Y-6996143D01*
X7374524Y-6996143D01*
X7393571Y-7005667D01*
X7403095Y-7015190D01*
X7412619Y-7034238D01*
X7412619Y-7091381D01*
X7403095Y-7110428D01*
X7393571Y-7119952D01*
X7374524Y-7129476D01*
X7345952Y-7129476D01*
X7526905Y-7129476D02*
X7507857Y-7119952D01*
X7498333Y-7100905D01*
X7498333Y-6929476D01*
X7679286Y-7119952D02*
X7660238Y-7129476D01*
X7622143Y-7129476D01*
X7603095Y-7119952D01*
X7593571Y-7100905D01*
X7593571Y-7024714D01*
X7603095Y-7005667D01*
X7622143Y-6996143D01*
X7660238Y-6996143D01*
X7679286Y-7005667D01*
X7688809Y-7024714D01*
X7688809Y-7043762D01*
X7593571Y-7062809D01*
X7765000Y-7119952D02*
X7784048Y-7129476D01*
X7822143Y-7129476D01*
X7841190Y-7119952D01*
X7850714Y-7100905D01*
X7850714Y-7091381D01*
X7841190Y-7072333D01*
X7822143Y-7062809D01*
X7793571Y-7062809D01*
X7774524Y-7053286D01*
X7765000Y-7034238D01*
X7765000Y-7024714D01*
X7774524Y-7005667D01*
X7793571Y-6996143D01*
X7822143Y-6996143D01*
X7841190Y-7005667D01*
X7917381Y-7205667D02*
X7926905Y-7196143D01*
X7945952Y-7167571D01*
X7955476Y-7148524D01*
X7965000Y-7119952D01*
X7974524Y-7072333D01*
X7974524Y-7034238D01*
X7965000Y-6986619D01*
X7955476Y-6958048D01*
X7945952Y-6939000D01*
X7926905Y-6910428D01*
X7917381Y-6900905D01*
D10*
X2905000Y-7253000D02*
X2905000Y-7353000D01*
X2855000Y-7303000D02*
X2955000Y-7303000D01*
D11*
X3317381Y-7393476D02*
X3203095Y-7393476D01*
X3260238Y-7393476D02*
X3260238Y-7193476D01*
X3241190Y-7222048D01*
X3222143Y-7241095D01*
X3203095Y-7250619D01*
X3403095Y-7374428D02*
X3412619Y-7383952D01*
X3403095Y-7393476D01*
X3393571Y-7383952D01*
X3403095Y-7374428D01*
X3403095Y-7393476D01*
X3536428Y-7193476D02*
X3555476Y-7193476D01*
X3574524Y-7203000D01*
X3584048Y-7212524D01*
X3593571Y-7231571D01*
X3603095Y-7269667D01*
X3603095Y-7317286D01*
X3593571Y-7355381D01*
X3584048Y-7374428D01*
X3574524Y-7383952D01*
X3555476Y-7393476D01*
X3536428Y-7393476D01*
X3517381Y-7383952D01*
X3507857Y-7374428D01*
X3498333Y-7355381D01*
X3488809Y-7317286D01*
X3488809Y-7269667D01*
X3498333Y-7231571D01*
X3507857Y-7212524D01*
X3517381Y-7203000D01*
X3536428Y-7193476D01*
X3726905Y-7193476D02*
X3745952Y-7193476D01*
X3765000Y-7203000D01*
X3774524Y-7212524D01*
X3784048Y-7231571D01*
X3793571Y-7269667D01*
X3793571Y-7317286D01*
X3784048Y-7355381D01*
X3774524Y-7374428D01*
X3765000Y-7383952D01*
X3745952Y-7393476D01*
X3726905Y-7393476D01*
X3707857Y-7383952D01*
X3698333Y-7374428D01*
X3688809Y-7355381D01*
X3679286Y-7317286D01*
X3679286Y-7269667D01*
X3688809Y-7231571D01*
X3698333Y-7212524D01*
X3707857Y-7203000D01*
X3726905Y-7193476D01*
X3917381Y-7193476D02*
X3936428Y-7193476D01*
X3955476Y-7203000D01*
X3965000Y-7212524D01*
X3974524Y-7231571D01*
X3984048Y-7269667D01*
X3984048Y-7317286D01*
X3974524Y-7355381D01*
X3965000Y-7374428D01*
X3955476Y-7383952D01*
X3936428Y-7393476D01*
X3917381Y-7393476D01*
X3898333Y-7383952D01*
X3888809Y-7374428D01*
X3879286Y-7355381D01*
X3869762Y-7317286D01*
X3869762Y-7269667D01*
X3879286Y-7231571D01*
X3888809Y-7212524D01*
X3898333Y-7203000D01*
X3917381Y-7193476D01*
X4069762Y-7393476D02*
X4069762Y-7260143D01*
X4069762Y-7279190D02*
X4079286Y-7269667D01*
X4098333Y-7260143D01*
X4126905Y-7260143D01*
X4145952Y-7269667D01*
X4155476Y-7288714D01*
X4155476Y-7393476D01*
X4155476Y-7288714D02*
X4165000Y-7269667D01*
X4184048Y-7260143D01*
X4212619Y-7260143D01*
X4231667Y-7269667D01*
X4241190Y-7288714D01*
X4241190Y-7393476D01*
X4336429Y-7393476D02*
X4336429Y-7260143D01*
X4336429Y-7279190D02*
X4345952Y-7269667D01*
X4365000Y-7260143D01*
X4393571Y-7260143D01*
X4412619Y-7269667D01*
X4422143Y-7288714D01*
X4422143Y-7393476D01*
X4422143Y-7288714D02*
X4431667Y-7269667D01*
X4450714Y-7260143D01*
X4479286Y-7260143D01*
X4498333Y-7269667D01*
X4507857Y-7288714D01*
X4507857Y-7393476D01*
X4898333Y-7183952D02*
X4726905Y-7441095D01*
X5155476Y-7193476D02*
X5174524Y-7193476D01*
X5193571Y-7203000D01*
X5203095Y-7212524D01*
X5212619Y-7231571D01*
X5222143Y-7269667D01*
X5222143Y-7317286D01*
X5212619Y-7355381D01*
X5203095Y-7374428D01*
X5193571Y-7383952D01*
X5174524Y-7393476D01*
X5155476Y-7393476D01*
X5136429Y-7383952D01*
X5126905Y-7374428D01*
X5117381Y-7355381D01*
X5107857Y-7317286D01*
X5107857Y-7269667D01*
X5117381Y-7231571D01*
X5126905Y-7212524D01*
X5136429Y-7203000D01*
X5155476Y-7193476D01*
X5307857Y-7374428D02*
X5317381Y-7383952D01*
X5307857Y-7393476D01*
X5298333Y-7383952D01*
X5307857Y-7374428D01*
X5307857Y-7393476D01*
X5441190Y-7193476D02*
X5460238Y-7193476D01*
X5479286Y-7203000D01*
X5488810Y-7212524D01*
X5498333Y-7231571D01*
X5507857Y-7269667D01*
X5507857Y-7317286D01*
X5498333Y-7355381D01*
X5488810Y-7374428D01*
X5479286Y-7383952D01*
X5460238Y-7393476D01*
X5441190Y-7393476D01*
X5422143Y-7383952D01*
X5412619Y-7374428D01*
X5403095Y-7355381D01*
X5393571Y-7317286D01*
X5393571Y-7269667D01*
X5403095Y-7231571D01*
X5412619Y-7212524D01*
X5422143Y-7203000D01*
X5441190Y-7193476D01*
X5574524Y-7193476D02*
X5698333Y-7193476D01*
X5631667Y-7269667D01*
X5660238Y-7269667D01*
X5679286Y-7279190D01*
X5688809Y-7288714D01*
X5698333Y-7307762D01*
X5698333Y-7355381D01*
X5688809Y-7374428D01*
X5679286Y-7383952D01*
X5660238Y-7393476D01*
X5603095Y-7393476D01*
X5584048Y-7383952D01*
X5574524Y-7374428D01*
X5793571Y-7393476D02*
X5831667Y-7393476D01*
X5850714Y-7383952D01*
X5860238Y-7374428D01*
X5879286Y-7345857D01*
X5888809Y-7307762D01*
X5888809Y-7231571D01*
X5879286Y-7212524D01*
X5869762Y-7203000D01*
X5850714Y-7193476D01*
X5812619Y-7193476D01*
X5793571Y-7203000D01*
X5784048Y-7212524D01*
X5774524Y-7231571D01*
X5774524Y-7279190D01*
X5784048Y-7298238D01*
X5793571Y-7307762D01*
X5812619Y-7317286D01*
X5850714Y-7317286D01*
X5869762Y-7307762D01*
X5879286Y-7298238D01*
X5888809Y-7279190D01*
X6060238Y-7260143D02*
X6060238Y-7393476D01*
X6012619Y-7183952D02*
X5965000Y-7326809D01*
X6088809Y-7326809D01*
X6155476Y-7193476D02*
X6155476Y-7231571D01*
X6231667Y-7193476D02*
X6231667Y-7231571D01*
X6526905Y-7469667D02*
X6517381Y-7460143D01*
X6498333Y-7431571D01*
X6488809Y-7412524D01*
X6479286Y-7383952D01*
X6469762Y-7336333D01*
X6469762Y-7298238D01*
X6479286Y-7250619D01*
X6488809Y-7222048D01*
X6498333Y-7203000D01*
X6517381Y-7174428D01*
X6526905Y-7164905D01*
X6631667Y-7279190D02*
X6612619Y-7269667D01*
X6603095Y-7260143D01*
X6593571Y-7241095D01*
X6593571Y-7231571D01*
X6603095Y-7212524D01*
X6612619Y-7203000D01*
X6631667Y-7193476D01*
X6669762Y-7193476D01*
X6688809Y-7203000D01*
X6698333Y-7212524D01*
X6707857Y-7231571D01*
X6707857Y-7241095D01*
X6698333Y-7260143D01*
X6688809Y-7269667D01*
X6669762Y-7279190D01*
X6631667Y-7279190D01*
X6612619Y-7288714D01*
X6603095Y-7298238D01*
X6593571Y-7317286D01*
X6593571Y-7355381D01*
X6603095Y-7374428D01*
X6612619Y-7383952D01*
X6631667Y-7393476D01*
X6669762Y-7393476D01*
X6688809Y-7383952D01*
X6698333Y-7374428D01*
X6707857Y-7355381D01*
X6707857Y-7317286D01*
X6698333Y-7298238D01*
X6688809Y-7288714D01*
X6669762Y-7279190D01*
X6945952Y-7393476D02*
X6945952Y-7193476D01*
X7031667Y-7393476D02*
X7031667Y-7288714D01*
X7022143Y-7269667D01*
X7003095Y-7260143D01*
X6974524Y-7260143D01*
X6955476Y-7269667D01*
X6945952Y-7279190D01*
X7155476Y-7393476D02*
X7136428Y-7383952D01*
X7126905Y-7374428D01*
X7117381Y-7355381D01*
X7117381Y-7298238D01*
X7126905Y-7279190D01*
X7136428Y-7269667D01*
X7155476Y-7260143D01*
X7184048Y-7260143D01*
X7203095Y-7269667D01*
X7212619Y-7279190D01*
X7222143Y-7298238D01*
X7222143Y-7355381D01*
X7212619Y-7374428D01*
X7203095Y-7383952D01*
X7184048Y-7393476D01*
X7155476Y-7393476D01*
X7336428Y-7393476D02*
X7317381Y-7383952D01*
X7307857Y-7364905D01*
X7307857Y-7193476D01*
X7488809Y-7383952D02*
X7469762Y-7393476D01*
X7431667Y-7393476D01*
X7412619Y-7383952D01*
X7403095Y-7364905D01*
X7403095Y-7288714D01*
X7412619Y-7269667D01*
X7431667Y-7260143D01*
X7469762Y-7260143D01*
X7488809Y-7269667D01*
X7498333Y-7288714D01*
X7498333Y-7307762D01*
X7403095Y-7326809D01*
X7574524Y-7383952D02*
X7593571Y-7393476D01*
X7631667Y-7393476D01*
X7650714Y-7383952D01*
X7660238Y-7364905D01*
X7660238Y-7355381D01*
X7650714Y-7336333D01*
X7631667Y-7326809D01*
X7603095Y-7326809D01*
X7584048Y-7317286D01*
X7574524Y-7298238D01*
X7574524Y-7288714D01*
X7584048Y-7269667D01*
X7603095Y-7260143D01*
X7631667Y-7260143D01*
X7650714Y-7269667D01*
X7726905Y-7469667D02*
X7736428Y-7460143D01*
X7755476Y-7431571D01*
X7765000Y-7412524D01*
X7774524Y-7383952D01*
X7784048Y-7336333D01*
X7784048Y-7298238D01*
X7774524Y-7250619D01*
X7765000Y-7222048D01*
X7755476Y-7203000D01*
X7736428Y-7174428D01*
X7726905Y-7164905D01*
X2925711Y-7637711D02*
X2925711Y-7496289D01*
X2784289Y-7496289D01*
X2784289Y-7637711D01*
X2925711Y-7637711D01*
X3203095Y-7476524D02*
X3212619Y-7467000D01*
X3231667Y-7457476D01*
X3279286Y-7457476D01*
X3298333Y-7467000D01*
X3307857Y-7476524D01*
X3317381Y-7495571D01*
X3317381Y-7514619D01*
X3307857Y-7543190D01*
X3193571Y-7657476D01*
X3317381Y-7657476D01*
X3403095Y-7638428D02*
X3412619Y-7647952D01*
X3403095Y-7657476D01*
X3393571Y-7647952D01*
X3403095Y-7638428D01*
X3403095Y-7657476D01*
X3536428Y-7457476D02*
X3555476Y-7457476D01*
X3574524Y-7467000D01*
X3584048Y-7476524D01*
X3593571Y-7495571D01*
X3603095Y-7533667D01*
X3603095Y-7581286D01*
X3593571Y-7619381D01*
X3584048Y-7638428D01*
X3574524Y-7647952D01*
X3555476Y-7657476D01*
X3536428Y-7657476D01*
X3517381Y-7647952D01*
X3507857Y-7638428D01*
X3498333Y-7619381D01*
X3488809Y-7581286D01*
X3488809Y-7533667D01*
X3498333Y-7495571D01*
X3507857Y-7476524D01*
X3517381Y-7467000D01*
X3536428Y-7457476D01*
X3726905Y-7457476D02*
X3745952Y-7457476D01*
X3765000Y-7467000D01*
X3774524Y-7476524D01*
X3784048Y-7495571D01*
X3793571Y-7533667D01*
X3793571Y-7581286D01*
X3784048Y-7619381D01*
X3774524Y-7638428D01*
X3765000Y-7647952D01*
X3745952Y-7657476D01*
X3726905Y-7657476D01*
X3707857Y-7647952D01*
X3698333Y-7638428D01*
X3688809Y-7619381D01*
X3679286Y-7581286D01*
X3679286Y-7533667D01*
X3688809Y-7495571D01*
X3698333Y-7476524D01*
X3707857Y-7467000D01*
X3726905Y-7457476D01*
X3917381Y-7457476D02*
X3936428Y-7457476D01*
X3955476Y-7467000D01*
X3965000Y-7476524D01*
X3974524Y-7495571D01*
X3984048Y-7533667D01*
X3984048Y-7581286D01*
X3974524Y-7619381D01*
X3965000Y-7638428D01*
X3955476Y-7647952D01*
X3936428Y-7657476D01*
X3917381Y-7657476D01*
X3898333Y-7647952D01*
X3888809Y-7638428D01*
X3879286Y-7619381D01*
X3869762Y-7581286D01*
X3869762Y-7533667D01*
X3879286Y-7495571D01*
X3888809Y-7476524D01*
X3898333Y-7467000D01*
X3917381Y-7457476D01*
X4069762Y-7657476D02*
X4069762Y-7524143D01*
X4069762Y-7543190D02*
X4079286Y-7533667D01*
X4098333Y-7524143D01*
X4126905Y-7524143D01*
X4145952Y-7533667D01*
X4155476Y-7552714D01*
X4155476Y-7657476D01*
X4155476Y-7552714D02*
X4165000Y-7533667D01*
X4184048Y-7524143D01*
X4212619Y-7524143D01*
X4231667Y-7533667D01*
X4241190Y-7552714D01*
X4241190Y-7657476D01*
X4336429Y-7657476D02*
X4336429Y-7524143D01*
X4336429Y-7543190D02*
X4345952Y-7533667D01*
X4365000Y-7524143D01*
X4393571Y-7524143D01*
X4412619Y-7533667D01*
X4422143Y-7552714D01*
X4422143Y-7657476D01*
X4422143Y-7552714D02*
X4431667Y-7533667D01*
X4450714Y-7524143D01*
X4479286Y-7524143D01*
X4498333Y-7533667D01*
X4507857Y-7552714D01*
X4507857Y-7657476D01*
X4898333Y-7447952D02*
X4726905Y-7705095D01*
X5155476Y-7457476D02*
X5174524Y-7457476D01*
X5193571Y-7467000D01*
X5203095Y-7476524D01*
X5212619Y-7495571D01*
X5222143Y-7533667D01*
X5222143Y-7581286D01*
X5212619Y-7619381D01*
X5203095Y-7638428D01*
X5193571Y-7647952D01*
X5174524Y-7657476D01*
X5155476Y-7657476D01*
X5136429Y-7647952D01*
X5126905Y-7638428D01*
X5117381Y-7619381D01*
X5107857Y-7581286D01*
X5107857Y-7533667D01*
X5117381Y-7495571D01*
X5126905Y-7476524D01*
X5136429Y-7467000D01*
X5155476Y-7457476D01*
X5307857Y-7638428D02*
X5317381Y-7647952D01*
X5307857Y-7657476D01*
X5298333Y-7647952D01*
X5307857Y-7638428D01*
X5307857Y-7657476D01*
X5441190Y-7457476D02*
X5460238Y-7457476D01*
X5479286Y-7467000D01*
X5488810Y-7476524D01*
X5498333Y-7495571D01*
X5507857Y-7533667D01*
X5507857Y-7581286D01*
X5498333Y-7619381D01*
X5488810Y-7638428D01*
X5479286Y-7647952D01*
X5460238Y-7657476D01*
X5441190Y-7657476D01*
X5422143Y-7647952D01*
X5412619Y-7638428D01*
X5403095Y-7619381D01*
X5393571Y-7581286D01*
X5393571Y-7533667D01*
X5403095Y-7495571D01*
X5412619Y-7476524D01*
X5422143Y-7467000D01*
X5441190Y-7457476D01*
X5574524Y-7457476D02*
X5707857Y-7457476D01*
X5622143Y-7657476D01*
X5812619Y-7543190D02*
X5793571Y-7533667D01*
X5784048Y-7524143D01*
X5774524Y-7505095D01*
X5774524Y-7495571D01*
X5784048Y-7476524D01*
X5793571Y-7467000D01*
X5812619Y-7457476D01*
X5850714Y-7457476D01*
X5869762Y-7467000D01*
X5879286Y-7476524D01*
X5888809Y-7495571D01*
X5888809Y-7505095D01*
X5879286Y-7524143D01*
X5869762Y-7533667D01*
X5850714Y-7543190D01*
X5812619Y-7543190D01*
X5793571Y-7552714D01*
X5784048Y-7562238D01*
X5774524Y-7581286D01*
X5774524Y-7619381D01*
X5784048Y-7638428D01*
X5793571Y-7647952D01*
X5812619Y-7657476D01*
X5850714Y-7657476D01*
X5869762Y-7647952D01*
X5879286Y-7638428D01*
X5888809Y-7619381D01*
X5888809Y-7581286D01*
X5879286Y-7562238D01*
X5869762Y-7552714D01*
X5850714Y-7543190D01*
X5955476Y-7457476D02*
X6088809Y-7457476D01*
X6003095Y-7657476D01*
X6155476Y-7457476D02*
X6155476Y-7495571D01*
X6231667Y-7457476D02*
X6231667Y-7495571D01*
X6526905Y-7733667D02*
X6517381Y-7724143D01*
X6498333Y-7695571D01*
X6488809Y-7676524D01*
X6479286Y-7647952D01*
X6469762Y-7600333D01*
X6469762Y-7562238D01*
X6479286Y-7514619D01*
X6488809Y-7486048D01*
X6498333Y-7467000D01*
X6517381Y-7438428D01*
X6526905Y-7428905D01*
X6688809Y-7524143D02*
X6688809Y-7657476D01*
X6641190Y-7447952D02*
X6593571Y-7590809D01*
X6717381Y-7590809D01*
X6945952Y-7657476D02*
X6945952Y-7457476D01*
X7031667Y-7657476D02*
X7031667Y-7552714D01*
X7022143Y-7533667D01*
X7003095Y-7524143D01*
X6974524Y-7524143D01*
X6955476Y-7533667D01*
X6945952Y-7543190D01*
X7155476Y-7657476D02*
X7136428Y-7647952D01*
X7126905Y-7638428D01*
X7117381Y-7619381D01*
X7117381Y-7562238D01*
X7126905Y-7543190D01*
X7136428Y-7533667D01*
X7155476Y-7524143D01*
X7184048Y-7524143D01*
X7203095Y-7533667D01*
X7212619Y-7543190D01*
X7222143Y-7562238D01*
X7222143Y-7619381D01*
X7212619Y-7638428D01*
X7203095Y-7647952D01*
X7184048Y-7657476D01*
X7155476Y-7657476D01*
X7336428Y-7657476D02*
X7317381Y-7647952D01*
X7307857Y-7628905D01*
X7307857Y-7457476D01*
X7488809Y-7647952D02*
X7469762Y-7657476D01*
X7431667Y-7657476D01*
X7412619Y-7647952D01*
X7403095Y-7628905D01*
X7403095Y-7552714D01*
X7412619Y-7533667D01*
X7431667Y-7524143D01*
X7469762Y-7524143D01*
X7488809Y-7533667D01*
X7498333Y-7552714D01*
X7498333Y-7571762D01*
X7403095Y-7590809D01*
X7574524Y-7647952D02*
X7593571Y-7657476D01*
X7631667Y-7657476D01*
X7650714Y-7647952D01*
X7660238Y-7628905D01*
X7660238Y-7619381D01*
X7650714Y-7600333D01*
X7631667Y-7590809D01*
X7603095Y-7590809D01*
X7584048Y-7581286D01*
X7574524Y-7562238D01*
X7574524Y-7552714D01*
X7584048Y-7533667D01*
X7603095Y-7524143D01*
X7631667Y-7524143D01*
X7650714Y-7533667D01*
X7726905Y-7733667D02*
X7736428Y-7724143D01*
X7755476Y-7695571D01*
X7765000Y-7676524D01*
X7774524Y-7647952D01*
X7784048Y-7600333D01*
X7784048Y-7562238D01*
X7774524Y-7514619D01*
X7765000Y-7486048D01*
X7755476Y-7467000D01*
X7736428Y-7438428D01*
X7726905Y-7428905D01*
X8088809Y-7733667D02*
X8079286Y-7724143D01*
X8060238Y-7695571D01*
X8050714Y-7676524D01*
X8041190Y-7647952D01*
X8031667Y-7600333D01*
X8031667Y-7562238D01*
X8041190Y-7514619D01*
X8050714Y-7486048D01*
X8060238Y-7467000D01*
X8079286Y-7438428D01*
X8088809Y-7428905D01*
X8165000Y-7524143D02*
X8165000Y-7657476D01*
X8165000Y-7543190D02*
X8174524Y-7533667D01*
X8193571Y-7524143D01*
X8222143Y-7524143D01*
X8241190Y-7533667D01*
X8250714Y-7552714D01*
X8250714Y-7657476D01*
X8374524Y-7657476D02*
X8355476Y-7647952D01*
X8345952Y-7638428D01*
X8336428Y-7619381D01*
X8336428Y-7562238D01*
X8345952Y-7543190D01*
X8355476Y-7533667D01*
X8374524Y-7524143D01*
X8403095Y-7524143D01*
X8422143Y-7533667D01*
X8431667Y-7543190D01*
X8441190Y-7562238D01*
X8441190Y-7619381D01*
X8431667Y-7638428D01*
X8422143Y-7647952D01*
X8403095Y-7657476D01*
X8374524Y-7657476D01*
X8498333Y-7524143D02*
X8574524Y-7524143D01*
X8526905Y-7457476D02*
X8526905Y-7628905D01*
X8536429Y-7647952D01*
X8555476Y-7657476D01*
X8574524Y-7657476D01*
X8793571Y-7524143D02*
X8793571Y-7724143D01*
X8793571Y-7533667D02*
X8812619Y-7524143D01*
X8850714Y-7524143D01*
X8869762Y-7533667D01*
X8879286Y-7543190D01*
X8888810Y-7562238D01*
X8888810Y-7619381D01*
X8879286Y-7638428D01*
X8869762Y-7647952D01*
X8850714Y-7657476D01*
X8812619Y-7657476D01*
X8793571Y-7647952D01*
X9003095Y-7657476D02*
X8984048Y-7647952D01*
X8974524Y-7628905D01*
X8974524Y-7457476D01*
X9165000Y-7657476D02*
X9165000Y-7552714D01*
X9155476Y-7533667D01*
X9136429Y-7524143D01*
X9098333Y-7524143D01*
X9079286Y-7533667D01*
X9165000Y-7647952D02*
X9145952Y-7657476D01*
X9098333Y-7657476D01*
X9079286Y-7647952D01*
X9069762Y-7628905D01*
X9069762Y-7609857D01*
X9079286Y-7590809D01*
X9098333Y-7581286D01*
X9145952Y-7581286D01*
X9165000Y-7571762D01*
X9231667Y-7524143D02*
X9307857Y-7524143D01*
X9260238Y-7457476D02*
X9260238Y-7628905D01*
X9269762Y-7647952D01*
X9288810Y-7657476D01*
X9307857Y-7657476D01*
X9450714Y-7647952D02*
X9431667Y-7657476D01*
X9393571Y-7657476D01*
X9374524Y-7647952D01*
X9365000Y-7628905D01*
X9365000Y-7552714D01*
X9374524Y-7533667D01*
X9393571Y-7524143D01*
X9431667Y-7524143D01*
X9450714Y-7533667D01*
X9460238Y-7552714D01*
X9460238Y-7571762D01*
X9365000Y-7590809D01*
X9631667Y-7657476D02*
X9631667Y-7457476D01*
X9631667Y-7647952D02*
X9612619Y-7657476D01*
X9574524Y-7657476D01*
X9555476Y-7647952D01*
X9545952Y-7638428D01*
X9536429Y-7619381D01*
X9536429Y-7562238D01*
X9545952Y-7543190D01*
X9555476Y-7533667D01*
X9574524Y-7524143D01*
X9612619Y-7524143D01*
X9631667Y-7533667D01*
X9707857Y-7733667D02*
X9717381Y-7724143D01*
X9736429Y-7695571D01*
X9745952Y-7676524D01*
X9755476Y-7647952D01*
X9765000Y-7600333D01*
X9765000Y-7562238D01*
X9755476Y-7514619D01*
X9745952Y-7486048D01*
X9736429Y-7467000D01*
X9717381Y-7438428D01*
X9707857Y-7428905D01*
X2855000Y-7987000D02*
X2955000Y-7887000D01*
X2855000Y-7787000D01*
X2755000Y-7887000D01*
X2855000Y-7987000D01*
X3203095Y-7796524D02*
X3212619Y-7787000D01*
X3231667Y-7777476D01*
X3279286Y-7777476D01*
X3298333Y-7787000D01*
X3307857Y-7796524D01*
X3317381Y-7815571D01*
X3317381Y-7834619D01*
X3307857Y-7863190D01*
X3193571Y-7977476D01*
X3317381Y-7977476D01*
X3403095Y-7958428D02*
X3412619Y-7967952D01*
X3403095Y-7977476D01*
X3393571Y-7967952D01*
X3403095Y-7958428D01*
X3403095Y-7977476D01*
X3488809Y-7796524D02*
X3498333Y-7787000D01*
X3517381Y-7777476D01*
X3565000Y-7777476D01*
X3584048Y-7787000D01*
X3593571Y-7796524D01*
X3603095Y-7815571D01*
X3603095Y-7834619D01*
X3593571Y-7863190D01*
X3479286Y-7977476D01*
X3603095Y-7977476D01*
X3726905Y-7777476D02*
X3745952Y-7777476D01*
X3765000Y-7787000D01*
X3774524Y-7796524D01*
X3784048Y-7815571D01*
X3793571Y-7853667D01*
X3793571Y-7901286D01*
X3784048Y-7939381D01*
X3774524Y-7958428D01*
X3765000Y-7967952D01*
X3745952Y-7977476D01*
X3726905Y-7977476D01*
X3707857Y-7967952D01*
X3698333Y-7958428D01*
X3688809Y-7939381D01*
X3679286Y-7901286D01*
X3679286Y-7853667D01*
X3688809Y-7815571D01*
X3698333Y-7796524D01*
X3707857Y-7787000D01*
X3726905Y-7777476D01*
X3917381Y-7777476D02*
X3936428Y-7777476D01*
X3955476Y-7787000D01*
X3965000Y-7796524D01*
X3974524Y-7815571D01*
X3984048Y-7853667D01*
X3984048Y-7901286D01*
X3974524Y-7939381D01*
X3965000Y-7958428D01*
X3955476Y-7967952D01*
X3936428Y-7977476D01*
X3917381Y-7977476D01*
X3898333Y-7967952D01*
X3888809Y-7958428D01*
X3879286Y-7939381D01*
X3869762Y-7901286D01*
X3869762Y-7853667D01*
X3879286Y-7815571D01*
X3888809Y-7796524D01*
X3898333Y-7787000D01*
X3917381Y-7777476D01*
X4069762Y-7977476D02*
X4069762Y-7844143D01*
X4069762Y-7863190D02*
X4079286Y-7853667D01*
X4098333Y-7844143D01*
X4126905Y-7844143D01*
X4145952Y-7853667D01*
X4155476Y-7872714D01*
X4155476Y-7977476D01*
X4155476Y-7872714D02*
X4165000Y-7853667D01*
X4184048Y-7844143D01*
X4212619Y-7844143D01*
X4231667Y-7853667D01*
X4241190Y-7872714D01*
X4241190Y-7977476D01*
X4336429Y-7977476D02*
X4336429Y-7844143D01*
X4336429Y-7863190D02*
X4345952Y-7853667D01*
X4365000Y-7844143D01*
X4393571Y-7844143D01*
X4412619Y-7853667D01*
X4422143Y-7872714D01*
X4422143Y-7977476D01*
X4422143Y-7872714D02*
X4431667Y-7853667D01*
X4450714Y-7844143D01*
X4479286Y-7844143D01*
X4498333Y-7853667D01*
X4507857Y-7872714D01*
X4507857Y-7977476D01*
X4898333Y-7767952D02*
X4726905Y-8025095D01*
X5155476Y-7777476D02*
X5174524Y-7777476D01*
X5193571Y-7787000D01*
X5203095Y-7796524D01*
X5212619Y-7815571D01*
X5222143Y-7853667D01*
X5222143Y-7901286D01*
X5212619Y-7939381D01*
X5203095Y-7958428D01*
X5193571Y-7967952D01*
X5174524Y-7977476D01*
X5155476Y-7977476D01*
X5136429Y-7967952D01*
X5126905Y-7958428D01*
X5117381Y-7939381D01*
X5107857Y-7901286D01*
X5107857Y-7853667D01*
X5117381Y-7815571D01*
X5126905Y-7796524D01*
X5136429Y-7787000D01*
X5155476Y-7777476D01*
X5307857Y-7958428D02*
X5317381Y-7967952D01*
X5307857Y-7977476D01*
X5298333Y-7967952D01*
X5307857Y-7958428D01*
X5307857Y-7977476D01*
X5441190Y-7777476D02*
X5460238Y-7777476D01*
X5479286Y-7787000D01*
X5488810Y-7796524D01*
X5498333Y-7815571D01*
X5507857Y-7853667D01*
X5507857Y-7901286D01*
X5498333Y-7939381D01*
X5488810Y-7958428D01*
X5479286Y-7967952D01*
X5460238Y-7977476D01*
X5441190Y-7977476D01*
X5422143Y-7967952D01*
X5412619Y-7958428D01*
X5403095Y-7939381D01*
X5393571Y-7901286D01*
X5393571Y-7853667D01*
X5403095Y-7815571D01*
X5412619Y-7796524D01*
X5422143Y-7787000D01*
X5441190Y-7777476D01*
X5622143Y-7863190D02*
X5603095Y-7853667D01*
X5593571Y-7844143D01*
X5584048Y-7825095D01*
X5584048Y-7815571D01*
X5593571Y-7796524D01*
X5603095Y-7787000D01*
X5622143Y-7777476D01*
X5660238Y-7777476D01*
X5679286Y-7787000D01*
X5688809Y-7796524D01*
X5698333Y-7815571D01*
X5698333Y-7825095D01*
X5688809Y-7844143D01*
X5679286Y-7853667D01*
X5660238Y-7863190D01*
X5622143Y-7863190D01*
X5603095Y-7872714D01*
X5593571Y-7882238D01*
X5584048Y-7901286D01*
X5584048Y-7939381D01*
X5593571Y-7958428D01*
X5603095Y-7967952D01*
X5622143Y-7977476D01*
X5660238Y-7977476D01*
X5679286Y-7967952D01*
X5688809Y-7958428D01*
X5698333Y-7939381D01*
X5698333Y-7901286D01*
X5688809Y-7882238D01*
X5679286Y-7872714D01*
X5660238Y-7863190D01*
X5869762Y-7777476D02*
X5831667Y-7777476D01*
X5812619Y-7787000D01*
X5803095Y-7796524D01*
X5784048Y-7825095D01*
X5774524Y-7863190D01*
X5774524Y-7939381D01*
X5784048Y-7958428D01*
X5793571Y-7967952D01*
X5812619Y-7977476D01*
X5850714Y-7977476D01*
X5869762Y-7967952D01*
X5879286Y-7958428D01*
X5888809Y-7939381D01*
X5888809Y-7891762D01*
X5879286Y-7872714D01*
X5869762Y-7863190D01*
X5850714Y-7853667D01*
X5812619Y-7853667D01*
X5793571Y-7863190D01*
X5784048Y-7872714D01*
X5774524Y-7891762D01*
X6060238Y-7777476D02*
X6022143Y-7777476D01*
X6003095Y-7787000D01*
X5993571Y-7796524D01*
X5974524Y-7825095D01*
X5965000Y-7863190D01*
X5965000Y-7939381D01*
X5974524Y-7958428D01*
X5984048Y-7967952D01*
X6003095Y-7977476D01*
X6041190Y-7977476D01*
X6060238Y-7967952D01*
X6069762Y-7958428D01*
X6079286Y-7939381D01*
X6079286Y-7891762D01*
X6069762Y-7872714D01*
X6060238Y-7863190D01*
X6041190Y-7853667D01*
X6003095Y-7853667D01*
X5984048Y-7863190D01*
X5974524Y-7872714D01*
X5965000Y-7891762D01*
X6155476Y-7777476D02*
X6155476Y-7815571D01*
X6231667Y-7777476D02*
X6231667Y-7815571D01*
X6526905Y-8053667D02*
X6517381Y-8044143D01*
X6498333Y-8015571D01*
X6488809Y-7996524D01*
X6479286Y-7967952D01*
X6469762Y-7920333D01*
X6469762Y-7882238D01*
X6479286Y-7834619D01*
X6488809Y-7806048D01*
X6498333Y-7787000D01*
X6517381Y-7758428D01*
X6526905Y-7748905D01*
X6593571Y-7796524D02*
X6603095Y-7787000D01*
X6622143Y-7777476D01*
X6669762Y-7777476D01*
X6688809Y-7787000D01*
X6698333Y-7796524D01*
X6707857Y-7815571D01*
X6707857Y-7834619D01*
X6698333Y-7863190D01*
X6584048Y-7977476D01*
X6707857Y-7977476D01*
X6945952Y-7977476D02*
X6945952Y-7777476D01*
X7031667Y-7977476D02*
X7031667Y-7872714D01*
X7022143Y-7853667D01*
X7003095Y-7844143D01*
X6974524Y-7844143D01*
X6955476Y-7853667D01*
X6945952Y-7863190D01*
X7155476Y-7977476D02*
X7136428Y-7967952D01*
X7126905Y-7958428D01*
X7117381Y-7939381D01*
X7117381Y-7882238D01*
X7126905Y-7863190D01*
X7136428Y-7853667D01*
X7155476Y-7844143D01*
X7184048Y-7844143D01*
X7203095Y-7853667D01*
X7212619Y-7863190D01*
X7222143Y-7882238D01*
X7222143Y-7939381D01*
X7212619Y-7958428D01*
X7203095Y-7967952D01*
X7184048Y-7977476D01*
X7155476Y-7977476D01*
X7336428Y-7977476D02*
X7317381Y-7967952D01*
X7307857Y-7948905D01*
X7307857Y-7777476D01*
X7488809Y-7967952D02*
X7469762Y-7977476D01*
X7431667Y-7977476D01*
X7412619Y-7967952D01*
X7403095Y-7948905D01*
X7403095Y-7872714D01*
X7412619Y-7853667D01*
X7431667Y-7844143D01*
X7469762Y-7844143D01*
X7488809Y-7853667D01*
X7498333Y-7872714D01*
X7498333Y-7891762D01*
X7403095Y-7910809D01*
X7574524Y-7967952D02*
X7593571Y-7977476D01*
X7631667Y-7977476D01*
X7650714Y-7967952D01*
X7660238Y-7948905D01*
X7660238Y-7939381D01*
X7650714Y-7920333D01*
X7631667Y-7910809D01*
X7603095Y-7910809D01*
X7584048Y-7901286D01*
X7574524Y-7882238D01*
X7574524Y-7872714D01*
X7584048Y-7853667D01*
X7603095Y-7844143D01*
X7631667Y-7844143D01*
X7650714Y-7853667D01*
X7726905Y-8053667D02*
X7736428Y-8044143D01*
X7755476Y-8015571D01*
X7765000Y-7996524D01*
X7774524Y-7967952D01*
X7784048Y-7920333D01*
X7784048Y-7882238D01*
X7774524Y-7834619D01*
X7765000Y-7806048D01*
X7755476Y-7787000D01*
X7736428Y-7758428D01*
X7726905Y-7748905D01*
X8088809Y-8053667D02*
X8079286Y-8044143D01*
X8060238Y-8015571D01*
X8050714Y-7996524D01*
X8041190Y-7967952D01*
X8031667Y-7920333D01*
X8031667Y-7882238D01*
X8041190Y-7834619D01*
X8050714Y-7806048D01*
X8060238Y-7787000D01*
X8079286Y-7758428D01*
X8088809Y-7748905D01*
X8165000Y-7844143D02*
X8165000Y-7977476D01*
X8165000Y-7863190D02*
X8174524Y-7853667D01*
X8193571Y-7844143D01*
X8222143Y-7844143D01*
X8241190Y-7853667D01*
X8250714Y-7872714D01*
X8250714Y-7977476D01*
X8374524Y-7977476D02*
X8355476Y-7967952D01*
X8345952Y-7958428D01*
X8336428Y-7939381D01*
X8336428Y-7882238D01*
X8345952Y-7863190D01*
X8355476Y-7853667D01*
X8374524Y-7844143D01*
X8403095Y-7844143D01*
X8422143Y-7853667D01*
X8431667Y-7863190D01*
X8441190Y-7882238D01*
X8441190Y-7939381D01*
X8431667Y-7958428D01*
X8422143Y-7967952D01*
X8403095Y-7977476D01*
X8374524Y-7977476D01*
X8498333Y-7844143D02*
X8574524Y-7844143D01*
X8526905Y-7777476D02*
X8526905Y-7948905D01*
X8536429Y-7967952D01*
X8555476Y-7977476D01*
X8574524Y-7977476D01*
X8793571Y-7844143D02*
X8793571Y-8044143D01*
X8793571Y-7853667D02*
X8812619Y-7844143D01*
X8850714Y-7844143D01*
X8869762Y-7853667D01*
X8879286Y-7863190D01*
X8888810Y-7882238D01*
X8888810Y-7939381D01*
X8879286Y-7958428D01*
X8869762Y-7967952D01*
X8850714Y-7977476D01*
X8812619Y-7977476D01*
X8793571Y-7967952D01*
X9003095Y-7977476D02*
X8984048Y-7967952D01*
X8974524Y-7948905D01*
X8974524Y-7777476D01*
X9165000Y-7977476D02*
X9165000Y-7872714D01*
X9155476Y-7853667D01*
X9136429Y-7844143D01*
X9098333Y-7844143D01*
X9079286Y-7853667D01*
X9165000Y-7967952D02*
X9145952Y-7977476D01*
X9098333Y-7977476D01*
X9079286Y-7967952D01*
X9069762Y-7948905D01*
X9069762Y-7929857D01*
X9079286Y-7910809D01*
X9098333Y-7901286D01*
X9145952Y-7901286D01*
X9165000Y-7891762D01*
X9231667Y-7844143D02*
X9307857Y-7844143D01*
X9260238Y-7777476D02*
X9260238Y-7948905D01*
X9269762Y-7967952D01*
X9288810Y-7977476D01*
X9307857Y-7977476D01*
X9450714Y-7967952D02*
X9431667Y-7977476D01*
X9393571Y-7977476D01*
X9374524Y-7967952D01*
X9365000Y-7948905D01*
X9365000Y-7872714D01*
X9374524Y-7853667D01*
X9393571Y-7844143D01*
X9431667Y-7844143D01*
X9450714Y-7853667D01*
X9460238Y-7872714D01*
X9460238Y-7891762D01*
X9365000Y-7910809D01*
X9631667Y-7977476D02*
X9631667Y-7777476D01*
X9631667Y-7967952D02*
X9612619Y-7977476D01*
X9574524Y-7977476D01*
X9555476Y-7967952D01*
X9545952Y-7958428D01*
X9536429Y-7939381D01*
X9536429Y-7882238D01*
X9545952Y-7863190D01*
X9555476Y-7853667D01*
X9574524Y-7844143D01*
X9612619Y-7844143D01*
X9631667Y-7853667D01*
X9707857Y-8053667D02*
X9717381Y-8044143D01*
X9736429Y-8015571D01*
X9745952Y-7996524D01*
X9755476Y-7967952D01*
X9765000Y-7920333D01*
X9765000Y-7882238D01*
X9755476Y-7834619D01*
X9745952Y-7806048D01*
X9736429Y-7787000D01*
X9717381Y-7758428D01*
X9707857Y-7748905D01*
X2755000Y-8107000D02*
X2955000Y-8307000D01*
X2955000Y-8107000D02*
X2755000Y-8307000D01*
X2955000Y-8207000D02*
G75*
G03*
X2955000Y-8207000I-100000J0D01*
G01*
X3203095Y-8116524D02*
X3212619Y-8107000D01*
X3231667Y-8097476D01*
X3279286Y-8097476D01*
X3298333Y-8107000D01*
X3307857Y-8116524D01*
X3317381Y-8135571D01*
X3317381Y-8154619D01*
X3307857Y-8183190D01*
X3193571Y-8297476D01*
X3317381Y-8297476D01*
X3403095Y-8278428D02*
X3412619Y-8287952D01*
X3403095Y-8297476D01*
X3393571Y-8287952D01*
X3403095Y-8278428D01*
X3403095Y-8297476D01*
X3584048Y-8164143D02*
X3584048Y-8297476D01*
X3536428Y-8087952D02*
X3488809Y-8230809D01*
X3612619Y-8230809D01*
X3726905Y-8097476D02*
X3745952Y-8097476D01*
X3765000Y-8107000D01*
X3774524Y-8116524D01*
X3784048Y-8135571D01*
X3793571Y-8173667D01*
X3793571Y-8221286D01*
X3784048Y-8259381D01*
X3774524Y-8278428D01*
X3765000Y-8287952D01*
X3745952Y-8297476D01*
X3726905Y-8297476D01*
X3707857Y-8287952D01*
X3698333Y-8278428D01*
X3688809Y-8259381D01*
X3679286Y-8221286D01*
X3679286Y-8173667D01*
X3688809Y-8135571D01*
X3698333Y-8116524D01*
X3707857Y-8107000D01*
X3726905Y-8097476D01*
X3917381Y-8097476D02*
X3936428Y-8097476D01*
X3955476Y-8107000D01*
X3965000Y-8116524D01*
X3974524Y-8135571D01*
X3984048Y-8173667D01*
X3984048Y-8221286D01*
X3974524Y-8259381D01*
X3965000Y-8278428D01*
X3955476Y-8287952D01*
X3936428Y-8297476D01*
X3917381Y-8297476D01*
X3898333Y-8287952D01*
X3888809Y-8278428D01*
X3879286Y-8259381D01*
X3869762Y-8221286D01*
X3869762Y-8173667D01*
X3879286Y-8135571D01*
X3888809Y-8116524D01*
X3898333Y-8107000D01*
X3917381Y-8097476D01*
X4069762Y-8297476D02*
X4069762Y-8164143D01*
X4069762Y-8183190D02*
X4079286Y-8173667D01*
X4098333Y-8164143D01*
X4126905Y-8164143D01*
X4145952Y-8173667D01*
X4155476Y-8192714D01*
X4155476Y-8297476D01*
X4155476Y-8192714D02*
X4165000Y-8173667D01*
X4184048Y-8164143D01*
X4212619Y-8164143D01*
X4231667Y-8173667D01*
X4241190Y-8192714D01*
X4241190Y-8297476D01*
X4336429Y-8297476D02*
X4336429Y-8164143D01*
X4336429Y-8183190D02*
X4345952Y-8173667D01*
X4365000Y-8164143D01*
X4393571Y-8164143D01*
X4412619Y-8173667D01*
X4422143Y-8192714D01*
X4422143Y-8297476D01*
X4422143Y-8192714D02*
X4431667Y-8173667D01*
X4450714Y-8164143D01*
X4479286Y-8164143D01*
X4498333Y-8173667D01*
X4507857Y-8192714D01*
X4507857Y-8297476D01*
X4898333Y-8087952D02*
X4726905Y-8345095D01*
X5155476Y-8097476D02*
X5174524Y-8097476D01*
X5193571Y-8107000D01*
X5203095Y-8116524D01*
X5212619Y-8135571D01*
X5222143Y-8173667D01*
X5222143Y-8221286D01*
X5212619Y-8259381D01*
X5203095Y-8278428D01*
X5193571Y-8287952D01*
X5174524Y-8297476D01*
X5155476Y-8297476D01*
X5136429Y-8287952D01*
X5126905Y-8278428D01*
X5117381Y-8259381D01*
X5107857Y-8221286D01*
X5107857Y-8173667D01*
X5117381Y-8135571D01*
X5126905Y-8116524D01*
X5136429Y-8107000D01*
X5155476Y-8097476D01*
X5307857Y-8278428D02*
X5317381Y-8287952D01*
X5307857Y-8297476D01*
X5298333Y-8287952D01*
X5307857Y-8278428D01*
X5307857Y-8297476D01*
X5441190Y-8097476D02*
X5460238Y-8097476D01*
X5479286Y-8107000D01*
X5488810Y-8116524D01*
X5498333Y-8135571D01*
X5507857Y-8173667D01*
X5507857Y-8221286D01*
X5498333Y-8259381D01*
X5488810Y-8278428D01*
X5479286Y-8287952D01*
X5460238Y-8297476D01*
X5441190Y-8297476D01*
X5422143Y-8287952D01*
X5412619Y-8278428D01*
X5403095Y-8259381D01*
X5393571Y-8221286D01*
X5393571Y-8173667D01*
X5403095Y-8135571D01*
X5412619Y-8116524D01*
X5422143Y-8107000D01*
X5441190Y-8097476D01*
X5603095Y-8297476D02*
X5641190Y-8297476D01*
X5660238Y-8287952D01*
X5669762Y-8278428D01*
X5688809Y-8249857D01*
X5698333Y-8211762D01*
X5698333Y-8135571D01*
X5688809Y-8116524D01*
X5679286Y-8107000D01*
X5660238Y-8097476D01*
X5622143Y-8097476D01*
X5603095Y-8107000D01*
X5593571Y-8116524D01*
X5584048Y-8135571D01*
X5584048Y-8183190D01*
X5593571Y-8202238D01*
X5603095Y-8211762D01*
X5622143Y-8221286D01*
X5660238Y-8221286D01*
X5679286Y-8211762D01*
X5688809Y-8202238D01*
X5698333Y-8183190D01*
X5869762Y-8164143D02*
X5869762Y-8297476D01*
X5822143Y-8087952D02*
X5774524Y-8230809D01*
X5898333Y-8230809D01*
X6069762Y-8097476D02*
X5974524Y-8097476D01*
X5965000Y-8192714D01*
X5974524Y-8183190D01*
X5993571Y-8173667D01*
X6041190Y-8173667D01*
X6060238Y-8183190D01*
X6069762Y-8192714D01*
X6079286Y-8211762D01*
X6079286Y-8259381D01*
X6069762Y-8278428D01*
X6060238Y-8287952D01*
X6041190Y-8297476D01*
X5993571Y-8297476D01*
X5974524Y-8287952D01*
X5965000Y-8278428D01*
X6155476Y-8097476D02*
X6155476Y-8135571D01*
X6231667Y-8097476D02*
X6231667Y-8135571D01*
X6526905Y-8373667D02*
X6517381Y-8364143D01*
X6498333Y-8335571D01*
X6488809Y-8316524D01*
X6479286Y-8287952D01*
X6469762Y-8240333D01*
X6469762Y-8202238D01*
X6479286Y-8154619D01*
X6488809Y-8126048D01*
X6498333Y-8107000D01*
X6517381Y-8078428D01*
X6526905Y-8068905D01*
X6593571Y-8116524D02*
X6603095Y-8107000D01*
X6622143Y-8097476D01*
X6669762Y-8097476D01*
X6688809Y-8107000D01*
X6698333Y-8116524D01*
X6707857Y-8135571D01*
X6707857Y-8154619D01*
X6698333Y-8183190D01*
X6584048Y-8297476D01*
X6707857Y-8297476D01*
X6945952Y-8297476D02*
X6945952Y-8097476D01*
X7031667Y-8297476D02*
X7031667Y-8192714D01*
X7022143Y-8173667D01*
X7003095Y-8164143D01*
X6974524Y-8164143D01*
X6955476Y-8173667D01*
X6945952Y-8183190D01*
X7155476Y-8297476D02*
X7136428Y-8287952D01*
X7126905Y-8278428D01*
X7117381Y-8259381D01*
X7117381Y-8202238D01*
X7126905Y-8183190D01*
X7136428Y-8173667D01*
X7155476Y-8164143D01*
X7184048Y-8164143D01*
X7203095Y-8173667D01*
X7212619Y-8183190D01*
X7222143Y-8202238D01*
X7222143Y-8259381D01*
X7212619Y-8278428D01*
X7203095Y-8287952D01*
X7184048Y-8297476D01*
X7155476Y-8297476D01*
X7336428Y-8297476D02*
X7317381Y-8287952D01*
X7307857Y-8268905D01*
X7307857Y-8097476D01*
X7488809Y-8287952D02*
X7469762Y-8297476D01*
X7431667Y-8297476D01*
X7412619Y-8287952D01*
X7403095Y-8268905D01*
X7403095Y-8192714D01*
X7412619Y-8173667D01*
X7431667Y-8164143D01*
X7469762Y-8164143D01*
X7488809Y-8173667D01*
X7498333Y-8192714D01*
X7498333Y-8211762D01*
X7403095Y-8230809D01*
X7574524Y-8287952D02*
X7593571Y-8297476D01*
X7631667Y-8297476D01*
X7650714Y-8287952D01*
X7660238Y-8268905D01*
X7660238Y-8259381D01*
X7650714Y-8240333D01*
X7631667Y-8230809D01*
X7603095Y-8230809D01*
X7584048Y-8221286D01*
X7574524Y-8202238D01*
X7574524Y-8192714D01*
X7584048Y-8173667D01*
X7603095Y-8164143D01*
X7631667Y-8164143D01*
X7650714Y-8173667D01*
X7726905Y-8373667D02*
X7736428Y-8364143D01*
X7755476Y-8335571D01*
X7765000Y-8316524D01*
X7774524Y-8287952D01*
X7784048Y-8240333D01*
X7784048Y-8202238D01*
X7774524Y-8154619D01*
X7765000Y-8126048D01*
X7755476Y-8107000D01*
X7736428Y-8078428D01*
X7726905Y-8068905D01*
X8088809Y-8373667D02*
X8079286Y-8364143D01*
X8060238Y-8335571D01*
X8050714Y-8316524D01*
X8041190Y-8287952D01*
X8031667Y-8240333D01*
X8031667Y-8202238D01*
X8041190Y-8154619D01*
X8050714Y-8126048D01*
X8060238Y-8107000D01*
X8079286Y-8078428D01*
X8088809Y-8068905D01*
X8165000Y-8164143D02*
X8165000Y-8297476D01*
X8165000Y-8183190D02*
X8174524Y-8173667D01*
X8193571Y-8164143D01*
X8222143Y-8164143D01*
X8241190Y-8173667D01*
X8250714Y-8192714D01*
X8250714Y-8297476D01*
X8374524Y-8297476D02*
X8355476Y-8287952D01*
X8345952Y-8278428D01*
X8336428Y-8259381D01*
X8336428Y-8202238D01*
X8345952Y-8183190D01*
X8355476Y-8173667D01*
X8374524Y-8164143D01*
X8403095Y-8164143D01*
X8422143Y-8173667D01*
X8431667Y-8183190D01*
X8441190Y-8202238D01*
X8441190Y-8259381D01*
X8431667Y-8278428D01*
X8422143Y-8287952D01*
X8403095Y-8297476D01*
X8374524Y-8297476D01*
X8498333Y-8164143D02*
X8574524Y-8164143D01*
X8526905Y-8097476D02*
X8526905Y-8268905D01*
X8536429Y-8287952D01*
X8555476Y-8297476D01*
X8574524Y-8297476D01*
X8793571Y-8164143D02*
X8793571Y-8364143D01*
X8793571Y-8173667D02*
X8812619Y-8164143D01*
X8850714Y-8164143D01*
X8869762Y-8173667D01*
X8879286Y-8183190D01*
X8888810Y-8202238D01*
X8888810Y-8259381D01*
X8879286Y-8278428D01*
X8869762Y-8287952D01*
X8850714Y-8297476D01*
X8812619Y-8297476D01*
X8793571Y-8287952D01*
X9003095Y-8297476D02*
X8984048Y-8287952D01*
X8974524Y-8268905D01*
X8974524Y-8097476D01*
X9165000Y-8297476D02*
X9165000Y-8192714D01*
X9155476Y-8173667D01*
X9136429Y-8164143D01*
X9098333Y-8164143D01*
X9079286Y-8173667D01*
X9165000Y-8287952D02*
X9145952Y-8297476D01*
X9098333Y-8297476D01*
X9079286Y-8287952D01*
X9069762Y-8268905D01*
X9069762Y-8249857D01*
X9079286Y-8230809D01*
X9098333Y-8221286D01*
X9145952Y-8221286D01*
X9165000Y-8211762D01*
X9231667Y-8164143D02*
X9307857Y-8164143D01*
X9260238Y-8097476D02*
X9260238Y-8268905D01*
X9269762Y-8287952D01*
X9288810Y-8297476D01*
X9307857Y-8297476D01*
X9450714Y-8287952D02*
X9431667Y-8297476D01*
X9393571Y-8297476D01*
X9374524Y-8287952D01*
X9365000Y-8268905D01*
X9365000Y-8192714D01*
X9374524Y-8173667D01*
X9393571Y-8164143D01*
X9431667Y-8164143D01*
X9450714Y-8173667D01*
X9460238Y-8192714D01*
X9460238Y-8211762D01*
X9365000Y-8230809D01*
X9631667Y-8297476D02*
X9631667Y-8097476D01*
X9631667Y-8287952D02*
X9612619Y-8297476D01*
X9574524Y-8297476D01*
X9555476Y-8287952D01*
X9545952Y-8278428D01*
X9536429Y-8259381D01*
X9536429Y-8202238D01*
X9545952Y-8183190D01*
X9555476Y-8173667D01*
X9574524Y-8164143D01*
X9612619Y-8164143D01*
X9631667Y-8173667D01*
X9707857Y-8373667D02*
X9717381Y-8364143D01*
X9736429Y-8335571D01*
X9745952Y-8316524D01*
X9755476Y-8287952D01*
X9765000Y-8240333D01*
X9765000Y-8202238D01*
X9755476Y-8154619D01*
X9745952Y-8126048D01*
X9736429Y-8107000D01*
X9717381Y-8078428D01*
X9707857Y-8068905D01*
X2755000Y-8427000D02*
X2955000Y-8627000D01*
X2955000Y-8427000D02*
X2755000Y-8627000D01*
X2855000Y-8427000D02*
X2855000Y-8627000D01*
X2755000Y-8527000D02*
X2955000Y-8527000D01*
X3193571Y-8417476D02*
X3317381Y-8417476D01*
X3250714Y-8493667D01*
X3279286Y-8493667D01*
X3298333Y-8503190D01*
X3307857Y-8512714D01*
X3317381Y-8531762D01*
X3317381Y-8579381D01*
X3307857Y-8598429D01*
X3298333Y-8607952D01*
X3279286Y-8617476D01*
X3222143Y-8617476D01*
X3203095Y-8607952D01*
X3193571Y-8598429D01*
X3403095Y-8598429D02*
X3412619Y-8607952D01*
X3403095Y-8617476D01*
X3393571Y-8607952D01*
X3403095Y-8598429D01*
X3403095Y-8617476D01*
X3488809Y-8436524D02*
X3498333Y-8427000D01*
X3517381Y-8417476D01*
X3565000Y-8417476D01*
X3584048Y-8427000D01*
X3593571Y-8436524D01*
X3603095Y-8455571D01*
X3603095Y-8474619D01*
X3593571Y-8503190D01*
X3479286Y-8617476D01*
X3603095Y-8617476D01*
X3726905Y-8417476D02*
X3745952Y-8417476D01*
X3765000Y-8427000D01*
X3774524Y-8436524D01*
X3784048Y-8455571D01*
X3793571Y-8493667D01*
X3793571Y-8541286D01*
X3784048Y-8579381D01*
X3774524Y-8598429D01*
X3765000Y-8607952D01*
X3745952Y-8617476D01*
X3726905Y-8617476D01*
X3707857Y-8607952D01*
X3698333Y-8598429D01*
X3688809Y-8579381D01*
X3679286Y-8541286D01*
X3679286Y-8493667D01*
X3688809Y-8455571D01*
X3698333Y-8436524D01*
X3707857Y-8427000D01*
X3726905Y-8417476D01*
X3917381Y-8417476D02*
X3936428Y-8417476D01*
X3955476Y-8427000D01*
X3965000Y-8436524D01*
X3974524Y-8455571D01*
X3984048Y-8493667D01*
X3984048Y-8541286D01*
X3974524Y-8579381D01*
X3965000Y-8598429D01*
X3955476Y-8607952D01*
X3936428Y-8617476D01*
X3917381Y-8617476D01*
X3898333Y-8607952D01*
X3888809Y-8598429D01*
X3879286Y-8579381D01*
X3869762Y-8541286D01*
X3869762Y-8493667D01*
X3879286Y-8455571D01*
X3888809Y-8436524D01*
X3898333Y-8427000D01*
X3917381Y-8417476D01*
X4069762Y-8617476D02*
X4069762Y-8484143D01*
X4069762Y-8503190D02*
X4079286Y-8493667D01*
X4098333Y-8484143D01*
X4126905Y-8484143D01*
X4145952Y-8493667D01*
X4155476Y-8512714D01*
X4155476Y-8617476D01*
X4155476Y-8512714D02*
X4165000Y-8493667D01*
X4184048Y-8484143D01*
X4212619Y-8484143D01*
X4231667Y-8493667D01*
X4241190Y-8512714D01*
X4241190Y-8617476D01*
X4336429Y-8617476D02*
X4336429Y-8484143D01*
X4336429Y-8503190D02*
X4345952Y-8493667D01*
X4365000Y-8484143D01*
X4393571Y-8484143D01*
X4412619Y-8493667D01*
X4422143Y-8512714D01*
X4422143Y-8617476D01*
X4422143Y-8512714D02*
X4431667Y-8493667D01*
X4450714Y-8484143D01*
X4479286Y-8484143D01*
X4498333Y-8493667D01*
X4507857Y-8512714D01*
X4507857Y-8617476D01*
X4898333Y-8407952D02*
X4726905Y-8665095D01*
X5155476Y-8417476D02*
X5174524Y-8417476D01*
X5193571Y-8427000D01*
X5203095Y-8436524D01*
X5212619Y-8455571D01*
X5222143Y-8493667D01*
X5222143Y-8541286D01*
X5212619Y-8579381D01*
X5203095Y-8598429D01*
X5193571Y-8607952D01*
X5174524Y-8617476D01*
X5155476Y-8617476D01*
X5136429Y-8607952D01*
X5126905Y-8598429D01*
X5117381Y-8579381D01*
X5107857Y-8541286D01*
X5107857Y-8493667D01*
X5117381Y-8455571D01*
X5126905Y-8436524D01*
X5136429Y-8427000D01*
X5155476Y-8417476D01*
X5307857Y-8598429D02*
X5317381Y-8607952D01*
X5307857Y-8617476D01*
X5298333Y-8607952D01*
X5307857Y-8598429D01*
X5307857Y-8617476D01*
X5507857Y-8617476D02*
X5393571Y-8617476D01*
X5450714Y-8617476D02*
X5450714Y-8417476D01*
X5431667Y-8446048D01*
X5412619Y-8465095D01*
X5393571Y-8474619D01*
X5584048Y-8436524D02*
X5593571Y-8427000D01*
X5612619Y-8417476D01*
X5660238Y-8417476D01*
X5679286Y-8427000D01*
X5688809Y-8436524D01*
X5698333Y-8455571D01*
X5698333Y-8474619D01*
X5688809Y-8503190D01*
X5574524Y-8617476D01*
X5698333Y-8617476D01*
X5869762Y-8417476D02*
X5831667Y-8417476D01*
X5812619Y-8427000D01*
X5803095Y-8436524D01*
X5784048Y-8465095D01*
X5774524Y-8503190D01*
X5774524Y-8579381D01*
X5784048Y-8598429D01*
X5793571Y-8607952D01*
X5812619Y-8617476D01*
X5850714Y-8617476D01*
X5869762Y-8607952D01*
X5879286Y-8598429D01*
X5888809Y-8579381D01*
X5888809Y-8531762D01*
X5879286Y-8512714D01*
X5869762Y-8503190D01*
X5850714Y-8493667D01*
X5812619Y-8493667D01*
X5793571Y-8503190D01*
X5784048Y-8512714D01*
X5774524Y-8531762D01*
X6012619Y-8417476D02*
X6031667Y-8417476D01*
X6050714Y-8427000D01*
X6060238Y-8436524D01*
X6069762Y-8455571D01*
X6079286Y-8493667D01*
X6079286Y-8541286D01*
X6069762Y-8579381D01*
X6060238Y-8598429D01*
X6050714Y-8607952D01*
X6031667Y-8617476D01*
X6012619Y-8617476D01*
X5993571Y-8607952D01*
X5984048Y-8598429D01*
X5974524Y-8579381D01*
X5965000Y-8541286D01*
X5965000Y-8493667D01*
X5974524Y-8455571D01*
X5984048Y-8436524D01*
X5993571Y-8427000D01*
X6012619Y-8417476D01*
X6155476Y-8417476D02*
X6155476Y-8455571D01*
X6231667Y-8417476D02*
X6231667Y-8455571D01*
X6526905Y-8693667D02*
X6517381Y-8684143D01*
X6498333Y-8655571D01*
X6488809Y-8636524D01*
X6479286Y-8607952D01*
X6469762Y-8560333D01*
X6469762Y-8522238D01*
X6479286Y-8474619D01*
X6488809Y-8446048D01*
X6498333Y-8427000D01*
X6517381Y-8398429D01*
X6526905Y-8388905D01*
X6688809Y-8484143D02*
X6688809Y-8617476D01*
X6641190Y-8407952D02*
X6593571Y-8550810D01*
X6717381Y-8550810D01*
X6945952Y-8617476D02*
X6945952Y-8417476D01*
X7031667Y-8617476D02*
X7031667Y-8512714D01*
X7022143Y-8493667D01*
X7003095Y-8484143D01*
X6974524Y-8484143D01*
X6955476Y-8493667D01*
X6945952Y-8503190D01*
X7155476Y-8617476D02*
X7136428Y-8607952D01*
X7126905Y-8598429D01*
X7117381Y-8579381D01*
X7117381Y-8522238D01*
X7126905Y-8503190D01*
X7136428Y-8493667D01*
X7155476Y-8484143D01*
X7184048Y-8484143D01*
X7203095Y-8493667D01*
X7212619Y-8503190D01*
X7222143Y-8522238D01*
X7222143Y-8579381D01*
X7212619Y-8598429D01*
X7203095Y-8607952D01*
X7184048Y-8617476D01*
X7155476Y-8617476D01*
X7336428Y-8617476D02*
X7317381Y-8607952D01*
X7307857Y-8588905D01*
X7307857Y-8417476D01*
X7488809Y-8607952D02*
X7469762Y-8617476D01*
X7431667Y-8617476D01*
X7412619Y-8607952D01*
X7403095Y-8588905D01*
X7403095Y-8512714D01*
X7412619Y-8493667D01*
X7431667Y-8484143D01*
X7469762Y-8484143D01*
X7488809Y-8493667D01*
X7498333Y-8512714D01*
X7498333Y-8531762D01*
X7403095Y-8550810D01*
X7574524Y-8607952D02*
X7593571Y-8617476D01*
X7631667Y-8617476D01*
X7650714Y-8607952D01*
X7660238Y-8588905D01*
X7660238Y-8579381D01*
X7650714Y-8560333D01*
X7631667Y-8550810D01*
X7603095Y-8550810D01*
X7584048Y-8541286D01*
X7574524Y-8522238D01*
X7574524Y-8512714D01*
X7584048Y-8493667D01*
X7603095Y-8484143D01*
X7631667Y-8484143D01*
X7650714Y-8493667D01*
X7726905Y-8693667D02*
X7736428Y-8684143D01*
X7755476Y-8655571D01*
X7765000Y-8636524D01*
X7774524Y-8607952D01*
X7784048Y-8560333D01*
X7784048Y-8522238D01*
X7774524Y-8474619D01*
X7765000Y-8446048D01*
X7755476Y-8427000D01*
X7736428Y-8398429D01*
X7726905Y-8388905D01*
X8088809Y-8693667D02*
X8079286Y-8684143D01*
X8060238Y-8655571D01*
X8050714Y-8636524D01*
X8041190Y-8607952D01*
X8031667Y-8560333D01*
X8031667Y-8522238D01*
X8041190Y-8474619D01*
X8050714Y-8446048D01*
X8060238Y-8427000D01*
X8079286Y-8398429D01*
X8088809Y-8388905D01*
X8165000Y-8484143D02*
X8165000Y-8617476D01*
X8165000Y-8503190D02*
X8174524Y-8493667D01*
X8193571Y-8484143D01*
X8222143Y-8484143D01*
X8241190Y-8493667D01*
X8250714Y-8512714D01*
X8250714Y-8617476D01*
X8374524Y-8617476D02*
X8355476Y-8607952D01*
X8345952Y-8598429D01*
X8336428Y-8579381D01*
X8336428Y-8522238D01*
X8345952Y-8503190D01*
X8355476Y-8493667D01*
X8374524Y-8484143D01*
X8403095Y-8484143D01*
X8422143Y-8493667D01*
X8431667Y-8503190D01*
X8441190Y-8522238D01*
X8441190Y-8579381D01*
X8431667Y-8598429D01*
X8422143Y-8607952D01*
X8403095Y-8617476D01*
X8374524Y-8617476D01*
X8498333Y-8484143D02*
X8574524Y-8484143D01*
X8526905Y-8417476D02*
X8526905Y-8588905D01*
X8536429Y-8607952D01*
X8555476Y-8617476D01*
X8574524Y-8617476D01*
X8793571Y-8484143D02*
X8793571Y-8684143D01*
X8793571Y-8493667D02*
X8812619Y-8484143D01*
X8850714Y-8484143D01*
X8869762Y-8493667D01*
X8879286Y-8503190D01*
X8888810Y-8522238D01*
X8888810Y-8579381D01*
X8879286Y-8598429D01*
X8869762Y-8607952D01*
X8850714Y-8617476D01*
X8812619Y-8617476D01*
X8793571Y-8607952D01*
X9003095Y-8617476D02*
X8984048Y-8607952D01*
X8974524Y-8588905D01*
X8974524Y-8417476D01*
X9165000Y-8617476D02*
X9165000Y-8512714D01*
X9155476Y-8493667D01*
X9136429Y-8484143D01*
X9098333Y-8484143D01*
X9079286Y-8493667D01*
X9165000Y-8607952D02*
X9145952Y-8617476D01*
X9098333Y-8617476D01*
X9079286Y-8607952D01*
X9069762Y-8588905D01*
X9069762Y-8569857D01*
X9079286Y-8550810D01*
X9098333Y-8541286D01*
X9145952Y-8541286D01*
X9165000Y-8531762D01*
X9231667Y-8484143D02*
X9307857Y-8484143D01*
X9260238Y-8417476D02*
X9260238Y-8588905D01*
X9269762Y-8607952D01*
X9288810Y-8617476D01*
X9307857Y-8617476D01*
X9450714Y-8607952D02*
X9431667Y-8617476D01*
X9393571Y-8617476D01*
X9374524Y-8607952D01*
X9365000Y-8588905D01*
X9365000Y-8512714D01*
X9374524Y-8493667D01*
X9393571Y-8484143D01*
X9431667Y-8484143D01*
X9450714Y-8493667D01*
X9460238Y-8512714D01*
X9460238Y-8531762D01*
X9365000Y-8550810D01*
X9631667Y-8617476D02*
X9631667Y-8417476D01*
X9631667Y-8607952D02*
X9612619Y-8617476D01*
X9574524Y-8617476D01*
X9555476Y-8607952D01*
X9545952Y-8598429D01*
X9536429Y-8579381D01*
X9536429Y-8522238D01*
X9545952Y-8503190D01*
X9555476Y-8493667D01*
X9574524Y-8484143D01*
X9612619Y-8484143D01*
X9631667Y-8493667D01*
X9707857Y-8693667D02*
X9717381Y-8684143D01*
X9736429Y-8655571D01*
X9745952Y-8636524D01*
X9755476Y-8607952D01*
X9765000Y-8560333D01*
X9765000Y-8522238D01*
X9755476Y-8474619D01*
X9745952Y-8446048D01*
X9736429Y-8427000D01*
X9717381Y-8398429D01*
X9707857Y-8388905D01*
M02*
