G04 #@! TF.GenerationSoftware,KiCad,Pcbnew,5.1.5*
G04 #@! TF.CreationDate,2020-01-17T21:00:46+03:00*
G04 #@! TF.ProjectId,chrono,6368726f-6e6f-42e6-9b69-6361645f7063,rev?*
G04 #@! TF.SameCoordinates,Original*
G04 #@! TF.FileFunction,Copper,L2,Bot*
G04 #@! TF.FilePolarity,Positive*
%FSLAX46Y46*%
G04 Gerber Fmt 4.6, Leading zero omitted, Abs format (unit mm)*
G04 Created by KiCad (PCBNEW 5.1.5) date 2020-01-17 21:00:46*
%MOMM*%
%LPD*%
G04 APERTURE LIST*
%ADD10C,0.050000*%
%ADD11C,0.100000*%
%ADD12O,1.700000X1.700000*%
%ADD13R,1.700000X1.700000*%
%ADD14C,2.600000*%
%ADD15R,2.600000X2.600000*%
%ADD16C,1.700000*%
%ADD17C,3.500000*%
%ADD18R,1.800000X1.800000*%
%ADD19O,1.800000X1.800000*%
%ADD20C,1.500000*%
%ADD21R,2.000000X2.000000*%
%ADD22C,2.000000*%
%ADD23R,1.600000X1.600000*%
%ADD24C,1.600000*%
%ADD25C,1.800000*%
%ADD26C,0.100000*%
%ADD27O,1.750000X1.200000*%
%ADD28O,1.600000X1.600000*%
%ADD29C,0.800000*%
%ADD30C,1.200000*%
%ADD31C,0.300000*%
%ADD32C,0.500000*%
%ADD33C,0.254000*%
G04 APERTURE END LIST*
D10*
X30000000Y-74000000D02*
X30000000Y-133500000D01*
X127500000Y-133500000D02*
X30000000Y-133500000D01*
X127500000Y-74000000D02*
X127500000Y-133500000D01*
X30000000Y-74000000D02*
X127500000Y-74000000D01*
D11*
X41846500Y-96227000D03*
D12*
X61658500Y-93980000D03*
D13*
X64198500Y-93980000D03*
X64198500Y-90233500D03*
D12*
X61658500Y-90233500D03*
X61658500Y-101473000D03*
D13*
X64198500Y-101473000D03*
X64198500Y-97726500D03*
D12*
X61658500Y-97726500D03*
D13*
X99250500Y-111823500D03*
D12*
X101790500Y-111823500D03*
X104330500Y-111823500D03*
X106870500Y-111823500D03*
D14*
X94428000Y-128000000D03*
D15*
X99508000Y-128000000D03*
X45656500Y-128016000D03*
D14*
X40576500Y-128016000D03*
D13*
X119888000Y-98615500D03*
D16*
X119888000Y-96115500D03*
X121888000Y-96115500D03*
X121888000Y-98615500D03*
D17*
X124598000Y-103385500D03*
X124598000Y-91345500D03*
D18*
X122364500Y-126301500D03*
D19*
X118664500Y-124601500D03*
X122364500Y-122901500D03*
X118664500Y-121201500D03*
X122364500Y-119501500D03*
D20*
X79311500Y-96329500D03*
X79311500Y-101209500D03*
D13*
X93726000Y-108331000D03*
D12*
X91186000Y-108331000D03*
X88646000Y-108331000D03*
X86106000Y-108331000D03*
X83566000Y-108331000D03*
D13*
X95948500Y-86868000D03*
D12*
X93408500Y-86868000D03*
X90868500Y-86868000D03*
X88328500Y-86868000D03*
D21*
X62738000Y-80454500D03*
D22*
X70338000Y-80454500D03*
D23*
X123063000Y-110871000D03*
D24*
X119563000Y-110871000D03*
D25*
X80264000Y-77343000D03*
D18*
X77724000Y-77343000D03*
X84455000Y-77343000D03*
D25*
X86995000Y-77343000D03*
G04 #@! TA.AperFunction,ComponentPad*
D26*
G36*
X70245505Y-99223204D02*
G01*
X70269773Y-99226804D01*
X70293572Y-99232765D01*
X70316671Y-99241030D01*
X70338850Y-99251520D01*
X70359893Y-99264132D01*
X70379599Y-99278747D01*
X70397777Y-99295223D01*
X70414253Y-99313401D01*
X70428868Y-99333107D01*
X70441480Y-99354150D01*
X70451970Y-99376329D01*
X70460235Y-99399428D01*
X70466196Y-99423227D01*
X70469796Y-99447495D01*
X70471000Y-99471999D01*
X70471000Y-100172001D01*
X70469796Y-100196505D01*
X70466196Y-100220773D01*
X70460235Y-100244572D01*
X70451970Y-100267671D01*
X70441480Y-100289850D01*
X70428868Y-100310893D01*
X70414253Y-100330599D01*
X70397777Y-100348777D01*
X70379599Y-100365253D01*
X70359893Y-100379868D01*
X70338850Y-100392480D01*
X70316671Y-100402970D01*
X70293572Y-100411235D01*
X70269773Y-100417196D01*
X70245505Y-100420796D01*
X70221001Y-100422000D01*
X68970999Y-100422000D01*
X68946495Y-100420796D01*
X68922227Y-100417196D01*
X68898428Y-100411235D01*
X68875329Y-100402970D01*
X68853150Y-100392480D01*
X68832107Y-100379868D01*
X68812401Y-100365253D01*
X68794223Y-100348777D01*
X68777747Y-100330599D01*
X68763132Y-100310893D01*
X68750520Y-100289850D01*
X68740030Y-100267671D01*
X68731765Y-100244572D01*
X68725804Y-100220773D01*
X68722204Y-100196505D01*
X68721000Y-100172001D01*
X68721000Y-99471999D01*
X68722204Y-99447495D01*
X68725804Y-99423227D01*
X68731765Y-99399428D01*
X68740030Y-99376329D01*
X68750520Y-99354150D01*
X68763132Y-99333107D01*
X68777747Y-99313401D01*
X68794223Y-99295223D01*
X68812401Y-99278747D01*
X68832107Y-99264132D01*
X68853150Y-99251520D01*
X68875329Y-99241030D01*
X68898428Y-99232765D01*
X68922227Y-99226804D01*
X68946495Y-99223204D01*
X68970999Y-99222000D01*
X70221001Y-99222000D01*
X70245505Y-99223204D01*
G37*
G04 #@! TD.AperFunction*
D27*
X69596000Y-97822000D03*
X69596000Y-95822000D03*
X69596000Y-93822000D03*
X69596000Y-91822000D03*
D13*
X38481000Y-76009500D03*
D12*
X41021000Y-76009500D03*
D14*
X57975500Y-128016000D03*
D15*
X63055500Y-128016000D03*
X81216500Y-128016000D03*
D14*
X76136500Y-128016000D03*
D13*
X100711000Y-106299000D03*
D12*
X103251000Y-106299000D03*
X105791000Y-106299000D03*
X108331000Y-106299000D03*
X110871000Y-106299000D03*
X113411000Y-106299000D03*
D13*
X97282000Y-90424000D03*
D12*
X99822000Y-90424000D03*
X102362000Y-90424000D03*
X104902000Y-90424000D03*
D23*
X58610500Y-113474500D03*
D28*
X66230500Y-118554500D03*
X58610500Y-116014500D03*
X66230500Y-116014500D03*
X58610500Y-118554500D03*
X66230500Y-113474500D03*
D23*
X61150500Y-116014500D03*
D28*
X68770500Y-118554500D03*
X61150500Y-118554500D03*
X68770500Y-116014500D03*
D29*
X100584000Y-93091000D03*
X104775000Y-97790000D03*
X98000000Y-105000000D03*
X80500000Y-86000000D03*
X76500000Y-83500000D03*
D30*
X117729000Y-76835000D03*
D29*
X78041500Y-106426000D03*
X45402500Y-84582000D03*
D30*
X117284500Y-86804500D03*
X96329500Y-121285000D03*
D29*
X89471500Y-91313000D03*
X89471500Y-90043000D03*
X49911000Y-115570000D03*
X92117717Y-104280884D03*
X70358000Y-112395000D03*
X92456000Y-100774500D03*
X86487000Y-100584000D03*
X93789500Y-96075500D03*
X78105000Y-108394500D03*
X86487000Y-101790500D03*
X82867500Y-102679500D03*
X76454000Y-88455500D03*
X78930500Y-88455500D03*
X113220500Y-98742500D03*
X112331500Y-96837500D03*
D31*
X104052001Y-91273999D02*
X104902000Y-90424000D01*
X102634999Y-92691001D02*
X104052001Y-91273999D01*
X100983999Y-92691001D02*
X102634999Y-92691001D01*
X100584000Y-93091000D02*
X100983999Y-92691001D01*
X98000000Y-105000000D02*
X98500000Y-105500000D01*
X98500000Y-105500000D02*
X98500000Y-107500000D01*
X98500000Y-107500000D02*
X100000000Y-109000000D01*
X100000000Y-109000000D02*
X104000000Y-109000000D01*
X104330500Y-109330500D02*
X104330500Y-111823500D01*
X104000000Y-109000000D02*
X104330500Y-109330500D01*
X80500000Y-86000000D02*
X78000000Y-83500000D01*
X78000000Y-83500000D02*
X76500000Y-83500000D01*
X78041500Y-106426000D02*
X58991500Y-106426000D01*
X58991500Y-106426000D02*
X45402500Y-92837000D01*
X45402500Y-92837000D02*
X45402500Y-84582000D01*
X106870500Y-113347500D02*
X106870500Y-111823500D01*
X105854500Y-114363500D02*
X106870500Y-113347500D01*
X83566000Y-109601000D02*
X88328500Y-114363500D01*
X88328500Y-114363500D02*
X105854500Y-114363500D01*
X83566000Y-108331000D02*
X83566000Y-109601000D01*
D32*
X117729000Y-86360000D02*
X117284500Y-86804500D01*
X117729000Y-76835000D02*
X117729000Y-86360000D01*
X117221000Y-86868000D02*
X117284500Y-86804500D01*
X95948500Y-86868000D02*
X117221000Y-86868000D01*
X97178028Y-121285000D02*
X99527528Y-123634500D01*
X96329500Y-121285000D02*
X97178028Y-121285000D01*
X99527528Y-123634500D02*
X111696500Y-123634500D01*
X114363500Y-126301500D02*
X122364500Y-126301500D01*
X111696500Y-123634500D02*
X114363500Y-126301500D01*
D31*
X89471500Y-91313000D02*
X88074500Y-91313000D01*
X83629500Y-86868000D02*
X83629500Y-80454500D01*
X88074500Y-91313000D02*
X83629500Y-86868000D01*
X83629500Y-80454500D02*
X82550000Y-79375000D01*
X82550000Y-79375000D02*
X78549500Y-79375000D01*
X77724000Y-78549500D02*
X77724000Y-77343000D01*
X78549500Y-79375000D02*
X77724000Y-78549500D01*
X89471500Y-90043000D02*
X88074500Y-90043000D01*
X84455000Y-86423500D02*
X84455000Y-77343000D01*
X88074500Y-90043000D02*
X84455000Y-86423500D01*
X87870116Y-104280884D02*
X92117717Y-104280884D01*
X85661500Y-106489500D02*
X87870116Y-104280884D01*
X52641500Y-115570000D02*
X57785000Y-120713500D01*
X57785000Y-120713500D02*
X75565000Y-120713500D01*
X82613500Y-106489500D02*
X85661500Y-106489500D01*
X49911000Y-115570000D02*
X52641500Y-115570000D01*
X78105000Y-118173500D02*
X78105000Y-110998000D01*
X75565000Y-120713500D02*
X78105000Y-118173500D01*
X78105000Y-110998000D02*
X82613500Y-106489500D01*
X77660500Y-110172500D02*
X72580500Y-110172500D01*
X82042000Y-105791000D02*
X77660500Y-110172500D01*
X85217000Y-105791000D02*
X82042000Y-105791000D01*
X72580500Y-110172500D02*
X70358000Y-112395000D01*
X90233500Y-100774500D02*
X85217000Y-105791000D01*
X92456000Y-100774500D02*
X90233500Y-100774500D01*
X65348500Y-90233500D02*
X66865500Y-91750500D01*
X64198500Y-90233500D02*
X65348500Y-90233500D01*
X66865500Y-91750500D02*
X66865500Y-92646500D01*
X68041000Y-93822000D02*
X69596000Y-93822000D01*
X66865500Y-92646500D02*
X68041000Y-93822000D01*
X71406500Y-93822000D02*
X69596000Y-93822000D01*
X77279500Y-99695000D02*
X71406500Y-93822000D01*
X80264000Y-99695000D02*
X77279500Y-99695000D01*
X81153000Y-100584000D02*
X80264000Y-99695000D01*
X86487000Y-100584000D02*
X81153000Y-100584000D01*
X93789500Y-96075500D02*
X84772500Y-105092500D01*
X81407000Y-105092500D02*
X78105000Y-108394500D01*
X83629500Y-105092500D02*
X81407000Y-105092500D01*
X84772500Y-105092500D02*
X83629500Y-105092500D01*
X84709000Y-103568500D02*
X86487000Y-101790500D01*
X78549500Y-103568500D02*
X84709000Y-103568500D01*
X69596000Y-97822000D02*
X72803000Y-97822000D01*
X72803000Y-97822000D02*
X78549500Y-103568500D01*
X69596000Y-95822000D02*
X71819000Y-95822000D01*
X71819000Y-95822000D02*
X78676500Y-102679500D01*
X78676500Y-102679500D02*
X82867500Y-102679500D01*
X76454000Y-88455500D02*
X78930500Y-88455500D01*
X117261000Y-98742500D02*
X119888000Y-96115500D01*
X113220500Y-98742500D02*
X117261000Y-98742500D01*
X121888000Y-94913419D02*
X121399081Y-94424500D01*
X121888000Y-96115500D02*
X121888000Y-94913419D01*
X116141500Y-96837500D02*
X118554500Y-94424500D01*
X112331500Y-96837500D02*
X116141500Y-96837500D01*
X121399081Y-94424500D02*
X118554500Y-94424500D01*
D33*
G36*
X37179815Y-74708315D02*
G01*
X37100463Y-74805006D01*
X37041498Y-74915320D01*
X37005188Y-75035018D01*
X36992928Y-75159500D01*
X36996000Y-75723750D01*
X37154750Y-75882500D01*
X38354000Y-75882500D01*
X38354000Y-75862500D01*
X38608000Y-75862500D01*
X38608000Y-75882500D01*
X38628000Y-75882500D01*
X38628000Y-76136500D01*
X38608000Y-76136500D01*
X38608000Y-77335750D01*
X38766750Y-77494500D01*
X39331000Y-77497572D01*
X39455482Y-77485312D01*
X39575180Y-77449002D01*
X39685494Y-77390037D01*
X39782185Y-77310685D01*
X39861537Y-77213994D01*
X39920502Y-77103680D01*
X39942513Y-77031120D01*
X40074368Y-77162975D01*
X40317589Y-77325490D01*
X40587842Y-77437432D01*
X40874740Y-77494500D01*
X41167260Y-77494500D01*
X41454158Y-77437432D01*
X41724411Y-77325490D01*
X41792683Y-77279872D01*
X55265000Y-77279872D01*
X55265000Y-77720128D01*
X55350890Y-78151925D01*
X55519369Y-78558669D01*
X55763962Y-78924729D01*
X56075271Y-79236038D01*
X56441331Y-79480631D01*
X56848075Y-79649110D01*
X57279872Y-79735000D01*
X57720128Y-79735000D01*
X58151925Y-79649110D01*
X58558669Y-79480631D01*
X58597776Y-79454500D01*
X61099928Y-79454500D01*
X61099928Y-81454500D01*
X61112188Y-81578982D01*
X61148498Y-81698680D01*
X61207463Y-81808994D01*
X61286815Y-81905685D01*
X61383506Y-81985037D01*
X61493820Y-82044002D01*
X61613518Y-82080312D01*
X61738000Y-82092572D01*
X63738000Y-82092572D01*
X63862482Y-82080312D01*
X63982180Y-82044002D01*
X64092494Y-81985037D01*
X64189185Y-81905685D01*
X64268537Y-81808994D01*
X64327502Y-81698680D01*
X64363812Y-81578982D01*
X64376072Y-81454500D01*
X64376072Y-80293467D01*
X68703000Y-80293467D01*
X68703000Y-80615533D01*
X68765832Y-80931412D01*
X68889082Y-81228963D01*
X69068013Y-81496752D01*
X69295748Y-81724487D01*
X69563537Y-81903418D01*
X69861088Y-82026668D01*
X70176967Y-82089500D01*
X70499033Y-82089500D01*
X70814912Y-82026668D01*
X71112463Y-81903418D01*
X71380252Y-81724487D01*
X71607987Y-81496752D01*
X71786918Y-81228963D01*
X71910168Y-80931412D01*
X71973000Y-80615533D01*
X71973000Y-80293467D01*
X71910168Y-79977588D01*
X71786918Y-79680037D01*
X71607987Y-79412248D01*
X71380252Y-79184513D01*
X71112463Y-79005582D01*
X70814912Y-78882332D01*
X70499033Y-78819500D01*
X70176967Y-78819500D01*
X69861088Y-78882332D01*
X69563537Y-79005582D01*
X69295748Y-79184513D01*
X69068013Y-79412248D01*
X68889082Y-79680037D01*
X68765832Y-79977588D01*
X68703000Y-80293467D01*
X64376072Y-80293467D01*
X64376072Y-79454500D01*
X64363812Y-79330018D01*
X64327502Y-79210320D01*
X64268537Y-79100006D01*
X64189185Y-79003315D01*
X64092494Y-78923963D01*
X63982180Y-78864998D01*
X63862482Y-78828688D01*
X63738000Y-78816428D01*
X61738000Y-78816428D01*
X61613518Y-78828688D01*
X61493820Y-78864998D01*
X61383506Y-78923963D01*
X61286815Y-79003315D01*
X61207463Y-79100006D01*
X61148498Y-79210320D01*
X61112188Y-79330018D01*
X61099928Y-79454500D01*
X58597776Y-79454500D01*
X58924729Y-79236038D01*
X59236038Y-78924729D01*
X59480631Y-78558669D01*
X59649110Y-78151925D01*
X59735000Y-77720128D01*
X59735000Y-77279872D01*
X59649110Y-76848075D01*
X59481323Y-76443000D01*
X76185928Y-76443000D01*
X76185928Y-78243000D01*
X76198188Y-78367482D01*
X76234498Y-78487180D01*
X76293463Y-78597494D01*
X76372815Y-78694185D01*
X76469506Y-78773537D01*
X76579820Y-78832502D01*
X76699518Y-78868812D01*
X76824000Y-78881072D01*
X77011128Y-78881072D01*
X77068138Y-78987732D01*
X77166236Y-79107264D01*
X77196190Y-79131847D01*
X77967157Y-79902815D01*
X77991736Y-79932764D01*
X78021684Y-79957342D01*
X78021687Y-79957345D01*
X78046353Y-79977588D01*
X78111267Y-80030862D01*
X78247640Y-80103754D01*
X78361172Y-80138194D01*
X78395612Y-80148641D01*
X78409990Y-80150057D01*
X78510939Y-80160000D01*
X78510946Y-80160000D01*
X78549499Y-80163797D01*
X78588052Y-80160000D01*
X82224843Y-80160000D01*
X82844501Y-80779658D01*
X82844500Y-86829447D01*
X82840703Y-86868000D01*
X82844500Y-86906553D01*
X82844500Y-86906560D01*
X82855859Y-87021886D01*
X82900746Y-87169859D01*
X82973638Y-87306232D01*
X83071736Y-87425764D01*
X83101690Y-87450347D01*
X87492158Y-91840816D01*
X87516736Y-91870764D01*
X87546684Y-91895342D01*
X87546687Y-91895345D01*
X87557704Y-91904386D01*
X87636267Y-91968862D01*
X87772640Y-92041754D01*
X87886172Y-92076194D01*
X87920612Y-92086641D01*
X87934990Y-92088057D01*
X88035939Y-92098000D01*
X88035946Y-92098000D01*
X88074499Y-92101797D01*
X88113052Y-92098000D01*
X88792789Y-92098000D01*
X88811726Y-92116937D01*
X88981244Y-92230205D01*
X89169602Y-92308226D01*
X89369561Y-92348000D01*
X89573439Y-92348000D01*
X89773398Y-92308226D01*
X89961756Y-92230205D01*
X90131274Y-92116937D01*
X90275437Y-91972774D01*
X90388705Y-91803256D01*
X90466726Y-91614898D01*
X90506500Y-91414939D01*
X90506500Y-91211061D01*
X90466726Y-91011102D01*
X90388705Y-90822744D01*
X90291990Y-90678000D01*
X90388705Y-90533256D01*
X90466726Y-90344898D01*
X90506500Y-90144939D01*
X90506500Y-89941061D01*
X90466726Y-89741102D01*
X90397510Y-89574000D01*
X95793928Y-89574000D01*
X95793928Y-91274000D01*
X95806188Y-91398482D01*
X95842498Y-91518180D01*
X95901463Y-91628494D01*
X95980815Y-91725185D01*
X96077506Y-91804537D01*
X96187820Y-91863502D01*
X96307518Y-91899812D01*
X96432000Y-91912072D01*
X98132000Y-91912072D01*
X98256482Y-91899812D01*
X98376180Y-91863502D01*
X98486494Y-91804537D01*
X98583185Y-91725185D01*
X98662537Y-91628494D01*
X98721502Y-91518180D01*
X98743513Y-91445620D01*
X98875368Y-91577475D01*
X99118589Y-91739990D01*
X99388842Y-91851932D01*
X99675740Y-91909000D01*
X99968260Y-91909000D01*
X100255158Y-91851932D01*
X100525411Y-91739990D01*
X100768632Y-91577475D01*
X100975475Y-91370632D01*
X101092000Y-91196240D01*
X101208525Y-91370632D01*
X101415368Y-91577475D01*
X101658589Y-91739990D01*
X101928842Y-91851932D01*
X102215740Y-91909000D01*
X102508260Y-91909000D01*
X102795158Y-91851932D01*
X103065411Y-91739990D01*
X103308632Y-91577475D01*
X103515475Y-91370632D01*
X103637195Y-91188466D01*
X103706822Y-91305355D01*
X103901731Y-91521588D01*
X104135080Y-91695641D01*
X104397901Y-91820825D01*
X104545110Y-91865476D01*
X104775000Y-91744155D01*
X104775000Y-90551000D01*
X105029000Y-90551000D01*
X105029000Y-91744155D01*
X105258890Y-91865476D01*
X105406099Y-91820825D01*
X105668920Y-91695641D01*
X105902269Y-91521588D01*
X106031294Y-91378446D01*
X122201687Y-91378446D01*
X122254158Y-91845311D01*
X122396703Y-92292968D01*
X122587234Y-92649427D01*
X122928391Y-92835503D01*
X124418395Y-91345500D01*
X122928391Y-89855497D01*
X122587234Y-90041573D01*
X122371487Y-90458909D01*
X122241304Y-90910315D01*
X122201687Y-91378446D01*
X106031294Y-91378446D01*
X106097178Y-91305355D01*
X106246157Y-91055252D01*
X106343481Y-90780891D01*
X106222814Y-90551000D01*
X105029000Y-90551000D01*
X104775000Y-90551000D01*
X104755000Y-90551000D01*
X104755000Y-90297000D01*
X104775000Y-90297000D01*
X104775000Y-89103845D01*
X105029000Y-89103845D01*
X105029000Y-90297000D01*
X106222814Y-90297000D01*
X106343481Y-90067109D01*
X106246157Y-89792748D01*
X106176549Y-89675891D01*
X123107997Y-89675891D01*
X124598000Y-91165895D01*
X126088003Y-89675891D01*
X125901927Y-89334734D01*
X125484591Y-89118987D01*
X125033185Y-88988804D01*
X124565054Y-88949187D01*
X124098189Y-89001658D01*
X123650532Y-89144203D01*
X123294073Y-89334734D01*
X123107997Y-89675891D01*
X106176549Y-89675891D01*
X106097178Y-89542645D01*
X105902269Y-89326412D01*
X105668920Y-89152359D01*
X105406099Y-89027175D01*
X105258890Y-88982524D01*
X105029000Y-89103845D01*
X104775000Y-89103845D01*
X104545110Y-88982524D01*
X104397901Y-89027175D01*
X104135080Y-89152359D01*
X103901731Y-89326412D01*
X103706822Y-89542645D01*
X103637195Y-89659534D01*
X103515475Y-89477368D01*
X103308632Y-89270525D01*
X103065411Y-89108010D01*
X102795158Y-88996068D01*
X102508260Y-88939000D01*
X102215740Y-88939000D01*
X101928842Y-88996068D01*
X101658589Y-89108010D01*
X101415368Y-89270525D01*
X101208525Y-89477368D01*
X101092000Y-89651760D01*
X100975475Y-89477368D01*
X100768632Y-89270525D01*
X100525411Y-89108010D01*
X100255158Y-88996068D01*
X99968260Y-88939000D01*
X99675740Y-88939000D01*
X99388842Y-88996068D01*
X99118589Y-89108010D01*
X98875368Y-89270525D01*
X98743513Y-89402380D01*
X98721502Y-89329820D01*
X98662537Y-89219506D01*
X98583185Y-89122815D01*
X98486494Y-89043463D01*
X98376180Y-88984498D01*
X98256482Y-88948188D01*
X98132000Y-88935928D01*
X96432000Y-88935928D01*
X96307518Y-88948188D01*
X96187820Y-88984498D01*
X96077506Y-89043463D01*
X95980815Y-89122815D01*
X95901463Y-89219506D01*
X95842498Y-89329820D01*
X95806188Y-89449518D01*
X95793928Y-89574000D01*
X90397510Y-89574000D01*
X90388705Y-89552744D01*
X90275437Y-89383226D01*
X90131274Y-89239063D01*
X89961756Y-89125795D01*
X89773398Y-89047774D01*
X89573439Y-89008000D01*
X89369561Y-89008000D01*
X89169602Y-89047774D01*
X88981244Y-89125795D01*
X88811726Y-89239063D01*
X88792789Y-89258000D01*
X88399658Y-89258000D01*
X86366549Y-87224891D01*
X86887019Y-87224891D01*
X86984343Y-87499252D01*
X87133322Y-87749355D01*
X87328231Y-87965588D01*
X87561580Y-88139641D01*
X87824401Y-88264825D01*
X87971610Y-88309476D01*
X88201500Y-88188155D01*
X88201500Y-86995000D01*
X87007686Y-86995000D01*
X86887019Y-87224891D01*
X86366549Y-87224891D01*
X85652767Y-86511109D01*
X86887019Y-86511109D01*
X87007686Y-86741000D01*
X88201500Y-86741000D01*
X88201500Y-85547845D01*
X88455500Y-85547845D01*
X88455500Y-86741000D01*
X88475500Y-86741000D01*
X88475500Y-86995000D01*
X88455500Y-86995000D01*
X88455500Y-88188155D01*
X88685390Y-88309476D01*
X88832599Y-88264825D01*
X89095420Y-88139641D01*
X89328769Y-87965588D01*
X89523678Y-87749355D01*
X89593305Y-87632466D01*
X89715025Y-87814632D01*
X89921868Y-88021475D01*
X90165089Y-88183990D01*
X90435342Y-88295932D01*
X90722240Y-88353000D01*
X91014760Y-88353000D01*
X91301658Y-88295932D01*
X91571911Y-88183990D01*
X91815132Y-88021475D01*
X92021975Y-87814632D01*
X92138500Y-87640240D01*
X92255025Y-87814632D01*
X92461868Y-88021475D01*
X92705089Y-88183990D01*
X92975342Y-88295932D01*
X93262240Y-88353000D01*
X93554760Y-88353000D01*
X93841658Y-88295932D01*
X94111911Y-88183990D01*
X94355132Y-88021475D01*
X94486987Y-87889620D01*
X94508998Y-87962180D01*
X94567963Y-88072494D01*
X94647315Y-88169185D01*
X94744006Y-88248537D01*
X94854320Y-88307502D01*
X94974018Y-88343812D01*
X95098500Y-88356072D01*
X96798500Y-88356072D01*
X96922982Y-88343812D01*
X97042680Y-88307502D01*
X97152994Y-88248537D01*
X97249685Y-88169185D01*
X97329037Y-88072494D01*
X97388002Y-87962180D01*
X97424312Y-87842482D01*
X97433125Y-87753000D01*
X116486446Y-87753000D01*
X116497233Y-87763787D01*
X116699508Y-87898943D01*
X116924264Y-87992040D01*
X117162863Y-88039500D01*
X117406137Y-88039500D01*
X117644736Y-87992040D01*
X117869492Y-87898943D01*
X118071767Y-87763787D01*
X118243787Y-87591767D01*
X118378943Y-87389492D01*
X118472040Y-87164736D01*
X118519500Y-86926137D01*
X118519500Y-86758477D01*
X118550589Y-86700313D01*
X118601195Y-86533490D01*
X118614000Y-86403477D01*
X118614000Y-86403469D01*
X118618281Y-86360000D01*
X118614000Y-86316531D01*
X118614000Y-84574712D01*
X121483500Y-84574712D01*
X121483500Y-84798288D01*
X121527117Y-85017567D01*
X121612676Y-85224124D01*
X121736888Y-85410020D01*
X121894980Y-85568112D01*
X122080876Y-85692324D01*
X122287433Y-85777883D01*
X122506712Y-85821500D01*
X122730288Y-85821500D01*
X122949567Y-85777883D01*
X123156124Y-85692324D01*
X123342020Y-85568112D01*
X123500112Y-85410020D01*
X123624324Y-85224124D01*
X123709883Y-85017567D01*
X123753500Y-84798288D01*
X123753500Y-84574712D01*
X123709883Y-84355433D01*
X123624324Y-84148876D01*
X123500112Y-83962980D01*
X123342020Y-83804888D01*
X123156124Y-83680676D01*
X122949567Y-83595117D01*
X122730288Y-83551500D01*
X122506712Y-83551500D01*
X122287433Y-83595117D01*
X122080876Y-83680676D01*
X121894980Y-83804888D01*
X121736888Y-83962980D01*
X121612676Y-84148876D01*
X121527117Y-84355433D01*
X121483500Y-84574712D01*
X118614000Y-84574712D01*
X118614000Y-80174712D01*
X121483500Y-80174712D01*
X121483500Y-80398288D01*
X121527117Y-80617567D01*
X121612676Y-80824124D01*
X121736888Y-81010020D01*
X121894980Y-81168112D01*
X122080876Y-81292324D01*
X122287433Y-81377883D01*
X122506712Y-81421500D01*
X122730288Y-81421500D01*
X122949567Y-81377883D01*
X123156124Y-81292324D01*
X123342020Y-81168112D01*
X123500112Y-81010020D01*
X123624324Y-80824124D01*
X123709883Y-80617567D01*
X123753500Y-80398288D01*
X123753500Y-80174712D01*
X123709883Y-79955433D01*
X123624324Y-79748876D01*
X123500112Y-79562980D01*
X123342020Y-79404888D01*
X123156124Y-79280676D01*
X122949567Y-79195117D01*
X122730288Y-79151500D01*
X122506712Y-79151500D01*
X122287433Y-79195117D01*
X122080876Y-79280676D01*
X121894980Y-79404888D01*
X121736888Y-79562980D01*
X121612676Y-79748876D01*
X121527117Y-79955433D01*
X121483500Y-80174712D01*
X118614000Y-80174712D01*
X118614000Y-77696554D01*
X118688287Y-77622267D01*
X118823443Y-77419992D01*
X118916540Y-77195236D01*
X118964000Y-76956637D01*
X118964000Y-76713363D01*
X118916540Y-76474764D01*
X118823443Y-76250008D01*
X118688287Y-76047733D01*
X118516267Y-75875713D01*
X118313992Y-75740557D01*
X118089236Y-75647460D01*
X117850637Y-75600000D01*
X117607363Y-75600000D01*
X117368764Y-75647460D01*
X117144008Y-75740557D01*
X116941733Y-75875713D01*
X116769713Y-76047733D01*
X116634557Y-76250008D01*
X116541460Y-76474764D01*
X116494000Y-76713363D01*
X116494000Y-76956637D01*
X116541460Y-77195236D01*
X116634557Y-77419992D01*
X116769713Y-77622267D01*
X116844000Y-77696554D01*
X116844001Y-85650206D01*
X116699508Y-85710057D01*
X116497233Y-85845213D01*
X116359446Y-85983000D01*
X97433125Y-85983000D01*
X97424312Y-85893518D01*
X97388002Y-85773820D01*
X97329037Y-85663506D01*
X97249685Y-85566815D01*
X97152994Y-85487463D01*
X97042680Y-85428498D01*
X96922982Y-85392188D01*
X96798500Y-85379928D01*
X95098500Y-85379928D01*
X94974018Y-85392188D01*
X94854320Y-85428498D01*
X94744006Y-85487463D01*
X94647315Y-85566815D01*
X94567963Y-85663506D01*
X94508998Y-85773820D01*
X94486987Y-85846380D01*
X94355132Y-85714525D01*
X94111911Y-85552010D01*
X93841658Y-85440068D01*
X93554760Y-85383000D01*
X93262240Y-85383000D01*
X92975342Y-85440068D01*
X92705089Y-85552010D01*
X92461868Y-85714525D01*
X92255025Y-85921368D01*
X92138500Y-86095760D01*
X92021975Y-85921368D01*
X91815132Y-85714525D01*
X91571911Y-85552010D01*
X91301658Y-85440068D01*
X91014760Y-85383000D01*
X90722240Y-85383000D01*
X90435342Y-85440068D01*
X90165089Y-85552010D01*
X89921868Y-85714525D01*
X89715025Y-85921368D01*
X89593305Y-86103534D01*
X89523678Y-85986645D01*
X89328769Y-85770412D01*
X89095420Y-85596359D01*
X88832599Y-85471175D01*
X88685390Y-85426524D01*
X88455500Y-85547845D01*
X88201500Y-85547845D01*
X87971610Y-85426524D01*
X87824401Y-85471175D01*
X87561580Y-85596359D01*
X87328231Y-85770412D01*
X87133322Y-85986645D01*
X86984343Y-86236748D01*
X86887019Y-86511109D01*
X85652767Y-86511109D01*
X85240000Y-86098343D01*
X85240000Y-78881072D01*
X85355000Y-78881072D01*
X85479482Y-78868812D01*
X85599180Y-78832502D01*
X85709494Y-78773537D01*
X85806185Y-78694185D01*
X85885537Y-78597494D01*
X85944502Y-78487180D01*
X85950056Y-78468873D01*
X86016495Y-78535312D01*
X86267905Y-78703299D01*
X86547257Y-78819011D01*
X86843816Y-78878000D01*
X87146184Y-78878000D01*
X87442743Y-78819011D01*
X87722095Y-78703299D01*
X87973505Y-78535312D01*
X88187312Y-78321505D01*
X88355299Y-78070095D01*
X88471011Y-77790743D01*
X88530000Y-77494184D01*
X88530000Y-77191816D01*
X88471011Y-76895257D01*
X88423217Y-76779872D01*
X101265000Y-76779872D01*
X101265000Y-77220128D01*
X101350890Y-77651925D01*
X101519369Y-78058669D01*
X101763962Y-78424729D01*
X102075271Y-78736038D01*
X102441331Y-78980631D01*
X102848075Y-79149110D01*
X103279872Y-79235000D01*
X103720128Y-79235000D01*
X104151925Y-79149110D01*
X104558669Y-78980631D01*
X104924729Y-78736038D01*
X105236038Y-78424729D01*
X105480631Y-78058669D01*
X105649110Y-77651925D01*
X105735000Y-77220128D01*
X105735000Y-76779872D01*
X105649110Y-76348075D01*
X105480631Y-75941331D01*
X105236038Y-75575271D01*
X104924729Y-75263962D01*
X104558669Y-75019369D01*
X104151925Y-74850890D01*
X103720128Y-74765000D01*
X103279872Y-74765000D01*
X102848075Y-74850890D01*
X102441331Y-75019369D01*
X102075271Y-75263962D01*
X101763962Y-75575271D01*
X101519369Y-75941331D01*
X101350890Y-76348075D01*
X101265000Y-76779872D01*
X88423217Y-76779872D01*
X88355299Y-76615905D01*
X88187312Y-76364495D01*
X87973505Y-76150688D01*
X87722095Y-75982701D01*
X87442743Y-75866989D01*
X87146184Y-75808000D01*
X86843816Y-75808000D01*
X86547257Y-75866989D01*
X86267905Y-75982701D01*
X86016495Y-76150688D01*
X85950056Y-76217127D01*
X85944502Y-76198820D01*
X85885537Y-76088506D01*
X85806185Y-75991815D01*
X85709494Y-75912463D01*
X85599180Y-75853498D01*
X85479482Y-75817188D01*
X85355000Y-75804928D01*
X83555000Y-75804928D01*
X83430518Y-75817188D01*
X83310820Y-75853498D01*
X83200506Y-75912463D01*
X83103815Y-75991815D01*
X83024463Y-76088506D01*
X82965498Y-76198820D01*
X82929188Y-76318518D01*
X82916928Y-76443000D01*
X82916928Y-78243000D01*
X82929188Y-78367482D01*
X82965498Y-78487180D01*
X83024463Y-78597494D01*
X83103815Y-78694185D01*
X83200506Y-78773537D01*
X83310820Y-78832502D01*
X83430518Y-78868812D01*
X83555000Y-78881072D01*
X83670001Y-78881072D01*
X83670001Y-79384844D01*
X83132347Y-78847190D01*
X83107764Y-78817236D01*
X82988233Y-78719138D01*
X82851860Y-78646246D01*
X82703887Y-78601359D01*
X82588561Y-78590000D01*
X82588553Y-78590000D01*
X82550000Y-78586203D01*
X82511447Y-78590000D01*
X81160659Y-78590000D01*
X81242505Y-78535312D01*
X81456312Y-78321505D01*
X81624299Y-78070095D01*
X81740011Y-77790743D01*
X81799000Y-77494184D01*
X81799000Y-77191816D01*
X81740011Y-76895257D01*
X81624299Y-76615905D01*
X81456312Y-76364495D01*
X81242505Y-76150688D01*
X80991095Y-75982701D01*
X80711743Y-75866989D01*
X80415184Y-75808000D01*
X80112816Y-75808000D01*
X79816257Y-75866989D01*
X79536905Y-75982701D01*
X79285495Y-76150688D01*
X79219056Y-76217127D01*
X79213502Y-76198820D01*
X79154537Y-76088506D01*
X79075185Y-75991815D01*
X78978494Y-75912463D01*
X78868180Y-75853498D01*
X78748482Y-75817188D01*
X78624000Y-75804928D01*
X76824000Y-75804928D01*
X76699518Y-75817188D01*
X76579820Y-75853498D01*
X76469506Y-75912463D01*
X76372815Y-75991815D01*
X76293463Y-76088506D01*
X76234498Y-76198820D01*
X76198188Y-76318518D01*
X76185928Y-76443000D01*
X59481323Y-76443000D01*
X59480631Y-76441331D01*
X59236038Y-76075271D01*
X58924729Y-75763962D01*
X58558669Y-75519369D01*
X58151925Y-75350890D01*
X57720128Y-75265000D01*
X57279872Y-75265000D01*
X56848075Y-75350890D01*
X56441331Y-75519369D01*
X56075271Y-75763962D01*
X55763962Y-76075271D01*
X55519369Y-76441331D01*
X55350890Y-76848075D01*
X55265000Y-77279872D01*
X41792683Y-77279872D01*
X41967632Y-77162975D01*
X42174475Y-76956132D01*
X42336990Y-76712911D01*
X42448932Y-76442658D01*
X42506000Y-76155760D01*
X42506000Y-75863240D01*
X42448932Y-75576342D01*
X42336990Y-75306089D01*
X42174475Y-75062868D01*
X41967632Y-74856025D01*
X41724411Y-74693510D01*
X41643510Y-74660000D01*
X126840000Y-74660000D01*
X126840000Y-90525859D01*
X126799297Y-90398032D01*
X126608766Y-90041573D01*
X126267609Y-89855497D01*
X124777605Y-91345500D01*
X126267609Y-92835503D01*
X126608766Y-92649427D01*
X126824513Y-92232091D01*
X126840000Y-92178389D01*
X126840000Y-102565860D01*
X126799297Y-102438032D01*
X126608766Y-102081573D01*
X126267609Y-101895497D01*
X124777605Y-103385500D01*
X126267609Y-104875503D01*
X126608766Y-104689427D01*
X126824513Y-104272091D01*
X126840001Y-104218388D01*
X126840001Y-132840000D01*
X30660000Y-132840000D01*
X30660000Y-129779872D01*
X31265000Y-129779872D01*
X31265000Y-130220128D01*
X31350890Y-130651925D01*
X31519369Y-131058669D01*
X31763962Y-131424729D01*
X32075271Y-131736038D01*
X32441331Y-131980631D01*
X32848075Y-132149110D01*
X33279872Y-132235000D01*
X33720128Y-132235000D01*
X34151925Y-132149110D01*
X34558669Y-131980631D01*
X34924729Y-131736038D01*
X35236038Y-131424729D01*
X35480631Y-131058669D01*
X35649110Y-130651925D01*
X35735000Y-130220128D01*
X35735000Y-129779872D01*
X35649110Y-129348075D01*
X35480631Y-128941331D01*
X35236038Y-128575271D01*
X34924729Y-128263962D01*
X34558669Y-128019369D01*
X34151925Y-127850890D01*
X34023874Y-127825419D01*
X38641500Y-127825419D01*
X38641500Y-128206581D01*
X38715861Y-128580419D01*
X38861725Y-128932566D01*
X39073487Y-129249491D01*
X39343009Y-129519013D01*
X39659934Y-129730775D01*
X40012081Y-129876639D01*
X40385919Y-129951000D01*
X40767081Y-129951000D01*
X41140919Y-129876639D01*
X41493066Y-129730775D01*
X41809991Y-129519013D01*
X42013004Y-129316000D01*
X43718428Y-129316000D01*
X43730688Y-129440482D01*
X43766998Y-129560180D01*
X43825963Y-129670494D01*
X43905315Y-129767185D01*
X44002006Y-129846537D01*
X44112320Y-129905502D01*
X44232018Y-129941812D01*
X44356500Y-129954072D01*
X45370750Y-129951000D01*
X45529500Y-129792250D01*
X45529500Y-128143000D01*
X45783500Y-128143000D01*
X45783500Y-129792250D01*
X45942250Y-129951000D01*
X46956500Y-129954072D01*
X47080982Y-129941812D01*
X47200680Y-129905502D01*
X47310994Y-129846537D01*
X47407685Y-129767185D01*
X47487037Y-129670494D01*
X47546002Y-129560180D01*
X47582312Y-129440482D01*
X47594572Y-129316000D01*
X47591500Y-128301750D01*
X47432750Y-128143000D01*
X45783500Y-128143000D01*
X45529500Y-128143000D01*
X43880250Y-128143000D01*
X43721500Y-128301750D01*
X43718428Y-129316000D01*
X42013004Y-129316000D01*
X42079513Y-129249491D01*
X42291275Y-128932566D01*
X42437139Y-128580419D01*
X42511500Y-128206581D01*
X42511500Y-127825419D01*
X42437139Y-127451581D01*
X42291275Y-127099434D01*
X42079513Y-126782509D01*
X42013004Y-126716000D01*
X43718428Y-126716000D01*
X43721500Y-127730250D01*
X43880250Y-127889000D01*
X45529500Y-127889000D01*
X45529500Y-126239750D01*
X45783500Y-126239750D01*
X45783500Y-127889000D01*
X47432750Y-127889000D01*
X47496331Y-127825419D01*
X56040500Y-127825419D01*
X56040500Y-128206581D01*
X56114861Y-128580419D01*
X56260725Y-128932566D01*
X56472487Y-129249491D01*
X56742009Y-129519013D01*
X57058934Y-129730775D01*
X57411081Y-129876639D01*
X57784919Y-129951000D01*
X58166081Y-129951000D01*
X58539919Y-129876639D01*
X58892066Y-129730775D01*
X59208991Y-129519013D01*
X59478513Y-129249491D01*
X59690275Y-128932566D01*
X59836139Y-128580419D01*
X59910500Y-128206581D01*
X59910500Y-127825419D01*
X59836139Y-127451581D01*
X59690275Y-127099434D01*
X59478513Y-126782509D01*
X59412004Y-126716000D01*
X61117428Y-126716000D01*
X61117428Y-129316000D01*
X61129688Y-129440482D01*
X61165998Y-129560180D01*
X61224963Y-129670494D01*
X61304315Y-129767185D01*
X61401006Y-129846537D01*
X61511320Y-129905502D01*
X61631018Y-129941812D01*
X61755500Y-129954072D01*
X64355500Y-129954072D01*
X64479982Y-129941812D01*
X64599680Y-129905502D01*
X64709994Y-129846537D01*
X64806685Y-129767185D01*
X64886037Y-129670494D01*
X64945002Y-129560180D01*
X64981312Y-129440482D01*
X64993572Y-129316000D01*
X64993572Y-127825419D01*
X74201500Y-127825419D01*
X74201500Y-128206581D01*
X74275861Y-128580419D01*
X74421725Y-128932566D01*
X74633487Y-129249491D01*
X74903009Y-129519013D01*
X75219934Y-129730775D01*
X75572081Y-129876639D01*
X75945919Y-129951000D01*
X76327081Y-129951000D01*
X76700919Y-129876639D01*
X77053066Y-129730775D01*
X77369991Y-129519013D01*
X77573004Y-129316000D01*
X79278428Y-129316000D01*
X79290688Y-129440482D01*
X79326998Y-129560180D01*
X79385963Y-129670494D01*
X79465315Y-129767185D01*
X79562006Y-129846537D01*
X79672320Y-129905502D01*
X79792018Y-129941812D01*
X79916500Y-129954072D01*
X80930750Y-129951000D01*
X81089500Y-129792250D01*
X81089500Y-128143000D01*
X81343500Y-128143000D01*
X81343500Y-129792250D01*
X81502250Y-129951000D01*
X82516500Y-129954072D01*
X82640982Y-129941812D01*
X82760680Y-129905502D01*
X82870994Y-129846537D01*
X82952225Y-129779872D01*
X85765000Y-129779872D01*
X85765000Y-130220128D01*
X85850890Y-130651925D01*
X86019369Y-131058669D01*
X86263962Y-131424729D01*
X86575271Y-131736038D01*
X86941331Y-131980631D01*
X87348075Y-132149110D01*
X87779872Y-132235000D01*
X88220128Y-132235000D01*
X88651925Y-132149110D01*
X89058669Y-131980631D01*
X89424729Y-131736038D01*
X89736038Y-131424729D01*
X89980631Y-131058669D01*
X90149110Y-130651925D01*
X90223116Y-130279872D01*
X122265000Y-130279872D01*
X122265000Y-130720128D01*
X122350890Y-131151925D01*
X122519369Y-131558669D01*
X122763962Y-131924729D01*
X123075271Y-132236038D01*
X123441331Y-132480631D01*
X123848075Y-132649110D01*
X124279872Y-132735000D01*
X124720128Y-132735000D01*
X125151925Y-132649110D01*
X125558669Y-132480631D01*
X125924729Y-132236038D01*
X126236038Y-131924729D01*
X126480631Y-131558669D01*
X126649110Y-131151925D01*
X126735000Y-130720128D01*
X126735000Y-130279872D01*
X126649110Y-129848075D01*
X126480631Y-129441331D01*
X126236038Y-129075271D01*
X125924729Y-128763962D01*
X125558669Y-128519369D01*
X125151925Y-128350890D01*
X124720128Y-128265000D01*
X124279872Y-128265000D01*
X123848075Y-128350890D01*
X123441331Y-128519369D01*
X123075271Y-128763962D01*
X122763962Y-129075271D01*
X122519369Y-129441331D01*
X122350890Y-129848075D01*
X122265000Y-130279872D01*
X90223116Y-130279872D01*
X90235000Y-130220128D01*
X90235000Y-129779872D01*
X90149110Y-129348075D01*
X89980631Y-128941331D01*
X89736038Y-128575271D01*
X89424729Y-128263962D01*
X89058669Y-128019369D01*
X88651925Y-127850890D01*
X88443437Y-127809419D01*
X92493000Y-127809419D01*
X92493000Y-128190581D01*
X92567361Y-128564419D01*
X92713225Y-128916566D01*
X92924987Y-129233491D01*
X93194509Y-129503013D01*
X93511434Y-129714775D01*
X93863581Y-129860639D01*
X94237419Y-129935000D01*
X94618581Y-129935000D01*
X94992419Y-129860639D01*
X95344566Y-129714775D01*
X95661491Y-129503013D01*
X95864504Y-129300000D01*
X97569928Y-129300000D01*
X97582188Y-129424482D01*
X97618498Y-129544180D01*
X97677463Y-129654494D01*
X97756815Y-129751185D01*
X97853506Y-129830537D01*
X97963820Y-129889502D01*
X98083518Y-129925812D01*
X98208000Y-129938072D01*
X99222250Y-129935000D01*
X99381000Y-129776250D01*
X99381000Y-128127000D01*
X99635000Y-128127000D01*
X99635000Y-129776250D01*
X99793750Y-129935000D01*
X100808000Y-129938072D01*
X100932482Y-129925812D01*
X101052180Y-129889502D01*
X101162494Y-129830537D01*
X101259185Y-129751185D01*
X101338537Y-129654494D01*
X101397502Y-129544180D01*
X101433812Y-129424482D01*
X101446072Y-129300000D01*
X101443000Y-128285750D01*
X101284250Y-128127000D01*
X99635000Y-128127000D01*
X99381000Y-128127000D01*
X97731750Y-128127000D01*
X97573000Y-128285750D01*
X97569928Y-129300000D01*
X95864504Y-129300000D01*
X95931013Y-129233491D01*
X96142775Y-128916566D01*
X96288639Y-128564419D01*
X96363000Y-128190581D01*
X96363000Y-127809419D01*
X96288639Y-127435581D01*
X96142775Y-127083434D01*
X95931013Y-126766509D01*
X95864504Y-126700000D01*
X97569928Y-126700000D01*
X97573000Y-127714250D01*
X97731750Y-127873000D01*
X99381000Y-127873000D01*
X99381000Y-126223750D01*
X99635000Y-126223750D01*
X99635000Y-127873000D01*
X101284250Y-127873000D01*
X101443000Y-127714250D01*
X101446072Y-126700000D01*
X101433812Y-126575518D01*
X101397502Y-126455820D01*
X101338537Y-126345506D01*
X101259185Y-126248815D01*
X101162494Y-126169463D01*
X101052180Y-126110498D01*
X100932482Y-126074188D01*
X100808000Y-126061928D01*
X99793750Y-126065000D01*
X99635000Y-126223750D01*
X99381000Y-126223750D01*
X99222250Y-126065000D01*
X98208000Y-126061928D01*
X98083518Y-126074188D01*
X97963820Y-126110498D01*
X97853506Y-126169463D01*
X97756815Y-126248815D01*
X97677463Y-126345506D01*
X97618498Y-126455820D01*
X97582188Y-126575518D01*
X97569928Y-126700000D01*
X95864504Y-126700000D01*
X95661491Y-126496987D01*
X95344566Y-126285225D01*
X94992419Y-126139361D01*
X94618581Y-126065000D01*
X94237419Y-126065000D01*
X93863581Y-126139361D01*
X93511434Y-126285225D01*
X93194509Y-126496987D01*
X92924987Y-126766509D01*
X92713225Y-127083434D01*
X92567361Y-127435581D01*
X92493000Y-127809419D01*
X88443437Y-127809419D01*
X88220128Y-127765000D01*
X87779872Y-127765000D01*
X87348075Y-127850890D01*
X86941331Y-128019369D01*
X86575271Y-128263962D01*
X86263962Y-128575271D01*
X86019369Y-128941331D01*
X85850890Y-129348075D01*
X85765000Y-129779872D01*
X82952225Y-129779872D01*
X82967685Y-129767185D01*
X83047037Y-129670494D01*
X83106002Y-129560180D01*
X83142312Y-129440482D01*
X83154572Y-129316000D01*
X83151500Y-128301750D01*
X82992750Y-128143000D01*
X81343500Y-128143000D01*
X81089500Y-128143000D01*
X79440250Y-128143000D01*
X79281500Y-128301750D01*
X79278428Y-129316000D01*
X77573004Y-129316000D01*
X77639513Y-129249491D01*
X77851275Y-128932566D01*
X77997139Y-128580419D01*
X78071500Y-128206581D01*
X78071500Y-127825419D01*
X77997139Y-127451581D01*
X77851275Y-127099434D01*
X77639513Y-126782509D01*
X77573004Y-126716000D01*
X79278428Y-126716000D01*
X79281500Y-127730250D01*
X79440250Y-127889000D01*
X81089500Y-127889000D01*
X81089500Y-126239750D01*
X81343500Y-126239750D01*
X81343500Y-127889000D01*
X82992750Y-127889000D01*
X83151500Y-127730250D01*
X83154572Y-126716000D01*
X83142312Y-126591518D01*
X83106002Y-126471820D01*
X83047037Y-126361506D01*
X82967685Y-126264815D01*
X82870994Y-126185463D01*
X82760680Y-126126498D01*
X82640982Y-126090188D01*
X82516500Y-126077928D01*
X81502250Y-126081000D01*
X81343500Y-126239750D01*
X81089500Y-126239750D01*
X80930750Y-126081000D01*
X79916500Y-126077928D01*
X79792018Y-126090188D01*
X79672320Y-126126498D01*
X79562006Y-126185463D01*
X79465315Y-126264815D01*
X79385963Y-126361506D01*
X79326998Y-126471820D01*
X79290688Y-126591518D01*
X79278428Y-126716000D01*
X77573004Y-126716000D01*
X77369991Y-126512987D01*
X77053066Y-126301225D01*
X76700919Y-126155361D01*
X76327081Y-126081000D01*
X75945919Y-126081000D01*
X75572081Y-126155361D01*
X75219934Y-126301225D01*
X74903009Y-126512987D01*
X74633487Y-126782509D01*
X74421725Y-127099434D01*
X74275861Y-127451581D01*
X74201500Y-127825419D01*
X64993572Y-127825419D01*
X64993572Y-126716000D01*
X64981312Y-126591518D01*
X64945002Y-126471820D01*
X64886037Y-126361506D01*
X64806685Y-126264815D01*
X64709994Y-126185463D01*
X64599680Y-126126498D01*
X64479982Y-126090188D01*
X64355500Y-126077928D01*
X61755500Y-126077928D01*
X61631018Y-126090188D01*
X61511320Y-126126498D01*
X61401006Y-126185463D01*
X61304315Y-126264815D01*
X61224963Y-126361506D01*
X61165998Y-126471820D01*
X61129688Y-126591518D01*
X61117428Y-126716000D01*
X59412004Y-126716000D01*
X59208991Y-126512987D01*
X58892066Y-126301225D01*
X58539919Y-126155361D01*
X58166081Y-126081000D01*
X57784919Y-126081000D01*
X57411081Y-126155361D01*
X57058934Y-126301225D01*
X56742009Y-126512987D01*
X56472487Y-126782509D01*
X56260725Y-127099434D01*
X56114861Y-127451581D01*
X56040500Y-127825419D01*
X47496331Y-127825419D01*
X47591500Y-127730250D01*
X47594572Y-126716000D01*
X47582312Y-126591518D01*
X47546002Y-126471820D01*
X47487037Y-126361506D01*
X47407685Y-126264815D01*
X47310994Y-126185463D01*
X47200680Y-126126498D01*
X47080982Y-126090188D01*
X46956500Y-126077928D01*
X45942250Y-126081000D01*
X45783500Y-126239750D01*
X45529500Y-126239750D01*
X45370750Y-126081000D01*
X44356500Y-126077928D01*
X44232018Y-126090188D01*
X44112320Y-126126498D01*
X44002006Y-126185463D01*
X43905315Y-126264815D01*
X43825963Y-126361506D01*
X43766998Y-126471820D01*
X43730688Y-126591518D01*
X43718428Y-126716000D01*
X42013004Y-126716000D01*
X41809991Y-126512987D01*
X41493066Y-126301225D01*
X41140919Y-126155361D01*
X40767081Y-126081000D01*
X40385919Y-126081000D01*
X40012081Y-126155361D01*
X39659934Y-126301225D01*
X39343009Y-126512987D01*
X39073487Y-126782509D01*
X38861725Y-127099434D01*
X38715861Y-127451581D01*
X38641500Y-127825419D01*
X34023874Y-127825419D01*
X33720128Y-127765000D01*
X33279872Y-127765000D01*
X32848075Y-127850890D01*
X32441331Y-128019369D01*
X32075271Y-128263962D01*
X31763962Y-128575271D01*
X31519369Y-128941331D01*
X31350890Y-129348075D01*
X31265000Y-129779872D01*
X30660000Y-129779872D01*
X30660000Y-96081528D01*
X40369500Y-96081528D01*
X40369500Y-96372472D01*
X40426260Y-96657825D01*
X40537599Y-96926622D01*
X40699239Y-97168533D01*
X40904967Y-97374261D01*
X41146878Y-97535901D01*
X41415675Y-97647240D01*
X41701028Y-97704000D01*
X41991972Y-97704000D01*
X42277325Y-97647240D01*
X42546122Y-97535901D01*
X42788033Y-97374261D01*
X42993761Y-97168533D01*
X43155401Y-96926622D01*
X43266740Y-96657825D01*
X43323500Y-96372472D01*
X43323500Y-96081528D01*
X43266740Y-95796175D01*
X43155401Y-95527378D01*
X42993761Y-95285467D01*
X42788033Y-95079739D01*
X42546122Y-94918099D01*
X42277325Y-94806760D01*
X41991972Y-94750000D01*
X41701028Y-94750000D01*
X41415675Y-94806760D01*
X41146878Y-94918099D01*
X40904967Y-95079739D01*
X40699239Y-95285467D01*
X40537599Y-95527378D01*
X40426260Y-95796175D01*
X40369500Y-96081528D01*
X30660000Y-96081528D01*
X30660000Y-84480061D01*
X44367500Y-84480061D01*
X44367500Y-84683939D01*
X44407274Y-84883898D01*
X44485295Y-85072256D01*
X44598563Y-85241774D01*
X44617501Y-85260712D01*
X44617500Y-92798447D01*
X44613703Y-92837000D01*
X44617500Y-92875553D01*
X44617500Y-92875560D01*
X44628859Y-92990886D01*
X44673746Y-93138859D01*
X44746638Y-93275232D01*
X44844736Y-93394764D01*
X44874690Y-93419347D01*
X58409158Y-106953816D01*
X58433736Y-106983764D01*
X58463684Y-107008342D01*
X58463687Y-107008345D01*
X58489848Y-107029815D01*
X58553267Y-107081862D01*
X58672067Y-107145361D01*
X58689640Y-107154754D01*
X58837612Y-107199641D01*
X58851990Y-107201057D01*
X58952939Y-107211000D01*
X58952946Y-107211000D01*
X58991499Y-107214797D01*
X59030052Y-107211000D01*
X77362789Y-107211000D01*
X77381726Y-107229937D01*
X77551244Y-107343205D01*
X77739602Y-107421226D01*
X77746698Y-107422637D01*
X77614744Y-107477295D01*
X77445226Y-107590563D01*
X77301063Y-107734726D01*
X77187795Y-107904244D01*
X77109774Y-108092602D01*
X77070000Y-108292561D01*
X77070000Y-108496439D01*
X77109774Y-108696398D01*
X77187795Y-108884756D01*
X77301063Y-109054274D01*
X77445226Y-109198437D01*
X77492691Y-109230152D01*
X77335343Y-109387500D01*
X72619056Y-109387500D01*
X72580500Y-109383703D01*
X72541944Y-109387500D01*
X72541939Y-109387500D01*
X72501526Y-109391480D01*
X72426613Y-109398858D01*
X72278640Y-109443746D01*
X72142267Y-109516638D01*
X72022736Y-109614736D01*
X71998155Y-109644688D01*
X70282843Y-111360000D01*
X70256061Y-111360000D01*
X70056102Y-111399774D01*
X69867744Y-111477795D01*
X69698226Y-111591063D01*
X69554063Y-111735226D01*
X69440795Y-111904744D01*
X69362774Y-112093102D01*
X69323000Y-112293061D01*
X69323000Y-112496939D01*
X69362774Y-112696898D01*
X69440795Y-112885256D01*
X69554063Y-113054774D01*
X69698226Y-113198937D01*
X69867744Y-113312205D01*
X70056102Y-113390226D01*
X70256061Y-113430000D01*
X70459939Y-113430000D01*
X70659898Y-113390226D01*
X70848256Y-113312205D01*
X71017774Y-113198937D01*
X71161937Y-113054774D01*
X71275205Y-112885256D01*
X71353226Y-112696898D01*
X71393000Y-112496939D01*
X71393000Y-112470157D01*
X72905657Y-110957500D01*
X77320192Y-110957500D01*
X77316203Y-110998000D01*
X77320001Y-111036563D01*
X77320000Y-117848342D01*
X75239843Y-119928500D01*
X69169551Y-119928500D01*
X69384381Y-119851570D01*
X69625631Y-119706885D01*
X69834019Y-119517914D01*
X70001537Y-119291920D01*
X70121746Y-119037587D01*
X70162404Y-118903539D01*
X70040415Y-118681500D01*
X68897500Y-118681500D01*
X68897500Y-118701500D01*
X68643500Y-118701500D01*
X68643500Y-118681500D01*
X67500585Y-118681500D01*
X67500500Y-118681655D01*
X67500415Y-118681500D01*
X66357500Y-118681500D01*
X66357500Y-118701500D01*
X66103500Y-118701500D01*
X66103500Y-118681500D01*
X64960585Y-118681500D01*
X64838596Y-118903539D01*
X64879254Y-119037587D01*
X64999463Y-119291920D01*
X65166981Y-119517914D01*
X65375369Y-119706885D01*
X65616619Y-119851570D01*
X65831449Y-119928500D01*
X61583204Y-119928500D01*
X61830227Y-119826180D01*
X62065259Y-119669137D01*
X62265137Y-119469259D01*
X62422180Y-119234227D01*
X62530353Y-118973074D01*
X62585500Y-118695835D01*
X62585500Y-118413165D01*
X62530353Y-118135926D01*
X62422180Y-117874773D01*
X62265137Y-117639741D01*
X62066539Y-117441143D01*
X62074982Y-117440312D01*
X62194680Y-117404002D01*
X62304994Y-117345037D01*
X62401685Y-117265685D01*
X62481037Y-117168994D01*
X62540002Y-117058680D01*
X62576312Y-116938982D01*
X62588572Y-116814500D01*
X62588572Y-115214500D01*
X62576312Y-115090018D01*
X62540002Y-114970320D01*
X62481037Y-114860006D01*
X62401685Y-114763315D01*
X62304994Y-114683963D01*
X62194680Y-114624998D01*
X62074982Y-114588688D01*
X61950500Y-114576428D01*
X60350500Y-114576428D01*
X60226018Y-114588688D01*
X60106320Y-114624998D01*
X59996006Y-114683963D01*
X59899315Y-114763315D01*
X59819963Y-114860006D01*
X59760998Y-114970320D01*
X59724688Y-115090018D01*
X59723857Y-115098461D01*
X59526539Y-114901143D01*
X59534982Y-114900312D01*
X59654680Y-114864002D01*
X59764994Y-114805037D01*
X59861685Y-114725685D01*
X59941037Y-114628994D01*
X60000002Y-114518680D01*
X60036312Y-114398982D01*
X60048572Y-114274500D01*
X60048572Y-113333165D01*
X64795500Y-113333165D01*
X64795500Y-113615835D01*
X64850647Y-113893074D01*
X64958820Y-114154227D01*
X65115863Y-114389259D01*
X65315741Y-114589137D01*
X65548259Y-114744500D01*
X65315741Y-114899863D01*
X65115863Y-115099741D01*
X64958820Y-115334773D01*
X64850647Y-115595926D01*
X64795500Y-115873165D01*
X64795500Y-116155835D01*
X64850647Y-116433074D01*
X64958820Y-116694227D01*
X65115863Y-116929259D01*
X65315741Y-117129137D01*
X65550773Y-117286180D01*
X65561365Y-117290567D01*
X65375369Y-117402115D01*
X65166981Y-117591086D01*
X64999463Y-117817080D01*
X64879254Y-118071413D01*
X64838596Y-118205461D01*
X64960585Y-118427500D01*
X66103500Y-118427500D01*
X66103500Y-118407500D01*
X66357500Y-118407500D01*
X66357500Y-118427500D01*
X67500415Y-118427500D01*
X67500500Y-118427345D01*
X67500585Y-118427500D01*
X68643500Y-118427500D01*
X68643500Y-118407500D01*
X68897500Y-118407500D01*
X68897500Y-118427500D01*
X70040415Y-118427500D01*
X70162404Y-118205461D01*
X70121746Y-118071413D01*
X70001537Y-117817080D01*
X69834019Y-117591086D01*
X69625631Y-117402115D01*
X69439635Y-117290567D01*
X69450227Y-117286180D01*
X69685259Y-117129137D01*
X69885137Y-116929259D01*
X70042180Y-116694227D01*
X70150353Y-116433074D01*
X70205500Y-116155835D01*
X70205500Y-115873165D01*
X70150353Y-115595926D01*
X70042180Y-115334773D01*
X69885137Y-115099741D01*
X69685259Y-114899863D01*
X69450227Y-114742820D01*
X69189074Y-114634647D01*
X68911835Y-114579500D01*
X68629165Y-114579500D01*
X68351926Y-114634647D01*
X68090773Y-114742820D01*
X67855741Y-114899863D01*
X67655863Y-115099741D01*
X67500500Y-115332259D01*
X67345137Y-115099741D01*
X67145259Y-114899863D01*
X66912741Y-114744500D01*
X67145259Y-114589137D01*
X67345137Y-114389259D01*
X67502180Y-114154227D01*
X67610353Y-113893074D01*
X67665500Y-113615835D01*
X67665500Y-113333165D01*
X67610353Y-113055926D01*
X67502180Y-112794773D01*
X67345137Y-112559741D01*
X67145259Y-112359863D01*
X66910227Y-112202820D01*
X66649074Y-112094647D01*
X66371835Y-112039500D01*
X66089165Y-112039500D01*
X65811926Y-112094647D01*
X65550773Y-112202820D01*
X65315741Y-112359863D01*
X65115863Y-112559741D01*
X64958820Y-112794773D01*
X64850647Y-113055926D01*
X64795500Y-113333165D01*
X60048572Y-113333165D01*
X60048572Y-112674500D01*
X60036312Y-112550018D01*
X60000002Y-112430320D01*
X59941037Y-112320006D01*
X59861685Y-112223315D01*
X59764994Y-112143963D01*
X59654680Y-112084998D01*
X59534982Y-112048688D01*
X59410500Y-112036428D01*
X57810500Y-112036428D01*
X57686018Y-112048688D01*
X57566320Y-112084998D01*
X57456006Y-112143963D01*
X57359315Y-112223315D01*
X57279963Y-112320006D01*
X57220998Y-112430320D01*
X57184688Y-112550018D01*
X57172428Y-112674500D01*
X57172428Y-114274500D01*
X57184688Y-114398982D01*
X57220998Y-114518680D01*
X57279963Y-114628994D01*
X57359315Y-114725685D01*
X57456006Y-114805037D01*
X57566320Y-114864002D01*
X57686018Y-114900312D01*
X57694461Y-114901143D01*
X57495863Y-115099741D01*
X57338820Y-115334773D01*
X57230647Y-115595926D01*
X57175500Y-115873165D01*
X57175500Y-116155835D01*
X57230647Y-116433074D01*
X57338820Y-116694227D01*
X57495863Y-116929259D01*
X57695741Y-117129137D01*
X57928259Y-117284500D01*
X57695741Y-117439863D01*
X57495863Y-117639741D01*
X57338820Y-117874773D01*
X57230647Y-118135926D01*
X57175500Y-118413165D01*
X57175500Y-118695835D01*
X57230647Y-118973074D01*
X57284327Y-119102669D01*
X53223847Y-115042190D01*
X53199264Y-115012236D01*
X53079733Y-114914138D01*
X52943360Y-114841246D01*
X52795387Y-114796359D01*
X52680061Y-114785000D01*
X52680053Y-114785000D01*
X52641500Y-114781203D01*
X52602947Y-114785000D01*
X50589711Y-114785000D01*
X50570774Y-114766063D01*
X50401256Y-114652795D01*
X50212898Y-114574774D01*
X50012939Y-114535000D01*
X49809061Y-114535000D01*
X49609102Y-114574774D01*
X49420744Y-114652795D01*
X49251226Y-114766063D01*
X49107063Y-114910226D01*
X48993795Y-115079744D01*
X48915774Y-115268102D01*
X48876000Y-115468061D01*
X48876000Y-115671939D01*
X48915774Y-115871898D01*
X48993795Y-116060256D01*
X49107063Y-116229774D01*
X49251226Y-116373937D01*
X49420744Y-116487205D01*
X49609102Y-116565226D01*
X49809061Y-116605000D01*
X50012939Y-116605000D01*
X50212898Y-116565226D01*
X50401256Y-116487205D01*
X50570774Y-116373937D01*
X50589711Y-116355000D01*
X52316343Y-116355000D01*
X57202658Y-121241316D01*
X57227236Y-121271264D01*
X57257184Y-121295842D01*
X57257187Y-121295845D01*
X57286559Y-121319950D01*
X57346767Y-121369362D01*
X57483140Y-121442254D01*
X57596672Y-121476694D01*
X57631112Y-121487141D01*
X57645490Y-121488557D01*
X57746439Y-121498500D01*
X57746446Y-121498500D01*
X57784999Y-121502297D01*
X57823552Y-121498500D01*
X75526447Y-121498500D01*
X75565000Y-121502297D01*
X75603553Y-121498500D01*
X75603561Y-121498500D01*
X75718887Y-121487141D01*
X75866860Y-121442254D01*
X76003233Y-121369362D01*
X76122764Y-121271264D01*
X76147347Y-121241310D01*
X76225294Y-121163363D01*
X95094500Y-121163363D01*
X95094500Y-121406637D01*
X95141960Y-121645236D01*
X95235057Y-121869992D01*
X95370213Y-122072267D01*
X95542233Y-122244287D01*
X95744508Y-122379443D01*
X95969264Y-122472540D01*
X96207863Y-122520000D01*
X96451137Y-122520000D01*
X96689736Y-122472540D01*
X96914492Y-122379443D01*
X96978275Y-122336825D01*
X98870998Y-124229549D01*
X98898711Y-124263317D01*
X98932479Y-124291030D01*
X98932481Y-124291032D01*
X98996893Y-124343894D01*
X99033469Y-124373911D01*
X99187215Y-124456089D01*
X99354038Y-124506695D01*
X99484051Y-124519500D01*
X99484059Y-124519500D01*
X99527528Y-124523781D01*
X99570997Y-124519500D01*
X111329922Y-124519500D01*
X113706970Y-126896549D01*
X113734683Y-126930317D01*
X113768451Y-126958030D01*
X113768453Y-126958032D01*
X113869441Y-127040911D01*
X114023186Y-127123089D01*
X114190010Y-127173695D01*
X114320023Y-127186500D01*
X114320031Y-127186500D01*
X114363500Y-127190781D01*
X114406969Y-127186500D01*
X120826428Y-127186500D01*
X120826428Y-127201500D01*
X120838688Y-127325982D01*
X120874998Y-127445680D01*
X120933963Y-127555994D01*
X121013315Y-127652685D01*
X121110006Y-127732037D01*
X121220320Y-127791002D01*
X121340018Y-127827312D01*
X121464500Y-127839572D01*
X123264500Y-127839572D01*
X123388982Y-127827312D01*
X123508680Y-127791002D01*
X123618994Y-127732037D01*
X123715685Y-127652685D01*
X123795037Y-127555994D01*
X123854002Y-127445680D01*
X123890312Y-127325982D01*
X123902572Y-127201500D01*
X123902572Y-125401500D01*
X123890312Y-125277018D01*
X123854002Y-125157320D01*
X123795037Y-125047006D01*
X123715685Y-124950315D01*
X123618994Y-124870963D01*
X123508680Y-124811998D01*
X123388982Y-124775688D01*
X123264500Y-124763428D01*
X121464500Y-124763428D01*
X121340018Y-124775688D01*
X121220320Y-124811998D01*
X121110006Y-124870963D01*
X121013315Y-124950315D01*
X120933963Y-125047006D01*
X120874998Y-125157320D01*
X120838688Y-125277018D01*
X120826428Y-125401500D01*
X120826428Y-125416500D01*
X119966063Y-125416500D01*
X120024799Y-125328595D01*
X120140511Y-125049243D01*
X120199500Y-124752684D01*
X120199500Y-124450316D01*
X120140511Y-124153757D01*
X120024799Y-123874405D01*
X119856812Y-123622995D01*
X119643005Y-123409188D01*
X119429070Y-123266241D01*
X120873459Y-123266241D01*
X120973266Y-123550120D01*
X121126538Y-123809073D01*
X121327384Y-124033149D01*
X121568086Y-124213736D01*
X121839393Y-124343894D01*
X121999760Y-124392536D01*
X122237500Y-124271878D01*
X122237500Y-123028500D01*
X122491500Y-123028500D01*
X122491500Y-124271878D01*
X122729240Y-124392536D01*
X122889607Y-124343894D01*
X123160914Y-124213736D01*
X123401616Y-124033149D01*
X123602462Y-123809073D01*
X123755734Y-123550120D01*
X123855541Y-123266241D01*
X123735492Y-123028500D01*
X122491500Y-123028500D01*
X122237500Y-123028500D01*
X120993508Y-123028500D01*
X120873459Y-123266241D01*
X119429070Y-123266241D01*
X119391595Y-123241201D01*
X119112243Y-123125489D01*
X118815684Y-123066500D01*
X118513316Y-123066500D01*
X118216757Y-123125489D01*
X117937405Y-123241201D01*
X117685995Y-123409188D01*
X117472188Y-123622995D01*
X117304201Y-123874405D01*
X117188489Y-124153757D01*
X117129500Y-124450316D01*
X117129500Y-124752684D01*
X117188489Y-125049243D01*
X117304201Y-125328595D01*
X117362937Y-125416500D01*
X114730079Y-125416500D01*
X112353034Y-123039456D01*
X112325317Y-123005683D01*
X112190559Y-122895089D01*
X112036813Y-122812911D01*
X111869990Y-122762305D01*
X111739977Y-122749500D01*
X111739969Y-122749500D01*
X111696500Y-122745219D01*
X111653031Y-122749500D01*
X99894107Y-122749500D01*
X98194923Y-121050316D01*
X117129500Y-121050316D01*
X117129500Y-121352684D01*
X117188489Y-121649243D01*
X117304201Y-121928595D01*
X117472188Y-122180005D01*
X117685995Y-122393812D01*
X117937405Y-122561799D01*
X118216757Y-122677511D01*
X118513316Y-122736500D01*
X118815684Y-122736500D01*
X119112243Y-122677511D01*
X119391595Y-122561799D01*
X119429069Y-122536759D01*
X120873459Y-122536759D01*
X120993508Y-122774500D01*
X122237500Y-122774500D01*
X122237500Y-121531122D01*
X122491500Y-121531122D01*
X122491500Y-122774500D01*
X123735492Y-122774500D01*
X123855541Y-122536759D01*
X123755734Y-122252880D01*
X123602462Y-121993927D01*
X123401616Y-121769851D01*
X123160914Y-121589264D01*
X122889607Y-121459106D01*
X122729240Y-121410464D01*
X122491500Y-121531122D01*
X122237500Y-121531122D01*
X121999760Y-121410464D01*
X121839393Y-121459106D01*
X121568086Y-121589264D01*
X121327384Y-121769851D01*
X121126538Y-121993927D01*
X120973266Y-122252880D01*
X120873459Y-122536759D01*
X119429069Y-122536759D01*
X119643005Y-122393812D01*
X119856812Y-122180005D01*
X120024799Y-121928595D01*
X120140511Y-121649243D01*
X120199500Y-121352684D01*
X120199500Y-121050316D01*
X120140511Y-120753757D01*
X120024799Y-120474405D01*
X119856812Y-120222995D01*
X119643005Y-120009188D01*
X119429070Y-119866241D01*
X120873459Y-119866241D01*
X120973266Y-120150120D01*
X121126538Y-120409073D01*
X121327384Y-120633149D01*
X121568086Y-120813736D01*
X121839393Y-120943894D01*
X121999760Y-120992536D01*
X122237500Y-120871878D01*
X122237500Y-119628500D01*
X122491500Y-119628500D01*
X122491500Y-120871878D01*
X122729240Y-120992536D01*
X122889607Y-120943894D01*
X123160914Y-120813736D01*
X123401616Y-120633149D01*
X123602462Y-120409073D01*
X123755734Y-120150120D01*
X123855541Y-119866241D01*
X123735492Y-119628500D01*
X122491500Y-119628500D01*
X122237500Y-119628500D01*
X120993508Y-119628500D01*
X120873459Y-119866241D01*
X119429070Y-119866241D01*
X119391595Y-119841201D01*
X119112243Y-119725489D01*
X118815684Y-119666500D01*
X118513316Y-119666500D01*
X118216757Y-119725489D01*
X117937405Y-119841201D01*
X117685995Y-120009188D01*
X117472188Y-120222995D01*
X117304201Y-120474405D01*
X117188489Y-120753757D01*
X117129500Y-121050316D01*
X98194923Y-121050316D01*
X97834562Y-120689956D01*
X97806845Y-120656183D01*
X97672087Y-120545589D01*
X97518341Y-120463411D01*
X97351518Y-120412805D01*
X97221505Y-120400000D01*
X97221497Y-120400000D01*
X97187728Y-120396674D01*
X97116767Y-120325713D01*
X96914492Y-120190557D01*
X96689736Y-120097460D01*
X96451137Y-120050000D01*
X96207863Y-120050000D01*
X95969264Y-120097460D01*
X95744508Y-120190557D01*
X95542233Y-120325713D01*
X95370213Y-120497733D01*
X95235057Y-120700008D01*
X95141960Y-120924764D01*
X95094500Y-121163363D01*
X76225294Y-121163363D01*
X78632817Y-118755841D01*
X78662764Y-118731264D01*
X78691841Y-118695835D01*
X78711450Y-118671941D01*
X78760862Y-118611733D01*
X78833754Y-118475360D01*
X78878641Y-118327387D01*
X78890000Y-118212061D01*
X78890000Y-118212054D01*
X78893797Y-118173501D01*
X78890000Y-118134948D01*
X78890000Y-116779872D01*
X83265000Y-116779872D01*
X83265000Y-117220128D01*
X83350890Y-117651925D01*
X83519369Y-118058669D01*
X83763962Y-118424729D01*
X84075271Y-118736038D01*
X84441331Y-118980631D01*
X84848075Y-119149110D01*
X85279872Y-119235000D01*
X85720128Y-119235000D01*
X86151925Y-119149110D01*
X86181742Y-119136759D01*
X120873459Y-119136759D01*
X120993508Y-119374500D01*
X122237500Y-119374500D01*
X122237500Y-118131122D01*
X122491500Y-118131122D01*
X122491500Y-119374500D01*
X123735492Y-119374500D01*
X123855541Y-119136759D01*
X123755734Y-118852880D01*
X123602462Y-118593927D01*
X123401616Y-118369851D01*
X123160914Y-118189264D01*
X122889607Y-118059106D01*
X122729240Y-118010464D01*
X122491500Y-118131122D01*
X122237500Y-118131122D01*
X121999760Y-118010464D01*
X121839393Y-118059106D01*
X121568086Y-118189264D01*
X121327384Y-118369851D01*
X121126538Y-118593927D01*
X120973266Y-118852880D01*
X120873459Y-119136759D01*
X86181742Y-119136759D01*
X86558669Y-118980631D01*
X86924729Y-118736038D01*
X87236038Y-118424729D01*
X87480631Y-118058669D01*
X87649110Y-117651925D01*
X87735000Y-117220128D01*
X87735000Y-116779872D01*
X87649110Y-116348075D01*
X87480631Y-115941331D01*
X87236038Y-115575271D01*
X86924729Y-115263962D01*
X86558669Y-115019369D01*
X86151925Y-114850890D01*
X85720128Y-114765000D01*
X85279872Y-114765000D01*
X84848075Y-114850890D01*
X84441331Y-115019369D01*
X84075271Y-115263962D01*
X83763962Y-115575271D01*
X83519369Y-115941331D01*
X83350890Y-116348075D01*
X83265000Y-116779872D01*
X78890000Y-116779872D01*
X78890000Y-111323157D01*
X82094057Y-108119100D01*
X82081000Y-108184740D01*
X82081000Y-108477260D01*
X82138068Y-108764158D01*
X82250010Y-109034411D01*
X82412525Y-109277632D01*
X82619368Y-109484475D01*
X82778225Y-109590620D01*
X82777203Y-109601000D01*
X82792359Y-109754886D01*
X82837246Y-109902859D01*
X82837247Y-109902860D01*
X82910139Y-110039233D01*
X82936210Y-110071000D01*
X82983655Y-110128812D01*
X82983659Y-110128816D01*
X83008237Y-110158764D01*
X83038185Y-110183342D01*
X87746158Y-114891316D01*
X87770736Y-114921264D01*
X87800684Y-114945842D01*
X87800687Y-114945845D01*
X87830059Y-114969950D01*
X87890267Y-115019362D01*
X88003235Y-115079744D01*
X88026640Y-115092254D01*
X88174612Y-115137141D01*
X88188990Y-115138557D01*
X88289939Y-115148500D01*
X88289946Y-115148500D01*
X88328499Y-115152297D01*
X88367052Y-115148500D01*
X105815947Y-115148500D01*
X105854500Y-115152297D01*
X105893053Y-115148500D01*
X105893061Y-115148500D01*
X106008387Y-115137141D01*
X106156360Y-115092254D01*
X106292733Y-115019362D01*
X106412264Y-114921264D01*
X106436847Y-114891310D01*
X107398317Y-113929841D01*
X107428264Y-113905264D01*
X107526362Y-113785733D01*
X107599254Y-113649360D01*
X107609424Y-113615835D01*
X107644142Y-113501387D01*
X107651520Y-113426474D01*
X107655500Y-113386061D01*
X107655500Y-113386056D01*
X107659297Y-113347500D01*
X107655500Y-113308945D01*
X107655500Y-113084974D01*
X107817132Y-112976975D01*
X108023975Y-112770132D01*
X108186490Y-112526911D01*
X108298432Y-112256658D01*
X108355500Y-111969760D01*
X108355500Y-111863702D01*
X118749903Y-111863702D01*
X118821486Y-112107671D01*
X119076996Y-112228571D01*
X119351184Y-112297300D01*
X119633512Y-112311217D01*
X119913130Y-112269787D01*
X120179292Y-112174603D01*
X120304514Y-112107671D01*
X120376097Y-111863702D01*
X119563000Y-111050605D01*
X118749903Y-111863702D01*
X108355500Y-111863702D01*
X108355500Y-111677240D01*
X108298432Y-111390342D01*
X108186490Y-111120089D01*
X108067169Y-110941512D01*
X118122783Y-110941512D01*
X118164213Y-111221130D01*
X118259397Y-111487292D01*
X118326329Y-111612514D01*
X118570298Y-111684097D01*
X119383395Y-110871000D01*
X119742605Y-110871000D01*
X120555702Y-111684097D01*
X120799671Y-111612514D01*
X120920571Y-111357004D01*
X120989300Y-111082816D01*
X121003217Y-110800488D01*
X120961787Y-110520870D01*
X120866603Y-110254708D01*
X120799671Y-110129486D01*
X120600340Y-110071000D01*
X121624928Y-110071000D01*
X121624928Y-111671000D01*
X121637188Y-111795482D01*
X121673498Y-111915180D01*
X121732463Y-112025494D01*
X121811815Y-112122185D01*
X121908506Y-112201537D01*
X122018820Y-112260502D01*
X122138518Y-112296812D01*
X122263000Y-112309072D01*
X123863000Y-112309072D01*
X123987482Y-112296812D01*
X124107180Y-112260502D01*
X124217494Y-112201537D01*
X124314185Y-112122185D01*
X124393537Y-112025494D01*
X124452502Y-111915180D01*
X124488812Y-111795482D01*
X124501072Y-111671000D01*
X124501072Y-110071000D01*
X124488812Y-109946518D01*
X124452502Y-109826820D01*
X124393537Y-109716506D01*
X124314185Y-109619815D01*
X124217494Y-109540463D01*
X124107180Y-109481498D01*
X123987482Y-109445188D01*
X123863000Y-109432928D01*
X122263000Y-109432928D01*
X122138518Y-109445188D01*
X122018820Y-109481498D01*
X121908506Y-109540463D01*
X121811815Y-109619815D01*
X121732463Y-109716506D01*
X121673498Y-109826820D01*
X121637188Y-109946518D01*
X121624928Y-110071000D01*
X120600340Y-110071000D01*
X120555702Y-110057903D01*
X119742605Y-110871000D01*
X119383395Y-110871000D01*
X118570298Y-110057903D01*
X118326329Y-110129486D01*
X118205429Y-110384996D01*
X118136700Y-110659184D01*
X118122783Y-110941512D01*
X108067169Y-110941512D01*
X108023975Y-110876868D01*
X107817132Y-110670025D01*
X107573911Y-110507510D01*
X107303658Y-110395568D01*
X107016760Y-110338500D01*
X106724240Y-110338500D01*
X106437342Y-110395568D01*
X106167089Y-110507510D01*
X105923868Y-110670025D01*
X105717025Y-110876868D01*
X105595305Y-111059034D01*
X105525678Y-110942145D01*
X105330769Y-110725912D01*
X105097420Y-110551859D01*
X104834599Y-110426675D01*
X104687390Y-110382024D01*
X104457500Y-110503345D01*
X104457500Y-111696500D01*
X104477500Y-111696500D01*
X104477500Y-111950500D01*
X104457500Y-111950500D01*
X104457500Y-113143655D01*
X104687390Y-113264976D01*
X104834599Y-113220325D01*
X105097420Y-113095141D01*
X105330769Y-112921088D01*
X105525678Y-112704855D01*
X105595305Y-112587966D01*
X105717025Y-112770132D01*
X105923868Y-112976975D01*
X106047955Y-113059887D01*
X105529343Y-113578500D01*
X88653658Y-113578500D01*
X86048658Y-110973500D01*
X97762428Y-110973500D01*
X97762428Y-112673500D01*
X97774688Y-112797982D01*
X97810998Y-112917680D01*
X97869963Y-113027994D01*
X97949315Y-113124685D01*
X98046006Y-113204037D01*
X98156320Y-113263002D01*
X98276018Y-113299312D01*
X98400500Y-113311572D01*
X100100500Y-113311572D01*
X100224982Y-113299312D01*
X100344680Y-113263002D01*
X100454994Y-113204037D01*
X100551685Y-113124685D01*
X100631037Y-113027994D01*
X100690002Y-112917680D01*
X100712013Y-112845120D01*
X100843868Y-112976975D01*
X101087089Y-113139490D01*
X101357342Y-113251432D01*
X101644240Y-113308500D01*
X101936760Y-113308500D01*
X102223658Y-113251432D01*
X102493911Y-113139490D01*
X102737132Y-112976975D01*
X102943975Y-112770132D01*
X103065695Y-112587966D01*
X103135322Y-112704855D01*
X103330231Y-112921088D01*
X103563580Y-113095141D01*
X103826401Y-113220325D01*
X103973610Y-113264976D01*
X104203500Y-113143655D01*
X104203500Y-111950500D01*
X104183500Y-111950500D01*
X104183500Y-111696500D01*
X104203500Y-111696500D01*
X104203500Y-110503345D01*
X103973610Y-110382024D01*
X103826401Y-110426675D01*
X103563580Y-110551859D01*
X103330231Y-110725912D01*
X103135322Y-110942145D01*
X103065695Y-111059034D01*
X102943975Y-110876868D01*
X102737132Y-110670025D01*
X102493911Y-110507510D01*
X102223658Y-110395568D01*
X101936760Y-110338500D01*
X101644240Y-110338500D01*
X101357342Y-110395568D01*
X101087089Y-110507510D01*
X100843868Y-110670025D01*
X100712013Y-110801880D01*
X100690002Y-110729320D01*
X100631037Y-110619006D01*
X100551685Y-110522315D01*
X100454994Y-110442963D01*
X100344680Y-110383998D01*
X100224982Y-110347688D01*
X100100500Y-110335428D01*
X98400500Y-110335428D01*
X98276018Y-110347688D01*
X98156320Y-110383998D01*
X98046006Y-110442963D01*
X97949315Y-110522315D01*
X97869963Y-110619006D01*
X97810998Y-110729320D01*
X97774688Y-110849018D01*
X97762428Y-110973500D01*
X86048658Y-110973500D01*
X84953456Y-109878298D01*
X118749903Y-109878298D01*
X119563000Y-110691395D01*
X120376097Y-109878298D01*
X120304514Y-109634329D01*
X120049004Y-109513429D01*
X119774816Y-109444700D01*
X119492488Y-109430783D01*
X119212870Y-109472213D01*
X118946708Y-109567397D01*
X118821486Y-109634329D01*
X118749903Y-109878298D01*
X84953456Y-109878298D01*
X84536132Y-109460975D01*
X84719475Y-109277632D01*
X84836000Y-109103240D01*
X84952525Y-109277632D01*
X85159368Y-109484475D01*
X85402589Y-109646990D01*
X85672842Y-109758932D01*
X85959740Y-109816000D01*
X86252260Y-109816000D01*
X86539158Y-109758932D01*
X86809411Y-109646990D01*
X87052632Y-109484475D01*
X87259475Y-109277632D01*
X87376000Y-109103240D01*
X87492525Y-109277632D01*
X87699368Y-109484475D01*
X87942589Y-109646990D01*
X88212842Y-109758932D01*
X88499740Y-109816000D01*
X88792260Y-109816000D01*
X89079158Y-109758932D01*
X89349411Y-109646990D01*
X89592632Y-109484475D01*
X89799475Y-109277632D01*
X89916000Y-109103240D01*
X90032525Y-109277632D01*
X90239368Y-109484475D01*
X90482589Y-109646990D01*
X90752842Y-109758932D01*
X91039740Y-109816000D01*
X91332260Y-109816000D01*
X91619158Y-109758932D01*
X91889411Y-109646990D01*
X92132632Y-109484475D01*
X92264487Y-109352620D01*
X92286498Y-109425180D01*
X92345463Y-109535494D01*
X92424815Y-109632185D01*
X92521506Y-109711537D01*
X92631820Y-109770502D01*
X92751518Y-109806812D01*
X92876000Y-109819072D01*
X93440250Y-109816000D01*
X93599000Y-109657250D01*
X93599000Y-108458000D01*
X93853000Y-108458000D01*
X93853000Y-109657250D01*
X94011750Y-109816000D01*
X94576000Y-109819072D01*
X94700482Y-109806812D01*
X94820180Y-109770502D01*
X94930494Y-109711537D01*
X95027185Y-109632185D01*
X95106537Y-109535494D01*
X95165502Y-109425180D01*
X95201812Y-109305482D01*
X95214072Y-109181000D01*
X95211000Y-108616750D01*
X95052250Y-108458000D01*
X93853000Y-108458000D01*
X93599000Y-108458000D01*
X93579000Y-108458000D01*
X93579000Y-108204000D01*
X93599000Y-108204000D01*
X93599000Y-107004750D01*
X93853000Y-107004750D01*
X93853000Y-108204000D01*
X95052250Y-108204000D01*
X95211000Y-108045250D01*
X95214072Y-107481000D01*
X95201812Y-107356518D01*
X95165502Y-107236820D01*
X95106537Y-107126506D01*
X95027185Y-107029815D01*
X94930494Y-106950463D01*
X94820180Y-106891498D01*
X94700482Y-106855188D01*
X94576000Y-106842928D01*
X94011750Y-106846000D01*
X93853000Y-107004750D01*
X93599000Y-107004750D01*
X93440250Y-106846000D01*
X92876000Y-106842928D01*
X92751518Y-106855188D01*
X92631820Y-106891498D01*
X92521506Y-106950463D01*
X92424815Y-107029815D01*
X92345463Y-107126506D01*
X92286498Y-107236820D01*
X92264487Y-107309380D01*
X92132632Y-107177525D01*
X91889411Y-107015010D01*
X91619158Y-106903068D01*
X91332260Y-106846000D01*
X91039740Y-106846000D01*
X90752842Y-106903068D01*
X90482589Y-107015010D01*
X90239368Y-107177525D01*
X90032525Y-107384368D01*
X89916000Y-107558760D01*
X89799475Y-107384368D01*
X89592632Y-107177525D01*
X89349411Y-107015010D01*
X89079158Y-106903068D01*
X88792260Y-106846000D01*
X88499740Y-106846000D01*
X88212842Y-106903068D01*
X87942589Y-107015010D01*
X87699368Y-107177525D01*
X87492525Y-107384368D01*
X87376000Y-107558760D01*
X87259475Y-107384368D01*
X87052632Y-107177525D01*
X86809411Y-107015010D01*
X86539158Y-106903068D01*
X86388130Y-106873027D01*
X87812157Y-105449000D01*
X99222928Y-105449000D01*
X99222928Y-107149000D01*
X99235188Y-107273482D01*
X99271498Y-107393180D01*
X99330463Y-107503494D01*
X99409815Y-107600185D01*
X99506506Y-107679537D01*
X99616820Y-107738502D01*
X99736518Y-107774812D01*
X99861000Y-107787072D01*
X101561000Y-107787072D01*
X101685482Y-107774812D01*
X101805180Y-107738502D01*
X101915494Y-107679537D01*
X102012185Y-107600185D01*
X102091537Y-107503494D01*
X102150502Y-107393180D01*
X102172513Y-107320620D01*
X102304368Y-107452475D01*
X102547589Y-107614990D01*
X102817842Y-107726932D01*
X103104740Y-107784000D01*
X103397260Y-107784000D01*
X103684158Y-107726932D01*
X103954411Y-107614990D01*
X104197632Y-107452475D01*
X104404475Y-107245632D01*
X104521000Y-107071240D01*
X104637525Y-107245632D01*
X104844368Y-107452475D01*
X105087589Y-107614990D01*
X105357842Y-107726932D01*
X105644740Y-107784000D01*
X105937260Y-107784000D01*
X106224158Y-107726932D01*
X106494411Y-107614990D01*
X106737632Y-107452475D01*
X106944475Y-107245632D01*
X107066195Y-107063466D01*
X107135822Y-107180355D01*
X107330731Y-107396588D01*
X107564080Y-107570641D01*
X107826901Y-107695825D01*
X107974110Y-107740476D01*
X108204000Y-107619155D01*
X108204000Y-106426000D01*
X108184000Y-106426000D01*
X108184000Y-106172000D01*
X108204000Y-106172000D01*
X108204000Y-104978845D01*
X108458000Y-104978845D01*
X108458000Y-106172000D01*
X108478000Y-106172000D01*
X108478000Y-106426000D01*
X108458000Y-106426000D01*
X108458000Y-107619155D01*
X108687890Y-107740476D01*
X108835099Y-107695825D01*
X109097920Y-107570641D01*
X109331269Y-107396588D01*
X109526178Y-107180355D01*
X109595805Y-107063466D01*
X109717525Y-107245632D01*
X109924368Y-107452475D01*
X110167589Y-107614990D01*
X110437842Y-107726932D01*
X110724740Y-107784000D01*
X111017260Y-107784000D01*
X111304158Y-107726932D01*
X111574411Y-107614990D01*
X111817632Y-107452475D01*
X112024475Y-107245632D01*
X112141000Y-107071240D01*
X112257525Y-107245632D01*
X112464368Y-107452475D01*
X112707589Y-107614990D01*
X112977842Y-107726932D01*
X113264740Y-107784000D01*
X113557260Y-107784000D01*
X113844158Y-107726932D01*
X114114411Y-107614990D01*
X114357632Y-107452475D01*
X114564475Y-107245632D01*
X114726990Y-107002411D01*
X114838932Y-106732158D01*
X114896000Y-106445260D01*
X114896000Y-106152740D01*
X114838932Y-105865842D01*
X114726990Y-105595589D01*
X114564475Y-105352368D01*
X114357632Y-105145525D01*
X114222315Y-105055109D01*
X123107997Y-105055109D01*
X123294073Y-105396266D01*
X123711409Y-105612013D01*
X124162815Y-105742196D01*
X124630946Y-105781813D01*
X125097811Y-105729342D01*
X125545468Y-105586797D01*
X125901927Y-105396266D01*
X126088003Y-105055109D01*
X124598000Y-103565105D01*
X123107997Y-105055109D01*
X114222315Y-105055109D01*
X114114411Y-104983010D01*
X113844158Y-104871068D01*
X113557260Y-104814000D01*
X113264740Y-104814000D01*
X112977842Y-104871068D01*
X112707589Y-104983010D01*
X112464368Y-105145525D01*
X112257525Y-105352368D01*
X112141000Y-105526760D01*
X112024475Y-105352368D01*
X111817632Y-105145525D01*
X111574411Y-104983010D01*
X111304158Y-104871068D01*
X111017260Y-104814000D01*
X110724740Y-104814000D01*
X110437842Y-104871068D01*
X110167589Y-104983010D01*
X109924368Y-105145525D01*
X109717525Y-105352368D01*
X109595805Y-105534534D01*
X109526178Y-105417645D01*
X109331269Y-105201412D01*
X109097920Y-105027359D01*
X108835099Y-104902175D01*
X108687890Y-104857524D01*
X108458000Y-104978845D01*
X108204000Y-104978845D01*
X107974110Y-104857524D01*
X107826901Y-104902175D01*
X107564080Y-105027359D01*
X107330731Y-105201412D01*
X107135822Y-105417645D01*
X107066195Y-105534534D01*
X106944475Y-105352368D01*
X106737632Y-105145525D01*
X106494411Y-104983010D01*
X106224158Y-104871068D01*
X105937260Y-104814000D01*
X105644740Y-104814000D01*
X105357842Y-104871068D01*
X105087589Y-104983010D01*
X104844368Y-105145525D01*
X104637525Y-105352368D01*
X104521000Y-105526760D01*
X104404475Y-105352368D01*
X104197632Y-105145525D01*
X103954411Y-104983010D01*
X103684158Y-104871068D01*
X103397260Y-104814000D01*
X103104740Y-104814000D01*
X102817842Y-104871068D01*
X102547589Y-104983010D01*
X102304368Y-105145525D01*
X102172513Y-105277380D01*
X102150502Y-105204820D01*
X102091537Y-105094506D01*
X102012185Y-104997815D01*
X101915494Y-104918463D01*
X101805180Y-104859498D01*
X101685482Y-104823188D01*
X101561000Y-104810928D01*
X99861000Y-104810928D01*
X99736518Y-104823188D01*
X99616820Y-104859498D01*
X99506506Y-104918463D01*
X99409815Y-104997815D01*
X99330463Y-105094506D01*
X99271498Y-105204820D01*
X99235188Y-105324518D01*
X99222928Y-105449000D01*
X87812157Y-105449000D01*
X88195273Y-105065884D01*
X91439006Y-105065884D01*
X91457943Y-105084821D01*
X91627461Y-105198089D01*
X91815819Y-105276110D01*
X92015778Y-105315884D01*
X92219656Y-105315884D01*
X92419615Y-105276110D01*
X92607973Y-105198089D01*
X92777491Y-105084821D01*
X92921654Y-104940658D01*
X93034922Y-104771140D01*
X93112943Y-104582782D01*
X93152717Y-104382823D01*
X93152717Y-104178945D01*
X93112943Y-103978986D01*
X93034922Y-103790628D01*
X92921654Y-103621110D01*
X92777491Y-103476947D01*
X92689938Y-103418446D01*
X122201687Y-103418446D01*
X122254158Y-103885311D01*
X122396703Y-104332968D01*
X122587234Y-104689427D01*
X122928391Y-104875503D01*
X124418395Y-103385500D01*
X122928391Y-101895497D01*
X122587234Y-102081573D01*
X122371487Y-102498909D01*
X122241304Y-102950315D01*
X122201687Y-103418446D01*
X92689938Y-103418446D01*
X92607973Y-103363679D01*
X92419615Y-103285658D01*
X92219656Y-103245884D01*
X92015778Y-103245884D01*
X91815819Y-103285658D01*
X91627461Y-103363679D01*
X91457943Y-103476947D01*
X91439006Y-103495884D01*
X88622274Y-103495884D01*
X90558658Y-101559500D01*
X91777289Y-101559500D01*
X91796226Y-101578437D01*
X91965744Y-101691705D01*
X92154102Y-101769726D01*
X92354061Y-101809500D01*
X92557939Y-101809500D01*
X92757898Y-101769726D01*
X92887866Y-101715891D01*
X123107997Y-101715891D01*
X124598000Y-103205895D01*
X126088003Y-101715891D01*
X125901927Y-101374734D01*
X125484591Y-101158987D01*
X125033185Y-101028804D01*
X124565054Y-100989187D01*
X124098189Y-101041658D01*
X123650532Y-101184203D01*
X123294073Y-101374734D01*
X123107997Y-101715891D01*
X92887866Y-101715891D01*
X92946256Y-101691705D01*
X93115774Y-101578437D01*
X93259937Y-101434274D01*
X93373205Y-101264756D01*
X93451226Y-101076398D01*
X93491000Y-100876439D01*
X93491000Y-100672561D01*
X93451226Y-100472602D01*
X93373205Y-100284244D01*
X93259937Y-100114726D01*
X93115774Y-99970563D01*
X92946256Y-99857295D01*
X92757898Y-99779274D01*
X92557939Y-99739500D01*
X92354061Y-99739500D01*
X92154102Y-99779274D01*
X91965744Y-99857295D01*
X91796226Y-99970563D01*
X91777289Y-99989500D01*
X90985657Y-99989500D01*
X93864657Y-97110500D01*
X93891439Y-97110500D01*
X94091398Y-97070726D01*
X94279756Y-96992705D01*
X94449274Y-96879437D01*
X94593150Y-96735561D01*
X111296500Y-96735561D01*
X111296500Y-96939439D01*
X111336274Y-97139398D01*
X111414295Y-97327756D01*
X111527563Y-97497274D01*
X111671726Y-97641437D01*
X111841244Y-97754705D01*
X112029602Y-97832726D01*
X112229561Y-97872500D01*
X112433439Y-97872500D01*
X112633398Y-97832726D01*
X112821756Y-97754705D01*
X112991274Y-97641437D01*
X113010211Y-97622500D01*
X116102947Y-97622500D01*
X116141500Y-97626297D01*
X116180053Y-97622500D01*
X116180061Y-97622500D01*
X116295387Y-97611141D01*
X116443360Y-97566254D01*
X116579733Y-97493362D01*
X116699264Y-97395264D01*
X116723847Y-97365310D01*
X118497723Y-95591435D01*
X118460068Y-95682342D01*
X118403000Y-95969240D01*
X118403000Y-96261760D01*
X118440924Y-96452418D01*
X116935843Y-97957500D01*
X113899211Y-97957500D01*
X113880274Y-97938563D01*
X113710756Y-97825295D01*
X113522398Y-97747274D01*
X113322439Y-97707500D01*
X113118561Y-97707500D01*
X112918602Y-97747274D01*
X112730244Y-97825295D01*
X112560726Y-97938563D01*
X112416563Y-98082726D01*
X112303295Y-98252244D01*
X112225274Y-98440602D01*
X112185500Y-98640561D01*
X112185500Y-98844439D01*
X112225274Y-99044398D01*
X112303295Y-99232756D01*
X112416563Y-99402274D01*
X112560726Y-99546437D01*
X112730244Y-99659705D01*
X112918602Y-99737726D01*
X113118561Y-99777500D01*
X113322439Y-99777500D01*
X113522398Y-99737726D01*
X113710756Y-99659705D01*
X113880274Y-99546437D01*
X113899211Y-99527500D01*
X117222447Y-99527500D01*
X117261000Y-99531297D01*
X117299553Y-99527500D01*
X117299561Y-99527500D01*
X117414887Y-99516141D01*
X117562860Y-99471254D01*
X117699233Y-99398362D01*
X117818764Y-99300264D01*
X117843347Y-99270310D01*
X118399928Y-98713729D01*
X118399928Y-99465500D01*
X118412188Y-99589982D01*
X118448498Y-99709680D01*
X118507463Y-99819994D01*
X118586815Y-99916685D01*
X118683506Y-99996037D01*
X118793820Y-100055002D01*
X118913518Y-100091312D01*
X119038000Y-100103572D01*
X120738000Y-100103572D01*
X120862482Y-100091312D01*
X120982180Y-100055002D01*
X121092494Y-99996037D01*
X121180876Y-99923504D01*
X121380883Y-100018871D01*
X121664411Y-100090839D01*
X121956531Y-100106111D01*
X122246019Y-100064099D01*
X122521747Y-99966419D01*
X122659157Y-99892972D01*
X122736792Y-99643897D01*
X121888000Y-98795105D01*
X121873858Y-98809248D01*
X121694253Y-98629643D01*
X121708395Y-98615500D01*
X122067605Y-98615500D01*
X122916397Y-99464292D01*
X123165472Y-99386657D01*
X123291371Y-99122617D01*
X123363339Y-98839089D01*
X123378611Y-98546969D01*
X123336599Y-98257481D01*
X123238919Y-97981753D01*
X123165472Y-97844343D01*
X122916397Y-97766708D01*
X122067605Y-98615500D01*
X121708395Y-98615500D01*
X121694253Y-98601358D01*
X121873858Y-98421753D01*
X121888000Y-98435895D01*
X122736792Y-97587103D01*
X122671590Y-97377916D01*
X122834632Y-97268975D01*
X123041475Y-97062132D01*
X123203990Y-96818911D01*
X123315932Y-96548658D01*
X123373000Y-96261760D01*
X123373000Y-95969240D01*
X123315932Y-95682342D01*
X123203990Y-95412089D01*
X123041475Y-95168868D01*
X122834632Y-94962025D01*
X122670804Y-94852558D01*
X122665579Y-94799510D01*
X122661642Y-94759532D01*
X122616754Y-94611559D01*
X122584253Y-94550754D01*
X122543862Y-94475186D01*
X122445764Y-94355655D01*
X122415805Y-94331068D01*
X121981428Y-93896690D01*
X121956845Y-93866736D01*
X121837314Y-93768638D01*
X121700941Y-93695746D01*
X121552968Y-93650859D01*
X121437642Y-93639500D01*
X121437634Y-93639500D01*
X121399081Y-93635703D01*
X121360528Y-93639500D01*
X118593052Y-93639500D01*
X118554499Y-93635703D01*
X118515946Y-93639500D01*
X118515939Y-93639500D01*
X118414990Y-93649443D01*
X118400612Y-93650859D01*
X118366172Y-93661306D01*
X118252640Y-93695746D01*
X118116267Y-93768638D01*
X118056059Y-93818050D01*
X118026687Y-93842155D01*
X118026684Y-93842158D01*
X117996736Y-93866736D01*
X117972158Y-93896684D01*
X115816343Y-96052500D01*
X113010211Y-96052500D01*
X112991274Y-96033563D01*
X112821756Y-95920295D01*
X112633398Y-95842274D01*
X112433439Y-95802500D01*
X112229561Y-95802500D01*
X112029602Y-95842274D01*
X111841244Y-95920295D01*
X111671726Y-96033563D01*
X111527563Y-96177726D01*
X111414295Y-96347244D01*
X111336274Y-96535602D01*
X111296500Y-96735561D01*
X94593150Y-96735561D01*
X94593437Y-96735274D01*
X94706705Y-96565756D01*
X94784726Y-96377398D01*
X94824500Y-96177439D01*
X94824500Y-95973561D01*
X94784726Y-95773602D01*
X94706705Y-95585244D01*
X94593437Y-95415726D01*
X94449274Y-95271563D01*
X94279756Y-95158295D01*
X94091398Y-95080274D01*
X93891439Y-95040500D01*
X93687561Y-95040500D01*
X93487602Y-95080274D01*
X93299244Y-95158295D01*
X93129726Y-95271563D01*
X92985563Y-95415726D01*
X92872295Y-95585244D01*
X92794274Y-95773602D01*
X92754500Y-95973561D01*
X92754500Y-96000343D01*
X87418965Y-101335878D01*
X87404205Y-101300244D01*
X87328705Y-101187250D01*
X87404205Y-101074256D01*
X87482226Y-100885898D01*
X87522000Y-100685939D01*
X87522000Y-100482061D01*
X87482226Y-100282102D01*
X87404205Y-100093744D01*
X87290937Y-99924226D01*
X87146774Y-99780063D01*
X86977256Y-99666795D01*
X86788898Y-99588774D01*
X86588939Y-99549000D01*
X86385061Y-99549000D01*
X86185102Y-99588774D01*
X85996744Y-99666795D01*
X85827226Y-99780063D01*
X85808289Y-99799000D01*
X81478157Y-99799000D01*
X80846347Y-99167190D01*
X80821764Y-99137236D01*
X80702233Y-99039138D01*
X80565860Y-98966246D01*
X80417887Y-98921359D01*
X80302561Y-98910000D01*
X80302553Y-98910000D01*
X80264000Y-98906203D01*
X80225447Y-98910000D01*
X77604658Y-98910000D01*
X74887747Y-96193089D01*
X77926500Y-96193089D01*
X77926500Y-96465911D01*
X77979725Y-96733489D01*
X78084129Y-96985543D01*
X78235701Y-97212386D01*
X78428614Y-97405299D01*
X78655457Y-97556871D01*
X78907511Y-97661275D01*
X79175089Y-97714500D01*
X79447911Y-97714500D01*
X79715489Y-97661275D01*
X79967543Y-97556871D01*
X80194386Y-97405299D01*
X80387299Y-97212386D01*
X80538871Y-96985543D01*
X80643275Y-96733489D01*
X80696500Y-96465911D01*
X80696500Y-96193089D01*
X80643275Y-95925511D01*
X80538871Y-95673457D01*
X80387299Y-95446614D01*
X80194386Y-95253701D01*
X79967543Y-95102129D01*
X79715489Y-94997725D01*
X79447911Y-94944500D01*
X79175089Y-94944500D01*
X78907511Y-94997725D01*
X78655457Y-95102129D01*
X78428614Y-95253701D01*
X78235701Y-95446614D01*
X78084129Y-95673457D01*
X77979725Y-95925511D01*
X77926500Y-96193089D01*
X74887747Y-96193089D01*
X71988847Y-93294190D01*
X71964264Y-93264236D01*
X71844733Y-93166138D01*
X71708360Y-93093246D01*
X71560387Y-93048359D01*
X71445061Y-93037000D01*
X71445053Y-93037000D01*
X71406500Y-93033203D01*
X71367947Y-93037000D01*
X70824416Y-93037000D01*
X70806451Y-93015109D01*
X123107997Y-93015109D01*
X123294073Y-93356266D01*
X123711409Y-93572013D01*
X124162815Y-93702196D01*
X124630946Y-93741813D01*
X125097811Y-93689342D01*
X125545468Y-93546797D01*
X125901927Y-93356266D01*
X126088003Y-93015109D01*
X124598000Y-91525105D01*
X123107997Y-93015109D01*
X70806451Y-93015109D01*
X70748502Y-92944498D01*
X70599238Y-92822000D01*
X70748502Y-92699502D01*
X70902833Y-92511449D01*
X71017511Y-92296901D01*
X71088130Y-92064102D01*
X71111975Y-91822000D01*
X71088130Y-91579898D01*
X71017511Y-91347099D01*
X70902833Y-91132551D01*
X70748502Y-90944498D01*
X70560449Y-90790167D01*
X70345901Y-90675489D01*
X70113102Y-90604870D01*
X69931665Y-90587000D01*
X69260335Y-90587000D01*
X69078898Y-90604870D01*
X68846099Y-90675489D01*
X68631551Y-90790167D01*
X68443498Y-90944498D01*
X68289167Y-91132551D01*
X68174489Y-91347099D01*
X68103870Y-91579898D01*
X68080025Y-91822000D01*
X68103870Y-92064102D01*
X68174489Y-92296901D01*
X68289167Y-92511449D01*
X68443498Y-92699502D01*
X68592762Y-92822000D01*
X68443498Y-92944498D01*
X68367584Y-93037000D01*
X68366158Y-93037000D01*
X67650500Y-92321343D01*
X67650500Y-91789055D01*
X67654297Y-91750500D01*
X67650500Y-91711940D01*
X67650500Y-91711939D01*
X67645525Y-91661432D01*
X67639142Y-91596613D01*
X67594254Y-91448640D01*
X67588564Y-91437994D01*
X67521362Y-91312267D01*
X67423264Y-91192736D01*
X67393317Y-91168159D01*
X65930847Y-89705690D01*
X65906264Y-89675736D01*
X65786733Y-89577638D01*
X65686572Y-89524101D01*
X65686572Y-89383500D01*
X65674312Y-89259018D01*
X65638002Y-89139320D01*
X65579037Y-89029006D01*
X65499685Y-88932315D01*
X65402994Y-88852963D01*
X65292680Y-88793998D01*
X65172982Y-88757688D01*
X65048500Y-88745428D01*
X63348500Y-88745428D01*
X63224018Y-88757688D01*
X63104320Y-88793998D01*
X62994006Y-88852963D01*
X62897315Y-88932315D01*
X62817963Y-89029006D01*
X62758998Y-89139320D01*
X62736987Y-89211880D01*
X62605132Y-89080025D01*
X62361911Y-88917510D01*
X62091658Y-88805568D01*
X61804760Y-88748500D01*
X61512240Y-88748500D01*
X61225342Y-88805568D01*
X60955089Y-88917510D01*
X60711868Y-89080025D01*
X60505025Y-89286868D01*
X60342510Y-89530089D01*
X60230568Y-89800342D01*
X60173500Y-90087240D01*
X60173500Y-90379760D01*
X60230568Y-90666658D01*
X60342510Y-90936911D01*
X60505025Y-91180132D01*
X60711868Y-91386975D01*
X60955089Y-91549490D01*
X61225342Y-91661432D01*
X61512240Y-91718500D01*
X61804760Y-91718500D01*
X62091658Y-91661432D01*
X62361911Y-91549490D01*
X62605132Y-91386975D01*
X62736987Y-91255120D01*
X62758998Y-91327680D01*
X62817963Y-91437994D01*
X62897315Y-91534685D01*
X62994006Y-91614037D01*
X63104320Y-91673002D01*
X63224018Y-91709312D01*
X63348500Y-91721572D01*
X65048500Y-91721572D01*
X65172982Y-91709312D01*
X65292680Y-91673002D01*
X65402994Y-91614037D01*
X65499685Y-91534685D01*
X65517644Y-91512802D01*
X66080500Y-92075658D01*
X66080500Y-92607947D01*
X66076703Y-92646500D01*
X66080500Y-92685053D01*
X66080500Y-92685061D01*
X66085893Y-92739808D01*
X66091859Y-92800386D01*
X66136746Y-92948359D01*
X66159477Y-92990886D01*
X66209639Y-93084733D01*
X66216626Y-93093246D01*
X66283155Y-93174312D01*
X66283159Y-93174316D01*
X66307737Y-93204264D01*
X66337685Y-93228842D01*
X67458658Y-94349815D01*
X67483236Y-94379764D01*
X67513184Y-94404342D01*
X67513187Y-94404345D01*
X67523926Y-94413158D01*
X67602767Y-94477862D01*
X67739140Y-94550754D01*
X67887113Y-94595641D01*
X68002439Y-94607000D01*
X68002446Y-94607000D01*
X68040999Y-94610797D01*
X68079552Y-94607000D01*
X68367584Y-94607000D01*
X68443498Y-94699502D01*
X68592762Y-94822000D01*
X68443498Y-94944498D01*
X68289167Y-95132551D01*
X68174489Y-95347099D01*
X68103870Y-95579898D01*
X68080025Y-95822000D01*
X68103870Y-96064102D01*
X68174489Y-96296901D01*
X68289167Y-96511449D01*
X68443498Y-96699502D01*
X68592762Y-96822000D01*
X68443498Y-96944498D01*
X68289167Y-97132551D01*
X68174489Y-97347099D01*
X68103870Y-97579898D01*
X68080025Y-97822000D01*
X68103870Y-98064102D01*
X68174489Y-98296901D01*
X68289167Y-98511449D01*
X68415436Y-98665309D01*
X68366506Y-98691463D01*
X68269815Y-98770815D01*
X68190463Y-98867506D01*
X68131498Y-98977820D01*
X68095188Y-99097518D01*
X68082928Y-99222000D01*
X68086000Y-99536250D01*
X68244750Y-99695000D01*
X69469000Y-99695000D01*
X69469000Y-99675000D01*
X69723000Y-99675000D01*
X69723000Y-99695000D01*
X70947250Y-99695000D01*
X71106000Y-99536250D01*
X71109072Y-99222000D01*
X71096812Y-99097518D01*
X71060502Y-98977820D01*
X71001537Y-98867506D01*
X70922185Y-98770815D01*
X70825494Y-98691463D01*
X70776564Y-98665309D01*
X70824416Y-98607000D01*
X72477843Y-98607000D01*
X77967158Y-104096316D01*
X77991736Y-104126264D01*
X78021684Y-104150842D01*
X78021687Y-104150845D01*
X78051059Y-104174950D01*
X78111267Y-104224362D01*
X78247640Y-104297254D01*
X78361172Y-104331694D01*
X78395612Y-104342141D01*
X78409990Y-104343557D01*
X78510939Y-104353500D01*
X78510946Y-104353500D01*
X78549499Y-104357297D01*
X78588052Y-104353500D01*
X81138916Y-104353500D01*
X81105140Y-104363746D01*
X80968767Y-104436638D01*
X80908559Y-104486050D01*
X80879187Y-104510155D01*
X80879184Y-104510158D01*
X80849236Y-104534736D01*
X80824658Y-104564684D01*
X79074639Y-106314704D01*
X79036726Y-106124102D01*
X78958705Y-105935744D01*
X78845437Y-105766226D01*
X78701274Y-105622063D01*
X78531756Y-105508795D01*
X78343398Y-105430774D01*
X78143439Y-105391000D01*
X77939561Y-105391000D01*
X77739602Y-105430774D01*
X77551244Y-105508795D01*
X77381726Y-105622063D01*
X77362789Y-105641000D01*
X59316658Y-105641000D01*
X55002398Y-101326740D01*
X60173500Y-101326740D01*
X60173500Y-101619260D01*
X60230568Y-101906158D01*
X60342510Y-102176411D01*
X60505025Y-102419632D01*
X60711868Y-102626475D01*
X60955089Y-102788990D01*
X61225342Y-102900932D01*
X61512240Y-102958000D01*
X61804760Y-102958000D01*
X62091658Y-102900932D01*
X62361911Y-102788990D01*
X62605132Y-102626475D01*
X62736987Y-102494620D01*
X62758998Y-102567180D01*
X62817963Y-102677494D01*
X62897315Y-102774185D01*
X62994006Y-102853537D01*
X63104320Y-102912502D01*
X63224018Y-102948812D01*
X63348500Y-102961072D01*
X65048500Y-102961072D01*
X65172982Y-102948812D01*
X65292680Y-102912502D01*
X65402994Y-102853537D01*
X65499685Y-102774185D01*
X65579037Y-102677494D01*
X65638002Y-102567180D01*
X65674312Y-102447482D01*
X65686572Y-102323000D01*
X65686572Y-100623000D01*
X65674312Y-100498518D01*
X65651101Y-100422000D01*
X68082928Y-100422000D01*
X68095188Y-100546482D01*
X68131498Y-100666180D01*
X68190463Y-100776494D01*
X68269815Y-100873185D01*
X68366506Y-100952537D01*
X68476820Y-101011502D01*
X68596518Y-101047812D01*
X68721000Y-101060072D01*
X69310250Y-101057000D01*
X69469000Y-100898250D01*
X69469000Y-99949000D01*
X69723000Y-99949000D01*
X69723000Y-100898250D01*
X69881750Y-101057000D01*
X70471000Y-101060072D01*
X70595482Y-101047812D01*
X70715180Y-101011502D01*
X70825494Y-100952537D01*
X70922185Y-100873185D01*
X71001537Y-100776494D01*
X71060502Y-100666180D01*
X71096812Y-100546482D01*
X71109072Y-100422000D01*
X71106000Y-100107750D01*
X70947250Y-99949000D01*
X69723000Y-99949000D01*
X69469000Y-99949000D01*
X68244750Y-99949000D01*
X68086000Y-100107750D01*
X68082928Y-100422000D01*
X65651101Y-100422000D01*
X65638002Y-100378820D01*
X65579037Y-100268506D01*
X65499685Y-100171815D01*
X65402994Y-100092463D01*
X65292680Y-100033498D01*
X65172982Y-99997188D01*
X65048500Y-99984928D01*
X63348500Y-99984928D01*
X63224018Y-99997188D01*
X63104320Y-100033498D01*
X62994006Y-100092463D01*
X62897315Y-100171815D01*
X62817963Y-100268506D01*
X62758998Y-100378820D01*
X62736987Y-100451380D01*
X62605132Y-100319525D01*
X62361911Y-100157010D01*
X62091658Y-100045068D01*
X61804760Y-99988000D01*
X61512240Y-99988000D01*
X61225342Y-100045068D01*
X60955089Y-100157010D01*
X60711868Y-100319525D01*
X60505025Y-100526368D01*
X60342510Y-100769589D01*
X60230568Y-101039842D01*
X60173500Y-101326740D01*
X55002398Y-101326740D01*
X51255898Y-97580240D01*
X60173500Y-97580240D01*
X60173500Y-97872760D01*
X60230568Y-98159658D01*
X60342510Y-98429911D01*
X60505025Y-98673132D01*
X60711868Y-98879975D01*
X60955089Y-99042490D01*
X61225342Y-99154432D01*
X61512240Y-99211500D01*
X61804760Y-99211500D01*
X62091658Y-99154432D01*
X62361911Y-99042490D01*
X62605132Y-98879975D01*
X62736987Y-98748120D01*
X62758998Y-98820680D01*
X62817963Y-98930994D01*
X62897315Y-99027685D01*
X62994006Y-99107037D01*
X63104320Y-99166002D01*
X63224018Y-99202312D01*
X63348500Y-99214572D01*
X65048500Y-99214572D01*
X65172982Y-99202312D01*
X65292680Y-99166002D01*
X65402994Y-99107037D01*
X65499685Y-99027685D01*
X65579037Y-98930994D01*
X65638002Y-98820680D01*
X65674312Y-98700982D01*
X65686572Y-98576500D01*
X65686572Y-96876500D01*
X65674312Y-96752018D01*
X65638002Y-96632320D01*
X65579037Y-96522006D01*
X65499685Y-96425315D01*
X65402994Y-96345963D01*
X65292680Y-96286998D01*
X65172982Y-96250688D01*
X65048500Y-96238428D01*
X63348500Y-96238428D01*
X63224018Y-96250688D01*
X63104320Y-96286998D01*
X62994006Y-96345963D01*
X62897315Y-96425315D01*
X62817963Y-96522006D01*
X62758998Y-96632320D01*
X62736987Y-96704880D01*
X62605132Y-96573025D01*
X62361911Y-96410510D01*
X62091658Y-96298568D01*
X61804760Y-96241500D01*
X61512240Y-96241500D01*
X61225342Y-96298568D01*
X60955089Y-96410510D01*
X60711868Y-96573025D01*
X60505025Y-96779868D01*
X60342510Y-97023089D01*
X60230568Y-97293342D01*
X60173500Y-97580240D01*
X51255898Y-97580240D01*
X47509398Y-93833740D01*
X60173500Y-93833740D01*
X60173500Y-94126260D01*
X60230568Y-94413158D01*
X60342510Y-94683411D01*
X60505025Y-94926632D01*
X60711868Y-95133475D01*
X60955089Y-95295990D01*
X61225342Y-95407932D01*
X61512240Y-95465000D01*
X61804760Y-95465000D01*
X62091658Y-95407932D01*
X62361911Y-95295990D01*
X62605132Y-95133475D01*
X62736987Y-95001620D01*
X62758998Y-95074180D01*
X62817963Y-95184494D01*
X62897315Y-95281185D01*
X62994006Y-95360537D01*
X63104320Y-95419502D01*
X63224018Y-95455812D01*
X63348500Y-95468072D01*
X65048500Y-95468072D01*
X65172982Y-95455812D01*
X65292680Y-95419502D01*
X65402994Y-95360537D01*
X65499685Y-95281185D01*
X65579037Y-95184494D01*
X65638002Y-95074180D01*
X65674312Y-94954482D01*
X65686572Y-94830000D01*
X65686572Y-93130000D01*
X65674312Y-93005518D01*
X65638002Y-92885820D01*
X65579037Y-92775506D01*
X65499685Y-92678815D01*
X65402994Y-92599463D01*
X65292680Y-92540498D01*
X65172982Y-92504188D01*
X65048500Y-92491928D01*
X63348500Y-92491928D01*
X63224018Y-92504188D01*
X63104320Y-92540498D01*
X62994006Y-92599463D01*
X62897315Y-92678815D01*
X62817963Y-92775506D01*
X62758998Y-92885820D01*
X62736987Y-92958380D01*
X62605132Y-92826525D01*
X62361911Y-92664010D01*
X62091658Y-92552068D01*
X61804760Y-92495000D01*
X61512240Y-92495000D01*
X61225342Y-92552068D01*
X60955089Y-92664010D01*
X60711868Y-92826525D01*
X60505025Y-93033368D01*
X60342510Y-93276589D01*
X60230568Y-93546842D01*
X60173500Y-93833740D01*
X47509398Y-93833740D01*
X46187500Y-92511843D01*
X46187500Y-88353561D01*
X75419000Y-88353561D01*
X75419000Y-88557439D01*
X75458774Y-88757398D01*
X75536795Y-88945756D01*
X75650063Y-89115274D01*
X75794226Y-89259437D01*
X75963744Y-89372705D01*
X76152102Y-89450726D01*
X76352061Y-89490500D01*
X76555939Y-89490500D01*
X76755898Y-89450726D01*
X76944256Y-89372705D01*
X77113774Y-89259437D01*
X77132711Y-89240500D01*
X78251789Y-89240500D01*
X78270726Y-89259437D01*
X78440244Y-89372705D01*
X78628602Y-89450726D01*
X78828561Y-89490500D01*
X79032439Y-89490500D01*
X79232398Y-89450726D01*
X79420756Y-89372705D01*
X79590274Y-89259437D01*
X79734437Y-89115274D01*
X79847705Y-88945756D01*
X79925726Y-88757398D01*
X79965500Y-88557439D01*
X79965500Y-88353561D01*
X79925726Y-88153602D01*
X79847705Y-87965244D01*
X79734437Y-87795726D01*
X79590274Y-87651563D01*
X79420756Y-87538295D01*
X79232398Y-87460274D01*
X79032439Y-87420500D01*
X78828561Y-87420500D01*
X78628602Y-87460274D01*
X78440244Y-87538295D01*
X78270726Y-87651563D01*
X78251789Y-87670500D01*
X77132711Y-87670500D01*
X77113774Y-87651563D01*
X76944256Y-87538295D01*
X76755898Y-87460274D01*
X76555939Y-87420500D01*
X76352061Y-87420500D01*
X76152102Y-87460274D01*
X75963744Y-87538295D01*
X75794226Y-87651563D01*
X75650063Y-87795726D01*
X75536795Y-87965244D01*
X75458774Y-88153602D01*
X75419000Y-88353561D01*
X46187500Y-88353561D01*
X46187500Y-85260711D01*
X46206437Y-85241774D01*
X46319705Y-85072256D01*
X46397726Y-84883898D01*
X46437500Y-84683939D01*
X46437500Y-84480061D01*
X46397726Y-84280102D01*
X46319705Y-84091744D01*
X46206437Y-83922226D01*
X46062274Y-83778063D01*
X45892756Y-83664795D01*
X45704398Y-83586774D01*
X45504439Y-83547000D01*
X45300561Y-83547000D01*
X45100602Y-83586774D01*
X44912244Y-83664795D01*
X44742726Y-83778063D01*
X44598563Y-83922226D01*
X44485295Y-84091744D01*
X44407274Y-84280102D01*
X44367500Y-84480061D01*
X30660000Y-84480061D01*
X30660000Y-77279872D01*
X31265000Y-77279872D01*
X31265000Y-77720128D01*
X31350890Y-78151925D01*
X31519369Y-78558669D01*
X31763962Y-78924729D01*
X32075271Y-79236038D01*
X32441331Y-79480631D01*
X32848075Y-79649110D01*
X33279872Y-79735000D01*
X33720128Y-79735000D01*
X34151925Y-79649110D01*
X34558669Y-79480631D01*
X34924729Y-79236038D01*
X35236038Y-78924729D01*
X35480631Y-78558669D01*
X35649110Y-78151925D01*
X35735000Y-77720128D01*
X35735000Y-77279872D01*
X35651383Y-76859500D01*
X36992928Y-76859500D01*
X37005188Y-76983982D01*
X37041498Y-77103680D01*
X37100463Y-77213994D01*
X37179815Y-77310685D01*
X37276506Y-77390037D01*
X37386820Y-77449002D01*
X37506518Y-77485312D01*
X37631000Y-77497572D01*
X38195250Y-77494500D01*
X38354000Y-77335750D01*
X38354000Y-76136500D01*
X37154750Y-76136500D01*
X36996000Y-76295250D01*
X36992928Y-76859500D01*
X35651383Y-76859500D01*
X35649110Y-76848075D01*
X35480631Y-76441331D01*
X35236038Y-76075271D01*
X34924729Y-75763962D01*
X34558669Y-75519369D01*
X34151925Y-75350890D01*
X33720128Y-75265000D01*
X33279872Y-75265000D01*
X32848075Y-75350890D01*
X32441331Y-75519369D01*
X32075271Y-75763962D01*
X31763962Y-76075271D01*
X31519369Y-76441331D01*
X31350890Y-76848075D01*
X31265000Y-77279872D01*
X30660000Y-77279872D01*
X30660000Y-74660000D01*
X37238687Y-74660000D01*
X37179815Y-74708315D01*
G37*
X37179815Y-74708315D02*
X37100463Y-74805006D01*
X37041498Y-74915320D01*
X37005188Y-75035018D01*
X36992928Y-75159500D01*
X36996000Y-75723750D01*
X37154750Y-75882500D01*
X38354000Y-75882500D01*
X38354000Y-75862500D01*
X38608000Y-75862500D01*
X38608000Y-75882500D01*
X38628000Y-75882500D01*
X38628000Y-76136500D01*
X38608000Y-76136500D01*
X38608000Y-77335750D01*
X38766750Y-77494500D01*
X39331000Y-77497572D01*
X39455482Y-77485312D01*
X39575180Y-77449002D01*
X39685494Y-77390037D01*
X39782185Y-77310685D01*
X39861537Y-77213994D01*
X39920502Y-77103680D01*
X39942513Y-77031120D01*
X40074368Y-77162975D01*
X40317589Y-77325490D01*
X40587842Y-77437432D01*
X40874740Y-77494500D01*
X41167260Y-77494500D01*
X41454158Y-77437432D01*
X41724411Y-77325490D01*
X41792683Y-77279872D01*
X55265000Y-77279872D01*
X55265000Y-77720128D01*
X55350890Y-78151925D01*
X55519369Y-78558669D01*
X55763962Y-78924729D01*
X56075271Y-79236038D01*
X56441331Y-79480631D01*
X56848075Y-79649110D01*
X57279872Y-79735000D01*
X57720128Y-79735000D01*
X58151925Y-79649110D01*
X58558669Y-79480631D01*
X58597776Y-79454500D01*
X61099928Y-79454500D01*
X61099928Y-81454500D01*
X61112188Y-81578982D01*
X61148498Y-81698680D01*
X61207463Y-81808994D01*
X61286815Y-81905685D01*
X61383506Y-81985037D01*
X61493820Y-82044002D01*
X61613518Y-82080312D01*
X61738000Y-82092572D01*
X63738000Y-82092572D01*
X63862482Y-82080312D01*
X63982180Y-82044002D01*
X64092494Y-81985037D01*
X64189185Y-81905685D01*
X64268537Y-81808994D01*
X64327502Y-81698680D01*
X64363812Y-81578982D01*
X64376072Y-81454500D01*
X64376072Y-80293467D01*
X68703000Y-80293467D01*
X68703000Y-80615533D01*
X68765832Y-80931412D01*
X68889082Y-81228963D01*
X69068013Y-81496752D01*
X69295748Y-81724487D01*
X69563537Y-81903418D01*
X69861088Y-82026668D01*
X70176967Y-82089500D01*
X70499033Y-82089500D01*
X70814912Y-82026668D01*
X71112463Y-81903418D01*
X71380252Y-81724487D01*
X71607987Y-81496752D01*
X71786918Y-81228963D01*
X71910168Y-80931412D01*
X71973000Y-80615533D01*
X71973000Y-80293467D01*
X71910168Y-79977588D01*
X71786918Y-79680037D01*
X71607987Y-79412248D01*
X71380252Y-79184513D01*
X71112463Y-79005582D01*
X70814912Y-78882332D01*
X70499033Y-78819500D01*
X70176967Y-78819500D01*
X69861088Y-78882332D01*
X69563537Y-79005582D01*
X69295748Y-79184513D01*
X69068013Y-79412248D01*
X68889082Y-79680037D01*
X68765832Y-79977588D01*
X68703000Y-80293467D01*
X64376072Y-80293467D01*
X64376072Y-79454500D01*
X64363812Y-79330018D01*
X64327502Y-79210320D01*
X64268537Y-79100006D01*
X64189185Y-79003315D01*
X64092494Y-78923963D01*
X63982180Y-78864998D01*
X63862482Y-78828688D01*
X63738000Y-78816428D01*
X61738000Y-78816428D01*
X61613518Y-78828688D01*
X61493820Y-78864998D01*
X61383506Y-78923963D01*
X61286815Y-79003315D01*
X61207463Y-79100006D01*
X61148498Y-79210320D01*
X61112188Y-79330018D01*
X61099928Y-79454500D01*
X58597776Y-79454500D01*
X58924729Y-79236038D01*
X59236038Y-78924729D01*
X59480631Y-78558669D01*
X59649110Y-78151925D01*
X59735000Y-77720128D01*
X59735000Y-77279872D01*
X59649110Y-76848075D01*
X59481323Y-76443000D01*
X76185928Y-76443000D01*
X76185928Y-78243000D01*
X76198188Y-78367482D01*
X76234498Y-78487180D01*
X76293463Y-78597494D01*
X76372815Y-78694185D01*
X76469506Y-78773537D01*
X76579820Y-78832502D01*
X76699518Y-78868812D01*
X76824000Y-78881072D01*
X77011128Y-78881072D01*
X77068138Y-78987732D01*
X77166236Y-79107264D01*
X77196190Y-79131847D01*
X77967157Y-79902815D01*
X77991736Y-79932764D01*
X78021684Y-79957342D01*
X78021687Y-79957345D01*
X78046353Y-79977588D01*
X78111267Y-80030862D01*
X78247640Y-80103754D01*
X78361172Y-80138194D01*
X78395612Y-80148641D01*
X78409990Y-80150057D01*
X78510939Y-80160000D01*
X78510946Y-80160000D01*
X78549499Y-80163797D01*
X78588052Y-80160000D01*
X82224843Y-80160000D01*
X82844501Y-80779658D01*
X82844500Y-86829447D01*
X82840703Y-86868000D01*
X82844500Y-86906553D01*
X82844500Y-86906560D01*
X82855859Y-87021886D01*
X82900746Y-87169859D01*
X82973638Y-87306232D01*
X83071736Y-87425764D01*
X83101690Y-87450347D01*
X87492158Y-91840816D01*
X87516736Y-91870764D01*
X87546684Y-91895342D01*
X87546687Y-91895345D01*
X87557704Y-91904386D01*
X87636267Y-91968862D01*
X87772640Y-92041754D01*
X87886172Y-92076194D01*
X87920612Y-92086641D01*
X87934990Y-92088057D01*
X88035939Y-92098000D01*
X88035946Y-92098000D01*
X88074499Y-92101797D01*
X88113052Y-92098000D01*
X88792789Y-92098000D01*
X88811726Y-92116937D01*
X88981244Y-92230205D01*
X89169602Y-92308226D01*
X89369561Y-92348000D01*
X89573439Y-92348000D01*
X89773398Y-92308226D01*
X89961756Y-92230205D01*
X90131274Y-92116937D01*
X90275437Y-91972774D01*
X90388705Y-91803256D01*
X90466726Y-91614898D01*
X90506500Y-91414939D01*
X90506500Y-91211061D01*
X90466726Y-91011102D01*
X90388705Y-90822744D01*
X90291990Y-90678000D01*
X90388705Y-90533256D01*
X90466726Y-90344898D01*
X90506500Y-90144939D01*
X90506500Y-89941061D01*
X90466726Y-89741102D01*
X90397510Y-89574000D01*
X95793928Y-89574000D01*
X95793928Y-91274000D01*
X95806188Y-91398482D01*
X95842498Y-91518180D01*
X95901463Y-91628494D01*
X95980815Y-91725185D01*
X96077506Y-91804537D01*
X96187820Y-91863502D01*
X96307518Y-91899812D01*
X96432000Y-91912072D01*
X98132000Y-91912072D01*
X98256482Y-91899812D01*
X98376180Y-91863502D01*
X98486494Y-91804537D01*
X98583185Y-91725185D01*
X98662537Y-91628494D01*
X98721502Y-91518180D01*
X98743513Y-91445620D01*
X98875368Y-91577475D01*
X99118589Y-91739990D01*
X99388842Y-91851932D01*
X99675740Y-91909000D01*
X99968260Y-91909000D01*
X100255158Y-91851932D01*
X100525411Y-91739990D01*
X100768632Y-91577475D01*
X100975475Y-91370632D01*
X101092000Y-91196240D01*
X101208525Y-91370632D01*
X101415368Y-91577475D01*
X101658589Y-91739990D01*
X101928842Y-91851932D01*
X102215740Y-91909000D01*
X102508260Y-91909000D01*
X102795158Y-91851932D01*
X103065411Y-91739990D01*
X103308632Y-91577475D01*
X103515475Y-91370632D01*
X103637195Y-91188466D01*
X103706822Y-91305355D01*
X103901731Y-91521588D01*
X104135080Y-91695641D01*
X104397901Y-91820825D01*
X104545110Y-91865476D01*
X104775000Y-91744155D01*
X104775000Y-90551000D01*
X105029000Y-90551000D01*
X105029000Y-91744155D01*
X105258890Y-91865476D01*
X105406099Y-91820825D01*
X105668920Y-91695641D01*
X105902269Y-91521588D01*
X106031294Y-91378446D01*
X122201687Y-91378446D01*
X122254158Y-91845311D01*
X122396703Y-92292968D01*
X122587234Y-92649427D01*
X122928391Y-92835503D01*
X124418395Y-91345500D01*
X122928391Y-89855497D01*
X122587234Y-90041573D01*
X122371487Y-90458909D01*
X122241304Y-90910315D01*
X122201687Y-91378446D01*
X106031294Y-91378446D01*
X106097178Y-91305355D01*
X106246157Y-91055252D01*
X106343481Y-90780891D01*
X106222814Y-90551000D01*
X105029000Y-90551000D01*
X104775000Y-90551000D01*
X104755000Y-90551000D01*
X104755000Y-90297000D01*
X104775000Y-90297000D01*
X104775000Y-89103845D01*
X105029000Y-89103845D01*
X105029000Y-90297000D01*
X106222814Y-90297000D01*
X106343481Y-90067109D01*
X106246157Y-89792748D01*
X106176549Y-89675891D01*
X123107997Y-89675891D01*
X124598000Y-91165895D01*
X126088003Y-89675891D01*
X125901927Y-89334734D01*
X125484591Y-89118987D01*
X125033185Y-88988804D01*
X124565054Y-88949187D01*
X124098189Y-89001658D01*
X123650532Y-89144203D01*
X123294073Y-89334734D01*
X123107997Y-89675891D01*
X106176549Y-89675891D01*
X106097178Y-89542645D01*
X105902269Y-89326412D01*
X105668920Y-89152359D01*
X105406099Y-89027175D01*
X105258890Y-88982524D01*
X105029000Y-89103845D01*
X104775000Y-89103845D01*
X104545110Y-88982524D01*
X104397901Y-89027175D01*
X104135080Y-89152359D01*
X103901731Y-89326412D01*
X103706822Y-89542645D01*
X103637195Y-89659534D01*
X103515475Y-89477368D01*
X103308632Y-89270525D01*
X103065411Y-89108010D01*
X102795158Y-88996068D01*
X102508260Y-88939000D01*
X102215740Y-88939000D01*
X101928842Y-88996068D01*
X101658589Y-89108010D01*
X101415368Y-89270525D01*
X101208525Y-89477368D01*
X101092000Y-89651760D01*
X100975475Y-89477368D01*
X100768632Y-89270525D01*
X100525411Y-89108010D01*
X100255158Y-88996068D01*
X99968260Y-88939000D01*
X99675740Y-88939000D01*
X99388842Y-88996068D01*
X99118589Y-89108010D01*
X98875368Y-89270525D01*
X98743513Y-89402380D01*
X98721502Y-89329820D01*
X98662537Y-89219506D01*
X98583185Y-89122815D01*
X98486494Y-89043463D01*
X98376180Y-88984498D01*
X98256482Y-88948188D01*
X98132000Y-88935928D01*
X96432000Y-88935928D01*
X96307518Y-88948188D01*
X96187820Y-88984498D01*
X96077506Y-89043463D01*
X95980815Y-89122815D01*
X95901463Y-89219506D01*
X95842498Y-89329820D01*
X95806188Y-89449518D01*
X95793928Y-89574000D01*
X90397510Y-89574000D01*
X90388705Y-89552744D01*
X90275437Y-89383226D01*
X90131274Y-89239063D01*
X89961756Y-89125795D01*
X89773398Y-89047774D01*
X89573439Y-89008000D01*
X89369561Y-89008000D01*
X89169602Y-89047774D01*
X88981244Y-89125795D01*
X88811726Y-89239063D01*
X88792789Y-89258000D01*
X88399658Y-89258000D01*
X86366549Y-87224891D01*
X86887019Y-87224891D01*
X86984343Y-87499252D01*
X87133322Y-87749355D01*
X87328231Y-87965588D01*
X87561580Y-88139641D01*
X87824401Y-88264825D01*
X87971610Y-88309476D01*
X88201500Y-88188155D01*
X88201500Y-86995000D01*
X87007686Y-86995000D01*
X86887019Y-87224891D01*
X86366549Y-87224891D01*
X85652767Y-86511109D01*
X86887019Y-86511109D01*
X87007686Y-86741000D01*
X88201500Y-86741000D01*
X88201500Y-85547845D01*
X88455500Y-85547845D01*
X88455500Y-86741000D01*
X88475500Y-86741000D01*
X88475500Y-86995000D01*
X88455500Y-86995000D01*
X88455500Y-88188155D01*
X88685390Y-88309476D01*
X88832599Y-88264825D01*
X89095420Y-88139641D01*
X89328769Y-87965588D01*
X89523678Y-87749355D01*
X89593305Y-87632466D01*
X89715025Y-87814632D01*
X89921868Y-88021475D01*
X90165089Y-88183990D01*
X90435342Y-88295932D01*
X90722240Y-88353000D01*
X91014760Y-88353000D01*
X91301658Y-88295932D01*
X91571911Y-88183990D01*
X91815132Y-88021475D01*
X92021975Y-87814632D01*
X92138500Y-87640240D01*
X92255025Y-87814632D01*
X92461868Y-88021475D01*
X92705089Y-88183990D01*
X92975342Y-88295932D01*
X93262240Y-88353000D01*
X93554760Y-88353000D01*
X93841658Y-88295932D01*
X94111911Y-88183990D01*
X94355132Y-88021475D01*
X94486987Y-87889620D01*
X94508998Y-87962180D01*
X94567963Y-88072494D01*
X94647315Y-88169185D01*
X94744006Y-88248537D01*
X94854320Y-88307502D01*
X94974018Y-88343812D01*
X95098500Y-88356072D01*
X96798500Y-88356072D01*
X96922982Y-88343812D01*
X97042680Y-88307502D01*
X97152994Y-88248537D01*
X97249685Y-88169185D01*
X97329037Y-88072494D01*
X97388002Y-87962180D01*
X97424312Y-87842482D01*
X97433125Y-87753000D01*
X116486446Y-87753000D01*
X116497233Y-87763787D01*
X116699508Y-87898943D01*
X116924264Y-87992040D01*
X117162863Y-88039500D01*
X117406137Y-88039500D01*
X117644736Y-87992040D01*
X117869492Y-87898943D01*
X118071767Y-87763787D01*
X118243787Y-87591767D01*
X118378943Y-87389492D01*
X118472040Y-87164736D01*
X118519500Y-86926137D01*
X118519500Y-86758477D01*
X118550589Y-86700313D01*
X118601195Y-86533490D01*
X118614000Y-86403477D01*
X118614000Y-86403469D01*
X118618281Y-86360000D01*
X118614000Y-86316531D01*
X118614000Y-84574712D01*
X121483500Y-84574712D01*
X121483500Y-84798288D01*
X121527117Y-85017567D01*
X121612676Y-85224124D01*
X121736888Y-85410020D01*
X121894980Y-85568112D01*
X122080876Y-85692324D01*
X122287433Y-85777883D01*
X122506712Y-85821500D01*
X122730288Y-85821500D01*
X122949567Y-85777883D01*
X123156124Y-85692324D01*
X123342020Y-85568112D01*
X123500112Y-85410020D01*
X123624324Y-85224124D01*
X123709883Y-85017567D01*
X123753500Y-84798288D01*
X123753500Y-84574712D01*
X123709883Y-84355433D01*
X123624324Y-84148876D01*
X123500112Y-83962980D01*
X123342020Y-83804888D01*
X123156124Y-83680676D01*
X122949567Y-83595117D01*
X122730288Y-83551500D01*
X122506712Y-83551500D01*
X122287433Y-83595117D01*
X122080876Y-83680676D01*
X121894980Y-83804888D01*
X121736888Y-83962980D01*
X121612676Y-84148876D01*
X121527117Y-84355433D01*
X121483500Y-84574712D01*
X118614000Y-84574712D01*
X118614000Y-80174712D01*
X121483500Y-80174712D01*
X121483500Y-80398288D01*
X121527117Y-80617567D01*
X121612676Y-80824124D01*
X121736888Y-81010020D01*
X121894980Y-81168112D01*
X122080876Y-81292324D01*
X122287433Y-81377883D01*
X122506712Y-81421500D01*
X122730288Y-81421500D01*
X122949567Y-81377883D01*
X123156124Y-81292324D01*
X123342020Y-81168112D01*
X123500112Y-81010020D01*
X123624324Y-80824124D01*
X123709883Y-80617567D01*
X123753500Y-80398288D01*
X123753500Y-80174712D01*
X123709883Y-79955433D01*
X123624324Y-79748876D01*
X123500112Y-79562980D01*
X123342020Y-79404888D01*
X123156124Y-79280676D01*
X122949567Y-79195117D01*
X122730288Y-79151500D01*
X122506712Y-79151500D01*
X122287433Y-79195117D01*
X122080876Y-79280676D01*
X121894980Y-79404888D01*
X121736888Y-79562980D01*
X121612676Y-79748876D01*
X121527117Y-79955433D01*
X121483500Y-80174712D01*
X118614000Y-80174712D01*
X118614000Y-77696554D01*
X118688287Y-77622267D01*
X118823443Y-77419992D01*
X118916540Y-77195236D01*
X118964000Y-76956637D01*
X118964000Y-76713363D01*
X118916540Y-76474764D01*
X118823443Y-76250008D01*
X118688287Y-76047733D01*
X118516267Y-75875713D01*
X118313992Y-75740557D01*
X118089236Y-75647460D01*
X117850637Y-75600000D01*
X117607363Y-75600000D01*
X117368764Y-75647460D01*
X117144008Y-75740557D01*
X116941733Y-75875713D01*
X116769713Y-76047733D01*
X116634557Y-76250008D01*
X116541460Y-76474764D01*
X116494000Y-76713363D01*
X116494000Y-76956637D01*
X116541460Y-77195236D01*
X116634557Y-77419992D01*
X116769713Y-77622267D01*
X116844000Y-77696554D01*
X116844001Y-85650206D01*
X116699508Y-85710057D01*
X116497233Y-85845213D01*
X116359446Y-85983000D01*
X97433125Y-85983000D01*
X97424312Y-85893518D01*
X97388002Y-85773820D01*
X97329037Y-85663506D01*
X97249685Y-85566815D01*
X97152994Y-85487463D01*
X97042680Y-85428498D01*
X96922982Y-85392188D01*
X96798500Y-85379928D01*
X95098500Y-85379928D01*
X94974018Y-85392188D01*
X94854320Y-85428498D01*
X94744006Y-85487463D01*
X94647315Y-85566815D01*
X94567963Y-85663506D01*
X94508998Y-85773820D01*
X94486987Y-85846380D01*
X94355132Y-85714525D01*
X94111911Y-85552010D01*
X93841658Y-85440068D01*
X93554760Y-85383000D01*
X93262240Y-85383000D01*
X92975342Y-85440068D01*
X92705089Y-85552010D01*
X92461868Y-85714525D01*
X92255025Y-85921368D01*
X92138500Y-86095760D01*
X92021975Y-85921368D01*
X91815132Y-85714525D01*
X91571911Y-85552010D01*
X91301658Y-85440068D01*
X91014760Y-85383000D01*
X90722240Y-85383000D01*
X90435342Y-85440068D01*
X90165089Y-85552010D01*
X89921868Y-85714525D01*
X89715025Y-85921368D01*
X89593305Y-86103534D01*
X89523678Y-85986645D01*
X89328769Y-85770412D01*
X89095420Y-85596359D01*
X88832599Y-85471175D01*
X88685390Y-85426524D01*
X88455500Y-85547845D01*
X88201500Y-85547845D01*
X87971610Y-85426524D01*
X87824401Y-85471175D01*
X87561580Y-85596359D01*
X87328231Y-85770412D01*
X87133322Y-85986645D01*
X86984343Y-86236748D01*
X86887019Y-86511109D01*
X85652767Y-86511109D01*
X85240000Y-86098343D01*
X85240000Y-78881072D01*
X85355000Y-78881072D01*
X85479482Y-78868812D01*
X85599180Y-78832502D01*
X85709494Y-78773537D01*
X85806185Y-78694185D01*
X85885537Y-78597494D01*
X85944502Y-78487180D01*
X85950056Y-78468873D01*
X86016495Y-78535312D01*
X86267905Y-78703299D01*
X86547257Y-78819011D01*
X86843816Y-78878000D01*
X87146184Y-78878000D01*
X87442743Y-78819011D01*
X87722095Y-78703299D01*
X87973505Y-78535312D01*
X88187312Y-78321505D01*
X88355299Y-78070095D01*
X88471011Y-77790743D01*
X88530000Y-77494184D01*
X88530000Y-77191816D01*
X88471011Y-76895257D01*
X88423217Y-76779872D01*
X101265000Y-76779872D01*
X101265000Y-77220128D01*
X101350890Y-77651925D01*
X101519369Y-78058669D01*
X101763962Y-78424729D01*
X102075271Y-78736038D01*
X102441331Y-78980631D01*
X102848075Y-79149110D01*
X103279872Y-79235000D01*
X103720128Y-79235000D01*
X104151925Y-79149110D01*
X104558669Y-78980631D01*
X104924729Y-78736038D01*
X105236038Y-78424729D01*
X105480631Y-78058669D01*
X105649110Y-77651925D01*
X105735000Y-77220128D01*
X105735000Y-76779872D01*
X105649110Y-76348075D01*
X105480631Y-75941331D01*
X105236038Y-75575271D01*
X104924729Y-75263962D01*
X104558669Y-75019369D01*
X104151925Y-74850890D01*
X103720128Y-74765000D01*
X103279872Y-74765000D01*
X102848075Y-74850890D01*
X102441331Y-75019369D01*
X102075271Y-75263962D01*
X101763962Y-75575271D01*
X101519369Y-75941331D01*
X101350890Y-76348075D01*
X101265000Y-76779872D01*
X88423217Y-76779872D01*
X88355299Y-76615905D01*
X88187312Y-76364495D01*
X87973505Y-76150688D01*
X87722095Y-75982701D01*
X87442743Y-75866989D01*
X87146184Y-75808000D01*
X86843816Y-75808000D01*
X86547257Y-75866989D01*
X86267905Y-75982701D01*
X86016495Y-76150688D01*
X85950056Y-76217127D01*
X85944502Y-76198820D01*
X85885537Y-76088506D01*
X85806185Y-75991815D01*
X85709494Y-75912463D01*
X85599180Y-75853498D01*
X85479482Y-75817188D01*
X85355000Y-75804928D01*
X83555000Y-75804928D01*
X83430518Y-75817188D01*
X83310820Y-75853498D01*
X83200506Y-75912463D01*
X83103815Y-75991815D01*
X83024463Y-76088506D01*
X82965498Y-76198820D01*
X82929188Y-76318518D01*
X82916928Y-76443000D01*
X82916928Y-78243000D01*
X82929188Y-78367482D01*
X82965498Y-78487180D01*
X83024463Y-78597494D01*
X83103815Y-78694185D01*
X83200506Y-78773537D01*
X83310820Y-78832502D01*
X83430518Y-78868812D01*
X83555000Y-78881072D01*
X83670001Y-78881072D01*
X83670001Y-79384844D01*
X83132347Y-78847190D01*
X83107764Y-78817236D01*
X82988233Y-78719138D01*
X82851860Y-78646246D01*
X82703887Y-78601359D01*
X82588561Y-78590000D01*
X82588553Y-78590000D01*
X82550000Y-78586203D01*
X82511447Y-78590000D01*
X81160659Y-78590000D01*
X81242505Y-78535312D01*
X81456312Y-78321505D01*
X81624299Y-78070095D01*
X81740011Y-77790743D01*
X81799000Y-77494184D01*
X81799000Y-77191816D01*
X81740011Y-76895257D01*
X81624299Y-76615905D01*
X81456312Y-76364495D01*
X81242505Y-76150688D01*
X80991095Y-75982701D01*
X80711743Y-75866989D01*
X80415184Y-75808000D01*
X80112816Y-75808000D01*
X79816257Y-75866989D01*
X79536905Y-75982701D01*
X79285495Y-76150688D01*
X79219056Y-76217127D01*
X79213502Y-76198820D01*
X79154537Y-76088506D01*
X79075185Y-75991815D01*
X78978494Y-75912463D01*
X78868180Y-75853498D01*
X78748482Y-75817188D01*
X78624000Y-75804928D01*
X76824000Y-75804928D01*
X76699518Y-75817188D01*
X76579820Y-75853498D01*
X76469506Y-75912463D01*
X76372815Y-75991815D01*
X76293463Y-76088506D01*
X76234498Y-76198820D01*
X76198188Y-76318518D01*
X76185928Y-76443000D01*
X59481323Y-76443000D01*
X59480631Y-76441331D01*
X59236038Y-76075271D01*
X58924729Y-75763962D01*
X58558669Y-75519369D01*
X58151925Y-75350890D01*
X57720128Y-75265000D01*
X57279872Y-75265000D01*
X56848075Y-75350890D01*
X56441331Y-75519369D01*
X56075271Y-75763962D01*
X55763962Y-76075271D01*
X55519369Y-76441331D01*
X55350890Y-76848075D01*
X55265000Y-77279872D01*
X41792683Y-77279872D01*
X41967632Y-77162975D01*
X42174475Y-76956132D01*
X42336990Y-76712911D01*
X42448932Y-76442658D01*
X42506000Y-76155760D01*
X42506000Y-75863240D01*
X42448932Y-75576342D01*
X42336990Y-75306089D01*
X42174475Y-75062868D01*
X41967632Y-74856025D01*
X41724411Y-74693510D01*
X41643510Y-74660000D01*
X126840000Y-74660000D01*
X126840000Y-90525859D01*
X126799297Y-90398032D01*
X126608766Y-90041573D01*
X126267609Y-89855497D01*
X124777605Y-91345500D01*
X126267609Y-92835503D01*
X126608766Y-92649427D01*
X126824513Y-92232091D01*
X126840000Y-92178389D01*
X126840000Y-102565860D01*
X126799297Y-102438032D01*
X126608766Y-102081573D01*
X126267609Y-101895497D01*
X124777605Y-103385500D01*
X126267609Y-104875503D01*
X126608766Y-104689427D01*
X126824513Y-104272091D01*
X126840001Y-104218388D01*
X126840001Y-132840000D01*
X30660000Y-132840000D01*
X30660000Y-129779872D01*
X31265000Y-129779872D01*
X31265000Y-130220128D01*
X31350890Y-130651925D01*
X31519369Y-131058669D01*
X31763962Y-131424729D01*
X32075271Y-131736038D01*
X32441331Y-131980631D01*
X32848075Y-132149110D01*
X33279872Y-132235000D01*
X33720128Y-132235000D01*
X34151925Y-132149110D01*
X34558669Y-131980631D01*
X34924729Y-131736038D01*
X35236038Y-131424729D01*
X35480631Y-131058669D01*
X35649110Y-130651925D01*
X35735000Y-130220128D01*
X35735000Y-129779872D01*
X35649110Y-129348075D01*
X35480631Y-128941331D01*
X35236038Y-128575271D01*
X34924729Y-128263962D01*
X34558669Y-128019369D01*
X34151925Y-127850890D01*
X34023874Y-127825419D01*
X38641500Y-127825419D01*
X38641500Y-128206581D01*
X38715861Y-128580419D01*
X38861725Y-128932566D01*
X39073487Y-129249491D01*
X39343009Y-129519013D01*
X39659934Y-129730775D01*
X40012081Y-129876639D01*
X40385919Y-129951000D01*
X40767081Y-129951000D01*
X41140919Y-129876639D01*
X41493066Y-129730775D01*
X41809991Y-129519013D01*
X42013004Y-129316000D01*
X43718428Y-129316000D01*
X43730688Y-129440482D01*
X43766998Y-129560180D01*
X43825963Y-129670494D01*
X43905315Y-129767185D01*
X44002006Y-129846537D01*
X44112320Y-129905502D01*
X44232018Y-129941812D01*
X44356500Y-129954072D01*
X45370750Y-129951000D01*
X45529500Y-129792250D01*
X45529500Y-128143000D01*
X45783500Y-128143000D01*
X45783500Y-129792250D01*
X45942250Y-129951000D01*
X46956500Y-129954072D01*
X47080982Y-129941812D01*
X47200680Y-129905502D01*
X47310994Y-129846537D01*
X47407685Y-129767185D01*
X47487037Y-129670494D01*
X47546002Y-129560180D01*
X47582312Y-129440482D01*
X47594572Y-129316000D01*
X47591500Y-128301750D01*
X47432750Y-128143000D01*
X45783500Y-128143000D01*
X45529500Y-128143000D01*
X43880250Y-128143000D01*
X43721500Y-128301750D01*
X43718428Y-129316000D01*
X42013004Y-129316000D01*
X42079513Y-129249491D01*
X42291275Y-128932566D01*
X42437139Y-128580419D01*
X42511500Y-128206581D01*
X42511500Y-127825419D01*
X42437139Y-127451581D01*
X42291275Y-127099434D01*
X42079513Y-126782509D01*
X42013004Y-126716000D01*
X43718428Y-126716000D01*
X43721500Y-127730250D01*
X43880250Y-127889000D01*
X45529500Y-127889000D01*
X45529500Y-126239750D01*
X45783500Y-126239750D01*
X45783500Y-127889000D01*
X47432750Y-127889000D01*
X47496331Y-127825419D01*
X56040500Y-127825419D01*
X56040500Y-128206581D01*
X56114861Y-128580419D01*
X56260725Y-128932566D01*
X56472487Y-129249491D01*
X56742009Y-129519013D01*
X57058934Y-129730775D01*
X57411081Y-129876639D01*
X57784919Y-129951000D01*
X58166081Y-129951000D01*
X58539919Y-129876639D01*
X58892066Y-129730775D01*
X59208991Y-129519013D01*
X59478513Y-129249491D01*
X59690275Y-128932566D01*
X59836139Y-128580419D01*
X59910500Y-128206581D01*
X59910500Y-127825419D01*
X59836139Y-127451581D01*
X59690275Y-127099434D01*
X59478513Y-126782509D01*
X59412004Y-126716000D01*
X61117428Y-126716000D01*
X61117428Y-129316000D01*
X61129688Y-129440482D01*
X61165998Y-129560180D01*
X61224963Y-129670494D01*
X61304315Y-129767185D01*
X61401006Y-129846537D01*
X61511320Y-129905502D01*
X61631018Y-129941812D01*
X61755500Y-129954072D01*
X64355500Y-129954072D01*
X64479982Y-129941812D01*
X64599680Y-129905502D01*
X64709994Y-129846537D01*
X64806685Y-129767185D01*
X64886037Y-129670494D01*
X64945002Y-129560180D01*
X64981312Y-129440482D01*
X64993572Y-129316000D01*
X64993572Y-127825419D01*
X74201500Y-127825419D01*
X74201500Y-128206581D01*
X74275861Y-128580419D01*
X74421725Y-128932566D01*
X74633487Y-129249491D01*
X74903009Y-129519013D01*
X75219934Y-129730775D01*
X75572081Y-129876639D01*
X75945919Y-129951000D01*
X76327081Y-129951000D01*
X76700919Y-129876639D01*
X77053066Y-129730775D01*
X77369991Y-129519013D01*
X77573004Y-129316000D01*
X79278428Y-129316000D01*
X79290688Y-129440482D01*
X79326998Y-129560180D01*
X79385963Y-129670494D01*
X79465315Y-129767185D01*
X79562006Y-129846537D01*
X79672320Y-129905502D01*
X79792018Y-129941812D01*
X79916500Y-129954072D01*
X80930750Y-129951000D01*
X81089500Y-129792250D01*
X81089500Y-128143000D01*
X81343500Y-128143000D01*
X81343500Y-129792250D01*
X81502250Y-129951000D01*
X82516500Y-129954072D01*
X82640982Y-129941812D01*
X82760680Y-129905502D01*
X82870994Y-129846537D01*
X82952225Y-129779872D01*
X85765000Y-129779872D01*
X85765000Y-130220128D01*
X85850890Y-130651925D01*
X86019369Y-131058669D01*
X86263962Y-131424729D01*
X86575271Y-131736038D01*
X86941331Y-131980631D01*
X87348075Y-132149110D01*
X87779872Y-132235000D01*
X88220128Y-132235000D01*
X88651925Y-132149110D01*
X89058669Y-131980631D01*
X89424729Y-131736038D01*
X89736038Y-131424729D01*
X89980631Y-131058669D01*
X90149110Y-130651925D01*
X90223116Y-130279872D01*
X122265000Y-130279872D01*
X122265000Y-130720128D01*
X122350890Y-131151925D01*
X122519369Y-131558669D01*
X122763962Y-131924729D01*
X123075271Y-132236038D01*
X123441331Y-132480631D01*
X123848075Y-132649110D01*
X124279872Y-132735000D01*
X124720128Y-132735000D01*
X125151925Y-132649110D01*
X125558669Y-132480631D01*
X125924729Y-132236038D01*
X126236038Y-131924729D01*
X126480631Y-131558669D01*
X126649110Y-131151925D01*
X126735000Y-130720128D01*
X126735000Y-130279872D01*
X126649110Y-129848075D01*
X126480631Y-129441331D01*
X126236038Y-129075271D01*
X125924729Y-128763962D01*
X125558669Y-128519369D01*
X125151925Y-128350890D01*
X124720128Y-128265000D01*
X124279872Y-128265000D01*
X123848075Y-128350890D01*
X123441331Y-128519369D01*
X123075271Y-128763962D01*
X122763962Y-129075271D01*
X122519369Y-129441331D01*
X122350890Y-129848075D01*
X122265000Y-130279872D01*
X90223116Y-130279872D01*
X90235000Y-130220128D01*
X90235000Y-129779872D01*
X90149110Y-129348075D01*
X89980631Y-128941331D01*
X89736038Y-128575271D01*
X89424729Y-128263962D01*
X89058669Y-128019369D01*
X88651925Y-127850890D01*
X88443437Y-127809419D01*
X92493000Y-127809419D01*
X92493000Y-128190581D01*
X92567361Y-128564419D01*
X92713225Y-128916566D01*
X92924987Y-129233491D01*
X93194509Y-129503013D01*
X93511434Y-129714775D01*
X93863581Y-129860639D01*
X94237419Y-129935000D01*
X94618581Y-129935000D01*
X94992419Y-129860639D01*
X95344566Y-129714775D01*
X95661491Y-129503013D01*
X95864504Y-129300000D01*
X97569928Y-129300000D01*
X97582188Y-129424482D01*
X97618498Y-129544180D01*
X97677463Y-129654494D01*
X97756815Y-129751185D01*
X97853506Y-129830537D01*
X97963820Y-129889502D01*
X98083518Y-129925812D01*
X98208000Y-129938072D01*
X99222250Y-129935000D01*
X99381000Y-129776250D01*
X99381000Y-128127000D01*
X99635000Y-128127000D01*
X99635000Y-129776250D01*
X99793750Y-129935000D01*
X100808000Y-129938072D01*
X100932482Y-129925812D01*
X101052180Y-129889502D01*
X101162494Y-129830537D01*
X101259185Y-129751185D01*
X101338537Y-129654494D01*
X101397502Y-129544180D01*
X101433812Y-129424482D01*
X101446072Y-129300000D01*
X101443000Y-128285750D01*
X101284250Y-128127000D01*
X99635000Y-128127000D01*
X99381000Y-128127000D01*
X97731750Y-128127000D01*
X97573000Y-128285750D01*
X97569928Y-129300000D01*
X95864504Y-129300000D01*
X95931013Y-129233491D01*
X96142775Y-128916566D01*
X96288639Y-128564419D01*
X96363000Y-128190581D01*
X96363000Y-127809419D01*
X96288639Y-127435581D01*
X96142775Y-127083434D01*
X95931013Y-126766509D01*
X95864504Y-126700000D01*
X97569928Y-126700000D01*
X97573000Y-127714250D01*
X97731750Y-127873000D01*
X99381000Y-127873000D01*
X99381000Y-126223750D01*
X99635000Y-126223750D01*
X99635000Y-127873000D01*
X101284250Y-127873000D01*
X101443000Y-127714250D01*
X101446072Y-126700000D01*
X101433812Y-126575518D01*
X101397502Y-126455820D01*
X101338537Y-126345506D01*
X101259185Y-126248815D01*
X101162494Y-126169463D01*
X101052180Y-126110498D01*
X100932482Y-126074188D01*
X100808000Y-126061928D01*
X99793750Y-126065000D01*
X99635000Y-126223750D01*
X99381000Y-126223750D01*
X99222250Y-126065000D01*
X98208000Y-126061928D01*
X98083518Y-126074188D01*
X97963820Y-126110498D01*
X97853506Y-126169463D01*
X97756815Y-126248815D01*
X97677463Y-126345506D01*
X97618498Y-126455820D01*
X97582188Y-126575518D01*
X97569928Y-126700000D01*
X95864504Y-126700000D01*
X95661491Y-126496987D01*
X95344566Y-126285225D01*
X94992419Y-126139361D01*
X94618581Y-126065000D01*
X94237419Y-126065000D01*
X93863581Y-126139361D01*
X93511434Y-126285225D01*
X93194509Y-126496987D01*
X92924987Y-126766509D01*
X92713225Y-127083434D01*
X92567361Y-127435581D01*
X92493000Y-127809419D01*
X88443437Y-127809419D01*
X88220128Y-127765000D01*
X87779872Y-127765000D01*
X87348075Y-127850890D01*
X86941331Y-128019369D01*
X86575271Y-128263962D01*
X86263962Y-128575271D01*
X86019369Y-128941331D01*
X85850890Y-129348075D01*
X85765000Y-129779872D01*
X82952225Y-129779872D01*
X82967685Y-129767185D01*
X83047037Y-129670494D01*
X83106002Y-129560180D01*
X83142312Y-129440482D01*
X83154572Y-129316000D01*
X83151500Y-128301750D01*
X82992750Y-128143000D01*
X81343500Y-128143000D01*
X81089500Y-128143000D01*
X79440250Y-128143000D01*
X79281500Y-128301750D01*
X79278428Y-129316000D01*
X77573004Y-129316000D01*
X77639513Y-129249491D01*
X77851275Y-128932566D01*
X77997139Y-128580419D01*
X78071500Y-128206581D01*
X78071500Y-127825419D01*
X77997139Y-127451581D01*
X77851275Y-127099434D01*
X77639513Y-126782509D01*
X77573004Y-126716000D01*
X79278428Y-126716000D01*
X79281500Y-127730250D01*
X79440250Y-127889000D01*
X81089500Y-127889000D01*
X81089500Y-126239750D01*
X81343500Y-126239750D01*
X81343500Y-127889000D01*
X82992750Y-127889000D01*
X83151500Y-127730250D01*
X83154572Y-126716000D01*
X83142312Y-126591518D01*
X83106002Y-126471820D01*
X83047037Y-126361506D01*
X82967685Y-126264815D01*
X82870994Y-126185463D01*
X82760680Y-126126498D01*
X82640982Y-126090188D01*
X82516500Y-126077928D01*
X81502250Y-126081000D01*
X81343500Y-126239750D01*
X81089500Y-126239750D01*
X80930750Y-126081000D01*
X79916500Y-126077928D01*
X79792018Y-126090188D01*
X79672320Y-126126498D01*
X79562006Y-126185463D01*
X79465315Y-126264815D01*
X79385963Y-126361506D01*
X79326998Y-126471820D01*
X79290688Y-126591518D01*
X79278428Y-126716000D01*
X77573004Y-126716000D01*
X77369991Y-126512987D01*
X77053066Y-126301225D01*
X76700919Y-126155361D01*
X76327081Y-126081000D01*
X75945919Y-126081000D01*
X75572081Y-126155361D01*
X75219934Y-126301225D01*
X74903009Y-126512987D01*
X74633487Y-126782509D01*
X74421725Y-127099434D01*
X74275861Y-127451581D01*
X74201500Y-127825419D01*
X64993572Y-127825419D01*
X64993572Y-126716000D01*
X64981312Y-126591518D01*
X64945002Y-126471820D01*
X64886037Y-126361506D01*
X64806685Y-126264815D01*
X64709994Y-126185463D01*
X64599680Y-126126498D01*
X64479982Y-126090188D01*
X64355500Y-126077928D01*
X61755500Y-126077928D01*
X61631018Y-126090188D01*
X61511320Y-126126498D01*
X61401006Y-126185463D01*
X61304315Y-126264815D01*
X61224963Y-126361506D01*
X61165998Y-126471820D01*
X61129688Y-126591518D01*
X61117428Y-126716000D01*
X59412004Y-126716000D01*
X59208991Y-126512987D01*
X58892066Y-126301225D01*
X58539919Y-126155361D01*
X58166081Y-126081000D01*
X57784919Y-126081000D01*
X57411081Y-126155361D01*
X57058934Y-126301225D01*
X56742009Y-126512987D01*
X56472487Y-126782509D01*
X56260725Y-127099434D01*
X56114861Y-127451581D01*
X56040500Y-127825419D01*
X47496331Y-127825419D01*
X47591500Y-127730250D01*
X47594572Y-126716000D01*
X47582312Y-126591518D01*
X47546002Y-126471820D01*
X47487037Y-126361506D01*
X47407685Y-126264815D01*
X47310994Y-126185463D01*
X47200680Y-126126498D01*
X47080982Y-126090188D01*
X46956500Y-126077928D01*
X45942250Y-126081000D01*
X45783500Y-126239750D01*
X45529500Y-126239750D01*
X45370750Y-126081000D01*
X44356500Y-126077928D01*
X44232018Y-126090188D01*
X44112320Y-126126498D01*
X44002006Y-126185463D01*
X43905315Y-126264815D01*
X43825963Y-126361506D01*
X43766998Y-126471820D01*
X43730688Y-126591518D01*
X43718428Y-126716000D01*
X42013004Y-126716000D01*
X41809991Y-126512987D01*
X41493066Y-126301225D01*
X41140919Y-126155361D01*
X40767081Y-126081000D01*
X40385919Y-126081000D01*
X40012081Y-126155361D01*
X39659934Y-126301225D01*
X39343009Y-126512987D01*
X39073487Y-126782509D01*
X38861725Y-127099434D01*
X38715861Y-127451581D01*
X38641500Y-127825419D01*
X34023874Y-127825419D01*
X33720128Y-127765000D01*
X33279872Y-127765000D01*
X32848075Y-127850890D01*
X32441331Y-128019369D01*
X32075271Y-128263962D01*
X31763962Y-128575271D01*
X31519369Y-128941331D01*
X31350890Y-129348075D01*
X31265000Y-129779872D01*
X30660000Y-129779872D01*
X30660000Y-96081528D01*
X40369500Y-96081528D01*
X40369500Y-96372472D01*
X40426260Y-96657825D01*
X40537599Y-96926622D01*
X40699239Y-97168533D01*
X40904967Y-97374261D01*
X41146878Y-97535901D01*
X41415675Y-97647240D01*
X41701028Y-97704000D01*
X41991972Y-97704000D01*
X42277325Y-97647240D01*
X42546122Y-97535901D01*
X42788033Y-97374261D01*
X42993761Y-97168533D01*
X43155401Y-96926622D01*
X43266740Y-96657825D01*
X43323500Y-96372472D01*
X43323500Y-96081528D01*
X43266740Y-95796175D01*
X43155401Y-95527378D01*
X42993761Y-95285467D01*
X42788033Y-95079739D01*
X42546122Y-94918099D01*
X42277325Y-94806760D01*
X41991972Y-94750000D01*
X41701028Y-94750000D01*
X41415675Y-94806760D01*
X41146878Y-94918099D01*
X40904967Y-95079739D01*
X40699239Y-95285467D01*
X40537599Y-95527378D01*
X40426260Y-95796175D01*
X40369500Y-96081528D01*
X30660000Y-96081528D01*
X30660000Y-84480061D01*
X44367500Y-84480061D01*
X44367500Y-84683939D01*
X44407274Y-84883898D01*
X44485295Y-85072256D01*
X44598563Y-85241774D01*
X44617501Y-85260712D01*
X44617500Y-92798447D01*
X44613703Y-92837000D01*
X44617500Y-92875553D01*
X44617500Y-92875560D01*
X44628859Y-92990886D01*
X44673746Y-93138859D01*
X44746638Y-93275232D01*
X44844736Y-93394764D01*
X44874690Y-93419347D01*
X58409158Y-106953816D01*
X58433736Y-106983764D01*
X58463684Y-107008342D01*
X58463687Y-107008345D01*
X58489848Y-107029815D01*
X58553267Y-107081862D01*
X58672067Y-107145361D01*
X58689640Y-107154754D01*
X58837612Y-107199641D01*
X58851990Y-107201057D01*
X58952939Y-107211000D01*
X58952946Y-107211000D01*
X58991499Y-107214797D01*
X59030052Y-107211000D01*
X77362789Y-107211000D01*
X77381726Y-107229937D01*
X77551244Y-107343205D01*
X77739602Y-107421226D01*
X77746698Y-107422637D01*
X77614744Y-107477295D01*
X77445226Y-107590563D01*
X77301063Y-107734726D01*
X77187795Y-107904244D01*
X77109774Y-108092602D01*
X77070000Y-108292561D01*
X77070000Y-108496439D01*
X77109774Y-108696398D01*
X77187795Y-108884756D01*
X77301063Y-109054274D01*
X77445226Y-109198437D01*
X77492691Y-109230152D01*
X77335343Y-109387500D01*
X72619056Y-109387500D01*
X72580500Y-109383703D01*
X72541944Y-109387500D01*
X72541939Y-109387500D01*
X72501526Y-109391480D01*
X72426613Y-109398858D01*
X72278640Y-109443746D01*
X72142267Y-109516638D01*
X72022736Y-109614736D01*
X71998155Y-109644688D01*
X70282843Y-111360000D01*
X70256061Y-111360000D01*
X70056102Y-111399774D01*
X69867744Y-111477795D01*
X69698226Y-111591063D01*
X69554063Y-111735226D01*
X69440795Y-111904744D01*
X69362774Y-112093102D01*
X69323000Y-112293061D01*
X69323000Y-112496939D01*
X69362774Y-112696898D01*
X69440795Y-112885256D01*
X69554063Y-113054774D01*
X69698226Y-113198937D01*
X69867744Y-113312205D01*
X70056102Y-113390226D01*
X70256061Y-113430000D01*
X70459939Y-113430000D01*
X70659898Y-113390226D01*
X70848256Y-113312205D01*
X71017774Y-113198937D01*
X71161937Y-113054774D01*
X71275205Y-112885256D01*
X71353226Y-112696898D01*
X71393000Y-112496939D01*
X71393000Y-112470157D01*
X72905657Y-110957500D01*
X77320192Y-110957500D01*
X77316203Y-110998000D01*
X77320001Y-111036563D01*
X77320000Y-117848342D01*
X75239843Y-119928500D01*
X69169551Y-119928500D01*
X69384381Y-119851570D01*
X69625631Y-119706885D01*
X69834019Y-119517914D01*
X70001537Y-119291920D01*
X70121746Y-119037587D01*
X70162404Y-118903539D01*
X70040415Y-118681500D01*
X68897500Y-118681500D01*
X68897500Y-118701500D01*
X68643500Y-118701500D01*
X68643500Y-118681500D01*
X67500585Y-118681500D01*
X67500500Y-118681655D01*
X67500415Y-118681500D01*
X66357500Y-118681500D01*
X66357500Y-118701500D01*
X66103500Y-118701500D01*
X66103500Y-118681500D01*
X64960585Y-118681500D01*
X64838596Y-118903539D01*
X64879254Y-119037587D01*
X64999463Y-119291920D01*
X65166981Y-119517914D01*
X65375369Y-119706885D01*
X65616619Y-119851570D01*
X65831449Y-119928500D01*
X61583204Y-119928500D01*
X61830227Y-119826180D01*
X62065259Y-119669137D01*
X62265137Y-119469259D01*
X62422180Y-119234227D01*
X62530353Y-118973074D01*
X62585500Y-118695835D01*
X62585500Y-118413165D01*
X62530353Y-118135926D01*
X62422180Y-117874773D01*
X62265137Y-117639741D01*
X62066539Y-117441143D01*
X62074982Y-117440312D01*
X62194680Y-117404002D01*
X62304994Y-117345037D01*
X62401685Y-117265685D01*
X62481037Y-117168994D01*
X62540002Y-117058680D01*
X62576312Y-116938982D01*
X62588572Y-116814500D01*
X62588572Y-115214500D01*
X62576312Y-115090018D01*
X62540002Y-114970320D01*
X62481037Y-114860006D01*
X62401685Y-114763315D01*
X62304994Y-114683963D01*
X62194680Y-114624998D01*
X62074982Y-114588688D01*
X61950500Y-114576428D01*
X60350500Y-114576428D01*
X60226018Y-114588688D01*
X60106320Y-114624998D01*
X59996006Y-114683963D01*
X59899315Y-114763315D01*
X59819963Y-114860006D01*
X59760998Y-114970320D01*
X59724688Y-115090018D01*
X59723857Y-115098461D01*
X59526539Y-114901143D01*
X59534982Y-114900312D01*
X59654680Y-114864002D01*
X59764994Y-114805037D01*
X59861685Y-114725685D01*
X59941037Y-114628994D01*
X60000002Y-114518680D01*
X60036312Y-114398982D01*
X60048572Y-114274500D01*
X60048572Y-113333165D01*
X64795500Y-113333165D01*
X64795500Y-113615835D01*
X64850647Y-113893074D01*
X64958820Y-114154227D01*
X65115863Y-114389259D01*
X65315741Y-114589137D01*
X65548259Y-114744500D01*
X65315741Y-114899863D01*
X65115863Y-115099741D01*
X64958820Y-115334773D01*
X64850647Y-115595926D01*
X64795500Y-115873165D01*
X64795500Y-116155835D01*
X64850647Y-116433074D01*
X64958820Y-116694227D01*
X65115863Y-116929259D01*
X65315741Y-117129137D01*
X65550773Y-117286180D01*
X65561365Y-117290567D01*
X65375369Y-117402115D01*
X65166981Y-117591086D01*
X64999463Y-117817080D01*
X64879254Y-118071413D01*
X64838596Y-118205461D01*
X64960585Y-118427500D01*
X66103500Y-118427500D01*
X66103500Y-118407500D01*
X66357500Y-118407500D01*
X66357500Y-118427500D01*
X67500415Y-118427500D01*
X67500500Y-118427345D01*
X67500585Y-118427500D01*
X68643500Y-118427500D01*
X68643500Y-118407500D01*
X68897500Y-118407500D01*
X68897500Y-118427500D01*
X70040415Y-118427500D01*
X70162404Y-118205461D01*
X70121746Y-118071413D01*
X70001537Y-117817080D01*
X69834019Y-117591086D01*
X69625631Y-117402115D01*
X69439635Y-117290567D01*
X69450227Y-117286180D01*
X69685259Y-117129137D01*
X69885137Y-116929259D01*
X70042180Y-116694227D01*
X70150353Y-116433074D01*
X70205500Y-116155835D01*
X70205500Y-115873165D01*
X70150353Y-115595926D01*
X70042180Y-115334773D01*
X69885137Y-115099741D01*
X69685259Y-114899863D01*
X69450227Y-114742820D01*
X69189074Y-114634647D01*
X68911835Y-114579500D01*
X68629165Y-114579500D01*
X68351926Y-114634647D01*
X68090773Y-114742820D01*
X67855741Y-114899863D01*
X67655863Y-115099741D01*
X67500500Y-115332259D01*
X67345137Y-115099741D01*
X67145259Y-114899863D01*
X66912741Y-114744500D01*
X67145259Y-114589137D01*
X67345137Y-114389259D01*
X67502180Y-114154227D01*
X67610353Y-113893074D01*
X67665500Y-113615835D01*
X67665500Y-113333165D01*
X67610353Y-113055926D01*
X67502180Y-112794773D01*
X67345137Y-112559741D01*
X67145259Y-112359863D01*
X66910227Y-112202820D01*
X66649074Y-112094647D01*
X66371835Y-112039500D01*
X66089165Y-112039500D01*
X65811926Y-112094647D01*
X65550773Y-112202820D01*
X65315741Y-112359863D01*
X65115863Y-112559741D01*
X64958820Y-112794773D01*
X64850647Y-113055926D01*
X64795500Y-113333165D01*
X60048572Y-113333165D01*
X60048572Y-112674500D01*
X60036312Y-112550018D01*
X60000002Y-112430320D01*
X59941037Y-112320006D01*
X59861685Y-112223315D01*
X59764994Y-112143963D01*
X59654680Y-112084998D01*
X59534982Y-112048688D01*
X59410500Y-112036428D01*
X57810500Y-112036428D01*
X57686018Y-112048688D01*
X57566320Y-112084998D01*
X57456006Y-112143963D01*
X57359315Y-112223315D01*
X57279963Y-112320006D01*
X57220998Y-112430320D01*
X57184688Y-112550018D01*
X57172428Y-112674500D01*
X57172428Y-114274500D01*
X57184688Y-114398982D01*
X57220998Y-114518680D01*
X57279963Y-114628994D01*
X57359315Y-114725685D01*
X57456006Y-114805037D01*
X57566320Y-114864002D01*
X57686018Y-114900312D01*
X57694461Y-114901143D01*
X57495863Y-115099741D01*
X57338820Y-115334773D01*
X57230647Y-115595926D01*
X57175500Y-115873165D01*
X57175500Y-116155835D01*
X57230647Y-116433074D01*
X57338820Y-116694227D01*
X57495863Y-116929259D01*
X57695741Y-117129137D01*
X57928259Y-117284500D01*
X57695741Y-117439863D01*
X57495863Y-117639741D01*
X57338820Y-117874773D01*
X57230647Y-118135926D01*
X57175500Y-118413165D01*
X57175500Y-118695835D01*
X57230647Y-118973074D01*
X57284327Y-119102669D01*
X53223847Y-115042190D01*
X53199264Y-115012236D01*
X53079733Y-114914138D01*
X52943360Y-114841246D01*
X52795387Y-114796359D01*
X52680061Y-114785000D01*
X52680053Y-114785000D01*
X52641500Y-114781203D01*
X52602947Y-114785000D01*
X50589711Y-114785000D01*
X50570774Y-114766063D01*
X50401256Y-114652795D01*
X50212898Y-114574774D01*
X50012939Y-114535000D01*
X49809061Y-114535000D01*
X49609102Y-114574774D01*
X49420744Y-114652795D01*
X49251226Y-114766063D01*
X49107063Y-114910226D01*
X48993795Y-115079744D01*
X48915774Y-115268102D01*
X48876000Y-115468061D01*
X48876000Y-115671939D01*
X48915774Y-115871898D01*
X48993795Y-116060256D01*
X49107063Y-116229774D01*
X49251226Y-116373937D01*
X49420744Y-116487205D01*
X49609102Y-116565226D01*
X49809061Y-116605000D01*
X50012939Y-116605000D01*
X50212898Y-116565226D01*
X50401256Y-116487205D01*
X50570774Y-116373937D01*
X50589711Y-116355000D01*
X52316343Y-116355000D01*
X57202658Y-121241316D01*
X57227236Y-121271264D01*
X57257184Y-121295842D01*
X57257187Y-121295845D01*
X57286559Y-121319950D01*
X57346767Y-121369362D01*
X57483140Y-121442254D01*
X57596672Y-121476694D01*
X57631112Y-121487141D01*
X57645490Y-121488557D01*
X57746439Y-121498500D01*
X57746446Y-121498500D01*
X57784999Y-121502297D01*
X57823552Y-121498500D01*
X75526447Y-121498500D01*
X75565000Y-121502297D01*
X75603553Y-121498500D01*
X75603561Y-121498500D01*
X75718887Y-121487141D01*
X75866860Y-121442254D01*
X76003233Y-121369362D01*
X76122764Y-121271264D01*
X76147347Y-121241310D01*
X76225294Y-121163363D01*
X95094500Y-121163363D01*
X95094500Y-121406637D01*
X95141960Y-121645236D01*
X95235057Y-121869992D01*
X95370213Y-122072267D01*
X95542233Y-122244287D01*
X95744508Y-122379443D01*
X95969264Y-122472540D01*
X96207863Y-122520000D01*
X96451137Y-122520000D01*
X96689736Y-122472540D01*
X96914492Y-122379443D01*
X96978275Y-122336825D01*
X98870998Y-124229549D01*
X98898711Y-124263317D01*
X98932479Y-124291030D01*
X98932481Y-124291032D01*
X98996893Y-124343894D01*
X99033469Y-124373911D01*
X99187215Y-124456089D01*
X99354038Y-124506695D01*
X99484051Y-124519500D01*
X99484059Y-124519500D01*
X99527528Y-124523781D01*
X99570997Y-124519500D01*
X111329922Y-124519500D01*
X113706970Y-126896549D01*
X113734683Y-126930317D01*
X113768451Y-126958030D01*
X113768453Y-126958032D01*
X113869441Y-127040911D01*
X114023186Y-127123089D01*
X114190010Y-127173695D01*
X114320023Y-127186500D01*
X114320031Y-127186500D01*
X114363500Y-127190781D01*
X114406969Y-127186500D01*
X120826428Y-127186500D01*
X120826428Y-127201500D01*
X120838688Y-127325982D01*
X120874998Y-127445680D01*
X120933963Y-127555994D01*
X121013315Y-127652685D01*
X121110006Y-127732037D01*
X121220320Y-127791002D01*
X121340018Y-127827312D01*
X121464500Y-127839572D01*
X123264500Y-127839572D01*
X123388982Y-127827312D01*
X123508680Y-127791002D01*
X123618994Y-127732037D01*
X123715685Y-127652685D01*
X123795037Y-127555994D01*
X123854002Y-127445680D01*
X123890312Y-127325982D01*
X123902572Y-127201500D01*
X123902572Y-125401500D01*
X123890312Y-125277018D01*
X123854002Y-125157320D01*
X123795037Y-125047006D01*
X123715685Y-124950315D01*
X123618994Y-124870963D01*
X123508680Y-124811998D01*
X123388982Y-124775688D01*
X123264500Y-124763428D01*
X121464500Y-124763428D01*
X121340018Y-124775688D01*
X121220320Y-124811998D01*
X121110006Y-124870963D01*
X121013315Y-124950315D01*
X120933963Y-125047006D01*
X120874998Y-125157320D01*
X120838688Y-125277018D01*
X120826428Y-125401500D01*
X120826428Y-125416500D01*
X119966063Y-125416500D01*
X120024799Y-125328595D01*
X120140511Y-125049243D01*
X120199500Y-124752684D01*
X120199500Y-124450316D01*
X120140511Y-124153757D01*
X120024799Y-123874405D01*
X119856812Y-123622995D01*
X119643005Y-123409188D01*
X119429070Y-123266241D01*
X120873459Y-123266241D01*
X120973266Y-123550120D01*
X121126538Y-123809073D01*
X121327384Y-124033149D01*
X121568086Y-124213736D01*
X121839393Y-124343894D01*
X121999760Y-124392536D01*
X122237500Y-124271878D01*
X122237500Y-123028500D01*
X122491500Y-123028500D01*
X122491500Y-124271878D01*
X122729240Y-124392536D01*
X122889607Y-124343894D01*
X123160914Y-124213736D01*
X123401616Y-124033149D01*
X123602462Y-123809073D01*
X123755734Y-123550120D01*
X123855541Y-123266241D01*
X123735492Y-123028500D01*
X122491500Y-123028500D01*
X122237500Y-123028500D01*
X120993508Y-123028500D01*
X120873459Y-123266241D01*
X119429070Y-123266241D01*
X119391595Y-123241201D01*
X119112243Y-123125489D01*
X118815684Y-123066500D01*
X118513316Y-123066500D01*
X118216757Y-123125489D01*
X117937405Y-123241201D01*
X117685995Y-123409188D01*
X117472188Y-123622995D01*
X117304201Y-123874405D01*
X117188489Y-124153757D01*
X117129500Y-124450316D01*
X117129500Y-124752684D01*
X117188489Y-125049243D01*
X117304201Y-125328595D01*
X117362937Y-125416500D01*
X114730079Y-125416500D01*
X112353034Y-123039456D01*
X112325317Y-123005683D01*
X112190559Y-122895089D01*
X112036813Y-122812911D01*
X111869990Y-122762305D01*
X111739977Y-122749500D01*
X111739969Y-122749500D01*
X111696500Y-122745219D01*
X111653031Y-122749500D01*
X99894107Y-122749500D01*
X98194923Y-121050316D01*
X117129500Y-121050316D01*
X117129500Y-121352684D01*
X117188489Y-121649243D01*
X117304201Y-121928595D01*
X117472188Y-122180005D01*
X117685995Y-122393812D01*
X117937405Y-122561799D01*
X118216757Y-122677511D01*
X118513316Y-122736500D01*
X118815684Y-122736500D01*
X119112243Y-122677511D01*
X119391595Y-122561799D01*
X119429069Y-122536759D01*
X120873459Y-122536759D01*
X120993508Y-122774500D01*
X122237500Y-122774500D01*
X122237500Y-121531122D01*
X122491500Y-121531122D01*
X122491500Y-122774500D01*
X123735492Y-122774500D01*
X123855541Y-122536759D01*
X123755734Y-122252880D01*
X123602462Y-121993927D01*
X123401616Y-121769851D01*
X123160914Y-121589264D01*
X122889607Y-121459106D01*
X122729240Y-121410464D01*
X122491500Y-121531122D01*
X122237500Y-121531122D01*
X121999760Y-121410464D01*
X121839393Y-121459106D01*
X121568086Y-121589264D01*
X121327384Y-121769851D01*
X121126538Y-121993927D01*
X120973266Y-122252880D01*
X120873459Y-122536759D01*
X119429069Y-122536759D01*
X119643005Y-122393812D01*
X119856812Y-122180005D01*
X120024799Y-121928595D01*
X120140511Y-121649243D01*
X120199500Y-121352684D01*
X120199500Y-121050316D01*
X120140511Y-120753757D01*
X120024799Y-120474405D01*
X119856812Y-120222995D01*
X119643005Y-120009188D01*
X119429070Y-119866241D01*
X120873459Y-119866241D01*
X120973266Y-120150120D01*
X121126538Y-120409073D01*
X121327384Y-120633149D01*
X121568086Y-120813736D01*
X121839393Y-120943894D01*
X121999760Y-120992536D01*
X122237500Y-120871878D01*
X122237500Y-119628500D01*
X122491500Y-119628500D01*
X122491500Y-120871878D01*
X122729240Y-120992536D01*
X122889607Y-120943894D01*
X123160914Y-120813736D01*
X123401616Y-120633149D01*
X123602462Y-120409073D01*
X123755734Y-120150120D01*
X123855541Y-119866241D01*
X123735492Y-119628500D01*
X122491500Y-119628500D01*
X122237500Y-119628500D01*
X120993508Y-119628500D01*
X120873459Y-119866241D01*
X119429070Y-119866241D01*
X119391595Y-119841201D01*
X119112243Y-119725489D01*
X118815684Y-119666500D01*
X118513316Y-119666500D01*
X118216757Y-119725489D01*
X117937405Y-119841201D01*
X117685995Y-120009188D01*
X117472188Y-120222995D01*
X117304201Y-120474405D01*
X117188489Y-120753757D01*
X117129500Y-121050316D01*
X98194923Y-121050316D01*
X97834562Y-120689956D01*
X97806845Y-120656183D01*
X97672087Y-120545589D01*
X97518341Y-120463411D01*
X97351518Y-120412805D01*
X97221505Y-120400000D01*
X97221497Y-120400000D01*
X97187728Y-120396674D01*
X97116767Y-120325713D01*
X96914492Y-120190557D01*
X96689736Y-120097460D01*
X96451137Y-120050000D01*
X96207863Y-120050000D01*
X95969264Y-120097460D01*
X95744508Y-120190557D01*
X95542233Y-120325713D01*
X95370213Y-120497733D01*
X95235057Y-120700008D01*
X95141960Y-120924764D01*
X95094500Y-121163363D01*
X76225294Y-121163363D01*
X78632817Y-118755841D01*
X78662764Y-118731264D01*
X78691841Y-118695835D01*
X78711450Y-118671941D01*
X78760862Y-118611733D01*
X78833754Y-118475360D01*
X78878641Y-118327387D01*
X78890000Y-118212061D01*
X78890000Y-118212054D01*
X78893797Y-118173501D01*
X78890000Y-118134948D01*
X78890000Y-116779872D01*
X83265000Y-116779872D01*
X83265000Y-117220128D01*
X83350890Y-117651925D01*
X83519369Y-118058669D01*
X83763962Y-118424729D01*
X84075271Y-118736038D01*
X84441331Y-118980631D01*
X84848075Y-119149110D01*
X85279872Y-119235000D01*
X85720128Y-119235000D01*
X86151925Y-119149110D01*
X86181742Y-119136759D01*
X120873459Y-119136759D01*
X120993508Y-119374500D01*
X122237500Y-119374500D01*
X122237500Y-118131122D01*
X122491500Y-118131122D01*
X122491500Y-119374500D01*
X123735492Y-119374500D01*
X123855541Y-119136759D01*
X123755734Y-118852880D01*
X123602462Y-118593927D01*
X123401616Y-118369851D01*
X123160914Y-118189264D01*
X122889607Y-118059106D01*
X122729240Y-118010464D01*
X122491500Y-118131122D01*
X122237500Y-118131122D01*
X121999760Y-118010464D01*
X121839393Y-118059106D01*
X121568086Y-118189264D01*
X121327384Y-118369851D01*
X121126538Y-118593927D01*
X120973266Y-118852880D01*
X120873459Y-119136759D01*
X86181742Y-119136759D01*
X86558669Y-118980631D01*
X86924729Y-118736038D01*
X87236038Y-118424729D01*
X87480631Y-118058669D01*
X87649110Y-117651925D01*
X87735000Y-117220128D01*
X87735000Y-116779872D01*
X87649110Y-116348075D01*
X87480631Y-115941331D01*
X87236038Y-115575271D01*
X86924729Y-115263962D01*
X86558669Y-115019369D01*
X86151925Y-114850890D01*
X85720128Y-114765000D01*
X85279872Y-114765000D01*
X84848075Y-114850890D01*
X84441331Y-115019369D01*
X84075271Y-115263962D01*
X83763962Y-115575271D01*
X83519369Y-115941331D01*
X83350890Y-116348075D01*
X83265000Y-116779872D01*
X78890000Y-116779872D01*
X78890000Y-111323157D01*
X82094057Y-108119100D01*
X82081000Y-108184740D01*
X82081000Y-108477260D01*
X82138068Y-108764158D01*
X82250010Y-109034411D01*
X82412525Y-109277632D01*
X82619368Y-109484475D01*
X82778225Y-109590620D01*
X82777203Y-109601000D01*
X82792359Y-109754886D01*
X82837246Y-109902859D01*
X82837247Y-109902860D01*
X82910139Y-110039233D01*
X82936210Y-110071000D01*
X82983655Y-110128812D01*
X82983659Y-110128816D01*
X83008237Y-110158764D01*
X83038185Y-110183342D01*
X87746158Y-114891316D01*
X87770736Y-114921264D01*
X87800684Y-114945842D01*
X87800687Y-114945845D01*
X87830059Y-114969950D01*
X87890267Y-115019362D01*
X88003235Y-115079744D01*
X88026640Y-115092254D01*
X88174612Y-115137141D01*
X88188990Y-115138557D01*
X88289939Y-115148500D01*
X88289946Y-115148500D01*
X88328499Y-115152297D01*
X88367052Y-115148500D01*
X105815947Y-115148500D01*
X105854500Y-115152297D01*
X105893053Y-115148500D01*
X105893061Y-115148500D01*
X106008387Y-115137141D01*
X106156360Y-115092254D01*
X106292733Y-115019362D01*
X106412264Y-114921264D01*
X106436847Y-114891310D01*
X107398317Y-113929841D01*
X107428264Y-113905264D01*
X107526362Y-113785733D01*
X107599254Y-113649360D01*
X107609424Y-113615835D01*
X107644142Y-113501387D01*
X107651520Y-113426474D01*
X107655500Y-113386061D01*
X107655500Y-113386056D01*
X107659297Y-113347500D01*
X107655500Y-113308945D01*
X107655500Y-113084974D01*
X107817132Y-112976975D01*
X108023975Y-112770132D01*
X108186490Y-112526911D01*
X108298432Y-112256658D01*
X108355500Y-111969760D01*
X108355500Y-111863702D01*
X118749903Y-111863702D01*
X118821486Y-112107671D01*
X119076996Y-112228571D01*
X119351184Y-112297300D01*
X119633512Y-112311217D01*
X119913130Y-112269787D01*
X120179292Y-112174603D01*
X120304514Y-112107671D01*
X120376097Y-111863702D01*
X119563000Y-111050605D01*
X118749903Y-111863702D01*
X108355500Y-111863702D01*
X108355500Y-111677240D01*
X108298432Y-111390342D01*
X108186490Y-111120089D01*
X108067169Y-110941512D01*
X118122783Y-110941512D01*
X118164213Y-111221130D01*
X118259397Y-111487292D01*
X118326329Y-111612514D01*
X118570298Y-111684097D01*
X119383395Y-110871000D01*
X119742605Y-110871000D01*
X120555702Y-111684097D01*
X120799671Y-111612514D01*
X120920571Y-111357004D01*
X120989300Y-111082816D01*
X121003217Y-110800488D01*
X120961787Y-110520870D01*
X120866603Y-110254708D01*
X120799671Y-110129486D01*
X120600340Y-110071000D01*
X121624928Y-110071000D01*
X121624928Y-111671000D01*
X121637188Y-111795482D01*
X121673498Y-111915180D01*
X121732463Y-112025494D01*
X121811815Y-112122185D01*
X121908506Y-112201537D01*
X122018820Y-112260502D01*
X122138518Y-112296812D01*
X122263000Y-112309072D01*
X123863000Y-112309072D01*
X123987482Y-112296812D01*
X124107180Y-112260502D01*
X124217494Y-112201537D01*
X124314185Y-112122185D01*
X124393537Y-112025494D01*
X124452502Y-111915180D01*
X124488812Y-111795482D01*
X124501072Y-111671000D01*
X124501072Y-110071000D01*
X124488812Y-109946518D01*
X124452502Y-109826820D01*
X124393537Y-109716506D01*
X124314185Y-109619815D01*
X124217494Y-109540463D01*
X124107180Y-109481498D01*
X123987482Y-109445188D01*
X123863000Y-109432928D01*
X122263000Y-109432928D01*
X122138518Y-109445188D01*
X122018820Y-109481498D01*
X121908506Y-109540463D01*
X121811815Y-109619815D01*
X121732463Y-109716506D01*
X121673498Y-109826820D01*
X121637188Y-109946518D01*
X121624928Y-110071000D01*
X120600340Y-110071000D01*
X120555702Y-110057903D01*
X119742605Y-110871000D01*
X119383395Y-110871000D01*
X118570298Y-110057903D01*
X118326329Y-110129486D01*
X118205429Y-110384996D01*
X118136700Y-110659184D01*
X118122783Y-110941512D01*
X108067169Y-110941512D01*
X108023975Y-110876868D01*
X107817132Y-110670025D01*
X107573911Y-110507510D01*
X107303658Y-110395568D01*
X107016760Y-110338500D01*
X106724240Y-110338500D01*
X106437342Y-110395568D01*
X106167089Y-110507510D01*
X105923868Y-110670025D01*
X105717025Y-110876868D01*
X105595305Y-111059034D01*
X105525678Y-110942145D01*
X105330769Y-110725912D01*
X105097420Y-110551859D01*
X104834599Y-110426675D01*
X104687390Y-110382024D01*
X104457500Y-110503345D01*
X104457500Y-111696500D01*
X104477500Y-111696500D01*
X104477500Y-111950500D01*
X104457500Y-111950500D01*
X104457500Y-113143655D01*
X104687390Y-113264976D01*
X104834599Y-113220325D01*
X105097420Y-113095141D01*
X105330769Y-112921088D01*
X105525678Y-112704855D01*
X105595305Y-112587966D01*
X105717025Y-112770132D01*
X105923868Y-112976975D01*
X106047955Y-113059887D01*
X105529343Y-113578500D01*
X88653658Y-113578500D01*
X86048658Y-110973500D01*
X97762428Y-110973500D01*
X97762428Y-112673500D01*
X97774688Y-112797982D01*
X97810998Y-112917680D01*
X97869963Y-113027994D01*
X97949315Y-113124685D01*
X98046006Y-113204037D01*
X98156320Y-113263002D01*
X98276018Y-113299312D01*
X98400500Y-113311572D01*
X100100500Y-113311572D01*
X100224982Y-113299312D01*
X100344680Y-113263002D01*
X100454994Y-113204037D01*
X100551685Y-113124685D01*
X100631037Y-113027994D01*
X100690002Y-112917680D01*
X100712013Y-112845120D01*
X100843868Y-112976975D01*
X101087089Y-113139490D01*
X101357342Y-113251432D01*
X101644240Y-113308500D01*
X101936760Y-113308500D01*
X102223658Y-113251432D01*
X102493911Y-113139490D01*
X102737132Y-112976975D01*
X102943975Y-112770132D01*
X103065695Y-112587966D01*
X103135322Y-112704855D01*
X103330231Y-112921088D01*
X103563580Y-113095141D01*
X103826401Y-113220325D01*
X103973610Y-113264976D01*
X104203500Y-113143655D01*
X104203500Y-111950500D01*
X104183500Y-111950500D01*
X104183500Y-111696500D01*
X104203500Y-111696500D01*
X104203500Y-110503345D01*
X103973610Y-110382024D01*
X103826401Y-110426675D01*
X103563580Y-110551859D01*
X103330231Y-110725912D01*
X103135322Y-110942145D01*
X103065695Y-111059034D01*
X102943975Y-110876868D01*
X102737132Y-110670025D01*
X102493911Y-110507510D01*
X102223658Y-110395568D01*
X101936760Y-110338500D01*
X101644240Y-110338500D01*
X101357342Y-110395568D01*
X101087089Y-110507510D01*
X100843868Y-110670025D01*
X100712013Y-110801880D01*
X100690002Y-110729320D01*
X100631037Y-110619006D01*
X100551685Y-110522315D01*
X100454994Y-110442963D01*
X100344680Y-110383998D01*
X100224982Y-110347688D01*
X100100500Y-110335428D01*
X98400500Y-110335428D01*
X98276018Y-110347688D01*
X98156320Y-110383998D01*
X98046006Y-110442963D01*
X97949315Y-110522315D01*
X97869963Y-110619006D01*
X97810998Y-110729320D01*
X97774688Y-110849018D01*
X97762428Y-110973500D01*
X86048658Y-110973500D01*
X84953456Y-109878298D01*
X118749903Y-109878298D01*
X119563000Y-110691395D01*
X120376097Y-109878298D01*
X120304514Y-109634329D01*
X120049004Y-109513429D01*
X119774816Y-109444700D01*
X119492488Y-109430783D01*
X119212870Y-109472213D01*
X118946708Y-109567397D01*
X118821486Y-109634329D01*
X118749903Y-109878298D01*
X84953456Y-109878298D01*
X84536132Y-109460975D01*
X84719475Y-109277632D01*
X84836000Y-109103240D01*
X84952525Y-109277632D01*
X85159368Y-109484475D01*
X85402589Y-109646990D01*
X85672842Y-109758932D01*
X85959740Y-109816000D01*
X86252260Y-109816000D01*
X86539158Y-109758932D01*
X86809411Y-109646990D01*
X87052632Y-109484475D01*
X87259475Y-109277632D01*
X87376000Y-109103240D01*
X87492525Y-109277632D01*
X87699368Y-109484475D01*
X87942589Y-109646990D01*
X88212842Y-109758932D01*
X88499740Y-109816000D01*
X88792260Y-109816000D01*
X89079158Y-109758932D01*
X89349411Y-109646990D01*
X89592632Y-109484475D01*
X89799475Y-109277632D01*
X89916000Y-109103240D01*
X90032525Y-109277632D01*
X90239368Y-109484475D01*
X90482589Y-109646990D01*
X90752842Y-109758932D01*
X91039740Y-109816000D01*
X91332260Y-109816000D01*
X91619158Y-109758932D01*
X91889411Y-109646990D01*
X92132632Y-109484475D01*
X92264487Y-109352620D01*
X92286498Y-109425180D01*
X92345463Y-109535494D01*
X92424815Y-109632185D01*
X92521506Y-109711537D01*
X92631820Y-109770502D01*
X92751518Y-109806812D01*
X92876000Y-109819072D01*
X93440250Y-109816000D01*
X93599000Y-109657250D01*
X93599000Y-108458000D01*
X93853000Y-108458000D01*
X93853000Y-109657250D01*
X94011750Y-109816000D01*
X94576000Y-109819072D01*
X94700482Y-109806812D01*
X94820180Y-109770502D01*
X94930494Y-109711537D01*
X95027185Y-109632185D01*
X95106537Y-109535494D01*
X95165502Y-109425180D01*
X95201812Y-109305482D01*
X95214072Y-109181000D01*
X95211000Y-108616750D01*
X95052250Y-108458000D01*
X93853000Y-108458000D01*
X93599000Y-108458000D01*
X93579000Y-108458000D01*
X93579000Y-108204000D01*
X93599000Y-108204000D01*
X93599000Y-107004750D01*
X93853000Y-107004750D01*
X93853000Y-108204000D01*
X95052250Y-108204000D01*
X95211000Y-108045250D01*
X95214072Y-107481000D01*
X95201812Y-107356518D01*
X95165502Y-107236820D01*
X95106537Y-107126506D01*
X95027185Y-107029815D01*
X94930494Y-106950463D01*
X94820180Y-106891498D01*
X94700482Y-106855188D01*
X94576000Y-106842928D01*
X94011750Y-106846000D01*
X93853000Y-107004750D01*
X93599000Y-107004750D01*
X93440250Y-106846000D01*
X92876000Y-106842928D01*
X92751518Y-106855188D01*
X92631820Y-106891498D01*
X92521506Y-106950463D01*
X92424815Y-107029815D01*
X92345463Y-107126506D01*
X92286498Y-107236820D01*
X92264487Y-107309380D01*
X92132632Y-107177525D01*
X91889411Y-107015010D01*
X91619158Y-106903068D01*
X91332260Y-106846000D01*
X91039740Y-106846000D01*
X90752842Y-106903068D01*
X90482589Y-107015010D01*
X90239368Y-107177525D01*
X90032525Y-107384368D01*
X89916000Y-107558760D01*
X89799475Y-107384368D01*
X89592632Y-107177525D01*
X89349411Y-107015010D01*
X89079158Y-106903068D01*
X88792260Y-106846000D01*
X88499740Y-106846000D01*
X88212842Y-106903068D01*
X87942589Y-107015010D01*
X87699368Y-107177525D01*
X87492525Y-107384368D01*
X87376000Y-107558760D01*
X87259475Y-107384368D01*
X87052632Y-107177525D01*
X86809411Y-107015010D01*
X86539158Y-106903068D01*
X86388130Y-106873027D01*
X87812157Y-105449000D01*
X99222928Y-105449000D01*
X99222928Y-107149000D01*
X99235188Y-107273482D01*
X99271498Y-107393180D01*
X99330463Y-107503494D01*
X99409815Y-107600185D01*
X99506506Y-107679537D01*
X99616820Y-107738502D01*
X99736518Y-107774812D01*
X99861000Y-107787072D01*
X101561000Y-107787072D01*
X101685482Y-107774812D01*
X101805180Y-107738502D01*
X101915494Y-107679537D01*
X102012185Y-107600185D01*
X102091537Y-107503494D01*
X102150502Y-107393180D01*
X102172513Y-107320620D01*
X102304368Y-107452475D01*
X102547589Y-107614990D01*
X102817842Y-107726932D01*
X103104740Y-107784000D01*
X103397260Y-107784000D01*
X103684158Y-107726932D01*
X103954411Y-107614990D01*
X104197632Y-107452475D01*
X104404475Y-107245632D01*
X104521000Y-107071240D01*
X104637525Y-107245632D01*
X104844368Y-107452475D01*
X105087589Y-107614990D01*
X105357842Y-107726932D01*
X105644740Y-107784000D01*
X105937260Y-107784000D01*
X106224158Y-107726932D01*
X106494411Y-107614990D01*
X106737632Y-107452475D01*
X106944475Y-107245632D01*
X107066195Y-107063466D01*
X107135822Y-107180355D01*
X107330731Y-107396588D01*
X107564080Y-107570641D01*
X107826901Y-107695825D01*
X107974110Y-107740476D01*
X108204000Y-107619155D01*
X108204000Y-106426000D01*
X108184000Y-106426000D01*
X108184000Y-106172000D01*
X108204000Y-106172000D01*
X108204000Y-104978845D01*
X108458000Y-104978845D01*
X108458000Y-106172000D01*
X108478000Y-106172000D01*
X108478000Y-106426000D01*
X108458000Y-106426000D01*
X108458000Y-107619155D01*
X108687890Y-107740476D01*
X108835099Y-107695825D01*
X109097920Y-107570641D01*
X109331269Y-107396588D01*
X109526178Y-107180355D01*
X109595805Y-107063466D01*
X109717525Y-107245632D01*
X109924368Y-107452475D01*
X110167589Y-107614990D01*
X110437842Y-107726932D01*
X110724740Y-107784000D01*
X111017260Y-107784000D01*
X111304158Y-107726932D01*
X111574411Y-107614990D01*
X111817632Y-107452475D01*
X112024475Y-107245632D01*
X112141000Y-107071240D01*
X112257525Y-107245632D01*
X112464368Y-107452475D01*
X112707589Y-107614990D01*
X112977842Y-107726932D01*
X113264740Y-107784000D01*
X113557260Y-107784000D01*
X113844158Y-107726932D01*
X114114411Y-107614990D01*
X114357632Y-107452475D01*
X114564475Y-107245632D01*
X114726990Y-107002411D01*
X114838932Y-106732158D01*
X114896000Y-106445260D01*
X114896000Y-106152740D01*
X114838932Y-105865842D01*
X114726990Y-105595589D01*
X114564475Y-105352368D01*
X114357632Y-105145525D01*
X114222315Y-105055109D01*
X123107997Y-105055109D01*
X123294073Y-105396266D01*
X123711409Y-105612013D01*
X124162815Y-105742196D01*
X124630946Y-105781813D01*
X125097811Y-105729342D01*
X125545468Y-105586797D01*
X125901927Y-105396266D01*
X126088003Y-105055109D01*
X124598000Y-103565105D01*
X123107997Y-105055109D01*
X114222315Y-105055109D01*
X114114411Y-104983010D01*
X113844158Y-104871068D01*
X113557260Y-104814000D01*
X113264740Y-104814000D01*
X112977842Y-104871068D01*
X112707589Y-104983010D01*
X112464368Y-105145525D01*
X112257525Y-105352368D01*
X112141000Y-105526760D01*
X112024475Y-105352368D01*
X111817632Y-105145525D01*
X111574411Y-104983010D01*
X111304158Y-104871068D01*
X111017260Y-104814000D01*
X110724740Y-104814000D01*
X110437842Y-104871068D01*
X110167589Y-104983010D01*
X109924368Y-105145525D01*
X109717525Y-105352368D01*
X109595805Y-105534534D01*
X109526178Y-105417645D01*
X109331269Y-105201412D01*
X109097920Y-105027359D01*
X108835099Y-104902175D01*
X108687890Y-104857524D01*
X108458000Y-104978845D01*
X108204000Y-104978845D01*
X107974110Y-104857524D01*
X107826901Y-104902175D01*
X107564080Y-105027359D01*
X107330731Y-105201412D01*
X107135822Y-105417645D01*
X107066195Y-105534534D01*
X106944475Y-105352368D01*
X106737632Y-105145525D01*
X106494411Y-104983010D01*
X106224158Y-104871068D01*
X105937260Y-104814000D01*
X105644740Y-104814000D01*
X105357842Y-104871068D01*
X105087589Y-104983010D01*
X104844368Y-105145525D01*
X104637525Y-105352368D01*
X104521000Y-105526760D01*
X104404475Y-105352368D01*
X104197632Y-105145525D01*
X103954411Y-104983010D01*
X103684158Y-104871068D01*
X103397260Y-104814000D01*
X103104740Y-104814000D01*
X102817842Y-104871068D01*
X102547589Y-104983010D01*
X102304368Y-105145525D01*
X102172513Y-105277380D01*
X102150502Y-105204820D01*
X102091537Y-105094506D01*
X102012185Y-104997815D01*
X101915494Y-104918463D01*
X101805180Y-104859498D01*
X101685482Y-104823188D01*
X101561000Y-104810928D01*
X99861000Y-104810928D01*
X99736518Y-104823188D01*
X99616820Y-104859498D01*
X99506506Y-104918463D01*
X99409815Y-104997815D01*
X99330463Y-105094506D01*
X99271498Y-105204820D01*
X99235188Y-105324518D01*
X99222928Y-105449000D01*
X87812157Y-105449000D01*
X88195273Y-105065884D01*
X91439006Y-105065884D01*
X91457943Y-105084821D01*
X91627461Y-105198089D01*
X91815819Y-105276110D01*
X92015778Y-105315884D01*
X92219656Y-105315884D01*
X92419615Y-105276110D01*
X92607973Y-105198089D01*
X92777491Y-105084821D01*
X92921654Y-104940658D01*
X93034922Y-104771140D01*
X93112943Y-104582782D01*
X93152717Y-104382823D01*
X93152717Y-104178945D01*
X93112943Y-103978986D01*
X93034922Y-103790628D01*
X92921654Y-103621110D01*
X92777491Y-103476947D01*
X92689938Y-103418446D01*
X122201687Y-103418446D01*
X122254158Y-103885311D01*
X122396703Y-104332968D01*
X122587234Y-104689427D01*
X122928391Y-104875503D01*
X124418395Y-103385500D01*
X122928391Y-101895497D01*
X122587234Y-102081573D01*
X122371487Y-102498909D01*
X122241304Y-102950315D01*
X122201687Y-103418446D01*
X92689938Y-103418446D01*
X92607973Y-103363679D01*
X92419615Y-103285658D01*
X92219656Y-103245884D01*
X92015778Y-103245884D01*
X91815819Y-103285658D01*
X91627461Y-103363679D01*
X91457943Y-103476947D01*
X91439006Y-103495884D01*
X88622274Y-103495884D01*
X90558658Y-101559500D01*
X91777289Y-101559500D01*
X91796226Y-101578437D01*
X91965744Y-101691705D01*
X92154102Y-101769726D01*
X92354061Y-101809500D01*
X92557939Y-101809500D01*
X92757898Y-101769726D01*
X92887866Y-101715891D01*
X123107997Y-101715891D01*
X124598000Y-103205895D01*
X126088003Y-101715891D01*
X125901927Y-101374734D01*
X125484591Y-101158987D01*
X125033185Y-101028804D01*
X124565054Y-100989187D01*
X124098189Y-101041658D01*
X123650532Y-101184203D01*
X123294073Y-101374734D01*
X123107997Y-101715891D01*
X92887866Y-101715891D01*
X92946256Y-101691705D01*
X93115774Y-101578437D01*
X93259937Y-101434274D01*
X93373205Y-101264756D01*
X93451226Y-101076398D01*
X93491000Y-100876439D01*
X93491000Y-100672561D01*
X93451226Y-100472602D01*
X93373205Y-100284244D01*
X93259937Y-100114726D01*
X93115774Y-99970563D01*
X92946256Y-99857295D01*
X92757898Y-99779274D01*
X92557939Y-99739500D01*
X92354061Y-99739500D01*
X92154102Y-99779274D01*
X91965744Y-99857295D01*
X91796226Y-99970563D01*
X91777289Y-99989500D01*
X90985657Y-99989500D01*
X93864657Y-97110500D01*
X93891439Y-97110500D01*
X94091398Y-97070726D01*
X94279756Y-96992705D01*
X94449274Y-96879437D01*
X94593150Y-96735561D01*
X111296500Y-96735561D01*
X111296500Y-96939439D01*
X111336274Y-97139398D01*
X111414295Y-97327756D01*
X111527563Y-97497274D01*
X111671726Y-97641437D01*
X111841244Y-97754705D01*
X112029602Y-97832726D01*
X112229561Y-97872500D01*
X112433439Y-97872500D01*
X112633398Y-97832726D01*
X112821756Y-97754705D01*
X112991274Y-97641437D01*
X113010211Y-97622500D01*
X116102947Y-97622500D01*
X116141500Y-97626297D01*
X116180053Y-97622500D01*
X116180061Y-97622500D01*
X116295387Y-97611141D01*
X116443360Y-97566254D01*
X116579733Y-97493362D01*
X116699264Y-97395264D01*
X116723847Y-97365310D01*
X118497723Y-95591435D01*
X118460068Y-95682342D01*
X118403000Y-95969240D01*
X118403000Y-96261760D01*
X118440924Y-96452418D01*
X116935843Y-97957500D01*
X113899211Y-97957500D01*
X113880274Y-97938563D01*
X113710756Y-97825295D01*
X113522398Y-97747274D01*
X113322439Y-97707500D01*
X113118561Y-97707500D01*
X112918602Y-97747274D01*
X112730244Y-97825295D01*
X112560726Y-97938563D01*
X112416563Y-98082726D01*
X112303295Y-98252244D01*
X112225274Y-98440602D01*
X112185500Y-98640561D01*
X112185500Y-98844439D01*
X112225274Y-99044398D01*
X112303295Y-99232756D01*
X112416563Y-99402274D01*
X112560726Y-99546437D01*
X112730244Y-99659705D01*
X112918602Y-99737726D01*
X113118561Y-99777500D01*
X113322439Y-99777500D01*
X113522398Y-99737726D01*
X113710756Y-99659705D01*
X113880274Y-99546437D01*
X113899211Y-99527500D01*
X117222447Y-99527500D01*
X117261000Y-99531297D01*
X117299553Y-99527500D01*
X117299561Y-99527500D01*
X117414887Y-99516141D01*
X117562860Y-99471254D01*
X117699233Y-99398362D01*
X117818764Y-99300264D01*
X117843347Y-99270310D01*
X118399928Y-98713729D01*
X118399928Y-99465500D01*
X118412188Y-99589982D01*
X118448498Y-99709680D01*
X118507463Y-99819994D01*
X118586815Y-99916685D01*
X118683506Y-99996037D01*
X118793820Y-100055002D01*
X118913518Y-100091312D01*
X119038000Y-100103572D01*
X120738000Y-100103572D01*
X120862482Y-100091312D01*
X120982180Y-100055002D01*
X121092494Y-99996037D01*
X121180876Y-99923504D01*
X121380883Y-100018871D01*
X121664411Y-100090839D01*
X121956531Y-100106111D01*
X122246019Y-100064099D01*
X122521747Y-99966419D01*
X122659157Y-99892972D01*
X122736792Y-99643897D01*
X121888000Y-98795105D01*
X121873858Y-98809248D01*
X121694253Y-98629643D01*
X121708395Y-98615500D01*
X122067605Y-98615500D01*
X122916397Y-99464292D01*
X123165472Y-99386657D01*
X123291371Y-99122617D01*
X123363339Y-98839089D01*
X123378611Y-98546969D01*
X123336599Y-98257481D01*
X123238919Y-97981753D01*
X123165472Y-97844343D01*
X122916397Y-97766708D01*
X122067605Y-98615500D01*
X121708395Y-98615500D01*
X121694253Y-98601358D01*
X121873858Y-98421753D01*
X121888000Y-98435895D01*
X122736792Y-97587103D01*
X122671590Y-97377916D01*
X122834632Y-97268975D01*
X123041475Y-97062132D01*
X123203990Y-96818911D01*
X123315932Y-96548658D01*
X123373000Y-96261760D01*
X123373000Y-95969240D01*
X123315932Y-95682342D01*
X123203990Y-95412089D01*
X123041475Y-95168868D01*
X122834632Y-94962025D01*
X122670804Y-94852558D01*
X122665579Y-94799510D01*
X122661642Y-94759532D01*
X122616754Y-94611559D01*
X122584253Y-94550754D01*
X122543862Y-94475186D01*
X122445764Y-94355655D01*
X122415805Y-94331068D01*
X121981428Y-93896690D01*
X121956845Y-93866736D01*
X121837314Y-93768638D01*
X121700941Y-93695746D01*
X121552968Y-93650859D01*
X121437642Y-93639500D01*
X121437634Y-93639500D01*
X121399081Y-93635703D01*
X121360528Y-93639500D01*
X118593052Y-93639500D01*
X118554499Y-93635703D01*
X118515946Y-93639500D01*
X118515939Y-93639500D01*
X118414990Y-93649443D01*
X118400612Y-93650859D01*
X118366172Y-93661306D01*
X118252640Y-93695746D01*
X118116267Y-93768638D01*
X118056059Y-93818050D01*
X118026687Y-93842155D01*
X118026684Y-93842158D01*
X117996736Y-93866736D01*
X117972158Y-93896684D01*
X115816343Y-96052500D01*
X113010211Y-96052500D01*
X112991274Y-96033563D01*
X112821756Y-95920295D01*
X112633398Y-95842274D01*
X112433439Y-95802500D01*
X112229561Y-95802500D01*
X112029602Y-95842274D01*
X111841244Y-95920295D01*
X111671726Y-96033563D01*
X111527563Y-96177726D01*
X111414295Y-96347244D01*
X111336274Y-96535602D01*
X111296500Y-96735561D01*
X94593150Y-96735561D01*
X94593437Y-96735274D01*
X94706705Y-96565756D01*
X94784726Y-96377398D01*
X94824500Y-96177439D01*
X94824500Y-95973561D01*
X94784726Y-95773602D01*
X94706705Y-95585244D01*
X94593437Y-95415726D01*
X94449274Y-95271563D01*
X94279756Y-95158295D01*
X94091398Y-95080274D01*
X93891439Y-95040500D01*
X93687561Y-95040500D01*
X93487602Y-95080274D01*
X93299244Y-95158295D01*
X93129726Y-95271563D01*
X92985563Y-95415726D01*
X92872295Y-95585244D01*
X92794274Y-95773602D01*
X92754500Y-95973561D01*
X92754500Y-96000343D01*
X87418965Y-101335878D01*
X87404205Y-101300244D01*
X87328705Y-101187250D01*
X87404205Y-101074256D01*
X87482226Y-100885898D01*
X87522000Y-100685939D01*
X87522000Y-100482061D01*
X87482226Y-100282102D01*
X87404205Y-100093744D01*
X87290937Y-99924226D01*
X87146774Y-99780063D01*
X86977256Y-99666795D01*
X86788898Y-99588774D01*
X86588939Y-99549000D01*
X86385061Y-99549000D01*
X86185102Y-99588774D01*
X85996744Y-99666795D01*
X85827226Y-99780063D01*
X85808289Y-99799000D01*
X81478157Y-99799000D01*
X80846347Y-99167190D01*
X80821764Y-99137236D01*
X80702233Y-99039138D01*
X80565860Y-98966246D01*
X80417887Y-98921359D01*
X80302561Y-98910000D01*
X80302553Y-98910000D01*
X80264000Y-98906203D01*
X80225447Y-98910000D01*
X77604658Y-98910000D01*
X74887747Y-96193089D01*
X77926500Y-96193089D01*
X77926500Y-96465911D01*
X77979725Y-96733489D01*
X78084129Y-96985543D01*
X78235701Y-97212386D01*
X78428614Y-97405299D01*
X78655457Y-97556871D01*
X78907511Y-97661275D01*
X79175089Y-97714500D01*
X79447911Y-97714500D01*
X79715489Y-97661275D01*
X79967543Y-97556871D01*
X80194386Y-97405299D01*
X80387299Y-97212386D01*
X80538871Y-96985543D01*
X80643275Y-96733489D01*
X80696500Y-96465911D01*
X80696500Y-96193089D01*
X80643275Y-95925511D01*
X80538871Y-95673457D01*
X80387299Y-95446614D01*
X80194386Y-95253701D01*
X79967543Y-95102129D01*
X79715489Y-94997725D01*
X79447911Y-94944500D01*
X79175089Y-94944500D01*
X78907511Y-94997725D01*
X78655457Y-95102129D01*
X78428614Y-95253701D01*
X78235701Y-95446614D01*
X78084129Y-95673457D01*
X77979725Y-95925511D01*
X77926500Y-96193089D01*
X74887747Y-96193089D01*
X71988847Y-93294190D01*
X71964264Y-93264236D01*
X71844733Y-93166138D01*
X71708360Y-93093246D01*
X71560387Y-93048359D01*
X71445061Y-93037000D01*
X71445053Y-93037000D01*
X71406500Y-93033203D01*
X71367947Y-93037000D01*
X70824416Y-93037000D01*
X70806451Y-93015109D01*
X123107997Y-93015109D01*
X123294073Y-93356266D01*
X123711409Y-93572013D01*
X124162815Y-93702196D01*
X124630946Y-93741813D01*
X125097811Y-93689342D01*
X125545468Y-93546797D01*
X125901927Y-93356266D01*
X126088003Y-93015109D01*
X124598000Y-91525105D01*
X123107997Y-93015109D01*
X70806451Y-93015109D01*
X70748502Y-92944498D01*
X70599238Y-92822000D01*
X70748502Y-92699502D01*
X70902833Y-92511449D01*
X71017511Y-92296901D01*
X71088130Y-92064102D01*
X71111975Y-91822000D01*
X71088130Y-91579898D01*
X71017511Y-91347099D01*
X70902833Y-91132551D01*
X70748502Y-90944498D01*
X70560449Y-90790167D01*
X70345901Y-90675489D01*
X70113102Y-90604870D01*
X69931665Y-90587000D01*
X69260335Y-90587000D01*
X69078898Y-90604870D01*
X68846099Y-90675489D01*
X68631551Y-90790167D01*
X68443498Y-90944498D01*
X68289167Y-91132551D01*
X68174489Y-91347099D01*
X68103870Y-91579898D01*
X68080025Y-91822000D01*
X68103870Y-92064102D01*
X68174489Y-92296901D01*
X68289167Y-92511449D01*
X68443498Y-92699502D01*
X68592762Y-92822000D01*
X68443498Y-92944498D01*
X68367584Y-93037000D01*
X68366158Y-93037000D01*
X67650500Y-92321343D01*
X67650500Y-91789055D01*
X67654297Y-91750500D01*
X67650500Y-91711940D01*
X67650500Y-91711939D01*
X67645525Y-91661432D01*
X67639142Y-91596613D01*
X67594254Y-91448640D01*
X67588564Y-91437994D01*
X67521362Y-91312267D01*
X67423264Y-91192736D01*
X67393317Y-91168159D01*
X65930847Y-89705690D01*
X65906264Y-89675736D01*
X65786733Y-89577638D01*
X65686572Y-89524101D01*
X65686572Y-89383500D01*
X65674312Y-89259018D01*
X65638002Y-89139320D01*
X65579037Y-89029006D01*
X65499685Y-88932315D01*
X65402994Y-88852963D01*
X65292680Y-88793998D01*
X65172982Y-88757688D01*
X65048500Y-88745428D01*
X63348500Y-88745428D01*
X63224018Y-88757688D01*
X63104320Y-88793998D01*
X62994006Y-88852963D01*
X62897315Y-88932315D01*
X62817963Y-89029006D01*
X62758998Y-89139320D01*
X62736987Y-89211880D01*
X62605132Y-89080025D01*
X62361911Y-88917510D01*
X62091658Y-88805568D01*
X61804760Y-88748500D01*
X61512240Y-88748500D01*
X61225342Y-88805568D01*
X60955089Y-88917510D01*
X60711868Y-89080025D01*
X60505025Y-89286868D01*
X60342510Y-89530089D01*
X60230568Y-89800342D01*
X60173500Y-90087240D01*
X60173500Y-90379760D01*
X60230568Y-90666658D01*
X60342510Y-90936911D01*
X60505025Y-91180132D01*
X60711868Y-91386975D01*
X60955089Y-91549490D01*
X61225342Y-91661432D01*
X61512240Y-91718500D01*
X61804760Y-91718500D01*
X62091658Y-91661432D01*
X62361911Y-91549490D01*
X62605132Y-91386975D01*
X62736987Y-91255120D01*
X62758998Y-91327680D01*
X62817963Y-91437994D01*
X62897315Y-91534685D01*
X62994006Y-91614037D01*
X63104320Y-91673002D01*
X63224018Y-91709312D01*
X63348500Y-91721572D01*
X65048500Y-91721572D01*
X65172982Y-91709312D01*
X65292680Y-91673002D01*
X65402994Y-91614037D01*
X65499685Y-91534685D01*
X65517644Y-91512802D01*
X66080500Y-92075658D01*
X66080500Y-92607947D01*
X66076703Y-92646500D01*
X66080500Y-92685053D01*
X66080500Y-92685061D01*
X66085893Y-92739808D01*
X66091859Y-92800386D01*
X66136746Y-92948359D01*
X66159477Y-92990886D01*
X66209639Y-93084733D01*
X66216626Y-93093246D01*
X66283155Y-93174312D01*
X66283159Y-93174316D01*
X66307737Y-93204264D01*
X66337685Y-93228842D01*
X67458658Y-94349815D01*
X67483236Y-94379764D01*
X67513184Y-94404342D01*
X67513187Y-94404345D01*
X67523926Y-94413158D01*
X67602767Y-94477862D01*
X67739140Y-94550754D01*
X67887113Y-94595641D01*
X68002439Y-94607000D01*
X68002446Y-94607000D01*
X68040999Y-94610797D01*
X68079552Y-94607000D01*
X68367584Y-94607000D01*
X68443498Y-94699502D01*
X68592762Y-94822000D01*
X68443498Y-94944498D01*
X68289167Y-95132551D01*
X68174489Y-95347099D01*
X68103870Y-95579898D01*
X68080025Y-95822000D01*
X68103870Y-96064102D01*
X68174489Y-96296901D01*
X68289167Y-96511449D01*
X68443498Y-96699502D01*
X68592762Y-96822000D01*
X68443498Y-96944498D01*
X68289167Y-97132551D01*
X68174489Y-97347099D01*
X68103870Y-97579898D01*
X68080025Y-97822000D01*
X68103870Y-98064102D01*
X68174489Y-98296901D01*
X68289167Y-98511449D01*
X68415436Y-98665309D01*
X68366506Y-98691463D01*
X68269815Y-98770815D01*
X68190463Y-98867506D01*
X68131498Y-98977820D01*
X68095188Y-99097518D01*
X68082928Y-99222000D01*
X68086000Y-99536250D01*
X68244750Y-99695000D01*
X69469000Y-99695000D01*
X69469000Y-99675000D01*
X69723000Y-99675000D01*
X69723000Y-99695000D01*
X70947250Y-99695000D01*
X71106000Y-99536250D01*
X71109072Y-99222000D01*
X71096812Y-99097518D01*
X71060502Y-98977820D01*
X71001537Y-98867506D01*
X70922185Y-98770815D01*
X70825494Y-98691463D01*
X70776564Y-98665309D01*
X70824416Y-98607000D01*
X72477843Y-98607000D01*
X77967158Y-104096316D01*
X77991736Y-104126264D01*
X78021684Y-104150842D01*
X78021687Y-104150845D01*
X78051059Y-104174950D01*
X78111267Y-104224362D01*
X78247640Y-104297254D01*
X78361172Y-104331694D01*
X78395612Y-104342141D01*
X78409990Y-104343557D01*
X78510939Y-104353500D01*
X78510946Y-104353500D01*
X78549499Y-104357297D01*
X78588052Y-104353500D01*
X81138916Y-104353500D01*
X81105140Y-104363746D01*
X80968767Y-104436638D01*
X80908559Y-104486050D01*
X80879187Y-104510155D01*
X80879184Y-104510158D01*
X80849236Y-104534736D01*
X80824658Y-104564684D01*
X79074639Y-106314704D01*
X79036726Y-106124102D01*
X78958705Y-105935744D01*
X78845437Y-105766226D01*
X78701274Y-105622063D01*
X78531756Y-105508795D01*
X78343398Y-105430774D01*
X78143439Y-105391000D01*
X77939561Y-105391000D01*
X77739602Y-105430774D01*
X77551244Y-105508795D01*
X77381726Y-105622063D01*
X77362789Y-105641000D01*
X59316658Y-105641000D01*
X55002398Y-101326740D01*
X60173500Y-101326740D01*
X60173500Y-101619260D01*
X60230568Y-101906158D01*
X60342510Y-102176411D01*
X60505025Y-102419632D01*
X60711868Y-102626475D01*
X60955089Y-102788990D01*
X61225342Y-102900932D01*
X61512240Y-102958000D01*
X61804760Y-102958000D01*
X62091658Y-102900932D01*
X62361911Y-102788990D01*
X62605132Y-102626475D01*
X62736987Y-102494620D01*
X62758998Y-102567180D01*
X62817963Y-102677494D01*
X62897315Y-102774185D01*
X62994006Y-102853537D01*
X63104320Y-102912502D01*
X63224018Y-102948812D01*
X63348500Y-102961072D01*
X65048500Y-102961072D01*
X65172982Y-102948812D01*
X65292680Y-102912502D01*
X65402994Y-102853537D01*
X65499685Y-102774185D01*
X65579037Y-102677494D01*
X65638002Y-102567180D01*
X65674312Y-102447482D01*
X65686572Y-102323000D01*
X65686572Y-100623000D01*
X65674312Y-100498518D01*
X65651101Y-100422000D01*
X68082928Y-100422000D01*
X68095188Y-100546482D01*
X68131498Y-100666180D01*
X68190463Y-100776494D01*
X68269815Y-100873185D01*
X68366506Y-100952537D01*
X68476820Y-101011502D01*
X68596518Y-101047812D01*
X68721000Y-101060072D01*
X69310250Y-101057000D01*
X69469000Y-100898250D01*
X69469000Y-99949000D01*
X69723000Y-99949000D01*
X69723000Y-100898250D01*
X69881750Y-101057000D01*
X70471000Y-101060072D01*
X70595482Y-101047812D01*
X70715180Y-101011502D01*
X70825494Y-100952537D01*
X70922185Y-100873185D01*
X71001537Y-100776494D01*
X71060502Y-100666180D01*
X71096812Y-100546482D01*
X71109072Y-100422000D01*
X71106000Y-100107750D01*
X70947250Y-99949000D01*
X69723000Y-99949000D01*
X69469000Y-99949000D01*
X68244750Y-99949000D01*
X68086000Y-100107750D01*
X68082928Y-100422000D01*
X65651101Y-100422000D01*
X65638002Y-100378820D01*
X65579037Y-100268506D01*
X65499685Y-100171815D01*
X65402994Y-100092463D01*
X65292680Y-100033498D01*
X65172982Y-99997188D01*
X65048500Y-99984928D01*
X63348500Y-99984928D01*
X63224018Y-99997188D01*
X63104320Y-100033498D01*
X62994006Y-100092463D01*
X62897315Y-100171815D01*
X62817963Y-100268506D01*
X62758998Y-100378820D01*
X62736987Y-100451380D01*
X62605132Y-100319525D01*
X62361911Y-100157010D01*
X62091658Y-100045068D01*
X61804760Y-99988000D01*
X61512240Y-99988000D01*
X61225342Y-100045068D01*
X60955089Y-100157010D01*
X60711868Y-100319525D01*
X60505025Y-100526368D01*
X60342510Y-100769589D01*
X60230568Y-101039842D01*
X60173500Y-101326740D01*
X55002398Y-101326740D01*
X51255898Y-97580240D01*
X60173500Y-97580240D01*
X60173500Y-97872760D01*
X60230568Y-98159658D01*
X60342510Y-98429911D01*
X60505025Y-98673132D01*
X60711868Y-98879975D01*
X60955089Y-99042490D01*
X61225342Y-99154432D01*
X61512240Y-99211500D01*
X61804760Y-99211500D01*
X62091658Y-99154432D01*
X62361911Y-99042490D01*
X62605132Y-98879975D01*
X62736987Y-98748120D01*
X62758998Y-98820680D01*
X62817963Y-98930994D01*
X62897315Y-99027685D01*
X62994006Y-99107037D01*
X63104320Y-99166002D01*
X63224018Y-99202312D01*
X63348500Y-99214572D01*
X65048500Y-99214572D01*
X65172982Y-99202312D01*
X65292680Y-99166002D01*
X65402994Y-99107037D01*
X65499685Y-99027685D01*
X65579037Y-98930994D01*
X65638002Y-98820680D01*
X65674312Y-98700982D01*
X65686572Y-98576500D01*
X65686572Y-96876500D01*
X65674312Y-96752018D01*
X65638002Y-96632320D01*
X65579037Y-96522006D01*
X65499685Y-96425315D01*
X65402994Y-96345963D01*
X65292680Y-96286998D01*
X65172982Y-96250688D01*
X65048500Y-96238428D01*
X63348500Y-96238428D01*
X63224018Y-96250688D01*
X63104320Y-96286998D01*
X62994006Y-96345963D01*
X62897315Y-96425315D01*
X62817963Y-96522006D01*
X62758998Y-96632320D01*
X62736987Y-96704880D01*
X62605132Y-96573025D01*
X62361911Y-96410510D01*
X62091658Y-96298568D01*
X61804760Y-96241500D01*
X61512240Y-96241500D01*
X61225342Y-96298568D01*
X60955089Y-96410510D01*
X60711868Y-96573025D01*
X60505025Y-96779868D01*
X60342510Y-97023089D01*
X60230568Y-97293342D01*
X60173500Y-97580240D01*
X51255898Y-97580240D01*
X47509398Y-93833740D01*
X60173500Y-93833740D01*
X60173500Y-94126260D01*
X60230568Y-94413158D01*
X60342510Y-94683411D01*
X60505025Y-94926632D01*
X60711868Y-95133475D01*
X60955089Y-95295990D01*
X61225342Y-95407932D01*
X61512240Y-95465000D01*
X61804760Y-95465000D01*
X62091658Y-95407932D01*
X62361911Y-95295990D01*
X62605132Y-95133475D01*
X62736987Y-95001620D01*
X62758998Y-95074180D01*
X62817963Y-95184494D01*
X62897315Y-95281185D01*
X62994006Y-95360537D01*
X63104320Y-95419502D01*
X63224018Y-95455812D01*
X63348500Y-95468072D01*
X65048500Y-95468072D01*
X65172982Y-95455812D01*
X65292680Y-95419502D01*
X65402994Y-95360537D01*
X65499685Y-95281185D01*
X65579037Y-95184494D01*
X65638002Y-95074180D01*
X65674312Y-94954482D01*
X65686572Y-94830000D01*
X65686572Y-93130000D01*
X65674312Y-93005518D01*
X65638002Y-92885820D01*
X65579037Y-92775506D01*
X65499685Y-92678815D01*
X65402994Y-92599463D01*
X65292680Y-92540498D01*
X65172982Y-92504188D01*
X65048500Y-92491928D01*
X63348500Y-92491928D01*
X63224018Y-92504188D01*
X63104320Y-92540498D01*
X62994006Y-92599463D01*
X62897315Y-92678815D01*
X62817963Y-92775506D01*
X62758998Y-92885820D01*
X62736987Y-92958380D01*
X62605132Y-92826525D01*
X62361911Y-92664010D01*
X62091658Y-92552068D01*
X61804760Y-92495000D01*
X61512240Y-92495000D01*
X61225342Y-92552068D01*
X60955089Y-92664010D01*
X60711868Y-92826525D01*
X60505025Y-93033368D01*
X60342510Y-93276589D01*
X60230568Y-93546842D01*
X60173500Y-93833740D01*
X47509398Y-93833740D01*
X46187500Y-92511843D01*
X46187500Y-88353561D01*
X75419000Y-88353561D01*
X75419000Y-88557439D01*
X75458774Y-88757398D01*
X75536795Y-88945756D01*
X75650063Y-89115274D01*
X75794226Y-89259437D01*
X75963744Y-89372705D01*
X76152102Y-89450726D01*
X76352061Y-89490500D01*
X76555939Y-89490500D01*
X76755898Y-89450726D01*
X76944256Y-89372705D01*
X77113774Y-89259437D01*
X77132711Y-89240500D01*
X78251789Y-89240500D01*
X78270726Y-89259437D01*
X78440244Y-89372705D01*
X78628602Y-89450726D01*
X78828561Y-89490500D01*
X79032439Y-89490500D01*
X79232398Y-89450726D01*
X79420756Y-89372705D01*
X79590274Y-89259437D01*
X79734437Y-89115274D01*
X79847705Y-88945756D01*
X79925726Y-88757398D01*
X79965500Y-88557439D01*
X79965500Y-88353561D01*
X79925726Y-88153602D01*
X79847705Y-87965244D01*
X79734437Y-87795726D01*
X79590274Y-87651563D01*
X79420756Y-87538295D01*
X79232398Y-87460274D01*
X79032439Y-87420500D01*
X78828561Y-87420500D01*
X78628602Y-87460274D01*
X78440244Y-87538295D01*
X78270726Y-87651563D01*
X78251789Y-87670500D01*
X77132711Y-87670500D01*
X77113774Y-87651563D01*
X76944256Y-87538295D01*
X76755898Y-87460274D01*
X76555939Y-87420500D01*
X76352061Y-87420500D01*
X76152102Y-87460274D01*
X75963744Y-87538295D01*
X75794226Y-87651563D01*
X75650063Y-87795726D01*
X75536795Y-87965244D01*
X75458774Y-88153602D01*
X75419000Y-88353561D01*
X46187500Y-88353561D01*
X46187500Y-85260711D01*
X46206437Y-85241774D01*
X46319705Y-85072256D01*
X46397726Y-84883898D01*
X46437500Y-84683939D01*
X46437500Y-84480061D01*
X46397726Y-84280102D01*
X46319705Y-84091744D01*
X46206437Y-83922226D01*
X46062274Y-83778063D01*
X45892756Y-83664795D01*
X45704398Y-83586774D01*
X45504439Y-83547000D01*
X45300561Y-83547000D01*
X45100602Y-83586774D01*
X44912244Y-83664795D01*
X44742726Y-83778063D01*
X44598563Y-83922226D01*
X44485295Y-84091744D01*
X44407274Y-84280102D01*
X44367500Y-84480061D01*
X30660000Y-84480061D01*
X30660000Y-77279872D01*
X31265000Y-77279872D01*
X31265000Y-77720128D01*
X31350890Y-78151925D01*
X31519369Y-78558669D01*
X31763962Y-78924729D01*
X32075271Y-79236038D01*
X32441331Y-79480631D01*
X32848075Y-79649110D01*
X33279872Y-79735000D01*
X33720128Y-79735000D01*
X34151925Y-79649110D01*
X34558669Y-79480631D01*
X34924729Y-79236038D01*
X35236038Y-78924729D01*
X35480631Y-78558669D01*
X35649110Y-78151925D01*
X35735000Y-77720128D01*
X35735000Y-77279872D01*
X35651383Y-76859500D01*
X36992928Y-76859500D01*
X37005188Y-76983982D01*
X37041498Y-77103680D01*
X37100463Y-77213994D01*
X37179815Y-77310685D01*
X37276506Y-77390037D01*
X37386820Y-77449002D01*
X37506518Y-77485312D01*
X37631000Y-77497572D01*
X38195250Y-77494500D01*
X38354000Y-77335750D01*
X38354000Y-76136500D01*
X37154750Y-76136500D01*
X36996000Y-76295250D01*
X36992928Y-76859500D01*
X35651383Y-76859500D01*
X35649110Y-76848075D01*
X35480631Y-76441331D01*
X35236038Y-76075271D01*
X34924729Y-75763962D01*
X34558669Y-75519369D01*
X34151925Y-75350890D01*
X33720128Y-75265000D01*
X33279872Y-75265000D01*
X32848075Y-75350890D01*
X32441331Y-75519369D01*
X32075271Y-75763962D01*
X31763962Y-76075271D01*
X31519369Y-76441331D01*
X31350890Y-76848075D01*
X31265000Y-77279872D01*
X30660000Y-77279872D01*
X30660000Y-74660000D01*
X37238687Y-74660000D01*
X37179815Y-74708315D01*
M02*
