G04 #@! TF.GenerationSoftware,KiCad,Pcbnew,6.0.5*
G04 #@! TF.CreationDate,2022-10-28T16:57:35+03:00*
G04 #@! TF.ProjectId,stm32,73746d33-322e-46b6-9963-61645f706362,rev?*
G04 #@! TF.SameCoordinates,Original*
G04 #@! TF.FileFunction,Soldermask,Bot*
G04 #@! TF.FilePolarity,Negative*
%FSLAX46Y46*%
G04 Gerber Fmt 4.6, Leading zero omitted, Abs format (unit mm)*
G04 Created by KiCad (PCBNEW 6.0.5) date 2022-10-28 16:57:35*
%MOMM*%
%LPD*%
G01*
G04 APERTURE LIST*
G04 Aperture macros list*
%AMRoundRect*
0 Rectangle with rounded corners*
0 $1 Rounding radius*
0 $2 $3 $4 $5 $6 $7 $8 $9 X,Y pos of 4 corners*
0 Add a 4 corners polygon primitive as box body*
4,1,4,$2,$3,$4,$5,$6,$7,$8,$9,$2,$3,0*
0 Add four circle primitives for the rounded corners*
1,1,$1+$1,$2,$3*
1,1,$1+$1,$4,$5*
1,1,$1+$1,$6,$7*
1,1,$1+$1,$8,$9*
0 Add four rect primitives between the rounded corners*
20,1,$1+$1,$2,$3,$4,$5,0*
20,1,$1+$1,$4,$5,$6,$7,0*
20,1,$1+$1,$6,$7,$8,$9,0*
20,1,$1+$1,$8,$9,$2,$3,0*%
G04 Aperture macros list end*
%ADD10R,1.500000X1.500000*%
%ADD11C,5.000000*%
%ADD12RoundRect,0.250000X-0.325000X-0.450000X0.325000X-0.450000X0.325000X0.450000X-0.325000X0.450000X0*%
%ADD13R,2.600000X2.600000*%
%ADD14C,2.600000*%
%ADD15O,1.000000X1.000000*%
%ADD16R,1.000000X1.000000*%
%ADD17RoundRect,0.237500X-0.287500X-0.237500X0.287500X-0.237500X0.287500X0.237500X-0.287500X0.237500X0*%
%ADD18R,1.600000X1.600000*%
%ADD19O,1.600000X1.600000*%
%ADD20RoundRect,0.162500X1.012500X0.162500X-1.012500X0.162500X-1.012500X-0.162500X1.012500X-0.162500X0*%
%ADD21C,1.500000*%
%ADD22C,4.000000*%
%ADD23C,1.600000*%
G04 APERTURE END LIST*
D10*
X111607600Y-62001400D03*
X85725000Y-74218800D03*
X113182400Y-74218800D03*
X110667800Y-74218800D03*
X108153200Y-74218800D03*
D11*
X74500000Y-53500000D03*
X117500000Y-53500000D03*
X117500000Y-72000000D03*
X74500000Y-72000000D03*
D12*
X106408000Y-67157600D03*
X108458000Y-67157600D03*
X106408000Y-65074800D03*
X108458000Y-65074800D03*
D13*
X66802000Y-57658000D03*
D14*
X66802000Y-62658000D03*
X66802000Y-67658000D03*
D15*
X97150400Y-52400200D03*
X95880400Y-52400200D03*
X94610400Y-52400200D03*
X93340400Y-52400200D03*
X92070400Y-52400200D03*
D16*
X90800400Y-52400200D03*
D17*
X110236000Y-67157600D03*
X111986000Y-67157600D03*
X110236000Y-65074800D03*
X111986000Y-65074800D03*
D18*
X74828400Y-66751200D03*
D19*
X74828400Y-59131200D03*
D20*
X88154500Y-61087000D03*
X88154500Y-63627000D03*
X88154500Y-66167000D03*
X88154500Y-68707000D03*
X79104500Y-68707000D03*
X79104500Y-66167000D03*
X79104500Y-63627000D03*
X79104500Y-61087000D03*
D21*
X87439500Y-58801000D03*
X84899500Y-58801000D03*
X82359500Y-58801000D03*
X79819500Y-58801000D03*
D22*
X122081000Y-56821500D03*
X122081000Y-68821500D03*
D23*
X119221000Y-64071500D03*
X119221000Y-61571500D03*
X117221000Y-61571500D03*
D18*
X117221000Y-64071500D03*
D10*
X103174800Y-74218800D03*
X85293200Y-52349400D03*
X99744000Y-52400200D03*
X102230400Y-52400200D03*
X109698000Y-52400200D03*
D16*
X93065600Y-66954400D03*
D10*
X100685600Y-74218800D03*
D16*
X91084400Y-66954400D03*
D10*
X93218000Y-74218800D03*
X98196400Y-74218800D03*
X109093000Y-62001400D03*
X123190000Y-73507600D03*
D16*
X93065600Y-68935600D03*
D10*
X90728800Y-74218800D03*
X104719600Y-52400200D03*
X106603800Y-62001400D03*
X88239600Y-74218800D03*
X95707200Y-74218800D03*
D16*
X91084400Y-68935600D03*
D10*
X105664000Y-74218800D03*
X107208800Y-52400200D03*
X88290400Y-52349400D03*
X123037600Y-51866800D03*
M02*
