G04 #@! TF.GenerationSoftware,KiCad,Pcbnew,6.0.5*
G04 #@! TF.CreationDate,2022-10-28T16:57:35+03:00*
G04 #@! TF.ProjectId,stm32,73746d33-322e-46b6-9963-61645f706362,rev?*
G04 #@! TF.SameCoordinates,Original*
G04 #@! TF.FileFunction,Soldermask,Top*
G04 #@! TF.FilePolarity,Negative*
%FSLAX46Y46*%
G04 Gerber Fmt 4.6, Leading zero omitted, Abs format (unit mm)*
G04 Created by KiCad (PCBNEW 6.0.5) date 2022-10-28 16:57:35*
%MOMM*%
%LPD*%
G01*
G04 APERTURE LIST*
G04 Aperture macros list*
%AMRoundRect*
0 Rectangle with rounded corners*
0 $1 Rounding radius*
0 $2 $3 $4 $5 $6 $7 $8 $9 X,Y pos of 4 corners*
0 Add a 4 corners polygon primitive as box body*
4,1,4,$2,$3,$4,$5,$6,$7,$8,$9,$2,$3,0*
0 Add four circle primitives for the rounded corners*
1,1,$1+$1,$2,$3*
1,1,$1+$1,$4,$5*
1,1,$1+$1,$6,$7*
1,1,$1+$1,$8,$9*
0 Add four rect primitives between the rounded corners*
20,1,$1+$1,$2,$3,$4,$5,0*
20,1,$1+$1,$4,$5,$6,$7,0*
20,1,$1+$1,$6,$7,$8,$9,0*
20,1,$1+$1,$8,$9,$2,$3,0*%
G04 Aperture macros list end*
%ADD10R,1.500000X1.500000*%
%ADD11RoundRect,0.250000X-0.425000X0.537500X-0.425000X-0.537500X0.425000X-0.537500X0.425000X0.537500X0*%
%ADD12RoundRect,0.237500X-0.237500X0.287500X-0.237500X-0.287500X0.237500X-0.287500X0.237500X0.287500X0*%
%ADD13RoundRect,0.237500X0.287500X0.237500X-0.287500X0.237500X-0.287500X-0.237500X0.287500X-0.237500X0*%
%ADD14RoundRect,0.237500X0.237500X-0.287500X0.237500X0.287500X-0.237500X0.287500X-0.237500X-0.287500X0*%
%ADD15R,0.900000X0.800000*%
%ADD16C,5.000000*%
%ADD17RoundRect,0.075000X-0.662500X-0.075000X0.662500X-0.075000X0.662500X0.075000X-0.662500X0.075000X0*%
%ADD18RoundRect,0.075000X-0.075000X-0.662500X0.075000X-0.662500X0.075000X0.662500X-0.075000X0.662500X0*%
%ADD19RoundRect,0.237500X-0.287500X-0.237500X0.287500X-0.237500X0.287500X0.237500X-0.287500X0.237500X0*%
%ADD20RoundRect,0.250000X-0.325000X-0.450000X0.325000X-0.450000X0.325000X0.450000X-0.325000X0.450000X0*%
%ADD21RoundRect,0.250001X-1.074999X0.462499X-1.074999X-0.462499X1.074999X-0.462499X1.074999X0.462499X0*%
%ADD22R,2.000000X1.500000*%
%ADD23R,2.000000X3.800000*%
%ADD24R,1.560000X0.650000*%
%ADD25R,2.600000X2.600000*%
%ADD26C,2.600000*%
%ADD27O,1.000000X1.000000*%
%ADD28R,1.000000X1.000000*%
%ADD29R,1.600000X1.600000*%
%ADD30O,1.600000X1.600000*%
%ADD31C,1.500000*%
%ADD32C,4.000000*%
%ADD33C,1.600000*%
G04 APERTURE END LIST*
D10*
X111607600Y-62001400D03*
X85725000Y-74218800D03*
X113182400Y-74218800D03*
X110667800Y-74218800D03*
X108153200Y-74218800D03*
D11*
X104800400Y-66903600D03*
X104800400Y-69778600D03*
D12*
X93268800Y-56212800D03*
X93268800Y-57962800D03*
D13*
X103350000Y-57962800D03*
X101600000Y-57962800D03*
D14*
X101955600Y-68501200D03*
X101955600Y-66751200D03*
D12*
X90728800Y-62167800D03*
X90728800Y-63917800D03*
D15*
X71437500Y-63622000D03*
X71437500Y-61722000D03*
X69437500Y-62672000D03*
D16*
X74500000Y-53500000D03*
X117500000Y-53500000D03*
X117500000Y-72000000D03*
X74500000Y-72000000D03*
D13*
X115276600Y-61569600D03*
X113526600Y-61569600D03*
X119227600Y-59182000D03*
X117477600Y-59182000D03*
X96661000Y-53924200D03*
X98411000Y-53924200D03*
D14*
X94945200Y-56360000D03*
X94945200Y-54610000D03*
D17*
X93246500Y-59861000D03*
X93246500Y-60361000D03*
X93246500Y-60861000D03*
X93246500Y-61361000D03*
X93246500Y-61861000D03*
X93246500Y-62361000D03*
X93246500Y-62861000D03*
X93246500Y-63361000D03*
X93246500Y-63861000D03*
X93246500Y-64361000D03*
X93246500Y-64861000D03*
X93246500Y-65361000D03*
D18*
X94659000Y-66773500D03*
X95159000Y-66773500D03*
X95659000Y-66773500D03*
X96159000Y-66773500D03*
X96659000Y-66773500D03*
X97159000Y-66773500D03*
X97659000Y-66773500D03*
X98159000Y-66773500D03*
X98659000Y-66773500D03*
X99159000Y-66773500D03*
X99659000Y-66773500D03*
X100159000Y-66773500D03*
D17*
X101571500Y-65361000D03*
X101571500Y-64861000D03*
X101571500Y-64361000D03*
X101571500Y-63861000D03*
X101571500Y-63361000D03*
X101571500Y-62861000D03*
X101571500Y-62361000D03*
X101571500Y-61861000D03*
X101571500Y-61361000D03*
X101571500Y-60861000D03*
X101571500Y-60361000D03*
X101571500Y-59861000D03*
D18*
X100159000Y-58448500D03*
X99659000Y-58448500D03*
X99159000Y-58448500D03*
X98659000Y-58448500D03*
X98159000Y-58448500D03*
X97659000Y-58448500D03*
X97159000Y-58448500D03*
X96659000Y-58448500D03*
X96159000Y-58448500D03*
X95659000Y-58448500D03*
X95159000Y-58448500D03*
X94659000Y-58448500D03*
D19*
X117195600Y-66243200D03*
X118945600Y-66243200D03*
D20*
X85407500Y-56515000D03*
X87457500Y-56515000D03*
X79865000Y-56515000D03*
X81915000Y-56515000D03*
D21*
X74828400Y-61417200D03*
X74828400Y-64392200D03*
D22*
X113690400Y-69166800D03*
X113690400Y-66866800D03*
D23*
X107390400Y-66866800D03*
D22*
X113690400Y-64566800D03*
D24*
X113741200Y-59878000D03*
X113741200Y-58928000D03*
X113741200Y-57978000D03*
X111041200Y-57978000D03*
X111041200Y-58928000D03*
X111041200Y-59878000D03*
D25*
X66802000Y-57658000D03*
D26*
X66802000Y-62658000D03*
X66802000Y-67658000D03*
D27*
X97150400Y-52400200D03*
X95880400Y-52400200D03*
X94610400Y-52400200D03*
X93340400Y-52400200D03*
X92070400Y-52400200D03*
D28*
X90800400Y-52400200D03*
D29*
X74828400Y-66751200D03*
D30*
X74828400Y-59131200D03*
D31*
X87439500Y-58801000D03*
X84899500Y-58801000D03*
X82359500Y-58801000D03*
X79819500Y-58801000D03*
D32*
X122081000Y-56821500D03*
X122081000Y-68821500D03*
D33*
X119221000Y-64071500D03*
X119221000Y-61571500D03*
X117221000Y-61571500D03*
D29*
X117221000Y-64071500D03*
D10*
X103174800Y-74218800D03*
X85293200Y-52349400D03*
X99744000Y-52400200D03*
X102230400Y-52400200D03*
X109698000Y-52400200D03*
D28*
X93065600Y-66954400D03*
D10*
X100685600Y-74218800D03*
D28*
X91084400Y-66954400D03*
D10*
X93218000Y-74218800D03*
X98196400Y-74218800D03*
X109093000Y-62001400D03*
X123190000Y-73507600D03*
D28*
X93065600Y-68935600D03*
D10*
X90728800Y-74218800D03*
X104719600Y-52400200D03*
X106603800Y-62001400D03*
X88239600Y-74218800D03*
X95707200Y-74218800D03*
D28*
X91084400Y-68935600D03*
D10*
X105664000Y-74218800D03*
X107208800Y-52400200D03*
X88290400Y-52349400D03*
X123037600Y-51866800D03*
M02*
