M48
; DRILL file {KiCad 8.0.5} date 2024-10-02T16:36:56+0300
; FORMAT={-:-/ absolute / metric / decimal}
; #@! TF.CreationDate,2024-10-02T16:36:56+03:00
; #@! TF.GenerationSoftware,Kicad,Pcbnew,8.0.5
; #@! TF.FileFunction,MixedPlating,1,2
FMAT,2
METRIC
; #@! TA.AperFunction,Plated,PTH,ViaDrill
T1C0.600
; #@! TA.AperFunction,Plated,PTH,ComponentDrill
T2C0.650
; #@! TA.AperFunction,Plated,PTH,ComponentDrill
T3C0.750
; #@! TA.AperFunction,Plated,PTH,ComponentDrill
T4C0.950
; #@! TA.AperFunction,Plated,PTH,ComponentDrill
T5C1.000
; #@! TA.AperFunction,Plated,PTH,ComponentDrill
T6C1.100
; #@! TA.AperFunction,Plated,PTH,ComponentDrill
T7C1.300
; #@! TA.AperFunction,Plated,PTH,ComponentDrill
T8C2.300
; #@! TA.AperFunction,NonPlated,NPTH,ComponentDrill
T9C3.200
; #@! TA.AperFunction,NonPlated,NPTH,ComponentDrill
T10C3.500
%
G90
G05
T1
X132.486Y-92.964
X135.331Y-73.254
X136.22Y-92.354
X137.947Y-86.919
X139.832Y-76.332
X142.225Y-79.868
X146.609Y-93.218
X147.25Y-76.0
X147.828Y-99.314
X150.724Y-87.02
X152.248Y-104.292
X153.0Y-81.75
X153.772Y-86.004
X154.686Y-78.486
X154.965Y-90.754
X155.092Y-83.0
X155.092Y-87.884
X158.496Y-97.028
X160.274Y-105.41
X160.528Y-90.17
X163.068Y-79.4
X163.068Y-92.761
X165.659Y-107.467
T2
X142.165Y-74.0
X143.435Y-74.0
X144.705Y-74.0
X145.975Y-74.0
X147.245Y-74.0
X148.515Y-74.0
T3
X117.602Y-95.282
X117.602Y-97.282
X141.764Y-107.95
X143.764Y-107.95
X152.242Y-107.95
X154.242Y-107.95
X156.242Y-107.95
X158.242Y-107.95
X158.528Y-75.438
X160.528Y-75.438
T4
X165.463Y-85.0
X165.463Y-87.5
X167.463Y-85.0
X167.463Y-87.5
T5
X147.422Y-96.114
X149.962Y-96.114
X152.502Y-96.114
X153.924Y-72.39
X162.814Y-104.394
X170.942Y-104.394
T6
X123.698Y-90.574
X126.238Y-90.574
X128.778Y-90.574
T7
X122.543Y-107.916
X127.623Y-107.916
T8
X170.322Y-80.25
X170.322Y-92.25
T9
X116.0Y-74.0
X116.0Y-109.5
X170.0Y-74.0
X170.0Y-109.5
T10
X126.238Y-73.914
M30
