%TF.GenerationSoftware,KiCad,Pcbnew,8.0.5*%
%TF.CreationDate,2024-10-02T16:36:54+03:00*%
%TF.ProjectId,shutter,73687574-7465-4722-9e6b-696361645f70,rev?*%
%TF.SameCoordinates,Original*%
%TF.FileFunction,Drillmap*%
%TF.FilePolarity,Positive*%
%FSLAX45Y45*%
G04 Gerber Fmt 4.5, Leading zero omitted, Abs format (unit mm)*
G04 Created by KiCad (PCBNEW 8.0.5) date 2024-10-02 16:36:54*
%MOMM*%
%LPD*%
G01*
G04 APERTURE LIST*
%ADD10C,0.100000*%
%ADD11C,0.200000*%
%ADD12C,0.110000*%
%ADD13C,0.130000*%
%ADD14C,0.230000*%
%ADD15C,0.320000*%
%ADD16C,0.350000*%
G04 APERTURE END LIST*
D10*
X17350000Y-11300000D02*
X17350000Y-7050000D01*
X11250000Y-11300000D02*
X17350000Y-11300000D01*
X11250000Y-7050000D02*
X11250000Y-11300000D01*
X17350000Y-7050000D02*
X11250000Y-7050000D01*
D11*
D10*
X13218640Y-9266400D02*
X13278640Y-9326400D01*
X13278640Y-9266400D02*
X13218640Y-9326400D01*
X13503120Y-7295360D02*
X13563120Y-7355360D01*
X13563120Y-7295360D02*
X13503120Y-7355360D01*
X13592020Y-9205440D02*
X13652020Y-9265440D01*
X13652020Y-9205440D02*
X13592020Y-9265440D01*
X13764740Y-8661880D02*
X13824740Y-8721880D01*
X13824740Y-8661880D02*
X13764740Y-8721880D01*
X13953250Y-7603250D02*
X14013250Y-7663250D01*
X14013250Y-7603250D02*
X13953250Y-7663250D01*
X14192500Y-7956800D02*
X14252500Y-8016800D01*
X14252500Y-7956800D02*
X14192500Y-8016800D01*
X14630880Y-9291800D02*
X14690880Y-9351800D01*
X14690880Y-9291800D02*
X14630880Y-9351800D01*
X14695000Y-7570000D02*
X14755000Y-7630000D01*
X14755000Y-7570000D02*
X14695000Y-7630000D01*
X14752800Y-9901400D02*
X14812800Y-9961400D01*
X14812800Y-9901400D02*
X14752800Y-9961400D01*
X15042360Y-8672040D02*
X15102360Y-8732040D01*
X15102360Y-8672040D02*
X15042360Y-8732040D01*
X15194760Y-10399240D02*
X15254760Y-10459240D01*
X15254760Y-10399240D02*
X15194760Y-10459240D01*
X15270000Y-8145000D02*
X15330000Y-8205000D01*
X15330000Y-8145000D02*
X15270000Y-8205000D01*
X15347160Y-8570440D02*
X15407160Y-8630440D01*
X15407160Y-8570440D02*
X15347160Y-8630440D01*
X15438600Y-7818600D02*
X15498600Y-7878600D01*
X15498600Y-7818600D02*
X15438600Y-7878600D01*
X15466540Y-9045420D02*
X15526540Y-9105420D01*
X15526540Y-9045420D02*
X15466540Y-9105420D01*
X15479240Y-8270000D02*
X15539240Y-8330000D01*
X15539240Y-8270000D02*
X15479240Y-8330000D01*
X15479240Y-8758400D02*
X15539240Y-8818400D01*
X15539240Y-8758400D02*
X15479240Y-8818400D01*
X15819600Y-9672800D02*
X15879600Y-9732800D01*
X15879600Y-9672800D02*
X15819600Y-9732800D01*
X15997400Y-10511000D02*
X16057400Y-10571000D01*
X16057400Y-10511000D02*
X15997400Y-10571000D01*
X16022800Y-8987000D02*
X16082800Y-9047000D01*
X16082800Y-8987000D02*
X16022800Y-9047000D01*
X16276800Y-7910000D02*
X16336800Y-7970000D01*
X16336800Y-7910000D02*
X16276800Y-7970000D01*
X16276800Y-9246080D02*
X16336800Y-9306080D01*
X16336800Y-9246080D02*
X16276800Y-9306080D01*
X16535880Y-10716740D02*
X16595880Y-10776740D01*
X16595880Y-10716740D02*
X16535880Y-10776740D01*
X14249000Y-7400000D02*
G75*
G02*
X14184000Y-7400000I-32500J0D01*
G01*
X14184000Y-7400000D02*
G75*
G02*
X14249000Y-7400000I32500J0D01*
G01*
X14376000Y-7400000D02*
G75*
G02*
X14311000Y-7400000I-32500J0D01*
G01*
X14311000Y-7400000D02*
G75*
G02*
X14376000Y-7400000I32500J0D01*
G01*
X14503000Y-7400000D02*
G75*
G02*
X14438000Y-7400000I-32500J0D01*
G01*
X14438000Y-7400000D02*
G75*
G02*
X14503000Y-7400000I32500J0D01*
G01*
X14630000Y-7400000D02*
G75*
G02*
X14565000Y-7400000I-32500J0D01*
G01*
X14565000Y-7400000D02*
G75*
G02*
X14630000Y-7400000I32500J0D01*
G01*
X14757000Y-7400000D02*
G75*
G02*
X14692000Y-7400000I-32500J0D01*
G01*
X14692000Y-7400000D02*
G75*
G02*
X14757000Y-7400000I32500J0D01*
G01*
X14884000Y-7400000D02*
G75*
G02*
X14819000Y-7400000I-32500J0D01*
G01*
X14819000Y-7400000D02*
G75*
G02*
X14884000Y-7400000I32500J0D01*
G01*
X11760200Y-9490700D02*
X11760200Y-9565700D01*
X11722700Y-9528200D02*
X11797700Y-9528200D01*
X11760200Y-9690700D02*
X11760200Y-9765700D01*
X11722700Y-9728200D02*
X11797700Y-9728200D01*
X14176400Y-10757500D02*
X14176400Y-10832500D01*
X14138900Y-10795000D02*
X14213900Y-10795000D01*
X14376400Y-10757500D02*
X14376400Y-10832500D01*
X14338900Y-10795000D02*
X14413900Y-10795000D01*
X15224200Y-10757500D02*
X15224200Y-10832500D01*
X15186700Y-10795000D02*
X15261700Y-10795000D01*
X15424200Y-10757500D02*
X15424200Y-10832500D01*
X15386700Y-10795000D02*
X15461700Y-10795000D01*
X15624200Y-10757500D02*
X15624200Y-10832500D01*
X15586700Y-10795000D02*
X15661700Y-10795000D01*
X15824200Y-10757500D02*
X15824200Y-10832500D01*
X15786700Y-10795000D02*
X15861700Y-10795000D01*
X15852800Y-7506300D02*
X15852800Y-7581300D01*
X15815300Y-7543800D02*
X15890300Y-7543800D01*
X16052800Y-7506300D02*
X16052800Y-7581300D01*
X16015300Y-7543800D02*
X16090300Y-7543800D01*
X16579838Y-8533588D02*
X16579838Y-8466412D01*
X16512662Y-8466412D01*
X16512662Y-8533588D01*
X16579838Y-8533588D01*
X16579838Y-8783588D02*
X16579838Y-8716412D01*
X16512662Y-8716412D01*
X16512662Y-8783588D01*
X16579838Y-8783588D01*
X16779838Y-8533588D02*
X16779838Y-8466412D01*
X16712662Y-8466412D01*
X16712662Y-8533588D01*
X16779838Y-8533588D01*
X16779838Y-8783588D02*
X16779838Y-8716412D01*
X16712662Y-8716412D01*
X16712662Y-8783588D01*
X16779838Y-8783588D01*
X14742160Y-9661360D02*
X14792160Y-9611360D01*
X14742160Y-9561360D01*
X14692160Y-9611360D01*
X14742160Y-9661360D01*
X14996160Y-9661360D02*
X15046160Y-9611360D01*
X14996160Y-9561360D01*
X14946160Y-9611360D01*
X14996160Y-9661360D01*
X15250160Y-9661360D02*
X15300160Y-9611360D01*
X15250160Y-9561360D01*
X15200160Y-9611360D01*
X15250160Y-9661360D01*
X15392400Y-7289000D02*
X15442400Y-7239000D01*
X15392400Y-7189000D01*
X15342400Y-7239000D01*
X15392400Y-7289000D01*
X16281400Y-10489400D02*
X16331400Y-10439400D01*
X16281400Y-10389400D01*
X16231400Y-10439400D01*
X16281400Y-10489400D01*
X17094200Y-10489400D02*
X17144200Y-10439400D01*
X17094200Y-10389400D01*
X17044200Y-10439400D01*
X17094200Y-10489400D01*
D12*
X12314800Y-9002400D02*
X12424800Y-9112400D01*
X12424800Y-9002400D02*
X12314800Y-9112400D01*
X12424800Y-9057400D02*
G75*
G02*
X12314800Y-9057400I-55000J0D01*
G01*
X12314800Y-9057400D02*
G75*
G02*
X12424800Y-9057400I55000J0D01*
G01*
X12568800Y-9002400D02*
X12678800Y-9112400D01*
X12678800Y-9002400D02*
X12568800Y-9112400D01*
X12678800Y-9057400D02*
G75*
G02*
X12568800Y-9057400I-55000J0D01*
G01*
X12568800Y-9057400D02*
G75*
G02*
X12678800Y-9057400I55000J0D01*
G01*
X12822800Y-9002400D02*
X12932800Y-9112400D01*
X12932800Y-9002400D02*
X12822800Y-9112400D01*
X12932800Y-9057400D02*
G75*
G02*
X12822800Y-9057400I-55000J0D01*
G01*
X12822800Y-9057400D02*
G75*
G02*
X12932800Y-9057400I55000J0D01*
G01*
D13*
X12189300Y-10726600D02*
X12319300Y-10856600D01*
X12319300Y-10726600D02*
X12189300Y-10856600D01*
X12254300Y-10726600D02*
X12254300Y-10856600D01*
X12189300Y-10791600D02*
X12319300Y-10791600D01*
X12697300Y-10726600D02*
X12827300Y-10856600D01*
X12827300Y-10726600D02*
X12697300Y-10856600D01*
X12762300Y-10726600D02*
X12762300Y-10856600D01*
X12697300Y-10791600D02*
X12827300Y-10791600D01*
D14*
X16917250Y-7910000D02*
X17147250Y-8140000D01*
X17147250Y-7910000D02*
X16917250Y-8140000D01*
X17113568Y-8106318D02*
X17113568Y-7943682D01*
X16950932Y-7943682D01*
X16950932Y-8106318D01*
X17113568Y-8106318D01*
X16917250Y-9110000D02*
X17147250Y-9340000D01*
X17147250Y-9110000D02*
X16917250Y-9340000D01*
X17113568Y-9306318D02*
X17113568Y-9143682D01*
X16950932Y-9143682D01*
X16950932Y-9306318D01*
X17113568Y-9306318D01*
D15*
X11440000Y-7240000D02*
X11760000Y-7560000D01*
X11760000Y-7240000D02*
X11440000Y-7560000D01*
X11600000Y-7560000D02*
X11760000Y-7400000D01*
X11600000Y-7240000D01*
X11440000Y-7400000D01*
X11600000Y-7560000D01*
X11440000Y-10790000D02*
X11760000Y-11110000D01*
X11760000Y-10790000D02*
X11440000Y-11110000D01*
X11600000Y-11110000D02*
X11760000Y-10950000D01*
X11600000Y-10790000D01*
X11440000Y-10950000D01*
X11600000Y-11110000D01*
X16840000Y-7240000D02*
X17160000Y-7560000D01*
X17160000Y-7240000D02*
X16840000Y-7560000D01*
X17000000Y-7560000D02*
X17160000Y-7400000D01*
X17000000Y-7240000D01*
X16840000Y-7400000D01*
X17000000Y-7560000D01*
X16840000Y-10790000D02*
X17160000Y-11110000D01*
X17160000Y-10790000D02*
X16840000Y-11110000D01*
X17000000Y-11110000D02*
X17160000Y-10950000D01*
X17000000Y-10790000D01*
X16840000Y-10950000D01*
X17000000Y-11110000D01*
D16*
X12623800Y-7216400D02*
X12623800Y-7566400D01*
X12448800Y-7391400D02*
X12798800Y-7391400D01*
X12798800Y-7391400D02*
G75*
G02*
X12448800Y-7391400I-175000J0D01*
G01*
X12448800Y-7391400D02*
G75*
G02*
X12798800Y-7391400I175000J0D01*
G01*
D11*
X11505777Y-11616484D02*
X11505777Y-11416484D01*
X11505777Y-11416484D02*
X11553396Y-11416484D01*
X11553396Y-11416484D02*
X11581967Y-11426008D01*
X11581967Y-11426008D02*
X11601015Y-11445055D01*
X11601015Y-11445055D02*
X11610539Y-11464103D01*
X11610539Y-11464103D02*
X11620062Y-11502198D01*
X11620062Y-11502198D02*
X11620062Y-11530769D01*
X11620062Y-11530769D02*
X11610539Y-11568865D01*
X11610539Y-11568865D02*
X11601015Y-11587912D01*
X11601015Y-11587912D02*
X11581967Y-11606960D01*
X11581967Y-11606960D02*
X11553396Y-11616484D01*
X11553396Y-11616484D02*
X11505777Y-11616484D01*
X11705777Y-11616484D02*
X11705777Y-11483150D01*
X11705777Y-11521246D02*
X11715301Y-11502198D01*
X11715301Y-11502198D02*
X11724824Y-11492674D01*
X11724824Y-11492674D02*
X11743872Y-11483150D01*
X11743872Y-11483150D02*
X11762920Y-11483150D01*
X11829586Y-11616484D02*
X11829586Y-11483150D01*
X11829586Y-11416484D02*
X11820062Y-11426008D01*
X11820062Y-11426008D02*
X11829586Y-11435531D01*
X11829586Y-11435531D02*
X11839110Y-11426008D01*
X11839110Y-11426008D02*
X11829586Y-11416484D01*
X11829586Y-11416484D02*
X11829586Y-11435531D01*
X11953396Y-11616484D02*
X11934348Y-11606960D01*
X11934348Y-11606960D02*
X11924824Y-11587912D01*
X11924824Y-11587912D02*
X11924824Y-11416484D01*
X12058158Y-11616484D02*
X12039110Y-11606960D01*
X12039110Y-11606960D02*
X12029586Y-11587912D01*
X12029586Y-11587912D02*
X12029586Y-11416484D01*
X12286729Y-11616484D02*
X12286729Y-11416484D01*
X12286729Y-11416484D02*
X12353396Y-11559341D01*
X12353396Y-11559341D02*
X12420062Y-11416484D01*
X12420062Y-11416484D02*
X12420062Y-11616484D01*
X12601015Y-11616484D02*
X12601015Y-11511722D01*
X12601015Y-11511722D02*
X12591491Y-11492674D01*
X12591491Y-11492674D02*
X12572443Y-11483150D01*
X12572443Y-11483150D02*
X12534348Y-11483150D01*
X12534348Y-11483150D02*
X12515301Y-11492674D01*
X12601015Y-11606960D02*
X12581967Y-11616484D01*
X12581967Y-11616484D02*
X12534348Y-11616484D01*
X12534348Y-11616484D02*
X12515301Y-11606960D01*
X12515301Y-11606960D02*
X12505777Y-11587912D01*
X12505777Y-11587912D02*
X12505777Y-11568865D01*
X12505777Y-11568865D02*
X12515301Y-11549817D01*
X12515301Y-11549817D02*
X12534348Y-11540293D01*
X12534348Y-11540293D02*
X12581967Y-11540293D01*
X12581967Y-11540293D02*
X12601015Y-11530769D01*
X12696253Y-11483150D02*
X12696253Y-11683150D01*
X12696253Y-11492674D02*
X12715301Y-11483150D01*
X12715301Y-11483150D02*
X12753396Y-11483150D01*
X12753396Y-11483150D02*
X12772443Y-11492674D01*
X12772443Y-11492674D02*
X12781967Y-11502198D01*
X12781967Y-11502198D02*
X12791491Y-11521246D01*
X12791491Y-11521246D02*
X12791491Y-11578388D01*
X12791491Y-11578388D02*
X12781967Y-11597436D01*
X12781967Y-11597436D02*
X12772443Y-11606960D01*
X12772443Y-11606960D02*
X12753396Y-11616484D01*
X12753396Y-11616484D02*
X12715301Y-11616484D01*
X12715301Y-11616484D02*
X12696253Y-11606960D01*
X12877205Y-11597436D02*
X12886729Y-11606960D01*
X12886729Y-11606960D02*
X12877205Y-11616484D01*
X12877205Y-11616484D02*
X12867682Y-11606960D01*
X12867682Y-11606960D02*
X12877205Y-11597436D01*
X12877205Y-11597436D02*
X12877205Y-11616484D01*
X12877205Y-11492674D02*
X12886729Y-11502198D01*
X12886729Y-11502198D02*
X12877205Y-11511722D01*
X12877205Y-11511722D02*
X12867682Y-11502198D01*
X12867682Y-11502198D02*
X12877205Y-11492674D01*
X12877205Y-11492674D02*
X12877205Y-11511722D01*
D10*
X11185000Y-11915000D02*
X11245000Y-11975000D01*
X11245000Y-11915000D02*
X11185000Y-11975000D01*
D11*
X11543872Y-11836484D02*
X11562920Y-11836484D01*
X11562920Y-11836484D02*
X11581967Y-11846008D01*
X11581967Y-11846008D02*
X11591491Y-11855531D01*
X11591491Y-11855531D02*
X11601015Y-11874579D01*
X11601015Y-11874579D02*
X11610539Y-11912674D01*
X11610539Y-11912674D02*
X11610539Y-11960293D01*
X11610539Y-11960293D02*
X11601015Y-11998388D01*
X11601015Y-11998388D02*
X11591491Y-12017436D01*
X11591491Y-12017436D02*
X11581967Y-12026960D01*
X11581967Y-12026960D02*
X11562920Y-12036484D01*
X11562920Y-12036484D02*
X11543872Y-12036484D01*
X11543872Y-12036484D02*
X11524824Y-12026960D01*
X11524824Y-12026960D02*
X11515301Y-12017436D01*
X11515301Y-12017436D02*
X11505777Y-11998388D01*
X11505777Y-11998388D02*
X11496253Y-11960293D01*
X11496253Y-11960293D02*
X11496253Y-11912674D01*
X11496253Y-11912674D02*
X11505777Y-11874579D01*
X11505777Y-11874579D02*
X11515301Y-11855531D01*
X11515301Y-11855531D02*
X11524824Y-11846008D01*
X11524824Y-11846008D02*
X11543872Y-11836484D01*
X11696253Y-12017436D02*
X11705777Y-12026960D01*
X11705777Y-12026960D02*
X11696253Y-12036484D01*
X11696253Y-12036484D02*
X11686729Y-12026960D01*
X11686729Y-12026960D02*
X11696253Y-12017436D01*
X11696253Y-12017436D02*
X11696253Y-12036484D01*
X11877205Y-11836484D02*
X11839110Y-11836484D01*
X11839110Y-11836484D02*
X11820062Y-11846008D01*
X11820062Y-11846008D02*
X11810539Y-11855531D01*
X11810539Y-11855531D02*
X11791491Y-11884103D01*
X11791491Y-11884103D02*
X11781967Y-11922198D01*
X11781967Y-11922198D02*
X11781967Y-11998388D01*
X11781967Y-11998388D02*
X11791491Y-12017436D01*
X11791491Y-12017436D02*
X11801015Y-12026960D01*
X11801015Y-12026960D02*
X11820062Y-12036484D01*
X11820062Y-12036484D02*
X11858158Y-12036484D01*
X11858158Y-12036484D02*
X11877205Y-12026960D01*
X11877205Y-12026960D02*
X11886729Y-12017436D01*
X11886729Y-12017436D02*
X11896253Y-11998388D01*
X11896253Y-11998388D02*
X11896253Y-11950769D01*
X11896253Y-11950769D02*
X11886729Y-11931722D01*
X11886729Y-11931722D02*
X11877205Y-11922198D01*
X11877205Y-11922198D02*
X11858158Y-11912674D01*
X11858158Y-11912674D02*
X11820062Y-11912674D01*
X11820062Y-11912674D02*
X11801015Y-11922198D01*
X11801015Y-11922198D02*
X11791491Y-11931722D01*
X11791491Y-11931722D02*
X11781967Y-11950769D01*
X12020062Y-11836484D02*
X12039110Y-11836484D01*
X12039110Y-11836484D02*
X12058158Y-11846008D01*
X12058158Y-11846008D02*
X12067682Y-11855531D01*
X12067682Y-11855531D02*
X12077205Y-11874579D01*
X12077205Y-11874579D02*
X12086729Y-11912674D01*
X12086729Y-11912674D02*
X12086729Y-11960293D01*
X12086729Y-11960293D02*
X12077205Y-11998388D01*
X12077205Y-11998388D02*
X12067682Y-12017436D01*
X12067682Y-12017436D02*
X12058158Y-12026960D01*
X12058158Y-12026960D02*
X12039110Y-12036484D01*
X12039110Y-12036484D02*
X12020062Y-12036484D01*
X12020062Y-12036484D02*
X12001015Y-12026960D01*
X12001015Y-12026960D02*
X11991491Y-12017436D01*
X11991491Y-12017436D02*
X11981967Y-11998388D01*
X11981967Y-11998388D02*
X11972443Y-11960293D01*
X11972443Y-11960293D02*
X11972443Y-11912674D01*
X11972443Y-11912674D02*
X11981967Y-11874579D01*
X11981967Y-11874579D02*
X11991491Y-11855531D01*
X11991491Y-11855531D02*
X12001015Y-11846008D01*
X12001015Y-11846008D02*
X12020062Y-11836484D01*
X12210539Y-11836484D02*
X12229586Y-11836484D01*
X12229586Y-11836484D02*
X12248634Y-11846008D01*
X12248634Y-11846008D02*
X12258158Y-11855531D01*
X12258158Y-11855531D02*
X12267682Y-11874579D01*
X12267682Y-11874579D02*
X12277205Y-11912674D01*
X12277205Y-11912674D02*
X12277205Y-11960293D01*
X12277205Y-11960293D02*
X12267682Y-11998388D01*
X12267682Y-11998388D02*
X12258158Y-12017436D01*
X12258158Y-12017436D02*
X12248634Y-12026960D01*
X12248634Y-12026960D02*
X12229586Y-12036484D01*
X12229586Y-12036484D02*
X12210539Y-12036484D01*
X12210539Y-12036484D02*
X12191491Y-12026960D01*
X12191491Y-12026960D02*
X12181967Y-12017436D01*
X12181967Y-12017436D02*
X12172443Y-11998388D01*
X12172443Y-11998388D02*
X12162920Y-11960293D01*
X12162920Y-11960293D02*
X12162920Y-11912674D01*
X12162920Y-11912674D02*
X12172443Y-11874579D01*
X12172443Y-11874579D02*
X12181967Y-11855531D01*
X12181967Y-11855531D02*
X12191491Y-11846008D01*
X12191491Y-11846008D02*
X12210539Y-11836484D01*
X12362920Y-12036484D02*
X12362920Y-11903150D01*
X12362920Y-11922198D02*
X12372443Y-11912674D01*
X12372443Y-11912674D02*
X12391491Y-11903150D01*
X12391491Y-11903150D02*
X12420063Y-11903150D01*
X12420063Y-11903150D02*
X12439110Y-11912674D01*
X12439110Y-11912674D02*
X12448634Y-11931722D01*
X12448634Y-11931722D02*
X12448634Y-12036484D01*
X12448634Y-11931722D02*
X12458158Y-11912674D01*
X12458158Y-11912674D02*
X12477205Y-11903150D01*
X12477205Y-11903150D02*
X12505777Y-11903150D01*
X12505777Y-11903150D02*
X12524824Y-11912674D01*
X12524824Y-11912674D02*
X12534348Y-11931722D01*
X12534348Y-11931722D02*
X12534348Y-12036484D01*
X12629586Y-12036484D02*
X12629586Y-11903150D01*
X12629586Y-11922198D02*
X12639110Y-11912674D01*
X12639110Y-11912674D02*
X12658158Y-11903150D01*
X12658158Y-11903150D02*
X12686729Y-11903150D01*
X12686729Y-11903150D02*
X12705777Y-11912674D01*
X12705777Y-11912674D02*
X12715301Y-11931722D01*
X12715301Y-11931722D02*
X12715301Y-12036484D01*
X12715301Y-11931722D02*
X12724824Y-11912674D01*
X12724824Y-11912674D02*
X12743872Y-11903150D01*
X12743872Y-11903150D02*
X12772443Y-11903150D01*
X12772443Y-11903150D02*
X12791491Y-11912674D01*
X12791491Y-11912674D02*
X12801015Y-11931722D01*
X12801015Y-11931722D02*
X12801015Y-12036484D01*
X13191491Y-11826960D02*
X13020063Y-12084103D01*
X13448634Y-11836484D02*
X13467682Y-11836484D01*
X13467682Y-11836484D02*
X13486729Y-11846008D01*
X13486729Y-11846008D02*
X13496253Y-11855531D01*
X13496253Y-11855531D02*
X13505777Y-11874579D01*
X13505777Y-11874579D02*
X13515301Y-11912674D01*
X13515301Y-11912674D02*
X13515301Y-11960293D01*
X13515301Y-11960293D02*
X13505777Y-11998388D01*
X13505777Y-11998388D02*
X13496253Y-12017436D01*
X13496253Y-12017436D02*
X13486729Y-12026960D01*
X13486729Y-12026960D02*
X13467682Y-12036484D01*
X13467682Y-12036484D02*
X13448634Y-12036484D01*
X13448634Y-12036484D02*
X13429586Y-12026960D01*
X13429586Y-12026960D02*
X13420063Y-12017436D01*
X13420063Y-12017436D02*
X13410539Y-11998388D01*
X13410539Y-11998388D02*
X13401015Y-11960293D01*
X13401015Y-11960293D02*
X13401015Y-11912674D01*
X13401015Y-11912674D02*
X13410539Y-11874579D01*
X13410539Y-11874579D02*
X13420063Y-11855531D01*
X13420063Y-11855531D02*
X13429586Y-11846008D01*
X13429586Y-11846008D02*
X13448634Y-11836484D01*
X13601015Y-12017436D02*
X13610539Y-12026960D01*
X13610539Y-12026960D02*
X13601015Y-12036484D01*
X13601015Y-12036484D02*
X13591491Y-12026960D01*
X13591491Y-12026960D02*
X13601015Y-12017436D01*
X13601015Y-12017436D02*
X13601015Y-12036484D01*
X13734348Y-11836484D02*
X13753396Y-11836484D01*
X13753396Y-11836484D02*
X13772444Y-11846008D01*
X13772444Y-11846008D02*
X13781967Y-11855531D01*
X13781967Y-11855531D02*
X13791491Y-11874579D01*
X13791491Y-11874579D02*
X13801015Y-11912674D01*
X13801015Y-11912674D02*
X13801015Y-11960293D01*
X13801015Y-11960293D02*
X13791491Y-11998388D01*
X13791491Y-11998388D02*
X13781967Y-12017436D01*
X13781967Y-12017436D02*
X13772444Y-12026960D01*
X13772444Y-12026960D02*
X13753396Y-12036484D01*
X13753396Y-12036484D02*
X13734348Y-12036484D01*
X13734348Y-12036484D02*
X13715301Y-12026960D01*
X13715301Y-12026960D02*
X13705777Y-12017436D01*
X13705777Y-12017436D02*
X13696253Y-11998388D01*
X13696253Y-11998388D02*
X13686729Y-11960293D01*
X13686729Y-11960293D02*
X13686729Y-11912674D01*
X13686729Y-11912674D02*
X13696253Y-11874579D01*
X13696253Y-11874579D02*
X13705777Y-11855531D01*
X13705777Y-11855531D02*
X13715301Y-11846008D01*
X13715301Y-11846008D02*
X13734348Y-11836484D01*
X13877206Y-11855531D02*
X13886729Y-11846008D01*
X13886729Y-11846008D02*
X13905777Y-11836484D01*
X13905777Y-11836484D02*
X13953396Y-11836484D01*
X13953396Y-11836484D02*
X13972444Y-11846008D01*
X13972444Y-11846008D02*
X13981967Y-11855531D01*
X13981967Y-11855531D02*
X13991491Y-11874579D01*
X13991491Y-11874579D02*
X13991491Y-11893627D01*
X13991491Y-11893627D02*
X13981967Y-11922198D01*
X13981967Y-11922198D02*
X13867682Y-12036484D01*
X13867682Y-12036484D02*
X13991491Y-12036484D01*
X14058158Y-11836484D02*
X14181967Y-11836484D01*
X14181967Y-11836484D02*
X14115301Y-11912674D01*
X14115301Y-11912674D02*
X14143872Y-11912674D01*
X14143872Y-11912674D02*
X14162920Y-11922198D01*
X14162920Y-11922198D02*
X14172444Y-11931722D01*
X14172444Y-11931722D02*
X14181967Y-11950769D01*
X14181967Y-11950769D02*
X14181967Y-11998388D01*
X14181967Y-11998388D02*
X14172444Y-12017436D01*
X14172444Y-12017436D02*
X14162920Y-12026960D01*
X14162920Y-12026960D02*
X14143872Y-12036484D01*
X14143872Y-12036484D02*
X14086729Y-12036484D01*
X14086729Y-12036484D02*
X14067682Y-12026960D01*
X14067682Y-12026960D02*
X14058158Y-12017436D01*
X14353396Y-11836484D02*
X14315301Y-11836484D01*
X14315301Y-11836484D02*
X14296253Y-11846008D01*
X14296253Y-11846008D02*
X14286729Y-11855531D01*
X14286729Y-11855531D02*
X14267682Y-11884103D01*
X14267682Y-11884103D02*
X14258158Y-11922198D01*
X14258158Y-11922198D02*
X14258158Y-11998388D01*
X14258158Y-11998388D02*
X14267682Y-12017436D01*
X14267682Y-12017436D02*
X14277206Y-12026960D01*
X14277206Y-12026960D02*
X14296253Y-12036484D01*
X14296253Y-12036484D02*
X14334348Y-12036484D01*
X14334348Y-12036484D02*
X14353396Y-12026960D01*
X14353396Y-12026960D02*
X14362920Y-12017436D01*
X14362920Y-12017436D02*
X14372444Y-11998388D01*
X14372444Y-11998388D02*
X14372444Y-11950769D01*
X14372444Y-11950769D02*
X14362920Y-11931722D01*
X14362920Y-11931722D02*
X14353396Y-11922198D01*
X14353396Y-11922198D02*
X14334348Y-11912674D01*
X14334348Y-11912674D02*
X14296253Y-11912674D01*
X14296253Y-11912674D02*
X14277206Y-11922198D01*
X14277206Y-11922198D02*
X14267682Y-11931722D01*
X14267682Y-11931722D02*
X14258158Y-11950769D01*
X14448634Y-11836484D02*
X14448634Y-11874579D01*
X14524825Y-11836484D02*
X14524825Y-11874579D01*
X14820063Y-12112674D02*
X14810539Y-12103150D01*
X14810539Y-12103150D02*
X14791491Y-12074579D01*
X14791491Y-12074579D02*
X14781968Y-12055531D01*
X14781968Y-12055531D02*
X14772444Y-12026960D01*
X14772444Y-12026960D02*
X14762920Y-11979341D01*
X14762920Y-11979341D02*
X14762920Y-11941246D01*
X14762920Y-11941246D02*
X14772444Y-11893627D01*
X14772444Y-11893627D02*
X14781968Y-11865055D01*
X14781968Y-11865055D02*
X14791491Y-11846008D01*
X14791491Y-11846008D02*
X14810539Y-11817436D01*
X14810539Y-11817436D02*
X14820063Y-11807912D01*
X14886729Y-11855531D02*
X14896253Y-11846008D01*
X14896253Y-11846008D02*
X14915301Y-11836484D01*
X14915301Y-11836484D02*
X14962920Y-11836484D01*
X14962920Y-11836484D02*
X14981968Y-11846008D01*
X14981968Y-11846008D02*
X14991491Y-11855531D01*
X14991491Y-11855531D02*
X15001015Y-11874579D01*
X15001015Y-11874579D02*
X15001015Y-11893627D01*
X15001015Y-11893627D02*
X14991491Y-11922198D01*
X14991491Y-11922198D02*
X14877206Y-12036484D01*
X14877206Y-12036484D02*
X15001015Y-12036484D01*
X15067682Y-11836484D02*
X15191491Y-11836484D01*
X15191491Y-11836484D02*
X15124825Y-11912674D01*
X15124825Y-11912674D02*
X15153396Y-11912674D01*
X15153396Y-11912674D02*
X15172444Y-11922198D01*
X15172444Y-11922198D02*
X15181968Y-11931722D01*
X15181968Y-11931722D02*
X15191491Y-11950769D01*
X15191491Y-11950769D02*
X15191491Y-11998388D01*
X15191491Y-11998388D02*
X15181968Y-12017436D01*
X15181968Y-12017436D02*
X15172444Y-12026960D01*
X15172444Y-12026960D02*
X15153396Y-12036484D01*
X15153396Y-12036484D02*
X15096253Y-12036484D01*
X15096253Y-12036484D02*
X15077206Y-12026960D01*
X15077206Y-12026960D02*
X15067682Y-12017436D01*
X15429587Y-12036484D02*
X15429587Y-11836484D01*
X15515301Y-12036484D02*
X15515301Y-11931722D01*
X15515301Y-11931722D02*
X15505777Y-11912674D01*
X15505777Y-11912674D02*
X15486730Y-11903150D01*
X15486730Y-11903150D02*
X15458158Y-11903150D01*
X15458158Y-11903150D02*
X15439110Y-11912674D01*
X15439110Y-11912674D02*
X15429587Y-11922198D01*
X15639110Y-12036484D02*
X15620063Y-12026960D01*
X15620063Y-12026960D02*
X15610539Y-12017436D01*
X15610539Y-12017436D02*
X15601015Y-11998388D01*
X15601015Y-11998388D02*
X15601015Y-11941246D01*
X15601015Y-11941246D02*
X15610539Y-11922198D01*
X15610539Y-11922198D02*
X15620063Y-11912674D01*
X15620063Y-11912674D02*
X15639110Y-11903150D01*
X15639110Y-11903150D02*
X15667682Y-11903150D01*
X15667682Y-11903150D02*
X15686730Y-11912674D01*
X15686730Y-11912674D02*
X15696253Y-11922198D01*
X15696253Y-11922198D02*
X15705777Y-11941246D01*
X15705777Y-11941246D02*
X15705777Y-11998388D01*
X15705777Y-11998388D02*
X15696253Y-12017436D01*
X15696253Y-12017436D02*
X15686730Y-12026960D01*
X15686730Y-12026960D02*
X15667682Y-12036484D01*
X15667682Y-12036484D02*
X15639110Y-12036484D01*
X15820063Y-12036484D02*
X15801015Y-12026960D01*
X15801015Y-12026960D02*
X15791491Y-12007912D01*
X15791491Y-12007912D02*
X15791491Y-11836484D01*
X15972444Y-12026960D02*
X15953396Y-12036484D01*
X15953396Y-12036484D02*
X15915301Y-12036484D01*
X15915301Y-12036484D02*
X15896253Y-12026960D01*
X15896253Y-12026960D02*
X15886730Y-12007912D01*
X15886730Y-12007912D02*
X15886730Y-11931722D01*
X15886730Y-11931722D02*
X15896253Y-11912674D01*
X15896253Y-11912674D02*
X15915301Y-11903150D01*
X15915301Y-11903150D02*
X15953396Y-11903150D01*
X15953396Y-11903150D02*
X15972444Y-11912674D01*
X15972444Y-11912674D02*
X15981968Y-11931722D01*
X15981968Y-11931722D02*
X15981968Y-11950769D01*
X15981968Y-11950769D02*
X15886730Y-11969817D01*
X16058158Y-12026960D02*
X16077206Y-12036484D01*
X16077206Y-12036484D02*
X16115301Y-12036484D01*
X16115301Y-12036484D02*
X16134349Y-12026960D01*
X16134349Y-12026960D02*
X16143872Y-12007912D01*
X16143872Y-12007912D02*
X16143872Y-11998388D01*
X16143872Y-11998388D02*
X16134349Y-11979341D01*
X16134349Y-11979341D02*
X16115301Y-11969817D01*
X16115301Y-11969817D02*
X16086730Y-11969817D01*
X16086730Y-11969817D02*
X16067682Y-11960293D01*
X16067682Y-11960293D02*
X16058158Y-11941246D01*
X16058158Y-11941246D02*
X16058158Y-11931722D01*
X16058158Y-11931722D02*
X16067682Y-11912674D01*
X16067682Y-11912674D02*
X16086730Y-11903150D01*
X16086730Y-11903150D02*
X16115301Y-11903150D01*
X16115301Y-11903150D02*
X16134349Y-11912674D01*
X16210539Y-12112674D02*
X16220063Y-12103150D01*
X16220063Y-12103150D02*
X16239111Y-12074579D01*
X16239111Y-12074579D02*
X16248634Y-12055531D01*
X16248634Y-12055531D02*
X16258158Y-12026960D01*
X16258158Y-12026960D02*
X16267682Y-11979341D01*
X16267682Y-11979341D02*
X16267682Y-11941246D01*
X16267682Y-11941246D02*
X16258158Y-11893627D01*
X16258158Y-11893627D02*
X16248634Y-11865055D01*
X16248634Y-11865055D02*
X16239111Y-11846008D01*
X16239111Y-11846008D02*
X16220063Y-11817436D01*
X16220063Y-11817436D02*
X16210539Y-11807912D01*
D10*
X11245000Y-12209000D02*
G75*
G02*
X11180000Y-12209000I-32500J0D01*
G01*
X11180000Y-12209000D02*
G75*
G02*
X11245000Y-12209000I32500J0D01*
G01*
D11*
X11543872Y-12100484D02*
X11562920Y-12100484D01*
X11562920Y-12100484D02*
X11581967Y-12110008D01*
X11581967Y-12110008D02*
X11591491Y-12119531D01*
X11591491Y-12119531D02*
X11601015Y-12138579D01*
X11601015Y-12138579D02*
X11610539Y-12176674D01*
X11610539Y-12176674D02*
X11610539Y-12224293D01*
X11610539Y-12224293D02*
X11601015Y-12262388D01*
X11601015Y-12262388D02*
X11591491Y-12281436D01*
X11591491Y-12281436D02*
X11581967Y-12290960D01*
X11581967Y-12290960D02*
X11562920Y-12300484D01*
X11562920Y-12300484D02*
X11543872Y-12300484D01*
X11543872Y-12300484D02*
X11524824Y-12290960D01*
X11524824Y-12290960D02*
X11515301Y-12281436D01*
X11515301Y-12281436D02*
X11505777Y-12262388D01*
X11505777Y-12262388D02*
X11496253Y-12224293D01*
X11496253Y-12224293D02*
X11496253Y-12176674D01*
X11496253Y-12176674D02*
X11505777Y-12138579D01*
X11505777Y-12138579D02*
X11515301Y-12119531D01*
X11515301Y-12119531D02*
X11524824Y-12110008D01*
X11524824Y-12110008D02*
X11543872Y-12100484D01*
X11696253Y-12281436D02*
X11705777Y-12290960D01*
X11705777Y-12290960D02*
X11696253Y-12300484D01*
X11696253Y-12300484D02*
X11686729Y-12290960D01*
X11686729Y-12290960D02*
X11696253Y-12281436D01*
X11696253Y-12281436D02*
X11696253Y-12300484D01*
X11877205Y-12100484D02*
X11839110Y-12100484D01*
X11839110Y-12100484D02*
X11820062Y-12110008D01*
X11820062Y-12110008D02*
X11810539Y-12119531D01*
X11810539Y-12119531D02*
X11791491Y-12148103D01*
X11791491Y-12148103D02*
X11781967Y-12186198D01*
X11781967Y-12186198D02*
X11781967Y-12262388D01*
X11781967Y-12262388D02*
X11791491Y-12281436D01*
X11791491Y-12281436D02*
X11801015Y-12290960D01*
X11801015Y-12290960D02*
X11820062Y-12300484D01*
X11820062Y-12300484D02*
X11858158Y-12300484D01*
X11858158Y-12300484D02*
X11877205Y-12290960D01*
X11877205Y-12290960D02*
X11886729Y-12281436D01*
X11886729Y-12281436D02*
X11896253Y-12262388D01*
X11896253Y-12262388D02*
X11896253Y-12214769D01*
X11896253Y-12214769D02*
X11886729Y-12195722D01*
X11886729Y-12195722D02*
X11877205Y-12186198D01*
X11877205Y-12186198D02*
X11858158Y-12176674D01*
X11858158Y-12176674D02*
X11820062Y-12176674D01*
X11820062Y-12176674D02*
X11801015Y-12186198D01*
X11801015Y-12186198D02*
X11791491Y-12195722D01*
X11791491Y-12195722D02*
X11781967Y-12214769D01*
X12077205Y-12100484D02*
X11981967Y-12100484D01*
X11981967Y-12100484D02*
X11972443Y-12195722D01*
X11972443Y-12195722D02*
X11981967Y-12186198D01*
X11981967Y-12186198D02*
X12001015Y-12176674D01*
X12001015Y-12176674D02*
X12048634Y-12176674D01*
X12048634Y-12176674D02*
X12067682Y-12186198D01*
X12067682Y-12186198D02*
X12077205Y-12195722D01*
X12077205Y-12195722D02*
X12086729Y-12214769D01*
X12086729Y-12214769D02*
X12086729Y-12262388D01*
X12086729Y-12262388D02*
X12077205Y-12281436D01*
X12077205Y-12281436D02*
X12067682Y-12290960D01*
X12067682Y-12290960D02*
X12048634Y-12300484D01*
X12048634Y-12300484D02*
X12001015Y-12300484D01*
X12001015Y-12300484D02*
X11981967Y-12290960D01*
X11981967Y-12290960D02*
X11972443Y-12281436D01*
X12210539Y-12100484D02*
X12229586Y-12100484D01*
X12229586Y-12100484D02*
X12248634Y-12110008D01*
X12248634Y-12110008D02*
X12258158Y-12119531D01*
X12258158Y-12119531D02*
X12267682Y-12138579D01*
X12267682Y-12138579D02*
X12277205Y-12176674D01*
X12277205Y-12176674D02*
X12277205Y-12224293D01*
X12277205Y-12224293D02*
X12267682Y-12262388D01*
X12267682Y-12262388D02*
X12258158Y-12281436D01*
X12258158Y-12281436D02*
X12248634Y-12290960D01*
X12248634Y-12290960D02*
X12229586Y-12300484D01*
X12229586Y-12300484D02*
X12210539Y-12300484D01*
X12210539Y-12300484D02*
X12191491Y-12290960D01*
X12191491Y-12290960D02*
X12181967Y-12281436D01*
X12181967Y-12281436D02*
X12172443Y-12262388D01*
X12172443Y-12262388D02*
X12162920Y-12224293D01*
X12162920Y-12224293D02*
X12162920Y-12176674D01*
X12162920Y-12176674D02*
X12172443Y-12138579D01*
X12172443Y-12138579D02*
X12181967Y-12119531D01*
X12181967Y-12119531D02*
X12191491Y-12110008D01*
X12191491Y-12110008D02*
X12210539Y-12100484D01*
X12362920Y-12300484D02*
X12362920Y-12167150D01*
X12362920Y-12186198D02*
X12372443Y-12176674D01*
X12372443Y-12176674D02*
X12391491Y-12167150D01*
X12391491Y-12167150D02*
X12420063Y-12167150D01*
X12420063Y-12167150D02*
X12439110Y-12176674D01*
X12439110Y-12176674D02*
X12448634Y-12195722D01*
X12448634Y-12195722D02*
X12448634Y-12300484D01*
X12448634Y-12195722D02*
X12458158Y-12176674D01*
X12458158Y-12176674D02*
X12477205Y-12167150D01*
X12477205Y-12167150D02*
X12505777Y-12167150D01*
X12505777Y-12167150D02*
X12524824Y-12176674D01*
X12524824Y-12176674D02*
X12534348Y-12195722D01*
X12534348Y-12195722D02*
X12534348Y-12300484D01*
X12629586Y-12300484D02*
X12629586Y-12167150D01*
X12629586Y-12186198D02*
X12639110Y-12176674D01*
X12639110Y-12176674D02*
X12658158Y-12167150D01*
X12658158Y-12167150D02*
X12686729Y-12167150D01*
X12686729Y-12167150D02*
X12705777Y-12176674D01*
X12705777Y-12176674D02*
X12715301Y-12195722D01*
X12715301Y-12195722D02*
X12715301Y-12300484D01*
X12715301Y-12195722D02*
X12724824Y-12176674D01*
X12724824Y-12176674D02*
X12743872Y-12167150D01*
X12743872Y-12167150D02*
X12772443Y-12167150D01*
X12772443Y-12167150D02*
X12791491Y-12176674D01*
X12791491Y-12176674D02*
X12801015Y-12195722D01*
X12801015Y-12195722D02*
X12801015Y-12300484D01*
X13191491Y-12090960D02*
X13020063Y-12348103D01*
X13448634Y-12100484D02*
X13467682Y-12100484D01*
X13467682Y-12100484D02*
X13486729Y-12110008D01*
X13486729Y-12110008D02*
X13496253Y-12119531D01*
X13496253Y-12119531D02*
X13505777Y-12138579D01*
X13505777Y-12138579D02*
X13515301Y-12176674D01*
X13515301Y-12176674D02*
X13515301Y-12224293D01*
X13515301Y-12224293D02*
X13505777Y-12262388D01*
X13505777Y-12262388D02*
X13496253Y-12281436D01*
X13496253Y-12281436D02*
X13486729Y-12290960D01*
X13486729Y-12290960D02*
X13467682Y-12300484D01*
X13467682Y-12300484D02*
X13448634Y-12300484D01*
X13448634Y-12300484D02*
X13429586Y-12290960D01*
X13429586Y-12290960D02*
X13420063Y-12281436D01*
X13420063Y-12281436D02*
X13410539Y-12262388D01*
X13410539Y-12262388D02*
X13401015Y-12224293D01*
X13401015Y-12224293D02*
X13401015Y-12176674D01*
X13401015Y-12176674D02*
X13410539Y-12138579D01*
X13410539Y-12138579D02*
X13420063Y-12119531D01*
X13420063Y-12119531D02*
X13429586Y-12110008D01*
X13429586Y-12110008D02*
X13448634Y-12100484D01*
X13601015Y-12281436D02*
X13610539Y-12290960D01*
X13610539Y-12290960D02*
X13601015Y-12300484D01*
X13601015Y-12300484D02*
X13591491Y-12290960D01*
X13591491Y-12290960D02*
X13601015Y-12281436D01*
X13601015Y-12281436D02*
X13601015Y-12300484D01*
X13734348Y-12100484D02*
X13753396Y-12100484D01*
X13753396Y-12100484D02*
X13772444Y-12110008D01*
X13772444Y-12110008D02*
X13781967Y-12119531D01*
X13781967Y-12119531D02*
X13791491Y-12138579D01*
X13791491Y-12138579D02*
X13801015Y-12176674D01*
X13801015Y-12176674D02*
X13801015Y-12224293D01*
X13801015Y-12224293D02*
X13791491Y-12262388D01*
X13791491Y-12262388D02*
X13781967Y-12281436D01*
X13781967Y-12281436D02*
X13772444Y-12290960D01*
X13772444Y-12290960D02*
X13753396Y-12300484D01*
X13753396Y-12300484D02*
X13734348Y-12300484D01*
X13734348Y-12300484D02*
X13715301Y-12290960D01*
X13715301Y-12290960D02*
X13705777Y-12281436D01*
X13705777Y-12281436D02*
X13696253Y-12262388D01*
X13696253Y-12262388D02*
X13686729Y-12224293D01*
X13686729Y-12224293D02*
X13686729Y-12176674D01*
X13686729Y-12176674D02*
X13696253Y-12138579D01*
X13696253Y-12138579D02*
X13705777Y-12119531D01*
X13705777Y-12119531D02*
X13715301Y-12110008D01*
X13715301Y-12110008D02*
X13734348Y-12100484D01*
X13877206Y-12119531D02*
X13886729Y-12110008D01*
X13886729Y-12110008D02*
X13905777Y-12100484D01*
X13905777Y-12100484D02*
X13953396Y-12100484D01*
X13953396Y-12100484D02*
X13972444Y-12110008D01*
X13972444Y-12110008D02*
X13981967Y-12119531D01*
X13981967Y-12119531D02*
X13991491Y-12138579D01*
X13991491Y-12138579D02*
X13991491Y-12157627D01*
X13991491Y-12157627D02*
X13981967Y-12186198D01*
X13981967Y-12186198D02*
X13867682Y-12300484D01*
X13867682Y-12300484D02*
X13991491Y-12300484D01*
X14172444Y-12100484D02*
X14077206Y-12100484D01*
X14077206Y-12100484D02*
X14067682Y-12195722D01*
X14067682Y-12195722D02*
X14077206Y-12186198D01*
X14077206Y-12186198D02*
X14096253Y-12176674D01*
X14096253Y-12176674D02*
X14143872Y-12176674D01*
X14143872Y-12176674D02*
X14162920Y-12186198D01*
X14162920Y-12186198D02*
X14172444Y-12195722D01*
X14172444Y-12195722D02*
X14181967Y-12214769D01*
X14181967Y-12214769D02*
X14181967Y-12262388D01*
X14181967Y-12262388D02*
X14172444Y-12281436D01*
X14172444Y-12281436D02*
X14162920Y-12290960D01*
X14162920Y-12290960D02*
X14143872Y-12300484D01*
X14143872Y-12300484D02*
X14096253Y-12300484D01*
X14096253Y-12300484D02*
X14077206Y-12290960D01*
X14077206Y-12290960D02*
X14067682Y-12281436D01*
X14353396Y-12100484D02*
X14315301Y-12100484D01*
X14315301Y-12100484D02*
X14296253Y-12110008D01*
X14296253Y-12110008D02*
X14286729Y-12119531D01*
X14286729Y-12119531D02*
X14267682Y-12148103D01*
X14267682Y-12148103D02*
X14258158Y-12186198D01*
X14258158Y-12186198D02*
X14258158Y-12262388D01*
X14258158Y-12262388D02*
X14267682Y-12281436D01*
X14267682Y-12281436D02*
X14277206Y-12290960D01*
X14277206Y-12290960D02*
X14296253Y-12300484D01*
X14296253Y-12300484D02*
X14334348Y-12300484D01*
X14334348Y-12300484D02*
X14353396Y-12290960D01*
X14353396Y-12290960D02*
X14362920Y-12281436D01*
X14362920Y-12281436D02*
X14372444Y-12262388D01*
X14372444Y-12262388D02*
X14372444Y-12214769D01*
X14372444Y-12214769D02*
X14362920Y-12195722D01*
X14362920Y-12195722D02*
X14353396Y-12186198D01*
X14353396Y-12186198D02*
X14334348Y-12176674D01*
X14334348Y-12176674D02*
X14296253Y-12176674D01*
X14296253Y-12176674D02*
X14277206Y-12186198D01*
X14277206Y-12186198D02*
X14267682Y-12195722D01*
X14267682Y-12195722D02*
X14258158Y-12214769D01*
X14448634Y-12100484D02*
X14448634Y-12138579D01*
X14524825Y-12100484D02*
X14524825Y-12138579D01*
X14820063Y-12376674D02*
X14810539Y-12367150D01*
X14810539Y-12367150D02*
X14791491Y-12338579D01*
X14791491Y-12338579D02*
X14781968Y-12319531D01*
X14781968Y-12319531D02*
X14772444Y-12290960D01*
X14772444Y-12290960D02*
X14762920Y-12243341D01*
X14762920Y-12243341D02*
X14762920Y-12205246D01*
X14762920Y-12205246D02*
X14772444Y-12157627D01*
X14772444Y-12157627D02*
X14781968Y-12129055D01*
X14781968Y-12129055D02*
X14791491Y-12110008D01*
X14791491Y-12110008D02*
X14810539Y-12081436D01*
X14810539Y-12081436D02*
X14820063Y-12071912D01*
X14981968Y-12100484D02*
X14943872Y-12100484D01*
X14943872Y-12100484D02*
X14924825Y-12110008D01*
X14924825Y-12110008D02*
X14915301Y-12119531D01*
X14915301Y-12119531D02*
X14896253Y-12148103D01*
X14896253Y-12148103D02*
X14886729Y-12186198D01*
X14886729Y-12186198D02*
X14886729Y-12262388D01*
X14886729Y-12262388D02*
X14896253Y-12281436D01*
X14896253Y-12281436D02*
X14905777Y-12290960D01*
X14905777Y-12290960D02*
X14924825Y-12300484D01*
X14924825Y-12300484D02*
X14962920Y-12300484D01*
X14962920Y-12300484D02*
X14981968Y-12290960D01*
X14981968Y-12290960D02*
X14991491Y-12281436D01*
X14991491Y-12281436D02*
X15001015Y-12262388D01*
X15001015Y-12262388D02*
X15001015Y-12214769D01*
X15001015Y-12214769D02*
X14991491Y-12195722D01*
X14991491Y-12195722D02*
X14981968Y-12186198D01*
X14981968Y-12186198D02*
X14962920Y-12176674D01*
X14962920Y-12176674D02*
X14924825Y-12176674D01*
X14924825Y-12176674D02*
X14905777Y-12186198D01*
X14905777Y-12186198D02*
X14896253Y-12195722D01*
X14896253Y-12195722D02*
X14886729Y-12214769D01*
X15239110Y-12300484D02*
X15239110Y-12100484D01*
X15324825Y-12300484D02*
X15324825Y-12195722D01*
X15324825Y-12195722D02*
X15315301Y-12176674D01*
X15315301Y-12176674D02*
X15296253Y-12167150D01*
X15296253Y-12167150D02*
X15267682Y-12167150D01*
X15267682Y-12167150D02*
X15248634Y-12176674D01*
X15248634Y-12176674D02*
X15239110Y-12186198D01*
X15448634Y-12300484D02*
X15429587Y-12290960D01*
X15429587Y-12290960D02*
X15420063Y-12281436D01*
X15420063Y-12281436D02*
X15410539Y-12262388D01*
X15410539Y-12262388D02*
X15410539Y-12205246D01*
X15410539Y-12205246D02*
X15420063Y-12186198D01*
X15420063Y-12186198D02*
X15429587Y-12176674D01*
X15429587Y-12176674D02*
X15448634Y-12167150D01*
X15448634Y-12167150D02*
X15477206Y-12167150D01*
X15477206Y-12167150D02*
X15496253Y-12176674D01*
X15496253Y-12176674D02*
X15505777Y-12186198D01*
X15505777Y-12186198D02*
X15515301Y-12205246D01*
X15515301Y-12205246D02*
X15515301Y-12262388D01*
X15515301Y-12262388D02*
X15505777Y-12281436D01*
X15505777Y-12281436D02*
X15496253Y-12290960D01*
X15496253Y-12290960D02*
X15477206Y-12300484D01*
X15477206Y-12300484D02*
X15448634Y-12300484D01*
X15629587Y-12300484D02*
X15610539Y-12290960D01*
X15610539Y-12290960D02*
X15601015Y-12271912D01*
X15601015Y-12271912D02*
X15601015Y-12100484D01*
X15781968Y-12290960D02*
X15762920Y-12300484D01*
X15762920Y-12300484D02*
X15724825Y-12300484D01*
X15724825Y-12300484D02*
X15705777Y-12290960D01*
X15705777Y-12290960D02*
X15696253Y-12271912D01*
X15696253Y-12271912D02*
X15696253Y-12195722D01*
X15696253Y-12195722D02*
X15705777Y-12176674D01*
X15705777Y-12176674D02*
X15724825Y-12167150D01*
X15724825Y-12167150D02*
X15762920Y-12167150D01*
X15762920Y-12167150D02*
X15781968Y-12176674D01*
X15781968Y-12176674D02*
X15791491Y-12195722D01*
X15791491Y-12195722D02*
X15791491Y-12214769D01*
X15791491Y-12214769D02*
X15696253Y-12233817D01*
X15867682Y-12290960D02*
X15886730Y-12300484D01*
X15886730Y-12300484D02*
X15924825Y-12300484D01*
X15924825Y-12300484D02*
X15943872Y-12290960D01*
X15943872Y-12290960D02*
X15953396Y-12271912D01*
X15953396Y-12271912D02*
X15953396Y-12262388D01*
X15953396Y-12262388D02*
X15943872Y-12243341D01*
X15943872Y-12243341D02*
X15924825Y-12233817D01*
X15924825Y-12233817D02*
X15896253Y-12233817D01*
X15896253Y-12233817D02*
X15877206Y-12224293D01*
X15877206Y-12224293D02*
X15867682Y-12205246D01*
X15867682Y-12205246D02*
X15867682Y-12195722D01*
X15867682Y-12195722D02*
X15877206Y-12176674D01*
X15877206Y-12176674D02*
X15896253Y-12167150D01*
X15896253Y-12167150D02*
X15924825Y-12167150D01*
X15924825Y-12167150D02*
X15943872Y-12176674D01*
X16020063Y-12376674D02*
X16029587Y-12367150D01*
X16029587Y-12367150D02*
X16048634Y-12338579D01*
X16048634Y-12338579D02*
X16058158Y-12319531D01*
X16058158Y-12319531D02*
X16067682Y-12290960D01*
X16067682Y-12290960D02*
X16077206Y-12243341D01*
X16077206Y-12243341D02*
X16077206Y-12205246D01*
X16077206Y-12205246D02*
X16067682Y-12157627D01*
X16067682Y-12157627D02*
X16058158Y-12129055D01*
X16058158Y-12129055D02*
X16048634Y-12110008D01*
X16048634Y-12110008D02*
X16029587Y-12081436D01*
X16029587Y-12081436D02*
X16020063Y-12071912D01*
D10*
X11207500Y-12435500D02*
X11207500Y-12510500D01*
X11170000Y-12473000D02*
X11245000Y-12473000D01*
D11*
X11543872Y-12364484D02*
X11562920Y-12364484D01*
X11562920Y-12364484D02*
X11581967Y-12374008D01*
X11581967Y-12374008D02*
X11591491Y-12383531D01*
X11591491Y-12383531D02*
X11601015Y-12402579D01*
X11601015Y-12402579D02*
X11610539Y-12440674D01*
X11610539Y-12440674D02*
X11610539Y-12488293D01*
X11610539Y-12488293D02*
X11601015Y-12526388D01*
X11601015Y-12526388D02*
X11591491Y-12545436D01*
X11591491Y-12545436D02*
X11581967Y-12554960D01*
X11581967Y-12554960D02*
X11562920Y-12564484D01*
X11562920Y-12564484D02*
X11543872Y-12564484D01*
X11543872Y-12564484D02*
X11524824Y-12554960D01*
X11524824Y-12554960D02*
X11515301Y-12545436D01*
X11515301Y-12545436D02*
X11505777Y-12526388D01*
X11505777Y-12526388D02*
X11496253Y-12488293D01*
X11496253Y-12488293D02*
X11496253Y-12440674D01*
X11496253Y-12440674D02*
X11505777Y-12402579D01*
X11505777Y-12402579D02*
X11515301Y-12383531D01*
X11515301Y-12383531D02*
X11524824Y-12374008D01*
X11524824Y-12374008D02*
X11543872Y-12364484D01*
X11696253Y-12545436D02*
X11705777Y-12554960D01*
X11705777Y-12554960D02*
X11696253Y-12564484D01*
X11696253Y-12564484D02*
X11686729Y-12554960D01*
X11686729Y-12554960D02*
X11696253Y-12545436D01*
X11696253Y-12545436D02*
X11696253Y-12564484D01*
X11772443Y-12364484D02*
X11905777Y-12364484D01*
X11905777Y-12364484D02*
X11820062Y-12564484D01*
X12077205Y-12364484D02*
X11981967Y-12364484D01*
X11981967Y-12364484D02*
X11972443Y-12459722D01*
X11972443Y-12459722D02*
X11981967Y-12450198D01*
X11981967Y-12450198D02*
X12001015Y-12440674D01*
X12001015Y-12440674D02*
X12048634Y-12440674D01*
X12048634Y-12440674D02*
X12067682Y-12450198D01*
X12067682Y-12450198D02*
X12077205Y-12459722D01*
X12077205Y-12459722D02*
X12086729Y-12478769D01*
X12086729Y-12478769D02*
X12086729Y-12526388D01*
X12086729Y-12526388D02*
X12077205Y-12545436D01*
X12077205Y-12545436D02*
X12067682Y-12554960D01*
X12067682Y-12554960D02*
X12048634Y-12564484D01*
X12048634Y-12564484D02*
X12001015Y-12564484D01*
X12001015Y-12564484D02*
X11981967Y-12554960D01*
X11981967Y-12554960D02*
X11972443Y-12545436D01*
X12210539Y-12364484D02*
X12229586Y-12364484D01*
X12229586Y-12364484D02*
X12248634Y-12374008D01*
X12248634Y-12374008D02*
X12258158Y-12383531D01*
X12258158Y-12383531D02*
X12267682Y-12402579D01*
X12267682Y-12402579D02*
X12277205Y-12440674D01*
X12277205Y-12440674D02*
X12277205Y-12488293D01*
X12277205Y-12488293D02*
X12267682Y-12526388D01*
X12267682Y-12526388D02*
X12258158Y-12545436D01*
X12258158Y-12545436D02*
X12248634Y-12554960D01*
X12248634Y-12554960D02*
X12229586Y-12564484D01*
X12229586Y-12564484D02*
X12210539Y-12564484D01*
X12210539Y-12564484D02*
X12191491Y-12554960D01*
X12191491Y-12554960D02*
X12181967Y-12545436D01*
X12181967Y-12545436D02*
X12172443Y-12526388D01*
X12172443Y-12526388D02*
X12162920Y-12488293D01*
X12162920Y-12488293D02*
X12162920Y-12440674D01*
X12162920Y-12440674D02*
X12172443Y-12402579D01*
X12172443Y-12402579D02*
X12181967Y-12383531D01*
X12181967Y-12383531D02*
X12191491Y-12374008D01*
X12191491Y-12374008D02*
X12210539Y-12364484D01*
X12362920Y-12564484D02*
X12362920Y-12431150D01*
X12362920Y-12450198D02*
X12372443Y-12440674D01*
X12372443Y-12440674D02*
X12391491Y-12431150D01*
X12391491Y-12431150D02*
X12420063Y-12431150D01*
X12420063Y-12431150D02*
X12439110Y-12440674D01*
X12439110Y-12440674D02*
X12448634Y-12459722D01*
X12448634Y-12459722D02*
X12448634Y-12564484D01*
X12448634Y-12459722D02*
X12458158Y-12440674D01*
X12458158Y-12440674D02*
X12477205Y-12431150D01*
X12477205Y-12431150D02*
X12505777Y-12431150D01*
X12505777Y-12431150D02*
X12524824Y-12440674D01*
X12524824Y-12440674D02*
X12534348Y-12459722D01*
X12534348Y-12459722D02*
X12534348Y-12564484D01*
X12629586Y-12564484D02*
X12629586Y-12431150D01*
X12629586Y-12450198D02*
X12639110Y-12440674D01*
X12639110Y-12440674D02*
X12658158Y-12431150D01*
X12658158Y-12431150D02*
X12686729Y-12431150D01*
X12686729Y-12431150D02*
X12705777Y-12440674D01*
X12705777Y-12440674D02*
X12715301Y-12459722D01*
X12715301Y-12459722D02*
X12715301Y-12564484D01*
X12715301Y-12459722D02*
X12724824Y-12440674D01*
X12724824Y-12440674D02*
X12743872Y-12431150D01*
X12743872Y-12431150D02*
X12772443Y-12431150D01*
X12772443Y-12431150D02*
X12791491Y-12440674D01*
X12791491Y-12440674D02*
X12801015Y-12459722D01*
X12801015Y-12459722D02*
X12801015Y-12564484D01*
X13191491Y-12354960D02*
X13020063Y-12612103D01*
X13448634Y-12364484D02*
X13467682Y-12364484D01*
X13467682Y-12364484D02*
X13486729Y-12374008D01*
X13486729Y-12374008D02*
X13496253Y-12383531D01*
X13496253Y-12383531D02*
X13505777Y-12402579D01*
X13505777Y-12402579D02*
X13515301Y-12440674D01*
X13515301Y-12440674D02*
X13515301Y-12488293D01*
X13515301Y-12488293D02*
X13505777Y-12526388D01*
X13505777Y-12526388D02*
X13496253Y-12545436D01*
X13496253Y-12545436D02*
X13486729Y-12554960D01*
X13486729Y-12554960D02*
X13467682Y-12564484D01*
X13467682Y-12564484D02*
X13448634Y-12564484D01*
X13448634Y-12564484D02*
X13429586Y-12554960D01*
X13429586Y-12554960D02*
X13420063Y-12545436D01*
X13420063Y-12545436D02*
X13410539Y-12526388D01*
X13410539Y-12526388D02*
X13401015Y-12488293D01*
X13401015Y-12488293D02*
X13401015Y-12440674D01*
X13401015Y-12440674D02*
X13410539Y-12402579D01*
X13410539Y-12402579D02*
X13420063Y-12383531D01*
X13420063Y-12383531D02*
X13429586Y-12374008D01*
X13429586Y-12374008D02*
X13448634Y-12364484D01*
X13601015Y-12545436D02*
X13610539Y-12554960D01*
X13610539Y-12554960D02*
X13601015Y-12564484D01*
X13601015Y-12564484D02*
X13591491Y-12554960D01*
X13591491Y-12554960D02*
X13601015Y-12545436D01*
X13601015Y-12545436D02*
X13601015Y-12564484D01*
X13734348Y-12364484D02*
X13753396Y-12364484D01*
X13753396Y-12364484D02*
X13772444Y-12374008D01*
X13772444Y-12374008D02*
X13781967Y-12383531D01*
X13781967Y-12383531D02*
X13791491Y-12402579D01*
X13791491Y-12402579D02*
X13801015Y-12440674D01*
X13801015Y-12440674D02*
X13801015Y-12488293D01*
X13801015Y-12488293D02*
X13791491Y-12526388D01*
X13791491Y-12526388D02*
X13781967Y-12545436D01*
X13781967Y-12545436D02*
X13772444Y-12554960D01*
X13772444Y-12554960D02*
X13753396Y-12564484D01*
X13753396Y-12564484D02*
X13734348Y-12564484D01*
X13734348Y-12564484D02*
X13715301Y-12554960D01*
X13715301Y-12554960D02*
X13705777Y-12545436D01*
X13705777Y-12545436D02*
X13696253Y-12526388D01*
X13696253Y-12526388D02*
X13686729Y-12488293D01*
X13686729Y-12488293D02*
X13686729Y-12440674D01*
X13686729Y-12440674D02*
X13696253Y-12402579D01*
X13696253Y-12402579D02*
X13705777Y-12383531D01*
X13705777Y-12383531D02*
X13715301Y-12374008D01*
X13715301Y-12374008D02*
X13734348Y-12364484D01*
X13877206Y-12383531D02*
X13886729Y-12374008D01*
X13886729Y-12374008D02*
X13905777Y-12364484D01*
X13905777Y-12364484D02*
X13953396Y-12364484D01*
X13953396Y-12364484D02*
X13972444Y-12374008D01*
X13972444Y-12374008D02*
X13981967Y-12383531D01*
X13981967Y-12383531D02*
X13991491Y-12402579D01*
X13991491Y-12402579D02*
X13991491Y-12421627D01*
X13991491Y-12421627D02*
X13981967Y-12450198D01*
X13981967Y-12450198D02*
X13867682Y-12564484D01*
X13867682Y-12564484D02*
X13991491Y-12564484D01*
X14086729Y-12564484D02*
X14124825Y-12564484D01*
X14124825Y-12564484D02*
X14143872Y-12554960D01*
X14143872Y-12554960D02*
X14153396Y-12545436D01*
X14153396Y-12545436D02*
X14172444Y-12516865D01*
X14172444Y-12516865D02*
X14181967Y-12478769D01*
X14181967Y-12478769D02*
X14181967Y-12402579D01*
X14181967Y-12402579D02*
X14172444Y-12383531D01*
X14172444Y-12383531D02*
X14162920Y-12374008D01*
X14162920Y-12374008D02*
X14143872Y-12364484D01*
X14143872Y-12364484D02*
X14105777Y-12364484D01*
X14105777Y-12364484D02*
X14086729Y-12374008D01*
X14086729Y-12374008D02*
X14077206Y-12383531D01*
X14077206Y-12383531D02*
X14067682Y-12402579D01*
X14067682Y-12402579D02*
X14067682Y-12450198D01*
X14067682Y-12450198D02*
X14077206Y-12469246D01*
X14077206Y-12469246D02*
X14086729Y-12478769D01*
X14086729Y-12478769D02*
X14105777Y-12488293D01*
X14105777Y-12488293D02*
X14143872Y-12488293D01*
X14143872Y-12488293D02*
X14162920Y-12478769D01*
X14162920Y-12478769D02*
X14172444Y-12469246D01*
X14172444Y-12469246D02*
X14181967Y-12450198D01*
X14362920Y-12364484D02*
X14267682Y-12364484D01*
X14267682Y-12364484D02*
X14258158Y-12459722D01*
X14258158Y-12459722D02*
X14267682Y-12450198D01*
X14267682Y-12450198D02*
X14286729Y-12440674D01*
X14286729Y-12440674D02*
X14334348Y-12440674D01*
X14334348Y-12440674D02*
X14353396Y-12450198D01*
X14353396Y-12450198D02*
X14362920Y-12459722D01*
X14362920Y-12459722D02*
X14372444Y-12478769D01*
X14372444Y-12478769D02*
X14372444Y-12526388D01*
X14372444Y-12526388D02*
X14362920Y-12545436D01*
X14362920Y-12545436D02*
X14353396Y-12554960D01*
X14353396Y-12554960D02*
X14334348Y-12564484D01*
X14334348Y-12564484D02*
X14286729Y-12564484D01*
X14286729Y-12564484D02*
X14267682Y-12554960D01*
X14267682Y-12554960D02*
X14258158Y-12545436D01*
X14448634Y-12364484D02*
X14448634Y-12402579D01*
X14524825Y-12364484D02*
X14524825Y-12402579D01*
X14820063Y-12640674D02*
X14810539Y-12631150D01*
X14810539Y-12631150D02*
X14791491Y-12602579D01*
X14791491Y-12602579D02*
X14781968Y-12583531D01*
X14781968Y-12583531D02*
X14772444Y-12554960D01*
X14772444Y-12554960D02*
X14762920Y-12507341D01*
X14762920Y-12507341D02*
X14762920Y-12469246D01*
X14762920Y-12469246D02*
X14772444Y-12421627D01*
X14772444Y-12421627D02*
X14781968Y-12393055D01*
X14781968Y-12393055D02*
X14791491Y-12374008D01*
X14791491Y-12374008D02*
X14810539Y-12345436D01*
X14810539Y-12345436D02*
X14820063Y-12335912D01*
X15001015Y-12564484D02*
X14886729Y-12564484D01*
X14943872Y-12564484D02*
X14943872Y-12364484D01*
X14943872Y-12364484D02*
X14924825Y-12393055D01*
X14924825Y-12393055D02*
X14905777Y-12412103D01*
X14905777Y-12412103D02*
X14886729Y-12421627D01*
X15124825Y-12364484D02*
X15143872Y-12364484D01*
X15143872Y-12364484D02*
X15162920Y-12374008D01*
X15162920Y-12374008D02*
X15172444Y-12383531D01*
X15172444Y-12383531D02*
X15181968Y-12402579D01*
X15181968Y-12402579D02*
X15191491Y-12440674D01*
X15191491Y-12440674D02*
X15191491Y-12488293D01*
X15191491Y-12488293D02*
X15181968Y-12526388D01*
X15181968Y-12526388D02*
X15172444Y-12545436D01*
X15172444Y-12545436D02*
X15162920Y-12554960D01*
X15162920Y-12554960D02*
X15143872Y-12564484D01*
X15143872Y-12564484D02*
X15124825Y-12564484D01*
X15124825Y-12564484D02*
X15105777Y-12554960D01*
X15105777Y-12554960D02*
X15096253Y-12545436D01*
X15096253Y-12545436D02*
X15086729Y-12526388D01*
X15086729Y-12526388D02*
X15077206Y-12488293D01*
X15077206Y-12488293D02*
X15077206Y-12440674D01*
X15077206Y-12440674D02*
X15086729Y-12402579D01*
X15086729Y-12402579D02*
X15096253Y-12383531D01*
X15096253Y-12383531D02*
X15105777Y-12374008D01*
X15105777Y-12374008D02*
X15124825Y-12364484D01*
X15429587Y-12564484D02*
X15429587Y-12364484D01*
X15515301Y-12564484D02*
X15515301Y-12459722D01*
X15515301Y-12459722D02*
X15505777Y-12440674D01*
X15505777Y-12440674D02*
X15486730Y-12431150D01*
X15486730Y-12431150D02*
X15458158Y-12431150D01*
X15458158Y-12431150D02*
X15439110Y-12440674D01*
X15439110Y-12440674D02*
X15429587Y-12450198D01*
X15639110Y-12564484D02*
X15620063Y-12554960D01*
X15620063Y-12554960D02*
X15610539Y-12545436D01*
X15610539Y-12545436D02*
X15601015Y-12526388D01*
X15601015Y-12526388D02*
X15601015Y-12469246D01*
X15601015Y-12469246D02*
X15610539Y-12450198D01*
X15610539Y-12450198D02*
X15620063Y-12440674D01*
X15620063Y-12440674D02*
X15639110Y-12431150D01*
X15639110Y-12431150D02*
X15667682Y-12431150D01*
X15667682Y-12431150D02*
X15686730Y-12440674D01*
X15686730Y-12440674D02*
X15696253Y-12450198D01*
X15696253Y-12450198D02*
X15705777Y-12469246D01*
X15705777Y-12469246D02*
X15705777Y-12526388D01*
X15705777Y-12526388D02*
X15696253Y-12545436D01*
X15696253Y-12545436D02*
X15686730Y-12554960D01*
X15686730Y-12554960D02*
X15667682Y-12564484D01*
X15667682Y-12564484D02*
X15639110Y-12564484D01*
X15820063Y-12564484D02*
X15801015Y-12554960D01*
X15801015Y-12554960D02*
X15791491Y-12535912D01*
X15791491Y-12535912D02*
X15791491Y-12364484D01*
X15972444Y-12554960D02*
X15953396Y-12564484D01*
X15953396Y-12564484D02*
X15915301Y-12564484D01*
X15915301Y-12564484D02*
X15896253Y-12554960D01*
X15896253Y-12554960D02*
X15886730Y-12535912D01*
X15886730Y-12535912D02*
X15886730Y-12459722D01*
X15886730Y-12459722D02*
X15896253Y-12440674D01*
X15896253Y-12440674D02*
X15915301Y-12431150D01*
X15915301Y-12431150D02*
X15953396Y-12431150D01*
X15953396Y-12431150D02*
X15972444Y-12440674D01*
X15972444Y-12440674D02*
X15981968Y-12459722D01*
X15981968Y-12459722D02*
X15981968Y-12478769D01*
X15981968Y-12478769D02*
X15886730Y-12497817D01*
X16058158Y-12554960D02*
X16077206Y-12564484D01*
X16077206Y-12564484D02*
X16115301Y-12564484D01*
X16115301Y-12564484D02*
X16134349Y-12554960D01*
X16134349Y-12554960D02*
X16143872Y-12535912D01*
X16143872Y-12535912D02*
X16143872Y-12526388D01*
X16143872Y-12526388D02*
X16134349Y-12507341D01*
X16134349Y-12507341D02*
X16115301Y-12497817D01*
X16115301Y-12497817D02*
X16086730Y-12497817D01*
X16086730Y-12497817D02*
X16067682Y-12488293D01*
X16067682Y-12488293D02*
X16058158Y-12469246D01*
X16058158Y-12469246D02*
X16058158Y-12459722D01*
X16058158Y-12459722D02*
X16067682Y-12440674D01*
X16067682Y-12440674D02*
X16086730Y-12431150D01*
X16086730Y-12431150D02*
X16115301Y-12431150D01*
X16115301Y-12431150D02*
X16134349Y-12440674D01*
X16210539Y-12640674D02*
X16220063Y-12631150D01*
X16220063Y-12631150D02*
X16239111Y-12602579D01*
X16239111Y-12602579D02*
X16248634Y-12583531D01*
X16248634Y-12583531D02*
X16258158Y-12554960D01*
X16258158Y-12554960D02*
X16267682Y-12507341D01*
X16267682Y-12507341D02*
X16267682Y-12469246D01*
X16267682Y-12469246D02*
X16258158Y-12421627D01*
X16258158Y-12421627D02*
X16248634Y-12393055D01*
X16248634Y-12393055D02*
X16239111Y-12374008D01*
X16239111Y-12374008D02*
X16220063Y-12345436D01*
X16220063Y-12345436D02*
X16210539Y-12335912D01*
D10*
X11231088Y-12770588D02*
X11231088Y-12703412D01*
X11163912Y-12703412D01*
X11163912Y-12770588D01*
X11231088Y-12770588D01*
D11*
X11543872Y-12628484D02*
X11562920Y-12628484D01*
X11562920Y-12628484D02*
X11581967Y-12638008D01*
X11581967Y-12638008D02*
X11591491Y-12647531D01*
X11591491Y-12647531D02*
X11601015Y-12666579D01*
X11601015Y-12666579D02*
X11610539Y-12704674D01*
X11610539Y-12704674D02*
X11610539Y-12752293D01*
X11610539Y-12752293D02*
X11601015Y-12790388D01*
X11601015Y-12790388D02*
X11591491Y-12809436D01*
X11591491Y-12809436D02*
X11581967Y-12818960D01*
X11581967Y-12818960D02*
X11562920Y-12828484D01*
X11562920Y-12828484D02*
X11543872Y-12828484D01*
X11543872Y-12828484D02*
X11524824Y-12818960D01*
X11524824Y-12818960D02*
X11515301Y-12809436D01*
X11515301Y-12809436D02*
X11505777Y-12790388D01*
X11505777Y-12790388D02*
X11496253Y-12752293D01*
X11496253Y-12752293D02*
X11496253Y-12704674D01*
X11496253Y-12704674D02*
X11505777Y-12666579D01*
X11505777Y-12666579D02*
X11515301Y-12647531D01*
X11515301Y-12647531D02*
X11524824Y-12638008D01*
X11524824Y-12638008D02*
X11543872Y-12628484D01*
X11696253Y-12809436D02*
X11705777Y-12818960D01*
X11705777Y-12818960D02*
X11696253Y-12828484D01*
X11696253Y-12828484D02*
X11686729Y-12818960D01*
X11686729Y-12818960D02*
X11696253Y-12809436D01*
X11696253Y-12809436D02*
X11696253Y-12828484D01*
X11801015Y-12828484D02*
X11839110Y-12828484D01*
X11839110Y-12828484D02*
X11858158Y-12818960D01*
X11858158Y-12818960D02*
X11867682Y-12809436D01*
X11867682Y-12809436D02*
X11886729Y-12780865D01*
X11886729Y-12780865D02*
X11896253Y-12742769D01*
X11896253Y-12742769D02*
X11896253Y-12666579D01*
X11896253Y-12666579D02*
X11886729Y-12647531D01*
X11886729Y-12647531D02*
X11877205Y-12638008D01*
X11877205Y-12638008D02*
X11858158Y-12628484D01*
X11858158Y-12628484D02*
X11820062Y-12628484D01*
X11820062Y-12628484D02*
X11801015Y-12638008D01*
X11801015Y-12638008D02*
X11791491Y-12647531D01*
X11791491Y-12647531D02*
X11781967Y-12666579D01*
X11781967Y-12666579D02*
X11781967Y-12714198D01*
X11781967Y-12714198D02*
X11791491Y-12733246D01*
X11791491Y-12733246D02*
X11801015Y-12742769D01*
X11801015Y-12742769D02*
X11820062Y-12752293D01*
X11820062Y-12752293D02*
X11858158Y-12752293D01*
X11858158Y-12752293D02*
X11877205Y-12742769D01*
X11877205Y-12742769D02*
X11886729Y-12733246D01*
X11886729Y-12733246D02*
X11896253Y-12714198D01*
X12077205Y-12628484D02*
X11981967Y-12628484D01*
X11981967Y-12628484D02*
X11972443Y-12723722D01*
X11972443Y-12723722D02*
X11981967Y-12714198D01*
X11981967Y-12714198D02*
X12001015Y-12704674D01*
X12001015Y-12704674D02*
X12048634Y-12704674D01*
X12048634Y-12704674D02*
X12067682Y-12714198D01*
X12067682Y-12714198D02*
X12077205Y-12723722D01*
X12077205Y-12723722D02*
X12086729Y-12742769D01*
X12086729Y-12742769D02*
X12086729Y-12790388D01*
X12086729Y-12790388D02*
X12077205Y-12809436D01*
X12077205Y-12809436D02*
X12067682Y-12818960D01*
X12067682Y-12818960D02*
X12048634Y-12828484D01*
X12048634Y-12828484D02*
X12001015Y-12828484D01*
X12001015Y-12828484D02*
X11981967Y-12818960D01*
X11981967Y-12818960D02*
X11972443Y-12809436D01*
X12210539Y-12628484D02*
X12229586Y-12628484D01*
X12229586Y-12628484D02*
X12248634Y-12638008D01*
X12248634Y-12638008D02*
X12258158Y-12647531D01*
X12258158Y-12647531D02*
X12267682Y-12666579D01*
X12267682Y-12666579D02*
X12277205Y-12704674D01*
X12277205Y-12704674D02*
X12277205Y-12752293D01*
X12277205Y-12752293D02*
X12267682Y-12790388D01*
X12267682Y-12790388D02*
X12258158Y-12809436D01*
X12258158Y-12809436D02*
X12248634Y-12818960D01*
X12248634Y-12818960D02*
X12229586Y-12828484D01*
X12229586Y-12828484D02*
X12210539Y-12828484D01*
X12210539Y-12828484D02*
X12191491Y-12818960D01*
X12191491Y-12818960D02*
X12181967Y-12809436D01*
X12181967Y-12809436D02*
X12172443Y-12790388D01*
X12172443Y-12790388D02*
X12162920Y-12752293D01*
X12162920Y-12752293D02*
X12162920Y-12704674D01*
X12162920Y-12704674D02*
X12172443Y-12666579D01*
X12172443Y-12666579D02*
X12181967Y-12647531D01*
X12181967Y-12647531D02*
X12191491Y-12638008D01*
X12191491Y-12638008D02*
X12210539Y-12628484D01*
X12362920Y-12828484D02*
X12362920Y-12695150D01*
X12362920Y-12714198D02*
X12372443Y-12704674D01*
X12372443Y-12704674D02*
X12391491Y-12695150D01*
X12391491Y-12695150D02*
X12420063Y-12695150D01*
X12420063Y-12695150D02*
X12439110Y-12704674D01*
X12439110Y-12704674D02*
X12448634Y-12723722D01*
X12448634Y-12723722D02*
X12448634Y-12828484D01*
X12448634Y-12723722D02*
X12458158Y-12704674D01*
X12458158Y-12704674D02*
X12477205Y-12695150D01*
X12477205Y-12695150D02*
X12505777Y-12695150D01*
X12505777Y-12695150D02*
X12524824Y-12704674D01*
X12524824Y-12704674D02*
X12534348Y-12723722D01*
X12534348Y-12723722D02*
X12534348Y-12828484D01*
X12629586Y-12828484D02*
X12629586Y-12695150D01*
X12629586Y-12714198D02*
X12639110Y-12704674D01*
X12639110Y-12704674D02*
X12658158Y-12695150D01*
X12658158Y-12695150D02*
X12686729Y-12695150D01*
X12686729Y-12695150D02*
X12705777Y-12704674D01*
X12705777Y-12704674D02*
X12715301Y-12723722D01*
X12715301Y-12723722D02*
X12715301Y-12828484D01*
X12715301Y-12723722D02*
X12724824Y-12704674D01*
X12724824Y-12704674D02*
X12743872Y-12695150D01*
X12743872Y-12695150D02*
X12772443Y-12695150D01*
X12772443Y-12695150D02*
X12791491Y-12704674D01*
X12791491Y-12704674D02*
X12801015Y-12723722D01*
X12801015Y-12723722D02*
X12801015Y-12828484D01*
X13191491Y-12618960D02*
X13020063Y-12876103D01*
X13448634Y-12628484D02*
X13467682Y-12628484D01*
X13467682Y-12628484D02*
X13486729Y-12638008D01*
X13486729Y-12638008D02*
X13496253Y-12647531D01*
X13496253Y-12647531D02*
X13505777Y-12666579D01*
X13505777Y-12666579D02*
X13515301Y-12704674D01*
X13515301Y-12704674D02*
X13515301Y-12752293D01*
X13515301Y-12752293D02*
X13505777Y-12790388D01*
X13505777Y-12790388D02*
X13496253Y-12809436D01*
X13496253Y-12809436D02*
X13486729Y-12818960D01*
X13486729Y-12818960D02*
X13467682Y-12828484D01*
X13467682Y-12828484D02*
X13448634Y-12828484D01*
X13448634Y-12828484D02*
X13429586Y-12818960D01*
X13429586Y-12818960D02*
X13420063Y-12809436D01*
X13420063Y-12809436D02*
X13410539Y-12790388D01*
X13410539Y-12790388D02*
X13401015Y-12752293D01*
X13401015Y-12752293D02*
X13401015Y-12704674D01*
X13401015Y-12704674D02*
X13410539Y-12666579D01*
X13410539Y-12666579D02*
X13420063Y-12647531D01*
X13420063Y-12647531D02*
X13429586Y-12638008D01*
X13429586Y-12638008D02*
X13448634Y-12628484D01*
X13601015Y-12809436D02*
X13610539Y-12818960D01*
X13610539Y-12818960D02*
X13601015Y-12828484D01*
X13601015Y-12828484D02*
X13591491Y-12818960D01*
X13591491Y-12818960D02*
X13601015Y-12809436D01*
X13601015Y-12809436D02*
X13601015Y-12828484D01*
X13734348Y-12628484D02*
X13753396Y-12628484D01*
X13753396Y-12628484D02*
X13772444Y-12638008D01*
X13772444Y-12638008D02*
X13781967Y-12647531D01*
X13781967Y-12647531D02*
X13791491Y-12666579D01*
X13791491Y-12666579D02*
X13801015Y-12704674D01*
X13801015Y-12704674D02*
X13801015Y-12752293D01*
X13801015Y-12752293D02*
X13791491Y-12790388D01*
X13791491Y-12790388D02*
X13781967Y-12809436D01*
X13781967Y-12809436D02*
X13772444Y-12818960D01*
X13772444Y-12818960D02*
X13753396Y-12828484D01*
X13753396Y-12828484D02*
X13734348Y-12828484D01*
X13734348Y-12828484D02*
X13715301Y-12818960D01*
X13715301Y-12818960D02*
X13705777Y-12809436D01*
X13705777Y-12809436D02*
X13696253Y-12790388D01*
X13696253Y-12790388D02*
X13686729Y-12752293D01*
X13686729Y-12752293D02*
X13686729Y-12704674D01*
X13686729Y-12704674D02*
X13696253Y-12666579D01*
X13696253Y-12666579D02*
X13705777Y-12647531D01*
X13705777Y-12647531D02*
X13715301Y-12638008D01*
X13715301Y-12638008D02*
X13734348Y-12628484D01*
X13867682Y-12628484D02*
X13991491Y-12628484D01*
X13991491Y-12628484D02*
X13924825Y-12704674D01*
X13924825Y-12704674D02*
X13953396Y-12704674D01*
X13953396Y-12704674D02*
X13972444Y-12714198D01*
X13972444Y-12714198D02*
X13981967Y-12723722D01*
X13981967Y-12723722D02*
X13991491Y-12742769D01*
X13991491Y-12742769D02*
X13991491Y-12790388D01*
X13991491Y-12790388D02*
X13981967Y-12809436D01*
X13981967Y-12809436D02*
X13972444Y-12818960D01*
X13972444Y-12818960D02*
X13953396Y-12828484D01*
X13953396Y-12828484D02*
X13896253Y-12828484D01*
X13896253Y-12828484D02*
X13877206Y-12818960D01*
X13877206Y-12818960D02*
X13867682Y-12809436D01*
X14058158Y-12628484D02*
X14191491Y-12628484D01*
X14191491Y-12628484D02*
X14105777Y-12828484D01*
X14353396Y-12695150D02*
X14353396Y-12828484D01*
X14305777Y-12618960D02*
X14258158Y-12761817D01*
X14258158Y-12761817D02*
X14381967Y-12761817D01*
X14448634Y-12628484D02*
X14448634Y-12666579D01*
X14524825Y-12628484D02*
X14524825Y-12666579D01*
X14820063Y-12904674D02*
X14810539Y-12895150D01*
X14810539Y-12895150D02*
X14791491Y-12866579D01*
X14791491Y-12866579D02*
X14781968Y-12847531D01*
X14781968Y-12847531D02*
X14772444Y-12818960D01*
X14772444Y-12818960D02*
X14762920Y-12771341D01*
X14762920Y-12771341D02*
X14762920Y-12733246D01*
X14762920Y-12733246D02*
X14772444Y-12685627D01*
X14772444Y-12685627D02*
X14781968Y-12657055D01*
X14781968Y-12657055D02*
X14791491Y-12638008D01*
X14791491Y-12638008D02*
X14810539Y-12609436D01*
X14810539Y-12609436D02*
X14820063Y-12599912D01*
X14981968Y-12695150D02*
X14981968Y-12828484D01*
X14934348Y-12618960D02*
X14886729Y-12761817D01*
X14886729Y-12761817D02*
X15010539Y-12761817D01*
X15239110Y-12828484D02*
X15239110Y-12628484D01*
X15324825Y-12828484D02*
X15324825Y-12723722D01*
X15324825Y-12723722D02*
X15315301Y-12704674D01*
X15315301Y-12704674D02*
X15296253Y-12695150D01*
X15296253Y-12695150D02*
X15267682Y-12695150D01*
X15267682Y-12695150D02*
X15248634Y-12704674D01*
X15248634Y-12704674D02*
X15239110Y-12714198D01*
X15448634Y-12828484D02*
X15429587Y-12818960D01*
X15429587Y-12818960D02*
X15420063Y-12809436D01*
X15420063Y-12809436D02*
X15410539Y-12790388D01*
X15410539Y-12790388D02*
X15410539Y-12733246D01*
X15410539Y-12733246D02*
X15420063Y-12714198D01*
X15420063Y-12714198D02*
X15429587Y-12704674D01*
X15429587Y-12704674D02*
X15448634Y-12695150D01*
X15448634Y-12695150D02*
X15477206Y-12695150D01*
X15477206Y-12695150D02*
X15496253Y-12704674D01*
X15496253Y-12704674D02*
X15505777Y-12714198D01*
X15505777Y-12714198D02*
X15515301Y-12733246D01*
X15515301Y-12733246D02*
X15515301Y-12790388D01*
X15515301Y-12790388D02*
X15505777Y-12809436D01*
X15505777Y-12809436D02*
X15496253Y-12818960D01*
X15496253Y-12818960D02*
X15477206Y-12828484D01*
X15477206Y-12828484D02*
X15448634Y-12828484D01*
X15629587Y-12828484D02*
X15610539Y-12818960D01*
X15610539Y-12818960D02*
X15601015Y-12799912D01*
X15601015Y-12799912D02*
X15601015Y-12628484D01*
X15781968Y-12818960D02*
X15762920Y-12828484D01*
X15762920Y-12828484D02*
X15724825Y-12828484D01*
X15724825Y-12828484D02*
X15705777Y-12818960D01*
X15705777Y-12818960D02*
X15696253Y-12799912D01*
X15696253Y-12799912D02*
X15696253Y-12723722D01*
X15696253Y-12723722D02*
X15705777Y-12704674D01*
X15705777Y-12704674D02*
X15724825Y-12695150D01*
X15724825Y-12695150D02*
X15762920Y-12695150D01*
X15762920Y-12695150D02*
X15781968Y-12704674D01*
X15781968Y-12704674D02*
X15791491Y-12723722D01*
X15791491Y-12723722D02*
X15791491Y-12742769D01*
X15791491Y-12742769D02*
X15696253Y-12761817D01*
X15867682Y-12818960D02*
X15886730Y-12828484D01*
X15886730Y-12828484D02*
X15924825Y-12828484D01*
X15924825Y-12828484D02*
X15943872Y-12818960D01*
X15943872Y-12818960D02*
X15953396Y-12799912D01*
X15953396Y-12799912D02*
X15953396Y-12790388D01*
X15953396Y-12790388D02*
X15943872Y-12771341D01*
X15943872Y-12771341D02*
X15924825Y-12761817D01*
X15924825Y-12761817D02*
X15896253Y-12761817D01*
X15896253Y-12761817D02*
X15877206Y-12752293D01*
X15877206Y-12752293D02*
X15867682Y-12733246D01*
X15867682Y-12733246D02*
X15867682Y-12723722D01*
X15867682Y-12723722D02*
X15877206Y-12704674D01*
X15877206Y-12704674D02*
X15896253Y-12695150D01*
X15896253Y-12695150D02*
X15924825Y-12695150D01*
X15924825Y-12695150D02*
X15943872Y-12704674D01*
X16020063Y-12904674D02*
X16029587Y-12895150D01*
X16029587Y-12895150D02*
X16048634Y-12866579D01*
X16048634Y-12866579D02*
X16058158Y-12847531D01*
X16058158Y-12847531D02*
X16067682Y-12818960D01*
X16067682Y-12818960D02*
X16077206Y-12771341D01*
X16077206Y-12771341D02*
X16077206Y-12733246D01*
X16077206Y-12733246D02*
X16067682Y-12685627D01*
X16067682Y-12685627D02*
X16058158Y-12657055D01*
X16058158Y-12657055D02*
X16048634Y-12638008D01*
X16048634Y-12638008D02*
X16029587Y-12609436D01*
X16029587Y-12609436D02*
X16020063Y-12599912D01*
D10*
X11195000Y-13051000D02*
X11245000Y-13001000D01*
X11195000Y-12951000D01*
X11145000Y-13001000D01*
X11195000Y-13051000D01*
D11*
X11610539Y-13092484D02*
X11496253Y-13092484D01*
X11553396Y-13092484D02*
X11553396Y-12892484D01*
X11553396Y-12892484D02*
X11534348Y-12921055D01*
X11534348Y-12921055D02*
X11515301Y-12940103D01*
X11515301Y-12940103D02*
X11496253Y-12949627D01*
X11696253Y-13073436D02*
X11705777Y-13082960D01*
X11705777Y-13082960D02*
X11696253Y-13092484D01*
X11696253Y-13092484D02*
X11686729Y-13082960D01*
X11686729Y-13082960D02*
X11696253Y-13073436D01*
X11696253Y-13073436D02*
X11696253Y-13092484D01*
X11829586Y-12892484D02*
X11848634Y-12892484D01*
X11848634Y-12892484D02*
X11867682Y-12902008D01*
X11867682Y-12902008D02*
X11877205Y-12911531D01*
X11877205Y-12911531D02*
X11886729Y-12930579D01*
X11886729Y-12930579D02*
X11896253Y-12968674D01*
X11896253Y-12968674D02*
X11896253Y-13016293D01*
X11896253Y-13016293D02*
X11886729Y-13054388D01*
X11886729Y-13054388D02*
X11877205Y-13073436D01*
X11877205Y-13073436D02*
X11867682Y-13082960D01*
X11867682Y-13082960D02*
X11848634Y-13092484D01*
X11848634Y-13092484D02*
X11829586Y-13092484D01*
X11829586Y-13092484D02*
X11810539Y-13082960D01*
X11810539Y-13082960D02*
X11801015Y-13073436D01*
X11801015Y-13073436D02*
X11791491Y-13054388D01*
X11791491Y-13054388D02*
X11781967Y-13016293D01*
X11781967Y-13016293D02*
X11781967Y-12968674D01*
X11781967Y-12968674D02*
X11791491Y-12930579D01*
X11791491Y-12930579D02*
X11801015Y-12911531D01*
X11801015Y-12911531D02*
X11810539Y-12902008D01*
X11810539Y-12902008D02*
X11829586Y-12892484D01*
X12020062Y-12892484D02*
X12039110Y-12892484D01*
X12039110Y-12892484D02*
X12058158Y-12902008D01*
X12058158Y-12902008D02*
X12067682Y-12911531D01*
X12067682Y-12911531D02*
X12077205Y-12930579D01*
X12077205Y-12930579D02*
X12086729Y-12968674D01*
X12086729Y-12968674D02*
X12086729Y-13016293D01*
X12086729Y-13016293D02*
X12077205Y-13054388D01*
X12077205Y-13054388D02*
X12067682Y-13073436D01*
X12067682Y-13073436D02*
X12058158Y-13082960D01*
X12058158Y-13082960D02*
X12039110Y-13092484D01*
X12039110Y-13092484D02*
X12020062Y-13092484D01*
X12020062Y-13092484D02*
X12001015Y-13082960D01*
X12001015Y-13082960D02*
X11991491Y-13073436D01*
X11991491Y-13073436D02*
X11981967Y-13054388D01*
X11981967Y-13054388D02*
X11972443Y-13016293D01*
X11972443Y-13016293D02*
X11972443Y-12968674D01*
X11972443Y-12968674D02*
X11981967Y-12930579D01*
X11981967Y-12930579D02*
X11991491Y-12911531D01*
X11991491Y-12911531D02*
X12001015Y-12902008D01*
X12001015Y-12902008D02*
X12020062Y-12892484D01*
X12210539Y-12892484D02*
X12229586Y-12892484D01*
X12229586Y-12892484D02*
X12248634Y-12902008D01*
X12248634Y-12902008D02*
X12258158Y-12911531D01*
X12258158Y-12911531D02*
X12267682Y-12930579D01*
X12267682Y-12930579D02*
X12277205Y-12968674D01*
X12277205Y-12968674D02*
X12277205Y-13016293D01*
X12277205Y-13016293D02*
X12267682Y-13054388D01*
X12267682Y-13054388D02*
X12258158Y-13073436D01*
X12258158Y-13073436D02*
X12248634Y-13082960D01*
X12248634Y-13082960D02*
X12229586Y-13092484D01*
X12229586Y-13092484D02*
X12210539Y-13092484D01*
X12210539Y-13092484D02*
X12191491Y-13082960D01*
X12191491Y-13082960D02*
X12181967Y-13073436D01*
X12181967Y-13073436D02*
X12172443Y-13054388D01*
X12172443Y-13054388D02*
X12162920Y-13016293D01*
X12162920Y-13016293D02*
X12162920Y-12968674D01*
X12162920Y-12968674D02*
X12172443Y-12930579D01*
X12172443Y-12930579D02*
X12181967Y-12911531D01*
X12181967Y-12911531D02*
X12191491Y-12902008D01*
X12191491Y-12902008D02*
X12210539Y-12892484D01*
X12362920Y-13092484D02*
X12362920Y-12959150D01*
X12362920Y-12978198D02*
X12372443Y-12968674D01*
X12372443Y-12968674D02*
X12391491Y-12959150D01*
X12391491Y-12959150D02*
X12420063Y-12959150D01*
X12420063Y-12959150D02*
X12439110Y-12968674D01*
X12439110Y-12968674D02*
X12448634Y-12987722D01*
X12448634Y-12987722D02*
X12448634Y-13092484D01*
X12448634Y-12987722D02*
X12458158Y-12968674D01*
X12458158Y-12968674D02*
X12477205Y-12959150D01*
X12477205Y-12959150D02*
X12505777Y-12959150D01*
X12505777Y-12959150D02*
X12524824Y-12968674D01*
X12524824Y-12968674D02*
X12534348Y-12987722D01*
X12534348Y-12987722D02*
X12534348Y-13092484D01*
X12629586Y-13092484D02*
X12629586Y-12959150D01*
X12629586Y-12978198D02*
X12639110Y-12968674D01*
X12639110Y-12968674D02*
X12658158Y-12959150D01*
X12658158Y-12959150D02*
X12686729Y-12959150D01*
X12686729Y-12959150D02*
X12705777Y-12968674D01*
X12705777Y-12968674D02*
X12715301Y-12987722D01*
X12715301Y-12987722D02*
X12715301Y-13092484D01*
X12715301Y-12987722D02*
X12724824Y-12968674D01*
X12724824Y-12968674D02*
X12743872Y-12959150D01*
X12743872Y-12959150D02*
X12772443Y-12959150D01*
X12772443Y-12959150D02*
X12791491Y-12968674D01*
X12791491Y-12968674D02*
X12801015Y-12987722D01*
X12801015Y-12987722D02*
X12801015Y-13092484D01*
X13191491Y-12882960D02*
X13020063Y-13140103D01*
X13448634Y-12892484D02*
X13467682Y-12892484D01*
X13467682Y-12892484D02*
X13486729Y-12902008D01*
X13486729Y-12902008D02*
X13496253Y-12911531D01*
X13496253Y-12911531D02*
X13505777Y-12930579D01*
X13505777Y-12930579D02*
X13515301Y-12968674D01*
X13515301Y-12968674D02*
X13515301Y-13016293D01*
X13515301Y-13016293D02*
X13505777Y-13054388D01*
X13505777Y-13054388D02*
X13496253Y-13073436D01*
X13496253Y-13073436D02*
X13486729Y-13082960D01*
X13486729Y-13082960D02*
X13467682Y-13092484D01*
X13467682Y-13092484D02*
X13448634Y-13092484D01*
X13448634Y-13092484D02*
X13429586Y-13082960D01*
X13429586Y-13082960D02*
X13420063Y-13073436D01*
X13420063Y-13073436D02*
X13410539Y-13054388D01*
X13410539Y-13054388D02*
X13401015Y-13016293D01*
X13401015Y-13016293D02*
X13401015Y-12968674D01*
X13401015Y-12968674D02*
X13410539Y-12930579D01*
X13410539Y-12930579D02*
X13420063Y-12911531D01*
X13420063Y-12911531D02*
X13429586Y-12902008D01*
X13429586Y-12902008D02*
X13448634Y-12892484D01*
X13601015Y-13073436D02*
X13610539Y-13082960D01*
X13610539Y-13082960D02*
X13601015Y-13092484D01*
X13601015Y-13092484D02*
X13591491Y-13082960D01*
X13591491Y-13082960D02*
X13601015Y-13073436D01*
X13601015Y-13073436D02*
X13601015Y-13092484D01*
X13734348Y-12892484D02*
X13753396Y-12892484D01*
X13753396Y-12892484D02*
X13772444Y-12902008D01*
X13772444Y-12902008D02*
X13781967Y-12911531D01*
X13781967Y-12911531D02*
X13791491Y-12930579D01*
X13791491Y-12930579D02*
X13801015Y-12968674D01*
X13801015Y-12968674D02*
X13801015Y-13016293D01*
X13801015Y-13016293D02*
X13791491Y-13054388D01*
X13791491Y-13054388D02*
X13781967Y-13073436D01*
X13781967Y-13073436D02*
X13772444Y-13082960D01*
X13772444Y-13082960D02*
X13753396Y-13092484D01*
X13753396Y-13092484D02*
X13734348Y-13092484D01*
X13734348Y-13092484D02*
X13715301Y-13082960D01*
X13715301Y-13082960D02*
X13705777Y-13073436D01*
X13705777Y-13073436D02*
X13696253Y-13054388D01*
X13696253Y-13054388D02*
X13686729Y-13016293D01*
X13686729Y-13016293D02*
X13686729Y-12968674D01*
X13686729Y-12968674D02*
X13696253Y-12930579D01*
X13696253Y-12930579D02*
X13705777Y-12911531D01*
X13705777Y-12911531D02*
X13715301Y-12902008D01*
X13715301Y-12902008D02*
X13734348Y-12892484D01*
X13867682Y-12892484D02*
X13991491Y-12892484D01*
X13991491Y-12892484D02*
X13924825Y-12968674D01*
X13924825Y-12968674D02*
X13953396Y-12968674D01*
X13953396Y-12968674D02*
X13972444Y-12978198D01*
X13972444Y-12978198D02*
X13981967Y-12987722D01*
X13981967Y-12987722D02*
X13991491Y-13006769D01*
X13991491Y-13006769D02*
X13991491Y-13054388D01*
X13991491Y-13054388D02*
X13981967Y-13073436D01*
X13981967Y-13073436D02*
X13972444Y-13082960D01*
X13972444Y-13082960D02*
X13953396Y-13092484D01*
X13953396Y-13092484D02*
X13896253Y-13092484D01*
X13896253Y-13092484D02*
X13877206Y-13082960D01*
X13877206Y-13082960D02*
X13867682Y-13073436D01*
X14086729Y-13092484D02*
X14124825Y-13092484D01*
X14124825Y-13092484D02*
X14143872Y-13082960D01*
X14143872Y-13082960D02*
X14153396Y-13073436D01*
X14153396Y-13073436D02*
X14172444Y-13044865D01*
X14172444Y-13044865D02*
X14181967Y-13006769D01*
X14181967Y-13006769D02*
X14181967Y-12930579D01*
X14181967Y-12930579D02*
X14172444Y-12911531D01*
X14172444Y-12911531D02*
X14162920Y-12902008D01*
X14162920Y-12902008D02*
X14143872Y-12892484D01*
X14143872Y-12892484D02*
X14105777Y-12892484D01*
X14105777Y-12892484D02*
X14086729Y-12902008D01*
X14086729Y-12902008D02*
X14077206Y-12911531D01*
X14077206Y-12911531D02*
X14067682Y-12930579D01*
X14067682Y-12930579D02*
X14067682Y-12978198D01*
X14067682Y-12978198D02*
X14077206Y-12997246D01*
X14077206Y-12997246D02*
X14086729Y-13006769D01*
X14086729Y-13006769D02*
X14105777Y-13016293D01*
X14105777Y-13016293D02*
X14143872Y-13016293D01*
X14143872Y-13016293D02*
X14162920Y-13006769D01*
X14162920Y-13006769D02*
X14172444Y-12997246D01*
X14172444Y-12997246D02*
X14181967Y-12978198D01*
X14353396Y-12959150D02*
X14353396Y-13092484D01*
X14305777Y-12882960D02*
X14258158Y-13025817D01*
X14258158Y-13025817D02*
X14381967Y-13025817D01*
X14448634Y-12892484D02*
X14448634Y-12930579D01*
X14524825Y-12892484D02*
X14524825Y-12930579D01*
X14820063Y-13168674D02*
X14810539Y-13159150D01*
X14810539Y-13159150D02*
X14791491Y-13130579D01*
X14791491Y-13130579D02*
X14781968Y-13111531D01*
X14781968Y-13111531D02*
X14772444Y-13082960D01*
X14772444Y-13082960D02*
X14762920Y-13035341D01*
X14762920Y-13035341D02*
X14762920Y-12997246D01*
X14762920Y-12997246D02*
X14772444Y-12949627D01*
X14772444Y-12949627D02*
X14781968Y-12921055D01*
X14781968Y-12921055D02*
X14791491Y-12902008D01*
X14791491Y-12902008D02*
X14810539Y-12873436D01*
X14810539Y-12873436D02*
X14820063Y-12863912D01*
X14981968Y-12892484D02*
X14943872Y-12892484D01*
X14943872Y-12892484D02*
X14924825Y-12902008D01*
X14924825Y-12902008D02*
X14915301Y-12911531D01*
X14915301Y-12911531D02*
X14896253Y-12940103D01*
X14896253Y-12940103D02*
X14886729Y-12978198D01*
X14886729Y-12978198D02*
X14886729Y-13054388D01*
X14886729Y-13054388D02*
X14896253Y-13073436D01*
X14896253Y-13073436D02*
X14905777Y-13082960D01*
X14905777Y-13082960D02*
X14924825Y-13092484D01*
X14924825Y-13092484D02*
X14962920Y-13092484D01*
X14962920Y-13092484D02*
X14981968Y-13082960D01*
X14981968Y-13082960D02*
X14991491Y-13073436D01*
X14991491Y-13073436D02*
X15001015Y-13054388D01*
X15001015Y-13054388D02*
X15001015Y-13006769D01*
X15001015Y-13006769D02*
X14991491Y-12987722D01*
X14991491Y-12987722D02*
X14981968Y-12978198D01*
X14981968Y-12978198D02*
X14962920Y-12968674D01*
X14962920Y-12968674D02*
X14924825Y-12968674D01*
X14924825Y-12968674D02*
X14905777Y-12978198D01*
X14905777Y-12978198D02*
X14896253Y-12987722D01*
X14896253Y-12987722D02*
X14886729Y-13006769D01*
X15239110Y-13092484D02*
X15239110Y-12892484D01*
X15324825Y-13092484D02*
X15324825Y-12987722D01*
X15324825Y-12987722D02*
X15315301Y-12968674D01*
X15315301Y-12968674D02*
X15296253Y-12959150D01*
X15296253Y-12959150D02*
X15267682Y-12959150D01*
X15267682Y-12959150D02*
X15248634Y-12968674D01*
X15248634Y-12968674D02*
X15239110Y-12978198D01*
X15448634Y-13092484D02*
X15429587Y-13082960D01*
X15429587Y-13082960D02*
X15420063Y-13073436D01*
X15420063Y-13073436D02*
X15410539Y-13054388D01*
X15410539Y-13054388D02*
X15410539Y-12997246D01*
X15410539Y-12997246D02*
X15420063Y-12978198D01*
X15420063Y-12978198D02*
X15429587Y-12968674D01*
X15429587Y-12968674D02*
X15448634Y-12959150D01*
X15448634Y-12959150D02*
X15477206Y-12959150D01*
X15477206Y-12959150D02*
X15496253Y-12968674D01*
X15496253Y-12968674D02*
X15505777Y-12978198D01*
X15505777Y-12978198D02*
X15515301Y-12997246D01*
X15515301Y-12997246D02*
X15515301Y-13054388D01*
X15515301Y-13054388D02*
X15505777Y-13073436D01*
X15505777Y-13073436D02*
X15496253Y-13082960D01*
X15496253Y-13082960D02*
X15477206Y-13092484D01*
X15477206Y-13092484D02*
X15448634Y-13092484D01*
X15629587Y-13092484D02*
X15610539Y-13082960D01*
X15610539Y-13082960D02*
X15601015Y-13063912D01*
X15601015Y-13063912D02*
X15601015Y-12892484D01*
X15781968Y-13082960D02*
X15762920Y-13092484D01*
X15762920Y-13092484D02*
X15724825Y-13092484D01*
X15724825Y-13092484D02*
X15705777Y-13082960D01*
X15705777Y-13082960D02*
X15696253Y-13063912D01*
X15696253Y-13063912D02*
X15696253Y-12987722D01*
X15696253Y-12987722D02*
X15705777Y-12968674D01*
X15705777Y-12968674D02*
X15724825Y-12959150D01*
X15724825Y-12959150D02*
X15762920Y-12959150D01*
X15762920Y-12959150D02*
X15781968Y-12968674D01*
X15781968Y-12968674D02*
X15791491Y-12987722D01*
X15791491Y-12987722D02*
X15791491Y-13006769D01*
X15791491Y-13006769D02*
X15696253Y-13025817D01*
X15867682Y-13082960D02*
X15886730Y-13092484D01*
X15886730Y-13092484D02*
X15924825Y-13092484D01*
X15924825Y-13092484D02*
X15943872Y-13082960D01*
X15943872Y-13082960D02*
X15953396Y-13063912D01*
X15953396Y-13063912D02*
X15953396Y-13054388D01*
X15953396Y-13054388D02*
X15943872Y-13035341D01*
X15943872Y-13035341D02*
X15924825Y-13025817D01*
X15924825Y-13025817D02*
X15896253Y-13025817D01*
X15896253Y-13025817D02*
X15877206Y-13016293D01*
X15877206Y-13016293D02*
X15867682Y-12997246D01*
X15867682Y-12997246D02*
X15867682Y-12987722D01*
X15867682Y-12987722D02*
X15877206Y-12968674D01*
X15877206Y-12968674D02*
X15896253Y-12959150D01*
X15896253Y-12959150D02*
X15924825Y-12959150D01*
X15924825Y-12959150D02*
X15943872Y-12968674D01*
X16020063Y-13168674D02*
X16029587Y-13159150D01*
X16029587Y-13159150D02*
X16048634Y-13130579D01*
X16048634Y-13130579D02*
X16058158Y-13111531D01*
X16058158Y-13111531D02*
X16067682Y-13082960D01*
X16067682Y-13082960D02*
X16077206Y-13035341D01*
X16077206Y-13035341D02*
X16077206Y-12997246D01*
X16077206Y-12997246D02*
X16067682Y-12949627D01*
X16067682Y-12949627D02*
X16058158Y-12921055D01*
X16058158Y-12921055D02*
X16048634Y-12902008D01*
X16048634Y-12902008D02*
X16029587Y-12873436D01*
X16029587Y-12873436D02*
X16020063Y-12863912D01*
D12*
X11135000Y-13210000D02*
X11245000Y-13320000D01*
X11245000Y-13210000D02*
X11135000Y-13320000D01*
X11245000Y-13265000D02*
G75*
G02*
X11135000Y-13265000I-55000J0D01*
G01*
X11135000Y-13265000D02*
G75*
G02*
X11245000Y-13265000I55000J0D01*
G01*
D11*
X11610539Y-13356484D02*
X11496253Y-13356484D01*
X11553396Y-13356484D02*
X11553396Y-13156484D01*
X11553396Y-13156484D02*
X11534348Y-13185055D01*
X11534348Y-13185055D02*
X11515301Y-13204103D01*
X11515301Y-13204103D02*
X11496253Y-13213627D01*
X11696253Y-13337436D02*
X11705777Y-13346960D01*
X11705777Y-13346960D02*
X11696253Y-13356484D01*
X11696253Y-13356484D02*
X11686729Y-13346960D01*
X11686729Y-13346960D02*
X11696253Y-13337436D01*
X11696253Y-13337436D02*
X11696253Y-13356484D01*
X11896253Y-13356484D02*
X11781967Y-13356484D01*
X11839110Y-13356484D02*
X11839110Y-13156484D01*
X11839110Y-13156484D02*
X11820062Y-13185055D01*
X11820062Y-13185055D02*
X11801015Y-13204103D01*
X11801015Y-13204103D02*
X11781967Y-13213627D01*
X12020062Y-13156484D02*
X12039110Y-13156484D01*
X12039110Y-13156484D02*
X12058158Y-13166008D01*
X12058158Y-13166008D02*
X12067682Y-13175531D01*
X12067682Y-13175531D02*
X12077205Y-13194579D01*
X12077205Y-13194579D02*
X12086729Y-13232674D01*
X12086729Y-13232674D02*
X12086729Y-13280293D01*
X12086729Y-13280293D02*
X12077205Y-13318388D01*
X12077205Y-13318388D02*
X12067682Y-13337436D01*
X12067682Y-13337436D02*
X12058158Y-13346960D01*
X12058158Y-13346960D02*
X12039110Y-13356484D01*
X12039110Y-13356484D02*
X12020062Y-13356484D01*
X12020062Y-13356484D02*
X12001015Y-13346960D01*
X12001015Y-13346960D02*
X11991491Y-13337436D01*
X11991491Y-13337436D02*
X11981967Y-13318388D01*
X11981967Y-13318388D02*
X11972443Y-13280293D01*
X11972443Y-13280293D02*
X11972443Y-13232674D01*
X11972443Y-13232674D02*
X11981967Y-13194579D01*
X11981967Y-13194579D02*
X11991491Y-13175531D01*
X11991491Y-13175531D02*
X12001015Y-13166008D01*
X12001015Y-13166008D02*
X12020062Y-13156484D01*
X12210539Y-13156484D02*
X12229586Y-13156484D01*
X12229586Y-13156484D02*
X12248634Y-13166008D01*
X12248634Y-13166008D02*
X12258158Y-13175531D01*
X12258158Y-13175531D02*
X12267682Y-13194579D01*
X12267682Y-13194579D02*
X12277205Y-13232674D01*
X12277205Y-13232674D02*
X12277205Y-13280293D01*
X12277205Y-13280293D02*
X12267682Y-13318388D01*
X12267682Y-13318388D02*
X12258158Y-13337436D01*
X12258158Y-13337436D02*
X12248634Y-13346960D01*
X12248634Y-13346960D02*
X12229586Y-13356484D01*
X12229586Y-13356484D02*
X12210539Y-13356484D01*
X12210539Y-13356484D02*
X12191491Y-13346960D01*
X12191491Y-13346960D02*
X12181967Y-13337436D01*
X12181967Y-13337436D02*
X12172443Y-13318388D01*
X12172443Y-13318388D02*
X12162920Y-13280293D01*
X12162920Y-13280293D02*
X12162920Y-13232674D01*
X12162920Y-13232674D02*
X12172443Y-13194579D01*
X12172443Y-13194579D02*
X12181967Y-13175531D01*
X12181967Y-13175531D02*
X12191491Y-13166008D01*
X12191491Y-13166008D02*
X12210539Y-13156484D01*
X12362920Y-13356484D02*
X12362920Y-13223150D01*
X12362920Y-13242198D02*
X12372443Y-13232674D01*
X12372443Y-13232674D02*
X12391491Y-13223150D01*
X12391491Y-13223150D02*
X12420063Y-13223150D01*
X12420063Y-13223150D02*
X12439110Y-13232674D01*
X12439110Y-13232674D02*
X12448634Y-13251722D01*
X12448634Y-13251722D02*
X12448634Y-13356484D01*
X12448634Y-13251722D02*
X12458158Y-13232674D01*
X12458158Y-13232674D02*
X12477205Y-13223150D01*
X12477205Y-13223150D02*
X12505777Y-13223150D01*
X12505777Y-13223150D02*
X12524824Y-13232674D01*
X12524824Y-13232674D02*
X12534348Y-13251722D01*
X12534348Y-13251722D02*
X12534348Y-13356484D01*
X12629586Y-13356484D02*
X12629586Y-13223150D01*
X12629586Y-13242198D02*
X12639110Y-13232674D01*
X12639110Y-13232674D02*
X12658158Y-13223150D01*
X12658158Y-13223150D02*
X12686729Y-13223150D01*
X12686729Y-13223150D02*
X12705777Y-13232674D01*
X12705777Y-13232674D02*
X12715301Y-13251722D01*
X12715301Y-13251722D02*
X12715301Y-13356484D01*
X12715301Y-13251722D02*
X12724824Y-13232674D01*
X12724824Y-13232674D02*
X12743872Y-13223150D01*
X12743872Y-13223150D02*
X12772443Y-13223150D01*
X12772443Y-13223150D02*
X12791491Y-13232674D01*
X12791491Y-13232674D02*
X12801015Y-13251722D01*
X12801015Y-13251722D02*
X12801015Y-13356484D01*
X13191491Y-13146960D02*
X13020063Y-13404103D01*
X13448634Y-13156484D02*
X13467682Y-13156484D01*
X13467682Y-13156484D02*
X13486729Y-13166008D01*
X13486729Y-13166008D02*
X13496253Y-13175531D01*
X13496253Y-13175531D02*
X13505777Y-13194579D01*
X13505777Y-13194579D02*
X13515301Y-13232674D01*
X13515301Y-13232674D02*
X13515301Y-13280293D01*
X13515301Y-13280293D02*
X13505777Y-13318388D01*
X13505777Y-13318388D02*
X13496253Y-13337436D01*
X13496253Y-13337436D02*
X13486729Y-13346960D01*
X13486729Y-13346960D02*
X13467682Y-13356484D01*
X13467682Y-13356484D02*
X13448634Y-13356484D01*
X13448634Y-13356484D02*
X13429586Y-13346960D01*
X13429586Y-13346960D02*
X13420063Y-13337436D01*
X13420063Y-13337436D02*
X13410539Y-13318388D01*
X13410539Y-13318388D02*
X13401015Y-13280293D01*
X13401015Y-13280293D02*
X13401015Y-13232674D01*
X13401015Y-13232674D02*
X13410539Y-13194579D01*
X13410539Y-13194579D02*
X13420063Y-13175531D01*
X13420063Y-13175531D02*
X13429586Y-13166008D01*
X13429586Y-13166008D02*
X13448634Y-13156484D01*
X13601015Y-13337436D02*
X13610539Y-13346960D01*
X13610539Y-13346960D02*
X13601015Y-13356484D01*
X13601015Y-13356484D02*
X13591491Y-13346960D01*
X13591491Y-13346960D02*
X13601015Y-13337436D01*
X13601015Y-13337436D02*
X13601015Y-13356484D01*
X13734348Y-13156484D02*
X13753396Y-13156484D01*
X13753396Y-13156484D02*
X13772444Y-13166008D01*
X13772444Y-13166008D02*
X13781967Y-13175531D01*
X13781967Y-13175531D02*
X13791491Y-13194579D01*
X13791491Y-13194579D02*
X13801015Y-13232674D01*
X13801015Y-13232674D02*
X13801015Y-13280293D01*
X13801015Y-13280293D02*
X13791491Y-13318388D01*
X13791491Y-13318388D02*
X13781967Y-13337436D01*
X13781967Y-13337436D02*
X13772444Y-13346960D01*
X13772444Y-13346960D02*
X13753396Y-13356484D01*
X13753396Y-13356484D02*
X13734348Y-13356484D01*
X13734348Y-13356484D02*
X13715301Y-13346960D01*
X13715301Y-13346960D02*
X13705777Y-13337436D01*
X13705777Y-13337436D02*
X13696253Y-13318388D01*
X13696253Y-13318388D02*
X13686729Y-13280293D01*
X13686729Y-13280293D02*
X13686729Y-13232674D01*
X13686729Y-13232674D02*
X13696253Y-13194579D01*
X13696253Y-13194579D02*
X13705777Y-13175531D01*
X13705777Y-13175531D02*
X13715301Y-13166008D01*
X13715301Y-13166008D02*
X13734348Y-13156484D01*
X13972444Y-13223150D02*
X13972444Y-13356484D01*
X13924825Y-13146960D02*
X13877206Y-13289817D01*
X13877206Y-13289817D02*
X14001015Y-13289817D01*
X14058158Y-13156484D02*
X14181967Y-13156484D01*
X14181967Y-13156484D02*
X14115301Y-13232674D01*
X14115301Y-13232674D02*
X14143872Y-13232674D01*
X14143872Y-13232674D02*
X14162920Y-13242198D01*
X14162920Y-13242198D02*
X14172444Y-13251722D01*
X14172444Y-13251722D02*
X14181967Y-13270769D01*
X14181967Y-13270769D02*
X14181967Y-13318388D01*
X14181967Y-13318388D02*
X14172444Y-13337436D01*
X14172444Y-13337436D02*
X14162920Y-13346960D01*
X14162920Y-13346960D02*
X14143872Y-13356484D01*
X14143872Y-13356484D02*
X14086729Y-13356484D01*
X14086729Y-13356484D02*
X14067682Y-13346960D01*
X14067682Y-13346960D02*
X14058158Y-13337436D01*
X14248634Y-13156484D02*
X14372444Y-13156484D01*
X14372444Y-13156484D02*
X14305777Y-13232674D01*
X14305777Y-13232674D02*
X14334348Y-13232674D01*
X14334348Y-13232674D02*
X14353396Y-13242198D01*
X14353396Y-13242198D02*
X14362920Y-13251722D01*
X14362920Y-13251722D02*
X14372444Y-13270769D01*
X14372444Y-13270769D02*
X14372444Y-13318388D01*
X14372444Y-13318388D02*
X14362920Y-13337436D01*
X14362920Y-13337436D02*
X14353396Y-13346960D01*
X14353396Y-13346960D02*
X14334348Y-13356484D01*
X14334348Y-13356484D02*
X14277206Y-13356484D01*
X14277206Y-13356484D02*
X14258158Y-13346960D01*
X14258158Y-13346960D02*
X14248634Y-13337436D01*
X14448634Y-13156484D02*
X14448634Y-13194579D01*
X14524825Y-13156484D02*
X14524825Y-13194579D01*
X14820063Y-13432674D02*
X14810539Y-13423150D01*
X14810539Y-13423150D02*
X14791491Y-13394579D01*
X14791491Y-13394579D02*
X14781968Y-13375531D01*
X14781968Y-13375531D02*
X14772444Y-13346960D01*
X14772444Y-13346960D02*
X14762920Y-13299341D01*
X14762920Y-13299341D02*
X14762920Y-13261246D01*
X14762920Y-13261246D02*
X14772444Y-13213627D01*
X14772444Y-13213627D02*
X14781968Y-13185055D01*
X14781968Y-13185055D02*
X14791491Y-13166008D01*
X14791491Y-13166008D02*
X14810539Y-13137436D01*
X14810539Y-13137436D02*
X14820063Y-13127912D01*
X14877206Y-13156484D02*
X15001015Y-13156484D01*
X15001015Y-13156484D02*
X14934348Y-13232674D01*
X14934348Y-13232674D02*
X14962920Y-13232674D01*
X14962920Y-13232674D02*
X14981968Y-13242198D01*
X14981968Y-13242198D02*
X14991491Y-13251722D01*
X14991491Y-13251722D02*
X15001015Y-13270769D01*
X15001015Y-13270769D02*
X15001015Y-13318388D01*
X15001015Y-13318388D02*
X14991491Y-13337436D01*
X14991491Y-13337436D02*
X14981968Y-13346960D01*
X14981968Y-13346960D02*
X14962920Y-13356484D01*
X14962920Y-13356484D02*
X14905777Y-13356484D01*
X14905777Y-13356484D02*
X14886729Y-13346960D01*
X14886729Y-13346960D02*
X14877206Y-13337436D01*
X15239110Y-13356484D02*
X15239110Y-13156484D01*
X15324825Y-13356484D02*
X15324825Y-13251722D01*
X15324825Y-13251722D02*
X15315301Y-13232674D01*
X15315301Y-13232674D02*
X15296253Y-13223150D01*
X15296253Y-13223150D02*
X15267682Y-13223150D01*
X15267682Y-13223150D02*
X15248634Y-13232674D01*
X15248634Y-13232674D02*
X15239110Y-13242198D01*
X15448634Y-13356484D02*
X15429587Y-13346960D01*
X15429587Y-13346960D02*
X15420063Y-13337436D01*
X15420063Y-13337436D02*
X15410539Y-13318388D01*
X15410539Y-13318388D02*
X15410539Y-13261246D01*
X15410539Y-13261246D02*
X15420063Y-13242198D01*
X15420063Y-13242198D02*
X15429587Y-13232674D01*
X15429587Y-13232674D02*
X15448634Y-13223150D01*
X15448634Y-13223150D02*
X15477206Y-13223150D01*
X15477206Y-13223150D02*
X15496253Y-13232674D01*
X15496253Y-13232674D02*
X15505777Y-13242198D01*
X15505777Y-13242198D02*
X15515301Y-13261246D01*
X15515301Y-13261246D02*
X15515301Y-13318388D01*
X15515301Y-13318388D02*
X15505777Y-13337436D01*
X15505777Y-13337436D02*
X15496253Y-13346960D01*
X15496253Y-13346960D02*
X15477206Y-13356484D01*
X15477206Y-13356484D02*
X15448634Y-13356484D01*
X15629587Y-13356484D02*
X15610539Y-13346960D01*
X15610539Y-13346960D02*
X15601015Y-13327912D01*
X15601015Y-13327912D02*
X15601015Y-13156484D01*
X15781968Y-13346960D02*
X15762920Y-13356484D01*
X15762920Y-13356484D02*
X15724825Y-13356484D01*
X15724825Y-13356484D02*
X15705777Y-13346960D01*
X15705777Y-13346960D02*
X15696253Y-13327912D01*
X15696253Y-13327912D02*
X15696253Y-13251722D01*
X15696253Y-13251722D02*
X15705777Y-13232674D01*
X15705777Y-13232674D02*
X15724825Y-13223150D01*
X15724825Y-13223150D02*
X15762920Y-13223150D01*
X15762920Y-13223150D02*
X15781968Y-13232674D01*
X15781968Y-13232674D02*
X15791491Y-13251722D01*
X15791491Y-13251722D02*
X15791491Y-13270769D01*
X15791491Y-13270769D02*
X15696253Y-13289817D01*
X15867682Y-13346960D02*
X15886730Y-13356484D01*
X15886730Y-13356484D02*
X15924825Y-13356484D01*
X15924825Y-13356484D02*
X15943872Y-13346960D01*
X15943872Y-13346960D02*
X15953396Y-13327912D01*
X15953396Y-13327912D02*
X15953396Y-13318388D01*
X15953396Y-13318388D02*
X15943872Y-13299341D01*
X15943872Y-13299341D02*
X15924825Y-13289817D01*
X15924825Y-13289817D02*
X15896253Y-13289817D01*
X15896253Y-13289817D02*
X15877206Y-13280293D01*
X15877206Y-13280293D02*
X15867682Y-13261246D01*
X15867682Y-13261246D02*
X15867682Y-13251722D01*
X15867682Y-13251722D02*
X15877206Y-13232674D01*
X15877206Y-13232674D02*
X15896253Y-13223150D01*
X15896253Y-13223150D02*
X15924825Y-13223150D01*
X15924825Y-13223150D02*
X15943872Y-13232674D01*
X16020063Y-13432674D02*
X16029587Y-13423150D01*
X16029587Y-13423150D02*
X16048634Y-13394579D01*
X16048634Y-13394579D02*
X16058158Y-13375531D01*
X16058158Y-13375531D02*
X16067682Y-13346960D01*
X16067682Y-13346960D02*
X16077206Y-13299341D01*
X16077206Y-13299341D02*
X16077206Y-13261246D01*
X16077206Y-13261246D02*
X16067682Y-13213627D01*
X16067682Y-13213627D02*
X16058158Y-13185055D01*
X16058158Y-13185055D02*
X16048634Y-13166008D01*
X16048634Y-13166008D02*
X16029587Y-13137436D01*
X16029587Y-13137436D02*
X16020063Y-13127912D01*
D13*
X11115000Y-13464000D02*
X11245000Y-13594000D01*
X11245000Y-13464000D02*
X11115000Y-13594000D01*
X11180000Y-13464000D02*
X11180000Y-13594000D01*
X11115000Y-13529000D02*
X11245000Y-13529000D01*
D11*
X11610539Y-13620484D02*
X11496253Y-13620484D01*
X11553396Y-13620484D02*
X11553396Y-13420484D01*
X11553396Y-13420484D02*
X11534348Y-13449055D01*
X11534348Y-13449055D02*
X11515301Y-13468103D01*
X11515301Y-13468103D02*
X11496253Y-13477627D01*
X11696253Y-13601436D02*
X11705777Y-13610960D01*
X11705777Y-13610960D02*
X11696253Y-13620484D01*
X11696253Y-13620484D02*
X11686729Y-13610960D01*
X11686729Y-13610960D02*
X11696253Y-13601436D01*
X11696253Y-13601436D02*
X11696253Y-13620484D01*
X11772443Y-13420484D02*
X11896253Y-13420484D01*
X11896253Y-13420484D02*
X11829586Y-13496674D01*
X11829586Y-13496674D02*
X11858158Y-13496674D01*
X11858158Y-13496674D02*
X11877205Y-13506198D01*
X11877205Y-13506198D02*
X11886729Y-13515722D01*
X11886729Y-13515722D02*
X11896253Y-13534769D01*
X11896253Y-13534769D02*
X11896253Y-13582388D01*
X11896253Y-13582388D02*
X11886729Y-13601436D01*
X11886729Y-13601436D02*
X11877205Y-13610960D01*
X11877205Y-13610960D02*
X11858158Y-13620484D01*
X11858158Y-13620484D02*
X11801015Y-13620484D01*
X11801015Y-13620484D02*
X11781967Y-13610960D01*
X11781967Y-13610960D02*
X11772443Y-13601436D01*
X12020062Y-13420484D02*
X12039110Y-13420484D01*
X12039110Y-13420484D02*
X12058158Y-13430008D01*
X12058158Y-13430008D02*
X12067682Y-13439531D01*
X12067682Y-13439531D02*
X12077205Y-13458579D01*
X12077205Y-13458579D02*
X12086729Y-13496674D01*
X12086729Y-13496674D02*
X12086729Y-13544293D01*
X12086729Y-13544293D02*
X12077205Y-13582388D01*
X12077205Y-13582388D02*
X12067682Y-13601436D01*
X12067682Y-13601436D02*
X12058158Y-13610960D01*
X12058158Y-13610960D02*
X12039110Y-13620484D01*
X12039110Y-13620484D02*
X12020062Y-13620484D01*
X12020062Y-13620484D02*
X12001015Y-13610960D01*
X12001015Y-13610960D02*
X11991491Y-13601436D01*
X11991491Y-13601436D02*
X11981967Y-13582388D01*
X11981967Y-13582388D02*
X11972443Y-13544293D01*
X11972443Y-13544293D02*
X11972443Y-13496674D01*
X11972443Y-13496674D02*
X11981967Y-13458579D01*
X11981967Y-13458579D02*
X11991491Y-13439531D01*
X11991491Y-13439531D02*
X12001015Y-13430008D01*
X12001015Y-13430008D02*
X12020062Y-13420484D01*
X12210539Y-13420484D02*
X12229586Y-13420484D01*
X12229586Y-13420484D02*
X12248634Y-13430008D01*
X12248634Y-13430008D02*
X12258158Y-13439531D01*
X12258158Y-13439531D02*
X12267682Y-13458579D01*
X12267682Y-13458579D02*
X12277205Y-13496674D01*
X12277205Y-13496674D02*
X12277205Y-13544293D01*
X12277205Y-13544293D02*
X12267682Y-13582388D01*
X12267682Y-13582388D02*
X12258158Y-13601436D01*
X12258158Y-13601436D02*
X12248634Y-13610960D01*
X12248634Y-13610960D02*
X12229586Y-13620484D01*
X12229586Y-13620484D02*
X12210539Y-13620484D01*
X12210539Y-13620484D02*
X12191491Y-13610960D01*
X12191491Y-13610960D02*
X12181967Y-13601436D01*
X12181967Y-13601436D02*
X12172443Y-13582388D01*
X12172443Y-13582388D02*
X12162920Y-13544293D01*
X12162920Y-13544293D02*
X12162920Y-13496674D01*
X12162920Y-13496674D02*
X12172443Y-13458579D01*
X12172443Y-13458579D02*
X12181967Y-13439531D01*
X12181967Y-13439531D02*
X12191491Y-13430008D01*
X12191491Y-13430008D02*
X12210539Y-13420484D01*
X12362920Y-13620484D02*
X12362920Y-13487150D01*
X12362920Y-13506198D02*
X12372443Y-13496674D01*
X12372443Y-13496674D02*
X12391491Y-13487150D01*
X12391491Y-13487150D02*
X12420063Y-13487150D01*
X12420063Y-13487150D02*
X12439110Y-13496674D01*
X12439110Y-13496674D02*
X12448634Y-13515722D01*
X12448634Y-13515722D02*
X12448634Y-13620484D01*
X12448634Y-13515722D02*
X12458158Y-13496674D01*
X12458158Y-13496674D02*
X12477205Y-13487150D01*
X12477205Y-13487150D02*
X12505777Y-13487150D01*
X12505777Y-13487150D02*
X12524824Y-13496674D01*
X12524824Y-13496674D02*
X12534348Y-13515722D01*
X12534348Y-13515722D02*
X12534348Y-13620484D01*
X12629586Y-13620484D02*
X12629586Y-13487150D01*
X12629586Y-13506198D02*
X12639110Y-13496674D01*
X12639110Y-13496674D02*
X12658158Y-13487150D01*
X12658158Y-13487150D02*
X12686729Y-13487150D01*
X12686729Y-13487150D02*
X12705777Y-13496674D01*
X12705777Y-13496674D02*
X12715301Y-13515722D01*
X12715301Y-13515722D02*
X12715301Y-13620484D01*
X12715301Y-13515722D02*
X12724824Y-13496674D01*
X12724824Y-13496674D02*
X12743872Y-13487150D01*
X12743872Y-13487150D02*
X12772443Y-13487150D01*
X12772443Y-13487150D02*
X12791491Y-13496674D01*
X12791491Y-13496674D02*
X12801015Y-13515722D01*
X12801015Y-13515722D02*
X12801015Y-13620484D01*
X13191491Y-13410960D02*
X13020063Y-13668103D01*
X13448634Y-13420484D02*
X13467682Y-13420484D01*
X13467682Y-13420484D02*
X13486729Y-13430008D01*
X13486729Y-13430008D02*
X13496253Y-13439531D01*
X13496253Y-13439531D02*
X13505777Y-13458579D01*
X13505777Y-13458579D02*
X13515301Y-13496674D01*
X13515301Y-13496674D02*
X13515301Y-13544293D01*
X13515301Y-13544293D02*
X13505777Y-13582388D01*
X13505777Y-13582388D02*
X13496253Y-13601436D01*
X13496253Y-13601436D02*
X13486729Y-13610960D01*
X13486729Y-13610960D02*
X13467682Y-13620484D01*
X13467682Y-13620484D02*
X13448634Y-13620484D01*
X13448634Y-13620484D02*
X13429586Y-13610960D01*
X13429586Y-13610960D02*
X13420063Y-13601436D01*
X13420063Y-13601436D02*
X13410539Y-13582388D01*
X13410539Y-13582388D02*
X13401015Y-13544293D01*
X13401015Y-13544293D02*
X13401015Y-13496674D01*
X13401015Y-13496674D02*
X13410539Y-13458579D01*
X13410539Y-13458579D02*
X13420063Y-13439531D01*
X13420063Y-13439531D02*
X13429586Y-13430008D01*
X13429586Y-13430008D02*
X13448634Y-13420484D01*
X13601015Y-13601436D02*
X13610539Y-13610960D01*
X13610539Y-13610960D02*
X13601015Y-13620484D01*
X13601015Y-13620484D02*
X13591491Y-13610960D01*
X13591491Y-13610960D02*
X13601015Y-13601436D01*
X13601015Y-13601436D02*
X13601015Y-13620484D01*
X13734348Y-13420484D02*
X13753396Y-13420484D01*
X13753396Y-13420484D02*
X13772444Y-13430008D01*
X13772444Y-13430008D02*
X13781967Y-13439531D01*
X13781967Y-13439531D02*
X13791491Y-13458579D01*
X13791491Y-13458579D02*
X13801015Y-13496674D01*
X13801015Y-13496674D02*
X13801015Y-13544293D01*
X13801015Y-13544293D02*
X13791491Y-13582388D01*
X13791491Y-13582388D02*
X13781967Y-13601436D01*
X13781967Y-13601436D02*
X13772444Y-13610960D01*
X13772444Y-13610960D02*
X13753396Y-13620484D01*
X13753396Y-13620484D02*
X13734348Y-13620484D01*
X13734348Y-13620484D02*
X13715301Y-13610960D01*
X13715301Y-13610960D02*
X13705777Y-13601436D01*
X13705777Y-13601436D02*
X13696253Y-13582388D01*
X13696253Y-13582388D02*
X13686729Y-13544293D01*
X13686729Y-13544293D02*
X13686729Y-13496674D01*
X13686729Y-13496674D02*
X13696253Y-13458579D01*
X13696253Y-13458579D02*
X13705777Y-13439531D01*
X13705777Y-13439531D02*
X13715301Y-13430008D01*
X13715301Y-13430008D02*
X13734348Y-13420484D01*
X13981967Y-13420484D02*
X13886729Y-13420484D01*
X13886729Y-13420484D02*
X13877206Y-13515722D01*
X13877206Y-13515722D02*
X13886729Y-13506198D01*
X13886729Y-13506198D02*
X13905777Y-13496674D01*
X13905777Y-13496674D02*
X13953396Y-13496674D01*
X13953396Y-13496674D02*
X13972444Y-13506198D01*
X13972444Y-13506198D02*
X13981967Y-13515722D01*
X13981967Y-13515722D02*
X13991491Y-13534769D01*
X13991491Y-13534769D02*
X13991491Y-13582388D01*
X13991491Y-13582388D02*
X13981967Y-13601436D01*
X13981967Y-13601436D02*
X13972444Y-13610960D01*
X13972444Y-13610960D02*
X13953396Y-13620484D01*
X13953396Y-13620484D02*
X13905777Y-13620484D01*
X13905777Y-13620484D02*
X13886729Y-13610960D01*
X13886729Y-13610960D02*
X13877206Y-13601436D01*
X14181967Y-13620484D02*
X14067682Y-13620484D01*
X14124825Y-13620484D02*
X14124825Y-13420484D01*
X14124825Y-13420484D02*
X14105777Y-13449055D01*
X14105777Y-13449055D02*
X14086729Y-13468103D01*
X14086729Y-13468103D02*
X14067682Y-13477627D01*
X14258158Y-13439531D02*
X14267682Y-13430008D01*
X14267682Y-13430008D02*
X14286729Y-13420484D01*
X14286729Y-13420484D02*
X14334348Y-13420484D01*
X14334348Y-13420484D02*
X14353396Y-13430008D01*
X14353396Y-13430008D02*
X14362920Y-13439531D01*
X14362920Y-13439531D02*
X14372444Y-13458579D01*
X14372444Y-13458579D02*
X14372444Y-13477627D01*
X14372444Y-13477627D02*
X14362920Y-13506198D01*
X14362920Y-13506198D02*
X14248634Y-13620484D01*
X14248634Y-13620484D02*
X14372444Y-13620484D01*
X14448634Y-13420484D02*
X14448634Y-13458579D01*
X14524825Y-13420484D02*
X14524825Y-13458579D01*
X14820063Y-13696674D02*
X14810539Y-13687150D01*
X14810539Y-13687150D02*
X14791491Y-13658579D01*
X14791491Y-13658579D02*
X14781968Y-13639531D01*
X14781968Y-13639531D02*
X14772444Y-13610960D01*
X14772444Y-13610960D02*
X14762920Y-13563341D01*
X14762920Y-13563341D02*
X14762920Y-13525246D01*
X14762920Y-13525246D02*
X14772444Y-13477627D01*
X14772444Y-13477627D02*
X14781968Y-13449055D01*
X14781968Y-13449055D02*
X14791491Y-13430008D01*
X14791491Y-13430008D02*
X14810539Y-13401436D01*
X14810539Y-13401436D02*
X14820063Y-13391912D01*
X14886729Y-13439531D02*
X14896253Y-13430008D01*
X14896253Y-13430008D02*
X14915301Y-13420484D01*
X14915301Y-13420484D02*
X14962920Y-13420484D01*
X14962920Y-13420484D02*
X14981968Y-13430008D01*
X14981968Y-13430008D02*
X14991491Y-13439531D01*
X14991491Y-13439531D02*
X15001015Y-13458579D01*
X15001015Y-13458579D02*
X15001015Y-13477627D01*
X15001015Y-13477627D02*
X14991491Y-13506198D01*
X14991491Y-13506198D02*
X14877206Y-13620484D01*
X14877206Y-13620484D02*
X15001015Y-13620484D01*
X15239110Y-13620484D02*
X15239110Y-13420484D01*
X15324825Y-13620484D02*
X15324825Y-13515722D01*
X15324825Y-13515722D02*
X15315301Y-13496674D01*
X15315301Y-13496674D02*
X15296253Y-13487150D01*
X15296253Y-13487150D02*
X15267682Y-13487150D01*
X15267682Y-13487150D02*
X15248634Y-13496674D01*
X15248634Y-13496674D02*
X15239110Y-13506198D01*
X15448634Y-13620484D02*
X15429587Y-13610960D01*
X15429587Y-13610960D02*
X15420063Y-13601436D01*
X15420063Y-13601436D02*
X15410539Y-13582388D01*
X15410539Y-13582388D02*
X15410539Y-13525246D01*
X15410539Y-13525246D02*
X15420063Y-13506198D01*
X15420063Y-13506198D02*
X15429587Y-13496674D01*
X15429587Y-13496674D02*
X15448634Y-13487150D01*
X15448634Y-13487150D02*
X15477206Y-13487150D01*
X15477206Y-13487150D02*
X15496253Y-13496674D01*
X15496253Y-13496674D02*
X15505777Y-13506198D01*
X15505777Y-13506198D02*
X15515301Y-13525246D01*
X15515301Y-13525246D02*
X15515301Y-13582388D01*
X15515301Y-13582388D02*
X15505777Y-13601436D01*
X15505777Y-13601436D02*
X15496253Y-13610960D01*
X15496253Y-13610960D02*
X15477206Y-13620484D01*
X15477206Y-13620484D02*
X15448634Y-13620484D01*
X15629587Y-13620484D02*
X15610539Y-13610960D01*
X15610539Y-13610960D02*
X15601015Y-13591912D01*
X15601015Y-13591912D02*
X15601015Y-13420484D01*
X15781968Y-13610960D02*
X15762920Y-13620484D01*
X15762920Y-13620484D02*
X15724825Y-13620484D01*
X15724825Y-13620484D02*
X15705777Y-13610960D01*
X15705777Y-13610960D02*
X15696253Y-13591912D01*
X15696253Y-13591912D02*
X15696253Y-13515722D01*
X15696253Y-13515722D02*
X15705777Y-13496674D01*
X15705777Y-13496674D02*
X15724825Y-13487150D01*
X15724825Y-13487150D02*
X15762920Y-13487150D01*
X15762920Y-13487150D02*
X15781968Y-13496674D01*
X15781968Y-13496674D02*
X15791491Y-13515722D01*
X15791491Y-13515722D02*
X15791491Y-13534769D01*
X15791491Y-13534769D02*
X15696253Y-13553817D01*
X15867682Y-13610960D02*
X15886730Y-13620484D01*
X15886730Y-13620484D02*
X15924825Y-13620484D01*
X15924825Y-13620484D02*
X15943872Y-13610960D01*
X15943872Y-13610960D02*
X15953396Y-13591912D01*
X15953396Y-13591912D02*
X15953396Y-13582388D01*
X15953396Y-13582388D02*
X15943872Y-13563341D01*
X15943872Y-13563341D02*
X15924825Y-13553817D01*
X15924825Y-13553817D02*
X15896253Y-13553817D01*
X15896253Y-13553817D02*
X15877206Y-13544293D01*
X15877206Y-13544293D02*
X15867682Y-13525246D01*
X15867682Y-13525246D02*
X15867682Y-13515722D01*
X15867682Y-13515722D02*
X15877206Y-13496674D01*
X15877206Y-13496674D02*
X15896253Y-13487150D01*
X15896253Y-13487150D02*
X15924825Y-13487150D01*
X15924825Y-13487150D02*
X15943872Y-13496674D01*
X16020063Y-13696674D02*
X16029587Y-13687150D01*
X16029587Y-13687150D02*
X16048634Y-13658579D01*
X16048634Y-13658579D02*
X16058158Y-13639531D01*
X16058158Y-13639531D02*
X16067682Y-13610960D01*
X16067682Y-13610960D02*
X16077206Y-13563341D01*
X16077206Y-13563341D02*
X16077206Y-13525246D01*
X16077206Y-13525246D02*
X16067682Y-13477627D01*
X16067682Y-13477627D02*
X16058158Y-13449055D01*
X16058158Y-13449055D02*
X16048634Y-13430008D01*
X16048634Y-13430008D02*
X16029587Y-13401436D01*
X16029587Y-13401436D02*
X16020063Y-13391912D01*
X11045000Y-13693000D02*
X11245000Y-13893000D01*
X11245000Y-13693000D02*
X11045000Y-13893000D01*
X11215711Y-13863711D02*
X11215711Y-13722289D01*
X11074289Y-13722289D01*
X11074289Y-13863711D01*
X11215711Y-13863711D01*
X11496253Y-13703531D02*
X11505777Y-13694008D01*
X11505777Y-13694008D02*
X11524824Y-13684484D01*
X11524824Y-13684484D02*
X11572443Y-13684484D01*
X11572443Y-13684484D02*
X11591491Y-13694008D01*
X11591491Y-13694008D02*
X11601015Y-13703531D01*
X11601015Y-13703531D02*
X11610539Y-13722579D01*
X11610539Y-13722579D02*
X11610539Y-13741627D01*
X11610539Y-13741627D02*
X11601015Y-13770198D01*
X11601015Y-13770198D02*
X11486729Y-13884484D01*
X11486729Y-13884484D02*
X11610539Y-13884484D01*
X11696253Y-13865436D02*
X11705777Y-13874960D01*
X11705777Y-13874960D02*
X11696253Y-13884484D01*
X11696253Y-13884484D02*
X11686729Y-13874960D01*
X11686729Y-13874960D02*
X11696253Y-13865436D01*
X11696253Y-13865436D02*
X11696253Y-13884484D01*
X11772443Y-13684484D02*
X11896253Y-13684484D01*
X11896253Y-13684484D02*
X11829586Y-13760674D01*
X11829586Y-13760674D02*
X11858158Y-13760674D01*
X11858158Y-13760674D02*
X11877205Y-13770198D01*
X11877205Y-13770198D02*
X11886729Y-13779722D01*
X11886729Y-13779722D02*
X11896253Y-13798769D01*
X11896253Y-13798769D02*
X11896253Y-13846388D01*
X11896253Y-13846388D02*
X11886729Y-13865436D01*
X11886729Y-13865436D02*
X11877205Y-13874960D01*
X11877205Y-13874960D02*
X11858158Y-13884484D01*
X11858158Y-13884484D02*
X11801015Y-13884484D01*
X11801015Y-13884484D02*
X11781967Y-13874960D01*
X11781967Y-13874960D02*
X11772443Y-13865436D01*
X12020062Y-13684484D02*
X12039110Y-13684484D01*
X12039110Y-13684484D02*
X12058158Y-13694008D01*
X12058158Y-13694008D02*
X12067682Y-13703531D01*
X12067682Y-13703531D02*
X12077205Y-13722579D01*
X12077205Y-13722579D02*
X12086729Y-13760674D01*
X12086729Y-13760674D02*
X12086729Y-13808293D01*
X12086729Y-13808293D02*
X12077205Y-13846388D01*
X12077205Y-13846388D02*
X12067682Y-13865436D01*
X12067682Y-13865436D02*
X12058158Y-13874960D01*
X12058158Y-13874960D02*
X12039110Y-13884484D01*
X12039110Y-13884484D02*
X12020062Y-13884484D01*
X12020062Y-13884484D02*
X12001015Y-13874960D01*
X12001015Y-13874960D02*
X11991491Y-13865436D01*
X11991491Y-13865436D02*
X11981967Y-13846388D01*
X11981967Y-13846388D02*
X11972443Y-13808293D01*
X11972443Y-13808293D02*
X11972443Y-13760674D01*
X11972443Y-13760674D02*
X11981967Y-13722579D01*
X11981967Y-13722579D02*
X11991491Y-13703531D01*
X11991491Y-13703531D02*
X12001015Y-13694008D01*
X12001015Y-13694008D02*
X12020062Y-13684484D01*
X12210539Y-13684484D02*
X12229586Y-13684484D01*
X12229586Y-13684484D02*
X12248634Y-13694008D01*
X12248634Y-13694008D02*
X12258158Y-13703531D01*
X12258158Y-13703531D02*
X12267682Y-13722579D01*
X12267682Y-13722579D02*
X12277205Y-13760674D01*
X12277205Y-13760674D02*
X12277205Y-13808293D01*
X12277205Y-13808293D02*
X12267682Y-13846388D01*
X12267682Y-13846388D02*
X12258158Y-13865436D01*
X12258158Y-13865436D02*
X12248634Y-13874960D01*
X12248634Y-13874960D02*
X12229586Y-13884484D01*
X12229586Y-13884484D02*
X12210539Y-13884484D01*
X12210539Y-13884484D02*
X12191491Y-13874960D01*
X12191491Y-13874960D02*
X12181967Y-13865436D01*
X12181967Y-13865436D02*
X12172443Y-13846388D01*
X12172443Y-13846388D02*
X12162920Y-13808293D01*
X12162920Y-13808293D02*
X12162920Y-13760674D01*
X12162920Y-13760674D02*
X12172443Y-13722579D01*
X12172443Y-13722579D02*
X12181967Y-13703531D01*
X12181967Y-13703531D02*
X12191491Y-13694008D01*
X12191491Y-13694008D02*
X12210539Y-13684484D01*
X12362920Y-13884484D02*
X12362920Y-13751150D01*
X12362920Y-13770198D02*
X12372443Y-13760674D01*
X12372443Y-13760674D02*
X12391491Y-13751150D01*
X12391491Y-13751150D02*
X12420063Y-13751150D01*
X12420063Y-13751150D02*
X12439110Y-13760674D01*
X12439110Y-13760674D02*
X12448634Y-13779722D01*
X12448634Y-13779722D02*
X12448634Y-13884484D01*
X12448634Y-13779722D02*
X12458158Y-13760674D01*
X12458158Y-13760674D02*
X12477205Y-13751150D01*
X12477205Y-13751150D02*
X12505777Y-13751150D01*
X12505777Y-13751150D02*
X12524824Y-13760674D01*
X12524824Y-13760674D02*
X12534348Y-13779722D01*
X12534348Y-13779722D02*
X12534348Y-13884484D01*
X12629586Y-13884484D02*
X12629586Y-13751150D01*
X12629586Y-13770198D02*
X12639110Y-13760674D01*
X12639110Y-13760674D02*
X12658158Y-13751150D01*
X12658158Y-13751150D02*
X12686729Y-13751150D01*
X12686729Y-13751150D02*
X12705777Y-13760674D01*
X12705777Y-13760674D02*
X12715301Y-13779722D01*
X12715301Y-13779722D02*
X12715301Y-13884484D01*
X12715301Y-13779722D02*
X12724824Y-13760674D01*
X12724824Y-13760674D02*
X12743872Y-13751150D01*
X12743872Y-13751150D02*
X12772443Y-13751150D01*
X12772443Y-13751150D02*
X12791491Y-13760674D01*
X12791491Y-13760674D02*
X12801015Y-13779722D01*
X12801015Y-13779722D02*
X12801015Y-13884484D01*
X13191491Y-13674960D02*
X13020063Y-13932103D01*
X13448634Y-13684484D02*
X13467682Y-13684484D01*
X13467682Y-13684484D02*
X13486729Y-13694008D01*
X13486729Y-13694008D02*
X13496253Y-13703531D01*
X13496253Y-13703531D02*
X13505777Y-13722579D01*
X13505777Y-13722579D02*
X13515301Y-13760674D01*
X13515301Y-13760674D02*
X13515301Y-13808293D01*
X13515301Y-13808293D02*
X13505777Y-13846388D01*
X13505777Y-13846388D02*
X13496253Y-13865436D01*
X13496253Y-13865436D02*
X13486729Y-13874960D01*
X13486729Y-13874960D02*
X13467682Y-13884484D01*
X13467682Y-13884484D02*
X13448634Y-13884484D01*
X13448634Y-13884484D02*
X13429586Y-13874960D01*
X13429586Y-13874960D02*
X13420063Y-13865436D01*
X13420063Y-13865436D02*
X13410539Y-13846388D01*
X13410539Y-13846388D02*
X13401015Y-13808293D01*
X13401015Y-13808293D02*
X13401015Y-13760674D01*
X13401015Y-13760674D02*
X13410539Y-13722579D01*
X13410539Y-13722579D02*
X13420063Y-13703531D01*
X13420063Y-13703531D02*
X13429586Y-13694008D01*
X13429586Y-13694008D02*
X13448634Y-13684484D01*
X13601015Y-13865436D02*
X13610539Y-13874960D01*
X13610539Y-13874960D02*
X13601015Y-13884484D01*
X13601015Y-13884484D02*
X13591491Y-13874960D01*
X13591491Y-13874960D02*
X13601015Y-13865436D01*
X13601015Y-13865436D02*
X13601015Y-13884484D01*
X13734348Y-13684484D02*
X13753396Y-13684484D01*
X13753396Y-13684484D02*
X13772444Y-13694008D01*
X13772444Y-13694008D02*
X13781967Y-13703531D01*
X13781967Y-13703531D02*
X13791491Y-13722579D01*
X13791491Y-13722579D02*
X13801015Y-13760674D01*
X13801015Y-13760674D02*
X13801015Y-13808293D01*
X13801015Y-13808293D02*
X13791491Y-13846388D01*
X13791491Y-13846388D02*
X13781967Y-13865436D01*
X13781967Y-13865436D02*
X13772444Y-13874960D01*
X13772444Y-13874960D02*
X13753396Y-13884484D01*
X13753396Y-13884484D02*
X13734348Y-13884484D01*
X13734348Y-13884484D02*
X13715301Y-13874960D01*
X13715301Y-13874960D02*
X13705777Y-13865436D01*
X13705777Y-13865436D02*
X13696253Y-13846388D01*
X13696253Y-13846388D02*
X13686729Y-13808293D01*
X13686729Y-13808293D02*
X13686729Y-13760674D01*
X13686729Y-13760674D02*
X13696253Y-13722579D01*
X13696253Y-13722579D02*
X13705777Y-13703531D01*
X13705777Y-13703531D02*
X13715301Y-13694008D01*
X13715301Y-13694008D02*
X13734348Y-13684484D01*
X13896253Y-13884484D02*
X13934348Y-13884484D01*
X13934348Y-13884484D02*
X13953396Y-13874960D01*
X13953396Y-13874960D02*
X13962920Y-13865436D01*
X13962920Y-13865436D02*
X13981967Y-13836865D01*
X13981967Y-13836865D02*
X13991491Y-13798769D01*
X13991491Y-13798769D02*
X13991491Y-13722579D01*
X13991491Y-13722579D02*
X13981967Y-13703531D01*
X13981967Y-13703531D02*
X13972444Y-13694008D01*
X13972444Y-13694008D02*
X13953396Y-13684484D01*
X13953396Y-13684484D02*
X13915301Y-13684484D01*
X13915301Y-13684484D02*
X13896253Y-13694008D01*
X13896253Y-13694008D02*
X13886729Y-13703531D01*
X13886729Y-13703531D02*
X13877206Y-13722579D01*
X13877206Y-13722579D02*
X13877206Y-13770198D01*
X13877206Y-13770198D02*
X13886729Y-13789246D01*
X13886729Y-13789246D02*
X13896253Y-13798769D01*
X13896253Y-13798769D02*
X13915301Y-13808293D01*
X13915301Y-13808293D02*
X13953396Y-13808293D01*
X13953396Y-13808293D02*
X13972444Y-13798769D01*
X13972444Y-13798769D02*
X13981967Y-13789246D01*
X13981967Y-13789246D02*
X13991491Y-13770198D01*
X14115301Y-13684484D02*
X14134348Y-13684484D01*
X14134348Y-13684484D02*
X14153396Y-13694008D01*
X14153396Y-13694008D02*
X14162920Y-13703531D01*
X14162920Y-13703531D02*
X14172444Y-13722579D01*
X14172444Y-13722579D02*
X14181967Y-13760674D01*
X14181967Y-13760674D02*
X14181967Y-13808293D01*
X14181967Y-13808293D02*
X14172444Y-13846388D01*
X14172444Y-13846388D02*
X14162920Y-13865436D01*
X14162920Y-13865436D02*
X14153396Y-13874960D01*
X14153396Y-13874960D02*
X14134348Y-13884484D01*
X14134348Y-13884484D02*
X14115301Y-13884484D01*
X14115301Y-13884484D02*
X14096253Y-13874960D01*
X14096253Y-13874960D02*
X14086729Y-13865436D01*
X14086729Y-13865436D02*
X14077206Y-13846388D01*
X14077206Y-13846388D02*
X14067682Y-13808293D01*
X14067682Y-13808293D02*
X14067682Y-13760674D01*
X14067682Y-13760674D02*
X14077206Y-13722579D01*
X14077206Y-13722579D02*
X14086729Y-13703531D01*
X14086729Y-13703531D02*
X14096253Y-13694008D01*
X14096253Y-13694008D02*
X14115301Y-13684484D01*
X14353396Y-13684484D02*
X14315301Y-13684484D01*
X14315301Y-13684484D02*
X14296253Y-13694008D01*
X14296253Y-13694008D02*
X14286729Y-13703531D01*
X14286729Y-13703531D02*
X14267682Y-13732103D01*
X14267682Y-13732103D02*
X14258158Y-13770198D01*
X14258158Y-13770198D02*
X14258158Y-13846388D01*
X14258158Y-13846388D02*
X14267682Y-13865436D01*
X14267682Y-13865436D02*
X14277206Y-13874960D01*
X14277206Y-13874960D02*
X14296253Y-13884484D01*
X14296253Y-13884484D02*
X14334348Y-13884484D01*
X14334348Y-13884484D02*
X14353396Y-13874960D01*
X14353396Y-13874960D02*
X14362920Y-13865436D01*
X14362920Y-13865436D02*
X14372444Y-13846388D01*
X14372444Y-13846388D02*
X14372444Y-13798769D01*
X14372444Y-13798769D02*
X14362920Y-13779722D01*
X14362920Y-13779722D02*
X14353396Y-13770198D01*
X14353396Y-13770198D02*
X14334348Y-13760674D01*
X14334348Y-13760674D02*
X14296253Y-13760674D01*
X14296253Y-13760674D02*
X14277206Y-13770198D01*
X14277206Y-13770198D02*
X14267682Y-13779722D01*
X14267682Y-13779722D02*
X14258158Y-13798769D01*
X14448634Y-13684484D02*
X14448634Y-13722579D01*
X14524825Y-13684484D02*
X14524825Y-13722579D01*
X14820063Y-13960674D02*
X14810539Y-13951150D01*
X14810539Y-13951150D02*
X14791491Y-13922579D01*
X14791491Y-13922579D02*
X14781968Y-13903531D01*
X14781968Y-13903531D02*
X14772444Y-13874960D01*
X14772444Y-13874960D02*
X14762920Y-13827341D01*
X14762920Y-13827341D02*
X14762920Y-13789246D01*
X14762920Y-13789246D02*
X14772444Y-13741627D01*
X14772444Y-13741627D02*
X14781968Y-13713055D01*
X14781968Y-13713055D02*
X14791491Y-13694008D01*
X14791491Y-13694008D02*
X14810539Y-13665436D01*
X14810539Y-13665436D02*
X14820063Y-13655912D01*
X14886729Y-13703531D02*
X14896253Y-13694008D01*
X14896253Y-13694008D02*
X14915301Y-13684484D01*
X14915301Y-13684484D02*
X14962920Y-13684484D01*
X14962920Y-13684484D02*
X14981968Y-13694008D01*
X14981968Y-13694008D02*
X14991491Y-13703531D01*
X14991491Y-13703531D02*
X15001015Y-13722579D01*
X15001015Y-13722579D02*
X15001015Y-13741627D01*
X15001015Y-13741627D02*
X14991491Y-13770198D01*
X14991491Y-13770198D02*
X14877206Y-13884484D01*
X14877206Y-13884484D02*
X15001015Y-13884484D01*
X15239110Y-13884484D02*
X15239110Y-13684484D01*
X15324825Y-13884484D02*
X15324825Y-13779722D01*
X15324825Y-13779722D02*
X15315301Y-13760674D01*
X15315301Y-13760674D02*
X15296253Y-13751150D01*
X15296253Y-13751150D02*
X15267682Y-13751150D01*
X15267682Y-13751150D02*
X15248634Y-13760674D01*
X15248634Y-13760674D02*
X15239110Y-13770198D01*
X15448634Y-13884484D02*
X15429587Y-13874960D01*
X15429587Y-13874960D02*
X15420063Y-13865436D01*
X15420063Y-13865436D02*
X15410539Y-13846388D01*
X15410539Y-13846388D02*
X15410539Y-13789246D01*
X15410539Y-13789246D02*
X15420063Y-13770198D01*
X15420063Y-13770198D02*
X15429587Y-13760674D01*
X15429587Y-13760674D02*
X15448634Y-13751150D01*
X15448634Y-13751150D02*
X15477206Y-13751150D01*
X15477206Y-13751150D02*
X15496253Y-13760674D01*
X15496253Y-13760674D02*
X15505777Y-13770198D01*
X15505777Y-13770198D02*
X15515301Y-13789246D01*
X15515301Y-13789246D02*
X15515301Y-13846388D01*
X15515301Y-13846388D02*
X15505777Y-13865436D01*
X15505777Y-13865436D02*
X15496253Y-13874960D01*
X15496253Y-13874960D02*
X15477206Y-13884484D01*
X15477206Y-13884484D02*
X15448634Y-13884484D01*
X15629587Y-13884484D02*
X15610539Y-13874960D01*
X15610539Y-13874960D02*
X15601015Y-13855912D01*
X15601015Y-13855912D02*
X15601015Y-13684484D01*
X15781968Y-13874960D02*
X15762920Y-13884484D01*
X15762920Y-13884484D02*
X15724825Y-13884484D01*
X15724825Y-13884484D02*
X15705777Y-13874960D01*
X15705777Y-13874960D02*
X15696253Y-13855912D01*
X15696253Y-13855912D02*
X15696253Y-13779722D01*
X15696253Y-13779722D02*
X15705777Y-13760674D01*
X15705777Y-13760674D02*
X15724825Y-13751150D01*
X15724825Y-13751150D02*
X15762920Y-13751150D01*
X15762920Y-13751150D02*
X15781968Y-13760674D01*
X15781968Y-13760674D02*
X15791491Y-13779722D01*
X15791491Y-13779722D02*
X15791491Y-13798769D01*
X15791491Y-13798769D02*
X15696253Y-13817817D01*
X15867682Y-13874960D02*
X15886730Y-13884484D01*
X15886730Y-13884484D02*
X15924825Y-13884484D01*
X15924825Y-13884484D02*
X15943872Y-13874960D01*
X15943872Y-13874960D02*
X15953396Y-13855912D01*
X15953396Y-13855912D02*
X15953396Y-13846388D01*
X15953396Y-13846388D02*
X15943872Y-13827341D01*
X15943872Y-13827341D02*
X15924825Y-13817817D01*
X15924825Y-13817817D02*
X15896253Y-13817817D01*
X15896253Y-13817817D02*
X15877206Y-13808293D01*
X15877206Y-13808293D02*
X15867682Y-13789246D01*
X15867682Y-13789246D02*
X15867682Y-13779722D01*
X15867682Y-13779722D02*
X15877206Y-13760674D01*
X15877206Y-13760674D02*
X15896253Y-13751150D01*
X15896253Y-13751150D02*
X15924825Y-13751150D01*
X15924825Y-13751150D02*
X15943872Y-13760674D01*
X16020063Y-13960674D02*
X16029587Y-13951150D01*
X16029587Y-13951150D02*
X16048634Y-13922579D01*
X16048634Y-13922579D02*
X16058158Y-13903531D01*
X16058158Y-13903531D02*
X16067682Y-13874960D01*
X16067682Y-13874960D02*
X16077206Y-13827341D01*
X16077206Y-13827341D02*
X16077206Y-13789246D01*
X16077206Y-13789246D02*
X16067682Y-13741627D01*
X16067682Y-13741627D02*
X16058158Y-13713055D01*
X16058158Y-13713055D02*
X16048634Y-13694008D01*
X16048634Y-13694008D02*
X16029587Y-13665436D01*
X16029587Y-13665436D02*
X16020063Y-13655912D01*
X11045000Y-14013000D02*
X11245000Y-14213000D01*
X11245000Y-14013000D02*
X11045000Y-14213000D01*
X11145000Y-14213000D02*
X11245000Y-14113000D01*
X11145000Y-14013000D01*
X11045000Y-14113000D01*
X11145000Y-14213000D01*
X11486729Y-14004484D02*
X11610539Y-14004484D01*
X11610539Y-14004484D02*
X11543872Y-14080674D01*
X11543872Y-14080674D02*
X11572443Y-14080674D01*
X11572443Y-14080674D02*
X11591491Y-14090198D01*
X11591491Y-14090198D02*
X11601015Y-14099722D01*
X11601015Y-14099722D02*
X11610539Y-14118769D01*
X11610539Y-14118769D02*
X11610539Y-14166388D01*
X11610539Y-14166388D02*
X11601015Y-14185436D01*
X11601015Y-14185436D02*
X11591491Y-14194960D01*
X11591491Y-14194960D02*
X11572443Y-14204484D01*
X11572443Y-14204484D02*
X11515301Y-14204484D01*
X11515301Y-14204484D02*
X11496253Y-14194960D01*
X11496253Y-14194960D02*
X11486729Y-14185436D01*
X11696253Y-14185436D02*
X11705777Y-14194960D01*
X11705777Y-14194960D02*
X11696253Y-14204484D01*
X11696253Y-14204484D02*
X11686729Y-14194960D01*
X11686729Y-14194960D02*
X11696253Y-14185436D01*
X11696253Y-14185436D02*
X11696253Y-14204484D01*
X11781967Y-14023531D02*
X11791491Y-14014008D01*
X11791491Y-14014008D02*
X11810539Y-14004484D01*
X11810539Y-14004484D02*
X11858158Y-14004484D01*
X11858158Y-14004484D02*
X11877205Y-14014008D01*
X11877205Y-14014008D02*
X11886729Y-14023531D01*
X11886729Y-14023531D02*
X11896253Y-14042579D01*
X11896253Y-14042579D02*
X11896253Y-14061627D01*
X11896253Y-14061627D02*
X11886729Y-14090198D01*
X11886729Y-14090198D02*
X11772443Y-14204484D01*
X11772443Y-14204484D02*
X11896253Y-14204484D01*
X12020062Y-14004484D02*
X12039110Y-14004484D01*
X12039110Y-14004484D02*
X12058158Y-14014008D01*
X12058158Y-14014008D02*
X12067682Y-14023531D01*
X12067682Y-14023531D02*
X12077205Y-14042579D01*
X12077205Y-14042579D02*
X12086729Y-14080674D01*
X12086729Y-14080674D02*
X12086729Y-14128293D01*
X12086729Y-14128293D02*
X12077205Y-14166388D01*
X12077205Y-14166388D02*
X12067682Y-14185436D01*
X12067682Y-14185436D02*
X12058158Y-14194960D01*
X12058158Y-14194960D02*
X12039110Y-14204484D01*
X12039110Y-14204484D02*
X12020062Y-14204484D01*
X12020062Y-14204484D02*
X12001015Y-14194960D01*
X12001015Y-14194960D02*
X11991491Y-14185436D01*
X11991491Y-14185436D02*
X11981967Y-14166388D01*
X11981967Y-14166388D02*
X11972443Y-14128293D01*
X11972443Y-14128293D02*
X11972443Y-14080674D01*
X11972443Y-14080674D02*
X11981967Y-14042579D01*
X11981967Y-14042579D02*
X11991491Y-14023531D01*
X11991491Y-14023531D02*
X12001015Y-14014008D01*
X12001015Y-14014008D02*
X12020062Y-14004484D01*
X12210539Y-14004484D02*
X12229586Y-14004484D01*
X12229586Y-14004484D02*
X12248634Y-14014008D01*
X12248634Y-14014008D02*
X12258158Y-14023531D01*
X12258158Y-14023531D02*
X12267682Y-14042579D01*
X12267682Y-14042579D02*
X12277205Y-14080674D01*
X12277205Y-14080674D02*
X12277205Y-14128293D01*
X12277205Y-14128293D02*
X12267682Y-14166388D01*
X12267682Y-14166388D02*
X12258158Y-14185436D01*
X12258158Y-14185436D02*
X12248634Y-14194960D01*
X12248634Y-14194960D02*
X12229586Y-14204484D01*
X12229586Y-14204484D02*
X12210539Y-14204484D01*
X12210539Y-14204484D02*
X12191491Y-14194960D01*
X12191491Y-14194960D02*
X12181967Y-14185436D01*
X12181967Y-14185436D02*
X12172443Y-14166388D01*
X12172443Y-14166388D02*
X12162920Y-14128293D01*
X12162920Y-14128293D02*
X12162920Y-14080674D01*
X12162920Y-14080674D02*
X12172443Y-14042579D01*
X12172443Y-14042579D02*
X12181967Y-14023531D01*
X12181967Y-14023531D02*
X12191491Y-14014008D01*
X12191491Y-14014008D02*
X12210539Y-14004484D01*
X12362920Y-14204484D02*
X12362920Y-14071150D01*
X12362920Y-14090198D02*
X12372443Y-14080674D01*
X12372443Y-14080674D02*
X12391491Y-14071150D01*
X12391491Y-14071150D02*
X12420063Y-14071150D01*
X12420063Y-14071150D02*
X12439110Y-14080674D01*
X12439110Y-14080674D02*
X12448634Y-14099722D01*
X12448634Y-14099722D02*
X12448634Y-14204484D01*
X12448634Y-14099722D02*
X12458158Y-14080674D01*
X12458158Y-14080674D02*
X12477205Y-14071150D01*
X12477205Y-14071150D02*
X12505777Y-14071150D01*
X12505777Y-14071150D02*
X12524824Y-14080674D01*
X12524824Y-14080674D02*
X12534348Y-14099722D01*
X12534348Y-14099722D02*
X12534348Y-14204484D01*
X12629586Y-14204484D02*
X12629586Y-14071150D01*
X12629586Y-14090198D02*
X12639110Y-14080674D01*
X12639110Y-14080674D02*
X12658158Y-14071150D01*
X12658158Y-14071150D02*
X12686729Y-14071150D01*
X12686729Y-14071150D02*
X12705777Y-14080674D01*
X12705777Y-14080674D02*
X12715301Y-14099722D01*
X12715301Y-14099722D02*
X12715301Y-14204484D01*
X12715301Y-14099722D02*
X12724824Y-14080674D01*
X12724824Y-14080674D02*
X12743872Y-14071150D01*
X12743872Y-14071150D02*
X12772443Y-14071150D01*
X12772443Y-14071150D02*
X12791491Y-14080674D01*
X12791491Y-14080674D02*
X12801015Y-14099722D01*
X12801015Y-14099722D02*
X12801015Y-14204484D01*
X13191491Y-13994960D02*
X13020063Y-14252103D01*
X13448634Y-14004484D02*
X13467682Y-14004484D01*
X13467682Y-14004484D02*
X13486729Y-14014008D01*
X13486729Y-14014008D02*
X13496253Y-14023531D01*
X13496253Y-14023531D02*
X13505777Y-14042579D01*
X13505777Y-14042579D02*
X13515301Y-14080674D01*
X13515301Y-14080674D02*
X13515301Y-14128293D01*
X13515301Y-14128293D02*
X13505777Y-14166388D01*
X13505777Y-14166388D02*
X13496253Y-14185436D01*
X13496253Y-14185436D02*
X13486729Y-14194960D01*
X13486729Y-14194960D02*
X13467682Y-14204484D01*
X13467682Y-14204484D02*
X13448634Y-14204484D01*
X13448634Y-14204484D02*
X13429586Y-14194960D01*
X13429586Y-14194960D02*
X13420063Y-14185436D01*
X13420063Y-14185436D02*
X13410539Y-14166388D01*
X13410539Y-14166388D02*
X13401015Y-14128293D01*
X13401015Y-14128293D02*
X13401015Y-14080674D01*
X13401015Y-14080674D02*
X13410539Y-14042579D01*
X13410539Y-14042579D02*
X13420063Y-14023531D01*
X13420063Y-14023531D02*
X13429586Y-14014008D01*
X13429586Y-14014008D02*
X13448634Y-14004484D01*
X13601015Y-14185436D02*
X13610539Y-14194960D01*
X13610539Y-14194960D02*
X13601015Y-14204484D01*
X13601015Y-14204484D02*
X13591491Y-14194960D01*
X13591491Y-14194960D02*
X13601015Y-14185436D01*
X13601015Y-14185436D02*
X13601015Y-14204484D01*
X13801015Y-14204484D02*
X13686729Y-14204484D01*
X13743872Y-14204484D02*
X13743872Y-14004484D01*
X13743872Y-14004484D02*
X13724825Y-14033055D01*
X13724825Y-14033055D02*
X13705777Y-14052103D01*
X13705777Y-14052103D02*
X13686729Y-14061627D01*
X13877206Y-14023531D02*
X13886729Y-14014008D01*
X13886729Y-14014008D02*
X13905777Y-14004484D01*
X13905777Y-14004484D02*
X13953396Y-14004484D01*
X13953396Y-14004484D02*
X13972444Y-14014008D01*
X13972444Y-14014008D02*
X13981967Y-14023531D01*
X13981967Y-14023531D02*
X13991491Y-14042579D01*
X13991491Y-14042579D02*
X13991491Y-14061627D01*
X13991491Y-14061627D02*
X13981967Y-14090198D01*
X13981967Y-14090198D02*
X13867682Y-14204484D01*
X13867682Y-14204484D02*
X13991491Y-14204484D01*
X14162920Y-14004484D02*
X14124825Y-14004484D01*
X14124825Y-14004484D02*
X14105777Y-14014008D01*
X14105777Y-14014008D02*
X14096253Y-14023531D01*
X14096253Y-14023531D02*
X14077206Y-14052103D01*
X14077206Y-14052103D02*
X14067682Y-14090198D01*
X14067682Y-14090198D02*
X14067682Y-14166388D01*
X14067682Y-14166388D02*
X14077206Y-14185436D01*
X14077206Y-14185436D02*
X14086729Y-14194960D01*
X14086729Y-14194960D02*
X14105777Y-14204484D01*
X14105777Y-14204484D02*
X14143872Y-14204484D01*
X14143872Y-14204484D02*
X14162920Y-14194960D01*
X14162920Y-14194960D02*
X14172444Y-14185436D01*
X14172444Y-14185436D02*
X14181967Y-14166388D01*
X14181967Y-14166388D02*
X14181967Y-14118769D01*
X14181967Y-14118769D02*
X14172444Y-14099722D01*
X14172444Y-14099722D02*
X14162920Y-14090198D01*
X14162920Y-14090198D02*
X14143872Y-14080674D01*
X14143872Y-14080674D02*
X14105777Y-14080674D01*
X14105777Y-14080674D02*
X14086729Y-14090198D01*
X14086729Y-14090198D02*
X14077206Y-14099722D01*
X14077206Y-14099722D02*
X14067682Y-14118769D01*
X14305777Y-14004484D02*
X14324825Y-14004484D01*
X14324825Y-14004484D02*
X14343872Y-14014008D01*
X14343872Y-14014008D02*
X14353396Y-14023531D01*
X14353396Y-14023531D02*
X14362920Y-14042579D01*
X14362920Y-14042579D02*
X14372444Y-14080674D01*
X14372444Y-14080674D02*
X14372444Y-14128293D01*
X14372444Y-14128293D02*
X14362920Y-14166388D01*
X14362920Y-14166388D02*
X14353396Y-14185436D01*
X14353396Y-14185436D02*
X14343872Y-14194960D01*
X14343872Y-14194960D02*
X14324825Y-14204484D01*
X14324825Y-14204484D02*
X14305777Y-14204484D01*
X14305777Y-14204484D02*
X14286729Y-14194960D01*
X14286729Y-14194960D02*
X14277206Y-14185436D01*
X14277206Y-14185436D02*
X14267682Y-14166388D01*
X14267682Y-14166388D02*
X14258158Y-14128293D01*
X14258158Y-14128293D02*
X14258158Y-14080674D01*
X14258158Y-14080674D02*
X14267682Y-14042579D01*
X14267682Y-14042579D02*
X14277206Y-14023531D01*
X14277206Y-14023531D02*
X14286729Y-14014008D01*
X14286729Y-14014008D02*
X14305777Y-14004484D01*
X14448634Y-14004484D02*
X14448634Y-14042579D01*
X14524825Y-14004484D02*
X14524825Y-14042579D01*
X14820063Y-14280674D02*
X14810539Y-14271150D01*
X14810539Y-14271150D02*
X14791491Y-14242579D01*
X14791491Y-14242579D02*
X14781968Y-14223531D01*
X14781968Y-14223531D02*
X14772444Y-14194960D01*
X14772444Y-14194960D02*
X14762920Y-14147341D01*
X14762920Y-14147341D02*
X14762920Y-14109246D01*
X14762920Y-14109246D02*
X14772444Y-14061627D01*
X14772444Y-14061627D02*
X14781968Y-14033055D01*
X14781968Y-14033055D02*
X14791491Y-14014008D01*
X14791491Y-14014008D02*
X14810539Y-13985436D01*
X14810539Y-13985436D02*
X14820063Y-13975912D01*
X14981968Y-14071150D02*
X14981968Y-14204484D01*
X14934348Y-13994960D02*
X14886729Y-14137817D01*
X14886729Y-14137817D02*
X15010539Y-14137817D01*
X15239110Y-14204484D02*
X15239110Y-14004484D01*
X15324825Y-14204484D02*
X15324825Y-14099722D01*
X15324825Y-14099722D02*
X15315301Y-14080674D01*
X15315301Y-14080674D02*
X15296253Y-14071150D01*
X15296253Y-14071150D02*
X15267682Y-14071150D01*
X15267682Y-14071150D02*
X15248634Y-14080674D01*
X15248634Y-14080674D02*
X15239110Y-14090198D01*
X15448634Y-14204484D02*
X15429587Y-14194960D01*
X15429587Y-14194960D02*
X15420063Y-14185436D01*
X15420063Y-14185436D02*
X15410539Y-14166388D01*
X15410539Y-14166388D02*
X15410539Y-14109246D01*
X15410539Y-14109246D02*
X15420063Y-14090198D01*
X15420063Y-14090198D02*
X15429587Y-14080674D01*
X15429587Y-14080674D02*
X15448634Y-14071150D01*
X15448634Y-14071150D02*
X15477206Y-14071150D01*
X15477206Y-14071150D02*
X15496253Y-14080674D01*
X15496253Y-14080674D02*
X15505777Y-14090198D01*
X15505777Y-14090198D02*
X15515301Y-14109246D01*
X15515301Y-14109246D02*
X15515301Y-14166388D01*
X15515301Y-14166388D02*
X15505777Y-14185436D01*
X15505777Y-14185436D02*
X15496253Y-14194960D01*
X15496253Y-14194960D02*
X15477206Y-14204484D01*
X15477206Y-14204484D02*
X15448634Y-14204484D01*
X15629587Y-14204484D02*
X15610539Y-14194960D01*
X15610539Y-14194960D02*
X15601015Y-14175912D01*
X15601015Y-14175912D02*
X15601015Y-14004484D01*
X15781968Y-14194960D02*
X15762920Y-14204484D01*
X15762920Y-14204484D02*
X15724825Y-14204484D01*
X15724825Y-14204484D02*
X15705777Y-14194960D01*
X15705777Y-14194960D02*
X15696253Y-14175912D01*
X15696253Y-14175912D02*
X15696253Y-14099722D01*
X15696253Y-14099722D02*
X15705777Y-14080674D01*
X15705777Y-14080674D02*
X15724825Y-14071150D01*
X15724825Y-14071150D02*
X15762920Y-14071150D01*
X15762920Y-14071150D02*
X15781968Y-14080674D01*
X15781968Y-14080674D02*
X15791491Y-14099722D01*
X15791491Y-14099722D02*
X15791491Y-14118769D01*
X15791491Y-14118769D02*
X15696253Y-14137817D01*
X15867682Y-14194960D02*
X15886730Y-14204484D01*
X15886730Y-14204484D02*
X15924825Y-14204484D01*
X15924825Y-14204484D02*
X15943872Y-14194960D01*
X15943872Y-14194960D02*
X15953396Y-14175912D01*
X15953396Y-14175912D02*
X15953396Y-14166388D01*
X15953396Y-14166388D02*
X15943872Y-14147341D01*
X15943872Y-14147341D02*
X15924825Y-14137817D01*
X15924825Y-14137817D02*
X15896253Y-14137817D01*
X15896253Y-14137817D02*
X15877206Y-14128293D01*
X15877206Y-14128293D02*
X15867682Y-14109246D01*
X15867682Y-14109246D02*
X15867682Y-14099722D01*
X15867682Y-14099722D02*
X15877206Y-14080674D01*
X15877206Y-14080674D02*
X15896253Y-14071150D01*
X15896253Y-14071150D02*
X15924825Y-14071150D01*
X15924825Y-14071150D02*
X15943872Y-14080674D01*
X16020063Y-14280674D02*
X16029587Y-14271150D01*
X16029587Y-14271150D02*
X16048634Y-14242579D01*
X16048634Y-14242579D02*
X16058158Y-14223531D01*
X16058158Y-14223531D02*
X16067682Y-14194960D01*
X16067682Y-14194960D02*
X16077206Y-14147341D01*
X16077206Y-14147341D02*
X16077206Y-14109246D01*
X16077206Y-14109246D02*
X16067682Y-14061627D01*
X16067682Y-14061627D02*
X16058158Y-14033055D01*
X16058158Y-14033055D02*
X16048634Y-14014008D01*
X16048634Y-14014008D02*
X16029587Y-13985436D01*
X16029587Y-13985436D02*
X16020063Y-13975912D01*
X16381968Y-14280674D02*
X16372444Y-14271150D01*
X16372444Y-14271150D02*
X16353396Y-14242579D01*
X16353396Y-14242579D02*
X16343872Y-14223531D01*
X16343872Y-14223531D02*
X16334349Y-14194960D01*
X16334349Y-14194960D02*
X16324825Y-14147341D01*
X16324825Y-14147341D02*
X16324825Y-14109246D01*
X16324825Y-14109246D02*
X16334349Y-14061627D01*
X16334349Y-14061627D02*
X16343872Y-14033055D01*
X16343872Y-14033055D02*
X16353396Y-14014008D01*
X16353396Y-14014008D02*
X16372444Y-13985436D01*
X16372444Y-13985436D02*
X16381968Y-13975912D01*
X16458158Y-14071150D02*
X16458158Y-14204484D01*
X16458158Y-14090198D02*
X16467682Y-14080674D01*
X16467682Y-14080674D02*
X16486730Y-14071150D01*
X16486730Y-14071150D02*
X16515301Y-14071150D01*
X16515301Y-14071150D02*
X16534349Y-14080674D01*
X16534349Y-14080674D02*
X16543872Y-14099722D01*
X16543872Y-14099722D02*
X16543872Y-14204484D01*
X16667682Y-14204484D02*
X16648634Y-14194960D01*
X16648634Y-14194960D02*
X16639111Y-14185436D01*
X16639111Y-14185436D02*
X16629587Y-14166388D01*
X16629587Y-14166388D02*
X16629587Y-14109246D01*
X16629587Y-14109246D02*
X16639111Y-14090198D01*
X16639111Y-14090198D02*
X16648634Y-14080674D01*
X16648634Y-14080674D02*
X16667682Y-14071150D01*
X16667682Y-14071150D02*
X16696253Y-14071150D01*
X16696253Y-14071150D02*
X16715301Y-14080674D01*
X16715301Y-14080674D02*
X16724825Y-14090198D01*
X16724825Y-14090198D02*
X16734349Y-14109246D01*
X16734349Y-14109246D02*
X16734349Y-14166388D01*
X16734349Y-14166388D02*
X16724825Y-14185436D01*
X16724825Y-14185436D02*
X16715301Y-14194960D01*
X16715301Y-14194960D02*
X16696253Y-14204484D01*
X16696253Y-14204484D02*
X16667682Y-14204484D01*
X16791492Y-14071150D02*
X16867682Y-14071150D01*
X16820063Y-14004484D02*
X16820063Y-14175912D01*
X16820063Y-14175912D02*
X16829587Y-14194960D01*
X16829587Y-14194960D02*
X16848634Y-14204484D01*
X16848634Y-14204484D02*
X16867682Y-14204484D01*
X17086730Y-14071150D02*
X17086730Y-14271150D01*
X17086730Y-14080674D02*
X17105777Y-14071150D01*
X17105777Y-14071150D02*
X17143873Y-14071150D01*
X17143873Y-14071150D02*
X17162920Y-14080674D01*
X17162920Y-14080674D02*
X17172444Y-14090198D01*
X17172444Y-14090198D02*
X17181968Y-14109246D01*
X17181968Y-14109246D02*
X17181968Y-14166388D01*
X17181968Y-14166388D02*
X17172444Y-14185436D01*
X17172444Y-14185436D02*
X17162920Y-14194960D01*
X17162920Y-14194960D02*
X17143873Y-14204484D01*
X17143873Y-14204484D02*
X17105777Y-14204484D01*
X17105777Y-14204484D02*
X17086730Y-14194960D01*
X17296254Y-14204484D02*
X17277206Y-14194960D01*
X17277206Y-14194960D02*
X17267682Y-14175912D01*
X17267682Y-14175912D02*
X17267682Y-14004484D01*
X17458158Y-14204484D02*
X17458158Y-14099722D01*
X17458158Y-14099722D02*
X17448635Y-14080674D01*
X17448635Y-14080674D02*
X17429587Y-14071150D01*
X17429587Y-14071150D02*
X17391492Y-14071150D01*
X17391492Y-14071150D02*
X17372444Y-14080674D01*
X17458158Y-14194960D02*
X17439111Y-14204484D01*
X17439111Y-14204484D02*
X17391492Y-14204484D01*
X17391492Y-14204484D02*
X17372444Y-14194960D01*
X17372444Y-14194960D02*
X17362920Y-14175912D01*
X17362920Y-14175912D02*
X17362920Y-14156865D01*
X17362920Y-14156865D02*
X17372444Y-14137817D01*
X17372444Y-14137817D02*
X17391492Y-14128293D01*
X17391492Y-14128293D02*
X17439111Y-14128293D01*
X17439111Y-14128293D02*
X17458158Y-14118769D01*
X17524825Y-14071150D02*
X17601015Y-14071150D01*
X17553396Y-14004484D02*
X17553396Y-14175912D01*
X17553396Y-14175912D02*
X17562920Y-14194960D01*
X17562920Y-14194960D02*
X17581968Y-14204484D01*
X17581968Y-14204484D02*
X17601015Y-14204484D01*
X17743873Y-14194960D02*
X17724825Y-14204484D01*
X17724825Y-14204484D02*
X17686730Y-14204484D01*
X17686730Y-14204484D02*
X17667682Y-14194960D01*
X17667682Y-14194960D02*
X17658158Y-14175912D01*
X17658158Y-14175912D02*
X17658158Y-14099722D01*
X17658158Y-14099722D02*
X17667682Y-14080674D01*
X17667682Y-14080674D02*
X17686730Y-14071150D01*
X17686730Y-14071150D02*
X17724825Y-14071150D01*
X17724825Y-14071150D02*
X17743873Y-14080674D01*
X17743873Y-14080674D02*
X17753396Y-14099722D01*
X17753396Y-14099722D02*
X17753396Y-14118769D01*
X17753396Y-14118769D02*
X17658158Y-14137817D01*
X17924825Y-14204484D02*
X17924825Y-14004484D01*
X17924825Y-14194960D02*
X17905777Y-14204484D01*
X17905777Y-14204484D02*
X17867682Y-14204484D01*
X17867682Y-14204484D02*
X17848635Y-14194960D01*
X17848635Y-14194960D02*
X17839111Y-14185436D01*
X17839111Y-14185436D02*
X17829587Y-14166388D01*
X17829587Y-14166388D02*
X17829587Y-14109246D01*
X17829587Y-14109246D02*
X17839111Y-14090198D01*
X17839111Y-14090198D02*
X17848635Y-14080674D01*
X17848635Y-14080674D02*
X17867682Y-14071150D01*
X17867682Y-14071150D02*
X17905777Y-14071150D01*
X17905777Y-14071150D02*
X17924825Y-14080674D01*
X18001016Y-14280674D02*
X18010539Y-14271150D01*
X18010539Y-14271150D02*
X18029587Y-14242579D01*
X18029587Y-14242579D02*
X18039111Y-14223531D01*
X18039111Y-14223531D02*
X18048635Y-14194960D01*
X18048635Y-14194960D02*
X18058158Y-14147341D01*
X18058158Y-14147341D02*
X18058158Y-14109246D01*
X18058158Y-14109246D02*
X18048635Y-14061627D01*
X18048635Y-14061627D02*
X18039111Y-14033055D01*
X18039111Y-14033055D02*
X18029587Y-14014008D01*
X18029587Y-14014008D02*
X18010539Y-13985436D01*
X18010539Y-13985436D02*
X18001016Y-13975912D01*
X11145000Y-14333000D02*
X11145000Y-14533000D01*
X11045000Y-14433000D02*
X11245000Y-14433000D01*
X11245000Y-14433000D02*
G75*
G02*
X11045000Y-14433000I-100000J0D01*
G01*
X11045000Y-14433000D02*
G75*
G02*
X11245000Y-14433000I100000J0D01*
G01*
X11486729Y-14324484D02*
X11610539Y-14324484D01*
X11610539Y-14324484D02*
X11543872Y-14400674D01*
X11543872Y-14400674D02*
X11572443Y-14400674D01*
X11572443Y-14400674D02*
X11591491Y-14410198D01*
X11591491Y-14410198D02*
X11601015Y-14419722D01*
X11601015Y-14419722D02*
X11610539Y-14438769D01*
X11610539Y-14438769D02*
X11610539Y-14486388D01*
X11610539Y-14486388D02*
X11601015Y-14505436D01*
X11601015Y-14505436D02*
X11591491Y-14514960D01*
X11591491Y-14514960D02*
X11572443Y-14524484D01*
X11572443Y-14524484D02*
X11515301Y-14524484D01*
X11515301Y-14524484D02*
X11496253Y-14514960D01*
X11496253Y-14514960D02*
X11486729Y-14505436D01*
X11696253Y-14505436D02*
X11705777Y-14514960D01*
X11705777Y-14514960D02*
X11696253Y-14524484D01*
X11696253Y-14524484D02*
X11686729Y-14514960D01*
X11686729Y-14514960D02*
X11696253Y-14505436D01*
X11696253Y-14505436D02*
X11696253Y-14524484D01*
X11886729Y-14324484D02*
X11791491Y-14324484D01*
X11791491Y-14324484D02*
X11781967Y-14419722D01*
X11781967Y-14419722D02*
X11791491Y-14410198D01*
X11791491Y-14410198D02*
X11810539Y-14400674D01*
X11810539Y-14400674D02*
X11858158Y-14400674D01*
X11858158Y-14400674D02*
X11877205Y-14410198D01*
X11877205Y-14410198D02*
X11886729Y-14419722D01*
X11886729Y-14419722D02*
X11896253Y-14438769D01*
X11896253Y-14438769D02*
X11896253Y-14486388D01*
X11896253Y-14486388D02*
X11886729Y-14505436D01*
X11886729Y-14505436D02*
X11877205Y-14514960D01*
X11877205Y-14514960D02*
X11858158Y-14524484D01*
X11858158Y-14524484D02*
X11810539Y-14524484D01*
X11810539Y-14524484D02*
X11791491Y-14514960D01*
X11791491Y-14514960D02*
X11781967Y-14505436D01*
X12020062Y-14324484D02*
X12039110Y-14324484D01*
X12039110Y-14324484D02*
X12058158Y-14334008D01*
X12058158Y-14334008D02*
X12067682Y-14343531D01*
X12067682Y-14343531D02*
X12077205Y-14362579D01*
X12077205Y-14362579D02*
X12086729Y-14400674D01*
X12086729Y-14400674D02*
X12086729Y-14448293D01*
X12086729Y-14448293D02*
X12077205Y-14486388D01*
X12077205Y-14486388D02*
X12067682Y-14505436D01*
X12067682Y-14505436D02*
X12058158Y-14514960D01*
X12058158Y-14514960D02*
X12039110Y-14524484D01*
X12039110Y-14524484D02*
X12020062Y-14524484D01*
X12020062Y-14524484D02*
X12001015Y-14514960D01*
X12001015Y-14514960D02*
X11991491Y-14505436D01*
X11991491Y-14505436D02*
X11981967Y-14486388D01*
X11981967Y-14486388D02*
X11972443Y-14448293D01*
X11972443Y-14448293D02*
X11972443Y-14400674D01*
X11972443Y-14400674D02*
X11981967Y-14362579D01*
X11981967Y-14362579D02*
X11991491Y-14343531D01*
X11991491Y-14343531D02*
X12001015Y-14334008D01*
X12001015Y-14334008D02*
X12020062Y-14324484D01*
X12210539Y-14324484D02*
X12229586Y-14324484D01*
X12229586Y-14324484D02*
X12248634Y-14334008D01*
X12248634Y-14334008D02*
X12258158Y-14343531D01*
X12258158Y-14343531D02*
X12267682Y-14362579D01*
X12267682Y-14362579D02*
X12277205Y-14400674D01*
X12277205Y-14400674D02*
X12277205Y-14448293D01*
X12277205Y-14448293D02*
X12267682Y-14486388D01*
X12267682Y-14486388D02*
X12258158Y-14505436D01*
X12258158Y-14505436D02*
X12248634Y-14514960D01*
X12248634Y-14514960D02*
X12229586Y-14524484D01*
X12229586Y-14524484D02*
X12210539Y-14524484D01*
X12210539Y-14524484D02*
X12191491Y-14514960D01*
X12191491Y-14514960D02*
X12181967Y-14505436D01*
X12181967Y-14505436D02*
X12172443Y-14486388D01*
X12172443Y-14486388D02*
X12162920Y-14448293D01*
X12162920Y-14448293D02*
X12162920Y-14400674D01*
X12162920Y-14400674D02*
X12172443Y-14362579D01*
X12172443Y-14362579D02*
X12181967Y-14343531D01*
X12181967Y-14343531D02*
X12191491Y-14334008D01*
X12191491Y-14334008D02*
X12210539Y-14324484D01*
X12362920Y-14524484D02*
X12362920Y-14391150D01*
X12362920Y-14410198D02*
X12372443Y-14400674D01*
X12372443Y-14400674D02*
X12391491Y-14391150D01*
X12391491Y-14391150D02*
X12420063Y-14391150D01*
X12420063Y-14391150D02*
X12439110Y-14400674D01*
X12439110Y-14400674D02*
X12448634Y-14419722D01*
X12448634Y-14419722D02*
X12448634Y-14524484D01*
X12448634Y-14419722D02*
X12458158Y-14400674D01*
X12458158Y-14400674D02*
X12477205Y-14391150D01*
X12477205Y-14391150D02*
X12505777Y-14391150D01*
X12505777Y-14391150D02*
X12524824Y-14400674D01*
X12524824Y-14400674D02*
X12534348Y-14419722D01*
X12534348Y-14419722D02*
X12534348Y-14524484D01*
X12629586Y-14524484D02*
X12629586Y-14391150D01*
X12629586Y-14410198D02*
X12639110Y-14400674D01*
X12639110Y-14400674D02*
X12658158Y-14391150D01*
X12658158Y-14391150D02*
X12686729Y-14391150D01*
X12686729Y-14391150D02*
X12705777Y-14400674D01*
X12705777Y-14400674D02*
X12715301Y-14419722D01*
X12715301Y-14419722D02*
X12715301Y-14524484D01*
X12715301Y-14419722D02*
X12724824Y-14400674D01*
X12724824Y-14400674D02*
X12743872Y-14391150D01*
X12743872Y-14391150D02*
X12772443Y-14391150D01*
X12772443Y-14391150D02*
X12791491Y-14400674D01*
X12791491Y-14400674D02*
X12801015Y-14419722D01*
X12801015Y-14419722D02*
X12801015Y-14524484D01*
X13191491Y-14314960D02*
X13020063Y-14572103D01*
X13448634Y-14324484D02*
X13467682Y-14324484D01*
X13467682Y-14324484D02*
X13486729Y-14334008D01*
X13486729Y-14334008D02*
X13496253Y-14343531D01*
X13496253Y-14343531D02*
X13505777Y-14362579D01*
X13505777Y-14362579D02*
X13515301Y-14400674D01*
X13515301Y-14400674D02*
X13515301Y-14448293D01*
X13515301Y-14448293D02*
X13505777Y-14486388D01*
X13505777Y-14486388D02*
X13496253Y-14505436D01*
X13496253Y-14505436D02*
X13486729Y-14514960D01*
X13486729Y-14514960D02*
X13467682Y-14524484D01*
X13467682Y-14524484D02*
X13448634Y-14524484D01*
X13448634Y-14524484D02*
X13429586Y-14514960D01*
X13429586Y-14514960D02*
X13420063Y-14505436D01*
X13420063Y-14505436D02*
X13410539Y-14486388D01*
X13410539Y-14486388D02*
X13401015Y-14448293D01*
X13401015Y-14448293D02*
X13401015Y-14400674D01*
X13401015Y-14400674D02*
X13410539Y-14362579D01*
X13410539Y-14362579D02*
X13420063Y-14343531D01*
X13420063Y-14343531D02*
X13429586Y-14334008D01*
X13429586Y-14334008D02*
X13448634Y-14324484D01*
X13601015Y-14505436D02*
X13610539Y-14514960D01*
X13610539Y-14514960D02*
X13601015Y-14524484D01*
X13601015Y-14524484D02*
X13591491Y-14514960D01*
X13591491Y-14514960D02*
X13601015Y-14505436D01*
X13601015Y-14505436D02*
X13601015Y-14524484D01*
X13801015Y-14524484D02*
X13686729Y-14524484D01*
X13743872Y-14524484D02*
X13743872Y-14324484D01*
X13743872Y-14324484D02*
X13724825Y-14353055D01*
X13724825Y-14353055D02*
X13705777Y-14372103D01*
X13705777Y-14372103D02*
X13686729Y-14381627D01*
X13867682Y-14324484D02*
X13991491Y-14324484D01*
X13991491Y-14324484D02*
X13924825Y-14400674D01*
X13924825Y-14400674D02*
X13953396Y-14400674D01*
X13953396Y-14400674D02*
X13972444Y-14410198D01*
X13972444Y-14410198D02*
X13981967Y-14419722D01*
X13981967Y-14419722D02*
X13991491Y-14438769D01*
X13991491Y-14438769D02*
X13991491Y-14486388D01*
X13991491Y-14486388D02*
X13981967Y-14505436D01*
X13981967Y-14505436D02*
X13972444Y-14514960D01*
X13972444Y-14514960D02*
X13953396Y-14524484D01*
X13953396Y-14524484D02*
X13896253Y-14524484D01*
X13896253Y-14524484D02*
X13877206Y-14514960D01*
X13877206Y-14514960D02*
X13867682Y-14505436D01*
X14058158Y-14324484D02*
X14191491Y-14324484D01*
X14191491Y-14324484D02*
X14105777Y-14524484D01*
X14296253Y-14410198D02*
X14277206Y-14400674D01*
X14277206Y-14400674D02*
X14267682Y-14391150D01*
X14267682Y-14391150D02*
X14258158Y-14372103D01*
X14258158Y-14372103D02*
X14258158Y-14362579D01*
X14258158Y-14362579D02*
X14267682Y-14343531D01*
X14267682Y-14343531D02*
X14277206Y-14334008D01*
X14277206Y-14334008D02*
X14296253Y-14324484D01*
X14296253Y-14324484D02*
X14334348Y-14324484D01*
X14334348Y-14324484D02*
X14353396Y-14334008D01*
X14353396Y-14334008D02*
X14362920Y-14343531D01*
X14362920Y-14343531D02*
X14372444Y-14362579D01*
X14372444Y-14362579D02*
X14372444Y-14372103D01*
X14372444Y-14372103D02*
X14362920Y-14391150D01*
X14362920Y-14391150D02*
X14353396Y-14400674D01*
X14353396Y-14400674D02*
X14334348Y-14410198D01*
X14334348Y-14410198D02*
X14296253Y-14410198D01*
X14296253Y-14410198D02*
X14277206Y-14419722D01*
X14277206Y-14419722D02*
X14267682Y-14429246D01*
X14267682Y-14429246D02*
X14258158Y-14448293D01*
X14258158Y-14448293D02*
X14258158Y-14486388D01*
X14258158Y-14486388D02*
X14267682Y-14505436D01*
X14267682Y-14505436D02*
X14277206Y-14514960D01*
X14277206Y-14514960D02*
X14296253Y-14524484D01*
X14296253Y-14524484D02*
X14334348Y-14524484D01*
X14334348Y-14524484D02*
X14353396Y-14514960D01*
X14353396Y-14514960D02*
X14362920Y-14505436D01*
X14362920Y-14505436D02*
X14372444Y-14486388D01*
X14372444Y-14486388D02*
X14372444Y-14448293D01*
X14372444Y-14448293D02*
X14362920Y-14429246D01*
X14362920Y-14429246D02*
X14353396Y-14419722D01*
X14353396Y-14419722D02*
X14334348Y-14410198D01*
X14448634Y-14324484D02*
X14448634Y-14362579D01*
X14524825Y-14324484D02*
X14524825Y-14362579D01*
X14820063Y-14600674D02*
X14810539Y-14591150D01*
X14810539Y-14591150D02*
X14791491Y-14562579D01*
X14791491Y-14562579D02*
X14781968Y-14543531D01*
X14781968Y-14543531D02*
X14772444Y-14514960D01*
X14772444Y-14514960D02*
X14762920Y-14467341D01*
X14762920Y-14467341D02*
X14762920Y-14429246D01*
X14762920Y-14429246D02*
X14772444Y-14381627D01*
X14772444Y-14381627D02*
X14781968Y-14353055D01*
X14781968Y-14353055D02*
X14791491Y-14334008D01*
X14791491Y-14334008D02*
X14810539Y-14305436D01*
X14810539Y-14305436D02*
X14820063Y-14295912D01*
X15001015Y-14524484D02*
X14886729Y-14524484D01*
X14943872Y-14524484D02*
X14943872Y-14324484D01*
X14943872Y-14324484D02*
X14924825Y-14353055D01*
X14924825Y-14353055D02*
X14905777Y-14372103D01*
X14905777Y-14372103D02*
X14886729Y-14381627D01*
X15239110Y-14524484D02*
X15239110Y-14324484D01*
X15324825Y-14524484D02*
X15324825Y-14419722D01*
X15324825Y-14419722D02*
X15315301Y-14400674D01*
X15315301Y-14400674D02*
X15296253Y-14391150D01*
X15296253Y-14391150D02*
X15267682Y-14391150D01*
X15267682Y-14391150D02*
X15248634Y-14400674D01*
X15248634Y-14400674D02*
X15239110Y-14410198D01*
X15448634Y-14524484D02*
X15429587Y-14514960D01*
X15429587Y-14514960D02*
X15420063Y-14505436D01*
X15420063Y-14505436D02*
X15410539Y-14486388D01*
X15410539Y-14486388D02*
X15410539Y-14429246D01*
X15410539Y-14429246D02*
X15420063Y-14410198D01*
X15420063Y-14410198D02*
X15429587Y-14400674D01*
X15429587Y-14400674D02*
X15448634Y-14391150D01*
X15448634Y-14391150D02*
X15477206Y-14391150D01*
X15477206Y-14391150D02*
X15496253Y-14400674D01*
X15496253Y-14400674D02*
X15505777Y-14410198D01*
X15505777Y-14410198D02*
X15515301Y-14429246D01*
X15515301Y-14429246D02*
X15515301Y-14486388D01*
X15515301Y-14486388D02*
X15505777Y-14505436D01*
X15505777Y-14505436D02*
X15496253Y-14514960D01*
X15496253Y-14514960D02*
X15477206Y-14524484D01*
X15477206Y-14524484D02*
X15448634Y-14524484D01*
X15629587Y-14524484D02*
X15610539Y-14514960D01*
X15610539Y-14514960D02*
X15601015Y-14495912D01*
X15601015Y-14495912D02*
X15601015Y-14324484D01*
X15781968Y-14514960D02*
X15762920Y-14524484D01*
X15762920Y-14524484D02*
X15724825Y-14524484D01*
X15724825Y-14524484D02*
X15705777Y-14514960D01*
X15705777Y-14514960D02*
X15696253Y-14495912D01*
X15696253Y-14495912D02*
X15696253Y-14419722D01*
X15696253Y-14419722D02*
X15705777Y-14400674D01*
X15705777Y-14400674D02*
X15724825Y-14391150D01*
X15724825Y-14391150D02*
X15762920Y-14391150D01*
X15762920Y-14391150D02*
X15781968Y-14400674D01*
X15781968Y-14400674D02*
X15791491Y-14419722D01*
X15791491Y-14419722D02*
X15791491Y-14438769D01*
X15791491Y-14438769D02*
X15696253Y-14457817D01*
X15858158Y-14600674D02*
X15867682Y-14591150D01*
X15867682Y-14591150D02*
X15886730Y-14562579D01*
X15886730Y-14562579D02*
X15896253Y-14543531D01*
X15896253Y-14543531D02*
X15905777Y-14514960D01*
X15905777Y-14514960D02*
X15915301Y-14467341D01*
X15915301Y-14467341D02*
X15915301Y-14429246D01*
X15915301Y-14429246D02*
X15905777Y-14381627D01*
X15905777Y-14381627D02*
X15896253Y-14353055D01*
X15896253Y-14353055D02*
X15886730Y-14334008D01*
X15886730Y-14334008D02*
X15867682Y-14305436D01*
X15867682Y-14305436D02*
X15858158Y-14295912D01*
X16220063Y-14600674D02*
X16210539Y-14591150D01*
X16210539Y-14591150D02*
X16191491Y-14562579D01*
X16191491Y-14562579D02*
X16181968Y-14543531D01*
X16181968Y-14543531D02*
X16172444Y-14514960D01*
X16172444Y-14514960D02*
X16162920Y-14467341D01*
X16162920Y-14467341D02*
X16162920Y-14429246D01*
X16162920Y-14429246D02*
X16172444Y-14381627D01*
X16172444Y-14381627D02*
X16181968Y-14353055D01*
X16181968Y-14353055D02*
X16191491Y-14334008D01*
X16191491Y-14334008D02*
X16210539Y-14305436D01*
X16210539Y-14305436D02*
X16220063Y-14295912D01*
X16296253Y-14391150D02*
X16296253Y-14524484D01*
X16296253Y-14410198D02*
X16305777Y-14400674D01*
X16305777Y-14400674D02*
X16324825Y-14391150D01*
X16324825Y-14391150D02*
X16353396Y-14391150D01*
X16353396Y-14391150D02*
X16372444Y-14400674D01*
X16372444Y-14400674D02*
X16381968Y-14419722D01*
X16381968Y-14419722D02*
X16381968Y-14524484D01*
X16505777Y-14524484D02*
X16486730Y-14514960D01*
X16486730Y-14514960D02*
X16477206Y-14505436D01*
X16477206Y-14505436D02*
X16467682Y-14486388D01*
X16467682Y-14486388D02*
X16467682Y-14429246D01*
X16467682Y-14429246D02*
X16477206Y-14410198D01*
X16477206Y-14410198D02*
X16486730Y-14400674D01*
X16486730Y-14400674D02*
X16505777Y-14391150D01*
X16505777Y-14391150D02*
X16534349Y-14391150D01*
X16534349Y-14391150D02*
X16553396Y-14400674D01*
X16553396Y-14400674D02*
X16562920Y-14410198D01*
X16562920Y-14410198D02*
X16572444Y-14429246D01*
X16572444Y-14429246D02*
X16572444Y-14486388D01*
X16572444Y-14486388D02*
X16562920Y-14505436D01*
X16562920Y-14505436D02*
X16553396Y-14514960D01*
X16553396Y-14514960D02*
X16534349Y-14524484D01*
X16534349Y-14524484D02*
X16505777Y-14524484D01*
X16629587Y-14391150D02*
X16705777Y-14391150D01*
X16658158Y-14324484D02*
X16658158Y-14495912D01*
X16658158Y-14495912D02*
X16667682Y-14514960D01*
X16667682Y-14514960D02*
X16686730Y-14524484D01*
X16686730Y-14524484D02*
X16705777Y-14524484D01*
X16924825Y-14391150D02*
X16924825Y-14591150D01*
X16924825Y-14400674D02*
X16943873Y-14391150D01*
X16943873Y-14391150D02*
X16981968Y-14391150D01*
X16981968Y-14391150D02*
X17001015Y-14400674D01*
X17001015Y-14400674D02*
X17010539Y-14410198D01*
X17010539Y-14410198D02*
X17020063Y-14429246D01*
X17020063Y-14429246D02*
X17020063Y-14486388D01*
X17020063Y-14486388D02*
X17010539Y-14505436D01*
X17010539Y-14505436D02*
X17001015Y-14514960D01*
X17001015Y-14514960D02*
X16981968Y-14524484D01*
X16981968Y-14524484D02*
X16943873Y-14524484D01*
X16943873Y-14524484D02*
X16924825Y-14514960D01*
X17134349Y-14524484D02*
X17115301Y-14514960D01*
X17115301Y-14514960D02*
X17105777Y-14495912D01*
X17105777Y-14495912D02*
X17105777Y-14324484D01*
X17296254Y-14524484D02*
X17296254Y-14419722D01*
X17296254Y-14419722D02*
X17286730Y-14400674D01*
X17286730Y-14400674D02*
X17267682Y-14391150D01*
X17267682Y-14391150D02*
X17229587Y-14391150D01*
X17229587Y-14391150D02*
X17210539Y-14400674D01*
X17296254Y-14514960D02*
X17277206Y-14524484D01*
X17277206Y-14524484D02*
X17229587Y-14524484D01*
X17229587Y-14524484D02*
X17210539Y-14514960D01*
X17210539Y-14514960D02*
X17201015Y-14495912D01*
X17201015Y-14495912D02*
X17201015Y-14476865D01*
X17201015Y-14476865D02*
X17210539Y-14457817D01*
X17210539Y-14457817D02*
X17229587Y-14448293D01*
X17229587Y-14448293D02*
X17277206Y-14448293D01*
X17277206Y-14448293D02*
X17296254Y-14438769D01*
X17362920Y-14391150D02*
X17439111Y-14391150D01*
X17391492Y-14324484D02*
X17391492Y-14495912D01*
X17391492Y-14495912D02*
X17401015Y-14514960D01*
X17401015Y-14514960D02*
X17420063Y-14524484D01*
X17420063Y-14524484D02*
X17439111Y-14524484D01*
X17581968Y-14514960D02*
X17562920Y-14524484D01*
X17562920Y-14524484D02*
X17524825Y-14524484D01*
X17524825Y-14524484D02*
X17505777Y-14514960D01*
X17505777Y-14514960D02*
X17496254Y-14495912D01*
X17496254Y-14495912D02*
X17496254Y-14419722D01*
X17496254Y-14419722D02*
X17505777Y-14400674D01*
X17505777Y-14400674D02*
X17524825Y-14391150D01*
X17524825Y-14391150D02*
X17562920Y-14391150D01*
X17562920Y-14391150D02*
X17581968Y-14400674D01*
X17581968Y-14400674D02*
X17591492Y-14419722D01*
X17591492Y-14419722D02*
X17591492Y-14438769D01*
X17591492Y-14438769D02*
X17496254Y-14457817D01*
X17762920Y-14524484D02*
X17762920Y-14324484D01*
X17762920Y-14514960D02*
X17743873Y-14524484D01*
X17743873Y-14524484D02*
X17705777Y-14524484D01*
X17705777Y-14524484D02*
X17686730Y-14514960D01*
X17686730Y-14514960D02*
X17677206Y-14505436D01*
X17677206Y-14505436D02*
X17667682Y-14486388D01*
X17667682Y-14486388D02*
X17667682Y-14429246D01*
X17667682Y-14429246D02*
X17677206Y-14410198D01*
X17677206Y-14410198D02*
X17686730Y-14400674D01*
X17686730Y-14400674D02*
X17705777Y-14391150D01*
X17705777Y-14391150D02*
X17743873Y-14391150D01*
X17743873Y-14391150D02*
X17762920Y-14400674D01*
X17839111Y-14600674D02*
X17848635Y-14591150D01*
X17848635Y-14591150D02*
X17867682Y-14562579D01*
X17867682Y-14562579D02*
X17877206Y-14543531D01*
X17877206Y-14543531D02*
X17886730Y-14514960D01*
X17886730Y-14514960D02*
X17896254Y-14467341D01*
X17896254Y-14467341D02*
X17896254Y-14429246D01*
X17896254Y-14429246D02*
X17886730Y-14381627D01*
X17886730Y-14381627D02*
X17877206Y-14353055D01*
X17877206Y-14353055D02*
X17867682Y-14334008D01*
X17867682Y-14334008D02*
X17848635Y-14305436D01*
X17848635Y-14305436D02*
X17839111Y-14295912D01*
M02*
