%TF.GenerationSoftware,KiCad,Pcbnew,8.0.5*%
%TF.CreationDate,2024-10-04T09:10:30+03:00*%
%TF.ProjectId,shutter,73687574-7465-4722-9e6b-696361645f70,rev?*%
%TF.SameCoordinates,Original*%
%TF.FileFunction,Copper,L1,Top*%
%TF.FilePolarity,Positive*%
%FSLAX46Y46*%
G04 Gerber Fmt 4.6, Leading zero omitted, Abs format (unit mm)*
G04 Created by KiCad (PCBNEW 8.0.5) date 2024-10-04 09:10:30*
%MOMM*%
%LPD*%
G01*
G04 APERTURE LIST*
G04 Aperture macros list*
%AMRoundRect*
0 Rectangle with rounded corners*
0 $1 Rounding radius*
0 $2 $3 $4 $5 $6 $7 $8 $9 X,Y pos of 4 corners*
0 Add a 4 corners polygon primitive as box body*
4,1,4,$2,$3,$4,$5,$6,$7,$8,$9,$2,$3,0*
0 Add four circle primitives for the rounded corners*
1,1,$1+$1,$2,$3*
1,1,$1+$1,$4,$5*
1,1,$1+$1,$6,$7*
1,1,$1+$1,$8,$9*
0 Add four rect primitives between the rounded corners*
20,1,$1+$1,$2,$3,$4,$5,0*
20,1,$1+$1,$4,$5,$6,$7,0*
20,1,$1+$1,$6,$7,$8,$9,0*
20,1,$1+$1,$8,$9,$2,$3,0*%
%AMOutline4P*
0 Free polygon, 4 corners , with rotation*
0 The origin of the aperture is its center*
0 number of corners: always 4*
0 $1 to $8 corner X, Y*
0 $9 Rotation angle, in degrees counterclockwise*
0 create outline with 4 corners*
4,1,4,$1,$2,$3,$4,$5,$6,$7,$8,$1,$2,$9*%
G04 Aperture macros list end*
%TA.AperFunction,SMDPad,CuDef*%
%ADD10RoundRect,0.237500X-0.237500X0.300000X-0.237500X-0.300000X0.237500X-0.300000X0.237500X0.300000X0*%
%TD*%
%TA.AperFunction,SMDPad,CuDef*%
%ADD11RoundRect,0.237500X0.237500X-0.300000X0.237500X0.300000X-0.237500X0.300000X-0.237500X-0.300000X0*%
%TD*%
%TA.AperFunction,SMDPad,CuDef*%
%ADD12R,1.000000X1.000000*%
%TD*%
%TA.AperFunction,SMDPad,CuDef*%
%ADD13RoundRect,0.237500X-0.250000X-0.237500X0.250000X-0.237500X0.250000X0.237500X-0.250000X0.237500X0*%
%TD*%
%TA.AperFunction,SMDPad,CuDef*%
%ADD14RoundRect,0.237500X0.250000X0.237500X-0.250000X0.237500X-0.250000X-0.237500X0.250000X-0.237500X0*%
%TD*%
%TA.AperFunction,SMDPad,CuDef*%
%ADD15RoundRect,0.237500X0.237500X-0.250000X0.237500X0.250000X-0.237500X0.250000X-0.237500X-0.250000X0*%
%TD*%
%TA.AperFunction,ComponentPad*%
%ADD16R,1.700000X1.700000*%
%TD*%
%TA.AperFunction,SMDPad,CuDef*%
%ADD17R,2.400000X2.000000*%
%TD*%
%TA.AperFunction,SMDPad,CuDef*%
%ADD18RoundRect,0.250000X-0.875000X-0.925000X0.875000X-0.925000X0.875000X0.925000X-0.875000X0.925000X0*%
%TD*%
%TA.AperFunction,SMDPad,CuDef*%
%ADD19RoundRect,0.070000X-0.667500X-0.070000X0.667500X-0.070000X0.667500X0.070000X-0.667500X0.070000X0*%
%TD*%
%TA.AperFunction,SMDPad,CuDef*%
%ADD20RoundRect,0.070000X-0.070000X-0.667500X0.070000X-0.667500X0.070000X0.667500X-0.070000X0.667500X0*%
%TD*%
%TA.AperFunction,SMDPad,CuDef*%
%ADD21RoundRect,0.237500X-0.300000X-0.237500X0.300000X-0.237500X0.300000X0.237500X-0.300000X0.237500X0*%
%TD*%
%TA.AperFunction,SMDPad,CuDef*%
%ADD22R,1.560000X0.650000*%
%TD*%
%TA.AperFunction,SMDPad,CuDef*%
%ADD23Outline4P,-1.800000X-1.150000X1.800000X-0.550000X1.800000X0.550000X-1.800000X1.150000X90.000000*%
%TD*%
%TA.AperFunction,SMDPad,CuDef*%
%ADD24Outline4P,-1.800000X-1.150000X1.800000X-0.550000X1.800000X0.550000X-1.800000X1.150000X270.000000*%
%TD*%
%TA.AperFunction,SMDPad,CuDef*%
%ADD25RoundRect,0.237500X-0.237500X0.250000X-0.237500X-0.250000X0.237500X-0.250000X0.237500X0.250000X0*%
%TD*%
%TA.AperFunction,SMDPad,CuDef*%
%ADD26Outline4P,-2.150000X-1.800000X2.150000X-0.800000X2.150000X0.800000X-2.150000X1.800000X0.000000*%
%TD*%
%TA.AperFunction,SMDPad,CuDef*%
%ADD27Outline4P,-2.150000X-1.800000X2.150000X-0.800000X2.150000X0.800000X-2.150000X1.800000X180.000000*%
%TD*%
%TA.AperFunction,ComponentPad*%
%ADD28R,1.000000X1.000000*%
%TD*%
%TA.AperFunction,ComponentPad*%
%ADD29O,1.000000X1.000000*%
%TD*%
%TA.AperFunction,SMDPad,CuDef*%
%ADD30R,2.000000X1.500000*%
%TD*%
%TA.AperFunction,SMDPad,CuDef*%
%ADD31R,2.000000X3.800000*%
%TD*%
%TA.AperFunction,SMDPad,CuDef*%
%ADD32RoundRect,0.250000X-0.475000X0.337500X-0.475000X-0.337500X0.475000X-0.337500X0.475000X0.337500X0*%
%TD*%
%TA.AperFunction,SMDPad,CuDef*%
%ADD33RoundRect,0.237500X0.300000X0.237500X-0.300000X0.237500X-0.300000X-0.237500X0.300000X-0.237500X0*%
%TD*%
%TA.AperFunction,SMDPad,CuDef*%
%ADD34RoundRect,0.250000X-0.325000X-0.450000X0.325000X-0.450000X0.325000X0.450000X-0.325000X0.450000X0*%
%TD*%
%TA.AperFunction,SMDPad,CuDef*%
%ADD35RoundRect,0.250000X0.250000X-0.250000X0.250000X0.250000X-0.250000X0.250000X-0.250000X-0.250000X0*%
%TD*%
%TA.AperFunction,SMDPad,CuDef*%
%ADD36RoundRect,0.250000X0.250000X0.250000X-0.250000X0.250000X-0.250000X-0.250000X0.250000X-0.250000X0*%
%TD*%
%TA.AperFunction,SMDPad,CuDef*%
%ADD37R,0.450000X1.500000*%
%TD*%
%TA.AperFunction,ComponentPad*%
%ADD38R,1.905000X2.000000*%
%TD*%
%TA.AperFunction,ComponentPad*%
%ADD39O,1.905000X2.000000*%
%TD*%
%TA.AperFunction,ComponentPad*%
%ADD40RoundRect,0.250000X0.350000X0.625000X-0.350000X0.625000X-0.350000X-0.625000X0.350000X-0.625000X0*%
%TD*%
%TA.AperFunction,ComponentPad*%
%ADD41O,1.200000X1.750000*%
%TD*%
%TA.AperFunction,ComponentPad*%
%ADD42RoundRect,0.250000X-0.350000X-0.625000X0.350000X-0.625000X0.350000X0.625000X-0.350000X0.625000X0*%
%TD*%
%TA.AperFunction,ComponentPad*%
%ADD43R,1.600000X1.600000*%
%TD*%
%TA.AperFunction,ComponentPad*%
%ADD44C,1.600000*%
%TD*%
%TA.AperFunction,ComponentPad*%
%ADD45C,4.000000*%
%TD*%
%TA.AperFunction,ComponentPad*%
%ADD46O,1.700000X1.700000*%
%TD*%
%TA.AperFunction,ComponentPad*%
%ADD47RoundRect,0.250000X0.625000X-0.350000X0.625000X0.350000X-0.625000X0.350000X-0.625000X-0.350000X0*%
%TD*%
%TA.AperFunction,ComponentPad*%
%ADD48O,1.750000X1.200000*%
%TD*%
%TA.AperFunction,ComponentPad*%
%ADD49R,2.600000X2.600000*%
%TD*%
%TA.AperFunction,ComponentPad*%
%ADD50C,2.600000*%
%TD*%
%TA.AperFunction,ViaPad*%
%ADD51C,1.200000*%
%TD*%
%TA.AperFunction,ViaPad*%
%ADD52C,1.000000*%
%TD*%
%TA.AperFunction,Conductor*%
%ADD53C,0.300000*%
%TD*%
%TA.AperFunction,Conductor*%
%ADD54C,0.200000*%
%TD*%
%TA.AperFunction,Conductor*%
%ADD55C,1.000000*%
%TD*%
%TA.AperFunction,Conductor*%
%ADD56C,0.280000*%
%TD*%
%TA.AperFunction,Conductor*%
%ADD57C,0.500000*%
%TD*%
%TA.AperFunction,Profile*%
%ADD58C,0.100000*%
%TD*%
G04 APERTURE END LIST*
D10*
%TO.P,C9,1*%
%TO.N,/OSC_OUT*%
X134594600Y-89867400D03*
%TO.P,C9,2*%
%TO.N,GND*%
X134594600Y-91592400D03*
%TD*%
D11*
%TO.P,C7,1*%
%TO.N,+3V3*%
X140030200Y-81176200D03*
%TO.P,C7,2*%
%TO.N,GND*%
X140030200Y-79451200D03*
%TD*%
D12*
%TO.P,D3,1,K*%
%TO.N,+3V3*%
X139050000Y-94080000D03*
%TO.P,D3,2,A*%
%TO.N,/SHTR_V*%
X136550000Y-94080000D03*
%TD*%
D13*
%TO.P,R5,1*%
%TO.N,/SHTRpow*%
X134725400Y-107950000D03*
%TO.P,R5,2*%
%TO.N,/SHTR_V*%
X136550400Y-107950000D03*
%TD*%
%TO.P,R9,1*%
%TO.N,Net-(Q1-G)*%
X128781800Y-92913200D03*
%TO.P,R9,2*%
%TO.N,/PWM*%
X130606800Y-92913200D03*
%TD*%
D14*
%TO.P,R3,1*%
%TO.N,+3V3*%
X162814000Y-110236000D03*
%TO.P,R3,2*%
%TO.N,Net-(J2-Pin_3)*%
X160989000Y-110236000D03*
%TD*%
D15*
%TO.P,R12,1*%
%TO.N,/USBDP*%
X159207200Y-89507700D03*
%TO.P,R12,2*%
%TO.N,Net-(Q2-C)*%
X159207200Y-87682700D03*
%TD*%
D16*
%TO.P,J8,1,Pin_1*%
%TO.N,+3V3*%
X162814000Y-104394000D03*
%TD*%
%TO.P,J6,1,Pin_1*%
%TO.N,/5V*%
X153924000Y-72390000D03*
%TD*%
D17*
%TO.P,Y1,1,1*%
%TO.N,/OSC_IN*%
X134594600Y-83900400D03*
%TO.P,Y1,2,2*%
%TO.N,/OSC_OUT*%
X134594600Y-87600400D03*
%TD*%
D18*
%TO.P,C3,1*%
%TO.N,+3V3*%
X155438000Y-93370400D03*
%TO.P,C3,2*%
%TO.N,GND*%
X160538000Y-93370400D03*
%TD*%
D19*
%TO.P,U2,1,VBAT*%
%TO.N,+3V3*%
X140312500Y-83500000D03*
%TO.P,U2,2,PC13*%
%TO.N,unconnected-(U2-PC13-Pad2)*%
X140312500Y-84000000D03*
%TO.P,U2,3,PC14*%
%TO.N,unconnected-(U2-PC14-Pad3)*%
X140312500Y-84500000D03*
%TO.P,U2,4,PC15*%
%TO.N,unconnected-(U2-PC15-Pad4)*%
X140312500Y-85000000D03*
%TO.P,U2,5,PD0*%
%TO.N,/OSC_IN*%
X140312500Y-85500000D03*
%TO.P,U2,6,PD1*%
%TO.N,/OSC_OUT*%
X140312500Y-86000000D03*
%TO.P,U2,7,NRST*%
%TO.N,/NRST*%
X140312500Y-86500000D03*
%TO.P,U2,8,VSSA*%
%TO.N,GND*%
X140312500Y-87000000D03*
%TO.P,U2,9,VDDA*%
%TO.N,+3V3*%
X140312500Y-87500000D03*
%TO.P,U2,10,PA0*%
%TO.N,unconnected-(U2-PA0-Pad10)*%
X140312500Y-88000000D03*
%TO.P,U2,11,PA1*%
%TO.N,unconnected-(U2-PA1-Pad11)*%
X140312500Y-88500000D03*
%TO.P,U2,12,PA2*%
%TO.N,unconnected-(U2-PA2-Pad12)*%
X140312500Y-89000000D03*
D20*
%TO.P,U2,13,PA3*%
%TO.N,/SHTR_V*%
X141725000Y-90412500D03*
%TO.P,U2,14,PA4*%
%TO.N,unconnected-(U2-PA4-Pad14)*%
X142225000Y-90412500D03*
%TO.P,U2,15,PA5*%
%TO.N,unconnected-(U2-PA5-Pad15)*%
X142725000Y-90412500D03*
%TO.P,U2,16,PA6*%
%TO.N,unconnected-(U2-PA6-Pad16)*%
X143225000Y-90412500D03*
%TO.P,U2,17,PA7*%
%TO.N,unconnected-(U2-PA7-Pad17)*%
X143725000Y-90412500D03*
%TO.P,U2,18,PB0*%
%TO.N,unconnected-(U2-PB0-Pad18)*%
X144225000Y-90412500D03*
%TO.P,U2,19,PB1*%
%TO.N,unconnected-(U2-PB1-Pad19)*%
X144725000Y-90412500D03*
%TO.P,U2,20,PB2*%
%TO.N,unconnected-(U2-PB2-Pad20)*%
X145225000Y-90412500D03*
%TO.P,U2,21,PB10*%
%TO.N,/CCD*%
X145725000Y-90412500D03*
%TO.P,U2,22,PB11*%
%TO.N,/PWM*%
X146225000Y-90412500D03*
%TO.P,U2,23,VSS*%
%TO.N,GND*%
X146725000Y-90412500D03*
%TO.P,U2,24,VDD*%
%TO.N,+3V3*%
X147225000Y-90412500D03*
D19*
%TO.P,U2,25,PB12*%
%TO.N,/LimSW*%
X148637500Y-89000000D03*
%TO.P,U2,26,PB13*%
%TO.N,/USB_PU*%
X148637500Y-88500000D03*
%TO.P,U2,27,PB14*%
%TO.N,unconnected-(U2-PB14-Pad27)*%
X148637500Y-88000000D03*
%TO.P,U2,28,PB15*%
%TO.N,unconnected-(U2-PB15-Pad28)*%
X148637500Y-87500000D03*
%TO.P,U2,29,PA8*%
%TO.N,unconnected-(U2-PA8-Pad29)*%
X148637500Y-87000000D03*
%TO.P,U2,30,PA9*%
%TO.N,/Tx*%
X148637500Y-86500000D03*
%TO.P,U2,31,PA10*%
%TO.N,/Rx*%
X148637500Y-86000000D03*
%TO.P,U2,32,PA11*%
%TO.N,/USBDM*%
X148637500Y-85500000D03*
%TO.P,U2,33,PA12*%
%TO.N,/USBDP*%
X148637500Y-85000000D03*
%TO.P,U2,34,PA13*%
%TO.N,/SWDIO*%
X148637500Y-84500000D03*
%TO.P,U2,35,VSS*%
%TO.N,GND*%
X148637500Y-84000000D03*
%TO.P,U2,36,VDD*%
%TO.N,+3V3*%
X148637500Y-83500000D03*
D20*
%TO.P,U2,37,PA14*%
%TO.N,/SWCLK*%
X147225000Y-82087500D03*
%TO.P,U2,38,PA15*%
%TO.N,unconnected-(U2-PA15-Pad38)*%
X146725000Y-82087500D03*
%TO.P,U2,39,PB3*%
%TO.N,unconnected-(U2-PB3-Pad39)*%
X146225000Y-82087500D03*
%TO.P,U2,40,PB4*%
%TO.N,unconnected-(U2-PB4-Pad40)*%
X145725000Y-82087500D03*
%TO.P,U2,41,PB5*%
%TO.N,unconnected-(U2-PB5-Pad41)*%
X145225000Y-82087500D03*
%TO.P,U2,42,PB6*%
%TO.N,unconnected-(U2-PB6-Pad42)*%
X144725000Y-82087500D03*
%TO.P,U2,43,PB7*%
%TO.N,unconnected-(U2-PB7-Pad43)*%
X144225000Y-82087500D03*
%TO.P,U2,44,BOOT0*%
%TO.N,/BOOT0*%
X143725000Y-82087500D03*
%TO.P,U2,45,PB8*%
%TO.N,unconnected-(U2-PB8-Pad45)*%
X143225000Y-82087500D03*
%TO.P,U2,46,PB9*%
%TO.N,unconnected-(U2-PB9-Pad46)*%
X142725000Y-82087500D03*
%TO.P,U2,47,VSS*%
%TO.N,GND*%
X142225000Y-82087500D03*
%TO.P,U2,48,VDD*%
%TO.N,+3V3*%
X141725000Y-82087500D03*
%TD*%
D14*
%TO.P,R4,1*%
%TO.N,/5V*%
X158496000Y-98552000D03*
%TO.P,R4,2*%
%TO.N,Net-(J2-Pin_2)*%
X156671000Y-98552000D03*
%TD*%
D10*
%TO.P,C5,1*%
%TO.N,+3V3*%
X150672800Y-90424000D03*
%TO.P,C5,2*%
%TO.N,GND*%
X150672800Y-92149000D03*
%TD*%
D21*
%TO.P,C2,1*%
%TO.N,+3V3*%
X165762600Y-103784400D03*
%TO.P,C2,2*%
%TO.N,GND*%
X167487600Y-103784400D03*
%TD*%
D22*
%TO.P,U3,1,I/O1*%
%TO.N,Net-(R11-Pad2)*%
X159500000Y-84900000D03*
%TO.P,U3,2,GND*%
%TO.N,GND*%
X159500000Y-83950000D03*
%TO.P,U3,3,I/O2*%
%TO.N,Net-(R10-Pad2)*%
X159500000Y-83000000D03*
%TO.P,U3,4,I/O2*%
%TO.N,/USBDP*%
X156800000Y-83000000D03*
%TO.P,U3,5,VBUS*%
%TO.N,/VBUS*%
X156800000Y-83950000D03*
%TO.P,U3,6,I/O1*%
%TO.N,/USBDM*%
X156800000Y-84900000D03*
%TD*%
D23*
%TO.P,D6,1,K*%
%TO.N,/SHTRpow*%
X116332000Y-88858000D03*
D24*
%TO.P,D6,2,A*%
%TO.N,/DR*%
X116332000Y-83058000D03*
%TD*%
D25*
%TO.P,R2,1*%
%TO.N,/CCD*%
X141732000Y-102870000D03*
%TO.P,R2,2*%
%TO.N,Net-(J1-Pin_2)*%
X141732000Y-104695000D03*
%TD*%
D11*
%TO.P,C8,1*%
%TO.N,/OSC_IN*%
X134594600Y-81557200D03*
%TO.P,C8,2*%
%TO.N,GND*%
X134594600Y-79832200D03*
%TD*%
D26*
%TO.P,D2,1,A1*%
%TO.N,/SHTRpow*%
X122124000Y-102616000D03*
D27*
%TO.P,D2,2,A2*%
%TO.N,GND*%
X128524000Y-102616000D03*
%TD*%
D14*
%TO.P,R10,1*%
%TO.N,Net-(J11-D+)*%
X163750000Y-83250000D03*
%TO.P,R10,2*%
%TO.N,Net-(R10-Pad2)*%
X161925000Y-83250000D03*
%TD*%
D28*
%TO.P,J4,1,Pin_1*%
%TO.N,/SWCLK*%
X148515000Y-74000000D03*
D29*
%TO.P,J4,2,Pin_2*%
%TO.N,/SWDIO*%
X147245000Y-74000000D03*
%TO.P,J4,3,Pin_3*%
%TO.N,GND*%
X145975000Y-74000000D03*
%TO.P,J4,4,Pin_4*%
%TO.N,Net-(J4-Pin_4)*%
X144705000Y-74000000D03*
%TO.P,J4,5,Pin_5*%
%TO.N,/BOOT0*%
X143435000Y-74000000D03*
%TO.P,J4,6,Pin_6*%
%TO.N,/NRST*%
X142165000Y-74000000D03*
%TD*%
D30*
%TO.P,U1,1,GND*%
%TO.N,GND*%
X167538400Y-101170800D03*
%TO.P,U1,2,VO*%
%TO.N,+3V3*%
X167538400Y-98870800D03*
D31*
X161238400Y-98870800D03*
D30*
%TO.P,U1,3,VI*%
%TO.N,/5V*%
X167538400Y-96570800D03*
%TD*%
D16*
%TO.P,J7,1,Pin_1*%
%TO.N,GND*%
X170942000Y-104394000D03*
%TD*%
D32*
%TO.P,C1,1*%
%TO.N,/5V*%
X171094400Y-97688400D03*
%TO.P,C1,2*%
%TO.N,GND*%
X171094400Y-99763400D03*
%TD*%
D13*
%TO.P,R1,1*%
%TO.N,+3V3*%
X142826100Y-77673200D03*
%TO.P,R1,2*%
%TO.N,Net-(J4-Pin_4)*%
X144651100Y-77673200D03*
%TD*%
D14*
%TO.P,R11,1*%
%TO.N,Net-(J11-D-)*%
X163750000Y-85000000D03*
%TO.P,R11,2*%
%TO.N,Net-(R11-Pad2)*%
X161925000Y-85000000D03*
%TD*%
D21*
%TO.P,C4,1*%
%TO.N,+3V3*%
X149633600Y-81737200D03*
%TO.P,C4,2*%
%TO.N,GND*%
X151358600Y-81737200D03*
%TD*%
D33*
%TO.P,C6,1*%
%TO.N,+3V3*%
X139037400Y-90728800D03*
%TO.P,C6,2*%
%TO.N,GND*%
X137312400Y-90728800D03*
%TD*%
D34*
%TO.P,D1,1,K*%
%TO.N,/CCD*%
X144000000Y-102870000D03*
%TO.P,D1,2,A*%
%TO.N,GND*%
X146050000Y-102870000D03*
%TD*%
D14*
%TO.P,R7,1*%
%TO.N,/BOOT0*%
X139975600Y-74041000D03*
%TO.P,R7,2*%
%TO.N,GND*%
X138150600Y-74041000D03*
%TD*%
%TO.P,R8,1*%
%TO.N,/PWM*%
X130606800Y-94640400D03*
%TO.P,R8,2*%
%TO.N,GND*%
X128781800Y-94640400D03*
%TD*%
D35*
%TO.P,D4,1,K*%
%TO.N,/5V*%
X165455600Y-91755600D03*
%TO.P,D4,2,A*%
%TO.N,/VBUS*%
X165455600Y-89255600D03*
%TD*%
D36*
%TO.P,D5,1,K*%
%TO.N,/5V*%
X163048000Y-77774800D03*
%TO.P,D5,2,A*%
%TO.N,Net-(D5-A)*%
X160548000Y-77774800D03*
%TD*%
D37*
%TO.P,Q2,1,B*%
%TO.N,/USB_PU*%
X156332400Y-90373200D03*
%TO.P,Q2,2,E*%
%TO.N,+3V3*%
X157632400Y-90373200D03*
%TO.P,Q2,3,C*%
%TO.N,Net-(Q2-C)*%
X156982400Y-87713200D03*
%TD*%
D13*
%TO.P,R6,1*%
%TO.N,/SHTR_V*%
X136545000Y-98510000D03*
%TO.P,R6,2*%
%TO.N,GND*%
X138370000Y-98510000D03*
%TD*%
D38*
%TO.P,Q1,1,G*%
%TO.N,Net-(Q1-G)*%
X128778000Y-90574000D03*
D39*
%TO.P,Q1,2,D*%
%TO.N,/DR*%
X126238000Y-90574000D03*
%TO.P,Q1,3,S*%
%TO.N,GND*%
X123698000Y-90574000D03*
%TD*%
D40*
%TO.P,J2,1,Pin_1*%
%TO.N,GND*%
X158242000Y-107950000D03*
D41*
%TO.P,J2,2,Pin_2*%
%TO.N,Net-(J2-Pin_2)*%
X156242000Y-107950000D03*
%TO.P,J2,3,Pin_3*%
%TO.N,Net-(J2-Pin_3)*%
X154242000Y-107950000D03*
%TO.P,J2,4,Pin_4*%
%TO.N,/LimSW*%
X152242000Y-107950000D03*
%TD*%
D42*
%TO.P,J5,1,Pin_1*%
%TO.N,GND*%
X158528000Y-75438000D03*
D41*
%TO.P,J5,2,Pin_2*%
%TO.N,Net-(D5-A)*%
X160528000Y-75438000D03*
%TD*%
D43*
%TO.P,J11,1,VBUS*%
%TO.N,/VBUS*%
X165462500Y-87500000D03*
D44*
%TO.P,J11,2,D-*%
%TO.N,Net-(J11-D-)*%
X165462500Y-85000000D03*
%TO.P,J11,3,D+*%
%TO.N,Net-(J11-D+)*%
X167462500Y-85000000D03*
%TO.P,J11,4,GND*%
%TO.N,GND*%
X167462500Y-87500000D03*
D45*
%TO.P,J11,5,Shield*%
X170322500Y-80250000D03*
X170322500Y-92250000D03*
%TD*%
D16*
%TO.P,J9,1,Pin_1*%
%TO.N,/Rx*%
X152501600Y-96113600D03*
D46*
%TO.P,J9,2,Pin_2*%
%TO.N,/Tx*%
X149961600Y-96113600D03*
%TO.P,J9,3,Pin_3*%
%TO.N,GND*%
X147421600Y-96113600D03*
%TD*%
D47*
%TO.P,J10,1,Pin_1*%
%TO.N,/SHTRpow*%
X117602000Y-97282000D03*
D48*
%TO.P,J10,2,Pin_2*%
%TO.N,/DR*%
X117602000Y-95282000D03*
%TD*%
D49*
%TO.P,J3,1,Pin_1*%
%TO.N,GND*%
X127623000Y-107916000D03*
D50*
%TO.P,J3,2,Pin_2*%
%TO.N,/SHTRpow*%
X122543000Y-107916000D03*
%TD*%
D40*
%TO.P,J1,1,Pin_1*%
%TO.N,GND*%
X143764000Y-107950000D03*
D41*
%TO.P,J1,2,Pin_2*%
%TO.N,Net-(J1-Pin_2)*%
X141764000Y-107950000D03*
%TD*%
D51*
%TO.N,GND*%
X136220200Y-92354400D03*
D52*
X135331200Y-73253600D03*
D51*
X142225000Y-79868000D03*
D52*
X147828000Y-99314000D03*
X154686000Y-78486000D03*
X165658800Y-107467400D03*
X160274000Y-105410000D03*
X160528000Y-90170000D03*
%TO.N,/5V*%
X158496000Y-97028000D03*
X163068000Y-79400000D03*
X163068000Y-92760800D03*
%TO.N,/SWDIO*%
X153000000Y-81750000D03*
X147250000Y-76000000D03*
%TO.N,/NRST*%
X137947400Y-86918800D03*
X139832500Y-76332500D03*
%TO.N,/LimSW*%
X154965400Y-90754200D03*
X152247600Y-104292400D03*
%TO.N,/USBDP*%
X155092400Y-87884000D03*
X155092400Y-83000000D03*
%TO.N,/Tx*%
X150723600Y-87020400D03*
%TO.N,/Rx*%
X153771600Y-86004400D03*
%TO.N,/PWM*%
X146608800Y-93218000D03*
X132486400Y-92964000D03*
%TD*%
D53*
%TO.N,GND*%
X134594600Y-77597000D02*
X136067800Y-76123800D01*
D54*
X137160000Y-75793600D02*
X136550400Y-75793600D01*
X136398000Y-75793600D02*
X137160000Y-75793600D01*
X138074400Y-75793600D02*
X137160000Y-75793600D01*
X136067800Y-76123800D02*
X136398000Y-75793600D01*
X138074400Y-74117200D02*
X138074400Y-75793600D01*
X138150600Y-74041000D02*
X138074400Y-74117200D01*
D53*
X135890000Y-90728800D02*
X135890000Y-91592400D01*
X134594600Y-96037400D02*
X134112000Y-96520000D01*
X151358600Y-81737200D02*
X151358600Y-80619600D01*
X151358600Y-80619600D02*
X151728200Y-80250000D01*
X145975000Y-72772200D02*
X145389600Y-72186800D01*
X146050000Y-109220000D02*
X146050000Y-107188000D01*
X135331200Y-73609200D02*
X135763000Y-74041000D01*
X138370000Y-108144000D02*
X140208000Y-109982000D01*
D54*
X137312400Y-88849200D02*
X137312400Y-90728800D01*
D55*
X128168400Y-105613200D02*
X127762000Y-106019600D01*
D53*
X137312400Y-90728800D02*
X135890000Y-90728800D01*
X158800800Y-105410000D02*
X158242000Y-105968800D01*
D56*
X146725000Y-90412500D02*
X146725000Y-91708600D01*
D53*
X145389600Y-72186800D02*
X138658600Y-72186800D01*
X147421600Y-96113600D02*
X147421600Y-94488000D01*
X158165800Y-83515200D02*
X158165800Y-81332800D01*
X159246600Y-80250000D02*
X158496000Y-80250000D01*
X145389600Y-72186800D02*
X150012400Y-72186800D01*
X128781800Y-96262200D02*
X128524000Y-96520000D01*
D55*
X126949200Y-97790000D02*
X123698000Y-97790000D01*
D53*
X160538000Y-90180000D02*
X160538000Y-93370400D01*
X165658800Y-107467400D02*
X167487600Y-105638600D01*
X167487600Y-103784400D02*
X167487600Y-101221600D01*
D55*
X127762000Y-107777000D02*
X127623000Y-107916000D01*
D56*
X149553000Y-84000000D02*
X151358600Y-82194400D01*
D53*
X147421600Y-94488000D02*
X149047200Y-94488000D01*
X134594600Y-91592400D02*
X134594600Y-96037400D01*
X135331200Y-73253600D02*
X135331200Y-73609200D01*
X167487600Y-101221600D02*
X167538400Y-101170800D01*
D55*
X123698000Y-97790000D02*
X123698000Y-96520000D01*
D53*
X171094400Y-99763400D02*
X172524600Y-99763400D01*
D55*
X128524000Y-102616000D02*
X128524000Y-105613200D01*
D53*
X138150600Y-72694800D02*
X138150600Y-74041000D01*
X155397200Y-75438000D02*
X154686000Y-76149200D01*
X146050000Y-107188000D02*
X145288000Y-107950000D01*
X150672800Y-92862400D02*
X150672800Y-92149000D01*
X158496000Y-80250000D02*
X156490000Y-80250000D01*
X169062400Y-103784400D02*
X169672000Y-104394000D01*
X140208000Y-109982000D02*
X145288000Y-109982000D01*
D55*
X128524000Y-99364800D02*
X126949200Y-97790000D01*
D53*
X152196800Y-74371200D02*
X150012400Y-72186800D01*
X145288000Y-107950000D02*
X143764000Y-107950000D01*
X156490000Y-80250000D02*
X152196800Y-80250000D01*
D55*
X128524000Y-105613200D02*
X128168400Y-105613200D01*
D53*
X172524600Y-94452100D02*
X170322500Y-92250000D01*
X136220200Y-92354400D02*
X136220200Y-91617800D01*
D54*
X139161600Y-87000000D02*
X137312400Y-88849200D01*
D53*
X158370000Y-81128600D02*
X158369000Y-81127600D01*
X154686000Y-76149200D02*
X154686000Y-78486000D01*
X145288000Y-109982000D02*
X146050000Y-109220000D01*
X158369000Y-81127600D02*
X159246600Y-80250000D01*
X147165400Y-92149000D02*
X150672800Y-92149000D01*
X158528000Y-75438000D02*
X155397200Y-75438000D01*
X138658600Y-72186800D02*
X138150600Y-72694800D01*
X172524600Y-99763400D02*
X172524600Y-94452100D01*
X140030200Y-79451200D02*
X141808200Y-79451200D01*
X147828000Y-99314000D02*
X146050000Y-99314000D01*
X167487600Y-103784400D02*
X169062400Y-103784400D01*
X147421600Y-96113600D02*
X147421600Y-98907600D01*
D56*
X146725000Y-91708600D02*
X147165400Y-92149000D01*
D53*
X171094400Y-99763400D02*
X171094400Y-100990400D01*
X151358600Y-82194400D02*
X151358600Y-81737200D01*
D55*
X127762000Y-106019600D02*
X127762000Y-107777000D01*
D53*
X135890000Y-91592400D02*
X136194800Y-91592400D01*
X158528000Y-75438000D02*
X158528000Y-80218000D01*
X159500000Y-83950000D02*
X158600600Y-83950000D01*
X160528000Y-90170000D02*
X160538000Y-90180000D01*
X138370000Y-98510000D02*
X138370000Y-108144000D01*
X158165800Y-81332800D02*
X158370000Y-81128600D01*
D55*
X123698000Y-96520000D02*
X123698000Y-90574000D01*
D53*
X171094400Y-100990400D02*
X170914000Y-101170800D01*
X170914000Y-101170800D02*
X167538400Y-101170800D01*
X147421600Y-98907600D02*
X147828000Y-99314000D01*
X141808200Y-79451200D02*
X142225000Y-79868000D01*
X160274000Y-105410000D02*
X158800800Y-105410000D01*
D56*
X148637500Y-84000000D02*
X149553000Y-84000000D01*
D53*
X146050000Y-102870000D02*
X146050000Y-99314000D01*
X158600600Y-83950000D02*
X158165800Y-83515200D01*
X135763000Y-74041000D02*
X138150600Y-74041000D01*
X152196800Y-80250000D02*
X151728200Y-80250000D01*
X145975000Y-74000000D02*
X145975000Y-72772200D01*
X167487600Y-105638600D02*
X167487600Y-103784400D01*
D55*
X128524000Y-102616000D02*
X128524000Y-99364800D01*
D53*
X149047200Y-94488000D02*
X150672800Y-92862400D01*
X158242000Y-105968800D02*
X158242000Y-107950000D01*
X128781800Y-94640400D02*
X128781800Y-96262200D01*
X128524000Y-96520000D02*
X123698000Y-96520000D01*
X134594600Y-79832200D02*
X134594600Y-77597000D01*
X136220200Y-91617800D02*
X136194800Y-91592400D01*
X158528000Y-80218000D02*
X158496000Y-80250000D01*
X146050000Y-102870000D02*
X146050000Y-107188000D01*
X152196800Y-80250000D02*
X152196800Y-74371200D01*
X134594600Y-91592400D02*
X135890000Y-91592400D01*
D54*
X140312500Y-87000000D02*
X139161600Y-87000000D01*
D56*
X142225000Y-82087500D02*
X142225000Y-79868000D01*
D53*
X134112000Y-96520000D02*
X128524000Y-96520000D01*
X169672000Y-104394000D02*
X170942000Y-104394000D01*
%TO.N,/VBUS*%
X165455600Y-89255600D02*
X165455600Y-87506900D01*
X158393000Y-85598000D02*
X161036000Y-85598000D01*
X157762400Y-83950000D02*
X158140400Y-84328000D01*
X158140400Y-85345400D02*
X158393000Y-85598000D01*
X165455600Y-87506900D02*
X165462500Y-87500000D01*
X156800000Y-83950000D02*
X157762400Y-83950000D01*
X161036000Y-85598000D02*
X161544000Y-86106000D01*
X161544000Y-86106000D02*
X163576000Y-86106000D01*
X164970000Y-87500000D02*
X165462500Y-87500000D01*
X158140400Y-84328000D02*
X158140400Y-85345400D01*
X163576000Y-86106000D02*
X164970000Y-87500000D01*
%TO.N,+3V3*%
X164338000Y-102870000D02*
X165150800Y-102870000D01*
D57*
X157632400Y-92100400D02*
X157632400Y-90373200D01*
X155438000Y-93370400D02*
X156362400Y-93370400D01*
D56*
X141725000Y-82087500D02*
X141725000Y-83432000D01*
D53*
X165709600Y-103784400D02*
X165150800Y-103225600D01*
D56*
X147563800Y-83500000D02*
X148637500Y-83500000D01*
X141725000Y-82087500D02*
X140941500Y-82087500D01*
D57*
X155346400Y-92913200D02*
X155438000Y-92913200D01*
X155438000Y-93370400D02*
X154330400Y-93370400D01*
D53*
X165150800Y-102870000D02*
X165150800Y-98870800D01*
X138633200Y-80924400D02*
X138885000Y-81176200D01*
D57*
X156362400Y-93370400D02*
X157632400Y-92100400D01*
D53*
X165150800Y-103225600D02*
X165150800Y-102870000D01*
X141782800Y-83489800D02*
X143027400Y-84734400D01*
D56*
X149633600Y-82503900D02*
X148637500Y-83500000D01*
D53*
X142826100Y-77673200D02*
X139547600Y-77673200D01*
D54*
X140312500Y-87500000D02*
X139521518Y-87500000D01*
D56*
X140312500Y-87500000D02*
X147225000Y-87500000D01*
X147225000Y-90412500D02*
X147225000Y-87500000D01*
D53*
X138633200Y-78587600D02*
X138633200Y-80924400D01*
X138885000Y-81176200D02*
X140030200Y-81176200D01*
X147225000Y-83838800D02*
X147563800Y-83500000D01*
D57*
X152095200Y-90424000D02*
X150672800Y-90424000D01*
D56*
X140312500Y-83500000D02*
X141772600Y-83500000D01*
D57*
X160528000Y-95504000D02*
X156718000Y-95504000D01*
D54*
X139521518Y-87500000D02*
X139037400Y-87984118D01*
D53*
X165762600Y-103784400D02*
X165709600Y-103784400D01*
D57*
X150672800Y-90424000D02*
X147336500Y-90424000D01*
D53*
X149633600Y-81737200D02*
X149633600Y-82503900D01*
D57*
X161238400Y-96214400D02*
X160528000Y-95504000D01*
D54*
X139037400Y-87984118D02*
X139037400Y-90728800D01*
D53*
X139037400Y-90728800D02*
X139050000Y-90741400D01*
X141725000Y-83432000D02*
X141782800Y-83489800D01*
D57*
X154330400Y-93370400D02*
X153009600Y-92049600D01*
D53*
X139050000Y-90741400D02*
X139050000Y-94080000D01*
D57*
X161238400Y-98870800D02*
X161238400Y-96214400D01*
D53*
X162814000Y-110236000D02*
X162814000Y-104394000D01*
D57*
X153009600Y-91338400D02*
X152095200Y-90424000D01*
D53*
X139547600Y-77673200D02*
X138633200Y-78587600D01*
X165150800Y-98870800D02*
X161238400Y-98870800D01*
X143027400Y-84734400D02*
X147225000Y-84734400D01*
X167538400Y-98870800D02*
X165150800Y-98870800D01*
X147225000Y-84734400D02*
X147225000Y-83838800D01*
X140941500Y-82087500D02*
X140030200Y-81176200D01*
D57*
X155438000Y-94224000D02*
X156718000Y-95504000D01*
D53*
X141772600Y-83500000D02*
X141782800Y-83489800D01*
D57*
X155438000Y-93370400D02*
X155438000Y-94224000D01*
X153009600Y-92049600D02*
X153009600Y-91338400D01*
D53*
X162814000Y-104394000D02*
X164338000Y-102870000D01*
X147225000Y-87500000D02*
X147225000Y-84734400D01*
D56*
%TO.N,/OSC_IN*%
X140312500Y-85500000D02*
X136194200Y-85500000D01*
D53*
X134594600Y-81557200D02*
X134594600Y-83900400D01*
D56*
X136194200Y-85500000D02*
X134594600Y-83900400D01*
%TO.N,/OSC_OUT*%
X136195000Y-86000000D02*
X134594600Y-87600400D01*
D53*
X134594600Y-87600400D02*
X134594600Y-89867400D01*
D56*
X140312500Y-86000000D02*
X136195000Y-86000000D01*
D53*
%TO.N,/SHTR_V*%
X139644000Y-95560000D02*
X136550000Y-95560000D01*
X136550000Y-98505000D02*
X136550000Y-95560000D01*
X136545000Y-98510000D02*
X136550000Y-98505000D01*
X136550400Y-107950000D02*
X136550400Y-98515400D01*
X140625900Y-90412500D02*
X140309600Y-90728800D01*
X140309600Y-94894400D02*
X139644000Y-95560000D01*
X136550000Y-95560000D02*
X136550000Y-94080000D01*
X140309600Y-90728800D02*
X140309600Y-94894400D01*
X136550400Y-98515400D02*
X136545000Y-98510000D01*
D56*
X141725000Y-90412500D02*
X140625900Y-90412500D01*
D53*
%TO.N,/5V*%
X167538400Y-95148400D02*
X165150800Y-92760800D01*
X163048000Y-73894000D02*
X163048000Y-77774800D01*
X165150800Y-92760800D02*
X163068000Y-92760800D01*
X170738800Y-96570800D02*
X167538400Y-96570800D01*
X171094400Y-96926400D02*
X170738800Y-96570800D01*
X161544000Y-72390000D02*
X163048000Y-73894000D01*
X153924000Y-72390000D02*
X161544000Y-72390000D01*
X158496000Y-97028000D02*
X158496000Y-98552000D01*
X163048000Y-77774800D02*
X163048000Y-79380000D01*
X165455600Y-91755600D02*
X165455600Y-92456000D01*
X167538400Y-96570800D02*
X167538400Y-95148400D01*
X165455600Y-92456000D02*
X165150800Y-92760800D01*
X171094400Y-97688400D02*
X171094400Y-96926400D01*
X163048000Y-79380000D02*
X163068000Y-79400000D01*
%TO.N,/CCD*%
X144000000Y-93998000D02*
X144780000Y-93218000D01*
X144000000Y-102870000D02*
X144000000Y-93998000D01*
D56*
X145725000Y-92273000D02*
X144780000Y-93218000D01*
X145725000Y-90412500D02*
X145725000Y-92273000D01*
D53*
X141732000Y-102870000D02*
X144000000Y-102870000D01*
D55*
%TO.N,/SHTRpow*%
X117602000Y-101600000D02*
X118618000Y-102616000D01*
X116332000Y-91186000D02*
X115062000Y-92456000D01*
X115062000Y-92456000D02*
X115062000Y-97282000D01*
D53*
X132337800Y-110337600D02*
X134725400Y-107950000D01*
D55*
X122543000Y-107916000D02*
X122543000Y-103035000D01*
D53*
X122543000Y-109131800D02*
X123748800Y-110337600D01*
D55*
X122543000Y-103035000D02*
X122124000Y-102616000D01*
D53*
X123748800Y-110337600D02*
X132337800Y-110337600D01*
D55*
X116332000Y-88858000D02*
X116332000Y-91186000D01*
X117602000Y-97282000D02*
X117602000Y-101600000D01*
D53*
X122543000Y-107916000D02*
X122543000Y-109131800D01*
D55*
X117602000Y-97282000D02*
X115062000Y-97282000D01*
X118618000Y-102616000D02*
X122124000Y-102616000D01*
D53*
%TO.N,/SWCLK*%
X147225000Y-78275000D02*
X148515000Y-76985000D01*
D56*
X147225000Y-82087500D02*
X147225000Y-78275000D01*
D53*
X148515000Y-76985000D02*
X148515000Y-74000000D01*
D56*
%TO.N,/SWDIO*%
X148637500Y-84500000D02*
X150100000Y-84500000D01*
D53*
X147245000Y-74000000D02*
X147245000Y-75995000D01*
X147245000Y-75995000D02*
X147250000Y-76000000D01*
X152850000Y-81750000D02*
X153000000Y-81750000D01*
D56*
X150100000Y-84500000D02*
X152850000Y-81750000D01*
D53*
%TO.N,Net-(D5-A)*%
X160528000Y-77754800D02*
X160548000Y-77774800D01*
X160528000Y-75438000D02*
X160528000Y-77754800D01*
%TO.N,/BOOT0*%
X143435000Y-75617000D02*
X143435000Y-74000000D01*
X143725000Y-75907000D02*
X143435000Y-75617000D01*
X143435000Y-73204000D02*
X143435000Y-74000000D01*
X139975600Y-74041000D02*
X139975600Y-73206600D01*
D56*
X143725000Y-82087500D02*
X143725000Y-75907000D01*
D53*
X143002000Y-72771000D02*
X143435000Y-73204000D01*
X140411200Y-72771000D02*
X143002000Y-72771000D01*
X139975600Y-73206600D02*
X140411200Y-72771000D01*
D56*
%TO.N,/NRST*%
X139473959Y-86500000D02*
X138975800Y-86500000D01*
D53*
X139832500Y-76332500D02*
X142165000Y-74000000D01*
D56*
X138975800Y-86500000D02*
X138366200Y-86500000D01*
X138366200Y-86500000D02*
X137947400Y-86918800D01*
X140312500Y-86500000D02*
X139473959Y-86500000D01*
D53*
%TO.N,Net-(J1-Pin_2)*%
X141764000Y-107950000D02*
X141764000Y-104727000D01*
X141764000Y-104727000D02*
X141732000Y-104695000D01*
D54*
%TO.N,/USB_PU*%
X154490800Y-88806400D02*
X154432000Y-88747600D01*
X150564800Y-88747600D02*
X150317200Y-88500000D01*
D53*
X156057600Y-90373200D02*
X154490800Y-88806400D01*
D54*
X148637500Y-88500000D02*
X150317200Y-88500000D01*
D53*
X156332400Y-90373200D02*
X156057600Y-90373200D01*
D54*
X154432000Y-88747600D02*
X150564800Y-88747600D01*
D53*
%TO.N,Net-(J2-Pin_2)*%
X156671000Y-107521000D02*
X156242000Y-107950000D01*
X156671000Y-98552000D02*
X156671000Y-107521000D01*
%TO.N,Net-(J2-Pin_3)*%
X160989000Y-110236000D02*
X155143200Y-110236000D01*
X154242000Y-109334800D02*
X154242000Y-107950000D01*
X155143200Y-110236000D02*
X154242000Y-109334800D01*
%TO.N,/LimSW*%
X152247600Y-104292400D02*
X152242000Y-104298000D01*
X152242000Y-104298000D02*
X152242000Y-107950000D01*
D56*
X149910800Y-89000000D02*
X148637500Y-89000000D01*
X150217200Y-89306400D02*
X149910800Y-89000000D01*
X153517600Y-89306400D02*
X150217200Y-89306400D01*
D53*
X154965400Y-90754200D02*
X153517600Y-89306400D01*
%TO.N,/USBDP*%
X154584400Y-83000000D02*
X155092400Y-83000000D01*
X153093000Y-83000000D02*
X154584400Y-83000000D01*
X155092400Y-87884000D02*
X156260800Y-89052400D01*
D54*
X148637500Y-85000000D02*
X151093000Y-85000000D01*
D53*
X158748100Y-89507700D02*
X159207200Y-89507700D01*
X158292800Y-89052400D02*
X158748100Y-89507700D01*
X155092400Y-83000000D02*
X156800000Y-83000000D01*
D54*
X151093000Y-85000000D02*
X153093000Y-83000000D01*
D53*
X156260800Y-89052400D02*
X158292800Y-89052400D01*
%TO.N,Net-(J4-Pin_4)*%
X144705000Y-77619300D02*
X144651100Y-77673200D01*
X144705000Y-74000000D02*
X144705000Y-77619300D01*
D54*
%TO.N,/Tx*%
X150203200Y-86500000D02*
X150723600Y-87020400D01*
X148637500Y-86500000D02*
X150203200Y-86500000D01*
%TO.N,/Rx*%
X148637500Y-86000000D02*
X153767200Y-86000000D01*
X153767200Y-86000000D02*
X153771600Y-86004400D01*
D53*
%TO.N,Net-(J11-D-)*%
X163750000Y-85000000D02*
X165462500Y-85000000D01*
D54*
%TO.N,/USBDM*%
X151685200Y-85500000D02*
X152285200Y-84900000D01*
D53*
X156800000Y-84900000D02*
X152285200Y-84900000D01*
D54*
X148637500Y-85500000D02*
X151685200Y-85500000D01*
D53*
%TO.N,Net-(J11-D+)*%
X167462500Y-83718700D02*
X167462500Y-85000000D01*
X163750000Y-83250000D02*
X166993800Y-83250000D01*
X166993800Y-83250000D02*
X167462500Y-83718700D01*
%TO.N,Net-(Q1-G)*%
X128778000Y-92909400D02*
X128781800Y-92913200D01*
X128778000Y-90574000D02*
X128778000Y-92909400D01*
%TO.N,Net-(Q2-C)*%
X159207200Y-87682700D02*
X157012900Y-87682700D01*
X157012900Y-87682700D02*
X156982400Y-87713200D01*
D56*
%TO.N,/PWM*%
X146225000Y-90412500D02*
X146225000Y-92834200D01*
D53*
X146225000Y-92834200D02*
X146608800Y-93218000D01*
X131673600Y-92913200D02*
X132435600Y-92913200D01*
X132435600Y-92913200D02*
X132486400Y-92964000D01*
X130606800Y-92913200D02*
X130606800Y-94640400D01*
X130606800Y-92913200D02*
X131673600Y-92913200D01*
%TO.N,Net-(R10-Pad2)*%
X161675000Y-83000000D02*
X161925000Y-83250000D01*
X159500000Y-83000000D02*
X161675000Y-83000000D01*
%TO.N,Net-(R11-Pad2)*%
X159600000Y-85000000D02*
X159500000Y-84900000D01*
X161925000Y-85000000D02*
X159600000Y-85000000D01*
D55*
%TO.N,/DR*%
X119380000Y-83058000D02*
X120904000Y-84582000D01*
X120904000Y-92456000D02*
X118078000Y-95282000D01*
X126238000Y-88138000D02*
X125730000Y-87630000D01*
X126238000Y-90574000D02*
X126238000Y-88138000D01*
X116332000Y-83058000D02*
X119380000Y-83058000D01*
X120904000Y-87630000D02*
X120904000Y-92456000D01*
X120904000Y-84582000D02*
X120904000Y-87630000D01*
X125730000Y-87630000D02*
X120904000Y-87630000D01*
X118078000Y-95282000D02*
X117602000Y-95282000D01*
%TD*%
%TA.AperFunction,Conductor*%
%TO.N,+3V3*%
G36*
X147343039Y-83419685D02*
G01*
X147388794Y-83472489D01*
X147400000Y-83524000D01*
X147400000Y-88976000D01*
X147380315Y-89043039D01*
X147327511Y-89088794D01*
X147276000Y-89100000D01*
X141724000Y-89100000D01*
X141656961Y-89080315D01*
X141611206Y-89027511D01*
X141600000Y-88976000D01*
X141600000Y-83524000D01*
X141619685Y-83456961D01*
X141672489Y-83411206D01*
X141724000Y-83400000D01*
X147276000Y-83400000D01*
X147343039Y-83419685D01*
G37*
%TD.AperFunction*%
%TD*%
%TA.AperFunction,Conductor*%
%TO.N,GND*%
G36*
X159703897Y-97064953D02*
G01*
X159735728Y-97127151D01*
X159737900Y-97150256D01*
X159737900Y-100818670D01*
X159737901Y-100818676D01*
X159744308Y-100878283D01*
X159794602Y-101013128D01*
X159794606Y-101013135D01*
X159880852Y-101128344D01*
X159880855Y-101128347D01*
X159996064Y-101214593D01*
X159996071Y-101214597D01*
X160130917Y-101264891D01*
X160130916Y-101264891D01*
X160137844Y-101265635D01*
X160190527Y-101271300D01*
X162286272Y-101271299D01*
X162345883Y-101264891D01*
X162480731Y-101214596D01*
X162595946Y-101128346D01*
X162682196Y-101013131D01*
X162732491Y-100878283D01*
X162738900Y-100818673D01*
X162738900Y-99645300D01*
X162758585Y-99578261D01*
X162811389Y-99532506D01*
X162862900Y-99521300D01*
X164376300Y-99521300D01*
X164443339Y-99540985D01*
X164489094Y-99593789D01*
X164500300Y-99645300D01*
X164500300Y-102095500D01*
X164480615Y-102162539D01*
X164427811Y-102208294D01*
X164376300Y-102219500D01*
X164273929Y-102219500D01*
X164148261Y-102244497D01*
X164148255Y-102244499D01*
X164029870Y-102293535D01*
X163923331Y-102364722D01*
X163923324Y-102364728D01*
X163280871Y-103007181D01*
X163219548Y-103040666D01*
X163193190Y-103043500D01*
X161916129Y-103043500D01*
X161916123Y-103043501D01*
X161856516Y-103049908D01*
X161721671Y-103100202D01*
X161721664Y-103100206D01*
X161606455Y-103186452D01*
X161606452Y-103186455D01*
X161520206Y-103301664D01*
X161520202Y-103301671D01*
X161469908Y-103436517D01*
X161463501Y-103496116D01*
X161463500Y-103496135D01*
X161463500Y-105291870D01*
X161463501Y-105291876D01*
X161469908Y-105351483D01*
X161520202Y-105486328D01*
X161520206Y-105486335D01*
X161606452Y-105601544D01*
X161606455Y-105601547D01*
X161721664Y-105687793D01*
X161721671Y-105687797D01*
X161766618Y-105704561D01*
X161856517Y-105738091D01*
X161916127Y-105744500D01*
X162039500Y-105744499D01*
X162106539Y-105764183D01*
X162152294Y-105816987D01*
X162163500Y-105868499D01*
X162163500Y-109309228D01*
X162143815Y-109376267D01*
X162108569Y-109410867D01*
X162108816Y-109411179D01*
X162105915Y-109413472D01*
X162104600Y-109414764D01*
X162103154Y-109415655D01*
X161989180Y-109529629D01*
X161927857Y-109563113D01*
X161858165Y-109558129D01*
X161813818Y-109529628D01*
X161699851Y-109415661D01*
X161699850Y-109415660D01*
X161557139Y-109327635D01*
X161553018Y-109325093D01*
X161553013Y-109325091D01*
X161551569Y-109324612D01*
X161389253Y-109270826D01*
X161389251Y-109270825D01*
X161288178Y-109260500D01*
X160689830Y-109260500D01*
X160689812Y-109260501D01*
X160588747Y-109270825D01*
X160424984Y-109325092D01*
X160424981Y-109325093D01*
X160278148Y-109415661D01*
X160156155Y-109537654D01*
X160155555Y-109538414D01*
X160155010Y-109538799D01*
X160151053Y-109542757D01*
X160150376Y-109542080D01*
X160098532Y-109578789D01*
X160058292Y-109585500D01*
X155464008Y-109585500D01*
X155396969Y-109565815D01*
X155376327Y-109549181D01*
X155012925Y-109185779D01*
X154979440Y-109124456D01*
X154984424Y-109054764D01*
X155012925Y-109010417D01*
X155044249Y-108979093D01*
X155081414Y-108941928D01*
X155141682Y-108858975D01*
X155197012Y-108816311D01*
X155266626Y-108810332D01*
X155328421Y-108842938D01*
X155342315Y-108858973D01*
X155402586Y-108941928D01*
X155525072Y-109064414D01*
X155665212Y-109166232D01*
X155819555Y-109244873D01*
X155984299Y-109298402D01*
X156155389Y-109325500D01*
X156155390Y-109325500D01*
X156328610Y-109325500D01*
X156328611Y-109325500D01*
X156499701Y-109298402D01*
X156664445Y-109244873D01*
X156818788Y-109166232D01*
X156958928Y-109064414D01*
X157066836Y-108956505D01*
X157128155Y-108923023D01*
X157197847Y-108928007D01*
X157253781Y-108969878D01*
X157260053Y-108979093D01*
X157299682Y-109043343D01*
X157423654Y-109167315D01*
X157572875Y-109259356D01*
X157572880Y-109259358D01*
X157739302Y-109314505D01*
X157739309Y-109314506D01*
X157842019Y-109324999D01*
X157991999Y-109324999D01*
X157992000Y-109324998D01*
X157992000Y-108230330D01*
X158011745Y-108250075D01*
X158097255Y-108299444D01*
X158192630Y-108325000D01*
X158291370Y-108325000D01*
X158386745Y-108299444D01*
X158472255Y-108250075D01*
X158492000Y-108230330D01*
X158492000Y-109324999D01*
X158641972Y-109324999D01*
X158641986Y-109324998D01*
X158744697Y-109314505D01*
X158911119Y-109259358D01*
X158911124Y-109259356D01*
X159060345Y-109167315D01*
X159184315Y-109043345D01*
X159276356Y-108894124D01*
X159276358Y-108894119D01*
X159331505Y-108727697D01*
X159331506Y-108727690D01*
X159341999Y-108624986D01*
X159342000Y-108624973D01*
X159342000Y-108200000D01*
X158522330Y-108200000D01*
X158542075Y-108180255D01*
X158591444Y-108094745D01*
X158617000Y-107999370D01*
X158617000Y-107900630D01*
X158591444Y-107805255D01*
X158542075Y-107719745D01*
X158522330Y-107700000D01*
X159341999Y-107700000D01*
X159341999Y-107275028D01*
X159341998Y-107275013D01*
X159331505Y-107172302D01*
X159276358Y-107005880D01*
X159276356Y-107005875D01*
X159184315Y-106856654D01*
X159060345Y-106732684D01*
X158911124Y-106640643D01*
X158911119Y-106640641D01*
X158744697Y-106585494D01*
X158744690Y-106585493D01*
X158641986Y-106575000D01*
X158492000Y-106575000D01*
X158492000Y-107669670D01*
X158472255Y-107649925D01*
X158386745Y-107600556D01*
X158291370Y-107575000D01*
X158192630Y-107575000D01*
X158097255Y-107600556D01*
X158011745Y-107649925D01*
X157992000Y-107669670D01*
X157992000Y-106575000D01*
X157842027Y-106575000D01*
X157842012Y-106575001D01*
X157739302Y-106585494D01*
X157572880Y-106640641D01*
X157572871Y-106640645D01*
X157510596Y-106679057D01*
X157443203Y-106697497D01*
X157376540Y-106676574D01*
X157331771Y-106622932D01*
X157321500Y-106573518D01*
X157321500Y-99478771D01*
X157341185Y-99411732D01*
X157376429Y-99377132D01*
X157376183Y-99376821D01*
X157379082Y-99374528D01*
X157380401Y-99373233D01*
X157381850Y-99372340D01*
X157495819Y-99258371D01*
X157557142Y-99224886D01*
X157626834Y-99229870D01*
X157671181Y-99258371D01*
X157785150Y-99372340D01*
X157931984Y-99462908D01*
X158095747Y-99517174D01*
X158196823Y-99527500D01*
X158795176Y-99527499D01*
X158795184Y-99527498D01*
X158795187Y-99527498D01*
X158855861Y-99521300D01*
X158896253Y-99517174D01*
X159060016Y-99462908D01*
X159206850Y-99372340D01*
X159328840Y-99250350D01*
X159419408Y-99103516D01*
X159473674Y-98939753D01*
X159484000Y-98838677D01*
X159483999Y-98265324D01*
X159482008Y-98245837D01*
X159473674Y-98164247D01*
X159468228Y-98147811D01*
X159419408Y-98000484D01*
X159328840Y-97853650D01*
X159289593Y-97814403D01*
X159256108Y-97753080D01*
X159261092Y-97683388D01*
X159281420Y-97648058D01*
X159331910Y-97586538D01*
X159424814Y-97412727D01*
X159482024Y-97224132D01*
X159490497Y-97138101D01*
X159516658Y-97073315D01*
X159573692Y-97032956D01*
X159643492Y-97029839D01*
X159703897Y-97064953D01*
G37*
%TD.AperFunction*%
%TA.AperFunction,Conductor*%
G36*
X160910033Y-83672478D02*
G01*
X160965967Y-83714348D01*
X160984406Y-83749654D01*
X161001117Y-83800084D01*
X161001592Y-83801515D01*
X161001593Y-83801518D01*
X161016384Y-83825498D01*
X161089611Y-83944218D01*
X161092161Y-83948351D01*
X161181129Y-84037319D01*
X161214614Y-84098642D01*
X161209630Y-84168334D01*
X161181129Y-84212681D01*
X161092155Y-84301654D01*
X161091555Y-84302414D01*
X161091010Y-84302799D01*
X161087053Y-84306757D01*
X161086376Y-84306080D01*
X161034532Y-84342789D01*
X160994292Y-84349500D01*
X160904000Y-84349500D01*
X160836961Y-84329815D01*
X160791206Y-84277011D01*
X160780000Y-84225500D01*
X160780000Y-84200000D01*
X160655501Y-84200000D01*
X160588462Y-84180315D01*
X160581205Y-84175277D01*
X160522331Y-84131204D01*
X160522328Y-84131202D01*
X160387482Y-84080908D01*
X160387483Y-84080908D01*
X160327883Y-84074501D01*
X160327881Y-84074500D01*
X160327873Y-84074500D01*
X160327865Y-84074500D01*
X159374000Y-84074500D01*
X159306961Y-84054815D01*
X159261206Y-84002011D01*
X159250000Y-83950500D01*
X159250000Y-83949499D01*
X159269685Y-83882460D01*
X159322489Y-83836705D01*
X159373997Y-83825499D01*
X160327872Y-83825499D01*
X160387483Y-83819091D01*
X160522331Y-83768796D01*
X160581191Y-83724733D01*
X160646653Y-83700316D01*
X160655501Y-83700000D01*
X160780814Y-83700000D01*
X160840341Y-83667494D01*
X160910033Y-83672478D01*
G37*
%TD.AperFunction*%
%TA.AperFunction,Conductor*%
G36*
X150539784Y-82514715D02*
G01*
X150584134Y-82543217D01*
X150598061Y-82557144D01*
X150598065Y-82557147D01*
X150744788Y-82647648D01*
X150744796Y-82647651D01*
X150780608Y-82659518D01*
X150838054Y-82699290D01*
X150864878Y-82763805D01*
X150852564Y-82832581D01*
X150829287Y-82864906D01*
X150006978Y-83687216D01*
X149945655Y-83720701D01*
X149875964Y-83715717D01*
X149820030Y-83673845D01*
X149804733Y-83646982D01*
X149802893Y-83642540D01*
X149711524Y-83523466D01*
X149705782Y-83517724D01*
X149707618Y-83515887D01*
X149674029Y-83469874D01*
X149669882Y-83400127D01*
X149703039Y-83340263D01*
X149997019Y-83046283D01*
X150015800Y-83030870D01*
X150048269Y-83009176D01*
X150138876Y-82918569D01*
X150210065Y-82812027D01*
X150259101Y-82693644D01*
X150260491Y-82686653D01*
X150292874Y-82624742D01*
X150317008Y-82605305D01*
X150394450Y-82557540D01*
X150408772Y-82543217D01*
X150470092Y-82509732D01*
X150539784Y-82514715D01*
G37*
%TD.AperFunction*%
%TA.AperFunction,Conductor*%
G36*
X141962431Y-78343385D02*
G01*
X141988015Y-78366580D01*
X141988153Y-78366443D01*
X141990952Y-78369242D01*
X141992655Y-78370786D01*
X141993255Y-78371545D01*
X141993260Y-78371550D01*
X142115250Y-78493540D01*
X142262084Y-78584108D01*
X142425847Y-78638374D01*
X142526923Y-78648700D01*
X142960500Y-78648699D01*
X143027539Y-78668383D01*
X143073294Y-78721187D01*
X143084500Y-78772699D01*
X143084500Y-81039968D01*
X143064815Y-81107007D01*
X143012011Y-81152762D01*
X142942853Y-81162706D01*
X142910413Y-81153402D01*
X142862663Y-81132318D01*
X142838021Y-81129459D01*
X142773697Y-81102178D01*
X142753937Y-81081771D01*
X142701530Y-81013472D01*
X142582455Y-80922103D01*
X142443801Y-80864671D01*
X142365000Y-80854296D01*
X142365000Y-81365145D01*
X142364543Y-81373035D01*
X142364707Y-81373045D01*
X142364500Y-81376629D01*
X142364500Y-81521833D01*
X142344815Y-81588872D01*
X142292011Y-81634627D01*
X142222853Y-81644571D01*
X142159297Y-81615546D01*
X142152819Y-81609514D01*
X142133294Y-81589989D01*
X142130828Y-81587965D01*
X142129884Y-81586579D01*
X142128988Y-81585683D01*
X142129157Y-81585513D01*
X142091497Y-81530217D01*
X142085499Y-81492117D01*
X142085499Y-81376635D01*
X142085292Y-81373053D01*
X142085455Y-81373043D01*
X142085000Y-81365158D01*
X142085000Y-80854297D01*
X142006201Y-80864670D01*
X142006196Y-80864672D01*
X141867544Y-80922103D01*
X141867543Y-80922103D01*
X141748468Y-81013473D01*
X141696059Y-81081774D01*
X141639631Y-81122976D01*
X141611972Y-81129460D01*
X141587339Y-81132317D01*
X141587337Y-81132318D01*
X141487984Y-81176186D01*
X141411188Y-81252982D01*
X141366605Y-81353951D01*
X141321518Y-81407326D01*
X141254732Y-81427853D01*
X141187450Y-81409014D01*
X141165490Y-81391544D01*
X141042018Y-81268072D01*
X141008533Y-81206749D01*
X141005699Y-81180391D01*
X141005699Y-80827030D01*
X141005698Y-80827013D01*
X140995374Y-80725947D01*
X140983942Y-80691447D01*
X140941108Y-80562184D01*
X140850540Y-80415350D01*
X140836217Y-80401027D01*
X140802732Y-80339704D01*
X140807716Y-80270012D01*
X140836221Y-80225660D01*
X140850147Y-80211735D01*
X140940648Y-80065011D01*
X140940653Y-80065000D01*
X140994880Y-79901352D01*
X141005199Y-79800354D01*
X141005200Y-79800341D01*
X141005200Y-79701200D01*
X139904200Y-79701200D01*
X139837161Y-79681515D01*
X139791406Y-79628711D01*
X139780200Y-79577200D01*
X139780200Y-79325200D01*
X139799885Y-79258161D01*
X139852689Y-79212406D01*
X139904200Y-79201200D01*
X141005199Y-79201200D01*
X141005199Y-79102060D01*
X141005198Y-79102045D01*
X140994880Y-79001047D01*
X140940653Y-78837399D01*
X140940648Y-78837388D01*
X140850147Y-78690665D01*
X140850144Y-78690661D01*
X140728238Y-78568755D01*
X140728234Y-78568752D01*
X140703082Y-78553238D01*
X140656357Y-78501290D01*
X140645136Y-78432328D01*
X140672979Y-78368246D01*
X140731048Y-78329390D01*
X140768179Y-78323700D01*
X141895392Y-78323700D01*
X141962431Y-78343385D01*
G37*
%TD.AperFunction*%
%TA.AperFunction,Conductor*%
G36*
X146225000Y-74969159D02*
G01*
X146359538Y-74928348D01*
X146412047Y-74900282D01*
X146480450Y-74886040D01*
X146545694Y-74911040D01*
X146587064Y-74967345D01*
X146594500Y-75009640D01*
X146594500Y-75185017D01*
X146574815Y-75252056D01*
X146549166Y-75280870D01*
X146539114Y-75289118D01*
X146414090Y-75441460D01*
X146414086Y-75441467D01*
X146321188Y-75615266D01*
X146263975Y-75803870D01*
X146244659Y-76000000D01*
X146263975Y-76196129D01*
X146263976Y-76196132D01*
X146320396Y-76382124D01*
X146321188Y-76384733D01*
X146414086Y-76558532D01*
X146414090Y-76558539D01*
X146539116Y-76710883D01*
X146691460Y-76835909D01*
X146691467Y-76835913D01*
X146865266Y-76928811D01*
X146865269Y-76928811D01*
X146865273Y-76928814D01*
X147053868Y-76986024D01*
X147250000Y-77005341D01*
X147265299Y-77003834D01*
X147333944Y-77016853D01*
X147384655Y-77064917D01*
X147401330Y-77132768D01*
X147378674Y-77198863D01*
X147365134Y-77214918D01*
X146719726Y-77860326D01*
X146648534Y-77966874D01*
X146599499Y-78085255D01*
X146599497Y-78085263D01*
X146574501Y-78210926D01*
X146574501Y-78339070D01*
X146575508Y-78344131D01*
X146579973Y-78366580D01*
X146582117Y-78377355D01*
X146584500Y-78401548D01*
X146584500Y-81039968D01*
X146564815Y-81107007D01*
X146512011Y-81152762D01*
X146442853Y-81162706D01*
X146410413Y-81153402D01*
X146362663Y-81132318D01*
X146338373Y-81129500D01*
X146111634Y-81129500D01*
X146111611Y-81129502D01*
X146087340Y-81132317D01*
X146025085Y-81159805D01*
X145955807Y-81168876D01*
X145924914Y-81159805D01*
X145910415Y-81153403D01*
X145862662Y-81132318D01*
X145838373Y-81129500D01*
X145611634Y-81129500D01*
X145611611Y-81129502D01*
X145587340Y-81132317D01*
X145525085Y-81159805D01*
X145455807Y-81168876D01*
X145424914Y-81159805D01*
X145410415Y-81153403D01*
X145362662Y-81132318D01*
X145338373Y-81129500D01*
X145111634Y-81129500D01*
X145111611Y-81129502D01*
X145087340Y-81132317D01*
X145025085Y-81159805D01*
X144955807Y-81168876D01*
X144924914Y-81159805D01*
X144910415Y-81153403D01*
X144862662Y-81132318D01*
X144838373Y-81129500D01*
X144611634Y-81129500D01*
X144611611Y-81129502D01*
X144587341Y-81132316D01*
X144559158Y-81144760D01*
X144539584Y-81153403D01*
X144470307Y-81162474D01*
X144407123Y-81132650D01*
X144370092Y-81073401D01*
X144365500Y-81039968D01*
X144365500Y-78772699D01*
X144385185Y-78705660D01*
X144437989Y-78659905D01*
X144489500Y-78648699D01*
X144950270Y-78648699D01*
X144950276Y-78648699D01*
X145051353Y-78638374D01*
X145215116Y-78584108D01*
X145361950Y-78493540D01*
X145483940Y-78371550D01*
X145574508Y-78224716D01*
X145628774Y-78060953D01*
X145639100Y-77959877D01*
X145639099Y-77386524D01*
X145637615Y-77372000D01*
X145628774Y-77285447D01*
X145574508Y-77121684D01*
X145483940Y-76974850D01*
X145391818Y-76882728D01*
X145358334Y-76821404D01*
X145355500Y-76795047D01*
X145355500Y-75009640D01*
X145375185Y-74942601D01*
X145427989Y-74896846D01*
X145497147Y-74886902D01*
X145537953Y-74900282D01*
X145590461Y-74928348D01*
X145725000Y-74969159D01*
X145725000Y-74209618D01*
X145775446Y-74260064D01*
X145849555Y-74302851D01*
X145932213Y-74325000D01*
X146017787Y-74325000D01*
X146100445Y-74302851D01*
X146174554Y-74260064D01*
X146225000Y-74209618D01*
X146225000Y-74969159D01*
G37*
%TD.AperFunction*%
%TA.AperFunction,Conductor*%
G36*
X173192539Y-70770185D02*
G01*
X173238294Y-70822989D01*
X173249500Y-70874500D01*
X173249500Y-112625500D01*
X173229815Y-112692539D01*
X173177011Y-112738294D01*
X173125500Y-112749500D01*
X112874500Y-112749500D01*
X112807461Y-112729815D01*
X112761706Y-112677011D01*
X112750500Y-112625500D01*
X112750500Y-109378711D01*
X114149500Y-109378711D01*
X114149500Y-109621288D01*
X114181161Y-109861785D01*
X114243947Y-110096104D01*
X114336773Y-110320205D01*
X114336776Y-110320212D01*
X114458064Y-110530289D01*
X114458066Y-110530292D01*
X114458067Y-110530293D01*
X114605733Y-110722736D01*
X114605739Y-110722743D01*
X114777256Y-110894260D01*
X114777261Y-110894264D01*
X114777262Y-110894265D01*
X114969711Y-111041936D01*
X115179788Y-111163224D01*
X115403900Y-111256054D01*
X115638211Y-111318838D01*
X115818586Y-111342584D01*
X115878711Y-111350500D01*
X115878712Y-111350500D01*
X116121289Y-111350500D01*
X116169388Y-111344167D01*
X116361789Y-111318838D01*
X116596100Y-111256054D01*
X116820212Y-111163224D01*
X117030289Y-111041936D01*
X117222738Y-110894265D01*
X117394265Y-110722738D01*
X117541936Y-110530289D01*
X117663224Y-110320212D01*
X117756054Y-110096100D01*
X117818838Y-109861789D01*
X117850500Y-109621288D01*
X117850500Y-109378712D01*
X117818838Y-109138211D01*
X117756054Y-108903900D01*
X117663224Y-108679788D01*
X117541936Y-108469711D01*
X117394265Y-108277262D01*
X117394260Y-108277256D01*
X117222743Y-108105739D01*
X117222736Y-108105733D01*
X117030293Y-107958067D01*
X117030292Y-107958066D01*
X117030289Y-107958064D01*
X116820212Y-107836776D01*
X116820205Y-107836773D01*
X116596104Y-107743947D01*
X116361785Y-107681161D01*
X116121289Y-107649500D01*
X116121288Y-107649500D01*
X115878712Y-107649500D01*
X115878711Y-107649500D01*
X115638214Y-107681161D01*
X115403895Y-107743947D01*
X115179794Y-107836773D01*
X115179785Y-107836777D01*
X114969706Y-107958067D01*
X114777263Y-108105733D01*
X114777256Y-108105739D01*
X114605739Y-108277256D01*
X114605733Y-108277263D01*
X114458067Y-108469706D01*
X114336777Y-108679785D01*
X114336773Y-108679794D01*
X114243947Y-108903895D01*
X114181161Y-109138214D01*
X114149500Y-109378711D01*
X112750500Y-109378711D01*
X112750500Y-97380543D01*
X114061499Y-97380543D01*
X114099947Y-97573829D01*
X114099950Y-97573839D01*
X114175364Y-97755907D01*
X114175371Y-97755920D01*
X114284860Y-97919781D01*
X114284863Y-97919785D01*
X114424214Y-98059136D01*
X114424218Y-98059139D01*
X114588079Y-98168628D01*
X114588092Y-98168635D01*
X114770160Y-98244049D01*
X114770165Y-98244051D01*
X114770169Y-98244051D01*
X114770170Y-98244052D01*
X114963456Y-98282500D01*
X114963459Y-98282500D01*
X116477500Y-98282500D01*
X116544539Y-98302185D01*
X116590294Y-98354989D01*
X116601500Y-98406500D01*
X116601500Y-101698544D01*
X116637989Y-101881991D01*
X116637990Y-101881991D01*
X116639950Y-101891839D01*
X116715364Y-102073907D01*
X116715371Y-102073920D01*
X116824860Y-102237781D01*
X116824863Y-102237785D01*
X116968537Y-102381459D01*
X116968559Y-102381479D01*
X117837735Y-103250655D01*
X117837764Y-103250686D01*
X117980214Y-103393136D01*
X117980218Y-103393139D01*
X118144079Y-103502628D01*
X118144092Y-103502635D01*
X118272833Y-103555961D01*
X118301998Y-103568041D01*
X118326164Y-103578051D01*
X118409643Y-103594656D01*
X118437097Y-103600117D01*
X118519456Y-103616500D01*
X118519459Y-103616500D01*
X118519460Y-103616500D01*
X118716540Y-103616500D01*
X119349500Y-103616500D01*
X119416539Y-103636185D01*
X119462294Y-103688989D01*
X119473500Y-103740500D01*
X119473500Y-104471301D01*
X119477041Y-104509332D01*
X119477042Y-104509334D01*
X119523449Y-104645512D01*
X119523467Y-104645563D01*
X119606393Y-104763194D01*
X119606394Y-104763195D01*
X119719093Y-104852693D01*
X119719095Y-104852694D01*
X119719099Y-104852697D01*
X119852454Y-104906820D01*
X119852453Y-104906820D01*
X119852456Y-104906821D01*
X119995660Y-104921183D01*
X120033512Y-104916016D01*
X121390413Y-104600457D01*
X121460168Y-104604445D01*
X121516695Y-104645512D01*
X121542045Y-104710621D01*
X121542500Y-104721234D01*
X121542500Y-106353440D01*
X121522815Y-106420479D01*
X121488353Y-106455893D01*
X121417260Y-106504364D01*
X121219442Y-106687910D01*
X121051185Y-106898898D01*
X120916258Y-107132599D01*
X120916256Y-107132603D01*
X120817666Y-107383804D01*
X120817664Y-107383811D01*
X120757616Y-107646898D01*
X120737451Y-107915995D01*
X120737451Y-107916004D01*
X120757616Y-108185101D01*
X120817664Y-108448188D01*
X120817666Y-108448195D01*
X120916256Y-108699396D01*
X120916257Y-108699399D01*
X120932591Y-108727690D01*
X121051185Y-108933102D01*
X121087862Y-108979093D01*
X121219442Y-109144089D01*
X121385753Y-109298402D01*
X121417259Y-109327635D01*
X121640226Y-109479651D01*
X121883359Y-109596738D01*
X122127132Y-109671932D01*
X122145663Y-109677648D01*
X122145312Y-109678785D01*
X122200574Y-109709320D01*
X123334125Y-110842872D01*
X123334132Y-110842878D01*
X123411037Y-110894264D01*
X123411040Y-110894265D01*
X123420963Y-110900895D01*
X123440672Y-110914065D01*
X123484073Y-110932042D01*
X123559056Y-110963101D01*
X123559060Y-110963101D01*
X123559061Y-110963102D01*
X123684728Y-110988100D01*
X123684731Y-110988100D01*
X132401871Y-110988100D01*
X132486415Y-110971282D01*
X132527544Y-110963101D01*
X132645927Y-110914065D01*
X132675560Y-110894265D01*
X132752469Y-110842877D01*
X134633527Y-108961817D01*
X134694850Y-108928333D01*
X134721208Y-108925499D01*
X135024570Y-108925499D01*
X135024576Y-108925499D01*
X135125653Y-108915174D01*
X135289416Y-108860908D01*
X135436250Y-108770340D01*
X135550219Y-108656371D01*
X135611542Y-108622886D01*
X135681234Y-108627870D01*
X135725581Y-108656371D01*
X135839550Y-108770340D01*
X135986384Y-108860908D01*
X136150147Y-108915174D01*
X136251223Y-108925500D01*
X136849576Y-108925499D01*
X136849584Y-108925498D01*
X136849587Y-108925498D01*
X136904930Y-108919844D01*
X136950653Y-108915174D01*
X137114416Y-108860908D01*
X137261250Y-108770340D01*
X137383240Y-108648350D01*
X137473808Y-108501516D01*
X137528074Y-108337753D01*
X137538400Y-108236677D01*
X137538399Y-107663324D01*
X137528074Y-107562247D01*
X137473808Y-107398484D01*
X137383240Y-107251650D01*
X137261250Y-107129660D01*
X137261249Y-107129659D01*
X137261246Y-107129656D01*
X137261245Y-107129655D01*
X137259800Y-107128764D01*
X137259017Y-107127893D01*
X137255584Y-107125179D01*
X137256047Y-107124592D01*
X137213077Y-107076815D01*
X137200900Y-107023228D01*
X137200900Y-99433439D01*
X137220585Y-99366400D01*
X137251312Y-99336242D01*
X137250186Y-99334818D01*
X137255843Y-99330344D01*
X137255850Y-99330340D01*
X137370175Y-99216014D01*
X137431494Y-99182532D01*
X137501186Y-99187516D01*
X137545534Y-99216017D01*
X137659461Y-99329944D01*
X137659465Y-99329947D01*
X137806188Y-99420448D01*
X137806199Y-99420453D01*
X137969847Y-99474680D01*
X138070851Y-99484999D01*
X138620000Y-99484999D01*
X138669140Y-99484999D01*
X138669154Y-99484998D01*
X138770152Y-99474680D01*
X138933800Y-99420453D01*
X138933811Y-99420448D01*
X139080534Y-99329947D01*
X139080538Y-99329944D01*
X139202444Y-99208038D01*
X139202447Y-99208034D01*
X139292948Y-99061311D01*
X139292953Y-99061300D01*
X139347180Y-98897652D01*
X139357499Y-98796654D01*
X139357500Y-98796641D01*
X139357500Y-98760000D01*
X138620000Y-98760000D01*
X138620000Y-99484999D01*
X138070851Y-99484999D01*
X138119999Y-99484998D01*
X138120000Y-99484998D01*
X138120000Y-98260000D01*
X138620000Y-98260000D01*
X139357499Y-98260000D01*
X139357499Y-98223360D01*
X139357498Y-98223345D01*
X139347180Y-98122347D01*
X139292953Y-97958699D01*
X139292948Y-97958688D01*
X139202447Y-97811965D01*
X139202444Y-97811961D01*
X139080538Y-97690055D01*
X139080534Y-97690052D01*
X138933811Y-97599551D01*
X138933800Y-97599546D01*
X138770152Y-97545319D01*
X138669154Y-97535000D01*
X138620000Y-97535000D01*
X138620000Y-98260000D01*
X138120000Y-98260000D01*
X138120000Y-97535000D01*
X138119999Y-97534999D01*
X138070861Y-97535000D01*
X138070843Y-97535001D01*
X137969847Y-97545319D01*
X137806199Y-97599546D01*
X137806188Y-97599551D01*
X137659465Y-97690052D01*
X137545534Y-97803983D01*
X137484211Y-97837467D01*
X137414519Y-97832483D01*
X137370173Y-97803983D01*
X137255850Y-97689660D01*
X137255849Y-97689659D01*
X137255846Y-97689656D01*
X137250184Y-97685179D01*
X137251688Y-97683276D01*
X137212673Y-97639891D01*
X137200500Y-97586312D01*
X137200500Y-96334500D01*
X137220185Y-96267461D01*
X137272989Y-96221706D01*
X137324500Y-96210500D01*
X139708071Y-96210500D01*
X139792615Y-96193682D01*
X139833744Y-96185501D01*
X139952127Y-96136465D01*
X139970999Y-96123855D01*
X140058669Y-96065277D01*
X140814877Y-95309069D01*
X140886066Y-95202526D01*
X140923107Y-95113100D01*
X140935101Y-95084144D01*
X140955775Y-94980212D01*
X140960100Y-94958471D01*
X140960100Y-91177000D01*
X140979785Y-91109961D01*
X141032589Y-91064206D01*
X141084100Y-91053000D01*
X141246793Y-91053000D01*
X141313832Y-91072685D01*
X141359587Y-91125489D01*
X141366444Y-91144450D01*
X141367317Y-91147662D01*
X141411186Y-91247015D01*
X141411187Y-91247016D01*
X141487984Y-91323813D01*
X141587338Y-91367682D01*
X141611627Y-91370500D01*
X141838372Y-91370499D01*
X141862662Y-91367682D01*
X141924915Y-91340194D01*
X141994190Y-91331123D01*
X142025085Y-91340194D01*
X142087338Y-91367682D01*
X142111627Y-91370500D01*
X142338372Y-91370499D01*
X142362662Y-91367682D01*
X142424915Y-91340194D01*
X142494190Y-91331123D01*
X142525085Y-91340194D01*
X142587338Y-91367682D01*
X142611627Y-91370500D01*
X142838372Y-91370499D01*
X142862662Y-91367682D01*
X142924915Y-91340194D01*
X142994190Y-91331123D01*
X143025085Y-91340194D01*
X143087338Y-91367682D01*
X143111627Y-91370500D01*
X143338372Y-91370499D01*
X143362662Y-91367682D01*
X143424915Y-91340194D01*
X143494190Y-91331123D01*
X143525085Y-91340194D01*
X143587338Y-91367682D01*
X143611627Y-91370500D01*
X143838372Y-91370499D01*
X143862662Y-91367682D01*
X143924915Y-91340194D01*
X143994190Y-91331123D01*
X144025085Y-91340194D01*
X144087338Y-91367682D01*
X144111627Y-91370500D01*
X144338372Y-91370499D01*
X144362662Y-91367682D01*
X144424915Y-91340194D01*
X144494190Y-91331123D01*
X144525085Y-91340194D01*
X144587338Y-91367682D01*
X144611627Y-91370500D01*
X144838372Y-91370499D01*
X144862662Y-91367682D01*
X144910415Y-91346596D01*
X144979691Y-91337525D01*
X145042876Y-91367348D01*
X145079907Y-91426597D01*
X145084500Y-91460031D01*
X145084500Y-91956333D01*
X145064815Y-92023372D01*
X145048181Y-92044014D01*
X144416586Y-92675608D01*
X144397800Y-92691026D01*
X144365332Y-92712722D01*
X144365324Y-92712729D01*
X143494727Y-93583325D01*
X143494724Y-93583328D01*
X143441022Y-93663701D01*
X143423535Y-93689872D01*
X143374499Y-93808255D01*
X143374497Y-93808261D01*
X143349500Y-93933928D01*
X143349500Y-101669781D01*
X143329815Y-101736820D01*
X143290597Y-101775319D01*
X143206347Y-101827285D01*
X143206343Y-101827288D01*
X143082289Y-101951342D01*
X142990187Y-102100663D01*
X142990184Y-102100671D01*
X142978972Y-102134506D01*
X142939199Y-102191950D01*
X142874683Y-102218772D01*
X142861267Y-102219500D01*
X142658771Y-102219500D01*
X142591732Y-102199815D01*
X142557132Y-102164570D01*
X142556821Y-102164817D01*
X142554528Y-102161917D01*
X142553233Y-102160598D01*
X142552340Y-102159150D01*
X142430350Y-102037160D01*
X142319268Y-101968644D01*
X142283518Y-101946593D01*
X142283513Y-101946591D01*
X142282069Y-101946112D01*
X142119753Y-101892326D01*
X142119751Y-101892325D01*
X142018678Y-101882000D01*
X141445330Y-101882000D01*
X141445312Y-101882001D01*
X141344247Y-101892325D01*
X141180484Y-101946592D01*
X141180481Y-101946593D01*
X141033648Y-102037161D01*
X140911661Y-102159148D01*
X140821093Y-102305981D01*
X140821091Y-102305986D01*
X140799882Y-102369992D01*
X140766826Y-102469747D01*
X140766826Y-102469748D01*
X140766825Y-102469748D01*
X140756500Y-102570815D01*
X140756500Y-103169169D01*
X140756501Y-103169187D01*
X140766825Y-103270252D01*
X140821092Y-103434015D01*
X140821093Y-103434018D01*
X140844946Y-103472690D01*
X140910767Y-103579403D01*
X140911661Y-103580851D01*
X141025629Y-103694819D01*
X141059114Y-103756142D01*
X141054130Y-103825834D01*
X141025629Y-103870181D01*
X140911661Y-103984148D01*
X140821093Y-104130981D01*
X140821091Y-104130986D01*
X140793719Y-104213588D01*
X140766826Y-104294747D01*
X140766826Y-104294748D01*
X140766825Y-104294748D01*
X140756500Y-104395815D01*
X140756500Y-104994169D01*
X140756501Y-104994187D01*
X140766825Y-105095252D01*
X140821092Y-105259015D01*
X140821093Y-105259018D01*
X140855395Y-105314629D01*
X140911660Y-105405850D01*
X141033650Y-105527840D01*
X141054596Y-105540759D01*
X141101320Y-105592704D01*
X141113500Y-105646298D01*
X141113500Y-106724142D01*
X141093815Y-106791181D01*
X141062387Y-106824459D01*
X141047072Y-106835585D01*
X140924588Y-106958069D01*
X140924588Y-106958070D01*
X140924586Y-106958072D01*
X140912650Y-106974501D01*
X140822768Y-107098211D01*
X140744128Y-107252552D01*
X140690597Y-107417302D01*
X140684500Y-107455800D01*
X140663500Y-107588389D01*
X140663500Y-108311611D01*
X140671677Y-108363239D01*
X140688540Y-108469711D01*
X140690598Y-108482701D01*
X140744127Y-108647445D01*
X140822768Y-108801788D01*
X140924586Y-108941928D01*
X141047072Y-109064414D01*
X141187212Y-109166232D01*
X141341555Y-109244873D01*
X141506299Y-109298402D01*
X141677389Y-109325500D01*
X141677390Y-109325500D01*
X141850610Y-109325500D01*
X141850611Y-109325500D01*
X142021701Y-109298402D01*
X142186445Y-109244873D01*
X142340788Y-109166232D01*
X142480928Y-109064414D01*
X142588836Y-108956505D01*
X142650155Y-108923023D01*
X142719847Y-108928007D01*
X142775781Y-108969878D01*
X142782053Y-108979093D01*
X142821682Y-109043343D01*
X142945654Y-109167315D01*
X143094875Y-109259356D01*
X143094880Y-109259358D01*
X143261302Y-109314505D01*
X143261309Y-109314506D01*
X143364019Y-109324999D01*
X143513999Y-109324999D01*
X143514000Y-109324998D01*
X143514000Y-108230330D01*
X143533745Y-108250075D01*
X143619255Y-108299444D01*
X143714630Y-108325000D01*
X143813370Y-108325000D01*
X143908745Y-108299444D01*
X143994255Y-108250075D01*
X144014000Y-108230330D01*
X144014000Y-109324999D01*
X144163972Y-109324999D01*
X144163986Y-109324998D01*
X144266697Y-109314505D01*
X144433119Y-109259358D01*
X144433124Y-109259356D01*
X144582345Y-109167315D01*
X144706315Y-109043345D01*
X144798356Y-108894124D01*
X144798358Y-108894119D01*
X144853505Y-108727697D01*
X144853506Y-108727690D01*
X144863999Y-108624986D01*
X144864000Y-108624973D01*
X144864000Y-108200000D01*
X144044330Y-108200000D01*
X144064075Y-108180255D01*
X144113444Y-108094745D01*
X144139000Y-107999370D01*
X144139000Y-107900630D01*
X144113444Y-107805255D01*
X144064075Y-107719745D01*
X144044330Y-107700000D01*
X144863999Y-107700000D01*
X144863999Y-107275028D01*
X144863998Y-107275013D01*
X144853505Y-107172302D01*
X144798358Y-107005880D01*
X144798356Y-107005875D01*
X144706315Y-106856654D01*
X144582345Y-106732684D01*
X144433124Y-106640643D01*
X144433119Y-106640641D01*
X144266697Y-106585494D01*
X144266690Y-106585493D01*
X144163986Y-106575000D01*
X144014000Y-106575000D01*
X144014000Y-107669670D01*
X143994255Y-107649925D01*
X143908745Y-107600556D01*
X143813370Y-107575000D01*
X143714630Y-107575000D01*
X143619255Y-107600556D01*
X143533745Y-107649925D01*
X143514000Y-107669670D01*
X143514000Y-106575000D01*
X143364027Y-106575000D01*
X143364012Y-106575001D01*
X143261302Y-106585494D01*
X143094880Y-106640641D01*
X143094875Y-106640643D01*
X142945654Y-106732684D01*
X142821684Y-106856654D01*
X142782053Y-106920907D01*
X142730105Y-106967631D01*
X142661142Y-106978853D01*
X142597060Y-106951010D01*
X142588833Y-106943491D01*
X142480927Y-106835585D01*
X142465613Y-106824459D01*
X142422948Y-106769128D01*
X142414500Y-106724142D01*
X142414500Y-105595052D01*
X142434185Y-105528013D01*
X142450819Y-105507371D01*
X142472104Y-105486086D01*
X142552340Y-105405850D01*
X142642908Y-105259016D01*
X142697174Y-105095253D01*
X142707500Y-104994177D01*
X142707499Y-104395824D01*
X142701358Y-104335711D01*
X142697174Y-104294747D01*
X142666111Y-104201007D01*
X142642908Y-104130984D01*
X142552340Y-103984150D01*
X142438371Y-103870181D01*
X142404886Y-103808858D01*
X142409870Y-103739166D01*
X142438371Y-103694819D01*
X142494071Y-103639119D01*
X142552340Y-103580850D01*
X142553233Y-103579401D01*
X142554104Y-103578617D01*
X142556821Y-103575183D01*
X142557407Y-103575647D01*
X142605180Y-103532679D01*
X142658771Y-103520500D01*
X142861267Y-103520500D01*
X142928306Y-103540185D01*
X142974061Y-103592989D01*
X142978972Y-103605494D01*
X142990184Y-103639328D01*
X142990187Y-103639336D01*
X143009660Y-103670906D01*
X143082288Y-103788656D01*
X143206344Y-103912712D01*
X143355666Y-104004814D01*
X143522203Y-104059999D01*
X143624991Y-104070500D01*
X144375008Y-104070499D01*
X144375016Y-104070498D01*
X144375019Y-104070498D01*
X144431302Y-104064748D01*
X144477797Y-104059999D01*
X144644334Y-104004814D01*
X144793656Y-103912712D01*
X144917712Y-103788656D01*
X144919752Y-103785347D01*
X144921745Y-103783555D01*
X144922193Y-103782989D01*
X144922289Y-103783065D01*
X144971694Y-103738623D01*
X145040656Y-103727395D01*
X145104740Y-103755234D01*
X145130829Y-103785339D01*
X145132681Y-103788341D01*
X145132683Y-103788344D01*
X145256654Y-103912315D01*
X145405875Y-104004356D01*
X145405880Y-104004358D01*
X145572302Y-104059505D01*
X145572309Y-104059506D01*
X145675019Y-104069999D01*
X145799999Y-104069999D01*
X146300000Y-104069999D01*
X146424972Y-104069999D01*
X146424986Y-104069998D01*
X146527697Y-104059505D01*
X146694119Y-104004358D01*
X146694124Y-104004356D01*
X146843345Y-103912315D01*
X146967315Y-103788345D01*
X147059356Y-103639124D01*
X147059358Y-103639119D01*
X147114505Y-103472697D01*
X147114506Y-103472690D01*
X147124999Y-103369986D01*
X147125000Y-103369973D01*
X147125000Y-103120000D01*
X146300000Y-103120000D01*
X146300000Y-104069999D01*
X145799999Y-104069999D01*
X145800000Y-104069998D01*
X145800000Y-102620000D01*
X146300000Y-102620000D01*
X147124999Y-102620000D01*
X147124999Y-102370028D01*
X147124998Y-102370013D01*
X147114505Y-102267302D01*
X147059358Y-102100880D01*
X147059356Y-102100875D01*
X146967315Y-101951654D01*
X146843345Y-101827684D01*
X146694124Y-101735643D01*
X146694119Y-101735641D01*
X146527697Y-101680494D01*
X146527690Y-101680493D01*
X146424986Y-101670000D01*
X146300000Y-101670000D01*
X146300000Y-102620000D01*
X145800000Y-102620000D01*
X145800000Y-101670000D01*
X145675027Y-101670000D01*
X145675012Y-101670001D01*
X145572302Y-101680494D01*
X145405880Y-101735641D01*
X145405875Y-101735643D01*
X145256654Y-101827684D01*
X145132683Y-101951655D01*
X145132679Y-101951660D01*
X145130826Y-101954665D01*
X145129018Y-101956290D01*
X145128202Y-101957323D01*
X145128025Y-101957183D01*
X145078874Y-102001385D01*
X145009911Y-102012601D01*
X144945831Y-101984752D01*
X144919753Y-101954653D01*
X144919737Y-101954628D01*
X144917712Y-101951344D01*
X144793656Y-101827288D01*
X144793652Y-101827285D01*
X144709403Y-101775319D01*
X144662678Y-101723371D01*
X144650500Y-101669781D01*
X144650500Y-95863599D01*
X146090964Y-95863599D01*
X146090964Y-95863600D01*
X146988588Y-95863600D01*
X146955675Y-95920607D01*
X146921600Y-96047774D01*
X146921600Y-96179426D01*
X146955675Y-96306593D01*
X146988588Y-96363600D01*
X146090964Y-96363600D01*
X146148167Y-96577086D01*
X146148170Y-96577092D01*
X146247999Y-96791178D01*
X146383494Y-96984682D01*
X146550517Y-97151705D01*
X146744021Y-97287200D01*
X146958107Y-97387029D01*
X146958116Y-97387033D01*
X147171600Y-97444234D01*
X147171600Y-96546612D01*
X147228607Y-96579525D01*
X147355774Y-96613600D01*
X147487426Y-96613600D01*
X147614593Y-96579525D01*
X147671600Y-96546612D01*
X147671600Y-97444233D01*
X147885083Y-97387033D01*
X147885092Y-97387029D01*
X148099178Y-97287200D01*
X148292682Y-97151705D01*
X148459705Y-96984682D01*
X148589719Y-96799005D01*
X148644296Y-96755381D01*
X148713795Y-96748188D01*
X148776149Y-96779710D01*
X148792869Y-96799005D01*
X148923105Y-96985001D01*
X149090199Y-97152095D01*
X149186984Y-97219865D01*
X149283765Y-97287632D01*
X149283767Y-97287633D01*
X149283770Y-97287635D01*
X149497937Y-97387503D01*
X149726192Y-97448663D01*
X149902634Y-97464100D01*
X149961599Y-97469259D01*
X149961600Y-97469259D01*
X149961601Y-97469259D01*
X150020566Y-97464100D01*
X150197008Y-97448663D01*
X150425263Y-97387503D01*
X150639430Y-97287635D01*
X150833001Y-97152095D01*
X150954929Y-97030166D01*
X151016248Y-96996684D01*
X151085940Y-97001668D01*
X151141874Y-97043539D01*
X151158789Y-97074517D01*
X151207802Y-97205928D01*
X151207806Y-97205935D01*
X151294052Y-97321144D01*
X151294055Y-97321147D01*
X151409264Y-97407393D01*
X151409271Y-97407397D01*
X151544117Y-97457691D01*
X151544116Y-97457691D01*
X151551044Y-97458435D01*
X151603727Y-97464100D01*
X153399472Y-97464099D01*
X153459083Y-97457691D01*
X153593931Y-97407396D01*
X153709146Y-97321146D01*
X153795396Y-97205931D01*
X153845691Y-97071083D01*
X153852100Y-97011473D01*
X153852099Y-95215728D01*
X153845691Y-95156117D01*
X153844410Y-95152683D01*
X153795397Y-95021271D01*
X153795393Y-95021264D01*
X153709147Y-94906055D01*
X153709144Y-94906052D01*
X153593935Y-94819806D01*
X153593928Y-94819802D01*
X153459082Y-94769508D01*
X153459083Y-94769508D01*
X153399483Y-94763101D01*
X153399481Y-94763100D01*
X153399473Y-94763100D01*
X153399464Y-94763100D01*
X151603729Y-94763100D01*
X151603723Y-94763101D01*
X151544116Y-94769508D01*
X151409271Y-94819802D01*
X151409264Y-94819806D01*
X151294055Y-94906052D01*
X151294052Y-94906055D01*
X151207806Y-95021264D01*
X151207803Y-95021269D01*
X151158789Y-95152683D01*
X151116917Y-95208616D01*
X151051453Y-95233033D01*
X150983180Y-95218181D01*
X150954926Y-95197030D01*
X150833002Y-95075106D01*
X150832995Y-95075101D01*
X150639434Y-94939567D01*
X150639430Y-94939565D01*
X150599720Y-94921048D01*
X150425263Y-94839697D01*
X150425259Y-94839696D01*
X150425255Y-94839694D01*
X150197013Y-94778538D01*
X150197003Y-94778536D01*
X149961601Y-94757941D01*
X149961599Y-94757941D01*
X149726196Y-94778536D01*
X149726186Y-94778538D01*
X149497944Y-94839694D01*
X149497937Y-94839696D01*
X149497937Y-94839697D01*
X149484416Y-94846001D01*
X149283771Y-94939564D01*
X149283769Y-94939565D01*
X149090197Y-95075105D01*
X148923108Y-95242194D01*
X148792869Y-95428195D01*
X148738292Y-95471819D01*
X148668793Y-95479012D01*
X148606439Y-95447490D01*
X148589719Y-95428194D01*
X148459713Y-95242526D01*
X148459708Y-95242520D01*
X148292682Y-95075494D01*
X148099178Y-94939999D01*
X147885092Y-94840170D01*
X147885086Y-94840167D01*
X147671600Y-94782964D01*
X147671600Y-95680588D01*
X147614593Y-95647675D01*
X147487426Y-95613600D01*
X147355774Y-95613600D01*
X147228607Y-95647675D01*
X147171600Y-95680588D01*
X147171600Y-94782964D01*
X147171599Y-94782964D01*
X146958113Y-94840167D01*
X146958107Y-94840170D01*
X146744022Y-94939999D01*
X146744020Y-94940000D01*
X146550526Y-95075486D01*
X146550520Y-95075491D01*
X146383491Y-95242520D01*
X146383486Y-95242526D01*
X146248000Y-95436020D01*
X146247999Y-95436022D01*
X146148170Y-95650107D01*
X146148167Y-95650113D01*
X146090964Y-95863599D01*
X144650500Y-95863599D01*
X144650500Y-94318808D01*
X144670185Y-94251769D01*
X144686819Y-94231127D01*
X144984018Y-93933928D01*
X145285277Y-93632669D01*
X145306973Y-93600196D01*
X145322384Y-93581418D01*
X145445511Y-93458291D01*
X145506832Y-93424808D01*
X145576524Y-93429792D01*
X145632457Y-93471664D01*
X145651850Y-93509978D01*
X145679986Y-93602728D01*
X145772886Y-93776532D01*
X145772890Y-93776539D01*
X145897916Y-93928883D01*
X146050260Y-94053909D01*
X146050267Y-94053913D01*
X146224066Y-94146811D01*
X146224069Y-94146811D01*
X146224073Y-94146814D01*
X146412668Y-94204024D01*
X146608800Y-94223341D01*
X146804932Y-94204024D01*
X146993527Y-94146814D01*
X147167338Y-94053910D01*
X147319683Y-93928883D01*
X147444710Y-93776538D01*
X147528168Y-93620400D01*
X147537611Y-93602733D01*
X147537613Y-93602728D01*
X147537614Y-93602727D01*
X147594824Y-93414132D01*
X147614141Y-93218000D01*
X147594824Y-93021868D01*
X147537614Y-92833273D01*
X147537611Y-92833269D01*
X147537611Y-92833266D01*
X147444713Y-92659467D01*
X147444709Y-92659460D01*
X147319683Y-92507116D01*
X147308763Y-92498154D01*
X149697801Y-92498154D01*
X149708119Y-92599152D01*
X149762346Y-92762800D01*
X149762351Y-92762811D01*
X149852852Y-92909534D01*
X149852855Y-92909538D01*
X149974761Y-93031444D01*
X149974765Y-93031447D01*
X150121488Y-93121948D01*
X150121499Y-93121953D01*
X150285147Y-93176180D01*
X150386152Y-93186499D01*
X150422800Y-93186499D01*
X150922800Y-93186499D01*
X150959440Y-93186499D01*
X150959454Y-93186498D01*
X151060452Y-93176180D01*
X151224100Y-93121953D01*
X151224111Y-93121948D01*
X151370834Y-93031447D01*
X151370838Y-93031444D01*
X151492744Y-92909538D01*
X151492747Y-92909534D01*
X151583248Y-92762811D01*
X151583253Y-92762800D01*
X151637480Y-92599152D01*
X151647799Y-92498154D01*
X151647800Y-92498141D01*
X151647800Y-92399000D01*
X150922800Y-92399000D01*
X150922800Y-93186499D01*
X150422800Y-93186499D01*
X150422800Y-92399000D01*
X149697801Y-92399000D01*
X149697801Y-92498154D01*
X147308763Y-92498154D01*
X147167339Y-92382090D01*
X147167332Y-92382086D01*
X146993530Y-92289187D01*
X146953502Y-92277044D01*
X146895065Y-92238745D01*
X146866609Y-92174933D01*
X146865500Y-92158384D01*
X146865500Y-91750615D01*
X146885185Y-91683576D01*
X146937989Y-91637821D01*
X146942048Y-91636054D01*
X147082455Y-91577896D01*
X147082456Y-91577896D01*
X147201531Y-91486525D01*
X147253937Y-91418228D01*
X147310364Y-91377024D01*
X147338030Y-91370538D01*
X147338366Y-91370499D01*
X147338372Y-91370499D01*
X147362662Y-91367682D01*
X147462016Y-91323813D01*
X147538813Y-91247016D01*
X147538815Y-91247009D01*
X147545307Y-91237535D01*
X147546623Y-91238436D01*
X147583279Y-91195039D01*
X147650065Y-91174510D01*
X147651630Y-91174500D01*
X149767455Y-91174500D01*
X149834494Y-91194185D01*
X149880249Y-91246989D01*
X149890193Y-91316147D01*
X149861168Y-91379703D01*
X149855136Y-91386181D01*
X149852855Y-91388461D01*
X149852852Y-91388465D01*
X149762351Y-91535188D01*
X149762346Y-91535199D01*
X149708119Y-91698847D01*
X149697800Y-91799845D01*
X149697800Y-91899000D01*
X151647799Y-91899000D01*
X151647799Y-91799860D01*
X151647798Y-91799845D01*
X151637480Y-91698847D01*
X151583253Y-91535199D01*
X151583248Y-91535188D01*
X151492747Y-91388465D01*
X151492744Y-91388461D01*
X151490464Y-91386181D01*
X151489398Y-91384230D01*
X151488267Y-91382799D01*
X151488511Y-91382605D01*
X151456979Y-91324858D01*
X151461963Y-91255166D01*
X151503835Y-91199233D01*
X151569299Y-91174816D01*
X151578145Y-91174500D01*
X151732970Y-91174500D01*
X151800009Y-91194185D01*
X151820651Y-91210819D01*
X152222781Y-91612949D01*
X152256266Y-91674272D01*
X152259100Y-91700630D01*
X152259100Y-92123518D01*
X152259100Y-92123520D01*
X152259099Y-92123520D01*
X152287940Y-92268507D01*
X152287943Y-92268517D01*
X152344513Y-92405090D01*
X152344515Y-92405093D01*
X152344516Y-92405095D01*
X152344765Y-92405467D01*
X152354164Y-92419535D01*
X152354163Y-92419535D01*
X152426646Y-92528014D01*
X152426652Y-92528021D01*
X153776181Y-93877548D01*
X153809666Y-93938871D01*
X153812500Y-93965229D01*
X153812500Y-94345401D01*
X153812501Y-94345419D01*
X153823000Y-94448196D01*
X153823001Y-94448199D01*
X153878185Y-94614731D01*
X153878187Y-94614736D01*
X153886290Y-94627873D01*
X153970288Y-94764056D01*
X154094344Y-94888112D01*
X154243666Y-94980214D01*
X154410203Y-95035399D01*
X154512991Y-95045900D01*
X155147169Y-95045899D01*
X155214208Y-95065583D01*
X155234850Y-95082218D01*
X156239580Y-96086948D01*
X156239584Y-96086951D01*
X156362498Y-96169080D01*
X156362511Y-96169087D01*
X156462492Y-96210500D01*
X156499087Y-96225658D01*
X156499091Y-96225658D01*
X156499092Y-96225659D01*
X156644079Y-96254500D01*
X156644082Y-96254500D01*
X156791917Y-96254500D01*
X157574329Y-96254500D01*
X157641368Y-96274185D01*
X157687123Y-96326989D01*
X157697067Y-96396147D01*
X157670181Y-96457165D01*
X157668099Y-96459703D01*
X157660087Y-96469465D01*
X157660086Y-96469467D01*
X157567188Y-96643266D01*
X157509975Y-96831870D01*
X157490659Y-97028000D01*
X157509975Y-97224129D01*
X157509976Y-97224132D01*
X157557422Y-97380541D01*
X157567188Y-97412733D01*
X157660086Y-97586532D01*
X157660090Y-97586539D01*
X157710577Y-97648057D01*
X157737890Y-97712367D01*
X157726099Y-97781235D01*
X157702405Y-97814403D01*
X157671180Y-97845628D01*
X157609857Y-97879113D01*
X157540165Y-97874129D01*
X157495818Y-97845628D01*
X157381851Y-97731661D01*
X157381850Y-97731660D01*
X157246308Y-97648057D01*
X157235018Y-97641093D01*
X157235013Y-97641091D01*
X157231392Y-97639891D01*
X157071253Y-97586826D01*
X157071251Y-97586825D01*
X156970178Y-97576500D01*
X156371830Y-97576500D01*
X156371812Y-97576501D01*
X156270747Y-97586825D01*
X156106984Y-97641092D01*
X156106981Y-97641093D01*
X155960148Y-97731661D01*
X155838161Y-97853648D01*
X155747593Y-98000481D01*
X155747591Y-98000486D01*
X155723590Y-98072916D01*
X155693326Y-98164247D01*
X155693326Y-98164248D01*
X155693325Y-98164248D01*
X155683000Y-98265315D01*
X155683000Y-98838669D01*
X155683001Y-98838687D01*
X155693325Y-98939752D01*
X155729609Y-99049249D01*
X155733674Y-99061516D01*
X155747592Y-99103515D01*
X155747593Y-99103518D01*
X155781895Y-99159129D01*
X155838160Y-99250350D01*
X155960150Y-99372340D01*
X155961598Y-99373233D01*
X155962382Y-99374104D01*
X155965817Y-99376821D01*
X155965352Y-99377407D01*
X156008321Y-99425180D01*
X156020500Y-99478771D01*
X156020500Y-106499744D01*
X156000815Y-106566783D01*
X155948011Y-106612538D01*
X155934819Y-106617675D01*
X155819550Y-106655128D01*
X155665211Y-106733768D01*
X155616543Y-106769128D01*
X155525072Y-106835586D01*
X155525070Y-106835588D01*
X155525069Y-106835588D01*
X155402588Y-106958069D01*
X155402581Y-106958078D01*
X155342317Y-107041023D01*
X155286987Y-107083689D01*
X155217374Y-107089667D01*
X155155579Y-107057061D01*
X155141683Y-107041023D01*
X155081418Y-106958078D01*
X155081414Y-106958072D01*
X154958928Y-106835586D01*
X154818788Y-106733768D01*
X154711411Y-106679057D01*
X154664447Y-106655128D01*
X154664446Y-106655127D01*
X154664445Y-106655127D01*
X154499701Y-106601598D01*
X154499699Y-106601597D01*
X154499698Y-106601597D01*
X154368271Y-106580781D01*
X154328611Y-106574500D01*
X154155389Y-106574500D01*
X154115728Y-106580781D01*
X153984302Y-106601597D01*
X153819552Y-106655128D01*
X153665211Y-106733768D01*
X153616543Y-106769128D01*
X153525072Y-106835586D01*
X153525070Y-106835588D01*
X153525069Y-106835588D01*
X153402588Y-106958069D01*
X153402581Y-106958078D01*
X153342317Y-107041023D01*
X153286987Y-107083689D01*
X153217374Y-107089667D01*
X153155579Y-107057061D01*
X153141683Y-107041023D01*
X153081418Y-106958078D01*
X153081414Y-106958072D01*
X152958928Y-106835586D01*
X152943612Y-106824458D01*
X152900948Y-106769128D01*
X152892500Y-106724142D01*
X152892500Y-105116081D01*
X152912185Y-105049042D01*
X152937834Y-105020228D01*
X152958483Y-105003283D01*
X153083510Y-104850938D01*
X153176414Y-104677127D01*
X153233624Y-104488532D01*
X153252941Y-104292400D01*
X153233624Y-104096268D01*
X153176414Y-103907673D01*
X153176411Y-103907669D01*
X153176411Y-103907666D01*
X153083513Y-103733867D01*
X153083509Y-103733860D01*
X152958483Y-103581516D01*
X152806139Y-103456490D01*
X152806132Y-103456486D01*
X152632333Y-103363588D01*
X152632327Y-103363586D01*
X152443732Y-103306376D01*
X152443729Y-103306375D01*
X152247600Y-103287059D01*
X152051470Y-103306375D01*
X151862866Y-103363588D01*
X151689067Y-103456486D01*
X151689060Y-103456490D01*
X151536716Y-103581516D01*
X151411690Y-103733860D01*
X151411686Y-103733867D01*
X151318788Y-103907666D01*
X151261575Y-104096270D01*
X151242259Y-104292400D01*
X151261575Y-104488529D01*
X151318788Y-104677133D01*
X151411686Y-104850932D01*
X151411690Y-104850939D01*
X151536713Y-105003279D01*
X151536715Y-105003280D01*
X151536717Y-105003283D01*
X151546164Y-105011036D01*
X151585498Y-105068779D01*
X151591500Y-105106889D01*
X151591500Y-106724142D01*
X151571815Y-106791181D01*
X151540387Y-106824459D01*
X151525072Y-106835585D01*
X151402588Y-106958069D01*
X151402588Y-106958070D01*
X151402586Y-106958072D01*
X151390650Y-106974501D01*
X151300768Y-107098211D01*
X151222128Y-107252552D01*
X151168597Y-107417302D01*
X151162500Y-107455800D01*
X151141500Y-107588389D01*
X151141500Y-108311611D01*
X151149677Y-108363239D01*
X151166540Y-108469711D01*
X151168598Y-108482701D01*
X151222127Y-108647445D01*
X151300768Y-108801788D01*
X151402586Y-108941928D01*
X151525072Y-109064414D01*
X151665212Y-109166232D01*
X151819555Y-109244873D01*
X151984299Y-109298402D01*
X152155389Y-109325500D01*
X152155390Y-109325500D01*
X152328610Y-109325500D01*
X152328611Y-109325500D01*
X152499701Y-109298402D01*
X152664445Y-109244873D01*
X152818788Y-109166232D01*
X152958928Y-109064414D01*
X153081414Y-108941928D01*
X153141682Y-108858975D01*
X153197012Y-108816311D01*
X153266626Y-108810332D01*
X153328421Y-108842938D01*
X153342315Y-108858973D01*
X153402586Y-108941928D01*
X153402588Y-108941930D01*
X153525070Y-109064412D01*
X153525076Y-109064417D01*
X153540382Y-109075537D01*
X153583050Y-109130866D01*
X153591500Y-109175857D01*
X153591500Y-109398871D01*
X153607569Y-109479651D01*
X153607569Y-109479652D01*
X153616497Y-109524536D01*
X153616499Y-109524544D01*
X153657084Y-109622526D01*
X153665535Y-109642927D01*
X153693300Y-109684481D01*
X153736726Y-109749473D01*
X154728527Y-110741274D01*
X154728530Y-110741276D01*
X154797734Y-110787516D01*
X154835073Y-110812465D01*
X154953456Y-110861501D01*
X154953460Y-110861501D01*
X154953461Y-110861502D01*
X155079128Y-110886500D01*
X155079131Y-110886500D01*
X160058292Y-110886500D01*
X160125331Y-110906185D01*
X160150915Y-110929380D01*
X160151053Y-110929243D01*
X160153852Y-110932042D01*
X160155555Y-110933586D01*
X160156155Y-110934345D01*
X160156160Y-110934350D01*
X160278150Y-111056340D01*
X160424984Y-111146908D01*
X160588747Y-111201174D01*
X160689823Y-111211500D01*
X161288176Y-111211499D01*
X161288184Y-111211498D01*
X161288187Y-111211498D01*
X161343530Y-111205844D01*
X161389253Y-111201174D01*
X161553016Y-111146908D01*
X161699850Y-111056340D01*
X161813819Y-110942371D01*
X161875142Y-110908886D01*
X161944834Y-110913870D01*
X161989181Y-110942371D01*
X162103150Y-111056340D01*
X162249984Y-111146908D01*
X162413747Y-111201174D01*
X162514823Y-111211500D01*
X163113176Y-111211499D01*
X163113184Y-111211498D01*
X163113187Y-111211498D01*
X163168530Y-111205844D01*
X163214253Y-111201174D01*
X163378016Y-111146908D01*
X163524850Y-111056340D01*
X163646840Y-110934350D01*
X163737408Y-110787516D01*
X163791674Y-110623753D01*
X163802000Y-110522677D01*
X163801999Y-109949324D01*
X163791674Y-109848247D01*
X163737408Y-109684484D01*
X163646840Y-109537650D01*
X163524850Y-109415660D01*
X163524849Y-109415659D01*
X163524846Y-109415656D01*
X163524845Y-109415655D01*
X163523400Y-109414764D01*
X163522617Y-109413893D01*
X163519184Y-109411179D01*
X163519647Y-109410592D01*
X163490974Y-109378711D01*
X168149500Y-109378711D01*
X168149500Y-109621288D01*
X168181161Y-109861785D01*
X168243947Y-110096104D01*
X168336773Y-110320205D01*
X168336776Y-110320212D01*
X168458064Y-110530289D01*
X168458066Y-110530292D01*
X168458067Y-110530293D01*
X168605733Y-110722736D01*
X168605739Y-110722743D01*
X168777256Y-110894260D01*
X168777261Y-110894264D01*
X168777262Y-110894265D01*
X168969711Y-111041936D01*
X169179788Y-111163224D01*
X169403900Y-111256054D01*
X169638211Y-111318838D01*
X169818586Y-111342584D01*
X169878711Y-111350500D01*
X169878712Y-111350500D01*
X170121289Y-111350500D01*
X170169388Y-111344167D01*
X170361789Y-111318838D01*
X170596100Y-111256054D01*
X170820212Y-111163224D01*
X171030289Y-111041936D01*
X171222738Y-110894265D01*
X171394265Y-110722738D01*
X171541936Y-110530289D01*
X171663224Y-110320212D01*
X171756054Y-110096100D01*
X171818838Y-109861789D01*
X171850500Y-109621288D01*
X171850500Y-109378712D01*
X171818838Y-109138211D01*
X171756054Y-108903900D01*
X171663224Y-108679788D01*
X171541936Y-108469711D01*
X171394265Y-108277262D01*
X171394260Y-108277256D01*
X171222743Y-108105739D01*
X171222736Y-108105733D01*
X171030293Y-107958067D01*
X171030292Y-107958066D01*
X171030289Y-107958064D01*
X170820212Y-107836776D01*
X170820205Y-107836773D01*
X170596104Y-107743947D01*
X170361785Y-107681161D01*
X170121289Y-107649500D01*
X170121288Y-107649500D01*
X169878712Y-107649500D01*
X169878711Y-107649500D01*
X169638214Y-107681161D01*
X169403895Y-107743947D01*
X169179794Y-107836773D01*
X169179785Y-107836777D01*
X168969706Y-107958067D01*
X168777263Y-108105733D01*
X168777256Y-108105739D01*
X168605739Y-108277256D01*
X168605733Y-108277263D01*
X168458067Y-108469706D01*
X168336777Y-108679785D01*
X168336773Y-108679794D01*
X168243947Y-108903895D01*
X168181161Y-109138214D01*
X168149500Y-109378711D01*
X163490974Y-109378711D01*
X163476677Y-109362815D01*
X163464500Y-109309228D01*
X163464500Y-105868499D01*
X163484185Y-105801460D01*
X163536989Y-105755705D01*
X163588500Y-105744499D01*
X163711871Y-105744499D01*
X163711872Y-105744499D01*
X163771483Y-105738091D01*
X163906331Y-105687796D01*
X164021546Y-105601546D01*
X164107796Y-105486331D01*
X164158091Y-105351483D01*
X164164500Y-105291873D01*
X164164499Y-104014806D01*
X164184184Y-103947768D01*
X164200813Y-103927131D01*
X164478920Y-103649024D01*
X164540241Y-103615541D01*
X164609933Y-103620525D01*
X164654280Y-103649026D01*
X164688281Y-103683027D01*
X164721766Y-103744350D01*
X164724600Y-103770708D01*
X164724600Y-104071068D01*
X164724601Y-104071087D01*
X164734925Y-104172152D01*
X164743560Y-104198210D01*
X164789192Y-104335916D01*
X164879760Y-104482750D01*
X165001750Y-104604740D01*
X165148584Y-104695308D01*
X165312347Y-104749574D01*
X165413423Y-104759900D01*
X166111776Y-104759899D01*
X166111784Y-104759898D01*
X166111787Y-104759898D01*
X166167130Y-104754244D01*
X166212853Y-104749574D01*
X166376616Y-104695308D01*
X166523450Y-104604740D01*
X166537771Y-104590418D01*
X166599089Y-104556933D01*
X166668781Y-104561914D01*
X166713134Y-104590417D01*
X166727061Y-104604344D01*
X166727065Y-104604347D01*
X166873788Y-104694848D01*
X166873799Y-104694853D01*
X167037447Y-104749080D01*
X167138451Y-104759399D01*
X167737600Y-104759399D01*
X167836740Y-104759399D01*
X167836754Y-104759398D01*
X167937752Y-104749080D01*
X168101400Y-104694853D01*
X168101411Y-104694848D01*
X168248134Y-104604347D01*
X168248138Y-104604344D01*
X168370044Y-104482438D01*
X168370047Y-104482434D01*
X168460548Y-104335711D01*
X168460553Y-104335700D01*
X168514780Y-104172052D01*
X168525099Y-104071054D01*
X168525100Y-104071041D01*
X168525100Y-104034400D01*
X167737600Y-104034400D01*
X167737600Y-104759399D01*
X167138451Y-104759399D01*
X167237600Y-104759398D01*
X167237600Y-103534400D01*
X167737600Y-103534400D01*
X168525099Y-103534400D01*
X168525099Y-103497760D01*
X168525098Y-103497745D01*
X168524936Y-103496155D01*
X169592000Y-103496155D01*
X169592000Y-104144000D01*
X170508988Y-104144000D01*
X170476075Y-104201007D01*
X170442000Y-104328174D01*
X170442000Y-104459826D01*
X170476075Y-104586993D01*
X170508988Y-104644000D01*
X169592000Y-104644000D01*
X169592000Y-105291844D01*
X169598401Y-105351372D01*
X169598403Y-105351379D01*
X169648645Y-105486086D01*
X169648649Y-105486093D01*
X169734809Y-105601187D01*
X169734812Y-105601190D01*
X169849906Y-105687350D01*
X169849913Y-105687354D01*
X169984620Y-105737596D01*
X169984627Y-105737598D01*
X170044155Y-105743999D01*
X170044172Y-105744000D01*
X170692000Y-105744000D01*
X170692000Y-104827012D01*
X170749007Y-104859925D01*
X170876174Y-104894000D01*
X171007826Y-104894000D01*
X171134993Y-104859925D01*
X171192000Y-104827012D01*
X171192000Y-105744000D01*
X171839828Y-105744000D01*
X171839844Y-105743999D01*
X171899372Y-105737598D01*
X171899379Y-105737596D01*
X172034086Y-105687354D01*
X172034093Y-105687350D01*
X172149187Y-105601190D01*
X172149190Y-105601187D01*
X172235350Y-105486093D01*
X172235354Y-105486086D01*
X172285596Y-105351379D01*
X172285598Y-105351372D01*
X172291999Y-105291844D01*
X172292000Y-105291827D01*
X172292000Y-104644000D01*
X171375012Y-104644000D01*
X171407925Y-104586993D01*
X171442000Y-104459826D01*
X171442000Y-104328174D01*
X171407925Y-104201007D01*
X171375012Y-104144000D01*
X172292000Y-104144000D01*
X172292000Y-103496172D01*
X172291999Y-103496155D01*
X172285598Y-103436627D01*
X172285596Y-103436620D01*
X172235354Y-103301913D01*
X172235350Y-103301906D01*
X172149190Y-103186812D01*
X172149187Y-103186809D01*
X172034093Y-103100649D01*
X172034086Y-103100645D01*
X171899379Y-103050403D01*
X171899372Y-103050401D01*
X171839844Y-103044000D01*
X171192000Y-103044000D01*
X171192000Y-103960988D01*
X171134993Y-103928075D01*
X171007826Y-103894000D01*
X170876174Y-103894000D01*
X170749007Y-103928075D01*
X170692000Y-103960988D01*
X170692000Y-103044000D01*
X170044155Y-103044000D01*
X169984627Y-103050401D01*
X169984620Y-103050403D01*
X169849913Y-103100645D01*
X169849906Y-103100649D01*
X169734812Y-103186809D01*
X169734809Y-103186812D01*
X169648649Y-103301906D01*
X169648645Y-103301913D01*
X169598403Y-103436620D01*
X169598401Y-103436627D01*
X169592000Y-103496155D01*
X168524936Y-103496155D01*
X168514780Y-103396747D01*
X168460553Y-103233099D01*
X168460548Y-103233088D01*
X168370047Y-103086365D01*
X168370044Y-103086361D01*
X168248138Y-102964455D01*
X168248134Y-102964452D01*
X168101411Y-102873951D01*
X168101400Y-102873946D01*
X167937752Y-102819719D01*
X167836754Y-102809400D01*
X167737600Y-102809400D01*
X167737600Y-103534400D01*
X167237600Y-103534400D01*
X167237600Y-102809399D01*
X167138460Y-102809400D01*
X167138444Y-102809401D01*
X167037447Y-102819719D01*
X166873799Y-102873946D01*
X166873788Y-102873951D01*
X166727065Y-102964452D01*
X166713132Y-102978385D01*
X166651808Y-103011868D01*
X166582116Y-103006882D01*
X166537772Y-102978382D01*
X166523451Y-102964061D01*
X166523450Y-102964060D01*
X166432229Y-102907795D01*
X166376618Y-102873493D01*
X166376613Y-102873491D01*
X166354007Y-102866000D01*
X166212853Y-102819226D01*
X166212851Y-102819225D01*
X166111784Y-102808900D01*
X166111777Y-102808900D01*
X165925300Y-102808900D01*
X165858261Y-102789215D01*
X165812506Y-102736411D01*
X165801300Y-102684900D01*
X165801300Y-102061663D01*
X165820985Y-101994624D01*
X165873789Y-101948869D01*
X165942947Y-101938925D01*
X166006503Y-101967950D01*
X166040837Y-102021375D01*
X166042091Y-102020908D01*
X166044240Y-102026671D01*
X166044277Y-102026728D01*
X166044314Y-102026869D01*
X166095045Y-102162886D01*
X166095049Y-102162893D01*
X166181209Y-102277987D01*
X166181212Y-102277990D01*
X166296306Y-102364150D01*
X166296313Y-102364154D01*
X166431020Y-102414396D01*
X166431027Y-102414398D01*
X166490555Y-102420799D01*
X166490572Y-102420800D01*
X167288400Y-102420800D01*
X167788400Y-102420800D01*
X168586228Y-102420800D01*
X168586244Y-102420799D01*
X168645772Y-102414398D01*
X168645779Y-102414396D01*
X168780486Y-102364154D01*
X168780493Y-102364150D01*
X168895587Y-102277990D01*
X168895590Y-102277987D01*
X168981750Y-102162893D01*
X168981754Y-102162886D01*
X169031996Y-102028179D01*
X169031998Y-102028172D01*
X169038399Y-101968644D01*
X169038400Y-101968627D01*
X169038400Y-101420800D01*
X167788400Y-101420800D01*
X167788400Y-102420800D01*
X167288400Y-102420800D01*
X167288400Y-101044800D01*
X167308085Y-100977761D01*
X167360889Y-100932006D01*
X167412400Y-100920800D01*
X169038400Y-100920800D01*
X169038400Y-100372972D01*
X169038399Y-100372955D01*
X169031998Y-100313427D01*
X169031996Y-100313420D01*
X168981754Y-100178713D01*
X168981752Y-100178710D01*
X168960923Y-100150886D01*
X169869401Y-100150886D01*
X169879894Y-100253597D01*
X169935041Y-100420019D01*
X169935043Y-100420024D01*
X170027084Y-100569245D01*
X170151054Y-100693215D01*
X170300275Y-100785256D01*
X170300280Y-100785258D01*
X170466702Y-100840405D01*
X170466709Y-100840406D01*
X170569419Y-100850899D01*
X170844399Y-100850899D01*
X171344400Y-100850899D01*
X171619372Y-100850899D01*
X171619386Y-100850898D01*
X171722097Y-100840405D01*
X171888519Y-100785258D01*
X171888524Y-100785256D01*
X172037745Y-100693215D01*
X172161715Y-100569245D01*
X172253756Y-100420024D01*
X172253758Y-100420019D01*
X172308905Y-100253597D01*
X172308906Y-100253590D01*
X172319399Y-100150886D01*
X172319400Y-100150873D01*
X172319400Y-100013400D01*
X171344400Y-100013400D01*
X171344400Y-100850899D01*
X170844399Y-100850899D01*
X170844400Y-100850898D01*
X170844400Y-100013400D01*
X169869401Y-100013400D01*
X169869401Y-100150886D01*
X168960923Y-100150886D01*
X168919482Y-100095527D01*
X168895065Y-100030062D01*
X168909917Y-99961789D01*
X168919483Y-99946904D01*
X168982196Y-99863131D01*
X169032491Y-99728283D01*
X169038900Y-99668673D01*
X169038899Y-98072928D01*
X169032491Y-98013317D01*
X169027705Y-98000486D01*
X168982197Y-97878471D01*
X168982196Y-97878469D01*
X168919794Y-97795111D01*
X168895377Y-97729647D01*
X168910228Y-97661374D01*
X168919794Y-97646489D01*
X168982196Y-97563131D01*
X169032491Y-97428283D01*
X169038900Y-97368673D01*
X169038900Y-97345300D01*
X169058585Y-97278261D01*
X169111389Y-97232506D01*
X169162900Y-97221300D01*
X169744900Y-97221300D01*
X169811939Y-97240985D01*
X169857694Y-97293789D01*
X169868900Y-97345300D01*
X169868900Y-98075901D01*
X169868901Y-98075919D01*
X169879400Y-98178696D01*
X169879401Y-98178699D01*
X169913798Y-98282500D01*
X169934586Y-98345234D01*
X170026688Y-98494556D01*
X170150744Y-98618612D01*
X170154028Y-98620637D01*
X170154053Y-98620653D01*
X170155845Y-98622646D01*
X170156411Y-98623093D01*
X170156334Y-98623189D01*
X170200779Y-98672599D01*
X170212003Y-98741561D01*
X170184161Y-98805644D01*
X170154065Y-98831726D01*
X170151060Y-98833579D01*
X170151055Y-98833583D01*
X170027084Y-98957554D01*
X169935043Y-99106775D01*
X169935041Y-99106780D01*
X169879894Y-99273202D01*
X169879893Y-99273209D01*
X169869400Y-99375913D01*
X169869400Y-99513400D01*
X172319399Y-99513400D01*
X172319399Y-99375928D01*
X172319398Y-99375913D01*
X172308905Y-99273202D01*
X172253758Y-99106780D01*
X172253756Y-99106775D01*
X172161715Y-98957554D01*
X172037744Y-98833583D01*
X172037741Y-98833581D01*
X172034739Y-98831729D01*
X172033113Y-98829921D01*
X172032077Y-98829102D01*
X172032217Y-98828924D01*
X171988017Y-98779780D01*
X171976797Y-98710817D01*
X172004643Y-98646736D01*
X172034744Y-98620654D01*
X172038056Y-98618612D01*
X172162112Y-98494556D01*
X172254214Y-98345234D01*
X172309399Y-98178697D01*
X172319900Y-98075909D01*
X172319899Y-97300892D01*
X172319173Y-97293789D01*
X172309399Y-97198103D01*
X172309398Y-97198100D01*
X172293544Y-97150256D01*
X172254214Y-97031566D01*
X172162112Y-96882244D01*
X172038056Y-96758188D01*
X171888734Y-96666086D01*
X171819868Y-96643266D01*
X171722198Y-96610901D01*
X171722187Y-96610899D01*
X171719875Y-96610663D01*
X171718542Y-96610118D01*
X171715572Y-96609483D01*
X171715685Y-96608953D01*
X171655186Y-96584260D01*
X171629388Y-96556197D01*
X171599674Y-96511727D01*
X171153473Y-96065526D01*
X171153469Y-96065523D01*
X171046927Y-95994335D01*
X170928544Y-95945299D01*
X170928538Y-95945297D01*
X170802871Y-95920300D01*
X170802869Y-95920300D01*
X169162899Y-95920300D01*
X169095860Y-95900615D01*
X169050105Y-95847811D01*
X169038899Y-95796300D01*
X169038899Y-95772929D01*
X169038898Y-95772923D01*
X169038897Y-95772916D01*
X169032491Y-95713317D01*
X169029184Y-95704451D01*
X168982197Y-95578471D01*
X168982193Y-95578464D01*
X168895947Y-95463255D01*
X168895944Y-95463252D01*
X168780735Y-95377006D01*
X168780728Y-95377002D01*
X168645882Y-95326708D01*
X168645883Y-95326708D01*
X168586283Y-95320301D01*
X168586281Y-95320300D01*
X168586273Y-95320300D01*
X168586265Y-95320300D01*
X168312900Y-95320300D01*
X168245861Y-95300615D01*
X168200106Y-95247811D01*
X168188900Y-95196300D01*
X168188900Y-95084328D01*
X168163902Y-94958661D01*
X168163901Y-94958660D01*
X168163901Y-94958656D01*
X168114865Y-94840273D01*
X168101188Y-94819804D01*
X168101188Y-94819803D01*
X168043677Y-94733731D01*
X168043671Y-94733724D01*
X166120626Y-92810680D01*
X166087141Y-92749357D01*
X166092125Y-92679665D01*
X166133997Y-92623732D01*
X166143213Y-92617459D01*
X166174254Y-92598313D01*
X166174253Y-92598313D01*
X166174256Y-92598312D01*
X166298312Y-92474256D01*
X166390414Y-92324934D01*
X166415247Y-92249994D01*
X167817557Y-92249994D01*
X167817557Y-92250005D01*
X167837307Y-92563942D01*
X167837308Y-92563949D01*
X167896255Y-92872958D01*
X167993463Y-93172132D01*
X167993465Y-93172137D01*
X168127400Y-93456761D01*
X168127403Y-93456767D01*
X168295957Y-93722367D01*
X168295960Y-93722371D01*
X168386786Y-93832160D01*
X169350413Y-92868533D01*
X169445329Y-92999175D01*
X169573325Y-93127171D01*
X169703965Y-93222086D01*
X168737471Y-94188579D01*
X168737472Y-94188581D01*
X168980272Y-94364985D01*
X168980290Y-94364996D01*
X169255947Y-94516540D01*
X169255955Y-94516544D01*
X169548426Y-94632340D01*
X169853120Y-94710573D01*
X169853129Y-94710575D01*
X170165201Y-94749999D01*
X170165215Y-94750000D01*
X170479785Y-94750000D01*
X170479798Y-94749999D01*
X170791870Y-94710575D01*
X170791879Y-94710573D01*
X171096573Y-94632340D01*
X171389044Y-94516544D01*
X171389052Y-94516540D01*
X171664709Y-94364996D01*
X171664719Y-94364990D01*
X171907526Y-94188579D01*
X171907527Y-94188579D01*
X170941033Y-93222086D01*
X171071675Y-93127171D01*
X171199671Y-92999175D01*
X171294586Y-92868533D01*
X172258212Y-93832160D01*
X172349044Y-93722364D01*
X172517596Y-93456767D01*
X172517599Y-93456761D01*
X172651534Y-93172137D01*
X172651536Y-93172132D01*
X172748744Y-92872958D01*
X172807691Y-92563949D01*
X172807692Y-92563942D01*
X172827443Y-92250005D01*
X172827443Y-92249994D01*
X172807692Y-91936057D01*
X172807691Y-91936050D01*
X172748744Y-91627041D01*
X172651536Y-91327867D01*
X172651534Y-91327862D01*
X172517599Y-91043238D01*
X172517596Y-91043232D01*
X172349042Y-90777632D01*
X172349039Y-90777628D01*
X172258212Y-90667838D01*
X171294585Y-91631465D01*
X171199671Y-91500825D01*
X171071675Y-91372829D01*
X170941033Y-91277913D01*
X171907527Y-90311419D01*
X171907526Y-90311417D01*
X171664727Y-90135014D01*
X171664709Y-90135003D01*
X171389052Y-89983459D01*
X171389044Y-89983455D01*
X171096573Y-89867659D01*
X170791879Y-89789426D01*
X170791870Y-89789424D01*
X170479798Y-89750000D01*
X170165201Y-89750000D01*
X169853129Y-89789424D01*
X169853120Y-89789426D01*
X169548426Y-89867659D01*
X169255955Y-89983455D01*
X169255947Y-89983459D01*
X168980287Y-90135004D01*
X168980282Y-90135007D01*
X168737472Y-90311418D01*
X168737471Y-90311419D01*
X169703966Y-91277913D01*
X169573325Y-91372829D01*
X169445329Y-91500825D01*
X169350413Y-91631465D01*
X168386786Y-90667838D01*
X168386785Y-90667838D01*
X168295959Y-90777629D01*
X168295957Y-90777632D01*
X168127403Y-91043232D01*
X168127400Y-91043238D01*
X167993465Y-91327862D01*
X167993463Y-91327867D01*
X167896255Y-91627041D01*
X167837308Y-91936050D01*
X167837307Y-91936057D01*
X167817557Y-92249994D01*
X166415247Y-92249994D01*
X166445599Y-92158397D01*
X166456100Y-92055609D01*
X166456099Y-91455592D01*
X166453161Y-91426834D01*
X166445599Y-91352803D01*
X166445598Y-91352800D01*
X166422980Y-91284544D01*
X166390414Y-91186266D01*
X166298312Y-91036944D01*
X166174256Y-90912888D01*
X166024934Y-90820786D01*
X165858397Y-90765601D01*
X165858395Y-90765600D01*
X165755610Y-90755100D01*
X165155598Y-90755100D01*
X165155580Y-90755101D01*
X165052803Y-90765600D01*
X165052800Y-90765601D01*
X164886268Y-90820785D01*
X164886263Y-90820787D01*
X164736942Y-90912889D01*
X164612889Y-91036942D01*
X164520787Y-91186263D01*
X164520785Y-91186268D01*
X164501905Y-91243245D01*
X164465601Y-91352803D01*
X164465601Y-91352804D01*
X164465600Y-91352804D01*
X164455100Y-91455583D01*
X164455100Y-91455591D01*
X164455100Y-91755459D01*
X164455101Y-91986300D01*
X164435417Y-92053339D01*
X164382613Y-92099094D01*
X164331101Y-92110300D01*
X163887086Y-92110300D01*
X163820047Y-92090615D01*
X163791232Y-92064964D01*
X163778882Y-92049916D01*
X163626539Y-91924890D01*
X163626532Y-91924886D01*
X163452733Y-91831988D01*
X163452727Y-91831986D01*
X163264132Y-91774776D01*
X163264129Y-91774775D01*
X163068000Y-91755459D01*
X162871870Y-91774775D01*
X162683266Y-91831988D01*
X162509467Y-91924886D01*
X162509460Y-91924890D01*
X162357116Y-92049916D01*
X162292126Y-92129107D01*
X162234380Y-92168441D01*
X162164535Y-92170312D01*
X162104767Y-92134124D01*
X162090734Y-92115539D01*
X162005315Y-91977054D01*
X161881345Y-91853084D01*
X161732124Y-91761043D01*
X161732119Y-91761041D01*
X161565697Y-91705894D01*
X161565690Y-91705893D01*
X161462986Y-91695400D01*
X160788000Y-91695400D01*
X160788000Y-93496400D01*
X160768315Y-93563439D01*
X160715511Y-93609194D01*
X160664000Y-93620400D01*
X158913001Y-93620400D01*
X158913001Y-94345386D01*
X158923494Y-94448097D01*
X158970681Y-94590496D01*
X158973083Y-94660324D01*
X158937351Y-94720366D01*
X158874831Y-94751559D01*
X158852975Y-94753500D01*
X157123552Y-94753500D01*
X157056513Y-94733815D01*
X157010758Y-94681011D01*
X157000814Y-94611853D01*
X157005846Y-94590497D01*
X157036700Y-94497381D01*
X157052999Y-94448197D01*
X157063500Y-94345409D01*
X157063499Y-93782028D01*
X157083183Y-93714990D01*
X157099813Y-93694353D01*
X158215351Y-92578816D01*
X158297484Y-92455895D01*
X158322536Y-92395413D01*
X158913000Y-92395413D01*
X158913000Y-93120400D01*
X160288000Y-93120400D01*
X160288000Y-91695400D01*
X159613028Y-91695400D01*
X159613012Y-91695401D01*
X159510302Y-91705894D01*
X159343880Y-91761041D01*
X159343875Y-91761043D01*
X159194654Y-91853084D01*
X159070684Y-91977054D01*
X158978643Y-92126275D01*
X158978641Y-92126280D01*
X158923494Y-92292702D01*
X158923493Y-92292709D01*
X158913000Y-92395413D01*
X158322536Y-92395413D01*
X158354058Y-92319313D01*
X158374379Y-92217157D01*
X158382900Y-92174320D01*
X158382900Y-90485027D01*
X158402585Y-90417988D01*
X158455389Y-90372233D01*
X158524547Y-90362289D01*
X158571993Y-90379487D01*
X158655684Y-90431108D01*
X158819447Y-90485374D01*
X158920523Y-90495700D01*
X159493876Y-90495699D01*
X159493884Y-90495698D01*
X159493887Y-90495698D01*
X159549230Y-90490044D01*
X159594953Y-90485374D01*
X159758716Y-90431108D01*
X159905550Y-90340540D01*
X160027540Y-90218550D01*
X160118108Y-90071716D01*
X160172374Y-89907953D01*
X160182700Y-89806877D01*
X160182699Y-89208524D01*
X160176762Y-89150408D01*
X160172374Y-89107447D01*
X160170847Y-89102840D01*
X160118108Y-88943684D01*
X160027540Y-88796850D01*
X159913571Y-88682881D01*
X159880086Y-88621558D01*
X159885070Y-88551866D01*
X159913571Y-88507519D01*
X160027540Y-88393550D01*
X160118108Y-88246716D01*
X160172374Y-88082953D01*
X160182700Y-87981877D01*
X160182699Y-87383524D01*
X160176768Y-87325467D01*
X160172374Y-87282447D01*
X160169372Y-87273389D01*
X160118108Y-87118684D01*
X160027540Y-86971850D01*
X159905550Y-86849860D01*
X159783414Y-86774526D01*
X159758718Y-86759293D01*
X159758713Y-86759291D01*
X159750290Y-86756500D01*
X159594953Y-86705026D01*
X159594951Y-86705025D01*
X159493878Y-86694700D01*
X158920530Y-86694700D01*
X158920512Y-86694701D01*
X158819447Y-86705025D01*
X158655684Y-86759292D01*
X158655681Y-86759293D01*
X158508848Y-86849861D01*
X158386861Y-86971848D01*
X158386860Y-86971850D01*
X158385966Y-86973298D01*
X158385095Y-86974082D01*
X158382379Y-86977517D01*
X158381792Y-86977052D01*
X158334020Y-87020021D01*
X158280429Y-87032200D01*
X157831695Y-87032200D01*
X157764656Y-87012515D01*
X157718901Y-86959711D01*
X157708793Y-86918571D01*
X157708254Y-86918629D01*
X157701491Y-86855716D01*
X157651197Y-86720871D01*
X157651193Y-86720864D01*
X157564947Y-86605655D01*
X157564944Y-86605652D01*
X157449735Y-86519406D01*
X157449728Y-86519402D01*
X157314886Y-86469110D01*
X157314885Y-86469109D01*
X157314883Y-86469109D01*
X157255273Y-86462700D01*
X157255263Y-86462700D01*
X156709529Y-86462700D01*
X156709523Y-86462701D01*
X156649916Y-86469108D01*
X156515071Y-86519402D01*
X156515064Y-86519406D01*
X156399855Y-86605652D01*
X156399852Y-86605655D01*
X156313606Y-86720864D01*
X156313602Y-86720871D01*
X156263308Y-86855717D01*
X156256901Y-86915316D01*
X156256900Y-86915335D01*
X156256900Y-87445174D01*
X156237215Y-87512213D01*
X156184411Y-87557968D01*
X156115253Y-87567912D01*
X156051697Y-87538887D01*
X156023542Y-87503627D01*
X155928313Y-87325467D01*
X155928309Y-87325460D01*
X155803283Y-87173116D01*
X155650939Y-87048090D01*
X155650932Y-87048086D01*
X155477133Y-86955188D01*
X155477127Y-86955186D01*
X155288532Y-86897976D01*
X155288529Y-86897975D01*
X155092400Y-86878659D01*
X154896270Y-86897975D01*
X154707666Y-86955188D01*
X154533867Y-87048086D01*
X154533860Y-87048090D01*
X154381516Y-87173116D01*
X154256490Y-87325460D01*
X154256486Y-87325467D01*
X154163588Y-87499266D01*
X154106375Y-87687870D01*
X154087059Y-87883999D01*
X154087059Y-87884000D01*
X154094715Y-87961738D01*
X154099562Y-88010946D01*
X154086543Y-88079592D01*
X154038478Y-88130302D01*
X153976159Y-88147100D01*
X151233145Y-88147100D01*
X151166106Y-88127415D01*
X151120351Y-88074611D01*
X151110407Y-88005453D01*
X151139432Y-87941897D01*
X151174692Y-87913742D01*
X151282132Y-87856313D01*
X151282138Y-87856310D01*
X151434483Y-87731283D01*
X151559510Y-87578938D01*
X151624866Y-87456666D01*
X151652411Y-87405133D01*
X151652411Y-87405132D01*
X151652414Y-87405127D01*
X151709624Y-87216532D01*
X151728941Y-87020400D01*
X151709624Y-86824268D01*
X151690279Y-86760496D01*
X151689655Y-86690629D01*
X151726903Y-86631516D01*
X151790196Y-86601925D01*
X151808939Y-86600500D01*
X152907869Y-86600500D01*
X152974908Y-86620185D01*
X153003722Y-86645835D01*
X153060716Y-86715283D01*
X153213060Y-86840309D01*
X153213067Y-86840313D01*
X153386866Y-86933211D01*
X153386869Y-86933211D01*
X153386873Y-86933214D01*
X153575468Y-86990424D01*
X153771600Y-87009741D01*
X153967732Y-86990424D01*
X154156327Y-86933214D01*
X154189790Y-86915328D01*
X154298788Y-86857067D01*
X154330138Y-86840310D01*
X154482483Y-86715283D01*
X154607510Y-86562938D01*
X154663778Y-86457669D01*
X154700411Y-86389133D01*
X154700411Y-86389132D01*
X154700414Y-86389127D01*
X154757624Y-86200532D01*
X154776941Y-86004400D01*
X154757624Y-85808268D01*
X154727964Y-85710495D01*
X154727341Y-85640629D01*
X154764589Y-85581516D01*
X154827883Y-85551925D01*
X154846625Y-85550500D01*
X155579046Y-85550500D01*
X155646085Y-85570185D01*
X155655157Y-85577495D01*
X155655355Y-85577232D01*
X155777664Y-85668793D01*
X155777671Y-85668797D01*
X155912517Y-85719091D01*
X155912516Y-85719091D01*
X155919444Y-85719835D01*
X155972127Y-85725500D01*
X157549190Y-85725499D01*
X157616229Y-85745184D01*
X157636871Y-85761818D01*
X157978327Y-86103274D01*
X158058141Y-86156604D01*
X158058142Y-86156604D01*
X158058145Y-86156606D01*
X158084872Y-86174465D01*
X158133908Y-86194776D01*
X158203256Y-86223501D01*
X158203260Y-86223501D01*
X158203261Y-86223502D01*
X158328928Y-86248500D01*
X158328931Y-86248500D01*
X160715192Y-86248500D01*
X160782231Y-86268185D01*
X160802873Y-86284819D01*
X161129324Y-86611271D01*
X161129327Y-86611274D01*
X161129330Y-86611276D01*
X161190470Y-86652128D01*
X161235873Y-86682465D01*
X161354256Y-86731501D01*
X161354260Y-86731501D01*
X161354261Y-86731502D01*
X161479928Y-86756500D01*
X161479931Y-86756500D01*
X163255192Y-86756500D01*
X163322231Y-86776185D01*
X163342873Y-86792819D01*
X164125681Y-87575627D01*
X164159166Y-87636950D01*
X164162000Y-87663308D01*
X164162000Y-88347870D01*
X164162001Y-88347876D01*
X164168408Y-88407483D01*
X164218702Y-88542328D01*
X164218706Y-88542335D01*
X164266804Y-88606584D01*
X164304954Y-88657546D01*
X164416539Y-88741079D01*
X164458410Y-88797012D01*
X164465586Y-88852947D01*
X164455100Y-88955581D01*
X164455100Y-89555601D01*
X164455101Y-89555619D01*
X164465600Y-89658396D01*
X164465601Y-89658399D01*
X164518603Y-89818346D01*
X164520786Y-89824934D01*
X164612888Y-89974256D01*
X164736944Y-90098312D01*
X164886266Y-90190414D01*
X165052803Y-90245599D01*
X165155591Y-90256100D01*
X165755608Y-90256099D01*
X165755616Y-90256098D01*
X165755619Y-90256098D01*
X165811902Y-90250348D01*
X165858397Y-90245599D01*
X166024934Y-90190414D01*
X166174256Y-90098312D01*
X166298312Y-89974256D01*
X166390414Y-89824934D01*
X166445599Y-89658397D01*
X166456100Y-89555609D01*
X166456099Y-88955592D01*
X166446553Y-88862142D01*
X166459323Y-88793450D01*
X166499199Y-88751072D01*
X166497731Y-88749111D01*
X166528249Y-88726265D01*
X166620046Y-88657546D01*
X166626850Y-88648455D01*
X166682780Y-88606584D01*
X166752471Y-88601597D01*
X166797240Y-88621188D01*
X166810012Y-88630130D01*
X166810018Y-88630134D01*
X167016173Y-88726265D01*
X167016182Y-88726269D01*
X167235889Y-88785139D01*
X167235900Y-88785141D01*
X167462498Y-88804966D01*
X167462502Y-88804966D01*
X167689099Y-88785141D01*
X167689110Y-88785139D01*
X167908817Y-88726269D01*
X167908831Y-88726264D01*
X168114978Y-88630136D01*
X168187971Y-88579024D01*
X167571497Y-87962550D01*
X167645843Y-87942630D01*
X167754157Y-87880095D01*
X167842595Y-87791657D01*
X167905130Y-87683343D01*
X167925050Y-87608997D01*
X168541524Y-88225471D01*
X168592636Y-88152478D01*
X168688764Y-87946331D01*
X168688769Y-87946317D01*
X168747639Y-87726610D01*
X168747641Y-87726599D01*
X168767466Y-87500002D01*
X168767466Y-87499997D01*
X168747641Y-87273400D01*
X168747639Y-87273389D01*
X168688769Y-87053682D01*
X168688764Y-87053668D01*
X168592636Y-86847521D01*
X168592632Y-86847513D01*
X168541525Y-86774526D01*
X167925050Y-87391001D01*
X167905130Y-87316657D01*
X167842595Y-87208343D01*
X167754157Y-87119905D01*
X167645843Y-87057370D01*
X167571497Y-87037449D01*
X168187972Y-86420974D01*
X168114980Y-86369864D01*
X168099524Y-86362657D01*
X168047085Y-86316484D01*
X168027933Y-86249290D01*
X168048149Y-86182409D01*
X168099523Y-86137893D01*
X168115234Y-86130568D01*
X168301639Y-86000047D01*
X168462547Y-85839139D01*
X168593068Y-85652734D01*
X168689239Y-85446496D01*
X168748135Y-85226692D01*
X168767968Y-85000000D01*
X168748135Y-84773308D01*
X168689239Y-84553504D01*
X168593068Y-84347266D01*
X168462547Y-84160861D01*
X168462545Y-84160858D01*
X168301640Y-83999953D01*
X168165877Y-83904891D01*
X168122252Y-83850314D01*
X168113000Y-83803316D01*
X168113000Y-83654628D01*
X168088002Y-83528961D01*
X168088001Y-83528960D01*
X168088001Y-83528956D01*
X168038965Y-83410573D01*
X168033832Y-83402891D01*
X168033831Y-83402889D01*
X168033831Y-83402890D01*
X167967777Y-83304031D01*
X167967775Y-83304029D01*
X167967773Y-83304026D01*
X167408473Y-82744726D01*
X167408469Y-82744723D01*
X167301927Y-82673535D01*
X167239430Y-82647648D01*
X167183544Y-82624499D01*
X167183538Y-82624497D01*
X167057871Y-82599500D01*
X167057869Y-82599500D01*
X164680708Y-82599500D01*
X164613669Y-82579815D01*
X164588084Y-82556619D01*
X164587947Y-82556757D01*
X164585147Y-82553957D01*
X164583445Y-82552414D01*
X164582844Y-82551654D01*
X164460851Y-82429661D01*
X164460850Y-82429660D01*
X164321161Y-82343499D01*
X164314018Y-82339093D01*
X164314013Y-82339091D01*
X164278765Y-82327411D01*
X164150253Y-82284826D01*
X164150251Y-82284825D01*
X164049178Y-82274500D01*
X163450830Y-82274500D01*
X163450812Y-82274501D01*
X163349747Y-82284825D01*
X163185984Y-82339092D01*
X163185981Y-82339093D01*
X163039148Y-82429661D01*
X162925181Y-82543629D01*
X162863858Y-82577114D01*
X162794166Y-82572130D01*
X162749819Y-82543629D01*
X162635851Y-82429661D01*
X162635850Y-82429660D01*
X162496161Y-82343499D01*
X162489018Y-82339093D01*
X162489013Y-82339091D01*
X162453765Y-82327411D01*
X162325253Y-82284826D01*
X162325251Y-82284825D01*
X162224178Y-82274500D01*
X161625830Y-82274500D01*
X161625812Y-82274501D01*
X161524747Y-82284825D01*
X161524744Y-82284826D01*
X161354128Y-82341364D01*
X161353699Y-82340071D01*
X161311174Y-82349500D01*
X160720954Y-82349500D01*
X160653915Y-82329815D01*
X160644842Y-82322504D01*
X160644645Y-82322768D01*
X160522335Y-82231206D01*
X160522328Y-82231202D01*
X160387482Y-82180908D01*
X160387483Y-82180908D01*
X160327883Y-82174501D01*
X160327881Y-82174500D01*
X160327873Y-82174500D01*
X160327864Y-82174500D01*
X158672129Y-82174500D01*
X158672123Y-82174501D01*
X158612516Y-82180908D01*
X158477671Y-82231202D01*
X158477664Y-82231206D01*
X158362455Y-82317452D01*
X158362452Y-82317455D01*
X158276206Y-82432664D01*
X158276202Y-82432671D01*
X158266182Y-82459538D01*
X158224311Y-82515472D01*
X158158846Y-82539889D01*
X158090573Y-82525037D01*
X158041168Y-82475632D01*
X158033818Y-82459538D01*
X158023797Y-82432671D01*
X158023793Y-82432664D01*
X157937547Y-82317455D01*
X157937544Y-82317452D01*
X157822335Y-82231206D01*
X157822328Y-82231202D01*
X157687482Y-82180908D01*
X157687483Y-82180908D01*
X157627883Y-82174501D01*
X157627881Y-82174500D01*
X157627873Y-82174500D01*
X157627864Y-82174500D01*
X155972129Y-82174500D01*
X155972123Y-82174501D01*
X155912514Y-82180909D01*
X155813608Y-82217798D01*
X155743916Y-82222782D01*
X155691611Y-82197469D01*
X155650939Y-82164090D01*
X155650932Y-82164086D01*
X155477133Y-82071188D01*
X155477127Y-82071186D01*
X155321145Y-82023869D01*
X155288529Y-82013975D01*
X155092400Y-81994659D01*
X154896270Y-82013975D01*
X154707666Y-82071188D01*
X154533867Y-82164086D01*
X154533860Y-82164090D01*
X154381517Y-82289116D01*
X154369168Y-82304164D01*
X154311422Y-82343499D01*
X154273314Y-82349500D01*
X154020897Y-82349500D01*
X153953858Y-82329815D01*
X153908103Y-82277011D01*
X153898159Y-82207853D01*
X153911539Y-82167046D01*
X153928812Y-82134730D01*
X153928814Y-82134727D01*
X153986024Y-81946132D01*
X154005341Y-81750000D01*
X153986024Y-81553868D01*
X153928814Y-81365273D01*
X153928811Y-81365269D01*
X153928811Y-81365266D01*
X153835913Y-81191467D01*
X153835909Y-81191460D01*
X153710883Y-81039116D01*
X153558539Y-80914090D01*
X153558532Y-80914086D01*
X153384733Y-80821188D01*
X153384727Y-80821186D01*
X153196132Y-80763976D01*
X153196129Y-80763975D01*
X153000000Y-80744659D01*
X152803870Y-80763975D01*
X152615266Y-80821188D01*
X152441467Y-80914086D01*
X152441461Y-80914090D01*
X152349564Y-80989508D01*
X152285254Y-81016820D01*
X152216387Y-81005029D01*
X152183219Y-80981336D01*
X152119134Y-80917252D01*
X151972411Y-80826751D01*
X151972400Y-80826746D01*
X151808752Y-80772519D01*
X151707754Y-80762200D01*
X151608600Y-80762200D01*
X151608600Y-81863200D01*
X151588915Y-81930239D01*
X151536111Y-81975994D01*
X151484600Y-81987200D01*
X151232600Y-81987200D01*
X151165561Y-81967515D01*
X151119806Y-81914711D01*
X151108600Y-81863200D01*
X151108600Y-80762199D01*
X151009460Y-80762200D01*
X151009444Y-80762201D01*
X150908447Y-80772519D01*
X150744799Y-80826746D01*
X150744788Y-80826751D01*
X150598065Y-80917252D01*
X150584132Y-80931185D01*
X150522808Y-80964668D01*
X150453116Y-80959682D01*
X150408772Y-80931182D01*
X150394451Y-80916861D01*
X150394450Y-80916860D01*
X150290480Y-80852731D01*
X150247618Y-80826293D01*
X150247613Y-80826291D01*
X150232207Y-80821186D01*
X150083853Y-80772026D01*
X150083851Y-80772025D01*
X149982778Y-80761700D01*
X149284430Y-80761700D01*
X149284412Y-80761701D01*
X149183347Y-80772025D01*
X149019584Y-80826292D01*
X149019581Y-80826293D01*
X148872748Y-80916861D01*
X148750761Y-81038848D01*
X148660193Y-81185681D01*
X148660191Y-81185686D01*
X148637891Y-81252984D01*
X148605926Y-81349447D01*
X148605926Y-81349448D01*
X148605925Y-81349448D01*
X148595600Y-81450515D01*
X148595600Y-82023869D01*
X148595601Y-82023887D01*
X148605925Y-82124952D01*
X148641134Y-82231202D01*
X148657588Y-82280859D01*
X148660192Y-82288715D01*
X148660193Y-82288718D01*
X148677918Y-82317454D01*
X148707238Y-82364990D01*
X148716603Y-82380172D01*
X148735043Y-82447565D01*
X148714120Y-82514228D01*
X148698745Y-82532950D01*
X148408515Y-82823181D01*
X148347192Y-82856666D01*
X148320834Y-82859500D01*
X147709500Y-82859500D01*
X147642461Y-82839815D01*
X147596706Y-82787011D01*
X147585500Y-82735502D01*
X147585499Y-82682883D01*
X147605182Y-82615844D01*
X147630838Y-82587025D01*
X147633286Y-82585014D01*
X147633295Y-82585009D01*
X147722509Y-82495795D01*
X147768286Y-82427285D01*
X147792603Y-82390892D01*
X147792605Y-82390888D01*
X147836537Y-82284826D01*
X147840886Y-82274327D01*
X147865500Y-82150584D01*
X147865500Y-78605808D01*
X147885185Y-78538769D01*
X147901819Y-78518127D01*
X149020271Y-77399675D01*
X149020276Y-77399670D01*
X149091465Y-77293127D01*
X149140501Y-77174744D01*
X149147797Y-77138065D01*
X149165500Y-77049069D01*
X149165500Y-75064141D01*
X149185185Y-74997102D01*
X149237989Y-74951347D01*
X149246149Y-74947966D01*
X149257331Y-74943796D01*
X149258928Y-74942601D01*
X149334483Y-74886040D01*
X149372546Y-74857546D01*
X149443313Y-74763013D01*
X157428000Y-74763013D01*
X157428000Y-75188000D01*
X158247670Y-75188000D01*
X158227925Y-75207745D01*
X158178556Y-75293255D01*
X158153000Y-75388630D01*
X158153000Y-75487370D01*
X158178556Y-75582745D01*
X158227925Y-75668255D01*
X158247670Y-75688000D01*
X157428001Y-75688000D01*
X157428001Y-76112986D01*
X157438494Y-76215697D01*
X157493641Y-76382119D01*
X157493643Y-76382124D01*
X157585684Y-76531345D01*
X157709654Y-76655315D01*
X157858875Y-76747356D01*
X157858880Y-76747358D01*
X158025302Y-76802505D01*
X158025309Y-76802506D01*
X158128019Y-76812999D01*
X158277999Y-76812999D01*
X158278000Y-76812998D01*
X158278000Y-75718330D01*
X158297745Y-75738075D01*
X158383255Y-75787444D01*
X158478630Y-75813000D01*
X158577370Y-75813000D01*
X158672745Y-75787444D01*
X158758255Y-75738075D01*
X158778000Y-75718330D01*
X158778000Y-76812999D01*
X158927972Y-76812999D01*
X158927986Y-76812998D01*
X159030697Y-76802505D01*
X159197119Y-76747358D01*
X159197124Y-76747356D01*
X159346345Y-76655315D01*
X159470315Y-76531345D01*
X159509945Y-76467094D01*
X159561893Y-76420368D01*
X159630855Y-76409145D01*
X159694937Y-76436988D01*
X159703166Y-76444508D01*
X159811072Y-76552414D01*
X159819502Y-76558539D01*
X159826382Y-76563537D01*
X159869050Y-76618866D01*
X159877500Y-76663857D01*
X159877500Y-76833978D01*
X159857815Y-76901017D01*
X159834359Y-76926889D01*
X159834451Y-76926981D01*
X159832588Y-76928843D01*
X159830415Y-76931241D01*
X159829344Y-76932087D01*
X159705289Y-77056142D01*
X159613187Y-77205463D01*
X159613186Y-77205466D01*
X159558001Y-77372003D01*
X159558001Y-77372004D01*
X159558000Y-77372004D01*
X159547500Y-77474783D01*
X159547500Y-78074801D01*
X159547501Y-78074819D01*
X159558000Y-78177596D01*
X159558001Y-78177599D01*
X159573615Y-78224718D01*
X159613186Y-78344134D01*
X159705288Y-78493456D01*
X159829344Y-78617512D01*
X159978666Y-78709614D01*
X160145203Y-78764799D01*
X160247991Y-78775300D01*
X160848008Y-78775299D01*
X160848016Y-78775298D01*
X160848019Y-78775298D01*
X160904302Y-78769548D01*
X160950797Y-78764799D01*
X161117334Y-78709614D01*
X161266656Y-78617512D01*
X161390712Y-78493456D01*
X161482814Y-78344134D01*
X161537999Y-78177597D01*
X161548500Y-78074809D01*
X161548499Y-77474792D01*
X161537999Y-77372003D01*
X161482814Y-77205466D01*
X161390712Y-77056144D01*
X161266656Y-76932088D01*
X161266652Y-76932085D01*
X161237401Y-76914042D01*
X161190677Y-76862093D01*
X161178500Y-76808505D01*
X161178500Y-76663857D01*
X161198185Y-76596818D01*
X161229618Y-76563537D01*
X161244928Y-76552414D01*
X161367414Y-76429928D01*
X161469232Y-76289788D01*
X161547873Y-76135445D01*
X161601402Y-75970701D01*
X161628500Y-75799611D01*
X161628500Y-75076389D01*
X161601402Y-74905299D01*
X161547873Y-74740555D01*
X161469232Y-74586212D01*
X161367414Y-74446072D01*
X161244928Y-74323586D01*
X161104788Y-74221768D01*
X160950445Y-74143127D01*
X160785701Y-74089598D01*
X160785699Y-74089597D01*
X160785698Y-74089597D01*
X160654271Y-74068781D01*
X160614611Y-74062500D01*
X160441389Y-74062500D01*
X160401728Y-74068781D01*
X160270302Y-74089597D01*
X160105552Y-74143128D01*
X159951211Y-74221768D01*
X159811073Y-74323585D01*
X159703166Y-74431492D01*
X159641843Y-74464976D01*
X159572151Y-74459992D01*
X159516218Y-74418120D01*
X159509946Y-74408906D01*
X159470317Y-74344656D01*
X159346345Y-74220684D01*
X159197124Y-74128643D01*
X159197119Y-74128641D01*
X159030697Y-74073494D01*
X159030690Y-74073493D01*
X158927986Y-74063000D01*
X158778000Y-74063000D01*
X158778000Y-75157670D01*
X158758255Y-75137925D01*
X158672745Y-75088556D01*
X158577370Y-75063000D01*
X158478630Y-75063000D01*
X158383255Y-75088556D01*
X158297745Y-75137925D01*
X158278000Y-75157670D01*
X158278000Y-74063000D01*
X158128027Y-74063000D01*
X158128012Y-74063001D01*
X158025302Y-74073494D01*
X157858880Y-74128641D01*
X157858875Y-74128643D01*
X157709654Y-74220684D01*
X157585684Y-74344654D01*
X157493643Y-74493875D01*
X157493641Y-74493880D01*
X157438494Y-74660302D01*
X157438493Y-74660309D01*
X157428000Y-74763013D01*
X149443313Y-74763013D01*
X149458796Y-74742331D01*
X149509091Y-74607483D01*
X149515500Y-74547873D01*
X149515499Y-73452128D01*
X149509091Y-73392517D01*
X149507676Y-73388724D01*
X149458797Y-73257671D01*
X149458793Y-73257664D01*
X149372547Y-73142455D01*
X149372544Y-73142452D01*
X149257335Y-73056206D01*
X149257328Y-73056202D01*
X149122482Y-73005908D01*
X149122483Y-73005908D01*
X149062883Y-72999501D01*
X149062881Y-72999500D01*
X149062873Y-72999500D01*
X149062864Y-72999500D01*
X147967129Y-72999500D01*
X147967123Y-72999501D01*
X147907516Y-73005908D01*
X147772671Y-73056202D01*
X147772666Y-73056205D01*
X147764614Y-73062233D01*
X147699149Y-73086648D01*
X147635530Y-73073104D01*
X147635359Y-73073518D01*
X147633123Y-73072592D01*
X147631850Y-73072321D01*
X147629729Y-73071187D01*
X147629728Y-73071186D01*
X147629727Y-73071186D01*
X147441132Y-73013976D01*
X147441129Y-73013975D01*
X147245000Y-72994659D01*
X147048870Y-73013975D01*
X146860266Y-73071188D01*
X146686467Y-73164086D01*
X146681399Y-73167473D01*
X146680386Y-73165958D01*
X146623936Y-73189920D01*
X146555071Y-73178115D01*
X146538574Y-73167511D01*
X146538322Y-73167890D01*
X146533253Y-73164503D01*
X146359541Y-73071652D01*
X146225000Y-73030839D01*
X146225000Y-73790382D01*
X146174554Y-73739936D01*
X146100445Y-73697149D01*
X146017787Y-73675000D01*
X145932213Y-73675000D01*
X145849555Y-73697149D01*
X145775446Y-73739936D01*
X145725000Y-73790382D01*
X145725000Y-73030839D01*
X145724999Y-73030839D01*
X145590458Y-73071652D01*
X145416742Y-73164505D01*
X145411673Y-73167893D01*
X145410556Y-73166221D01*
X145354715Y-73189921D01*
X145285851Y-73178111D01*
X145268811Y-73167158D01*
X145268601Y-73167473D01*
X145263532Y-73164086D01*
X145089733Y-73071188D01*
X145089727Y-73071186D01*
X144901132Y-73013976D01*
X144901129Y-73013975D01*
X144705000Y-72994659D01*
X144508870Y-73013975D01*
X144320266Y-73071188D01*
X144243154Y-73112406D01*
X144174751Y-73126648D01*
X144109507Y-73101648D01*
X144068137Y-73045343D01*
X144063084Y-73027239D01*
X144060502Y-73014263D01*
X144060501Y-73014256D01*
X144011465Y-72895873D01*
X143950525Y-72804669D01*
X143950525Y-72804668D01*
X143940276Y-72789330D01*
X143940271Y-72789324D01*
X143416673Y-72265726D01*
X143416669Y-72265723D01*
X143310127Y-72194535D01*
X143277839Y-72181161D01*
X143191744Y-72145499D01*
X143191738Y-72145497D01*
X143066071Y-72120500D01*
X143066069Y-72120500D01*
X140347131Y-72120500D01*
X140347129Y-72120500D01*
X140221461Y-72145497D01*
X140221455Y-72145499D01*
X140103070Y-72194535D01*
X139996531Y-72265722D01*
X139996524Y-72265728D01*
X139470324Y-72791928D01*
X139401275Y-72895267D01*
X139401276Y-72895268D01*
X139399135Y-72898471D01*
X139350099Y-73016855D01*
X139350097Y-73016860D01*
X139326364Y-73136171D01*
X139293978Y-73198081D01*
X139269850Y-73217513D01*
X139264751Y-73220658D01*
X139264748Y-73220660D01*
X139150427Y-73334982D01*
X139089104Y-73368467D01*
X139019412Y-73363483D01*
X138975065Y-73334982D01*
X138861138Y-73221055D01*
X138861134Y-73221052D01*
X138714411Y-73130551D01*
X138714400Y-73130546D01*
X138550752Y-73076319D01*
X138449754Y-73066000D01*
X138400600Y-73066000D01*
X138400600Y-75015999D01*
X138449740Y-75015999D01*
X138449754Y-75015998D01*
X138550752Y-75005680D01*
X138714400Y-74951453D01*
X138714411Y-74951448D01*
X138861133Y-74860948D01*
X138975064Y-74747017D01*
X139036387Y-74713532D01*
X139106079Y-74718516D01*
X139150427Y-74747017D01*
X139264750Y-74861340D01*
X139411584Y-74951908D01*
X139575347Y-75006174D01*
X139676423Y-75016500D01*
X139929192Y-75016499D01*
X139996230Y-75036183D01*
X140041985Y-75088987D01*
X140051929Y-75158146D01*
X140022904Y-75221701D01*
X140016873Y-75228180D01*
X139951707Y-75293346D01*
X139890386Y-75326830D01*
X139851874Y-75329067D01*
X139832500Y-75327159D01*
X139636370Y-75346475D01*
X139447766Y-75403688D01*
X139273967Y-75496586D01*
X139273960Y-75496590D01*
X139121616Y-75621616D01*
X138996590Y-75773960D01*
X138996586Y-75773967D01*
X138903688Y-75947766D01*
X138846475Y-76136370D01*
X138827159Y-76332500D01*
X138846475Y-76528629D01*
X138846476Y-76528632D01*
X138880483Y-76640739D01*
X138903688Y-76717233D01*
X138996586Y-76891032D01*
X138996590Y-76891039D01*
X139111555Y-77031123D01*
X139138868Y-77095433D01*
X139127077Y-77164300D01*
X139103383Y-77197469D01*
X138127926Y-78172926D01*
X138124806Y-78177596D01*
X138063198Y-78269800D01*
X138058889Y-78276248D01*
X138056736Y-78279471D01*
X138056734Y-78279473D01*
X138007699Y-78397855D01*
X138007697Y-78397861D01*
X137982700Y-78523528D01*
X137982700Y-80988471D01*
X137992775Y-81039117D01*
X138002240Y-81086700D01*
X138007699Y-81114144D01*
X138046580Y-81208012D01*
X138056735Y-81232527D01*
X138084759Y-81274468D01*
X138127926Y-81339073D01*
X138470326Y-81681473D01*
X138470329Y-81681475D01*
X138470331Y-81681477D01*
X138576873Y-81752665D01*
X138695256Y-81801701D01*
X138695260Y-81801701D01*
X138695261Y-81801702D01*
X138820928Y-81826700D01*
X138820931Y-81826700D01*
X139072589Y-81826700D01*
X139139628Y-81846385D01*
X139178128Y-81885604D01*
X139196785Y-81915853D01*
X139209860Y-81937050D01*
X139331850Y-82059040D01*
X139478684Y-82149608D01*
X139642447Y-82203874D01*
X139743523Y-82214200D01*
X140096891Y-82214199D01*
X140163930Y-82233883D01*
X140184572Y-82250518D01*
X140526825Y-82592772D01*
X140526832Y-82592778D01*
X140586128Y-82632398D01*
X140630934Y-82686010D01*
X140639641Y-82755335D01*
X140609487Y-82818362D01*
X140550044Y-82855082D01*
X140517238Y-82859500D01*
X140249413Y-82859500D01*
X140125680Y-82884112D01*
X140125668Y-82884115D01*
X140009111Y-82932394D01*
X140009107Y-82932396D01*
X139904209Y-83002487D01*
X139814982Y-83091714D01*
X139812961Y-83094177D01*
X139811578Y-83095118D01*
X139810685Y-83096012D01*
X139810515Y-83095842D01*
X139755210Y-83133504D01*
X139717119Y-83139500D01*
X139601635Y-83139500D01*
X139601611Y-83139502D01*
X139577340Y-83142317D01*
X139577337Y-83142318D01*
X139477984Y-83186186D01*
X139401187Y-83262983D01*
X139357318Y-83362335D01*
X139357318Y-83362337D01*
X139354500Y-83386625D01*
X139354500Y-83613365D01*
X139354502Y-83613388D01*
X139357316Y-83637658D01*
X139364238Y-83653334D01*
X139384805Y-83699914D01*
X139393876Y-83769191D01*
X139384805Y-83800084D01*
X139357318Y-83862335D01*
X139357318Y-83862337D01*
X139354500Y-83886625D01*
X139354500Y-84113365D01*
X139354502Y-84113388D01*
X139357316Y-84137658D01*
X139357318Y-84137662D01*
X139384805Y-84199914D01*
X139393876Y-84269191D01*
X139384805Y-84300084D01*
X139357318Y-84362335D01*
X139357318Y-84362337D01*
X139354500Y-84386625D01*
X139354500Y-84613365D01*
X139354502Y-84613388D01*
X139357316Y-84637658D01*
X139378403Y-84685414D01*
X139387474Y-84754693D01*
X139357650Y-84817877D01*
X139298401Y-84854908D01*
X139264968Y-84859500D01*
X136510866Y-84859500D01*
X136443827Y-84839815D01*
X136423185Y-84823181D01*
X136331418Y-84731414D01*
X136297933Y-84670091D01*
X136295099Y-84643733D01*
X136295099Y-82852529D01*
X136295098Y-82852523D01*
X136295097Y-82852516D01*
X136288691Y-82792917D01*
X136286488Y-82787011D01*
X136238397Y-82658071D01*
X136238393Y-82658064D01*
X136152147Y-82542855D01*
X136152144Y-82542852D01*
X136036935Y-82456606D01*
X136036928Y-82456602D01*
X135902082Y-82406308D01*
X135902083Y-82406308D01*
X135842483Y-82399901D01*
X135842481Y-82399900D01*
X135842473Y-82399900D01*
X135842465Y-82399900D01*
X135586629Y-82399900D01*
X135519590Y-82380215D01*
X135473835Y-82327411D01*
X135463891Y-82258253D01*
X135481089Y-82210805D01*
X135505508Y-82171216D01*
X135559774Y-82007453D01*
X135570100Y-81906377D01*
X135570099Y-81208024D01*
X135565173Y-81159805D01*
X135559774Y-81106947D01*
X135537297Y-81039117D01*
X135505508Y-80943184D01*
X135414940Y-80796350D01*
X135400617Y-80782027D01*
X135367132Y-80720704D01*
X135372116Y-80651012D01*
X135400621Y-80606660D01*
X135414547Y-80592735D01*
X135505048Y-80446011D01*
X135505053Y-80446000D01*
X135559280Y-80282352D01*
X135569599Y-80181354D01*
X135569600Y-80181341D01*
X135569600Y-80082200D01*
X133619601Y-80082200D01*
X133619601Y-80181354D01*
X133629919Y-80282352D01*
X133684146Y-80446000D01*
X133684151Y-80446011D01*
X133774652Y-80592734D01*
X133774655Y-80592738D01*
X133788582Y-80606665D01*
X133822067Y-80667988D01*
X133817083Y-80737680D01*
X133788584Y-80782025D01*
X133774261Y-80796348D01*
X133683693Y-80943181D01*
X133683691Y-80943186D01*
X133668686Y-80988469D01*
X133629426Y-81106947D01*
X133629426Y-81106948D01*
X133629425Y-81106948D01*
X133619100Y-81208015D01*
X133619100Y-81906369D01*
X133619101Y-81906387D01*
X133629425Y-82007452D01*
X133658751Y-82095949D01*
X133681329Y-82164086D01*
X133683692Y-82171215D01*
X133683693Y-82171218D01*
X133685718Y-82174501D01*
X133708110Y-82210804D01*
X133726550Y-82278196D01*
X133705627Y-82344859D01*
X133651986Y-82389629D01*
X133602571Y-82399900D01*
X133346730Y-82399900D01*
X133346723Y-82399901D01*
X133287116Y-82406308D01*
X133152271Y-82456602D01*
X133152264Y-82456606D01*
X133037055Y-82542852D01*
X133037052Y-82542855D01*
X132950806Y-82658064D01*
X132950802Y-82658071D01*
X132900508Y-82792917D01*
X132894425Y-82849500D01*
X132894101Y-82852523D01*
X132894100Y-82852535D01*
X132894100Y-84948270D01*
X132894101Y-84948276D01*
X132900508Y-85007883D01*
X132950802Y-85142728D01*
X132950806Y-85142735D01*
X133037052Y-85257944D01*
X133037055Y-85257947D01*
X133152264Y-85344193D01*
X133152271Y-85344197D01*
X133287117Y-85394491D01*
X133287116Y-85394491D01*
X133294044Y-85395235D01*
X133346727Y-85400900D01*
X135137933Y-85400899D01*
X135204972Y-85420584D01*
X135225614Y-85437218D01*
X135451114Y-85662718D01*
X135484599Y-85724041D01*
X135479615Y-85793733D01*
X135451114Y-85838080D01*
X135225614Y-86063581D01*
X135164291Y-86097066D01*
X135137933Y-86099900D01*
X133346729Y-86099900D01*
X133346723Y-86099901D01*
X133287116Y-86106308D01*
X133152271Y-86156602D01*
X133152264Y-86156606D01*
X133037055Y-86242852D01*
X133037052Y-86242855D01*
X132950806Y-86358064D01*
X132950802Y-86358071D01*
X132900508Y-86492917D01*
X132894101Y-86552516D01*
X132894100Y-86552535D01*
X132894100Y-88648270D01*
X132894101Y-88648276D01*
X132900508Y-88707883D01*
X132950802Y-88842728D01*
X132950806Y-88842735D01*
X133037052Y-88957944D01*
X133037055Y-88957947D01*
X133152264Y-89044193D01*
X133152271Y-89044197D01*
X133197218Y-89060961D01*
X133287117Y-89094491D01*
X133346727Y-89100900D01*
X133562500Y-89100899D01*
X133629539Y-89120583D01*
X133675294Y-89173387D01*
X133685238Y-89242545D01*
X133680206Y-89263903D01*
X133629426Y-89417147D01*
X133629425Y-89417148D01*
X133619100Y-89518215D01*
X133619100Y-90216569D01*
X133619101Y-90216587D01*
X133629425Y-90317652D01*
X133660738Y-90412146D01*
X133667021Y-90431108D01*
X133683692Y-90481415D01*
X133683693Y-90481418D01*
X133686133Y-90485374D01*
X133774259Y-90628249D01*
X133774261Y-90628251D01*
X133788582Y-90642572D01*
X133822067Y-90703895D01*
X133817083Y-90773587D01*
X133788585Y-90817932D01*
X133774652Y-90831865D01*
X133684151Y-90978588D01*
X133684146Y-90978599D01*
X133629919Y-91142247D01*
X133619600Y-91243245D01*
X133619600Y-91342400D01*
X135569599Y-91342400D01*
X135569599Y-91243260D01*
X135569598Y-91243245D01*
X135559280Y-91142247D01*
X135517265Y-91015454D01*
X136274901Y-91015454D01*
X136285219Y-91116452D01*
X136339446Y-91280100D01*
X136339451Y-91280111D01*
X136429952Y-91426834D01*
X136429955Y-91426838D01*
X136551861Y-91548744D01*
X136551865Y-91548747D01*
X136698588Y-91639248D01*
X136698599Y-91639253D01*
X136862247Y-91693480D01*
X136963251Y-91703799D01*
X137062400Y-91703798D01*
X137062400Y-90978800D01*
X136274901Y-90978800D01*
X136274901Y-91015454D01*
X135517265Y-91015454D01*
X135505053Y-90978599D01*
X135505048Y-90978588D01*
X135414547Y-90831865D01*
X135414544Y-90831861D01*
X135400617Y-90817934D01*
X135367132Y-90756611D01*
X135372116Y-90686919D01*
X135400617Y-90642572D01*
X135414940Y-90628250D01*
X135505508Y-90481416D01*
X135518521Y-90442145D01*
X136274900Y-90442145D01*
X136274900Y-90478800D01*
X137062400Y-90478800D01*
X137062400Y-89753799D01*
X136963260Y-89753800D01*
X136963244Y-89753801D01*
X136862247Y-89764119D01*
X136698599Y-89818346D01*
X136698588Y-89818351D01*
X136551865Y-89908852D01*
X136551861Y-89908855D01*
X136429955Y-90030761D01*
X136429952Y-90030765D01*
X136339451Y-90177488D01*
X136339446Y-90177499D01*
X136285219Y-90341147D01*
X136274900Y-90442145D01*
X135518521Y-90442145D01*
X135559774Y-90317653D01*
X135570100Y-90216577D01*
X135570099Y-89518224D01*
X135569102Y-89508467D01*
X135559774Y-89417147D01*
X135541003Y-89360500D01*
X135508992Y-89263900D01*
X135506591Y-89194075D01*
X135542322Y-89134033D01*
X135604843Y-89102840D01*
X135626699Y-89100899D01*
X135842471Y-89100899D01*
X135842472Y-89100899D01*
X135902083Y-89094491D01*
X136036931Y-89044196D01*
X136152146Y-88957946D01*
X136238396Y-88842731D01*
X136288691Y-88707883D01*
X136295100Y-88648273D01*
X136295099Y-86857066D01*
X136314784Y-86790028D01*
X136331418Y-86769385D01*
X136423986Y-86676818D01*
X136485310Y-86643334D01*
X136511667Y-86640500D01*
X136832656Y-86640500D01*
X136899695Y-86660185D01*
X136945450Y-86712989D01*
X136956058Y-86776653D01*
X136947899Y-86859500D01*
X136942059Y-86918800D01*
X136961375Y-87114929D01*
X136968271Y-87137662D01*
X137015338Y-87292821D01*
X137018588Y-87303533D01*
X137111486Y-87477332D01*
X137111490Y-87477339D01*
X137236516Y-87629683D01*
X137388860Y-87754709D01*
X137388867Y-87754713D01*
X137562666Y-87847611D01*
X137562669Y-87847611D01*
X137562673Y-87847614D01*
X137751268Y-87904824D01*
X137947400Y-87924141D01*
X138143532Y-87904824D01*
X138276903Y-87864365D01*
X138346770Y-87863742D01*
X138405883Y-87900990D01*
X138435474Y-87964284D01*
X138436899Y-87983026D01*
X138436899Y-88073164D01*
X138436900Y-88073177D01*
X138436900Y-89740348D01*
X138417215Y-89807387D01*
X138377997Y-89845886D01*
X138276553Y-89908457D01*
X138276548Y-89908461D01*
X138262225Y-89922784D01*
X138200901Y-89956268D01*
X138131209Y-89951282D01*
X138086865Y-89922782D01*
X138072938Y-89908855D01*
X138072934Y-89908852D01*
X137926211Y-89818351D01*
X137926200Y-89818346D01*
X137762552Y-89764119D01*
X137661554Y-89753800D01*
X137562400Y-89753800D01*
X137562400Y-91703799D01*
X137661540Y-91703799D01*
X137661554Y-91703798D01*
X137762552Y-91693480D01*
X137926200Y-91639253D01*
X137926211Y-91639248D01*
X138072935Y-91548747D01*
X138086860Y-91534821D01*
X138148182Y-91501333D01*
X138217873Y-91506314D01*
X138262227Y-91534817D01*
X138276550Y-91549140D01*
X138340597Y-91588644D01*
X138387321Y-91640592D01*
X138399500Y-91694183D01*
X138399500Y-93015858D01*
X138379815Y-93082897D01*
X138327011Y-93128652D01*
X138318847Y-93132034D01*
X138307669Y-93136204D01*
X138307664Y-93136206D01*
X138192455Y-93222452D01*
X138192452Y-93222455D01*
X138106206Y-93337664D01*
X138106202Y-93337671D01*
X138055908Y-93472517D01*
X138050531Y-93522538D01*
X138049501Y-93532123D01*
X138049500Y-93532135D01*
X138049500Y-94627870D01*
X138049501Y-94627876D01*
X138055909Y-94687484D01*
X138076304Y-94742168D01*
X138081288Y-94811860D01*
X138047802Y-94873182D01*
X137986479Y-94906667D01*
X137960122Y-94909500D01*
X137639878Y-94909500D01*
X137572839Y-94889815D01*
X137527084Y-94837011D01*
X137517140Y-94767853D01*
X137523696Y-94742168D01*
X137544090Y-94687485D01*
X137544091Y-94687484D01*
X137544091Y-94687483D01*
X137550500Y-94627873D01*
X137550499Y-93532128D01*
X137544091Y-93472517D01*
X137541182Y-93464718D01*
X137493797Y-93337671D01*
X137493793Y-93337664D01*
X137407547Y-93222455D01*
X137407544Y-93222452D01*
X137292335Y-93136206D01*
X137292328Y-93136202D01*
X137157482Y-93085908D01*
X137157483Y-93085908D01*
X137097883Y-93079501D01*
X137097881Y-93079500D01*
X137097873Y-93079500D01*
X137097864Y-93079500D01*
X136002129Y-93079500D01*
X136002123Y-93079501D01*
X135942516Y-93085908D01*
X135807671Y-93136202D01*
X135807664Y-93136206D01*
X135692455Y-93222452D01*
X135692452Y-93222455D01*
X135606206Y-93337664D01*
X135606202Y-93337671D01*
X135555908Y-93472517D01*
X135550531Y-93522538D01*
X135549501Y-93532123D01*
X135549500Y-93532135D01*
X135549500Y-94627870D01*
X135549501Y-94627876D01*
X135555908Y-94687483D01*
X135606202Y-94822328D01*
X135606206Y-94822335D01*
X135692452Y-94937544D01*
X135692455Y-94937547D01*
X135807665Y-95023794D01*
X135807667Y-95023794D01*
X135807669Y-95023796D01*
X135818830Y-95027958D01*
X135874764Y-95069826D01*
X135899184Y-95135289D01*
X135899500Y-95144141D01*
X135899500Y-97580144D01*
X135879815Y-97647183D01*
X135840603Y-97685679D01*
X135834150Y-97689659D01*
X135712159Y-97811651D01*
X135621593Y-97958481D01*
X135621591Y-97958486D01*
X135613535Y-97982799D01*
X135567326Y-98122247D01*
X135567326Y-98122248D01*
X135567325Y-98122248D01*
X135557000Y-98223315D01*
X135557000Y-98796669D01*
X135557001Y-98796687D01*
X135567325Y-98897752D01*
X135587142Y-98957554D01*
X135621592Y-99061516D01*
X135712160Y-99208350D01*
X135834150Y-99330340D01*
X135840991Y-99334559D01*
X135887718Y-99386503D01*
X135899900Y-99440101D01*
X135899900Y-107023228D01*
X135880215Y-107090267D01*
X135844969Y-107124867D01*
X135845216Y-107125179D01*
X135842315Y-107127472D01*
X135841000Y-107128764D01*
X135839554Y-107129655D01*
X135725580Y-107243629D01*
X135664257Y-107277113D01*
X135594565Y-107272129D01*
X135550218Y-107243628D01*
X135436251Y-107129661D01*
X135436250Y-107129660D01*
X135345029Y-107073395D01*
X135289418Y-107039093D01*
X135289413Y-107039091D01*
X135287969Y-107038612D01*
X135125653Y-106984826D01*
X135125651Y-106984825D01*
X135024578Y-106974500D01*
X134426230Y-106974500D01*
X134426212Y-106974501D01*
X134325147Y-106984825D01*
X134161384Y-107039092D01*
X134161381Y-107039093D01*
X134014548Y-107129661D01*
X133892561Y-107251648D01*
X133801993Y-107398481D01*
X133801992Y-107398484D01*
X133747726Y-107562247D01*
X133747726Y-107562248D01*
X133747725Y-107562248D01*
X133737400Y-107663315D01*
X133737400Y-107966691D01*
X133717715Y-108033730D01*
X133701081Y-108054372D01*
X132104673Y-109650781D01*
X132043350Y-109684266D01*
X132016992Y-109687100D01*
X129442638Y-109687100D01*
X129375599Y-109667415D01*
X129329844Y-109614611D01*
X129319900Y-109545453D01*
X129343371Y-109488789D01*
X129366352Y-109458089D01*
X129366354Y-109458086D01*
X129416596Y-109323379D01*
X129416598Y-109323372D01*
X129422999Y-109263844D01*
X129423000Y-109263827D01*
X129423000Y-108166000D01*
X128223001Y-108166000D01*
X128248021Y-108105598D01*
X128273000Y-107980019D01*
X128273000Y-107851981D01*
X128248021Y-107726402D01*
X128223001Y-107666000D01*
X129423000Y-107666000D01*
X129423000Y-106568172D01*
X129422999Y-106568155D01*
X129416598Y-106508627D01*
X129416596Y-106508620D01*
X129366354Y-106373913D01*
X129366350Y-106373906D01*
X129280190Y-106258812D01*
X129280187Y-106258809D01*
X129165093Y-106172649D01*
X129165086Y-106172645D01*
X129030379Y-106122403D01*
X129030372Y-106122401D01*
X128970844Y-106116000D01*
X127873000Y-106116000D01*
X127873000Y-107315998D01*
X127812598Y-107290979D01*
X127687019Y-107266000D01*
X127558981Y-107266000D01*
X127433402Y-107290979D01*
X127373000Y-107315998D01*
X127373000Y-106116000D01*
X126275155Y-106116000D01*
X126215627Y-106122401D01*
X126215620Y-106122403D01*
X126080913Y-106172645D01*
X126080906Y-106172649D01*
X125965812Y-106258809D01*
X125965809Y-106258812D01*
X125879649Y-106373906D01*
X125879645Y-106373913D01*
X125829403Y-106508620D01*
X125829401Y-106508627D01*
X125823000Y-106568155D01*
X125823000Y-107666000D01*
X127022999Y-107666000D01*
X126997979Y-107726402D01*
X126973000Y-107851981D01*
X126973000Y-107980019D01*
X126997979Y-108105598D01*
X127022999Y-108166000D01*
X125823000Y-108166000D01*
X125823000Y-109263844D01*
X125829401Y-109323372D01*
X125829403Y-109323379D01*
X125879645Y-109458086D01*
X125879647Y-109458089D01*
X125902629Y-109488789D01*
X125927046Y-109554253D01*
X125912194Y-109622526D01*
X125862789Y-109671932D01*
X125803362Y-109687100D01*
X124069608Y-109687100D01*
X124002569Y-109667415D01*
X123981927Y-109650781D01*
X123754598Y-109423452D01*
X123721113Y-109362129D01*
X123726097Y-109292437D01*
X123757938Y-109244872D01*
X123866557Y-109144089D01*
X123866557Y-109144087D01*
X123866561Y-109144085D01*
X124034815Y-108933102D01*
X124153409Y-108727690D01*
X124169743Y-108699399D01*
X124169743Y-108699398D01*
X124268334Y-108448195D01*
X124328383Y-108185103D01*
X124340901Y-108018053D01*
X124348549Y-107916004D01*
X124348549Y-107915995D01*
X124330951Y-107681161D01*
X124328383Y-107646897D01*
X124268334Y-107383805D01*
X124169743Y-107132602D01*
X124034815Y-106898898D01*
X123866561Y-106687915D01*
X123866560Y-106687914D01*
X123866557Y-106687910D01*
X123673334Y-106508627D01*
X123668741Y-106504365D01*
X123668737Y-106504362D01*
X123668730Y-106504356D01*
X123597648Y-106455893D01*
X123553346Y-106401864D01*
X123543500Y-106353440D01*
X123543500Y-104487482D01*
X128774000Y-104487482D01*
X130614542Y-104915515D01*
X130614548Y-104915516D01*
X130652360Y-104920678D01*
X130795425Y-104906330D01*
X130928644Y-104852261D01*
X130928652Y-104852257D01*
X131041240Y-104762847D01*
X131041241Y-104762845D01*
X131124081Y-104645336D01*
X131124083Y-104645332D01*
X131170461Y-104509239D01*
X131173999Y-104471247D01*
X131174000Y-104471226D01*
X131174000Y-102866000D01*
X128774000Y-102866000D01*
X128774000Y-104487482D01*
X123543500Y-104487482D01*
X123543500Y-104198210D01*
X123563185Y-104131171D01*
X123615989Y-104085416D01*
X123639403Y-104077435D01*
X124428472Y-103893932D01*
X124503563Y-103866533D01*
X124621194Y-103783608D01*
X124710697Y-103670901D01*
X124764822Y-103537544D01*
X124774500Y-103458198D01*
X124774500Y-103458147D01*
X125874000Y-103458147D01*
X125883669Y-103537424D01*
X125937736Y-103670641D01*
X125937742Y-103670651D01*
X126027150Y-103783237D01*
X126027151Y-103783238D01*
X126144668Y-103866083D01*
X126219677Y-103893452D01*
X126219689Y-103893455D01*
X128274000Y-104371203D01*
X128274000Y-102866000D01*
X125874000Y-102866000D01*
X125874000Y-103458147D01*
X124774500Y-103458147D01*
X124774500Y-101773849D01*
X125874000Y-101773849D01*
X125874000Y-102366000D01*
X128274000Y-102366000D01*
X128274000Y-100860795D01*
X126219695Y-101338541D01*
X126219674Y-101338548D01*
X126144667Y-101365916D01*
X126027151Y-101448760D01*
X125937742Y-101561347D01*
X125937736Y-101561357D01*
X125883669Y-101694574D01*
X125874000Y-101773849D01*
X124774500Y-101773849D01*
X124774500Y-101773803D01*
X124764821Y-101694456D01*
X124764820Y-101694454D01*
X124764820Y-101694452D01*
X124710699Y-101561103D01*
X124710693Y-101561093D01*
X124621194Y-101448393D01*
X124503563Y-101365467D01*
X124428470Y-101338067D01*
X122195064Y-100818670D01*
X121876202Y-100744516D01*
X128774000Y-100744516D01*
X128774000Y-102366000D01*
X131174001Y-102366000D01*
X131174001Y-100760777D01*
X131174000Y-100760759D01*
X131170462Y-100722761D01*
X131170460Y-100722753D01*
X131124084Y-100586671D01*
X131124080Y-100586663D01*
X131041240Y-100469154D01*
X131041239Y-100469152D01*
X130928651Y-100379742D01*
X130928643Y-100379738D01*
X130795423Y-100325669D01*
X130795424Y-100325669D01*
X130652358Y-100311321D01*
X130614540Y-100316484D01*
X128774000Y-100744516D01*
X121876202Y-100744516D01*
X120033518Y-100315984D01*
X119995661Y-100310816D01*
X119852454Y-100325178D01*
X119719101Y-100379301D01*
X119719093Y-100379306D01*
X119606392Y-100468805D01*
X119606391Y-100468806D01*
X119523469Y-100586433D01*
X119523466Y-100586437D01*
X119477042Y-100722667D01*
X119473500Y-100760701D01*
X119473500Y-101491500D01*
X119453815Y-101558539D01*
X119401011Y-101604294D01*
X119349500Y-101615500D01*
X119083782Y-101615500D01*
X119016743Y-101595815D01*
X118996101Y-101579181D01*
X118638819Y-101221899D01*
X118605334Y-101160576D01*
X118602500Y-101134218D01*
X118602500Y-98351377D01*
X118622185Y-98284338D01*
X118661406Y-98245837D01*
X118695654Y-98224713D01*
X118695653Y-98224713D01*
X118695656Y-98224712D01*
X118819712Y-98100656D01*
X118911814Y-97951334D01*
X118966999Y-97784797D01*
X118977500Y-97682009D01*
X118977499Y-96881992D01*
X118975591Y-96863317D01*
X118966999Y-96779203D01*
X118966998Y-96779200D01*
X118959105Y-96755381D01*
X118911814Y-96612666D01*
X118819712Y-96463344D01*
X118695656Y-96339288D01*
X118652443Y-96312634D01*
X118605720Y-96260687D01*
X118594498Y-96191724D01*
X118622341Y-96127642D01*
X118648648Y-96103996D01*
X118715782Y-96059139D01*
X118855139Y-95919782D01*
X118855139Y-95919780D01*
X118865347Y-95909573D01*
X118865348Y-95909570D01*
X119847865Y-94927054D01*
X127794301Y-94927054D01*
X127804619Y-95028052D01*
X127858846Y-95191700D01*
X127858851Y-95191711D01*
X127949352Y-95338434D01*
X127949355Y-95338438D01*
X128071261Y-95460344D01*
X128071265Y-95460347D01*
X128217988Y-95550848D01*
X128217999Y-95550853D01*
X128381647Y-95605080D01*
X128482651Y-95615399D01*
X128531799Y-95615398D01*
X128531800Y-95615398D01*
X128531800Y-94890400D01*
X127794301Y-94890400D01*
X127794301Y-94927054D01*
X119847865Y-94927054D01*
X121681140Y-93093781D01*
X121790632Y-92929914D01*
X121866052Y-92747835D01*
X121904501Y-92554540D01*
X121904501Y-92357459D01*
X121904501Y-92352349D01*
X121904500Y-92352323D01*
X121904500Y-88754500D01*
X121924185Y-88687461D01*
X121976989Y-88641706D01*
X122028500Y-88630500D01*
X125113500Y-88630500D01*
X125180539Y-88650185D01*
X125226294Y-88702989D01*
X125237500Y-88754500D01*
X125237500Y-89420786D01*
X125217815Y-89487825D01*
X125201181Y-89508467D01*
X125129716Y-89579931D01*
X125129709Y-89579940D01*
X125068007Y-89664864D01*
X125012677Y-89707530D01*
X124943063Y-89713508D01*
X124881269Y-89680901D01*
X124867372Y-89664863D01*
X124805907Y-89580263D01*
X124805902Y-89580257D01*
X124644242Y-89418597D01*
X124459276Y-89284211D01*
X124255568Y-89180417D01*
X124038124Y-89109765D01*
X123948000Y-89095490D01*
X123948000Y-90083252D01*
X123910292Y-90061482D01*
X123770409Y-90024000D01*
X123625591Y-90024000D01*
X123485708Y-90061482D01*
X123448000Y-90083252D01*
X123448000Y-89095490D01*
X123447999Y-89095490D01*
X123357875Y-89109765D01*
X123140431Y-89180417D01*
X122936723Y-89284211D01*
X122751757Y-89418597D01*
X122590097Y-89580257D01*
X122455711Y-89765223D01*
X122351917Y-89968929D01*
X122281265Y-90186371D01*
X122259468Y-90324000D01*
X123207252Y-90324000D01*
X123185482Y-90361708D01*
X123148000Y-90501591D01*
X123148000Y-90646409D01*
X123185482Y-90786292D01*
X123207252Y-90824000D01*
X122259468Y-90824000D01*
X122281265Y-90961628D01*
X122351917Y-91179070D01*
X122455711Y-91382776D01*
X122590097Y-91567742D01*
X122751757Y-91729402D01*
X122936723Y-91863788D01*
X123140429Y-91967582D01*
X123357871Y-92038234D01*
X123448000Y-92052509D01*
X123448000Y-91064747D01*
X123485708Y-91086518D01*
X123625591Y-91124000D01*
X123770409Y-91124000D01*
X123910292Y-91086518D01*
X123948000Y-91064747D01*
X123948000Y-92052508D01*
X124038128Y-92038234D01*
X124255570Y-91967582D01*
X124459276Y-91863788D01*
X124644242Y-91729402D01*
X124805905Y-91567739D01*
X124867371Y-91483137D01*
X124922701Y-91440470D01*
X124992314Y-91434491D01*
X125054109Y-91467096D01*
X125068007Y-91483134D01*
X125129714Y-91568066D01*
X125291434Y-91729786D01*
X125476462Y-91864217D01*
X125679327Y-91967582D01*
X125680244Y-91968049D01*
X125897751Y-92038721D01*
X125897752Y-92038721D01*
X125897755Y-92038722D01*
X126123646Y-92074500D01*
X126123647Y-92074500D01*
X126352353Y-92074500D01*
X126352354Y-92074500D01*
X126578245Y-92038722D01*
X126578248Y-92038721D01*
X126578249Y-92038721D01*
X126795755Y-91968049D01*
X126795755Y-91968048D01*
X126795758Y-91968048D01*
X126999538Y-91864217D01*
X127182245Y-91731472D01*
X127248046Y-91707994D01*
X127316100Y-91723819D01*
X127364795Y-91773924D01*
X127371308Y-91788459D01*
X127381702Y-91816328D01*
X127381706Y-91816335D01*
X127467952Y-91931544D01*
X127467955Y-91931547D01*
X127583164Y-92017793D01*
X127583171Y-92017797D01*
X127598119Y-92023372D01*
X127718017Y-92068091D01*
X127777627Y-92074500D01*
X127813354Y-92074499D01*
X127880391Y-92094182D01*
X127926147Y-92146985D01*
X127936092Y-92216143D01*
X127918893Y-92263595D01*
X127858395Y-92361677D01*
X127858391Y-92361686D01*
X127844007Y-92405095D01*
X127804126Y-92525447D01*
X127804126Y-92525448D01*
X127804125Y-92525448D01*
X127793800Y-92626515D01*
X127793800Y-93199869D01*
X127793801Y-93199887D01*
X127804125Y-93300952D01*
X127827564Y-93371683D01*
X127857411Y-93461757D01*
X127858392Y-93464715D01*
X127858393Y-93464718D01*
X127877935Y-93496400D01*
X127945809Y-93606442D01*
X127948961Y-93611551D01*
X128026882Y-93689472D01*
X128060367Y-93750795D01*
X128055383Y-93820487D01*
X128026883Y-93864834D01*
X127949352Y-93942365D01*
X127858851Y-94089088D01*
X127858846Y-94089099D01*
X127804619Y-94252747D01*
X127794300Y-94353745D01*
X127794300Y-94390400D01*
X128907800Y-94390400D01*
X128974839Y-94410085D01*
X129020594Y-94462889D01*
X129031800Y-94514400D01*
X129031800Y-95615399D01*
X129080940Y-95615399D01*
X129080954Y-95615398D01*
X129181952Y-95605080D01*
X129345600Y-95550853D01*
X129345611Y-95550848D01*
X129492333Y-95460348D01*
X129606264Y-95346417D01*
X129667587Y-95312932D01*
X129737279Y-95317916D01*
X129781627Y-95346417D01*
X129895950Y-95460740D01*
X130042784Y-95551308D01*
X130206547Y-95605574D01*
X130307623Y-95615900D01*
X130905976Y-95615899D01*
X130905984Y-95615898D01*
X130905987Y-95615898D01*
X130961330Y-95610244D01*
X131007053Y-95605574D01*
X131170816Y-95551308D01*
X131317650Y-95460740D01*
X131439640Y-95338750D01*
X131530208Y-95191916D01*
X131584474Y-95028153D01*
X131594800Y-94927077D01*
X131594799Y-94353724D01*
X131593950Y-94345416D01*
X131584474Y-94252647D01*
X131574763Y-94223341D01*
X131530208Y-94088884D01*
X131439640Y-93942050D01*
X131362070Y-93864480D01*
X131328586Y-93803156D01*
X131333570Y-93733465D01*
X131362067Y-93689122D01*
X131439640Y-93611550D01*
X131439643Y-93611544D01*
X131439648Y-93611540D01*
X131440245Y-93610786D01*
X131440786Y-93610402D01*
X131444747Y-93606442D01*
X131445424Y-93607119D01*
X131497268Y-93570411D01*
X131537508Y-93563700D01*
X131609531Y-93563700D01*
X131625623Y-93563700D01*
X131692662Y-93583385D01*
X131721476Y-93609035D01*
X131775516Y-93674883D01*
X131927860Y-93799909D01*
X131927867Y-93799913D01*
X132101666Y-93892811D01*
X132101669Y-93892811D01*
X132101673Y-93892814D01*
X132290268Y-93950024D01*
X132486400Y-93969341D01*
X132682532Y-93950024D01*
X132871127Y-93892814D01*
X132898143Y-93878374D01*
X132958032Y-93846362D01*
X133044938Y-93799910D01*
X133197283Y-93674883D01*
X133322310Y-93522538D01*
X133415214Y-93348727D01*
X133472424Y-93160132D01*
X133491741Y-92964000D01*
X133472424Y-92767868D01*
X133415214Y-92579273D01*
X133415211Y-92579269D01*
X133415211Y-92579266D01*
X133322313Y-92405467D01*
X133322309Y-92405460D01*
X133197283Y-92253116D01*
X133044939Y-92128090D01*
X133044932Y-92128086D01*
X132871133Y-92035188D01*
X132871127Y-92035186D01*
X132722885Y-91990217D01*
X132682529Y-91977975D01*
X132486400Y-91958659D01*
X132290270Y-91977975D01*
X132101666Y-92035188D01*
X131927867Y-92128086D01*
X131927860Y-92128090D01*
X131798137Y-92234553D01*
X131733827Y-92261866D01*
X131719472Y-92262700D01*
X131537508Y-92262700D01*
X131470469Y-92243015D01*
X131444884Y-92219819D01*
X131444747Y-92219957D01*
X131441947Y-92217157D01*
X131440245Y-92215614D01*
X131439644Y-92214854D01*
X131317651Y-92092861D01*
X131317650Y-92092860D01*
X131195947Y-92017793D01*
X131170818Y-92002293D01*
X131170813Y-92002291D01*
X131134376Y-91990217D01*
X131007053Y-91948026D01*
X131007051Y-91948025D01*
X130943709Y-91941554D01*
X133619601Y-91941554D01*
X133629919Y-92042552D01*
X133684146Y-92206200D01*
X133684151Y-92206211D01*
X133774652Y-92352934D01*
X133774655Y-92352938D01*
X133896561Y-92474844D01*
X133896565Y-92474847D01*
X134043288Y-92565348D01*
X134043299Y-92565353D01*
X134206947Y-92619580D01*
X134307952Y-92629899D01*
X134344600Y-92629899D01*
X134844600Y-92629899D01*
X134881240Y-92629899D01*
X134881254Y-92629898D01*
X134982252Y-92619580D01*
X135145900Y-92565353D01*
X135145911Y-92565348D01*
X135292634Y-92474847D01*
X135292638Y-92474844D01*
X135414544Y-92352938D01*
X135414547Y-92352934D01*
X135505048Y-92206211D01*
X135505053Y-92206200D01*
X135559280Y-92042552D01*
X135569599Y-91941554D01*
X135569600Y-91941541D01*
X135569600Y-91842400D01*
X134844600Y-91842400D01*
X134844600Y-92629899D01*
X134344600Y-92629899D01*
X134344600Y-91842400D01*
X133619601Y-91842400D01*
X133619601Y-91941554D01*
X130943709Y-91941554D01*
X130905984Y-91937700D01*
X130307621Y-91937700D01*
X130240582Y-91918015D01*
X130194827Y-91865211D01*
X130184883Y-91796053D01*
X130191437Y-91770372D01*
X130224591Y-91681483D01*
X130231000Y-91621873D01*
X130230999Y-89526128D01*
X130224591Y-89466517D01*
X130207534Y-89420786D01*
X130174297Y-89331671D01*
X130174293Y-89331664D01*
X130088047Y-89216455D01*
X130088044Y-89216452D01*
X129972835Y-89130206D01*
X129972828Y-89130202D01*
X129837982Y-89079908D01*
X129837983Y-89079908D01*
X129778383Y-89073501D01*
X129778381Y-89073500D01*
X129778373Y-89073500D01*
X129778364Y-89073500D01*
X127777629Y-89073500D01*
X127777623Y-89073501D01*
X127718016Y-89079908D01*
X127583171Y-89130202D01*
X127583164Y-89130206D01*
X127467955Y-89216452D01*
X127467953Y-89216454D01*
X127461765Y-89224721D01*
X127405830Y-89266591D01*
X127336139Y-89271573D01*
X127274816Y-89238087D01*
X127241333Y-89176763D01*
X127238500Y-89150408D01*
X127238500Y-88039458D01*
X127238499Y-88039457D01*
X127213678Y-87914670D01*
X127200051Y-87846164D01*
X127154840Y-87737016D01*
X127152465Y-87731283D01*
X127124635Y-87664093D01*
X127124634Y-87664092D01*
X127124632Y-87664086D01*
X127056778Y-87562535D01*
X127015140Y-87500219D01*
X126952386Y-87437465D01*
X126875782Y-87360861D01*
X126875781Y-87360860D01*
X126514208Y-86999288D01*
X126514206Y-86999285D01*
X126514206Y-86999286D01*
X126507139Y-86992219D01*
X126507139Y-86992218D01*
X126367782Y-86852861D01*
X126367781Y-86852860D01*
X126367780Y-86852859D01*
X126203920Y-86743371D01*
X126203907Y-86743364D01*
X126056881Y-86682465D01*
X126021837Y-86667949D01*
X126021829Y-86667947D01*
X125925188Y-86648724D01*
X125828544Y-86629500D01*
X125828541Y-86629500D01*
X122028500Y-86629500D01*
X121961461Y-86609815D01*
X121915706Y-86557011D01*
X121904500Y-86505500D01*
X121904500Y-84483458D01*
X121904499Y-84483457D01*
X121885239Y-84386627D01*
X121866051Y-84290164D01*
X121830274Y-84203791D01*
X121828668Y-84199913D01*
X121790635Y-84108092D01*
X121790628Y-84108079D01*
X121681140Y-83944219D01*
X121619381Y-83882460D01*
X121541782Y-83804861D01*
X121541781Y-83804860D01*
X120164208Y-82427288D01*
X120164206Y-82427285D01*
X120164206Y-82427286D01*
X120157139Y-82420219D01*
X120157139Y-82420218D01*
X120017782Y-82280861D01*
X120017781Y-82280860D01*
X120017780Y-82280859D01*
X119853920Y-82171371D01*
X119853911Y-82171366D01*
X119741859Y-82124953D01*
X119725165Y-82118038D01*
X119698500Y-82106993D01*
X119671837Y-82095949D01*
X119671833Y-82095948D01*
X119547344Y-82071186D01*
X119478543Y-82057500D01*
X119478541Y-82057500D01*
X118002531Y-82057500D01*
X117935492Y-82037815D01*
X117889737Y-81985011D01*
X117879793Y-81915853D01*
X117880218Y-81913114D01*
X117986660Y-81274466D01*
X117987615Y-81263650D01*
X117968726Y-81120973D01*
X117910406Y-80989397D01*
X117817378Y-80879581D01*
X117697180Y-80800423D01*
X117697179Y-80800422D01*
X117697178Y-80800422D01*
X117697178Y-80800421D01*
X117559558Y-80758337D01*
X117559550Y-80758335D01*
X117559549Y-80758335D01*
X117548724Y-80757500D01*
X115115277Y-80757500D01*
X115108781Y-80758001D01*
X115104449Y-80758335D01*
X115104444Y-80758336D01*
X114966824Y-80800421D01*
X114966821Y-80800422D01*
X114966820Y-80800423D01*
X114935293Y-80821186D01*
X114846622Y-80879581D01*
X114846619Y-80879584D01*
X114753595Y-80989394D01*
X114695275Y-81120968D01*
X114695273Y-81120976D01*
X114676385Y-81263644D01*
X114676385Y-81263657D01*
X114677339Y-81274454D01*
X114677341Y-81274466D01*
X114677341Y-81274468D01*
X115291612Y-84960101D01*
X115294437Y-84977048D01*
X115294438Y-84977055D01*
X115324422Y-85073179D01*
X115324423Y-85073180D01*
X115403581Y-85193378D01*
X115513397Y-85286406D01*
X115644973Y-85344726D01*
X115679140Y-85349443D01*
X115744712Y-85358499D01*
X115744725Y-85358500D01*
X116919276Y-85358501D01*
X117019027Y-85344726D01*
X117150603Y-85286406D01*
X117260418Y-85193378D01*
X117339577Y-85073180D01*
X117369562Y-84977051D01*
X117505385Y-84162114D01*
X117535823Y-84099223D01*
X117595431Y-84062772D01*
X117627698Y-84058500D01*
X118914218Y-84058500D01*
X118981257Y-84078185D01*
X119001899Y-84094819D01*
X119867181Y-84960101D01*
X119900666Y-85021424D01*
X119903500Y-85047782D01*
X119903500Y-91990217D01*
X119883815Y-92057256D01*
X119867181Y-92077898D01*
X117799899Y-94145181D01*
X117738576Y-94178666D01*
X117712218Y-94181500D01*
X117240389Y-94181500D01*
X117200728Y-94187781D01*
X117069302Y-94208597D01*
X116904552Y-94262128D01*
X116750211Y-94340768D01*
X116670256Y-94398859D01*
X116610072Y-94442586D01*
X116610070Y-94442588D01*
X116610069Y-94442588D01*
X116487588Y-94565069D01*
X116487588Y-94565070D01*
X116487586Y-94565072D01*
X116469114Y-94590497D01*
X116385768Y-94705211D01*
X116307128Y-94859550D01*
X116305669Y-94864041D01*
X116304429Y-94867855D01*
X116264993Y-94925529D01*
X116200634Y-94952727D01*
X116131788Y-94940812D01*
X116080312Y-94893567D01*
X116062500Y-94829535D01*
X116062500Y-92921781D01*
X116082185Y-92854742D01*
X116098815Y-92834104D01*
X116969778Y-91963141D01*
X116969782Y-91963139D01*
X117109139Y-91823782D01*
X117218632Y-91659914D01*
X117241615Y-91604426D01*
X117271961Y-91531166D01*
X117271961Y-91531165D01*
X117272337Y-91530258D01*
X117294051Y-91477836D01*
X117332500Y-91284540D01*
X117332500Y-91282500D01*
X117332802Y-91281469D01*
X117333097Y-91278480D01*
X117333664Y-91278535D01*
X117352185Y-91215461D01*
X117404989Y-91169706D01*
X117456500Y-91158500D01*
X117548713Y-91158500D01*
X117548723Y-91158500D01*
X117559549Y-91157665D01*
X117697180Y-91115577D01*
X117817378Y-91036418D01*
X117910406Y-90926603D01*
X117968726Y-90795027D01*
X117987615Y-90652350D01*
X117986659Y-90641532D01*
X117369563Y-86938950D01*
X117339577Y-86842820D01*
X117260419Y-86722622D01*
X117150603Y-86629594D01*
X117019027Y-86571274D01*
X117019023Y-86571273D01*
X116919287Y-86557500D01*
X116919274Y-86557499D01*
X115744718Y-86557499D01*
X115644975Y-86571273D01*
X115513394Y-86629595D01*
X115403584Y-86722619D01*
X115403577Y-86722627D01*
X115324426Y-86842813D01*
X115324422Y-86842820D01*
X115294439Y-86938943D01*
X115294438Y-86938948D01*
X114677339Y-90641536D01*
X114676385Y-90652343D01*
X114676385Y-90652356D01*
X114695273Y-90795023D01*
X114695275Y-90795031D01*
X114739619Y-90895074D01*
X114753594Y-90926603D01*
X114827723Y-91014110D01*
X114846623Y-91036420D01*
X114846625Y-91036421D01*
X114852238Y-91040118D01*
X114897401Y-91093429D01*
X114906571Y-91162694D01*
X114876838Y-91225922D01*
X114871719Y-91231359D01*
X114647499Y-91455580D01*
X114424221Y-91678858D01*
X114424218Y-91678861D01*
X114389352Y-91713727D01*
X114284859Y-91818219D01*
X114175371Y-91982080D01*
X114175366Y-91982089D01*
X114139744Y-92068091D01*
X114099948Y-92164165D01*
X114099946Y-92164170D01*
X114090848Y-92209915D01*
X114061500Y-92357455D01*
X114061500Y-92357459D01*
X114061500Y-97183459D01*
X114061500Y-97380541D01*
X114061500Y-97380543D01*
X114061499Y-97380543D01*
X112750500Y-97380543D01*
X112750500Y-79483045D01*
X133619600Y-79483045D01*
X133619600Y-79582200D01*
X134344600Y-79582200D01*
X134844600Y-79582200D01*
X135569599Y-79582200D01*
X135569599Y-79483060D01*
X135569598Y-79483045D01*
X135559280Y-79382047D01*
X135505053Y-79218399D01*
X135505048Y-79218388D01*
X135414547Y-79071665D01*
X135414544Y-79071661D01*
X135292638Y-78949755D01*
X135292634Y-78949752D01*
X135145911Y-78859251D01*
X135145900Y-78859246D01*
X134982252Y-78805019D01*
X134881254Y-78794700D01*
X134844600Y-78794700D01*
X134844600Y-79582200D01*
X134344600Y-79582200D01*
X134344600Y-78794700D01*
X134307961Y-78794700D01*
X134307943Y-78794701D01*
X134206947Y-78805019D01*
X134043299Y-78859246D01*
X134043288Y-78859251D01*
X133896565Y-78949752D01*
X133896561Y-78949755D01*
X133774655Y-79071661D01*
X133774652Y-79071665D01*
X133684151Y-79218388D01*
X133684146Y-79218399D01*
X133629919Y-79382047D01*
X133619600Y-79483045D01*
X112750500Y-79483045D01*
X112750500Y-76708000D01*
X123444000Y-76708000D01*
X129286000Y-76708000D01*
X129286000Y-74327654D01*
X137163101Y-74327654D01*
X137173419Y-74428652D01*
X137227646Y-74592300D01*
X137227651Y-74592311D01*
X137318152Y-74739034D01*
X137318155Y-74739038D01*
X137440061Y-74860944D01*
X137440065Y-74860947D01*
X137586788Y-74951448D01*
X137586799Y-74951453D01*
X137750447Y-75005680D01*
X137851451Y-75015999D01*
X137900599Y-75015998D01*
X137900600Y-75015998D01*
X137900600Y-74291000D01*
X137163101Y-74291000D01*
X137163101Y-74327654D01*
X129286000Y-74327654D01*
X129286000Y-73754345D01*
X137163100Y-73754345D01*
X137163100Y-73791000D01*
X137900600Y-73791000D01*
X137900600Y-73066000D01*
X137900599Y-73065999D01*
X137851461Y-73066000D01*
X137851443Y-73066001D01*
X137750447Y-73076319D01*
X137586799Y-73130546D01*
X137586788Y-73130551D01*
X137440065Y-73221052D01*
X137440061Y-73221055D01*
X137318155Y-73342961D01*
X137318152Y-73342965D01*
X137227651Y-73489688D01*
X137227646Y-73489699D01*
X137173419Y-73653347D01*
X137163100Y-73754345D01*
X129286000Y-73754345D01*
X129286000Y-71492135D01*
X152573500Y-71492135D01*
X152573500Y-73287870D01*
X152573501Y-73287876D01*
X152579908Y-73347483D01*
X152630202Y-73482328D01*
X152630206Y-73482335D01*
X152716452Y-73597544D01*
X152716455Y-73597547D01*
X152831664Y-73683793D01*
X152831671Y-73683797D01*
X152966517Y-73734091D01*
X152966516Y-73734091D01*
X152973444Y-73734835D01*
X153026127Y-73740500D01*
X154821872Y-73740499D01*
X154881483Y-73734091D01*
X155016331Y-73683796D01*
X155131546Y-73597546D01*
X155217796Y-73482331D01*
X155268091Y-73347483D01*
X155274500Y-73287873D01*
X155274500Y-73164500D01*
X155294185Y-73097461D01*
X155346989Y-73051706D01*
X155398500Y-73040500D01*
X161223192Y-73040500D01*
X161290231Y-73060185D01*
X161310873Y-73076819D01*
X162361181Y-74127126D01*
X162394666Y-74188449D01*
X162397500Y-74214807D01*
X162397500Y-76820842D01*
X162377815Y-76887881D01*
X162338598Y-76926380D01*
X162329344Y-76932087D01*
X162205289Y-77056142D01*
X162113187Y-77205463D01*
X162113186Y-77205466D01*
X162058001Y-77372003D01*
X162058001Y-77372004D01*
X162058000Y-77372004D01*
X162047500Y-77474783D01*
X162047500Y-78074801D01*
X162047501Y-78074819D01*
X162058000Y-78177596D01*
X162058001Y-78177599D01*
X162113185Y-78344131D01*
X162113187Y-78344136D01*
X162205289Y-78493457D01*
X162297404Y-78585572D01*
X162330889Y-78646895D01*
X162325905Y-78716587D01*
X162305577Y-78751918D01*
X162232086Y-78841466D01*
X162232086Y-78841467D01*
X162139188Y-79015266D01*
X162081975Y-79203870D01*
X162062659Y-79400000D01*
X162081975Y-79596129D01*
X162139188Y-79784733D01*
X162232086Y-79958532D01*
X162232090Y-79958539D01*
X162357116Y-80110883D01*
X162509460Y-80235909D01*
X162509467Y-80235913D01*
X162683266Y-80328811D01*
X162683269Y-80328811D01*
X162683273Y-80328814D01*
X162871868Y-80386024D01*
X163068000Y-80405341D01*
X163264132Y-80386024D01*
X163452727Y-80328814D01*
X163600189Y-80249994D01*
X167817557Y-80249994D01*
X167817557Y-80250005D01*
X167837307Y-80563942D01*
X167837308Y-80563949D01*
X167896255Y-80872958D01*
X167993463Y-81172132D01*
X167993465Y-81172137D01*
X168127400Y-81456761D01*
X168127403Y-81456767D01*
X168295957Y-81722367D01*
X168295960Y-81722371D01*
X168386786Y-81832160D01*
X169350413Y-80868533D01*
X169445329Y-80999175D01*
X169573325Y-81127171D01*
X169703965Y-81222086D01*
X168737471Y-82188579D01*
X168737472Y-82188581D01*
X168980272Y-82364985D01*
X168980290Y-82364996D01*
X169255947Y-82516540D01*
X169255955Y-82516544D01*
X169548426Y-82632340D01*
X169853120Y-82710573D01*
X169853129Y-82710575D01*
X170165201Y-82749999D01*
X170165215Y-82750000D01*
X170479785Y-82750000D01*
X170479798Y-82749999D01*
X170791870Y-82710575D01*
X170791879Y-82710573D01*
X171096573Y-82632340D01*
X171389044Y-82516544D01*
X171389052Y-82516540D01*
X171664709Y-82364996D01*
X171664719Y-82364990D01*
X171907526Y-82188579D01*
X171907527Y-82188579D01*
X170941033Y-81222086D01*
X171071675Y-81127171D01*
X171199671Y-80999175D01*
X171294586Y-80868533D01*
X172258212Y-81832160D01*
X172349044Y-81722364D01*
X172517596Y-81456767D01*
X172517599Y-81456761D01*
X172651534Y-81172137D01*
X172651536Y-81172132D01*
X172748744Y-80872958D01*
X172807691Y-80563949D01*
X172807692Y-80563942D01*
X172827443Y-80250005D01*
X172827443Y-80249994D01*
X172807692Y-79936057D01*
X172807691Y-79936050D01*
X172748744Y-79627041D01*
X172651536Y-79327867D01*
X172651534Y-79327862D01*
X172517599Y-79043238D01*
X172517596Y-79043232D01*
X172349042Y-78777632D01*
X172349039Y-78777628D01*
X172258212Y-78667838D01*
X171294585Y-79631465D01*
X171199671Y-79500825D01*
X171071675Y-79372829D01*
X170941033Y-79277913D01*
X171907527Y-78311419D01*
X171907526Y-78311417D01*
X171664727Y-78135014D01*
X171664709Y-78135003D01*
X171389052Y-77983459D01*
X171389044Y-77983455D01*
X171096573Y-77867659D01*
X170791879Y-77789426D01*
X170791870Y-77789424D01*
X170479798Y-77750000D01*
X170165201Y-77750000D01*
X169853129Y-77789424D01*
X169853120Y-77789426D01*
X169548426Y-77867659D01*
X169255955Y-77983455D01*
X169255947Y-77983459D01*
X168980287Y-78135004D01*
X168980282Y-78135007D01*
X168737472Y-78311418D01*
X168737471Y-78311419D01*
X169703966Y-79277913D01*
X169573325Y-79372829D01*
X169445329Y-79500825D01*
X169350413Y-79631465D01*
X168386786Y-78667838D01*
X168386785Y-78667838D01*
X168295959Y-78777629D01*
X168295957Y-78777632D01*
X168127403Y-79043232D01*
X168127400Y-79043238D01*
X167993465Y-79327862D01*
X167993463Y-79327867D01*
X167896255Y-79627041D01*
X167837308Y-79936050D01*
X167837307Y-79936057D01*
X167817557Y-80249994D01*
X163600189Y-80249994D01*
X163626538Y-80235910D01*
X163778883Y-80110883D01*
X163903910Y-79958538D01*
X163996814Y-79784727D01*
X164054024Y-79596132D01*
X164073341Y-79400000D01*
X164054024Y-79203868D01*
X163996814Y-79015273D01*
X163996811Y-79015269D01*
X163996811Y-79015266D01*
X163903913Y-78841467D01*
X163903909Y-78841460D01*
X163812393Y-78729948D01*
X163785080Y-78665638D01*
X163796871Y-78596770D01*
X163820559Y-78563608D01*
X163890712Y-78493456D01*
X163982814Y-78344134D01*
X164037999Y-78177597D01*
X164048500Y-78074809D01*
X164048499Y-77474792D01*
X164037999Y-77372003D01*
X163982814Y-77205466D01*
X163890712Y-77056144D01*
X163766656Y-76932088D01*
X163766655Y-76932087D01*
X163757402Y-76926380D01*
X163710678Y-76874432D01*
X163698500Y-76820842D01*
X163698500Y-73878711D01*
X168149500Y-73878711D01*
X168149500Y-74121288D01*
X168181161Y-74361785D01*
X168243947Y-74596104D01*
X168312017Y-74760438D01*
X168336776Y-74820212D01*
X168458064Y-75030289D01*
X168458066Y-75030292D01*
X168458067Y-75030293D01*
X168605733Y-75222736D01*
X168605739Y-75222743D01*
X168777256Y-75394260D01*
X168777263Y-75394266D01*
X168789542Y-75403688D01*
X168969711Y-75541936D01*
X169179788Y-75663224D01*
X169403900Y-75756054D01*
X169638211Y-75818838D01*
X169818586Y-75842584D01*
X169878711Y-75850500D01*
X169878712Y-75850500D01*
X170121289Y-75850500D01*
X170169388Y-75844167D01*
X170361789Y-75818838D01*
X170596100Y-75756054D01*
X170820212Y-75663224D01*
X171030289Y-75541936D01*
X171222738Y-75394265D01*
X171394265Y-75222738D01*
X171541936Y-75030289D01*
X171663224Y-74820212D01*
X171756054Y-74596100D01*
X171818838Y-74361789D01*
X171850500Y-74121288D01*
X171850500Y-73878712D01*
X171818838Y-73638211D01*
X171756054Y-73403900D01*
X171663224Y-73179788D01*
X171541936Y-72969711D01*
X171403525Y-72789330D01*
X171394266Y-72777263D01*
X171394260Y-72777256D01*
X171222743Y-72605739D01*
X171222736Y-72605733D01*
X171030293Y-72458067D01*
X171030292Y-72458066D01*
X171030289Y-72458064D01*
X170820212Y-72336776D01*
X170820205Y-72336773D01*
X170596104Y-72243947D01*
X170411697Y-72194535D01*
X170361789Y-72181162D01*
X170361788Y-72181161D01*
X170361785Y-72181161D01*
X170121289Y-72149500D01*
X170121288Y-72149500D01*
X169878712Y-72149500D01*
X169878711Y-72149500D01*
X169638214Y-72181161D01*
X169403895Y-72243947D01*
X169179794Y-72336773D01*
X169179785Y-72336777D01*
X168969706Y-72458067D01*
X168777263Y-72605733D01*
X168777256Y-72605739D01*
X168605739Y-72777256D01*
X168605733Y-72777263D01*
X168458067Y-72969706D01*
X168336777Y-73179785D01*
X168336773Y-73179794D01*
X168243947Y-73403895D01*
X168181161Y-73638214D01*
X168149500Y-73878711D01*
X163698500Y-73878711D01*
X163698500Y-73829928D01*
X163673502Y-73704261D01*
X163673501Y-73704260D01*
X163673501Y-73704256D01*
X163624465Y-73585873D01*
X163624464Y-73585872D01*
X163624461Y-73585866D01*
X163553277Y-73479332D01*
X163515407Y-73441462D01*
X163462669Y-73388724D01*
X163087920Y-73013975D01*
X161958674Y-71884727D01*
X161958673Y-71884726D01*
X161958669Y-71884723D01*
X161852127Y-71813535D01*
X161733744Y-71764499D01*
X161733738Y-71764497D01*
X161608071Y-71739500D01*
X161608069Y-71739500D01*
X155398499Y-71739500D01*
X155331460Y-71719815D01*
X155285705Y-71667011D01*
X155274499Y-71615500D01*
X155274499Y-71492129D01*
X155274498Y-71492123D01*
X155274497Y-71492116D01*
X155268091Y-71432517D01*
X155217796Y-71297669D01*
X155217795Y-71297668D01*
X155217793Y-71297664D01*
X155131547Y-71182455D01*
X155131544Y-71182452D01*
X155016335Y-71096206D01*
X155016328Y-71096202D01*
X154881482Y-71045908D01*
X154881483Y-71045908D01*
X154821883Y-71039501D01*
X154821881Y-71039500D01*
X154821873Y-71039500D01*
X154821864Y-71039500D01*
X153026129Y-71039500D01*
X153026123Y-71039501D01*
X152966516Y-71045908D01*
X152831671Y-71096202D01*
X152831664Y-71096206D01*
X152716455Y-71182452D01*
X152716452Y-71182455D01*
X152630206Y-71297664D01*
X152630202Y-71297671D01*
X152579908Y-71432517D01*
X152573501Y-71492116D01*
X152573501Y-71492123D01*
X152573500Y-71492135D01*
X129286000Y-71492135D01*
X129286000Y-71120000D01*
X123444000Y-71120000D01*
X123444000Y-76708000D01*
X112750500Y-76708000D01*
X112750500Y-73878711D01*
X114149500Y-73878711D01*
X114149500Y-74121288D01*
X114181161Y-74361785D01*
X114243947Y-74596104D01*
X114312017Y-74760438D01*
X114336776Y-74820212D01*
X114458064Y-75030289D01*
X114458066Y-75030292D01*
X114458067Y-75030293D01*
X114605733Y-75222736D01*
X114605739Y-75222743D01*
X114777256Y-75394260D01*
X114777263Y-75394266D01*
X114789542Y-75403688D01*
X114969711Y-75541936D01*
X115179788Y-75663224D01*
X115403900Y-75756054D01*
X115638211Y-75818838D01*
X115818586Y-75842584D01*
X115878711Y-75850500D01*
X115878712Y-75850500D01*
X116121289Y-75850500D01*
X116169388Y-75844167D01*
X116361789Y-75818838D01*
X116596100Y-75756054D01*
X116820212Y-75663224D01*
X117030289Y-75541936D01*
X117222738Y-75394265D01*
X117394265Y-75222738D01*
X117541936Y-75030289D01*
X117663224Y-74820212D01*
X117756054Y-74596100D01*
X117818838Y-74361789D01*
X117850500Y-74121288D01*
X117850500Y-73878712D01*
X117818838Y-73638211D01*
X117756054Y-73403900D01*
X117663224Y-73179788D01*
X117541936Y-72969711D01*
X117403525Y-72789330D01*
X117394266Y-72777263D01*
X117394260Y-72777256D01*
X117222743Y-72605739D01*
X117222736Y-72605733D01*
X117030293Y-72458067D01*
X117030292Y-72458066D01*
X117030289Y-72458064D01*
X116820212Y-72336776D01*
X116820205Y-72336773D01*
X116596104Y-72243947D01*
X116411697Y-72194535D01*
X116361789Y-72181162D01*
X116361788Y-72181161D01*
X116361785Y-72181161D01*
X116121289Y-72149500D01*
X116121288Y-72149500D01*
X115878712Y-72149500D01*
X115878711Y-72149500D01*
X115638214Y-72181161D01*
X115403895Y-72243947D01*
X115179794Y-72336773D01*
X115179785Y-72336777D01*
X114969706Y-72458067D01*
X114777263Y-72605733D01*
X114777256Y-72605739D01*
X114605739Y-72777256D01*
X114605733Y-72777263D01*
X114458067Y-72969706D01*
X114336777Y-73179785D01*
X114336773Y-73179794D01*
X114243947Y-73403895D01*
X114181161Y-73638214D01*
X114149500Y-73878711D01*
X112750500Y-73878711D01*
X112750500Y-70874500D01*
X112770185Y-70807461D01*
X112822989Y-70761706D01*
X112874500Y-70750500D01*
X173125500Y-70750500D01*
X173192539Y-70770185D01*
G37*
%TD.AperFunction*%
%TD*%
D58*
X112500000Y-113000000D02*
X173500000Y-113000000D01*
X173500000Y-70500000D02*
X112500000Y-70500000D01*
X173500000Y-113000000D02*
X173500000Y-70500000D01*
X112500000Y-70500000D02*
X112500000Y-113000000D01*
M02*
